<?xml version="1.0" encoding="UTF-8" standalone="no"?>
<svg width="30px" height="30px" viewBox="0 0 30 30" version="1.1" xmlns="http://www.w3.org/2000/svg" xmlns:xlink="http://www.w3.org/1999/xlink">
    <!-- Generator: Sketch 40.3 (33839) - http://www.bohemiancoding.com/sketch -->
    <title>Artboard Copy</title>
    <desc>Created with Sketch.</desc>
    <defs></defs>
    <g id="Page-1" stroke="none" stroke-width="1" fill="none" fill-rule="evenodd">
        <g id="Artboard-Copy">
            <g id="avalanche" transform="translate(0.000000, 1.500000)">
                <g id="Page-1">
                    <g id="Artboard">
                        <g id="avalanche" transform="translate(0.000000, 0.204918)">
                            <g id="Group">
                                <path d="M29.7130328,17.8497541 C29.6489754,17.6979098 28.8552049,15.9652869 28.2596312,15.3533607 C27.4875,14.2425 27.4582377,14.2833196 27.4875,14.2425 C28.8106967,12.3775819 29.3246311,10.4236476 28.7664344,8.660041 C27.8160246,5.6572131 24.0059016,3.99086066 19.1890574,4.04323771 C19.0209836,3.77311476 18.8070492,3.51049181 18.5490984,3.27110655 C17.9063115,2.67393443 17.1420492,2.35844262 16.4934836,2.35844262 L15.0381148,0 L11.7309836,5.3597951 C4.20196721,7.8890164 -0.759590165,13.2943033 0.594959015,17.5763115 C0.948688525,18.6936885 2.48459017,20.3002869 2.48459017,20.3002869 L0,24.4641393 C6.1115164,23.7256967 11.2156967,23.4570492 11.2156967,23.4570492 L11.5471721,22.1338524 C13.3461885,21.9973771 15.2531558,21.6338115 17.1828688,21.0229918 C17.7097131,20.8563934 18.2238934,20.675164 18.7259017,20.4813934 C18.9635655,21.2418442 19.2432787,22.1278278 19.2992213,22.2584016 C20.2256558,24.4472951 23.3085246,25.2349181 26.1843442,24.0178278 C29.0599181,22.8003689 30.639959,20.0387705 29.7130328,17.8497541 L29.7130328,17.8497541 L29.7130328,17.8497541 Z" id="Shape" fill="#005488"></path>
                                <path d="M19.3573771,19.0277459 C16.1336065,17.5166804 13.5146311,18.624836 12.8091394,18.7252869 C12.6233607,18.800041 12.4409017,18.8677869 12.2605328,18.9322131 C12.1314345,18.9791804 12.0025819,19.0244263 11.8764344,19.0658607 C8.37086065,20.2198771 5.9668033,19.5371312 4.76827869,17.9713525 C4.68836066,17.8681967 4.61631147,17.7590164 4.54721311,17.6471311 C3.07364754,15.2643443 4.04717213,11.2293443 7.7770082,8.2632787 C0.88819672,13.4853689 3.96073771,17.6869672 4.24622951,18.0204099 C4.25803279,18.0406967 4.27057377,18.0597541 4.2825,18.0805328 C2.36508196,21.2188524 0.93135246,23.595123 0.821065575,23.8630328 C4.95147541,23.409959 10.844877,22.9568852 10.844877,22.9568852 L12.1168033,19.3413935 C14.8427459,18.2463934 17.9133196,18.255123 20.6670492,20.0347131 C20.6669262,20.034836 20.5664754,19.4813115 19.3573771,19.0277459 L19.3573771,19.0277459 L19.3573771,19.0277459 Z" id="Shape" fill="#A7B1B7"></path>
                                <path d="M26.9604099,13.6704098 C27.1646312,13.7392623 27.8648361,11.8552869 27.8200819,10.8507787 C27.6788115,7.66340165 23.9910246,5.2267623 19.5261885,5.32315575 C19.4806967,5.75581965 19.3988115,6.12614755 19.2930738,6.39036885 L23.1590164,12.4137295 C23.1591394,12.4136066 25.2510246,12.5295492 26.9604099,13.6704098 L26.9604099,13.6704098 L26.9604099,13.6704098 Z" id="Shape" fill="#FFFFFF"></path>
                                <path d="M3.98163935,17.5533196 C1.94508196,14.3343442 4.74737705,9.7134836 10.3131148,6.6556967 C-3.49659836,12.8325 3.33159836,18.5489754 3.33159836,18.5489754 L4.01508197,17.6040984 C4.00377049,17.5872541 3.99233606,17.5707787 3.98163935,17.5533196 L3.98163935,17.5533196 L3.98163935,17.5533196 Z" id="Shape" fill="#FFFFFF"></path>
                                <path d="M12.1115164,20.6609017 L12.4638935,19.7542623 C16.8462295,18.2934836 18.357541,19.4522951 18.357541,19.4522951 C15.2345902,20.6609017 12.1115164,20.6609017 12.1115164,20.6609017 L12.1115164,20.6609017 L12.1115164,20.6609017 Z" id="Shape" fill="#FFFFFF"></path>
                                <path d="M13.862459,14.0530328 C14.9433196,13.674836 15.9957787,13.1813115 17.0813115,12.7729918 L17.0804508,12.7806147 C17.1464754,12.7531967 17.2125,12.7266393 17.2788935,12.6992213 C18.1535655,12.3805328 18.6896312,12.167336 18.6896312,12.167336 C18.6896312,12.167336 20.1895082,11.7287705 20.9894263,11.6561066 C19.5795492,11.6561066 17.1169672,12.364918 17.1169672,12.364918 C17.1169672,12.364918 16.6352459,12.5487295 16.3464345,12.6615984 C16.2178278,12.7112705 15.0962705,9.72959015 15.0962705,9.72959015 C15.0962705,9.72959015 13.9198771,13.0704099 13.6947541,13.7457787 C13.6772951,13.797541 12.905164,14.0487295 12.905164,14.0487295 C12.905164,14.0487295 11.0917623,14.8544262 10.3867623,14.9554918 C10.8420492,14.9554918 11.4419262,14.8113935 11.9625,14.6530328 C12.6175819,14.4940574 13.2146312,14.1972541 13.862459,14.0530328 L13.862459,14.0530328 L13.862459,14.0530328 Z" id="Shape"></path>
                                <path d="M7.77688525,8.2632787 C8.17758195,7.9594672 8.6107377,7.65184425 9.08213115,7.34139345 C8.6138115,7.6337705 8.180041,7.94262295 7.77688525,8.2632787 L7.77688525,8.2632787 L7.77688525,8.2632787 Z" id="Shape" fill="#A7B1B7"></path>
                                <path d="M14.2962295,13.4347131 C14.2962295,13.4347131 15.4404098,12.9138934 15.7544262,12.8788525 L15.1204918,11.0391393 L14.2962295,13.4347131 L14.2962295,13.4347131 L14.2962295,13.4347131 Z" id="Shape"></path>
                                <path d="M13.862459,14.0530328 C14.9433196,13.674836 15.9957787,13.1813115 17.0813115,12.7729918 L17.0804508,12.7806147 C17.1464754,12.7531967 17.2125,12.7266393 17.2788935,12.6992213 C18.1535655,12.3805328 18.6896312,12.167336 18.6896312,12.167336 C18.6896312,12.167336 20.1895082,11.7287705 20.9894263,11.6561066 C19.5795492,11.6561066 17.1169672,12.364918 17.1169672,12.364918 C17.1169672,12.364918 16.6352459,12.5487295 16.3464345,12.6615984 C16.2178278,12.7112705 15.0962705,9.72959015 15.0962705,9.72959015 C15.0962705,9.72959015 13.9198771,13.0704099 13.6947541,13.7457787 C13.6772951,13.797541 12.905164,14.0487295 12.905164,14.0487295 C12.905164,14.0487295 11.0917623,14.8544262 10.3867623,14.9554918 C10.8420492,14.9554918 11.4419262,14.8113935 11.9625,14.6530328 C12.6175819,14.4940574 13.2146312,14.1972541 13.862459,14.0530328 L13.862459,14.0530328 L13.862459,14.0530328 Z" id="Shape"></path>
                                <path d="M9.58536885,7.74442625 C5.15286885,10.2631967 4.85040983,14.9980328 4.85040983,14.9980328 C4.85040983,14.9980328 5.15286885,14.8969672 5.15286885,14.9980328 C5.1164754,15.7965984 5.2377049,16.385041 5.4587705,16.8317213 L6.88290985,14.4783196 C6.1909426,13.197664 6.2572131,10.9803688 9.58536885,7.74442625 L9.58536885,7.74442625 L9.58536885,7.74442625 Z" id="Shape" fill="#FFFFFF"></path>
                                <path d="M4.50049181,18.4147131 L1.4252459,23.4935655 L10.6263935,22.6545492 L11.727664,19.4928689 C10.8055328,19.8061475 6.4572541,21.1015574 4.50049181,18.4147131 L4.50049181,18.4147131 L4.50049181,18.4147131 Z" id="Shape" fill="#8B2942"></path>
                                <path d="M11.8764344,19.0658606 L12.1654918,18.2356967 C10.5762295,18.6576639 8.9890574,18.8979098 7.26860655,18.2220492 C6.5593033,17.9638524 5.85159835,17.6231557 5.4587705,16.8317213 L4.76815574,17.9714754 C5.9668033,19.5371311 8.37086065,20.22 11.8764344,19.0658606 L11.8764344,19.0658606 L11.8764344,19.0658606 Z" id="Shape"></path>
                                <path d="M15.1204918,11.0391393 L14.2962295,13.4345902 C14.2962295,13.4345902 15.4404098,12.9137705 15.7544262,12.8787295 L15.1204918,11.0391393 L15.1204918,11.0391393 L15.1204918,11.0391393 Z" id="Shape"></path>
                                <path d="M29.5863934,20.4988525 C28.6761885,22.9063524 24.2431967,25.4254918 21.0477049,23.7409426 C20.2134836,23.2589754 19.8106967,22.6043852 19.1856147,21.2353279 C21.6746311,24.0646721 26.7947951,20.1719262 26.7947951,20.1719262 C26.7947951,20.1719262 27.6403278,19.9584836 27.6403278,19.3093033 C28.0732377,18.9856967 28.2895082,18.5534017 28.6137295,18.1209836 C28.937336,18.7695492 29.5863934,20.4988525 29.5863934,20.4988525 L29.5863934,20.4988525 L29.5863934,20.4988525 Z" id="Shape" fill="#000000"></path>
                                <path d="M14.2962295,13.4347131 C14.2962295,13.4347131 15.4404098,12.9138934 15.7544262,12.8788525 L15.1204918,11.0391393 L14.2962295,13.4347131 L14.2962295,13.4347131 L14.2962295,13.4347131 Z" id="Shape"></path>
                                <path d="M17.1170901,12.365041 C17.1170901,12.365041 16.6353688,12.5488525 16.3465574,12.6617213 C16.2179508,12.7113934 15.0963935,9.7297131 15.0963935,9.7297131 C15.0963935,9.7297131 13.92,13.0705328 13.6948771,13.7459017 C13.677418,13.797664 12.9052869,14.0488525 12.9052869,14.0488525 C12.9052869,14.0488525 11.0918853,14.8545492 10.3868853,14.9556148 C10.8421721,14.9556148 11.4420492,14.8115164 11.962623,14.6531557 C12.6175819,14.4943033 13.2146312,14.1973771 13.8625819,14.0532787 C14.9434426,13.6750819 15.9959017,13.1815574 17.0814344,12.7732377 L17.0805737,12.7808606 C17.1465984,12.7534426 17.212623,12.7268853 17.2790164,12.6994672 C18.1536885,12.3807787 18.6897541,12.167582 18.6897541,12.167582 C18.6897541,12.167582 20.1896312,11.7290164 20.9895492,11.6563524 C19.5795492,11.6562295 17.1170901,12.365041 17.1170901,12.365041 L17.1170901,12.365041 L17.1170901,12.365041 Z M14.2962295,13.4347131 L15.1204918,11.0392623 L15.7544262,12.8789754 C15.4404098,12.9137705 14.2962295,13.4347131 14.2962295,13.4347131 L14.2962295,13.4347131 L14.2962295,13.4347131 Z" id="Shape" fill="#A7B1B7"></path>
                                <path d="M16.3465574,12.6615984 C16.2179508,12.7112705 15.0963935,9.72959015 15.0963935,9.72959015 C15.0963935,9.72959015 13.92,13.0704099 13.6948771,13.7457787 C13.677418,13.797541 12.9052869,14.0487295 12.9052869,14.0487295 C12.9052869,14.0487295 11.0918853,14.8544262 10.3868853,14.9554918 C10.8421721,14.9554918 11.4420492,14.8113935 11.962623,14.6530328 C12.6175819,14.4941804 13.2146312,14.1972541 13.8625819,14.0531558 C14.9434426,13.674959 15.9959017,13.1814344 17.0814344,12.7731147 L17.0805737,12.7807377 C17.1465984,12.7533196 17.212623,12.7267623 17.2790164,12.6993442 C18.1536885,12.3806558 18.6897541,12.167459 18.6897541,12.167459 C18.6897541,12.167459 20.1896312,11.7288934 20.9895492,11.6562295 C19.5796722,11.6562295 17.1170901,12.365041 17.1170901,12.365041 C17.1170901,12.365041 16.6352459,12.5487295 16.3465574,12.6615984 L16.3465574,12.6615984 L16.3465574,12.6615984 Z" id="Shape"></path>
                                <path d="M22.5308607,12.3790574 L15.0254508,0.64192623 C15.0254508,0.64192623 7.46987705,13.0502459 7.47282785,12.8904098 C7.3257787,13.2244672 7.2631967,13.5372541 7.2817623,13.8206558 L7.6379508,13.2314754 L15.0464754,1.22987705 L22.0439754,12.1034017 C22.135082,12.2402459 22.2004918,12.3532377 22.2437705,12.4461885 C22.9085655,12.4905737 22.5308607,12.3790574 22.5308607,12.3790574 L22.5308607,12.3790574 L22.5308607,12.3790574 Z" id="Shape" fill="#A7B1B7"></path>
                                <path d="M22.0439754,12.1032787 L15.0464754,1.2297541 L7.6379508,13.2313524 L7.2817623,13.8205328 C7.3988115,15.6083607 10.7787295,16.2015984 16.842418,13.3231967 C17.8892213,12.8269672 19.2931967,12.495123 21.174836,12.4370901 C21.4491393,12.4286066 21.7326639,12.4255328 22.0270082,12.4290984 C22.1098771,12.4365984 22.1814345,12.4418853 22.2436475,12.4460656 C22.2004918,12.3531147 22.134959,12.2401229 22.0439754,12.1032787 L22.0439754,12.1032787 L22.0439754,12.1032787 Z M18.6896311,12.167459 C18.6896311,12.167459 18.1535655,12.3806558 17.2788935,12.6993442 C17.2125,12.7266393 17.1464754,12.7533197 17.0804508,12.7807377 L17.0813115,12.7731148 C15.9956558,13.1813115 14.9433196,13.674836 13.862459,14.0531558 C13.2145082,14.1972541 12.6175819,14.4941804 11.9625,14.6530328 C11.4419262,14.8113935 10.8420492,14.9554918 10.3867623,14.9554918 C11.0917623,14.8545492 12.9051639,14.0487295 12.9051639,14.0487295 C12.9051639,14.0487295 13.6772951,13.797541 13.6947541,13.7457787 C13.9198771,13.0705328 15.0962705,9.72959015 15.0962705,9.72959015 C15.0962705,9.72959015 16.2178278,12.7112705 16.3464345,12.6615984 C16.6352459,12.5487295 17.1169672,12.364918 17.1169672,12.364918 C17.1169672,12.364918 19.5794262,11.6561066 20.9894262,11.6561066 C20.1895082,11.7288935 18.6896311,12.167459 18.6896311,12.167459 L18.6896311,12.167459 L18.6896311,12.167459 Z" id="Shape" fill="#8B2942"></path>
                                <path d="M19.0191393,6.0552049 C19.71,2.30446721 15.1626639,2.58995901 15.1626639,2.58995901 L14.974918,3.5242623 L14.2784016,3.79143442 L13.7433196,5.43159835 L13.2861885,5.71918035 L12.4734836,7.115041 C12.4734836,7.115041 17.5739754,3.31954918 19.0191393,6.0552049 L19.0191393,6.0552049 L19.0191393,6.0552049 Z" id="Shape" fill="#FFFFFF"></path>
                                <path d="M14.7234836,4.38639345 L14.5889754,4.78954918 C14.5889754,4.78954918 17.0743033,3.91635246 18.4841803,4.65504099 C18.4841803,4.65504099 17.880123,3.64758197 14.7234836,4.38639345 L14.7234836,4.38639345 L14.7234836,4.38639345 Z" id="Shape" fill="#005488"></path>
                                <path d="M13.5146311,6.1327869 C13.5146311,6.1327869 13.5146311,6.1327869 13.7159016,5.67934425 C17.4436476,3.66418033 18.6018442,5.0747951 18.6018442,5.0747951 C16.5869263,4.06733607 13.5146311,6.1327869 13.5146311,6.1327869 L13.5146311,6.1327869 L13.5146311,6.1327869 Z" id="Shape" fill="#A7B1B7"></path>
                                <path d="M26.1071312,13.8898771 C23.4806558,12.6206557 20.9242623,12.8040984 19.2563115,13.1735655 C18.0777049,13.435082 17.3427049,13.7888115 17.3427049,13.7888115 C12.6581558,15.7534426 10.4415983,16.1061885 8.77942625,15.6022131 C8.6787295,15.7032787 8.6787295,15.8037295 8.4772131,15.8037295 C8.0665574,15.7256557 7.3222131,15.2905328 6.88290985,14.4781967 L5.4587705,16.8315984 C5.85159835,17.6231557 6.5593033,17.9637295 7.26860655,18.2219262 C8.98893445,18.8977869 10.5762295,18.657541 12.1654918,18.2355738 C14.484959,17.6209426 16.8092213,16.6196312 19.5584017,17.5165574 C21.2718443,18.1209836 23.8908197,19.6822131 23.8908197,20.9419672 C21.2717213,22.3018033 19.659959,20.8410246 19.4581967,20.6396311 C20.364959,22.0502459 22.430041,21.9993443 23.7897541,21.2439345 L24.5364345,20.8732377 L24.1931557,20.1356558 L24.3946722,19.9341393 L24.9986066,20.437377 L24.5956967,19.2287705 C24.5956967,19.1283197 25.7042213,20.2364754 25.7042213,20.2364754 C26.0066803,20.2364754 24.6963934,18.4229508 24.6963934,18.4229508 C24.6963934,18.4229508 24.1931557,18.724918 23.9912705,18.8257377 C23.3869672,17.7177049 21.5229099,16.7606558 21.1707787,16.6095492 C20.4655328,16.3070902 18.0982377,15.6017213 15.8313935,15.9041804 C17.2921721,15.350164 18.5515574,15.1989344 19.7601639,15.3 C22.782541,15.5013935 24.3947951,17.7177049 24.3947951,17.7177049 L24.8980328,17.3147951 C24.8980328,17.3147951 27.0137705,19.5309836 27.3159836,20.9415983 L27.3159836,17.9190983 C27.4166804,17.8186476 27.4166804,17.8186476 27.5175,17.7177049 C27.7191393,17.8186476 27.9206558,18.2215574 27.9206558,18.2215574 L28.0215984,16.9115164 C28.8272951,17.7178278 29.3309017,18.8257377 29.5326639,19.9340164 C29.6333607,17.5166804 28.1222951,15.1994263 26.1071312,13.8898771 L26.1071312,13.8898771 L26.1071312,13.8898771 Z" id="Shape" fill="#FFFFFF"></path>
                                <path d="M23.7898771,13.2352869 C23.7898771,13.2352869 26.4676229,14.9794672 26.5389344,15.492418 L26.047623,16.0792623 L25.8825,16.8719263 L25.3942623,16.2993443 C25.3942623,16.2993443 25.2318443,16.3249181 25.149959,16.4336066 C24.5454098,15.6272951 23.5375819,15.1240574 22.6316803,14.6200819 C20.5159426,13.914959 18.1988115,13.914959 16.0835655,14.6200819 C13.8670082,15.6272951 11.6505737,16.635 9.23262295,16.635 C6.25893445,16.3772951 6.18762295,14.2942623 6.17016395,13.0704099 L6.51282785,11.1193033 C6.51282785,11.1193033 3.89311476,16.1563524 7.7218033,17.0379098 C10.5421722,17.5418852 13.1616393,16.3332787 15.5795902,15.2245082 C16.8388525,14.7457377 20.9189754,13.3357377 24.3441393,16.4336066 C24.6462295,16.5345492 24.7470492,16.8363934 25.0490164,17.0377869 C25.1498361,16.937459 25.4518033,16.8363934 25.4518033,16.8363934 L26.1574181,17.6427049 C26.1574181,17.6427049 26.2583607,16.8363934 26.3591803,16.4336066 C26.4601229,16.3331557 26.5603279,16.2320902 26.5603279,16.2320902 L26.862541,15.7282377 L26.862541,15.5268442 L26.862541,15.3253279 C25.8721722,13.8227459 23.7898771,13.2352869 23.7898771,13.2352869 L23.7898771,13.2352869 L23.7898771,13.2352869 Z" id="Shape" fill="#005488"></path>
                                <path d="M24.63,22.2516394 L24.4283606,22.6545492 C21.4728689,23.6955738 20.2304508,22.5202869 20.0964345,22.3188935 C22.2453688,23.3932377 24.63,22.2516394 24.63,22.2516394 L24.63,22.2516394 L24.63,22.2516394 Z" id="Shape" fill="#A7B1B7"></path>
                                <path d="M26.8793852,22.284959 L26.8122541,22.6545492 C22.4471312,25.0722541 20.7004918,23.0906557 20.7004918,23.0906557 C20.7004918,23.0906557 22.9506147,24.6023361 26.8793852,22.284959 L26.8793852,22.284959 L26.8793852,22.284959 Z" id="Shape" fill="#A7B1B7"></path>
                            </g>
                        </g>
                    </g>
                </g>
            </g>
        </g>
    </g>
</svg>