<?xml version="1.0" encoding="UTF-8" standalone="no"?>
<svg width="60px" height="60px" viewBox="0 0 60 60" version="1.1" xmlns="http://www.w3.org/2000/svg" xmlns:xlink="http://www.w3.org/1999/xlink">
    <!-- Generator: Sketch 40.3 (33839) - http://www.bohemiancoding.com/sketch -->
    <title>Artboard</title>
    <desc>Created with Sketch.</desc>
    <defs></defs>
    <g id="Page-1" stroke="none" stroke-width="1" fill="none" fill-rule="evenodd">
        <g id="Artboard">
            <g id="avalanche" transform="translate(0.000000, 5.409836)">
                <g id="Group">
                    <path d="M59.4260656,35.6995082 C59.2979508,35.3958197 57.7104098,31.9305738 56.5192623,30.7067213 C54.975,28.485 54.9164754,28.5666393 54.975,28.485 C57.6213934,24.7551639 58.6492623,20.8472951 57.5328689,17.320082 C55.6320492,11.3144262 48.0118033,7.98172131 38.3781148,8.08647541 C38.0419672,7.54622951 37.6140984,7.02098361 37.0981967,6.54221311 C35.812623,5.34786885 34.2840984,4.71688525 32.9869672,4.71688525 L30.0762295,0 L23.4619672,10.7195902 C8.40393443,15.7780328 -1.51918033,26.5886066 1.18991803,35.152623 C1.89737705,37.387377 4.96918033,40.6005738 4.96918033,40.6005738 L0,48.9282787 C12.2230328,47.4513934 22.4313934,46.9140984 22.4313934,46.9140984 L23.0943443,44.2677049 C26.692377,43.9947541 30.5063115,43.267623 34.3657377,42.0459836 C35.4194262,41.7127869 36.4477869,41.3503279 37.4518033,40.9627869 C37.9271311,42.4836885 38.4865574,44.2556557 38.5984426,44.5168033 C40.4513115,48.8945902 46.6170492,50.4698361 52.3686885,48.0356557 C58.1198361,45.6007377 61.279918,40.077541 59.4260656,35.6995082 L59.4260656,35.6995082 Z" id="Shape" fill="#005488"></path>
                    <path d="M38.7147541,38.0554918 C32.2672131,35.0333607 27.0292623,37.2496721 25.6182787,37.4505738 C25.2467213,37.600082 24.8818033,37.7355738 24.5210656,37.8644262 C24.2628689,37.9583607 24.0051639,38.0488525 23.7528689,38.1317213 C16.7417213,40.4397541 11.9336066,39.0742623 9.53655738,35.9427049 C9.37672131,35.7363934 9.23262295,35.5180328 9.09442623,35.2942623 C6.14729508,30.5286885 8.09434426,22.4586885 15.5540164,16.5265574 C1.77639344,26.9707377 7.92147541,35.3739344 8.49245902,36.0408197 C8.51606557,36.0813934 8.54114754,36.1195082 8.565,36.1610656 C4.73016393,42.4377049 1.86270492,47.1902459 1.64213115,47.7260656 C9.90295082,46.819918 21.6897541,45.9137705 21.6897541,45.9137705 L24.2336066,38.6827869 C29.6854918,36.4927869 35.8266393,36.5102459 41.3340984,40.0694262 C41.3338525,40.0696721 41.1329508,38.962623 38.7147541,38.0554918 L38.7147541,38.0554918 Z" id="Shape" fill="#A7B1B7"></path>
                    <path d="M53.9208197,27.3408197 C54.3292623,27.4785246 55.7296721,23.7105738 55.6401639,21.7015574 C55.357623,15.3268033 47.9820492,10.4535246 39.052377,10.6463115 C38.9613934,11.5116393 38.797623,12.2522951 38.5861475,12.7807377 L46.3180328,24.827459 C46.3182787,24.8272131 50.5020492,25.0590984 53.9208197,27.3408197 L53.9208197,27.3408197 Z" id="Shape" fill="#FFFFFF"></path>
                    <path d="M7.96327869,35.1066393 C3.89016393,28.6686885 9.4947541,19.4269672 20.6262295,13.3113934 C-6.99319672,25.665 6.66319672,37.0979508 6.66319672,37.0979508 L8.03016393,35.2081967 C8.00754098,35.1745082 7.98467213,35.1415574 7.96327869,35.1066393 L7.96327869,35.1066393 Z" id="Shape" fill="#FFFFFF"></path>
                    <path d="M24.2230328,41.3218033 L24.9277869,39.5085246 C33.692459,36.5869672 36.715082,38.9045902 36.715082,38.9045902 C30.4691803,41.3218033 24.2230328,41.3218033 24.2230328,41.3218033 L24.2230328,41.3218033 Z" id="Shape" fill="#FFFFFF"></path>
                    <path d="M27.724918,28.1060656 C29.8866393,27.3496721 31.9915574,26.362623 34.162623,25.5459836 L34.1609016,25.5612295 C34.2929508,25.5063934 34.425,25.4532787 34.5577869,25.3984426 C36.3071311,24.7610656 37.3792623,24.3346721 37.3792623,24.3346721 C37.3792623,24.3346721 40.3790164,23.457541 41.9788525,23.3122131 C39.1590984,23.3122131 34.2339344,24.7298361 34.2339344,24.7298361 C34.2339344,24.7298361 33.2704918,25.097459 32.6928689,25.3231967 C32.4356557,25.422541 30.192541,19.4591803 30.192541,19.4591803 C30.192541,19.4591803 27.8397541,26.1408197 27.3895082,27.4915574 C27.3545902,27.595082 25.8103279,28.097459 25.8103279,28.097459 C25.8103279,28.097459 22.1835246,29.7088525 20.7735246,29.9109836 C21.6840984,29.9109836 22.8838525,29.6227869 23.925,29.3060656 C25.2351639,28.9881148 26.4292623,28.3945082 27.724918,28.1060656 L27.724918,28.1060656 Z" id="Shape"></path>
                    <path d="M15.5537705,16.5265574 C16.3551639,15.9189344 17.2214754,15.3036885 18.1642623,14.6827869 C17.227623,15.267541 16.360082,15.8852459 15.5537705,16.5265574 L15.5537705,16.5265574 Z" id="Shape" fill="#A7B1B7"></path>
                    <path d="M28.592459,26.8694262 C28.592459,26.8694262 30.8808197,25.8277869 31.5088525,25.7577049 L30.2409836,22.0782787 L28.592459,26.8694262 L28.592459,26.8694262 Z" id="Shape"></path>
                    <path d="M27.724918,28.1060656 C29.8866393,27.3496721 31.9915574,26.362623 34.162623,25.5459836 L34.1609016,25.5612295 C34.2929508,25.5063934 34.425,25.4532787 34.5577869,25.3984426 C36.3071311,24.7610656 37.3792623,24.3346721 37.3792623,24.3346721 C37.3792623,24.3346721 40.3790164,23.457541 41.9788525,23.3122131 C39.1590984,23.3122131 34.2339344,24.7298361 34.2339344,24.7298361 C34.2339344,24.7298361 33.2704918,25.097459 32.6928689,25.3231967 C32.4356557,25.422541 30.192541,19.4591803 30.192541,19.4591803 C30.192541,19.4591803 27.8397541,26.1408197 27.3895082,27.4915574 C27.3545902,27.595082 25.8103279,28.097459 25.8103279,28.097459 C25.8103279,28.097459 22.1835246,29.7088525 20.7735246,29.9109836 C21.6840984,29.9109836 22.8838525,29.6227869 23.925,29.3060656 C25.2351639,28.9881148 26.4292623,28.3945082 27.724918,28.1060656 L27.724918,28.1060656 Z" id="Shape"></path>
                    <path d="M19.1707377,15.4888525 C10.3057377,20.5263934 9.70081967,29.9960656 9.70081967,29.9960656 C9.70081967,29.9960656 10.3057377,29.7939344 10.3057377,29.9960656 C10.2329508,31.5931967 10.4754098,32.770082 10.917541,33.6634426 L13.7658197,28.9566393 C12.3818852,26.3953279 12.5144262,21.9607377 19.1707377,15.4888525 L19.1707377,15.4888525 Z" id="Shape" fill="#FFFFFF"></path>
                    <path d="M9.00098361,36.8294262 L2.8504918,46.9871311 L21.2527869,45.3090984 L23.4553279,38.9857377 C21.6110656,39.6122951 12.9145082,42.2031148 9.00098361,36.8294262 L9.00098361,36.8294262 Z" id="Shape" fill="#8B2942"></path>
                    <path d="M23.7528689,38.1317213 L24.3309836,36.4713934 C21.152459,37.3153279 17.9781148,37.7958197 14.5372131,36.4440984 C13.1186066,35.9277049 11.7031967,35.2463115 10.917541,33.6634426 L9.53631148,35.9429508 C11.9336066,39.0742623 16.7417213,40.44 23.7528689,38.1317213 L23.7528689,38.1317213 Z" id="Shape"></path>
                    <path d="M30.2409836,22.0782787 L28.592459,26.8691803 C28.592459,26.8691803 30.8808197,25.827541 31.5088525,25.757459 L30.2409836,22.0782787 L30.2409836,22.0782787 Z" id="Shape"></path>
                    <path d="M59.1727869,40.9977049 C57.352377,45.8127049 48.4863934,50.8509836 42.0954098,47.4818852 C40.4269672,46.5179508 39.6213934,45.2087705 38.3712295,42.4706557 C43.3492623,48.1293443 53.5895902,40.3438525 53.5895902,40.3438525 C53.5895902,40.3438525 55.2806557,39.9169672 55.2806557,38.6186066 C56.1464754,37.9713934 56.5790164,37.1068033 57.227459,36.2419672 C57.8746721,37.5390984 59.1727869,40.9977049 59.1727869,40.9977049 L59.1727869,40.9977049 Z" id="Shape" fill="#000000"></path>
                    <path d="M28.592459,26.8694262 C28.592459,26.8694262 30.8808197,25.8277869 31.5088525,25.7577049 L30.2409836,22.0782787 L28.592459,26.8694262 L28.592459,26.8694262 Z" id="Shape"></path>
                    <path d="M34.2341803,24.730082 C34.2341803,24.730082 33.2707377,25.0977049 32.6931148,25.3234426 C32.4359016,25.4227869 30.1927869,19.4594262 30.1927869,19.4594262 C30.1927869,19.4594262 27.84,26.1410656 27.3897541,27.4918033 C27.3548361,27.5953279 25.8105738,28.0977049 25.8105738,28.0977049 C25.8105738,28.0977049 22.1837705,29.7090984 20.7737705,29.9112295 C21.6843443,29.9112295 22.8840984,29.6230328 23.9252459,29.3063115 C25.2351639,28.9886066 26.4292623,28.3947541 27.7251639,28.1065574 C29.8868852,27.3501639 31.9918033,26.3631148 34.1628689,25.5464754 L34.1611475,25.5617213 C34.2931967,25.5068852 34.4252459,25.4537705 34.5580328,25.3989344 C36.307377,24.7615574 37.3795082,24.3351639 37.3795082,24.3351639 C37.3795082,24.3351639 40.3792623,23.4580328 41.9790984,23.3127049 C39.1590984,23.312459 34.2341803,24.730082 34.2341803,24.730082 L34.2341803,24.730082 Z M28.592459,26.8694262 L30.2409836,22.0785246 L31.5088525,25.7579508 C30.8808197,25.827541 28.592459,26.8694262 28.592459,26.8694262 L28.592459,26.8694262 Z" id="Shape" fill="#A7B1B7"></path>
                    <path d="M32.6931148,25.3231967 C32.4359016,25.422541 30.1927869,19.4591803 30.1927869,19.4591803 C30.1927869,19.4591803 27.84,26.1408197 27.3897541,27.4915574 C27.3548361,27.595082 25.8105738,28.097459 25.8105738,28.097459 C25.8105738,28.097459 22.1837705,29.7088525 20.7737705,29.9109836 C21.6843443,29.9109836 22.8840984,29.6227869 23.9252459,29.3060656 C25.2351639,28.9883607 26.4292623,28.3945082 27.7251639,28.1063115 C29.8868852,27.349918 31.9918033,26.3628689 34.1628689,25.5462295 L34.1611475,25.5614754 C34.2931967,25.5066393 34.4252459,25.4535246 34.5580328,25.3986885 C36.307377,24.7613115 37.3795082,24.334918 37.3795082,24.334918 C37.3795082,24.334918 40.3792623,23.4577869 41.9790984,23.312459 C39.1593443,23.312459 34.2341803,24.730082 34.2341803,24.730082 C34.2341803,24.730082 33.2704918,25.097459 32.6931148,25.3231967 L32.6931148,25.3231967 Z" id="Shape"></path>
                    <path d="M45.0617213,24.7581148 L30.0509016,1.28385246 C30.0509016,1.28385246 14.9397541,26.1004918 14.9456557,25.7808197 C14.6515574,26.4489344 14.5263934,27.0745082 14.5635246,27.6413115 L15.2759016,26.4629508 L30.0929508,2.4597541 L44.0879508,24.2068033 C44.2701639,24.4804918 44.4009836,24.7064754 44.487541,24.892377 C45.8171311,24.9811475 45.0617213,24.7581148 45.0617213,24.7581148 L45.0617213,24.7581148 Z" id="Shape" fill="#A7B1B7"></path>
                    <path d="M44.0879508,24.2065574 L30.0929508,2.4595082 L15.2759016,26.4627049 L14.5635246,27.6410656 C14.797623,31.2167213 21.557459,32.4031967 33.6848361,26.6463934 C35.7784426,25.6539344 38.5863934,24.9902459 42.3496721,24.8741803 C42.8982787,24.8572131 43.4653279,24.8510656 44.0540164,24.8581967 C44.2197541,24.8731967 44.3628689,24.8837705 44.4872951,24.8921311 C44.4009836,24.7062295 44.269918,24.4802459 44.0879508,24.2065574 L44.0879508,24.2065574 Z M37.3792623,24.334918 C37.3792623,24.334918 36.3071311,24.7613115 34.5577869,25.3986885 C34.425,25.4532787 34.2929508,25.5066393 34.1609016,25.5614754 L34.162623,25.5462295 C31.9913115,26.362623 29.8866393,27.3496721 27.724918,28.1063115 C26.4290164,28.3945082 25.2351639,28.9883607 23.925,29.3060656 C22.8838525,29.6227869 21.6840984,29.9109836 20.7735246,29.9109836 C22.1835246,29.7090984 25.8103279,28.097459 25.8103279,28.097459 C25.8103279,28.097459 27.3545902,27.595082 27.3895082,27.4915574 C27.8397541,26.1410656 30.192541,19.4591803 30.192541,19.4591803 C30.192541,19.4591803 32.4356557,25.422541 32.6928689,25.3231967 C33.2704918,25.097459 34.2339344,24.7298361 34.2339344,24.7298361 C34.2339344,24.7298361 39.1588525,23.3122131 41.9788525,23.3122131 C40.3790164,23.4577869 37.3792623,24.334918 37.3792623,24.334918 L37.3792623,24.334918 Z" id="Shape" fill="#8B2942"></path>
                    <path d="M38.0382787,12.1104098 C39.42,4.60893443 30.3253279,5.17991803 30.3253279,5.17991803 L29.9498361,7.04852459 L28.5568033,7.58286885 L27.4866393,10.8631967 L26.572377,11.4383607 L24.9469672,14.230082 C24.9469672,14.230082 35.1479508,6.63909836 38.0382787,12.1104098 L38.0382787,12.1104098 Z" id="Shape" fill="#FFFFFF"></path>
                    <path d="M29.4469672,8.77278689 L29.1779508,9.57909836 C29.1779508,9.57909836 34.1486066,7.83270492 36.9683607,9.31008197 C36.9683607,9.31008197 35.7602459,7.29516393 29.4469672,8.77278689 L29.4469672,8.77278689 Z" id="Shape" fill="#005488"></path>
                    <path d="M27.0292623,12.2655738 C27.0292623,12.2655738 27.0292623,12.2655738 27.4318033,11.3586885 C34.8872951,7.32836066 37.2036885,10.1495902 37.2036885,10.1495902 C33.1738525,8.13467213 27.0292623,12.2655738 27.0292623,12.2655738 L27.0292623,12.2655738 Z" id="Shape" fill="#A7B1B7"></path>
                    <path d="M52.2142623,27.7797541 C46.9613115,25.2413115 41.8485246,25.6081967 38.512623,26.3471311 C36.1554098,26.8701639 34.6854098,27.577623 34.6854098,27.577623 C25.3163115,31.5068852 20.8831967,32.212377 17.5588525,31.2044262 C17.357459,31.4065574 17.357459,31.607459 16.9544262,31.607459 C16.1331148,31.4513115 14.6444262,30.5810656 13.7658197,28.9563934 L10.917541,33.6631967 C11.7031967,35.2463115 13.1186066,35.927459 14.5372131,36.4438525 C17.9778689,37.7955738 21.152459,37.315082 24.3309836,36.4711475 C28.969918,35.2418852 33.6184426,33.2392623 39.1168033,35.0331148 C42.5436885,36.2419672 47.7816393,39.3644262 47.7816393,41.8839344 C42.5434426,44.6036066 39.319918,41.6820492 38.9163934,41.2792623 C40.729918,44.1004918 44.860082,43.9986885 47.5795082,42.4878689 L49.0728689,41.7464754 L48.3863115,40.2713115 L48.7893443,39.8682787 L49.9972131,40.8747541 L49.1913934,38.457541 C49.1913934,38.2566393 51.4084426,40.4729508 51.4084426,40.4729508 C52.0133607,40.4729508 49.3927869,36.8459016 49.3927869,36.8459016 C49.3927869,36.8459016 48.3863115,37.4498361 47.982541,37.6514754 C46.7739344,35.4354098 43.0458197,33.5213115 42.3415574,33.2190984 C40.9310656,32.6141803 36.1964754,31.2034426 31.6627869,31.8083607 C34.5843443,30.7003279 37.1031148,30.3978689 39.5203279,30.6 C45.565082,31.0027869 48.7895902,35.4354098 48.7895902,35.4354098 L49.7960656,34.6295902 C49.7960656,34.6295902 54.027541,39.0619672 54.6319672,41.8831967 L54.6319672,35.8381967 C54.8333607,35.6372951 54.8333607,35.6372951 55.035,35.4354098 C55.4382787,35.6372951 55.8413115,36.4431148 55.8413115,36.4431148 L56.0431967,33.8230328 C57.6545902,35.4356557 58.6618033,37.6514754 59.0653279,39.8680328 C59.2667213,35.0333607 56.2445902,30.3988525 52.2142623,27.7797541 L52.2142623,27.7797541 Z" id="Shape" fill="#FFFFFF"></path>
                    <path d="M47.5797541,26.4705738 C47.5797541,26.4705738 52.9352459,29.9589344 53.0778689,30.9848361 L52.0952459,32.1585246 L51.765,33.7438525 L50.7885246,32.5986885 C50.7885246,32.5986885 50.4636885,32.6498361 50.299918,32.8672131 C49.0908197,31.2545902 47.0751639,30.2481148 45.2633607,29.2401639 C41.0318852,27.829918 36.397623,27.829918 32.1671311,29.2401639 C27.7340164,31.2545902 23.3011475,33.27 18.4652459,33.27 C12.5178689,32.7545902 12.3752459,28.5885246 12.3403279,26.1408197 L13.0256557,22.2386066 C13.0256557,22.2386066 7.78622951,32.3127049 15.4436066,34.0758197 C21.0843443,35.0837705 26.3232787,32.6665574 31.1591803,30.4490164 C33.6777049,29.4914754 41.8379508,26.6714754 48.6882787,32.8672131 C49.292459,33.0690984 49.4940984,33.6727869 50.0980328,34.0755738 C50.2996721,33.874918 50.9036066,33.6727869 50.9036066,33.6727869 L52.3148361,35.2854098 C52.3148361,35.2854098 52.5167213,33.6727869 52.7183607,32.8672131 C52.9202459,32.6663115 53.1206557,32.4641803 53.1206557,32.4641803 L53.725082,31.4564754 L53.725082,31.0536885 L53.725082,30.6506557 C51.7443443,27.6454918 47.5797541,26.4705738 47.5797541,26.4705738 L47.5797541,26.4705738 Z" id="Shape" fill="#005488"></path>
                    <path d="M49.26,44.5032787 L48.8567213,45.3090984 C42.9457377,47.3911475 40.4609016,45.0405738 40.1928689,44.6377869 C44.4907377,46.7864754 49.26,44.5032787 49.26,44.5032787 L49.26,44.5032787 Z" id="Shape" fill="#A7B1B7"></path>
                    <path d="M53.7587705,44.569918 L53.6245082,45.3090984 C44.8942623,50.1445082 41.4009836,46.1813115 41.4009836,46.1813115 C41.4009836,46.1813115 45.9012295,49.2046721 53.7587705,44.569918 L53.7587705,44.569918 Z" id="Shape" fill="#A7B1B7"></path>
                </g>
            </g>
        </g>
    </g>
</svg>