<?xml version="1.0" encoding="UTF-8" standalone="no"?>
<svg width="60px" height="60px" viewBox="0 0 60 60" version="1.1" xmlns="http://www.w3.org/2000/svg" xmlns:xlink="http://www.w3.org/1999/xlink">
    <!-- Generator: Sketch 40.3 (33839) - http://www.bohemiancoding.com/sketch -->
    <title>Artboard</title>
    <desc>Created with Sketch.</desc>
    <defs>
        <polygon id="path-1" points="0.155172209 0.0121279605 59.7164187 0.0121279605 59.7164187 51.7770623 0.155172209 51.7770623 0.155172209 0.0121279605"></polygon>
        <polygon id="path-3" points="0.147481458 0.0121279605 57.9140686 0.0121279605 57.9140686 51.7770623 0.147481458 51.7770623 0.147481458 0.0121279605"></polygon>
        <polygon id="path-5" points="0.155172209 0.0121279605 59.7164187 0.0121279605 59.7164187 51.7770623 0.155172209 51.7770623 0.155172209 0.0121279605"></polygon>
    </defs>
    <g id="Page-1" stroke="none" stroke-width="1" fill="none" fill-rule="evenodd">
        <g id="Artboard">
            <g id="blackhawks" transform="translate(0.000000, 3.757116)">
                <g id="layer1" transform="translate(0.098882, 0.088122)">
                    <g id="g2452" transform="translate(29.961332, 26.267660) scale(1, -1) translate(-29.961332, -26.267660) translate(0.058723, 0.092126)">
                        <g id="g3200" transform="translate(0.042403, 0.071146)">
                            <g id="g3202-Clipped">
                                <mask id="mask-2" fill="white">
                                    <use xlink:href="#path-1"></use>
                                </mask>
                                <g id="path3206"></g>
                                <g id="g3202" mask="url(#mask-2)">
                                    <g transform="translate(1.809588, 0.932920)">
                                        <g id="g3208" transform="translate(8.367808, 30.601461)">
                                            <path d="M2.71438267,0.466460021 C3.27083112,0.657708629 3.27083112,0.593803607 2.77636107,0.848957238 C2.28143863,1.10411087 0.373680014,1.73196606 0.373680014,1.73196606 C0.373680014,1.73196606 0.250175603,1.16801589 0.31170161,0.976300824 C0.373680014,0.785052215 0.373680014,0.326055555 0.31170161,0.0713683832 C0.31170161,0.0713683832 2.15793422,0.274744952 2.71438267,0.466460021" id="path3210" fill="#FFFFFF"></path>
                                        </g>
                                        <g id="g3212" transform="translate(9.551913, 25.591163)">
                                            <path d="M3.16677978,2.3323001 C2.43118208,1.86537362 1.72906176,1.73569774 0.424348491,1.65546661 C0.54197174,1.39611484 0.84417301,1.17361341 1.29249855,1.20393331 C0.839196642,0.786451595 0.620688837,0.45759728 0.571377552,0.211306389 C1.61505769,0.702022331 2.37553723,0.938984022 3.78565903,0.860618739 C6.07388362,0.732808693 6.11686134,1.7781456 5.5599605,2.67095008 C5.00351205,3.5632881 3.76303917,2.71059918 3.16677978,2.3323001" id="path3214" fill="#FFFFFF"></path>
                                        </g>
                                        <g id="g3216" transform="translate(26.890932, 20.101162)">
                                            <path d="M4.97636823,9.32920042 L2.92972369,8.35289959 C2.78495662,8.11966958 2.64380872,7.88457373 2.50401801,7.64901142 L4.73976454,8.73912849 C4.27379551,7.5547865 3.82320799,6.30374072 3.42419374,5.13199315 C2.70759671,4.64221013 1.14954106,4.0544705 0.569115566,3.84316411 C0.503517985,3.68410124 0.440182389,3.52550484 0.379108779,3.36690843 C0.98351132,3.56981854 2.53478102,4.11557676 3.24459208,4.59882935 C2.60128339,2.6765476 2.11857567,1.04626983 1.96566545,0.417481719 C1.94078361,0.315326974 2.00140482,0.211306389 2.10093219,0.185651088 C2.20045955,0.159995787 2.30089171,0.22203497 2.32577355,0.324656175 C2.47280261,0.930121282 2.92972369,2.40366849 3.51874473,4.14309791 C3.80420731,3.34171959 4.40725266,2.33276656 4.97772542,1.70957598 C5.09625346,1.82572452 5.18130412,1.90455627 5.24192533,1.95400103 C5.24328252,1.96426315 5.24509211,1.97592465 5.2464493,1.98618677 C4.63933238,2.64949292 4.02361991,3.95698036 3.76303917,4.85911404 C4.12857604,5.91797828 4.53120947,7.04074756 4.93520009,8.10614224 C5.16004145,7.54125916 5.78480186,6.51831233 6.04402541,6.10269645 C6.09062231,6.30793886 6.13812401,6.51737941 6.1869829,6.72961872 C5.92504497,7.12097868 5.29259381,8.1019441 5.15054111,8.66869303 C5.81737446,10.3899305 6.47018349,11.8947305 6.94565285,12.6294051 C7.08815794,12.8505071 7.30214178,13.4387132 7.12842129,13.5138133 C6.47787424,12.7320263 5.71513271,11.1451293 4.97636823,9.32920042" id="path3218" fill="#FFFFFF"></path>
                                        </g>
                                        <g id="g3220" transform="translate(41.528874, 16.597674)">
                                            <path d="M13.1195162,0.932920042 C13.0154649,0.957642423 12.9132231,0.984697104 12.8046478,1.00848657 C11.8496375,1.21979295 10.7335739,1.47028199 9.14475521,3.53436758 L9.97897548,6.11529087 C10.5860924,5.05456079 11.032156,4.24431973 11.2031621,3.86695357 C11.2461398,3.77132927 11.3565247,3.73028079 11.4497185,3.77459449 C11.5424599,3.81937465 11.5827232,3.93365736 11.5392931,4.0288152 C11.3592391,4.42717206 10.8928176,5.273797 10.2617237,6.37370973 L12.6110219,5.93290501 C13.0616094,4.33154775 13.2660929,2.65882212 13.1195162,0.932920042 M6.01145282,8.9467032 L6.88276965,11.3778928 C7.91152069,9.65618889 8.93077138,7.93261912 9.72834748,6.55049807 L8.87195975,3.90053869 C8.05312098,5.03357009 7.11258739,6.64285716 6.01145282,8.9467032 M3.70060837,14.2545518 L4.03266785,16.1105962 C4.79133781,14.8600169 5.71015634,13.3379578 6.63576083,11.7916429 L5.78615906,9.42249242 C5.14646954,10.7892203 4.45430196,12.3863794 3.70060837,14.2545518 M1.09751539,21.1511632 C1.07580033,21.2626471 1.1282784,21.3522075 1.25766397,21.2402571 C1.5824851,20.9207319 1.95390312,20.5657559 2.37282285,20.1664661 C3.47305262,19.1187969 4.83069636,17.8262362 6.20779316,16.3298324 L3.9933093,16.8877186 C3.20070956,18.1919408 2.6465231,19.0931416 2.55785327,19.2312137 C2.50085123,19.3193747 2.38594237,19.3431641 2.30043931,19.2843902 C2.21538865,19.2256162 2.19186401,19.1071354 2.24886604,19.0194409 C2.39408551,18.7946072 2.9595819,17.8756809 3.74087171,16.5901171 L3.44002764,14.9066629 C2.71573986,16.730988 1.93671203,18.8006711 1.09751539,21.1511632 M10.3264165,10.9995938 L6.923033,12.035135 C5.97616584,13.6155015 5.03879903,15.1664811 4.2756051,16.422658 L6.67059541,15.8190587 C7.96173676,14.3753649 9.24518737,12.7576816 10.3264165,10.9995938 M10.6123314,10.5210058 C11.3859305,9.19952453 12.0373823,7.80294323 12.4888747,6.3447892 L10.0110957,6.80938338 C9.21985313,8.17844355 8.2218651,9.86283068 7.21482913,11.5467514 L10.5761397,10.5238045 C10.5883544,10.5205393 10.6005691,10.5219387 10.6123314,10.5210058 M2.62480804,20.4477415 C1.82406515,21.2099371 1.17894687,21.8247315 0.746455234,22.3042524 C0.661404577,22.1517199 0.558258036,22.0099161 0.440182389,21.8849048 C7.53512629,1.7851425 10.4128243,1.14515935 12.7272879,0.633919168 C12.9055324,0.594736527 13.0738241,0.557419725 13.2403063,0.511240183 L13.4502185,0.45199976 L13.4728384,0.67590057 C14.349584,9.28675256 6.72216868,16.5472028 2.62480804,20.4477415" id="path3222" fill="#FFFFFF"></path>
                                        </g>
                                        <g id="g3224" transform="translate(5.695548, 10.310166)">
                                            <path d="M0.452397111,3.73168017 C0.354226938,3.77552741 0.22076979,3.74940565 0.256509162,3.60247074 C0.256509162,3.60247074 0.470492996,2.55899967 0.470492996,2.11213097 C0.470492996,1.91621777 0.4542067,1.74409402 0.425705682,1.59249451 C1.23097254,-1.13629661 3.76213438,0.370835717 1.92178293,2.50675615 C1.30561806,2.78196756 0.820195963,3.56655332 0.452397111,3.73168017" id="path3226" fill="#FFFFFF"></path>
                                        </g>
                                        <g id="g3228" transform="translate(41.831392, 14.559757)">
                                            <path d="M2.26198556,1.39938006 C2.0362394,1.91155317 1.74263367,3.28807669 1.41283618,5.14552049 L0.142052693,3.52084024 C0.520256678,2.30571188 0.974915775,1.13116555 1.52457827,0.0307863614 L2.26198556,1.39938006 L2.26198556,1.39938006 Z" id="path3230" fill="#FEE011"></path>
                                        </g>
                                        <g id="g3232" transform="translate(42.941801, 18.681584)">
                                            <path d="M0,5.13106023 C0.204031097,3.83290199 0.403990621,2.60051462 0.593092613,1.51226339 L3.14054075,0.089093864 C3.10615857,1.08451955 3.00165483,2.20495652 2.80169531,3.46439858 L0,5.13106023 L0,5.13106023 Z" id="path3234" fill="#FEE011"></path>
                                        </g>
                                        <g id="g3236" transform="translate(40.490672, 22.236107)">
                                            <path d="M0,3.73168017 C0.100884556,2.62710284 0.240222866,1.50293419 0.426158079,0.381564297 L2.00728598,2.01137561 C1.84713741,3.04038642 1.68336965,4.1104457 1.5196019,5.19030065 L0,3.73168017 L0,3.73168017 Z" id="path3238" fill="#FEE011"></path>
                                        </g>
                                        <g id="g3240" transform="translate(40.633499, 33.473824)">
                                            <path d="M0.904794223,4.66460021 C0.731978526,4.56151254 0.543781328,4.48361372 0.343369408,4.43696772 C0.995273645,2.98907581 1.57479435,1.61954919 2.09007465,0.322323874 C1.68925081,1.66852749 1.29340334,3.1117548 0.904794223,4.66460021" id="path3242" fill="#FEE011"></path>
                                        </g>
                                        <g id="g3244" transform="translate(40.745463, 26.307879)">
                                            <path d="M0.452397111,8.8627404 C0.736502497,7.10511904 1.05453767,4.99905204 1.38207318,2.82908003 C1.44721836,2.39620513 1.51372073,1.95866563 1.58022311,1.51972675 L4.07971715,0.0764994434 C3.39252594,2.6322339 2.37825161,5.60778237 0.918366136,9.07731201 C0.723382981,9.54563787 0.354679335,9.3305998 0.452397111,8.8627404" id="path3246" fill="#FEE011"></path>
                                        </g>
                                        <g id="g3248" transform="translate(42.398250, 22.216143)">
                                            <path d="M0,5.13106023 C0.155172209,4.10671402 0.312154007,3.07956906 0.467326216,2.08367691 L3.26449756,0.420280479 C3.09258665,1.41150802 2.86186413,2.48623191 2.56237724,3.65098258 L0,5.13106023 L0,5.13106023 Z" id="path3250" fill="#FEE011"></path>
                                        </g>
                                        <g id="g3252" transform="translate(40.131745, 26.017088)">
                                            <path d="M1.80958845,1.86584008 C1.74941963,2.26419694 1.68925081,2.66302026 1.629082,3.06137712 C1.30154649,5.23181559 0.98351132,7.33648321 0.699858331,9.09037289 C0.635165544,9.4915285 0.222126982,9.51625089 0.18955439,8.94763612 C0.0940985992,6.66991184 0.052930462,3.64911674 0.317582772,0.433807819 L1.80958845,1.86584008 L1.80958845,1.86584008 Z" id="path3254" fill="#FEE011"></path>
                                        </g>
                                        <g id="g3256" transform="translate(40.894482, 18.337238)">
                                            <path d="M2.26198556,1.86584008 C2.07514555,2.94149689 1.87835281,4.15522587 1.6761313,5.44452136 L0.10178935,3.82030757 C0.320297155,2.59165188 0.596259393,1.36906016 0.945057566,0.181919408 L2.26198556,1.86584008 L2.26198556,1.86584008 Z" id="path3258" fill="#FEE011"></path>
                                        </g>
                                        <g id="g3260" transform="translate(39.073267, 8.351127)">
                                            <path d="M8.59554512,12.5944206 C7.89704398,13.6640134 7.07458603,15.2709682 6.49144615,16.6428271 C8.33903596,8.74892415 6.89815116,5.20476091 6.22226987,3.54323032 L6.08247916,3.1957176 C6.08247916,3.1957176 5.96349872,2.89858257 5.96259393,2.89625027 L5.76625358,3.1467393 C-0.136171531,10.6679407 0.732883321,24.6416835 1.0183459,29.2330495 C1.02513185,29.3449999 1.03191781,29.4504199 1.03779897,29.5525746 C0.992559263,29.5623703 0.948224346,29.5744982 0.903889429,29.5875591 L0.529757018,29.4760752 C0.344274202,28.5198321 0.344274202,19.0180415 0.591283025,16.1483795 C0.838744245,13.2787174 1.5196019,9.58015591 1.5811279,8.05016704 C1.70508471,7.73064193 3.23328216,5.21409011 3.80737409,4.09598544 C4.36382254,3.01239881 5.1681846,1.67319209 5.35366742,0.397423938 C8.57292526,3.45973397 9.16647027,8.40001206 8.59554512,12.5944206" id="path3262" fill="#FEE011"></path>
                                        </g>
                                        <g id="g3264" transform="translate(43.378640, 14.598142)">
                                            <path d="M2.71438267,3.73168017 L0.240675263,5.11333475 C0.573639537,3.23909839 0.865435674,1.87330344 1.07353835,1.47587951 L2.43434886,0.241626291 C2.61395051,1.17641217 2.73474054,2.3229709 2.71438267,3.73168017" id="path3266" fill="#FEE011"></path>
                                        </g>
                                        <g id="g3268" transform="translate(43.143710, 11.576465)">
                                            <path d="M1.80958845,0.466460021 C2.03262022,1.01455055 2.33979786,1.773481 2.57956833,2.83514401 L1.20970988,4.0777935 L0.417562534,2.60751152 C0.826529523,1.83598664 1.28164102,1.10317795 1.79194496,0.422612779 L1.80958845,0.466460021 L1.80958845,0.466460021 Z" id="path3270" fill="#FEE011"></path>
                                        </g>
                                        <g id="g3272" transform="translate(33.859255, 4.510104)">
                                            <path d="M4.97636823,7.46336033 C4.18557808,7.84165941 3.34683383,8.37995428 2.82250558,8.92244728 C2.71800185,9.97524755 2.67230974,11.6078576 2.68633405,13.5310723 C3.35904855,12.9111469 4.63707039,12.0999729 5.09172949,11.8186975 C5.17225618,10.1776912 5.11389695,8.72886637 4.97636823,7.46336033 M4.57418719,5.01491168 C4.12586166,4.53585724 3.20840031,5.59238919 2.83698229,6.30327426 L2.71347787,5.92077705 C2.14300512,4.74483133 1.71865663,4.91042464 1.41238378,5.28126036 C1.23821089,6.03226099 1.09208663,6.79958772 0.973106187,7.58324056 C1.34814339,7.79314757 2.22896057,8.29692439 2.61756969,8.61131845 C3.1161113,8.0646273 4.56875843,7.23759368 4.92705694,7.0379488 C4.83250594,6.29534444 4.71081112,5.62177617 4.57418719,5.01491168 M0.592187819,12.6200759 L2.24434207,13.785293 C2.23665132,11.8728069 2.29862972,10.2070782 2.43118208,9.0376629 C2.02266749,8.64117189 1.25992596,8.20223301 0.910222988,8.0109844 C0.705739494,9.49199496 0.600783364,11.0289807 0.592187819,12.6200759 M0.88488875,17.7646634 C1.2051859,17.991363 2.04890652,18.6042915 2.41037181,19.0241055 C2.31672561,17.3784345 2.26198556,15.7556201 2.24750885,14.2657468 C1.87111445,13.9210329 1.0341798,13.3216317 0.589021039,13.0086371 C0.596259393,14.5442235 0.696691552,16.1315869 0.88488875,17.7646634 M1.13415956,19.6486955 C1.48657691,21.9394806 1.94395039,23.894881 2.567806,25.9407747 C2.69764398,26.4758043 3.12742123,26.5406423 3.06227605,25.972494 C2.7885758,24.0077644 2.58228271,21.8004755 2.44520639,19.6090464 C2.2235318,19.262933 1.3001893,18.5305908 0.939176403,18.2516477 C0.997083234,18.7134431 1.06177602,19.1789702 1.13415956,19.6486955 M4.01276238,25.7989708 C4.1190757,23.1359506 4.31496365,20.1039604 4.49004133,17.9204611 C4.05438291,18.1868098 3.33416671,18.7218394 2.86367372,19.1831684 C2.9912497,21.5560505 3.18623286,23.953655 3.44907558,26.0060791 C3.57846115,26.6749828 3.94806959,26.4678745 4.01276238,25.7989708 M4.75605083,15.1776762 C4.90850866,14.1505312 5.00622644,13.184026 5.06413327,12.2697644 C4.43530128,12.6406001 3.29887974,13.4443107 2.69131042,14.0786964 C2.7089539,15.5186584 2.75826519,17.0957598 2.83833948,18.697117 C3.33280952,18.2320564 4.09509865,17.6811671 4.53256666,17.4059557 C4.6203317,16.3573536 4.69995359,15.5578411 4.75605083,15.1776762 M4.38734719,32.2473142 C2.7406217,28.0365796 1.40559783,23.8561648 0.767265501,19.7088688 C-0.355131733,12.4152999 0.238865675,5.99587711 2.53025704,0.624589968 C2.53568581,0.518703543 2.71800185,0.343781035 2.89896069,0.284540613 C3.11520651,0.21457161 3.15637465,0.411884198 3.29797494,0.621324748 C3.6336536,1.11530591 6.53306669,5.7206657 5.12339729,15.2359837 C4.84426827,17.1144182 4.01909594,30.6002438 4.38734719,32.2473142" id="path3274" fill="#FEE011"></path>
                                        </g>
                                        <g id="g3276" transform="translate(18.974621, 6.439383)">
                                            <path d="M9.50033934,5.13106023 C9.48541024,5.49629843 9.56819891,5.63250475 9.6012239,5.67262031 C10.0092861,5.8092931 10.3205353,5.30271752 10.5539722,4.59369829 C10.6349513,4.08852208 10.6620951,3.6425863 10.6534996,3.24936051 C10.0794076,3.72934787 9.53064995,4.37819376 9.50033934,5.13106023 M15.5801041,32.1829427 L15.5801041,32.1241687 C15.7845876,32.132565 15.9442838,32.3102863 15.936593,32.5211262 C15.9284499,32.7324326 15.7560866,32.897093 15.5516031,32.8891632 C11.9740467,32.9833881 6.59052112,32.4847423 3.39524032,31.7757231 C3.23644894,33.3878089 2.74197889,34.3617774 2.17964928,35.4658883 C1.84487542,36.1221976 1.49879163,36.8013633 1.18709002,37.7020976 C0.803909667,38.8080744 0.812505212,39.6029222 1.21106707,39.9401728 C1.70282273,40.3553222 2.7872186,40.1678053 3.49160091,39.7321317 C3.61374813,39.6565651 3.75037205,39.5670048 3.89513913,39.471847 C5.23649657,38.5911704 7.48174343,37.1171568 9.90885393,39.0566975 C10.5906164,39.6015229 11.1443504,39.8104969 11.5533174,39.6780223 C12.3079158,39.4349966 12.7290975,38.0505433 13.1371597,36.7127359 L13.162494,36.6297061 C13.4262415,35.7630233 13.9161875,35.1407657 14.6169507,34.781125 C15.5597463,34.297406 16.8526972,34.6076019 17.473386,34.9709742 C17.6516305,35.0754613 17.7136089,35.2503838 17.6127243,35.4337026 C17.5113874,35.6174878 17.2847364,35.6818593 17.106492,35.5773723 C16.7092873,35.3441422 15.7325619,35.0045593 14.947653,35.4075808 C14.4337298,35.6706643 14.0718122,36.198697 13.8704954,36.8592044 L13.8456136,36.9413014 C13.380097,38.4675585 12.8996512,39.9863524 11.7754444,40.3497247 C11.1108731,40.5642963 10.3522031,40.3198713 9.45419484,39.6024558 C7.44057529,37.9931687 5.54684098,39.2358182 4.29370098,40.0586537 C4.14486234,40.1566103 4.00461923,40.2485029 3.87297167,40.3292005 C3.13601678,40.7858648 1.63405837,41.2868429 0.741026469,40.5316441 C0.0619784043,39.9583648 -0.0230722527,38.9195583 0.488136483,37.4446117 C0.817933978,36.4930333 1.19251879,35.7578923 1.52231628,35.1099793 C2.44656358,33.2968492 3.17628012,31.8648169 2.32713074,26.7976617 C1.11561128,19.5642662 0.917008945,16.702534 3.44093243,12.9941768 C3.97159424,12.2133227 4.42715813,11.5994613 4.82933916,11.0579013 C6.25755685,9.13375367 6.84883987,8.33610703 7.02256036,4.9668663 C7.14289799,2.63783142 7.85316146,0.942715702 8.92308063,0.432874899 C9.43021779,0.190782149 9.97399912,0.251421951 10.4155387,0.598468207 C10.7860519,0.88953926 11.0502518,1.35273406 11.2126624,1.93161095 C11.2619737,1.90222397 11.3108326,1.87330344 11.3565247,1.84764814 C11.7804208,1.60508893 12.5205425,1.8761022 12.9729396,2.43958591 C13.4294083,3.00726775 14.2183888,4.66553313 11.6980845,7.78335191 C11.0905152,8.534819 10.4223247,9.23171027 9.77539678,9.90481208 C9.04341826,10.6665413 8.35215547,11.3862891 7.74594334,12.1760059 C6.60092625,13.6677451 5.17497056,15.524256 5.59796186,20.4500738 L5.84768506,23.4293539 C6.02004836,25.5312228 6.0304535,25.6567005 6.20688837,26.3853111 C6.44349206,27.3588131 6.77555154,27.8304042 6.93615251,27.8537272 C7.01170283,27.8653887 7.21709112,27.7487737 7.50617287,27.2407988 C8.09293193,26.2085227 8.64440401,25.7448615 9.1461124,25.8624094 C9.7419194,26.0023474 9.87763853,26.8447742 9.92785461,27.4660989 C10.1074563,29.6934455 10.4490161,29.8063289 10.4634928,29.8100606 C10.4653024,29.810527 10.6607379,29.8156581 11.115397,29.1836047 C11.6998941,28.3691656 12.0821697,27.8751844 12.553115,27.9680099 C13.0530139,28.0659665 13.2014001,28.6397124 13.5981524,30.1725 L13.6890842,30.5232779 C13.7415623,30.7275874 13.6248438,30.9374944 13.4266939,30.9920702 C13.2289963,31.0471125 13.0254176,30.867059 12.9724872,30.6632159 L12.8806506,30.3110386 C12.7015013,29.6169461 12.5304952,28.9583046 12.4042764,28.7138795 C12.2106504,28.8855368 11.8568759,29.3771857 11.711204,29.5800958 C11.3719062,30.0526198 10.8521019,30.6608836 10.2603665,30.486894 C9.65777354,30.3101057 9.34697672,29.4364261 9.18773294,27.47123 C9.13435008,26.8055916 9.01582203,26.6073461 8.97691588,26.5583677 C8.86698338,26.5938187 8.54397185,26.8690301 8.14631479,27.5687202 C7.99340456,27.8378676 7.52879273,28.7148124 6.83029159,28.6112583 C6.10283703,28.5039725 5.69839402,27.4423095 5.48712456,26.5704957 C5.29621298,25.7826447 5.28218867,25.6095881 5.10846818,23.4937254 L4.85874498,20.517244 C4.40951465,15.2882272 6.00150008,13.2143459 7.16416066,11.7006832 C7.79615942,10.8778477 8.53401911,10.1091216 9.24790175,9.36605076 C9.88397209,8.70461045 10.5408527,8.01984714 11.1280641,7.29356889 C12.5571866,5.52521895 13.0575378,3.98590088 12.5010894,3.0697734 C12.2269367,2.61917302 11.8043978,2.50209155 11.7026085,2.52448163 C11.6071527,2.57905746 11.4922438,2.64856 11.3664774,2.72879112 C11.427551,3.32399411 11.4022168,3.99989468 11.2845935,4.73177045 C11.1443504,5.59658733 10.3123922,6.50944959 9.47862428,6.41988927 C9.15335076,6.38537123 8.71678754,6.12788529 8.75886048,5.09887449 C8.80726697,3.90566975 9.71613276,2.97741431 10.557139,2.36401939 C10.4309202,1.7781456 10.2033645,1.39378254 9.96585597,1.20673207 C9.74056221,1.02994373 9.49491058,1.00288904 9.23478224,1.12696741 C8.63354648,1.41384032 7.88799604,2.60144754 7.76358683,5.00744832 C7.57765162,8.61365075 6.90131794,9.52511363 5.4188126,11.5229619 C5.02115554,12.058458 4.57056802,12.6662554 4.04804935,13.4335821 C1.68608403,16.9045112 1.88604356,19.6645551 3.05865687,26.6675194 C3.37307286,28.5459539 3.4766718,29.9458004 3.43912284,31.064838 C6.64933274,31.8410275 11.5071729,32.307021 15.5801041,32.1829427" id="path3278" fill="#FEE011"></path>
                                        </g>
                                        <g id="g3280" transform="translate(0.229089, 0.007837)">
                                            <path d="M20.8102671,10.7285805 C19.92945,10.9767372 19.5245545,12.3434651 19.9054729,13.7815613 C20.2868437,15.2191911 21.3092611,16.1838304 22.1900783,15.9356737 C23.0708955,15.6870505 23.4757909,14.3207891 23.0948725,12.8822264 C22.7139542,11.4450631 21.6906319,10.4804237 20.8102671,10.7285805 M17.2946892,18.30669 C12.9037228,19.6454302 15.6954654,25.2420176 17.7276332,24.682732 C15.0679906,22.1955672 16.4088956,19.3067803 17.2946892,18.30669 M12.1613392,25.6394415 C13.7279903,26.3848446 14.2025549,24.8105421 12.71824,24.3641398 C8.48470783,23.090704 8.14133842,25.3203829 9.1311833,26.2775588 C6.53351908,27.8714527 9.87311456,29.2106594 11.2954511,29.6570617 C12.71824,30.1034639 12.6562616,28.7003522 11.8523519,28.5091036 C11.0479899,28.3178549 10.7390026,28.1266063 10.0585974,27.9353577 C9.70708482,27.8364682 9.62158177,27.5164766 9.74734816,27.2389329 C11.0520614,27.3186976 11.7537294,27.4488399 12.4897795,27.9157664 C13.0860388,28.293599 14.3260593,29.1467544 14.8825078,28.2539499 C15.439861,27.3611454 15.3968833,26.316275 13.1082063,26.444085 C11.6985369,26.5224503 10.937605,26.2854886 9.89437722,25.7947727 C9.75549131,25.1011466 10.9742491,25.0745584 12.1613392,25.6394415 M7.18451853,28.5758073 C6.70950156,28.4848476 7.03884666,29.6323393 6.98998777,29.9346054 C6.4520876,29.8235879 5.46405231,29.9789191 5.36588214,30.2004876 C5.24463971,30.4742996 5.8576378,30.6310302 7.07413363,30.6865389 C6.97596346,31.292004 6.77555154,32.3825876 7.14425518,32.9726595 C6.22000789,33.3038461 5.17949453,33.5137531 6.01281001,34.1537363 C6.72578786,34.7008939 6.56518688,35.0386109 6.56518688,35.0386109 C6.10962299,35.4150442 5.55000776,36.215956 6.733931,36.7187999 C7.91694945,37.2225767 9.53200714,36.9515635 10.3671322,36.2654008 C11.3425004,35.4640225 12.7132636,34.5558248 13.7809208,34.7074243 C15.4964107,34.9518494 15.1105159,34.1056909 14.0822173,33.6802793 C12.8797458,33.1821 11.0918724,34.1084896 10.6905961,34.3622439 C10.2902247,34.6159981 9.08051482,35.2718409 8.88915084,34.7358784 C8.69733447,34.2003823 8.35532225,33.8155528 8.78419471,33.5235488 C9.6785838,32.9152849 11.1294213,32.0210811 11.9491649,31.6119956 C12.5485911,31.3125283 12.4902319,30.8810528 11.3886449,30.6072407 C10.1278141,30.2937796 8.22050791,29.9868489 8.22050791,29.9868489 C8.0820744,29.2689669 7.674917,28.6700323 7.18451853,28.5758073 M12.0134053,40.8511692 C13.0027978,41.5522587 13.5592462,41.9986609 13.5592462,41.9986609 C14.2396515,42.4450631 14.2043645,42.2071685 14.6725955,41.8713173 C15.2195436,41.4790244 16.2102933,40.5064553 16.5518531,40.154278 C17.17028,39.5166271 16.635999,39.0249783 16.1709347,39.6640285 C15.3154518,40.8409071 14.1256474,41.5275363 14.1256474,41.5275363 L13.5547223,41.1352434 C14.4821363,40.3063439 16.5821637,38.4759548 17.4082408,37.1129586 C17.6462017,36.7206658 17.17028,36.4263295 16.8373157,36.8676007 C15.6945606,38.3821964 12.9837971,40.6939722 12.9837971,40.6939722 L12.4128719,40.3016793 C13.0932772,39.6001235 14.0781457,38.8789763 14.4586117,38.2413254 C14.8255057,37.6269976 14.5481863,37.1162239 14.0170721,37.8196456 C13.3642631,38.6830631 12.5078753,39.3207139 12.5078753,39.3207139 C11.8894485,39.8305547 11.0240128,40.1496134 12.0134053,40.8511692 M7.60796222,12.7334257 C7.5328643,12.7502182 7.45957597,12.77634 7.38809723,12.8089922 C9.22890107,10.6735382 6.69728684,9.16593941 5.89201998,11.8947305 C5.61922452,10.4505703 4.19100684,10.956213 4.3846328,11.9549039 C4.49366051,12.5179211 4.52759029,13.5562611 4.52759029,14.0703001 C4.52759029,14.2727437 4.24258011,14.7210118 4.63480841,14.8618827 C5.04468019,15.0088176 5.29485579,15.0452015 5.56222249,15.2481116 C5.95490318,15.5051311 6.1394812,15.1170364 6.27610513,15.0270096 C6.7972666,14.683695 7.38085887,14.4821843 7.98842819,14.2545518 C9.55824617,13.6654128 8.5358287,12.5314485 7.60796222,12.7334257 M23.1392075,11.5467514 C24.8727932,15.8689699 22.0380729,16.9171056 21.1911855,16.2957808 C16.7377883,23.469936 18.4329203,29.0320052 18.7790041,31.6339192 C20.0778362,41.390397 15.8013263,42.7100124 14.3170114,43.8579705 C12.5544722,42.9968853 8.28701029,39.4196034 5.87482889,37.219778 C3.46309989,35.0199525 4.20503115,34.1402089 4.39096636,32.8966265 C4.57644918,31.6530441 3.83451792,30.4859611 3.37035848,29.816591 C2.90665144,29.1467544 2.73926451,28.6975534 0.884436353,25.7318006 C-0.971296598,22.7665142 0.772694266,22.0304403 1.79330215,22.0304403 C2.81391003,22.0304403 4.73885974,22.3956785 6.46611191,22.5444793 C7.03703707,22.5929911 7.63374886,23.1653376 7.17004182,23.8589636 C6.70633478,24.5525897 6.11912333,24.9551447 5.43374171,24.9140962 C4.82888677,24.8767794 4.60856937,24.1038551 5.4975297,23.8920823 C6.26343801,24.058142 6.36748934,22.9927473 5.03065588,23.4176924 C4.10143221,23.714361 3.77344431,25.7327335 5.65994026,25.487842 C7.3926212,25.2639412 8.22638907,23.7703362 7.98842819,22.6424359 C8.26665242,22.5468116 9.5541746,21.7570948 9.87944812,20.8764182 C10.4508257,19.3315026 9.63605847,19.444386 9.27278359,20.3857023 C8.41684826,22.6055855 5.58800912,21.7813507 3.83406552,21.6283518 C2.80033812,21.5378585 3.04418016,21.4021187 2.86955488,20.8251076 C2.40584784,19.2946523 2.11812328,17.792651 3.13873116,17.5057781 C3.96390349,17.2739475 5.88387683,17.6681062 6.62626049,17.8598213 C7.36819175,18.0510699 7.27545035,18.6248157 6.53351908,18.5291914 C5.79113542,18.4335671 5.42016979,19.199028 6.53351908,19.3902766 C7.64641598,19.5815252 8.29605823,19.0073129 8.20331682,18.5291914 C8.11057541,18.0510699 8.38879964,17.6681062 8.66747626,17.5729484 C8.94524809,17.4773241 9.16737507,16.8028229 9.22392471,16.4245238 C9.40940752,15.1809414 8.38879964,15.3731229 8.48154105,16.2332752 C8.52270918,16.6139066 7.9250926,17.1899847 7.36819175,16.9031118 C6.81174331,16.6157724 4.1032418,16.3288995 2.8971511,16.5201481 C2.06247843,15.6599958 2.5691632,14.7914473 2.84738742,14.40895 C3.12561164,14.0259864 3.25952119,12.6989076 2.8971511,11.871874 C1.6910604,9.11696111 4.47013586,8.10054472 5.59660467,8.02684404 C9.57543726,7.76702581 12.7096444,8.4625177 15.5497935,9.53444283 C16.9952023,10.1692949 17.948403,11.3615667 18.7790041,12.5034609 C18.5166138,11.3083903 17.9149256,10.2164074 16.9400098,9.4752024 C15.574223,8.5091637 13.2059241,7.81273889 11.77273,7.45403113 C11.77273,7.45403113 11.9880711,5.71413526 12.377585,4.5106684 C12.7141684,3.47046256 13.3353097,2.67468176 13.5963428,1.96239731 C13.9455934,1.01268471 14.1726967,-0.0205242409 15.3095706,0.307397154 C19.9213068,1.63914051 23.9462839,3.72281743 26.0802411,5.06155769 C25.8947583,5.34796414 23.6956559,10.3027025 23.1392075,11.5467514" id="path3282" fill="#E7A908"></path>
                                        </g>
                                        <g id="g3284" transform="translate(20.358141, 11.261371)">
                                            <path d="M1.80958845,3.73168017 C1.25042562,3.88841073 0.708453877,3.32492703 0.466421422,2.41206477 C0.224388967,1.49966897 0.374132411,0.582608566 0.932842844,0.425877999 C1.49200567,0.268214512 1.98511853,0.959974723 2.22669858,1.87283698 C2.46873104,2.78523278 2.36829888,3.57401668 1.80958845,3.73168017" id="path3286" fill="#E7A908"></path>
                                        </g>
                                        <g id="g3288" transform="translate(6.623908, 33.774364)">
                                            <path d="M1.80958845,1.39938006 C1.222377,1.29815824 0.525685444,1.07519035 0.403085826,0.89886846 C0.301748873,0.751933554 1.17170852,0.333985375 1.45988548,0.204309489 C1.74806244,0.0741671433 1.77837305,0.376433237 1.90413944,0.67356827 C2.02990584,0.970703303 2.3967999,1.50060189 1.80958845,1.39938006" id="path3290" fill="#E7A908"></path>
                                        </g>
                                        <g id="g3292" transform="translate(38.026959, 42.238795)">
                                            <polygon id="path3294" fill="#F57215" points="3.61917689 2.3323001 0.393585487 2.3323001 2.45289714 0.0321857414 3.61917689 0.0321857414"></polygon>
                                        </g>
                                        <g id="g3296" transform="translate(47.185516, 20.349598)">
                                            <path d="M4.071574,2.79876013 C3.2739979,4.18088117 2.2547472,5.90398448 1.22599617,7.62615488 L0.354679335,5.19449879 C1.4558139,2.89111921 2.3967999,1.28183214 3.21518627,0.148800747 L4.071574,2.79876013 L4.071574,2.79876013 Z" id="path3298" fill="#F57215"></path>
                                        </g>
                                        <g id="g3300" transform="translate(45.229577, 25.721025)">
                                            <path d="M0,5.13106023 C0.753241191,3.26288785 1.44586117,1.66619519 2.08555068,0.299000873 L2.93515246,2.66815132 C2.00909557,4.21493275 1.09072944,5.7369918 0.331607083,6.98710465 L0,5.13106023 L0,5.13106023 Z" id="path3302" fill="#F57215"></path>
                                        </g>
                                        <g id="g3304" transform="translate(48.485982, 22.923385)">
                                            <path d="M3.61917689,4.19814019 L0.257866354,5.22108701 C1.26444993,3.53716634 2.26243795,1.8527792 3.0536805,0.483252582 L5.53191188,0.0186584008 C5.07996716,1.47727889 4.42851532,2.87386019 3.65536866,4.19487497 C3.64360634,4.19627435 3.63139161,4.19487497 3.61917689,4.19814019" id="path3306" fill="#F57215"></path>
                                        </g>
                                        <g id="g3308" transform="translate(41.248849, 15.522204)">
                                            <path d="M14.9291047,5.59752025 C13.4443374,15.4179031 2.62164126,22.9428361 1.32280915,24.2820428 L1.2843554,24.2237353 C1.25766397,23.918204 1.16718455,23.6327305 1.02648905,23.3794427 C1.45898068,22.9003883 2.10409897,22.285594 2.90484185,21.5233983 C7.00220249,17.6228596 14.6296178,10.3624094 13.7528722,1.75155738 L13.7302523,1.52765657 L13.5203401,1.58643053 C13.3538579,1.63307653 13.1855662,1.67039333 13.0073217,1.70910952 C10.6928581,2.22081616 7.8151601,2.86079931 0.720216201,22.9605616 C0.593092613,22.8266876 0.44787314,22.7110055 0.289534151,22.6163141 C0.67814327,21.0634687 1.07399074,19.6202414 1.47481458,18.2735713 C2.40991941,15.9179482 3.13149281,13.8016191 3.67934571,11.9021939 C8.73081185,-0.537828404 13.9071396,0.0615727228 15.1150399,0.113816245 C14.7431695,1.00615427 15.2471398,3.49471848 14.9291047,5.59752025" id="path3310" fill="#F57215"></path>
                                        </g>
                                        <g id="g3312" transform="translate(42.544641, 31.166806)">
                                            <path d="M1.35719133,5.59752025 C0.938271609,5.99681003 0.566853581,6.35131964 0.242032455,6.67131122 C0.112646881,6.78279516 0.0597164187,6.69323484 0.0818838772,6.58221735 C0.920628122,4.23125885 1.70010834,2.16157574 2.42439612,0.337717055 L2.7252402,2.02117127 C1.94395039,3.30673509 1.378454,4.22566133 1.23323453,4.4500286 C1.17623249,4.53772308 1.19975714,4.65667039 1.2848078,4.71544435 C1.36985845,4.77375185 1.48476732,4.75042885 1.54222175,4.66226791 C1.63089159,4.52419574 2.18462565,3.62299498 2.97767779,2.31877276 L5.19170925,1.76088658 C3.81506484,3.25682387 2.45742111,4.54985104 1.35719133,5.59752025" id="path3314" fill="#F57215"></path>
                                        </g>
                                        <g id="g3316" transform="translate(45.804574, 27.422998)">
                                            <path d="M0,5.59752025 C0.763193927,4.34087695 1.70056074,2.78989738 2.6469755,1.20953083 L6.05081137,0.173989588 C4.96912987,1.93254387 3.68567927,3.54976076 2.39499031,4.99392098 L0,5.59752025 L0,5.59752025 Z" id="path3318" fill="#F57215"></path>
                                        </g>
                                        <g id="g3320" transform="translate(50.262038, 17.139607)">
                                            <path d="M4.071574,0.466460021 C4.18014931,0.44267056 4.28239106,0.415615879 4.38644239,0.390893498 C4.53301906,2.11679557 4.32808317,3.78998767 3.87794804,5.39087846 L1.52864984,5.83168318 C2.15929141,4.73177045 2.62616523,3.88561197 2.80621928,3.48678866 C2.84919701,3.39163081 2.80938606,3.27781457 2.71664465,3.23256794 C2.62345085,3.18825424 2.51306595,3.22976918 2.46963583,3.32539349 C2.29908212,3.70275965 1.85301857,4.5130007 1.24590164,5.57326433 L0.411681371,2.99234103 C2.00050003,0.928721902 3.1161113,0.67776641 4.071574,0.466460021" id="path3322" fill="#F57215"></path>
                                        </g>
                                        <g id="g3324" transform="translate(36.550380, 16.722732)">
                                            <path d="M0,1.86584008 C0.607569321,1.23145446 1.74444326,0.427743839 2.37282285,0.0573745826 C2.31491602,0.971169763 2.21765064,1.93814139 2.06519281,2.96481989 C2.00864317,3.34545127 1.92902128,4.14449729 1.84125624,5.19356587 C1.40378824,5.46831082 0.641951501,6.01966657 0.147481458,6.48426075 C0.0669547725,4.88336996 0.0180958845,3.30580217 0,1.86584008" id="path3326" fill="#007F55"></path>
                                        </g>
                                        <g id="g3328" transform="translate(36.093192, 11.510507)">
                                            <path d="M0.452397111,6.53044029 C0.438372801,4.60722563 0.484064909,2.97461555 0.588568642,1.92181529 C1.11289689,1.37978874 1.95164114,0.841027418 2.74243129,0.462728341 C2.87996001,1.72823438 2.93831924,3.1770592 2.85779255,4.81806556 C2.40313346,5.09980741 1.12511162,5.91098138 0.452397111,6.53044029" id="path3330" fill="#007F55"></path>
                                        </g>
                                        <g id="g3332" transform="translate(33.085610, 3.732245)">
                                            <path d="M4.071574,1.39938006 C3.92997371,1.18993951 3.88880557,0.992626924 3.67255975,1.06259593 C3.49160091,1.12136989 3.30928487,1.29675886 3.30385611,1.40217882 C1.01291713,6.77346596 0.418467328,13.1933552 1.54086456,20.4864577 C2.17919689,24.6337537 3.51422076,28.8141684 5.16139864,33.0253695 C4.792695,31.3782991 5.61831973,17.8924735 5.89699635,16.0135725 C7.30666575,6.49872101 4.40725266,1.89289476 4.071574,1.39938006 M5.89880594,33.9676187 C5.99019015,34.2722171 6.05940691,34.4909869 6.11324217,34.6481839 C5.96937989,34.7792592 5.84406589,34.9317916 5.74091934,35.1006501 C3.39976429,31.8093082 -3.38935916,11.7865118 3.21201949,0.627855188 C3.4612903,0.143203226 3.96164151,0.0820969637 4.19010205,0.375500317 C5.38895439,1.55331187 7.67989336,7.62802072 6.82667241,12.5412441 C5.92097339,17.752069 5.4038835,32.3093533 5.89880594,33.9676187" id="path3334" fill="#007F55"></path>
                                        </g>
                                        <g id="g3336" transform="translate(36.539622, 22.430430)">
                                            <path d="M1.80958845,0 C1.63451076,2.18349936 1.43862281,5.21548949 1.33230949,7.87850975 C1.26761671,8.54741342 0.898460663,8.75452167 0.768622692,8.085618 C0.505779971,6.03366037 0.311249213,3.6355894 0.18322083,1.26270728 C0.653713826,0.801378316 1.37438242,0.266348672 1.80958845,0" id="path3338" fill="#007F55"></path>
                                        </g>
                                        <g id="g3340" transform="translate(34.294144, 12.231566)">
                                            <path d="M1.80958845,6.06398027 L0.157434195,4.89876314 C0.165577343,3.30720155 0.27098587,1.77068224 0.475469364,0.289671673 C0.824719934,0.480920282 1.58791386,0.919859161 1.99642845,1.31588372 C1.8634237,2.48576545 1.80189769,4.15149419 1.80958845,6.06398027" id="path3342" fill="#007F55"></path>
                                        </g>
                                        <g id="g3344" transform="translate(34.832501, 9.294771)">
                                            <path d="M0,2.79876013 C0.118528043,2.01510729 0.265104707,1.24778056 0.439277595,0.496313462 C0.74555044,0.125477746 1.16989893,-0.0401155618 1.73991929,1.13629661 L1.8638761,1.51879383 C2.23529413,0.807908756 3.15275547,-0.248623191 3.60108101,0.23043125 C3.73725254,0.836829277 3.85939976,1.51039755 3.95395075,2.2530019 C3.59565224,2.45264679 2.14300512,3.28014687 1.6440111,3.82683801 C1.25585438,3.51244396 0.374584808,3.00866713 0,2.79876013" id="path3346" fill="#007F55"></path>
                                        </g>
                                        <g id="g3348" transform="translate(34.495054, 22.719542)">
                                            <path d="M1.80958845,1.39938006 C1.94666477,3.59080924 2.15250546,5.79856452 2.42665811,7.76329413 C2.49180329,8.33144243 2.06157364,8.26613803 1.93218806,7.73110839 C1.30833245,5.68521473 0.850958967,3.72981433 0.49808922,1.43902916 C0.426158079,0.969770383 0.361465292,0.503776823 0.303558462,0.0424478619 C0.664571357,0.321390954 1.58746146,1.05373319 1.80958845,1.39938006" id="path3350" fill="#007F55"></path>
                                        </g>
                                        <g id="g3352" transform="translate(34.007641, 17.470145)">
                                            <path d="M2.26198556,6.06398027 C1.90052027,5.64416625 1.05679965,5.03123779 0.736502497,4.80453822 C0.548305299,3.17146168 0.44787314,1.58409823 0.440634787,0.0485118422 C0.885793544,0.361506516 1.7227282,0.960907643 2.0991226,1.3056216 C2.1135993,2.79549491 2.16833936,4.41830932 2.26198556,6.06398027" id="path3354" fill="#007F55"></path>
                                        </g>
                                        <g id="g3356" transform="translate(38.721212, 37.989764)">
                                            <path d="M1.80958845,0.932920042 C1.26942629,0.932920042 0.831053494,1.38445334 0.831053494,1.94187307 C0.831053494,2.49929279 1.26942629,2.95082609 1.80958845,2.95082609 C2.3497506,2.95082609 2.7881234,2.49929279 2.7881234,1.94187307 C2.7881234,1.38445334 2.3497506,0.932920042 1.80958845,0.932920042 M1.80958845,3.51850794 C0.965415436,3.51850794 0.280486209,2.81228747 0.280486209,1.94187307 C0.280486209,1.07145867 0.965415436,0.365704656 1.80958845,0.365704656 C2.65376146,0.365704656 3.33823829,1.07145867 3.33823829,1.94187307 C3.33823829,2.81228747 2.65376146,3.51850794 1.80958845,3.51850794" id="path3358" fill="#007F55"></path>
                                        </g>
                                        <g id="g3360" transform="translate(42.373680, 39.855044)">
                                            <path d="M2.26198556,3.26522015 C1.54719812,2.95595715 0.754145985,2.37941257 0.277771826,1.7221704 L0.754145985,0.331653075 L2.92158055,0.854554758 L2.26198556,3.26522015 L2.26198556,3.26522015 Z" id="path3362" fill="#007F55"></path>
                                        </g>
                                        <g id="g3364" transform="translate(26.601629, 18.274033)">
                                            <path d="M6.33355956,7.92982036 C5.93092613,6.12975113 5.65089232,4.62635049 5.53598345,3.81331067 C5.53462626,3.80304855 5.53281667,3.79138705 5.53145948,3.78112493 C5.47038587,3.73168017 5.38533521,3.65284842 5.26680717,3.53669988 C5.12294489,3.39629541 4.92931893,3.19944928 4.65697587,2.92143911 C3.90554426,2.1550453 2.90303226,1.13489723 2.24162769,0.639516689 C1.88197198,1.3266123 0.642856295,3.73494539 0.455111494,4.61795421 C0.522066267,4.80920282 0.59354501,5.00138434 0.668190534,5.19403233 C0.729264144,5.35262874 0.792599739,5.51122515 0.858649718,5.67028801 C1.38116838,6.93486113 2.04935891,8.21855911 2.79309977,9.47613532 C2.93289047,9.71169763 3.07449077,9.94679349 3.21880545,10.1800235 C5.3717633,13.6598153 8.02416757,16.8625298 9.70256085,18.7666196 C8.41368148,16.1040658 7.25373529,11.9217852 6.47651705,8.55674262 C6.42765816,8.34450331 6.37970407,8.13506276 6.33355956,7.92982036 M0.0859554512,4.69585303 L0.0692167581,4.64687473 L0.0787170974,4.59603059 C0.267366693,3.55722412 1.94395039,0.400689158 2.01542913,0.266348672 L2.11133732,0.0862951039 L2.27872425,0.197779049 C2.9604867,0.653044029 4.09193187,1.80706612 4.9175566,2.64949292 C5.30526093,3.04458456 5.70517997,3.45320353 5.79023063,3.50544706 L5.86668574,3.55302598 C5.87528129,3.55769058 5.88704361,3.64911674 5.88704361,3.64911674 C6.21367433,6.13908033 8.61726018,17.2888742 10.9692728,20.5844143 C9.26192606,18.8239941 2.29455815,11.0709621 0.0859554512,4.69585303" id="path3366" fill="#007F55"></path>
                                        </g>
                                        <g id="g3368" transform="translate(19.870593, 10.335261)">
                                            <path d="M2.71438267,2.79876013 C2.47235021,1.88589786 1.97968976,1.19460411 1.42052693,1.35180114 C0.8613641,1.50899817 0.712073053,2.42605857 0.954105508,3.33798791 C1.19613796,4.25131663 1.73765731,4.81480034 2.29727253,4.65760331 C2.85598296,4.49993982 2.95596273,3.71162239 2.71438267,2.79876013 M2.54880533,5.60824883 C1.66798815,5.85640556 0.645118281,4.89176624 0.264199913,3.45413645 C-0.116718455,2.01604021 0.28817696,0.649312349 1.16899414,0.401155618 C2.04935891,0.152998887 3.07222878,1.11763821 3.45359955,2.55480153 C3.83451792,3.99289778 3.4296225,5.35962564 2.54880533,5.60824883" id="path3370" fill="#E32739"></path>
                                        </g>
                                        <g id="g3372" transform="translate(8.319085, 23.781625)">
                                            <path d="M4.071574,1.86584008 C2.88448398,1.300957 1.66527377,1.32707876 1.80415968,2.02117127 C1.85347097,2.2669957 2.07197877,2.59585002 2.52528068,3.01333173 C2.07695514,2.98301183 1.77475387,3.20597972 1.65713062,3.4653315 C1.53181662,3.74287521 1.61731967,4.06240032 1.96883223,4.16175631 C2.64878509,4.35300491 2.95822471,4.54425352 3.76258678,4.73550213 C4.56604405,4.92675074 4.62802245,6.32986248 3.20568593,5.88346024 C1.78334941,5.43659154 -1.55669846,4.09785128 1.04096575,2.50349093 C0.0515732707,1.54678143 0.394942678,-0.682897471 4.62802245,0.590538386 C6.11233737,1.03694063 5.6377728,2.6112432 4.071574,1.86584008" id="path3374" fill="#E32739"></path>
                                        </g>
                                        <g id="g3376" transform="translate(27.106866, 23.709323)">
                                            <path d="M4.52397111,5.13106023 L2.28822459,4.0404767 C1.54403134,2.78336694 0.876293205,1.49920251 0.353322144,0.235095851 C0.933747638,0.44593578 2.49180329,1.03414187 3.20840031,1.52392489 C3.60741457,2.69567246 4.05800209,3.94671824 4.52397111,5.13106023" id="path3378" fill="#E32739"></path>
                                        </g>
                                        <g id="g3380" transform="translate(29.495432, 26.618215)">
                                            <path d="M4.52397111,6.99690031 C4.69769161,6.92180025 4.48370777,6.33359416 4.34120268,6.11249211 C3.86573332,5.37781758 3.21292429,3.87301755 2.54609094,2.15131362 C2.68814364,1.58503115 3.3205948,0.604065727 3.58253273,0.21223931 C4.36020336,3.57774836 5.52014955,7.75956245 6.80902892,10.4221162 C5.13063564,8.5184929 2.47777898,5.3157784 0.325273523,1.83598664 L2.37191806,2.81228747 C3.11068254,4.62821633 3.87342407,6.21511332 4.52397111,6.99690031" id="path3382" fill="#E32739"></path>
                                        </g>
                                        <g id="g3384" transform="translate(25.702897, 17.258601)">
                                            <path d="M6.78595667,4.66460021 C6.78595667,4.66460021 6.77419435,4.57317404 6.7655988,4.56850944 L6.68869129,4.52093052 C6.60409303,4.468687 6.20372159,4.06006802 5.81646966,3.66497638 C4.99039254,2.82254959 3.85939976,1.66806103 3.17763731,1.21326251 L3.01025038,1.10177857 L2.91434219,1.28183214 C2.84286345,1.41570616 1.16627975,4.57270758 0.977177761,5.61104759 L0.968129819,5.66235819 L0.984868512,5.71087004 C3.19301881,12.0864456 10.1608391,19.8394776 11.8681858,21.5998977 C9.51572084,18.3038912 7.11258739,7.15409734 6.78595667,4.66460021 M12.8186722,22.7235999 C12.7096444,22.7385266 12.5463291,22.6811521 12.2920819,22.477309 C11.7356335,22.0304403 4.92208057,16.5761233 0.665023754,6.53930303 C0.209459863,5.4650456 0.170101314,5.90165218 0.60304535,4.68978905 C1.03644178,3.47839238 2.21131708,1.37419122 2.52030431,0.863883959 C2.82974393,0.354043156 2.78224224,0.157197027 3.21518627,0.476722141 C4.7610272,1.8154624 5.99697611,3.16959584 6.49189855,3.55255952 C7.03070351,3.96864186 7.44193248,4.60349395 7.48219583,5.31297964 C7.56227012,6.71609138 10.2508661,19.2293479 12.9105088,21.9716664 C12.9177471,21.9791297 12.9227235,21.9856602 12.9295094,21.9926571 C12.8571259,22.2058293 12.8159578,22.4339282 12.8159578,22.6727558 C12.8159578,22.6900148 12.8182198,22.7068074 12.8186722,22.7235999" id="path3386" fill="#E32739"></path>
                                        </g>
                                        <g id="g3388" transform="translate(30.653976, 21.695009)">
                                            <path d="M0,3.26522015 C0.260580736,2.36308647 0.876293205,1.05559903 1.48341013,0.392292878 C1.59831899,1.20533269 1.87835281,2.70873334 2.28098624,4.50880256 C2.02176269,4.92441844 1.39745468,5.94736527 1.17216092,6.51224835 C0.768170295,5.44685366 0.365536866,4.32408439 0,3.26522015" id="path3390" fill="#E32739"></path>
                                        </g>
                                        <g id="g3392" transform="translate(26.734448, 18.863317)">
                                            <path d="M4.52397111,2.3323001 C4.79631418,2.61031028 4.98994014,2.80668995 5.13425482,2.94756087 C4.56378206,3.57075146 3.96073671,4.57970449 3.67527413,5.3810828 C3.08625309,3.64165338 2.62933201,2.16763972 2.48230295,1.56217461 C2.45742111,1.46001987 2.35698895,1.39798068 2.25746159,1.42363598 C2.15793422,1.44882482 2.09731301,1.55284541 2.12219485,1.65500015 C2.27510507,2.28425472 2.75781279,3.9145325 3.40112148,5.83634778 C2.69131042,5.3530952 1.14004072,4.80780344 0.53563818,4.60489333 C0.460992657,4.41177888 0.389513913,4.21959735 0.322106743,4.02834874 C0.510303942,3.14580638 1.74941963,0.737473293 2.10862294,0.0503776823 C2.77002751,0.545758224 3.77299191,1.56590629 4.52397111,2.3323001" id="path3394" fill="#E32739"></path>
                                        </g>
                                        <g id="g3396" transform="translate(39.173609, 38.608243)">
                                            <path d="M1.35719133,2.3323001 C0.817029183,2.3323001 0.378656382,1.8807668 0.378656382,1.32334708 C0.378656382,0.765927354 0.817029183,0.314394054 1.35719133,0.314394054 C1.89735349,0.314394054 2.33572629,0.765927354 2.33572629,1.32334708 C2.33572629,1.8807668 1.89735349,2.3323001 1.35719133,2.3323001" id="path3398" fill="#E32739"></path>
                                        </g>
                                        <g id="g3400" transform="translate(4.145858, 10.996977)">
                                            <path d="M4.071574,3.26522015 C3.46400468,3.4933191 2.88041241,3.69436337 2.35925094,4.0381444 C2.22262701,4.12770472 2.03804899,4.51626592 1.64582069,4.25924645 C1.3780016,4.05586988 1.127826,4.019486 0.717954216,3.87255109 C0.326178317,3.73168017 0.6107361,3.28387855 0.6107361,3.08096844 C0.6107361,2.56692949 0.576806317,1.52858949 0.467778613,0.966038703 C0.27415265,-0.0331186615 1.70237033,-0.538294864 1.97516579,0.905865361 C2.0041192,1.05699841 2.0199531,1.22958862 2.0199531,1.42550182 C2.0199531,1.87190406 1.80642167,2.91537513 1.80642167,2.91537513 C1.7702299,3.0627765 1.90413944,3.0884318 2.00185722,3.04505102 C2.37010847,2.87992417 2.85553057,2.09487195 3.47124304,1.81966054 C3.54317418,1.7874748 3.61601011,1.76088658 3.69110803,1.74456048 C4.61897451,1.54258329 5.64139198,2.67608114 4.071574,3.26522015" id="path3402" fill="#E32739"></path>
                                        </g>
                                        <g id="g3404" transform="translate(39.475760, 10.942872)">
                                            <path d="M4.97636823,5.13106023 C4.76826555,5.52848417 4.47646942,6.89474557 4.14350514,8.76851547 L6.61721255,7.38686089 C6.63757042,5.97815163 6.51678039,4.8315929 6.33717874,3.89680701 L4.97636823,5.13106023 L4.97636823,5.13106023 Z M5.47762423,1.09991273 L5.45998074,1.05653195 C4.9492244,1.73709712 4.4945653,2.46943935 4.08559831,3.24096423 L4.87774566,4.71124621 L6.24715171,3.46859672 C6.00783364,2.40693371 5.700656,1.64846971 5.47762423,1.09991273 L5.47762423,1.09991273 Z M2.49768445,7.13730478 L3.76846794,8.76245149 C4.09826543,6.90500769 4.39187116,5.52848417 4.61761732,5.01631106 L3.88021003,3.64771736 C3.33054753,4.74809655 2.87588844,5.92264289 2.49768445,7.13730478 L2.49768445,7.13730478 Z M1.52050669,11.2150983 L3.09484864,12.8388456 C3.29707015,11.5495501 3.49386289,10.3362876 3.6807029,9.26016433 L2.36377491,7.57624366 C2.01497673,8.76385087 1.7390145,9.98597613 1.52050669,11.2150983 L1.52050669,11.2150983 Z M1.01472672,15.0251437 L2.53432862,16.4837642 C2.69809637,15.4039093 2.86186413,14.33385 3.0224651,13.3048392 L1.4408848,11.6745614 C1.25540198,12.7963978 1.11606367,13.9205664 1.01472672,15.0251437 L1.01472672,15.0251437 Z M0.845530201,24.0217582 C0.878102793,24.5903729 1.29114136,24.566117 1.35583414,24.1649614 C1.63948713,22.4110717 1.9575223,20.3059376 2.28505781,18.1354992 C2.34522663,17.7376088 2.40539544,17.338319 2.46556426,16.9399621 L0.973558584,15.5079299 C0.709358671,18.7232388 0.750074411,21.7445003 0.845530201,24.0217582 L0.845530201,24.0217582 Z M2.18779243,24.4425051 C3.64813031,20.9729755 4.66240463,17.997427 5.34914345,15.4412261 L2.8501018,16.8849198 C2.78359943,17.3238587 2.71664465,17.7613982 2.65149947,18.1942731 C2.32396396,20.3642451 2.00592879,22.4703121 1.7222758,24.2279335 C1.62455803,24.6957929 1.99326167,24.910831 2.18779243,24.4425051 L2.18779243,24.4425051 Z M5.48486258,14.9243884 C5.78434947,13.7596377 6.01507199,12.6849138 6.1869829,11.6936863 L3.38981156,13.3570827 C3.23463935,14.3529748 3.07765755,15.3801198 2.92248534,16.404466 L5.48486258,14.9243884 L5.48486258,14.9243884 Z M6.60680742,7.82766561 L4.05890688,9.25083513 C3.86980489,10.3395528 3.67029777,11.5714737 3.46581427,12.869632 L6.26796198,11.2034368 C6.4679215,9.94399473 6.57242524,8.8230913 6.60680742,7.82766561 L6.60680742,7.82766561 Z M6.08881272,14.0511752 C5.90921107,14.8194349 5.69794162,15.6282765 5.45274238,16.4814319 C4.90488948,18.3808571 4.18286369,20.4971862 3.24775886,22.8532758 C2.73247855,24.1505011 2.15295785,25.5200277 1.50105362,26.9679196 C1.35764373,26.9343345 1.20835268,26.9147432 1.05499006,26.9147432 C0.911127782,26.9147432 0.770432281,26.9310693 0.635165544,26.9604563 C0.629284382,26.858768 0.622498425,26.753348 0.615712469,26.6413976 C0.330249891,22.0500316 -0.53880496,8.0762888 5.36362015,0.554620965 L5.5604129,0.304598394 C5.56086529,0.306464234 5.67984573,0.604065727 5.67984573,0.604065727 L5.81963644,0.951578443 C6.49551773,2.61310904 7.93685492,6.15727228 6.08881272,14.0511752 L6.08881272,14.0511752 Z" id="path3406" fill="#1C418C"></path>
                                        </g>
                                    </g>
                                </g>
                            </g>
                        </g>
                        <g id="g3412" transform="translate(0.947197, 0.071146)">
                            <g id="g3414-Clipped">
                                <mask id="mask-4" fill="white">
                                    <use xlink:href="#path-3"></use>
                                </mask>
                                <g id="path3418"></g>
                                <g id="g3414" mask="url(#mask-4)">
                                    <g transform="translate(0.000000, -0.466460)" id="g3424">
                                        <g transform="translate(0.140967, 0.369758)">
                                            <path d="M45.6921083,28.4540613 C45.9377599,27.6009059 46.1485769,26.7915978 46.3281786,26.0233381 C46.9117709,24.6514792 47.7342288,23.0445244 48.43273,21.975398 C49.0036551,17.7809895 48.4101101,12.840245 45.1903999,9.77793496 C45.004917,11.0537031 44.2010074,12.3929098 43.6445589,13.4764965 C43.070467,14.5950676 41.5418172,17.1116194 41.4183127,17.4306781 C41.3563343,18.9606669 40.6759291,22.6596949 40.4284679,25.5293569 C40.1810066,28.399019 40.1810066,37.9003432 40.3669419,38.8570527 L40.7410743,38.9685366 C40.7854092,38.9554757 40.8297441,38.9428813 40.8749838,38.9330856 C41.0097982,38.9032322 41.1504937,38.8869061 41.2948083,38.8869061 C41.448171,38.8869061 41.5970096,38.9064974 41.7404195,38.940549 C41.9412838,38.987195 42.129481,39.0646274 42.3022967,39.1681815 C42.4606357,39.2628729 42.6058552,39.378555 42.7325264,39.512429 C42.8510544,39.6374403 42.9542009,39.7787777 43.0392516,39.9313101 C43.1794947,40.1845979 43.2704265,40.4700714 43.2966656,40.7756027 L43.3351193,40.8339102 C44.6344038,39.4947035 55.4570999,31.9697705 56.9418672,22.1493876 C57.2599024,20.0461194 56.755932,17.5580216 57.12735,16.6656836 C55.9199022,16.6134401 50.7435744,16.014039 45.6921083,28.4540613 L45.6921083,28.4540613 Z M38.0393587,5.13759067 C37.8113506,4.84372086 37.310547,4.90482712 37.0612762,5.38994554 C30.4603499,16.5486022 37.249021,36.5713986 39.5906284,39.862274 C39.6933226,39.6934155 39.8186366,39.5413495 39.9624988,39.4098078 C39.9086636,39.2530772 39.8394468,39.033841 39.748515,38.7292426 C39.2531402,37.0709772 39.7706825,22.5141594 40.6759291,17.302868 C41.5296024,12.3896446 39.2386635,6.31493576 38.0393587,5.13759067 L38.0393587,5.13759067 Z M32.9584868,21.8405911 C32.4635643,21.4580939 31.2280678,20.1039604 29.6817745,18.7652202 C29.2488304,18.4452286 29.2963321,18.6420747 28.9873449,19.1519155 C28.6779053,19.6626893 27.50303,21.766424 27.070086,22.9778206 C26.6371419,24.1901502 26.6765005,23.7535436 27.131612,24.8278011 C31.3886688,34.8641549 38.2022217,40.3184719 38.7586701,40.7653406 C39.0129173,40.9691836 39.1762327,41.0265582 39.2852604,41.012098 C39.284808,40.9953054 39.282546,40.9785128 39.282546,40.9612538 C39.282546,40.7224263 39.3237141,40.4943273 39.3960977,40.2806886 C39.3893117,40.2741582 39.3843353,40.2671613 39.3775494,40.2596979 C36.7179068,37.5173795 34.0293107,25.0045894 33.948784,23.6010112 C33.9085207,22.891992 33.4972917,22.2571399 32.9584868,21.8405911 L32.9584868,21.8405911 Z M32.7114779,9.90854376 C32.2590808,9.34506006 31.5185068,9.07404679 31.0950631,9.316606 C31.049371,9.3422613 31.0005121,9.37164828 30.9512008,9.40103526 C30.7887902,8.82169191 30.5245903,8.35849711 30.1540771,8.06742606 C29.7125375,7.72037981 29.1687562,7.65974 28.661619,7.90183275 C27.5916998,8.41167356 26.880984,10.1067893 26.7610987,12.4358242 C26.5869258,15.8055313 25.9960952,16.6027115 24.5678775,18.5268591 C24.1656965,19.0684192 23.7101326,19.682747 23.1794708,20.4631347 C20.6555473,24.1714918 20.8541496,27.0336905 22.0656691,34.2670861 C22.9143661,39.3337748 22.1851019,40.7658071 21.2608547,42.5794036 C20.9306048,43.2273166 20.5564723,43.9619911 20.2262225,44.9135696 C19.7154661,46.3885162 19.8005168,47.4273226 20.4791124,48.000602 C21.3721443,48.7558008 22.8745551,48.2548227 23.61151,47.7981583 C23.7431576,47.7174608 23.8834007,47.6255681 24.0322394,47.5276115 C25.284927,46.7052425 27.1786613,45.4621266 29.1922808,47.0714136 C30.0902891,47.7888291 30.8494114,48.0332542 31.5135304,47.8186826 C32.6377372,47.4553102 33.1186353,45.9365164 33.5836996,44.4102592 L33.6090338,44.3281622 C33.8098981,43.6676549 34.1722682,43.1400886 34.6861913,42.8765387 C35.4711003,42.4735172 36.4473733,42.8131001 36.8450303,43.0463301 C37.0232748,43.1512836 37.2499258,43.0864457 37.3512627,42.9031269 C37.4521473,42.7193416 37.3901689,42.5444191 37.2119244,42.4399321 C36.5912356,42.0765597 35.2982846,41.7663638 34.355489,42.2500829 C33.6542735,42.6097235 33.1647798,43.2319812 32.9005799,44.0986639 L32.8756981,44.1816938 C32.4676359,45.5199676 32.0464542,46.9039545 31.2918558,47.1469802 C30.8824364,47.2794548 30.3291547,47.0704807 29.6473923,46.5256554 C27.2202818,44.5861146 24.9750349,46.0601283 23.6336775,46.9408048 C23.4889104,47.0359627 23.3522865,47.125523 23.2296869,47.2010895 C22.525757,47.6367632 21.4413611,47.8247466 20.9496054,47.4091307 C20.5505912,47.0718801 20.542448,46.2770322 20.925176,45.1710555 C21.23733,44.2703212 21.5834138,43.5916219 21.9177353,42.9348462 C22.4800649,41.8307353 22.9745349,40.8567668 23.1333263,39.2446809 C26.3290595,39.9541666 31.7121327,40.4528124 35.2896891,40.358121 C35.494625,40.3660508 35.6669883,40.2013904 35.674679,39.9900841 C35.6828222,39.7792441 35.523126,39.6015229 35.3181901,39.5931266 L35.3181901,39.6519005 C31.2457113,39.7764454 26.3878711,39.3099853 23.1772088,38.5337959 C23.2152102,37.4147583 23.1116112,36.0149118 22.7967428,34.1364772 C21.6241295,27.133513 21.4246224,24.373469 23.7861353,20.90254 C24.308654,20.1352133 24.7596939,19.5274159 25.157351,18.9919198 C26.6398563,16.9945379 27.31619,16.0826086 27.5021252,12.4764062 C27.626082,10.0704054 28.3720848,8.88326464 28.9728682,8.59592526 C29.2329965,8.4718469 29.4786482,8.49890158 29.7039419,8.67615639 C29.9419028,8.8627404 30.1694586,9.24756991 30.295225,9.83297724 C29.4542187,10.4468386 28.5453529,11.3746276 28.4973988,12.5678323 C28.4553259,13.5968431 28.8914367,13.8543291 29.2171626,13.8888471 C30.0509305,13.9784074 30.8828888,13.0655452 31.0231319,12.2007283 C31.1407552,11.4688525 31.1660894,10.792952 31.1045634,10.197749 C31.2307822,10.1175179 31.3456911,10.0484818 31.4411468,9.99390595 C31.5429362,9.97104941 31.9654751,10.0881309 32.2391754,10.5391977 C32.7956238,11.4548587 32.295725,12.9941768 30.8661501,14.7625267 C30.2789387,15.488805 29.6220581,16.1735683 28.9859877,16.8350086 C28.2725575,17.5780794 27.5346978,18.3468055 26.902699,19.169641 C25.7400385,20.6833038 24.148053,22.757185 24.5972833,27.9862019 L24.8470066,30.9626833 C25.0202746,33.0785459 25.034299,33.2516026 25.2256629,34.0394536 C25.4369324,34.9112673 25.8413754,35.9729304 26.56883,36.0802162 C27.2668787,36.1837703 27.7319429,35.3068254 27.8844008,35.0381445 C28.2825102,34.337988 28.6055218,34.0627766 28.7154543,34.0273256 C28.7543604,34.0763039 28.8728884,34.2750159 28.9262713,34.9401879 C29.0850627,36.9053839 29.3958595,37.7790636 29.9989049,37.9563184 C30.5906403,38.1298415 31.1104446,37.5215776 31.4497424,37.0490536 C31.5954143,36.8461435 31.9487364,36.3544946 32.1428148,36.1828374 C32.2690336,36.4272624 32.4400397,37.085904 32.6191889,37.7799965 L32.7105731,38.1321738 C32.7635036,38.3360168 32.9675347,38.5160704 33.1652322,38.4614946 C33.3629298,38.4064523 33.4801006,38.1965453 33.4276226,37.9922358 L33.3362383,37.6414578 C32.9399385,36.1086702 32.7915522,35.5353909 32.291201,35.4369678 C31.820708,35.3441422 31.4379801,35.8385899 30.8539354,36.6525626 C30.3992763,37.2846159 30.2033884,37.2794849 30.2020312,37.2790184 C30.1875545,37.2757532 29.8459946,37.1624034 29.6659406,34.9350568 C29.6161769,34.3137321 29.4804578,33.4713053 28.8846508,33.3313673 C28.3829424,33.2138193 27.8310179,33.6774806 27.2442588,34.7097566 C26.9556295,35.2177316 26.7502412,35.3343466 26.6742385,35.3231515 C26.5140899,35.2993621 26.181578,34.827771 25.9454267,33.8542689 C25.7689919,33.1256584 25.7585867,33.0001806 25.5862234,30.8983118 L25.3365002,27.9190316 C24.9130565,22.9932138 26.3390122,21.1367029 27.4844817,19.6449638 C28.0906938,18.855247 28.7819566,18.1354992 29.5139352,17.3737699 C30.160863,16.7006681 30.8290536,16.0037769 31.4366229,15.2523098 C33.9564748,12.134491 33.1674942,10.4762256 32.7114779,9.90854376 L32.7114779,9.90854376 Z M16.3025823,1.34480424 C15.1657084,1.01688285 14.938605,2.05009179 14.5893544,3.00027085 C14.3278689,3.71208885 13.7071801,4.50786964 13.3705966,5.54807549 C12.9810827,6.7520088 12.7657417,8.49143822 12.7657417,8.49143822 C14.1989357,8.85014598 16.5667822,9.54657079 17.9325691,10.5126095 C18.9079373,11.2538145 19.509173,12.3457974 19.7720158,13.5408679 C18.9409623,12.3989738 17.9882139,11.206702 16.5428052,10.5718499 C13.7026561,9.49992479 10.5684489,8.80443289 6.58961633,9.06425113 C5.46314752,9.13795181 2.68407206,10.1543682 3.89016276,12.9092811 C4.25208045,13.7363147 4.1186233,15.0633935 3.83994668,15.4463571 C3.56172246,15.8288543 3.05549009,16.6974029 3.89016276,17.5580216 C5.09625346,17.366773 7.80475497,17.6531795 8.36120341,17.9405189 C8.91810426,18.2273918 9.51572084,17.6513137 9.47455271,17.2706823 C9.3818113,16.41053 10.4024192,16.2183485 10.216484,17.4623973 C10.1599343,17.84023 9.93825974,18.5147311 9.66048792,18.6103555 C9.3818113,18.7055133 9.10313468,19.088477 9.19632848,19.567065 C9.28861749,20.04472 8.63942764,20.6189323 7.52653074,20.4276837 C6.41272906,20.2364351 6.78414708,19.4709742 7.52653074,19.567065 C8.26846201,19.6626893 8.36120341,19.088477 7.61927215,18.8972284 C6.87688849,18.7055133 4.95646275,18.3113546 4.13174282,18.5431852 C3.11068254,18.8300581 3.3988595,20.3320594 3.86211414,21.8625147 C4.03719182,22.4399922 3.79334978,22.5752656 4.82707718,22.6657589 C6.58102078,22.8187578 9.40940752,23.6429926 10.2657953,21.4231094 C10.6290701,20.4817931 11.4433849,20.3689097 10.8724598,21.9142918 C10.5471863,22.7945018 9.25966408,23.5846851 8.98143985,23.679843 C9.21940073,24.8082098 8.38563286,26.3013483 6.65295192,26.5252491 C4.76645597,26.7701406 5.09444387,24.7517681 6.02366754,24.4550995 C7.36004861,24.0301544 7.25644967,25.0955491 6.49054136,24.9294894 C5.60158103,25.1412622 5.82189843,25.9141865 6.42675337,25.9515033 C7.11213499,25.9930182 7.69934644,25.5899967 8.16305348,24.8963707 C8.62676052,24.2027446 8.03004873,23.6308647 7.45867118,23.5818864 C5.7318714,23.4330856 3.8064693,23.0678474 2.78631381,23.0678474 C1.76525353,23.0678474 0.0217150614,23.8043878 1.87699562,26.7692077 C3.73227617,29.7349605 3.8996631,30.1841615 4.36337014,30.8539981 C4.82752958,31.5233682 5.56900844,32.6904512 5.38352563,33.9345001 C5.19804281,35.177616 4.45565915,36.0573596 6.86784055,38.2571851 C9.28002195,40.4570105 13.5470315,44.0347589 15.310023,44.8953776 C16.794338,43.7474195 21.0708479,42.4278041 19.7720158,32.6713263 C19.4254796,30.0694123 17.7308,24.507343 22.1837448,17.3336544 C23.0306322,17.9545127 25.8658048,16.906377 24.1322191,12.5841584 C24.6886676,11.3401096 26.8877699,6.38537123 27.0732527,6.09896477 C24.9388432,4.76022451 20.9143185,2.6765476 16.3025823,1.34480424 L16.3025823,1.34480424 Z M42.8230058,40.9612538 C42.8230058,40.0908394 42.1389813,39.3850854 41.2948083,39.3850854 C40.4501829,39.3850854 39.7652537,40.0908394 39.7652537,40.9612538 C39.7652537,41.8316682 40.4501829,42.5378887 41.2948083,42.5378887 C42.1389813,42.5378887 42.8230058,41.8316682 42.8230058,40.9612538 L42.8230058,40.9612538 Z M42.4099672,45.6006652 L42.4099672,43.3005508 L41.2436875,43.3005508 L39.1843758,45.6006652 L42.4099672,45.6006652 L42.4099672,45.6006652 Z M45.3994073,44.1499745 L46.0590023,41.7388427 L43.8915678,41.215941 L43.4151936,42.6069248 C43.8915678,43.2641669 44.6850723,43.8407115 45.3994073,44.1499745 L45.3994073,44.1499745 Z M57.481577,18.3085558 C58.6596191,29.2405129 48.3983478,37.0257306 44.5235665,40.4910621 L47.0461328,41.0694725 L45.7473007,45.4887148 C45.7473007,45.4887148 44.0779554,44.3407567 43.2428303,43.7670108 L43.2428303,46.4449578 L38.3257261,46.4449578 C38.3257261,46.4449578 36.5631869,48.0715039 33.5018157,50.462578 C30.439992,52.8541185 25.0134887,51.4929882 23.8720908,51.4440099 C23.2057098,51.3945651 21.8575664,51.8311717 19.3526436,51.6399231 C15.0874437,51.314334 14.2337703,47.6717477 14.9757016,45.9500437 C12.0998131,43.9414669 3.67301215,37.6526529 4.13671919,35.5479853 C4.4479684,34.1369437 4.65064231,32.9581992 3.90825865,32.0975805 C3.63274881,31.7775889 3.25906879,30.5671252 1.03237021,27.2188751 C-1.61867686,23.2325078 1.55805565,21.9828614 2.83788708,22.0024527 C2.83788708,22.0024527 2.89172234,21.6199555 2.79536175,21.3839267 C2.48592213,20.6319932 2.33120232,18.6103555 2.70216795,18.1322339 C2.78631381,18.0240152 2.84512543,17.9666406 2.88584117,17.9363207 C2.86050694,17.9246592 2.82929154,17.898071 2.79536175,17.8448946 C2.60942654,17.5580216 1.91499697,16.8587981 2.70216795,15.6450691 C3.63908236,14.2009089 2.69538199,13.4890909 2.60218819,12.6280057 C1.90097266,6.11902255 10.1536008,8.47791088 11.7288475,8.28899457 C11.8134458,7.54732314 11.9998334,6.31260346 12.4196579,5.14738633 C12.9200091,3.75780193 13.6316298,3.09449578 13.8410896,2.16530742 C14.094432,1.03927293 14.666262,-0.123145446 15.7832304,0.148334287 C20.1434338,1.20999729 25.616534,3.78392369 28.2137459,5.50609409 C29.1416123,5.02703965 32.759432,4.64454243 34.615165,4.83579104 C36.4704455,5.02703965 36.9074611,3.91126728 37.8624715,4.0707966 C38.1841258,4.29236511 38.3836329,4.847919 38.655976,5.19030065 C40.6949298,7.74836741 41.5879617,13.7876253 41.3133566,16.6195041 C42.3945857,14.4957116 44.666524,11.1358001 44.8565308,9.05072379 C48.4793269,10.6525475 49.7663966,18.0240152 48.955701,21.1740197 C52.0175247,16.783698 54.8051957,15.8778327 57.7733731,16.1745012 C57.7258714,16.2957808 57.4091934,17.6443167 57.481577,18.3085558 L57.481577,18.3085558 Z" id="path3426" fill="#000000"></path>
                                        </g>
                                    </g>
                                </g>
                            </g>
                        </g>
                        <g id="g3428" transform="translate(0.042403, 0.071146)">
                            <g id="g3430-Clipped">
                                <mask id="mask-6" fill="white">
                                    <use xlink:href="#path-5"></use>
                                </mask>
                                <g id="path3434"></g>
                                <g id="g3430" mask="url(#mask-6)">
                                    <g transform="translate(6.785957, 9.795660)">
                                        <g id="g3436" transform="translate(23.147084, 0.450554)">
                                            <path d="M0.452397111,2.79876013 C0.419372122,2.7581781 0.336583451,2.62243824 0.351512556,2.25720004 C0.381823162,1.50433357 0.930580858,0.855487678 1.50467279,0.375500317 C1.51326834,0.768726114 1.48612451,1.21466189 1.40514543,1.7198381 C1.17170852,2.42885733 0.860459306,2.93543291 0.452397111,2.79876013" id="path3438" fill="#231F20"></path>
                                        </g>
                                        <g id="g3440" transform="translate(9.833123, 9.451553)">
                                            <path d="M2.71438267,0 C1.82858912,1.00009028 0.487684086,3.88934365 3.1473267,6.37650849 C1.11515888,6.93579405 -1.67703609,1.33874026 2.71438267,0" id="path3442" fill="#000000"></path>
                                        </g>
                                        <g id="g3444" transform="translate(6.403324, 27.666817)">
                                            <path d="M1.35719133,2.79876013 C1.35719133,2.79876013 2.21357907,2.16110928 2.8663881,1.29769178 C3.39750231,0.594736527 3.67482174,1.10504379 3.30792768,1.7198381 C2.92746171,2.35748895 1.9425932,3.07816968 1.26218794,3.77972555 L1.8331131,4.17201843 C1.8331131,4.17201843 4.54387659,1.86070902 5.68663169,0.346113335 C6.01959597,-0.0951578443 6.49551773,0.199178429 6.25755685,0.591471306 C5.43147972,1.95400103 3.33145233,3.78485661 2.40403825,4.61375607 L2.97496341,5.00604894 C2.97496341,5.00604894 4.16476781,4.31941979 5.02070314,3.1420747 C5.48531498,2.50349093 6.01959597,2.99467333 5.40116911,3.63279064 C5.05960929,3.98496796 4.06885962,4.95707064 3.52191151,5.34936352 C3.0541329,5.68521473 3.08896748,5.92310935 2.40856222,5.47717357 C2.40856222,5.47717357 1.85211377,5.03077133 0.862721292,4.32921545 C-0.126671191,3.62765958 0.738764483,3.30906739 1.35719133,2.79876013" id="path3446" fill="#000000"></path>
                                        </g>
                                        <g id="g3448" transform="translate(0.286594, 19.322309)">
                                            <path d="M5.88116245,3.26522015 C6.37608489,3.01006651 6.37608489,3.07397154 5.81918404,2.88272293 C5.2627356,2.69147432 3.41650299,2.48763129 3.41650299,2.48763129 C3.47848139,2.74278492 3.47848139,3.20131512 3.41650299,3.39303019 C3.35497698,3.5842788 3.47848139,4.14822897 3.47848139,4.14822897 C3.47848139,4.14822897 5.38624001,3.52037378 5.88116245,3.26522015 M2.82069599,5.79343346 C2.53297143,5.92310935 1.66255938,6.34105752 1.76389634,6.48799243 C1.88649595,6.66478078 2.58318751,6.88728221 3.17039896,6.98850403 C3.75761041,7.08972586 3.39116875,6.55982727 3.26494995,6.2631587 C3.13918356,5.96602367 3.10887295,5.66375757 2.82069599,5.79343346 M8.74709815,6.53044029 C7.67944097,6.37837433 6.30867772,7.28657199 5.33330955,8.0879503 C4.49818448,8.77411299 2.88312679,9.04512626 1.69965595,8.5418159 C0.516185104,8.03850554 1.07580033,7.23759368 1.53136422,6.86116045 C1.53136422,6.86116045 1.6919652,6.52390985 0.978987349,5.97628579 C0.14567187,5.3367691 1.18618523,5.12686209 2.11043252,4.79567547 C1.74172888,4.20513709 1.9421408,3.11502002 2.04031097,2.50955491 C0.82381514,2.45404617 0.210817054,2.29684914 0.33205948,2.02350357 C0.429777256,1.80193506 1.41826494,1.64660387 1.95616511,1.75762136 C2.005024,1.45488881 1.6756789,0.307863614 2.15069587,0.398356858 C2.64109434,0.492581782 3.04779934,1.09198291 3.18668525,1.80986488 C3.18668525,1.80986488 5.09353908,2.11679557 6.35482222,2.43025671 C7.45640919,2.70360228 7.51476842,3.13554426 6.91534225,3.43454513 C6.09559868,3.84363057 4.64476114,4.73783443 3.75037205,5.34656476 C3.32149959,5.63810227 3.66351181,6.02293179 3.85487579,6.55889435 C4.04669216,7.09439046 5.25640204,6.43901413 5.65677348,6.18479342 C6.05804972,5.93103917 7.8459231,5.00511602 9.04839463,5.50329533 C10.0766933,5.92870687 10.462588,6.77439888 8.74709815,6.53044029" id="path3450" fill="#000000"></path>
                                        </g>
                                    </g>
                                </g>
                            </g>
                        </g>
                    </g>
                </g>
            </g>
        </g>
    </g>
</svg>