<?xml version="1.0" encoding="UTF-8" standalone="no"?>
<svg width="30px" height="30px" viewBox="0 0 30 30" version="1.1" xmlns="http://www.w3.org/2000/svg" xmlns:xlink="http://www.w3.org/1999/xlink">
    <!-- Generator: Sketch 40.3 (33839) - http://www.bohemiancoding.com/sketch -->
    <title>Artboard Copy</title>
    <desc>Created with Sketch.</desc>
    <defs>
        <polygon id="path-1" points="0.0775861045 0.00606398025 29.8582093 0.00606398025 29.8582093 25.8885311 0.0775861045 25.8885311"></polygon>
        <polygon id="path-3" points="0.073740729 0.00606398025 28.9570343 0.00606398025 28.9570343 25.8885311 0.073740729 25.8885311"></polygon>
        <polygon id="path-5" points="0.0775861045 0.00606398025 29.8582093 0.00606398025 29.8582093 25.8885311 0.0775861045 25.8885311"></polygon>
    </defs>
    <g id="Page-1" stroke="none" stroke-width="1" fill="none" fill-rule="evenodd">
        <g id="Artboard-Copy">
            <g id="blackhawks" transform="translate(0.000000, 1.000000)">
                <g id="Page-1">
                    <g id="Artboard">
                        <g id="blackhawks" transform="translate(0.000000, 0.378558)">
                            <g id="layer1" transform="translate(0.049441, 0.044061)">
                                <g id="g2452" transform="translate(15.279362, 13.471597) scale(1, -1) translate(-15.279362, -13.471597) translate(0.029362, 0.221597)">
                                    <g id="g3200" transform="translate(0.021202, 0.035573)">
                                        <g id="g3202-Clipped">
                                            <g>
                                                <mask id="mask-2" fill="white">
                                                    <use xlink:href="#path-1"></use>
                                                </mask>
                                                <g id="path-1"></g>
                                                <g id="g3202" mask="url(#mask-2)">
                                                    <g transform="translate(0.500000, 0.000000)" id="Group">
                                                        <g transform="translate(0.404794, 0.466460)">
                                                            <g id="g3208" transform="translate(4.183904, 15.300731)" fill="#FFFFFF">
                                                                <path d="M1.35719133,0.233230011 C1.63541556,0.328854315 1.63541556,0.296901804 1.38818054,0.424478619 C1.14071931,0.552055435 0.186840007,0.86598303 0.186840007,0.86598303 C0.186840007,0.86598303 0.125087801,0.584007945 0.155850805,0.488150412 C0.186840007,0.392526108 0.186840007,0.163027777 0.155850805,0.0356841916 C0.155850805,0.0356841916 1.07896711,0.137372476 1.35719133,0.233230011" id="path3210"></path>
                                                            </g>
                                                            <g id="g3212" transform="translate(4.775957, 12.795582)" fill="#FFFFFF">
                                                                <path d="M1.58338989,1.16615005 C1.21559104,0.93268681 0.86453088,0.86784887 0.212174246,0.827733305 C0.27098587,0.69805742 0.422086505,0.586806705 0.646249275,0.601966655 C0.419598321,0.393225797 0.310344419,0.22879864 0.285688776,0.105653195 C0.807528845,0.351011165 1.18776861,0.469492011 1.89282952,0.430309369 C3.03694181,0.366404346 3.05843067,0.8890728 2.77998025,1.33547504 C2.50175603,1.78164405 1.88151958,1.35529959 1.58338989,1.16615005" id="path3214"></path>
                                                            </g>
                                                            <g id="g3216" transform="translate(13.445466, 10.050581)" fill="#FFFFFF">
                                                                <path d="M2.48818412,4.66460021 L1.46486184,4.1764498 C1.39247831,4.05983479 1.32190436,3.94228687 1.252009,3.82450571 L2.36988227,4.36956425 C2.13689775,3.77739325 1.91160399,3.15187036 1.71209687,2.56599658 C1.35379835,2.32110507 0.57477053,2.02723525 0.284557783,1.92158206 C0.251758993,1.84205062 0.220091195,1.76275242 0.18955439,1.68345422 C0.49175566,1.78490927 1.26739051,2.05778838 1.62229604,2.29941468 C1.30064169,1.3382738 1.05928783,0.523134915 0.982832725,0.20874086 C0.970391805,0.157663487 1.00070241,0.105653195 1.05046609,0.092825544 C1.10022977,0.0799978935 1.15044586,0.111017485 1.16288678,0.162328088 C1.23640131,0.465060641 1.46486184,1.20183425 1.75937236,2.07154896 C1.90210365,1.6708598 2.20362633,1.16638328 2.48886271,0.85478799 C2.54812673,0.91286226 2.59065206,0.952278135 2.62096266,0.977000515 C2.62164126,0.982131575 2.62254605,0.987962325 2.62322465,0.993093385 C2.31966619,1.32474646 2.01180995,1.97849018 1.88151958,2.42955702 C2.06428802,2.95898914 2.26560474,3.52037378 2.46760005,4.05307112 C2.58002072,3.77062958 2.89240093,3.25915617 3.0220127,3.05134823 C3.04531115,3.15396943 3.06906201,3.25868971 3.09349145,3.36480936 C2.96252249,3.56048934 2.6462969,4.05097205 2.57527055,4.33434652 C2.90868723,5.19496525 3.23509175,5.94736525 3.47282643,6.31470255 C3.54407897,6.42525355 3.65107089,6.7193566 3.56421065,6.75690665 C3.23893712,6.36601315 2.85756635,5.57256465 2.48818412,4.66460021" id="path3218"></path>
                                                            </g>
                                                            <g id="g3220" transform="translate(20.764437, 8.298837)" fill="#FFFFFF">
                                                                <path d="M6.5597581,0.466460021 C6.50773245,0.478821212 6.45661155,0.492348552 6.4023239,0.504243285 C5.92481875,0.609896475 5.36678695,0.735140995 4.5723776,1.76718379 L4.98948774,3.05764543 C5.2930462,2.5272804 5.516078,2.12215986 5.60158105,1.93347678 C5.6230699,1.88566463 5.67826235,1.86514039 5.72485925,1.88729724 C5.77122995,1.90968732 5.7913616,1.96682868 5.76964655,2.0144076 C5.67961955,2.21358603 5.4464088,2.6368985 5.13086185,3.18685486 L6.30551095,2.9664525 C6.5308047,2.16577387 6.63304645,1.32941106 6.5597581,0.466460021 M3.00572641,4.4733516 L3.44138482,5.6889464 C3.95576034,4.82809444 4.46538569,3.96630956 4.86417374,3.27524903 L4.43597987,1.95026934 C4.02656049,2.51678504 3.55629369,3.32142858 3.00572641,4.4733516 M1.85030418,7.1272759 L2.01633393,8.0552981 C2.3956689,7.43000845 2.85507817,6.6689789 3.31788041,5.89582145 L2.89307953,4.71124621 C2.57323477,5.39461015 2.22715098,6.1931897 1.85030418,7.1272759 M0.548757695,10.5755816 C0.537900165,10.6313235 0.5641392,10.6761037 0.628831985,10.6201285 C0.79124255,10.4603659 0.97695156,10.2828779 1.18641142,10.083233 C1.73652631,9.55939845 2.41534818,8.9131181 3.10389658,8.1649162 L1.99665465,8.4438593 C1.60035478,9.0959704 1.32326155,9.5465708 1.27892663,9.61560685 C1.25042561,9.65968735 1.19297118,9.67158205 1.15021965,9.6421951 C1.10769432,9.6128081 1.09593201,9.5535677 1.12443302,9.50972045 C1.19704276,9.3973036 1.47979095,8.93784045 1.87043586,8.29505855 L1.72001382,7.45333145 C1.35786993,8.365494 0.968356015,9.40033555 0.548757695,10.5755816 M5.16320825,5.4997969 L3.4615165,6.0175675 C2.98808292,6.80775075 2.51939951,7.58324055 2.13780255,8.211329 L3.3352977,7.90952935 C3.98086838,7.18768245 4.62259369,6.3788408 5.16320825,5.4997969 M5.3061657,5.2605029 C5.69296525,4.59976226 6.01869115,3.90147161 6.24443735,3.1723946 L5.00554785,3.40469169 C4.60992657,4.08922177 4.11093255,4.93141534 3.60741456,5.7733757 L5.28806985,5.26190225 C5.2941772,5.26026965 5.30028455,5.26096935 5.3061657,5.2605029 M1.31240402,10.2238707 C0.912032575,10.6049685 0.589473435,10.9123657 0.373227617,11.1521262 C0.330702288,11.0758599 0.279129018,11.004958 0.220091195,10.9424524 C3.76756315,0.89257125 5.20641215,0.572579675 6.36364395,0.316959584 C6.4527662,0.297368263 6.53691205,0.278709862 6.62015315,0.255620091 L6.72510925,0.22599988 L6.7364192,0.337950285 C7.174792,4.64337628 3.36108434,8.2736014 1.31240402,10.2238707" id="path3222"></path>
                                                            </g>
                                                            <g id="g3224" transform="translate(2.847774, 5.155083)" fill="#FFFFFF">
                                                                <path d="M0.226198555,1.86584009 C0.177113469,1.88776371 0.110384895,1.87470282 0.128254581,1.80123537 C0.128254581,1.80123537 0.235246498,1.27949984 0.235246498,1.05606548 C0.235246498,0.958108885 0.22710335,0.87204701 0.212852841,0.796247255 C0.61548627,-0.568148305 1.88106719,0.185417859 0.960891465,1.25337808 C0.65280903,1.39098378 0.410097981,1.78327666 0.226198555,1.86584009" id="path3226"></path>
                                                            </g>
                                                            <g id="g3228" transform="translate(20.915696, 7.279878)" fill="#FEE011">
                                                                <path d="M1.13099278,0.69969003 C1.0181197,0.955776585 0.871316835,1.64403834 0.70641809,2.57276024 L0.0710263465,1.76042012 C0.260128339,1.15285594 0.487457888,0.565582775 0.762289135,0.0153931807 L1.13099278,0.69969003 L1.13099278,0.69969003 L1.13099278,0.69969003 Z" id="path3230"></path>
                                                            </g>
                                                            <g id="g3232" transform="translate(21.470900, 9.340792)" fill="#FEE011">
                                                                <path d="M0,2.56553012 C0.102015548,1.91645099 0.20199531,1.30025731 0.296546307,0.756131695 L1.57027037,0.044546932 C1.55307928,0.542259775 1.50082742,1.10247826 1.40084765,1.73219929 L0,2.56553012 L0,2.56553012 L0,2.56553012 Z" id="path3234"></path>
                                                            </g>
                                                            <g id="g3236" transform="translate(20.245336, 11.118054)" fill="#FEE011">
                                                                <path d="M0,1.86584009 C0.050442278,1.31355142 0.120111433,0.751467095 0.21307904,0.190782148 L1.00364299,1.0056878 C0.923568705,1.52019321 0.841684825,2.05522285 0.75980095,2.59515033 L0,1.86584009 L0,1.86584009 L0,1.86584009 Z" id="path3238"></path>
                                                            </g>
                                                            <g id="g3240" transform="translate(20.316750, 16.736912)" fill="#FEE011">
                                                                <path d="M0.452397112,2.3323001 C0.365989263,2.28075627 0.271890664,2.24180686 0.171684704,2.21848386 C0.497636823,1.49453791 0.787397175,0.809774595 1.04503733,0.161161937 C0.844625405,0.834263745 0.64670167,1.5558774 0.452397112,2.3323001" id="path3242"></path>
                                                            </g>
                                                            <g id="g3244" transform="translate(20.372732, 13.153939)" fill="#FEE011">
                                                                <path d="M0.226198556,4.4313702 C0.368251249,3.55255952 0.527268835,2.49952602 0.69103659,1.41454002 C0.72360918,1.19810256 0.756860365,0.979332815 0.790111555,0.759863375 L2.03985858,0.0382497217 C1.69626297,1.31611695 1.18912581,2.80389119 0.459183068,4.538656 C0.361691491,4.77281894 0.177339668,4.6652999 0.226198556,4.4313702" id="path3246"></path>
                                                            </g>
                                                            <g id="g3248" transform="translate(21.199125, 11.108071)" fill="#FEE011">
                                                                <path d="M0,2.56553012 C0.0775861045,2.05335701 0.156077004,1.53978453 0.233663108,1.04183845 L1.63224878,0.210140239 C1.54629332,0.70575401 1.43093206,1.24311595 1.28118862,1.82549129 L0,2.56553012 L0,2.56553012 L0,2.56553012 Z" id="path3250"></path>
                                                            </g>
                                                            <g id="g3252" transform="translate(20.065873, 13.008544)" fill="#FEE011">
                                                                <path d="M0.904794225,0.93292004 C0.874709815,1.13209847 0.844625405,1.33151013 0.814541,1.53068856 C0.650773245,2.6159078 0.49175566,3.6682416 0.349929165,4.54518644 C0.317582772,4.74576425 0.111063491,4.75812545 0.094777195,4.47381806 C0.0470492996,3.33495592 0.026465231,1.82455837 0.158791386,0.216903909 L0.904794225,0.93292004 L0.904794225,0.93292004 L0.904794225,0.93292004 Z" id="path3254"></path>
                                                            </g>
                                                            <g id="g3256" transform="translate(20.447241, 9.168619)" fill="#FEE011">
                                                                <path d="M1.13099278,0.93292004 C1.03757277,1.47074845 0.939176405,2.07761293 0.83806565,2.72226068 L0.050894675,1.91015379 C0.160148578,1.29582594 0.298129696,0.68453008 0.472528783,0.090959704 L1.13099278,0.93292004 L1.13099278,0.93292004 L1.13099278,0.93292004 Z" id="path3258"></path>
                                                            </g>
                                                            <g id="g3260" transform="translate(19.536634, 4.175563)" fill="#FEE011">
                                                                <path d="M4.29777256,6.2972103 C3.94852199,6.8320067 3.53729301,7.6354841 3.24572307,8.32141355 C4.16951798,4.37446208 3.44907558,2.60238046 3.11113493,1.77161516 L3.04123958,1.5978588 C3.04123958,1.5978588 2.98174936,1.44929129 2.98129696,1.44812514 L2.88312679,1.57336965 C-0.0680857655,5.33397035 0.366441661,12.3208417 0.50917295,14.6165247 C0.512565925,14.6725 0.515958905,14.7252099 0.518899485,14.7762873 C0.496279631,14.7811852 0.474112173,14.7872491 0.451944715,14.7937796 L0.264878509,14.7380376 C0.172137101,14.259916 0.172137101,9.50902075 0.295641513,8.07418975 C0.419372122,6.6393587 0.75980095,4.79007796 0.79056395,4.02508352 C0.852542355,3.86532096 1.61664108,2.60704505 1.90368705,2.04799272 C2.18191127,1.50619941 2.5840923,0.836596045 2.67683371,0.198711969 C4.28646263,1.72986699 4.58323514,4.20000603 4.29777256,6.2972103" id="path3262"></path>
                                                            </g>
                                                            <g id="g3264" transform="translate(21.689320, 7.299071)" fill="#FEE011">
                                                                <path d="M1.35719133,1.86584009 L0.120337632,2.55666737 C0.286819769,1.6195492 0.432717837,0.93665172 0.536769175,0.737939755 L1.21717443,0.120813145 C1.30697526,0.588206085 1.36737027,1.16148545 1.35719133,1.86584009" id="path3266"></path>
                                                            </g>
                                                            <g id="g3268" transform="translate(21.571855, 5.788233)" fill="#FEE011">
                                                                <path d="M0.904794225,0.23323001 C1.01631011,0.507275275 1.16989893,0.8867405 1.28978416,1.417572 L0.60485494,2.03889675 L0.208781267,1.30375576 C0.413264762,0.91799332 0.64082051,0.551588975 0.89597248,0.211306389 L0.904794225,0.23323001 L0.904794225,0.23323001 L0.904794225,0.23323001 Z" id="path3270"></path>
                                                            </g>
                                                            <g id="g3272" transform="translate(16.929627, 2.255052)" fill="#FEE011">
                                                                <path d="M2.48818412,3.73168016 C2.09278904,3.9208297 1.67341691,4.18997714 1.41125279,4.46122364 C1.35900092,4.98762377 1.33615487,5.8039288 1.34316702,6.76553615 C1.67952427,6.45557345 2.31853519,6.04998645 2.54586474,5.90934875 C2.58612809,5.0888456 2.55694847,4.36443318 2.48818412,3.73168016 M2.28709359,2.50745584 C2.06293083,2.26792862 1.60420016,2.7961946 1.41849114,3.15163713 L1.35673894,2.96038853 C1.07150256,2.37241567 0.859328315,2.45521232 0.70619189,2.64063018 C0.619105445,3.0161305 0.546043315,3.39979386 0.486553093,3.79162028 C0.674071695,3.89657379 1.11448028,4.1484622 1.30878484,4.30565923 C1.55805565,4.03231365 2.28437921,3.61879684 2.46352847,3.5189744 C2.41625297,3.14767222 2.35540556,2.81088809 2.28709359,2.50745584 M0.29609391,6.31003795 L1.12217104,6.8926465 C1.11832566,5.93640345 1.14931486,5.1035391 1.21559104,4.51883145 C1.01133374,4.32058595 0.62996298,4.10111651 0.455111494,4.0054922 C0.352869747,4.74599748 0.300391682,5.51449035 0.29609391,6.31003795 M0.442444375,8.8823317 C0.60259295,8.9956815 1.02445326,9.30214575 1.20518591,9.51205275 C1.15836281,8.68921725 1.13099278,7.87781005 1.12375443,7.1328734 C0.935557225,6.96051645 0.5170899,6.66081585 0.29451052,6.50431855 C0.298129697,7.27211175 0.348345776,8.06579345 0.442444375,8.8823317 M0.56707978,9.82434775 C0.743288455,10.9697403 0.971975195,11.9474405 1.283903,12.9703873 C1.34882199,13.2379022 1.56371062,13.2703211 1.53113803,12.986247 C1.3942879,12.0038822 1.29114135,10.9002378 1.2226032,9.8045232 C1.1117659,9.6314665 0.65009465,9.2652954 0.469588202,9.12582385 C0.498541617,9.35672155 0.53088801,9.5894851 0.56707978,9.82434775 M2.00638119,12.8994854 C2.05953785,11.5679753 2.15748183,10.0519802 2.24502067,8.96023055 C2.02719146,9.0934049 1.66708335,9.3609197 1.43183686,9.5915842 C1.49562485,10.7780252 1.59311643,11.9768275 1.72453779,13.0030395 C1.78923057,13.3374914 1.97403479,13.2339372 2.00638119,12.8994854 M2.37802541,7.5888381 C2.45425433,7.0752656 2.50311322,6.592013 2.53206663,6.1348822 C2.21765064,6.32030005 1.64943987,6.72215535 1.34565521,7.0393482 C1.35447695,7.7593292 1.37913259,8.5478799 1.41916974,9.3485585 C1.66640476,9.1160282 2.04754932,8.84058355 2.26628333,8.70297785 C2.31016585,8.1786768 2.34997679,7.77892055 2.37802541,7.5888381 M2.19367359,16.1236571 C1.37031085,14.0182898 0.702798915,11.9280824 0.383632751,9.8544344 C-0.177565867,6.20764995 0.119432837,2.99793856 1.26512852,0.312294984 C1.2678429,0.259351771 1.35900092,0.171890518 1.44948035,0.142270306 C1.55760325,0.107285805 1.57818733,0.205942099 1.64898747,0.310662374 C1.8168268,0.557652955 3.26653335,2.86033285 2.56169864,7.61799185 C2.42213413,8.5572091 2.00954797,15.3001219 2.19367359,16.1236571" id="path3274"></path>
                                                            </g>
                                                            <g id="g3276" transform="translate(9.487310, 3.219691)" fill="#FEE011">
                                                                <path d="M4.75016967,2.56553012 C4.74270512,2.74814922 4.78409945,2.81625237 4.80061195,2.83631016 C5.00464305,2.90464655 5.16026765,2.65135876 5.2769861,2.29684914 C5.31747565,2.04426104 5.33104755,1.82129315 5.3267498,1.62468026 C5.0397038,1.86467394 4.76532498,2.18909688 4.75016967,2.56553012 M7.79005205,16.0914713 L7.79005205,16.0620844 C7.8922938,16.0662825 7.9721419,16.1551432 7.9682965,16.2605631 C7.96422495,16.3662163 7.8780433,16.4485465 7.77580155,16.4445816 C5.98702335,16.491694 3.29526056,16.2423712 1.69762016,15.8878616 C1.61822447,16.6939045 1.37098944,17.1808887 1.08982464,17.7329442 C0.92243771,18.0610988 0.749395815,18.4006816 0.59354501,18.8510488 C0.401954833,19.4040372 0.406252606,19.8014611 0.605533535,19.9700864 C0.851411365,20.1776611 1.3936093,20.0839026 1.74580045,19.8660658 C1.80687406,19.8282826 1.87518603,19.7835024 1.94756957,19.7359235 C2.61824829,19.2955852 3.74087171,18.5585784 4.95442696,19.5283487 C5.2953082,19.8007614 5.5721752,19.9052484 5.7766587,19.8390112 C6.1539579,19.7174983 6.36454875,19.0252717 6.56857985,18.3563679 L6.581247,18.314853 C6.71312075,17.8815117 6.95809375,17.5703829 7.30847535,17.3905625 C7.77987315,17.148703 8.4263486,17.3038009 8.736693,17.4854871 C8.82581525,17.5377307 8.85680445,17.6251919 8.80636215,17.7168513 C8.7556937,17.8087439 8.6423682,17.8409296 8.553246,17.7886862 C8.35464365,17.6720711 7.86628095,17.5022796 7.4738265,17.7037904 C7.2168649,17.8353321 7.0359061,18.0993485 6.9352477,18.4296022 L6.9228068,18.4706507 C6.6900485,19.2337793 6.4498256,19.9931762 5.8877222,20.1748624 C5.55543655,20.2821482 5.17610155,20.1599357 4.72709742,19.8012279 C3.72028764,18.9965843 2.77342049,19.6179091 2.14685049,20.0293269 C2.07243117,20.0783051 2.00230962,20.1242514 1.93648584,20.1646002 C1.56800839,20.3929324 0.817029185,20.6434215 0.370513235,20.2658221 C0.0309892021,19.9791824 -0.0115361263,19.4597791 0.244068242,18.7223059 C0.408966989,18.2465167 0.596259395,17.8789462 0.76115814,17.5549896 C1.22328179,16.6484246 1.58814006,15.9324085 1.16356537,13.3988308 C0.55780564,9.7821331 0.458504472,8.351267 1.72046622,6.4970884 C1.98579712,6.10666135 2.21357906,5.79973065 2.41466958,5.52895065 C3.12877843,4.56687684 3.42441993,4.16805352 3.51128018,2.48343315 C3.57144899,1.31891571 3.92658073,0.471357851 4.46154031,0.216437449 C4.7151089,0.0953910745 4.98699956,0.125710975 5.20776935,0.299234104 C5.39302595,0.44476963 5.5251259,0.67636703 5.6063312,0.965805475 C5.63098685,0.951111985 5.6554163,0.93665172 5.67826235,0.92382407 C5.8902104,0.802544465 6.26027125,0.9380511 6.4864698,1.21979295 C6.71470415,1.50363388 7.1091944,2.33276657 5.84904225,3.89167596 C5.5452576,4.2674095 5.21116235,4.61585514 4.88769839,4.95240604 C4.52170913,5.33327065 4.17607773,5.69314455 3.87297167,6.08800295 C3.30046312,6.83387255 2.58748528,7.762128 2.79898093,10.2250369 L2.92384253,11.7146769 C3.01002418,12.7656114 3.01522675,12.8283502 3.10344418,13.1926556 C3.22174603,13.6794065 3.38777577,13.9152021 3.46807626,13.9268636 C3.50585141,13.9326944 3.60854556,13.8743869 3.75308644,13.6203994 C4.04646597,13.1042613 4.32220201,12.8724307 4.5730562,12.9312047 C4.8709597,13.0011737 4.93881927,13.4223871 4.96392731,13.7330494 C5.05372815,14.8467227 5.22450805,14.9031645 5.2317464,14.9050303 C5.2326512,14.9052635 5.33036895,14.9078291 5.5576985,14.5918024 C5.84994705,14.1845828 6.04108485,13.9375922 6.2765575,13.9840049 C6.52650695,14.0329832 6.60070005,14.3198562 6.7990762,15.08625 L6.8445421,15.261639 C6.87078115,15.3637937 6.8124219,15.4687472 6.71334695,15.4960351 C6.61449815,15.5235563 6.5127088,15.4335295 6.4862436,15.331608 L6.4403253,15.1555193 C6.35075065,14.808473 6.2652476,14.4791523 6.2021382,14.3569398 C6.1053252,14.4427684 5.92843795,14.6885929 5.855602,14.7900479 C5.6859531,15.0263099 5.42605095,15.3304418 5.13018325,15.243447 C4.82888677,15.1550529 4.67348836,14.718213 4.59386647,13.735615 C4.56717504,13.4027958 4.50791102,13.3036731 4.48845794,13.2791839 C4.43349169,13.2969093 4.27198593,13.434515 4.07315739,13.7843601 C3.99670228,13.9189338 3.76439637,14.3574062 3.41514579,14.3056291 C3.05141851,14.2519862 2.84919701,13.7211547 2.74356228,13.2852478 C2.64810649,12.8913223 2.64109434,12.804794 2.55423409,11.7468627 L2.42937249,10.258622 C2.20475733,7.6441136 3.00075004,6.60717295 3.58208033,5.8503416 C3.89807971,5.43892385 4.26700955,5.0545608 4.62395088,4.68302538 C4.94198605,4.35230523 5.27042635,4.00992357 5.56403205,3.64678444 C6.2785933,2.76260948 6.5287689,1.99295044 6.2505447,1.5348867 C6.11346835,1.30958651 5.9021989,1.25104577 5.85130425,1.26224081 C5.80357635,1.28952873 5.7461219,1.32428 5.6832387,1.36439556 C5.7137755,1.66199706 5.7011084,1.99994734 5.64229675,2.36588522 C5.5721752,2.79829367 5.1561961,3.2547248 4.73931214,3.20994463 C4.57667538,3.19268561 4.35839377,3.06394265 4.37943024,2.54943725 C4.40363349,1.95283487 4.85806638,1.48870716 5.2785695,1.1820097 C5.2154601,0.8890728 5.10168225,0.69689127 4.98292798,0.603366035 C4.87028111,0.514971865 4.74745529,0.50144452 4.61739112,0.563483705 C4.31677324,0.70692016 3.94399802,1.30072377 3.88179342,2.50372416 C3.78882581,4.30682537 3.45065897,4.76255681 2.7094063,5.76148095 C2.51057777,6.029229 2.28528401,6.3331277 2.02402468,6.71679105 C0.843042015,8.4522556 0.94302178,9.83227755 1.52932843,13.3337597 C1.68653643,14.272977 1.7383359,14.9729002 1.71956142,15.532419 C3.32466637,15.9205138 5.75358645,16.1535105 7.79005205,16.0914713" id="path3278"></path>
                                                            </g>
                                                            <g id="g3280" transform="translate(0.114545, 0.003919)" fill="#E7A908">
                                                                <path d="M10.4051336,5.36429025 C9.964725,5.4883686 9.76227725,6.17173255 9.95273645,6.89078065 C10.1434218,7.60959555 10.6546306,8.0919152 11.0950391,7.96783685 C11.5354477,7.84352525 11.7378954,7.16039455 11.5474363,6.4411132 C11.3569771,5.72253155 10.8453159,5.24021185 10.4051336,5.36429025 M8.6473446,9.153345 C6.4518614,9.8227151 7.8477327,12.6210088 8.8638166,12.341366 C7.5339953,11.0977836 8.2044478,9.65339015 8.6473446,9.153345 M6.0806696,12.8197208 C6.86399515,13.1924223 7.10127745,12.4052711 6.35912,12.1820699 C4.24235391,11.545352 4.07066921,12.6601915 4.56559165,13.1387794 C3.26675954,13.9357264 4.93655728,14.6053297 5.64772555,14.8285309 C6.35912,15.051732 6.3281308,14.3501761 5.92617595,14.2545518 C5.52399495,14.1589275 5.3695013,14.0633032 5.0292987,13.9676789 C4.85354241,13.9182341 4.81079089,13.7582383 4.87367408,13.6194665 C5.5260307,13.6593488 5.8768647,13.72442 6.24488975,13.9578832 C6.5430194,14.1467995 7.16302965,14.5733772 7.4412539,14.126975 C7.7199305,13.6805727 7.69844165,13.1581375 6.55410315,13.2220425 C5.84926845,13.2612252 5.4688025,13.1427443 4.94718861,12.8973864 C4.87774566,12.5505733 5.48712455,12.5372792 6.0806696,12.8197208 M3.59225927,14.2879037 C3.35475078,14.2424238 3.51942333,14.8161697 3.49499389,14.9673027 C3.2260438,14.9117939 2.73202616,14.9894595 2.68294107,15.1002438 C2.62231986,15.2371498 2.9288189,15.3155151 3.53706682,15.3432694 C3.48798173,15.646002 3.38777577,16.1912938 3.57212759,16.4863297 C3.11000395,16.6519231 2.58974727,16.7568766 3.00640501,17.0768681 C3.36289393,17.3504469 3.28259344,17.5193055 3.28259344,17.5193055 C3.0548115,17.7075221 2.77500388,18.107978 3.3669655,18.3594 C3.95847473,18.6112883 4.76600357,18.4757817 5.1835661,18.1327004 C5.6712502,17.7320112 6.3566318,17.2779124 6.8904604,17.3537121 C7.74820535,17.4759247 7.55525795,17.0528454 7.04110865,16.8401397 C6.4398729,16.59105 5.5459362,17.0542448 5.34529805,17.181122 C5.14511235,17.307999 4.54025741,17.6359205 4.44457542,17.3679392 C4.34866724,17.1001912 4.17766113,16.9077764 4.39209736,16.7617744 C4.8392919,16.4576425 5.56471065,16.0105406 5.97458245,15.8059978 C6.27429555,15.6562642 6.24511595,15.4405264 5.69432245,15.3036203 C5.06390705,15.1468898 4.11025396,14.9934244 4.11025396,14.9934244 C4.0410372,14.6344834 3.8374585,14.3350161 3.59225927,14.2879037 M6.00670265,20.4255846 C6.5013989,20.7761294 6.7796231,20.9993304 6.7796231,20.9993304 C7.11982575,21.2225315 7.10218225,21.1035843 7.33629775,20.9356587 C7.6097718,20.7395122 8.10514665,20.2532276 8.27592655,20.077139 C8.58514,19.7583136 8.3179995,19.5124892 8.08546735,19.8320143 C7.6577259,20.4204536 7.0628237,20.7637682 7.0628237,20.7637682 L6.77736115,20.5676217 C7.24106815,20.153172 8.29108185,19.2379774 8.7041204,18.5564793 C8.82310085,18.3603329 8.58514,18.2131648 8.41865785,18.4338003 C7.8472803,19.1910982 6.49189855,20.3469861 6.49189855,20.3469861 L6.20643595,20.1508397 C6.5466386,19.8000618 7.03907285,19.4394881 7.22930585,19.1206627 C7.41275285,18.8134988 7.27409315,18.558112 7.00853605,18.9098228 C6.68213155,19.3415315 6.25393765,19.660357 6.25393765,19.660357 C5.94472425,19.9152774 5.5120064,20.0748067 6.00670265,20.4255846 M3.80398111,6.36671285 C3.76643215,6.3751091 3.72978798,6.38817 3.69404861,6.4044961 C4.61445053,5.3367691 3.34864342,4.5829697 2.94600999,5.94736525 C2.80961226,5.22528515 2.09550342,5.4781065 2.1923164,5.97745195 C2.24683025,6.25896055 2.26379514,6.77813055 2.26379514,7.03515005 C2.26379514,7.13637185 2.12129005,7.3605059 2.3174042,7.43094135 C2.52234009,7.5044088 2.64742789,7.52260075 2.78111124,7.6240558 C2.97745159,7.75256555 3.0697406,7.5585182 3.13805256,7.5135048 C3.3986333,7.3418475 3.69042943,7.24109215 3.99421409,7.1272759 C4.77912309,6.8327064 4.26791435,6.26572425 3.80398111,6.36671285 M11.5696038,5.7733757 C12.4363966,7.93448495 11.0190364,8.4585528 10.5955927,8.1478904 C8.36889415,11.734968 9.21646015,14.5160026 9.38950205,15.8169596 C10.0389181,20.6951985 7.90066315,21.3550062 7.1585057,21.9289853 C6.2772361,21.4984427 4.14350514,19.7098017 2.93741444,18.609889 C1.73154995,17.5099763 2.10251557,17.0701044 2.19548318,16.4483133 C2.28822459,15.826522 1.91725896,15.2429806 1.68517924,14.9082955 C1.45332572,14.5733772 1.36963225,14.3487767 0.442218176,12.8659003 C-0.485648299,11.3832571 0.386347133,11.0152201 0.896651075,11.0152201 C1.40695502,11.0152201 2.36942987,11.1978392 3.23305596,11.2722396 C3.51851854,11.2964955 3.81687443,11.5826688 3.58502091,11.9294818 C3.35316739,12.2762948 3.05956166,12.4775724 2.71687085,12.4570481 C2.41444339,12.4383897 2.30428468,12.0519276 2.74876485,11.9460412 C3.131719,12.029071 3.18374467,11.4963736 2.51532794,11.7088462 C2.0507161,11.8571805 1.88672215,12.8663667 2.82997013,12.743921 C3.6963106,12.6319706 4.11319453,11.8851681 3.99421409,11.321218 C4.13332621,11.2734058 4.7770873,10.8785474 4.93972406,10.4382091 C5.22541285,9.6657513 4.81802924,9.722193 4.63639179,10.1928511 C4.20842413,11.3027928 2.79400456,10.8906754 1.91703276,10.8141759 C1.40016906,10.7689292 1.52209008,10.7010593 1.43477744,10.4125538 C1.20292392,9.64732615 1.05906164,8.8963255 1.56936558,8.75288905 C1.98195174,8.63697375 2.94193842,8.8340531 3.31313024,8.92991065 C3.68409587,9.02553495 3.63772517,9.31240785 3.26675954,9.2645957 C2.89556771,9.21678355 2.71008489,9.599514 3.26675954,9.6951383 C3.82320799,9.7907626 4.14802911,9.50365645 4.10165841,9.2645957 C4.0552877,9.02553495 4.19439982,8.8340531 4.33373813,8.7864742 C4.47262404,8.73866205 4.58368754,8.40141145 4.61196236,8.2122619 C4.70470376,7.5904707 4.19439982,7.68656145 4.24077053,8.1166376 C4.26135459,8.3069533 3.9625463,8.59499235 3.68409587,8.4515559 C3.40587166,8.3078862 2.0516209,8.16444975 1.44857555,8.26007405 C1.03123922,7.8299979 1.2845816,7.39572365 1.42369371,7.204475 C1.56280582,7.0129932 1.6297606,6.3494538 1.44857555,5.935937 C0.8455302,4.55848056 2.23506793,4.05027236 2.79830233,4.01342202 C4.78771863,3.88351291 6.3548222,4.23125885 7.77489675,4.76722141 C8.49760115,5.08464745 8.9742015,5.68078335 9.38950205,6.25173045 C9.2583069,5.65419515 8.9574628,5.1082037 8.4700049,4.7376012 C7.7871115,4.25458185 6.60296205,3.90636945 5.886365,3.72701556 C5.886365,3.72701556 5.99403555,2.85706763 6.1887925,2.2553342 C6.3570842,1.73523128 6.66765485,1.33734088 6.7981714,0.981198655 C6.9727967,0.506342355 7.08634835,-0.0102621204 7.6547853,0.153698577 C9.9606534,0.819570255 11.973142,1.86140872 13.0401205,2.53077884 C12.9473791,2.67398207 11.8478279,5.15135125 11.5696038,5.7733757" id="path3282"></path>
                                                            </g>
                                                            <g id="g3284" transform="translate(10.179070, 5.630686)" fill="#E7A908">
                                                                <path d="M0.904794225,1.86584009 C0.62521281,1.94420536 0.354226938,1.66246352 0.233210711,1.20603239 C0.112194483,0.749834485 0.187066205,0.291304283 0.466421422,0.212939 C0.746002835,0.134107256 0.992559265,0.479987361 1.11334929,0.93641849 C1.23436552,1.39261639 1.18414944,1.78700834 0.904794225,1.86584009" id="path3286"></path>
                                                            </g>
                                                            <g id="g3288" transform="translate(3.311954, 16.887182)" fill="#E7A908">
                                                                <path d="M0.904794225,0.69969003 C0.6111885,0.64907912 0.262842722,0.537595175 0.201542913,0.44943423 C0.150874436,0.375966777 0.58585426,0.166992687 0.72994274,0.102154745 C0.87403122,0.0370835716 0.889186525,0.188216618 0.95206972,0.336784135 C1.01495292,0.485351651 1.19839995,0.750300945 0.904794225,0.69969003" id="path3290"></path>
                                                            </g>
                                                            <g id="g3292" transform="translate(19.013479, 21.119398)" fill="#F57215">
                                                                <polygon id="path3294" points="1.80958844 1.16615005 0.196792744 1.16615005 1.22644857 0.0160928707 1.80958844 0.0160928707"></polygon>
                                                            </g>
                                                            <g id="g3296" transform="translate(23.592758, 10.174799)" fill="#F57215">
                                                                <path d="M2.035787,1.39938006 C1.63699895,2.09044059 1.1273736,2.95199224 0.612998085,3.81307744 L0.177339667,2.59724939 C0.72790695,1.4455596 1.19839995,0.64091607 1.60759313,0.0744003735 L2.035787,1.39938006 L2.035787,1.39938006 L2.035787,1.39938006 Z" id="path3298"></path>
                                                            </g>
                                                            <g id="g3300" transform="translate(22.614788, 12.860512)" fill="#F57215">
                                                                <path d="M0,2.56553011 C0.376620595,1.63144392 0.722930585,0.833097595 1.04277534,0.149500436 L1.46757623,1.33407566 C1.00454778,2.10746637 0.54536472,2.8684959 0.165803542,3.49355232 L0,2.56553011 L0,2.56553011 L0,2.56553011 Z" id="path3302"></path>
                                                            </g>
                                                            <g id="g3304" transform="translate(24.242991, 11.461692)" fill="#F57215">
                                                                <path d="M1.80958844,2.0990701 L0.128933177,2.6105435 C0.632224965,1.76858317 1.13121897,0.9263896 1.52684025,0.241626291 L2.76595594,0.0093292004 C2.53998358,0.738639445 2.21425766,1.43693009 1.82768433,2.09743748 C1.82180317,2.09813718 1.81569581,2.09743748 1.80958844,2.0990701" id="path3306"></path>
                                                            </g>
                                                            <g id="g3308" transform="translate(20.624424, 7.761102)" fill="#F57215">
                                                                <path d="M7.46455235,2.79876012 C6.7221687,7.70895155 1.31082063,11.4714181 0.661404575,12.1410214 L0.6421777,12.1118677 C0.628831985,11.959102 0.583592275,11.8163653 0.513244525,11.6897213 C0.72949034,11.4501941 1.05204948,11.142797 1.45242092,10.7616992 C3.50110125,8.8114298 7.3148089,5.1812047 6.8764361,0.87577869 L6.86512615,0.763828285 L6.76017005,0.793215265 C6.67692895,0.816538265 6.5927831,0.835196665 6.50366085,0.85455476 C5.34642905,1.11040808 3.90758005,1.43039965 0.3601081,11.4802808 C0.296546307,11.4133438 0.22393657,11.3555027 0.144767076,11.3081571 C0.339071635,10.5317344 0.53699537,9.8101207 0.73740729,9.13678565 C1.2049597,7.9589741 1.56574641,6.90080955 1.83967285,5.95109695 C4.36540593,-0.268914202 6.9535698,0.0307863614 7.55751995,0.0569081225 C7.37158475,0.503077135 7.6235699,1.74735924 7.46455235,2.79876012" id="path3310"></path>
                                                            </g>
                                                            <g id="g3312" transform="translate(21.272320, 15.583403)" fill="#F57215">
                                                                <path d="M0.678595665,2.79876012 C0.469135804,2.99840501 0.283426791,3.17565982 0.121016228,3.33565561 C0.0563234405,3.39139758 0.0298582094,3.34661742 0.0409419386,3.29110867 C0.460314061,2.11562942 0.85005417,1.08078787 1.21219806,0.168858527 L1.3626201,1.01058564 C0.971975195,1.65336755 0.689227,2.11283067 0.616617265,2.2250143 C0.588116245,2.26886154 0.59987857,2.3283352 0.6424039,2.35772218 C0.684929225,2.38687593 0.74238366,2.37521442 0.771110875,2.33113395 C0.815445795,2.26209787 1.09231283,1.81149749 1.48883889,1.15938638 L2.59585462,0.88044329 C1.90753242,1.62841193 1.22871055,2.27492552 0.678595665,2.79876012" id="path3314"></path>
                                                            </g>
                                                            <g id="g3316" transform="translate(22.902287, 13.711499)" fill="#F57215">
                                                                <path d="M0,2.79876012 C0.381596963,2.17043848 0.85028037,1.39494869 1.32348775,0.604765415 L3.02540568,0.086994794 C2.48456493,0.966271935 1.84283964,1.77488038 1.19749515,2.49696049 L0,2.79876012 L0,2.79876012 L0,2.79876012 Z" id="path3318"></path>
                                                            </g>
                                                            <g id="g3320" transform="translate(25.131019, 8.569804)" fill="#F57215">
                                                                <path d="M2.035787,0.233230011 C2.09007466,0.22133528 2.14119553,0.20780794 2.1932212,0.195446749 C2.26650953,1.05839778 2.16404159,1.89499384 1.93897402,2.69543923 L0.76432492,2.91584159 C1.07964571,2.36588522 1.31308261,1.94280598 1.40310964,1.74339433 C1.42459851,1.69581541 1.40469303,1.63890729 1.35832233,1.61628397 C1.31172543,1.59412712 1.25653298,1.61488459 1.23481792,1.66269675 C1.14954106,1.85137982 0.926509285,2.25650035 0.62295082,2.78663216 L0.205840686,1.49617051 C1.00025002,0.464360951 1.55805565,0.338883205 2.035787,0.233230011" id="path3322"></path>
                                                            </g>
                                                            <g id="g3324" transform="translate(18.275190, 8.361366)" fill="#007F55">
                                                                <path d="M0,0.93292004 C0.303784661,0.61572723 0.87222163,0.21387192 1.18641142,0.0286872913 C1.15745801,0.485584881 1.10882532,0.969070695 1.03259641,1.48240994 C1.00432159,1.67272563 0.96451064,2.07224865 0.92062812,2.59678293 C0.70189412,2.73415541 0.32097575,3.00983329 0.073740729,3.24213037 C0.0334773862,2.44168498 0.00904794225,1.65290109 0,0.93292004" id="path3326"></path>
                                                            </g>
                                                            <g id="g3328" transform="translate(18.046596, 5.755254)" fill="#007F55">
                                                                <path d="M0.226198556,3.26522014 C0.2191864,2.30361282 0.242032454,1.48730778 0.294284321,0.960907645 C0.556448445,0.68989437 0.97582057,0.420513709 1.37121564,0.23136417 C1.43998001,0.86411719 1.46915962,1.5885296 1.42889628,2.40903278 C1.20156673,2.54990371 0.56255581,2.95549069 0.226198556,3.26522014" id="path3330"></path>
                                                            </g>
                                                            <g id="g3332" transform="translate(16.542805, 1.866122)" fill="#007F55">
                                                                <path d="M2.035787,0.69969003 C1.96498686,0.594969755 1.94440279,0.496313462 1.83627988,0.531297965 C1.74580045,0.560684945 1.65464243,0.64837943 1.65192805,0.70108941 C0.506458565,3.38673298 0.209233664,6.5966776 0.77043228,10.2432288 C1.08959845,12.3168768 1.75711038,14.4070842 2.58069932,16.5126847 C2.3963475,15.6891495 2.80915986,8.94623675 2.94849817,8.00678625 C3.65333287,3.2493605 2.20362633,0.94644738 2.035787,0.69969003 M2.94940297,16.9838094 C2.99509508,17.1361085 3.02970345,17.2454935 3.05662109,17.3240919 C2.98468994,17.3896296 2.92203295,17.4658958 2.87045967,17.5503251 C1.69988214,15.9046541 -1.69467958,5.8932559 1.60600974,0.313927594 C1.73064515,0.071601613 1.98082076,0.0410484818 2.09505103,0.187750158 C2.6944772,0.776655935 3.83994668,3.81401036 3.4133362,6.27062205 C2.9604867,8.8760345 2.70194175,16.1546766 2.94940297,16.9838094" id="path3334"></path>
                                                            </g>
                                                            <g id="g3336" transform="translate(18.269811, 11.215215)" fill="#007F55">
                                                                <path d="M0.904794225,0 C0.81725538,1.09174968 0.719311405,2.60774475 0.666154745,3.93925488 C0.633808355,4.27370671 0.449230332,4.37726084 0.384311346,4.042809 C0.252889986,3.01683018 0.155624607,1.8177947 0.091610415,0.63135364 C0.326856913,0.400689158 0.68719121,0.133174336 0.904794225,0" id="path3338"></path>
                                                            </g>
                                                            <g id="g3340" transform="translate(17.147072, 6.115783)" fill="#007F55">
                                                                <path d="M0.904794225,3.03199014 L0.0787170975,2.44938157 C0.0827886715,1.65360077 0.135492935,0.88534112 0.237734682,0.144835837 C0.412359967,0.240460141 0.79395693,0.45992958 0.998214225,0.65794186 C0.93171185,1.24288273 0.900948845,2.0757471 0.904794225,3.03199014" id="path3342"></path>
                                                            </g>
                                                            <g id="g3344" transform="translate(17.416251, 4.647386)" fill="#007F55">
                                                                <path d="M0,1.39938006 C0.0592640215,1.00755364 0.132552353,0.62389028 0.219638798,0.248156731 C0.37277522,0.062738873 0.584949465,-0.0200577809 0.869959645,0.568148305 L0.93193805,0.759396915 C1.11764707,0.403954378 1.57637773,-0.124311595 1.80054051,0.115215625 C1.86862627,0.418414638 1.92969988,0.755198775 1.97697538,1.12650095 C1.79782612,1.2263234 1.07150256,1.64007343 0.82200555,1.913419 C0.62792719,1.75622198 0.187292404,1.50433357 0,1.39938006" id="path3346"></path>
                                                            </g>
                                                            <g id="g3348" transform="translate(17.247527, 11.359771)" fill="#007F55">
                                                                <path d="M0.904794225,0.69969003 C0.973332385,1.79540462 1.07625273,2.89928226 1.21332905,3.88164707 C1.24590165,4.16572121 1.03078682,4.13306902 0.96609403,3.8655542 C0.654166225,2.84260737 0.425479483,1.86490716 0.24904461,0.71951458 C0.21307904,0.484885191 0.180732646,0.251888412 0.151779231,0.021223931 C0.332285679,0.160695477 0.79373073,0.526866595 0.904794225,0.69969003" id="path3350"></path>
                                                            </g>
                                                            <g id="g3352" transform="translate(17.003820, 8.735072)" fill="#007F55">
                                                                <path d="M1.13099278,3.03199014 C0.950260135,2.82208312 0.528399825,2.51561889 0.368251249,2.40226911 C0.27415265,1.58573084 0.22393657,0.792049115 0.220317394,0.0242559211 C0.442896772,0.180753258 0.8613641,0.480453821 1.0495613,0.6528108 C1.05679965,1.39774745 1.08416968,2.20915466 1.13099278,3.03199014" id="path3354"></path>
                                                            </g>
                                                            <g id="g3356" transform="translate(19.360606, 18.994882)" fill="#007F55">
                                                                <path d="M0.904794225,0.466460021 C0.634713145,0.466460021 0.415526747,0.69222667 0.415526747,0.970936535 C0.415526747,1.2496464 0.634713145,1.47541305 0.904794225,1.47541305 C1.1748753,1.47541305 1.3940617,1.2496464 1.3940617,0.970936535 C1.3940617,0.69222667 1.1748753,0.466460021 0.904794225,0.466460021 M0.904794225,1.75925397 C0.482707718,1.75925397 0.140243104,1.40614373 0.140243104,0.970936535 C0.140243104,0.535729335 0.482707718,0.182852328 0.904794225,0.182852328 C1.32688073,0.182852328 1.66911915,0.535729335 1.66911915,0.970936535 C1.66911915,1.40614373 1.32688073,1.75925397 0.904794225,1.75925397" id="path3358"></path>
                                                            </g>
                                                            <g id="g3360" transform="translate(21.186840, 19.927522)" fill="#007F55">
                                                                <path d="M1.13099278,1.63261008 C0.77359906,1.47797858 0.377072992,1.18970628 0.138885913,0.8610852 L0.377072992,0.165826538 L1.46079027,0.427277379 L1.13099278,1.63261008 L1.13099278,1.63261008 L1.13099278,1.63261008 Z" id="path3362"></path>
                                                            </g>
                                                            <g id="g3364" transform="translate(13.300814, 9.137016)" fill="#007F55">
                                                                <path d="M3.16677978,3.96491018 C2.96546307,3.06487556 2.82544616,2.31317525 2.76799173,1.90665533 C2.76731313,1.90152427 2.76640834,1.89569353 2.76572974,1.89056246 C2.73519294,1.86584008 2.69266761,1.82642421 2.63340359,1.76834994 C2.56147245,1.6981477 2.46465947,1.59972464 2.32848794,1.46071955 C1.95277213,1.07752265 1.45151613,0.567448615 1.12081385,0.319758344 C0.94098599,0.66330615 0.321428148,1.8674727 0.227555747,2.3089771 C0.261033134,2.40460141 0.296772505,2.50069217 0.334095267,2.59701616 C0.364632072,2.67631437 0.39629987,2.75561258 0.429324859,2.83514401 C0.69058419,3.46743056 1.02467946,4.10927956 1.39654989,4.73806766 C1.46644524,4.85584882 1.53724539,4.97339675 1.60940273,5.09001175 C2.68588165,6.82990765 4.01208379,8.4312649 4.85128043,9.3833098 C4.20684074,8.0520329 3.62686765,5.9608926 3.23825853,4.27837131 C3.21382908,4.17225166 3.18985204,4.06753138 3.16677978,3.96491018 M0.0429777256,2.34792652 L0.0346083791,2.32343737 L0.0393585487,2.2980153 C0.133683347,1.77861206 0.971975195,0.200344579 1.00771457,0.133174336 L1.05566866,0.043147552 L1.13936213,0.0988895245 C1.48024335,0.326522015 2.04596594,0.90353306 2.4587783,1.32474646 C2.65263047,1.52229228 2.85258999,1.72660177 2.89511532,1.75272353 L2.93334287,1.77651299 C2.93764065,1.77884529 2.94352181,1.82455837 2.94352181,1.82455837 C3.10683717,3.06954017 4.30863009,8.6444371 5.4846364,10.2922072 C4.63096303,9.41199705 1.14727908,5.53548105 0.0429777256,2.34792652" id="path3366"></path>
                                                            </g>
                                                            <g id="g3368" transform="translate(9.935296, 5.167630)" fill="#E32739">
                                                                <path d="M1.35719133,1.39938006 C1.23617511,0.94294893 0.98984488,0.597302055 0.710263465,0.67590057 C0.43068205,0.754499085 0.356036526,1.21302928 0.477052754,1.66899395 C0.59806898,2.12565831 0.868828655,2.40740017 1.14863626,2.32880165 C1.42799148,2.24996991 1.47798136,1.85581119 1.35719133,1.39938006 M1.27440266,2.80412441 C0.833994075,2.92820278 0.322559141,2.44588312 0.132099957,1.72706823 C-0.0583592275,1.0080201 0.14408848,0.324656175 0.58449707,0.200577809 C1.02467945,0.0764994435 1.53611439,0.558819105 1.72679977,1.27740077 C1.91725896,1.99644889 1.71481125,2.67981282 1.27440266,2.80412441" id="path3370"></path>
                                                            </g>
                                                            <g id="g3372" transform="translate(4.159542, 11.890812)" fill="#E32739">
                                                                <path d="M2.035787,0.93292004 C1.44224199,0.6504785 0.832636885,0.66353938 0.90207984,1.01058563 C0.926735485,1.13349785 1.03598939,1.29792501 1.26264034,1.50666586 C1.03847757,1.49150592 0.887376935,1.60298986 0.82856531,1.73266575 C0.76590831,1.8714376 0.808659835,2.03120016 0.984416115,2.08087816 C1.32439255,2.17650245 1.47911236,2.27212676 1.88129339,2.36775107 C2.28302203,2.46337537 2.31401122,3.16493124 1.60284296,2.94173012 C0.891674705,2.71829577 -0.77834923,2.04892564 0.520482875,1.25174546 C0.0257866353,0.773390715 0.197471339,-0.341448735 2.31401122,0.295269193 C3.05616868,0.518470315 2.8188864,1.3056216 2.035787,0.93292004" id="path3374"></path>
                                                            </g>
                                                            <g id="g3376" transform="translate(13.553433, 11.854662)" fill="#E32739">
                                                                <path d="M2.26198555,2.56553012 L1.14411229,2.02023835 C0.77201567,1.39168347 0.438146602,0.749601255 0.176661072,0.117547925 C0.466873819,0.22296789 1.24590164,0.517070935 1.60420015,0.761962445 C1.80370728,1.34783623 2.02900104,1.97335912 2.26198555,2.56553012" id="path3378"></path>
                                                            </g>
                                                            <g id="g3380" transform="translate(14.747716, 13.309107)" fill="#E32739">
                                                                <path d="M2.26198555,3.49845016 C2.3488458,3.46090013 2.24185388,3.16679708 2.17060134,3.05624605 C1.93286666,2.68890879 1.60646215,1.93650878 1.27304547,1.07565681 C1.34407182,0.792515575 1.6602974,0.302032864 1.79126637,0.106119655 C2.18010168,1.78887418 2.76007478,3.87978122 3.40451446,5.2110581 C2.56531782,4.25924645 1.23888949,2.6578892 0.162636762,0.91799332 L1.18595903,1.40614373 C1.55534127,2.31410816 1.93671203,3.10755666 2.26198555,3.49845016" id="path3382"></path>
                                                            </g>
                                                            <g id="g3384" transform="translate(12.851449, 8.629300)" fill="#E32739">
                                                                <path d="M3.39297833,2.33230011 C3.39297833,2.33230011 3.38709718,2.28658702 3.3827994,2.28425472 L3.34434565,2.26046526 C3.30204651,2.2343435 3.10186079,2.03003401 2.90823483,1.83248819 C2.49519627,1.4112748 1.92969988,0.834030515 1.58881865,0.606631255 L1.50512519,0.550889285 L1.4571711,0.64091607 C1.42143172,0.70785308 0.583139875,2.28635379 0.48858888,2.8055238 L0.484064909,2.8311791 L0.492434256,2.85543502 C1.5965094,6.0432228 5.08041955,9.9197388 5.9340929,10.7999488 C4.75786042,9.1519456 3.55629369,3.57704867 3.39297833,2.33230011 M6.4093361,11.3617999 C6.3548222,11.3692633 6.27316455,11.340576 6.14604095,11.2386545 C5.86781675,11.0152201 2.46104029,8.28806165 0.332511877,3.26965152 C0.104729931,2.7325228 0.085050657,2.95082609 0.301522675,2.34489452 C0.51822089,1.73919619 1.10565854,0.68709561 1.26015216,0.43194198 C1.41487196,0.177021578 1.39112112,0.0785985135 1.60759313,0.23836107 C2.3805136,0.9077312 2.99848806,1.58479792 3.24594928,1.77627976 C3.51535176,1.98432093 3.72096624,2.30174697 3.74109792,2.65648982 C3.78113506,3.35804569 5.12543305,9.61467395 6.4552544,10.9858332 C6.45887355,10.9895649 6.46136175,10.9928301 6.4647547,10.9963285 C6.42856295,11.1029147 6.4079789,11.2169641 6.4079789,11.3363779 C6.4079789,11.3450074 6.4091099,11.3534037 6.4093361,11.3617999" id="path3386"></path>
                                                            </g>
                                                            <g id="g3388" transform="translate(15.326988, 10.847504)" fill="#E32739">
                                                                <path d="M0,1.63261008 C0.130290368,1.18154323 0.438146602,0.527799515 0.741705065,0.196146439 C0.799159495,0.602666345 0.939176405,1.35436667 1.14049312,2.25440128 C1.01088135,2.46220922 0.69872734,2.97368263 0.58608046,3.25612418 C0.384085148,2.72342683 0.182768433,2.1620422 0,1.63261008" id="path3390"></path>
                                                            </g>
                                                            <g id="g3392" transform="translate(13.367224, 9.431658)" fill="#E32739">
                                                                <path d="M2.26198555,1.16615005 C2.39815709,1.30515514 2.49497007,1.40334497 2.56712741,1.47378044 C2.28189103,1.78537573 1.98036836,2.28985225 1.83763707,2.6905414 C1.54312655,1.82082669 1.31466601,1.08381986 1.24115147,0.781087305 C1.22871055,0.730009935 1.17849447,0.69899034 1.1287308,0.71181799 C1.07896711,0.72441241 1.04865651,0.776422705 1.06109743,0.827500075 C1.13755253,1.14212736 1.3789064,1.95726625 1.70056074,2.91817389 C1.34565521,2.6765476 0.57002036,2.40390172 0.26781909,2.30244667 C0.230496328,2.20588944 0.194756956,2.10979867 0.161053371,2.01417437 C0.255151971,1.57290319 0.874709815,0.368736646 1.05431147,0.0251888411 C1.38501375,0.272879112 1.88649596,0.782953145 2.26198555,1.16615005" id="path3394"></path>
                                                            </g>
                                                            <g id="g3396" transform="translate(19.586804, 19.304122)" fill="#E32739">
                                                                <path d="M0.678595665,1.16615005 C0.408514592,1.16615005 0.189328191,0.9403834 0.189328191,0.66167354 C0.189328191,0.382963677 0.408514592,0.157197027 0.678595665,0.157197027 C0.948676745,0.157197027 1.16786315,0.382963677 1.16786315,0.66167354 C1.16786315,0.9403834 0.948676745,1.16615005 0.678595665,1.16615005" id="path3398"></path>
                                                            </g>
                                                            <g id="g3400" transform="translate(2.072929, 5.498488)" fill="#E32739">
                                                                <path d="M2.035787,1.63261007 C1.73200234,1.74665955 1.44020621,1.84718169 1.17962547,2.0190722 C1.11131351,2.06385236 1.0190245,2.25813296 0.822910345,2.12962323 C0.6890008,2.02793494 0.563913,2.009743 0.358977108,1.93627554 C0.163089159,1.86584009 0.30536805,1.64193927 0.30536805,1.54048422 C0.30536805,1.28346475 0.288403159,0.764294745 0.233889307,0.483019352 C0.137076325,-0.0165593308 0.851185165,-0.269147432 0.987582895,0.452932681 C1.0020596,0.528499205 1.00997655,0.61479431 1.00997655,0.71275091 C1.00997655,0.93595203 0.903210835,1.45768757 0.903210835,1.45768757 C0.88511495,1.53138825 0.95206972,1.5442159 1.00092861,1.52252551 C1.18505424,1.43996208 1.42776529,1.04743597 1.73562152,0.90983027 C1.77158709,0.8937374 1.80800506,0.88044329 1.84555402,0.87228024 C2.30948726,0.771291645 2.82069599,1.33804057 2.035787,1.63261007" id="path3402"></path>
                                                            </g>
                                                            <g id="g3404" transform="translate(19.737880, 5.471436)" fill="#1C418C">
                                                                <path d="M2.48818412,2.56553012 C2.38413278,2.76424208 2.23823471,3.44737279 2.07175257,4.38425774 L3.30860627,3.69343045 C3.31878521,2.98907582 3.2583902,2.41579645 3.16858937,1.94840351 L2.48818412,2.56553012 L2.48818412,2.56553012 L2.48818412,2.56553012 Z M2.73881211,0.549956365 L2.72999037,0.528265975 C2.4746122,0.86854856 2.24728265,1.23471968 2.04279915,1.62048212 L2.43887283,2.3556231 L3.12357586,1.73429836 C3.00391682,1.20346686 2.850328,0.824234855 2.73881211,0.549956365 L2.73881211,0.549956365 L2.73881211,0.549956365 Z M1.24884222,3.56865239 L1.88423397,4.38122575 C2.04913271,3.45250384 2.19593558,2.76424208 2.30880866,2.50815553 L1.94010502,1.82385868 C1.66527377,2.37404827 1.43794422,2.96132144 1.24884222,3.56865239 L1.24884222,3.56865239 L1.24884222,3.56865239 Z M0.760253345,5.60754915 L1.54742432,6.4194228 C1.64853508,5.77477505 1.74693145,5.1681438 1.84035145,4.63008216 L1.18188746,3.78812183 C1.00748836,4.38192543 0.86950725,4.99298806 0.760253345,5.60754915 L0.760253345,5.60754915 L0.760253345,5.60754915 Z M0.50736336,7.51257185 L1.26716431,8.2418821 C1.34904819,7.70195465 1.43093206,7.166925 1.51123255,6.6524196 L0.7204424,5.8372807 C0.62770099,6.3981989 0.558031835,6.9602832 0.50736336,7.51257185 L0.50736336,7.51257185 L0.50736336,7.51257185 Z M0.422765101,12.0108791 C0.439051397,12.2951864 0.64557068,12.2830585 0.67791707,12.0824807 C0.819743565,11.2055359 0.97876115,10.1529688 1.14252891,9.0677496 C1.17261331,8.8688044 1.20269772,8.6691595 1.23278213,8.46998105 L0.486779292,7.75396495 C0.354679336,9.3616194 0.375037206,10.8722501 0.422765101,12.0108791 L0.422765101,12.0108791 L0.422765101,12.0108791 Z M1.09389622,12.2212526 C1.82406515,10.4864878 2.33120232,8.9987135 2.67457172,7.72061305 L1.4250509,8.4424599 C1.39179972,8.66192935 1.35832232,8.8806991 1.32574974,9.09713655 C1.16198198,10.1821226 1.0029644,11.235156 0.8611379,12.1139667 C0.812279015,12.3478964 0.996630835,12.4554155 1.09389622,12.2212526 L1.09389622,12.2212526 L1.09389622,12.2212526 Z M2.74243129,7.4621942 C2.89217474,6.87981885 3.007536,6.3424569 3.09349145,5.84684315 L1.69490578,6.67854135 C1.61731968,7.1764874 1.53882878,7.6900599 1.46124267,8.202233 L2.74243129,7.4621942 L2.74243129,7.4621942 L2.74243129,7.4621942 Z M3.30340371,3.9138328 L2.02945344,4.62541756 C1.93490245,5.1697764 1.83514889,5.78573685 1.73290714,6.434816 L3.13398099,5.6017184 C3.23396075,4.97199737 3.28621262,4.41154565 3.30340371,3.9138328 L3.30340371,3.9138328 L3.30340371,3.9138328 Z M3.04440636,7.0255876 C2.95460553,7.40971745 2.84897081,7.81413825 2.72637119,8.24071595 C2.45244474,9.19042855 2.09143184,10.2485931 1.62387943,11.4266379 C1.36623928,12.0752505 1.07647893,12.7600138 0.75052681,13.4839598 C0.678821865,13.4671672 0.60417634,13.4573716 0.52749503,13.4573716 C0.455563891,13.4573716 0.385216141,13.4655347 0.317582772,13.4802282 C0.314642191,13.429384 0.311249212,13.376674 0.307856234,13.3206988 C0.165124945,11.0250158 -0.26940248,4.0381444 2.68181008,0.277310483 L2.78020645,0.152299197 C2.78043265,0.153232117 2.83992287,0.302032864 2.83992287,0.302032864 L2.90981822,0.475789222 C3.24775887,1.30655452 3.96842746,3.07863614 3.04440636,7.0255876 L3.04440636,7.0255876 L3.04440636,7.0255876 Z" id="path3406"></path>
                                                            </g>
                                                        </g>
                                                    </g>
                                                </g>
                                            </g>
                                        </g>
                                    </g>
                                    <g id="g3412" transform="translate(0.473598, 0.035573)">
                                        <g id="g3414-Clipped">
                                            <g>
                                                <mask id="mask-4" fill="white">
                                                    <use xlink:href="#path-3"></use>
                                                </mask>
                                                <g id="path-3"></g>
                                                <g id="g3414" mask="url(#mask-4)">
                                                    <g transform="translate(0.000000, -0.500000)" id="g3424">
                                                        <g transform="translate(0.000000, 0.266770)">
                                                            <g id="Group" transform="translate(0.070483, 0.184879)" fill="#000000">
                                                                <path d="M22.8460541,14.2270307 C22.9688799,13.800453 23.0742884,13.3957989 23.1640893,13.0116691 C23.4558854,12.3257396 23.8671144,11.5222622 24.216365,10.987699 C24.5018275,8.89049475 24.205055,6.4201225 22.5951999,4.88896748 C22.5024585,5.52685155 22.1005037,6.1964549 21.8222794,6.73824825 C21.5352335,7.2975338 20.7709086,8.5558097 20.7091563,8.71533905 C20.6781671,9.48033345 20.3379645,11.3298475 20.2142339,12.7646785 C20.0905033,14.1995095 20.0905033,18.9501716 20.1834709,19.4285264 L20.3705371,19.4842683 C20.3927046,19.4777379 20.414872,19.4714407 20.4374919,19.4665428 C20.5048991,19.4516161 20.5752468,19.4434531 20.6474041,19.4434531 C20.7240855,19.4434531 20.7985048,19.4532487 20.8702097,19.4702745 C20.9706419,19.4935975 21.0647405,19.5323137 21.1511483,19.5840908 C21.2303178,19.6314365 21.3029276,19.6892775 21.3662632,19.7562145 C21.4255272,19.8187202 21.4771004,19.8893889 21.5196258,19.9656551 C21.5897473,20.092299 21.6352132,20.2350357 21.6483328,20.3878014 L21.6675596,20.4169551 C22.3172019,19.7473518 27.7285499,15.9848853 28.4709336,11.0746938 C28.6299512,10.0230597 28.377966,8.7790108 28.563675,8.3328418 C27.9599511,8.30672005 25.3717872,8.0070195 22.8460541,14.2270307 L22.8460541,14.2270307 L22.8460541,14.2270307 Z M19.0196793,2.56879534 C18.9056753,2.42186043 18.6552735,2.45241356 18.5306381,2.69497277 C15.2301749,8.2743011 18.6245105,18.2856993 19.7953142,19.931137 C19.8466613,19.8467078 19.9093183,19.7706748 19.9812494,19.7049039 C19.9543318,19.6265386 19.9197234,19.5169205 19.8742575,19.3646213 C19.6265701,18.5354886 19.8853412,11.2570797 20.3379645,8.651434 C20.7648012,6.1948223 19.6193317,3.15746788 19.0196793,2.56879534 L19.0196793,2.56879534 L19.0196793,2.56879534 Z M16.4792434,10.9202956 C16.2317821,10.729047 15.6140339,10.0519802 14.8408872,9.3826101 C14.6244152,9.2226143 14.648166,9.32103735 14.4936724,9.57595775 C14.3389526,9.83134465 13.751515,10.883212 13.535043,11.4889103 C13.3185709,12.0950751 13.3382502,11.8767718 13.565806,12.4139005 C15.6943344,17.4320775 19.1011108,20.159236 19.379335,20.3826703 C19.5064586,20.4845918 19.5881163,20.5132791 19.6426302,20.506049 C19.642404,20.4976527 19.641273,20.4892564 19.641273,20.4806269 C19.641273,20.3612132 19.661857,20.2471637 19.6980488,20.1403443 C19.6946558,20.1370791 19.6921676,20.1335806 19.6887747,20.129849 C18.3589534,18.7586898 17.0146553,12.5022947 16.974392,11.8005056 C16.9542603,11.445996 16.7486458,11.1285699 16.4792434,10.9202956 L16.4792434,10.9202956 L16.4792434,10.9202956 Z M16.3557389,4.95427188 C16.1295404,4.67253003 15.7592534,4.5370234 15.5475315,4.658303 C15.5246855,4.67113065 15.500256,4.68582414 15.4756004,4.70051763 C15.3943951,4.41084596 15.2622951,4.17924856 15.0770385,4.03371303 C14.8562687,3.86018991 14.5843781,3.82987 14.3308095,3.95091638 C13.7958499,4.20583678 13.440492,5.05339465 13.3805494,6.2179121 C13.2934629,7.90276565 12.9980476,8.30135575 12.2839388,9.26342955 C12.0828482,9.5342096 11.8550663,9.8413735 11.5897354,10.2315674 C10.3277736,12.0857459 10.4270748,13.5168453 11.0328346,17.1335431 C11.457183,19.6668874 11.0925509,20.3829036 10.6304273,21.2897018 C10.4653024,21.6136583 10.2782361,21.9809956 10.1131112,22.4567848 C9.85773305,23.1942581 9.9002584,23.7136613 10.2395562,24.000301 C10.6860721,24.3779004 11.4372775,24.1274114 11.805755,23.8990792 C11.8715788,23.8587304 11.9417003,23.8127841 12.0161197,23.7638058 C12.6424635,23.3526213 13.5893307,22.7310633 14.5961404,23.5357068 C15.0451445,23.8944146 15.4247057,24.0166271 15.7567652,23.9093413 C16.3188686,23.7276551 16.5593176,22.9682582 16.7918498,22.2051296 L16.8045169,22.1640811 C16.904949,21.8338275 17.0861341,21.5700443 17.3430956,21.4382694 C17.7355502,21.2367586 18.2236866,21.4065501 18.4225151,21.5231651 C18.5116374,21.5756418 18.6249629,21.5432229 18.6756313,21.4515635 C18.7260736,21.3596708 18.6950844,21.2722096 18.6059622,21.2199661 C18.2956178,21.0382799 17.6491423,20.8831819 17.1777445,21.1250415 C16.8271368,21.3048618 16.5823899,21.6159906 16.4502899,22.049332 L16.437849,22.0908469 C16.2338179,22.7599838 16.0232271,23.4519773 15.6459279,23.5734901 C15.4412182,23.6397274 15.1645773,23.5352404 14.8236961,23.2628277 C13.6101409,22.2930573 12.4875175,23.0300642 11.8168388,23.4704024 C11.7444552,23.5179814 11.6761433,23.5627615 11.6148435,23.6005448 C11.2628785,23.8183816 10.7206806,23.9123733 10.4748027,23.7045654 C10.2752956,23.5359401 10.271224,23.1385161 10.462588,22.5855278 C10.618665,22.1351606 10.7917069,21.795811 10.9588677,21.4674231 C11.2400324,20.9153677 11.4872674,20.4283834 11.5666632,19.6223405 C13.1645297,19.9770833 15.8560663,20.2264062 17.6448445,20.1790605 C17.7473125,20.1830254 17.8334941,20.1006952 17.8373395,19.9950421 C17.8414111,19.8896221 17.761563,19.8007615 17.659095,19.7965633 L17.659095,19.8259503 C15.6228556,19.8882227 13.1939356,19.6549927 11.5886044,19.266898 C11.6076051,18.7073792 11.5558056,18.0074559 11.3983714,17.0682386 C10.8120647,13.5667565 10.7123112,12.1867345 11.8930677,10.45127 C12.154327,10.0676067 12.3798469,9.76370795 12.5786755,9.4959599 C13.3199281,8.49726895 13.658095,8.0413043 13.7510626,6.2382031 C13.813041,5.0352027 14.1860424,4.44163232 14.4864341,4.29796263 C14.6164982,4.23592345 14.7393241,4.24945079 14.8519709,4.3380782 C14.9709514,4.4313702 15.0847293,4.62378496 15.1476125,4.91648862 C14.7271093,5.2234193 14.2726764,5.6873138 14.2486994,6.28391615 C14.2276629,6.79842155 14.4457183,6.92716455 14.6085813,6.94442355 C15.0254652,6.9892037 15.4414444,6.5327726 15.5115659,6.10036415 C15.5703776,5.73442625 15.5830447,5.396476 15.5522817,5.0988745 C15.6153911,5.05875895 15.6728455,5.0242409 15.7205734,4.99695298 C15.7714681,4.98552471 15.9827375,5.04406545 16.1195877,5.26959885 C16.3978119,5.72742935 16.1478625,6.4970884 15.433075,7.38126335 C15.1394693,7.7444025 14.811029,8.08678415 14.4929938,8.4175043 C14.1362787,8.7890397 13.7673489,9.17340275 13.4513495,9.5848205 C12.8700192,10.3416519 12.0740265,11.3785925 12.2986417,13.993101 L12.4235033,15.4813417 C12.5101373,16.539273 12.5171495,16.6258013 12.6128314,17.0197268 C12.7184662,17.4556337 12.9206877,17.9864652 13.284415,18.0401081 C13.6334393,18.0918852 13.8659714,17.6534127 13.9422004,17.5190723 C14.1412551,17.168994 14.3027609,17.0313883 14.3577271,17.0136628 C14.3771802,17.038152 14.4364442,17.137508 14.4631356,17.470094 C14.5425314,18.452692 14.6979298,18.8895318 14.9994524,18.9781592 C15.2953201,19.0649208 15.5552223,18.7607888 15.7248712,18.5245268 C15.7977071,18.4230718 15.9743682,18.1772473 16.0714074,18.0914187 C16.1345168,18.2136312 16.2200198,18.542952 16.3095944,18.8899983 L16.3552865,19.0660869 C16.3817518,19.1680084 16.4837674,19.2580352 16.5826161,19.2307473 C16.6814649,19.2032262 16.7400503,19.0982727 16.7138113,18.9961179 L16.6681191,18.8207289 C16.4699692,18.0543351 16.3957761,17.7676955 16.1456005,17.7184839 C15.910354,17.6720711 15.71899,17.919295 15.4269677,18.3262813 C15.1996381,18.642308 15.1016942,18.6397425 15.1010156,18.6395092 C15.0937772,18.6378766 14.9229973,18.5812017 14.8329703,17.4675284 C14.8080884,17.1568661 14.7402289,16.7356527 14.4423254,16.6656837 C14.1914712,16.6069097 13.9155089,16.8387403 13.6221294,17.3548783 C13.4778148,17.6088658 13.3751206,17.6671733 13.3371193,17.6615758 C13.2570449,17.6496811 13.090789,17.4138855 12.9727133,16.9271345 C12.8844959,16.5628292 12.8792933,16.5000903 12.7931117,15.4491559 L12.6682501,13.9595158 C12.4565282,11.4966069 13.1695061,10.5683515 13.7422408,9.8224819 C14.0453469,9.4276235 14.3909783,9.0677496 14.7569676,8.68688495 C15.0804315,8.35033405 15.4145268,8.00188845 15.7183114,7.6261549 C16.9782374,6.0672455 16.5837471,5.2381128 16.3557389,4.95427188 L16.3557389,4.95427188 L16.3557389,4.95427188 Z M8.15129115,0.67240212 C7.5828542,0.508441425 7.4693025,1.02504589 7.2946772,1.50013542 C7.16393445,1.85604442 6.85359005,2.25393482 6.6852983,2.77403775 C6.49054135,3.3760044 6.38287085,4.24571911 6.38287085,4.24571911 C7.09946785,4.42507299 8.2833911,4.77328539 8.96628455,5.25630475 C9.45396865,5.62690725 9.7545865,6.1728987 9.8860079,6.77043395 C9.47048115,6.1994869 8.99410695,5.603351 8.2714026,5.28592495 C6.85132805,4.7499624 5.28422445,4.40221644 3.29480817,4.53212557 C2.73157376,4.56897591 1.34203603,5.0771841 1.94508138,6.45464055 C2.12604022,6.86815735 2.05931165,7.53169675 1.91997334,7.72317855 C1.78086123,7.91442715 1.52774505,8.34870145 1.94508138,8.7790108 C2.54812673,8.6833865 3.90237749,8.82658975 4.1806017,8.97025945 C4.45905213,9.1136959 4.75786042,8.82565685 4.73727635,8.63534115 C4.69090565,8.205265 5.2012096,8.10917425 5.108242,8.73119865 C5.07996715,8.920115 4.96912987,9.25736555 4.83024396,9.30517775 C4.69090565,9.35275665 4.55156734,9.5442385 4.59816424,9.7835325 C4.64430874,10.02236 4.31971382,10.3094662 3.76326537,10.2138419 C3.20636453,10.1182176 3.39207354,9.7354871 3.76326537,9.7835325 C4.134231,9.83134465 4.1806017,9.5442385 3.80963607,9.4486142 C3.43844424,9.35275665 2.47823138,9.1556773 2.06587141,9.2715926 C1.55534127,9.41502905 1.69942975,10.1660297 1.93105707,10.9312574 C2.01859591,11.2199961 1.89667489,11.2876328 2.41353859,11.3328795 C3.29051039,11.4093789 4.70470376,11.8214963 5.13289765,10.7115547 C5.31453505,10.2408966 5.72169245,10.1844549 5.4362299,10.9571459 C5.27359315,11.3972509 4.62983204,11.7923426 4.49071992,11.8399215 C4.60970036,12.4041049 4.19281643,13.1506742 3.32647596,13.2626246 C2.38322798,13.3850703 2.54722194,12.3758841 3.01183377,12.2275498 C3.6800243,12.0150772 3.62822483,12.5477746 3.24527068,12.4647447 C2.80079051,12.5706311 2.91094921,12.9570933 3.21337668,12.9757517 C3.55606749,12.9965091 3.84967322,12.7949984 4.08152674,12.4481854 C4.31338026,12.1013723 4.01502437,11.8154324 3.72933559,11.7909432 C2.8659357,11.7165428 1.90323465,11.5339237 1.3931569,11.5339237 C0.882626765,11.5339237 0.0108575307,11.9021939 0.93849781,13.3846039 C1.86613809,14.8674803 1.94983155,15.0920808 2.18168507,15.4269991 C2.41376479,15.7616841 2.78450422,16.3452256 2.69176281,16.9672501 C2.5990214,17.588808 2.22782957,18.0286798 3.43392027,19.1285926 C4.64001098,20.2285053 6.77351575,22.0173795 7.6550115,22.4476888 C8.397169,21.8737098 10.5354239,21.2139021 9.8860079,16.3356632 C9.7127398,15.0347062 8.8654,12.2536715 11.0918724,8.6668272 C11.5153161,8.97725635 12.9329024,8.4531885 12.0661095,6.2920792 C12.3443338,5.6700548 13.4438849,3.19268562 13.5366263,3.04948239 C12.4694216,2.38011226 10.4571592,1.3382738 8.15129115,0.67240212 L8.15129115,0.67240212 L8.15129115,0.67240212 Z M21.4115029,20.4806269 C21.4115029,20.0454197 21.0694906,19.6925427 20.6474041,19.6925427 C20.2250915,19.6925427 19.8826269,20.0454197 19.8826269,20.4806269 C19.8826269,20.9158341 20.2250915,21.2689444 20.6474041,21.2689444 C21.0694906,21.2689444 21.4115029,20.9158341 21.4115029,20.4806269 L21.4115029,20.4806269 L21.4115029,20.4806269 Z M21.2049836,22.8003326 L21.2049836,21.6502754 L20.6218438,21.6502754 L19.5921879,22.8003326 L21.2049836,22.8003326 L21.2049836,22.8003326 L21.2049836,22.8003326 Z M22.6997037,22.0749873 L23.0295012,20.8694214 L21.9457839,20.6079705 L21.7075968,21.3034624 C21.9457839,21.6320835 22.3425362,21.9203558 22.6997037,22.0749873 L22.6997037,22.0749873 L22.6997037,22.0749873 Z M28.7407885,9.1542779 C29.3298095,14.6202565 24.1991739,18.5128653 22.2617832,20.2455311 L23.5230664,20.5347363 L22.8736503,22.7443574 C22.8736503,22.7443574 22.0389777,22.1703784 21.6214151,21.8835054 L21.6214151,23.2224789 L19.162863,23.2224789 C19.162863,23.2224789 18.2815934,24.035752 16.7509078,25.231289 C15.219996,26.4270593 12.5067443,25.7464941 11.9360454,25.722005 C11.6028549,25.6972826 10.9287832,25.9155859 9.6763218,25.8199616 C7.54372185,25.657167 7.11688515,23.8358739 7.4878508,22.9750219 C6.04990655,21.9707335 1.83650607,18.8263265 2.06835959,17.7739927 C2.2239842,17.0684719 2.32532115,16.4790996 1.95412932,16.0487903 C1.8163744,15.8887945 1.62953439,15.2835626 0.516185105,13.6094376 C-0.80933843,11.6162539 0.779027825,10.9914307 1.41894354,11.0012264 C1.41894354,11.0012264 1.44586117,10.8099778 1.39768087,10.6919634 C1.24296106,10.3159966 1.16560116,9.30517775 1.35108398,9.06611695 C1.3931569,9.0120076 1.42256271,8.9833203 1.44292058,8.96816035 C1.43025347,8.9623296 1.41464577,8.9490355 1.39768087,8.9224473 C1.30471327,8.7790108 0.957498485,8.42939905 1.35108398,7.82253455 C1.81954118,7.10045445 1.34769099,6.74454545 1.30109409,6.31400285 C0.95048633,3.05951128 5.0768004,4.23895544 5.86442375,4.14449729 C5.9067229,3.77366157 5.9999167,3.15630173 6.20982895,2.57369317 C6.46000455,1.87890097 6.8158149,1.54724789 6.9205448,1.08265371 C7.047216,0.519636465 7.333131,-0.061572723 7.8916152,0.0741671435 C10.0717169,0.604998645 12.808267,1.89196185 14.1068729,2.75304705 C14.5708061,2.51351983 16.379716,2.32227122 17.3075825,2.41789552 C18.2352227,2.51351983 18.4537305,1.95563364 18.9312357,2.0353983 C19.0920629,2.14618256 19.1918164,2.4239595 19.327988,2.59515033 C20.3474649,3.87418371 20.7939808,6.89381265 20.6566783,8.30975205 C21.1972928,7.2478558 22.333262,5.56790005 22.4282654,4.52536189 C24.2396634,5.32627375 24.8831983,9.0120076 24.4778505,10.5870099 C26.0087623,8.391849 27.4025978,7.93891635 28.8866865,8.0872506 C28.8629357,8.1478904 28.7045967,8.82215835 28.7407885,9.1542779 L28.7407885,9.1542779 L28.7407885,9.1542779 Z" id="path3426"></path>
                                                            </g>
                                                        </g>
                                                    </g>
                                                </g>
                                            </g>
                                        </g>
                                    </g>
                                    <g id="g3428" transform="translate(0.021202, 0.035573)">
                                        <g id="g3430-Clipped">
                                            <g>
                                                <mask id="mask-6" fill="white">
                                                    <use xlink:href="#path-5"></use>
                                                </mask>
                                                <g id="path-5"></g>
                                                <g id="g3430" mask="url(#mask-6)">
                                                    <g transform="translate(3.000000, 4.500000)" id="Group">
                                                        <g transform="translate(0.392978, 0.397830)">
                                                            <g id="g3436" transform="translate(11.573542, 0.225277)" fill="#231F20">
                                                                <path d="M0.226198555,1.39938006 C0.209686061,1.37908905 0.168291725,1.31121912 0.175756278,1.12860002 C0.190911581,0.752166785 0.465290429,0.427743839 0.752336395,0.187750158 C0.75663417,0.384363057 0.743062255,0.607330945 0.702572715,0.85991905 C0.58585426,1.21442867 0.430229653,1.46771646 0.226198555,1.39938006" id="path3438"></path>
                                                            </g>
                                                            <g id="g3440" transform="translate(4.916561, 4.725777)" fill="#000000">
                                                                <path d="M1.35719133,0 C0.91429456,0.50004514 0.243842043,1.94467182 1.57366335,3.18825424 C0.55757944,3.46789703 -0.838518045,0.66937013 1.35719133,0" id="path3442"></path>
                                                            </g>
                                                            <g id="g3444" transform="translate(3.201662, 13.833409)" fill="#000000">
                                                                <path d="M0.678595665,1.39938006 C0.678595665,1.39938006 1.10678953,1.08055464 1.43319405,0.64884589 C1.69875115,0.297368264 1.83741087,0.552521895 1.65396384,0.85991905 C1.46373085,1.17874448 0.9712966,1.53908484 0.63109397,1.88986278 L0.91655655,2.08600921 C0.91655655,2.08600921 2.27193829,0.93035451 2.84331584,0.173056668 C3.00979798,-0.0475789221 3.24775887,0.0995892145 3.12877842,0.295735653 C2.71573986,0.977000515 1.66572616,1.8924283 1.20201912,2.30687803 L1.4874817,2.50302447 C1.4874817,2.50302447 2.0823839,2.1597099 2.51035157,1.57103735 C2.74265749,1.25174546 3.00979798,1.49733667 2.70058455,1.81639532 C2.52980464,1.99248398 2.03442981,2.47853532 1.76095575,2.67468176 C1.52706645,2.84260737 1.54448374,2.96155467 1.20428111,2.73858678 C1.20428111,2.73858678 0.926056885,2.51538567 0.431360646,2.16460773 C-0.0633355955,1.81382979 0.369382241,1.6545337 0.678595665,1.39938006" id="path3446"></path>
                                                            </g>
                                                            <g id="g3448" transform="translate(0.143297, 9.661155)" fill="#000000">
                                                                <path d="M2.94058122,1.63261008 C3.18804244,1.50503326 3.18804244,1.53698577 2.90959202,1.44136146 C2.6313678,1.34573716 1.70825149,1.24381564 1.70825149,1.24381564 C1.73924069,1.37139246 1.73924069,1.60065756 1.70825149,1.6965151 C1.67748849,1.7921394 1.73924069,2.07411448 1.73924069,2.07411448 C1.73924069,2.07411448 2.69312,1.76018689 2.94058122,1.63261008 M1.41034799,2.89671673 C1.26648571,2.96155467 0.83127969,3.17052876 0.88194817,3.24399622 C0.943247975,3.33239039 1.29159375,3.44364111 1.58519948,3.49425201 C1.8788052,3.54486293 1.69558437,3.27991363 1.63247497,3.13157935 C1.56959178,2.98301184 1.55443647,2.83187878 1.41034799,2.89671673 M4.37354907,3.26522014 C3.83972048,3.18918716 3.15433886,3.64328599 2.66665477,4.04397515 C2.24909224,4.3870565 1.44156339,4.52256313 0.849827975,4.27090795 C0.258092552,4.01925277 0.537900165,3.61879684 0.76568211,3.43058022 C0.76568211,3.43058022 0.8459826,3.26195492 0.489493674,2.9881429 C0.072835935,2.66838455 0.593092615,2.56343104 1.05521626,2.39783773 C0.87086444,2.10256855 0.9710704,1.55751001 1.02015548,1.25477745 C0.41190757,1.22702308 0.105408527,1.14842457 0.16602974,1.01175178 C0.214888628,0.90096753 0.70913247,0.823301935 0.978082555,0.87881068 C1.002512,0.727444405 0.83783945,0.153931807 1.07534793,0.199178429 C1.32054717,0.246290891 1.52389967,0.545991455 1.59334262,0.90493244 C1.59334262,0.90493244 2.54676954,1.05839778 3.17741111,1.21512836 C3.72820459,1.35180114 3.75738421,1.56777213 3.45767112,1.71727257 C3.04779934,1.92181529 2.32238057,2.36891721 1.87518602,2.67328238 C1.66074979,2.81905113 1.8317559,3.01146589 1.92743789,3.27944717 C2.02334608,3.54719523 2.62820102,3.21950707 2.82838674,3.09239671 C3.02902486,2.96551959 3.92296155,2.50255801 4.52419731,2.75164767 C5.03834665,2.96435343 5.231294,3.38719944 4.37354907,3.26522014" id="path3450"></path>
                                                            </g>
                                                        </g>
                                                    </g>
                                                </g>
                                            </g>
                                        </g>
                                    </g>
                                </g>
                            </g>
                        </g>
                    </g>
                </g>
            </g>
        </g>
    </g>
</svg>