<?xml version="1.0" encoding="UTF-8" standalone="no"?>
<svg width="30px" height="30px" viewBox="0 0 30 30" version="1.1" xmlns="http://www.w3.org/2000/svg" xmlns:xlink="http://www.w3.org/1999/xlink">
    <!-- Generator: Sketch 40.3 (33839) - http://www.bohemiancoding.com/sketch -->
    <title>Artboard Copy</title>
    <desc>Created with Sketch.</desc>
    <defs></defs>
    <g id="Page-1" stroke="none" stroke-width="1" fill="none" fill-rule="evenodd">
        <g id="Artboard-Copy">
            <g id="blues" transform="translate(0.000000, 2.500000)">
                <g id="Page-1">
                    <g id="Artboard">
                        <g id="blues" transform="translate(0.000000, 0.375000)">
                            <g id="g3" transform="translate(0.000000, 0.025000)">
                                <path d="M5.287,0.1 C5.287,0.1 6.435625,1.822125 6.771875,2.704125 C6.784625,2.7345 6.792125,2.776875 6.802125,2.8055 C6.874125,3.012375 6.8725,3.209125 6.820375,3.281 C6.697125,3.45125 6.490375,3.526625 5.999125,3.51425 L3.857,0.1 L0,0.1 L9.025125,14.76875 C8.9105,14.764875 8.796625,14.76275 8.68475,14.76275 C6.97625,14.76275 5.37925,15.2005 4.18825,15.995 C2.791875,16.9265 2.083875,18.094875 2.083875,19.467375 C2.083875,20.789875 2.833875,22.018375 4.1955,22.9265 C5.378375,23.7155 6.972875,24.15 8.685125,24.15 C10.351125,24.15 11.936375,23.704375 13.149,22.895125 C14.50275,21.99175 15.248375,20.776125 15.248375,19.47175 C15.248375,18.88175 15.091875,18.312125 14.755875,17.67875 L14.74025,17.649375 L12.634375,14.287 C13.041375,14.354875 13.445,14.3615 13.739875,14.3615 C14.321875,14.3615 14.80025,14.27375 14.819125,14.26975 C14.981625,14.235625 15.441875,14.130875 15.441875,14.130875 L14.852625,13.274875 C15.073375,13.29025 16.250625,13.349125 17.28775,13.27975 C18.012125,13.231375 18.668125,13.06775 18.883,13.006875 C19.070625,12.95375 19.625,12.75125 19.625,12.75125 L18.87075,12.002625 C19.6845,11.989625 20.522625,11.793875 21.62225,11.292375 C23.416875,10.474 24.437125,9.293125 24.80875,8.8105 L24.6135,8.8105 C24.891625,8.653875 25.212375,8.4465 25.4785,8.229125 C25.992875,7.809125 26.366875,7.385625 26.646375,6.943125 C26.76025,6.762625 26.87125,6.58275 26.947375,6.42875 C27.05475,6.211375 27.105375,6.05 27.105375,6.05 L26.896375,6.05 C27.056125,5.91775 27.55575,5.455625 27.908375,4.811125 C28.0725,4.511375 28.2075,4.1675 28.293875,3.8965 C28.377,3.635625 28.414625,3.441625 28.414625,3.441625 L28.085875,3.441625 C28.442625,3.191875 28.999375,2.649 29.42025,1.867 C29.62425,1.487875 29.783375,1.07375 29.87675,0.730625 C29.97275,0.376875 30,0.1 30,0.1 L5.287,0.1 L5.287,0.1 L5.287,0.1 Z" id="path5" fill="#0F1F48"></path>
                                <path d="M6.006625,0.536625 L6.307625,0.972375 C6.313875,0.9815 6.938375,1.890125 7.2055,2.65775 C7.332875,3.02375 7.283,3.374 7.2295,3.472 C7.008125,3.876875 6.2195,3.92075 5.89075,3.92075 C5.843875,3.92075 5.79625,3.919875 5.749,3.918125 L3.616125,0.536625 L0.78125,0.536625 L9.8455,15.268875 C9.4655,15.2235 9.06825,15.199375 8.68475,15.199375 C7.0615,15.199375 5.550625,15.610875 4.4305,16.35825 C3.163125,17.20375 2.5205,18.249875 2.5205,19.467375 C2.5205,20.63925 3.201375,21.738625 4.43775,22.56325 C5.54975,23.305 7.058125,23.713375 8.685125,23.713375 C10.26575,23.713375 11.765,23.293875 12.906625,22.531875 C14.135125,21.712125 14.811625,20.625375 14.811625,19.471875 C14.811625,18.956 14.67125,18.45125 14.370125,17.883625 L14.361875,17.868 L11.6955,13.6105 C12.014625,13.694125 13.200375,13.924875 13.739875,13.924875 C14.279375,13.924875 14.692625,13.8305 14.692625,13.8305 L13.9235,12.74625 C14.239875,12.766375 15.472,12.910375 16.601375,12.859625 C17.81075,12.80525 18.277625,12.68925 18.80125,12.562625 L17.893125,11.609875 C18.667125,11.595875 19.922375,11.573 21.4245,10.887875 C22.8175,10.25275 23.654125,9.389375 24.03625,8.893125 L23.248875,8.893125 C24.0065,8.67975 24.598,8.384375 25.202375,7.89075 C26.062625,7.18825 26.411375,6.359125 26.411375,6.359125 L25.589375,6.357375 C25.720875,6.273625 26.024875,6.117125 26.3635,5.861125 C26.6745,5.626 27.009625,5.297 27.266,4.977875 C27.43425,4.7685 27.744625,4.245125 27.800875,3.75225 L26.960125,3.751 C27.310875,3.4985 28.189875,2.8435 28.755125,2.035375 C28.970125,1.728125 29.157,1.37525 29.26125,1.087625 C29.3755,0.772625 29.396875,0.536375 29.396875,0.536375 L6.006625,0.536625 L6.006625,0.536625 L6.006625,0.536625 Z" id="path7" fill="#FFFFFF"></path>
                                <path d="M6.53625,0.8145 C6.53625,0.8145 7.18475,1.75275 7.467875,2.5665 C7.62175,3.008625 7.5645,3.438375 7.47325,3.605375 C7.191125,4.1215 6.360625,4.198625 5.890625,4.198625 C5.76925,4.198625 5.665375,4.193375 5.5905,4.188125 L3.462875,0.8145 L1.278625,0.8145 L10.397125,15.635 C9.860875,15.531625 9.2525,15.47725 8.684875,15.47725 C7.1435,15.47725 5.682875,15.856875 4.584875,16.58925 C3.39175,17.38525 2.7985,18.341375 2.7985,19.46725 C2.7985,20.556375 3.4595,21.5765 4.592,22.331875 C5.6895,23.063875 7.1435,23.435375 8.68525,23.435375 C10.2285,23.435375 11.6555,23.032625 12.7525,22.300625 C13.884,21.545625 14.533875,20.561 14.533875,19.471625 C14.533875,19.003 14.403875,18.539625 14.12475,18.0135 L14.120625,18.005625 L11.120375,13.127125 C11.881,13.353625 13.0605,13.661875 13.730375,13.6315 L14.2635,13.60725 L13.938,13.184375 C13.93425,13.179625 13.667125,12.8315 13.438375,12.4605 C14.084,12.508875 15.231875,12.581875 16.26025,12.581875 C16.637875,12.581875 17.288,12.555125 17.758125,12.5105 C18.077375,12.480125 18.317625,12.426125 18.317625,12.426125 L17.3205,11.368625 C17.382375,11.369625 17.447625,11.37025 17.516,11.37025 L17.51625,11.37025 C18.23525,11.37025 19.843125,11.310375 21.193125,10.70925 C21.893,10.3975 22.520125,10.00775 22.94475,9.642375 C23.292375,9.34325 23.504875,9.032 23.504875,9.032 L22.329125,9.032 C23.354375,8.70175 24.260125,8.32325 25.09675,7.63275 C25.435875,7.35275 25.656875,7.0135 25.7695,6.799125 C25.824625,6.693875 25.847125,6.615375 25.8575,6.595125 L24.67725,6.595125 C24.785375,6.536625 26.016875,5.887375 26.717625,5.191375 C27.058,4.8535 27.2485,4.503625 27.323125,4.265125 C27.37225,4.107875 27.3545,3.989125 27.3545,3.989125 L26.082625,3.989125 C26.6415,3.638375 27.63,2.97175 28.279,2.18925 C28.529875,1.886875 28.76725,1.5265 28.889375,1.2515 C29.00275,0.996125 29.009625,0.814375 29.009625,0.814375 L6.53625,0.814375 L6.53625,0.8145 L6.53625,0.8145 Z" id="path9" fill="#FFC325"></path>
                                <path d="M28.6245,1.092375 L7.05325,1.092375 C9.548,4.982875 5.428375,4.452125 5.428375,4.452125 L3.309625,1.092375 L1.774625,1.092375 L10.942,16.0595 C10.26225,15.864375 9.475875,15.755 8.68475,15.755 C5.61,15.755 3.1135,17.42075 3.1135,19.471625 C3.1135,21.525875 5.61,23.189125 8.68475,23.189125 C11.7635,23.189125 14.255875,21.52575 14.255875,19.471625 C14.255875,18.993375 14.104375,18.568125 13.879125,18.14375 L10.493,12.63775 C10.493,12.63775 12.7305,13.398875 13.7175,13.353875 C13.7175,13.353875 13.176,12.65075 12.94925,12.142375 C12.94925,12.142375 16.252,12.442625 17.7345,12.22475 L16.652625,11.0565 C16.652625,11.0565 20.752375,11.493875 22.85225,9.30975 L22.39475,9.30975 L11.607,9.30975 L11.4275,9.029375 L21.330625,9.029375 C22.681875,8.680625 24.7025,7.990625 25.358625,6.872875 L24.910625,6.872875 L10.131625,6.872875 L9.952125,6.5925 L24.081125,6.5925 C25.0265,6.115875 26.808375,5.11625 27.004875,4.267 L26.282375,4.267 L8.49375,4.267 L8.31425,3.986625 L25.548875,3.986625 C26.4365,3.46575 28.22725,2.291125 28.6245,1.092375 L28.6245,1.092375 L28.6245,1.092375 Z" id="path11" fill="#0447A0"></path>
                            </g>
                        </g>
                    </g>
                </g>
            </g>
        </g>
    </g>
</svg>