<?xml version="1.0" encoding="UTF-8" standalone="no"?>
<svg width="30px" height="30px" viewBox="0 0 30 30" version="1.1" xmlns="http://www.w3.org/2000/svg" xmlns:xlink="http://www.w3.org/1999/xlink">
    <!-- Generator: Sketch 40.3 (33839) - http://www.bohemiancoding.com/sketch -->
    <title>Artboard Copy</title>
    <desc>Created with Sketch.</desc>
    <defs></defs>
    <g id="Page-1" stroke="none" stroke-width="1" fill="none" fill-rule="evenodd">
        <g id="Artboard-Copy">
            <g id="bluejackets" transform="translate(0.000000, 2.000000)">
                <g id="Page-1">
                    <g id="Artboard">
                        <g id="bluejackets" transform="translate(0.000000, 0.033898)">
                            <g id="Layer_8" transform="translate(0.004982, 0.008949)">
                                <g id="Silver_BG" fill="#A7B1B7">
                                    <path d="M14.9078644,0.0927457625 L13.5880678,2.85457627 C11.6246441,3.03498305 8.7800339,3.76342373 6.2377627,5.10935595 C2.92535593,6.86277965 0.0967118645,9.72071185 0.0967118645,13.154644 C0.0967118645,18.0565424 4.79562712,19.4105084 5.2782712,19.6696271 L3.11725423,24.999356 L8.8224407,20.4844068 C11.9000339,20.9232204 15.8487458,20.7032543 17.8801017,20.3447796 L24.1219322,25.8286779 L21.9918305,19.416 C21.9918305,19.416 23.5344407,18.8946101 24.0732203,18.5943051 L29.8622034,5.26688135 C25.1421356,8.0260678 20.8947457,9.6555254 20.8947457,9.6555254 L29.1234916,3.53430509 L23.9264746,4.41884746 C23.9264746,4.41884746 21.0140339,2.50779661 15.7890508,2.66511865 L14.9078644,0.0927457625 L14.9078644,0.0927457625 L14.9078644,0.0927457625 Z" id="path7"></path>
                                </g>
                                <g id="Blue_BG" transform="translate(0.508475, 1.322034)" fill="#00285D">
                                    <path d="M28.2836949,5.15054235 C23.9765085,7.55125425 21.0135254,8.76925425 17.9624746,9.88138985 L17.782983,9.3476949 L27.091322,2.88284746 L16.7538305,5.52945765 L22.5278644,3.19759322 C22.5278644,3.19759322 19.7452882,1.60922034 14.9126441,1.85033899 L14.3184407,0.0868474575 L11.0982712,6.77115255 L6.2118305,8.1559322 L10.7330847,6.3020339 L12.8194577,2.04579661 C12.238983,2.13610169 11.6206779,2.24094916 10.989661,2.3859661 C4.83671186,3.8001356 0.0811525425,7.69922035 0.0811525425,11.7980339 C0.0811525425,16.1384746 3.90833898,17.5154238 5.4441356,18.0449492 L3.42559322,22.4792543 L8.16528815,18.6316271 C11.4242034,19.1203729 15.375661,18.9410848 17.5400339,18.5012542 L22.792678,23.1736271 L20.8250847,17.7588813 C20.8250847,17.7588813 21.9884746,17.4638644 23.1806441,16.9044407 L28.2836949,5.15054235 L28.2836949,5.15054235 L28.2836949,5.15054235 Z M8.51074575,11.4066102 C6.936,11.197017 6.4543729,10.6529491 6.4543729,10.2155593 C6.4543729,10.0525423 6.5317627,9.86522035 6.5317627,9.86522035 L8.91071185,10.5291864 L8.51074575,11.4066102 L8.51074575,11.4066102 L8.51074575,11.4066102 Z" id="path10"></path>
                                </g>
                                <g id="Red" transform="translate(1.322034, 3.559322)" fill="#E13A3E">
                                    <path d="M22.3183729,6.1762373 C16.9492882,8.964 12.2563729,10.0665763 9.24732205,10.0665763 C5.2659661,10.0665763 3.48172881,8.1682373 3.48172881,6.97332205 C3.48172881,4.12515254 7.73461015,1.89925423 11.4151526,1.01359322 L11.7178983,0.395898305 C8.63664405,0.960101695 5.1582712,2.24023729 3.16942373,4.05925424 C1.23040678,5.36277965 0.0121016949,7.30922035 0.0121016949,9.55149155 C0.0121016949,12.8511865 2.74861017,15.9434237 11.2135932,15.9434237 C16.6069831,15.9434237 20.3385762,14.7973221 21.6040678,14.1619322 C16.2974238,14.1293899 10.8714916,12.5487458 10.8714916,12.5487458 C10.8714916,12.5487458 17.780339,9.89277965 22.3183729,6.1762373 L22.3183729,6.1762373 L22.3183729,6.1762373 Z" id="Banner"></path>
                                    <path d="M14.4378305,0.59776271 C14.4384407,0.59776271 14.4391526,0.597661015 14.4398644,0.597661015 C14.9898305,0.55240678 15.5444746,0.528915255 16.0992204,0.528915255 C18.4483729,0.528915255 20.012644,0.90844068 20.012644,0.90844068 C20.012644,0.90844068 18.3423051,0.0726101695 14.9287119,0.0726101695 C14.7195254,0.0726101695 14.5028136,0.078101695 14.2796949,0.088779661 L14.4378305,0.59776271 L14.4378305,0.59776271 L14.4378305,0.59776271 Z" id="Banner_Tip"></path>
                                </g>
                                <g id="White" transform="translate(1.322034, 7.525423)" fill="#FFFFFF">
                                    <path d="M14.4740339,9.42122035 L14.4740339,9.42122035 C14.4740339,9.42122035 12.5618644,9.72325425 10.2154576,9.72325425 C0.961118645,9.72325425 0.319118644,5.0637966 0.319118644,3.68227119 C0.119898305,4.28125424 0.0134237288,4.91471187 0.0122033898,5.5737966 C0.0178983051,5.67061015 0.374135593,10.9780678 10.6025085,10.9780678 C14.8038305,10.9780678 18.307017,10.0007797 18.307017,10.0007797 L18.307017,10.0007797 C16.9148136,9.85261015 15.6,9.6384407 14.4740339,9.42122035 L14.4740339,9.42122035 L14.4740339,9.42122035 Z" id="Low_Stripe"></path>
                                    <path d="M18.2817966,4.97176271 C18.2588135,4.98081356 12.6475932,7.1977627 8.7584746,7.1977627 C4.28430508,7.1977627 2.24877966,4.64542373 2.24877966,2.64061017 C2.24877966,1.25013559 3.16942373,0.0932542375 3.16942373,0.0932542375 C3.13962712,0.11338983 3.10983051,0.133627119 3.08033899,0.153966102 C3.06762712,0.163525423 1.45311864,1.38823729 1.45311864,3.31454237 C1.45311864,6.4496949 4.54291525,8.1700678 8.142,8.1700678 C10.1842373,8.1700678 12.2401017,7.8115932 13.447017,7.4776271 C14.7968135,6.8575932 16.5305084,6.00142375 18.2817966,4.97176271 L18.2817966,4.97176271 L18.2817966,4.97176271 Z" id="Top_Stripe"></path>
                                </g>
                                <g id="Star" transform="translate(5.593221, 3.762712)">
                                    <g id="Grey" fill="#A7B1B7">
                                        <path d="M14.1295932,16.7987797 L14.1295932,16.7987797 L15.8797627,18.1748135 L14.9894238,15.8124407 C14.1124068,16.0329152 14.1295932,16.7987797 14.1295932,16.7987797 L14.1295932,16.7987797 L14.1295932,16.7987797 Z" id="path20"></path>
                                        <path d="M4.4401017,9.0458644 C4.59610169,9.05105085 4.75911865,9.0538983 4.92986441,9.0538983 C7.48322035,9.0538983 10.4720339,8.22050845 11.9511865,7.7516949 L11.5115593,6.58525425 L17.9574916,2.35677966 L10.3866101,4.194 L9.05461015,0.0185084746 L6.9382373,5.06471185 L1.18220339,6.5180339 L5.21511865,7.4977627 L4.4401017,9.0458644 L4.4401017,9.0458644 L4.4401017,9.0458644 Z" id="path22"></path>
                                        <path d="M1.03088135,15.8563729 L1.03088135,15.8563729 L0.074237288,17.7674237 L1.85867797,16.4287118 C1.85867797,16.4285084 1.68315254,15.8527119 1.03088135,15.8563729 L1.03088135,15.8563729 L1.03088135,15.8563729 Z" id="path24"></path>
                                    </g>
                                    <g id="White_1_" transform="translate(0.406780, 0.711865)" fill="#FFFFFF">
                                        <polygon id="polygon27" points="8.6456949 0.0190169492 9.6844068 3.56776271 7.5536949 4.94440678"></polygon>
                                        <polygon id="polygon29" points="1.94593221 5.71728815 6.63874575 4.44223729 7.5536949 4.94440678"></polygon>
                                        <g id="g31" transform="translate(0.000000, 4.881356)">
                                            <path d="M0.76922034,10.2729153 L0.050338983,11.6812882 L0.93457627,10.3119661 C0.88423729,10.2944746 0.829118645,10.2811525 0.76922034,10.2729153 L0.76922034,10.2729153 L0.76922034,10.2729153 Z" id="path33"></path>
                                            <path d="M4.52318644,3.46067796 C4.80376271,3.46067796 5.0895254,3.45050847 5.3779322,3.432 L7.5536949,0.0629491525 L5.02525425,1.93505084 L4.24779661,3.45813559 C4.33738983,3.45976271 4.42911864,3.46067796 4.52318644,3.46067796 L4.52318644,3.46067796 L4.52318644,3.46067796 Z" id="path35"></path>
                                        </g>
                                        <g id="g37" transform="translate(7.525423, 4.881356)">
                                            <path d="M7.4222034,11.8605762 L6.5499661,10.4688814 C6.38115255,10.612678 6.29318645,10.7824068 6.24722035,10.9227458 L7.4222034,11.8605762 L7.4222034,11.8605762 L7.4222034,11.8605762 Z" id="path39"></path>
                                            <path d="M1.74101695,2.79589831 L0.0282711864,0.0630508475 L0.0282711864,3.15864407 C0.62338983,3.05237288 1.20213559,2.92677966 1.74101695,2.79589831 L1.74101695,2.79589831 L1.74101695,2.79589831 Z" id="path41"></path>
                                        </g>
                                        <polygon id="polygon43" points="7.5536949 4.94440678 10.9350508 5.661661 16.3815254 2.27227119"></polygon>
                                    </g>
                                </g>
                                <g id="Stars" transform="translate(14.644068, 9.355932)" fill="#FFFFFF">
                                    <polygon id="polygon46" points="0.536338985 6.0515593 0.335898305 6.2937966 0.0178983051 6.333661 0.227694916 6.4342373 0.0325423729 6.69294915 0.366915254 6.52098305 0.594305085 6.68908475 0.55637288 6.4202034 0.852915255 6.24701695 0.54477966 6.2781356"></polygon>
                                    <polygon id="polygon48" points="2.25437288 6.4263051 2.07508474 6.6380339 1.77162712 6.67067795 1.96098305 6.78071185 1.77162712 7.01288135 2.07793221 6.86308475 2.29515254 7.02508475 2.26728813 6.76250845 2.55579661 6.6076271 2.25569491 6.620339"></polygon>
                                    <polygon id="polygon50" points="2.90491526 4.91511864 2.69572881 5.18105085 2.38057627 5.2123729 2.58345762 5.32932205 2.38749153 5.58305085 2.72277966 5.40650845 2.95779661 5.5817288 2.91559322 5.2978983 3.21711865 5.1281695 2.91020339 5.154"></polygon>
                                    <polygon id="polygon52" points="4.62966101 5.1136271 4.43552542 5.360339 4.14345762 5.38932205 4.33159322 5.4978305 4.14966102 5.73305085 4.46064407 5.56942375 4.67857627 5.7318305 4.63962712 5.46864405 4.91918644 5.31122035 4.63454237 5.33511865"></polygon>
                                    <polygon id="polygon54" points="3.95511865 6.67271185 3.7621017 6.8919661 3.48467796 6.90701695 3.65155932 7.0224407 3.46708475 7.25328815 3.7779661 7.0902712 3.99793221 7.25735595 3.95705084 7.00474575 4.23406779 6.8478305 3.96111864 6.86684745"></polygon>
                                    <polygon id="polygon56" points="6.11745765 6.8418305 5.888339 7.10481355 5.56077965 7.1377627 5.76722035 7.25461015 5.5581356 7.51261015 5.91111865 7.33067795 6.1555932 7.5181017 6.11745765 7.2302034 6.4461356 7.0564068 6.1121695 7.0699322"></polygon>
                                    <polygon id="polygon58" points="5.3482373 3.4220339 5.13254235 3.70311864 4.75566102 3.74786441 4.98579661 3.87010169 4.75759322 4.17152542 5.14861015 3.95766101 5.421661 4.15932203 5.37081355 3.83949153 5.72715255 3.63172882 5.36257625 3.67250847"></polygon>
                                    <polygon id="polygon60" points="8.49528815 6.7563051 8.1937627 7.10257625 7.73745765 7.15138985 8.02667795 7.2940678 7.743661 7.66067795 8.21694915 7.40745765 8.5460339 7.66677965 8.49101695 7.2715932 8.94122035 7.03535595 8.49101695 7.0555932"></polygon>
                                    <polygon id="polygon62" points="9.34657625 4.65559322 9.08318645 4.99240678 8.66491525 5.03857625 8.9257627 5.17708475 8.6595254 5.51918645 9.10494915 5.2802034 9.40494915 5.4962034 9.34342375 5.14922035 9.7757288 4.90545763 9.34250845 4.95508474"></polygon>
                                    <polygon id="polygon64" points="10.0636271 2.56444068 9.79261015 2.91274576 9.3384407 2.96572881 9.6155593 3.11237288 9.3384407 3.47908475 9.81915255 3.22240678 10.1532203 3.46881356 10.0818305 3.07769491 10.5197288 2.82722034 10.0838644 2.868"></polygon>
                                    <polygon id="polygon66" points="8.04305085 1.68457627 7.83132205 2.07366101 7.36667795 2.16732204 7.68650845 2.30786441 7.47061015 2.68871187 7.91867795 2.38525424 8.3301356 2.60725424 8.18145765 2.22030509 8.56464405 1.91877966 8.1184068 2.00633899"></polygon>
                                    <polygon id="polygon68" points="10.7933899 0.0476949152 10.473356 0.499322034 9.90467795 0.567050845 10.292644 0.75620339 9.96691525 1.22938983 10.545661 0.899084745 10.9802034 1.19979661 10.8736271 0.70637288 11.3997966 0.389186441 10.842 0.455491526"></polygon>
                                </g>
                                <g id="Dot" transform="translate(20.033898, 12.610169)">
                                    <path d="M0.0786101695,2.01508474 C0.0786101695,2.26759322 0.266033898,3.00905084 1.15393221,3.00905084 C2.12359322,3.00905084 3.14206779,2.07213559 3.14206779,1.13522034 C3.14206779,0.55677966 2.73467796,0.092440678 2.09105084,0.092440678 C0.852711865,0.092440678 0.0786101695,1.2818644 0.0786101695,2.01508474 L0.0786101695,2.01508474 L0.0786101695,2.01508474 Z" id="White_2_" fill="#FFFFFF"></path>
                                    <path d="M0.371898305,1.89020339 C0.371898305,2.32464407 0.654305085,2.73752542 1.1920678,2.73752542 C2.04488135,2.73752542 2.83505085,1.93322034 2.83505085,1.15433898 C2.83505085,0.74420339 2.51705084,0.330101695 2.00135593,0.330101695 C1.08488136,0.33 0.371898305,1.28064407 0.371898305,1.89020339 L0.371898305,1.89020339 L0.371898305,1.89020339 Z" id="Red_1_" fill="#E13A3E"></path>
                                </g>
                            </g>
                        </g>
                    </g>
                </g>
            </g>
        </g>
    </g>
</svg>