<?xml version="1.0" encoding="UTF-8" standalone="no"?>
<svg width="60px" height="60px" viewBox="0 0 60 60" version="1.1" xmlns="http://www.w3.org/2000/svg" xmlns:xlink="http://www.w3.org/1999/xlink">
    <!-- Generator: Sketch 40.3 (33839) - http://www.bohemiancoding.com/sketch -->
    <title>Artboard</title>
    <desc>Created with Sketch.</desc>
    <defs></defs>
    <g id="Page-1" stroke="none" stroke-width="1" fill="none" fill-rule="evenodd">
        <g id="Artboard">
            <g id="blues" transform="translate(0.000000, 5.750000)">
                <g id="g3" transform="translate(0.000000, 0.050000)">
                    <path d="M10.574,0.2 C10.574,0.2 12.87125,3.64425 13.54375,5.40825 C13.56925,5.469 13.58425,5.55375 13.60425,5.611 C13.74825,6.02475 13.745,6.41825 13.64075,6.562 C13.39425,6.9025 12.98075,7.05325 11.99825,7.0285 L7.714,0.2 L0,0.2 L18.05025,29.5375 C17.821,29.52975 17.59325,29.5255 17.3695,29.5255 C13.9525,29.5255 10.7585,30.401 8.3765,31.99 C5.58375,33.853 4.16775,36.18975 4.16775,38.93475 C4.16775,41.57975 5.66775,44.03675 8.391,45.853 C10.75675,47.431 13.94575,48.3 17.37025,48.3 C20.70225,48.3 23.87275,47.40875 26.298,45.79025 C29.0055,43.9835 30.49675,41.55225 30.49675,38.9435 C30.49675,37.7635 30.18375,36.62425 29.51175,35.3575 L29.4805,35.29875 L25.26875,28.574 C26.08275,28.70975 26.89,28.723 27.47975,28.723 C28.64375,28.723 29.6005,28.5475 29.63825,28.5395 C29.96325,28.47125 30.88375,28.26175 30.88375,28.26175 L29.70525,26.54975 C30.14675,26.5805 32.50125,26.69825 34.5755,26.5595 C36.02425,26.46275 37.33625,26.1355 37.766,26.01375 C38.14125,25.9075 39.25,25.5025 39.25,25.5025 L37.7415,24.00525 C39.369,23.97925 41.04525,23.58775 43.2445,22.58475 C46.83375,20.948 48.87425,18.58625 49.6175,17.621 L49.227,17.621 C49.78325,17.30775 50.42475,16.893 50.957,16.45825 C51.98575,15.61825 52.73375,14.77125 53.29275,13.88625 C53.5205,13.52525 53.7425,13.1655 53.89475,12.8575 C54.1095,12.42275 54.21075,12.1 54.21075,12.1 L53.79275,12.1 C54.11225,11.8355 55.1115,10.91125 55.81675,9.62225 C56.145,9.02275 56.415,8.335 56.58775,7.793 C56.754,7.27125 56.82925,6.88325 56.82925,6.88325 L56.17175,6.88325 C56.88525,6.38375 57.99875,5.298 58.8405,3.734 C59.2485,2.97575 59.56675,2.1475 59.7535,1.46125 C59.9455,0.75375 60,0.2 60,0.2 L10.574,0.2 L10.574,0.2 Z" id="path5" fill="#0F1F48"></path>
                    <path d="M12.01325,1.07325 L12.61525,1.94475 C12.62775,1.963 13.87675,3.78025 14.411,5.3155 C14.66575,6.0475 14.566,6.748 14.459,6.944 C14.01625,7.75375 12.439,7.8415 11.7815,7.8415 C11.68775,7.8415 11.5925,7.83975 11.498,7.83625 L7.23225,1.07325 L1.5625,1.07325 L19.691,30.53775 C18.931,30.447 18.1365,30.39875 17.3695,30.39875 C14.123,30.39875 11.10125,31.22175 8.861,32.7165 C6.32625,34.4075 5.041,36.49975 5.041,38.93475 C5.041,41.2785 6.40275,43.47725 8.8755,45.1265 C11.0995,46.61 14.11625,47.42675 17.37025,47.42675 C20.5315,47.42675 23.53,46.58775 25.81325,45.06375 C28.27025,43.42425 29.62325,41.25075 29.62325,38.94375 C29.62325,37.912 29.3425,36.9025 28.74025,35.76725 L28.72375,35.736 L23.391,27.221 C24.02925,27.38825 26.40075,27.84975 27.47975,27.84975 C28.55875,27.84975 29.38525,27.661 29.38525,27.661 L27.847,25.4925 C28.47975,25.53275 30.944,25.82075 33.20275,25.71925 C35.6215,25.6105 36.55525,25.3785 37.6025,25.12525 L35.78625,23.21975 C37.33425,23.19175 39.84475,23.146 42.849,21.77575 C45.635,20.5055 47.30825,18.77875 48.0725,17.78625 L46.49775,17.78625 C48.013,17.3595 49.196,16.76875 50.40475,15.7815 C52.12525,14.3765 52.82275,12.71825 52.82275,12.71825 L51.17875,12.71475 C51.44175,12.54725 52.04975,12.23425 52.727,11.72225 C53.349,11.252 54.01925,10.594 54.532,9.95575 C54.8685,9.537 55.48925,8.49025 55.60175,7.5045 L53.92025,7.502 C54.62175,6.997 56.37975,5.687 57.51025,4.07075 C57.94025,3.45625 58.314,2.7505 58.5225,2.17525 C58.751,1.54525 58.79375,1.07275 58.79375,1.07275 L12.01325,1.07325 L12.01325,1.07325 Z" id="path7" fill="#FFFFFF"></path>
                    <path d="M13.0725,1.629 C13.0725,1.629 14.3695,3.5055 14.93575,5.133 C15.2435,6.01725 15.129,6.87675 14.9465,7.21075 C14.38225,8.243 12.72125,8.39725 11.78125,8.39725 C11.5385,8.39725 11.33075,8.38675 11.181,8.37625 L6.92575,1.629 L2.55725,1.629 L20.79425,31.27 C19.72175,31.06325 18.505,30.9545 17.36975,30.9545 C14.287,30.9545 11.36575,31.71375 9.16975,33.1785 C6.7835,34.7705 5.597,36.68275 5.597,38.9345 C5.597,41.11275 6.919,43.153 9.184,44.66375 C11.379,46.12775 14.287,46.87075 17.3705,46.87075 C20.457,46.87075 23.311,46.06525 25.505,44.60125 C27.768,43.09125 29.06775,41.122 29.06775,38.94325 C29.06775,38.006 28.80775,37.07925 28.2495,36.027 L28.24125,36.01125 L22.24075,26.25425 C23.762,26.70725 26.121,27.32375 27.46075,27.263 L28.527,27.2145 L27.876,26.36875 C27.8685,26.35925 27.33425,25.663 26.87675,24.921 C28.168,25.01775 30.46375,25.16375 32.5205,25.16375 C33.27575,25.16375 34.576,25.11025 35.51625,25.021 C36.15475,24.96025 36.63525,24.85225 36.63525,24.85225 L34.641,22.73725 C34.76475,22.73925 34.89525,22.7405 35.032,22.7405 L35.0325,22.7405 C36.4705,22.7405 39.68625,22.62075 42.38625,21.4185 C43.786,20.795 45.04025,20.0155 45.8895,19.28475 C46.58475,18.6865 47.00975,18.064 47.00975,18.064 L44.65825,18.064 C46.70875,17.4035 48.52025,16.6465 50.1935,15.2655 C50.87175,14.7055 51.31375,14.027 51.539,13.59825 C51.64925,13.38775 51.69425,13.23075 51.715,13.19025 L49.3545,13.19025 C49.57075,13.07325 52.03375,11.77475 53.43525,10.38275 C54.116,9.707 54.497,9.00725 54.64625,8.53025 C54.7445,8.21575 54.709,7.97825 54.709,7.97825 L52.16525,7.97825 C53.283,7.27675 55.26,5.9435 56.558,4.3785 C57.05975,3.77375 57.5345,3.053 57.77875,2.503 C58.0055,1.99225 58.01925,1.62875 58.01925,1.62875 L13.0725,1.62875 L13.0725,1.629 Z" id="path9" fill="#FFC325"></path>
                    <path d="M57.249,2.18475 L14.1065,2.18475 C19.096,9.96575 10.85675,8.90425 10.85675,8.90425 L6.61925,2.18475 L3.54925,2.18475 L21.884,32.119 C20.5245,31.72875 18.95175,31.51 17.3695,31.51 C11.22,31.51 6.227,34.8415 6.227,38.94325 C6.227,43.05175 11.22,46.37825 17.3695,46.37825 C23.527,46.37825 28.51175,43.0515 28.51175,38.94325 C28.51175,37.98675 28.20875,37.13625 27.75825,36.2875 L20.986,25.2755 C20.986,25.2755 25.461,26.79775 27.435,26.70775 C27.435,26.70775 26.352,25.3015 25.8985,24.28475 C25.8985,24.28475 32.504,24.88525 35.469,24.4495 L33.30525,22.113 C33.30525,22.113 41.50475,22.98775 45.7045,18.6195 L44.7895,18.6195 L23.214,18.6195 L22.855,18.05875 L42.66125,18.05875 C45.36375,17.36125 49.405,15.98125 50.71725,13.74575 L49.82125,13.74575 L20.26325,13.74575 L19.90425,13.185 L48.16225,13.185 C50.053,12.23175 53.61675,10.2325 54.00975,8.534 L52.56475,8.534 L16.9875,8.534 L16.6285,7.97325 L51.09775,7.97325 C52.873,6.9315 56.4545,4.58225 57.249,2.18475 L57.249,2.18475 Z" id="path11" fill="#0447A0"></path>
                </g>
            </g>
        </g>
    </g>
</svg>