<?xml version="1.0" encoding="UTF-8" standalone="no"?>
<svg width="60px" height="60px" viewBox="0 0 60 60" version="1.1" xmlns="http://www.w3.org/2000/svg" xmlns:xlink="http://www.w3.org/1999/xlink">
    <!-- Generator: Sketch 40.3 (33839) - http://www.bohemiancoding.com/sketch -->
    <title>Artboard</title>
    <desc>Created with Sketch.</desc>
    <defs></defs>
    <g id="Page-1" stroke="none" stroke-width="1" fill="none" fill-rule="evenodd">
        <g id="Artboard">
            <g id="bluejackets" transform="translate(0.000000, 4.067797)">
                <g id="Layer_8" transform="translate(0.009965, 0.017898)">
                    <g id="Silver_BG" fill="#A7B1B7">
                        <path d="M29.8157288,0.185491525 L27.1761356,5.70915254 C23.2492881,6.0699661 17.5600678,7.52684746 12.4755254,10.2187119 C5.85071186,13.7255593 0.193423729,19.4414237 0.193423729,26.3092881 C0.193423729,36.1130847 9.59125424,38.8210169 10.5565424,39.3392542 L6.23450847,49.9987119 L17.6448814,40.9688136 C23.8000678,41.8464407 31.6974915,41.4065085 35.7602034,40.6895593 L48.2438644,51.6573559 L43.983661,38.832 C43.983661,38.832 47.0688814,37.7892203 48.1464407,37.1886102 L59.7244068,10.5337627 C50.2842712,16.0521356 41.7894915,19.3110508 41.7894915,19.3110508 L58.2469831,7.06861017 L47.8529492,8.83769492 C47.8529492,8.83769492 42.0280678,5.01559322 31.5781017,5.33023729 L29.8157288,0.185491525 L29.8157288,0.185491525 Z" id="path7"></path>
                    </g>
                    <g id="Blue_BG" transform="translate(1.016949, 2.644068)" fill="#00285D">
                        <path d="M56.5673898,10.3010847 C47.9530169,15.1025085 42.0270508,17.5385085 35.9249492,19.7627797 L35.5659661,18.6953898 L54.1826441,5.76569492 L33.507661,11.0589153 L45.0557288,6.39518644 C45.0557288,6.39518644 39.4905763,3.21844068 29.8252881,3.70067797 L28.6368814,0.173694915 L22.1965424,13.5423051 L12.423661,16.3118644 L21.4661695,12.6040678 L25.6389153,4.09159322 C24.4779661,4.27220339 23.2413559,4.48189831 21.979322,4.7719322 C9.67342373,7.60027119 0.162305085,15.3984407 0.162305085,23.5960678 C0.162305085,32.2769492 7.81667797,35.0308475 10.8882712,36.0898983 L6.85118644,44.9585085 L16.3305763,37.2632542 C22.8484068,38.2407458 30.751322,37.8821695 35.0800678,37.0025085 L45.5853559,46.3472542 L41.6501695,35.5177627 C41.6501695,35.5177627 43.9769492,34.9277288 46.3612881,33.8088814 L56.5673898,10.3010847 L56.5673898,10.3010847 Z M17.0214915,22.8132203 C13.872,22.3940339 12.9087458,21.3058983 12.9087458,20.4311186 C12.9087458,20.1050847 13.0635254,19.7304407 13.0635254,19.7304407 L17.8214237,21.0583729 L17.0214915,22.8132203 L17.0214915,22.8132203 Z" id="path10"></path>
                    </g>
                    <g id="Red" transform="translate(2.644068, 7.118644)" fill="#E13A3E">
                        <path d="M44.6367458,12.3524746 C33.8985763,17.928 24.5127458,20.1331525 18.4946441,20.1331525 C10.5319322,20.1331525 6.96345763,16.3364746 6.96345763,13.9466441 C6.96345763,8.25030508 15.4692203,3.79850847 22.8303051,2.02718644 L23.4357966,0.79179661 C17.2732881,1.92020339 10.3165424,4.48047458 6.33884746,8.11850847 C2.46081356,10.7255593 0.0242033898,14.6184407 0.0242033898,19.1029831 C0.0242033898,25.7023729 5.49722034,31.8868475 22.4271864,31.8868475 C33.2139661,31.8868475 40.6771525,29.5946441 43.2081356,28.3238644 C32.5948475,28.2587797 21.7429831,25.0974915 21.7429831,25.0974915 C21.7429831,25.0974915 35.560678,19.7855593 44.6367458,12.3524746 L44.6367458,12.3524746 Z" id="Banner"></path>
                        <path d="M28.875661,1.19552542 C28.8768814,1.19552542 28.8783051,1.19532203 28.8797288,1.19532203 C29.979661,1.10481356 31.0889492,1.05783051 32.1984407,1.05783051 C36.8967458,1.05783051 40.0252881,1.81688136 40.0252881,1.81688136 C40.0252881,1.81688136 36.6846102,0.145220339 29.8574237,0.145220339 C29.4390508,0.145220339 29.0056271,0.15620339 28.5593898,0.177559322 L28.875661,1.19552542 L28.875661,1.19552542 Z" id="Banner_Tip"></path>
                    </g>
                    <g id="White" transform="translate(2.644068, 15.050847)" fill="#FFFFFF">
                        <path d="M28.9480678,18.8424407 L28.9480678,18.8424407 C28.9480678,18.8424407 25.1237288,19.4465085 20.4309153,19.4465085 C1.92223729,19.4465085 0.638237288,10.1275932 0.638237288,7.36454237 C0.23979661,8.56250847 0.0268474576,9.82942373 0.0244067797,11.1475932 C0.0357966102,11.3412203 0.748271186,21.9561356 21.2050169,21.9561356 C29.607661,21.9561356 36.6140339,20.0015593 36.6140339,20.0015593 L36.6140339,20.0015593 C33.8296271,19.7052203 31.2,19.2768814 28.9480678,18.8424407 L28.9480678,18.8424407 Z" id="Low_Stripe"></path>
                        <path d="M36.5635932,9.94352542 C36.5176271,9.96162712 25.2951864,14.3955254 17.5169492,14.3955254 C8.56861017,14.3955254 4.49755932,9.29084746 4.49755932,5.28122034 C4.49755932,2.50027119 6.33884746,0.186508475 6.33884746,0.186508475 C6.27925424,0.226779661 6.21966102,0.267254237 6.16067797,0.307932203 C6.13525424,0.327050847 2.90623729,2.77647458 2.90623729,6.62908475 C2.90623729,12.8993898 9.08583051,16.3401356 16.284,16.3401356 C20.3684746,16.3401356 24.4802034,15.6231864 26.8940339,14.9552542 C29.5936271,13.7151864 33.0610169,12.0028475 36.5635932,9.94352542 L36.5635932,9.94352542 Z" id="Top_Stripe"></path>
                    </g>
                    <g id="Star" transform="translate(11.186441, 7.525424)">
                        <g id="Grey" fill="#A7B1B7">
                            <path d="M28.2591864,33.5975593 L28.2591864,33.5975593 L31.7595254,36.3496271 L29.9788475,31.6248814 C28.2248136,32.0658305 28.2591864,33.5975593 28.2591864,33.5975593 L28.2591864,33.5975593 Z" id="path20"></path>
                            <path d="M8.88020339,18.0917288 C9.19220339,18.1021017 9.51823729,18.1077966 9.85972881,18.1077966 C14.9664407,18.1077966 20.9440678,16.4410169 23.9023729,15.5033898 L23.0231186,13.1705085 L35.9149831,4.71355932 L20.7732203,8.388 L18.1092203,0.0370169492 L13.8764746,10.1294237 L2.36440678,13.0360678 L10.4302373,14.9955254 L8.88020339,18.0917288 L8.88020339,18.0917288 Z" id="path22"></path>
                            <path d="M2.06176271,31.7127458 L2.06176271,31.7127458 L0.148474576,35.5348475 L3.71735593,32.8574237 C3.71735593,32.8570169 3.36630508,31.7054237 2.06176271,31.7127458 L2.06176271,31.7127458 Z" id="path24"></path>
                        </g>
                        <g id="White_1_" transform="translate(0.813559, 1.423729)" fill="#FFFFFF">
                            <polygon id="polygon27" points="17.2913898 0.0380338983 19.3688136 7.13552542 15.1073898 9.88881356"></polygon>
                            <polygon id="polygon29" points="3.89186441 11.4345763 13.2774915 8.88447458 15.1073898 9.88881356"></polygon>
                            <g id="g31" transform="translate(0.000000, 9.762712)">
                                <path d="M1.53844068,20.5458305 L0.100677966,23.3625763 L1.86915254,20.6239322 C1.76847458,20.5889492 1.65823729,20.5623051 1.53844068,20.5458305 L1.53844068,20.5458305 Z" id="path33"></path>
                                <path d="M9.04637288,6.92135593 C9.60752542,6.92135593 10.1790508,6.90101695 10.7558644,6.864 L15.1073898,0.125898305 L10.0505085,3.87010169 L8.49559322,6.91627119 C8.67477966,6.91952542 8.85823729,6.92135593 9.04637288,6.92135593 L9.04637288,6.92135593 Z" id="path35"></path>
                            </g>
                            <g id="g37" transform="translate(15.050847, 9.762712)">
                                <path d="M14.8444068,23.7211525 L13.0999322,20.9377627 C12.7623051,21.2253559 12.5863729,21.5648136 12.4944407,21.8454915 L14.8444068,23.7211525 L14.8444068,23.7211525 Z" id="path39"></path>
                                <path d="M3.4820339,5.59179661 L0.0565423729,0.126101695 L0.0565423729,6.31728814 C1.24677966,6.10474576 2.40427119,5.85355932 3.4820339,5.59179661 L3.4820339,5.59179661 Z" id="path41"></path>
                            </g>
                            <polygon id="polygon43" points="15.1073898 9.88881356 21.8701017 11.323322 32.7630508 4.54454237"></polygon>
                        </g>
                    </g>
                    <g id="Stars" transform="translate(29.288136, 18.711864)" fill="#FFFFFF">
                        <polygon id="polygon46" points="1.07267797 12.1031186 0.67179661 12.5875932 0.0357966102 12.667322 0.455389831 12.8684746 0.0650847458 13.3858983 0.733830508 13.0419661 1.18861017 13.3781695 1.11274576 12.8404068 1.70583051 12.4940339 1.08955932 12.5562712"></polygon>
                        <polygon id="polygon48" points="4.50874576 12.8526102 4.15016949 13.2760678 3.54325424 13.3413559 3.9219661 13.5614237 3.54325424 14.0257627 4.15586441 13.7261695 4.59030508 14.0501695 4.53457627 13.5250169 5.11159322 13.2152542 4.51138983 13.240678"></polygon>
                        <polygon id="polygon50" points="5.80983051 9.83023729 5.39145763 10.3621017 4.76115254 10.4247458 5.16691525 10.6586441 4.77498305 11.1661017 5.44555932 10.8130169 5.91559322 11.1634576 5.83118644 10.5957966 6.43423729 10.256339 5.82040678 10.308"></polygon>
                        <polygon id="polygon52" points="9.25932203 10.2272542 8.87105085 10.720678 8.28691525 10.7786441 8.66318644 10.995661 8.29932203 11.4661017 8.92128814 11.1388475 9.35715254 11.463661 9.27925424 10.9372881 9.83837288 10.6224407 9.26908475 10.6702373"></polygon>
                        <polygon id="polygon54" points="7.91023729 13.3454237 7.52420339 13.7839322 6.96935593 13.8140339 7.30311864 14.0448814 6.93416949 14.5065763 7.5559322 14.1805424 7.99586441 14.5147119 7.91410169 14.0094915 8.46813559 13.695661 7.92223729 13.7336949"></polygon>
                        <polygon id="polygon56" points="12.2349153 13.683661 11.776678 14.2096271 11.1215593 14.2755254 11.5344407 14.5092203 11.1162712 15.0252203 11.8222373 14.6613559 12.3111864 15.0362034 12.2349153 14.4604068 12.8922712 14.1128136 12.224339 14.1398644"></polygon>
                        <polygon id="polygon58" points="10.6964746 6.8440678 10.2650847 7.40623729 9.51132203 7.49572881 9.97159322 7.74020339 9.51518644 8.34305085 10.2972203 7.91532203 10.843322 8.31864407 10.7416271 7.67898305 11.4543051 7.26345763 10.7251525 7.34501695"></polygon>
                        <polygon id="polygon60" points="16.9905763 13.5126102 16.3875254 14.2051525 15.4749153 14.3027797 16.0533559 14.5881356 15.487322 15.3213559 16.4338983 14.8149153 17.0920678 15.3335593 16.9820339 14.5431864 17.8824407 14.0707119 16.9820339 14.1111864"></polygon>
                        <polygon id="polygon62" points="18.6931525 9.31118644 18.1663729 9.98481356 17.3298305 10.0771525 17.8515254 10.3541695 17.3190508 11.0383729 18.2098983 10.5604068 18.8098983 10.9924068 18.6868475 10.2984407 19.5514576 9.81091525 18.6850169 9.91016949"></polygon>
                        <polygon id="polygon64" points="20.1272542 5.12888136 19.5852203 5.82549153 18.6768814 5.93145763 19.2311186 6.22474576 18.6768814 6.95816949 19.6383051 6.44481356 20.3064407 6.93762712 20.163661 6.15538983 21.0394576 5.65444068 20.1677288 5.736"></polygon>
                        <polygon id="polygon66" points="16.0861017 3.36915254 15.6626441 4.14732203 14.7333559 4.33464407 15.3730169 4.61572881 14.9412203 5.37742373 15.8373559 4.77050847 16.6602712 5.21450847 16.3629153 4.44061017 17.1292881 3.83755932 16.2368136 4.01267797"></polygon>
                        <polygon id="polygon68" points="21.5867797 0.0953898305 20.9467119 0.998644068 19.8093559 1.13410169 20.5852881 1.51240678 19.9338305 2.45877966 21.091322 1.79816949 21.9604068 2.39959322 21.7472542 1.41274576 22.7995932 0.778372881 21.684 0.910983051"></polygon>
                    </g>
                    <g id="Dot" transform="translate(40.067797, 25.220339)">
                        <path d="M0.157220339,4.03016949 C0.157220339,4.53518644 0.532067797,6.01810169 2.30786441,6.01810169 C4.24718644,6.01810169 6.28413559,4.14427119 6.28413559,2.27044068 C6.28413559,1.11355932 5.46935593,0.184881356 4.18210169,0.184881356 C1.70542373,0.184881356 0.157220339,2.56372881 0.157220339,4.03016949 L0.157220339,4.03016949 Z" id="White_2_" fill="#FFFFFF"></path>
                        <path d="M0.74379661,3.78040678 C0.74379661,4.64928814 1.30861017,5.47505085 2.38413559,5.47505085 C4.08976271,5.47505085 5.67010169,3.86644068 5.67010169,2.30867797 C5.67010169,1.48840678 5.03410169,0.66020339 4.00271186,0.66020339 C2.16976271,0.66 0.74379661,2.56128814 0.74379661,3.78040678 L0.74379661,3.78040678 Z" id="Red_1_" fill="#E13A3E"></path>
                    </g>
                </g>
            </g>
        </g>
    </g>
</svg>