<?xml version="1.0" encoding="UTF-8" standalone="no"?>
<svg width="30px" height="30px" viewBox="0 0 30 30" version="1.1" xmlns="http://www.w3.org/2000/svg" xmlns:xlink="http://www.w3.org/1999/xlink">
    <!-- Generator: Sketch 40.3 (33839) - http://www.bohemiancoding.com/sketch -->
    <title>bruins</title>
    <desc>Created with Sketch.</desc>
    <defs></defs>
    <g id="Page-1" stroke="none" stroke-width="1" fill="none" fill-rule="evenodd">
        <g id="bruins">
            <g id="Page-1">
                <g id="Artboard">
                    <g id="bruins">
                        <g id="Layer_7">
                            <g id="Group">
                                <path d="M14.9986784,28.6311013 C11.3573128,28.6311013 7.93387665,27.2130396 5.35903085,24.6381939 C2.78431718,22.0632158 1.36625551,18.6396476 1.36625551,14.9986784 C1.36625551,11.3573128 2.78418502,7.93387665 5.35903085,5.359163 C7.93387665,2.78444934 11.3573128,1.36638766 14.9986784,1.36638766 C18.6399119,1.36638766 22.0632158,2.78444934 24.6380617,5.359163 C27.2127754,7.93387665 28.6311013,11.3574449 28.6311013,14.9986784 C28.6311013,18.6397797 27.2129075,22.0632158 24.6380617,24.6381939 C22.0632158,27.2129075 18.6397797,28.6311013 14.9986784,28.6311013 L14.9986784,28.6311013 L14.9986784,28.6311013 L14.9986784,28.6311013 Z" id="Shape" fill="#FFFFFF"></path>
                                <path d="M14.9985463,2.73237886 C21.7727313,2.73237886 27.2648458,8.2240969 27.2648458,14.9985463 C27.2648458,21.7725991 21.7727313,27.2647137 14.9985463,27.2647137 C8.2240969,27.2647137 2.73237886,21.7724669 2.73237886,14.9985463 C2.73237886,8.2240969 8.2240969,2.73237886 14.9985463,2.73237886 L14.9985463,2.73237886 L14.9985463,2.73237886 Z M14.9985463,0 C12.9750661,0 11.0105286,0.396872247 9.1596476,1.17977974 C7.3732599,1.93533039 5.7695154,3.01638766 4.39295154,4.39295154 C3.01638766,5.7695154 1.93533039,7.3732599 1.17977974,9.1596476 C0.396872247,11.0105286 0,12.9749339 0,14.9985463 C0,17.0220264 0.396872247,18.986696 1.17977974,20.8373128 C1.93533039,22.6238326 3.01638766,24.2274449 4.39295154,25.6038767 C5.7695154,26.9805727 7.3732599,28.0617621 9.1595154,28.8171806 C11.0103965,29.6000881 12.9749339,29.9970925 14.9985463,29.9970925 C17.0220264,29.9970925 18.986696,29.6000881 20.8374449,28.8171806 C22.6238326,28.06163 24.2274449,26.9805727 25.6040088,25.6040088 C26.9807048,24.2274449 28.0617621,22.6237005 28.8171806,20.8374449 C29.6000881,18.986696 29.9970925,17.0220264 29.9970925,14.9985463 C29.9970925,12.9749339 29.6000881,11.0103965 28.8171806,9.1595154 C28.06163,7.37312775 26.9807048,5.7695154 25.6040088,4.39295154 C24.2274449,3.01638766 22.6237005,1.93533039 20.8374449,1.17977974 C18.9868282,0.396872247 17.0220264,0 14.9985463,0 L14.9985463,0 L14.9985463,0 L14.9985463,0 Z" id="Shape" fill="#FFC422"></path>
                            </g>
                        </g>
                        <g id="Layer_2" transform="translate(1.057268, 1.057268)">
                            <g id="Group">
                                <g id="Shape" transform="translate(12.422908, 0.000000)">
                                    <polygon fill="#FFC422" points="2.66207049 8.6195154 0.369647577 8.61872245 0.369647577 0.460837004 2.66207049 0.460837004"></polygon>
                                    <path d="M3.00356828,0.119339207 L3.00356828,8.96114535 L0.0280176212,8.96022025 L0.0280176212,0.119339207 L3.00356828,0.119339207 L3.00356828,0.119339207 L3.00356828,0.119339207 Z M2.32057269,0.80246696 L0.711145375,0.80246696 L0.711145375,8.27735685 L2.32057269,8.27788545 L2.32057269,0.80246696 L2.32057269,0.80246696 L2.32057269,0.80246696 L2.32057269,0.80246696 Z" fill="#231F20"></path>
                                </g>
                                <g id="Shape" transform="translate(12.422908, 18.898678)">
                                    <polygon fill="#FFC422" points="2.66207049 8.54444935 0.369515419 8.54444935 0.369515419 0.405198238 2.66207049 0.405198238"></polygon>
                                    <path d="M3.00356828,0.063568282 L3.00356828,8.88594715 L0.0280176212,8.88594715 L0.0280176212,0.063568282 L3.00356828,0.063568282 L3.00356828,0.063568282 L3.00356828,0.063568282 Z M2.32057269,0.746696035 L0.711145375,0.746696035 L0.711145375,8.2028194 L2.32057269,8.2028194 L2.32057269,0.746696035 L2.32057269,0.746696035 L2.32057269,0.746696035 L2.32057269,0.746696035 Z" fill="#231F20"></path>
                                </g>
                                <g id="Shape" transform="translate(0.000000, 3.039648)">
                                    <path d="M22.6678414,21.2625991 L17.0553304,15.6500881 L17.5177533,15.1877973 L17.6180616,15.0876211 L17.6177973,14.9459471 L17.615815,12.9684581 L24.2888987,19.6414097 L22.6678414,21.2625991 L22.6678414,21.2625991 L22.6678414,21.2625991 L22.6678414,21.2625991 Z M5.20955945,21.2625991 L3.58850221,19.6414097 L10.5884141,12.6416299 L11.0770044,12.1531718 L11.0770044,15.3948898 L5.20955945,21.2625991 L5.20955945,21.2625991 L5.20955945,21.2625991 L5.20955945,21.2625991 Z M27.4296476,12.0586784 L17.5305727,12.0586784 L16.8700441,12.0586784 L16.5414978,11.7301321 L16.4414538,11.6300881 L16.3001762,11.6300881 L11.4187665,11.6286344 L11.0771366,11.6285022 L11.0771366,11.9701321 L11.0771366,12.0586784 L10.3470925,12.0586784 L0.447621145,12.0586784 L0.447621145,9.7659912 L10.3468282,9.7659912 L11.0834802,9.7659912 L11.0834802,9.87277535 L11.0834802,10.2142732 L11.424978,10.2142732 L16.3062555,10.2142732 L16.4477973,10.2142732 L16.5478414,10.1142291 L16.8960793,9.7659912 L17.5305727,9.7659912 L27.4296476,9.7659912 L27.4296476,12.0586784 L27.4296476,12.0586784 L27.4296476,12.0586784 L27.4296476,12.0586784 Z M11.0834802,9.67810575 L10.588282,9.18303965 L3.58850221,2.18325991 L5.20955945,0.562202645 L11.0834802,6.43612335 L11.0834802,9.67810575 L11.0834802,9.67810575 L11.0834802,9.67810575 L11.0834802,9.67810575 Z M17.6242732,8.84788545 L17.6221586,6.89577095 L17.6220264,6.7544934 L17.5219824,6.6545815 L17.0485903,6.18118945 L22.6678414,0.562202645 L24.2890308,2.18325991 L17.6242732,8.84788545 L17.6242732,8.84788545 L17.6242732,8.84788545 L17.6242732,8.84788545 Z" fill="#FFC422"></path>
                                    <path d="M22.6678414,0.0791629955 L24.7719383,2.18325991 L17.5305727,9.4244934 L27.7714097,9.4244934 L27.7714097,12.400044 L17.5305727,12.400044 L24.7719383,19.6414097 L22.6678414,21.7455066 L16.5724229,15.6500881 L17.2764317,14.9462114 L17.274185,12.9459912 L16.2999119,11.9715859 L11.4186343,11.9701321 L11.4186343,15.5362996 L5.20955945,21.7453744 L3.10546255,19.6414097 L10.3468282,12.400044 L0.106123348,12.400044 L0.106123348,9.4244934 L10.3469603,9.4244934 L3.10546255,2.18325991 L5.20955945,0.0791629955 L11.424978,6.2945815 L11.424978,9.8729075 L16.3062555,9.8729075 L17.2827754,8.89638765 L17.2806608,6.8961674 L16.5656828,6.1813216 L22.6678414,0.0791629955 L22.6678414,0.0791629955 L22.6678414,0.0791629955 Z M22.6678414,1.04511013 L17.5318943,6.18118945 L17.7637005,6.4129956 L17.9635242,6.6128194 L17.9637886,6.89537445 L17.964978,8.02427315 L23.8057268,2.18325991 L22.6678414,1.04511013 L22.6678414,1.04511013 L22.6678414,1.04511013 L22.6678414,1.04511013 Z M5.20955945,1.04524229 L4.07154185,2.18325991 L10.7418502,8.8535683 L10.7418502,6.57753305 L5.20955945,1.04524229 L5.20955945,1.04524229 L5.20955945,1.04524229 L5.20955945,1.04524229 Z M27.0881498,10.1076212 L17.5305727,10.1076212 L17.037489,10.1076212 L16.7892951,10.355815 L16.5893392,10.5559031 L16.3062555,10.5559031 L11.424978,10.5559031 L10.7418502,10.5559031 L10.7418502,10.1076212 L10.3468282,10.1076212 L0.789118945,10.1076212 L0.789118945,11.7170485 L10.3469603,11.7170485 L10.7356387,11.7170485 L10.7356387,11.2867401 L11.4190309,11.2870044 L16.3001762,11.2885903 L16.5829956,11.2887225 L16.7830837,11.4886784 L17.0115859,11.7171806 L17.530837,11.7171806 L27.0884141,11.7171806 L27.0884141,10.1076212 L27.0881498,10.1076212 L27.0881498,10.1076212 L27.0881498,10.1076212 Z M10.7355066,12.977445 L4.07154185,19.6414097 L5.20955945,20.7794273 L10.7355066,15.2534802 L10.7355066,12.977445 L10.7355066,12.977445 L10.7355066,12.977445 L10.7355066,12.977445 Z M17.9582379,13.7937886 L17.9594273,14.9455506 L17.9598238,15.2290308 L17.7594713,15.4295154 L17.5383701,15.6502203 L22.6678414,20.7796917 L23.8057268,19.641674 L17.9582379,13.7937886 L17.9582379,13.7937886 L17.9582379,13.7937886 L17.9582379,13.7937886 Z" fill="#231F20"></path>
                                </g>
                            </g>
                        </g>
                        <g id="Layer_3_copy" transform="translate(8.061674, 6.607930)">
                            <g id="Group">
                                <g id="Shape" fill="#231F20">
                                    <path d="M10.7081498,16.1433039 L10.4698678,16.1433039 L1.20237886,16.1433039 L0.61678414,16.1433039 L0.61678414,15.5578414 L0.61678414,14.0451542 L0.61678414,13.7944494 L0.798370045,13.6213216 L1.69030837,12.7711453 L1.69030837,4.05013216 L0.798237885,3.19876652 L0.6169163,3.02577092 L0.6169163,2.77519824 L0.6169163,1.26158591 L0.6169163,0.67612335 L1.20251102,0.67612335 L10.4701321,0.67612335 L10.7086784,0.67612335 L10.8792952,0.84290749 L13.0772246,2.99048458 L13.2535242,3.16281939 L13.2535242,3.40929516 L13.2535242,7.11753305 L13.2535242,7.3669163 L13.0740528,7.5396476 L12.1692951,8.4089868 L13.0744494,9.2812335 L13.2535242,9.45396475 L13.2535242,9.70295155 L13.2535242,13.411718 L13.2535242,13.658326 L13.0770925,13.8306608 L10.879163,15.9767842 L10.7081498,16.1433039 L10.7081498,16.1433039 L10.7081498,16.1433039 L10.7081498,16.1433039 Z M4.99969163,12.8261233 L9.05312775,12.8261233 L9.6861674,12.1930837 L9.6845815,10.6777533 L9.0529956,10.0460352 L4.99969163,10.0448458 L4.99969163,12.8261233 L4.99969163,12.8261233 L4.99969163,12.8261233 L4.99969163,12.8261233 Z M5.00603525,6.7764317 L9.0593392,6.7764317 L9.692511,6.1429956 L9.6909251,4.62806167 L9.0590749,3.99621145 L5.00603525,3.99502202 L5.00603525,6.7764317 L5.00603525,6.7764317 L5.00603525,6.7764317 L5.00603525,6.7764317 Z"></path>
                                    <path d="M10.4698678,1.26158591 L12.6677973,3.409163 L12.6677973,7.1174009 L11.3245374,8.408326 L12.6677973,9.7028194 L12.6677973,13.4115859 L10.4698678,15.5577093 L1.20237885,15.5577093 L1.20237885,14.0451542 L2.27590308,13.0221146 L2.27590308,3.79955947 L1.20237885,2.77519824 L1.20237885,1.26158591 L10.4698678,1.26158591 L10.4698678,1.26158591 L10.4698678,1.26158591 Z M4.42057268,7.36189425 L9.3018502,7.36189425 L10.27837,6.38537445 L10.2762555,4.38515419 L9.3018502,3.41088105 L4.42057268,3.40929516 L4.42057268,7.36189425 L4.42057268,7.36189425 L4.42057268,7.36189425 Z M4.41422907,13.4115859 L9.2955066,13.4115859 L10.2720265,12.4350661 L10.2697797,10.4348458 L9.2955066,9.46044055 L4.41422907,9.4589868 L4.41422907,13.4115859 L4.41422907,13.4115859 L4.41422907,13.4115859 Z M10.9470925,0.090660793 L10.47,0.090660793 L1.20237886,0.090660793 L0.0314537445,0.090660793 L0.0314537445,1.26158591 L0.0314537445,2.77519824 L0.0314537445,3.27634361 L0.393964757,3.6223348 L1.10484582,4.30070485 L1.10484582,12.5205727 L0.394493392,13.1976211 L0.0314537445,13.5436124 L0.0314537445,14.0451542 L0.0314537445,15.5577093 L0.0314537445,16.7287665 L1.20237886,16.7287665 L10.47,16.7287665 L10.9468282,16.7287665 L11.2879295,16.3955947 L13.4859912,14.2494714 L13.8388547,13.9049339 L13.8388547,13.411718 L13.8388547,9.70295155 L13.8388547,9.20497795 L13.4804406,8.8596476 L13.0135242,8.4096476 L13.4793832,7.96189425 L13.8388547,7.61629955 L13.8388547,7.11753305 L13.8388547,3.40916299 L13.8388547,2.91621146 L13.4862555,2.57167401 L11.2881939,0.424096916 L10.9470925,0.090660793 L10.9470925,0.090660793 L10.9470925,0.090660793 L10.9470925,0.090660793 Z M5.59162995,6.190837 L5.59162995,4.58061674 L8.81669605,4.58154185 L9.1055947,4.87057268 L9.10678415,5.9007489 L8.81696035,6.19070485 L5.59162995,6.19070485 L5.59162995,6.190837 L5.59162995,6.190837 L5.59162995,6.190837 Z M5.58528635,12.2405287 L5.58528635,10.6304406 L8.81022025,10.6313657 L9.0992511,10.9205287 L9.10044055,11.9505727 L8.81061675,12.2403965 L5.58528635,12.2403965 L5.58528635,12.2405287 L5.58528635,12.2405287 L5.58528635,12.2405287 Z"></path>
                                </g>
                                <g id="Shape" transform="translate(0.660793, 0.660793)">
                                    <path d="M9.9182379,15.1653304 L9.8090749,15.1653304 L0.541585905,15.1653304 L0.273171806,15.1653304 L0.273171806,14.8970484 L0.273171806,13.3846255 L0.273171806,13.2696476 L0.356299559,13.1903524 L1.34656388,12.2463436 L1.34656388,3.25361233 L0.356167401,2.30854625 L0.273171806,2.2292511 L0.273171806,2.11440529 L0.273171806,0.60079295 L0.273171806,0.332378854 L0.541585905,0.332378854 L9.80920705,0.332378854 L9.91837005,0.332378854 L9.9967401,0.40876652 L12.1946696,2.55647577 L12.2755506,2.63537445 L12.2755506,2.74837004 L12.2755506,6.45660795 L12.2755506,6.5709251 L12.1929516,6.6500881 L11.0509692,7.74779735 L12.193348,8.84854625 L12.2755506,8.92770925 L12.2755506,9.04189425 L12.2755506,12.7506608 L12.2755506,12.8639207 L12.1945375,12.9428194 L9.99660795,15.0889427 L9.9182379,15.1653304 L9.9182379,15.1653304 L9.9182379,15.1653304 L9.9182379,15.1653304 Z M4.02185022,12.4826431 L8.5238326,12.4826431 L9.3428194,11.6636564 L9.34070485,9.8853304 L8.52370045,9.06819385 L4.02171806,9.0667401 L4.02171806,12.4826431 L4.02185022,12.4826431 L4.02185022,12.4826431 L4.02185022,12.4826431 Z M4.02819383,6.43255505 L8.5299119,6.43255505 L9.34903085,5.6135683 L9.34704845,3.83550661 L8.52977975,3.01823789 L4.02819383,3.0169163 L4.02819383,6.43255505 L4.02819383,6.43255505 L4.02819383,6.43255505 L4.02819383,6.43255505 Z" fill="#231F20"></path>
                                    <path d="M9.8090749,0.60079295 L12.0070044,2.74837004 L12.0070044,6.45660795 L10.6637445,7.74753305 L12.0070044,9.04202645 L12.0070044,12.7507929 L9.8090749,14.8969163 L0.541585905,14.8969163 L0.541585905,13.3843612 L1.61511013,12.3613216 L1.61511013,3.13876652 L0.541585905,2.11440529 L0.541585905,0.60079295 L9.8090749,0.60079295 L9.8090749,0.60079295 L9.8090749,0.60079295 Z M3.75977974,6.7011013 L8.64105725,6.7011013 L9.6175771,5.7245815 L9.61546255,3.72436123 L8.64105725,2.75008811 L3.75977974,2.7485022 L3.75977974,6.7011013 L3.75977974,6.7011013 L3.75977974,6.7011013 Z M3.75343613,12.7507929 L8.63471365,12.7507929 L9.6112335,11.7742731 L9.6089868,9.77405285 L8.63471365,8.7996476 L3.75343613,8.79819385 L3.75343613,12.7507929 L3.75343613,12.7507929 L3.75343613,12.7507929 Z M10.0277974,0.0640969165 L9.8090749,0.0640969165 L0.541585905,0.0640969165 L0.00488986784,0.0640969165 L0.00488986784,0.60079295 L0.00488986784,2.11440529 L0.00488986784,2.34409692 L0.171013216,2.50268722 L1.07828194,3.36845815 L1.07828194,12.1314978 L0.171277533,12.9959471 L0.00488986784,13.1545374 L0.00488986784,13.3843612 L0.00488986784,14.8969163 L0.00488986784,15.4337445 L0.541585905,15.4337445 L9.80920705,15.4337445 L10.0276652,15.4337445 L10.1841409,15.2811013 L12.3820705,13.1349779 L12.5439648,12.9770484 L12.5439648,12.7509251 L12.5439648,9.0421586 L12.5439648,8.81378855 L12.3795595,8.6555947 L11.4381938,7.748326 L12.3790308,6.84370045 L12.5439648,6.68537445 L12.5439648,6.45687225 L12.5439648,2.74837004 L12.5439648,2.52251101 L12.3822026,2.3645815 L10.1842731,0.217004405 L10.0277974,0.0640969165 L10.0277974,0.0640969165 L10.0277974,0.0640969165 L10.0277974,0.0640969165 Z M4.29660793,6.16427315 L4.29660793,3.28533039 L8.4187665,3.28665198 L9.0788987,3.9469163 L9.08061675,5.50255505 L8.4187665,6.1644053 L4.29660793,6.1644053 L4.29660793,6.16427315 L4.29660793,6.16427315 L4.29660793,6.16427315 Z M4.29013216,12.2142291 L4.29013216,9.33528635 L8.41229075,9.33660795 L9.07255505,9.99687225 L9.07427315,11.552511 L8.41229075,12.2143613 L4.29013216,12.2143613 L4.29013216,12.2142291 L4.29013216,12.2142291 L4.29013216,12.2142291 Z" fill="#FFC422"></path>
                                </g>
                            </g>
                        </g>
                        <g id="Layer_6" transform="translate(0.528635, 0.528635)" fill="#231F20">
                            <path d="M14.4699119,2.20374449 C21.2440969,2.20374449 26.7362114,7.69546255 26.7362114,14.4699119 C26.7362114,21.2439647 21.2440969,26.7360793 14.4699119,26.7360793 C7.69546255,26.7360793 2.2037445,21.2438326 2.2037445,14.4699119 C2.2037445,7.69546255 7.69546255,2.20374449 14.4699119,2.20374449 L14.4699119,2.20374449 L14.4699119,2.20374449 Z M14.4699119,0.0569603525 C12.5251983,0.0569603525 10.6373128,0.438237885 8.8589868,1.19048458 C7.14237885,1.91656388 5.60127755,2.95546255 4.27823789,4.2785022 C2.95519824,5.6014097 1.91629956,7.14264315 1.19022026,8.85911895 C0.438237885,10.6373128 0.056828194,12.5250661 0.056828194,14.4699119 C0.056828194,16.4146256 0.438237885,18.3023789 1.19035242,20.0807049 C1.91643172,21.7970484 2.95533039,23.3382819 4.27837004,24.6611894 C5.60127755,25.9843612 7.142511,27.0232599 8.8589868,27.7493392 C10.637445,28.5015859 12.5251983,28.8828634 14.4699119,28.8828634 C16.4147577,28.8828634 18.302511,28.5015859 20.080837,27.7493392 C21.7971806,27.0232599 23.3384141,25.9843612 24.6614537,24.6613216 C25.9844934,23.3382819 27.0235243,21.7970484 27.7494714,20.0807049 C28.5017181,18.3023789 28.8829956,16.4146256 28.8829956,14.4699119 C28.8829956,12.5250661 28.5017181,10.6373128 27.7494714,8.8589868 C27.0235243,7.142511 25.9844934,5.60127755 24.6614537,4.27837004 C23.3384141,2.95533039 21.7971806,1.91643172 20.0807049,1.19035242 C18.302511,0.438237885 16.4148899,0.0569603525 14.4699119,0.0569603525 L14.4699119,0.0569603525 L14.4699119,0.0569603525 L14.4699119,0.0569603525 Z" id="Shape"></path>
                        </g>
                    </g>
                </g>
            </g>
        </g>
    </g>
</svg>