<?xml version="1.0" encoding="UTF-8" standalone="no"?>
<svg width="60px" height="60px" viewBox="0 0 60 60" version="1.1" xmlns="http://www.w3.org/2000/svg" xmlns:xlink="http://www.w3.org/1999/xlink">
    <!-- Generator: Sketch 40.3 (33839) - http://www.bohemiancoding.com/sketch -->
    <title>Artboard</title>
    <desc>Created with Sketch.</desc>
    <defs></defs>
    <g id="Page-1" stroke="none" stroke-width="1" fill="none" fill-rule="evenodd">
        <g id="Artboard">
            <g id="bruins">
                <g id="Layer_7">
                    <g id="Group">
                        <path d="M29.9973568,57.2622026 C22.7146256,57.2622026 15.8677533,54.4260793 10.7180617,49.2763877 C5.56863436,44.1264317 2.73251101,37.2792952 2.73251101,29.9973568 C2.73251101,22.7146256 5.56837004,15.8677533 10.7180617,10.718326 C15.8677533,5.56889868 22.7146256,2.73277533 29.9973568,2.73277533 C37.2798238,2.73277533 44.1264317,5.56889868 49.2761233,10.718326 C54.4255507,15.8677533 57.2622026,22.7148899 57.2622026,29.9973568 C57.2622026,37.2795595 54.425815,44.1264317 49.2761233,49.2763877 C44.1264317,54.425815 37.2795595,57.2622026 29.9973568,57.2622026 L29.9973568,57.2622026 L29.9973568,57.2622026 Z" id="Shape" fill="#FFFFFF"></path>
                        <path d="M29.9970925,5.46475771 C43.5454626,5.46475771 54.5296916,16.4481938 54.5296916,29.9970925 C54.5296916,43.5451982 43.5454626,54.5294273 29.9970925,54.5294273 C16.4481938,54.5294273 5.46475771,43.5449339 5.46475771,29.9970925 C5.46475771,16.4481938 16.4481938,5.46475771 29.9970925,5.46475771 L29.9970925,5.46475771 Z M29.9970925,0 C25.9501322,0 22.0210573,0.793744493 18.3192952,2.35955947 C14.7465198,3.87066079 11.5390308,6.03277533 8.78590308,8.78590308 C6.03277533,11.5390308 3.87066079,14.7465198 2.35955947,18.3192952 C0.793744493,22.0210573 0,25.9498678 0,29.9970925 C0,34.0440529 0.793744493,37.9733921 2.35955947,41.6746256 C3.87066079,45.2476652 6.03277533,48.4548899 8.78590308,51.2077533 C11.5390308,53.9611454 14.7465198,56.1235242 18.3190308,57.6343612 C22.020793,59.2001762 25.9498678,59.994185 29.9970925,59.994185 C34.0440529,59.994185 37.9733921,59.2001762 41.6748899,57.6343612 C45.2476652,56.1232599 48.4548899,53.9611454 51.2080176,51.2080176 C53.9614097,48.4548899 56.1235242,45.2474009 57.6343612,41.6748899 C59.2001762,37.9733921 59.994185,34.0440529 59.994185,29.9970925 C59.994185,25.9498678 59.2001762,22.020793 57.6343612,18.3190308 C56.1232599,14.7462555 53.9614097,11.5390308 51.2080176,8.78590308 C48.4548899,6.03277533 45.2474009,3.87066079 41.6748899,2.35955947 C37.9736564,0.793744493 34.0440529,0 29.9970925,0 L29.9970925,0 L29.9970925,0 Z" id="Shape" fill="#FFC422"></path>
                    </g>
                </g>
                <g id="Layer_2" transform="translate(2.114537, 2.114537)">
                    <g id="Group">
                        <g transform="translate(24.845815, 0.000000)" id="Shape">
                            <polygon fill="#FFC422" points="5.32414097 17.2390308 0.739295154 17.2374449 0.739295154 0.921674009 5.32414097 0.921674009"></polygon>
                            <path d="M6.00713656,0.238678414 L6.00713656,17.9222907 L0.0560352423,17.9204405 L0.0560352423,0.238678414 L6.00713656,0.238678414 L6.00713656,0.238678414 Z M4.64114537,1.60493392 L1.42229075,1.60493392 L1.42229075,16.5547137 L4.64114537,16.5557709 L4.64114537,1.60493392 L4.64114537,1.60493392 L4.64114537,1.60493392 Z" fill="#231F20"></path>
                        </g>
                        <g transform="translate(24.845815, 37.797357)" id="Shape">
                            <polygon fill="#FFC422" points="5.32414097 17.0888987 0.739030837 17.0888987 0.739030837 0.810396476 5.32414097 0.810396476"></polygon>
                            <path d="M6.00713656,0.127136564 L6.00713656,17.7718943 L0.0560352423,17.7718943 L0.0560352423,0.127136564 L6.00713656,0.127136564 L6.00713656,0.127136564 Z M4.64114537,1.49339207 L1.42229075,1.49339207 L1.42229075,16.4056388 L4.64114537,16.4056388 L4.64114537,1.49339207 L4.64114537,1.49339207 L4.64114537,1.49339207 Z" fill="#231F20"></path>
                        </g>
                        <g transform="translate(0.000000, 6.079295)" id="Shape">
                            <path d="M45.3356828,42.5251982 L34.1106608,31.3001762 L35.0355066,30.3755947 L35.2361233,30.1752423 L35.2355947,29.8918943 L35.23163,25.9369163 L48.5777974,39.2828194 L45.3356828,42.5251982 L45.3356828,42.5251982 L45.3356828,42.5251982 Z M10.4191189,42.5251982 L7.17700441,39.2828194 L21.1768282,25.2832599 L22.1540088,24.3063436 L22.1540088,30.7897797 L10.4191189,42.5251982 L10.4191189,42.5251982 L10.4191189,42.5251982 Z M54.8592952,24.1173568 L35.0611454,24.1173568 L33.7400881,24.1173568 L33.0829956,23.4602643 L32.8829075,23.2601762 L32.6003524,23.2601762 L22.837533,23.2572687 L22.1542731,23.2570044 L22.1542731,23.9402643 L22.1542731,24.1173568 L20.694185,24.1173568 L0.895242291,24.1173568 L0.895242291,19.5319824 L20.6936564,19.5319824 L22.1669604,19.5319824 L22.1669604,19.7455507 L22.1669604,20.4285463 L22.8499559,20.4285463 L32.612511,20.4285463 L32.8955947,20.4285463 L33.0956828,20.2284581 L33.7921586,19.5319824 L35.0611454,19.5319824 L54.8592952,19.5319824 L54.8592952,24.1173568 L54.8592952,24.1173568 L54.8592952,24.1173568 Z M22.1669604,19.3562115 L21.1765639,18.3660793 L7.17700441,4.36651982 L10.4191189,1.12440529 L22.1669604,12.8722467 L22.1669604,19.3562115 L22.1669604,19.3562115 L22.1669604,19.3562115 Z M35.2485463,17.6957709 L35.2443172,13.7915419 L35.2440529,13.5089868 L35.0439648,13.309163 L34.0971806,12.3623789 L45.3356828,1.12440529 L48.5780617,4.36651982 L35.2485463,17.6957709 L35.2485463,17.6957709 L35.2485463,17.6957709 Z" fill="#FFC422"></path>
                            <path d="M45.3356828,0.158325991 L49.5438767,4.36651982 L35.0611454,18.8489868 L55.5428194,18.8489868 L55.5428194,24.8000881 L35.0611454,24.8000881 L49.5438767,39.2828194 L45.3356828,43.4910132 L33.1448458,31.3001762 L34.5528634,29.8924229 L34.54837,25.8919824 L32.5998238,23.9431718 L22.8372687,23.9402643 L22.8372687,31.0725991 L10.4191189,43.4907489 L6.21092511,39.2828194 L20.6936564,24.8000881 L0.212246696,24.8000881 L0.212246696,18.8489868 L20.6939207,18.8489868 L6.21092511,4.36651982 L10.4191189,0.158325991 L22.8499559,12.589163 L22.8499559,19.745815 L32.612511,19.745815 L34.5655507,17.7927753 L34.5613216,13.7923348 L33.1313656,12.3626432 L45.3356828,0.158325991 L45.3356828,0.158325991 Z M45.3356828,2.09022026 L35.0637885,12.3623789 L35.5274009,12.8259912 L35.9270485,13.2256388 L35.9275771,13.7907489 L35.9299559,16.0485463 L47.6114537,4.36651982 L45.3356828,2.09022026 L45.3356828,2.09022026 L45.3356828,2.09022026 Z M10.4191189,2.09048458 L8.1430837,4.36651982 L21.4837004,17.7071366 L21.4837004,13.1550661 L10.4191189,2.09048458 L10.4191189,2.09048458 L10.4191189,2.09048458 Z M54.1762996,20.2152423 L35.0611454,20.2152423 L34.074978,20.2152423 L33.5785903,20.71163 L33.1786784,21.1118062 L32.612511,21.1118062 L22.8499559,21.1118062 L21.4837004,21.1118062 L21.4837004,20.2152423 L20.6936564,20.2152423 L1.57823789,20.2152423 L1.57823789,23.4340969 L20.6939207,23.4340969 L21.4712775,23.4340969 L21.4712775,22.5734802 L22.8380617,22.5740088 L32.6003524,22.5771806 L33.1659912,22.5774449 L33.5661674,22.9773568 L34.0231718,23.4343612 L35.061674,23.4343612 L54.1768282,23.4343612 L54.1768282,20.2152423 L54.1762996,20.2152423 L54.1762996,20.2152423 Z M21.4710132,25.9548899 L8.1430837,39.2828194 L10.4191189,41.5588546 L21.4710132,30.5069604 L21.4710132,25.9548899 L21.4710132,25.9548899 L21.4710132,25.9548899 Z M35.9164758,27.5875771 L35.9188546,29.8911013 L35.9196476,30.4580617 L35.5189427,30.8590308 L35.0767401,31.3004405 L45.3356828,41.5593833 L47.6114537,39.283348 L35.9164758,27.5875771 L35.9164758,27.5875771 L35.9164758,27.5875771 Z" fill="#231F20"></path>
                        </g>
                    </g>
                </g>
                <g id="Layer_3_copy" transform="translate(16.123348, 13.215859)">
                    <g id="Group">
                        <g id="Shape" fill="#231F20">
                            <path d="M21.4162996,32.2866079 L20.9397357,32.2866079 L2.40475771,32.2866079 L1.23356828,32.2866079 L1.23356828,31.1156828 L1.23356828,28.0903084 L1.23356828,27.5888987 L1.59674009,27.2426432 L3.38061674,25.5422907 L3.38061674,8.10026432 L1.59647577,6.39753304 L1.2338326,6.05154185 L1.2338326,5.55039648 L1.2338326,2.52317181 L1.2338326,1.3522467 L2.40502203,1.3522467 L20.9402643,1.3522467 L21.4173568,1.3522467 L21.7585903,1.68581498 L26.1544493,5.98096916 L26.5070485,6.32563877 L26.5070485,6.81859031 L26.5070485,14.2350661 L26.5070485,14.7338326 L26.1481057,15.0792952 L24.3385903,16.8179736 L26.1488987,18.562467 L26.5070485,18.9079295 L26.5070485,19.4059031 L26.5070485,26.8234361 L26.5070485,27.316652 L26.154185,27.6613216 L21.758326,31.9535683 L21.4162996,32.2866079 L21.4162996,32.2866079 L21.4162996,32.2866079 Z M9.99938326,25.6522467 L18.1062555,25.6522467 L19.3723348,24.3861674 L19.369163,21.3555066 L18.1059912,20.0920705 L9.99938326,20.0896916 L9.99938326,25.6522467 L9.99938326,25.6522467 L9.99938326,25.6522467 Z M10.0120705,13.5528634 L18.1186784,13.5528634 L19.385022,12.2859912 L19.3818502,9.25612335 L18.1181498,7.99242291 L10.0120705,7.99004405 L10.0120705,13.5528634 L10.0120705,13.5528634 L10.0120705,13.5528634 Z"></path>
                            <path d="M20.9397357,2.52317181 L25.3355947,6.81832599 L25.3355947,14.2348018 L22.6490749,16.816652 L25.3355947,19.4056388 L25.3355947,26.8231718 L20.9397357,31.1154185 L2.40475771,31.1154185 L2.40475771,28.0903084 L4.55180617,26.0442291 L4.55180617,7.59911894 L2.40475771,5.55039648 L2.40475771,2.52317181 L20.9397357,2.52317181 L20.9397357,2.52317181 Z M8.84114537,14.7237885 L18.6037004,14.7237885 L20.5567401,12.7707489 L20.552511,8.77030837 L18.6037004,6.82176211 L8.84114537,6.81859031 L8.84114537,14.7237885 L8.84114537,14.7237885 Z M8.82845815,26.8231718 L18.5910132,26.8231718 L20.5440529,24.8701322 L20.5395595,20.8696916 L18.5910132,18.9208811 L8.82845815,18.9179736 L8.82845815,26.8231718 L8.82845815,26.8231718 Z M21.894185,0.181321586 L20.94,0.181321586 L2.40475771,0.181321586 L0.062907489,0.181321586 L0.062907489,2.52317181 L0.062907489,5.55039648 L0.062907489,6.55268722 L0.787929515,7.2446696 L2.20969163,8.60140969 L2.20969163,25.0411454 L0.788986784,26.3952423 L0.062907489,27.0872247 L0.062907489,28.0903084 L0.062907489,31.1154185 L0.062907489,33.457533 L2.40475771,33.457533 L20.94,33.457533 L21.8936564,33.457533 L22.575859,32.7911894 L26.9719824,28.4989427 L27.6777093,27.8098678 L27.6777093,26.8234361 L27.6777093,19.4059031 L27.6777093,18.4099559 L26.9608811,17.7192952 L26.0270485,16.8192952 L26.9587665,15.9237885 L27.6777093,15.2325991 L27.6777093,14.2350661 L27.6777093,6.81832599 L27.6777093,5.83242291 L26.972511,5.14334802 L22.5763877,0.848193833 L21.894185,0.181321586 L21.894185,0.181321586 L21.894185,0.181321586 Z M11.1832599,12.381674 L11.1832599,9.16123348 L17.6333921,9.1630837 L18.2111894,9.74114537 L18.2135683,11.8014978 L17.6339207,12.3814097 L11.1832599,12.3814097 L11.1832599,12.381674 L11.1832599,12.381674 Z M11.1705727,24.4810573 L11.1705727,21.2608811 L17.6204405,21.2627313 L18.1985022,21.8410573 L18.2008811,23.9011454 L17.6212335,24.480793 L11.1705727,24.480793 L11.1705727,24.4810573 L11.1705727,24.4810573 Z"></path>
                        </g>
                        <g transform="translate(1.321586, 1.321586)" id="Shape">
                            <path d="M19.8364758,30.3306608 L19.6181498,30.3306608 L1.08317181,30.3306608 L0.546343612,30.3306608 L0.546343612,29.7940969 L0.546343612,26.7692511 L0.546343612,26.5392952 L0.712599119,26.3807048 L2.69312775,24.4926872 L2.69312775,6.50722467 L0.712334802,4.61709251 L0.546343612,4.4585022 L0.546343612,4.22881057 L0.546343612,1.2015859 L0.546343612,0.664757709 L1.08317181,0.664757709 L19.6184141,0.664757709 L19.8367401,0.664757709 L19.9934802,0.81753304 L24.3893392,5.11295154 L24.5511013,5.2707489 L24.5511013,5.49674009 L24.5511013,12.9132159 L24.5511013,13.1418502 L24.3859031,13.3001762 L22.1019383,15.4955947 L24.386696,17.6970925 L24.5511013,17.8554185 L24.5511013,18.0837885 L24.5511013,25.5013216 L24.5511013,25.7278414 L24.3890749,25.8856388 L19.9932159,30.1778855 L19.8364758,30.3306608 L19.8364758,30.3306608 L19.8364758,30.3306608 Z M8.04370044,24.9652863 L17.0476652,24.9652863 L18.6856388,23.3273128 L18.6814097,19.7706608 L17.0474009,18.1363877 L8.04343612,18.1334802 L8.04343612,24.9652863 L8.04370044,24.9652863 L8.04370044,24.9652863 Z M8.05638767,12.8651101 L17.0598238,12.8651101 L18.6980617,11.2271366 L18.6940969,7.67101322 L17.0595595,6.03647577 L8.05638767,6.0338326 L8.05638767,12.8651101 L8.05638767,12.8651101 L8.05638767,12.8651101 Z" fill="#231F20"></path>
                            <path d="M19.6181498,1.2015859 L24.0140088,5.49674009 L24.0140088,12.9132159 L21.327489,15.4950661 L24.0140088,18.0840529 L24.0140088,25.5015859 L19.6181498,29.7938326 L1.08317181,29.7938326 L1.08317181,26.7687225 L3.23022026,24.7226432 L3.23022026,6.27753304 L1.08317181,4.22881057 L1.08317181,1.2015859 L19.6181498,1.2015859 L19.6181498,1.2015859 Z M7.51955947,13.4022026 L17.2821145,13.4022026 L19.2351542,11.449163 L19.2309251,7.44872247 L17.2821145,5.50017621 L7.51955947,5.49700441 L7.51955947,13.4022026 L7.51955947,13.4022026 Z M7.50687225,25.5015859 L17.2694273,25.5015859 L19.222467,23.5485463 L19.2179736,19.5481057 L17.2694273,17.5992952 L7.50687225,17.5963877 L7.50687225,25.5015859 L7.50687225,25.5015859 Z M20.0555947,0.128193833 L19.6181498,0.128193833 L1.08317181,0.128193833 L0.00977973568,0.128193833 L0.00977973568,1.2015859 L0.00977973568,4.22881057 L0.00977973568,4.68819383 L0.342026432,5.00537445 L2.15656388,6.7369163 L2.15656388,24.2629956 L0.342555066,25.9918943 L0.00977973568,26.3090749 L0.00977973568,26.7687225 L0.00977973568,29.7938326 L0.00977973568,30.867489 L1.08317181,30.867489 L19.6184141,30.867489 L20.0553304,30.867489 L20.3682819,30.5622026 L24.764141,26.2699559 L25.0879295,25.9540969 L25.0879295,25.5018502 L25.0879295,18.0843172 L25.0879295,17.6275771 L24.7591189,17.3111894 L22.8763877,15.496652 L24.7580617,13.6874009 L25.0879295,13.3707489 L25.0879295,12.9137445 L25.0879295,5.49674009 L25.0879295,5.04502203 L24.7644053,4.729163 L20.3685463,0.434008811 L20.0555947,0.128193833 L20.0555947,0.128193833 L20.0555947,0.128193833 Z M8.59321586,12.3285463 L8.59321586,6.57066079 L16.837533,6.57330396 L18.1577974,7.8938326 L18.1612335,11.0051101 L16.837533,12.3288106 L8.59321586,12.3288106 L8.59321586,12.3285463 L8.59321586,12.3285463 Z M8.58026432,24.4284581 L8.58026432,18.6705727 L16.8245815,18.6732159 L18.1451101,19.9937445 L18.1485463,23.105022 L16.8245815,24.4287225 L8.58026432,24.4287225 L8.58026432,24.4284581 L8.58026432,24.4284581 Z" fill="#FFC422"></path>
                        </g>
                    </g>
                </g>
                <g id="Layer_6" transform="translate(1.057269, 1.057269)" fill="#231F20">
                    <path d="M28.9398238,4.40748899 C42.4881938,4.40748899 53.4724229,15.3909251 53.4724229,28.9398238 C53.4724229,42.4879295 42.4881938,53.4721586 28.9398238,53.4721586 C15.3909251,53.4721586 4.40748899,42.4876652 4.40748899,28.9398238 C4.40748899,15.3909251 15.3909251,4.40748899 28.9398238,4.40748899 L28.9398238,4.40748899 Z M28.9398238,0.113920705 C25.0503965,0.113920705 21.2746256,0.876475771 17.7179736,2.38096916 C14.2847577,3.83312775 11.2025551,5.91092511 8.55647577,8.55700441 C5.91039648,11.2028194 3.83259912,14.2852863 2.38044053,17.7182379 C0.876475771,21.2746256 0.113656388,25.0501322 0.113656388,28.9398238 C0.113656388,32.8292511 0.876475771,36.6047577 2.38070485,40.1614097 C3.83286344,43.5940969 5.91066079,46.6765639 8.55674009,49.3223789 C11.2025551,51.9687225 14.285022,54.0465198 17.7179736,55.4986784 C21.2748899,57.0031718 25.0503965,57.7657269 28.9398238,57.7657269 C32.8295154,57.7657269 36.605022,57.0031718 40.161674,55.4986784 C43.5943612,54.0465198 46.6768282,51.9687225 49.3229075,49.3226432 C51.9689868,46.6765639 54.0470485,43.5940969 55.4989427,40.1614097 C57.0034361,36.6047577 57.7659912,32.8292511 57.7659912,28.9398238 C57.7659912,25.0501322 57.0034361,21.2746256 55.4989427,17.7179736 C54.0470485,14.285022 51.9689868,11.2025551 49.3229075,8.55674009 C46.6768282,5.91066079 43.5943612,3.83286344 40.1614097,2.38070485 C36.605022,0.876475771 32.8297797,0.113920705 28.9398238,0.113920705 L28.9398238,0.113920705 L28.9398238,0.113920705 Z" id="Shape"></path>
                </g>
            </g>
        </g>
    </g>
</svg>