<?xml version="1.0" encoding="UTF-8" standalone="no"?>
<svg width="60px" height="60px" viewBox="0 0 60 60" version="1.1" xmlns="http://www.w3.org/2000/svg" xmlns:xlink="http://www.w3.org/1999/xlink">
    <!-- Generator: Sketch 40.3 (33839) - http://www.bohemiancoding.com/sketch -->
    <title>Artboard</title>
    <desc>Created with Sketch.</desc>
    <defs></defs>
    <g id="Page-1" stroke="none" stroke-width="1" fill="none" fill-rule="evenodd">
        <g id="Artboard">
            <g id="canadiens" transform="translate(0.000000, 9.600000)">
                <g id="Group">
                    <path d="M53.1781333,20.1549333 L57.8749333,15.1221333 L55.6381333,4.72133333 L45.5730667,1.70186667 L44.5666667,2.70826667 C44.5666667,2.70826667 36.328,0.2664 29.096,0.2664 C14.0354667,0.266666667 0,8.3376 0,20.5464 C0,32.1589333 11.1168,40.9189333 29.096,40.9189333 C45.6477333,40.9189333 60,30.332 60,30.332 L53.1781333,20.1549333 L53.1781333,20.1549333 Z M20.6336,25.3970667 C20.6336,25.3970667 14.888,23.3002667 14.888,20.6581333 C14.888,17.3450667 20.6336,15.8493333 20.6336,15.8493333 L20.6336,25.3970667 L20.6336,25.3970667 Z M31.0530667,26.4682667 C29.8976,26.6397333 28.3690667,26.5666667 28.3690667,26.5666667 L28.3690667,24.0688 L31.0530667,24.0688 L31.0530667,26.4682667 L31.0530667,26.4682667 Z M31.0530667,17.0234667 L28.3690667,17.0234667 L28.3690667,14.5258667 C30.764,14.5202667 30.7208,14.5738667 31.0530667,14.6229333 L31.0530667,17.0234667 L31.0530667,17.0234667 Z M38.5834667,24.908 L38.5834667,16.2405333 C44.4549333,17.9738667 47.6981333,21.0496 47.6981333,21.0496 C47.6981333,21.0496 43.2245333,23.6778667 38.5834667,24.908 L38.5834667,24.908 Z" id="Shape" fill="#21386F"></path>
                    <path d="M51.3328,21.2173333 C46.3448,24.5554667 41.5938667,26.636 36.4026667,27.6130667 L36.4026667,13.6626667 C46.2365333,15.5170667 50.0466667,20.3786667 50.0466667,20.3786667 L55.6384,14.5629333 L53.7373333,6.2872 L46.1322667,4.1624 L45.1258667,5.1688 C45.1258667,5.1688 38.0242667,2.31706667 28.3645333,2.31706667 C12.9730667,2.31706667 2.132,11.208 2.132,20.6024 C2.132,30.8352 12.8613333,38.8128 28.1176,38.8128 C44.3432,38.8128 57.1482667,29.8290667 57.1482667,29.8290667 L51.3328,21.2173333 L51.3328,21.2173333 Z M28.4202667,12.9554667 C29.8896,12.9554667 31.2722667,13.0197333 32.5722667,13.136 L32.5722667,18.7010667 L26.8125333,18.7010667 L26.8125333,12.9818667 C27.3304,12.9650667 27.8645333,12.9554667 28.4202667,12.9554667 L28.4202667,12.9554667 Z M12.7773333,20.6301333 C12.7773333,18.6288 14.1264,14.5557333 22.7586667,13.3194667 L22.7586667,27.8322667 C12.6168,26.2005333 12.7773333,20.6301333 12.7773333,20.6301333 L12.7773333,20.6301333 Z M26.8125333,28.2309333 L26.8125333,22.3637333 L32.5722667,22.3637333 L32.5722667,28.1282667 C31.3909333,28.2272 30.1821333,28.2773333 28.9373333,28.2773333 C28.1952,28.2773333 27.4882667,28.2605333 26.8125333,28.2309333 L26.8125333,28.2309333 Z" id="Shape" fill="#FFFFFF"></path>
                    <path d="M45.4613333,6.95813333 L46.5794667,5.728 L52.6184,7.51733333 L53.9605333,14.2274667 L49.8224,18.3656 C49.8224,18.3656 43.1122667,11.4317333 28.0984,11.4317333 C16.2717333,11.4317333 11.2949333,16.4784 11.2949333,20.3786667 C11.2949333,24.2786667 15.7682667,29.7725333 28.6482667,29.7725333 C41.8821333,29.7725333 50.9410667,23.2861333 50.9410667,23.2861333 L54.9672,29.3256 C54.9672,29.3256 44.0072,37.3402667 27.6792,37.3402667 C14.7621333,37.3402667 3.67173333,30.8912 3.67173333,20.4344 C3.67173333,10.9285333 14.9858667,3.8408 28.3221333,3.8408 C39.5341333,3.8408 45.4613333,6.95813333 45.4613333,6.95813333 L45.4613333,6.95813333 Z" id="Shape" fill="#BE2F37"></path>
                </g>
            </g>
        </g>
    </g>
</svg>