<?xml version="1.0" encoding="UTF-8" standalone="no"?>
<svg width="30px" height="30px" viewBox="0 0 30 30" version="1.1" xmlns="http://www.w3.org/2000/svg" xmlns:xlink="http://www.w3.org/1999/xlink">
    <!-- Generator: Sketch 41 (35326) - http://www.bohemiancoding.com/sketch -->
    <title>canadiens</title>
    <desc>Created with Sketch.</desc>
    <defs></defs>
    <g id="Page-1" stroke="none" stroke-width="1" fill="none" fill-rule="evenodd">
        <g id="canadiens">
            <g transform="translate(0.000000, 4.000000)" id="Page-1">
                <g>
                    <g id="Artboard-Copy">
                        <g id="canadiens" transform="translate(0.000000, 0.500000)">
                            <g id="Page-1">
                                <g id="Artboard">
                                    <g id="canadiens" transform="translate(0.000000, 0.300000)">
                                        <g id="Group">
                                            <path d="M26.5890666,10.0774666 L28.9374667,7.56106665 L27.8190666,2.36066667 L22.7865333,0.850933335 L22.2833333,1.35413333 C22.2833333,1.35413333 18.164,0.1332 14.548,0.1332 C7.01773335,0.133333334 0,4.1688 0,10.2732 C0,16.0794667 5.5584,20.4594666 14.548,20.4594666 C22.8238666,20.4594666 30,15.166 30,15.166 L26.5890666,10.0774666 L26.5890666,10.0774666 L26.5890666,10.0774666 Z M10.3168,12.6985333 C10.3168,12.6985333 7.444,11.6501334 7.444,10.3290666 C7.444,8.67253335 10.3168,7.92466665 10.3168,7.92466665 L10.3168,12.6985333 L10.3168,12.6985333 L10.3168,12.6985333 Z M15.5265333,13.2341334 C14.9488,13.3198666 14.1845334,13.2833333 14.1845334,13.2833333 L14.1845334,12.0344 L15.5265333,12.0344 L15.5265333,13.2341334 L15.5265333,13.2341334 L15.5265333,13.2341334 Z M15.5265333,8.51173335 L14.1845334,8.51173335 L14.1845334,7.26293335 C15.382,7.26013335 15.3604,7.28693335 15.5265333,7.31146665 L15.5265333,8.51173335 L15.5265333,8.51173335 L15.5265333,8.51173335 Z M19.2917334,12.454 L19.2917334,8.12026665 C22.2274667,8.98693335 23.8490667,10.5248 23.8490667,10.5248 C23.8490667,10.5248 21.6122666,11.8389333 19.2917334,12.454 L19.2917334,12.454 L19.2917334,12.454 Z" id="Shape" fill="#21386F"></path>
                                            <path d="M25.6664,10.6086666 C23.1724,12.2777334 20.7969333,13.318 18.2013333,13.8065334 L18.2013333,6.83133335 C23.1182666,7.75853335 25.0233334,10.1893334 25.0233334,10.1893334 L27.8192,7.28146665 L26.8686667,3.1436 L23.0661334,2.0812 L22.5629334,2.5844 C22.5629334,2.5844 19.0121333,1.15853333 14.1822667,1.15853333 C6.48653335,1.15853333 1.066,5.604 1.066,10.3012 C1.066,15.4176 6.43066665,19.4064 14.0588,19.4064 C22.1716,19.4064 28.5741334,14.9145334 28.5741334,14.9145334 L25.6664,10.6086666 L25.6664,10.6086666 L25.6664,10.6086666 Z M14.2101333,6.47773335 C14.9448,6.47773335 15.6361333,6.50986665 16.2861334,6.568 L16.2861334,9.35053335 L13.4062666,9.35053335 L13.4062666,6.49093335 C13.6652,6.48253335 13.9322667,6.47773335 14.2101333,6.47773335 L14.2101333,6.47773335 L14.2101333,6.47773335 Z M6.38866665,10.3150667 C6.38866665,9.3144 7.0632,7.27786665 11.3793333,6.65973335 L11.3793333,13.9161334 C6.3084,13.1002667 6.38866665,10.3150667 6.38866665,10.3150667 L6.38866665,10.3150667 L6.38866665,10.3150667 Z M13.4062666,14.1154666 L13.4062666,11.1818666 L16.2861334,11.1818666 L16.2861334,14.0641333 C15.6954667,14.1136 15.0910667,14.1386666 14.4686666,14.1386666 C14.0976,14.1386666 13.7441334,14.1302666 13.4062666,14.1154666 L13.4062666,14.1154666 L13.4062666,14.1154666 Z" id="Shape" fill="#FFFFFF"></path>
                                            <path d="M22.7306666,3.47906666 L23.2897333,2.864 L26.3092,3.75866666 L26.9802667,7.11373335 L24.9112,9.1828 C24.9112,9.1828 21.5561333,5.71586665 14.0492,5.71586665 C8.13586665,5.71586665 5.64746665,8.2392 5.64746665,10.1893334 C5.64746665,12.1393333 7.88413335,14.8862666 14.3241334,14.8862666 C20.9410666,14.8862666 25.4705334,11.6430666 25.4705334,11.6430666 L27.4836,14.6628 C27.4836,14.6628 22.0036,18.6701334 13.8396,18.6701334 C7.38106665,18.6701334 1.83586666,15.4456 1.83586666,10.2172 C1.83586666,5.46426665 7.49293335,1.9204 14.1610667,1.9204 C19.7670667,1.9204 22.7306666,3.47906666 22.7306666,3.47906666 L22.7306666,3.47906666 L22.7306666,3.47906666 Z" id="Shape" fill="#BE2F37"></path>
                                        </g>
                                    </g>
                                </g>
                            </g>
                        </g>
                    </g>
                </g>
            </g>
        </g>
    </g>
</svg>