<?xml version="1.0" encoding="UTF-8" standalone="no"?>
<svg width="60px" height="60px" viewBox="0 0 60 60" version="1.1" xmlns="http://www.w3.org/2000/svg" xmlns:xlink="http://www.w3.org/1999/xlink">
    <!-- Generator: Sketch 40.3 (33839) - http://www.bohemiancoding.com/sketch -->
    <title>Artboard</title>
    <desc>Created with Sketch.</desc>
    <defs></defs>
    <g id="Page-1" stroke="none" stroke-width="1" fill="none" fill-rule="evenodd">
        <g id="Artboard">
            <g id="canucks" transform="translate(0.000000, 1.194030)">
                <path d="M29.6685976,35.6644269 L42.3768866,29.3341701 C51.0720299,31.7707224 53.6519075,35.0672328 53.6519075,35.0672328 L58.6325075,29.4416657 C58.9072149,29.1550119 59.7313433,28.1397821 59.7313433,26.2884806 C59.7313433,24.2819075 57.6411642,22.7411493 56.1840119,21.6900866 C53.7116269,15.1926149 40.0000537,13.3054836 38.9848239,11.0480896 C38.6384507,10.2717373 36.6318806,3.49955821 36.6318806,3.49955821 C35.4374925,0 31.9140478,0 30.5882776,0 C29.2505618,0 26.3959746,0.453868657 26.3959746,0.453868657 C26.3959746,5.32697015 25.7390612,11.2750239 25.0463161,12.3619164 C25.0463161,12.3619164 22.5739328,13.6638 19.6596263,14.7029164 L12.7321758,10.0328597 L14.5595896,16.3272836 C2.85458728,22.7530925 0,33.9564507 0,33.9564507 C0,33.9564507 3.00985761,57.5575582 32.5948478,57.5575582 C48.2413313,57.5575582 57.2709045,49.9970836 57.2709045,49.9970836 L52.2305881,38.7220597 C52.2305881,38.7220597 44.5387284,42.7232597 34.6969701,42.7232597 C25.6315663,42.7232597 22.084234,38.4951254 20.782351,36.0346866 C28.4622657,36.2735642 29.6685976,35.6644269 29.6685976,35.6644269 L29.6685976,35.6644269 Z" id="path4" fill="#A7A9AC"></path>
                <polygon id="polygon6" fill="#A7A9AC" points="12.0633188 28.5100416 19.7312898 23.3502854 19.1579835 27.4470362"></polygon>
                <polygon id="polygon8" fill="#A7A9AC" points="21.5109279 22.6455965 20.0776623 19.1938152 25.6196226 16.0884064"></polygon>
                <polygon id="polygon10" fill="#A7A9AC" points="23.4458364 22.2514484 26.7304034 24.9985408 20.1134939 24.1027498"></polygon>
                <path d="M55.1090627,22.5739343 C52.696397,16.0406328 39.3670269,14.8462448 37.8859881,11.7766657 C37.3007373,10.5345045 36.5363284,7.58436418 35.4374925,3.98925672 C34.5536448,1.38549254 31.9498776,1.38549254 30.647997,1.38549254 C29.4058322,1.38549254 27.7934084,1.64825672 27.7934084,1.64825672 C27.7934084,4.29979701 27.2917657,12.0274896 26.061546,13.3771463 C25.7510051,13.7593493 23.4816678,14.6790299 21.0092848,15.6345403 L21.7498054,16.1361821 L20.9973409,16.8886478 C23.45778,15.5987075 25.5121275,15.1448418 26.7423472,14.1176657 C28.533929,12.2783104 50.9406478,25.1418687 49.6626537,25.1418687 C49.1012896,25.1418687 47.035,25.9421075 45.3150806,26.6229104 C51.0600866,28.5100418 53.9982806,30.5405015 54.3924299,30.8271552 L53.5444149,31.7826657 C53.5444149,31.7826657 50.140409,29.0236299 42.1738388,26.9095612 C38.7459463,28.6294806 28.6891994,27.1006657 28.6891994,27.1006657 C23.1472391,28.2353343 17.8561003,33.5025851 17.5933349,33.7653493 C18.3457994,37.4679522 21.9647952,45.1120358 34.7447463,45.1120358 C43.9773672,45.1120358 51.119806,41.8871881 51.119806,41.8871881 L54.4282597,49.292394 C54.4282597,49.292394 45.757003,55.3001642 32.6426239,55.3001642 C5.82861343,55.3001642 2.42460761,34.2192179 2.42460761,34.2192179 C6.12721045,24.3296836 12.3499719,19.9940567 16.3033961,18.1666418 L15.0612325,18.0233164 L14.9537376,17.6530567 C4.50284269,23.4338925 1.4213217,34.1117224 1.4213217,34.1117224 C1.4213217,34.1117224 4.59839373,56.2915075 32.6545672,56.2915075 C47.0111104,56.2915075 55.6943104,49.6387672 55.6943104,49.6387672 L51.633394,40.5614179 C51.633394,40.5614179 44.0490299,44.1206925 34.7566896,44.1206925 C20.9137337,44.1206925 18.8713301,34.6730836 18.8713301,34.6730836 C18.8713301,34.6730836 26.754291,35.1508388 29.2744496,34.4700388 L42.3052239,27.9606239 C51.1317493,30.4449522 53.675797,33.1442687 53.675797,33.1442687 L57.7128269,28.5936507 C57.7128269,28.5936507 58.4533493,27.9009045 58.4533493,26.3362567 C58.4533493,24.8791015 56.2676179,23.410006 55.1090627,22.5739343" id="path12" fill="#003E7E"></path>
                <path d="M44.1445791,19.3371433 C44.1445791,18.6563403 44.7656627,18.5249582 45.1956418,18.5249582 C47.4530358,18.5249582 50.9406478,20.3165403 51.5139552,21.8334149 C50.5226119,20.770409 48.7907493,19.8387851 47.4769224,19.8387851 C47.1902687,19.8387851 46.9036149,19.922394 46.9036149,20.2687642 C46.9036149,21.1645552 48.4921522,22.561991 54.2849343,23.2069582 C52.0633731,16.8050388 39.8208955,16.3511731 37.073803,12.3380299 C36.309394,11.2272478 35.0433433,4.07286269 33.7653493,3.10540896 C32.3679134,2.0304597 28.7728066,2.52016119 28.7728066,2.52016119 C28.7728066,3.51150149 28.533929,12.2783104 26.7184594,14.1057224 C25.5001836,15.1328955 23.4338922,15.5867642 20.9734531,16.8767045 L19.5521313,18.3099701 L17.987483,23.2069582 L15.9570236,22.1439552 L16.6856003,23.9474806 L13.0546606,24.5566179 L15.1090081,25.2613075 L9.18484358,29.7999821 L10.7853236,29.9194209 L8.6832006,33.7295164 C11.7288901,32.3559731 12.6485687,32.0812627 12.6485687,32.0812627 L11.7766657,31.1854716 L17.9038758,28.7130896 C17.9038758,28.7130896 17.4380645,29.9433075 17.4380645,32.3201403 C17.4380645,32.6665134 17.48584,33.1562119 17.6052788,33.7414627 C17.8680442,33.2398179 22.6933716,24.3535731 33.0248269,23.7444328 L20.1254376,33.7295164 C20.1254376,33.7295164 27.1962146,34.0281134 28.928077,33.5384149 C34.3864299,31.0063134 38.7578896,28.6294806 42.1857851,26.9095612 C45.4703493,25.2613075 47.9069015,24.2221881 49.5790448,24.2221881 C51.6453373,24.2221881 54.5357552,26.2287612 56.9842507,27.924791 C56.9842507,27.924791 57.1395224,27.793409 57.2709045,27.5306448 C57.8680985,25.3807463 54.7865761,23.7324896 51.8244955,23.0278 C46.2944776,22.5858776 44.1445791,20.770409 44.1445791,19.3371433 Z" id="path14" fill="#002E56"></path>
                <path d="M17.6052788,33.753406 L17.6052788,33.753406 C17.8680442,33.5025851 23.159183,28.2353343 28.7011433,27.1006657 L33.0248269,23.7563791 C22.6933716,24.3655164 17.8680442,33.2517612 17.6052788,33.753406" id="path5" fill="#FFFFFF"></path>
                <path d="M57.4739493,26.5990209 C57.4739493,25.285194 55.7420866,24.4013463 54.272991,23.2189045 C48.4682657,22.5739343 46.8916716,21.1765015 46.8916716,20.2807104 C46.8916716,19.9343373 47.1902687,19.8507284 47.4649791,19.8507284 C48.778806,19.8507284 50.5226119,20.7823522 51.502009,21.8453582 C50.9287045,20.3284836 47.4410896,18.5369015 45.1836985,18.5369015 C44.7537194,18.5369015 44.1326358,18.6682866 44.1326358,19.3490866 C44.1326358,20.7823522 46.2825343,22.5858776 51.8125522,23.0397463 C54.7746328,23.7444328 57.8561552,25.3926896 57.2589612,27.5306448 C57.3784,27.3037104 57.4739493,26.9931701 57.4739493,26.5990209" id="path7" fill="#FFFFFF"></path>
                <path d="M46.6050179,26.5870776 L48.7549164,27.3514866 C49.1490657,27.1842716 49.5790448,26.9692806 49.6148776,26.9215075 C49.6387582,26.8617881 49.6387582,26.8140119 49.5551582,26.730403 C49.4954388,26.6706836 48.5279851,26.3123672 47.930791,26.0973791 L46.6050179,26.5870776 L46.6050179,26.5870776 Z" id="path9" fill="#FFFFFF"></path>
                <path d="M48.4204896,25.9062776 C48.993794,26.133209 49.7820925,26.4556955 49.8537552,26.4676388 C49.9493045,26.4795791 50.0926328,26.4915194 50.1881821,26.4676388 C50.2598478,26.4437582 50.7256567,26.2048746 51.0720299,26.0376597 C50.737603,25.8704448 50.0687433,25.5599045 49.6148776,25.5599045 C49.1848985,25.5479642 48.4204896,25.9062776 48.4204896,25.9062776" id="path11" fill="#FFFFFF"></path>
                <path d="M50.5464985,26.646797 C50.5226179,26.6945731 50.5464985,26.7184597 50.6181642,26.7781791 C50.7017701,26.8378985 51.8244955,27.4231493 51.9081015,27.4231493 C51.9917104,27.4350896 52.0753164,27.4350896 52.1589224,27.411209 C52.2186418,27.3992687 52.612791,27.1484418 52.8755552,26.9692836 L51.3825701,26.1690448 C51.0003672,26.3720896 50.5823313,26.5990239 50.5464985,26.6468" id="path13" fill="#FFFFFF"></path>
                <path d="M51.6095045,27.8292418 C51.6333851,27.7695224 51.6453373,27.7336896 51.6333851,27.6859134 C51.5617194,27.6023075 50.4509403,27.029 50.3315015,27.0170567 C50.2001194,27.0051164 50.1284537,27.0051164 50.0209612,27.0528896 C49.925409,27.1006657 49.3640478,27.411206 49.161,27.5187015 L50.8928627,28.306997 C51.2272925,28.1039493 51.5736657,27.8770179 51.6094955,27.8292418" id="path15" fill="#FFFFFF"></path>
                <path d="M53.7355164,28.4383791 C53.7713463,28.4503194 53.8907851,28.4144985 54.0102239,28.3786597 C54.0699433,28.3547791 54.3327104,28.1517254 54.4999254,28.0084 L53.162209,27.1603851 C52.8397254,27.3634299 52.5052955,27.5903642 52.4694657,27.6381403 C52.4694657,27.6500806 52.4694657,27.6859134 52.5411284,27.7814657 L53.7355164,28.4383791 L53.7355164,28.4383791 Z" id="path17" fill="#FFFFFF"></path>
                <path d="M54.2849343,28.5697612 C54.2491015,28.6414239 54.2371582,28.6772567 54.2610537,28.7011433 C54.3088269,28.7369761 55.0015731,29.2027881 55.4673851,29.5133284 L56.0048597,28.9758537 L54.7746388,28.1756149 C54.5477045,28.3428269 54.3088269,28.5339313 54.2849403,28.5697612" id="path19" fill="#FFFFFF"></path>
                <path d="M53.5205254,28.7966955 C53.544406,28.7608627 53.5324657,28.6892 53.4846955,28.6414239 C53.4130299,28.5697612 52.3500269,27.9964567 52.2664179,27.9845104 C52.1708687,27.9606299 52.015597,27.9845104 51.9200448,28.0203433 C51.8722716,28.0322836 51.5617284,28.2472776 51.2750776,28.4622657 L52.9113881,29.2266746 C53.1860985,29.0475164 53.4966388,28.8444716 53.5205254,28.7966955" id="path21" fill="#FFFFFF"></path>
                <path d="M53.8071791,29.0116866 C53.759403,29.0236269 53.4488627,29.2625075 53.2219284,29.4416657 L54.7029701,30.3613433 L55.2523881,29.752206 C54.7985194,29.4416657 54.1535522,28.9997403 54.0938328,28.9758537 C54.0341134,28.9639134 53.8788418,28.987794 53.8071791,29.0116866" id="path23" fill="#FFFFFF"></path>
                <path d="M23.0278003,22.9800269 L25.559903,24.4491224 L21.2481624,23.923591 L23.0278003,22.9800269 L23.0278003,22.9800269 Z M23.4458361,22.2514507 L20.1254376,24.1027493 L26.7304033,24.9985403 L23.4458361,22.2514507 L23.4458361,22.2514507 Z" id="path29" fill="#AEB0B2"></path>
                <path d="M18.6324525,27.0528896 L13.9265639,27.7814657 L19.1221516,24.2580209 L18.6324525,27.0528896 L18.6324525,27.0528896 Z M19.1579833,27.4470358 L19.7432334,23.3502866 L12.0633188,28.5100418 L19.1579833,27.4470358 L19.1579833,27.4470358 Z" id="path31" fill="#AEB0B2"></path>
                <path d="M20.9137337,19.3849194 L24.4252343,17.4022328 L21.391489,21.5109284 L20.9137337,19.3849194 L20.9137337,19.3849194 Z M25.6196224,16.088406 L20.0657182,19.1938149 L21.5109278,22.645597 L25.6196224,16.088406 L25.6196224,16.088406 Z" id="path33" fill="#AEB0B2"></path>
                <path d="M50.5823313,43.2726776 C48.2652179,44.1684687 42.2216149,46.1869851 34.7686358,46.1869851 C20.0657182,46.1869851 16.3631155,36.1182925 16.3631155,32.3201403 C16.3631155,31.4840687 16.4228349,30.7674358 16.4944982,30.1941284 L13.11438,31.3168537 L13.5563036,32.2723642 L10.9167063,33.2278746 L8.64736896,34.7208597 L13.2696504,35.5808179 L12.3141403,38.8773313 L14.2968242,38.2920806 L16.1959012,43.1293522 L18.4771821,42.8307552 L19.2296466,46.2347612 C19.2296466,46.2347612 23.5174994,49.2087851 30.7674358,49.8537552 C40.3464269,50.7137164 48.9340746,47.4410925 48.9340746,47.4410925 C48.9340746,47.4410925 38.6981701,51.4542358 29.4058322,50.4628925 C22.2992239,49.7104299 17.6769421,46.820009 17.6769421,46.820009 L17.6172227,43.7504328 L14.810411,43.7862657 L13.4846403,39.0923194 L10.9883696,40.2628209 L12.0872066,36.0585731 L7.29771075,35.4733254 L8.27710866,32.5351313 L9.41177731,30.2419045 L7.8829606,30.2777373 L14.2848803,25.5121284 L11.4900125,24.4252358 L16.0406307,23.5533313 L14.4520946,20.3643164 L17.2589066,21.964797 L18.3696872,18.4771821 C15.0015131,19.6476836 7.75157791,23.3741731 3.55927612,34.3267104 C4.07286299,36.8349254 8.45626687,54.2252149 32.6545672,54.2252149 C43.1054627,54.2252149 50.737603,50.2598478 53.078603,48.8743582 L50.5823313,43.2726776 L50.5823313,43.2726776 Z" id="path41" fill="#003E7E"></path>
                <polygon id="polygon43" fill="#003E7E" points="19.2415907 18.2860803 20.6270808 16.422835 13.8787886 11.7527779 15.8136971 17.4380648"></polygon>
                <path d="M35.2225015,13.5921373 C35.2225015,13.5921373 33.3473134,12.8038388 32.8456687,12.1588716 C32.3440269,11.5258448 31.7468328,5.14781194 31.7468328,5.14781194 C31.7468328,5.14781194 31.6393373,11.6452836 31.2690776,12.2305343 C30.8868746,12.8038388 29.0236281,13.8787881 29.0236281,13.8787881 C29.0236281,13.8787881 31.0899194,13.1979881 32.1051493,13.1502119 C32.8576149,13.1024358 35.2225015,13.5921373 35.2225015,13.5921373" id="path45" fill="#FFFFFF"></path>
                <path d="M32.1170925,13.1502119 C31.1018627,13.2099313 29.0355719,13.8787881 29.0355719,13.8787881 C29.0355719,13.8787881 30.8988179,12.8038388 31.2690776,12.2305343 C31.6393373,11.6572269 31.7468328,5.14781194 31.7468328,5.14781194 C31.7468328,5.14781194 32.3440269,11.5139015 32.8456687,12.1588716 C33.3592567,12.8038388 35.2344448,13.5921373 35.2344448,13.5921373 C35.2344448,13.5921373 32.8576149,13.1024358 32.1170925,13.1502119" id="path32" fill="#FFFFFF"></path>
                <path d="M42.1857851,26.9095612 C50.1523522,29.0236299 53.5563582,31.7826657 53.5563582,31.7826657 L54.4043731,30.8271552 C54.0102239,30.5405015 51.0720299,28.5100418 45.3270239,26.6229104 C47.035,25.9421075 49.1132328,25.1418687 49.674597,25.1418687 C50.9406478,25.1418687 53.5563582,26.8020687 56.3631701,28.6294806 L57.0081373,27.9128478 C54.5596448,26.2168179 51.6811672,24.2102448 49.6029343,24.2102448 C47.9069015,24.2102448 45.4822955,25.2493642 42.1857851,26.9095612" id="path25" fill="#FFFFFF"></path>
                <polygon id="polygon37" fill="#003E7E" points="25.5599032 24.4491224 23.0278006 22.9800251 21.2362186 23.9235916"></polygon>
                <polygon id="polygon39" fill="#003E7E" points="20.9137339 19.3849172 21.3914891 21.498984 24.4252346 17.4022332"></polygon>
                <polygon id="polygon35" fill="#003E7E" points="19.1221519 24.2699642 13.9265641 27.7934088 18.6324528 27.0528882"></polygon>
            </g>
        </g>
    </g>
</svg>