<?xml version="1.0" encoding="UTF-8" standalone="no"?>
<svg width="30px" height="30px" viewBox="0 0 30 30" version="1.1" xmlns="http://www.w3.org/2000/svg" xmlns:xlink="http://www.w3.org/1999/xlink">
    <!-- Generator: Sketch 40.3 (33839) - http://www.bohemiancoding.com/sketch -->
    <title>canucks</title>
    <desc>Created with Sketch.</desc>
    <defs></defs>
    <g id="Page-1" stroke="none" stroke-width="1" fill="none" fill-rule="evenodd">
        <g id="canucks">
            <g id="Page-1">
                <g id="Artboard">
                    <g id="canucks" transform="translate(0.000000, 0.098659)">
                        <path d="M14.8342988,18.1344544 L21.1884433,14.9156797 C25.5360149,16.1546046 26.8259538,17.8307963 26.8259538,17.8307963 L29.3162538,14.9703385 C29.4536074,14.8245823 29.8656716,14.3083638 29.8656716,13.367024 C29.8656716,12.3467326 28.8205821,11.5632963 28.092006,11.0288576 C26.8558134,7.72505842 20.0000269,6.76550014 19.492412,5.61767268 C19.3192253,5.22291727 18.3159403,1.77943638 18.3159403,1.77943638 C17.7187462,0 15.9570239,0 15.2941388,0 C14.6252809,0 13.1979873,0.230780673 13.1979873,0.230780673 C13.1979873,2.70862889 12.8695306,5.733063 12.523158,6.2857202 C12.523158,6.2857202 11.2869664,6.94769492 9.82981315,7.47605919 L6.3660879,5.10145408 L7.2797948,8.30200861 C1.42729364,11.5693691 0,17.2659919 0,17.2659919 C0,17.2659919 1.50492881,29.266555 16.2974239,29.266555 C24.1206656,29.266555 28.6354523,25.4222459 28.6354523,25.4222459 L26.115294,19.6891829 C26.115294,19.6891829 22.2693642,21.7236914 17.3484851,21.7236914 C12.8157831,21.7236914 11.042117,19.5737926 10.3911755,18.322722 C14.2311328,18.4441852 14.8342988,18.1344544 14.8342988,18.1344544 L14.8342988,18.1344544 L14.8342988,18.1344544 Z" id="path4" fill="#A7A9AC"></path>
                        <polygon id="polygon6" fill="#A7A9AC" points="6.0316594 14.4966313 9.8656449 11.8730265 9.57899175 13.9561201"></polygon>
                        <polygon id="polygon8" fill="#A7A9AC" points="10.7554639 11.5147101 10.0388312 9.75956705 12.8098113 8.18054563"></polygon>
                        <polygon id="polygon10" fill="#A7A9AC" points="11.7229182 11.3142958 13.3652017 12.7111224 10.056747 12.2556355"></polygon>
                        <path d="M27.5545314,11.4782717 C26.3481985,8.15625397 19.6835134,7.54893803 18.942994,5.9881351 C18.6503687,5.35652771 18.2681642,3.85645636 17.7187462,2.02843562 C17.2768224,0.704487732 15.9749388,0.704487732 15.3239985,0.704487732 C14.7029161,0.704487732 13.8967042,0.838096637 13.8967042,0.838096637 C13.8967042,2.18633746 13.6458828,6.11567268 13.030773,6.8019388 C12.8755026,6.99627931 11.7408339,7.46391351 10.5046424,7.94976625 L10.8749027,8.20483836 L10.4986705,8.58744803 C11.72889,7.93154619 12.7560637,7.70076702 13.3711736,7.17847408 C14.2669645,6.24320868 25.4703239,12.784001 24.8313268,12.784001 C24.5506448,12.784001 23.5175,13.1909021 22.6575403,13.5370731 C25.5300433,14.4966314 26.9991403,15.5290686 27.196215,15.6748247 L26.7722074,16.1606775 C26.7722074,16.1606775 25.0702045,14.7577779 21.0869194,13.6828277 C19.3729731,14.557363 14.3445997,13.7799995 14.3445997,13.7799995 C11.5736196,14.3569496 8.92805015,17.0352128 8.79666745,17.1688217 C9.1728997,19.0515011 10.9823976,22.9383233 17.3723732,22.9383233 C21.9886836,22.9383233 25.559903,21.2985702 25.559903,21.2985702 L27.2141298,25.0639292 C27.2141298,25.0639292 22.8785015,28.1187276 16.3213119,28.1187276 C2.91430671,28.1187276 1.2123038,17.3996023 1.2123038,17.3996023 C3.06360522,12.3710256 6.17498595,10.1664695 8.15169805,9.23727549 L7.53061625,9.16439817 L7.4768688,8.97613053 C2.25142134,11.9155386 0.71066085,17.3449436 0.71066085,17.3449436 C0.71066085,17.3449436 2.29919686,28.6228004 16.3272836,28.6228004 C23.5055552,28.6228004 27.8471552,25.2400511 27.8471552,25.2400511 L25.816697,20.6244498 C25.816697,20.6244498 22.024515,22.4342504 17.3783448,22.4342504 C10.4568669,22.4342504 9.43566505,17.6303815 9.43566505,17.6303815 C9.43566505,17.6303815 13.3771455,17.8733079 14.6372248,17.5271384 L21.152612,14.2172664 C25.5658747,15.4804842 26.8378985,16.853018 26.8378985,16.853018 L28.8564135,14.5391444 C28.8564135,14.5391444 29.2266746,14.1869006 29.2266746,13.391317 C29.2266746,12.6503906 28.1338089,11.9033929 27.5545314,11.4782717" id="path12" fill="#003E7E"></path>
                        <path d="M22.0722896,9.83244575 C22.0722896,9.48627473 22.3828314,9.41947027 22.5978209,9.41947027 C23.7265179,9.41947027 25.4703239,10.3304442 25.7569776,11.1017364 C25.261306,10.5612249 24.3953747,10.0875178 23.7384612,10.0875178 C23.5951343,10.0875178 23.4518075,10.1300308 23.4518075,10.3061513 C23.4518075,10.7616382 24.2460761,11.4721988 27.1424672,11.8001482 C26.0316865,8.54493498 19.9104477,8.31415581 18.5369015,6.27357453 C18.154697,5.70877007 17.5216716,2.07094713 16.8826746,1.57902151 C16.1839567,1.03243714 14.3864033,1.28143789 14.3864033,1.28143789 C14.3864033,1.78550923 14.2669645,6.24320868 13.3592297,7.17240122 C12.7500918,7.69469263 11.7169461,7.92547332 10.4867266,8.58137517 L9.77606565,9.31015429 L8.9937415,11.8001482 L7.9785118,11.2596382 L8.34280015,12.1766851 L6.5273303,12.4864159 L7.55450405,12.8447326 L4.59242179,15.1525333 L5.3926618,15.2132649 L4.3416003,17.1506016 C5.86444505,16.4521897 6.32428435,16.3125065 6.32428435,16.3125065 L5.88833285,15.8570195 L8.9519379,14.5998761 C8.9519379,14.5998761 8.71903225,15.2254106 8.71903225,16.4339696 C8.71903225,16.6100916 8.74292,16.8590908 8.8026394,17.1566759 C8.9340221,16.9016023 11.3466858,12.3831728 16.5124135,12.0734404 L10.0627188,17.1506016 C10.0627188,17.1506016 13.5981073,17.3024305 14.4640385,17.0534313 C17.193215,15.7659221 19.3789448,14.557363 21.0928925,13.6828277 C22.7351747,12.8447326 23.9534507,12.3163668 24.7895224,12.3163668 C25.8226687,12.3163668 27.2678776,13.3366582 28.4921253,14.1990463 C28.4921253,14.1990463 28.5697612,14.1322419 28.6354523,13.9986329 C28.9340493,12.9054642 27.393288,12.0673676 25.9122477,11.7090508 C23.1472388,11.4843445 22.0722896,10.5612249 22.0722896,9.83244575 L22.0722896,9.83244575 Z" id="path14" fill="#002E56"></path>
                        <path d="M8.8026394,17.1627488 L8.8026394,17.1627488 C8.9340221,17.0352128 11.5795915,14.3569496 14.3505716,13.7799995 L16.5124135,12.0795148 C11.3466858,12.3892456 8.9340221,16.9076752 8.8026394,17.1627488" id="path5" fill="#FFFFFF"></path>
                        <path d="M28.7369747,13.5249259 C28.7369747,12.8568783 27.8710433,12.4074642 27.1364955,11.8062226 C24.2341329,11.4782717 23.4458358,10.7677126 23.4458358,10.3122256 C23.4458358,10.1361037 23.5951343,10.0935907 23.7324896,10.0935907 C24.389403,10.0935907 25.261306,10.5672977 25.7510045,11.1078093 C25.4643523,10.3365171 23.7205448,9.42554314 22.5918492,9.42554314 C22.3768597,9.42554314 22.0663179,9.49234912 22.0663179,9.83851861 C22.0663179,10.5672977 23.1412672,11.4843445 25.9062761,11.7151252 C27.3873164,12.0734404 28.9280776,12.9115371 28.6294806,13.9986329 C28.6892,13.8832426 28.7369747,13.7253407 28.7369747,13.5249259" id="path7" fill="#FFFFFF"></path>
                        <path d="M23.3025089,13.518853 L24.3774582,13.9075356 C24.5745328,13.822511 24.7895224,13.7131935 24.8074388,13.6889021 C24.8193791,13.6585363 24.8193791,13.6342433 24.7775791,13.5917303 C24.7477194,13.5613645 24.2639925,13.3791698 23.9653955,13.2698538 L23.3025089,13.518853 L23.3025089,13.518853 L23.3025089,13.518853 Z" id="path9" fill="#FFFFFF"></path>
                        <path d="M24.2102448,13.1726835 C24.496897,13.2880724 24.8910462,13.4520486 24.9268776,13.4581214 C24.9746522,13.4641928 25.0463164,13.4702641 25.094091,13.4581214 C25.1299239,13.4459787 25.3628284,13.3245125 25.5360149,13.239488 C25.3688015,13.1544635 25.0343717,12.9965616 24.8074388,12.9965616 C24.5924493,12.9904903 24.2102448,13.1726835 24.2102448,13.1726835" id="path11" fill="#FFFFFF"></path>
                        <path d="M25.2732492,13.5492188 C25.261309,13.5735117 25.2732492,13.5856575 25.3090821,13.6160233 C25.350885,13.6463891 25.9122477,13.9439742 25.9540508,13.9439742 C25.9958552,13.9500456 26.0376582,13.9500456 26.0794612,13.9379029 C26.1093209,13.9318315 26.3063955,13.8042924 26.4377776,13.7131951 L25.6912851,13.306294 C25.5001836,13.4095371 25.2911656,13.5249274 25.2732492,13.5492203" id="path13" fill="#FFFFFF"></path>
                        <path d="M25.8047522,14.1504619 C25.8166925,14.1200961 25.8226687,14.1018761 25.8166925,14.0775831 C25.7808597,14.0350716 25.2254701,13.7435593 25.1657508,13.7374865 C25.1000597,13.7314151 25.0642269,13.7314151 25.0104806,13.7557066 C24.9627045,13.7799995 24.6820239,13.9379014 24.5805,13.9925601 L25.4464314,14.3933883 C25.6136462,14.2901437 25.7868328,14.1747549 25.8047478,14.1504619" id="path15" fill="#FFFFFF"></path>
                        <path d="M26.8677582,14.4601928 C26.8856731,14.4662641 26.9453926,14.4480501 27.0051119,14.429827 C27.0349716,14.4176843 27.1663552,14.3144366 27.2499627,14.2415593 L26.5811045,13.8103653 C26.4198627,13.9136084 26.2526478,14.0289987 26.2347329,14.0532917 C26.2347329,14.059363 26.2347329,14.0775831 26.2705642,14.126169 L26.8677582,14.4601928 L26.8677582,14.4601928 L26.8677582,14.4601928 Z" id="path17" fill="#FFFFFF"></path>
                        <path d="M27.1424672,14.5269972 C27.1245508,14.5634359 27.1185791,14.5816559 27.1305268,14.5938017 C27.1544134,14.6120217 27.5007866,14.8488753 27.7336926,15.0067772 L28.0024298,14.7334849 L27.3873194,14.3265838 C27.2738523,14.4116069 27.1544134,14.5087786 27.1424702,14.5269972" id="path19" fill="#FFFFFF"></path>
                        <path d="M26.7602627,14.6423875 C26.772203,14.6241675 26.7662329,14.5877288 26.7423478,14.5634359 C26.7065149,14.5269972 26.1750135,14.2354865 26.133209,14.2294121 C26.0854343,14.2172694 26.0077985,14.2294121 25.9600224,14.2476322 C25.9361358,14.2537035 25.7808642,14.3630225 25.6375388,14.4723385 L26.4556941,14.861021 C26.5930492,14.7699236 26.7483194,14.6666805 26.7602627,14.6423875" id="path21" fill="#FFFFFF"></path>
                        <path d="M26.9035895,14.7517051 C26.8797015,14.7577764 26.7244313,14.8792411 26.6109642,14.9703385 L27.3514851,15.4379712 L27.626194,15.1282403 C27.3992597,14.9703385 27.0767761,14.7456307 27.0469164,14.7334849 C27.0170567,14.7274136 26.9394209,14.7395563 26.9035895,14.7517051" id="path23" fill="#FFFFFF"></path>
                        <path d="M11.5139001,11.6847594 L12.7799515,12.4317572 L10.6240812,12.1645378 L11.5139001,11.6847594 L11.5139001,11.6847594 L11.5139001,11.6847594 Z M11.7229181,11.314297 L10.0627188,12.2556352 L13.3652016,12.7111222 L11.7229181,11.314297 L11.7229181,11.314297 L11.7229181,11.314297 Z" id="path29" fill="#AEB0B2"></path>
                        <path d="M9.31622625,13.7557066 L6.96328195,14.126169 L9.5610758,12.3345869 L9.31622625,13.7557066 L9.31622625,13.7557066 L9.31622625,13.7557066 Z M9.57899165,13.9561199 L9.8716167,11.8730271 L6.0316594,14.4966314 L9.57899165,13.9561199 L9.57899165,13.9561199 L9.57899165,13.9561199 Z" id="path31" fill="#AEB0B2"></path>
                        <path d="M10.4568669,9.85673868 L12.2126171,8.84859295 L10.6957445,10.9377602 L10.4568669,9.85673868 L10.4568669,9.85673868 L10.4568669,9.85673868 Z M12.8098112,8.18054542 L10.0328591,9.7595669 L10.7554639,11.5147103 L12.8098112,8.18054542 L12.8098112,8.18054542 L12.8098112,8.18054542 Z" id="path33" fill="#AEB0B2"></path>
                        <path d="M25.2911656,22.0030564 C24.132609,22.4585434 21.1108074,23.4849077 17.3843179,23.4849077 C10.0328591,23.4849077 8.18155775,18.3652335 8.18155775,16.4339696 C8.18155775,16.0088485 8.21141745,15.6444589 8.2472491,15.3529466 L6.55719,15.9238239 L6.7781518,16.4096767 L5.45835315,16.8955295 L4.32368448,17.6546744 L6.6348252,18.0919413 L6.15707015,19.7681346 L7.1484121,19.4705495 L8.0979506,21.9301791 L9.23859105,21.7783501 L9.6148233,23.5092006 C9.6148233,23.5092006 11.7587497,25.0214162 15.3837179,25.3493671 C20.1732134,25.7866355 24.4670373,24.1225894 24.4670373,24.1225894 C24.4670373,24.1225894 19.349085,26.1631707 14.7029161,25.6590979 C11.149612,25.2764898 8.83847105,23.8067842 8.83847105,23.8067842 L8.80861135,22.2459828 L7.4052055,22.2642029 L6.74232015,19.8774505 L5.4941848,20.4726208 L6.0436033,18.3348677 L3.64885538,18.0372841 L4.13855433,16.5432871 L4.70588865,15.3772396 L3.9414803,15.3954596 L7.14244015,12.9722687 L5.74500625,12.4196114 L8.02031535,11.9762702 L7.2260473,10.3547372 L8.6294533,11.1685408 L9.1848436,9.39517734 C7.50075655,9.99034759 3.87578895,11.8851728 1.77963806,17.4542595 C2.03643149,18.7296231 4.22813344,27.5721432 16.3272836,27.5721432 C21.5527313,27.5721432 25.3688015,25.5558548 26.5393015,24.8513686 L25.2911656,22.0030564 L25.2911656,22.0030564 L25.2911656,22.0030564 Z" id="path41" fill="#003E7E"></path>
                        <polygon id="polygon43" fill="#003E7E" points="9.62079535 9.29800693 10.3135404 8.35059407 6.9393943 5.97598876 7.90684855 8.86681261"></polygon>
                        <path d="M17.6112507,6.91125625 C17.6112507,6.91125625 16.6736567,6.51042651 16.4228343,6.18247708 C16.1720135,5.86059905 15.8734164,2.61753149 15.8734164,2.61753149 C15.8734164,2.61753149 15.8196687,5.92133064 15.6345388,6.21891575 C15.4434373,6.51042651 14.511814,7.0570109 14.511814,7.0570109 C14.511814,7.0570109 15.5449597,6.71084141 16.0525747,6.68654842 C16.4288075,6.66225549 17.6112507,6.91125625 17.6112507,6.91125625" id="path45" fill="#FFFFFF"></path>
                        <path d="M16.0585462,6.68654842 C15.5509314,6.71691422 14.517786,7.0570109 14.517786,7.0570109 C14.517786,7.0570109 15.449409,6.51042651 15.6345388,6.21891575 C15.8196687,5.92740351 15.8734164,2.61753149 15.8734164,2.61753149 C15.8734164,2.61753149 16.1720135,5.85452619 16.4228343,6.18247708 C16.6796284,6.51042651 17.6172224,6.91125625 17.6172224,6.91125625 C17.6172224,6.91125625 16.4288075,6.66225549 16.0585462,6.68654842" id="path32" fill="#FFFFFF"></path>
                        <path d="M21.0928925,13.6828277 C25.0761761,14.7577779 26.7781791,16.1606775 26.7781791,16.1606775 L27.2021866,15.6748247 C27.0051119,15.5290686 25.5360149,14.4966314 22.663512,13.5370731 C23.5175,13.1909021 24.5566164,12.784001 24.8372985,12.784001 C25.4703239,12.784001 26.7781791,13.6281705 28.181585,14.557363 L28.5040687,14.1929735 C27.2798224,13.3305854 25.8405836,12.310294 24.8014672,12.310294 C23.9534507,12.310294 22.7411477,12.8386598 21.0928925,13.6828277" id="path25" fill="#FFFFFF"></path>
                        <polygon id="polygon37" fill="#003E7E" points="12.7799516 12.4317572 11.5139003 11.6847585 10.6181093 12.1645381"></polygon>
                        <polygon id="polygon39" fill="#003E7E" points="10.456867 9.85673756 10.6957446 10.9316868 12.2126173 8.84859315"></polygon>
                        <polygon id="polygon35" fill="#003E7E" points="9.56107595 12.3406598 6.96328205 14.1322418 9.3162264 13.7557059"></polygon>
                    </g>
                </g>
            </g>
        </g>
    </g>
</svg>