<?xml version="1.0" encoding="UTF-8" standalone="no"?>
<svg width="60px" height="60px" viewBox="0 0 60 60" version="1.1" xmlns="http://www.w3.org/2000/svg" xmlns:xlink="http://www.w3.org/1999/xlink">
    <!-- Generator: Sketch 40.3 (33839) - http://www.bohemiancoding.com/sketch -->
    <title>Artboard</title>
    <desc>Created with Sketch.</desc>
    <defs>
        <path d="M12.3623527,74.1074221 C12.3623527,74.1074221 0.695169657,74.1074221 0.695169657,62.4446147 L0.695169657,62.4446147 L0.695169657,12.8776832 C0.695169657,12.8776832 0.695169657,1.21487577 12.3623527,1.21487577 L12.3623527,1.21487577 L47.3639019,1.21487577 C47.3639019,1.21487577 59.0310849,1.21487577 59.0310849,12.8776832 L59.0310849,12.8776832 L59.0310849,62.4446147 C59.0310849,62.4446147 59.0310849,74.1074221 47.3639019,74.1074221 L47.3639019,74.1074221 L12.3623527,74.1074221 L12.3623527,74.1074221 Z" id="path-1"></path>
    </defs>
    <g id="Page-1" stroke="none" stroke-width="1" fill="none" fill-rule="evenodd">
        <g id="Artboard">
            <g id="capitals" transform="translate(0.000000, -7.272727)">
                <g id="layer1">
                    <g id="g2620" transform="translate(30.020593, 37.260440) scale(1, -1) translate(-30.020593, -37.260440) translate(0.042414, 0.004250)">
                        <g id="g2622-Clipped">
                            <mask id="mask-2" fill="white">
                                <use xlink:href="#path-1"></use>
                            </mask>
                            <g id="path2626"></g>
                            <g id="g2622" mask="url(#mask-2)">
                                <g transform="translate(0.000000, 14.578509)">
                                    <g id="g2628" transform="translate(0.694214, 1.606714)">
                                        <path d="M29.1679576,16.1983436 C29.1679576,16.1983436 30.346019,9.6396343 30.3816688,9.36264262 C30.7900202,9.0694526 30.9455826,8.68393202 30.9958163,8.42799819 C33.7003342,7.54518847 35.1619729,4.1338173 35.4876818,2.00535494 C35.7647774,1.8336525 36.2865597,1.41573523 36.5377283,0.575041199 C36.5377283,0.575041199 39.6668019,6.07437886 42.1185308,7.82379998 C42.8817591,8.36806432 43.8718492,9.17474184 45.1163487,9.99275819 C47.8127643,11.7616173 53.8715973,15.7431702 53.9607216,21.6361276 C53.9672034,22.0540449 53.9380354,22.4865406 53.8829404,22.9255157 C55.8550184,25.7310689 56.6749621,27.7817792 56.7365389,30.2973819 C56.7673273,31.5657122 56.4983339,33.2244226 56.4983339,33.2244226 C56.3913848,32.947431 56.286056,32.6914971 56.146698,32.3902079 C55.6800107,31.3680925 54.0417437,29.5279606 50.842991,27.2731512 C53.7808526,29.8697457 57.3393434,33.9679266 57.433329,38.5552975 C57.4657379,40.1330162 57.0784522,41.1648507 56.6457942,42.7247512 C56.6457942,42.7247512 55.7107991,37.2545705 46.1080593,32.2735799 C43.0016718,30.6634645 40.1756208,28.9934153 38.3720687,27.1921595 C36.7111156,25.5302094 35.5589812,22.873681 34.3420292,18.1551035 C33.5820419,19.9579792 32.2646225,23.1166562 32.0523446,23.6252842 C32.1414689,23.6706396 32.207907,23.7030362 32.2565203,23.7305734 C32.3456446,23.7516313 32.7118645,23.9994659 33.5917645,23.1441934 C33.9741889,23.6317635 34.3695767,24.6652179 34.377679,25.3147714 C34.3809198,25.7505069 34.2415618,27.1451843 32.486623,27.4043578 C32.2111479,27.7914982 31.4608832,28.4783079 29.0496654,28.488027 C28.7628471,28.488027 26.2527823,28.5285228 25.9578619,26.6365563 C25.9367961,26.492391 23.9112435,18.4904093 23.9112435,18.4904093 C22.2340859,23.2089868 21.6247997,25.5302094 19.9638466,27.1921595 C18.1602945,28.9934153 15.3342435,30.6634645 12.227856,32.2735799 C2.62349575,37.2545705 1.6901211,42.7247512 1.6901211,42.7247512 C1.25746306,41.1648507 0.870177403,40.1330162 0.902586245,38.5552975 C0.996571886,33.9679266 4.55506272,29.8697457 7.49292423,27.2731512 C4.29417154,29.5279606 2.65590459,31.3680925 2.18759682,32.3902079 C2.04985925,32.6914971 1.94453051,32.947431 1.83758133,33.2244226 C1.83758133,33.2244226 1.56858794,31.5657122 1.59937634,30.2973819 C1.6593327,27.7817792 2.48089684,25.7326887 4.45297487,22.9255157 C4.39787983,22.4865406 4.36871188,22.0540449 4.37519365,21.6361276 C4.46431796,15.7431702 10.5231509,11.7616173 13.2195666,9.99275819 C14.4640661,9.17474184 15.4541562,8.36806432 16.2173844,7.82379998 C18.6691133,6.07437886 21.798187,0.575041199 21.798187,0.575041199 C22.0493555,1.41573523 22.5711379,1.8336525 22.846613,2.00535494 C23.1739423,4.1338173 24.6355811,7.54518847 27.3384785,8.42799819 C27.3903327,8.68393202 27.5458951,9.0694526 27.9542465,9.36264262 C27.9898962,9.6396343 29.1679576,16.1983436 29.1679576,16.1983436" id="path2630" fill="#0E2B58"></path>
                                    </g>
                                    <g id="g2632" transform="translate(24.717089, 16.821494)">
                                        <path d="M0,0 L4.92614396,7.35242818 L10.4550924,0.163603271 L6.95979878,8.82323778 L8.01308614,9.34968395 C8.27883864,9.40637815 8.59482485,9.51976656 9.34670998,8.9560642 C9.80043377,10.5839977 9.42611164,11.3517992 7.90451652,11.3922951 C7.88993254,12.0791048 6.5563087,12.2783445 6.4639435,12.3042618 C6.08151917,12.390113 5.13031966,12.4176502 5.00392518,12.4192701 C5.00392518,12.4192701 2.94272284,12.4889229 2.75151067,11.285386 L0,0 L0,0 Z" id="path2634" fill="#FFFFFF"></path>
                                    </g>
                                    <g id="g2636" transform="translate(28.768033, 26.261727)">
                                        <path d="M1.62044209,1.61983436 C1.62044209,1.61983436 1.71280729,1.33798318 2.07578632,1.2586113 C2.49061949,1.16304107 2.81470791,1.51940463 2.81470791,1.51940463 C1.60261723,2.10092517 0.431037596,1.8806277 0.431037596,1.8806277 C0.768089551,1.84661117 1.62044209,1.61983436 1.62044209,1.61983436" id="path2638" fill="#0E2B58"></path>
                                    </g>
                                    <g id="g2640" transform="translate(2.029118, 8.721836)">
                                        <path d="M12.9635367,8.09917182 C9.30457849,10.1255846 4.87915114,12.1730552 3.81614112,14.7113357 C3.95063782,10.7945762 6.42343245,8.15100652 9.08905969,6.05008135 C11.7919571,3.92161899 14.7217164,2.40545403 15.739354,1.28128898 L13.7867213,6.0759987 C16.1217784,4.69751965 18.2510393,3.33037945 19.7758753,1.94056157 C19.2848813,2.52370194 16.1071944,6.35946971 12.9635367,8.09917182 M7.53991705,19.8656486 L8.39551047,17.7663433 C5.04767711,19.7020454 1.97693935,21.7543755 1.02898073,24.1144742 C1.2590835,16.6729551 7.8461806,12.4354684 12.5033312,9.2249567 L9.69510503,16.1124924 C14.6731031,13.3117988 19.686751,10.6471713 21.58915,7.80760163 C20.680082,9.22171703 19.657583,10.5856176 18.4471128,11.8085925 C16.1071944,14.1233358 11.7449643,16.6178807 7.53991705,19.8656486 M8.22536405,19.8559296 L4.94072794,27.9081263 C2.75799244,29.3951342 1.06138957,30.9696132 0.371081239,32.6979765 C0.549329869,26.9038289 4.26014226,22.9206562 8.22536405,19.8559296" id="path2642" fill="#E51535"></path>
                                    </g>
                                    <g id="g2644" transform="translate(34.678271, 9.041915)">
                                        <path d="M3.24088418,1.61983436 C4.76572019,3.01127208 6.8949811,4.37679245 9.23003815,5.75527149 L7.27740543,0.962181612 C8.29504306,2.08472683 11.2248024,3.60089179 13.9276998,5.72935414 C16.593327,7.83027931 19.0661216,10.473849 19.2022388,14.3906085 C18.1376083,11.8539479 13.712181,9.8048574 10.0532227,7.77844461 C6.90956508,6.03874251 3.73187814,2.20297473 3.24088418,1.61983436 M4.57126714,11.4878653 C3.3607969,10.2648904 2.3366775,8.90260966 1.42760948,7.48687443 C3.3300085,10.3280639 8.34365633,12.9910716 13.3216544,15.793385 L10.5134283,8.90584933 C15.1705789,12.1147412 21.757676,16.3538477 21.9877787,23.793747 C21.0414406,21.4352681 17.9690823,19.3813182 14.621249,17.4456161 L15.4768424,19.5465413 C11.2734156,16.2971535 6.90956508,13.8026086 4.57126714,11.4878653 M22.6472987,32.3772493 C21.9553699,30.648886 20.258767,29.0760268 18.0760315,27.5890189 L14.7913954,19.5352024 C18.7566172,22.599929 22.46905,26.5847216 22.6472987,32.3772493" id="path2646" fill="#E51535"></path>
                                    </g>
                                </g>
                            </g>
                        </g>
                    </g>
                </g>
            </g>
        </g>
    </g>
</svg>