<?xml version="1.0" encoding="UTF-8" standalone="no"?>
<svg width="30px" height="30px" viewBox="0 0 30 30" version="1.1" xmlns="http://www.w3.org/2000/svg" xmlns:xlink="http://www.w3.org/1999/xlink">
    <!-- Generator: Sketch 40.3 (33839) - http://www.bohemiancoding.com/sketch -->
    <title>Artboard Copy</title>
    <desc>Created with Sketch.</desc>
    <defs>
        <path d="M6.18117635,36.553711 C6.18117635,36.553711 0.347584828,36.553711 0.347584828,30.7223074 L0.347584828,30.7223074 L0.347584828,5.9388416 C0.347584828,5.9388416 0.347584828,0.107437885 6.18117635,0.107437885 L6.18117635,0.107437885 L23.681951,0.107437885 C23.681951,0.107437885 29.5155425,0.107437885 29.5155425,5.9388416 L29.5155425,5.9388416 L29.5155425,30.7223074 C29.5155425,30.7223074 29.5155425,36.553711 23.681951,36.553711 L23.681951,36.553711 L6.18117635,36.553711 L6.18117635,36.553711 L6.18117635,36.553711 Z" id="path-1"></path>
    </defs>
    <g id="Page-1" stroke="none" stroke-width="1" fill="none" fill-rule="evenodd">
        <g id="Artboard-Copy">
            <g id="capitals" transform="translate(0.000000, -5.000000)">
                <g id="Page-1">
                    <g id="Artboard">
                        <g id="capitals" transform="translate(0.000000, 0.363637)">
                            <g id="layer1">
                                <g id="g2620" transform="translate(15.021207, 18.758315) scale(1, -1) translate(-15.021207, -18.758315) translate(0.021207, 0.258315)">
                                    <g id="g2622-Clipped">
                                        <g>
                                            <mask id="mask-2" fill="white">
                                                <use xlink:href="#path-1"></use>
                                            </mask>
                                            <g id="path-1"></g>
                                            <g id="g2622" mask="url(#mask-2)">
                                                <g transform="translate(0.000000, 7.000000)" id="Group">
                                                    <g transform="translate(0.000000, 0.289255)">
                                                        <g id="g2628" transform="translate(0.347107, 0.303357)" fill="#0E2B58">
                                                            <path d="M14.5839788,8.0991718 C14.5839788,8.0991718 15.1730095,4.81981715 15.1908344,4.68132131 C15.3950101,4.5347263 15.4727913,4.34196601 15.4979082,4.2139991 C16.8501671,3.77259424 17.5809865,2.06690865 17.7438409,1.00267747 C17.8823887,0.91682625 18.1432798,0.707867615 18.2688641,0.287520599 C18.2688641,0.287520599 19.833401,3.03718943 21.0592654,3.91189999 C21.4408795,4.18403216 21.9359246,4.58737092 22.5581744,4.99637909 C23.9063821,5.88080865 26.9357986,7.8715851 26.9803608,10.8180638 C26.9836017,11.0270225 26.9690177,11.2432703 26.9414702,11.4627579 C27.9275092,12.8655345 28.3374811,13.8908896 28.3682694,15.148691 C28.3836636,15.7828561 28.2491669,16.6122113 28.2491669,16.6122113 C28.1956924,16.4737155 28.143028,16.3457485 28.073349,16.195104 C27.8400053,15.6840462 27.0208718,14.7639803 25.4214955,13.6365756 C26.8904263,14.9348728 28.6696717,16.9839633 28.7166645,19.2776488 C28.7328689,20.0665081 28.5392261,20.5824254 28.3228971,21.3623756 C28.3228971,21.3623756 27.8553996,18.6272852 23.0540297,16.13679 C21.5008359,15.3317322 20.0878104,14.4967076 19.1860343,13.5960797 C18.3555578,12.7651047 17.7794906,11.4368405 17.1710146,9.07755175 C16.791021,9.9789896 16.1323113,11.5583281 16.0261723,11.8126421 C16.0707344,11.8353198 16.1039535,11.8515181 16.1282601,11.8652867 C16.1728223,11.8758156 16.3559323,11.999733 16.7958822,11.5720967 C16.9870945,11.8158818 17.1847884,12.3326089 17.1888395,12.6573857 C17.1904599,12.8752535 17.1207809,13.5725921 16.2433115,13.7021789 C16.105574,13.8957491 15.7304416,14.239154 14.5248327,14.2440135 C14.3814235,14.2440135 13.1263911,14.2642614 12.978931,13.3182781 C12.968398,13.2461955 11.9556218,9.24520465 11.9556218,9.24520465 C11.117043,11.6044934 10.8123999,12.7651047 9.9819233,13.5960797 C9.08014725,14.4967076 7.66712175,15.3317322 6.113928,16.13679 C1.31174788,18.6272852 0.84506055,21.3623756 0.84506055,21.3623756 C0.62873153,20.5824254 0.435088701,20.0665081 0.451293122,19.2776488 C0.498285943,16.9839633 2.27753136,14.9348728 3.74646211,13.6365756 C2.14708577,14.7639803 1.32795229,15.6840462 1.09379841,16.195104 C1.02492962,16.3457485 0.972265255,16.4737155 0.918790665,16.6122113 C0.918790665,16.6122113 0.78429397,15.7828561 0.79968817,15.148691 C0.82966635,13.8908896 1.24044842,12.8663444 2.22648744,11.4627579 C2.19893991,11.2432703 2.18435594,11.0270225 2.18759682,10.8180638 C2.23215898,7.8715851 5.26157545,5.88080865 6.6097833,4.99637909 C7.23203305,4.58737092 7.7270781,4.18403216 8.1086922,3.91189999 C9.33455665,3.03718943 10.8990935,0.287520599 10.8990935,0.287520599 C11.0246778,0.707867615 11.285569,0.91682625 11.4233065,1.00267747 C11.5869712,2.06690865 12.3177905,3.77259424 13.6692393,4.2139991 C13.6951663,4.34196601 13.7729475,4.5347263 13.9771232,4.68132131 C13.9949481,4.81981715 14.5839788,8.0991718 14.5839788,8.0991718" id="path2630"></path>
                                                        </g>
                                                        <g id="g2632" transform="translate(12.358545, 7.910747)" fill="#FFFFFF">
                                                            <path d="M0,0 L2.46307198,3.67621409 L5.2275462,0.0818016355 L3.47989939,4.41161889 L4.00654307,4.67484197 C4.13941932,4.70318908 4.29741243,4.75988328 4.67335499,4.4780321 C4.90021688,5.29199885 4.71305582,5.6758996 3.95225826,5.69614755 C3.94496627,6.0395524 3.27815435,6.13917225 3.23197175,6.1521309 C3.04075958,6.1950565 2.56515983,6.2088251 2.50196259,6.20963505 C2.50196259,6.20963505 1.47136142,6.24446145 1.37575534,5.642693 L0,0 L0,0 L0,0 Z" id="path2634"></path>
                                                        </g>
                                                        <g id="g2636" transform="translate(14.384016, 13.130864)" fill="#0E2B58">
                                                            <path d="M0.810221045,0.30991718 C0.810221045,0.30991718 0.856403645,0.16899159 1.03789316,0.12930565 C1.24530974,0.081520535 1.40735396,0.259702315 1.40735396,0.259702315 C0.801308615,0.550462585 0.215518798,0.44031385 0.215518798,0.44031385 C0.384044775,0.423305585 0.810221045,0.30991718 0.810221045,0.30991718" id="path2638"></path>
                                                        </g>
                                                        <g id="g2640" transform="translate(1.014559, 4.360918)" fill="#E51535">
                                                            <path d="M6.48176835,3.54958591 C4.65228924,4.5627923 2.43957557,5.5865276 1.90807056,6.85566785 C1.97531891,4.8972881 3.21171622,3.57550326 4.54452984,2.52504067 C5.89597855,1.46080949 7.3608582,0.702727015 7.869677,0.14064449 L6.89336065,2.53799935 C8.0608892,1.84875982 9.12551965,1.16518972 9.88793765,0.470280785 C9.64244065,0.76185097 8.0535972,2.67973485 6.48176835,3.54958591 M3.76995852,9.4328243 L4.19775523,8.38317165 C2.52383856,9.3510227 0.988469675,10.3771877 0.514490365,11.5572371 C0.62954175,7.83647755 3.9230903,5.7177342 6.2516656,4.11247835 L4.84755252,7.5562462 C7.33655155,6.1558994 9.8433755,4.82358565 10.794575,3.40380081 C10.340041,4.11085851 9.8287915,4.7928088 9.2235564,5.40429625 C8.0535972,6.5616679 5.87248215,7.80894035 3.76995852,9.4328243 M4.11268202,9.4279648 L2.47036397,13.4540631 C1.37899622,14.1975671 0.530694785,14.9848066 0.18554062,15.8489882 C0.274664935,12.9519144 2.13007113,10.9603281 4.11268202,9.4279648" id="path2642"></path>
                                                        </g>
                                                        <g id="g2644" transform="translate(17.839136, 4.020957)" fill="#E51535">
                                                            <path d="M1.12044209,0.80991718 C1.88286009,1.50563604 2.94749055,2.18839622 4.11501908,2.87763575 L3.13870271,0.481090806 C3.64752153,1.04236342 5.1124012,1.8004459 6.4638499,2.86467707 C7.7966635,3.91513965 9.0330608,5.2369245 9.1011194,7.19530425 C8.56880415,5.92697395 6.3560905,4.9024287 4.52661135,3.88922231 C2.95478254,3.01937125 1.36593907,1.10148737 1.12044209,0.80991718 M1.78563357,5.74393265 C1.18039845,5.1324452 0.66833875,4.45130483 0.21380474,3.74343722 C1.16500425,5.16403195 3.67182816,6.4955358 6.1608272,7.8966925 L4.75671415,4.45292467 C7.08528945,6.0573706 10.378838,8.17692385 10.4938893,11.8968735 C10.0207203,10.717634 8.48454115,9.6906591 6.8106245,8.72280805 L7.2384212,9.77327065 C5.1367078,8.14857675 2.95478254,6.9013043 1.78563357,5.74393265 M10.8236494,16.1886247 C10.477685,15.324443 9.6293835,14.5380134 8.53801575,13.7945095 L6.8956977,9.7676012 C8.8783086,11.2999645 10.734525,13.2923608 10.8236494,16.1886247" id="path2646"></path>
                                                        </g>
                                                    </g>
                                                </g>
                                            </g>
                                        </g>
                                    </g>
                                </g>
                            </g>
                        </g>
                    </g>
                </g>
            </g>
        </g>
    </g>
</svg>