<?xml version="1.0" encoding="UTF-8" standalone="no"?>
<svg width="60px" height="60px" viewBox="0 0 60 60" version="1.1" xmlns="http://www.w3.org/2000/svg" xmlns:xlink="http://www.w3.org/1999/xlink">
    <!-- Generator: Sketch 40.3 (33839) - http://www.bohemiancoding.com/sketch -->
    <title>Artboard</title>
    <desc>Created with Sketch.</desc>
    <defs></defs>
    <g id="Page-1" stroke="none" stroke-width="1" fill="none" fill-rule="evenodd">
        <g id="Artboard">
            <g id="coyotes" transform="translate(1.153846, 0.000000)">
                <g id="Group">
                    <path d="M56.7989423,28.5256731 L55.3272115,27.8682692 C55.3644231,27.5841346 55.3877885,27.2319231 55.3678846,26.8315385 C55.30125,25.4913462 54.7733654,24.2304808 53.8427885,23.1856731 L52.3275,21.4851923 L52.3938462,23.7256731 C52.3903846,23.7738462 52.3638462,24.0556731 52.1953846,24.4869231 C52.0577885,24.8394231 51.8007692,25.3520192 51.3276923,25.9471154 L50.9965385,25.7792308 L50.175,23.6454808 L53.5817308,16.5025962 L53.8427885,17.7467308 L54.9328846,15.9741346 C54.9611538,15.9285577 55.2132692,15.5079808 55.4255769,14.7960577 C55.6797115,13.9448077 55.7749038,13.0122115 55.7039423,12.0842308 L56.4473077,10.5683654 L56.5459615,10.3675962 L56.5300962,10.1446154 C56.5257692,10.0860577 56.1152885,4.28682692 56.0668269,3.31153846 C56.0428846,2.83384615 55.6107692,2.08961538 55.0159615,1.50173077 C54.4439423,0.936346154 53.4689423,0.2625 52.0730769,0.2625 C51.5552885,0.2625 51.0585577,0.347019231 50.5967308,0.514326923 C50.2525962,0.638653846 49.9975962,0.786634615 49.8839423,0.875769231 C49.77375,0.962019231 48.4436538,1.99211538 46.6024038,3.41769231 C41.2156731,7.58884615 35.9232692,11.6875962 34.7120192,12.6349038 C34.6828846,12.6349038 34.6525962,12.6346154 34.6202885,12.6346154 C34.1154808,12.6346154 33.0651923,12.6660577 31.7045192,12.8772115 C30.1205769,13.1229808 28.5770192,13.5363462 27.1171154,14.1060577 C25.2121154,14.8497115 23.47125,15.8535577 21.9426923,17.0904808 C20.1357692,18.5526923 18.6109615,20.3532692 17.4089423,22.4440385 L0.709038462,35.8632692 L0.0689423077,36.3775962 L0.576923077,37.0225962 C0.636634615,37.0984615 0.717115385,37.2089423 0.810865385,37.3370192 C1.32548077,38.0420192 2.28317308,39.3542308 3.79903846,40.4878846 C5.67288462,41.8892308 7.83259615,42.5997115 10.2184615,42.5997115 C10.8738462,42.5997115 11.5546154,42.5454808 12.2417308,42.4375962 L12.2541346,42.4355769 L12.2665385,42.4329808 L15.4941346,41.8266346 C15.6080769,42.2720192 15.7756731,42.8893269 16.0029808,43.6347115 C16.6794231,45.8526923 17.9405769,49.1273077 20.1060577,52.1330769 C21.3072115,53.8000962 22.6704808,55.2219231 24.1575,56.3581731 C25.8975,57.6876923 27.83625,58.6488462 29.9198077,59.2148077 L31.8475962,59.7383654 L30.8573077,58.0032692 C30.8460577,57.9830769 29.6786538,55.9159615 28.8807692,53.1294231 C28.3364423,51.22875 27.8826923,48.6836538 28.30875,46.2366346 C28.6070192,46.9670192 28.9840385,47.8003846 29.4409615,48.6441346 C30.2198077,50.0821154 31.0713462,51.2532692 31.9725,52.1241346 C33.165,53.2768269 34.4526923,53.9151923 35.7998077,54.0213462 L37.8490385,54.1831731 L36.4909615,52.6505769 C36.4531731,52.6055769 35.4839423,51.4425 34.9156731,49.4353846 C34.2680769,47.1481731 34.3693269,44.7253846 35.2153846,42.2146154 C35.4611538,42.5270192 35.7542308,42.8674038 36.0940385,43.2077885 C36.7875,43.9024038 37.5354808,44.4588462 38.3166346,44.8609615 C39.3158654,45.3752885 40.3681731,45.6372115 41.445,45.6392308 L43.1616346,45.6429808 L42.0975,44.2958654 C41.8150962,43.9384615 41.5768269,43.4665385 41.3071154,42.8682692 C40.3808654,40.8173077 40.1391346,38.4271154 40.6283654,36.3504808 L49.5089423,36.6902885 L49.6929808,36.6972115 L49.8623077,36.6259615 L54.1419231,34.8265385 L54.4070192,34.7149038 L54.5460577,34.4627885 L57.1860577,29.6832692 L57.6225,28.8934615 L56.7989423,28.5256731 L56.7989423,28.5256731 Z" id="Shape" fill="#FFFFFF"></path>
                    <path d="M1.22884615,36.5088462 C2.07346154,37.5816346 5.12538462,42.7122115 12.1136538,41.6175 L16.1163462,40.8657692 C16.1163462,40.8657692 16.3263462,41.8511538 16.79625,43.3924038 C18.1041346,47.6795192 21.6623077,56.1126923 30.1373077,58.4143269 C30.1373077,58.4143269 25.31625,49.9661538 28.2576923,43.6024038 C28.2576923,43.6024038 30.8229808,52.7968269 35.8655769,53.1949038 C35.8655769,53.1949038 31.5530769,48.2521154 35.0195192,40.4397115 C35.0195192,40.4397115 37.3084615,44.8021154 41.4467308,44.8101923 C41.1025962,44.3746154 40.8302885,43.8285577 40.5510577,43.2095192 C39.6259615,41.1602885 39.1309615,38.2615385 40.0038462,35.4969231 L49.54125,35.8621154 L53.8205769,34.0624038 L56.4605769,29.2828846 L54.3816346,28.3540385 C54.3816346,28.3540385 55.1890385,25.9436538 53.2234615,23.7375 C53.2234615,23.7375 53.2150962,25.1723077 51.5316346,26.9800962 L50.3374038,26.3746154 L49.2729808,23.6102885 L53.7291346,14.2664423 C53.7291346,14.2664423 54.1231731,15.0458654 54.2270192,15.5394231 C54.2270192,15.5394231 55.095,14.1279808 54.8573077,11.9275962 L55.7033654,10.2025962 C55.7033654,10.2025962 55.2885577,4.34769231 55.2389423,3.3525 C55.2216346,3.00375 54.1635577,1.09125 52.0736538,1.09125 C51.0706731,1.09125 50.4504808,1.485 50.3959615,1.52798077 C50.0143269,1.82653846 35.4458654,13.0999038 34.99125,13.4702885 C33.9752885,13.4206731 23.4925962,13.3543269 18.0522115,22.9909615 L1.22884615,36.5088462 L1.22884615,36.5088462 Z" id="Shape" fill="#000000"></path>
                    <path d="M10.1345192,39.3839423 C11.0301923,39.1849038 9.20567308,38.5546154 8.87682692,36.8518269 C9.37153846,37.2389423 11.2846154,37.9575 11.7158654,37.6035577 C12.0392308,37.2801923 11.0192308,36.1935577 11.4173077,33.7554808 C11.8303846,31.2250962 13.2582692,30.8195192 12.5451923,30.405 C11.7490385,30.2723077 4.35144231,36.3761538 4.35144231,36.3761538 L5.5125,38.3001923 C5.51221154,38.3001923 9.40471154,39.7488462 10.1345192,39.3839423 L10.1345192,39.3839423 Z" id="Shape" fill="#EFE1C6"></path>
                    <polygon id="Shape" fill="#8E0028" points="50.9140385 33.8798077 53.2817308 32.8875 52.5931731 31.2842308"></polygon>
                    <path d="M33.2120192,41.6950962 C33.1569231,42.06 33.6432692,42.2590385 33.8200962,41.83875 C33.9969231,41.4184615 34.9699038,38.6322115 35.3460577,38.5990385 C35.4897115,38.5863462 35.6656731,39.3940385 36.1641346,40.2135577 C36.9703846,41.5381731 38.4975,43.1327885 39.3490385,43.1327885 C39.7263462,43.1327885 39.7883654,43.0814423 39.7883654,43.0814423 L38.8635577,41.7132692 L36.1641346,34.2199038 L34.5054808,36.7078846 L33.2120192,41.6950962 L33.2120192,41.6950962 Z" id="Shape" fill="#8E0028"></path>
                    <path d="M29.6071154,36.5088462 C29.6071154,36.5088462 33.2754808,50.1995192 33.0380769,49.9202885 C29.16,45.3585577 28.9880769,40.3015385 28.9880769,40.3015385 C28.9880769,40.3015385 26.4845192,43.2726923 26.4124038,48.2186538 L25.5213462,48.1523077 L27.3738462,40.6554808 L29.6071154,36.5088462 L29.6071154,36.5088462 Z" id="Shape" fill="#8E0028"></path>
                    <path d="M53.53875,28.5888462 C53.53875,28.5888462 54.1026923,26.6316346 53.4726923,25.23 C53.1242308,26.4409615 52.4111538,27.2203846 51.8097115,27.7595192 L49.6658654,26.71875 L54.01125,29.5315385 L51.3905769,30.1505769 L48.9911538,29.2880769 C48.9911538,29.2880769 49.4613462,26.7447115 48.8446154,25.8643269 C48.8105769,26.0593269 48.6634615,26.3472115 48.5835577,26.5401923 C48.1194231,27.66 47.1155769,28.5761538 47.1155769,28.5761538 L44.8003846,27.7399038 L42.8985577,22.7529808 L49.8536538,11.5182692 C49.8536538,11.5182692 50.6221154,12.2922115 51.0034615,13.2320192 C51.4678846,11.7836538 50.7934615,9.97009615 50.7934615,9.97009615 L51.6227885,8.63192308 L53.6405769,7.16682692 L54.0109615,9.00807692 L50.6936538,18.2079808 L53.3255769,12.5353846 C53.3255769,12.5353846 53.4539423,12.6516346 53.6350962,12.9115385 C53.8240385,13.1829808 54.0689423,13.6061538 54.1990385,13.9508654 C54.5085577,13.1656731 54.0773077,11.0538462 54.0773077,11.0538462 L54.8402885,9.64932692 L53.9114423,6.22153846 L50.3867308,8.65557692 L39.9954808,20.5107692 C39.9954808,20.5107692 37.6399038,21.4225962 36.0063462,22.6586538 C35.6573077,22.9228846 35.3573077,23.2182692 35.1023077,23.5047115 C35.1023077,23.5047115 37.8447115,24.0245192 38.0881731,25.86 C38.0881731,25.86 37.2011538,26.3795192 35.8875,27.3692308 C31.1056731,30.9732692 20.4773077,40.4861538 24.6640385,50.9166346 C25.4264423,52.8161538 26.6913462,54.7165385 28.5620192,56.6500962 C28.5620192,56.6500962 23.2820192,47.7100962 29.6290385,37.5617308 C29.6313462,37.7974038 29.6091346,47.1196154 33.7924038,50.7507692 C30.8013462,43.6849038 36.0008654,35.2673077 36.0008654,35.2673077 C35.0529808,39.6100962 39.7883654,43.0808654 39.7883654,43.0808654 C37.5686538,38.3994231 39.465,34.0704808 39.465,34.0704808 L49.5349038,34.4714423 L50.91375,33.8795192 L52.6456731,32.1741346 L53.2814423,32.8872115 L55.2302885,29.3682692 L53.53875,28.5888462 L53.53875,28.5888462 Z M41.4167308,22.6315385 L44.5791346,18.7393269 L42.3098077,22.6096154 L44.1810577,27.7182692 L41.4167308,22.6315385 L41.4167308,22.6315385 Z" id="Shape" fill="#EFE1C6"></path>
                    <path d="M54.4675962,3.96634615 C54.1606731,4.34769231 53.7017308,5.94 53.7017308,5.94 C53.7017308,5.94 53.655,4.62144231 53.0330769,3.79211538 C52.4486538,3.01326923 51.7225962,3.69259615 51.2166346,2.97115385 C50.985,2.64115385 50.9927885,2.15855769 50.9927885,2.15855769 L49.5827885,3.22009615 C49.5827885,3.22009615 49.2014423,4.74605769 49.2845192,6.62019231 C49.2845192,6.62019231 48.4384615,5.95673077 47.9573077,4.64653846 C47.9573077,4.64653846 47.6258654,5.40951923 47.6091346,8.22923077 C47.6091346,8.22923077 46.6967308,7.39990385 46.1659615,6.05625 C46.1659615,6.05625 45.7511538,7.81442308 45.8010577,9.95423077 C45.8010577,9.95423077 45.0049038,9.35711538 44.1920192,7.56576923 C44.1920192,7.56576923 43.7939423,9.65567308 43.8271154,11.8618269 C43.8271154,11.8618269 42.5333654,10.6843269 42.0357692,9.09173077 C42.0357692,9.09173077 35.8404808,13.8354808 35.4092308,14.1672115 C34.9782692,14.4989423 32.2993269,17.4181731 31.6191346,20.5615385 C31.6191346,20.5615385 31.5444231,19.0107692 31.7630769,17.5344231 C31.7630769,17.5344231 29.1245192,19.4114423 27.6426923,21.0259615 C27.6426923,21.0259615 27.6054808,19.0381731 28.7082692,17.3769231 C28.7082692,17.3769231 28.3165385,17.6290385 27.825,18.0155769 C27.5151923,18.2593269 27.2149038,18.5307692 26.7923077,18.9069231 C25.7307692,19.8522115 24.4260577,21.0827885 23.6160577,21.9132692 C23.6160577,21.9132692 25.8302885,17.7334615 29.2026923,15.3504808 C29.2026923,15.3504808 20.5390385,17.28 17.5038462,26.8145192 C17.4207692,26.7233654 17.6532692,24.6167308 17.6532692,24.6167308 L2.82490385,36.3876923 C6.20855769,41.0541346 11.7816346,40.4125962 12.4009615,40.3021154 C14.2436538,39.9729808 19.98375,39.0718269 19.98375,39.0718269 C19.98375,39.0718269 19.0465385,36.6998077 19.2455769,35.1325962 C19.2455769,35.1325962 19.8758654,38.1925962 22.0430769,40.0918269 L17.3102885,40.7443269 C17.3102885,40.7443269 17.5615385,41.7100962 17.9847115,43.1353846 C19.0531731,46.7348077 21.7854808,53.5104808 28.5614423,56.6509615 C28.5614423,56.6509615 27.9894231,56.0573077 27.1652885,55.0736538 C24.8339423,52.2908654 20.8491346,45.9375 24.9178846,37.6038462 C21.6669231,38.3780769 21.1802885,36.1664423 21.1802885,36.1664423 C25.515,39.1961538 34.9857692,26.5407692 32.6720192,23.53875 C32.6720192,23.53875 36.6279808,20.3293269 39.43125,19.93125 L50.3867308,8.65644231 L53.7011538,6.80855769 L54.84,9.65048077 L54.4675962,3.96634615 L54.4675962,3.96634615 Z M11.9477885,39.1629808 C11.5554808,39.2397115 10.9551923,39.2746154 10.7316346,39.2734615 C9.33086538,39.2665385 6.09548077,38.7874038 4.88221154,36.6640385 L16.4486538,27.3865385 C8.55346154,35.1709615 17.1672115,37.7033654 18.2622115,38.0682692 C18.2619231,38.0682692 13.2250962,38.9140385 11.9477885,39.1629808 L11.9477885,39.1629808 Z" id="Shape" fill="#8E0028"></path>
                    <polygon id="Shape" fill="#8E0028" points="47.3105769 23.1069231 48.7699038 20.9674038 47.9740385 23.1236538 48.7534615 25.1304808"></polygon>
                    <path d="M29.7660577,16.5305769 C29.7660577,16.5305769 30.8841346,16.2568269 32.4542308,16.3315385 C32.5606731,16.01625 32.0547115,15.9499038 31.6566346,15.9499038 C32.2909615,15.4938462 33.2945192,15.1785577 33.2945192,15.1785577 L33.8417308,14.5318269 C32.2000962,14.6645192 29.7660577,16.5305769 29.7660577,16.5305769 L29.7660577,16.5305769 Z" id="Shape" fill="#EFE1C6"></path>
                </g>
            </g>
        </g>
    </g>
</svg>