<?xml version="1.0" encoding="UTF-8" standalone="no"?>
<svg width="30px" height="31px" viewBox="0 0 30 31" version="1.1" xmlns="http://www.w3.org/2000/svg" xmlns:xlink="http://www.w3.org/1999/xlink">
    <!-- Generator: Sketch 40.3 (33839) - http://www.bohemiancoding.com/sketch -->
    <title>devils</title>
    <desc>Created with Sketch.</desc>
    <defs></defs>
    <g id="Page-1" stroke="none" stroke-width="1" fill="none" fill-rule="evenodd">
        <g id="devils">
            <g id="Page-1">
                <g id="Artboard">
                    <g id="devils" transform="translate(0.370370, 0.000000)">
                        <g id="g3" transform="translate(0.000076, 0.188033)">
                            <path d="M14.9396297,27.8742137 C22.1164815,27.8742137 27.9344445,21.9603096 27.9344445,14.6656162 C27.9344445,7.37073467 22.1164815,1.45664238 14.9396297,1.45664238 C7.76314815,1.45664238 1.945,7.37054643 1.945,14.6656162 C1.945,21.9603096 7.76296295,27.8742137 14.9396297,27.8742137 L14.9396297,27.8742137 L14.9396297,27.8742137 L14.9396297,27.8742137 Z" id="path5" fill="#000000"></path>
                            <path d="M14.9396296,26.4838251 C21.3605556,26.4838251 26.565926,21.1925562 26.565926,14.6656162 C26.565926,8.13848814 21.3605556,2.84721919 14.9396296,2.84721919 C8.5187037,2.84721919 3.31277778,8.13848814 3.31277778,14.6656162 C3.31277778,21.1923679 8.5185185,26.4838251 14.9396296,26.4838251 L14.9396296,26.4838251 L14.9396296,26.4838251 L14.9396296,26.4838251 Z" id="path7" fill="#FFFFFF"></path>
                            <path d="M4.32722222,27.8151123 C2.8225926,28.4708743 1.42148148,29.4780449 0.89777778,30.1607225 C0.0592592595,28.086527 -0.105925926,26.6547298 0.055185185,25.0981421 C0.276296296,22.9622101 1.11444445,21.0192046 2.25648148,19.6401093 C2.31037037,20.841524 2.615,21.8144384 3.3062963,21.7118579 C3.85703704,21.6297936 4.09037037,21.3241227 4.45388889,21.1654523 C5.6288889,20.6525501 6.6877778,20.5667213 8.17685185,20.5667213 C9.53055555,20.5667213 11.6720371,21.1707225 12.629074,20.1978081 C13.2481482,19.5685853 13.865,18.926187 13.865,18.926187 L12.5214815,16.4409168 L11.0842593,20.2286764 C9.95592595,19.90136 8.5587037,19.8328476 7.95444445,19.8328476 C6.6648148,19.8328476 5.2062963,20.1927262 4.56907407,20.4332726 L4.35296296,20.0602186 C4.23611111,19.811014 4.17944444,19.6975167 4.17944444,19.6975167 L7.73944445,10.6237583 C8.59925925,8.54824527 8.97537035,7.23709773 10.48,6.9095932 C11.9296297,6.59394658 12.7912963,7.13470555 13.9188889,8.38449301 C14.9398148,9.51570125 16.712963,11.9345295 16.712963,11.9345295 L18.3251852,7.61956282 C16.6459259,7.61956282 15.0337037,6.47254402 15.0337037,4.72491196 C15.0337037,3.41414086 15.4594444,2.24246509 16.8205556,1.31114754 C17.3957408,0.917577416 18.122963,0.598919248 18.7948148,0.408063145 C19.7548148,0.135707347 20.5888889,0.0820643592 20.5888889,0.0820643592 C20.4675926,0.191608986 20.3268519,0.348208865 20.3268519,0.348208865 C20.0848148,0.594025501 19.4401852,1.25656345 19.3933333,1.67290832 C19.3264815,2.26335762 19.8161111,2.58785064 20.5818518,2.58785064 C21.0427778,2.58785064 24.517963,2.59481482 24.517963,2.59481482 C25.2298148,2.59481482 25.7674074,1.91213722 25.364074,1.25656345 C25.0429629,0.734250149 24.9275926,0.628469947 24.6990741,0.273485124 C24.6990741,0.273485124 24.5716667,0.109544627 24.4777778,0.000188221008 L25.0687037,0.000188221008 C25.5657407,0.000188221008 27.21,0.131378264 28.1718518,1.06533091 C29.0716667,1.93924105 29.2375926,2.25225258 29.3944445,3.427881 C29.5016667,4.23346691 29.1525926,5.57171827 28.3179629,6.33363693 C27.5116666,7.06939281 26.2394445,7.53109899 25.2837037,7.68807526 L20.8503703,19.5951244 C19.9127778,21.981014 19.3014815,23.0561324 17.5994445,24.0604797 C15.9337037,25.0437462 14.2412963,25.2622708 13.2742593,25.2622708 C11.6351852,25.2622708 10.865,24.8560899 9.3785185,24.3064845 C7.9235185,23.7685489 7.10092595,23.8652945 6.73203705,24.1154402 C6.36944445,24.3612568 6.31574075,24.4158409 6.22055555,24.6332362 C6.0812963,24.952459 6.32166665,25.4789132 6.6648148,25.7540923 C7.61185185,26.5118701 8.60592595,26.9626594 8.7938889,27.0441591 C8.5924074,27.0437826 5.8735185,27.1416576 4.32722222,27.8151123 L4.32722222,27.8151123 L4.32722222,27.8151123 L4.32722222,27.8151123 Z" id="path9" fill="#000000"></path>
                            <path d="M4.81518518,19.7771342 C5.5898148,19.5437401 6.81296295,19.286442 7.95425925,19.286442 C8.1214815,19.286442 9.47555555,19.2958531 10.7535185,19.5817608 L12.4361111,15.1484031 L14.5218518,19.0069338 L14.2605555,19.2956649 C14.2348148,19.3240862 13.6287037,19.9542501 13.0088889,20.5840377 C11.9794444,21.6303582 10.210926,21.1291257 8.74814815,21.1163267 L8.17685185,21.1125622 L7.3738889,21.1031512 C6.3551852,21.0865878 5.55314815,21.2797025 4.66574074,21.6670613 C4.58092592,21.7039527 4.49444445,21.7611718 4.39407407,21.8276138 C4.15537037,21.9853431 3.85833334,22.1812811 3.3837037,22.251864 C3.05333334,22.3009897 2.74370371,22.2134669 2.48814815,21.9988949 C2.24444445,21.7952398 2.05814815,21.4762052 1.92851852,21.0483789 C1.21648148,22.2494171 0.741296295,23.688555 0.58962963,25.1549848 C0.458888889,26.4185124 0.56222222,27.5480267 1.10166666,29.159575 C1.85037037,28.5096478 2.96444444,27.8143595 4.11537037,27.3131269 C4.94018518,26.9534365 6.0327778,26.7522283 6.955,26.6385428 C6.75055555,26.5011415 6.54055555,26.3492471 6.3322222,26.1821068 C5.83074075,25.7811961 5.46796295,25.0085489 5.72925925,24.4105707 C5.8848148,24.0540801 6.0375926,23.9283485 6.4335185,23.6599454 C6.87962965,23.3578506 7.78444445,23.1353734 9.56166665,23.7922647 L10.1962963,24.0322465 C11.2701852,24.4438859 11.9796296,24.7151123 13.2738889,24.7151123 C13.9187037,24.7151123 15.6051852,24.6051913 17.3294445,23.5874803 C18.8627778,22.6821372 19.4322222,21.7463024 20.317037,19.4660049 L20.3542592,19.3837523 L24.8907407,7.19888891 L25.1972222,7.14844566 C25.9974074,7.01669093 27.2011111,6.61785063 27.9583334,5.92632666 C28.6720371,5.2752702 28.9414815,4.09907711 28.8612963,3.50072253 C28.7225926,2.45910747 28.6133334,2.24942927 27.8003704,1.46003036 C27.2187037,0.895179113 26.2575926,0.655950212 25.5688889,0.577650275 C25.6398148,0.681360048 25.7207408,0.805774137 25.8196296,0.966703095 C26.094074,1.41316333 26.114074,1.92173649 25.8737037,2.36179721 C25.6122222,2.841949 25.0925926,3.1402793 24.5166667,3.1402793 L20.5814815,3.13369156 C19.9509259,3.13369156 19.4570371,2.95055252 19.1537037,2.60479053 C18.9177778,2.33582271 18.815926,1.99213115 18.8590741,1.61023072 C18.8837037,1.38869459 18.9831482,1.1504068 19.1703703,0.872216152 C19.094074,0.891414691 19.0172222,0.911554339 18.9387037,0.933764421 C18.2812963,1.12010322 17.6185185,1.4227626 17.12,1.76381906 C16.0487037,2.49693989 15.5711111,3.41 15.5711111,4.72453552 C15.5711111,5.29221008 15.787037,5.81170005 16.1953704,6.22672739 C16.7164815,6.75694595 17.5125926,7.07315723 18.325,7.07315723 L19.1037037,7.07315723 L16.8672222,13.0593382 L16.282037,12.2609047 C16.2646297,12.2368124 14.5135185,9.85111109 13.5227778,8.75359441 C12.397037,7.50568915 11.7124074,7.19964175 10.5924074,7.443388 C9.5611111,7.6683121 9.2011111,8.45752276 8.48574075,10.2213419 L8.2372222,10.8291075 L4.69185185,19.8153431 L4.81518518,19.7771342 L4.81518518,19.7771342 L4.81518518,19.7771342 L4.81518518,19.7771342 Z" id="path11" fill="#E13A3E"></path>
                            <polygon id="polygon13" fill="#E13A3E" points="8.23444445 10.835507 8.23703705 10.8292957 8.2385185 10.8262841"></polygon>
                            <polygon id="polygon15" fill="#E13A3E" points="20.3622222 19.3668124 20.3544444 19.3841287 20.3477778 19.4016333"></polygon>
                        </g>
                    </g>
                </g>
            </g>
        </g>
    </g>
</svg>