<?xml version="1.0" encoding="UTF-8" standalone="no"?>
<svg width="60px" height="60px" viewBox="0 0 60 60" version="1.1" xmlns="http://www.w3.org/2000/svg" xmlns:xlink="http://www.w3.org/1999/xlink">
    <!-- Generator: Sketch 40.3 (33839) - http://www.bohemiancoding.com/sketch -->
    <title>Artboard</title>
    <desc>Created with Sketch.</desc>
    <defs></defs>
    <g id="Page-1" stroke="none" stroke-width="1" fill="none" fill-rule="evenodd">
        <g id="Artboard">
            <g id="devils" transform="translate(0.740741, 0.000000)">
                <g id="g3" transform="translate(0.000151, 0.370000)">
                    <path d="M29.8792593,54.8492593 C44.232963,54.8492593 55.8688889,43.2122222 55.8688889,28.8581481 C55.8688889,14.5037037 44.232963,2.8662963 29.8792593,2.8662963 C15.5262963,2.8662963 3.89,14.5033333 3.89,28.8581481 C3.89,43.2122222 15.5259259,54.8492593 29.8792593,54.8492593 L29.8792593,54.8492593 L29.8792593,54.8492593 Z" id="path5" fill="#000000"></path>
                    <path d="M29.8792593,52.1133333 C42.7211111,52.1133333 53.1318519,41.7014815 53.1318519,28.8581481 C53.1318519,16.0144444 42.7211111,5.60259259 29.8792593,5.60259259 C17.0374074,5.60259259 6.62555556,16.0144444 6.62555556,28.8581481 C6.62555556,41.7011111 17.037037,52.1133333 29.8792593,52.1133333 L29.8792593,52.1133333 L29.8792593,52.1133333 Z" id="path7" fill="#FFFFFF"></path>
                    <path d="M8.65444444,54.732963 C5.64518519,56.0233333 2.84296296,58.0051852 1.79555556,59.3485185 C0.118518519,55.267037 -0.211851852,52.4496296 0.11037037,49.3866667 C0.552592593,45.1837037 2.22888889,41.3603704 4.51296296,38.6466667 C4.62074074,41.0107407 5.23,42.9251852 6.61259259,42.7233333 C7.71407407,42.5618519 8.18074074,41.9603704 8.90777778,41.6481481 C11.2577778,40.6388889 13.3755556,40.47 16.3537037,40.47 C19.0611111,40.47 23.3440741,41.6585185 25.2581481,39.7440741 C26.4962963,38.5059259 27.73,37.2418519 27.73,37.2418519 L25.042963,32.3514815 L22.1685185,39.8048148 C19.9118519,39.1607407 17.1174074,39.0259259 15.9088889,39.0259259 C13.3296296,39.0259259 10.4125926,39.7340741 9.13814815,40.2074074 L8.70592593,39.4733333 C8.47222222,38.982963 8.35888889,38.7596296 8.35888889,38.7596296 L15.4788889,20.9048148 C17.1985185,16.8207407 17.9507407,14.2407407 20.96,13.5962963 C23.8592593,12.9751852 25.5825926,14.0392593 27.8377778,16.4985185 C29.8796296,18.7244444 33.4259259,23.4840741 33.4259259,23.4840741 L36.6503704,14.9933333 C33.2918519,14.9933333 30.0674074,12.7362963 30.0674074,9.29740741 C30.0674074,6.71814815 30.9188889,4.41259259 33.6411111,2.58 C34.7914815,1.80555556 36.2459259,1.17851852 37.5896296,0.802962963 C39.5096296,0.267037037 41.1777778,0.161481481 41.1777778,0.161481481 C40.9351852,0.377037037 40.6537037,0.685185185 40.6537037,0.685185185 C40.1696296,1.16888889 38.8803704,2.47259259 38.7866667,3.29185185 C38.652963,4.4537037 39.6322222,5.09222222 41.1637037,5.09222222 C42.0855556,5.09222222 49.0359259,5.10592593 49.0359259,5.10592593 C50.4596296,5.10592593 51.5348148,3.76259259 50.7281481,2.47259259 C50.0859259,1.44481481 49.8551852,1.23666667 49.3981481,0.538148148 C49.3981481,0.538148148 49.1433333,0.215555556 48.9555556,0.00037037037 L50.1374074,0.00037037037 C51.1314815,0.00037037037 54.42,0.258518519 56.3437037,2.0962963 C58.1433333,3.81592593 58.4751852,4.43185185 58.7888889,6.74518519 C59.0033333,8.33037037 58.3051852,10.9637037 56.6359259,12.462963 C55.0233333,13.9107407 52.4788889,14.8192593 50.5674074,15.1281481 L41.7007407,38.5581481 C39.8255556,43.252963 38.602963,45.3685185 35.1988889,47.3448148 C31.8674074,49.2796296 28.4825926,49.7096296 26.5485185,49.7096296 C23.2703704,49.7096296 21.73,48.9103704 18.757037,47.8288889 C15.847037,46.7703704 14.2018519,46.9607407 13.4640741,47.452963 C12.7388889,47.9366667 12.6314815,48.0440741 12.4411111,48.4718519 C12.1625926,49.1 12.6433333,50.1359259 13.3296296,50.6774074 C15.2237037,52.1685185 17.2118519,53.0555556 17.5877778,53.2159259 C17.1848148,53.2151852 11.747037,53.4077778 8.65444444,54.732963 L8.65444444,54.732963 L8.65444444,54.732963 Z" id="path9" fill="#000000"></path>
                    <path d="M9.63037037,38.9162963 C11.1796296,38.457037 13.6259259,37.9507407 15.9085185,37.9507407 C16.242963,37.9507407 18.9511111,37.9692593 21.507037,38.5318519 L24.8722222,29.8081481 L29.0437037,37.4007407 L28.5211111,37.9688889 C28.4696296,38.0248148 27.2574074,39.2648148 26.0177778,40.5040741 C23.9588889,42.562963 20.4218519,41.5766667 17.4962963,41.5514815 L16.3537037,41.5440741 L14.7477778,41.5255556 C12.7103704,41.492963 11.1062963,41.872963 9.33148148,42.6351852 C9.16185185,42.7077778 8.98888889,42.8203704 8.78814815,42.9511111 C8.31074074,43.2614815 7.71666667,43.647037 6.76740741,43.7859259 C6.10666667,43.8825926 5.48740741,43.7103704 4.9762963,43.2881481 C4.48888889,42.8874074 4.1162963,42.2596296 3.85703704,41.4177778 C2.43296296,43.7811111 1.48259259,46.612963 1.17925926,49.4985185 C0.917777778,51.9848148 1.12444444,54.2074074 2.20333333,57.3785185 C3.70074074,56.0996296 5.92888889,54.7314815 8.23074074,53.7451852 C9.88037037,53.0374074 12.0655556,52.6414815 13.91,52.4177778 C13.5011111,52.1474074 13.0811111,51.8485185 12.6644444,51.5196296 C11.6614815,50.7307407 10.9359259,49.2103704 11.4585185,48.0337037 C11.7696296,47.3322222 12.0751852,47.0848148 12.867037,46.5566667 C13.7592593,45.9622222 15.5688889,45.5244444 19.1233333,46.817037 L20.3925926,47.2892593 C22.5403704,48.0992593 23.9592593,48.632963 26.5477778,48.632963 C27.8374074,48.632963 31.2103704,48.4166667 34.6588889,46.4140741 C37.7255556,44.6325926 38.8644444,42.7911111 40.6340741,38.3040741 L40.7085185,38.1422222 L49.7814815,14.1655556 L50.3944444,14.0662963 C51.9948148,13.807037 54.4022222,13.0222222 55.9166667,11.6614815 C57.3440741,10.3803704 57.882963,8.06592593 57.7225926,6.88851852 C57.4451852,4.83888889 57.2266667,4.4262963 55.6007407,2.87296296 C54.4374074,1.76148148 52.5151852,1.29074074 51.1377778,1.13666667 C51.2796296,1.34074074 51.4414815,1.58555556 51.6392593,1.90222222 C52.1881481,2.78074074 52.2281481,3.78148148 51.7474074,4.64740741 C51.2244444,5.59222222 50.1851852,6.17925926 49.0333333,6.17925926 L41.162963,6.1662963 C39.9018519,6.1662963 38.9140741,5.80592593 38.3074074,5.12555556 C37.8355556,4.5962963 37.6318519,3.92 37.7181481,3.16851852 C37.7674074,2.73259259 37.9662963,2.2637037 38.3407407,1.7162963 C38.1881481,1.75407407 38.0344444,1.7937037 37.8774074,1.83740741 C36.5625926,2.20407407 35.237037,2.79962963 34.24,3.47074074 C32.0974074,4.91333333 31.1422222,6.71 31.1422222,9.29666667 C31.1422222,10.4137037 31.5740741,11.4359259 32.3907407,12.2525926 C33.432963,13.2959259 35.0251852,13.9181481 36.65,13.9181481 L38.2074074,13.9181481 L33.7344444,25.6974074 L32.5640741,24.1262963 C32.5292593,24.0788889 29.027037,19.3844444 27.0455556,17.2248148 C24.7940741,14.7692593 23.4248148,14.167037 21.1848148,14.6466667 C19.1222222,15.0892593 18.4022222,16.6422222 16.9714815,20.112963 L16.4744444,21.3088889 L9.3837037,38.9914815 L9.63037037,38.9162963 L9.63037037,38.9162963 L9.63037037,38.9162963 Z" id="path11" fill="#E13A3E"></path>
                    <polygon id="polygon13" fill="#E13A3E" points="16.4688889 21.3214815 16.4740741 21.3092593 16.477037 21.3033333"></polygon>
                    <polygon id="polygon15" fill="#E13A3E" points="40.7244444 38.1088889 40.7088889 38.142963 40.6955556 38.1774074"></polygon>
                </g>
            </g>
        </g>
    </g>
</svg>