<?xml version="1.0" encoding="UTF-8" standalone="no"?>
<svg width="30px" height="30px" viewBox="0 0 30 30" version="1.1" xmlns="http://www.w3.org/2000/svg" xmlns:xlink="http://www.w3.org/1999/xlink">
    <!-- Generator: Sketch 40.3 (33839) - http://www.bohemiancoding.com/sketch -->
    <title>Artboard Copy</title>
    <desc>Created with Sketch.</desc>
    <defs></defs>
    <g id="Page-1" stroke="none" stroke-width="1" fill="none" fill-rule="evenodd">
        <g id="Artboard-Copy">
            <g id="ducks" transform="translate(0.000000, 6.500000)">
                <g id="Page-1">
                    <g id="Artboard">
                        <g id="ducks" transform="translate(0.000000, 0.318182)">
                            <g id="Group">
                                <g id="Shape" fill="#A4A9AD">
                                    <path d="M16.9481818,0.354545455 C9.4740909,0.354545455 3.52454546,4.44681818 3.52454546,4.44681818 C3.52454546,4.44681818 10.8595455,3.85636364 10.8595455,5.37545455 C10.8595455,6.70636365 5.0531818,8.8731818 5.0531818,8.8731818 C5.0531818,8.8731818 9.63227275,8.9931818 9.63227275,10.0990909 C9.63227275,11.9659091 0.115454545,14.4790909 0.115454545,14.4790909 C0.115454545,14.4790909 3.44954545,16.0104545 8.65863635,16.0104545 C17.9872727,16.0104545 27.8859091,10.7209091 27.8859091,6.59863635 C27.8859091,2.80227272 22.3168182,0.354545455 16.9481818,0.354545455 L16.9481818,0.354545455 L16.9481818,0.354545455 Z"></path>
                                    <path d="M24.4495454,12.6572728 L24.3322728,12.4063637 C24.4018182,12.3818182 24.4495454,12.3163637 24.4495454,12.24 C24.4495454,12.1431818 24.3704546,12.0627273 24.2736364,12.0627273 L24.0227272,12.0627273 L24.0227272,12.6572728 L24.1345455,12.6572728 L24.1345455,12.4159091 L24.215,12.4159091 L24.3281818,12.6572728 L24.4495454,12.6572728 L24.4495454,12.6572728 L24.4495454,12.6572728 Z M24.2736364,12.3040909 L24.1331818,12.3040909 L24.1331818,12.1731818 L24.2736364,12.1731818 C24.3090909,12.1731818 24.3390909,12.2018182 24.3390909,12.2386364 C24.3390909,12.2754546 24.3090909,12.3040909 24.2736364,12.3040909 L24.2736364,12.3040909 L24.2736364,12.3040909 Z"></path>
                                    <path d="M24.7577272,12.36 C24.7577272,12.0722727 24.5245455,11.8377273 24.2368182,11.8377273 C23.9490909,11.8377273 23.7159091,12.0722727 23.7159091,12.36 C23.7159091,12.6477273 23.9490909,12.8795455 24.2368182,12.8795455 C24.5245455,12.8795455 24.7577272,12.6477273 24.7577272,12.36 L24.7577272,12.36 L24.7577272,12.36 Z M23.8277272,12.36 C23.8277272,12.1336363 24.0104545,11.9495455 24.2368182,11.9495455 C24.4618182,11.9495455 24.6459091,12.1336363 24.6459091,12.36 C24.6459091,12.585 24.4618182,12.7690909 24.2368182,12.7690909 C24.0104545,12.7690909 23.8277272,12.585 23.8277272,12.36 L23.8277272,12.36 L23.8277272,12.36 Z"></path>
                                </g>
                                <path d="M16.9481818,0.688636365 C11.5509091,0.688636365 6.91863635,2.88136363 4.8581818,4.03227272 C4.8581818,4.03227272 11.1936364,3.58636363 11.1936364,5.3740909 C11.1936364,6.4881818 8.47045455,7.82727275 6.5681818,8.62772725 C8.1309091,8.77636365 9.96636365,9.15272725 9.96636365,10.0977272 C9.96636365,11.8390909 4.1340909,13.7018182 1.19409091,14.5281818 C2.52090909,14.9713637 5.1731818,15.6763636 8.65863635,15.6763636 C18.0322728,15.6763636 27.5531818,10.3936363 27.5531818,6.59727275 C27.5518182,2.94681818 22.0468182,0.688636365 16.9481818,0.688636365 L16.9481818,0.688636365 L16.9481818,0.688636365 Z" id="Shape" fill="#000000"></path>
                                <path d="M6.9118182,14.4559091 L5.81136365,14.7477273 C5.81136365,14.7477273 6.7959091,14.8568182 8.345,14.8568182 C19.4654546,14.8568182 26.8495455,8.09045455 26.8495455,7.0131818 C26.8495455,6.89454545 26.8113637,6.795 26.8113637,6.795 C22.8704546,11.4831818 15.0431818,14.7163636 6.9118182,14.4559091 L6.9118182,14.4559091 L6.9118182,14.4559091 Z" id="Shape" fill="#FF4C00"></path>
                                <path d="M17.0818182,1.605 C12.9295455,1.605 8.40636365,3.21545455 8.40636365,3.21545455 C8.40636365,3.21545455 13.0604545,2.98227273 13.0604545,4.92818182 C13.0604545,6.7431818 9.77136365,8.07545455 9.77136365,8.07545455 C9.77136365,8.07545455 11.7677273,8.5431818 11.7677273,9.69545455 C11.7677273,12.3190909 5.2959091,13.9472727 5.2959091,13.9472727 C18.875,14.6059091 26.6313637,7.3459091 26.6313637,6.0040909 C26.6313637,4.755 22.8527273,1.605 17.0818182,1.605 L17.0818182,1.605 L17.0818182,1.605 Z" id="Shape" fill="#FFFFFF"></path>
                                <path d="M17.0818182,1.87090909 C14.4786364,1.87090909 11.7036364,2.52 10.0331818,2.99045454 C10.0331818,2.99045454 13.3263636,3.12409091 13.3263636,4.92681818 C13.3263636,6.3940909 11.4895454,7.52454545 10.4927272,8.03045455 C11.1431818,8.29363635 12.0336363,8.8159091 12.0336363,9.6940909 C12.0336363,11.6468182 8.92454545,13.0336364 6.94863635,13.7195455 C19.2609091,13.7195455 26.3627272,7.1740909 26.3627272,6.00272725 C26.3627272,4.94045454 22.7177272,1.87090909 17.0818182,1.87090909 L17.0818182,1.87090909 L17.0818182,1.87090909 Z" id="Shape" fill="#8D734A"></path>
                                <path d="M14.8072727,3.83454546 C14.8072727,3.83454546 18.4454546,4.65545455 20.0722727,5.74227275 L12.9786364,7.5790909 L19.7054545,7.35954545 C18.2054545,8.4559091 12.7413637,11.0781818 12.7413637,11.0781818 C12.7413637,11.0781818 19.4586363,10.0786364 23.7063637,6.1990909 C19.9263636,2.80363637 14.8072727,3.83454546 14.8072727,3.83454546 L14.8072727,3.83454546 L14.8072727,3.83454546 Z" id="Shape" fill="#FFFFFF"></path>
                                <path d="M16.3645455,3.96409091 C16.3645455,3.96409091 19.1790909,4.68272728 20.7145454,5.85136365 L15.3786364,7.2340909 L20.5604545,7.065 C19.1122727,8.28272725 14.8481818,10.3377273 14.8481818,10.3377273 C17.0913637,9.7431818 20.6340909,8.50772725 23.2822728,6.20454545 C20.9231818,4.23136364 18.0718182,3.92727273 16.3645455,3.96409091 L16.3645455,3.96409091 L16.3645455,3.96409091 Z" id="Shape" fill="#000000"></path>
                            </g>
                        </g>
                    </g>
                </g>
            </g>
        </g>
    </g>
</svg>