<?xml version="1.0" encoding="UTF-8" standalone="no"?>
<svg width="60px" height="60px" viewBox="0 0 60 60" version="1.1" xmlns="http://www.w3.org/2000/svg" xmlns:xlink="http://www.w3.org/1999/xlink">
    <!-- Generator: Sketch 40.3 (33839) - http://www.bohemiancoding.com/sketch -->
    <title>Artboard</title>
    <desc>Created with Sketch.</desc>
    <defs></defs>
    <g id="Page-1" stroke="none" stroke-width="1" fill="none" fill-rule="evenodd">
        <g id="Artboard">
            <g id="ducks" transform="translate(0.000000, 13.636364)">
                <g id="Group">
                    <g id="Shape" fill="#A4A9AD">
                        <path d="M35.8963636,0.709090909 C20.9481818,0.709090909 9.04909091,8.89363636 9.04909091,8.89363636 C9.04909091,8.89363636 23.7190909,7.71272727 23.7190909,10.7509091 C23.7190909,13.4127273 12.1063636,17.7463636 12.1063636,17.7463636 C12.1063636,17.7463636 21.2645455,17.9863636 21.2645455,20.1981818 C21.2645455,23.9318182 2.23090909,28.9581818 2.23090909,28.9581818 C2.23090909,28.9581818 8.89909091,32.0209091 19.3172727,32.0209091 C37.9745455,32.0209091 57.7718182,21.4418182 57.7718182,13.1972727 C57.7718182,5.60454545 46.6336364,0.709090909 35.8963636,0.709090909 L35.8963636,0.709090909 Z"></path>
                        <path d="M50.8990909,25.3145455 L50.6645455,24.8127273 C50.8036364,24.7636364 50.8990909,24.6327273 50.8990909,24.48 C50.8990909,24.2863636 50.7409091,24.1254545 50.5472727,24.1254545 L50.0454545,24.1254545 L50.0454545,25.3145455 L50.2690909,25.3145455 L50.2690909,24.8318182 L50.43,24.8318182 L50.6563636,25.3145455 L50.8990909,25.3145455 L50.8990909,25.3145455 Z M50.5472727,24.6081818 L50.2663636,24.6081818 L50.2663636,24.3463636 L50.5472727,24.3463636 C50.6181818,24.3463636 50.6781818,24.4036364 50.6781818,24.4772727 C50.6781818,24.5509091 50.6181818,24.6081818 50.5472727,24.6081818 L50.5472727,24.6081818 Z"></path>
                        <path d="M51.5154545,24.72 C51.5154545,24.1445455 51.0490909,23.6754545 50.4736364,23.6754545 C49.8981818,23.6754545 49.4318182,24.1445455 49.4318182,24.72 C49.4318182,25.2954545 49.8981818,25.7590909 50.4736364,25.7590909 C51.0490909,25.7590909 51.5154545,25.2954545 51.5154545,24.72 L51.5154545,24.72 Z M49.6554545,24.72 C49.6554545,24.2672727 50.0209091,23.8990909 50.4736364,23.8990909 C50.9236364,23.8990909 51.2918182,24.2672727 51.2918182,24.72 C51.2918182,25.17 50.9236364,25.5381818 50.4736364,25.5381818 C50.0209091,25.5381818 49.6554545,25.17 49.6554545,24.72 L49.6554545,24.72 Z"></path>
                    </g>
                    <path d="M35.8963636,1.37727273 C25.1018182,1.37727273 15.8372727,5.76272727 11.7163636,8.06454545 C11.7163636,8.06454545 24.3872727,7.17272727 24.3872727,10.7481818 C24.3872727,12.9763636 18.9409091,15.6545455 15.1363636,17.2554545 C18.2618182,17.5527273 21.9327273,18.3054545 21.9327273,20.1954545 C21.9327273,23.6781818 10.2681818,27.4036364 4.38818182,29.0563636 C7.04181818,29.9427273 12.3463636,31.3527273 19.3172727,31.3527273 C38.0645455,31.3527273 57.1063636,20.7872727 57.1063636,13.1945455 C57.1036364,5.89363636 46.0936364,1.37727273 35.8963636,1.37727273 L35.8963636,1.37727273 Z" id="Shape" fill="#000000"></path>
                    <path d="M15.8236364,28.9118182 L13.6227273,29.4954545 C13.6227273,29.4954545 15.5918182,29.7136364 18.69,29.7136364 C40.9309091,29.7136364 55.6990909,16.1809091 55.6990909,14.0263636 C55.6990909,13.7890909 55.6227273,13.59 55.6227273,13.59 C47.7409091,22.9663636 32.0863636,29.4327273 15.8236364,28.9118182 L15.8236364,28.9118182 Z" id="Shape" fill="#FF4C00"></path>
                    <path d="M36.1636364,3.21 C27.8590909,3.21 18.8127273,6.43090909 18.8127273,6.43090909 C18.8127273,6.43090909 28.1209091,5.96454545 28.1209091,9.85636364 C28.1209091,13.4863636 21.5427273,16.1509091 21.5427273,16.1509091 C21.5427273,16.1509091 25.5354545,17.0863636 25.5354545,19.3909091 C25.5354545,24.6381818 12.5918182,27.8945455 12.5918182,27.8945455 C39.75,29.2118182 55.2627273,14.6918182 55.2627273,12.0081818 C55.2627273,9.51 47.7054545,3.21 36.1636364,3.21 L36.1636364,3.21 Z" id="Shape" fill="#FFFFFF"></path>
                    <path d="M36.1636364,3.74181818 C30.9572727,3.74181818 25.4072727,5.04 22.0663636,5.98090909 C22.0663636,5.98090909 28.6527273,6.24818182 28.6527273,9.85363636 C28.6527273,12.7881818 24.9790909,15.0490909 22.9854545,16.0609091 C24.2863636,16.5872727 26.0672727,17.6318182 26.0672727,19.3881818 C26.0672727,23.2936364 19.8490909,26.0672727 15.8972727,27.4390909 C40.5218182,27.4390909 54.7254545,14.3481818 54.7254545,12.0054545 C54.7254545,9.88090909 47.4354545,3.74181818 36.1636364,3.74181818 L36.1636364,3.74181818 Z" id="Shape" fill="#8D734A"></path>
                    <path d="M31.6145455,7.66909091 C31.6145455,7.66909091 38.8909091,9.31090909 42.1445455,11.4845455 L27.9572727,15.1581818 L41.4109091,14.7190909 C38.4109091,16.9118182 27.4827273,22.1563636 27.4827273,22.1563636 C27.4827273,22.1563636 40.9172727,20.1572727 49.4127273,12.3981818 C41.8527273,5.60727273 31.6145455,7.66909091 31.6145455,7.66909091 L31.6145455,7.66909091 Z" id="Shape" fill="#FFFFFF"></path>
                    <path d="M34.7290909,7.92818182 C34.7290909,7.92818182 40.3581818,9.36545455 43.4290909,11.7027273 L32.7572727,14.4681818 L43.1209091,14.13 C40.2245455,16.5654545 31.6963636,20.6754545 31.6963636,20.6754545 C36.1827273,19.4863636 43.2681818,17.0154545 48.5645455,12.4090909 C43.8463636,8.46272727 38.1436364,7.85454545 34.7290909,7.92818182 L34.7290909,7.92818182 Z" id="Shape" fill="#000000"></path>
                </g>
            </g>
        </g>
    </g>
</svg>