<?xml version="1.0" encoding="UTF-8" standalone="no"?>
<svg width="30px" height="30px" viewBox="0 0 30 30" version="1.1" xmlns="http://www.w3.org/2000/svg" xmlns:xlink="http://www.w3.org/1999/xlink">
    <!-- Generator: Sketch 41 (35326) - http://www.bohemiancoding.com/sketch -->
    <title>ducks</title>
    <desc>Created with Sketch.</desc>
    <defs></defs>
    <g id="Page-1" stroke="none" stroke-width="1" fill="none" fill-rule="evenodd">
        <g id="ducks">
            <g transform="translate(0.000000, 6.000000)" id="Page-1">
                <g>
                    <g id="Artboard-Copy">
                        <g id="ducks" transform="translate(0.000000, 0.526316)">
                            <g id="Page-1">
                                <g id="Artboard">
                                    <g id="ducks" transform="translate(0.000000, 0.334928)">
                                        <g id="Group">
                                            <g id="Shape" fill="#A4A9AD">
                                                <path d="M18.1587662,0.373205742 C10.1508117,0.373205742 3.77629871,4.68086124 3.77629871,4.68086124 C3.77629871,4.68086124 11.6352273,4.05933015 11.6352273,5.65837321 C11.6352273,7.05933016 5.41412336,9.34019137 5.41412336,9.34019137 C5.41412336,9.34019137 10.3202922,9.46650716 10.3202922,10.630622 C10.3202922,12.5956938 0.123701298,15.2411483 0.123701298,15.2411483 C0.123701298,15.2411483 3.69594155,16.85311 9.27711037,16.85311 C19.2720779,16.85311 29.8777597,11.2851675 29.8777597,6.945933 C29.8777597,2.94976076 23.9108766,0.373205742 18.1587662,0.373205742 L18.1587662,0.373205742 L18.1587662,0.373205742 Z"></path>
                                                <path d="M26.1959415,13.3234451 L26.0702923,13.0593302 C26.1448052,13.0334928 26.1959415,12.9645934 26.1959415,12.8842105 C26.1959415,12.7822966 26.1112014,12.6976077 26.0074676,12.6976077 L25.7386363,12.6976077 L25.7386363,13.3234451 L25.8584416,13.3234451 L25.8584416,13.069378 L25.9446429,13.069378 L26.0659091,13.3234451 L26.1959415,13.3234451 L26.1959415,13.3234451 L26.1959415,13.3234451 Z M26.0074676,12.9516746 L25.8569805,12.9516746 L25.8569805,12.8138756 L26.0074676,12.8138756 C26.0454545,12.8138756 26.0775974,12.8440192 26.0775974,12.8827752 C26.0775974,12.9215312 26.0454545,12.9516746 26.0074676,12.9516746 L26.0074676,12.9516746 L26.0074676,12.9516746 Z"></path>
                                                <path d="M26.5261363,13.0105263 C26.5261363,12.7076555 26.2762988,12.4607656 25.9680195,12.4607656 C25.6597403,12.4607656 25.4099026,12.7076555 25.4099026,13.0105263 C25.4099026,13.3133972 25.6597403,13.5574163 25.9680195,13.5574163 C26.2762988,13.5574163 26.5261363,13.3133972 26.5261363,13.0105263 L26.5261363,13.0105263 L26.5261363,13.0105263 Z M25.5297077,13.0105263 C25.5297077,12.7722487 25.725487,12.5784689 25.9680195,12.5784689 C26.2090909,12.5784689 26.4063312,12.7722487 26.4063312,13.0105263 C26.4063312,13.2473684 26.2090909,13.4411483 25.9680195,13.4411483 C25.725487,13.4411483 25.5297077,13.2473684 25.5297077,13.0105263 L25.5297077,13.0105263 L25.5297077,13.0105263 Z"></path>
                                            </g>
                                            <path d="M18.1587662,0.724880384 C12.375974,0.724880384 7.41282466,3.03301435 5.20519479,4.2444976 C5.20519479,4.2444976 11.9931819,3.77511961 11.9931819,5.65693779 C11.9931819,6.82966505 9.07548702,8.23923447 7.03733764,9.08181816 C8.71168832,9.23827753 10.6782468,9.63444974 10.6782468,10.6291865 C10.6782468,12.4622009 4.42938311,14.4229665 1.27938312,15.2928229 C2.70097403,15.7593302 5.54269479,16.5014354 9.27711038,16.5014354 C19.3202923,16.5014354 29.5212662,10.9406698 29.5212662,6.94449763 C29.5198052,3.10191387 23.6215909,0.724880384 18.1587662,0.724880384 L18.1587662,0.724880384 L18.1587662,0.724880384 Z" id="Shape" fill="#000000"></path>
                                            <path d="M7.4055195,15.2167464 L6.22646105,15.5239235 C6.22646105,15.5239235 7.28133118,15.638756 8.94107143,15.638756 C20.8558442,15.638756 28.7673702,8.51626795 28.7673702,7.38229663 C28.7673702,7.25741626 28.7264611,7.15263158 28.7264611,7.15263158 C24.5040585,12.0875598 16.1176948,15.4909091 7.4055195,15.2167464 L7.4055195,15.2167464 L7.4055195,15.2167464 Z" id="Shape" fill="#FF4C00"></path>
                                            <path d="M18.3019481,1.68947368 C13.8530845,1.68947368 9.0068182,3.384689 9.0068182,3.384689 C9.0068182,3.384689 13.9933441,3.13923445 13.9933441,5.18755981 C13.9933441,7.09808611 10.4693182,8.50047847 10.4693182,8.50047847 C10.4693182,8.50047847 12.6082793,8.99282295 12.6082793,10.2057416 C12.6082793,12.9674641 5.67418832,14.6813397 5.67418832,14.6813397 C20.2232143,15.3746412 28.533604,7.73253589 28.533604,6.32009568 C28.533604,5.00526316 24.485065,1.68947368 18.3019481,1.68947368 L18.3019481,1.68947368 L18.3019481,1.68947368 Z" id="Shape" fill="#FFFFFF"></path>
                                            <path d="M18.3019481,1.96937799 C15.5128247,1.96937799 12.5396104,2.65263158 10.7498376,3.14784688 C10.7498376,3.14784688 14.2782467,3.28851675 14.2782467,5.1861244 C14.2782467,6.730622 12.3102272,7.92057416 11.2422077,8.45311005 C11.9391234,8.73014353 12.8931818,9.27990432 12.8931818,10.2043062 C12.8931818,12.2598086 9.56201298,13.7196173 7.44496752,14.4416268 C20.6366883,14.4416268 28.2457791,7.55167463 28.2457791,6.31866026 C28.2457791,5.20047846 24.340422,1.96937799 18.3019481,1.96937799 L18.3019481,1.96937799 L18.3019481,1.96937799 Z" id="Shape" fill="#8D734A"></path>
                                            <path d="M15.864935,4.03636364 C15.864935,4.03636364 19.7629871,4.90047847 21.5060065,6.04449763 L13.9056819,7.97799042 L21.112987,7.74688995 C19.5058441,8.90095695 13.6514611,11.661244 13.6514611,11.661244 C13.6514611,11.661244 20.8485389,10.6090909 25.3996754,6.52535884 C21.3496753,2.95119618 15.864935,4.03636364 15.864935,4.03636364 L15.864935,4.03636364 L15.864935,4.03636364 Z" id="Shape" fill="#FFFFFF"></path>
                                            <path d="M17.5334416,4.17272727 C17.5334416,4.17272727 20.549026,4.92918661 22.1941558,6.15933016 L16.4771104,7.61483253 L22.0290584,7.43684211 C20.477435,8.71866026 15.9087662,10.8818182 15.9087662,10.8818182 C18.3121754,10.2559808 22.1079545,8.95550237 24.9452923,6.53110047 C22.4176948,4.45406699 19.3626624,4.13397129 17.5334416,4.17272727 L17.5334416,4.17272727 L17.5334416,4.17272727 Z" id="Shape" fill="#000000"></path>
                                        </g>
                                    </g>
                                </g>
                            </g>
                        </g>
                    </g>
                </g>
            </g>
        </g>
    </g>
</svg>