<?xml version="1.0" encoding="UTF-8" standalone="no"?>
<svg width="30px" height="30px" viewBox="0 0 30 30" version="1.1" xmlns="http://www.w3.org/2000/svg" xmlns:xlink="http://www.w3.org/1999/xlink">
    <!-- Generator: Sketch 41 (35326) - http://www.bohemiancoding.com/sketch -->
    <title>flames</title>
    <desc>Created with Sketch.</desc>
    <defs></defs>
    <g id="Page-1" stroke="none" stroke-width="1" fill="none" fill-rule="evenodd">
        <g id="flames">
            <g transform="translate(0.000000, 1.000000)" id="Page-1">
                <g>
                    <g id="Artboard-Copy">
                        <g id="flames" transform="translate(0.000000, 0.750000)">
                            <g id="Page-1">
                                <g id="Artboard">
                                    <g id="flames" transform="translate(0.000000, 0.038835)">
                                        <g id="g236" transform="translate(0.289223, 0.205923)">
                                            <rect id="rect238" x="0.00203883495" y="0.085339806" width="29.5613592" height="25.2777679"></rect>
                                            <path d="M6.13106795,15.6704854 C5.5654369,15.5062136 5.3094175,15.1007767 5.3094175,15.1007767 C5.61669905,15.0145631 5.765534,14.5721359 5.98747575,14.521165 C6.34339805,14.4381553 6.1992233,14.7879611 7.14669905,15.2598058 C7.49417475,15.4220388 7.5413592,15.4366019 7.81019415,15.4884466 C7.15572815,15.8140776 6.75902915,15.8531068 6.13106795,15.6704854 L6.13106795,15.6704854 L6.13106795,15.6704854 Z M29.2360194,10.62 C30.72,5.30417475 27.2298059,0.085339806 20.8357282,0.085339806 C16.9823301,0.085339806 14.2284466,2.7023301 12.5848544,2.7023301 C11.9094175,2.7023301 11.1285437,1.3607767 11.1285437,1.3607767 C9.98883495,2.01815534 10.234369,3.21116505 10.234369,3.21116505 C9.34106795,2.68485437 7.87572815,2.69417476 7.87572815,2.69417476 C6.59563105,2.70262136 5.4562136,3.5268932 5.4562136,3.5268932 C4.70242719,4.07912622 4.43067961,4.76271844 4.43067961,4.76271844 C3.57990291,5.00883495 2.65834951,5.87650485 2.65834951,5.87650485 C2.43116505,6.1045631 2.34291262,6.174466 2.34291262,6.174466 C1.77349515,6.60407765 1.02,6.6305825 1.02,6.6305825 C1.08058253,7.2352427 1.41407767,7.84048545 1.41407767,7.84048545 C1.98378641,8.6994175 3.02708738,8.8660194 3.02708738,8.8660194 C3.02708738,8.8660194 2.4961165,9.4252427 1.59815534,9.6993204 C0.93378641,9.90203885 0.00203883495,10.05 0.00203883495,10.05 C0.0285436893,10.2693204 0.125242718,10.4359224 0.125242718,10.4359224 C1.06368932,11.9705825 3.2207767,11.8829126 3.2207767,11.8829126 C3.58834951,11.9260194 4.2107767,11.8214563 4.2107767,11.8214563 C3.94805825,12.1896116 3.64106796,13.3033981 3.64106796,13.3033981 C3.50970874,13.855631 3.2292233,14.0665048 3.2292233,14.0665048 C2.93941747,14.3030097 2.15912622,14.7675728 2.15912622,14.7675728 C2.50106796,15.2143689 3.39611651,15.4165048 3.39611651,15.4165048 C3.41300971,16.1440776 3.68097087,17.1707767 3.68097087,17.1707767 C2.46611651,16.9153398 1.8346602,17.3012621 1.8346602,17.3012621 C2.1853398,17.6082524 2.44864077,18.0200971 2.44864077,18.0200971 C2.8692233,18.5283495 2.95747573,19.528835 2.95747573,19.528835 C3.04514563,20.7206796 3.41300971,21.5624272 3.70194175,22.0007767 C3.99174758,22.4394175 4.5707767,22.8687378 4.5707767,22.8687378 C4.96485437,23.202233 5.7014563,23.368835 5.7014563,23.368835 C6.21029125,23.5092233 6.695534,23.4040777 6.695534,23.4040777 C6.3678641,23.675534 5.4562136,24.0259223 5.4562136,24.0259223 C5.71106795,24.5787378 6.455534,24.8941748 6.455534,24.8941748 C7.06048545,25.236699 8.08660195,25.2803883 8.08660195,25.2803883 C9.21728155,25.2710679 10.1472816,24.3591262 10.1472816,24.3591262 C11.1439806,23.4550486 11.7608738,23.1567961 12.7485437,23.2328156 C14.1961165,23.3443689 15.2082524,24.552233 17.9845631,24.552233 C23.585534,24.552233 28.1088349,19.1898058 28.8107767,14.5217475 L21.325631,14.5217475 C21.325631,14.5217475 20.5430097,17.2619417 18.6297087,17.2619417 C17.1713592,17.2619417 16.2014563,16.0814563 16.2014563,14.1652427 C16.2014563,11.6589321 18.2906796,7.28097085 21.3029126,7.28097085 C22.7120388,7.28097085 22.7027184,8.9886408 22.1504855,10.6229126 L29.2360194,10.62 L29.2360194,10.62 L29.2360194,10.62 Z" id="path240" fill="#000000"></path>
                                            <path d="M6.09961165,15.9800971 C5.5462136,15.8670874 5.2692233,15.5295146 4.92116505,15.088835 L4.87776699,15.0139806 C5.28728155,14.881165 5.525534,14.4128155 5.88349515,14.1873786 C6.4476699,14.0126213 6.6221359,14.8112621 7.6968932,15.1505825 C8.0038835,15.3040776 8.1867961,15.33 8.5039806,15.4840776 C7.7621359,15.9515534 7.07184465,16.2562136 6.09961165,15.9800971 L6.09961165,15.9800971 L6.09961165,15.9800971 Z M28.991068,10.3118446 C30.2886408,4.74 26.4699029,0.375145631 20.848835,0.375145631 C17.2628155,0.375145631 14.3898059,2.94961165 12.6541747,3.02679611 C11.9298058,3.05883495 11.0583495,1.8346602 11.0583495,1.8346602 C10.0770874,2.57067961 10.7950486,3.92126214 10.7950486,3.92126214 C9.3407767,2.85145631 7.70737865,3.01834952 7.70737865,3.01834952 C5.27126215,3.25485437 4.67533981,5.0085437 4.67533981,5.0085437 C3.2545631,5.53485435 2.76407767,6.2886408 2.76407767,6.2886408 C1.88679612,6.91951455 1.37883495,6.8586408 1.37883495,6.8586408 C1.71233009,8.69097085 3.62330097,8.60359225 3.62330097,8.60359225 C2.8692233,10.0590292 0.41446602,10.2867961 0.41446602,10.2867961 C1.29087379,11.6895146 3.37747573,11.5671844 3.37747573,11.5671844 C4.09106796,11.6437864 5.06184465,11.2575728 5.5406796,11.0405825 C5.22,11.2080583 5.0708738,11.3405825 5.0708738,11.3405825 C4.15019418,11.9883495 4.17058253,13.1697087 3.69582524,14.0108738 C3.51320388,14.3895145 2.98281553,14.5700971 2.68980583,14.8016505 C3.00640777,14.9603884 3.36902912,15.0937864 3.71038835,15.154369 C3.70194175,15.7415534 3.98621359,17.1634951 4.17553398,17.7314563 C3.49165049,17.2226214 2.43087379,17.4521359 2.43087379,17.4521359 C3.60611651,18.9145631 3.0538835,19.817767 3.64339806,21.1794175 C3.84203883,21.852233 4.45660194,22.4306796 5.07407765,22.8410679 C6.67427185,23.5619417 7.77961165,22.614466 7.77961165,22.614466 C7.59582525,23.5004854 5.92980585,24.166602 5.92980585,24.166602 C6.32038835,24.5935923 7.277767,24.9160194 7.8500971,24.9535922 C10.1108738,25.1021359 10.2276699,22.6415534 12.7345631,22.8984466 C14.1882525,23.0469903 15.5207767,24.2679612 17.945534,24.2679612 C24.0145631,24.2679612 27.9562136,18.1249515 28.4335923,14.82 L21.5548543,14.82 C21.5548543,14.82 20.7113592,17.5779612 18.666699,17.5779612 C16.5495146,17.5779612 15.8799029,15.7628155 15.8799029,14.1259223 C15.8799029,11.6376699 17.9458252,6.9361165 21.3183495,6.9361165 C22.9071844,6.9361165 23.1521359,8.67961165 22.59,10.3115534 L28.991068,10.3115534 L28.991068,10.3118446 L28.991068,10.3118446 Z" id="path242" fill="#FFC758"></path>
                                            <path d="M8.23572815,6.81436895 C7.8576699,6.7532039 7.4184466,6.57029125 6.9800971,6.68038835 C6.19980585,6.7899029 5.6994175,7.55825245 4.94446602,7.704466 C4.10213592,8.0213592 2.85932039,8.07 2.2007767,7.31417475 C2.2007767,7.277767 2.1407767,7.25330095 2.15213592,7.2168932 C3.22485437,7.0945631 3.78553398,5.8878641 4.83436893,5.6930097 C6.09,5.2299029 7.3700971,5.79029125 8.17427185,6.72902915 C8.17427185,6.7654369 8.2232039,6.7776699 8.23572815,6.81436895" id="path244" fill="#E03A3E"></path>
                                            <path d="M5.89485435,20.4798059 C7.1868932,21.2236893 8.14980585,19.7848543 9.4663107,20.2727184 L9.4663107,20.3213592 C8.4431068,20.6997087 7.99194175,21.8207767 7.0532039,22.3083495 C6.5653398,22.5399029 5.8829126,22.5399029 5.40728155,22.283301 C4.26145631,21.6623301 3.92038835,20.2849515 3.85893204,19.0167961 C3.81087379,18.7118446 3.67660194,18.4438835 3.5784466,18.1514563 C4.73708738,18.5292233 4.74932039,20.1023301 5.89485435,20.4798059" id="path246" fill="#E03A3E"></path>
                                            <path d="M28.4035922,9.61660195 C29.3041748,5.5986408 26.3408738,1.06805825 20.8587379,1.0415534 C17.5121359,1.02553398 14.7570874,3.70194175 12.5796117,3.70194175 C12.0267961,3.70194175 11.5607767,3.36466019 11.2348544,2.94961165 C11.3324272,4.1446602 12.4415534,5.1439806 13.5020388,5.54650485 C12.9658252,5.58262135 12.5021359,5.375534 12.0267961,5.26572815 C10.6007767,4.87572816 9.587767,3.51058252 7.95495145,3.64485437 C6.8091262,3.60815534 5.7969903,4.30310679 5.2363107,5.2537864 C5.5170874,4.99747573 5.8462136,4.83932039 6.19980585,4.76621359 C7.04038835,4.61970874 7.77203885,4.99747573 8.32048545,5.57038835 C9.00349515,6.65563105 9.75961165,7.7038835 10.8806796,8.4605825 C10.0759224,8.4605825 9.36961165,8.15504855 8.6624272,7.91126215 C7.2113592,7.49650485 5.49203885,7.6791262 4.3945631,8.71572815 C3.83417475,9.63029125 2.89514563,10.3738835 1.85970874,10.5932039 L1.85970874,10.6301942 L2.16407767,10.7638835 C3.35941747,11.2765049 4.67533981,10.7758253 5.67495145,10.1542719 C6.3699029,9.9346602 7.1991262,10.0566991 7.6869903,10.6057282 C8.027767,11.1905825 8.6624272,11.7763107 9.22281555,12.2021359 C9.0760194,12.263301 8.92980585,12.1409709 8.7594175,12.1409709 C7.79650485,11.6665049 6.3454369,11.0196117 5.37029125,11.91 C4.45660194,12.6049515 4.91941748,13.9459224 3.94398059,14.6035923 C4.62669903,14.6647573 5.0169903,14.1649515 5.4069903,13.6773787 C6.3824272,12.9579611 7.0039806,14.2502913 7.7839806,14.5552427 C8.6137864,14.9574758 9.71038835,14.8234951 10.307767,15.6766019 C9.67339805,15.7983495 9.02737865,15.9084466 8.4792233,16.2375728 C7.637767,16.7618447 6.40660195,16.8474758 5.49203885,16.4082524 C5.0169903,16.1519417 4.68786408,15.7983495 4.3715534,15.3597087 C4.3715534,15.3719418 4.3715534,15.3961165 4.3584466,15.4086408 C4.41990291,17.2130097 5.08951455,19.175534 6.9553398,19.8093204 C8.2232039,20.3941748 9.587767,19.4434952 10.8320388,20.0531068 C10.1734952,20.1996117 9.56417475,20.5532039 9.17359225,21.125534 C8.52815535,21.9672815 8.5400971,23.1253398 7.73563105,23.844466 C7.5894175,23.9787379 7.3700971,24.0515534 7.22417475,24.1613592 C7.3823301,24.234466 7.5407767,24.2714563 7.72339805,24.2956311 C8.6137864,24.4415534 9.36961165,23.8686408 9.86883495,23.1981554 C10.588835,22.5034951 11.6807767,22.0791262 12.551068,22.1376699 C14.3082524,22.2559223 15.617767,23.5313592 17.9379611,23.5398059 C22.5570874,23.5584466 26.6347573,19.1563107 27.5012621,15.5475728 L22.0511651,15.5475728 C22.0511651,15.5475728 21.06,18.3084466 18.6602913,18.3084466 C15.6643689,18.3084466 15.1415534,15.5114563 15.1415534,14.1227185 C15.1415534,10.8608738 17.6988349,6.1992233 21.3125242,6.1992233 C23.0266019,6.1992233 24.0361165,7.95 23.4771844,9.61660195 L28.4035922,9.61660195" id="path248" fill="#E03A3E"></path>
                                        </g>
                                    </g>
                                </g>
                            </g>
                        </g>
                    </g>
                </g>
            </g>
        </g>
    </g>
</svg>