<?xml version="1.0" encoding="UTF-8" standalone="no"?>
<svg width="60px" height="60px" viewBox="0 0 60 60" version="1.1" xmlns="http://www.w3.org/2000/svg" xmlns:xlink="http://www.w3.org/1999/xlink">
    <!-- Generator: Sketch 40.3 (33839) - http://www.bohemiancoding.com/sketch -->
    <title>Artboard</title>
    <desc>Created with Sketch.</desc>
    <defs></defs>
    <g id="Page-1" stroke="none" stroke-width="1" fill="none" fill-rule="evenodd">
        <g id="Artboard">
            <g id="flames" transform="translate(0.000000, 4.077670)">
                <g id="g236" transform="translate(0.578446, 0.411845)">
                    <rect id="rect238" x="0.0040776699" y="0.170679612" width="59.1227184" height="50.5555357"></rect>
                    <path d="M12.2621359,31.3409709 C11.1308738,31.0124272 10.618835,30.2015534 10.618835,30.2015534 C11.2333981,30.0291262 11.531068,29.1442718 11.9749515,29.0423301 C12.6867961,28.8763107 12.3984466,29.5759223 14.2933981,30.5196117 C14.9883495,30.8440777 15.0827184,30.8732039 15.6203883,30.9768932 C14.3114563,31.6281553 13.5180583,31.7062136 12.2621359,31.3409709 L12.2621359,31.3409709 Z M58.4720388,21.24 C61.44,10.6083495 54.4596117,0.170679612 41.6714563,0.170679612 C33.9646602,0.170679612 28.4568932,5.40466019 25.1697087,5.40466019 C23.818835,5.40466019 22.2570874,2.7215534 22.2570874,2.7215534 C19.9776699,4.03631068 20.4687379,6.4223301 20.4687379,6.4223301 C18.6821359,5.36970874 15.7514563,5.38834951 15.7514563,5.38834951 C13.1912621,5.40524272 10.9124272,7.05378641 10.9124272,7.05378641 C9.40485437,8.15825243 8.86135922,9.52543689 8.86135922,9.52543689 C7.15980583,10.0176699 5.31669903,11.7530097 5.31669903,11.7530097 C4.8623301,12.2091262 4.68582524,12.348932 4.68582524,12.348932 C3.54699029,13.2081553 2.04,13.261165 2.04,13.261165 C2.16116505,14.4704854 2.82815534,15.6809709 2.82815534,15.6809709 C3.96757282,17.398835 6.05417476,17.7320388 6.05417476,17.7320388 C6.05417476,17.7320388 4.99223301,18.8504854 3.19631068,19.3986408 C1.86757282,19.8040777 0.0040776699,20.1 0.0040776699,20.1 C0.0570873786,20.5386408 0.250485437,20.8718447 0.250485437,20.8718447 C2.12737864,23.941165 6.4415534,23.7658252 6.4415534,23.7658252 C7.17669903,23.8520388 8.4215534,23.6429126 8.4215534,23.6429126 C7.8961165,24.3792233 7.28213592,26.6067961 7.28213592,26.6067961 C7.01941748,27.7112621 6.4584466,28.1330097 6.4584466,28.1330097 C5.87883495,28.6060194 4.31825243,29.5351456 4.31825243,29.5351456 C5.00213592,30.4287379 6.79223301,30.8330097 6.79223301,30.8330097 C6.82601942,32.2881553 7.36194175,34.3415534 7.36194175,34.3415534 C4.93223301,33.8306796 3.66932039,34.6025243 3.66932039,34.6025243 C4.37067961,35.2165049 4.89728155,36.0401942 4.89728155,36.0401942 C5.7384466,37.056699 5.91495146,39.0576699 5.91495146,39.0576699 C6.09029126,41.4413592 6.82601942,43.1248544 7.4038835,44.0015534 C7.98349515,44.878835 9.1415534,45.7374757 9.1415534,45.7374757 C9.92970874,46.404466 11.4029126,46.7376699 11.4029126,46.7376699 C12.4205825,47.0184466 13.391068,46.8081553 13.391068,46.8081553 C12.7357282,47.351068 10.9124272,48.0518447 10.9124272,48.0518447 C11.4221359,49.1574757 12.911068,49.7883495 12.911068,49.7883495 C14.1209709,50.4733981 16.1732039,50.5607767 16.1732039,50.5607767 C18.4345631,50.5421359 20.2945631,48.7182524 20.2945631,48.7182524 C22.2879612,46.9100971 23.5217476,46.3135922 25.4970874,46.4656311 C28.392233,46.6887379 30.4165049,49.104466 35.9691262,49.104466 C47.171068,49.104466 56.2176699,38.3796117 57.6215534,29.0434951 L42.6512621,29.0434951 C42.6512621,29.0434951 41.0860194,34.5238835 37.2594175,34.5238835 C34.3427184,34.5238835 32.4029126,32.1629126 32.4029126,28.3304854 C32.4029126,23.3178641 36.5813592,14.5619417 42.6058252,14.5619417 C45.4240777,14.5619417 45.4054369,17.9772816 44.3009709,21.2458252 L58.4720388,21.24 L58.4720388,21.24 Z" id="path240" fill="#000000"></path>
                    <path d="M12.1992233,31.9601942 C11.0924272,31.7341748 10.5384466,31.0590291 9.8423301,30.1776699 L9.75553398,30.0279612 C10.5745631,29.7623301 11.051068,28.8256311 11.7669903,28.3747573 C12.8953398,28.0252427 13.2442718,29.6225243 15.3937864,30.301165 C16.007767,30.6081553 16.3735922,30.66 17.0079612,30.9681553 C15.5242718,31.9031068 14.1436893,32.5124272 12.1992233,31.9601942 L12.1992233,31.9601942 Z M57.9821359,20.6236893 C60.5772816,9.48 52.9398058,0.750291262 41.6976699,0.750291262 C34.5256311,0.750291262 28.7796117,5.8992233 25.3083495,6.05359223 C23.8596117,6.1176699 22.116699,3.66932039 22.116699,3.66932039 C20.1541748,5.14135922 21.5900971,7.84252427 21.5900971,7.84252427 C18.6815534,5.70291262 15.4147573,6.03669903 15.4147573,6.03669903 C10.5425243,6.50970874 9.35067961,10.0170874 9.35067961,10.0170874 C6.50912621,11.0697087 5.52815534,12.5772816 5.52815534,12.5772816 C3.77359223,13.8390291 2.7576699,13.7172816 2.7576699,13.7172816 C3.42466019,17.3819417 7.24660194,17.2071845 7.24660194,17.2071845 C5.7384466,20.1180583 0.828932039,20.5735922 0.828932039,20.5735922 C2.58174757,23.3790291 6.75495146,23.1343689 6.75495146,23.1343689 C8.18213592,23.2875728 10.1236893,22.5151456 11.0813592,22.081165 C10.44,22.4161165 10.1417476,22.681165 10.1417476,22.681165 C8.30038835,23.976699 8.34116505,26.3394175 7.39165049,28.0217476 C7.02640777,28.7790291 5.96563107,29.1401942 5.37961165,29.603301 C6.01281553,29.9207767 6.73805825,30.1875728 7.4207767,30.3087379 C7.4038835,31.4831068 7.97242718,34.3269903 8.35106796,35.4629126 C6.98330097,34.4452427 4.86174757,34.9042718 4.86174757,34.9042718 C7.21223301,37.8291262 6.10776699,39.635534 7.28679612,42.358835 C7.68407767,43.704466 8.91320388,44.8613592 10.1481553,45.6821359 C13.3485437,47.1238835 15.5592233,45.228932 15.5592233,45.228932 C15.1916505,47.0009709 11.8596117,48.3332039 11.8596117,48.3332039 C12.6407767,49.1871845 14.555534,49.8320388 15.7001942,49.9071845 C20.2217476,50.2042718 20.4553398,45.2831068 25.4691262,45.7968932 C28.3765049,46.0939806 31.0415534,48.5359223 35.891068,48.5359223 C48.0291262,48.5359223 55.9124272,36.2499029 56.8671845,29.64 L43.1097087,29.64 C43.1097087,29.64 41.4227184,35.1559223 37.3333981,35.1559223 C33.0990291,35.1559223 31.7598058,31.5256311 31.7598058,28.2518447 C31.7598058,23.2753398 35.8916505,13.872233 42.636699,13.872233 C45.8143689,13.872233 46.3042718,17.3592233 45.18,20.6231068 L57.9821359,20.6231068 L57.9821359,20.6236893 Z" id="path242" fill="#FFC758"></path>
                    <path d="M16.4714563,13.6287379 C15.7153398,13.5064078 14.8368932,13.1405825 13.9601942,13.3607767 C12.3996117,13.5798058 11.398835,15.1165049 9.88893204,15.408932 C8.20427184,16.0427184 5.71864078,16.14 4.4015534,14.6283495 C4.4015534,14.555534 4.2815534,14.5066019 4.30427184,14.4337864 C6.44970874,14.1891262 7.57106796,11.7757282 9.66873786,11.3860194 C12.18,10.4598058 14.7401942,11.5805825 16.3485437,13.4580583 C16.3485437,13.5308738 16.4464078,13.5553398 16.4714563,13.6287379" id="path244" fill="#E03A3E"></path>
                    <path d="M11.7897087,40.9596117 C14.3737864,42.4473786 16.2996117,39.5697087 18.9326214,40.5454369 L18.9326214,40.6427184 C16.8862136,41.3994175 15.9838835,43.6415534 14.1064078,44.616699 C13.1306796,45.0798058 11.7658252,45.0798058 10.8145631,44.5666019 C8.52291262,43.3246602 7.8407767,40.5699029 7.71786408,38.0335922 C7.62174757,37.4236893 7.35320388,36.887767 7.1568932,36.3029126 C9.47417476,37.0584466 9.49864078,40.2046602 11.7897087,40.9596117" id="path246" fill="#E03A3E"></path>
                    <path d="M56.8071845,19.2332039 C58.6083495,11.1972816 52.6817476,2.1361165 41.7174757,2.0831068 C35.0242718,2.05106796 29.5141748,7.4038835 25.1592233,7.4038835 C24.0535922,7.4038835 23.1215534,6.72932039 22.4697087,5.8992233 C22.6648544,8.28932039 24.8831068,10.2879612 27.0040777,11.0930097 C25.9316505,11.1652427 25.0042718,10.751068 24.0535922,10.5314563 C21.2015534,9.75145631 19.175534,7.02116505 15.9099029,7.28970874 C13.6182524,7.21631068 11.5939806,8.60621359 10.4726214,10.5075728 C11.0341748,9.99495146 11.6924272,9.67864078 12.3996117,9.53242718 C14.0807767,9.23941748 15.5440777,9.99495146 16.6409709,11.1407767 C18.0069903,13.3112621 19.5192233,15.407767 21.7613592,16.921165 C20.1518447,16.921165 18.7392233,16.3100971 17.3248544,15.8225243 C14.4227184,14.9930097 10.9840777,15.3582524 8.78912621,17.4314563 C7.66834951,19.2605825 5.79029126,20.747767 3.71941748,21.1864078 L3.71941748,21.2603883 L4.32815534,21.527767 C6.71883495,22.5530097 9.35067961,21.5516505 11.3499029,20.3085437 C12.7398058,19.8693204 14.3982524,20.1133981 15.3739806,21.2114563 C16.055534,22.381165 17.3248544,23.5526214 18.4456311,24.4042718 C18.1520388,24.5266019 17.8596117,24.2819417 17.518835,24.2819417 C15.5930097,23.3330097 12.6908738,22.0392233 10.7405825,23.82 C8.91320388,25.2099029 9.83883495,27.8918447 7.88796117,29.2071845 C9.25339806,29.3295146 10.0339806,28.3299029 10.8139806,27.3547573 C12.7648544,25.9159223 14.0079612,28.5005825 15.5679612,29.1104854 C17.2275728,29.9149515 19.4207767,29.6469903 20.615534,31.3532039 C19.3467961,31.596699 18.0547573,31.8168932 16.9584466,32.4751456 C15.275534,33.5236893 12.8132039,33.6949515 10.9840777,32.8165049 C10.0339806,32.3038835 9.37572816,31.596699 8.7431068,30.7194175 C8.7431068,30.7438835 8.7431068,30.792233 8.7168932,30.8172816 C8.83980583,34.4260194 10.1790291,38.351068 13.9106796,39.6186408 C16.4464078,40.7883495 19.175534,38.8869903 21.6640777,40.1062136 C20.3469903,40.3992233 19.1283495,41.1064078 18.3471845,42.251068 C17.0563107,43.9345631 17.0801942,46.2506796 15.4712621,47.688932 C15.178835,47.9574757 14.7401942,48.1031068 14.4483495,48.3227184 C14.7646602,48.468932 15.0815534,48.5429126 15.4467961,48.5912621 C17.2275728,48.8831068 18.7392233,47.7372816 19.7376699,46.3963107 C21.1776699,45.0069903 23.3615534,44.1582524 25.1021359,44.2753398 C28.6165049,44.5118447 31.235534,47.0627184 35.8759223,47.0796117 C45.1141748,47.1168932 53.2695146,38.3126214 55.0025243,31.0951456 L44.1023301,31.0951456 C44.1023301,31.0951456 42.12,36.6168932 37.3205825,36.6168932 C31.3287379,36.6168932 30.2831068,31.0229126 30.2831068,28.2454369 C30.2831068,21.7217476 35.3976699,12.3984466 42.6250485,12.3984466 C46.0532039,12.3984466 48.072233,15.9 46.9543689,19.2332039 L56.8071845,19.2332039" id="path248" fill="#E03A3E"></path>
                </g>
            </g>
        </g>
    </g>
</svg>