<?xml version="1.0" encoding="UTF-8" standalone="no"?>
<svg width="30px" height="30px" viewBox="0 0 30 30" version="1.1" xmlns="http://www.w3.org/2000/svg" xmlns:xlink="http://www.w3.org/1999/xlink">
    <!-- Generator: Sketch 40.3 (33839) - http://www.bohemiancoding.com/sketch -->
    <title>Artboard Copy</title>
    <desc>Created with Sketch.</desc>
    <defs>
        <polygon id="path-1" points="0 29.8177145 30.3065294 29.8177145 30.3065294 0 0 0"></polygon>
    </defs>
    <g id="Page-1" stroke="none" stroke-width="1" fill="none" fill-rule="evenodd">
        <g id="Artboard-Copy">
            <g id="flyers">
                <g id="Page-1">
                    <g id="Artboard">
                        <g id="flyers">
                            <g id="g11" transform="translate(15.500000, 15.341093) scale(1, -1) translate(-15.500000, -15.341093) translate(0.000000, 0.091093)">
                                <g id="g13" transform="translate(0.092637, 0.121503)">
                                    <g id="g15-Clipped">
                                        <g>
                                            <mask id="mask-2" fill="white">
                                                <use xlink:href="#path-1"></use>
                                            </mask>
                                            <g id="path-1"></g>
                                            <g id="g15" mask="url(#mask-2)">
                                                <g transform="translate(1.016393, 5.000000)" id="Group">
                                                    <g transform="translate(0.241327, 0.322462)">
                                                        <g id="g21" transform="translate(0.149431, 0.170841)" fill="#FFFFFF">
                                                            <path d="M8.95557948,0 L8.86866031,0 L5.40236619,0 C4.45010471,0 2.66698975,0.207009483 1.42398259,1.59350339 C0.120559374,3.0473406 0.0718113216,4.9542878 0.0557791675,5.58089215 L0.0551881901,5.60441835 L0.0512331882,5.75729375 L0.206675378,5.75729375 L1.40863234,5.75729375 C1.40684425,5.7590381 1.40507132,5.76078245 1.40325293,5.7625417 C1.20974574,5.95093 0.984674293,6.18210675 0.76278504,6.5422451 C0.656333357,6.7149791 0.560413187,6.9028307 0.485404529,7.08550895 C0.446642478,7.1798969 0.415805584,7.2721082 0.383180605,7.3697463 C0.369194142,7.41156565 0.354995533,7.4540559 0.339902881,7.49738105 C0.120756367,8.1260279 0.00968293614,8.98686535 0.00968293614,10.0560242 L0.00968293614,10.2050978 L0.16120043,10.2050978 L1.40434396,10.2050978 C0.966717676,10.6994458 0.64001329,11.1805546 0.404289103,11.8563135 C0.172519919,12.5207118 0.0613252621,13.3725293 0.0827065191,14.3196443 C0.0831611168,14.3398309 0.0835551019,14.354382 0.0835551019,14.3628054 L0.0835551019,14.5117449 L0.234890757,14.5118791 L1.58633467,14.513355 C1.17781781,14.919353 0.85881128,15.3554371 0.635755221,15.8135267 C0.053975929,17.0080541 0.0823731471,18.2167749 0.0930561989,18.6718081 L0.0964656831,18.8173334 L0.244407007,18.8174378 C0.407304603,18.817572 16.5590483,18.8311092 18.7012501,18.8311092 C21.0906017,18.8311092 23.3161466,17.9305844 24.9678524,16.2954108 C25.7595954,15.5116223 26.3806823,14.5998265 26.8139292,13.5853384 C27.2575865,12.5463699 27.4825519,11.4484071 27.4825519,10.3218939 C27.4825519,9.1659207 27.2527526,8.0465488 26.7995185,6.9949078 C26.3621043,5.97997245 25.7355623,5.069414 24.9373338,4.28850297 C24.1401963,3.50868028 23.2113163,2.8966866 22.176409,2.46951802 C21.1066188,2.02790276 19.9696996,1.80397172 18.7972309,1.80397172 C17.7411847,1.80397172 16.7172483,1.98430927 15.7538644,2.33993024 C14.9833512,2.62436142 14.2499635,3.02084756 13.5740521,3.51837103 C12.7322428,4.13802787 12.1963324,4.75231751 11.9594111,5.05186625 L8.99946333,0.073813752 L8.95557948,0 L8.95557948,0 L8.95557948,0 Z" id="path23"></path>
                                                        </g>
                                                        <g id="g25" transform="translate(0.000015, 0.008073)" fill="#000000">
                                                            <path d="M18.8506613,19.1429727 C16.7083989,19.1429727 0.556609721,19.1294503 0.393712124,19.1293162 L0.0978294773,19.1290627 L0.0909802016,18.8380269 C0.0800546978,18.3732433 0.0510513489,17.1386558 0.648499118,15.9118506 C0.832990114,15.5330314 1.08048839,15.1692554 1.38761476,14.8248458 L0.384165567,14.8237575 L0.0814336449,14.8234444 L0.0814336449,14.5255804 C0.0814336449,14.5198255 0.0810396598,14.5024865 0.0806608281,14.4856992 C0.0588704336,13.5212154 0.172883597,12.651537 0.410380715,11.9706793 C0.61443458,11.3857004 0.883314107,10.9435186 1.22949044,10.5169614 L0.310626774,10.5169614 L0.00756147909,10.5169614 L0.00756147909,10.2187842 C0.00756147909,9.13315105 0.12142311,8.25603315 0.345949034,7.6117767 C0.360632547,7.5696741 0.37484631,7.5271242 0.388605474,7.4860205 C0.420578863,7.39036525 0.45365844,7.291445 0.494329802,7.19240545 C0.572278193,7.00257095 0.671971525,6.80730965 0.78260551,6.6277325 C0.925364418,6.3960041 1.0742907,6.21122375 1.20265401,6.06914235 L0.356086568,6.06914235 L0.0451870355,6.06914235 L0.0531273462,5.7633766 L0.053733477,5.73991005 C0.0700990026,5.0998728 0.119922937,3.15216478 1.45975945,1.65764129 C2.02102122,1.0316482 2.74636255,0.575407345 3.61565988,0.301695635 C4.37170172,0.0636459115 5.08581447,0.0136714221 5.5517622,0.0136714221 L9.01807152,0.0136714221 L9.19189461,0.0136714221 L9.27966232,0.161284017 L12.1289155,4.95311001 C12.414994,4.61591638 12.9154761,4.08967844 13.6326801,3.56175581 C14.3200928,3.05577902 15.0661032,2.65249442 15.8500119,2.36312841 C16.8305038,2.00115627 17.8723514,1.81764315 18.946627,1.81764315 C20.1393404,1.81764315 21.2959891,2.0454803 22.384433,2.49477363 C22.908251,2.71101169 23.4133093,2.97870022 23.885576,3.29042952 C24.3536907,3.5994305 24.7937566,3.9544253 25.1935755,4.34554426 C25.5936823,4.73699121 25.9568757,5.1679168 26.2730335,5.6264238 C26.5924794,6.08967185 26.8668142,6.58528695 27.0884306,7.09946365 C27.5496354,8.1696065 27.7834957,9.30856865 27.7834957,10.4846539 C27.7834957,11.6310853 27.554545,12.7485042 27.1030232,13.8058404 C26.8843919,14.3177807 26.6136637,14.811905 26.2983243,15.2744969 C25.9840607,15.7355384 25.6228372,16.1691476 25.2247306,16.5632782 C24.824048,16.9599432 24.3825273,17.3200369 23.9124124,17.6335404 C23.4349482,17.9519488 22.9233285,18.225422 22.3917368,18.4463414 C21.2794115,18.9085905 20.0880315,19.1429727 18.8506613,19.1429727 M18.8506613,18.8447956 C23.7685776,18.8447956 27.4804304,14.9869648 27.4804304,10.4846539 C27.4804304,5.8359976 23.6569132,2.11582029 18.946627,2.11582029 C14.3968289,2.11582029 12.0941842,5.48522205 12.0941842,5.48522205 L9.01807152,0.311848567 L5.5517622,0.311848567 C4.59828849,0.311848567 2.87689277,0.52774373 1.68705842,1.85490038 C0.403349601,3.28677685 0.371270139,5.18615035 0.356086568,5.7709652 L1.92193403,5.7709652 C1.92193403,5.7709652 1.83796978,5.85728745 1.65926734,6.0312589 C1.49529386,6.19090295 1.26382774,6.421871 1.0417718,6.7822926 C0.947957934,6.93455675 0.853265182,7.11431285 0.775331944,7.3041026 C0.721810612,7.43442095 0.68194237,7.5670203 0.632633649,7.70850535 C0.407062151,8.35571375 0.310626774,9.2224551 0.310626774,10.2187842 L1.89414294,10.2187842 C1.31412142,10.8345797 0.952700909,11.3345631 0.697035025,12.0674825 C0.323128217,13.1393995 0.384498939,14.4063095 0.384498939,14.5255804 L2.11513815,14.527444 C1.57286342,15.0035583 1.1761358,15.5184655 0.921818551,16.040693 C0.383726123,17.1455884 0.380256025,18.2473231 0.39396973,18.8311391 C0.39396973,18.8311391 16.6837445,18.8447956 18.8506613,18.8447956" id="path27"></path>
                                                        </g>
                                                        <g id="g29" transform="translate(1.100506, 0.979617)" fill="#000000">
                                                            <path d="M17.6687067,17.2793656 C15.6454731,17.2793656 0.0448233571,17.2790673 0.0448233571,17.2790673 C0.0448233571,15.9188727 0.739691462,14.7318145 1.17816633,14.3004118 C1.74089797,13.7467565 2.58467721,13.2974781 3.82935122,13.2974781 C3.82935122,13.2974781 10.5873891,13.2931248 10.6129678,13.2931248 C10.6593671,13.2931248 10.7730166,13.1906264 10.7730166,13.1142184 C10.7730166,13.0378105 10.6697925,12.9213426 10.6129678,12.9213426 L0.11933196,12.9213426 C0.11933196,12.7529768 0.101814786,11.0411121 1.20279039,9.9578941 C2.29797744,8.88037135 3.41019677,8.9822734 3.91901309,8.8819666 L7.95356983,8.8819666 C7.99902961,8.8819666 8.14389484,8.7353529 8.14389484,8.68303775 C8.14389484,8.6086276 8.00660626,8.5092601 7.95356983,8.5092601 L0.00568247426,8.5129873 C0.00568247426,8.2877592 0.0559913132,6.9720227 0.780393136,5.92630055 C1.54558754,4.82170334 2.8563904,4.46895978 3.61973611,4.46895978 C3.61973611,4.46895978 5.15211,4.46709617 5.23545299,4.46709617 C5.31879593,4.46709617 5.4551753,4.33850728 5.4551753,4.26955381 C5.4551753,4.19873673 5.33016089,4.0831931 5.23734714,4.0831931 C5.1445334,4.0831931 0.0520817711,4.0850567 0.0520817711,4.0850567 C0.0520817711,3.85836752 0.0514150271,2.54248197 1.14975396,1.35300861 C2.31372169,0.0923901885 3.49647946,0.0112114606 4.04402753,0.0112114606 L7.57726881,0.00870677265 L14.500553,11.4855153 L14.500553,11.4852469 C15.184632,12.5979695 16.4288969,13.3422047 17.8505458,13.3422047 C20.009386,13.3422047 21.7594517,11.6261953 21.7594517,9.50937605 C21.7594517,7.3925867 20.009386,5.6765623 17.8505458,5.6765623 C15.7083136,5.6765623 13.9689158,7.3663471 13.9422764,9.4606688 L11.3233225,5.0788513 C12.0981544,4.03278624 14.0946576,1.73691168 17.935783,1.73691168 C22.2410831,1.73691168 25.7794916,5.20837945 25.7794916,9.5323655 C25.7794916,13.4150345 22.662556,17.2793656 17.6687067,17.2793656" id="path31"></path>
                                                        </g>
                                                        <g id="g33" transform="translate(16.686275, 8.266343)" fill="#F4793E">
                                                            <path d="M4.51567289,2.22141973 C4.51567289,1.00142794 3.50720797,0.0124190781 2.2632007,0.0124190781 C1.01919343,0.0124190781 0.0107285114,1.00142794 0.0107285114,2.22141973 C0.0107285114,3.44141151 1.01919343,4.43042038 2.2632007,4.43042038 C3.50720797,4.43042038 4.51567289,3.44141151 4.51567289,2.22141973" id="path35"></path>
                                                        </g>
                                                    </g>
                                                </g>
                                            </g>
                                        </g>
                                    </g>
                                </g>
                            </g>
                        </g>
                    </g>
                </g>
            </g>
        </g>
    </g>
</svg>