<?xml version="1.0" encoding="UTF-8" standalone="no"?>
<svg width="60px" height="60px" viewBox="0 0 60 60" version="1.1" xmlns="http://www.w3.org/2000/svg" xmlns:xlink="http://www.w3.org/1999/xlink">
    <!-- Generator: Sketch 40.3 (33839) - http://www.bohemiancoding.com/sketch -->
    <title>Artboard</title>
    <desc>Created with Sketch.</desc>
    <defs>
        <polygon id="path-1" points="0 59.6354289 59.6354289 59.6354289 59.6354289 0 0 0"></polygon>
    </defs>
    <g id="Page-1" stroke="none" stroke-width="1" fill="none" fill-rule="evenodd">
        <g id="Artboard">
            <g id="flyers">
                <g id="g11" transform="translate(29.908907, 30.121457) scale(1, -1) translate(-29.908907, -30.121457) translate(0.000000, 0.060729)">
                    <g id="g13" transform="translate(0.182286, 0.243006)">
                        <g id="g15-Clipped">
                            <mask id="mask-2" fill="white">
                                <use xlink:href="#path-1"></use>
                            </mask>
                            <g id="path19"></g>
                            <g id="g15" mask="url(#mask-2)">
                                <g transform="translate(2.474870, 10.644924)">
                                    <g id="g21" transform="translate(0.294041, 0.341681)">
                                        <path d="M17.6222693,0 L17.4512348,0 L10.6304625,0 C8.75665766,0 5.24794757,0.414018965 2.80203026,3.18700678 C0.237229736,6.0946812 0.141306149,9.90857561 0.109759007,11.1617843 L0.108596116,11.2088367 L0.100813693,11.5145875 L0.406683808,11.5145875 L2.77182492,11.5145875 C2.76830643,11.5180762 2.76481776,11.5215649 2.76123963,11.5250834 C2.38046742,11.90186 1.9375849,12.3642135 1.50096411,13.0844902 C1.29149467,13.4299582 1.10274853,13.8056614 0.955150848,14.1710179 C0.878877134,14.3597938 0.818198085,14.5442164 0.754000546,14.7394926 C0.726478795,14.8231313 0.698539597,14.9081118 0.668841153,14.9947621 C0.237617367,16.2520558 0.0190535195,17.9737307 0.0190535195,20.1120484 L0.0190535195,20.4101957 L0.317200847,20.4101957 L2.76338651,20.4101957 C1.90225091,21.3988915 1.25938099,22.3611092 0.795536622,23.7126269 C0.339474679,25.0414235 0.12067229,26.7450586 0.162745086,28.6392886 C0.163639617,28.6796618 0.164414878,28.7087639 0.164414878,28.7256109 L0.164414878,29.0234898 L0.462204392,29.0237582 L3.12149726,29.0267101 C2.31764149,29.8387061 1.68991897,30.7108743 1.25100221,31.6270534 C0.106210699,34.0161083 0.162089096,36.4335497 0.183110585,37.3436162 L0.18981957,37.6346669 L0.480929917,37.6348756 C0.801470347,37.6351439 32.5839337,37.6622184 36.7992341,37.6622184 C41.5008615,37.6622184 45.8801594,35.8611688 49.1302903,32.5908216 C50.6882361,31.0232447 51.9103748,29.1996529 52.762893,27.1706767 C53.6358961,25.0927398 54.0785699,22.8968142 54.0785699,20.6437877 C54.0785699,18.3318414 53.6263842,16.0930976 52.7345364,13.9898156 C51.8738182,11.9599449 50.6409452,10.138828 49.0702374,8.57700593 C47.5016766,7.01736056 45.6738805,5.7933732 43.6374499,4.93903604 C41.5323789,4.05580552 39.2952154,3.60794345 36.9880995,3.60794345 C34.9100732,3.60794345 32.8952306,3.96861853 30.9995396,4.67986047 C29.4833684,5.24872283 28.0402507,6.04169512 26.7102315,7.03674207 C25.053768,8.27605574 23.9992348,9.50463503 23.5330348,10.1037325 L17.7086214,0.147627504 L17.6222693,0 L17.6222693,0 Z" id="path23" fill="#FFFFFF"></path>
                                    </g>
                                    <g id="g25" transform="translate(0.000030, 0.016146)">
                                        <path d="M37.0932368,38.2859454 C32.8778171,38.2859454 1.09526429,38.2589007 0.774723857,38.2586324 L0.192503165,38.2581255 L0.179025558,37.6760539 C0.157526986,36.7464866 0.10045588,34.2773115 1.27607891,31.8237012 C1.63910958,31.0660629 2.12612231,30.3385107 2.73046775,29.6496917 L0.755938697,29.647515 L0.160240398,29.6468888 L0.160240398,29.0511607 C0.160240398,29.039651 0.159465137,29.004973 0.158719694,28.9713983 C0.115841821,27.0424307 0.340190304,25.303074 0.807523343,23.9413586 C1.20904869,22.7714009 1.73813421,21.8870373 2.4193199,21.0339227 L0.611233329,21.0339227 L0.0148790395,21.0339227 L0.0148790395,20.4375684 C0.0148790395,18.2663021 0.238929346,16.5120663 0.680738421,15.2235534 C0.709631787,15.1393482 0.737600803,15.0542484 0.764675288,14.972041 C0.827590665,14.7807305 0.892682736,14.58289 0.972713482,14.3848109 C1.1260958,14.0051419 1.32226655,13.6146193 1.53996568,13.255465 C1.82087837,12.7920082 2.11392687,12.4224475 2.36651273,12.1382847 L0.700686472,12.1382847 L0.0889164246,12.1382847 L0.104540907,11.5267532 L0.105733616,11.4798201 C0.137936747,10.1997456 0.235977392,6.30432955 2.87242989,3.31528258 C3.97684821,2.06329639 5.40413275,1.15081469 7.11468558,0.60339127 C8.60238081,0.127291823 10.0075704,0.0273428442 10.9244353,0.0273428442 L17.7452375,0.0273428442 L18.0872765,0.0273428442 L18.2599807,0.322568035 L23.8665757,9.90622001 C24.4295044,9.23183276 25.4143239,8.17935689 26.8255963,7.12351162 C28.1782471,6.11155803 29.646203,5.30498885 31.188733,4.72625683 C33.1180882,4.00231254 35.1681753,3.6352863 37.2820724,3.6352863 C39.6290247,3.6352863 41.9050108,4.09096061 44.0467875,4.98954725 C45.0775262,5.42202338 46.0713506,5.95740045 47.0006495,6.58085904 C47.9217784,7.19886099 48.7877146,7.90885059 49.574455,8.69108851 C50.3617619,9.47398242 51.0764329,10.3358336 51.6985497,11.2528476 C52.3271369,12.1793437 52.8669569,13.1705739 53.3030409,14.1989273 C54.2105729,16.339213 54.6707497,18.6171373 54.6707497,20.9693077 C54.6707497,23.2621707 54.2202338,25.4970084 53.3317554,27.6116807 C52.9015454,28.6355614 52.3688221,29.6238099 51.7483155,30.5489939 C51.1299259,31.4710769 50.4191312,32.3382953 49.6357602,33.1265564 C48.8473202,33.9198865 47.9785215,34.6400738 47.0534567,35.2670807 C46.1139303,35.9038976 45.1071948,36.450844 44.0611596,36.8926829 C41.8723903,37.8171811 39.5280619,38.2859454 37.0932368,38.2859454 M37.0932368,37.6895911 C46.7704269,37.6895911 54.0743954,29.9739295 54.0743954,20.9693077 C54.0743954,11.6719952 46.5507002,4.23164058 37.2820724,4.23164058 C28.329244,4.23164058 23.7982335,10.9704441 23.7982335,10.9704441 L17.7452375,0.623697134 L10.9244353,0.623697134 C9.04824509,0.623697134 5.66098255,1.05548746 3.31969561,3.70980076 C0.793687924,6.5735537 0.730563822,10.3723007 0.700686472,11.5419304 L3.78187018,11.5419304 C3.78187018,11.5419304 3.61665022,11.7145749 3.26500992,12.0625178 C2.94235243,12.3818059 2.48688684,12.843742 2.04993805,13.5645852 C1.86533658,13.8691135 1.67900568,14.2286257 1.52565318,14.6082052 C1.42033701,14.8688419 1.3418866,15.1340406 1.24485976,15.4170107 C0.800993264,16.7114275 0.611233329,18.4449102 0.611233329,20.4375684 L3.72718449,20.4375684 C2.58585183,21.6691593 1.87466953,22.6691262 1.37158505,24.134965 C0.635832943,26.278799 0.756594687,28.812619 0.756594687,29.0511607 L4.16204604,29.0548879 C3.09498931,30.0071166 2.31433173,31.036931 1.81390102,32.0813859 C0.755073984,34.2911767 0.748245727,36.4946462 0.775230759,37.6622781 C0.775230759,37.6622781 32.8293036,37.6895911 37.0932368,37.6895911" id="path27" fill="#000000"></path>
                                    </g>
                                    <g id="g29" transform="translate(2.165512, 1.959233)">
                                        <path d="M34.7674551,34.5587311 C30.7862535,34.5587311 0.0882007994,34.5581347 0.0882007994,34.5581347 C0.0882007994,31.8377454 1.45552191,29.4636291 2.3183273,28.6008237 C3.42563795,27.4935131 5.08597774,26.5949563 7.53517499,26.5949563 C7.53517499,26.5949563 20.8332495,26.5862495 20.8835818,26.5862495 C20.9748836,26.5862495 21.1985165,26.3812527 21.1985165,26.2284369 C21.1985165,26.0756211 20.9953982,25.8426851 20.8835818,25.8426851 L0.234814501,25.8426851 C0.234814501,25.5059537 0.200345224,22.0822241 2.36678109,19.9157882 C4.52182658,17.7607427 6.71038719,17.9645468 7.71160641,17.7639332 L15.6505729,17.7639332 C15.740026,17.7639332 16.0250834,17.4707058 16.0250834,17.3660755 C16.0250834,17.2172552 15.7549349,17.0185202 15.6505729,17.0185202 L0.0111816429,17.0259746 C0.0111816429,16.5755184 0.110176455,13.9440454 1.5356123,11.8526011 C3.04131742,9.64340667 5.62063918,8.93791955 7.12270654,8.93791955 C7.12270654,8.93791955 10.1380229,8.93419233 10.3020204,8.93419233 C10.4660178,8.93419233 10.7343772,8.67701455 10.7343772,8.53910762 C10.7343772,8.39747347 10.4883811,8.16638619 10.3057476,8.16638619 C10.1231141,8.16638619 0.102483485,8.1701134 0.102483485,8.1701134 C0.102483485,7.71673505 0.101171505,5.08496394 2.26241909,2.70601722 C4.55280719,0.184780377 6.88016926,0.0224229213 7.95760255,0.0224229213 L14.9101096,0.0174135453 L28.5333462,22.9710305 L28.5333462,22.9704938 C29.8794371,25.1959389 32.3278293,26.6844094 35.1252676,26.6844094 C39.373308,26.6844094 42.8169856,23.2523905 42.8169856,19.0187521 C42.8169856,14.7851734 39.373308,11.3531246 35.1252676,11.3531246 C30.9099075,11.3531246 27.4872215,14.7326942 27.434802,18.9213376 L22.2813766,10.1577026 C23.8060458,8.06557249 27.7346489,3.47382337 35.2929923,3.47382337 C43.7647119,3.47382337 50.7273867,10.4167589 50.7273867,19.064731 C50.7273867,26.8300689 44.5940618,34.5587311 34.7674551,34.5587311" id="path31" fill="#000000"></path>
                                    </g>
                                    <g id="g33" transform="translate(32.834283, 16.532685)">
                                        <path d="M8.88567891,4.44283946 C8.88567891,2.00285588 6.9012802,0.0248381562 4.45339493,0.0248381562 C2.00550966,0.0248381562 0.0211109418,2.00285588 0.0211109418,4.44283946 C0.0211109418,6.88282303 2.00550966,8.86084076 4.45339493,8.86084076 C6.9012802,8.86084076 8.88567891,6.88282303 8.88567891,4.44283946" id="path35" fill="#F4793E"></path>
                                    </g>
                                </g>
                            </g>
                        </g>
                    </g>
                </g>
            </g>
        </g>
    </g>
</svg>