<?xml version="1.0" encoding="UTF-8" standalone="no"?>
<svg width="60px" height="60px" viewBox="0 0 60 60" version="1.1" xmlns="http://www.w3.org/2000/svg" xmlns:xlink="http://www.w3.org/1999/xlink">
    <!-- Generator: Sketch 40.3 (33839) - http://www.bohemiancoding.com/sketch -->
    <title>Artboard</title>
    <desc>Created with Sketch.</desc>
    <defs></defs>
    <g id="Page-1" stroke="none" stroke-width="1" fill="none" fill-rule="evenodd">
        <g id="Artboard">
            <g id="Layer_6" transform="translate(0.000000, 11.891892)">
                <g id="Layer_2">
                    <g id="Group">
                        <path d="M15.5327027,35.6837838 C12.9575676,35.6837838 10.6613514,35.5054054 8.70702703,35.1524324 L7.75540541,34.9810811 L8.56540541,34.4532432 L10.3662162,33.2794595 C9.3172973,33.1589189 7.69405405,32.8627027 6.05513514,32.1364865 C3.52378378,31.0143243 0.506486486,28.6221622 0.506486486,23.5989189 C0.506486486,19.9981081 2.02432432,16.6102703 5.01891892,13.5289189 C7.65945946,10.8113514 11.3878378,8.38405405 16.1,6.31378378 C24.3324324,2.6972973 35.1540541,0.450810811 44.3410811,0.450810811 C47.0089189,0.450810811 49.3918919,0.643783784 51.4240541,1.02486486 L52.3710811,1.20243243 L51.5618919,1.72513514 L49.7659459,2.88432432 C50.8027027,3.02135135 52.4145946,3.34297297 54.0421622,4.09378378 C56.5437838,5.24783784 59.5262162,7.66567568 59.5262162,12.6289189 C59.5145946,16.2572973 57.9724324,19.6583784 54.9424324,22.7386486 C52.2767568,25.4475676 48.5164865,27.862973 43.7659459,29.9151351 C35.5305405,33.4735135 24.7118919,35.6837838 15.5327027,35.6837838 L15.5327027,35.6837838 L15.5327027,35.6837838 Z" id="Shape" fill="#FFFFFF"></path>
                        <path d="M44.3410811,0.834864865 C46.9456757,0.834864865 49.3283784,1.0227027 51.3535135,1.40243243 L48.6202703,3.16675676 C48.6202703,3.16675676 59.1424324,3.41378378 59.1424324,12.6283784 C59.0945946,27.5567568 32.3164865,35.3 15.5324324,35.3 C13.0135135,35.3 10.7194595,35.1254054 8.77513514,34.7748649 L11.5313514,32.9786486 C11.5313514,32.9786486 0.89027027,32.9240541 0.89027027,23.5991892 C0.89,8.79513514 27.3781081,0.834864865 44.3410811,0.834864865 L44.3410811,0.834864865 Z M44.3410811,0.067027027 C35.1037838,0.067027027 24.2235135,2.32594595 15.9456757,5.96243243 C11.1878378,8.0527027 7.41891892,10.5086486 4.74324324,13.2616216 C1.67675676,16.4167568 0.122162162,19.8945946 0.122162162,23.5989189 C0.122162162,27.7381081 2.11972973,30.8118919 5.89945946,32.4872973 C7.11513514,33.0264865 8.32378378,33.3348649 9.30783784,33.5110811 L8.35567568,34.1313514 L6.73567568,35.1872973 L8.63864865,35.5308108 C10.6156757,35.8875676 12.9351351,36.0678378 15.5324324,36.0678378 C24.7610811,36.0678378 35.6375676,33.8451351 43.9181081,30.2672973 C48.7143243,28.1948649 52.5154054,25.7524324 55.2159459,23.0075676 C58.3189189,19.8535135 59.8983784,16.3621622 59.9102703,12.6310811 C59.9102703,8.53918919 57.9364865,5.4672973 54.2027027,3.74486486 C52.9916216,3.18594595 51.787027,2.85864865 50.8094595,2.6672973 L51.77,2.04783784 L53.3886486,1.00297297 L51.4945946,0.648108108 C49.4394595,0.262162162 47.0327027,0.067027027 44.3410811,0.067027027 L44.3410811,0.067027027 L44.3410811,0.067027027 Z" id="Shape" fill="#8E8E91"></path>
                    </g>
                </g>
                <g id="Layer_3" transform="translate(2.162162, 1.891892)" fill="#231F20">
                    <path d="M45.3513514,0.315135135 C45.3513514,0.315135135 43.9983784,0.0956756757 41.4024324,0.0956756757 C27.6664865,0.0956756757 0.208918919,7.25837838 0.208918919,21.432973 C0.208918919,29.1667568 7.83324324,30.0991892 12.0021622,30.0991892 C19.2059459,30.0991892 27.7994595,27.3843243 31.2548649,25.437027 C31.2548649,25.437027 18.3648649,30.5562162 7.46756757,26.8627027 C9.60891892,27.2062162 14.5251351,26.5335135 16.4654054,25.7110811 C16.4654054,25.7110811 11.0421622,24.8154054 11.0421622,19.2386486 C11.0421622,5.31864865 41.8967568,0.315135135 45.3513514,0.315135135 L45.3513514,0.315135135 Z" id="Shape"></path>
                    <path d="M14.9913514,19.7048649 C16.4267568,17.0994595 16.4632432,15.4540541 18.1089189,13.5159459 C20.9643243,10.2718919 29.9932432,7.81594595 34.9024324,7.81594595 C39.8581081,7.81594595 41.5945946,11.0145946 41.6218919,13.0313514 C41.6218919,18.7540541 29.6886486,23.4162162 29.7097297,23.4162162 C41.2194595,15.6732432 40.8175676,11.2440541 34.1827027,11.2440541 C28.6972973,11.2443243 18.5291892,14.8505405 14.9913514,19.7048649 L14.9913514,19.7048649 Z" id="Shape"></path>
                </g>
                <g id="Layer_4" transform="translate(12.432432, 4.054054)" fill="#E13A3E">
                    <path d="M0.104324324,29.9116216 C0.104324324,29.9116216 1.4572973,30.1313514 4.05351351,30.1313514 C17.7894595,30.1313514 45.2472973,22.9681081 45.2472973,8.79432432 C45.2472973,1.06027027 37.622973,0.127837838 33.4537838,0.127837838 C26.25,0.127837838 17.6567568,2.84324324 14.2010811,4.79 C14.2010811,4.79 27.0913514,-0.329459459 37.9883784,3.36405405 C35.8467568,3.02108108 30.9308108,3.69297297 28.9905405,4.51594595 C28.9905405,4.51594595 34.4137838,5.41162162 34.4137838,10.9883784 C34.4140541,24.9081081 3.55918919,29.9116216 0.104324324,29.9116216 L0.104324324,29.9116216 Z" id="Shape"></path>
                </g>
                <g id="Layer_5" transform="translate(17.567568, 13.513514)">
                    <path d="M23.5378378,1.64756757 C22.7156757,-0.64027027 16.3102703,-0.351081081 10.3232432,1.72054054 C3.88864865,4.03297297 -0.664594595,7.70351351 0.157837838,9.99108108 C0.98,12.2791892 7.38432432,12.097027 13.297027,9.94702703 C19.7313514,7.63486486 24.3597297,3.93540541 23.5378378,1.64756757 L23.5378378,1.64756757 Z" id="Shape" fill="#E13A3E"></path>
                    <ellipse id="Oval" fill="#231F20" transform="translate(11.675934, 5.870282) rotate(-18.445820) translate(-11.675934, -5.870282) " cx="11.6759338" cy="5.87028205" rx="5.16230574" ry="1.70185013"></ellipse>
                </g>
            </g>
        </g>
    </g>
</svg>