<?xml version="1.0" encoding="UTF-8" standalone="no"?>
<svg width="60px" height="60px" viewBox="0 0 60 60" version="1.1" xmlns="http://www.w3.org/2000/svg" xmlns:xlink="http://www.w3.org/1999/xlink">
    <!-- Generator: Sketch 40.3 (33839) - http://www.bohemiancoding.com/sketch -->
    <title>Artboard</title>
    <desc>Created with Sketch.</desc>
    <defs>
        <rect id="path-1" x="0" y="0" width="59.6813772" height="57.5749634"></rect>
        <rect id="path-3" x="0" y="0" width="59.6813772" height="57.5749634"></rect>
        <rect id="path-5" x="0" y="0" width="59.6813772" height="57.5749634"></rect>
        <rect id="path-7" x="0" y="0" width="59.6813772" height="57.5749634"></rect>
        <rect id="path-9" x="0" y="0" width="59.6813772" height="57.5749634"></rect>
        <rect id="path-11" x="0" y="0" width="59.6813772" height="57.5749634"></rect>
        <rect id="path-13" x="0" y="0" width="59.6813772" height="57.5749634"></rect>
        <rect id="path-15" x="0" y="0" width="59.6813772" height="57.5749634"></rect>
        <rect id="path-17" x="0" y="0" width="59.6813772" height="57.5749634"></rect>
        <rect id="path-19" x="0" y="0" width="59.6813772" height="57.5749634"></rect>
        <rect id="path-21" x="0" y="0" width="59.6813772" height="57.5749634"></rect>
        <rect id="path-23" x="0" y="0" width="59.6813772" height="57.5749634"></rect>
        <rect id="path-25" x="0" y="0" width="59.6813772" height="57.5749634"></rect>
        <rect id="path-27" x="0" y="0" width="59.6813772" height="57.5749634"></rect>
        <rect id="path-29" x="0" y="0" width="59.6813772" height="57.5749634"></rect>
        <rect id="path-31" x="0" y="0" width="59.6813772" height="57.5749634"></rect>
        <rect id="path-33" x="0" y="0" width="59.6813772" height="57.5749634"></rect>
        <rect id="path-35" x="0" y="0" width="59.6813772" height="57.5749634"></rect>
        <rect id="path-37" x="0" y="0" width="59.6813772" height="57.5749634"></rect>
        <rect id="path-39" x="0" y="0" width="59.6813772" height="57.5749634"></rect>
        <rect id="path-41" x="0" y="0" width="59.6813772" height="57.5749634"></rect>
        <rect id="path-43" x="0" y="0" width="59.6813772" height="57.5749634"></rect>
        <rect id="path-45" x="0" y="0" width="59.6813772" height="57.5749634"></rect>
        <rect id="path-47" x="0" y="0" width="59.6813772" height="57.5749634"></rect>
        <rect id="path-49" x="0" y="0" width="59.6813772" height="57.5749634"></rect>
        <rect id="path-51" x="0" y="0" width="59.6813772" height="57.5749634"></rect>
        <rect id="path-53" x="0" y="0" width="59.6813772" height="57.5749634"></rect>
        <rect id="path-55" x="0" y="0" width="59.6813772" height="57.5749634"></rect>
        <rect id="path-57" x="0" y="0" width="59.6813772" height="57.5749634"></rect>
        <rect id="path-59" x="0" y="0" width="59.6813772" height="57.5749634"></rect>
    </defs>
    <g id="Page-1" stroke="none" stroke-width="1" fill="none" fill-rule="evenodd">
        <g id="Artboard">
            <g id="islanders" transform="translate(0.000000, 1.034483)">
                <g id="g236" transform="translate(0.152276, 0.154136)">
                    <g id="g238">
                        <g id="path246-Clipped">
                            <mask id="mask-2" fill="white">
                                <use xlink:href="#path-1"></use>
                            </mask>
                            <g id="SVGID_1_"></g>
                            <path d="M29.840069,0.000620689655 C13.3597241,0.000620689655 0,12.8894483 0,28.7882069 C0,44.6867586 13.3597241,57.5764138 29.840069,57.5764138 C46.3212414,57.5764138 59.6813793,44.6867586 59.6813793,28.7882069 C59.6813793,12.8894483 46.3210345,0.000620689655 29.840069,0.000620689655 M29.840069,55.4555172 C14.5317931,55.4555172 2.12358621,43.515931 2.12358621,28.7882069 C2.12358621,14.0604828 14.5317931,2.12089655 29.840069,2.12089655 C45.1477241,2.12089655 57.5565517,14.0602759 57.5565517,28.7882069 C57.5563448,43.5163448 45.1477241,55.4555172 29.840069,55.4555172" id="path246" fill="#FFFFFF" mask="url(#mask-2)"></path>
                        </g>
                    </g>
                    <g id="g248">
                        <g id="path256-Clipped">
                            <mask id="mask-4" fill="white">
                                <use xlink:href="#path-3"></use>
                            </mask>
                            <g id="SVGID_3_"></g>
                            <path d="M30.6765517,37.1242759 C30.5213793,37.442069 30.2176552,37.6611724 29.8657241,37.71 L17.9207586,39.3537931 C17.8150345,39.3688966 17.7177931,39.426 17.654069,39.512069 C17.589931,39.5954483 17.5632414,39.7053103 17.58,39.8095862 L18.308069,44.589931 C18.3250345,44.6993793 18.3871034,44.7991034 18.4806207,44.8613793 C18.5735172,44.9234483 18.6875172,44.9435172 18.7969655,44.9186897 L19.9816552,44.6344138 L20.6884138,41.8795862 C20.7126207,41.7848276 20.8067586,41.7275172 20.9025517,41.750069 L23.2235172,42.3190345 C23.2938621,42.3341379 23.3462069,42.3928966 23.3563448,42.4626207 L23.5642759,43.7824138 L25.0549655,43.4263448 L25.0549655,42.8284138 C25.0549655,42.7648966 25.0818621,42.7038621 25.1290345,42.6616552 C25.1764138,42.6190345 25.2397241,42.5991724 25.3022069,42.6066207 L27.1528966,42.8257241 C27.2052414,42.8306897 27.2464138,42.8592414 27.282,42.8954483 L30.836069,42.0484138 C31.1524138,41.9737241 31.4137241,41.7593793 31.5533793,41.4653793 L33.7578621,36.7723448 L31.4337931,35.5870345 L30.6765517,37.1242759 L30.6765517,37.1242759 Z" id="path256" fill="#FFFFFF" mask="url(#mask-4)"></path>
                        </g>
                    </g>
                    <g id="g258">
                        <g id="polygon266-Clipped">
                            <mask id="mask-6" fill="white">
                                <use xlink:href="#path-5"></use>
                            </mask>
                            <g id="SVGID_5_"></g>
                            <polygon id="polygon266" fill="#FFFFFF" mask="url(#mask-6)" points="31.9092414 34.6208276 31.7188966 35.0093793 34.0317931 36.1891034 34.2161379 35.7968276"></polygon>
                        </g>
                    </g>
                    <g id="g268">
                        <g id="polygon276-Clipped">
                            <mask id="mask-8" fill="white">
                                <use xlink:href="#path-7"></use>
                            </mask>
                            <g id="SVGID_7_"></g>
                            <polygon id="polygon276" fill="#FFFFFF" mask="url(#mask-8)" points="32.7463448 32.9207586 32.6691724 33.0765517 34.9483448 34.2372414 35.1328966 33.8464138 32.8609655 32.6877931"></polygon>
                        </g>
                    </g>
                    <g id="g278">
                        <g id="polygon286-Clipped">
                            <mask id="mask-10" fill="white">
                                <use xlink:href="#path-9"></use>
                            </mask>
                            <g id="SVGID_9_"></g>
                            <polygon id="polygon286" fill="#FFFFFF" mask="url(#mask-10)" points="32.3848966 33.6544138 32.1947586 34.0429655 34.490069 35.2137931 34.6744138 34.8215172"></polygon>
                        </g>
                    </g>
                    <g id="g288">
                        <g id="path296-Clipped">
                            <mask id="mask-12" fill="white">
                                <use xlink:href="#path-11"></use>
                            </mask>
                            <g id="SVGID_11_"></g>
                            <path d="M40.2142759,17.7494483 L34.6843448,5.83448276 C34.6195862,5.69296552 34.4776552,5.60275862 34.322069,5.60275862 L24.7228966,5.60275862 C24.5013103,5.60275862 24.3223448,5.78213793 24.3223448,6.00331034 L24.3223448,13.8055862 L20.0968966,5.64558621 C17.5791724,6.62275862 15.2569655,7.96365517 13.2024828,9.6057931 L13.2024828,24.1237241 C13.2024828,24.344069 13.3806207,24.5242759 13.6015862,24.5242759 L19.0524828,24.5242759 C19.2717931,24.5242759 19.4515862,24.3442759 19.4515862,24.1237241 L19.4515862,17.634 L23.4651724,24.33 C23.538,24.4502069 23.6681379,24.5242759 23.8084138,24.5242759 L29.9211724,24.5242759 C30.1417241,24.5242759 30.3217241,24.3442759 30.3217241,24.1237241 L30.3217241,11.5332414 L36.6093103,25.0748276 L35.8572414,26.6004828 L33.1446207,32.1086897 L35.4064138,33.2623448 L35.7078621,32.6209655 L37.0804138,29.6962759 L37.7577931,28.256069 L39.1526897,25.2866897 L46.5076552,9.6302069 C45.9647586,9.19551724 45.4030345,8.78441379 44.8226897,8.39337931 L40.2142759,17.7494483 L40.2142759,17.7494483 Z" id="path296" fill="#FFFFFF" mask="url(#mask-12)"></path>
                        </g>
                    </g>
                    <g id="g298">
                        <g id="path306-Clipped">
                            <mask id="mask-14" fill="white">
                                <use xlink:href="#path-13"></use>
                            </mask>
                            <g id="SVGID_13_"></g>
                            <path d="M38.5804138,34.5821379 C36.5602759,34.5821379 34.9235172,35.1364138 34.9235172,35.8189655 C34.9235172,36.4990345 36.5604828,37.052069 38.5804138,37.052069 C40.598069,37.052069 42.2368966,36.4990345 42.2368966,35.8189655 C42.2368966,35.1364138 40.598069,34.5821379 38.5804138,34.5821379" id="path306" fill="#FFFFFF" mask="url(#mask-14)"></path>
                        </g>
                    </g>
                    <g id="g308">
                        <g id="polygon316-Clipped">
                            <mask id="mask-16" fill="white">
                                <use xlink:href="#path-15"></use>
                            </mask>
                            <g id="SVGID_15_"></g>
                            <polygon id="polygon316" fill="#F47D30" mask="url(#mask-16)" points="33.7578621 36.7731724 34.0317931 36.1891034 31.7188966 35.0093793 31.4335862 35.5874483"></polygon>
                        </g>
                    </g>
                    <g id="g318">
                        <g id="path326-Clipped">
                            <mask id="mask-18" fill="white">
                                <use xlink:href="#path-17"></use>
                            </mask>
                            <g id="SVGID_17_"></g>
                            <path d="M19.6806207,34.413931 C20.6408276,33.327931 22.0028276,34.6131724 23.1442759,33.9258621 C24.0268966,33.4748276 24.7795862,34.2645517 25.7257241,34.1201379 C26.3205517,34.1102069 27.2184828,33.4526897 27.7322069,34.2422069 C28.1656552,34.4526207 28.7753793,34.3744138 29.144069,34.1004828 C29.3737241,33.2683448 30.3291724,33.5908966 30.9604138,33.3991034 C31.3762759,33.3057931 32.1910345,32.8874483 32.7465517,32.9209655 L32.8611724,32.688 L35.1328966,33.8464138 L35.4066207,33.2635862 L33.1462759,32.1086897 L35.8588966,26.600069 C34.2533793,26.3453793 32.2607586,27.4077931 30.8594483,26.6629655 C29.2458621,26.6131034 27.3670345,26.7190345 25.9371724,25.9624138 C25.0086207,25.8136552 24.014069,25.8273103 23.1695172,25.4884138 C22.7168276,26.3366897 22.2068276,25.2115862 21.663931,25.3758621 C21.3368276,25.4803448 21.0643448,25.8378621 21.1301379,26.2214483 C20.9631724,27.1003448 19.8945517,26.5864138 19.3446207,26.9561379 C18.3357931,27.5286207 17.775931,26.0836552 16.812,26.0968966 C16.1548966,25.9181379 15.3709655,25.9984138 15.006,26.6691724 C14.4386897,26.8129655 14.1490345,26.073931 13.5064138,26.3149655 C13.0597241,26.0377241 13.7048276,25.8465517 13.5407586,25.5115862 C13.1733103,25.1093793 12.4884828,24.8172414 11.9708276,25.1553103 C11.876069,25.844069 12.6134483,26.438069 12.2242759,27.1603448 C11.8394483,27.2395862 11.8611724,26.6797241 11.5369655,26.5483448 C11.1668276,26.3697931 11.151931,26.8212414 10.953931,26.9954483 C10.2335172,26.9625517 10.3841379,26.1591724 10.1586207,25.7244828 C9.32172414,25.5943448 8.6522069,26.1068276 7.9622069,26.4101379 C7.47889655,26.7775862 7.79524138,27.5648276 7.37917241,27.9496552 C7.05662069,27.7071724 7.08972414,27.242069 6.77089655,26.9528276 C6.50048276,26.7753103 6.17668966,26.6464138 5.84234483,26.7628966 C5.53344828,26.8375862 5.44427586,27.0941379 5.37951724,27.3645517 C5.38717241,27.5263448 5.55,27.654 5.72648276,27.6078621 C5.93441379,27.6564828 6.09393103,27.9 5.99689655,28.1042069 C5.88951724,28.250069 5.82310345,28.5432414 5.56696552,28.4898621 C5.29241379,28.2293793 4.90882759,27.8644138 4.52213793,28.0226897 C4.35889655,28.1666897 4.52089655,28.3609655 4.52089655,28.5204828 C4.34524138,29.1117931 4.77889655,29.4515172 5.09875862,29.8698621 C5.20717241,30.332069 5.25331034,31.0069655 4.89910345,31.3431724 C4.4217931,31.4377241 4.30303448,31.9646897 4.25565517,32.3671034 C4.36965517,32.7707586 4.81303448,32.7393103 4.97503448,33.0744828 C5.06213793,33.3496552 4.76193103,33.5575862 4.51717241,33.7123448 C4.61193103,34.1681379 4.72158621,34.6189655 4.8422069,35.0675172 C5.13434483,34.9526897 5.46744828,34.8430345 5.65862069,34.8742759 C5.81937931,34.9551724 5.93337931,35.1010345 5.93337931,35.2628276 C6.08834483,35.5655172 6.41296552,35.8692414 6.78103448,35.6950345 C7.14972414,35.5355172 7.48531034,35.0263448 7.88317241,35.2342759 L7.88317241,31.8736552 L9.60372414,33.3833793 L9.60372414,35.1246207 C10.2426207,35.1095172 10.9706897,35.1744828 11.5597241,34.9367586 C12.7291034,35.0236552 14.1248276,35.3451724 15.1398621,34.6777241 C16.0390345,34.5165517 16.8703448,34.2130345 17.8357241,34.2153103 C18.4942759,34.17 19.0684138,34.4590345 19.6806207,34.413931" id="path326" fill="#F47D30" mask="url(#mask-18)"></path>
                        </g>
                    </g>
                    <g id="g328">
                        <g id="path336-Clipped">
                            <mask id="mask-20" fill="white">
                                <use xlink:href="#path-19"></use>
                            </mask>
                            <g id="SVGID_19_"></g>
                            <path d="M39.7137931,27.1528966 C40.3588966,26.3008966 42.0103448,27.3211034 42.222,26.004 C42.4787586,25.317931 43.2484138,25.5736552 43.7292414,25.2349655 C43.8748966,24.9806897 43.6195862,24.804 43.5697241,24.5793103 C44.199931,23.8915862 45.0496552,23.4146897 45.7245517,22.7110345 C46.2078621,22.2326897 46.9624138,22.3411034 47.5876552,22.3293103 C47.8766897,22.1548966 48.2977241,21.8971034 48.3587586,21.5621379 L48.2776552,21.4468966 C47.3944138,21.318 46.437931,21.476069 45.6171724,21.7450345 C44.6981379,22.5757241 43.6843448,23.1674483 42.5832414,23.5030345 C41.8334483,24.4564138 40.2703448,24.9028966 39.1528966,25.2873103 L37.758,28.2558621 C38.4643448,28.0684138 39.399931,27.5664828 39.7137931,27.1528966" id="path336" fill="#F47D30" mask="url(#mask-20)"></path>
                        </g>
                    </g>
                    <g id="g338">
                        <g id="polygon346-Clipped">
                            <mask id="mask-22" fill="white">
                                <use xlink:href="#path-21"></use>
                            </mask>
                            <g id="SVGID_21_"></g>
                            <polygon id="polygon346" fill="#F47D30" mask="url(#mask-22)" points="34.6744138 34.820069 34.9483448 34.2372414 32.6691724 33.0765517 32.3863448 33.6544138"></polygon>
                        </g>
                    </g>
                    <g id="g348">
                        <g id="polygon356-Clipped">
                            <mask id="mask-24" fill="white">
                                <use xlink:href="#path-23"></use>
                            </mask>
                            <g id="SVGID_23_"></g>
                            <polygon id="polygon356" fill="#F47D30" mask="url(#mask-24)" points="32.1947586 34.0417241 31.9092414 34.6208276 34.2161379 35.7968276 34.490069 35.2137931"></polygon>
                        </g>
                    </g>
                    <g id="g358">
                        <g id="path366-Clipped">
                            <mask id="mask-26" fill="white">
                                <use xlink:href="#path-25"></use>
                            </mask>
                            <g id="SVGID_25_"></g>
                            <path d="M29.840069,2.12172414 C14.5317931,2.12172414 2.12358621,14.0602759 2.12358621,28.7890345 C2.12358621,43.5161379 14.5317931,55.4555172 29.840069,55.4555172 C45.1477241,55.4555172 57.5565517,43.515931 57.5565517,28.7890345 C57.5567586,14.0602759 45.1477241,2.12172414 29.840069,2.12172414 M29.840069,53.7467586 C15.4733793,53.7467586 3.82944828,42.5733103 3.82944828,28.7890345 C3.82944828,21.0763448 7.47537931,14.1844138 13.2016552,9.606 C15.2567586,7.96324138 17.5802069,6.62358621 20.097931,5.646 C23.1076552,4.47910345 26.3946207,3.82944828 29.840069,3.82944828 C35.421931,3.82944828 40.5866897,5.52227586 44.8226897,8.39296552 C45.4032414,8.78482759 45.9637241,9.19510345 46.5066207,9.63041379 C51.4924138,13.6284828 54.8888276,19.3806207 55.6723448,25.9001379 L55.1178621,26.0863448 C54.7891034,27.3206897 53.3691724,26.5022069 52.7677241,27.3796552 C52.0028276,27.4226897 51.1686207,27.4891034 50.7662069,28.2595862 C50.522069,28.3348966 50.1709655,28.3348966 50.0762069,28.0324138 C50.2406897,27.3248276 49.0847586,27.0806897 49.617931,26.3271724 C49.5858621,26.0071034 49.1981379,25.9754483 48.9554483,26.0693793 C48.4473103,26.2582759 48.4073793,26.8067586 48.3477931,27.252 C47.6513793,27.3796552 47.5930345,26.1626897 46.838069,26.4498621 C46.0661379,27.1851724 45.0893793,27.5222069 43.9797931,27.3273103 C42.0103448,27.1754483 41.3604828,29.7397241 39.6767586,30.2793103 C38.9542759,30.3914483 37.868069,29.9753793 37.0810345,29.696069 L35.7074483,32.6205517 L36.5083448,32.4213103 C37.040069,32.2944828 37.4611034,31.9404828 37.9421379,31.6891034 C38.721931,32.2828966 38.8522759,31.1410345 39.4826897,31.0787586 C39.8834483,30.9866897 40.2186207,31.3402759 40.4741379,31.6293103 C41.4206897,32.0327586 42.5629655,31.7637931 43.3365517,31.125931 C44.1635172,30.7723448 45.2207586,30.9192414 46.0601379,30.5555172 C46.6218621,30.1841379 47.1662069,29.7395172 47.9596552,29.8677931 C50.3135172,29.0588276 53.3524138,28.059931 55.7950345,27.2044138 C55.8297931,27.7286897 55.8508966,28.2556552 55.8508966,28.7886207 C55.850069,42.5733103 44.2063448,53.7467586 29.840069,53.7467586" id="path366" fill="#F47D30" mask="url(#mask-26)"></path>
                        </g>
                    </g>
                    <g id="g368">
                        <g id="path376-Clipped">
                            <mask id="mask-28" fill="white">
                                <use xlink:href="#path-27"></use>
                            </mask>
                            <g id="SVGID_27_"></g>
                            <path d="M14.2628276,38.2502069 L11.7794483,36.0134483 C10.8177931,35.1488276 10.1470345,35.9085517 10.1470345,36.4630345 L10.1470345,38.7734483 C10.1470345,39.2178621 10.296,39.4793793 10.4962759,39.7411034 L12.7444138,42.6765517 C12.8706207,42.8397931 12.9194483,43.004069 12.9194483,43.2045517 L12.9194483,43.5297931 C12.9194483,43.7915172 12.6883448,43.7675172 12.5091724,43.6057241 L12.0227586,43.1911034 C11.8495862,43.0576552 11.8671724,42.7824828 11.8671724,42.5445517 L11.8671724,42.2482759 C11.8671724,42.0875172 11.6977241,41.8046897 11.5270345,41.6654483 L10.4029655,40.6390345 C10.2335172,40.4747586 10.1470345,40.611931 10.1470345,41.0501379 L10.1470345,42.3902069 C10.1470345,42.7390345 10.3775172,43.443931 10.9017931,43.9171034 L13.4743448,46.2324828 C14.0989655,46.7890345 14.6389655,46.2490345 14.6389655,44.9608966 L14.6389655,43.4838621 C14.6389655,42.7514483 14.312069,42.0115862 13.9295172,41.5111034 L12.0372414,39.0484138 C12.0372414,39.0484138 11.8671724,38.8231034 11.8671724,38.5355172 L11.8671724,38.28 C11.8671724,38.28 11.9337931,37.9090345 12.2294483,38.178 L12.7115172,38.6114483 C12.8366897,38.7273103 12.9194483,38.9015172 12.9194483,39.1094483 L12.9194483,39.4582759 C12.9194483,39.66 12.9717931,39.8118621 13.1627586,39.9862759 L14.0683448,40.8008276 C14.4513103,41.1446897 14.6387586,40.8955862 14.6387586,40.5953793 L14.6387586,39.2068966 C14.6387586,38.696069 14.4177931,38.3894483 14.2628276,38.2502069" id="path376" fill="#F47D30" mask="url(#mask-28)"></path>
                        </g>
                    </g>
                    <g id="g378">
                        <g id="path386-Clipped">
                            <mask id="mask-30" fill="white">
                                <use xlink:href="#path-29"></use>
                            </mask>
                            <g id="SVGID_29_"></g>
                            <path d="M18.4595172,47.8243448 L17.0975172,47.0170345 L17.0975172,40.2254483 C17.0975172,40.1482759 17.0563448,40.0748276 16.9878621,40.0361379 L15.7125517,39.2788966 C15.6434483,39.2389655 15.5592414,39.2364828 15.4891034,39.2776552 C15.4204138,39.3163448 15.3782069,39.3897931 15.3782069,39.4682069 L15.3782069,47.5030345 C15.3782069,47.5814483 15.4175172,47.6546897 15.4866207,47.6935862 L18.2323448,49.323931 C18.3014483,49.3638621 18.3866897,49.3648966 18.4557931,49.3251724 C18.5255172,49.2852414 18.567931,49.2117931 18.567931,49.1333793 L18.567931,48.0146897 C18.567931,47.9364828 18.5255172,47.8653103 18.4595172,47.8243448" id="path386" fill="#F47D30" mask="url(#mask-30)"></path>
                        </g>
                    </g>
                    <g id="g388">
                        <g id="path396-Clipped">
                            <mask id="mask-32" fill="white">
                                <use xlink:href="#path-31"></use>
                            </mask>
                            <g id="SVGID_31_"></g>
                            <path d="M23.5653103,43.7826207 L23.3561379,42.4624138 C23.3462069,42.3928966 23.2938621,42.3351724 23.2235172,42.3177931 L20.9023448,41.750069 C20.8065517,41.7275172 20.7124138,41.7835862 20.6882069,41.8783448 L19.9812414,44.6346207 L18.7582759,49.4071034 C18.7338621,49.497931 18.7849655,49.5916552 18.876,49.6214483 L20.2429655,50.0648276 C20.2903448,50.0784828 20.3414483,50.0747586 20.3844828,50.0524138 C20.4266897,50.0275862 20.4573103,49.9876552 20.4705517,49.9402759 L20.8235172,48.5441379 L22.6942759,49.1530345 L22.9646897,50.8493793 C22.974,50.9141379 23.0213793,50.9687586 23.0848966,50.9890345 L24.5147586,51.4549655 C24.5733103,51.4748276 24.6378621,51.462 24.6852414,51.422069 C24.7326207,51.3798621 24.7543448,51.3204828 24.7456552,51.2604828 L23.5653103,43.7826207 L23.5653103,43.7826207 Z M21.2031724,47.0395862 L21.9136552,44.2386207 L22.4211724,47.4372414 L21.2031724,47.0395862 L21.2031724,47.0395862 Z" id="path396" fill="#F47D30" mask="url(#mask-32)"></path>
                        </g>
                    </g>
                    <g id="g398">
                        <g id="path406-Clipped">
                            <mask id="mask-34" fill="white">
                                <use xlink:href="#path-33"></use>
                            </mask>
                            <g id="SVGID_33_"></g>
                            <path d="M31.2018621,43.3044828 L29.9265517,43.1536552 C29.8630345,43.1462069 29.8013793,43.1671034 29.7535862,43.2072414 C29.7049655,43.2496552 29.6782759,43.3106897 29.6782759,43.374 L29.6782759,47.8315862 L27.3275172,42.9492414 C27.3161379,42.9281379 27.2981379,42.9132414 27.282,42.8956552 C27.2472414,42.8606897 27.2052414,42.8308966 27.1528966,42.8263448 L25.3034483,42.608069 C25.239931,42.5993793 25.1757931,42.6192414 25.1292414,42.6618621 C25.0818621,42.704069 25.0551724,42.7651034 25.0551724,42.8286207 L25.0551724,43.4265517 L25.0551724,51.3393103 C25.0551724,51.4497931 25.1368966,51.546 25.2461379,51.5594483 L26.5228966,51.7338621 C26.5864138,51.7437931 26.6503448,51.7237241 26.697931,51.6815172 C26.745931,51.6405517 26.7738621,51.5795172 26.7738621,51.5147586 L26.7738621,46.3468966 L29.5568276,51.7711034 C29.5967586,51.8509655 29.6795172,51.8981379 29.7662069,51.8935862 L31.1896552,51.8073103 C31.3069655,51.8013103 31.3988276,51.7026207 31.3988276,51.5871724 L31.3988276,43.5250345 C31.3988276,43.4116552 31.314,43.3166897 31.2018621,43.3044828" id="path406" fill="#F47D30" mask="url(#mask-34)"></path>
                        </g>
                    </g>
                    <g id="g408">
                        <g id="path416-Clipped">
                            <mask id="mask-36" fill="white">
                                <use xlink:href="#path-35"></use>
                            </mask>
                            <g id="SVGID_35_"></g>
                            <path d="M36.1191724,42.506069 L32.5508276,43.2171724 C32.4463448,43.2384828 32.3714483,43.3293103 32.3714483,43.4364828 L32.3714483,51.4572414 C32.3714483,51.5222069 32.4026897,51.5830345 32.4525517,51.6268966 C32.5026207,51.6693103 32.5696552,51.6866897 32.6321379,51.6742759 L36.1191724,51.0525517 C37.838069,50.7453103 37.838069,49.7112414 37.838069,49.4894483 L37.838069,43.1950345 C37.838069,43.1948276 37.838069,42.1638621 36.1191724,42.506069 L36.1191724,42.506069 Z M36.1191724,48.8232414 C36.1191724,48.8232414 36.1191724,49.5794483 35.4490345,49.6986207 L34.0913793,49.9429655 L34.0913793,44.5473103 L35.3704138,44.2905517 C36.1189655,44.1426207 36.1189655,44.8384138 36.1189655,44.8384138 L36.1189655,48.8232414 L36.1191724,48.8232414 Z" id="path416" fill="#F47D30" mask="url(#mask-36)"></path>
                        </g>
                    </g>
                    <g id="g418">
                        <g id="path426-Clipped">
                            <mask id="mask-38" fill="white">
                                <use xlink:href="#path-37"></use>
                            </mask>
                            <g id="SVGID_37_"></g>
                            <path d="M42.2594483,40.106069 C42.2083448,40.0735862 42.1433793,40.070069 42.0873103,40.0961379 L38.8715172,41.6716552 C38.8106897,41.7004138 38.772,41.763931 38.772,41.829931 L38.772,49.9094483 C38.772,49.9704828 38.8032414,50.0277931 38.8531034,50.0588276 C38.9044138,50.0927586 38.9677241,50.0946207 39.0223448,50.0712414 L42.2395862,48.624 C42.3031034,48.5954483 42.3438621,48.5317241 42.3438621,48.462 L42.3438621,47.3197241 C42.3438621,47.259931 42.3128276,47.2053103 42.2617241,47.1732414 C42.2108276,47.1382759 42.1485517,47.1333103 42.0935172,47.1581379 L40.742069,47.7672414 C40.6872414,47.7910345 40.6249655,47.7868966 40.5724138,47.7533793 C40.5227586,47.7211034 40.4917241,47.6648276 40.4917241,47.6054483 L40.4917241,46.0771034 C40.4917241,46.0048966 40.5326897,45.9430345 40.5949655,45.9151034 L42.2389655,45.1742069 C42.3024828,45.1456552 42.3436552,45.0833793 42.3436552,45.0130345 L42.3436552,43.8649655 C42.3436552,43.8028966 42.3124138,43.7466207 42.2590345,43.7133103 C42.207931,43.682069 42.1429655,43.6781379 42.0868966,43.7056552 L40.7466207,44.361931 C40.692,44.3884138 40.6272414,44.3842759 40.5748966,44.3532414 C40.5225517,44.3195172 40.4915172,44.2636552 40.4915172,44.2024138 L40.4915172,42.5681379 C40.4915172,42.5013103 40.5304138,42.4375862 40.59,42.4090345 L42.2441379,41.6004828 C42.3049655,41.5692414 42.3434483,41.5082069 42.3434483,41.4409655 L42.3434483,40.2554483 C42.344069,40.1954483 42.3130345,40.1383448 42.2594483,40.106069" id="path426" fill="#F47D30" mask="url(#mask-38)"></path>
                        </g>
                    </g>
                    <g id="g428">
                        <g id="path436-Clipped">
                            <mask id="mask-40" fill="white">
                                <use xlink:href="#path-39"></use>
                            </mask>
                            <g id="SVGID_39_"></g>
                            <path d="M46.1426897,42.7351034 C46.1426897,42.7351034 47.1490345,41.9842759 47.1490345,40.6177241 L47.1490345,38.5017931 C47.1490345,37.3783448 46.4302759,37.2736552 45.612,37.8391034 L42.9291724,39.69 C42.8807586,39.7222759 42.852,39.7768966 42.852,39.8368966 L42.852,47.823931 C42.852,47.8891034 42.8882069,47.9484828 42.9469655,47.9805517 C43.0065517,48.0122069 43.0762759,48.0095172 43.1308966,47.9695862 L44.4962069,47.0441379 C44.5435862,47.0106207 44.5733793,46.9557931 44.5733793,46.8984828 L44.5733793,43.8169655 L44.8549655,43.6228966 L46.352069,45.5805517 C46.4093793,45.6554483 46.514069,45.6728276 46.5937241,45.6204828 L47.5924138,44.9406207 C47.6323448,44.9131034 47.6598621,44.8708966 47.6671034,44.8235172 C47.6745517,44.7734483 47.6621379,44.7237931 47.6323448,44.6861379 L46.1426897,42.7351034 L46.1426897,42.7351034 Z M45.612,40.9005517 C45.612,41.1910345 45.4427586,41.5284828 45.2358621,41.6704138 L44.8512414,41.9371034 C44.7964138,41.9745517 44.7266897,41.9795172 44.6681379,41.9495172 C44.6081379,41.9172414 44.5733793,41.8576552 44.5733793,41.79 L44.5733793,40.3702759 C44.5733793,40.3129655 44.6006897,40.2581379 44.6507586,40.2256552 L45.21,39.8395862 C45.4330345,39.6852414 45.612,39.8346207 45.612,40.0733793 L45.612,40.9005517 L45.612,40.9005517 L45.612,40.9005517 Z" id="path436" fill="#F47D30" mask="url(#mask-40)"></path>
                        </g>
                    </g>
                    <g id="g438">
                        <g id="path446-Clipped">
                            <mask id="mask-42" fill="white">
                                <use xlink:href="#path-41"></use>
                            </mask>
                            <g id="SVGID_41_"></g>
                            <path d="M49.8991034,33.5011034 L48.1677931,35.4130345 C47.7242069,35.9112414 47.6224138,36.4417241 47.6224138,37.0522759 L47.6224138,37.8655862 C47.6224138,38.4357931 47.7382759,38.9453793 48.4766897,39.0997241 L49.4234483,39.3138621 C49.7296552,39.3813103 49.8991034,39.465931 49.8991034,39.6877241 L49.8991034,39.8944138 C49.8991034,40.2281379 49.821931,40.3117241 49.68,40.4538621 C49.5403448,40.592069 49.2165517,40.926 49.2165517,40.5086897 L49.2165517,40.1534483 C49.2165517,39.8571724 49.092,39.8571724 48.9037241,40.0462759 L47.8115172,41.169931 C47.6822069,41.2891034 47.6222069,41.4285517 47.6222069,41.6577931 L47.6222069,42.3753103 C47.6222069,43.6634483 48.2882069,43.9148276 48.9674483,43.0206207 L50.606069,40.8583448 C51.2784828,39.9703448 51.2784828,39.0798621 51.2784828,38.5694483 C51.2784828,37.9566207 50.7556552,37.7050345 50.3768276,37.6390345 L49.5773793,37.5008276 C49.292069,37.4484828 49.2163448,37.2515172 49.2163448,36.9777931 L49.2163448,36.5391724 C49.2163448,36.4071724 49.2163448,36.0597931 49.4491034,35.8168966 L49.6098621,35.6524138 C49.778069,35.4806897 49.8988966,35.4806897 49.8988966,35.7916552 L49.8988966,36.4208276 C49.8988966,36.5491034 49.9713103,36.6264828 50.0867586,36.5068966 L51.0881379,35.4705517 C51.2588276,35.2951034 51.2786897,35.0222069 51.2786897,34.8368276 L51.2786897,33.7868276 C51.2793103,32.697931 50.532,32.8026207 49.8991034,33.5011034" id="path446" fill="#F47D30" mask="url(#mask-42)"></path>
                        </g>
                    </g>
                    <g id="g448">
                        <g id="path456-Clipped">
                            <mask id="mask-44" fill="white">
                                <use xlink:href="#path-43"></use>
                            </mask>
                            <g id="SVGID_43_"></g>
                            <path d="M7.88337931,35.2324138 L7.88337931,39.8331724 L9.10262069,41.5855862 C9.40758621,42.0242069 9.60393103,41.9182759 9.60393103,41.5396552 L9.60393103,35.124 C9.0542069,35.2721379 8.40786207,35.0917241 7.88337931,35.2324138" id="path456" fill="#F47D30" mask="url(#mask-44)"></path>
                        </g>
                    </g>
                    <g id="g458">
                        <g id="path466-Clipped">
                            <mask id="mask-46" fill="white">
                                <use xlink:href="#path-45"></use>
                            </mask>
                            <g id="SVGID_45_"></g>
                            <path d="M42.2368966,37.8455172 L42.2368966,35.8177241 C42.2368966,36.5002759 40.598069,37.052069 38.5804138,37.052069 C36.5602759,37.052069 34.9235172,36.5002759 34.9235172,35.8177241 L34.9235172,37.8455172 C34.9235172,38.528069 36.5604828,39.0798621 38.5804138,39.0798621 C40.598069,39.0798621 42.2368966,38.528069 42.2368966,37.8455172" id="path466" fill="#F47D30" mask="url(#mask-46)"></path>
                        </g>
                    </g>
                    <g id="g488">
                        <g id="path496-Clipped">
                            <mask id="mask-48" fill="white">
                                <use xlink:href="#path-47"></use>
                            </mask>
                            <g id="SVGID_51_"></g>
                            <path d="M9.60331034,35.1242069 L9.60331034,33.3829655 L7.88337931,31.8732414 L7.88337931,35.2324138 C8.40827586,35.0917241 9.05544828,35.2721379 9.60331034,35.1242069" id="path496" fill="#00539B" mask="url(#mask-48)"></path>
                        </g>
                    </g>
                    <g id="g498">
                        <g id="path506-Clipped">
                            <mask id="mask-50" fill="white">
                                <use xlink:href="#path-49"></use>
                            </mask>
                            <g id="SVGID_53_"></g>
                            <path d="M55.7929655,27.2046207 C53.352,28.0615862 50.3128966,29.0602759 47.9588276,29.868 C47.1653793,29.7397241 46.6210345,30.1843448 46.0595172,30.5555172 C45.2201379,30.9192414 44.1624828,30.7723448 43.3355172,31.1261379 C42.561931,31.7637931 41.4198621,32.0327586 40.4735172,31.6293103 C40.2182069,31.3390345 39.8830345,30.9868966 39.4818621,31.0787586 C38.8516552,31.1412414 38.7211034,32.2831034 37.9427586,31.6891034 C37.4604828,31.9406897 37.0408966,32.2944828 36.5077241,32.4215172 L35.7068276,32.6207586 L35.4068276,33.2633793 L35.1328966,33.8462069 L34.9485517,34.2386897 L34.6746207,34.8215172 L34.4902759,35.2137931 L34.2148966,35.7970345 L34.0317931,36.1878621 L33.7576552,36.7733793 L31.5531724,41.4662069 C31.4135172,41.7604138 31.1497241,41.9745517 30.8358621,42.0492414 L27.2805517,42.8962759 C27.2985517,42.9134483 27.3165517,42.9285517 27.3266897,42.9484138 L29.6786897,47.8332414 L29.6786897,43.3744138 C29.6786897,43.311931 29.7053793,43.2496552 29.7533793,43.2076552 C29.8007586,43.166069 29.8636552,43.1451724 29.9257241,43.1526207 L31.2016552,43.3044828 C31.3137931,43.3166897 31.3984138,43.4116552 31.3984138,43.5235862 L31.3984138,51.5857241 C31.3984138,51.704069 31.3063448,51.8011034 31.1877931,51.8089655 L29.7662069,51.8923448 C29.6784828,51.8983448 29.5961379,51.8501379 29.5557931,51.7713103 L26.7738621,46.346069 L26.7738621,51.5147586 C26.7738621,51.5782759 26.7457241,51.6393103 26.6971034,51.6815172 C26.6491034,51.7237241 26.5851724,51.7437931 26.5216552,51.7351034 L25.2461379,51.5606897 C25.1364828,51.5445517 25.0537241,51.4495862 25.0537241,51.3403448 L25.0537241,43.4265517 L23.5634483,43.7826207 L24.7446207,51.2596552 C24.7533103,51.3194483 24.7315862,51.3827586 24.6848276,51.4212414 C24.6362069,51.4622069 24.572069,51.4735862 24.5135172,51.4562069 L23.0836552,50.9904828 C23.0201379,50.9693793 22.9727586,50.9143448 22.9630345,50.8497931 L22.694069,49.1534483 L20.8226897,48.5445517 L20.4697241,49.9392414 C20.4573103,49.9866207 20.4262759,50.0277931 20.3832414,50.0526207 C20.3410345,50.0747586 20.289931,50.0797241 20.2425517,50.0650345 L18.8745517,49.6204138 C18.7855862,49.5918621 18.7344828,49.4993793 18.7574483,49.4071034 L19.9816552,44.6346207 L18.7953103,44.9188966 C18.6871034,44.9437241 18.5722759,44.9236552 18.4804138,44.8615862 C18.3875172,44.7993103 18.3248276,44.6995862 18.3084828,44.5901379 L17.58,39.8097931 C17.5636552,39.7053103 17.5905517,39.5956552 17.654069,39.5122759 C17.7175862,39.4262069 17.8146207,39.3693103 17.9205517,39.354 L29.8661379,37.7102069 C30.2178621,37.6615862 30.519931,37.4422759 30.6761379,37.1244828 L31.4348276,35.5876552 L31.7186897,35.0095862 L31.9104828,34.6210345 L32.1945517,34.041931 L32.3848966,33.6546207 L32.67,33.0767586 L32.7461379,32.9222069 C32.1904138,32.8874483 31.3733793,33.3057931 30.9602069,33.3993103 C30.3285517,33.5896552 29.3733103,33.2685517 29.1436552,34.1004828 C28.7741379,34.3742069 28.1658621,34.4528276 27.7317931,34.2424138 C27.218069,33.4526897 26.319931,34.1102069 25.725931,34.1203448 C24.7793793,34.2635172 24.0271034,33.4750345 23.1444828,33.926069 C22.0030345,34.6133793 20.6404138,33.3281379 19.6802069,34.4128966 C19.0682069,34.4602759 18.4932414,34.1702069 17.8351034,34.2148966 C16.8711724,34.2122069 16.0390345,34.5161379 15.1398621,34.6768966 C14.1246207,35.3455862 12.7297241,35.022 11.5588966,34.935931 C10.9708966,35.1738621 10.2411724,35.1078621 9.60351724,35.124 L9.60351724,41.5394483 C9.60351724,41.9195172 9.40737931,42.024 9.1022069,41.5843448 L7.88296552,39.8333793 L7.88296552,35.234069 C7.48489655,35.0273793 7.14993103,35.5353103 6.78124138,35.6933793 C6.41255172,35.8690345 6.08875862,35.5653103 5.93193103,35.2626207 C5.93193103,35.1008276 5.8197931,34.9574483 5.65924138,34.8726207 C5.46724138,34.844069 5.13351724,34.9537241 4.84282759,35.0673103 C4.72013793,34.6187586 4.61172414,34.167931 4.51758621,33.7121379 C4.76255172,33.5588276 5.06068966,33.3506897 4.97524138,33.0742759 C4.812,32.738069 4.36924138,32.7705517 4.25482759,32.3668966 C4.30344828,31.9644828 4.42055172,31.4375172 4.89868966,31.3429655 C5.25310345,31.008 5.20758621,30.3341379 5.09731034,29.8684138 C4.77724138,29.4506897 4.34503448,29.1117931 4.51986207,28.5196552 C4.51986207,28.3613793 4.35786207,28.1677241 4.52234483,28.0226897 C4.90841379,27.8644138 5.29262069,28.2302069 5.56551724,28.4890345 C5.82331034,28.5426207 5.88931034,28.2492414 5.99648276,28.1054483 C6.09372414,27.9 5.93296552,27.6577241 5.72606897,27.6078621 C5.55041379,27.6537931 5.38551724,27.5261379 5.37910345,27.3655862 C5.44282759,27.0951724 5.53365517,26.8375862 5.84193103,26.7622759 C6.17503448,26.6462069 6.50006897,26.7753103 6.77048276,26.9532414 C7.08931034,27.2414483 7.05641379,27.7073793 7.37896552,27.9496552 C7.79503448,27.5652414 7.47848276,26.7775862 7.9617931,26.4103448 C8.65055172,26.1070345 9.32131034,25.5937241 10.1582069,25.724069 C10.3837241,26.1606207 10.2322759,26.964 10.9541379,26.9956552 C11.1515172,26.8206207 11.1670345,26.3691724 11.5371724,26.547931 C11.8609655,26.6793103 11.8390345,27.2393793 12.2244828,27.1601379 C12.612,26.4397241 11.8752414,25.8442759 11.9704138,25.1555172 C12.4874483,24.8174483 13.1728966,25.1095862 13.5403448,25.5111724 C13.7046207,25.8467586 13.0595172,26.037931 13.506,26.3143448 C14.1486207,26.0733103 14.4370345,26.8144138 15.0043448,26.6693793 C15.3695172,25.998 16.1553103,25.9177241 16.8103448,26.0964828 C17.7763448,26.084069 18.3362069,27.5302759 19.3437931,26.9563448 C19.8943448,26.5878621 20.9623448,27.1003448 21.1293103,26.2216552 C21.063931,25.8374483 21.3372414,25.4817931 21.6635172,25.3773103 C22.2053793,25.2117931 22.716,26.3362759 23.169931,25.488 C24.0126207,25.8275172 25.0090345,25.8132414 25.9373793,25.9624138 C27.366,26.7190345 29.2454483,26.6133103 30.8575862,26.6623448 C32.2601379,27.4071724 34.2527586,26.3447586 35.8572414,26.600069 L36.608069,25.0748276 L30.3206897,11.5326207 L30.3206897,24.1245517 C30.3206897,24.3448966 30.1421379,24.5236552 29.9215862,24.5236552 L23.8073793,24.5236552 C23.6666897,24.5236552 23.5363448,24.4495862 23.4655862,24.33 L19.4515862,17.6354483 L19.4515862,24.1243448 C19.4515862,24.3448966 19.2728276,24.5236552 19.0524828,24.5236552 L13.6028276,24.5236552 C13.3806207,24.5236552 13.2018621,24.3448966 13.2018621,24.1243448 L13.2018621,9.60517241 C7.47558621,14.1842069 3.82965517,21.0761379 3.82965517,28.7882069 C3.82965517,42.572069 15.4735862,53.7467586 29.8411034,53.7467586 C44.2053103,53.7467586 55.8504828,42.572069 55.8504828,28.7882069 C55.850069,28.2564828 55.8277241,27.7288966 55.7929655,27.2046207 L55.7929655,27.2046207 Z M14.6393793,40.5968276 C14.6393793,40.8955862 14.4513103,41.145931 14.0677241,40.8 L13.1623448,39.9864828 C12.9713793,39.8122759 12.9190345,39.6587586 12.9190345,39.4572414 L12.9190345,39.1096552 C12.9190345,38.9004828 12.8362759,38.7273103 12.7121379,38.6102069 L12.230069,38.1765517 C11.9331724,37.9098621 11.8665517,38.28 11.8665517,38.28 L11.8665517,38.534069 C11.8665517,38.8241379 12.0364138,39.0496552 12.0364138,39.0496552 L13.9288966,41.5108966 C14.3124828,42.0113793 14.6395862,42.7514483 14.6395862,43.4836552 L14.6395862,44.9606897 C14.6395862,46.2473793 14.0983448,46.790069 13.4737241,46.2337241 L10.9024138,43.9158621 C10.3766897,43.4424828 10.1470345,42.7390345 10.1470345,42.3889655 L10.1470345,41.0497241 C10.1470345,40.6115172 10.2331034,40.4757931 10.4037931,40.6390345 L11.5257931,41.6650345 C11.6971034,41.8032414 11.8663448,42.0883448 11.8663448,42.248069 L11.8663448,42.5443448 C11.8663448,42.7833103 11.85,43.0586897 12.0231724,43.1906897 L12.5089655,43.6055172 C12.6875172,43.7673103 12.9186207,43.7925517 12.9186207,43.5283448 L12.9186207,43.2043448 C12.9186207,43.0053103 12.8712414,42.8410345 12.7435862,42.6763448 L10.4966897,39.7396552 C10.2962069,39.4804138 10.1466207,39.2188966 10.1466207,38.7742759 L10.1466207,36.4636552 C10.1466207,35.9071034 10.8167586,35.1484138 11.7782069,36.0144828 L14.2624138,38.2497931 C14.4169655,38.3894483 14.6391724,38.6958621 14.6391724,39.2066897 L14.6391724,40.5968276 L14.6393793,40.5968276 Z M18.5671034,49.1323448 C18.5671034,49.2132414 18.5253103,49.2852414 18.4549655,49.3251724 C18.3864828,49.3651034 18.3006207,49.3651034 18.2321379,49.3228966 L15.4857931,47.6952414 C15.4185517,47.6538621 15.3773793,47.5814483 15.3773793,47.5042759 L15.3773793,39.4698621 C15.3773793,39.3887586 15.4197931,39.3165517 15.4888966,39.2766207 C15.5586207,39.237931 15.6426207,39.237931 15.7129655,39.2788966 L16.9884828,40.0348966 C17.0563448,40.076069 17.0968966,40.148069 17.0968966,40.2254483 L17.0968966,47.0168276 L18.4586897,47.8255862 C18.5265517,47.8642759 18.5668966,47.9377241 18.5668966,48.0161379 L18.5671034,49.1323448 L18.5671034,49.1323448 L18.5671034,49.1323448 Z M37.838069,49.4896552 C37.838069,49.71 37.838069,50.7451034 36.1181379,51.0515172 L32.631931,51.6757241 C32.5682069,51.6854483 32.5024138,51.6693103 32.4511034,51.6271034 C32.4012414,51.5832414 32.3726897,51.5211724 32.3726897,51.4564138 L32.3726897,43.4354483 C32.3726897,43.3282759 32.4463448,43.2374483 32.5510345,43.2173793 L36.1181379,42.5073103 C37.838069,42.1648966 37.838069,43.1950345 37.838069,43.1950345 L37.838069,49.4896552 L37.838069,49.4896552 Z M34.9233103,37.8469655 L34.9233103,35.8189655 C34.9233103,35.1364138 36.5602759,34.5821379 38.5802069,34.5821379 C40.5978621,34.5821379 42.2356552,35.1364138 42.2356552,35.8189655 L42.2356552,37.8469655 C42.2356552,38.5293103 40.5978621,39.0808966 38.5802069,39.0808966 C36.5602759,39.0808966 34.9233103,38.5291034 34.9233103,37.8469655 L34.9233103,37.8469655 Z M42.344069,41.4411724 C42.344069,41.5084138 42.3041379,41.5704828 42.2433103,41.6006897 L40.5906207,42.4102759 C40.5297931,42.4388276 40.4935862,42.4998621 40.4935862,42.5695862 L40.4935862,44.2009655 C40.4935862,44.2634483 40.5233793,44.3207586 40.5755172,44.3530345 C40.6278621,44.3855172 40.6926207,44.3892414 40.7472414,44.3604828 L42.0875172,43.7052414 C42.1425517,43.6781379 42.2071034,43.6804138 42.2596552,43.7143448 C42.3115862,43.7476552 42.3442759,43.803931 42.3442759,43.8649655 L42.3442759,45.0130345 C42.3442759,45.0827586 42.3043448,45.1466897 42.2383448,45.1752414 L40.5970345,45.9146897 C40.5333103,45.9424138 40.4935862,46.005931 40.4935862,46.0766897 L40.4935862,47.6064828 C40.4935862,47.6633793 40.5233793,47.7208966 40.5728276,47.7533793 C40.6241379,47.7856552 40.6876552,47.792069 40.7424828,47.7657931 L42.0926897,47.157931 C42.1473103,47.1331034 42.2122759,47.138069 42.261931,47.172 C42.3117931,47.2055172 42.344069,47.2601379 42.344069,47.3209655 L42.344069,48.4607586 C42.344069,48.531931 42.3041379,48.5952414 42.2383448,48.6227586 L39.0235862,50.0697931 C38.9687586,50.0958621 38.9042069,50.0913103 38.8541379,50.0598621 C38.8017931,50.0263448 38.772,49.9704828 38.772,49.9082069 L38.772,41.8301379 C38.772,41.7628966 38.8092414,41.7016552 38.8715172,41.6704138 L42.0873103,40.0975862 C42.141931,40.0711034 42.2068966,40.0737931 42.2590345,40.1062759 C42.3113793,40.1385517 42.3436552,40.1958621 42.3436552,40.2571034 L42.3436552,41.4415862 L42.344069,41.4415862 L42.344069,41.4411724 Z M47.5928276,44.9408276 L46.5937241,45.6196552 C46.5142759,45.6734483 46.4093793,45.6558621 46.352069,45.5801379 L44.8549655,43.6231034 L44.5737931,43.8190345 L44.5737931,46.8978621 C44.5737931,46.9566207 44.5435862,47.0112414 44.4964138,47.0462069 L43.130069,47.9716552 C43.0764828,48.0088966 43.0042759,48.0126207 42.9469655,47.9828276 C42.8896552,47.9505517 42.8522069,47.8905517 42.8522069,47.8257931 L42.8522069,39.836069 C42.8522069,39.7777241 42.8807586,39.7243448 42.9293793,39.6904138 L45.6122069,37.8397241 C46.4304828,37.2753103 47.1492414,37.38 47.1492414,38.5009655 L47.1492414,40.6181379 C47.1492414,41.9844828 46.1428966,42.7342759 46.1428966,42.7342759 L47.6325517,44.6869655 C47.6623448,44.7256552 47.6747586,44.774069 47.6671034,44.823931 C47.6598621,44.8713103 47.6325517,44.9137241 47.5928276,44.9408276 L47.5928276,44.9408276 Z M51.278069,34.8364138 C51.278069,35.0215862 51.2606897,35.2934483 51.09,35.4701379 L50.0875862,36.5062759 C49.9715172,36.6258621 49.8993103,36.5486897 49.8993103,36.4204138 L49.8993103,35.7912414 C49.8993103,35.480069 49.779931,35.480069 49.6104828,35.6517931 L49.4497241,35.8162759 C49.2169655,36.0587586 49.2169655,36.4065517 49.2169655,36.5385517 L49.2169655,36.9771724 C49.2169655,37.2508966 49.2928966,37.4491034 49.5804828,37.4989655 L50.3776552,37.6384138 C50.7564828,37.7042069 51.2784828,37.9562069 51.2784828,38.5675862 C51.2784828,39.0804828 51.2784828,39.9686897 50.6068966,40.857931 L48.9691034,43.0214483 C48.2892414,43.9144138 47.6228276,43.664069 47.6228276,42.3751034 L47.6228276,41.6575862 C47.6228276,41.4287586 47.6828276,41.2891034 47.8121379,41.1695172 L48.9057931,40.0458621 C49.0926207,39.8565517 49.2167586,39.8565517 49.2167586,40.1532414 L49.2167586,40.5095172 C49.2167586,40.9253793 49.5405517,40.5916552 49.6802069,40.4522069 C49.8231724,40.3127586 49.8995172,40.2306207 49.8995172,39.8944138 L49.8995172,39.6877241 C49.8995172,39.4657241 49.7288276,39.3815172 49.4238621,39.314069 L48.4771034,39.099931 C47.7370345,38.9453793 47.6228276,38.436 47.6228276,37.8655862 L47.6228276,37.0535172 C47.6228276,36.4404828 47.7248276,35.9112414 48.1682069,35.4130345 L49.8995172,33.5011034 C50.532,32.8024138 51.2784828,32.6981379 51.2784828,33.7864138 L51.2784828,34.8364138 L51.278069,34.8364138 L51.278069,34.8364138 Z" id="path506" fill="#00539B" mask="url(#mask-50)"></path>
                        </g>
                    </g>
                    <g id="g508">
                        <g id="polygon516-Clipped">
                            <mask id="mask-52" fill="white">
                                <use xlink:href="#path-51"></use>
                            </mask>
                            <g id="SVGID_55_"></g>
                            <polygon id="polygon516" fill="#00539B" mask="url(#mask-52)" points="22.4205517 47.4372414 21.9132414 44.2386207 21.2025517 47.0395862"></polygon>
                        </g>
                    </g>
                    <g id="g518">
                        <g id="path526-Clipped">
                            <mask id="mask-54" fill="white">
                                <use xlink:href="#path-53"></use>
                            </mask>
                            <g id="SVGID_57_"></g>
                            <path d="M24.3225517,6.00331034 C24.3225517,5.78275862 24.5013103,5.60275862 24.7231034,5.60275862 L34.3208276,5.60275862 C34.4778621,5.60275862 34.6197931,5.69296552 34.6845517,5.83510345 L40.2144828,17.7494483 L44.8226897,8.39213793 C40.5881379,5.52144828 35.4206897,3.82862069 29.8408966,3.82862069 C26.3952414,3.82862069 23.1070345,4.47806897 20.0973103,5.64641379 L24.3227586,13.8062069 L24.3225517,6.00331034 L24.3225517,6.00331034 L24.3225517,6.00331034 Z" id="path526" fill="#00539B" mask="url(#mask-54)"></path>
                        </g>
                    </g>
                    <g id="g528">
                        <g id="path536-Clipped">
                            <mask id="mask-56" fill="white">
                                <use xlink:href="#path-55"></use>
                            </mask>
                            <g id="SVGID_59_"></g>
                            <path d="M42.5832414,23.5030345 C43.6855862,23.1672414 44.6968966,22.5744828 45.6173793,21.7456552 C46.4391724,21.4754483 47.3946207,21.3184138 48.2776552,21.446069 L48.3597931,21.561931 C48.2973103,21.8968966 47.8764828,22.1534483 47.5876552,22.3284828 C46.9624138,22.3408966 46.2076552,22.2324828 45.7245517,22.7095862 C45.0494483,23.4138621 44.199931,23.892 43.5697241,24.5791034 C43.6193793,24.8025517 43.8736552,24.9813103 43.7304828,25.2335172 C43.2486207,25.5742759 42.4789655,25.3162759 42.2222069,26.004 C42.0105517,27.3217241 40.3586897,26.3011034 39.7135862,27.1528966 C39.3997241,27.5664828 38.4631034,28.0690345 37.7582069,28.2550345 L37.0806207,29.696069 C37.8676552,29.973931 38.9536552,30.3922759 39.6761379,30.2791034 C41.360069,29.7397241 42.0103448,27.1746207 43.9806207,27.327931 C45.0889655,27.5215862 46.0657241,27.1864138 46.8378621,26.4490345 C47.5926207,26.162069 47.6526207,27.380069 48.3475862,27.2511724 C48.4073793,26.8071724 48.4471034,26.2578621 48.9564828,26.0702069 C49.1966897,25.9744138 49.5854483,26.0073103 49.6175172,26.3261379 C49.0843448,27.0802759 50.2404828,27.3235862 50.076,28.0311724 C50.1695172,28.3351034 50.5218621,28.3351034 50.7649655,28.2585517 C51.1686207,27.4895172 52.0017931,27.4228966 52.7689655,27.3798621 C53.367931,26.5009655 54.7891034,27.3213103 55.118069,26.0863448 L55.6735862,25.8988966 C54.8890345,19.3806207 51.4924138,13.6270345 46.5082759,9.63041379 L39.1535172,25.2856552 C40.2691034,24.9024828 41.832,24.4570345 42.5832414,23.5030345" id="path536" fill="#00539B" mask="url(#mask-56)"></path>
                        </g>
                    </g>
                    <g id="g538">
                        <g id="path546-Clipped">
                            <mask id="mask-58" fill="white">
                                <use xlink:href="#path-57"></use>
                            </mask>
                            <g id="SVGID_61_"></g>
                            <path d="M45.2087586,39.8395862 L44.6495172,40.2256552 C44.6006897,40.2581379 44.5733793,40.3127586 44.5733793,40.3727586 L44.5733793,41.7912414 C44.5733793,41.8574483 44.6108276,41.9170345 44.6681379,41.948069 C44.7254483,41.9791034 44.7974483,41.9743448 44.8512414,41.9366897 L45.2373103,41.6702069 C45.444,41.5270345 45.6111724,41.1906207 45.6111724,40.9003448 L45.6111724,40.0733793 C45.6111724,39.8346207 45.4330345,39.6852414 45.2087586,39.8395862" id="path546" fill="#00539B" mask="url(#mask-58)"></path>
                        </g>
                    </g>
                    <g id="g548">
                        <g id="path556-Clipped">
                            <mask id="mask-60" fill="white">
                                <use xlink:href="#path-59"></use>
                            </mask>
                            <g id="SVGID_63_"></g>
                            <path d="M35.3706207,44.292 L34.0928276,44.5473103 L34.0928276,49.9429655 L35.4492414,49.6986207 C36.117931,49.5792414 36.117931,48.8230345 36.117931,48.8230345 L36.117931,44.8375862 C36.1181379,44.8373793 36.1181379,44.1426207 35.3706207,44.292" id="path556" fill="#00539B" mask="url(#mask-60)"></path>
                        </g>
                    </g>
                </g>
            </g>
        </g>
    </g>
</svg>