<?xml version="1.0" encoding="UTF-8" standalone="no"?>
<svg width="31px" height="29px" viewBox="0 0 31 29" version="1.1" xmlns="http://www.w3.org/2000/svg" xmlns:xlink="http://www.w3.org/1999/xlink">
    <!-- Generator: Sketch 40.3 (33839) - http://www.bohemiancoding.com/sketch -->
    <title>islanders</title>
    <desc>Created with Sketch.</desc>
    <defs>
        <rect id="path-1" x="0" y="0" width="30.3298802" height="28.7874817"></rect>
        <rect id="path-3" x="0" y="0" width="30.3298802" height="28.7874817"></rect>
        <rect id="path-5" x="0" y="0" width="30.3298802" height="28.7874817"></rect>
        <rect id="path-7" x="0" y="0" width="30.3298802" height="28.7874817"></rect>
        <rect id="path-9" x="0" y="0" width="30.3298802" height="28.7874817"></rect>
        <rect id="path-11" x="0" y="0" width="30.3298802" height="28.7874817"></rect>
        <rect id="path-13" x="0" y="0" width="30.3298802" height="28.7874817"></rect>
        <rect id="path-15" x="0" y="0" width="30.3298802" height="28.7874817"></rect>
        <rect id="path-17" x="0" y="0" width="30.3298802" height="28.7874817"></rect>
        <rect id="path-19" x="0" y="0" width="30.3298802" height="28.7874817"></rect>
        <rect id="path-21" x="0" y="0" width="30.3298802" height="28.7874817"></rect>
        <rect id="path-23" x="0" y="0" width="30.3298802" height="28.7874817"></rect>
        <rect id="path-25" x="0" y="0" width="30.3298802" height="28.7874817"></rect>
        <rect id="path-27" x="0" y="0" width="30.3298802" height="28.7874817"></rect>
        <rect id="path-29" x="0" y="0" width="30.3298802" height="28.7874817"></rect>
        <rect id="path-31" x="0" y="0" width="30.3298802" height="28.7874817"></rect>
        <rect id="path-33" x="0" y="0" width="30.3298802" height="28.7874817"></rect>
        <rect id="path-35" x="0" y="0" width="30.3298802" height="28.7874817"></rect>
        <rect id="path-37" x="0" y="0" width="30.3298802" height="28.7874817"></rect>
        <rect id="path-39" x="0" y="0" width="30.3298802" height="28.7874817"></rect>
        <rect id="path-41" x="0" y="0" width="30.3298802" height="28.7874817"></rect>
        <rect id="path-43" x="0" y="0" width="30.3298802" height="28.7874817"></rect>
        <rect id="path-45" x="0" y="0" width="30.3298802" height="28.7874817"></rect>
        <rect id="path-47" x="0" y="0" width="30.3298802" height="28.7874817"></rect>
        <rect id="path-49" x="0" y="0" width="30.3298802" height="28.7874817"></rect>
        <rect id="path-51" x="0" y="0" width="30.3298802" height="28.7874817"></rect>
        <rect id="path-53" x="0" y="0" width="30.3298802" height="28.7874817"></rect>
        <rect id="path-55" x="0" y="0" width="30.3298802" height="28.7874817"></rect>
        <rect id="path-57" x="0" y="0" width="30.3298802" height="28.7874817"></rect>
        <rect id="path-59" x="0" y="0" width="30.3298802" height="28.7874817"></rect>
    </defs>
    <g id="Page-1" stroke="none" stroke-width="1" fill="none" fill-rule="evenodd">
        <g id="islanders">
            <g id="Page-1">
                <g id="Artboard">
                    <g id="islanders" transform="translate(0.000000, 0.017242)">
                        <g id="g236" transform="translate(0.077386, 0.077068)">
                            <g id="g238">
                                <g id="path246-Clipped">
                                    <g>
                                        <mask id="mask-2" fill="white">
                                            <use xlink:href="#path-1"></use>
                                        </mask>
                                        <g id="path-1"></g>
                                        <path d="M15.1646252,0.000310344827 C6.78936799,0.000310344827 0,6.44472415 0,14.3941034 C0,22.3433793 6.78936799,28.7882069 15.1646252,28.7882069 C23.540303,28.7882069 30.3298813,22.3433793 30.3298813,14.3941034 C30.3298813,6.44472415 23.5401979,0.000310344827 15.1646252,0.000310344827 M15.1646252,27.7277586 C7.38500961,27.7277586 1.07919955,21.7579655 1.07919955,14.3941034 C1.07919955,7.0302414 7.38500961,1.06044827 15.1646252,1.06044827 C22.9439254,1.06044827 29.2500509,7.03013795 29.2500509,14.3941034 C29.2499457,21.7581724 22.9439254,27.7277586 15.1646252,27.7277586" id="path246" fill="#FFFFFF" mask="url(#mask-2)"></path>
                                    </g>
                                </g>
                            </g>
                            <g id="g248">
                                <g id="path256-Clipped">
                                    <g>
                                        <mask id="mask-4" fill="white">
                                            <use xlink:href="#path-3"></use>
                                        </mask>
                                        <g id="path-3"></g>
                                        <path d="M15.589723,18.562138 C15.5108649,18.7210345 15.3565133,18.8305862 15.1776631,18.855 L9.10727076,19.6768965 C9.05354212,19.6844483 9.00412436,19.713 8.97173998,19.7560345 C8.93914526,19.7977242 8.9255817,19.8526552 8.93409836,19.9047931 L9.30410064,22.2949655 C9.31272245,22.3496896 9.34426566,22.3995517 9.39179085,22.4306896 C9.43900054,22.4617241 9.49693497,22.4717586 9.55255624,22.4593449 L10.1546117,22.3172069 L10.5137841,20.9397931 C10.5260859,20.8924138 10.5739265,20.8637586 10.6226082,20.8750345 L11.8021153,21.1595173 C11.8378643,21.167069 11.8644658,21.1964483 11.8696178,21.2313104 L11.9752878,21.8912069 L12.7328513,21.7131724 L12.7328513,21.4142069 C12.7328513,21.3824483 12.7465201,21.3519311 12.7704929,21.3308276 C12.7945709,21.3095172 12.826745,21.2995862 12.8584986,21.3033104 L13.799013,21.4128621 C13.8256145,21.4153449 13.8465382,21.4296207 13.864623,21.4477241 L15.6707892,21.0242069 C15.8315546,20.986862 15.9643516,20.8796896 16.0353239,20.7326897 L17.1556348,18.3861724 L15.9745506,17.7935173 L15.589723,18.562138 L15.589723,18.562138 L15.589723,18.562138 Z" id="path256" fill="#FFFFFF" mask="url(#mask-4)"></path>
                                    </g>
                                </g>
                            </g>
                            <g id="g258">
                                <g id="polygon266-Clipped">
                                    <g>
                                        <mask id="mask-6" fill="white">
                                            <use xlink:href="#path-5"></use>
                                        </mask>
                                        <g id="path-5"></g>
                                        <polygon id="polygon266" fill="#FFFFFF" mask="url(#mask-6)" points="16.2161719 17.3104138 16.1194393 17.5046896 17.2948457 18.0945517 17.3885291 17.8984138"></polygon>
                                    </g>
                                </g>
                            </g>
                            <g id="g268">
                                <g id="polygon276-Clipped">
                                    <g>
                                        <mask id="mask-8" fill="white">
                                            <use xlink:href="#path-7"></use>
                                        </mask>
                                        <g id="path-7"></g>
                                        <polygon id="polygon276" fill="#FFFFFF" mask="url(#mask-8)" points="16.6415851 16.4603793 16.6023663 16.5382759 17.7606342 17.1186207 17.8544229 16.9232069 16.6998349 16.3438966"></polygon>
                                    </g>
                                </g>
                            </g>
                            <g id="g278">
                                <g id="polygon286-Clipped">
                                    <g>
                                        <mask id="mask-10" fill="white">
                                            <use xlink:href="#path-9"></use>
                                        </mask>
                                        <g id="path-9"></g>
                                        <polygon id="polygon286" fill="#FFFFFF" mask="url(#mask-10)" points="16.4578983 16.8272069 16.3612708 17.0214828 17.52774 17.6068965 17.6214234 17.4107586"></polygon>
                                    </g>
                                </g>
                            </g>
                            <g id="g288">
                                <g id="path296-Clipped">
                                    <g>
                                        <mask id="mask-12" fill="white">
                                            <use xlink:href="#path-11"></use>
                                        </mask>
                                        <g id="path-11"></g>
                                        <path d="M20.4367632,8.87472415 L17.6264703,2.91724138 C17.5935602,2.84648276 17.5214313,2.80137931 17.4423629,2.80137931 L12.564095,2.80137931 C12.4514856,2.80137931 12.3605359,2.89106897 12.3605359,3.00165517 L12.3605359,6.9027931 L10.213177,2.82279311 C8.93367778,3.31137931 7.75353984,3.98182759 6.70945847,4.80289655 L6.70945847,12.0618621 C6.70945847,12.1720345 6.79998757,12.2621379 6.91228151,12.2621379 L9.68240929,12.2621379 C9.79386207,12.2621379 9.88523233,12.1721379 9.88523233,12.0618621 L9.88523233,8.817 L11.9249237,12.165 C11.9619344,12.2251035 12.0280701,12.2621379 12.0993578,12.2621379 L15.2058417,12.2621379 C15.3179254,12.2621379 15.4094008,12.1721379 15.4094008,12.0618621 L15.4094008,5.7666207 L18.6047315,12.5374138 L18.2225325,13.3002414 L16.8439876,16.0543448 L17.9934234,16.6311724 L18.1466184,16.3104827 L18.8441447,14.8481379 L19.1883867,14.1280345 L19.8972685,12.6433449 L23.6350379,4.81510345 C23.3591396,4.59775862 23.0736733,4.3922069 22.7787439,4.19668966 L20.4367632,8.87472415 L20.4367632,8.87472415 L20.4367632,8.87472415 Z" id="path296" fill="#FFFFFF" mask="url(#mask-12)"></path>
                                    </g>
                                </g>
                            </g>
                            <g id="g298">
                                <g id="path306-Clipped">
                                    <g>
                                        <mask id="mask-14" fill="white">
                                            <use xlink:href="#path-13"></use>
                                        </mask>
                                        <g id="path-13"></g>
                                        <path d="M19.6064398,17.2910689 C18.5798123,17.2910689 17.7480169,17.5682069 17.7480169,17.9094827 C17.7480169,18.2495173 18.5799175,18.5260345 19.6064398,18.5260345 C20.6318056,18.5260345 21.4646524,18.2495173 21.4646524,17.9094827 C21.4646524,17.5682069 20.6318056,17.2910689 19.6064398,17.2910689" id="path306" fill="#FFFFFF" mask="url(#mask-14)"></path>
                                    </g>
                                </g>
                            </g>
                            <g id="g308">
                                <g id="polygon316-Clipped">
                                    <g>
                                        <mask id="mask-16" fill="white">
                                            <use xlink:href="#path-15"></use>
                                        </mask>
                                        <g id="path-15"></g>
                                        <polygon id="polygon316" fill="#F47D30" mask="url(#mask-16)" points="17.1556348 18.3865862 17.2948457 18.0945517 16.1194393 17.5046896 15.9744454 17.7937241"></polygon>
                                    </g>
                                </g>
                            </g>
                            <g id="g318">
                                <g id="path326-Clipped">
                                    <g>
                                        <mask id="mask-18" fill="white">
                                            <use xlink:href="#path-17"></use>
                                        </mask>
                                        <g id="path-17"></g>
                                        <path d="M10.0016269,17.2069655 C10.4896009,16.6639655 11.1817648,17.3065862 11.7618451,16.9629311 C12.2103901,16.7374138 12.5929045,17.1322759 13.0737286,17.060069 C13.3760181,17.0551035 13.8323437,16.7263449 14.0934166,17.1211035 C14.3136936,17.2263104 14.6235534,17.1872069 14.8109203,17.0502414 C14.9276303,16.6341724 15.413186,16.7954483 15.7339808,16.6995517 C15.9453205,16.6528966 16.3593782,16.4437242 16.6416902,16.4604828 L16.6999401,16.344 L17.8544229,16.9232069 L17.9935286,16.6317931 L16.8448287,16.0543449 L18.2233737,13.3000345 C17.4074551,13.1726897 16.3948117,13.7038966 15.6826704,13.3314828 C14.8626512,13.3065517 13.9078372,13.3595173 13.181186,12.9812069 C12.709299,12.9068276 12.2038711,12.9136552 11.7746727,12.7442069 C11.5446173,13.1683449 11.285437,12.6057931 11.0095387,12.6879311 C10.8433058,12.7401724 10.704831,12.9189311 10.7382668,13.1107242 C10.6534155,13.5501724 10.1103459,13.2932069 9.83087281,13.478069 C9.31818994,13.7643104 9.03366985,13.0418276 8.54380328,13.0484483 C8.20986549,12.959069 7.81147427,12.9992069 7.626,13.3345862 C7.33769477,13.4064828 7.19049294,13.0369655 6.86391521,13.1574828 C6.63690897,13.0188621 6.96474845,12.9232759 6.88136912,12.7557931 C6.6946331,12.5546897 6.34660601,12.4086207 6.08353534,12.5776552 C6.03537933,12.9220345 6.41011307,13.2190345 6.21233693,13.5801724 C6.01676881,13.6197931 6.02780892,13.3398621 5.86304804,13.2741724 C5.67494517,13.1848966 5.66737477,13.4106207 5.56675182,13.4977242 C5.20063989,13.4812759 5.27718483,13.0795862 5.16257773,12.8622414 C4.73726964,12.7971724 4.39702318,13.0534138 4.04636744,13.205069 C3.80075071,13.3887931 3.96151611,13.7824138 3.75007122,13.9748276 C3.5861515,13.8535862 3.60297456,13.6210345 3.44094743,13.4764138 C3.30352403,13.3876552 3.13897343,13.3232069 2.96906049,13.3814483 C2.81208027,13.4187931 2.76676314,13.547069 2.73385302,13.6822759 C2.73774336,13.7631724 2.8204918,13.827 2.91017976,13.8039311 C3.01584963,13.8282414 3.09691577,13.95 3.04760316,14.0521035 C2.99303335,14.1250345 2.95928208,14.2716207 2.82911362,14.2449311 C2.68958734,14.1146897 2.49465009,13.9322069 2.29813567,14.0113449 C2.21517694,14.0833449 2.2975048,14.1804828 2.2975048,14.2602414 C2.20823742,14.5558966 2.42861956,14.7257586 2.59117241,14.9349311 C2.64626795,15.1660345 2.66971509,15.5034828 2.48970831,15.6715862 C2.24714076,15.7188621 2.18678801,15.9823449 2.16271,16.1835517 C2.22064443,16.3853793 2.44596834,16.3696552 2.52829621,16.5372414 C2.5725619,16.6748276 2.41999774,16.7787931 2.29561221,16.8561724 C2.34376823,17.084069 2.39949463,17.3094828 2.46079367,17.5337586 C2.60925721,17.4763449 2.77853929,17.4215173 2.87569248,17.437138 C2.95738949,17.4775862 3.01532391,17.5505173 3.01532391,17.6314138 C3.09407688,17.7827586 3.25904805,17.9346207 3.44609949,17.8475173 C3.63346637,17.7677586 3.80401017,17.5131724 4.00620237,17.617138 L4.00620237,15.9368276 L4.88058112,16.6916897 L4.88058112,17.5623104 C5.20526626,17.5547586 5.57526854,17.5872414 5.87461389,17.4683793 C6.46888861,17.5118276 7.17819108,17.6725862 7.69402828,17.3388621 C8.15098475,17.2582759 8.57345391,17.1065173 9.06405651,17.1076552 C9.39873038,17.085 9.69050537,17.2295173 10.0016269,17.2069655" id="path326" fill="#F47D30" mask="url(#mask-18)"></path>
                                    </g>
                                </g>
                            </g>
                            <g id="g328">
                                <g id="path336-Clipped">
                                    <g>
                                        <mask id="mask-20" fill="white">
                                            <use xlink:href="#path-19"></use>
                                        </mask>
                                        <g id="path-19"></g>
                                        <path d="M20.1824194,13.5764483 C20.5102589,13.1504483 21.3495195,13.6605517 21.457082,13.002 C21.5875658,12.6589655 21.9787021,12.7868276 22.2230571,12.6174828 C22.2970786,12.4903448 22.1673307,12.402 22.1419909,12.2896551 C22.46226,11.9457931 22.8940871,11.7073449 23.2370673,11.3555173 C23.482684,11.1163449 23.8661447,11.1705517 24.1838903,11.1646551 C24.3307767,11.0774483 24.544745,10.9485517 24.5757626,10.7810689 L24.5345461,10.7234483 C24.0856857,10.659 23.5996043,10.7380345 23.1824974,10.8725172 C22.7154471,11.287862 22.2002408,11.5837242 21.6406637,11.7515172 C21.2596213,12.2282069 20.4652572,12.4514483 19.8973737,12.6436552 L19.1884918,14.1279311 C19.5474539,14.0342069 20.0229158,13.7832414 20.1824194,13.5764483" id="path336" fill="#F47D30" mask="url(#mask-20)"></path>
                                    </g>
                                </g>
                            </g>
                            <g id="g338">
                                <g id="polygon346-Clipped">
                                    <g>
                                        <mask id="mask-22" fill="white">
                                            <use xlink:href="#path-21"></use>
                                        </mask>
                                        <g id="path-21"></g>
                                        <polygon id="polygon346" fill="#F47D30" mask="url(#mask-22)" points="17.6214234 17.4100345 17.7606342 17.1186207 16.6023663 16.5382759 16.4586342 16.8272069"></polygon>
                                    </g>
                                </g>
                            </g>
                            <g id="g348">
                                <g id="polygon356-Clipped">
                                    <g>
                                        <mask id="mask-24" fill="white">
                                            <use xlink:href="#path-23"></use>
                                        </mask>
                                        <g id="path-23"></g>
                                        <polygon id="polygon356" fill="#F47D30" mask="url(#mask-24)" points="16.3612708 17.0208621 16.2161719 17.3104138 17.3885291 17.8984138 17.52774 17.6068965"></polygon>
                                    </g>
                                </g>
                            </g>
                            <g id="g358">
                                <g id="path366-Clipped">
                                    <g>
                                        <mask id="mask-26" fill="white">
                                            <use xlink:href="#path-25"></use>
                                        </mask>
                                        <g id="path-25"></g>
                                        <path d="M15.1646252,1.06086207 C7.38500961,1.06086207 1.07919955,7.03013795 1.07919955,14.3945173 C1.07919955,21.7580689 7.38500961,27.7277586 15.1646252,27.7277586 C22.9439254,27.7277586 29.2500509,21.7579655 29.2500509,14.3945173 C29.250156,7.03013795 22.9439254,1.06086207 15.1646252,1.06086207 M15.1646252,26.8733793 C7.86352063,26.8733793 1.94611306,21.2866552 1.94611306,14.3945172 C1.94611306,10.5381724 3.79896326,7.0922069 6.70903789,4.803 C7.7534347,3.98162069 8.93420351,3.3117931 10.2137026,2.823 C11.7432346,2.23955173 13.4136597,1.91472414 15.1646252,1.91472414 C18.0013092,1.91472414 20.6260226,2.76113793 22.7787439,4.19648276 C23.0737784,4.3924138 23.3586139,4.59755172 23.6345122,4.8152069 C26.1682759,6.8142414 27.8943222,9.69031035 28.2925031,12.950069 L28.0107168,13.0431724 C27.8436427,13.6603448 27.1220384,13.2511035 26.8163844,13.6898276 C26.4276665,13.7113448 26.0037253,13.7445517 25.7992199,14.1297931 C25.6751498,14.1674483 25.4967202,14.1674483 25.4485642,14.0162069 C25.5321538,13.6624138 24.9447134,13.5403449 25.2156699,13.1635862 C25.1993725,13.0035517 25.0023324,12.9877242 24.8789983,13.0346897 C24.6207643,13.129138 24.6004714,13.4033793 24.5701899,13.626 C24.2162747,13.6898276 24.1866241,13.0813449 23.8029531,13.2249311 C23.4106602,13.5925862 22.9142747,13.7611035 22.3503867,13.6636552 C21.3495195,13.5877241 21.0192618,14.8698621 20.1635986,15.1396551 C19.7964353,15.1957242 19.2444285,14.9876897 18.8444602,14.8480345 L18.1464082,16.3102759 L18.5534211,16.2106552 C18.8236416,16.1472414 19.0376099,15.9702414 19.2820701,15.8445517 C19.6783584,16.1414483 19.7445992,15.5705172 20.0649735,15.5393793 C20.2686377,15.4933448 20.4389712,15.670138 20.5688242,15.8146552 C21.0498587,16.0163793 21.6303595,15.8818966 22.0234935,15.5629655 C22.4437546,15.3861724 22.9810413,15.4596207 23.4076111,15.2777586 C23.6930775,15.0920689 23.9697117,14.8697586 24.3729395,14.9338966 C25.5691645,14.5294138 27.1135218,14.0299655 28.3548536,13.6022069 C28.3725178,13.8643449 28.3832425,14.1278276 28.3832425,14.3943103 C28.382822,21.2866552 22.4655195,26.8733793 15.1646252,26.8733793" id="path366" fill="#F47D30" mask="url(#mask-26)"></path>
                                    </g>
                                </g>
                            </g>
                            <g id="g368">
                                <g id="path376-Clipped">
                                    <g>
                                        <mask id="mask-28" fill="white">
                                            <use xlink:href="#path-27"></use>
                                        </mask>
                                        <g id="path-27"></g>
                                        <path d="M7.24832222,19.1251035 L5.986277,18.0067242 C5.49756699,17.5744138 5.15668966,17.9542758 5.15668966,18.2315172 L5.15668966,19.3867241 C5.15668966,19.608931 5.23239344,19.7396896 5.334173,19.8705517 L6.47666931,21.3382758 C6.54080724,21.4198966 6.56562127,21.5020345 6.56562127,21.6022759 L6.56562127,21.7648965 C6.56562127,21.8957586 6.44817523,21.8837586 6.3571204,21.8028621 L6.1099265,21.5955517 C6.02192086,21.5288276 6.0308581,21.3912414 6.0308581,21.2722758 L6.0308581,21.124138 C6.0308581,21.0437586 5.94474503,20.9023448 5.85800114,20.8327242 L5.28675296,20.3195173 C5.20063989,20.2373793 5.15668966,20.3059655 5.15668966,20.525069 L5.15668966,21.1951035 C5.15668966,21.3695173 5.27382022,21.7219655 5.54025551,21.9585517 L6.84761785,23.1162414 C7.16504804,23.3945172 7.43947427,23.1245173 7.43947427,22.4804483 L7.43947427,21.7419311 C7.43947427,21.3757241 7.27334654,21.0057931 7.07893497,20.7555517 L6.11728661,19.5242069 C6.11728661,19.5242069 6.0308581,19.4115517 6.0308581,19.2677586 L6.0308581,19.14 C6.0308581,19.14 6.06471453,18.9545172 6.21496553,19.089 L6.45995136,19.3057241 C6.52356362,19.3636551 6.56562127,19.4507586 6.56562127,19.5547241 L6.56562127,19.7291379 C6.56562127,19.83 6.59222272,19.905931 6.68927076,19.993138 L7.1494867,20.4004138 C7.34410851,20.5723449 7.43936912,20.4477931 7.43936912,20.2976896 L7.43936912,19.6034483 C7.43936912,19.3480345 7.32707518,19.1947241 7.24832222,19.1251035" id="path376" fill="#F47D30" mask="url(#mask-28)"></path>
                                    </g>
                                </g>
                            </g>
                            <g id="g378">
                                <g id="path386-Clipped">
                                    <g>
                                        <mask id="mask-30" fill="white">
                                            <use xlink:href="#path-29"></use>
                                        </mask>
                                        <g id="path-29"></g>
                                        <path d="M9.38106612,23.9121724 L8.68890218,23.5085172 L8.68890218,20.1127241 C8.68890218,20.074138 8.6679785,20.0374138 8.63317582,20.0180689 L7.98506726,19.6394483 C7.94994914,19.6194827 7.90715547,19.6182414 7.87151156,19.6388276 C7.83660373,19.6581724 7.81515433,19.6948965 7.81515433,19.7341034 L7.81515433,23.7515172 C7.81515433,23.7907241 7.83513169,23.8273448 7.87024986,23.8467931 L9.26561785,24.6619655 C9.30073602,24.681931 9.34405542,24.6824483 9.37917354,24.6625862 C9.4146071,24.6426207 9.43616166,24.6058965 9.43616166,24.5666896 L9.43616166,24.0073448 C9.43616166,23.9682414 9.4146071,23.9326551 9.38106612,23.9121724" id="path386" fill="#F47D30" mask="url(#mask-30)"></path>
                                    </g>
                                </g>
                            </g>
                            <g id="g388">
                                <g id="path396-Clipped">
                                    <g>
                                        <mask id="mask-32" fill="white">
                                            <use xlink:href="#path-31"></use>
                                        </mask>
                                        <g id="path-31"></g>
                                        <path d="M11.9758134,21.8913104 L11.8695127,21.2312069 C11.8644658,21.1964483 11.8378643,21.1675862 11.8021153,21.1588966 L10.6225031,20.8750345 C10.5738214,20.8637586 10.5259808,20.8917931 10.5136789,20.9391724 L10.1544014,22.3173103 L9.53289431,24.7035517 C9.5204873,24.7489655 9.54645788,24.7958276 9.59272131,24.8107241 L10.2874087,25.0324138 C10.3114867,25.0392414 10.3374573,25.0373793 10.3593273,25.0262069 C10.3807767,25.0137931 10.396338,24.9938276 10.4030673,24.970138 L10.5824432,24.272069 L11.5331566,24.5765172 L11.67058,25.4246897 C11.6753115,25.457069 11.6993895,25.4843793 11.7316688,25.4945173 L12.4583199,25.7274828 C12.4880757,25.7374138 12.5208807,25.731 12.5449587,25.7110345 C12.5690367,25.689931 12.5800769,25.6602414 12.5756608,25.6302414 L11.9758134,21.8913104 L11.9758134,21.8913104 L11.9758134,21.8913104 Z M10.7753827,23.5197931 L11.1364477,22.1193103 L11.3943663,23.7186207 L10.7753827,23.5197931 L10.7753827,23.5197931 L10.7753827,23.5197931 Z" id="path396" fill="#F47D30" mask="url(#mask-32)"></path>
                                    </g>
                                </g>
                            </g>
                            <g id="g398">
                                <g id="path406-Clipped">
                                    <g>
                                        <mask id="mask-34" fill="white">
                                            <use xlink:href="#path-33"></use>
                                        </mask>
                                        <g id="path-33"></g>
                                        <path d="M15.856684,21.6522414 L15.2085755,21.5768276 C15.1762962,21.5731035 15.1449633,21.5835517 15.120675,21.6036207 C15.0959661,21.6248276 15.0824025,21.6553448 15.0824025,21.687 L15.0824025,23.9157931 L13.8877546,21.4746207 C13.8819717,21.464069 13.8728242,21.4566207 13.864623,21.4478276 C13.8469587,21.4303449 13.8256145,21.4154483 13.799013,21.4131724 L12.8591295,21.3040345 C12.8268502,21.2996897 12.7942555,21.3096207 12.7705981,21.3309311 C12.7465201,21.3520345 12.7329565,21.3825517 12.7329565,21.4143104 L12.7329565,21.7132759 L12.7329565,25.6696552 C12.7329565,25.7248966 12.7744884,25.773 12.8300045,25.7797241 L13.4788491,25.8669311 C13.5111283,25.8718966 13.5436178,25.861862 13.567801,25.8407586 C13.5921944,25.8202759 13.6063889,25.7897586 13.6063889,25.7573793 L13.6063889,23.1734483 L15.0206829,25.8855517 C15.0409757,25.9254828 15.0830333,25.949069 15.1270888,25.9467931 L15.8504805,25.9036551 C15.9100972,25.9006551 15.9567812,25.8513103 15.9567812,25.7935862 L15.9567812,21.7625173 C15.9567812,21.7058276 15.9136721,21.6583448 15.856684,21.6522414" id="path406" fill="#F47D30" mask="url(#mask-34)"></path>
                                    </g>
                                </g>
                            </g>
                            <g id="g408">
                                <g id="path416-Clipped">
                                    <g>
                                        <mask id="mask-36" fill="white">
                                            <use xlink:href="#path-35"></use>
                                        </mask>
                                        <g id="path-35"></g>
                                        <path d="M18.355645,21.2530345 L16.5422239,21.6085862 C16.489126,21.6192414 16.4510639,21.6646552 16.4510639,21.7182414 L16.4510639,25.7286207 C16.4510639,25.7611035 16.4669407,25.7915172 16.4922804,25.8134483 C16.5177253,25.8346552 16.551792,25.8433449 16.5835455,25.8371379 L18.355645,25.5262759 C19.2291826,25.3726551 19.2291826,24.8556207 19.2291826,24.7447242 L19.2291826,21.5975172 C19.2291826,21.5974138 19.2291826,21.0819311 18.355645,21.2530345 L18.355645,21.2530345 L18.355645,21.2530345 Z M18.355645,24.4116207 C18.355645,24.4116207 18.355645,24.7897242 18.0150831,24.8493104 L17.3251272,24.9714828 L17.3251272,22.2736552 L17.9751283,22.1452759 C18.3555398,22.0713104 18.3555398,22.4192069 18.3555398,22.4192069 L18.3555398,24.4116207 L18.355645,24.4116207 L18.355645,24.4116207 Z" id="path416" fill="#F47D30" mask="url(#mask-36)"></path>
                                    </g>
                                </g>
                            </g>
                            <g id="g418">
                                <g id="path426-Clipped">
                                    <g>
                                        <mask id="mask-38" fill="white">
                                            <use xlink:href="#path-37"></use>
                                        </mask>
                                        <g id="path-37"></g>
                                        <path d="M21.4761131,20.0530345 C21.4501424,20.0367931 21.4171272,20.0350345 21.3886331,20.048069 L19.7543776,20.8358276 C19.7234653,20.8502069 19.7038033,20.8819655 19.7038033,20.9149655 L19.7038033,24.9547242 C19.7038033,24.9852414 19.7196801,25.0138965 19.7450198,25.0294138 C19.7710955,25.0463793 19.8032696,25.0473104 19.8310277,25.0356207 L21.4660192,24.312 C21.4982984,24.2977242 21.5190119,24.265862 21.5190119,24.231 L21.5190119,23.6598621 C21.5190119,23.6299655 21.5032403,23.6026552 21.4772696,23.5866207 C21.4514042,23.5691379 21.4197558,23.5666551 21.3917874,23.5790689 L20.7049859,23.8836207 C20.6771227,23.8955173 20.6454743,23.8934483 20.6187677,23.8766896 C20.5935331,23.8605517 20.5777614,23.8324138 20.5777614,23.8027241 L20.5777614,23.0385517 C20.5777614,23.0024483 20.59858,22.9715173 20.6302284,22.9575517 L21.4657038,22.5871035 C21.4979831,22.5728276 21.5189067,22.5416896 21.5189067,22.5065173 L21.5189067,21.9324827 C21.5189067,21.9014483 21.50303,21.8733104 21.4759028,21.8566552 C21.4499321,21.8410345 21.4169169,21.839069 21.3884229,21.8528276 L20.707299,22.1809655 C20.679541,22.1942069 20.6466309,22.1921379 20.6200294,22.1766207 C20.5934279,22.1597586 20.5776563,22.1318276 20.5776563,22.1012069 L20.5776563,21.284069 C20.5776563,21.2506552 20.5974234,21.2187931 20.6277049,21.2045172 L21.4683324,20.8002414 C21.4992448,20.7846207 21.5188016,20.7541034 21.5188016,20.7204827 L21.5188016,20.1277241 C21.519117,20.0977242 21.5033454,20.0691724 21.4761131,20.0530345" id="path426" fill="#F47D30" mask="url(#mask-38)"></path>
                                    </g>
                                </g>
                            </g>
                            <g id="g428">
                                <g id="path436-Clipped">
                                    <g>
                                        <mask id="mask-40" fill="white">
                                            <use xlink:href="#path-39"></use>
                                        </mask>
                                        <g id="path-39"></g>
                                        <path d="M23.4495636,21.3675517 C23.4495636,21.3675517 23.9609847,20.992138 23.9609847,20.308862 L23.9609847,19.2508966 C23.9609847,18.6891724 23.595714,18.6368276 23.1798689,18.9195517 L21.8164647,19.845 C21.7918609,19.8611379 21.7772459,19.8884483 21.7772459,19.9184483 L21.7772459,23.9119655 C21.7772459,23.9445517 21.7956461,23.9742414 21.8255071,23.9902758 C21.8557886,24.0061035 21.8912222,24.0047586 21.9189802,23.9847931 L22.6128265,23.522069 C22.6369045,23.5053103 22.6520452,23.4778966 22.6520452,23.4492414 L22.6520452,21.9084828 L22.7951464,21.8114483 L23.5559695,22.7902759 C23.5850944,22.8277242 23.6382974,22.8364138 23.6787778,22.8102414 L24.1863087,22.4703103 C24.2066015,22.4565517 24.2205857,22.4354483 24.2242657,22.4117586 C24.2280509,22.3867241 24.2217422,22.3618966 24.2066015,22.3430689 L23.4495636,21.3675517 L23.4495636,21.3675517 L23.4495636,21.3675517 Z M23.1798689,20.4502759 C23.1798689,20.5955173 23.0938609,20.7642414 22.9887168,20.8352069 L22.7932538,20.9685517 C22.7653906,20.9872758 22.7299571,20.9897586 22.7002012,20.9747586 C22.6697094,20.9586207 22.6520452,20.9288276 22.6520452,20.895 L22.6520452,20.185138 C22.6520452,20.1564827 22.6659243,20.129069 22.6913691,20.1128276 L22.9755738,19.9197931 C23.0889192,19.8426207 23.1798689,19.9173104 23.1798689,20.0366896 L23.1798689,20.4502759 L23.1798689,20.4502759 L23.1798689,20.4502759 L23.1798689,20.4502759 Z" id="path436" fill="#F47D30" mask="url(#mask-40)"></path>
                                    </g>
                                </g>
                            </g>
                            <g id="g438">
                                <g id="path446-Clipped">
                                    <g>
                                        <mask id="mask-42" fill="white">
                                            <use xlink:href="#path-41"></use>
                                        </mask>
                                        <g id="path-41"></g>
                                        <path d="M25.3585607,16.7505517 L24.4787145,17.7065173 C24.2532855,17.9556207 24.2015546,18.2208621 24.2015546,18.5261379 L24.2015546,18.9327931 C24.2015546,19.2178965 24.2604353,19.4726896 24.6356948,19.5498621 L25.1168344,19.6569311 C25.2724477,19.6906552 25.3585607,19.7329655 25.3585607,19.843862 L25.3585607,19.9472069 C25.3585607,20.114069 25.319342,20.155862 25.2472131,20.2269311 C25.1762408,20.2960345 25.0116902,20.463 25.0116902,20.2543448 L25.0116902,20.0767242 C25.0116902,19.9285862 24.9483934,19.9285862 24.8527122,20.0231379 L24.2976563,20.5849655 C24.2319412,20.6445517 24.2014494,20.7142758 24.2014494,20.8288965 L24.2014494,21.1876552 C24.2014494,21.8317241 24.5399084,21.9574138 24.8850967,21.5103104 L25.7178383,20.4291724 C26.0595568,19.9851724 26.0595568,19.539931 26.0595568,19.2847241 C26.0595568,18.9783104 25.7938576,18.8525172 25.6013386,18.8195173 L25.1950616,18.7504138 C25.0500679,18.7242414 25.0115851,18.6257586 25.0115851,18.4888965 L25.0115851,18.2695862 C25.0115851,18.2035862 25.0115851,18.0298966 25.1298722,17.9084483 L25.2115693,17.8262069 C25.2970515,17.7403448 25.3584556,17.7403448 25.3584556,17.8958276 L25.3584556,18.2104138 C25.3584556,18.2745517 25.3952561,18.3132414 25.4539265,18.2534483 L25.9628242,17.7352759 C26.0495681,17.6475517 26.059662,17.5111035 26.059662,17.4184138 L26.059662,16.8934138 C26.0599774,16.3489655 25.6801967,16.4013103 25.3585607,16.7505517" id="path446" fill="#F47D30" mask="url(#mask-42)"></path>
                                    </g>
                                </g>
                            </g>
                            <g id="g448">
                                <g id="path456-Clipped">
                                    <g>
                                        <mask id="mask-44" fill="white">
                                            <use xlink:href="#path-43"></use>
                                        </mask>
                                        <g id="path-43"></g>
                                        <path d="M4.00630752,17.6162069 L4.00630752,19.9165862 L4.62592199,20.7927931 C4.78090447,21.0121034 4.88068626,20.9591379 4.88068626,20.7698276 L4.88068626,17.562 C4.60131826,17.6360689 4.27284794,17.545862 4.00630752,17.6162069" id="path456" fill="#F47D30" mask="url(#mask-44)"></path>
                                    </g>
                                </g>
                            </g>
                            <g id="g458">
                                <g id="path466-Clipped">
                                    <g>
                                        <mask id="mask-46" fill="white">
                                            <use xlink:href="#path-45"></use>
                                        </mask>
                                        <g id="path-45"></g>
                                        <path d="M21.4646524,18.9227586 L21.4646524,17.908862 C21.4646524,18.2501379 20.6318056,18.5260345 19.6064398,18.5260345 C18.5798123,18.5260345 17.7480169,18.2501379 17.7480169,17.908862 L17.7480169,18.9227586 C17.7480169,19.2640345 18.5799175,19.539931 19.6064398,19.539931 C20.6318056,19.539931 21.4646524,19.2640345 21.4646524,18.9227586" id="path466" fill="#F47D30" mask="url(#mask-46)"></path>
                                    </g>
                                </g>
                            </g>
                            <g id="g488">
                                <g id="path496-Clipped">
                                    <g>
                                        <mask id="mask-48" fill="white">
                                            <use xlink:href="#path-47"></use>
                                        </mask>
                                        <g id="path-47"></g>
                                        <path d="M4.88037083,17.5621034 L4.88037083,16.6914827 L4.00630752,15.9366207 L4.00630752,17.6162069 C4.27305822,17.5458621 4.60194913,17.6360689 4.88037083,17.5621034" id="path496" fill="#00539B" mask="url(#mask-48)"></path>
                                    </g>
                                </g>
                            </g>
                            <g id="g498">
                                <g id="path506-Clipped">
                                    <g>
                                        <mask id="mask-50" fill="white">
                                            <use xlink:href="#path-49"></use>
                                        </mask>
                                        <g id="path-49"></g>
                                        <path d="M28.3538021,13.6023103 C27.1133115,14.0307931 25.5688491,14.530138 24.3725189,14.934 C23.9692911,14.8698621 23.6926569,15.0921724 23.4072956,15.2777586 C22.9807258,15.4596207 22.443229,15.3861724 22.0229678,15.563069 C21.6298338,15.8818966 21.0494381,16.0163793 20.5685087,15.8146552 C20.4387609,15.6695173 20.2684274,15.4934483 20.0645529,15.5393793 C19.7442838,15.5706207 19.6779378,16.1415517 19.2823855,15.8445517 C19.0372945,15.9703449 18.8240622,16.1472414 18.5531057,16.2107586 L18.1460927,16.3103793 L17.9936337,16.6316896 L17.8544229,16.9231034 L17.7607394,17.1193449 L17.6215286,17.4107586 L17.5278451,17.6068965 L17.3878983,17.8985173 L17.2948457,18.093931 L17.1555297,18.3866897 L16.0352188,20.7331035 C15.9642464,20.8802069 15.8301877,20.9872758 15.670684,21.0246207 L13.8638869,21.4481379 C13.8730345,21.4567241 13.882182,21.4642758 13.8873341,21.4742069 L15.0826128,23.9166207 L15.0826128,21.6872069 C15.0826128,21.6559655 15.0961764,21.6248276 15.1205698,21.6038276 C15.1446478,21.5830345 15.1766117,21.5725862 15.2081549,21.5763103 L15.8565789,21.6522414 C15.913567,21.6583448 15.9565709,21.7058276 15.9565709,21.7617931 L15.9565709,25.7928621 C15.9565709,25.8520345 15.9097818,25.9005517 15.8495342,25.9044827 L15.1270888,25.9461724 C15.0825077,25.9491724 15.0406602,25.925069 15.0201571,25.8856552 L13.6063889,23.1730345 L13.6063889,25.7573793 C13.6063889,25.789138 13.5920893,25.8196551 13.5673804,25.8407586 C13.542987,25.861862 13.5104974,25.8718965 13.4782182,25.8675517 L12.8300045,25.7803448 C12.7742781,25.7722758 12.7322204,25.7247931 12.7322204,25.6701724 L12.7322204,21.7132758 L11.9748672,21.8913104 L12.5751351,25.6298276 C12.5795511,25.6597241 12.568511,25.6913793 12.5447485,25.7106207 C12.5200396,25.7311034 12.4874449,25.7367931 12.4576891,25.7281034 L11.7310379,25.4952414 C11.6987586,25.4846896 11.6746806,25.4571724 11.6697388,25.4248965 L11.5330515,24.5767242 L10.5820226,24.2722758 L10.4026467,24.9696207 C10.396338,24.9933104 10.3805664,25.0138965 10.3586964,25.0263103 C10.337247,25.0373793 10.3112764,25.039862 10.2871984,25.0325173 L9.59198529,24.8102069 C9.54677331,24.7959311 9.52080273,24.7496897 9.53247373,24.7035517 L10.1546117,22.3173103 L9.55171507,22.4594483 C9.49672468,22.471862 9.43836972,22.4618276 9.3916857,22.4307931 C9.34447595,22.3996552 9.3126173,22.3497931 9.30431093,22.295069 L8.93409836,19.9048966 C8.92579199,19.8526551 8.9394607,19.7978276 8.97173998,19.7561379 C9.00401922,19.7131034 9.05333183,19.6846552 9.10716562,19.677 L15.1778734,18.8551035 C15.3566184,18.8307931 15.5101289,18.7211379 15.5895127,18.5622414 L15.9750763,17.7938276 L16.1193341,17.5047931 L16.2168027,17.3105173 L16.3611656,17.0209655 L16.4578983,16.8273104 L16.6027869,16.5383793 L16.6414799,16.4611034 C16.3590628,16.4437242 15.9438485,16.6528966 15.7338756,16.6996552 C15.4128705,16.7948276 14.92742,16.6342759 14.81071,17.0502414 C14.6229225,17.1871034 14.3137988,17.2264138 14.0932063,17.1212069 C13.8321334,16.7263449 13.3757026,17.0551035 13.0738338,17.0601724 C12.5927993,17.1317586 12.2104952,16.7375172 11.7619503,16.9630345 C11.18187,17.3066896 10.4893906,16.664069 10.0014166,17.2064483 C9.69040023,17.2301379 9.39820465,17.0851034 9.06374107,17.1074483 C8.5738745,17.1061034 8.15098475,17.2580689 7.69402828,17.3384483 C7.17808593,17.6727931 6.46920405,17.511 5.87419335,17.4679655 C5.57537368,17.5869311 5.20453024,17.553931 4.88047597,17.562 L4.88047597,20.7697241 C4.88047597,20.9597586 4.78079932,21.012 4.6257117,20.7921724 L4.00609723,19.9166896 L4.00609723,17.6170345 C3.80379989,17.5136896 3.63357151,17.7676551 3.44620464,17.8466896 C3.25883776,17.9345172 3.09428717,17.7826552 3.0145879,17.6313103 C3.0145879,17.5504138 2.95759977,17.4787242 2.87600791,17.4363103 C2.77843414,17.4220345 2.60883663,17.4768621 2.4611091,17.5336552 C2.39875862,17.3093793 2.34366309,17.0839655 2.2958225,16.856069 C2.42031317,16.7794138 2.57182589,16.6753448 2.52840136,16.537138 C2.44544262,16.3690345 2.22043414,16.3852758 2.16228943,16.1834483 C2.18699831,15.9822414 2.24650989,15.7187586 2.48949802,15.6714827 C2.66960995,15.504 2.64647824,15.167069 2.5904364,14.9342069 C2.42777841,14.7253449 2.20813228,14.5558965 2.29697908,14.2598276 C2.29697908,14.1806897 2.21465122,14.0838621 2.29824082,14.0113449 C2.49443979,13.9322069 2.68969248,14.1151034 2.82837761,14.2445173 C2.95938722,14.2713104 2.99292821,14.1246207 3.04739288,14.0527241 C3.09681063,13.95 3.01511362,13.8288621 2.90996948,13.803931 C2.82070209,13.8268966 2.7369022,13.763069 2.73364274,13.6827931 C2.76602714,13.5475862 2.81218541,13.4187931 2.9688502,13.3811379 C3.13813228,13.3231035 3.30331374,13.3876552 3.44073714,13.4766207 C3.60276427,13.6207242 3.58604635,13.8536896 3.74996608,13.9748276 C3.96141097,13.7826207 3.80054042,13.3887931 4.04615715,13.2051724 C4.39618202,13.0535173 4.73705935,12.796862 5.16236744,12.8620345 C5.27697454,13.0803104 5.20000906,13.482 5.56685697,13.4978276 C5.66716448,13.4103103 5.67505032,13.1845862 5.86315319,13.2739655 C6.02770378,13.3396552 6.01655852,13.6196897 6.21244208,13.580069 C6.40937705,13.219862 6.03495874,12.9221379 6.08332505,12.5777586 C6.34608028,12.4087242 6.69442286,12.5547931 6.88115883,12.7555862 C6.96464331,12.9233793 6.63680382,13.0189655 6.86370492,13.1571724 C7.19028265,13.0366552 7.3368536,13.4072069 7.62515883,13.3346897 C7.81073825,12.999 8.21007573,12.9588621 8.54296211,13.0482414 C9.03388014,13.0420345 9.31840023,13.7651379 9.83045223,13.4781724 C10.1102408,13.2939311 10.6529949,13.5501724 10.7378462,13.1108276 C10.7046207,12.9187241 10.8435161,12.7408966 11.0093284,12.6886552 C11.284701,12.6058966 11.5441967,13.168138 11.774883,12.744 C12.2031351,12.9137586 12.7095093,12.9066207 13.1812911,12.9812069 C13.9073115,13.3595172 14.8624409,13.3066552 15.6817241,13.3311724 C16.3944963,13.7035862 17.4071396,13.1723793 18.2225325,13.3000345 L18.6041006,12.5374138 L15.4088751,5.76631035 L15.4088751,12.0622758 C15.4088751,12.1724483 15.3181357,12.2618276 15.206052,12.2618276 L12.0988321,12.2618276 C12.0273341,12.2618276 11.9610933,12.2247931 11.925134,12.165 L9.88523233,8.81772415 L9.88523233,12.0621724 C9.88523233,12.1724483 9.7943878,12.2618276 9.68240929,12.2618276 L6.91291239,12.2618276 C6.79998757,12.2618276 6.70914303,12.1724483 6.70914303,12.0621724 L6.70914303,4.8025862 C3.7990684,7.09210345 1.9462182,10.5380689 1.9462182,14.3941034 C1.9462182,21.2860345 7.86362577,26.8733793 15.1651509,26.8733793 C22.4649938,26.8733793 28.3830322,21.2860345 28.3830322,14.3941034 C28.382822,14.1282414 28.3714663,13.8644483 28.3538021,13.6023103 L28.3538021,13.6023103 L28.3538021,13.6023103 Z M7.43968456,20.2984138 C7.43968456,20.4477931 7.34410851,20.5729655 7.14917126,20.4 L6.68906047,19.9932414 C6.59201243,19.9061379 6.56541098,19.8293793 6.56541098,19.7286207 L6.56541098,19.5548276 C6.56541098,19.4502414 6.52335333,19.3636551 6.4602668,19.3051034 L6.21528097,19.0882758 C6.06439909,18.954931 6.03054267,19.14 6.03054267,19.14 L6.03054267,19.2670345 C6.03054267,19.4120689 6.11686603,19.5248276 6.11686603,19.5248276 L7.07861958,20.7554483 C7.27355683,21.0056896 7.43978971,21.3757241 7.43978971,21.7418276 L7.43978971,22.4803448 C7.43978971,23.1236896 7.1647326,23.3950345 6.84730241,23.116862 L5.54057095,21.957931 C5.27339968,21.7212414 5.15668966,21.3695172 5.15668966,21.1944827 L5.15668966,20.524862 C5.15668966,20.3057586 5.2004296,20.2378965 5.28717354,20.3195172 L5.85737026,20.8325172 C5.9444296,20.9016207 6.03043752,21.0441724 6.03043752,21.1240345 L6.03043752,21.2721724 C6.03043752,21.3916551 6.02213115,21.5293448 6.11013679,21.5953448 L6.35701525,21.8027586 C6.44775464,21.8836551 6.56520068,21.8962758 6.56520068,21.7641724 L6.56520068,21.6021724 C6.56520068,21.5026551 6.54112268,21.4205172 6.47624872,21.3381724 L5.33438329,19.8698276 C5.23249859,19.7402069 5.15647937,19.6094483 5.15647937,19.3871379 L5.15647937,18.2318276 C5.15647937,17.9535517 5.49704126,17.5742069 5.98564613,18.0072414 L7.24811193,19.1248965 C7.3266546,19.1947241 7.43957942,19.347931 7.43957942,19.6033448 L7.43957942,20.2984138 L7.43968456,20.2984138 L7.43968456,20.2984138 Z M9.43574107,24.5661724 C9.43574107,24.6066207 9.41450196,24.6426207 9.37875296,24.6625862 C9.34395028,24.6825517 9.30031544,24.6825517 9.2655127,24.6614483 L7.86982928,23.8476207 C7.83565742,23.826931 7.81473374,23.7907241 7.81473374,23.752138 L7.81473374,19.7349311 C7.81473374,19.6943793 7.8362883,19.6582758 7.87140647,19.6383104 C7.90684003,19.6189655 7.94952855,19.6189655 7.98527755,19.6394483 L8.63349126,20.0174483 C8.6679785,20.0380345 8.6885868,20.0740345 8.6885868,20.1127241 L8.6885868,23.5084138 L9.38064559,23.9127931 C9.41513283,23.932138 9.43563598,23.968862 9.43563598,24.0080689 L9.43574107,24.5661724 L9.43574107,24.5661724 L9.43574107,24.5661724 L9.43574107,24.5661724 Z M19.2291826,24.7448276 C19.2291826,24.855 19.2291826,25.3725517 18.3551193,25.5257586 L16.5834403,25.837862 C16.551056,25.8427241 16.5176201,25.8346551 16.4915444,25.8135517 C16.4662046,25.7916207 16.4516948,25.7605862 16.4516948,25.7282069 L16.4516948,21.7177241 C16.4516948,21.664138 16.489126,21.6187241 16.542329,21.6086896 L18.3551193,21.2536552 C19.2291826,21.0824483 19.2291826,21.5975172 19.2291826,21.5975172 L19.2291826,24.7448276 L19.2291826,24.7448276 L19.2291826,24.7448276 Z M17.7479118,18.9234828 L17.7479118,17.9094827 C17.7479118,17.5682069 18.5798123,17.2910689 19.6063347,17.2910689 C20.6317004,17.2910689 21.4640215,17.5682069 21.4640215,17.9094827 L21.4640215,18.9234828 C21.4640215,19.2646551 20.6317004,19.5404483 19.6063347,19.5404483 C18.5798123,19.5404483 17.7479118,19.2645517 17.7479118,18.9234828 L17.7479118,18.9234828 L17.7479118,18.9234828 Z M21.519117,20.7205862 C21.519117,20.7542069 21.4988242,20.7852414 21.4679118,20.8003448 L20.6280204,21.205138 C20.597108,21.2194138 20.5787077,21.2499311 20.5787077,21.2847931 L20.5787077,22.1004828 C20.5787077,22.1317242 20.5938485,22.1603793 20.6203448,22.1765172 C20.6469463,22.1927586 20.6798564,22.1946207 20.7076145,22.1802414 L21.3887382,21.8526207 C21.4167066,21.839069 21.4495116,21.8402069 21.4762182,21.8571724 C21.5026094,21.8738276 21.5192222,21.9019655 21.5192222,21.9324827 L21.5192222,22.5065173 C21.5192222,22.5413793 21.4989293,22.5733449 21.4653883,22.5876207 L20.6312798,22.9573448 C20.5988954,22.9712069 20.5787077,23.0029655 20.5787077,23.0383449 L20.5787077,23.8032414 C20.5787077,23.8316897 20.5938485,23.8604483 20.618978,23.8766896 C20.6450537,23.8928276 20.677333,23.8960345 20.7051962,23.8828966 L21.3913669,23.5789655 C21.4191249,23.5665517 21.4521402,23.5690345 21.4773748,23.586 C21.5027145,23.6027586 21.519117,23.6300689 21.519117,23.6604827 L21.519117,24.2303793 C21.519117,24.2659655 21.4988242,24.2976207 21.4653883,24.3113793 L19.8316586,25.0348965 C19.8037954,25.047931 19.7709904,25.0456552 19.7455455,25.029931 C19.718944,25.0131724 19.7038033,24.9852414 19.7038033,24.9541035 L19.7038033,20.9150689 C19.7038033,20.8814483 19.7227292,20.8508276 19.7543776,20.8352069 L21.3886331,20.0487931 C21.4163912,20.0355517 21.4494065,20.0368966 21.4759028,20.0531379 C21.5025042,20.0692759 21.5189067,20.097931 21.5189067,20.1285517 L21.5189067,20.7207931 L21.519117,20.7207931 L21.519117,20.7205862 L21.519117,20.7205862 Z M24.1865189,22.4704138 L23.6787778,22.8098276 C23.6384025,22.8367241 23.5850944,22.8279311 23.5559695,22.790069 L22.7951464,21.8115517 L22.6522555,21.9095173 L22.6522555,23.4489311 C22.6522555,23.4783104 22.6369045,23.5056207 22.6129316,23.5231035 L21.9185597,23.9858276 C21.8913273,24.0044483 21.854632,24.0063104 21.8255071,23.9914138 C21.7963822,23.9752758 21.777351,23.9452759 21.777351,23.9128966 L21.777351,19.9180345 C21.777351,19.8888621 21.7918609,19.8621724 21.8165698,19.8452069 L23.179974,18.919862 C23.5958191,18.6376552 23.9610899,18.69 23.9610899,19.2504827 L23.9610899,20.309069 C23.9610899,20.9922414 23.4496688,21.367138 23.4496688,21.367138 L24.2067066,22.3434827 C24.2218474,22.3628276 24.228156,22.3870345 24.2242657,22.4119655 C24.2205857,22.4356551 24.2067066,22.4568621 24.1865189,22.4704138 L24.1865189,22.4704138 L24.1865189,22.4704138 Z M26.0593465,17.4182069 C26.0593465,17.5107931 26.0505144,17.6467242 25.9637705,17.7350689 L25.4543471,18.2531379 C25.3953612,18.312931 25.3586659,18.2743448 25.3586659,18.2102069 L25.3586659,17.8956207 C25.3586659,17.7400345 25.2979977,17.7400345 25.2118847,17.8258965 L25.1301877,17.908138 C25.0119005,18.0293793 25.0119005,18.2032759 25.0119005,18.2692758 L25.0119005,18.4885862 C25.0119005,18.6254483 25.0504884,18.7245517 25.1966388,18.7494827 L25.6017592,18.8192069 C25.7942781,18.8521035 26.0595568,18.9781034 26.0595568,19.2837931 C26.0595568,19.5402414 26.0595568,19.9843448 25.7182589,20.4289655 L24.8859378,21.5107242 C24.5404342,21.9572069 24.2017648,21.8320345 24.2017648,21.1875517 L24.2017648,20.8287931 C24.2017648,20.7143793 24.2322566,20.6445517 24.2979717,20.5847586 L24.8537637,20.0229311 C24.9487089,19.9282758 25.0117954,19.9282758 25.0117954,20.0766207 L25.0117954,20.2547586 C25.0117954,20.4626897 25.1763459,20.2958276 25.2473183,20.2261035 C25.3199729,20.1563793 25.358771,20.1153104 25.358771,19.9472069 L25.358771,19.843862 C25.358771,19.7328621 25.2720271,19.6907586 25.1170447,19.6570345 L24.635905,19.5499655 C24.2598044,19.4726896 24.2017648,19.218 24.2017648,18.9327931 L24.2017648,18.5267586 C24.2017648,18.2202414 24.2536009,17.9556207 24.4789248,17.7065173 L25.358771,16.7505517 C25.6801967,16.4012069 26.0595568,16.3490689 26.0595568,16.8932069 L26.0595568,17.4182069 L26.0593465,17.4182069 L26.0593465,17.4182069 L26.0593465,17.4182069 Z" id="path506" fill="#00539B" mask="url(#mask-50)"></path>
                                    </g>
                                </g>
                            </g>
                            <g id="g508">
                                <g id="polygon516-Clipped">
                                    <g>
                                        <mask id="mask-52" fill="white">
                                            <use xlink:href="#path-51"></use>
                                        </mask>
                                        <g id="path-51"></g>
                                        <polygon id="polygon516" fill="#00539B" mask="url(#mask-52)" points="11.3940509 23.7186207 11.1362374 22.1193103 10.7750673 23.5197931"></polygon>
                                    </g>
                                </g>
                            </g>
                            <g id="g518">
                                <g id="path526-Clipped">
                                    <g>
                                        <mask id="mask-54" fill="white">
                                            <use xlink:href="#path-53"></use>
                                        </mask>
                                        <g id="path-53"></g>
                                        <path d="M12.360641,3.00165517 C12.360641,2.89137931 12.4514856,2.80137931 12.5642001,2.80137931 L17.4417321,2.80137931 C17.5215365,2.80137931 17.5936653,2.84648276 17.6265755,2.91755173 L20.4368683,8.87472415 L22.7787439,4.19606897 C20.6267586,2.76072414 18.0006784,1.91431035 15.1650458,1.91431035 C13.4139751,1.91431035 11.7429192,2.23903448 10.2133872,2.8232069 L12.3607462,6.90310345 L12.360641,3.00165517 L12.360641,3.00165517 L12.360641,3.00165517 L12.360641,3.00165517 Z" id="path526" fill="#00539B" mask="url(#mask-54)"></path>
                                    </g>
                                </g>
                            </g>
                            <g id="g528">
                                <g id="path536-Clipped">
                                    <g>
                                        <mask id="mask-56" fill="white">
                                            <use xlink:href="#path-55"></use>
                                        </mask>
                                        <g id="path-55"></g>
                                        <path d="M21.6406637,11.7515173 C22.2008717,11.5836207 22.7148163,11.2872414 23.1826026,10.8728276 C23.6002352,10.7377242 24.0857908,10.6592069 24.5345461,10.7230345 L24.5762883,10.7809655 C24.5445347,10.9484483 24.3306716,11.0767242 24.1838903,11.1642414 C23.8661447,11.1704483 23.4825789,11.1162414 23.2370673,11.3547931 C22.8939819,11.7069311 22.46226,11.946 22.1419909,12.2895517 C22.1672255,12.4012759 22.2964477,12.4906552 22.223688,12.6167586 C21.9788072,12.787138 21.587671,12.658138 21.4571871,13.002 C21.3496246,13.6608621 20.5101538,13.1505517 20.1823143,13.5764483 C20.0228106,13.7832414 19.546823,14.0345173 19.1885969,14.1275173 L18.8442499,14.8480345 C19.2442182,14.9869655 19.7961199,15.196138 20.1632832,15.1395517 C21.0190515,14.8698621 21.3495195,13.5873104 22.3508072,13.6639655 C22.9140644,13.7607931 23.41045,13.5932069 23.802848,13.2245173 C24.1864138,13.0810345 24.2169056,13.6900345 24.5700848,13.6255862 C24.6004714,13.4035862 24.6206591,13.1289311 24.879524,13.0351035 C25.0015964,12.9872069 25.1991623,13.0036552 25.2154596,13.163069 C24.9445031,13.540138 25.5320486,13.6617931 25.448459,14.0155862 C25.4959842,14.1675517 25.6750447,14.1675517 25.798589,14.1292759 C26.0037253,13.7447586 26.4271408,13.7114483 26.8170153,13.6899311 C27.1214076,13.2504828 27.8436427,13.6606552 28.010822,13.0431724 L28.293134,12.9494483 C27.8944274,9.69031035 26.1682759,6.81351725 23.6353533,4.8152069 L19.8976891,12.6428276 C20.4646263,12.4512414 21.2588852,12.2285173 21.6406637,11.7515173" id="path536" fill="#00539B" mask="url(#mask-56)"></path>
                                    </g>
                                </g>
                            </g>
                            <g id="g538">
                                <g id="path546-Clipped">
                                    <g>
                                        <mask id="mask-58" fill="white">
                                            <use xlink:href="#path-57"></use>
                                        </mask>
                                        <g id="path-57"></g>
                                        <path d="M22.9749429,19.9197931 L22.6907382,20.1128276 C22.6659243,20.1290689 22.6520452,20.1563793 22.6520452,20.1863793 L22.6520452,20.8956207 C22.6520452,20.9287241 22.6710763,20.9585172 22.7002012,20.9740345 C22.7293262,20.9895517 22.7659163,20.9871724 22.7932538,20.9683448 L22.9894528,20.8351034 C23.0944918,20.7635172 23.1794483,20.5953103 23.1794483,20.4501724 L23.1794483,20.0366896 C23.1794483,19.9173103 23.0889192,19.8426207 22.9749429,19.9197931" id="path546" fill="#00539B" mask="url(#mask-58)"></path>
                                    </g>
                                </g>
                            </g>
                            <g id="g548">
                                <g id="path556-Clipped">
                                    <g>
                                        <mask id="mask-60" fill="white">
                                            <use xlink:href="#path-59"></use>
                                        </mask>
                                        <g id="path-59"></g>
                                        <path d="M17.9752335,22.146 L17.3258632,22.2736551 L17.3258632,24.9714827 L18.0151883,24.8493103 C18.3550141,24.7896207 18.3550141,24.4115172 18.3550141,24.4115172 L18.3550141,22.4187931 C18.3551193,22.4186896 18.3551193,22.0713103 17.9752335,22.146" id="path556" fill="#00539B" mask="url(#mask-60)"></path>
                                    </g>
                                </g>
                            </g>
                        </g>
                    </g>
                </g>
            </g>
        </g>
    </g>
</svg>