<?xml version="1.0" encoding="UTF-8" standalone="no"?>
<svg width="60px" height="60px" viewBox="0 0 60 60" version="1.1" xmlns="http://www.w3.org/2000/svg" xmlns:xlink="http://www.w3.org/1999/xlink">
    <!-- Generator: Sketch 40.3 (33839) - http://www.bohemiancoding.com/sketch -->
    <title>Artboard</title>
    <desc>Created with Sketch.</desc>
    <defs></defs>
    <g id="Page-1" stroke="none" stroke-width="1" fill="none" fill-rule="evenodd">
        <g id="Artboard">
            <g id="jets">
                <path d="M59.9725283,29.9875128 C59.9725283,46.5489928 46.5536485,59.9729291 29.9911202,59.9729291 C13.4299794,59.9729599 0,46.548962 0,29.9875128 C0,13.4247071 13.4257554,0 29.9870812,0 C46.5509353,0 59.9725283,13.4247071 59.9725283,29.9875128" id="path7" fill="#A8A9AD"></path>
                <path d="M57.9590442,29.9875128 C57.9590442,45.4347688 45.4405653,57.960555 29.9913669,57.960555 C14.5407194,57.960555 2.01530319,45.4347996 2.01530319,29.9875128 C2.01530319,14.5381295 14.5376362,2.01295992 29.9868345,2.01295992 C45.4373895,2.01299075 57.9590442,14.5381603 57.9590442,29.9875128" id="path9" fill="#002E62"></path>
                <path d="M32.6946968,9.54086331 L29.9892395,2.72457348 L27.1200925,9.54138746 C17.0258479,10.9035971 9.24052415,19.5484687 9.24052415,30.0164954 C9.24052415,41.4308325 18.575149,50.6839054 29.9892086,50.6839054 C41.4035149,50.6839054 50.5735868,41.4308941 50.5735868,30.0164954 C50.5736177,19.547667 42.7890956,10.9035971 32.6946968,9.54086331" id="path11" fill="#FFFFFF"></path>
                <path d="M17.3634635,26.1304625 L19.0778726,30.2552004 L26.8929188,26.5265982 L27.3154779,21.7379137 L27.895591,19.0583556 L23.9579137,16.4767831 C23.9579137,16.4767831 25.5416547,25.8572559 25.5424872,25.8610175 L21.3521994,21.6793936 L21.2372251,24.9796095 L15.1040904,22.6654162 L17.3790031,28.6870915 L17.3790031,28.1590545 L17.3634635,26.1304625 L17.3634635,26.1304625 Z" id="path13" fill="#810120"></path>
                <polygon id="polygon15" fill="#810120" points="21.8661768 38.5143885 24.7348921 38.981038 26.4998972 36.4428777 26.4998972 35.2780884 20.9394142 34.9076362 23.1879034 36.8685817"></polygon>
                <polygon id="polygon17" fill="#810120" points="29.9892395 49.8834327 31.7711716 41.2719527 31.7644193 41.2540082 29.9892395 45.1709353 28.2630216 41.2526824 28.2304933 41.3361459"></polygon>
                <polygon id="polygon19" fill="#810120" points="36.8727441 36.8685817 39.1251182 34.9038438 33.5273895 35.2780884 33.5273895 36.4426002 35.293073 38.9835046 38.1956732 38.5154985"></polygon>
                <path d="M33.1325797,26.5267523 L40.9477801,30.2547071 L42.6164029,26.0786948 L42.6480987,28.1588078 L42.6480987,28.7835046 L44.9596095,22.6654471 L38.8252724,24.9800103 L38.7089414,21.679517 L34.5181912,25.8615416 C34.6263823,25.2110072 36.1038129,16.476999 36.1038129,16.476999 L32.1356423,19.0826516 L32.7113155,21.7383762 L33.1325797,26.5267523 L33.1325797,26.5267523 Z" id="path21" fill="#810120"></path>
                <polygon id="polygon23" fill="#810120" points="46.0260123 28.8832785 42.6478212 28.8672765 42.6478212 31.8307091"></polygon>
                <polygon id="polygon25" fill="#810120" points="14.0355601 28.8832785 17.3790647 31.8000617 17.3790647 28.8672765"></polygon>
                <polygon id="polygon27" fill="#6E6D75" points="32.712888 21.7379445 29.9910894 9.29981501 27.316557 21.7379445 26.8953546 26.526629 19.0795375 30.2550771 17.3642652 26.1303392 17.3799897 28.1589311 17.3799897 35.370185 18.6224769 34.7515005 26.5011305 35.2780884 26.5011305 36.4426002 22.9224358 41.590298 22.9224358 44.7110997 27.8565262 42.2778623 28.264224 41.2526824 29.9870812 45.1893731 31.7654985 41.2540082 32.1708839 42.2778623 37.1058993 44.7110997 37.1058993 41.5891881 33.5281912 36.4426002 33.5281912 35.2780884 41.4065365 34.7515005 42.649147 35.370185 42.649147 28.1589311 42.617482 26.0781398 40.9488284 30.2550771 33.1342446 26.526629"></polygon>
                <polygon id="polygon29" fill="#A8A9AD" points="27.1610689 29.7516136 26.6486023 27.2425899 18.7981912 30.9869168 17.9198356 28.8735046 17.9198356 34.4998458 18.510925 34.204594 27.0397122 34.7748099 27.0397122 36.6118088 23.4620041 41.759445 23.4620041 43.8429188 27.4315313 41.886629 28.0453751 40.339702 27.7017163 38.6277287 28.282261 39.9726105 29.9870812 43.8467112 29.9892395 11.4803494 27.8507297 21.8130524 27.4053854 26.8809866 27.4026721 26.8823433"></polygon>
                <path d="M26.4931141,35.2780884 L21.396074,34.9385303 L23.5507091,36.817369 C23.5165468,36.913073 22.3820658,38.3176156 22.3820658,38.3176156 L24.9045632,38.7269476 L26.4931449,36.4428777 L26.4931449,35.2780884 L26.4931141,35.2780884 Z" id="path31" fill="#C60F2F"></path>
                <path d="M27.826742,19.3455293 L24.3376773,17.0532271 C24.3376773,17.0532271 24.3396814,17.0693525 24.3447379,17.0956835 L27.1204008,23.8784584 L27.3083248,21.738592 L27.826742,19.3455293 L27.826742,19.3455293 Z" id="path33" fill="#C60F2F"></path>
                <path d="M25.5407297,26.2481192 C25.536814,26.2464851 25.5349332,26.2435252 25.5304625,26.2414902 L21.6072456,22.3286331 L21.4928263,25.3661254 L15.6263926,23.1592909 L21.3540185,29.1673998 L26.1696814,26.8684995 L25.5407297,26.2481192 L25.5407297,26.2481192 Z" id="path35" fill="#C60F2F"></path>
                <polygon id="polygon37" fill="#C60F2F" points="28.7192189 42.2930627 29.9925077 48.7272765 29.9870812 45.1929188"></polygon>
                <polygon id="polygon39" fill="#C60F2F" points="14.7724255 29.1571326 17.3718808 31.4270195 17.3718808 29.1454471"></polygon>
                <polygon id="polygon41" fill="#C60F2F" points="35.6970709 17.0752415 32.1947174 19.3864748 32.5878623 21.1954162"></polygon>
                <polygon id="polygon43" fill="#C60F2F" points="38.0793422 28.890185 44.4788695 23.1536177 38.6210997 25.3692703 36.9082631 28.3304214"></polygon>
            </g>
        </g>
    </g>
</svg>