<?xml version="1.0" encoding="UTF-8" standalone="no"?>
<svg width="60px" height="60px" viewBox="0 0 60 60" version="1.1" xmlns="http://www.w3.org/2000/svg" xmlns:xlink="http://www.w3.org/1999/xlink">
    <!-- Generator: Sketch 40.3 (33839) - http://www.bohemiancoding.com/sketch -->
    <title>Artboard</title>
    <desc>Created with Sketch.</desc>
    <defs>
        <rect id="path-1" x="0.0948667813" y="0.00897278226" width="796.74194" height="1031.7737"></rect>
        <rect id="path-3" x="0.0948667813" y="0.00897278226" width="796.74194" height="1031.7737"></rect>
        <rect id="path-5" x="0.0948667813" y="0.00897278226" width="796.74194" height="1031.7737"></rect>
        <rect id="path-7" x="0.0948667813" y="0.00897278226" width="796.74194" height="1031.7737"></rect>
        <rect id="path-9" x="0.0948667813" y="0.00897278226" width="796.74194" height="1031.7737"></rect>
        <rect id="path-11" x="0.0948667813" y="0.00897278226" width="796.74194" height="1031.7737"></rect>
        <rect id="path-13" x="0.0948667813" y="0.00897278226" width="796.74194" height="1031.7737"></rect>
        <rect id="path-15" x="0.0948667813" y="0.00897278226" width="796.74194" height="1031.7737"></rect>
        <rect id="path-17" x="0.0948667813" y="0.00897278226" width="796.74194" height="1031.7737"></rect>
        <rect id="path-19" x="0.0948667813" y="0.00897278226" width="796.74194" height="1031.7737"></rect>
        <rect id="path-21" x="0.0948667813" y="0.00897278226" width="796.74194" height="1031.7737"></rect>
        <rect id="path-23" x="0.0948667813" y="0.00897278226" width="796.74194" height="1031.7737"></rect>
        <rect id="path-25" x="0.0948667813" y="0.00897278226" width="796.74194" height="1031.7737"></rect>
        <rect id="path-27" x="0.0948667813" y="0.00897278226" width="796.74194" height="1031.7737"></rect>
        <rect id="path-29" x="0.0948667813" y="0.00897278226" width="796.74194" height="1031.7737"></rect>
        <rect id="path-31" x="0.0948667813" y="0.00897278226" width="796.74194" height="1031.7737"></rect>
        <rect id="path-33" x="0.0948667813" y="0.00897278226" width="796.74194" height="1031.7737"></rect>
        <rect id="path-35" x="0.0948667813" y="0.00897278226" width="796.74194" height="1031.7737"></rect>
        <rect id="path-37" x="0.00588075091" y="0.000895582048" width="49.3896897" height="102.982328"></rect>
        <rect id="path-39" x="0.00588075091" y="0.000895582048" width="49.3896897" height="102.982328"></rect>
        <rect id="path-41" x="0.00588075091" y="0.000895582048" width="49.3896897" height="102.982328"></rect>
        <rect id="path-43" x="0.00588075091" y="0.000895582048" width="49.3896897" height="102.982328"></rect>
        <rect id="path-45" x="0.00588075091" y="0.000895582048" width="49.3896897" height="102.982328"></rect>
        <rect id="path-47" x="0.00588075091" y="0.000895582048" width="49.3896897" height="102.982328"></rect>
        <rect id="path-49" x="0.00588075091" y="0.000895582048" width="49.3896897" height="102.982328"></rect>
        <rect id="path-51" x="0.00588075091" y="0.000895582048" width="49.3896897" height="102.982328"></rect>
        <rect id="path-53" x="0.00588075091" y="0.000895582048" width="49.3896897" height="102.982328"></rect>
        <rect id="path-55" x="0.00588075091" y="0.000895582048" width="49.3896897" height="102.982328"></rect>
    </defs>
    <g id="Page-1" stroke="none" stroke-width="1" fill="none" fill-rule="evenodd">
        <g id="kings" transform="translate(-41.000000, -46.000000)">
            <path d="M48.6740492,77.2568256 L94.8254564,77.2568256 L94.8254564,87.4211673 L71.7497528,104.108852 L48.6740492,87.4211673 L48.6740492,77.2568256 L48.6740492,77.2568256 Z M48.6740492,48.5768225 L94.8254564,48.5768225 L94.8254564,75.8301532 L48.6740492,75.8301532 L48.6740492,48.5768225 L48.6740492,48.5768225 Z M47.0428828,88.2556361 L71.7497528,106.123176 L96.4566229,88.2556361 L96.4566229,46.9445563 L47.0428828,46.9445563 L47.0428828,88.2556361 L47.0428828,88.2556361 Z" id="path236" fill="#FFFFFF"></path>
            <g id="g238" transform="translate(0.080831, 0.036671)">
                <g id="path246-Clipped">
                    <mask id="mask-2" fill="white">
                        <use xlink:href="#path-1"></use>
                    </mask>
                    <g id="SVGID_1_"></g>
                    <path d="M88.3688857,61.30738 L75.5707525,61.30738 L75.5707525,56.3101905 L88.3688857,56.3101905 L88.3688857,61.30738 L88.3688857,61.30738 Z M72.546233,54.112379 C72.9696189,55.1021159 73.7063209,57.449994 73.7063209,61.8219496 C73.7063209,66.1939052 72.9696189,68.5417833 72.546233,69.5302198 L75.5706225,69.5302198 L75.5706225,63.5076623 L88.3687557,63.5076623 L88.3687557,69.5302198 L91.3921057,69.5302198 C90.9700192,68.5416532 90.2331873,66.1939052 90.2331873,61.8219496 C90.2331873,57.449994 90.9700192,55.1021159 91.3921057,54.112379 L72.546233,54.112379 L72.546233,54.112379 Z" id="path246" fill="#FFFFFF" mask="url(#mask-2)"></path>
                </g>
                <g id="path248-Clipped">
                    <mask id="mask-4" fill="white">
                        <use xlink:href="#path-3"></use>
                    </mask>
                    <g id="SVGID_1_"></g>
                    <path d="M54.9716878,67.3318881 L54.9716878,61.8212994 C54.9716878,57.4493437 55.7070902,55.1014657 56.1291766,54.1130292 L51.945219,54.1130292 C52.3679552,55.1015958 53.1033576,57.4493437 53.1033576,61.8212994 C53.1033576,66.1945554 52.3679552,68.5404829 51.9465185,69.53087 L68.7322508,69.53087 C69.0086602,69.095755 69.7989027,67.6772752 69.9812263,65.6684123 C69.0226951,66.3223851 67.0227228,67.3318881 63.6848873,67.3318881 L54.9716878,67.3318881 L54.9716878,67.3318881 Z" id="path248" fill="#FFFFFF" mask="url(#mask-4)"></path>
                </g>
                <g id="path250-Clipped">
                    <mask id="mask-6" fill="white">
                        <use xlink:href="#path-5"></use>
                    </mask>
                    <g id="SVGID_1_"></g>
                    <path d="M70.8342359,94.2042006 C69.7213209,94.2042006 68.5114611,94.0724698 67.6615704,93.9580343 C68.7873507,94.3835262 70.4827138,94.5597308 70.4827138,94.5597308 C69.2304895,94.5597308 67.8541603,94.3944496 67.0081681,94.2715615 C68.2484368,94.7486794 70.3397659,94.9426996 70.3397659,94.9426996 C67.2631353,94.8592137 65.441978,94.4019919 65.441978,94.4019919 L64.0295219,86.1961875 L65.4591317,88.107 C66.0865435,87.0828024 67.3051101,86.2584768 68.8670117,85.7998246 L68.4360885,84.7483185 L70.647104,85.7426069 L70.647104,85.1994284 L71.6691821,83.4393327 L72.6907404,85.1994284 L72.6907404,85.7426069 L74.901626,84.7483185 L74.4707028,85.7998246 C76.0326044,86.2584768 77.251171,87.0828024 77.8792325,88.107 L79.3081926,86.1961875 L77.8957365,94.4019919 C77.8957365,94.4019919 76.0745792,94.8593437 72.9984684,94.9426996 C72.9984684,94.9426996 75.0892777,94.7486794 76.3294164,94.2715615 C75.4832943,94.3943196 74.1070951,94.5597308 72.8548707,94.5597308 C72.8548707,94.5597308 74.5502338,94.3836562 75.6760142,93.9580343 C74.827423,94.0724698 73.6163936,94.2042006 72.5033486,94.2042006 C72.5033486,94.2042006 74.156737,94.0318972 75.2818676,93.6177187 C74.2769433,93.4039325 73.0386238,93.2296784 71.6693121,93.2296784 C70.2994805,93.2296784 69.0611611,93.4040625 68.0561068,93.6177187 C69.1808475,94.0318972 70.8342359,94.2042006 70.8342359,94.2042006 L70.8342359,94.2042006 Z M70.4529547,84.9285544 L71.551315,83.0316562 L71.0124011,82.111881 L70.8840078,81.9789798 L70.9735452,81.8460786 L71.1725029,81.8606431 L71.2036915,82.0273548 L71.6689222,82.8325645 L72.1336331,82.0273548 L72.1646918,81.8606431 L72.3636494,81.8460786 L72.4531869,81.9789798 L72.3247936,82.111881 L71.7858797,83.0316562 L72.88424,84.9285544 L73.752714,84.9285544 L73.6458929,85.1340181 L72.7700116,85.1340181 L71.6689222,83.2377702 L70.5673131,85.1340181 L69.6913018,85.1340181 L69.5846106,84.9285544 L70.4529547,84.9285544 L70.4529547,84.9285544 Z M78.1699367,94.7798891 L79.7725136,85.578626 L79.4394448,85.4342812 C79.4394448,85.4342812 78.1325104,87.1822833 77.8878094,87.5079042 C77.3513646,86.8514607 76.327857,86.0361079 74.9415214,85.578626 C75.0521112,85.3113931 75.5548983,84.0882339 75.5548983,84.0882339 C75.5548983,84.0882339 74.7825893,84.3992903 74.4493905,84.5347923 C74.4844777,84.466131 74.5199548,84.3979899 74.5199548,84.3979899 C74.5199548,84.3979899 73.3351759,84.4597591 73.1475242,84.4699022 C73.0527887,84.3033206 72.4070536,83.1583155 72.3198554,83.0043478 C72.3961376,82.8688458 72.6421381,82.4401028 72.6682586,82.3948488 C72.7089338,82.3593478 73.0121135,82.1029083 73.0121135,82.1029083 L72.6180969,81.3534859 L71.7834106,81.4107036 C71.7834106,81.4107036 71.7688559,81.8032954 71.7649573,81.8744274 L71.6689222,82.0334667 L71.5723674,81.8744274 C71.5697683,81.8031653 71.5552136,81.4107036 71.5552136,81.4107036 L70.7198775,81.3534859 L70.3263807,82.1029083 C70.3263807,82.1029083 70.6295604,82.3593478 70.6702356,82.3948488 C70.6962262,82.4401028 70.9423566,82.8688458 71.0192886,83.0043478 C70.9315705,83.1583155 70.2863553,84.3031905 70.19097,84.4699022 C70.0035782,84.4597591 68.8185394,84.3979899 68.8185394,84.3979899 C68.8185394,84.3979899 68.8540165,84.466001 68.8878042,84.5347923 C68.5559049,84.3992903 67.783596,84.0882339 67.783596,84.0882339 C67.783596,84.0882339 68.286383,85.3113931 68.3958032,85.578626 C67.0106372,86.0361079 65.9872596,86.8514607 65.4493853,87.5079042 C65.2059839,87.1822833 63.8989195,85.4342812 63.8989195,85.4342812 L63.5645511,85.578626 L65.1684275,94.7798891 C65.1684275,94.7798891 67.4505271,95.36325 71.6687923,95.36325 C75.8879671,95.36325 78.1699367,94.7798891 78.1699367,94.7798891 L78.1699367,94.7798891 Z" id="path250" fill="#FFFFFF" mask="url(#mask-6)"></path>
                </g>
                <g id="path252-Clipped">
                    <mask id="mask-8" fill="white">
                        <use xlink:href="#path-7"></use>
                    </mask>
                    <g id="SVGID_1_"></g>
                    <path d="M65.7133193,88.4474456 L66.1009682,88.9670867 C67.0488433,87.1121915 68.9444636,86.9023065 68.9444636,86.9023065 C67.3183652,87.5064738 66.6426111,88.4607097 66.4227311,89.3945292 L66.7863388,89.8817903 C66.7863388,89.8817903 66.7392959,91.1909062 66.9999811,91.7404567 C67.0819812,91.709377 67.1765868,91.6755665 67.2835379,91.6394153 C66.4374158,88.1517339 69.1829268,87.5090746 69.1829268,87.5090746 C67.2433825,88.5123357 67.4240168,90.2984395 67.8188131,91.4766048 C67.9802144,91.432001 68.1569501,91.3873972 68.3508396,91.3437036 L68.6438829,89.8958347 C68.3928143,89.7985645 68.2141293,89.554869 68.2141293,89.2693004 C68.2141293,88.8997258 68.5147099,88.5969919 68.8848153,88.5969919 C69.1022262,88.5969919 69.2946861,88.7012843 69.418661,88.861624 C69.5966962,88.9734587 69.7167725,89.1732006 69.7167725,89.3997308 C69.7167725,89.6383548 69.5840908,89.8464194 69.3889018,89.9544829 L70.0042279,91.0790716 C70.3296295,91.0466915 70.6659472,91.0230242 71.0066832,91.0115806 L69.0176269,86.1649778 C67.4748283,86.6149173 66.2657482,87.4482157 65.7133193,88.4474456" id="path252" fill="#FFFFFF" mask="url(#mask-8)"></path>
                </g>
                <g id="path254-Clipped">
                    <mask id="mask-10" fill="white">
                        <use xlink:href="#path-9"></use>
                    </mask>
                    <g id="SVGID_1_"></g>
                    <path d="M74.0075513,89.8462893 C73.810413,89.729253 73.6777313,89.5154667 73.6777313,89.2691704 C73.6777313,88.8989456 73.9789617,88.5981623 74.3495868,88.5981623 C74.5656982,88.5981623 74.7595876,88.7011542 74.882393,88.861494 C75.0602982,88.9733286 75.1805045,89.1725504 75.1805045,89.3996008 C75.1805045,89.6908911 74.984016,89.9365373 74.7157936,90.0090998 L74.986615,91.3430534 C75.1805045,91.3875272 75.3572402,91.432131 75.5187714,91.477255 C75.9147373,90.2997399 76.0947218,88.5123357 74.1532283,87.5090746 C74.1532283,87.5090746 76.8987393,88.1516038 76.0539167,91.6387651 C76.1607378,91.6755665 76.2554733,91.709377 76.3374735,91.7404567 C76.5981586,91.1909062 76.5511158,89.8817903 76.5511158,89.8817903 L76.916023,89.3958296 C76.6948435,88.4601895 76.0192193,87.5066038 74.393121,86.9023065 C74.393121,86.9023065 76.2887412,87.1134919 77.2364864,88.9670867 L77.6242653,88.4474456 C77.0724861,87.4480857 75.8640558,86.6141371 74.3199576,86.1649778 L72.3309014,91.0109304 C72.6702079,91.0230242 73.0065255,91.0459113 73.3320571,91.0789415 L74.0075513,89.8462893 L74.0075513,89.8462893 Z" id="path254" fill="#FFFFFF" mask="url(#mask-10)"></path>
                </g>
                <g id="path256-Clipped">
                    <mask id="mask-12" fill="white">
                        <use xlink:href="#path-11"></use>
                    </mask>
                    <g id="SVGID_1_"></g>
                    <path d="M68.8853351,89.7800988 C68.6037275,89.7800988 68.3747509,89.5509677 68.3747509,89.2698206 C68.3747509,88.9880232 68.6037275,88.7603226 68.8853351,88.7603226 C69.1662928,88.7603226 69.3957893,88.9880232 69.3957893,89.2698206 C69.3957893,89.5510978 69.1662928,89.7800988 68.8853351,89.7800988 M68.8853351,88.6960827 C68.5686403,88.6960827 68.3126335,88.9543427 68.3126335,89.2698206 C68.3126335,89.5860786 68.5687703,89.8442087 68.8853351,89.8442087 C69.2012501,89.8442087 69.4580367,89.5860786 69.4580367,89.2698206 C69.4580367,88.9544728 69.2012501,88.6960827 68.8853351,88.6960827" id="path256" fill="#FFFFFF" mask="url(#mask-12)"></path>
                </g>
                <g id="path258-Clipped">
                    <mask id="mask-14" fill="white">
                        <use xlink:href="#path-13"></use>
                    </mask>
                    <g id="SVGID_1_"></g>
                    <path d="M74.3495868,89.7800988 C74.0686291,89.7800988 73.8397823,89.5509677 73.8397823,89.2698206 C73.8397823,88.9880232 74.0686291,88.7603226 74.3495868,88.7603226 C74.6311944,88.7603226 74.8587416,88.9880232 74.8587416,89.2698206 C74.8587416,89.5510978 74.6311944,89.7800988 74.3495868,89.7800988 M74.9229382,89.2699506 C74.9229382,88.9544728 74.6661516,88.6962127 74.3495868,88.6962127 C74.0336718,88.6962127 73.7755857,88.9544728 73.7755857,89.2699506 C73.7755857,89.5862087 74.0336718,89.8443387 74.3495868,89.8443387 C74.6661516,89.8443387 74.9229382,89.5860786 74.9229382,89.2699506" id="path258" fill="#FFFFFF" mask="url(#mask-14)"></path>
                </g>
                <g id="path260-Clipped">
                    <mask id="mask-16" fill="white">
                        <use xlink:href="#path-15"></use>
                    </mask>
                    <g id="SVGID_1_"></g>
                    <path id="path260" fill="#FFFFFF" mask="url(#mask-16)"></path>
                </g>
                <g id="path262-Clipped">
                    <mask id="mask-18" fill="white">
                        <use xlink:href="#path-17"></use>
                    </mask>
                    <g id="SVGID_1_"></g>
                    <path d="M65.0197616,90.0110504 C64.9701197,90.0110504 64.9206077,90.0174224 64.8748643,90.0282157 L64.8907186,90.1204143 C64.9320435,90.1102712 64.9751878,90.103249 65.0197616,90.103249 C65.3394453,90.103249 65.5988309,90.383746 65.5988309,90.7304335 C65.5988309,91.0452611 65.3827195,91.3074224 65.1017618,91.3500756 L65.1182658,91.441624 C65.4424978,91.3906482 65.6909674,91.0911653 65.6909674,90.7304335 C65.6909674,90.3327702 65.3903868,90.0110504 65.0197616,90.0110504" id="path262" fill="#FFFFFF" mask="url(#mask-18)"></path>
                </g>
                <g id="path264-Clipped">
                    <mask id="mask-20" fill="white">
                        <use xlink:href="#path-19"></use>
                    </mask>
                    <g id="SVGID_1_"></g>
                    <path id="path264" fill="#FFFFFF" mask="url(#mask-20)"></path>
                </g>
                <g id="path266-Clipped">
                    <mask id="mask-22" fill="white">
                        <use xlink:href="#path-21"></use>
                    </mask>
                    <g id="SVGID_1_"></g>
                    <path d="M78.2189289,91.441624 L78.2341334,91.3500756 C77.9544751,91.3074224 77.7370642,91.0452611 77.7370642,90.7304335 C77.7370642,90.383746 77.9977494,90.1038992 78.3174331,90.1038992 C78.3620068,90.1038992 78.4052811,90.1089708 78.4464761,90.1204143 L78.4623303,90.0282157 C78.4154174,90.0174224 78.367075,90.0110504 78.3174331,90.0110504 C77.9468079,90.0110504 77.6462273,90.3329002 77.6462273,90.7304335 C77.6462273,91.0910353 77.8946969,91.3906482 78.2189289,91.441624" id="path266" fill="#FFFFFF" mask="url(#mask-22)"></path>
                </g>
                <g id="path268-Clipped">
                    <mask id="mask-24" fill="white">
                        <use xlink:href="#path-23"></use>
                    </mask>
                    <g id="SVGID_1_"></g>
                    <path d="M71.4038187,85.8311643 C71.4038187,85.684869 71.5220757,85.5665323 71.6689222,85.5665323 C71.8138195,85.5665323 71.933376,85.684869 71.933376,85.8311643 C71.933376,85.9768095 71.8138195,86.0950161 71.6689222,86.0950161 C71.5220757,86.0950161 71.4038187,85.9768095 71.4038187,85.8311643 M71.9670338,85.8311643 C71.9670338,85.6669234 71.8330525,85.5320716 71.6689222,85.5320716 C71.5037523,85.5320716 71.3695112,85.6669234 71.3695112,85.8311643 C71.3695112,85.9952752 71.5036224,86.1288266 71.6689222,86.1288266 C71.8330525,86.1288266 71.9670338,85.9952752 71.9670338,85.8311643" id="path268" fill="#FFFFFF" mask="url(#mask-24)"></path>
                </g>
                <g id="path270-Clipped">
                    <mask id="mask-26" fill="white">
                        <use xlink:href="#path-25"></use>
                    </mask>
                    <g id="SVGID_1_"></g>
                    <path d="M73.2798161,86.13962 C73.4253631,86.13962 73.5436201,86.2599073 73.5436201,86.4055524 C73.5436201,86.5511976 73.4253631,86.6701845 73.2798161,86.6701845 C73.1336193,86.6701845 73.0153623,86.5511976 73.0153623,86.4055524 C73.0153623,86.2599073 73.1336193,86.13962 73.2798161,86.13962 M73.2798161,86.7038649 C73.4438164,86.7038649 73.5779276,86.5696633 73.5779276,86.4055524 C73.5779276,86.2401411 73.4438164,86.1059395 73.2798161,86.1059395 C73.1158158,86.1059395 72.9817045,86.2400111 72.9817045,86.4055524 C72.9817045,86.5696633 73.1158158,86.7038649 73.2798161,86.7038649" id="path270" fill="#FFFFFF" mask="url(#mask-26)"></path>
                </g>
                <g id="path272-Clipped">
                    <mask id="mask-28" fill="white">
                        <use xlink:href="#path-27"></use>
                    </mask>
                    <g id="SVGID_1_"></g>
                    <path d="M69.9049441,86.13962 C70.0511409,86.13962 70.1693978,86.2599073 70.1693978,86.4055524 C70.1693978,86.5511976 70.0511409,86.6701845 69.9049441,86.6701845 C69.759397,86.6701845 69.6411401,86.5511976 69.6411401,86.4055524 C69.6411401,86.2599073 69.759397,86.13962 69.9049441,86.13962 M69.9049441,86.7038649 C70.0690744,86.7038649 70.2030556,86.5696633 70.2030556,86.4055524 C70.2030556,86.2401411 70.0690744,86.1059395 69.9049441,86.1059395 C69.7397742,86.1059395 69.605533,86.2400111 69.605533,86.4055524 C69.605533,86.5696633 69.7396442,86.7038649 69.9049441,86.7038649" id="path272" fill="#FFFFFF" mask="url(#mask-28)"></path>
                </g>
            </g>
            <path d="M50.12848,79.7861099 L93.3716754,79.7861099 L93.3716754,86.6775968 L71.7504026,102.314295 L50.12848,86.6775968 L50.12848,79.7861099 L50.12848,79.7861099 Z M94.8254564,87.4211673 L94.8254564,77.2561754 L48.674699,77.2561754 L48.674699,87.4211673 L71.7504026,104.109372 L94.8254564,87.4211673 L94.8254564,87.4211673 Z" id="path274" fill="#B0B7BB"></path>
            <path d="M93.3710256,73.6844879 L50.12848,73.6844879 L50.12848,50.0335341 L93.3710256,50.0335341 L93.3710256,73.6844879 L93.3710256,73.6844879 Z M94.8254564,48.5768225 L48.6740492,48.5768225 L48.6740492,75.8301532 L94.8254564,75.8301532 L94.8254564,48.5768225 L94.8254564,48.5768225 Z" id="path276" fill="#B0B7BB"></path>
            <g id="g278" transform="translate(0.080831, 0.036671)">
                <g id="path286-Clipped">
                    <mask id="mask-30" fill="white">
                        <use xlink:href="#path-29"></use>
                    </mask>
                    <g id="SVGID_3_"></g>
                    <path d="M72.5455832,54.112379 L91.3926255,54.112379 C90.9700192,55.1021159 90.2344869,57.4493437 90.2344869,61.8219496 C90.2344869,66.1952056 90.9700192,68.5411331 91.3926255,69.5315202 L88.3687557,69.5315202 L88.3687557,63.5076623 L75.5711423,63.5076623 L75.5711423,69.5315202 L72.5454533,69.5315202 C72.9688392,68.5411331 73.7055412,66.1952056 73.7055412,61.8219496 C73.7056711,57.4493437 72.9689692,55.1021159 72.5455832,54.112379 L72.5455832,54.112379 Z M75.9451463,69.9048659 L75.9451463,63.8828286 L87.9950117,63.8828286 L87.9950117,69.9048659 L91.9946964,69.9048659 C91.9946964,69.9048659 90.6075811,67.7777964 90.6075811,61.8219496 C90.6075811,55.8680534 91.9946964,53.738253 91.9946964,53.738253 L71.9454616,53.738253 C71.9454616,53.738253 73.3319271,55.8680534 73.3319271,61.8219496 C73.3319271,67.7777964 71.9454616,69.9048659 71.9454616,69.9048659 L75.9451463,69.9048659 L75.9451463,69.9048659 Z" id="path286" fill="#B0B7BB" mask="url(#mask-30)"></path>
                </g>
            </g>
            <path d="M88.0751926,60.9712258 L76.0253271,60.9712258 L76.0253271,56.7226783 L88.0751926,56.7226783 L88.0751926,60.9712258 L88.0751926,60.9712258 Z M88.4503661,56.3473819 L75.6515831,56.3473819 L75.6515831,61.3453518 L88.4503661,61.3453518 L88.4503661,56.3473819 L88.4503661,56.3473819 Z" id="path288" fill="#B0B7BB"></path>
            <path d="M52.0260496,54.1490503 L56.2093574,54.1490503 C55.787271,55.1387872 55.0531681,57.486015 55.0531681,61.858621 L55.0531681,67.3692097 L63.7650682,67.3692097 C67.1030336,67.3692097 69.1041754,66.3590565 70.0607574,65.7050837 C69.8802531,67.7139466 69.0881913,69.1330766 68.8136012,69.5681915 L52.0260496,69.5681915 C52.4494355,68.5778044 53.1835384,66.231877 53.1835384,61.858621 C53.1835384,57.486015 52.448136,55.1387872 52.0260496,54.1490503 L52.0260496,54.1490503 Z M69.0156776,69.9415373 C69.0156776,69.9415373 70.4815443,67.9448982 70.4815443,64.9016946 C70.4815443,64.9016946 68.4753343,66.9952137 63.7649382,66.9952137 L55.4269121,66.9952137 L55.4269121,61.858621 C55.4269121,55.9047247 56.8120781,53.7749243 56.8120781,53.7749243 L51.4246284,53.7749243 C51.4246284,53.7749243 52.8097944,55.9047247 52.8097944,61.858621 C52.8097944,67.8144677 51.4246284,69.9415373 51.4246284,69.9415373 L69.0156776,69.9415373 L69.0156776,69.9415373 Z" id="path290" fill="#B0B7BB"></path>
            <path d="M70.0881774,86.8384567 C70.0195624,86.8384567 69.9553657,86.8175202 69.9018252,86.7800685 C69.7499105,86.7431371 69.6360719,86.6050343 69.6360719,86.4410534 C69.6360719,86.249504 69.7937045,86.0917651 69.9851249,86.0917651 C70.0983137,86.0917651 70.1987672,86.1465121 70.2629638,86.2298679 C70.3551003,86.2877359 70.4173476,86.391378 70.4173476,86.5090645 C70.4173476,86.6908609 70.2705011,86.8384567 70.0881774,86.8384567 L70.0881774,86.8384567 Z M70.7276747,85.9798004 L68.8619436,85.1420806 L70.7276747,89.6877702 L70.7276747,85.9798004 L70.7276747,85.9798004 Z" id="path292" fill="#B0B7BB"></path>
            <path d="M73.4635692,86.8384567 C73.3943044,86.8384567 73.329458,86.8175202 73.2761774,86.7800685 C73.1249124,86.7431371 73.0117236,86.6050343 73.0117236,86.4410534 C73.0117236,86.249504 73.1680567,86.0917651 73.3607766,86.0917651 C73.4726659,86.0917651 73.5731194,86.1465121 73.6366662,86.2298679 C73.730752,86.2877359 73.7929993,86.391378 73.7929993,86.5090645 C73.7928694,86.6908609 73.6447233,86.8384567 73.4635692,86.8384567 L73.4635692,86.8384567 Z M72.7706613,85.9798004 L72.7706613,89.6877702 L74.6362625,85.1420806 L72.7706613,85.9798004 L72.7706613,85.9798004 Z" id="path294" fill="#B0B7BB"></path>
            <path d="M71.40018,85.8665353 C71.40018,85.6738155 71.5565131,85.5178972 71.749233,85.5178972 C71.9419529,85.5178972 72.098286,85.6736855 72.098286,85.8665353 C72.098286,86.0610756 71.9419529,86.216994 71.749233,86.216994 C71.5565131,86.216994 71.40018,86.0610756 71.40018,85.8665353 L71.40018,85.8665353 Z M72.5837893,85.9008659 L71.749103,84.8119083 L70.9157163,85.9008659 L71.749103,86.8919032 L72.5837893,85.9008659 L72.5837893,85.9008659 Z" id="path296" fill="#B0B7BB"></path>
            <path d="M77.2928859,91.4897389 L77.5514918,91.1252359 L77.7314763,91.4000111 L77.2928859,91.4897389 L77.2928859,91.4897389 Z M77.4828767,90.6819284 L77.5115963,91.0088498 L77.0818427,90.8816704 L77.4828767,90.6819284 L77.4828767,90.6819284 Z M77.6545443,90.2237964 L77.5114663,90.5189879 L77.2075069,90.1895958 L77.6545443,90.2237964 L77.6545443,90.2237964 Z M78.0359555,89.9185917 L77.762535,90.0986976 L77.6697487,89.6609819 L78.0359555,89.9185917 L78.0359555,89.9185917 Z M78.3378356,89.442124 L78.5202893,89.8512308 L78.1922886,89.8664456 L78.3378356,89.442124 L78.3378356,89.442124 Z M75.8867975,92.9826018 C75.8371556,92.9826018 75.7925818,92.9698579 75.7513868,92.9489214 C75.7526863,92.9489214 75.7551554,92.9502218 75.7564549,92.9502218 C75.9428071,92.9502218 76.0934223,92.7988548 76.0934223,92.6130272 C76.0934223,92.5335726 76.0660023,92.4616603 76.0209087,92.4044425 C76.1207124,92.4541179 76.1912767,92.5571099 76.1912767,92.6780474 C76.1912767,92.8457994 76.055866,92.9826018 75.8867975,92.9826018 L75.8867975,92.9826018 Z M75.4843339,92.6130272 C75.4843339,92.4616603 75.6063595,92.3394224 75.7564549,92.3394224 C75.9057706,92.3394224 76.0285759,92.4615302 76.0285759,92.6130272 C76.0285759,92.7624435 75.9059005,92.8853317 75.7564549,92.8853317 C75.6064895,92.8853317 75.4843339,92.7625736 75.4843339,92.6130272 L75.4843339,92.6130272 Z M73.2792963,92.5190081 C73.2296543,92.5190081 73.183911,92.5075645 73.1419362,92.486498 L73.1489537,92.486498 C73.3353059,92.486498 73.4859211,92.335131 73.4859211,92.1487833 C73.4859211,92.0710192 73.4572015,91.9992369 73.4115881,91.9420192 C73.5132112,91.9915645 73.5837755,92.0940363 73.5837755,92.2143236 C73.5836455,92.3822056 73.4470652,92.5190081 73.2792963,92.5190081 L73.2792963,92.5190081 Z M72.8755332,92.1487833 C72.8755332,91.9992369 72.9975588,91.8764788 73.1489537,91.8764788 C73.2982694,91.8764788 73.4210747,91.9991069 73.4210747,92.1487833 C73.4210747,92.3001502 73.2983993,92.4216079 73.1489537,92.4216079 C72.9976887,92.4216079 72.8755332,92.3001502 72.8755332,92.1487833 L72.8755332,92.1487833 Z M71.8622919,90.1843942 C71.8145992,90.1843942 71.7687259,90.1729506 71.7268811,90.1518841 L71.7338986,90.1518841 C71.9183015,90.1518841 72.070866,90.0005171 72.070866,89.8141694 C72.070866,89.7352349 72.0421464,89.664623 71.996533,89.6061048 C72.098156,89.6556502 72.1687204,89.7594224 72.1687204,89.8795796 C72.1687204,90.0477218 72.0320101,90.1843942 71.8622919,90.1843942 L71.8622919,90.1843942 Z M71.4599583,89.8142994 C71.4599583,89.664753 71.5826336,89.541995 71.7338986,89.541995 C71.8832143,89.541995 72.0060196,89.664623 72.0060196,89.8142994 C72.0060196,89.9643659 71.8833442,90.0864738 71.7338986,90.0864738 C71.5826336,90.0864738 71.4599583,89.9643659 71.4599583,89.8142994 L71.4599583,89.8142994 Z M70.2909036,92.5190081 C70.2419115,92.5190081 70.1961681,92.5075645 70.1554929,92.486498 L70.1612108,92.486498 C70.3467833,92.486498 70.4980483,92.335131 70.4980483,92.1487833 C70.4980483,92.0710192 70.4707582,91.9992369 70.4248849,91.9420192 C70.5266379,91.9915645 70.5959027,92.0940363 70.5959027,92.2143236 C70.5960326,92.3822056 70.4593224,92.5190081 70.2909036,92.5190081 L70.2909036,92.5190081 Z M69.8892198,92.1487833 C69.8892198,91.9992369 70.0112454,91.8764788 70.1613408,91.8764788 C70.311956,91.8764788 70.4347613,91.9991069 70.4347613,92.1487833 C70.4347613,92.3001502 70.3120859,92.4216079 70.1613408,92.4216079 C70.0112454,92.4216079 69.8892198,92.3001502 69.8892198,92.1487833 L69.8892198,92.1487833 Z M67.6884706,92.9826018 C67.6394784,92.9826018 67.593735,92.9698579 67.5530598,92.9489214 C67.5543594,92.9489214 67.5574782,92.9502218 67.5587778,92.9502218 C67.7443502,92.9502218 67.8957451,92.7988548 67.8957451,92.6130272 C67.8957451,92.5335726 67.8683251,92.4616603 67.8225818,92.4044425 C67.9229053,92.4541179 67.9934696,92.5571099 67.9934696,92.6780474 C67.9935995,92.8457994 67.8581888,92.9826018 67.6884706,92.9826018 L67.6884706,92.9826018 Z M67.2866568,92.6130272 C67.2866568,92.4616603 67.4086824,92.3394224 67.5587778,92.3394224 C67.7080934,92.3394224 67.8308987,92.4615302 67.8308987,92.6130272 C67.8308987,92.7624435 67.7082234,92.8853317 67.5587778,92.8853317 C67.4088123,92.8853317 67.2866568,92.7625736 67.2866568,92.6130272 L67.2866568,92.6130272 Z M65.9886891,91.0087198 L66.0172787,90.6817984 L66.4171432,90.8815403 L65.9886891,91.0087198 L65.9886891,91.0087198 Z M65.7686791,91.4000111 L65.9467143,91.1252359 L66.2073995,91.4897389 L65.7686791,91.4000111 L65.7686791,91.4000111 Z M65.8436618,90.2237964 L66.2905692,90.1894657 L65.9873895,90.5188579 L65.8436618,90.2237964 L65.8436618,90.2237964 Z M65.7356711,90.0985675 L65.4622506,89.9184617 L65.8283274,89.6608518 L65.7356711,90.0985675 L65.7356711,90.0985675 Z M64.9779168,89.8511008 L65.16167,89.441994 L65.3065673,89.8663155 L64.9779168,89.8511008 L64.9779168,89.8511008 Z M65.3090364,91.6634728 L65.609617,91.5330423 L65.6248215,91.9807712 L65.3090364,91.6634728 L65.3090364,91.6634728 Z M77.8904084,91.5330423 L78.1898195,91.6634728 L77.8745542,91.9807712 L77.8904084,91.5330423 L77.8904084,91.5330423 Z M78.284555,91.5678931 C77.9178285,91.509505 77.6347915,91.1736109 77.6347915,90.7671048 C77.6347915,90.3200262 77.9774768,89.9568236 78.3976139,89.9568236 C78.4536235,89.9568236 78.5070341,89.9618952 78.5591451,89.9733387 L79.0784362,86.9536724 L76.8173889,89.9758095 C76.8670308,91.4248488 76.5116101,92.0082097 76.5116101,92.0082097 C76.5116101,92.0082097 75.7525563,91.7033952 74.9115024,91.5330423 L74.6146904,90.0699587 C74.4869468,90.0661875 74.3685599,90.0267853 74.269536,89.9592944 C74.2657673,89.957994 74.2618687,89.9566935 74.2581001,89.9555232 L73.5155503,91.3104133 C73.5155503,91.3104133 72.5785912,91.2200353 72.1094619,91.2200353 L72.5277797,89.9185917 L71.749103,87.9085585 L70.9704264,89.9185917 L71.3900437,91.2200353 C70.9215642,91.2200353 69.9839553,91.3104133 69.9839553,91.3104133 L69.2967654,90.0553942 C69.2536211,90.0648871 69.2090473,90.0699587 69.1639537,90.0699587 C69.0686984,90.0699587 68.9777315,90.0477218 68.8970308,90.0101401 L68.588653,91.5330423 C67.7464295,91.7035252 66.9886752,92.0082097 66.9886752,92.0082097 C66.9886752,92.0082097 66.6327347,91.4248488 66.6809472,89.9758095 L64.4198999,86.9536724 L64.9406204,89.9733387 C64.9914319,89.9618952 65.046142,89.9568236 65.1007222,89.9568236 C65.5228086,89.9568236 65.8648441,90.3200262 65.8648441,90.7671048 C65.8648441,91.1736109 65.5812873,91.509505 65.213911,91.5678931 L65.664587,94.182874 C66.3765979,93.908749 68.7717564,93.0818226 71.749233,93.0818226 C74.7280091,93.0818226 77.1232976,93.908619 77.833879,94.182874 L78.284555,91.5678931 L78.284555,91.5678931 Z" id="path298" fill="#B0B7BB"></path>
            <path d="M63.6461614,85.6159476 L63.9792302,85.4709526 C63.9792302,85.4709526 65.2874642,87.2184345 65.5308656,87.5452258 C66.0674404,86.8881321 67.090818,86.0727792 68.4772835,85.6159476 C68.3678634,85.3475444 67.8650763,84.124255 67.8650763,84.124255 C67.8650763,84.124255 68.6373853,84.4364819 68.9692845,84.5708135 C68.9341973,84.5033226 68.9000197,84.4340111 68.9000197,84.4340111 C68.9000197,84.4340111 70.0836291,84.4963004 70.2711508,84.5059234 C70.3658864,84.3393417 71.0117513,83.1949869 71.0988197,83.040369 C71.0225374,82.9061673 70.7770567,82.4774244 70.751716,82.4315202 C70.7097412,82.3965393 70.4078611,82.1389294 70.4078611,82.1389294 L70.8007081,81.3895071 L71.636694,81.4480252 C71.636694,81.4480252 71.6512487,81.8399667 71.6538477,81.9105786 L71.7497528,82.0696179 L71.8463077,81.9105786 C71.8490367,81.8399667 71.8635914,81.4480252 71.8635914,81.4480252 L72.6989274,81.3895071 L73.0922943,82.1389294 C73.0922943,82.1389294 72.7904142,82.3965393 72.7484394,82.4315202 C72.7224489,82.4774244 72.477618,82.9060373 72.3993864,83.040369 C72.488534,83.1948569 73.1336193,84.3392117 73.2290046,84.5059234 C73.4165263,84.4964304 74.5994859,84.4340111 74.5994859,84.4340111 C74.5994859,84.4340111 74.5645286,84.5033226 74.5310008,84.5708135 C74.8627701,84.4366119 75.6350791,84.124255 75.6350791,84.124255 C75.6350791,84.124255 75.1335916,85.3474143 75.0228718,85.6159476 C76.4093374,86.0727792 77.4328449,86.8881321 77.9692897,87.5452258 C78.2128211,87.2183044 79.5209252,85.4709526 79.5209252,85.4709526 L79.853994,85.6159476 L78.2514171,94.8172107 C78.2514171,94.8172107 75.9681479,95.3994012 71.7497528,95.3994012 C67.5320075,95.3994012 65.2487383,94.8172107 65.2487383,94.8172107 L63.6461614,85.6159476 L63.6461614,85.6159476 Z M93.3716754,86.6775968 L93.3716754,79.7861099 L50.12848,79.7861099 L50.12848,86.6775968 L71.7497528,102.314295 L93.3716754,86.6775968 L93.3716754,86.6775968 Z" id="path300" fill="#000000"></path>
            <path d="M92.075527,69.9415373 L88.0751926,69.9415373 L88.0751926,63.9195 L76.0266266,63.9195 L76.0266266,69.9415373 L72.0256424,69.9415373 C72.0256424,69.9415373 73.4121079,67.8144677 73.4121079,61.858621 C73.4121079,55.9047247 72.0256424,53.7749243 72.0256424,53.7749243 L92.075527,53.7749243 C92.075527,53.7749243 90.6890615,55.9047247 90.6890615,61.858621 C90.6890615,67.8144677 92.075527,69.9415373 92.075527,69.9415373 L92.075527,69.9415373 Z M69.0156776,69.9415373 L51.4252782,69.9415373 C51.4252782,69.9415373 52.8104442,67.8144677 52.8104442,61.858621 C52.8104442,55.9047247 51.4252782,53.7749243 51.4252782,53.7749243 L56.8107786,53.7749243 C56.8107786,53.7749243 55.4256126,55.9047247 55.4256126,61.858621 L55.4256126,66.9952137 L63.7657179,66.9952137 C68.4754642,66.9952137 70.4816742,64.9016946 70.4816742,64.9016946 C70.4815443,67.9448982 69.0156776,69.9415373 69.0156776,69.9415373 L69.0156776,69.9415373 Z M93.3710256,50.0321037 L50.12848,50.0321037 L50.12848,73.6831875 L93.3710256,73.6831875 L93.3710256,50.0321037 L93.3710256,50.0321037 Z" id="path302" fill="#000000"></path>
            <rect id="rect304" fill="#000000" x="76.0266253" y="56.7226786" width="12.0498652" height="4.24854751"></rect>
            <g id="g306" transform="translate(0.080831, 0.036671)">
                <g id="path314-Clipped">
                    <mask id="mask-32" fill="white">
                        <use xlink:href="#path-31"></use>
                    </mask>
                    <g id="SVGID_5_"></g>
                    <path d="M68.8853351,88.7598024 C68.6037275,88.7598024 68.3747509,88.9888034 68.3747509,89.2693004 C68.3747509,89.551748 68.6037275,89.7802288 68.8853351,89.7802288 C69.1662928,89.7802288 69.3957893,89.551748 69.3957893,89.2693004 C69.3957893,88.9886734 69.1662928,88.7598024 68.8853351,88.7598024" id="path314" fill="#000000" mask="url(#mask-32)"></path>
                </g>
                <g id="path316-Clipped">
                    <mask id="mask-34" fill="white">
                        <use xlink:href="#path-33"></use>
                    </mask>
                    <g id="SVGID_5_"></g>
                    <path d="M74.3495868,88.7598024 C74.0679793,88.7598024 73.8391326,88.9888034 73.8391326,89.2693004 C73.8391326,89.551748 74.0679793,89.7802288 74.3495868,89.7802288 C74.6305446,89.7802288 74.8587416,89.551748 74.8587416,89.2693004 C74.8587416,88.9886734 74.6305446,88.7598024 74.3495868,88.7598024" id="path316" fill="#000000" mask="url(#mask-34)"></path>
                </g>
                <g id="path318-Clipped">
                    <mask id="mask-36" fill="white">
                        <use xlink:href="#path-35"></use>
                    </mask>
                    <g id="SVGID_5_"></g>
                    <path d="M65.5842762,94.1463327 L65.1336002,91.5313518 C65.5009765,91.4729637 65.7845333,91.1370696 65.7845333,90.7305635 C65.7845333,90.2834849 65.4411983,89.9202823 65.0191119,89.9202823 C64.9644018,89.9202823 64.9109912,89.9253538 64.8590101,89.9374476 L64.3395891,86.917131 L66.6006364,89.9399183 C66.5511244,91.3883075 66.9070649,91.9723185 66.9070649,91.9723185 C66.9070649,91.9723185 67.6646892,91.6668538 68.5070427,91.496501 L68.81672,89.9735988 C68.8974207,90.0111804 68.987088,90.0334173 69.0837729,90.0334173 C69.1295162,90.0334173 69.1733103,90.0283458 69.215285,90.019503 L69.902475,91.273872 C69.902475,91.273872 70.8400838,91.1841442 71.3085633,91.1841442 L70.8902456,89.8827006 L71.6689222,87.8726673 L72.4475989,89.8827006 L72.0279816,91.1841442 C72.4971109,91.1841442 73.4340699,91.273872 73.4340699,91.273872 L74.1779193,89.9189819 C74.1805183,89.9202823 74.184287,89.9215827 74.1893551,89.922753 C74.2872095,89.9907641 74.4054665,90.0295161 74.53321,90.0334173 L74.830022,91.496501 C75.6722456,91.6669839 76.4312994,91.9723185 76.4312994,91.9723185 C76.4312994,91.9723185 76.7854205,91.3883075 76.7370781,89.9399183 L78.9981254,86.917131 L78.4775348,89.9374476 C78.4254238,89.9253538 78.3718833,89.9202823 78.3173031,89.9202823 C77.8958665,89.9202823 77.5533111,90.2834849 77.5533111,90.7305635 C77.5533111,91.1370696 77.8360882,91.4729637 78.2042443,91.5313518 L77.754088,94.1463327 C77.0415573,93.8727278 74.6462689,93.0452812 71.6687923,93.0452812 C68.6901461,93.0452812 66.2948577,93.8727278 65.5842762,94.1463327 L65.5842762,94.1463327 Z M65.1024115,91.3505958 C65.3833693,91.3072923 65.5994807,91.0457812 65.5994807,90.7303034 C65.5994807,90.3836159 65.3394453,90.1037692 65.0191119,90.1037692 C64.9745381,90.1037692 64.9320435,90.1088407 64.8900688,90.1189839 L64.8748643,90.0280857 C64.9212575,90.0179425 64.9695999,90.0109204 65.0191119,90.0109204 C65.3915563,90.0109204 65.6922669,90.3327702 65.6922669,90.7303034 C65.6922669,91.0909052 65.4424978,91.3905181 65.1182658,91.441494 L65.1024115,91.3505958 L65.1024115,91.3505958 Z M64.9542654,90.4893387 C64.9745381,90.4829667 64.9968899,90.4790655 65.0191119,90.4790655 C65.1494544,90.4790655 65.2548461,90.5910302 65.2548461,90.7304335 C65.2548461,90.8621643 65.1595907,90.9702278 65.0387347,90.980501 L64.9542654,90.4893387 L64.9542654,90.4893387 Z M68.8859848,89.8443387 C68.5692901,89.8443387 68.3113339,89.5868589 68.3113339,89.2699506 C68.3113339,88.9531724 68.5692901,88.6968629 68.8859848,88.6968629 C69.2018999,88.6968629 69.4586865,88.9533024 69.4586865,89.2699506 C69.4586865,89.5867288 69.2018999,89.8443387 68.8859848,89.8443387 L68.8859848,89.8443387 Z M69.0169772,86.1644577 L71.0066832,91.0115806 C70.6665969,91.0236744 70.3309291,91.0459113 70.0055275,91.0795917 L69.3895516,89.9537026 C69.5847406,89.8468095 69.7163827,89.638875 69.7163827,89.400251 C69.7163827,89.1719002 69.5981257,88.9728085 69.4181412,88.8609738 C69.2962456,88.7018044 69.1015764,88.5976421 68.8861148,88.5976421 C68.5148399,88.5976421 68.2141293,88.8997258 68.2141293,89.2699506 C68.2141293,89.5555192 68.393464,89.7980444 68.6450525,89.8953145 L68.3507096,91.3438337 C68.1568202,91.3883075 67.9795647,91.4329113 67.8180334,91.4767349 C67.4238868,90.2992198 67.2426028,88.5118155 69.1840964,87.5098548 C69.1840964,87.5098548 66.4379356,88.1510837 67.2827582,91.6395454 C67.1765868,91.6750464 67.0812015,91.7088569 67.0005009,91.7399365 C66.7398158,91.1916865 66.7856891,89.8812702 66.7856891,89.8812702 L66.4227311,89.3953095 C66.6426111,88.4608397 67.3184952,87.507254 68.9457631,86.9017863 C68.9457631,86.9017863 67.0488433,87.1129718 66.1022677,88.9665665 L65.7133193,88.4482258 C66.266398,87.4488659 67.4741785,86.6149173 69.0169772,86.1644577 L69.0169772,86.1644577 Z M68.7803333,85.1052792 L70.6467142,85.942999 L70.6467142,89.6503185 L68.7803333,85.1052792 L68.7803333,85.1052792 Z M71.6689222,84.7752369 L72.5036085,85.8648448 L71.6689222,86.8558821 L70.8342359,85.8648448 L71.6689222,84.7752369 L71.6689222,84.7752369 Z M72.6898308,85.943129 L74.5567315,85.1054093 L72.6898308,89.6504486 L72.6898308,85.943129 L72.6898308,85.943129 Z M74.3495868,89.8443387 C74.033022,89.8443387 73.7755857,89.5868589 73.7755857,89.2699506 C73.7755857,88.9531724 74.033022,88.6968629 74.3495868,88.6968629 C74.6662816,88.6968629 74.9222884,88.9533024 74.9222884,89.2699506 C74.9222884,89.5867288 74.6661516,89.8443387 74.3495868,89.8443387 L74.3495868,89.8443387 Z M77.6240054,88.4480958 L77.2355767,88.9664365 C76.2878316,87.1128417 74.3928611,86.9016562 74.3928611,86.9016562 C76.020129,87.507124 76.6939338,88.4607097 76.9157631,89.3951794 L76.5521554,89.8811401 C76.5521554,89.8811401 76.5980287,91.1915565 76.3373436,91.7398065 C76.2553434,91.7087268 76.1607378,91.6749163 76.0537867,91.6394153 C76.8999089,88.1509536 74.1530983,87.5097248 74.1530983,87.5097248 C76.0939421,88.5116855 75.9146074,90.2990897 75.519941,91.4766048 C75.3571102,91.4326512 75.1805045,91.3880474 74.9859653,91.3437036 L74.7170931,90.00975 C74.9834962,89.9360171 75.1805045,89.6910212 75.1805045,89.400251 C75.1805045,89.1719002 75.0615977,88.9728085 74.882393,88.8609738 C74.7597176,88.7018044 74.5656982,88.5976421 74.3495868,88.5976421 C73.9784419,88.5976421 73.6777313,88.8997258 73.6777313,89.2699506 C73.6777313,89.516247 73.810413,89.7286028 74.0069015,89.8469395 L73.3312774,91.0797218 C73.0057458,91.0459113 72.6713775,91.0236744 72.3307714,91.0117107 L74.3198277,86.1645877 C75.8637959,86.6149173 77.0715764,87.4488659 77.6240054,88.4480958 L77.6240054,88.4480958 Z M78.4464761,90.1191139 C78.4052811,90.1089708 78.3620068,90.1038992 78.3174331,90.1038992 C77.9990489,90.1038992 77.7370642,90.383746 77.7370642,90.7304335 C77.7370642,91.0459113 77.9544751,91.3074224 78.2341334,91.3507258 L78.2189289,91.441624 C77.8946969,91.3906482 77.6462273,91.0911653 77.6462273,90.7304335 C77.6462273,90.3327702 77.9468079,90.0110504 78.3174331,90.0110504 C78.367075,90.0110504 78.4154174,90.0180726 78.4623303,90.0282157 L78.4464761,90.1191139 L78.4464761,90.1191139 Z M78.29846,90.980501 C78.1769542,90.9702278 78.0823486,90.8621643 78.0823486,90.7304335 C78.0823486,90.5911603 78.1872204,90.4790655 78.317563,90.4790655 C78.3399149,90.4790655 78.3621368,90.4829667 78.3843587,90.4893387 L78.29846,90.980501 L78.29846,90.980501 Z M75.2814777,93.6170685 C74.1556974,94.0317671 72.5036085,94.2035504 72.5036085,94.2035504 C73.6166535,94.2035504 74.8263833,94.07312 75.6762741,93.9586845 C74.549844,94.3841764 72.8538311,94.5590806 72.8538311,94.5590806 C74.107355,94.5590806 75.4835542,94.3937994 76.3296763,94.2722117 C75.0888878,94.7493296 72.9980786,94.9433498 72.9980786,94.9433498 C76.0748391,94.8598639 77.8958665,94.4013417 77.8958665,94.4013417 L79.3083225,86.1955373 L77.8787127,88.1063498 C77.251301,87.0841028 76.0327344,86.259127 74.4690134,85.7991744 L74.9012361,84.7483185 L72.6897008,85.7419567 L72.6897008,85.1987782 L71.6687923,83.4399829 L70.6467142,85.1987782 L70.6467142,85.7419567 L68.4363484,84.7483185 L68.8672716,85.7991744 C67.3048502,86.259127 66.0862835,87.0841028 65.4575723,88.1063498 L64.0279625,86.1955373 L65.4423678,94.4013417 C65.4423678,94.4013417 67.2636551,94.8598639 70.3396359,94.9433498 C70.3396359,94.9433498 68.2489566,94.7493296 67.0080382,94.2722117 C67.85481,94.3937994 69.22919,94.5590806 70.4825839,94.5590806 C70.4825839,94.5590806 68.7878705,94.3841764 67.6614404,93.9586845 C68.5106814,94.07312 69.7211909,94.2035504 70.834106,94.2035504 C70.834106,94.2035504 69.1807176,94.0318972 68.0549372,93.6170685 C69.0611611,93.4032823 70.2994805,93.2290282 71.6687923,93.2290282 C73.0388837,93.2290282 74.2764234,93.4034123 75.2814777,93.6170685 L75.2814777,93.6170685 Z" id="path318" fill="#000000" mask="url(#mask-36)"></path>
                </g>
            </g>
            <polygon id="polygon320" fill="#000000" points="71.2526837 81.8965341 71.0537261 81.8826198 70.9634089 82.015521 71.0937515 82.1485523 71.6329253 83.0676773 70.5343051 84.9645755 69.6654412 84.9645755 69.7708329 85.1706894 70.6487934 85.1706894 71.7497528 83.2737912 72.8501924 85.1706894 73.7273732 85.1706894 73.8341944 84.9645755 72.9645508 84.9645755 71.8661904 83.0676773 72.4044546 82.1485523 72.5347972 82.015521 72.4452597 81.8826198 72.2450026 81.8965341 72.2131642 82.063896 71.7497528 82.8685856 71.2851719 82.063896"></polygon>
            <g id="g322" transform="translate(45.402620, 0.036671)">
                <g id="path330-Clipped" transform="translate(-0.000000, 0.000000)">
                    <mask id="mask-38" fill="white">
                        <use xlink:href="#path-37"></use>
                    </mask>
                    <g id="SVGID_7_"></g>
                </g>
                <g id="path332-Clipped" transform="translate(-0.000000, 0.000000)">
                    <mask id="mask-40" fill="white">
                        <use xlink:href="#path-39"></use>
                    </mask>
                    <g id="SVGID_7_"></g>
                </g>
                <g id="path334-Clipped" transform="translate(-0.000000, 0.000000)">
                    <mask id="mask-42" fill="white">
                        <use xlink:href="#path-41"></use>
                    </mask>
                    <g id="SVGID_7_"></g>
                </g>
                <g id="path336-Clipped" transform="translate(-0.000000, 0.000000)">
                    <mask id="mask-44" fill="white">
                        <use xlink:href="#path-43"></use>
                    </mask>
                    <g id="SVGID_7_"></g>
                </g>
                <g id="path338-Clipped" transform="translate(-0.000000, 0.000000)">
                    <mask id="mask-46" fill="white">
                        <use xlink:href="#path-45"></use>
                    </mask>
                    <g id="SVGID_7_"></g>
                </g>
                <g id="path340-Clipped" transform="translate(-0.000000, 0.000000)">
                    <mask id="mask-48" fill="white">
                        <use xlink:href="#path-47"></use>
                    </mask>
                    <g id="SVGID_7_"></g>
                </g>
                <g id="path342-Clipped" transform="translate(-0.000000, 0.000000)">
                    <mask id="mask-50" fill="white">
                        <use xlink:href="#path-49"></use>
                    </mask>
                    <g id="SVGID_7_"></g>
                </g>
                <g id="path344-Clipped" transform="translate(-0.000000, 0.000000)">
                    <mask id="mask-52" fill="white">
                        <use xlink:href="#path-51"></use>
                    </mask>
                    <g id="SVGID_7_"></g>
                </g>
                <g id="path346-Clipped" transform="translate(-0.000000, 0.000000)">
                    <mask id="mask-54" fill="white">
                        <use xlink:href="#path-53"></use>
                    </mask>
                    <g id="SVGID_7_"></g>
                </g>
                <g id="path348-Clipped" transform="translate(-0.000000, 0.000000)">
                    <mask id="mask-56" fill="white">
                        <use xlink:href="#path-55"></use>
                    </mask>
                    <g id="SVGID_7_"></g>
                </g>
            </g>
            <polygon id="polygon350" fill="#000000" points="64.9790864 89.8509739 65.3060364 89.8661839 65.1610864 89.4421239"></polygon>
            <polygon id="polygon352" fill="#000000" points="65.4629004 89.9190317 65.7364204 90.0997317 65.8285904 89.6608517"></polygon>
            <polygon id="polygon354" fill="#000000" points="65.8436618 90.2237858 65.9880918 90.5196658 66.2913818 90.1901158"></polygon>
            <polygon id="polygon356" fill="#000000" points="65.9880393 91.0092685 66.4179493 90.8816085 66.0166393 90.6825785"></polygon>
            <polygon id="polygon358" fill="#000000" points="65.7686791 91.3999258 66.2075591 91.4896258 65.9474291 91.1252358"></polygon>
            <polygon id="polygon360" fill="#000000" points="65.3085165 91.6639524 65.6244165 91.9812824 65.6092065 91.5335624"></polygon>
            <polygon id="polygon362" fill="#000000" points="78.1929384 89.8661837 78.5198884 89.8503237 78.3378884 89.4414737"></polygon>
            <polygon id="polygon364" fill="#000000" points="77.7620487 90.0997315 78.0367387 89.9185115 77.6698787 89.6602015"></polygon>
            <polygon id="polygon366" fill="#000000" points="77.5123569 90.5188856 77.6547069 90.2237856 77.2076369 90.1895956"></polygon>
            <polygon id="polygon368" fill="#000000" points="77.0811929 90.8816085 77.5111029 91.0092685 77.4836729 90.6825785"></polygon>
            <polygon id="polygon370" fill="#000000" points="77.2922361 91.4901458 77.7309861 91.4005758 77.5510661 91.1252358"></polygon>
            <polygon id="polygon372" fill="#000000" points="77.8732547 91.9812822 78.1899347 91.6634322 77.8904147 91.5330422"></polygon>
            <rect id="rect374" x="38.0895302" y="64.3408306" width="79.5310615" height="102.991935"></rect>
            <path d="M71.4516413,85.8678357 C71.4516413,85.7035948 71.584453,85.5687429 71.7497528,85.5687429 C71.9138831,85.5687429 72.0478643,85.7035948 72.0478643,85.8678357 C72.0478643,86.0319466 71.9138831,86.165498 71.7497528,86.165498 C71.5845829,86.165498 71.4516413,86.0319466 71.4516413,85.8678357 M72.0988058,85.8678357 C72.0988058,85.6744657 71.9424727,85.5185474 71.7497528,85.5185474 C71.5570329,85.5185474 71.4006998,85.6743357 71.4006998,85.8678357 C71.4006998,86.0604254 71.5570329,86.2164738 71.7497528,86.2164738 C71.9424727,86.2164738 72.0988058,86.0605554 72.0988058,85.8678357" id="path376" fill="#000000"></path>
            <path d="M73.3599969,86.7405363 C73.1959966,86.7405363 73.0618854,86.6063347 73.0618854,86.4422238 C73.0618854,86.2768125 73.1959966,86.1426109 73.3599969,86.1426109 C73.5251668,86.1426109 73.659408,86.2766825 73.659408,86.4422238 C73.659278,86.6063347 73.5251668,86.7405363 73.3599969,86.7405363 M73.6370561,86.2297379 C73.5735092,86.1463821 73.4730558,86.0916351 73.3598669,86.0916351 C73.167277,86.0916351 73.010814,86.249374 73.010814,86.4420937 C73.010814,86.6049042 73.1240028,86.742877 73.2765673,86.7805887 C73.3299778,86.8167399 73.3933947,86.8376764 73.4627895,86.8376764 C73.6445933,86.8376764 73.7920897,86.6907308 73.7920897,86.5082843 C73.7922196,86.391378 73.7298423,86.2883861 73.6370561,86.2297379" id="path378" fill="#000000"></path>
            <path d="M69.9864244,86.7405363 C69.8212545,86.7405363 69.6870134,86.6063347 69.6870134,86.4422238 C69.6870134,86.2768125 69.8211246,86.1426109 69.9864244,86.1426109 C70.1504248,86.1426109 70.284536,86.2766825 70.284536,86.4422238 C70.284536,86.6063347 70.1502948,86.7405363 69.9864244,86.7405363 M70.262314,86.2297379 C70.1987672,86.1463821 70.0983137,86.0916351 69.9864244,86.0916351 C69.7938345,86.0916351 69.6362019,86.249374 69.6362019,86.4420937 C69.6362019,86.6049042 69.7493907,86.742877 69.9019552,86.7805887 C69.9553657,86.8167399 70.0189126,86.8376764 70.0883074,86.8376764 C70.270631,86.8376764 70.4174776,86.6907308 70.4174776,86.5082843 C70.4173476,86.391378 70.3551003,86.2883861 70.262314,86.2297379" id="path380" fill="#000000"></path>
            <path d="M72.0135568,85.8678357 C72.0135568,85.7215403 71.8952999,85.6032036 71.7497528,85.6032036 C71.603556,85.6032036 71.485299,85.7215403 71.485299,85.8678357 C71.485299,86.0134808 71.603556,86.1316875 71.7497528,86.1316875 C71.8952999,86.1316875 72.0135568,86.0134808 72.0135568,85.8678357" id="path382" fill="#000000"></path>
            <path d="M73.3606467,86.1769415 C73.2144499,86.1769415 73.0961929,86.2952782 73.0961929,86.4415736 C73.0961929,86.5872187 73.2144499,86.7055554 73.3606467,86.7055554 C73.5061937,86.7055554 73.6244507,86.5872187 73.6244507,86.4415736 C73.6244507,86.2952782 73.5061937,86.1769415 73.3606467,86.1769415" id="path384" fill="#000000"></path>
            <path d="M69.9857747,86.1769415 C69.8402276,86.1769415 69.7219707,86.2952782 69.7219707,86.4415736 C69.7219707,86.5872187 69.8402276,86.7055554 69.9857747,86.7055554 C70.1319715,86.7055554 70.2502284,86.5872187 70.2502284,86.4415736 C70.2502284,86.2952782 70.1319715,86.1769415 69.9857747,86.1769415" id="path386" fill="#000000"></path>
        </g>
        <g id="Artboard"></g>
    </g>
</svg>