<?xml version="1.0" encoding="UTF-8" standalone="no"?>
<svg width="30px" height="30px" viewBox="0 0 30 30" version="1.1" xmlns="http://www.w3.org/2000/svg" xmlns:xlink="http://www.w3.org/1999/xlink">
    <!-- Generator: Sketch 40.3 (33839) - http://www.bohemiancoding.com/sketch -->
    <title>Artboard</title>
    <desc>Created with Sketch.</desc>
    <defs>
        <rect id="path-1" x="0.0474333906" y="0.0044907342" width="398.37097" height="516.386256"></rect>
        <rect id="path-3" x="0.0474333906" y="0.0044907342" width="398.37097" height="516.386256"></rect>
        <rect id="path-5" x="0.0474333906" y="0.0044907342" width="398.37097" height="516.386256"></rect>
        <rect id="path-7" x="0.0474333906" y="0.0044907342" width="398.37097" height="516.386256"></rect>
        <rect id="path-9" x="0.0474333906" y="0.0044907342" width="398.37097" height="516.386256"></rect>
        <rect id="path-11" x="0.0474333906" y="0.0044907342" width="398.37097" height="516.386256"></rect>
        <rect id="path-13" x="0.0474333906" y="0.0044907342" width="398.37097" height="516.386256"></rect>
        <rect id="path-15" x="0.0474333906" y="0.0044907342" width="398.37097" height="516.386256"></rect>
        <rect id="path-17" x="0.0474333906" y="0.0044907342" width="398.37097" height="516.386256"></rect>
        <rect id="path-19" x="0.0474333906" y="0.0044907342" width="398.37097" height="516.386256"></rect>
        <rect id="path-21" x="0.0474333906" y="0.0044907342" width="398.37097" height="516.386256"></rect>
        <rect id="path-23" x="0.0474333906" y="0.0044907342" width="398.37097" height="516.386256"></rect>
        <rect id="path-25" x="0.0474333906" y="0.0044907342" width="398.37097" height="516.386256"></rect>
        <rect id="path-27" x="0.0474333906" y="0.0044907342" width="398.37097" height="516.386256"></rect>
        <rect id="path-29" x="0.0474333906" y="0.0044907342" width="398.37097" height="516.386256"></rect>
        <rect id="path-31" x="0.0474333906" y="0.0044907342" width="398.37097" height="516.386256"></rect>
        <rect id="path-33" x="0.0474333906" y="0.0044907342" width="398.37097" height="516.386256"></rect>
        <rect id="path-35" x="0.0474333906" y="0.0044907342" width="398.37097" height="516.386256"></rect>
    </defs>
    <g id="Page-1" stroke="none" stroke-width="1" fill="none" fill-rule="evenodd">
        <g id="kings" transform="translate(-21.000000, -23.000000)">
            <g id="Page-1">
                <g id="kings">
                    <path d="M24.3370246,38.6658072 L47.4127282,38.6658072 L47.4127282,43.7528979 L35.8748764,52.1048175 L24.3370246,43.7528979 L24.3370246,38.6658072 L24.3370246,38.6658072 L24.3370246,38.6658072 Z M24.3370246,24.3119237 L47.4127282,24.3119237 L47.4127282,37.9517804 L24.3370246,37.9517804 L24.3370246,24.3119237 L24.3370246,24.3119237 L24.3370246,24.3119237 Z M23.5214414,44.1705362 L35.8748764,53.1129545 L48.2283114,44.1705362 L48.2283114,23.4950006 L23.5214414,23.4950006 L23.5214414,44.1705362 L23.5214414,44.1705362 L23.5214414,44.1705362 Z" id="path236" fill="#FFFFFF"></path>
                    <g id="g238" transform="translate(0.040416, 0.018353)">
                        <g id="path246-Clipped">
                            <g>
                                <mask id="mask-2" fill="white">
                                    <use xlink:href="#path-1"></use>
                                </mask>
                                <g id="path-1"></g>
                                <path d="M44.1844429,30.6833644 L37.7853762,30.6833644 L37.7853762,28.1823509 L44.1844429,28.1823509 L44.1844429,30.6833644 L44.1844429,30.6833644 L44.1844429,30.6833644 Z M36.2731165,27.0823814 C36.4848095,27.5777289 36.8531604,28.7528044 36.8531604,30.9408983 C36.8531604,33.1289922 36.4848095,34.3040677 36.2731165,34.7987644 L37.7853112,34.7987644 L37.7853112,31.7845706 L44.1843778,31.7845706 L44.1843778,34.7987644 L45.6960529,34.7987644 C45.4850096,34.3040026 45.1165936,33.1289922 45.1165936,30.9408983 C45.1165936,28.7528044 45.4850096,27.5777289 45.6960529,27.0823814 L36.2731165,27.0823814 L36.2731165,27.0823814 L36.2731165,27.0823814 Z" id="path246" fill="#FFFFFF" mask="url(#mask-2)"></path>
                            </g>
                        </g>
                        <g id="path248-Clipped">
                            <g>
                                <mask id="mask-4" fill="white">
                                    <use xlink:href="#path-3"></use>
                                </mask>
                                <g id="path-3"></g>
                                <path d="M27.4858439,33.6985345 L27.4858439,30.9405729 C27.4858439,28.7524789 27.8535451,27.5774035 28.0645883,27.0827068 L25.9726095,27.0827068 C26.1839776,27.5774686 26.5516788,28.7524789 26.5516788,30.9405729 C26.5516788,33.1293177 26.1839776,34.3034169 25.9732593,34.7990898 L34.3661254,34.7990898 C34.5043301,34.5813217 34.8994513,33.8713952 34.9906132,32.8659914 C34.5113476,33.1932944 33.5113614,33.6985345 31.8424436,33.6985345 L27.4858439,33.6985345 L27.4858439,33.6985345 L27.4858439,33.6985345 Z" id="path248" fill="#FFFFFF" mask="url(#mask-4)"></path>
                            </g>
                        </g>
                        <g id="path250-Clipped">
                            <g>
                                <mask id="mask-6" fill="white">
                                    <use xlink:href="#path-5"></use>
                                </mask>
                                <g id="path-5"></g>
                                <path d="M35.4171179,47.1476977 C34.8606604,47.1476977 34.2557305,47.0817685 33.8307852,47.0244954 C34.3936753,47.2374473 35.2413569,47.3256349 35.2413569,47.3256349 C34.6152448,47.3256349 33.9270801,47.2429143 33.5040841,47.1814107 C34.1242184,47.4202006 35.169883,47.5173046 35.169883,47.5173046 C33.6315676,47.4755213 32.720989,47.2466891 32.720989,47.2466891 L32.0147609,43.139815 L32.7295659,44.0961462 C33.0432718,43.5835516 33.652555,43.1709898 34.4335059,42.9414417 L34.2180442,42.4151797 L35.323552,42.9128052 L35.323552,42.640953 L35.8345911,41.7600532 L36.3453702,42.640953 L36.3453702,42.9128052 L37.450813,42.4151797 L37.2353514,42.9414417 C38.0163022,43.1709898 38.6255855,43.5835516 38.9396163,44.0961462 L39.6540963,43.139815 L38.9478682,47.2466891 C38.9478682,47.2466891 38.0372896,47.4755863 36.4992342,47.5173046 C36.4992342,47.5173046 37.5446388,47.4202006 38.1647082,47.1814107 C37.7416471,47.2428492 37.0535475,47.3256349 36.4274353,47.3256349 C36.4274353,47.3256349 37.2751169,47.2375123 37.8380071,47.0244954 C37.4137115,47.0817685 36.8081968,47.1476977 36.2516743,47.1476977 C36.2516743,47.1476977 37.0783685,47.0614626 37.6409338,46.8541729 C37.1384716,46.7471763 36.5193119,46.6599649 35.834656,46.6599649 C35.1497402,46.6599649 34.5305805,46.7472413 34.0280534,46.8541729 C34.5904237,47.0614626 35.4171179,47.1476977 35.4171179,47.1476977 L35.4171179,47.1476977 L35.4171179,47.1476977 Z M35.2264773,42.5053849 L35.7756575,41.5560177 L35.5062006,41.0956849 L35.4420039,41.0291699 L35.4867726,40.962655 L35.5862514,40.9699443 L35.6018457,41.0533809 L35.8344611,41.4563755 L36.0668165,41.0533809 L36.0823459,40.9699443 L36.1818247,40.962655 L36.2265934,41.0291699 L36.1623968,41.0956849 L35.8929398,41.5560177 L36.44212,42.5053849 L36.876357,42.5053849 L36.8229465,42.6082162 L36.3850058,42.6082162 L35.8344611,41.6591744 L35.2836566,42.6082162 L34.8456509,42.6082162 L34.7923053,42.5053849 L35.2264773,42.5053849 L35.2264773,42.5053849 L35.2264773,42.5053849 Z M39.0849683,47.4358206 L39.8862568,42.8307354 L39.7197224,42.7584931 C39.7197224,42.7584931 39.0662552,43.6333402 38.9439047,43.7963083 C38.6756823,43.4677688 38.1639285,43.0596978 37.4707607,42.8307354 C37.5260556,42.6969896 37.7774492,42.0848179 37.7774492,42.0848179 C37.7774492,42.0848179 37.3912946,42.2404967 37.2246953,42.3083133 C37.2422388,42.2739494 37.2599774,42.2398459 37.2599774,42.2398459 C37.2599774,42.2398459 36.6675879,42.2707604 36.5737621,42.2758368 C36.5263943,42.1924654 36.2035268,41.6194086 36.1599277,41.5423503 C36.1980688,41.4745337 36.321069,41.2599546 36.3341293,41.2373057 C36.3544669,41.2195381 36.5060567,41.0911942 36.5060567,41.0911942 L36.3090484,40.7161202 L35.8917053,40.7447568 C35.8917053,40.7447568 35.884428,40.9412427 35.8824787,40.9768431 L35.8344611,41.0564398 L35.7861837,40.9768431 C35.7848842,40.9411776 35.7776068,40.7447568 35.7776068,40.7447568 L35.3599387,40.7161202 L35.1631904,41.0911942 C35.1631904,41.0911942 35.3147802,41.2195381 35.3351178,41.2373057 C35.3481131,41.2599546 35.4711783,41.4745337 35.5096443,41.5423503 C35.4657853,41.6194086 35.1431776,42.1924003 35.095485,42.2758368 C35.0017891,42.2707604 34.4092697,42.2398459 34.4092697,42.2398459 C34.4092697,42.2398459 34.4270083,42.2738843 34.4439021,42.3083133 C34.2779525,42.2404967 33.891798,42.0848179 33.891798,42.0848179 C33.891798,42.0848179 34.1431915,42.6969896 34.1979016,42.8307354 C33.5053186,43.0596978 32.9936298,43.4677688 32.7246927,43.7963083 C32.602992,43.6333402 31.9494597,42.7584931 31.9494597,42.7584931 L31.7822756,42.8307354 L32.5842138,47.4358206 C32.5842138,47.4358206 33.7252636,47.7277834 35.8343962,47.7277834 C37.9439835,47.7277834 39.0849683,47.4358206 39.0849683,47.4358206 L39.0849683,47.4358206 L39.0849683,47.4358206 Z" id="path250" fill="#FFFFFF" mask="url(#mask-6)"></path>
                            </g>
                        </g>
                        <g id="path252-Clipped">
                            <g>
                                <mask id="mask-8" fill="white">
                                    <use xlink:href="#path-7"></use>
                                </mask>
                                <g id="path-7"></g>
                                <path d="M32.8566596,44.2665338 L33.0504841,44.5266058 C33.5244217,43.5982604 34.4722318,43.4932163 34.4722318,43.4932163 C33.6591826,43.7955924 33.3213055,44.2731722 33.2113655,44.740534 L33.3931694,44.9844004 C33.3931694,44.9844004 33.369648,45.639592 33.4999905,45.9146332 C33.5409906,45.8990783 33.5882934,45.8821567 33.6417689,45.8640636 C33.2187079,44.1185348 34.5914634,43.7968941 34.5914634,43.7968941 C33.6216912,44.2990102 33.7120084,45.1929266 33.9094065,45.7825796 C33.9901072,45.7602561 34.0784751,45.7379326 34.1754198,45.7160646 L34.3219414,44.9914294 C34.1964071,44.9427472 34.1070646,44.8207815 34.1070646,44.677859 C34.1070646,44.4928928 34.2573549,44.3413793 34.4424076,44.3413793 C34.5511131,44.3413793 34.6473431,44.393576 34.7093305,44.4738234 C34.7983481,44.5297949 34.8583863,44.6297625 34.8583863,44.7431373 C34.8583863,44.8625648 34.7920454,44.9666978 34.6944509,45.0207819 L35.002114,45.5836205 C35.1648147,45.5674148 35.3329736,45.5555697 35.5033416,45.5498424 L34.5088134,43.1241951 C33.7374141,43.3493826 33.1328741,43.7664352 32.8566596,44.2665338" id="path252" fill="#FFFFFF" mask="url(#mask-8)"></path>
                            </g>
                        </g>
                        <g id="path254-Clipped">
                            <g>
                                <mask id="mask-10" fill="white">
                                    <use xlink:href="#path-9"></use>
                                </mask>
                                <g id="path-9"></g>
                                <path d="M37.0037757,44.9666327 C36.9052065,44.9080579 36.8388657,44.8010613 36.8388657,44.6777939 C36.8388657,44.4925023 36.9894808,44.3419651 37.1747934,44.3419651 C37.2828491,44.3419651 37.3797938,44.3935109 37.4411965,44.4737584 C37.5301491,44.5297298 37.5902522,44.6294371 37.5902522,44.7430722 C37.5902522,44.8888584 37.492008,45.0118004 37.3578968,45.0481167 L37.4933075,45.7157392 C37.5902522,45.7379976 37.6786201,45.7603211 37.7593857,45.782905 C37.9573686,45.1935775 38.0473609,44.2990102 37.0766141,43.7968941 C37.0766141,43.7968941 38.4493697,44.1184697 38.0269584,45.8637382 C38.0803689,45.8821567 38.1277367,45.8990783 38.1687368,45.9146332 C38.2990793,45.639592 38.2755579,44.9844004 38.2755579,44.9844004 L38.4580115,44.7411848 C38.3474218,44.2729119 38.0096097,43.7956575 37.1965605,43.4932163 C37.1965605,43.4932163 38.1443706,43.5989112 38.6182432,44.5266058 L38.8121327,44.2665338 C38.5362431,43.7663701 37.9320279,43.3489921 37.1599788,43.1241951 L36.1654507,45.549517 C36.3351039,45.5555697 36.5032627,45.5670243 36.6660286,45.5835554 L37.0037757,44.9666327 L37.0037757,44.9666327 L37.0037757,44.9666327 Z" id="path254" fill="#FFFFFF" mask="url(#mask-10)"></path>
                            </g>
                        </g>
                        <g id="path256-Clipped">
                            <g>
                                <mask id="mask-12" fill="white">
                                    <use xlink:href="#path-11"></use>
                                </mask>
                                <g id="path-11"></g>
                                <path d="M34.4426676,44.9335054 C34.3018638,44.9335054 34.1873754,44.8188289 34.1873754,44.6781193 C34.1873754,44.5370842 34.3018638,44.4231237 34.4426676,44.4231237 C34.5831464,44.4231237 34.6978947,44.5370842 34.6978947,44.6781193 C34.6978947,44.8188941 34.5831464,44.9335054 34.4426676,44.9335054 M34.4426676,44.3909727 C34.2843201,44.3909727 34.1563168,44.5202277 34.1563168,44.6781193 C34.1563168,44.8364014 34.2843851,44.9655914 34.4426676,44.9655914 C34.600625,44.9655914 34.7290183,44.8364014 34.7290183,44.6781193 C34.7290183,44.5202928 34.600625,44.3909727 34.4426676,44.3909727" id="path256" fill="#FFFFFF" mask="url(#mask-12)"></path>
                            </g>
                        </g>
                        <g id="path258-Clipped">
                            <g>
                                <mask id="mask-14" fill="white">
                                    <use xlink:href="#path-13"></use>
                                </mask>
                                <g id="path-13"></g>
                                <path d="M37.1747934,44.9335054 C37.0343145,44.9335054 36.9198911,44.8188289 36.9198911,44.6781193 C36.9198911,44.5370842 37.0343145,44.4231237 37.1747934,44.4231237 C37.3155972,44.4231237 37.4293708,44.5370842 37.4293708,44.6781193 C37.4293708,44.8188941 37.3155972,44.9335054 37.1747934,44.9335054 M37.4614691,44.6781844 C37.4614691,44.5202928 37.3330758,44.3910377 37.1747934,44.3910377 C37.0168359,44.3910377 36.8877928,44.5202928 36.8877928,44.6781844 C36.8877928,44.8364665 37.0168359,44.9656564 37.1747934,44.9656564 C37.3330758,44.9656564 37.4614691,44.8364014 37.4614691,44.6781844" id="path258" fill="#FFFFFF" mask="url(#mask-14)"></path>
                            </g>
                        </g>
                        <g id="path260-Clipped">
                            <g>
                                <mask id="mask-16" fill="white">
                                    <use xlink:href="#path-15"></use>
                                </mask>
                                <g id="path-15"></g>
                            </g>
                        </g>
                        <g id="path262-Clipped">
                            <g>
                                <mask id="mask-18" fill="white">
                                    <use xlink:href="#path-17"></use>
                                </mask>
                                <g id="path-17"></g>
                                <path id="path262" fill="#FFFFFF" mask="url(#mask-18)"></path>
                            </g>
                        </g>
                        <g id="path264-Clipped">
                            <g>
                                <mask id="mask-20" fill="white">
                                    <use xlink:href="#path-19"></use>
                                </mask>
                                <g id="path-19"></g>
                            </g>
                        </g>
                        <g id="path266-Clipped">
                            <g>
                                <mask id="mask-22" fill="white">
                                    <use xlink:href="#path-21"></use>
                                </mask>
                                <g id="path-21"></g>
                                <path id="path266" fill="#FFFFFF" mask="url(#mask-22)"></path>
                            </g>
                        </g>
                        <g id="path268-Clipped">
                            <g>
                                <mask id="mask-24" fill="white">
                                    <use xlink:href="#path-23"></use>
                                </mask>
                                <g id="path-23"></g>
                                <path id="path268" fill="#FFFFFF" mask="url(#mask-24)"></path>
                            </g>
                        </g>
                        <g id="path270-Clipped">
                            <g>
                                <mask id="mask-26" fill="white">
                                    <use xlink:href="#path-25"></use>
                                </mask>
                                <g id="path-25"></g>
                                <path id="path270" fill="#FFFFFF" mask="url(#mask-26)"></path>
                            </g>
                        </g>
                        <g id="path272-Clipped">
                            <g>
                                <mask id="mask-28" fill="white">
                                    <use xlink:href="#path-27"></use>
                                </mask>
                                <g id="path-27"></g>
                                <path id="path272" fill="#FFFFFF" mask="url(#mask-28)"></path>
                            </g>
                        </g>
                    </g>
                    <path d="M25.06424,39.9316736 L46.6858377,39.9316736 L46.6858377,43.3807527 L35.8752013,51.2066704 L25.06424,43.3807527 L25.06424,39.9316736 L25.06424,39.9316736 L25.06424,39.9316736 Z M47.4127282,43.7528979 L47.4127282,38.6654818 L24.3373495,38.6654818 L24.3373495,43.7528979 L35.8752013,52.1050778 L47.4127282,43.7528979 L47.4127282,43.7528979 L47.4127282,43.7528979 Z" id="path274" fill="#B0B7BB"></path>
                    <path d="M46.6855128,36.8779092 L25.06424,36.8779092 L25.06424,25.0409846 L46.6855128,25.0409846 L46.6855128,36.8779092 L46.6855128,36.8779092 L46.6855128,36.8779092 Z M47.4127282,24.3119237 L24.3370246,24.3119237 L24.3370246,37.9517804 L47.4127282,37.9517804 L47.4127282,24.3119237 L47.4127282,24.3119237 L47.4127282,24.3119237 Z" id="path276" fill="#B0B7BB"></path>
                    <g id="g278" transform="translate(0.040416, 0.018353)">
                        <g id="path286-Clipped">
                            <g>
                                <mask id="mask-30" fill="white">
                                    <use xlink:href="#path-29"></use>
                                </mask>
                                <g id="path-29"></g>
                                <path d="M36.2727916,27.0823814 L45.6963127,27.0823814 C45.4850096,27.5777289 45.1172434,28.7524789 45.1172434,30.9408983 C45.1172434,33.1296431 45.4850096,34.3037423 45.6963127,34.7994152 L44.1843778,34.7994152 L44.1843778,31.7845706 L37.7855712,31.7845706 L37.7855712,34.7994152 L36.2727267,34.7994152 C36.4844196,34.3037423 36.8527706,33.1296431 36.8527706,30.9408983 C36.8528356,28.7524789 36.4844846,27.5777289 36.2727916,27.0823814 L36.2727916,27.0823814 L36.2727916,27.0823814 Z M37.9725732,34.9862688 L37.9725732,31.9723353 L43.9975059,31.9723353 L43.9975059,34.9862688 L45.9973482,34.9862688 C45.9973482,34.9862688 45.3037906,33.9217045 45.3037906,30.9408983 C45.3037906,27.9610684 45.9973482,26.8951373 45.9973482,26.8951373 L35.9727308,26.8951373 C35.9727308,26.8951373 36.6659636,27.9610684 36.6659636,30.9408983 C36.6659636,33.9217045 35.9727308,34.9862688 35.9727308,34.9862688 L37.9725732,34.9862688 L37.9725732,34.9862688 L37.9725732,34.9862688 Z" id="path286" fill="#B0B7BB" mask="url(#mask-30)"></path>
                            </g>
                        </g>
                    </g>
                    <path d="M44.0375963,30.5151246 L38.0126635,30.5151246 L38.0126635,28.3887945 L44.0375963,28.3887945 L44.0375963,30.5151246 L44.0375963,30.5151246 L44.0375963,30.5151246 Z M44.225183,28.2009646 L37.8257915,28.2009646 L37.8257915,30.7023687 L44.225183,30.7023687 L44.225183,28.2009646 L44.225183,28.2009646 L44.225183,28.2009646 Z" id="path288" fill="#B0B7BB"></path>
                    <path d="M26.0130248,27.1007348 L28.1046787,27.1007348 C27.8936355,27.5960823 27.5265841,28.7708323 27.5265841,30.9592517 L27.5265841,33.7172134 L31.8825341,33.7172134 C33.5515168,33.7172134 34.5520877,33.2116478 35.0303787,32.8843449 C34.9401266,33.8897487 34.5440957,34.6000006 34.4068006,34.8177686 L26.0130248,34.8177686 C26.2247177,34.3220957 26.5917692,33.1479965 26.5917692,30.9592517 C26.5917692,28.7708323 26.224068,27.5960823 26.0130248,27.1007348 L26.0130248,27.1007348 L26.0130248,27.1007348 Z M34.5078388,35.0046222 C34.5078388,35.0046222 35.2407721,34.0053363 35.2407721,32.4822615 C35.2407721,32.4822615 34.2376672,33.5300343 31.8824691,33.5300343 L27.7134561,33.5300343 L27.7134561,30.9592517 C27.7134561,27.9794218 28.4060391,26.9134907 28.4060391,26.9134907 L25.7123142,26.9134907 C25.7123142,26.9134907 26.4048972,27.9794218 26.4048972,30.9592517 C26.4048972,33.9400579 25.7123142,35.0046222 25.7123142,35.0046222 L34.5078388,35.0046222 L34.5078388,35.0046222 L34.5078388,35.0046222 Z" id="path290" fill="#B0B7BB"></path>
                    <path d="M35.0440887,43.4612605 C35.0097812,43.4612605 34.9776829,43.4507821 34.9509126,43.4320382 C34.8749552,43.4135546 34.818036,43.3444363 34.818036,43.2623665 C34.818036,43.1664991 34.8968523,43.0875533 34.9925625,43.0875533 C35.0491569,43.0875533 35.0993836,43.1149533 35.1314819,43.1566715 C35.1775502,43.1856336 35.2086738,43.2375048 35.2086738,43.296405 C35.2086738,43.3873912 35.1352506,43.4612605 35.0440887,43.4612605 L35.0440887,43.4612605 L35.0440887,43.4612605 Z M35.3638373,43.0315168 L34.4309718,42.6122514 L35.3638373,44.8872964 L35.3638373,43.0315168 L35.3638373,43.0315168 L35.3638373,43.0315168 Z" id="path292" fill="#B0B7BB"></path>
                    <path d="M36.7317846,43.4612605 C36.6971522,43.4612605 36.664729,43.4507821 36.6380887,43.4320382 C36.5624562,43.4135546 36.5058618,43.3444363 36.5058618,43.2623665 C36.5058618,43.1664991 36.5840283,43.0875533 36.6803883,43.0875533 C36.7363329,43.0875533 36.7865597,43.1149533 36.8183331,43.1566715 C36.865376,43.1856336 36.8964997,43.2375048 36.8964997,43.296405 C36.8964347,43.3873912 36.8223616,43.4612605 36.7317846,43.4612605 L36.7317846,43.4612605 L36.7317846,43.4612605 Z M36.3853307,43.0315168 L36.3853307,44.8872964 L37.3181313,42.6122514 L36.3853307,43.0315168 L36.3853307,43.0315168 L36.3853307,43.0315168 Z" id="path294" fill="#B0B7BB"></path>
                    <path d="M35.70009,42.9748294 C35.70009,42.8783762 35.7782566,42.8003416 35.8746165,42.8003416 C35.9709765,42.8003416 36.049143,42.8783111 36.049143,42.9748294 C36.049143,43.0721937 35.9709765,43.1502284 35.8746165,43.1502284 C35.7782566,43.1502284 35.70009,43.0721937 35.70009,42.9748294 L35.70009,42.9748294 L35.70009,42.9748294 Z M36.2918947,42.9920113 L35.8745515,42.4470054 L35.4578581,42.9920113 L35.8745515,43.4880096 L36.2918947,42.9920113 L36.2918947,42.9920113 L36.2918947,42.9920113 Z" id="path296" fill="#B0B7BB"></path>
                    <path d="M38.646443,45.789153 L38.7757459,45.606725 L38.8657381,45.7442456 L38.646443,45.789153 L38.646443,45.789153 L38.646443,45.789153 Z M38.7414384,45.3848567 L38.7557981,45.5484757 L38.5409213,45.4848244 L38.7414384,45.3848567 L38.7414384,45.3848567 L38.7414384,45.3848567 Z M38.8272721,45.155569 L38.7557331,45.3033076 L38.6037534,45.1384521 L38.8272721,45.155569 L38.8272721,45.155569 L38.8272721,45.155569 Z M39.0179778,45.0028189 L38.8812675,45.092959 L38.8348743,44.8738893 L39.0179778,45.0028189 L39.0179778,45.0028189 L39.0179778,45.0028189 Z M39.1689178,44.7643544 L39.2601447,44.9691058 L39.0961443,44.9767206 L39.1689178,44.7643544 L39.1689178,44.7643544 L39.1689178,44.7643544 Z M37.9433988,46.536307 C37.9185778,46.536307 37.8962909,46.5299289 37.8756934,46.5194505 C37.8763431,46.5194505 37.8775777,46.5201013 37.8782274,46.5201013 C37.9714035,46.5201013 38.0467112,46.4443446 38.0467112,46.3513408 C38.0467112,46.3115751 38.0330011,46.2755841 38.0104544,46.2469475 C38.0603562,46.2718092 38.0956384,46.3233551 38.0956384,46.3838824 C38.0956384,46.4678396 38.027933,46.536307 37.9433988,46.536307 L37.9433988,46.536307 L37.9433988,46.536307 Z M37.7421669,46.3513408 C37.7421669,46.2755841 37.8031797,46.214406 37.8782274,46.214406 C37.9528853,46.214406 38.014288,46.275519 38.014288,46.3513408 C38.014288,46.4261213 37.9529503,46.4876249 37.8782274,46.4876249 C37.8032447,46.4876249 37.7421669,46.4261864 37.7421669,46.3513408 L37.7421669,46.3513408 L37.7421669,46.3513408 Z M36.6396481,46.3042858 C36.6148272,46.3042858 36.5919555,46.2985584 36.5709681,46.288015 L36.5744769,46.288015 C36.6676529,46.288015 36.7429605,46.2122582 36.7429605,46.1189942 C36.7429605,46.0800745 36.7286007,46.0441486 36.7057941,46.015512 C36.7566056,46.0403087 36.7918878,46.0915942 36.7918878,46.151796 C36.7918228,46.2358183 36.7235326,46.3042858 36.6396481,46.3042858 L36.6396481,46.3042858 L36.6396481,46.3042858 Z M36.4377666,46.1189942 C36.4377666,46.0441486 36.4987794,45.9827101 36.5744769,45.9827101 C36.6491347,45.9827101 36.7105374,46.0440835 36.7105374,46.1189942 C36.7105374,46.1947509 36.6491996,46.2555385 36.5744769,46.2555385 C36.4988443,46.2555385 36.4377666,46.1947509 36.4377666,46.1189942 L36.4377666,46.1189942 L36.4377666,46.1189942 Z M35.931146,45.1358488 C35.9072996,45.1358488 35.884363,45.1301215 35.8634405,45.119578 L35.8669493,45.119578 C35.9591507,45.119578 36.035433,45.0438212 36.035433,44.9505572 C36.035433,44.9110517 36.0210732,44.8757116 35.9982665,44.8464242 C36.049078,44.8712209 36.0843602,44.9231572 36.0843602,44.983294 C36.0843602,45.0674464 36.016005,45.1358488 35.931146,45.1358488 L35.931146,45.1358488 L35.931146,45.1358488 Z M35.7299791,44.9506223 C35.7299791,44.8757767 35.7913168,44.8143383 35.8669493,44.8143383 C35.9416072,44.8143383 36.0030098,44.8757116 36.0030098,44.9506223 C36.0030098,45.0257281 35.9416721,45.0868412 35.8669493,45.0868412 C35.7913168,45.0868412 35.7299791,45.0257281 35.7299791,44.9506223 L35.7299791,44.9506223 L35.7299791,44.9506223 Z M35.1454518,46.3042858 C35.1209558,46.3042858 35.098084,46.2985584 35.0777464,46.288015 L35.0806054,46.288015 C35.1733916,46.288015 35.2490241,46.2122582 35.2490241,46.1189942 C35.2490241,46.0800745 35.2353791,46.0441486 35.2124424,46.015512 C35.2633189,46.0403087 35.2979513,46.0915942 35.2979513,46.151796 C35.2980163,46.2358183 35.2296612,46.3042858 35.1454518,46.3042858 L35.1454518,46.3042858 L35.1454518,46.3042858 Z M34.9446099,46.1189942 C34.9446099,46.0441486 35.0056227,45.9827101 35.0806704,45.9827101 C35.155978,45.9827101 35.2173807,46.0440835 35.2173807,46.1189942 C35.2173807,46.1947509 35.1560429,46.2555385 35.0806704,46.2555385 C35.0056227,46.2555385 34.9446099,46.1947509 34.9446099,46.1189942 L34.9446099,46.1189942 L34.9446099,46.1189942 Z M33.8442353,46.536307 C33.8197392,46.536307 33.7968675,46.5299289 33.7765299,46.5194505 C33.7771797,46.5194505 33.7787391,46.5201013 33.7793889,46.5201013 C33.8721751,46.5201013 33.9478725,46.4443446 33.9478725,46.3513408 C33.9478725,46.3115751 33.9341626,46.2755841 33.9112909,46.2469475 C33.9614526,46.2718092 33.9967348,46.3233551 33.9967348,46.3838824 C33.9967998,46.4678396 33.9290944,46.536307 33.8442353,46.536307 L33.8442353,46.536307 L33.8442353,46.536307 Z M33.6433284,46.3513408 C33.6433284,46.2755841 33.7043412,46.214406 33.7793889,46.214406 C33.8540467,46.214406 33.9154494,46.275519 33.9154494,46.3513408 C33.9154494,46.4261213 33.8541117,46.4876249 33.7793889,46.4876249 C33.7044061,46.4876249 33.6433284,46.4261864 33.6433284,46.3513408 L33.6433284,46.3513408 L33.6433284,46.3513408 Z M32.9943446,45.5484106 L33.0086394,45.3847916 L33.2085716,45.4847593 L32.9943446,45.5484106 L32.9943446,45.5484106 L32.9943446,45.5484106 Z M32.8843395,45.7442456 L32.9733571,45.606725 L33.1036997,45.789153 L32.8843395,45.7442456 L32.8843395,45.7442456 L32.8843395,45.7442456 Z M32.9218309,45.155569 L33.1452846,45.138387 L32.9936948,45.3032425 L32.9218309,45.155569 L32.9218309,45.155569 L32.9218309,45.155569 Z M32.8678356,45.0928939 L32.7311253,45.0027538 L32.9141637,44.8738242 L32.8678356,45.0928939 L32.8678356,45.0928939 L32.8678356,45.0928939 Z M32.4889584,44.9690408 L32.580835,44.7642893 L32.6532836,44.9766555 L32.4889584,44.9690408 L32.4889584,44.9690408 L32.4889584,44.9690408 Z M32.6545182,45.876104 L32.8048085,45.8108256 L32.8124107,46.0349068 L32.6545182,45.876104 L32.6545182,45.876104 L32.6545182,45.876104 Z M38.9452042,45.8108256 L39.0949097,45.876104 L38.9372771,46.0349068 L38.9452042,45.8108256 L38.9452042,45.8108256 L38.9452042,45.8108256 Z M39.1422775,45.8282679 C38.9589142,45.7990456 38.8173958,45.6309359 38.8173958,45.4274861 C38.8173958,45.2037304 38.9887384,45.0219533 39.1988069,45.0219533 C39.2268118,45.0219533 39.253517,45.0244916 39.2795725,45.0302189 L39.5392181,43.5189241 L38.4086944,45.0314555 C38.4335154,45.7566765 38.255805,46.0486393 38.255805,46.0486393 C38.255805,46.0486393 37.8762781,45.8960845 37.4557512,45.8108256 L37.3073452,45.0785757 C37.2434734,45.0766882 37.1842799,45.0569681 37.134768,45.0231899 C37.1328836,45.0225391 37.1309343,45.0218882 37.12905,45.0213025 L36.7577752,45.6994034 C36.7577752,45.6994034 36.2892956,45.6541706 36.0547309,45.6541706 L36.2638898,45.0028189 L35.8745515,43.9968294 L35.4852132,45.0028189 L35.6950219,45.6541706 C35.4607821,45.6541706 34.9919777,45.6994034 34.9919777,45.6994034 L34.6483827,45.0712864 C34.6268106,45.0760374 34.6045236,45.0785757 34.5819768,45.0785757 C34.5343492,45.0785757 34.4888658,45.0674464 34.4485154,45.0486374 L34.2943265,45.8108256 C33.8732148,45.8961496 33.4943376,46.0486393 33.4943376,46.0486393 C33.4943376,46.0486393 33.3163674,45.7566765 33.3404736,45.0314555 L32.20995,43.5189241 L32.4703102,45.0302189 C32.4957159,45.0244916 32.523071,45.0219533 32.5503611,45.0219533 C32.7614043,45.0219533 32.932422,45.2037304 32.932422,45.4274861 C32.932422,45.6309359 32.7906436,45.7990456 32.6069555,45.8282679 L32.8322935,47.1370241 C33.1882989,46.9998289 34.3858782,46.5859654 35.8746165,46.5859654 C37.3640045,46.5859654 38.5616488,46.9997638 38.9169395,47.1370241 L39.1422775,45.8282679 L39.1422775,45.8282679 L39.1422775,45.8282679 Z" id="path298" fill="#B0B7BB"></path>
                    <path d="M31.8230807,42.8494142 L31.9896151,42.7768466 C31.9896151,42.7768466 32.6437321,43.6514333 32.7654328,43.8149872 C33.0337202,43.4861223 33.545409,43.0780512 34.2386417,42.8494142 C34.1839317,42.7150827 33.9325381,42.1028459 33.9325381,42.1028459 C33.9325381,42.1028459 34.3186927,42.2591105 34.4846423,42.3263413 C34.4670986,42.2925632 34.4500099,42.2578739 34.4500099,42.2578739 C34.4500099,42.2578739 35.0418145,42.2890487 35.1355754,42.2938649 C35.1829432,42.2104934 35.5058757,41.6377621 35.5494099,41.5603783 C35.5112687,41.4932125 35.3885284,41.2786335 35.375858,41.2556592 C35.3548706,41.2381518 35.2039306,41.1092222 35.2039306,41.1092222 L35.400354,40.7341483 L35.818347,40.7634357 C35.818347,40.7634357 35.8256243,40.9595961 35.8269239,40.9949362 L35.8748764,41.0745329 L35.9231538,40.9949362 C35.9245183,40.9595961 35.9317957,40.7634357 35.9317957,40.7634357 L36.3494637,40.7341483 L36.5461472,41.1092222 C36.5461472,41.1092222 36.3952071,41.2381518 36.3742197,41.2556592 C36.3612245,41.2786335 36.238809,41.4931474 36.1996932,41.5603783 C36.244267,41.637697 36.5668097,42.2104283 36.6145023,42.2938649 C36.7082632,42.2891138 37.299743,42.2578739 37.299743,42.2578739 C37.299743,42.2578739 37.2822643,42.2925632 37.2655004,42.3263413 C37.4313851,42.2591756 37.8175395,42.1028459 37.8175395,42.1028459 C37.8175395,42.1028459 37.5667958,42.7150176 37.5114359,42.8494142 C38.2046687,43.0780512 38.7164225,43.4861223 38.9846449,43.8149872 C39.1064105,43.6513682 39.7604626,42.7768466 39.7604626,42.7768466 L39.926997,42.8494142 L39.1257085,47.4544995 C39.1257085,47.4544995 37.984074,47.7458765 35.8748764,47.7458765 C33.7660038,47.7458765 32.6243691,47.4544995 32.6243691,47.4544995 L31.8230807,42.8494142 L31.8230807,42.8494142 L31.8230807,42.8494142 Z M46.6858377,43.3807527 L46.6858377,39.9316736 L25.06424,39.9316736 L25.06424,43.3807527 L35.8748764,51.2066704 L46.6858377,43.3807527 L46.6858377,43.3807527 L46.6858377,43.3807527 Z" id="path300" fill="#000000"></path>
                    <path d="M46.0377635,35.0046222 L44.0375963,35.0046222 L44.0375963,31.9906888 L38.0133133,31.9906888 L38.0133133,35.0046222 L36.0128212,35.0046222 C36.0128212,35.0046222 36.7060539,33.9400579 36.7060539,30.9592517 C36.7060539,27.9794218 36.0128212,26.9134907 36.0128212,26.9134907 L46.0377635,26.9134907 C46.0377635,26.9134907 45.3445307,27.9794218 45.3445307,30.9592517 C45.3445307,33.9400579 46.0377635,35.0046222 46.0377635,35.0046222 L46.0377635,35.0046222 L46.0377635,35.0046222 Z M34.5078388,35.0046222 L25.7126391,35.0046222 C25.7126391,35.0046222 26.4052221,33.9400579 26.4052221,30.9592517 C26.4052221,27.9794218 25.7126391,26.9134907 25.7126391,26.9134907 L28.4053893,26.9134907 C28.4053893,26.9134907 27.7128063,27.9794218 27.7128063,30.9592517 L27.7128063,33.5300343 L31.8828589,33.5300343 C34.2377321,33.5300343 35.2408371,32.4822615 35.2408371,32.4822615 C35.2407721,34.0053363 34.5078388,35.0046222 34.5078388,35.0046222 L34.5078388,35.0046222 L34.5078388,35.0046222 Z M46.6855128,25.0402687 L25.06424,25.0402687 L25.06424,36.8772584 L46.6855128,36.8772584 L46.6855128,25.0402687 L46.6855128,25.0402687 L46.6855128,25.0402687 Z" id="path302" fill="#000000"></path>
                    <rect id="rect304" fill="#000000" x="38.0133127" y="28.3887946" width="6.0249326" height="2.12633017"></rect>
                    <g id="g306" transform="translate(0.040416, 0.018353)">
                        <g id="path314-Clipped">
                            <g>
                                <mask id="mask-32" fill="white">
                                    <use xlink:href="#path-31"></use>
                                </mask>
                                <g id="path-31"></g>
                                <path d="M34.4426676,44.4228634 C34.3018638,44.4228634 34.1873754,44.5374747 34.1873754,44.677859 C34.1873754,44.8192195 34.3018638,44.9335705 34.4426676,44.9335705 C34.5831464,44.9335705 34.6978947,44.8192195 34.6978947,44.677859 C34.6978947,44.5374096 34.5831464,44.4228634 34.4426676,44.4228634" id="path314" fill="#000000" mask="url(#mask-32)"></path>
                            </g>
                        </g>
                        <g id="path316-Clipped">
                            <g>
                                <mask id="mask-34" fill="white">
                                    <use xlink:href="#path-33"></use>
                                </mask>
                                <g id="path-33"></g>
                                <path d="M37.1747934,44.4228634 C37.0339897,44.4228634 36.9195663,44.5374747 36.9195663,44.677859 C36.9195663,44.8192195 37.0339897,44.9335705 37.1747934,44.9335705 C37.3152723,44.9335705 37.4293708,44.8192195 37.4293708,44.677859 C37.4293708,44.5374096 37.3152723,44.4228634 37.1747934,44.4228634" id="path316" fill="#000000" mask="url(#mask-34)"></path>
                            </g>
                        </g>
                        <g id="path318-Clipped">
                            <g>
                                <mask id="mask-36" fill="white">
                                    <use xlink:href="#path-35"></use>
                                </mask>
                                <g id="path-35"></g>
                                <path d="M32.7921381,47.1187357 L32.5668001,45.8099796 C32.7504882,45.7807572 32.8922667,45.6126476 32.8922667,45.4091978 C32.8922667,45.1854421 32.7205991,45.003665 32.5095559,45.003665 C32.4822009,45.003665 32.4554956,45.0062032 32.4295051,45.012256 L32.1697945,43.5006357 L33.3003182,45.0134925 C33.2755622,45.7383882 33.4535324,46.0306763 33.4535324,46.0306763 C33.4535324,46.0306763 33.8323446,45.8777961 34.2535213,45.7925373 L34.40836,45.0303491 C34.4487103,45.0491581 34.493544,45.0602873 34.5418864,45.0602873 C34.5647581,45.0602873 34.5866551,45.0577491 34.6076425,45.0533234 L34.9512375,45.681115 C34.9512375,45.681115 35.4200419,45.6362077 35.6542817,45.6362077 L35.4451228,44.984856 L35.8344611,43.9788664 L36.2237995,44.984856 L36.0139908,45.6362077 C36.2485554,45.6362077 36.7170349,45.681115 36.7170349,45.681115 L37.0889596,45.0030142 C37.0902592,45.003665 37.0921435,45.0043158 37.0946776,45.0049015 C37.1436048,45.03894 37.2027333,45.0583348 37.266605,45.0602873 L37.415011,45.7925373 C37.8361228,45.8778613 38.2156497,46.0306763 38.2156497,46.0306763 C38.2156497,46.0306763 38.3927103,45.7383882 38.3685391,45.0134925 L39.4990627,43.5006357 L39.2387674,45.012256 C39.2127119,45.0062032 39.1859416,45.003665 39.1586516,45.003665 C38.9479332,45.003665 38.7766556,45.1854421 38.7766556,45.4091978 C38.7766556,45.6126476 38.9180441,45.7807572 39.1021221,45.8099796 L38.877044,47.1187357 C38.5207786,46.9818008 37.3231344,46.567677 35.8343962,46.567677 C34.3450731,46.567677 33.1474288,46.9818008 32.7921381,47.1187357 L32.7921381,47.1187357 L32.7921381,47.1187357 Z M32.5512058,45.7195141 C32.6916846,45.6978414 32.7997404,45.5669592 32.7997404,45.4090676 C32.7997404,45.2355561 32.6697226,45.0954973 32.5095559,45.0954973 C32.4872691,45.0954973 32.4660218,45.0980355 32.4450344,45.103112 L32.4374321,45.0576189 C32.4606287,45.0525424 32.4848,45.0490279 32.5095559,45.0490279 C32.6957782,45.0490279 32.8461335,45.2101086 32.8461335,45.4090676 C32.8461335,45.5895431 32.7212489,45.7394945 32.5591329,45.7650072 L32.5512058,45.7195141 L32.5512058,45.7195141 L32.5512058,45.7195141 Z M32.4771327,45.2884686 C32.4872691,45.2852796 32.4984449,45.2833271 32.5095559,45.2833271 C32.5747272,45.2833271 32.627423,45.3393636 32.627423,45.4091327 C32.627423,45.4750619 32.5797953,45.529146 32.5193674,45.5342875 L32.4771327,45.2884686 L32.4771327,45.2884686 L32.4771327,45.2884686 Z M34.4429924,44.9656564 C34.2846451,44.9656564 34.1556669,44.8367919 34.1556669,44.6781844 C34.1556669,44.5196419 34.2846451,44.3913631 34.4429924,44.3913631 C34.60095,44.3913631 34.7293432,44.519707 34.7293432,44.6781844 C34.7293432,44.8367268 34.60095,44.9656564 34.4429924,44.9656564 L34.4429924,44.9656564 L34.4429924,44.9656564 Z M34.5084886,43.1239348 L35.5033416,45.5498424 C35.3332985,45.5558951 35.1654646,45.5670243 35.0027637,45.5838808 L34.6947758,45.0203913 C34.7923703,44.966893 34.8581913,44.8628251 34.8581913,44.7433976 C34.8581913,44.6291117 34.7990628,44.5294695 34.7090706,44.473498 C34.6481228,44.3938363 34.5507882,44.3417047 34.4430574,44.3417047 C34.2574199,44.3417047 34.1070646,44.4928928 34.1070646,44.6781844 C34.1070646,44.8211069 34.196732,44.9424869 34.3225263,44.991169 L34.1753548,45.7161297 C34.0784101,45.7383882 33.9897823,45.7607117 33.9090167,45.7826447 C33.7119434,45.1933172 33.6213014,44.2987499 34.5920482,43.7972845 C34.5920482,43.7972845 33.2189678,44.1182094 33.6413791,45.8641287 C33.5882934,45.8818964 33.5406008,45.898818 33.5002505,45.9143729 C33.3699079,45.6399825 33.3928445,44.9841401 33.3928445,44.9841401 L33.2113655,44.7409245 C33.3213055,44.2732373 33.6592476,43.7959829 34.4728815,43.492956 C34.4728815,43.492956 33.5244217,43.5986509 33.0511338,44.5263455 L32.8566596,44.2669242 C33.133199,43.7667606 33.7370892,43.3493826 34.5084886,43.1239348 L34.5084886,43.1239348 L34.5084886,43.1239348 Z M34.3901666,42.5938329 L35.3233571,43.0130982 L35.3233571,44.8685524 L34.3901666,42.5938329 L34.3901666,42.5938329 L34.3901666,42.5938329 Z M35.8344611,42.428652 L36.2518042,42.9739833 L35.8344611,43.4699817 L35.4171179,42.9739833 L35.8344611,42.428652 L35.8344611,42.428652 L35.8344611,42.428652 Z M36.3449154,43.0131633 L37.2783657,42.593898 L36.3449154,44.8686175 L36.3449154,43.0131633 L36.3449154,43.0131633 L36.3449154,43.0131633 Z M37.1747934,44.9656564 C37.016511,44.9656564 36.8877928,44.8367919 36.8877928,44.6781844 C36.8877928,44.5196419 37.016511,44.3913631 37.1747934,44.3913631 C37.3331408,44.3913631 37.4611442,44.519707 37.4611442,44.6781844 C37.4611442,44.8367268 37.3330758,44.9656564 37.1747934,44.9656564 L37.1747934,44.9656564 L37.1747934,44.9656564 Z M38.8120027,44.2668592 L38.6177883,44.5262804 C38.1439158,43.5985858 37.1964306,43.4928909 37.1964306,43.4928909 C38.0100645,43.7959178 38.3469669,44.2731722 38.4578816,44.7408594 L38.2760777,44.984075 C38.2760777,44.984075 38.2990144,45.6399174 38.1686718,45.9143078 C38.1276717,45.8987529 38.0803689,45.8818313 38.0268934,45.8640636 C38.4499544,44.1181443 37.0765491,43.7972195 37.0765491,43.7972195 C38.0469711,44.2986848 37.9573037,45.1932521 37.7599705,45.7825796 C37.6785551,45.7605815 37.5902522,45.738258 37.4929827,45.7160646 L37.3585465,45.0484422 C37.4917481,45.01154 37.5902522,44.8889235 37.5902522,44.7433976 C37.5902522,44.6291117 37.5307988,44.5294695 37.4411965,44.473498 C37.3798588,44.3938363 37.2828491,44.3417047 37.1747934,44.3417047 C36.989221,44.3417047 36.8388657,44.4928928 36.8388657,44.6781844 C36.8388657,44.8014518 36.9052065,44.9077325 37.0034507,44.9669581 L36.6656387,45.583946 C36.5028729,45.5670243 36.3356888,45.5558951 36.1653857,45.5499075 L37.1599139,43.1239998 C37.9318979,43.3493826 38.5357882,43.7667606 38.8120027,44.2668592 L38.8120027,44.2668592 L38.8120027,44.2668592 Z M39.223238,45.103177 C39.2026405,45.0981006 39.1810034,45.0955623 39.1587166,45.0955623 C38.9995245,45.0955623 38.8685321,45.2356212 38.8685321,45.4091327 C38.8685321,45.5670243 38.9772375,45.6979065 39.1170667,45.7195791 L39.1094644,45.7650722 C38.9473484,45.7395597 38.8231137,45.5896732 38.8231137,45.4091327 C38.8231137,45.2101086 38.9734039,45.049093 39.1587166,45.049093 C39.1835375,45.049093 39.2077087,45.0526075 39.2311652,45.0576839 L39.223238,45.103177 L39.223238,45.103177 L39.223238,45.103177 Z M39.14923,45.5342875 C39.0884771,45.529146 39.0411743,45.4750619 39.0411743,45.4091327 C39.0411743,45.3394287 39.0936102,45.2833271 39.1587815,45.2833271 C39.1699574,45.2833271 39.1810684,45.2852796 39.1921794,45.2884686 L39.14923,45.5342875 L39.14923,45.5342875 L39.14923,45.5342875 Z M37.6407388,46.8538474 C37.0778487,47.0613975 36.2518042,47.1473723 36.2518042,47.1473723 C36.8083267,47.1473723 37.4131917,47.0820939 37.8381371,47.0248208 C37.274922,47.2377727 36.4269155,47.3253095 36.4269155,47.3253095 C37.0536775,47.3253095 37.7417771,47.2425889 38.1648382,47.1817362 C37.5444439,47.420526 36.4990393,47.5176301 36.4990393,47.5176301 C38.0374196,47.4758467 38.9479332,47.2463637 38.9479332,47.2463637 L39.6541613,43.1394896 L38.9393563,44.0958208 C38.6256505,43.5842025 38.0163672,43.1713153 37.2345067,42.9411163 L37.4506181,42.4151797 L36.3448504,42.9124798 L36.3448504,42.6406276 L35.8343962,41.7603787 L35.3233571,42.6406276 L35.3233571,42.9124798 L34.2181742,42.4151797 L34.4336358,42.9411163 C33.6524251,43.1713153 33.0431417,43.5842025 32.7287861,44.0958208 L32.0139813,43.1394896 L32.7211839,47.2463637 C32.7211839,47.2463637 33.6318275,47.4758467 35.169818,47.5176301 C35.169818,47.5176301 34.1244783,47.420526 33.5040191,47.1817362 C33.927405,47.2425889 34.614595,47.3253095 35.2412919,47.3253095 C35.2412919,47.3253095 34.3939352,47.2377727 33.8307202,47.0248208 C34.2553407,47.0820939 34.8605954,47.1473723 35.417053,47.1473723 C35.417053,47.1473723 34.5903588,47.0614626 34.0274686,46.8538474 C34.5305806,46.7468509 35.1497403,46.6596395 35.8343962,46.6596395 C36.5194418,46.6596395 37.1382117,46.7469159 37.6407388,46.8538474 L37.6407388,46.8538474 L37.6407388,46.8538474 Z" id="path318" fill="#000000" mask="url(#mask-36)"></path>
                            </g>
                        </g>
                    </g>
                    <polygon id="polygon320" fill="#000000" points="35.6263419 40.9879072 35.5268631 40.9809433 35.4817045 41.0474582 35.5468757 41.1140383 35.8164626 41.5740457 35.2671525 42.5234129 34.8327206 42.5234129 34.8854165 42.6265696 35.3243967 42.6265696 35.8748764 41.6772024 36.4250962 42.6265696 36.8636866 42.6265696 36.9170972 42.5234129 36.4822754 42.5234129 35.9330952 41.5740457 36.2022273 41.1140383 36.2673986 41.0474582 36.2226298 40.9809433 36.1225013 40.9879072 36.1065821 41.0716692 35.8748764 41.4744034 35.6425859 41.0716692"></polygon>
                    <polygon id="polygon350" fill="#000000" points="32.4895432 44.9689773 32.6530182 44.9765896 32.5805432 44.7643544"></polygon>
                    <polygon id="polygon352" fill="#000000" points="32.7314502 45.0030391 32.8682102 45.0934766 32.9142952 44.8738241"></polygon>
                    <polygon id="polygon354" fill="#000000" points="32.9218309 45.1555637 32.9940459 45.3036469 33.1456909 45.1387124"></polygon>
                    <polygon id="polygon356" fill="#000000" points="32.9940196 45.5486852 33.2089747 45.4847934 33.0083196 45.3851821"></polygon>
                    <polygon id="polygon358" fill="#000000" points="32.8843395 45.7442029 33.1037795 45.7890964 32.9737145 45.606725"></polygon>
                    <polygon id="polygon360" fill="#000000" points="32.6542582 45.876344 32.8122082 46.0351626 32.8046032 45.8110859"></polygon>
                    <polygon id="polygon362" fill="#000000" points="39.0964692 44.9765895 39.2599442 44.9686518 39.1689442 44.7640289"></polygon>
                    <polygon id="polygon364" fill="#000000" points="38.8810243 45.0934765 39.0183694 45.0027787 38.8349393 44.8734987"></polygon>
                    <polygon id="polygon366" fill="#000000" points="38.7561785 45.3032564 38.8273534 45.1555636 38.6038184 45.138452"></polygon>
                    <polygon id="polygon368" fill="#000000" points="38.5405965 45.4847934 38.7555514 45.5486852 38.7418365 45.3851821"></polygon>
                    <polygon id="polygon370" fill="#000000" points="38.646118 45.7893566 38.865493 45.7445283 38.775533 45.606725"></polygon>
                    <polygon id="polygon372" fill="#000000" points="38.9366274 46.0351625 39.0949673 45.8760837 38.9452073 45.8108256"></polygon>
                    <rect id="rect374" x="19.0447651" y="32.201558" width="39.7655308" height="51.5458184"></rect>
                    <path d="M35.7258207,42.9754802 C35.7258207,42.8932803 35.7922265,42.825789 35.8748764,42.825789 C35.9569416,42.825789 36.0239322,42.8932803 36.0239322,42.9754802 C36.0239322,43.0576151 35.9569416,43.1244554 35.8748764,43.1244554 C35.7922915,43.1244554 35.7258207,43.0576151 35.7258207,42.9754802 M36.0494029,42.9754802 C36.0494029,42.8787016 35.9712363,42.800667 35.8748764,42.800667 C35.7785164,42.800667 35.7003499,42.8786366 35.7003499,42.9754802 C35.7003499,43.0718683 35.7785164,43.149968 35.8748764,43.149968 C35.9712363,43.149968 36.0494029,43.0719333 36.0494029,42.9754802" id="path376" fill="#000000"></path>
                    <path d="M36.6799984,43.4122529 C36.5979983,43.4122529 36.5309427,43.3450872 36.5309427,43.2629523 C36.5309427,43.1801666 36.5979983,43.1130008 36.6799984,43.1130008 C36.7625834,43.1130008 36.829704,43.1801015 36.829704,43.2629523 C36.829639,43.3450872 36.7625834,43.4122529 36.6799984,43.4122529 M36.818528,43.1566065 C36.7867546,43.1148882 36.7365279,43.0874882 36.6799335,43.0874882 C36.5836385,43.0874882 36.505407,43.166434 36.505407,43.2628872 C36.505407,43.3443712 36.5620014,43.4134244 36.6382836,43.4322985 C36.6649889,43.4503916 36.6966974,43.46087 36.7313947,43.46087 C36.8222966,43.46087 36.8960449,43.3873261 36.8960449,43.2960145 C36.8961098,43.2375048 36.8649212,43.185959 36.818528,43.1566065" id="path378" fill="#000000"></path>
                    <path d="M34.9932122,43.4122529 C34.9106272,43.4122529 34.8435067,43.3450872 34.8435067,43.2629523 C34.8435067,43.1801666 34.9105623,43.1130008 34.9932122,43.1130008 C35.0752124,43.1130008 35.142268,43.1801015 35.142268,43.2629523 C35.142268,43.3450872 35.0751474,43.4122529 34.9932122,43.4122529 M35.131157,43.1566065 C35.0993836,43.1148882 35.0491569,43.0874882 34.9932122,43.0874882 C34.8969173,43.0874882 34.818101,43.166434 34.818101,43.2628872 C34.818101,43.3443712 34.8746954,43.4134244 34.9509776,43.4322985 C34.9776829,43.4503916 35.0094563,43.46087 35.0441537,43.46087 C35.1353155,43.46087 35.2087388,43.3873261 35.2087388,43.2960145 C35.2086738,43.2375048 35.1775502,43.185959 35.131157,43.1566065" id="path380" fill="#000000"></path>
                    <path d="M36.0067784,42.9754802 C36.0067784,42.9022617 35.9476499,42.8430361 35.8748764,42.8430361 C35.801778,42.8430361 35.7426495,42.9022617 35.7426495,42.9754802 C35.7426495,43.0483733 35.801778,43.1075338 35.8748764,43.1075338 C35.9476499,43.1075338 36.0067784,43.0483733 36.0067784,42.9754802" id="path382" fill="#000000"></path>
                    <path d="M36.6803234,43.1301827 C36.607225,43.1301827 36.5480965,43.1894084 36.5480965,43.2626269 C36.5480965,43.3355199 36.607225,43.3947455 36.6803234,43.3947455 C36.7530968,43.3947455 36.8122253,43.3355199 36.8122253,43.2626269 C36.8122253,43.1894084 36.7530968,43.1301827 36.6803234,43.1301827" id="path384" fill="#000000"></path>
                    <path d="M34.9928873,43.1301827 C34.9201138,43.1301827 34.8609853,43.1894084 34.8609853,43.2626269 C34.8609853,43.3355199 34.9201138,43.3947455 34.9928873,43.3947455 C35.0659858,43.3947455 35.1251142,43.3355199 35.1251142,43.2626269 C35.1251142,43.1894084 35.0659858,43.1301827 34.9928873,43.1301827" id="path386" fill="#000000"></path>
                </g>
            </g>
        </g>
        <g id="Artboard"></g>
    </g>
</svg>