<?xml version="1.0" encoding="UTF-8" standalone="no"?>
<svg width="60px" height="60px" viewBox="0 0 60 60" version="1.1" xmlns="http://www.w3.org/2000/svg" xmlns:xlink="http://www.w3.org/1999/xlink">
    <!-- Generator: Sketch 40.3 (33839) - http://www.bohemiancoding.com/sketch -->
    <title>Artboard</title>
    <desc>Created with Sketch.</desc>
    <defs>
        <rect id="path-1" x="0.565714286" y="0.237857071" width="96.4285714" height="58.4928564"></rect>
        <rect id="path-3" x="0.565714286" y="0.237857071" width="96.4285714" height="58.4928564"></rect>
        <rect id="path-5" x="0.565714286" y="0.237857071" width="96.4285714" height="58.4928564"></rect>
        <rect id="path-7" x="0.565714286" y="0.237857071" width="96.4285714" height="58.4928564"></rect>
        <rect id="path-9" x="0.565714286" y="0.237857071" width="96.4285714" height="58.4928564"></rect>
        <rect id="path-11" x="0.565714286" y="0.237857071" width="96.4285714" height="58.4928564"></rect>
        <rect id="path-13" x="0.565714286" y="0.237857071" width="96.4285714" height="58.4928564"></rect>
        <path d="M2.20714286,29.5135714 C1.79142857,28.13 1.56071429,26.61 1.56071429,24.9414286 C1.56071429,20.6014286 4.485,16.9842857 5.185,12.5742857 C5.24285714,12 5.27642857,11.39 5.27642857,10.7278571 C5.27642857,5.68785714 2.87071429,1.43142857 2.87071429,1.43142857 L0.47,0.302142857 L2.09857143,4.00071429 C2.91857143,5.86285714 3.54071429,8.15357143 3.54071429,10.7414286 C3.54071429,17.0571429 0.442857143,18.3121429 0.442857143,24.9414286 C0.442857143,26.9642857 0.787142857,28.855 1.40285714,30.5942857 C1.59714286,30.1957143 1.88285714,29.8092857 2.20714286,29.5135714" id="path-15"></path>
        <rect id="path-17" x="0.442857071" y="0.301429286" width="4.83357157" height="30.2928571"></rect>
        <linearGradient x1="-9.61463161%" y1="50.0302006%" x2="118.678552%" y2="50.0302006%" id="linearGradient-19">
            <stop stop-color="#FFFFFF" offset="0%"></stop>
            <stop stop-color="#FFFFFF" offset="11.24%"></stop>
            <stop stop-color="#CDD3D9" offset="27%"></stop>
            <stop stop-color="#98A6B1" offset="45.08%"></stop>
            <stop stop-color="#8494A1" offset="53.93%"></stop>
            <stop stop-color="#8494A1" offset="100%"></stop>
        </linearGradient>
        <rect id="path-20" x="0.565714286" y="0.237857071" width="96.4285714" height="58.4928564"></rect>
        <path d="M2.54571429,1.43071429 C2.54571429,1.43071429 0.140714286,5.68714286 0.140714286,10.7271429 C0.140714286,13.3978571 1.22642857,15.57 2.21642857,17.9742857 L3.50857143,17.9321429 C2.70785714,15.9257143 1.87642857,14.0121429 1.87642857,10.7407143 C1.87642857,8.15285714 2.49785714,5.86214286 3.31928571,4 L4.94714286,0.301428571 L2.54571429,1.43071429 L2.54571429,1.43071429 Z" id="path-22"></path>
        <rect id="path-24" x="0.140713571" y="0.301429286" width="4.80642864" height="17.6721421"></rect>
        <linearGradient x1="50.1386863%" y1="101.381229%" x2="50.1386863%" y2="-2.11459194%" id="linearGradient-26">
            <stop stop-color="#FFFFFF" offset="0%"></stop>
            <stop stop-color="#FFFFFF" offset="34.83%"></stop>
            <stop stop-color="#8494A1" offset="56.18%"></stop>
            <stop stop-color="#8494A1" offset="100%"></stop>
        </linearGradient>
        <rect id="path-27" x="0.565714286" y="0.237857071" width="96.4285714" height="58.4928564"></rect>
        <path d="M22.6042857,13.0192857 C20.6357143,12.3092857 17.9621429,12.0592857 14.0885714,11.0807143 C8.795,9.73928571 3.33,6.33785714 1.49285714,0.228571429 C1.16857143,0.524285714 0.882857143,0.910714286 0.688571429,1.30928571 C2.77714286,7.20357143 8.00357143,11.3385714 13.6542857,12.7921429 C17.2714286,13.7057143 18.9557143,13.795 21.6521429,14.55 C22.0028571,14.9185714 24.4942857,17.6107143 24.4942857,17.6107143 L24.4942857,15.0314286 C24.4942857,15.0307143 22.8564286,13.255 22.6042857,13.0192857" id="path-29"></path>
        <rect id="path-31" x="0.688571571" y="0.227857143" width="23.8057136" height="17.3821421"></rect>
        <linearGradient x1="-0.729520923%" y1="50.0245369%" x2="100.13282%" y2="50.0245369%" id="linearGradient-33">
            <stop stop-color="#FFFFFF" offset="0%"></stop>
            <stop stop-color="#FFFFFF" offset="15.17%"></stop>
            <stop stop-color="#FAFAFB" offset="20.72%"></stop>
            <stop stop-color="#EBEDEF" offset="27.57%"></stop>
            <stop stop-color="#D2D7DC" offset="35.1%"></stop>
            <stop stop-color="#AFB9C2" offset="43.11%"></stop>
            <stop stop-color="#8494A1" offset="51.12%"></stop>
            <stop stop-color="#8494A1" offset="100%"></stop>
        </linearGradient>
        <rect id="path-34" x="0.565714286" y="0.237857071" width="96.4285714" height="58.4928564"></rect>
        <path d="M35.675,0.939285714 C35.675,0.939285714 33.005,3.43142857 29.3192857,3.43142857 C24.7028571,3.43142857 21.6371429,0.19 21.6371429,0.19 C21.6371429,0.19 18.5714286,3.43214286 13.955,3.43214286 C10.2692857,3.43214286 7.59928571,0.94 7.59928571,0.94 C5.72428571,6.03357143 1.7,6.84571429 1.7,6.84571429 C1.7,6.84571429 3.44428571,10.4007143 3.44428571,15.0135714 C3.44428571,21.8592857 0.350714286,23.8378571 0.350714286,29.2271429 C0.350714286,36.7621429 6.22214286,41.5592857 11.6657143,42.9407143 C15.9771429,44.035 18.795,44.16 20.6878571,45.0728571 C20.6878571,45.0728571 21.3764286,45.7028571 21.6371429,45.9921429 C21.8978571,45.7028571 22.5864286,45.0728571 22.5864286,45.0728571 C24.4792857,44.16 27.2978571,44.035 31.6085714,42.9407143 C37.0521429,41.5585714 42.9235714,36.7621429 42.9235714,29.2271429 C42.9235714,23.8378571 39.83,21.8592857 39.83,15.0135714 C39.83,10.4007143 41.5742857,6.84571429 41.5742857,6.84571429 C41.5742857,6.84571429 37.55,6.03285714 35.675,0.939285714 M5.42,15.0135714 C5.42,12.0871429 4.78571429,9.56 4.24,7.925 C5.51071429,7.22785714 7.10571429,5.995 8.37642857,3.87285714 C9.74214286,4.63714286 11.6792857,5.40785714 13.955,5.40785714 C17.4028571,5.40785714 20.0964286,3.90357143 21.6371429,2.77142857 C23.1778571,3.90357143 25.8721429,5.40785714 29.3192857,5.40785714 C29.87,5.40785714 30.4007143,5.36214286 30.9071429,5.28285714 L2.68214286,26.4785714 C3.49571429,23.2885714 5.42,20.6485714 5.42,15.0135714 M40.9478571,29.2271429 C40.9478571,35.6192857 35.8535714,39.8214286 31.1228571,41.0257143 C27.7078571,41.8942857 23.5307143,42.3414286 22.2685714,43.0614286 C21.9842857,43.2692857 21.6364286,43.6392857 21.6364286,43.6392857 C21.6364286,43.6392857 21.2885714,43.2692857 21.0042857,43.0614286 C19.7428571,42.3414286 15.5657143,41.8942857 12.1507143,41.0257143 C12.0221429,40.9935714 11.8935714,40.9571429 11.7642857,40.9214286 L38.6328571,20.7428571 C39.55,23.9435714 40.9478571,26.0407143 40.9478571,29.2271429 M37.8535714,15.0135714 C37.8535714,16.2292857 37.9435714,17.305 38.0921429,18.2771429 L9.265,39.9257143 C5.65285714,38.0692857 2.49142857,34.5064286 2.33285714,29.6135714 L35.4642857,4.73214286 C36.6192857,6.33642857 37.9464286,7.32714286 39.0342857,7.92428571 C38.4885714,9.55928571 37.8535714,12.0864286 37.8535714,15.0135714" id="path-36"></path>
        <rect id="path-38" x="0.350714429" y="0.190714286" width="42.5735721" height="45.8028579"></rect>
        <linearGradient x1="67.1279098%" y1="74.320389%" x2="31.4568769%" y2="23.4926397%" id="linearGradient-40">
            <stop stop-color="#8494A1" offset="0%"></stop>
            <stop stop-color="#99A6B0" offset="4.22%"></stop>
            <stop stop-color="#C2C8CD" offset="13.5%"></stop>
            <stop stop-color="#DBDDDF" offset="20.84%"></stop>
            <stop stop-color="#E4E5E6" offset="25.28%"></stop>
            <stop stop-color="#E4E5E6" offset="75.28%"></stop>
            <stop stop-color="#DCDEE0" offset="79.51%"></stop>
            <stop stop-color="#C6CCD1" offset="86.02%"></stop>
            <stop stop-color="#A3AEB8" offset="93.97%"></stop>
            <stop stop-color="#8494A1" offset="100%"></stop>
        </linearGradient>
        <rect id="path-41" x="0.565714286" y="0.237857071" width="96.4285714" height="58.4928564"></rect>
        <path d="M8.24071429,6.665 C12.8742857,6.665 15.9228571,2.72714286 15.9228571,2.72714286 L15.9228571,0.263571429 L13.4978571,2.66285714 C12.2514286,3.89642857 10.2557143,4.90214286 8.24071429,4.90214286 C6.73642857,4.90214286 5.32071429,4.23142857 4.08142857,3.20571429 L0.315714286,0.0871428571 L1.10071429,3.01357143 C1.10071429,3.01285714 4.64642857,6.665 8.24071429,6.665" id="path-43"></path>
        <rect id="path-45" x="0.315713571" y="0.087143" width="15.6071429" height="6.57785686"></rect>
        <linearGradient x1="-0.897974005%" y1="50.050586%" x2="100.215985%" y2="50.050586%" id="linearGradient-47">
            <stop stop-color="#FFFFFF" offset="0%"></stop>
            <stop stop-color="#FFFFFF" offset="24.72%"></stop>
            <stop stop-color="#FAFAFB" offset="33.04%"></stop>
            <stop stop-color="#EBEDEF" offset="43.32%"></stop>
            <stop stop-color="#D2D7DC" offset="54.62%"></stop>
            <stop stop-color="#AFB9C2" offset="66.63%"></stop>
            <stop stop-color="#8494A1" offset="78.65%"></stop>
            <stop stop-color="#8494A1" offset="100%"></stop>
        </linearGradient>
        <rect id="path-48" x="0.565714286" y="0.237857071" width="96.4285714" height="58.4928564"></rect>
        <path d="M23.8114286,7.08428571 C23.8114286,15.265 17.9657143,20.6485714 10.6135714,22.5092857 C6.74071429,23.4878571 4.06642857,23.7378571 2.09785714,24.4478571 C1.84571429,24.6835714 0.207857143,26.4592857 0.207857143,26.4592857 L0.207857143,29.0385714 C0.207857143,29.0385714 2.69857143,26.3457143 3.05,25.9778571 C5.74571429,25.2228571 7.43071429,25.1335714 11.0478571,24.22 C18.3635714,22.3364286 24.9728571,15.9607143 24.9728571,7.08428571 C24.9728571,3.88857143 24.2528571,1.94214286 23.5071429,0.075 L22.215,0.117142857 C23.0485714,2.13285714 23.8114286,4.31214286 23.8114286,7.08428571" id="path-50"></path>
        <rect id="path-52" x="0.208571429" y="0.075" width="24.765715" height="28.9635714"></rect>
        <linearGradient x1="0.113634514%" y1="50.1019322%" x2="101.661855%" y2="50.1019322%" id="linearGradient-54">
            <stop stop-color="#FFFFFF" offset="0%"></stop>
            <stop stop-color="#FFFFFF" offset="19.66%"></stop>
            <stop stop-color="#FAFBFC" offset="31.85%"></stop>
            <stop stop-color="#EDEFF1" offset="45.42%"></stop>
            <stop stop-color="#D7DCE0" offset="59.67%"></stop>
            <stop stop-color="#B8C1C8" offset="74.38%"></stop>
            <stop stop-color="#909EAA" offset="89.3%"></stop>
            <stop stop-color="#8494A1" offset="93.26%"></stop>
            <stop stop-color="#8494A1" offset="100%"></stop>
        </linearGradient>
        <rect id="path-55" x="0.565714286" y="0.237857071" width="96.4285714" height="58.4928564"></rect>
        <path d="M7.89071429,6.665 C11.4842857,6.665 15.0307143,3.01357143 15.0307143,3.01357143 L15.8164286,0.0871428571 L12.05,3.20571429 C10.8114286,4.23142857 9.395,4.90214286 7.89142857,4.90214286 C5.87714286,4.90214286 3.88214286,3.89642857 2.635,2.66285714 L0.209285714,0.263571429 L0.209285714,2.72714286 C0.208571429,2.72642857 3.25785714,6.665 7.89071429,6.665" id="path-57"></path>
        <rect id="path-59" x="0.208571429" y="0.087143" width="15.6078571" height="6.57785686"></rect>
        <linearGradient x1="0.161569036%" y1="50.3897872%" x2="101.321913%" y2="50.3897872%" id="linearGradient-61">
            <stop stop-color="#FFFFFF" offset="0%"></stop>
            <stop stop-color="#FFFFFF" offset="24.72%"></stop>
            <stop stop-color="#FAFAFB" offset="33.04%"></stop>
            <stop stop-color="#EBEDEF" offset="43.32%"></stop>
            <stop stop-color="#D2D7DC" offset="54.62%"></stop>
            <stop stop-color="#AFB9C2" offset="66.63%"></stop>
            <stop stop-color="#8494A1" offset="78.65%"></stop>
            <stop stop-color="#8494A1" offset="100%"></stop>
        </linearGradient>
        <rect id="path-62" x="0.565714286" y="0.237857071" width="96.4285714" height="58.4928564"></rect>
        <path d="M10.3864286,3.01285714 L9.60142857,0.0864285714 L7.91214286,4.71214286 C7.18428571,6.705 5.96928571,7.965 4.30142857,8.45642857 L0.47,9.58714286 L2.87071429,10.7164286 C2.87071429,10.7164286 8.78428571,10.2014286 10.3864286,3.01285714" id="path-64"></path>
        <rect id="path-66" x="0.47" y="0.087143" width="9.91642857" height="10.6292857"></rect>
        <linearGradient x1="-5.03473406%" y1="50.0424304%" x2="104.214708%" y2="50.0424304%" id="linearGradient-68">
            <stop stop-color="#FFFFFF" offset="0%"></stop>
            <stop stop-color="#FFFFFF" offset="38.76%"></stop>
            <stop stop-color="#FAFAFB" offset="46.13%"></stop>
            <stop stop-color="#EBEDEF" offset="55.23%"></stop>
            <stop stop-color="#D2D7DC" offset="65.24%"></stop>
            <stop stop-color="#AFB9C2" offset="75.87%"></stop>
            <stop stop-color="#8494A1" offset="86.52%"></stop>
            <stop stop-color="#8494A1" offset="100%"></stop>
        </linearGradient>
        <rect id="path-69" x="0.565714286" y="0.237857071" width="96.4285714" height="58.4928564"></rect>
        <rect id="path-71" x="0.565714286" y="0.237857071" width="96.4285714" height="58.4928564"></rect>
        <rect id="path-73" x="0.565714286" y="0.237857071" width="96.4285714" height="58.4928564"></rect>
        <rect id="path-75" x="0.565714286" y="0.237857071" width="96.4285714" height="58.4928564"></rect>
        <rect id="path-77" x="0.565714286" y="0.237857071" width="96.4285714" height="58.4928564"></rect>
    </defs>
    <g id="Page-1" stroke="none" stroke-width="1" fill="none" fill-rule="evenodd">
        <g id="Artboard">
            <g id="knights" transform="translate(-19.285714, 0.000000)">
                <g id="g236" transform="translate(0.579286, 0.475714)">
                    <g id="path244-Clipped">
                        <mask id="mask-2" fill="white">
                            <use xlink:href="#path-1"></use>
                        </mask>
                        <g id="SVGID_1_"></g>
                        <path d="M25.7557143,35.6557143 C25.7557143,30.3428571 28.2464286,28.3228571 28.7564286,23.2885714 C28.0564286,27.6992857 25.1321429,31.3157143 25.1321429,35.6557143 C25.1321429,37.3242857 25.3628571,38.845 25.7785714,40.2278571 C27.6157143,46.3378571 33.0807143,49.7385714 38.3742857,51.08 C30.2214286,49.0178571 25.7557143,42.175 25.7557143,35.6557143" id="path244" fill="#FFFFFF" mask="url(#mask-2)"></path>
                    </g>
                    <g id="path246-Clipped">
                        <mask id="mask-4" fill="white">
                            <use xlink:href="#path-3"></use>
                        </mask>
                        <g id="SVGID_1_"></g>
                        <path d="M70.7885714,28.6892857 C69.7978571,26.285 68.7128571,24.1128571 68.7128571,21.4421429 C68.7128571,27.9085714 71.8042857,29.7378571 71.8042857,35.6557143 C71.8042857,42.175 67.3385714,49.0178571 59.1857143,51.0807143 C66.5378571,49.2207143 72.3835714,43.8364286 72.3835714,35.6557143 C72.3828571,32.8835714 71.62,30.7042857 70.7885714,28.6892857" id="path246" fill="#FFFFFF" mask="url(#mask-4)"></path>
                    </g>
                    <g id="path248-Clipped">
                        <mask id="mask-6" fill="white">
                            <use xlink:href="#path-5"></use>
                        </mask>
                        <g id="SVGID_1_"></g>
                        <path d="M69.6878571,9.885 C68.0192857,9.39357143 66.8057143,8.13357143 66.0764286,6.14071429 L64.3878571,1.515 L63.6021429,4.44142857 C65.2042857,11.6292857 71.1171429,12.145 71.1171429,12.145 L73.5178571,11.0157143 L69.6878571,9.885 L69.6878571,9.885 Z" id="path248" fill="#E4E5E6" mask="url(#mask-6)"></path>
                    </g>
                    <g id="path250-Clipped">
                        <mask id="mask-8" fill="white">
                            <use xlink:href="#path-7"></use>
                        </mask>
                        <g id="SVGID_1_"></g>
                        <path d="M41.7807143,36.0621429 L38.6857143,31.3214286 L35.2485714,33.9028571 C35.2485714,33.9028571 36.4521429,33.9364286 36.4521429,35.1978571 L36.4521429,44.1235714 L38.8778571,42.3028571 L38.8778571,35.9914286 L41.6428571,40.225 L44.2064286,38.3007143 L44.2064286,27.1757143 L41.7807143,28.9971429 L41.7807143,36.0621429 L41.7807143,36.0621429 Z" id="path250" fill="#E4E5E6" mask="url(#mask-8)"></path>
                    </g>
                    <g id="path252-Clipped">
                        <mask id="mask-10" fill="white">
                            <use xlink:href="#path-9"></use>
                        </mask>
                        <g id="SVGID_1_"></g>
                        <path d="M51.6157143,25.7242857 L48.8792857,27.7785714 L48.8792857,23.6671429 L45.1835714,26.4421429 C45.1835714,26.4421429 46.3878571,26.4757143 46.3878571,27.7364286 L46.3878571,36.6635714 L48.8792857,34.7928571 L48.8792857,30.7242857 L51.6157143,28.67 L51.6157143,32.7378571 L53.9871429,30.9564286 L53.9871429,19.8307143 L51.6157143,21.6135714 L51.6157143,25.7242857 L51.6157143,25.7242857 Z" id="path252" fill="#E4E5E6" mask="url(#mask-10)"></path>
                    </g>
                    <g id="path254-Clipped">
                        <mask id="mask-12" fill="white">
                            <use xlink:href="#path-11"></use>
                        </mask>
                        <g id="SVGID_1_"></g>
                        <path d="M58.5485714,24.6907143 L58.5485714,16.405 L54.8535714,19.18 C54.8535714,19.18 56.0578571,19.2135714 56.0578571,20.475 L56.0578571,29.4007143 L62.9371429,24.235 C62.7878571,22.455 62.9371429,21.3957143 62.9371429,21.3957143 L58.5485714,24.6907143 L58.5485714,24.6907143 Z" id="path254" fill="#E4E5E6" mask="url(#mask-12)"></path>
                    </g>
                    <g id="g256-Clipped">
                        <mask id="mask-14" fill="white">
                            <use xlink:href="#path-13"></use>
                        </mask>
                        <g id="SVGID_1_"></g>
                        <g id="g256" mask="url(#mask-14)">
                            <g transform="translate(23.571429, 10.714286)" id="g264-Clipped">
                                <g>
                                    <mask id="mask-16" fill="white">
                                        <use xlink:href="#path-15"></use>
                                    </mask>
                                    <g id="SVGID_3_"></g>
                                    <g id="g264" mask="url(#mask-16)">
                                        <g id="rect285-Clipped">
                                            <mask id="mask-18" fill="white">
                                                <use xlink:href="#path-17"></use>
                                            </mask>
                                            <g id="SVGID_5_"></g>
                                            <rect id="rect285" fill="url(#linearGradient-19)" mask="url(#mask-18)" x="0.442857071" y="0.301429286" width="4.83357157" height="30.2928571"></rect>
                                        </g>
                                    </g>
                                </g>
                            </g>
                        </g>
                    </g>
                    <g id="g287-Clipped">
                        <mask id="mask-21" fill="white">
                            <use xlink:href="#path-20"></use>
                        </mask>
                        <g id="SVGID_1_"></g>
                        <g id="g287" mask="url(#mask-21)">
                            <g transform="translate(68.571429, 10.714286)" id="g295-Clipped">
                                <g>
                                    <mask id="mask-23" fill="white">
                                        <use xlink:href="#path-22"></use>
                                    </mask>
                                    <g id="SVGID_8_"></g>
                                    <g id="g295" mask="url(#mask-23)">
                                        <g id="rect312-Clipped">
                                            <mask id="mask-25" fill="white">
                                                <use xlink:href="#path-24"></use>
                                            </mask>
                                            <g id="SVGID_10_"></g>
                                            <rect id="rect312" fill="url(#linearGradient-26)" mask="url(#mask-25)" x="0.140713571" y="0.301429286" width="4.80642864" height="17.6721421"></rect>
                                        </g>
                                    </g>
                                </g>
                            </g>
                        </g>
                    </g>
                    <g id="g314-Clipped">
                        <mask id="mask-28" fill="white">
                            <use xlink:href="#path-27"></use>
                        </mask>
                        <g id="SVGID_1_"></g>
                        <g id="g314" mask="url(#mask-28)">
                            <g transform="translate(24.285714, 40.000000)" id="g322-Clipped">
                                <g>
                                    <mask id="mask-30" fill="white">
                                        <use xlink:href="#path-29"></use>
                                    </mask>
                                    <g id="SVGID_13_"></g>
                                    <g id="g322" mask="url(#mask-30)">
                                        <g id="rect347-Clipped">
                                            <mask id="mask-32" fill="white">
                                                <use xlink:href="#path-31"></use>
                                            </mask>
                                            <g id="SVGID_15_"></g>
                                            <rect id="rect347" fill="url(#linearGradient-33)" mask="url(#mask-32)" x="0.688571571" y="0.227857143" width="23.8057136" height="17.3821421"></rect>
                                        </g>
                                    </g>
                                </g>
                            </g>
                        </g>
                    </g>
                    <g id="g349-Clipped">
                        <mask id="mask-35" fill="white">
                            <use xlink:href="#path-34"></use>
                        </mask>
                        <g id="SVGID_1_"></g>
                        <g id="g349" mask="url(#mask-35)">
                            <g transform="translate(27.142857, 6.428571)" id="g357-Clipped">
                                <g>
                                    <mask id="mask-37" fill="white">
                                        <use xlink:href="#path-36"></use>
                                    </mask>
                                    <g id="SVGID_18_"></g>
                                    <g id="g357" mask="url(#mask-37)">
                                        <g id="polygon386-Clipped">
                                            <mask id="mask-39" fill="white">
                                                <use xlink:href="#path-38"></use>
                                            </mask>
                                            <g id="SVGID_20_"></g>
                                            <polygon id="polygon386" fill="url(#linearGradient-40)" mask="url(#mask-39)" points="64.445 30.925 14.3571429 65.9964286 -21.1692857 15.2592857 28.9178571 -19.8128571"></polygon>
                                        </g>
                                    </g>
                                </g>
                            </g>
                        </g>
                    </g>
                    <g id="g388-Clipped">
                        <mask id="mask-42" fill="white">
                            <use xlink:href="#path-41"></use>
                        </mask>
                        <g id="SVGID_1_"></g>
                        <g id="g388" mask="url(#mask-42)">
                            <g transform="translate(32.857143, 1.428571)" id="g396-Clipped">
                                <g>
                                    <mask id="mask-44" fill="white">
                                        <use xlink:href="#path-43"></use>
                                    </mask>
                                    <g id="SVGID_23_"></g>
                                    <g id="g396" mask="url(#mask-44)">
                                        <g id="rect421-Clipped">
                                            <mask id="mask-46" fill="white">
                                                <use xlink:href="#path-45"></use>
                                            </mask>
                                            <g id="SVGID_25_"></g>
                                            <rect id="rect421" fill="url(#linearGradient-47)" mask="url(#mask-46)" x="0.315713571" y="0.087143" width="15.6071429" height="6.57785686"></rect>
                                        </g>
                                    </g>
                                </g>
                            </g>
                        </g>
                    </g>
                    <g id="g423-Clipped">
                        <mask id="mask-49" fill="white">
                            <use xlink:href="#path-48"></use>
                        </mask>
                        <g id="SVGID_1_"></g>
                        <g id="g423" mask="url(#mask-49)">
                            <g transform="translate(48.571429, 28.571429)" id="g431-Clipped">
                                <g>
                                    <mask id="mask-51" fill="white">
                                        <use xlink:href="#path-50"></use>
                                    </mask>
                                    <g id="SVGID_28_"></g>
                                    <g id="g431" mask="url(#mask-51)">
                                        <g id="rect458-Clipped">
                                            <mask id="mask-53" fill="white">
                                                <use xlink:href="#path-52"></use>
                                            </mask>
                                            <g id="SVGID_30_"></g>
                                            <rect id="rect458" fill="url(#linearGradient-54)" mask="url(#mask-53)" x="0.208571429" y="0.075" width="24.765715" height="28.9635714"></rect>
                                        </g>
                                    </g>
                                </g>
                            </g>
                        </g>
                    </g>
                    <g id="g460-Clipped">
                        <mask id="mask-56" fill="white">
                            <use xlink:href="#path-55"></use>
                        </mask>
                        <g id="SVGID_1_"></g>
                        <g id="g460" mask="url(#mask-56)">
                            <g transform="translate(48.571429, 1.428571)" id="g468-Clipped">
                                <g>
                                    <mask id="mask-58" fill="white">
                                        <use xlink:href="#path-57"></use>
                                    </mask>
                                    <g id="SVGID_33_"></g>
                                    <g id="g468" mask="url(#mask-58)">
                                        <g id="rect493-Clipped">
                                            <mask id="mask-60" fill="white">
                                                <use xlink:href="#path-59"></use>
                                            </mask>
                                            <g id="SVGID_35_"></g>
                                            <rect id="rect493" fill="url(#linearGradient-61)" mask="url(#mask-60)" x="0.208571429" y="0.087143" width="15.6078571" height="6.57785686"></rect>
                                        </g>
                                    </g>
                                </g>
                            </g>
                        </g>
                    </g>
                    <g id="g495-Clipped">
                        <mask id="mask-63" fill="white">
                            <use xlink:href="#path-62"></use>
                        </mask>
                        <g id="SVGID_1_"></g>
                        <g id="g495" mask="url(#mask-63)">
                            <g transform="translate(23.571429, 1.428571)" id="g503-Clipped">
                                <g>
                                    <mask id="mask-65" fill="white">
                                        <use xlink:href="#path-64"></use>
                                    </mask>
                                    <g id="SVGID_38_"></g>
                                    <g id="g503" mask="url(#mask-65)">
                                        <g id="rect528-Clipped">
                                            <mask id="mask-67" fill="white">
                                                <use xlink:href="#path-66"></use>
                                            </mask>
                                            <g id="SVGID_40_"></g>
                                            <rect id="rect528" fill="url(#linearGradient-68)" mask="url(#mask-67)" x="0.47" y="0.087143" width="9.91642857" height="10.6292857"></rect>
                                        </g>
                                    </g>
                                </g>
                            </g>
                        </g>
                    </g>
                    <g id="path530-Clipped">
                        <mask id="mask-70" fill="white">
                            <use xlink:href="#path-69"></use>
                        </mask>
                        <g id="SVGID_1_"></g>
                        <path d="M72.5878571,15.0228571 L74.5671429,10.53 L69.9021429,9.15428571 C68.48,8.73428571 67.4342857,7.63214286 66.7928571,5.87928571 L64.7321429,0.238571429 L60.1335714,4.04642857 C58.9142857,5.05571429 57.6792857,5.56714286 56.4614286,5.56714286 C54.8335714,5.56714286 52.98,4.775 51.7407143,3.54857143 L48.7792857,0.618571429 L45.8178571,3.54857143 C44.5778571,4.775 42.725,5.56714286 41.0971429,5.56714286 C39.8792857,5.56714286 38.6442857,5.05571429 37.425,4.04642857 L32.8264286,0.238571429 L30.7657143,5.87928571 C30.1257143,7.63214286 29.0792857,8.73428571 27.6564286,9.15428571 L22.9921429,10.53 L24.9707143,15.0228571 C25.885,17.0971429 26.3478571,19.2614286 26.3478571,21.4557143 C26.3478571,27.5292857 23.2507143,28.9107143 23.2507143,35.6557143 C23.2507143,45.3735714 30.7657143,51.7328571 37.7485714,53.53 C41.2764286,54.3885714 42.3428571,54.4464286 45.5285714,55.2314286 C45.7892857,55.5121429 48.7792857,58.7307143 48.7792857,58.7307143 C48.7792857,58.7307143 51.77,55.5114286 52.03,55.2314286 C55.2157143,54.4464286 56.2821429,54.3885714 59.81,53.53 C66.7921429,51.7321429 74.3085714,45.3735714 74.3085714,35.6557143 C74.3085714,28.9107143 71.2107143,27.5292857 71.2107143,21.4557143 C71.2107143,19.2607143 71.6742857,17.0971429 72.5878571,15.0228571 M72.08,28.6464286 C72.8257143,30.5128571 73.5457143,32.46 73.5457143,35.6557143 C73.5457143,44.5328571 66.9364286,50.9085714 59.6207143,52.7914286 C56.0035714,53.705 54.3185714,53.7942857 51.6228571,54.5492857 C51.2714286,54.9178571 48.7807143,57.61 48.7807143,57.61 C48.7807143,57.61 46.2892857,54.9171429 45.9385714,54.5492857 C43.2421429,53.7942857 41.5578571,53.705 37.9407143,52.7914286 C32.29,51.3378571 27.0635714,47.2028571 24.975,41.3085714 C24.3585714,39.5692857 24.0142857,37.6785714 24.0142857,35.6557143 C24.0142857,29.0264286 27.1121429,27.7707143 27.1121429,21.4557143 C27.1121429,18.8678571 26.49,16.5771429 25.67,14.715 L24.0414286,11.0164286 L27.8728571,9.88571429 C29.5407143,9.39428571 30.7557143,8.13428571 31.4835714,6.14142857 L33.1728571,1.51571429 L36.9385714,4.63428571 C38.1778571,5.66 39.5935714,6.33071429 41.0978571,6.33071429 C43.1128571,6.33071429 45.1085714,5.325 46.355,4.09142857 L48.78,1.69214286 L51.2057143,4.09142857 C52.4528571,5.325 54.4478571,6.33071429 56.4621429,6.33071429 C57.9657143,6.33071429 59.3821429,5.66 60.6207143,4.63428571 L64.3871429,1.51571429 L66.0757143,6.14142857 C66.805,8.13428571 68.0185714,9.39428571 69.6871429,9.88571429 L73.5178571,11.0164286 L71.89,14.715 C71.0692857,16.5771429 70.4471429,18.8678571 70.4471429,21.4557143 C70.4478571,24.7271429 71.2792857,26.64 72.08,28.6464286" id="path530" fill="#000000" mask="url(#mask-70)"></path>
                    </g>
                    <g id="path536-Clipped">
                        <mask id="mask-72" fill="white">
                            <use xlink:href="#path-71"></use>
                        </mask>
                        <g id="SVGID_1_"></g>
                        <path d="M71.1171429,12.145 C71.1171429,12.145 65.2042857,11.6292857 63.6021429,4.44142857 C63.6021429,4.44142857 60.0557143,8.09285714 56.4621429,8.09285714 C51.8292857,8.09285714 48.78,4.155 48.78,4.155 C48.78,4.155 45.7314286,8.09285714 41.0978571,8.09285714 C37.5035714,8.09285714 33.9578571,4.44142857 33.9578571,4.44142857 C32.3557143,11.63 26.4421429,12.145 26.4421429,12.145 C26.4421429,12.145 28.8478571,16.4014286 28.8478571,21.4414286 C28.8478571,22.1035714 28.8142857,22.7135714 28.7564286,23.2878571 C28.2464286,28.3228571 25.7557143,30.3421429 25.7557143,35.655 C25.7557143,42.1742857 30.2214286,49.0171429 38.3742857,51.08 C42.2478571,52.0585714 44.9214286,52.3085714 46.89,53.0185714 C47.1421429,53.2542857 48.78,55.03 48.78,55.03 C48.78,55.03 50.4178571,53.2542857 50.67,53.0185714 C52.6385714,52.3085714 55.3128571,52.0585714 59.1857143,51.08 C67.3385714,49.0171429 71.8042857,42.1742857 71.8042857,35.655 C71.8042857,29.7371429 68.7128571,27.9071429 68.7128571,21.4414286 C68.7121429,16.4014286 71.1171429,12.145 71.1171429,12.145 M70.0664286,35.6557143 C70.0664286,43.1907143 64.195,47.9878571 58.7514286,49.3692857 C54.4407143,50.4635714 51.6228571,50.5885714 49.7292857,51.5014286 C49.7292857,51.5014286 49.0407143,52.1314286 48.78,52.4207143 C48.5192857,52.1314286 47.8307143,51.5014286 47.8307143,51.5014286 C45.9378571,50.5885714 43.12,50.4635714 38.8085714,49.3692857 C33.365,47.9871429 27.4935714,43.1907143 27.4935714,35.6557143 C27.4935714,30.2664286 30.5871429,28.2878571 30.5871429,21.4421429 C30.5871429,16.8292857 28.8428571,13.2742857 28.8428571,13.2742857 C28.8428571,13.2742857 32.8671429,12.4621429 34.7421429,7.36857143 C34.7421429,7.36857143 37.4121429,9.86071429 41.0978571,9.86071429 C45.7142857,9.86071429 48.78,6.61928571 48.78,6.61928571 C48.78,6.61928571 51.8457143,9.86071429 56.4621429,9.86071429 C60.1478571,9.86071429 62.8178571,7.36857143 62.8178571,7.36857143 C64.6928571,12.4621429 68.7171429,13.2742857 68.7171429,13.2742857 C68.7171429,13.2742857 66.9728571,16.8292857 66.9728571,21.4421429 C66.9728571,28.2878571 70.0664286,30.2664286 70.0664286,35.6557143" id="path536" fill="#000000" mask="url(#mask-72)"></path>
                    </g>
                    <g id="path538-Clipped">
                        <mask id="mask-74" fill="white">
                            <use xlink:href="#path-73"></use>
                        </mask>
                        <g id="SVGID_1_"></g>
                        <path d="M56.4621429,11.8357143 C53.015,11.8357143 50.3207143,10.3314286 48.78,9.19928571 C47.2392857,10.3314286 44.5457143,11.8357143 41.0978571,11.8357143 C38.8221429,11.8357143 36.885,11.065 35.5192857,10.3007143 C34.2485714,12.4228571 32.6535714,13.6557143 31.3828571,14.3528571 C31.9285714,15.9878571 32.5628571,18.515 32.5628571,21.4414286 C32.5628571,27.0764286 30.6385714,29.7171429 29.825,32.9071429 L58.05,11.7114286 C57.5435714,11.79 57.0128571,11.8357143 56.4621429,11.8357143" id="path538" fill="#000000" mask="url(#mask-74)"></path>
                    </g>
                    <g id="path540-Clipped">
                        <mask id="mask-76" fill="white">
                            <use xlink:href="#path-75"></use>
                        </mask>
                        <g id="SVGID_1_"></g>
                        <path d="M64.9964286,21.4421429 C64.9964286,18.5157143 65.6314286,15.9885714 66.1771429,14.3535714 C65.0892857,13.7564286 63.7621429,12.7657143 62.6071429,11.1614286 L29.4757143,36.0421429 C29.6342857,40.935 32.7957143,44.4978571 36.4078571,46.3542857 L65.235,24.7057143 C65.0864286,23.7335714 64.9964286,22.6578571 64.9964286,21.4421429 L64.9964286,21.4421429 Z M44.2064286,38.3007143 L41.6428571,40.225 L38.8778571,35.9914286 L38.8778571,42.3028571 L36.4521429,44.1235714 L36.4521429,35.1978571 C36.4521429,33.9364286 35.2485714,33.9028571 35.2485714,33.9028571 L38.6857143,31.3214286 L41.7807143,36.0621429 L41.7807143,28.9971429 L44.2064286,27.1757143 L44.2064286,38.3007143 L44.2064286,38.3007143 Z M53.9871429,30.9557143 L51.6157143,32.7371429 L51.6157143,28.6692857 L48.8792857,30.7235714 L48.8792857,34.7921429 L46.3878571,36.6628571 L46.3878571,27.7364286 C46.3878571,26.4757143 45.1835714,26.4421429 45.1835714,26.4421429 L48.8792857,23.6671429 L48.8792857,27.7785714 L51.6157143,25.7242857 L51.6157143,21.6135714 L53.9871429,19.8307143 L53.9871429,30.9557143 L53.9871429,30.9557143 Z M62.9364286,24.2357143 L56.0571429,29.4014286 L56.0571429,20.4757143 C56.0571429,19.2142857 54.8528571,19.1807143 54.8528571,19.1807143 L58.5478571,16.4057143 L58.5478571,24.6914286 L62.9364286,21.3964286 C62.9364286,21.3964286 62.7871429,22.4557143 62.9364286,24.2357143 L62.9364286,24.2357143 Z" id="path540" fill="#000000" mask="url(#mask-76)"></path>
                    </g>
                    <g id="path542-Clipped">
                        <mask id="mask-78" fill="white">
                            <use xlink:href="#path-77"></use>
                        </mask>
                        <g id="SVGID_1_"></g>
                        <path d="M38.9078571,47.3492857 C39.0371429,47.3857143 39.1657143,47.4221429 39.2942857,47.4535714 C42.7092857,48.3221429 46.8864286,48.7692857 48.1478571,49.4892857 C48.4321429,49.6971429 48.78,50.0671429 48.78,50.0671429 C48.78,50.0671429 49.1278571,49.6971429 49.4121429,49.4892857 C50.6742857,48.7692857 54.8507143,48.3221429 58.2664286,47.4535714 C62.9971429,46.2492857 68.0914286,42.0478571 68.0914286,35.655 C68.0914286,32.4685714 66.6935714,30.3721429 65.7771429,27.1707143 L38.9078571,47.3492857 L38.9078571,47.3492857 Z" id="path542" fill="#000000" mask="url(#mask-78)"></path>
                    </g>
                </g>
            </g>
        </g>
    </g>
</svg>