<?xml version="1.0" encoding="UTF-8" standalone="no"?>
<svg width="26px" height="30px" viewBox="0 0 26 30" version="1.1" xmlns="http://www.w3.org/2000/svg" xmlns:xlink="http://www.w3.org/1999/xlink">
    <!-- Generator: Sketch 40.3 (33839) - http://www.bohemiancoding.com/sketch -->
    <title>knights</title>
    <desc>Created with Sketch.</desc>
    <defs>
        <rect id="path-1" x="0.282857143" y="0.118928536" width="48.2142857" height="29.2464282"></rect>
        <rect id="path-3" x="0.282857143" y="0.118928536" width="48.2142857" height="29.2464282"></rect>
        <rect id="path-5" x="0.282857143" y="0.118928536" width="48.2142857" height="29.2464282"></rect>
        <rect id="path-7" x="0.282857143" y="0.118928536" width="48.2142857" height="29.2464282"></rect>
        <rect id="path-9" x="0.282857143" y="0.118928536" width="48.2142857" height="29.2464282"></rect>
        <rect id="path-11" x="0.282857143" y="0.118928536" width="48.2142857" height="29.2464282"></rect>
        <rect id="path-13" x="0.282857143" y="0.118928536" width="48.2142857" height="29.2464282"></rect>
        <path d="M1.10357143,14.7567857 C0.895714285,14.065 0.780357145,13.305 0.780357145,12.4707143 C0.780357145,10.3007143 2.2425,8.49214285 2.5925,6.28714285 C2.62142857,6 2.63821428,5.695 2.63821428,5.36392855 C2.63821428,2.84392857 1.43535714,0.715714285 1.43535714,0.715714285 L0.235,0.151071428 L1.04928571,2.00035715 C1.45928571,2.93142857 1.77035714,4.07678571 1.77035714,5.3707143 C1.77035714,8.52857145 0.221428571,9.15607145 0.221428571,12.4707143 C0.221428571,13.4821429 0.393571428,14.4275 0.70142857,15.2971429 C0.79857143,15.0978571 0.94142857,14.9046429 1.10357143,14.7567857" id="path-15"></path>
        <rect id="path-17" x="0.221428535" y="0.150714643" width="2.41678578" height="15.1464285"></rect>
        <linearGradient x1="-9.61463161%" y1="50.0302006%" x2="118.678552%" y2="50.0302006%" id="linearGradient-19">
            <stop stop-color="#FFFFFF" offset="0%"></stop>
            <stop stop-color="#FFFFFF" offset="11.24%"></stop>
            <stop stop-color="#CDD3D9" offset="27%"></stop>
            <stop stop-color="#98A6B1" offset="45.08%"></stop>
            <stop stop-color="#8494A1" offset="53.93%"></stop>
            <stop stop-color="#8494A1" offset="100%"></stop>
        </linearGradient>
        <rect id="path-20" x="0.282857143" y="0.118928536" width="48.2142857" height="29.2464282"></rect>
        <path d="M1.27285714,0.715357145 C1.27285714,0.715357145 0.070357143,2.84357143 0.070357143,5.36357145 C0.070357143,6.69892855 0.613214285,7.785 1.10821429,8.98714285 L1.75428571,8.96607145 C1.35392857,7.96285715 0.938214285,7.00607145 0.938214285,5.37035715 C0.938214285,4.07642857 1.24892857,2.93107143 1.65964285,2 L2.47357143,0.150714285 L1.27285714,0.715357145 L1.27285714,0.715357145 L1.27285714,0.715357145 Z" id="path-22"></path>
        <rect id="path-24" x="0.0703567855" y="0.150714643" width="2.40321432" height="8.83607105"></rect>
        <linearGradient x1="50.1386863%" y1="101.381229%" x2="50.1386863%" y2="-2.11459194%" id="linearGradient-26">
            <stop stop-color="#FFFFFF" offset="0%"></stop>
            <stop stop-color="#FFFFFF" offset="34.83%"></stop>
            <stop stop-color="#8494A1" offset="56.18%"></stop>
            <stop stop-color="#8494A1" offset="100%"></stop>
        </linearGradient>
        <rect id="path-27" x="0.282857143" y="0.118928536" width="48.2142857" height="29.2464282"></rect>
        <path d="M11.3021428,6.50964285 C10.3178572,6.15464285 8.98107145,6.02964285 7.0442857,5.54035715 C4.3975,4.86964286 1.665,3.16892857 0.74642857,0.114285714 C0.584285715,0.262142857 0.441428571,0.455357143 0.344285715,0.654642855 C1.38857143,3.60178572 4.00178571,5.6692857 6.82714285,6.39607145 C8.6357143,6.85285715 9.47785715,6.8975 10.8260715,7.275 C11.0014285,7.4592857 12.2471428,8.80535715 12.2471428,8.80535715 L12.2471428,7.5157143 C12.2471428,7.51535715 11.4282143,6.6275 11.3021428,6.50964285" id="path-29"></path>
        <rect id="path-31" x="0.344285785" y="0.113928571" width="11.9028568" height="8.69107105"></rect>
        <linearGradient x1="-0.729520923%" y1="50.0245369%" x2="100.13282%" y2="50.0245369%" id="linearGradient-33">
            <stop stop-color="#FFFFFF" offset="0%"></stop>
            <stop stop-color="#FFFFFF" offset="15.17%"></stop>
            <stop stop-color="#FAFAFB" offset="20.72%"></stop>
            <stop stop-color="#EBEDEF" offset="27.57%"></stop>
            <stop stop-color="#D2D7DC" offset="35.1%"></stop>
            <stop stop-color="#AFB9C2" offset="43.11%"></stop>
            <stop stop-color="#8494A1" offset="51.12%"></stop>
            <stop stop-color="#8494A1" offset="100%"></stop>
        </linearGradient>
        <rect id="path-34" x="0.282857143" y="0.118928536" width="48.2142857" height="29.2464282"></rect>
        <path d="M17.8375,0.469642857 C17.8375,0.469642857 16.5025,1.71571428 14.6596428,1.71571428 C12.3514285,1.71571428 10.8185714,0.095 10.8185714,0.095 C10.8185714,0.095 9.2857143,1.71607143 6.9775,1.71607143 C5.13464285,1.71607143 3.79964285,0.47 3.79964285,0.47 C2.86214285,3.01678571 0.85,3.42285714 0.85,3.42285714 C0.85,3.42285714 1.72214285,5.20035715 1.72214285,7.5067857 C1.72214285,10.9296429 0.175357143,11.9189286 0.175357143,14.6135715 C0.175357143,18.3810715 3.11107143,20.7796428 5.83285715,21.4703572 C7.98857145,22.0175 9.3975,22.08 10.3439285,22.5364286 C10.3439285,22.5364286 10.6882143,22.8514286 10.8185714,22.9960714 C10.9489285,22.8514286 11.2932143,22.5364286 11.2932143,22.5364286 C12.2396428,22.08 13.6489285,22.0175 15.8042857,21.4703572 C18.5260714,20.7792857 21.4617857,18.3810715 21.4617857,14.6135715 C21.4617857,11.9189286 19.915,10.9296429 19.915,7.5067857 C19.915,5.20035715 20.7871428,3.42285714 20.7871428,3.42285714 C20.7871428,3.42285714 18.775,3.01642857 17.8375,0.469642857 M2.71,7.5067857 C2.71,6.04357145 2.39285714,4.78 2.12,3.9625 C2.75535714,3.61392857 3.55285714,2.9975 4.18821428,1.93642857 C4.87107143,2.31857143 5.83964285,2.70392857 6.9775,2.70392857 C8.70142855,2.70392857 10.0482143,1.95178571 10.8185714,1.38571428 C11.5889285,1.95178571 12.9360714,2.70392857 14.6596428,2.70392857 C14.935,2.70392857 15.2003571,2.68107143 15.4535714,2.64142857 L1.34107143,13.2392857 C1.74785714,11.6442857 2.71,10.3242857 2.71,7.5067857 M20.4739285,14.6135715 C20.4739285,17.8096428 17.9267857,19.9107143 15.5614285,20.5128571 C13.8539285,20.9471428 11.7653571,21.1707143 11.1342857,21.5307143 C10.9921428,21.6346428 10.8182143,21.8196429 10.8182143,21.8196429 C10.8182143,21.8196429 10.6442857,21.6346428 10.5021428,21.5307143 C9.87142855,21.1707143 7.78285715,20.9471428 6.07535715,20.5128571 C6.01107145,20.4967857 5.9467857,20.4785715 5.88214285,20.4607143 L19.3164285,10.3714285 C19.775,11.9717857 20.4739285,13.0203572 20.4739285,14.6135715 M18.9267857,7.5067857 C18.9267857,8.11464285 18.9717857,8.6525 19.0460714,9.13857145 L4.6325,19.9628572 C2.82642857,19.0346429 1.24571428,17.2532143 1.16642857,14.8067857 L17.7321428,2.36607143 C18.3096428,3.16821428 18.9732143,3.66357143 19.5171428,3.96214285 C19.2442857,4.77964285 18.9267857,6.0432143 18.9267857,7.5067857" id="path-36"></path>
        <rect id="path-38" x="0.175357214" y="0.095357143" width="21.286786" height="22.9014289"></rect>
        <linearGradient x1="67.1279098%" y1="74.2099793%" x2="31.4568769%" y2="23.6129778%" id="linearGradient-40">
            <stop stop-color="#8494A1" offset="0%"></stop>
            <stop stop-color="#99A6B0" offset="4.22%"></stop>
            <stop stop-color="#C2C8CD" offset="13.5%"></stop>
            <stop stop-color="#DBDDDF" offset="20.84%"></stop>
            <stop stop-color="#E4E5E6" offset="25.28%"></stop>
            <stop stop-color="#E4E5E6" offset="75.28%"></stop>
            <stop stop-color="#DCDEE0" offset="79.51%"></stop>
            <stop stop-color="#C6CCD1" offset="86.02%"></stop>
            <stop stop-color="#A3AEB8" offset="93.97%"></stop>
            <stop stop-color="#8494A1" offset="100%"></stop>
        </linearGradient>
        <rect id="path-41" x="0.282857143" y="0.118928536" width="48.2142857" height="29.2464282"></rect>
        <path d="M4.12035714,3.3325 C6.43714285,3.3325 7.96142855,1.36357143 7.96142855,1.36357143 L7.96142855,0.131785715 L6.74892855,1.33142857 C6.1257143,1.94821428 5.12785715,2.45107143 4.12035714,2.45107143 C3.36821429,2.45107143 2.66035714,2.11571429 2.04071428,1.60285714 L0.157857143,0.0435714285 L0.550357145,1.50678571 C0.550357145,1.50642857 2.32321429,3.3325 4.12035714,3.3325" id="path-43"></path>
        <rect id="path-45" x="0.157856786" y="0.0435715" width="7.80357145" height="3.28892843"></rect>
        <linearGradient x1="-0.897974005%" y1="50.050586%" x2="100.215985%" y2="50.050586%" id="linearGradient-47">
            <stop stop-color="#FFFFFF" offset="0%"></stop>
            <stop stop-color="#FFFFFF" offset="24.72%"></stop>
            <stop stop-color="#FAFAFB" offset="33.04%"></stop>
            <stop stop-color="#EBEDEF" offset="43.32%"></stop>
            <stop stop-color="#D2D7DC" offset="54.62%"></stop>
            <stop stop-color="#AFB9C2" offset="66.63%"></stop>
            <stop stop-color="#8494A1" offset="78.65%"></stop>
            <stop stop-color="#8494A1" offset="100%"></stop>
        </linearGradient>
        <rect id="path-48" x="0.282857143" y="0.118928536" width="48.2142857" height="29.2464282"></rect>
        <path d="M11.9057143,3.54214285 C11.9057143,7.6325 8.98285715,10.3242857 5.3067857,11.2546428 C3.37035714,11.7439285 2.03321428,11.8689285 1.04892857,12.2239286 C0.922857145,12.3417857 0.103928571,13.2296428 0.103928571,13.2296428 L0.103928571,14.5192857 C0.103928571,14.5192857 1.34928571,13.1728572 1.525,12.9889286 C2.87285714,12.6114285 3.71535714,12.5667857 5.52392855,12.11 C9.1817857,11.1682143 12.4864285,7.98035715 12.4864285,3.54214285 C12.4864285,1.94428571 12.1264285,0.97107143 11.7535714,0.0375 L11.1075,0.0585714285 C11.5242857,1.06642857 11.9057143,2.15607143 11.9057143,3.54214285" id="path-50"></path>
        <rect id="path-52" x="0.104285714" y="0.0375" width="12.3828575" height="14.4817857"></rect>
        <linearGradient x1="0.113634514%" y1="50.1019322%" x2="101.661855%" y2="50.1019322%" id="linearGradient-54">
            <stop stop-color="#FFFFFF" offset="0%"></stop>
            <stop stop-color="#FFFFFF" offset="19.66%"></stop>
            <stop stop-color="#FAFBFC" offset="31.85%"></stop>
            <stop stop-color="#EDEFF1" offset="45.42%"></stop>
            <stop stop-color="#D7DCE0" offset="59.67%"></stop>
            <stop stop-color="#B8C1C8" offset="74.38%"></stop>
            <stop stop-color="#909EAA" offset="89.3%"></stop>
            <stop stop-color="#8494A1" offset="93.26%"></stop>
            <stop stop-color="#8494A1" offset="100%"></stop>
        </linearGradient>
        <rect id="path-55" x="0.282857143" y="0.118928536" width="48.2142857" height="29.2464282"></rect>
        <path d="M3.94535714,3.3325 C5.74214285,3.3325 7.51535715,1.50678571 7.51535715,1.50678571 L7.9082143,0.0435714285 L6.025,1.60285714 C5.4057143,2.11571429 4.6975,2.45107143 3.94571428,2.45107143 C2.93857143,2.45107143 1.94107143,1.94821428 1.3175,1.33142857 L0.104642857,0.131785715 L0.104642857,1.36357143 C0.104285714,1.36321428 1.62892857,3.3325 3.94535714,3.3325" id="path-57"></path>
        <rect id="path-59" x="0.104285714" y="0.0435715" width="7.80392855" height="3.28892843"></rect>
        <linearGradient x1="0.161569036%" y1="50.3897872%" x2="101.321913%" y2="50.3897872%" id="linearGradient-61">
            <stop stop-color="#FFFFFF" offset="0%"></stop>
            <stop stop-color="#FFFFFF" offset="24.72%"></stop>
            <stop stop-color="#FAFAFB" offset="33.04%"></stop>
            <stop stop-color="#EBEDEF" offset="43.32%"></stop>
            <stop stop-color="#D2D7DC" offset="54.62%"></stop>
            <stop stop-color="#AFB9C2" offset="66.63%"></stop>
            <stop stop-color="#8494A1" offset="78.65%"></stop>
            <stop stop-color="#8494A1" offset="100%"></stop>
        </linearGradient>
        <rect id="path-62" x="0.282857143" y="0.118928536" width="48.2142857" height="29.2464282"></rect>
        <path d="M5.1932143,1.50642857 L4.80071428,0.0432142857 L3.95607143,2.35607143 C3.59214285,3.3525 2.98464285,3.9825 2.15071428,4.22821428 L0.235,4.79357143 L1.43535714,5.3582143 C1.43535714,5.3582143 4.39214285,5.1007143 5.1932143,1.50642857" id="path-64"></path>
        <rect id="path-66" x="0.235" y="0.0435715" width="4.95821428" height="5.31464285"></rect>
        <linearGradient x1="-5.03473406%" y1="50.0424304%" x2="104.214708%" y2="50.0424304%" id="linearGradient-68">
            <stop stop-color="#FFFFFF" offset="0%"></stop>
            <stop stop-color="#FFFFFF" offset="38.76%"></stop>
            <stop stop-color="#FAFAFB" offset="46.13%"></stop>
            <stop stop-color="#EBEDEF" offset="55.23%"></stop>
            <stop stop-color="#D2D7DC" offset="65.24%"></stop>
            <stop stop-color="#AFB9C2" offset="75.87%"></stop>
            <stop stop-color="#8494A1" offset="86.52%"></stop>
            <stop stop-color="#8494A1" offset="100%"></stop>
        </linearGradient>
        <rect id="path-69" x="0.282857143" y="0.118928536" width="48.2142857" height="29.2464282"></rect>
        <rect id="path-71" x="0.282857143" y="0.118928536" width="48.2142857" height="29.2464282"></rect>
        <rect id="path-73" x="0.282857143" y="0.118928536" width="48.2142857" height="29.2464282"></rect>
        <rect id="path-75" x="0.282857143" y="0.118928536" width="48.2142857" height="29.2464282"></rect>
        <rect id="path-77" x="0.282857143" y="0.118928536" width="48.2142857" height="29.2464282"></rect>
    </defs>
    <g id="Page-1" stroke="none" stroke-width="1" fill="none" fill-rule="evenodd">
        <g id="Artboard-Copy" transform="translate(-2.000000, 0.000000)">
            <g id="knights" transform="translate(-10.050000, 0.000000)">
                <g id="Page-1">
                    <g id="Artboard">
                        <g id="knights" transform="translate(0.357143, 0.000000)">
                            <g id="g236" transform="translate(0.289643, 0.237857)">
                                <g id="path244-Clipped">
                                    <g>
                                        <mask id="mask-2" fill="white">
                                            <use xlink:href="#path-1"></use>
                                        </mask>
                                        <g id="path-1"></g>
                                        <path d="M12.8778571,17.8278571 C12.8778571,15.1714285 14.1232143,14.1614286 14.3782143,11.6442857 C14.0282143,13.8496429 12.5660714,15.6578571 12.5660714,17.8278571 C12.5660714,18.6621428 12.6814285,19.4225 12.8892857,20.1139286 C13.8078571,23.1689286 16.5403571,24.8692857 19.1871429,25.54 C15.1107143,24.5089286 12.8778571,21.0875 12.8778571,17.8278571" id="path244" fill="#FFFFFF" mask="url(#mask-2)"></path>
                                    </g>
                                </g>
                                <g id="path246-Clipped">
                                    <g>
                                        <mask id="mask-4" fill="white">
                                            <use xlink:href="#path-3"></use>
                                        </mask>
                                        <g id="path-3"></g>
                                        <path d="M35.3942857,14.3446428 C34.8989286,13.1425 34.3564285,12.0564285 34.3564285,10.7210715 C34.3564285,13.9542857 35.9021428,14.8689285 35.9021428,17.8278571 C35.9021428,21.0875 33.6692857,24.5089286 29.5928572,25.5403571 C33.2689285,24.6103571 36.1917857,21.9182143 36.1917857,17.8278571 C36.1914285,16.4417857 35.81,15.3521428 35.3942857,14.3446428" id="path246" fill="#FFFFFF" mask="url(#mask-4)"></path>
                                    </g>
                                </g>
                                <g id="path248-Clipped">
                                    <g>
                                        <mask id="mask-6" fill="white">
                                            <use xlink:href="#path-5"></use>
                                        </mask>
                                        <g id="path-5"></g>
                                        <path d="M34.8439286,4.9425 C34.0096428,4.69678571 33.4028572,4.06678571 33.0382143,3.07035715 L32.1939286,0.7575 L31.8010714,2.22071429 C32.6021428,5.81464285 35.5585715,6.0725 35.5585715,6.0725 L36.7589286,5.50785715 L34.8439286,4.9425 L34.8439286,4.9425 L34.8439286,4.9425 Z" id="path248" fill="#E4E5E6" mask="url(#mask-6)"></path>
                                    </g>
                                </g>
                                <g id="path250-Clipped">
                                    <g>
                                        <mask id="mask-8" fill="white">
                                            <use xlink:href="#path-7"></use>
                                        </mask>
                                        <g id="path-7"></g>
                                        <path d="M20.8903571,18.0310714 L19.3428572,15.6607143 L17.6242857,16.9514285 C17.6242857,16.9514285 18.2260714,16.9682143 18.2260714,17.5989286 L18.2260714,22.0617857 L19.4389285,21.1514285 L19.4389285,17.9957143 L20.8214286,20.1125 L22.1032143,19.1503572 L22.1032143,13.5878571 L20.8903571,14.4985715 L20.8903571,18.0310714 L20.8903571,18.0310714 L20.8903571,18.0310714 Z" id="path250" fill="#E4E5E6" mask="url(#mask-8)"></path>
                                    </g>
                                </g>
                                <g id="path252-Clipped">
                                    <g>
                                        <mask id="mask-10" fill="white">
                                            <use xlink:href="#path-9"></use>
                                        </mask>
                                        <g id="path-9"></g>
                                        <path d="M25.8078572,12.8621428 L24.4396428,13.8892857 L24.4396428,11.8335715 L22.5917857,13.2210715 C22.5917857,13.2210715 23.1939285,13.2378571 23.1939285,13.8682143 L23.1939285,18.3317857 L24.4396428,17.3964285 L24.4396428,15.3621428 L25.8078572,14.335 L25.8078572,16.3689285 L26.9935715,15.4782143 L26.9935715,9.91535715 L25.8078572,10.8067857 L25.8078572,12.8621428 L25.8078572,12.8621428 L25.8078572,12.8621428 Z" id="path252" fill="#E4E5E6" mask="url(#mask-10)"></path>
                                    </g>
                                </g>
                                <g id="path254-Clipped">
                                    <g>
                                        <mask id="mask-12" fill="white">
                                            <use xlink:href="#path-11"></use>
                                        </mask>
                                        <g id="path-11"></g>
                                        <path d="M29.2742857,12.3453571 L29.2742857,8.2025 L27.4267857,9.59 C27.4267857,9.59 28.0289285,9.6067857 28.0289285,10.2375 L28.0289285,14.7003572 L31.4685714,12.1175 C31.3939285,11.2275 31.4685714,10.6978572 31.4685714,10.6978572 L29.2742857,12.3453571 L29.2742857,12.3453571 L29.2742857,12.3453571 Z" id="path254" fill="#E4E5E6" mask="url(#mask-12)"></path>
                                    </g>
                                </g>
                                <g id="g256-Clipped">
                                    <g>
                                        <mask id="mask-14" fill="white">
                                            <use xlink:href="#path-13"></use>
                                        </mask>
                                        <g id="path-13"></g>
                                        <g id="g256" mask="url(#mask-14)">
                                            <g transform="translate(11.500000, 5.000000)" id="g264-Clipped">
                                                <g transform="translate(0.285714, 0.357143)">
                                                    <g id="Group">
                                                        <g id="g264-Clipped">
                                                            <mask id="mask-16" fill="white">
                                                                <use xlink:href="#path-15"></use>
                                                            </mask>
                                                            <g id="path-15"></g>
                                                            <g id="g264" mask="url(#mask-16)">
                                                                <g id="rect285-Clipped">
                                                                    <g>
                                                                        <mask id="mask-18" fill="white">
                                                                            <use xlink:href="#path-17"></use>
                                                                        </mask>
                                                                        <g id="path-17"></g>
                                                                        <rect id="rect285" fill="url(#linearGradient-19)" mask="url(#mask-18)" x="0.221428535" y="0.150714643" width="2.41678578" height="15.1464285"></rect>
                                                                    </g>
                                                                </g>
                                                            </g>
                                                        </g>
                                                    </g>
                                                </g>
                                            </g>
                                        </g>
                                    </g>
                                </g>
                                <g id="g287-Clipped">
                                    <g>
                                        <mask id="mask-21" fill="white">
                                            <use xlink:href="#path-20"></use>
                                        </mask>
                                        <g id="path-20"></g>
                                        <g id="g287" mask="url(#mask-21)">
                                            <g transform="translate(34.000000, 5.000000)" id="g295-Clipped">
                                                <g transform="translate(0.285714, 0.357143)">
                                                    <g id="Group">
                                                        <g id="g295-Clipped">
                                                            <mask id="mask-23" fill="white">
                                                                <use xlink:href="#path-22"></use>
                                                            </mask>
                                                            <g id="path-22"></g>
                                                            <g id="g295" mask="url(#mask-23)">
                                                                <g id="rect312-Clipped">
                                                                    <g>
                                                                        <mask id="mask-25" fill="white">
                                                                            <use xlink:href="#path-24"></use>
                                                                        </mask>
                                                                        <g id="path-24"></g>
                                                                        <rect id="rect312" fill="url(#linearGradient-26)" mask="url(#mask-25)" x="0.0703567855" y="0.150714643" width="2.40321432" height="8.83607105"></rect>
                                                                    </g>
                                                                </g>
                                                            </g>
                                                        </g>
                                                    </g>
                                                </g>
                                            </g>
                                        </g>
                                    </g>
                                </g>
                                <g id="g314-Clipped">
                                    <g>
                                        <mask id="mask-28" fill="white">
                                            <use xlink:href="#path-27"></use>
                                        </mask>
                                        <g id="path-27"></g>
                                        <g id="g314" mask="url(#mask-28)">
                                            <g transform="translate(12.000000, 20.000000)" id="g322-Clipped">
                                                <g transform="translate(0.142857, 0.000000)">
                                                    <g id="Group">
                                                        <g id="g322-Clipped">
                                                            <mask id="mask-30" fill="white">
                                                                <use xlink:href="#path-29"></use>
                                                            </mask>
                                                            <g id="path-29"></g>
                                                            <g id="g322" mask="url(#mask-30)">
                                                                <g id="rect347-Clipped">
                                                                    <g>
                                                                        <mask id="mask-32" fill="white">
                                                                            <use xlink:href="#path-31"></use>
                                                                        </mask>
                                                                        <g id="path-31"></g>
                                                                        <rect id="rect347" fill="url(#linearGradient-33)" mask="url(#mask-32)" x="0.344285785" y="0.113928571" width="11.9028568" height="8.69107105"></rect>
                                                                    </g>
                                                                </g>
                                                            </g>
                                                        </g>
                                                    </g>
                                                </g>
                                            </g>
                                        </g>
                                    </g>
                                </g>
                                <g id="g349-Clipped">
                                    <g>
                                        <mask id="mask-35" fill="white">
                                            <use xlink:href="#path-34"></use>
                                        </mask>
                                        <g id="path-34"></g>
                                        <g id="g349" mask="url(#mask-35)">
                                            <g transform="translate(13.500000, 3.000000)" id="g357-Clipped">
                                                <g transform="translate(0.071428, 0.214285)">
                                                    <g id="Group">
                                                        <g id="g357-Clipped">
                                                            <mask id="mask-37" fill="white">
                                                                <use xlink:href="#path-36"></use>
                                                            </mask>
                                                            <g id="path-36"></g>
                                                            <g id="g357" mask="url(#mask-37)">
                                                                <g id="polygon386-Clipped">
                                                                    <g>
                                                                        <mask id="mask-39" fill="white">
                                                                            <use xlink:href="#path-38"></use>
                                                                        </mask>
                                                                        <g id="path-38"></g>
                                                                        <polygon id="polygon386" fill="url(#linearGradient-40)" mask="url(#mask-39)" points="32.2225 15.4625 7.17857145 32.9982143 -10.5846428 7.62964285 14.4589285 -9.90642855"></polygon>
                                                                    </g>
                                                                </g>
                                                            </g>
                                                        </g>
                                                    </g>
                                                </g>
                                            </g>
                                        </g>
                                    </g>
                                </g>
                                <g id="g388-Clipped">
                                    <g>
                                        <mask id="mask-42" fill="white">
                                            <use xlink:href="#path-41"></use>
                                        </mask>
                                        <g id="path-41"></g>
                                        <g id="g388" mask="url(#mask-42)">
                                            <g transform="translate(16.000000, 0.500000)" id="g396-Clipped">
                                                <g transform="translate(0.428572, 0.214286)">
                                                    <g id="Group">
                                                        <g id="g396-Clipped">
                                                            <mask id="mask-44" fill="white">
                                                                <use xlink:href="#path-43"></use>
                                                            </mask>
                                                            <g id="path-43"></g>
                                                            <g id="g396" mask="url(#mask-44)">
                                                                <g id="rect421-Clipped">
                                                                    <g>
                                                                        <mask id="mask-46" fill="white">
                                                                            <use xlink:href="#path-45"></use>
                                                                        </mask>
                                                                        <g id="path-45"></g>
                                                                        <rect id="rect421" fill="url(#linearGradient-47)" mask="url(#mask-46)" x="0.157856786" y="0.0435715" width="7.80357145" height="3.28892843"></rect>
                                                                    </g>
                                                                </g>
                                                            </g>
                                                        </g>
                                                    </g>
                                                </g>
                                            </g>
                                        </g>
                                    </g>
                                </g>
                                <g id="g423-Clipped">
                                    <g>
                                        <mask id="mask-49" fill="white">
                                            <use xlink:href="#path-48"></use>
                                        </mask>
                                        <g id="path-48"></g>
                                        <g id="g423" mask="url(#mask-49)">
                                            <g transform="translate(24.000000, 14.000000)" id="g431-Clipped">
                                                <g transform="translate(0.285715, 0.285714)">
                                                    <g id="Group">
                                                        <g id="g431-Clipped">
                                                            <mask id="mask-51" fill="white">
                                                                <use xlink:href="#path-50"></use>
                                                            </mask>
                                                            <g id="path-50"></g>
                                                            <g id="g431" mask="url(#mask-51)">
                                                                <g id="rect458-Clipped">
                                                                    <g>
                                                                        <mask id="mask-53" fill="white">
                                                                            <use xlink:href="#path-52"></use>
                                                                        </mask>
                                                                        <g id="path-52"></g>
                                                                        <rect id="rect458" fill="url(#linearGradient-54)" mask="url(#mask-53)" x="0.104285714" y="0.0375" width="12.3828575" height="14.4817857"></rect>
                                                                    </g>
                                                                </g>
                                                            </g>
                                                        </g>
                                                    </g>
                                                </g>
                                            </g>
                                        </g>
                                    </g>
                                </g>
                                <g id="g460-Clipped">
                                    <g>
                                        <mask id="mask-56" fill="white">
                                            <use xlink:href="#path-55"></use>
                                        </mask>
                                        <g id="path-55"></g>
                                        <g id="g460" mask="url(#mask-56)">
                                            <g transform="translate(24.000000, 0.500000)" id="g468-Clipped">
                                                <g transform="translate(0.285715, 0.214286)">
                                                    <g id="Group">
                                                        <g id="g468-Clipped">
                                                            <mask id="mask-58" fill="white">
                                                                <use xlink:href="#path-57"></use>
                                                            </mask>
                                                            <g id="path-57"></g>
                                                            <g id="g468" mask="url(#mask-58)">
                                                                <g id="rect493-Clipped">
                                                                    <g>
                                                                        <mask id="mask-60" fill="white">
                                                                            <use xlink:href="#path-59"></use>
                                                                        </mask>
                                                                        <g id="path-59"></g>
                                                                        <rect id="rect493" fill="url(#linearGradient-61)" mask="url(#mask-60)" x="0.104285714" y="0.0435715" width="7.80392855" height="3.28892843"></rect>
                                                                    </g>
                                                                </g>
                                                            </g>
                                                        </g>
                                                    </g>
                                                </g>
                                            </g>
                                        </g>
                                    </g>
                                </g>
                                <g id="g495-Clipped">
                                    <g>
                                        <mask id="mask-63" fill="white">
                                            <use xlink:href="#path-62"></use>
                                        </mask>
                                        <g id="path-62"></g>
                                        <g id="g495" mask="url(#mask-63)">
                                            <g transform="translate(11.500000, 0.500000)" id="g503-Clipped">
                                                <g transform="translate(0.285714, 0.214286)">
                                                    <g id="Group">
                                                        <g id="g503-Clipped">
                                                            <mask id="mask-65" fill="white">
                                                                <use xlink:href="#path-64"></use>
                                                            </mask>
                                                            <g id="path-64"></g>
                                                            <g id="g503" mask="url(#mask-65)">
                                                                <g id="rect528-Clipped">
                                                                    <g>
                                                                        <mask id="mask-67" fill="white">
                                                                            <use xlink:href="#path-66"></use>
                                                                        </mask>
                                                                        <g id="path-66"></g>
                                                                        <rect id="rect528" fill="url(#linearGradient-68)" mask="url(#mask-67)" x="0.235" y="0.0435715" width="4.95821428" height="5.31464285"></rect>
                                                                    </g>
                                                                </g>
                                                            </g>
                                                        </g>
                                                    </g>
                                                </g>
                                            </g>
                                        </g>
                                    </g>
                                </g>
                                <g id="path530-Clipped">
                                    <g>
                                        <mask id="mask-70" fill="white">
                                            <use xlink:href="#path-69"></use>
                                        </mask>
                                        <g id="path-69"></g>
                                        <path d="M36.2939285,7.51142855 L37.2835714,5.265 L34.9510715,4.57714285 C34.24,4.36714285 33.7171429,3.81607143 33.3964286,2.93964286 L32.3660714,0.119285715 L30.0667857,2.02321428 C29.4571429,2.52785715 28.8396429,2.78357143 28.2307143,2.78357143 C27.4167857,2.78357143 26.49,2.3875 25.8703572,1.77428571 L24.3896429,0.309285714 L22.9089285,1.77428571 C22.2889286,2.3875 21.3625,2.78357143 20.5485715,2.78357143 C19.9396428,2.78357143 19.3221428,2.52785715 18.7125,2.02321428 L16.4132143,0.119285715 L15.3828571,2.93964286 C15.0628571,3.81607143 14.5396428,4.36714285 13.8282143,4.57714285 L11.4960715,5.265 L12.4853572,7.51142855 C12.9425,8.54857145 13.1739285,9.6307143 13.1739285,10.7278572 C13.1739285,13.7646428 11.6253571,14.4553571 11.6253571,17.8278571 C11.6253571,22.6867857 15.3828571,25.8664285 18.8742857,26.765 C20.6382143,27.1942857 21.1714286,27.2232143 22.7642857,27.6157143 C22.8946429,27.7560715 24.3896429,29.3653572 24.3896429,29.3653572 C24.3896429,29.3653572 25.885,27.7557143 26.015,27.6157143 C27.6078572,27.2232143 28.1410714,27.1942857 29.905,26.765 C33.3960715,25.8660714 37.1542857,22.6867857 37.1542857,17.8278571 C37.1542857,14.4553571 35.6053572,13.7646428 35.6053572,10.7278572 C35.6053572,9.63035715 35.8371428,8.54857145 36.2939285,7.51142855 M36.04,14.3232143 C36.4128572,15.2564285 36.7728572,16.23 36.7728572,17.8278571 C36.7728572,22.2664286 33.4682143,25.4542857 29.8103572,26.3957143 C28.0017857,26.8525 27.1592857,26.8971429 25.8114285,27.2746428 C25.6357143,27.4589285 24.3903571,28.805 24.3903571,28.805 C24.3903571,28.805 23.1446429,27.4585715 22.9692857,27.2746428 C21.6210714,26.8971429 20.7789285,26.8525 18.9703572,26.3957143 C16.145,25.6689286 13.5317857,23.6014286 12.4875,20.6542857 C12.1792857,19.7846429 12.0071428,18.8392857 12.0071428,17.8278571 C12.0071428,14.5132143 13.5560714,13.8853572 13.5560714,10.7278572 C13.5560714,9.43392855 13.245,8.28857145 12.835,7.3575 L12.0207143,5.5082143 L13.9364286,4.94285715 C14.7703572,4.69714286 15.3778572,4.06714286 15.7417857,3.07071429 L16.5864286,0.757857145 L18.4692857,2.31714286 C19.0889285,2.83 19.7967857,3.16535715 20.5489285,3.16535715 C21.5564285,3.16535715 22.5542857,2.6625 23.1775,2.04571429 L24.39,0.84607143 L25.6028571,2.04571429 C26.2264286,2.6625 27.2239286,3.16535715 28.2310715,3.16535715 C28.9828572,3.16535715 29.6910715,2.83 30.3103572,2.31714286 L32.1935715,0.757857145 L33.0378572,3.07071429 C33.4025,4.06714286 34.0092857,4.69714286 34.8435714,4.94285715 L36.7589286,5.5082143 L35.945,7.3575 C35.5346428,8.28857145 35.2235715,9.43392855 35.2235715,10.7278572 C35.2239285,12.3635715 35.6396429,13.32 36.04,14.3232143" id="path530" fill="#000000" mask="url(#mask-70)"></path>
                                    </g>
                                </g>
                                <g id="path536-Clipped">
                                    <g>
                                        <mask id="mask-72" fill="white">
                                            <use xlink:href="#path-71"></use>
                                        </mask>
                                        <g id="path-71"></g>
                                        <path d="M35.5585715,6.0725 C35.5585715,6.0725 32.6021428,5.81464285 31.8010714,2.22071429 C31.8010714,2.22071429 30.0278571,4.04642857 28.2310715,4.04642857 C25.9146428,4.04642857 24.39,2.0775 24.39,2.0775 C24.39,2.0775 22.8657143,4.04642857 20.5489285,4.04642857 C18.7517857,4.04642857 16.9789285,2.22071429 16.9789285,2.22071429 C16.1778572,5.815 13.2210715,6.0725 13.2210715,6.0725 C13.2210715,6.0725 14.4239285,8.2007143 14.4239285,10.7207143 C14.4239285,11.0517857 14.4071428,11.3567857 14.3782143,11.6439286 C14.1232143,14.1614286 12.8778572,15.1710714 12.8778572,17.8275 C12.8778572,21.0871428 15.1107143,24.5085715 19.1871429,25.54 C21.1239285,26.0292857 22.4607143,26.1542857 23.445,26.5092857 C23.5710715,26.6271428 24.39,27.515 24.39,27.515 C24.39,27.515 25.2089285,26.6271428 25.335,26.5092857 C26.3192857,26.1542857 27.6564286,26.0292857 29.5928572,25.54 C33.6692857,24.5085715 35.9021428,21.0871428 35.9021428,17.8275 C35.9021428,14.8685714 34.3564285,13.9535715 34.3564285,10.7207143 C34.3560715,8.2007143 35.5585715,6.0725 35.5585715,6.0725 M35.0332143,17.8278571 C35.0332143,21.5953572 32.0975,23.9939285 29.3757143,24.6846428 C27.2203572,25.2317857 25.8114285,25.2942857 24.8646428,25.7507143 C24.8646428,25.7507143 24.5203571,26.0657143 24.39,26.2103572 C24.2596428,26.0657143 23.9153571,25.7507143 23.9153571,25.7507143 C22.9689286,25.2942857 21.56,25.2317857 19.4042857,24.6846428 C16.6825,23.9935715 13.7467857,21.5953572 13.7467857,17.8278571 C13.7467857,15.1332143 15.2935714,14.1439286 15.2935714,10.7210715 C15.2935714,8.41464285 14.4214285,6.63714285 14.4214285,6.63714285 C14.4214285,6.63714285 16.4335714,6.23107145 17.3710714,3.68428571 C17.3710714,3.68428571 18.7060714,4.93035715 20.5489285,4.93035715 C22.8571428,4.93035715 24.39,3.30964285 24.39,3.30964285 C24.39,3.30964285 25.9228571,4.93035715 28.2310715,4.93035715 C30.0739286,4.93035715 31.4089285,3.68428571 31.4089285,3.68428571 C32.3464285,6.23107145 34.3585714,6.63714285 34.3585714,6.63714285 C34.3585714,6.63714285 33.4864285,8.41464285 33.4864285,10.7210715 C33.4864285,14.1439286 35.0332143,15.1332143 35.0332143,17.8278571" id="path536" fill="#000000" mask="url(#mask-72)"></path>
                                    </g>
                                </g>
                                <g id="path538-Clipped">
                                    <g>
                                        <mask id="mask-74" fill="white">
                                            <use xlink:href="#path-73"></use>
                                        </mask>
                                        <g id="path-73"></g>
                                        <path d="M28.2310715,5.91785715 C26.5075,5.91785715 25.1603572,5.1657143 24.39,4.59964285 C23.6196429,5.1657143 22.2728572,5.91785715 20.5489285,5.91785715 C19.4110715,5.91785715 18.4425,5.5325 17.7596428,5.15035715 C17.1242857,6.21142855 16.3267857,6.82785715 15.6914286,7.17642855 C15.9642857,7.99392855 16.2814286,9.2575 16.2814286,10.7207143 C16.2814286,13.5382143 15.3192857,14.8585714 14.9125,16.4535714 L29.025,5.8557143 C28.7717857,5.895 28.5064286,5.91785715 28.2310715,5.91785715" id="path538" fill="#000000" mask="url(#mask-74)"></path>
                                    </g>
                                </g>
                                <g id="path540-Clipped">
                                    <g>
                                        <mask id="mask-76" fill="white">
                                            <use xlink:href="#path-75"></use>
                                        </mask>
                                        <g id="path-75"></g>
                                        <path d="M32.4982143,10.7210715 C32.4982143,9.25785715 32.8157143,7.9942857 33.0885715,7.1767857 C32.5446429,6.8782143 31.8810715,6.38285715 31.3035714,5.5807143 L14.7378571,18.0210715 C14.8171428,20.4675 16.3978572,22.2489285 18.2039286,23.1771428 L32.6175,12.3528572 C32.5432143,11.8667857 32.4982143,11.3289286 32.4982143,10.7210715 L32.4982143,10.7210715 L32.4982143,10.7210715 Z M22.1032143,19.1503571 L20.8214286,20.1125 L19.4389285,17.9957143 L19.4389285,21.1514285 L18.2260714,22.0617857 L18.2260714,17.5989285 C18.2260714,16.9682143 17.6242857,16.9514285 17.6242857,16.9514285 L19.3428572,15.6607143 L20.8903571,18.0310714 L20.8903571,14.4985714 L22.1032143,13.5878571 L22.1032143,19.1503571 L22.1032143,19.1503571 L22.1032143,19.1503571 Z M26.9935715,15.4778571 L25.8078572,16.3685714 L25.8078572,14.3346428 L24.4396428,15.3617857 L24.4396428,17.3960715 L23.1939285,18.3314285 L23.1939285,13.8682143 C23.1939285,13.2378571 22.5917857,13.2210715 22.5917857,13.2210715 L24.4396428,11.8335715 L24.4396428,13.8892857 L25.8078572,12.8621428 L25.8078572,10.8067857 L26.9935715,9.91535715 L26.9935715,15.4778571 L26.9935715,15.4778571 L26.9935715,15.4778571 Z M31.4682143,12.1178572 L28.0285715,14.7007143 L28.0285715,10.2378571 C28.0285715,9.60714285 27.4264285,9.59035715 27.4264285,9.59035715 L29.2739286,8.20285715 L29.2739286,12.3457143 L31.4682143,10.6982143 C31.4682143,10.6982143 31.3935714,11.2278572 31.4682143,12.1178572 L31.4682143,12.1178572 L31.4682143,12.1178572 Z" id="path540" fill="#000000" mask="url(#mask-76)"></path>
                                    </g>
                                </g>
                                <g id="path542-Clipped">
                                    <g>
                                        <mask id="mask-78" fill="white">
                                            <use xlink:href="#path-77"></use>
                                        </mask>
                                        <g id="path-77"></g>
                                        <path d="M19.4539286,23.6746429 C19.5185714,23.6928571 19.5828571,23.7110714 19.6471429,23.7267857 C21.3546429,24.1610715 23.4432143,24.3846428 24.0739286,24.7446429 C24.2160715,24.8485715 24.39,25.0335715 24.39,25.0335715 C24.39,25.0335715 24.5639285,24.8485715 24.7060714,24.7446429 C25.3371428,24.3846428 27.4253571,24.1610715 29.1332143,23.7267857 C31.4985715,23.1246429 34.0457143,21.0239286 34.0457143,17.8275 C34.0457143,16.2342857 33.3467857,15.1860715 32.8885715,13.5853572 L19.4539286,23.6746429 L19.4539286,23.6746429 L19.4539286,23.6746429 Z" id="path542" fill="#000000" mask="url(#mask-78)"></path>
                                    </g>
                                </g>
                            </g>
                        </g>
                    </g>
                </g>
            </g>
        </g>
    </g>
</svg>