<?xml version="1.0" encoding="UTF-8" standalone="no"?>
<svg width="60px" height="60px" viewBox="0 0 60 60" version="1.1" xmlns="http://www.w3.org/2000/svg" xmlns:xlink="http://www.w3.org/1999/xlink">
    <!-- Generator: Sketch 40.3 (33839) - http://www.bohemiancoding.com/sketch -->
    <title>Artboard</title>
    <desc>Created with Sketch.</desc>
    <defs>
        <rect id="path-1" x="0" y="0.00124352338" width="59.8831073" height="55.8699466"></rect>
        <rect id="path-3" x="0" y="0.00124352338" width="59.8831073" height="55.8699466"></rect>
    </defs>
    <g id="Page-1" stroke="none" stroke-width="1" fill="none" fill-rule="evenodd">
        <g id="Artboard">
            <g id="lightning" transform="translate(0.000000, 2.020725)">
                <g id="g236" transform="translate(0.000000, 0.154197)">
                    <g id="path244-Clipped">
                        <mask id="mask-2" fill="white">
                            <use xlink:href="#path-1"></use>
                        </mask>
                        <g id="SVGID_1_"></g>
                        <path d="M59.8831088,25.267772 C59.8831088,19.1945596 56.1082383,13.2082383 49.4073575,9.53005181 L46.8404145,11.566943 C51.4192228,14.4475648 54.1142487,18.7537306 54.1142487,23.6409326 C54.1142487,35.0455959 40.0198446,45.3763212 24.3354404,45.3763212 C22.7261658,45.3763212 21.1464249,45.2578756 19.622487,45.0317098 L14.3291192,48.9491192 C17.6710881,50.0796373 21.3999482,50.6794819 25.2979275,50.6794819 C43.9168912,50.6794819 59.8831088,38.1096373 59.8831088,25.267772" id="path244" fill="#003E7E" mask="url(#mask-2)"></path>
                    </g>
                    <g id="path246-Clipped">
                        <mask id="mask-4" fill="white">
                            <use xlink:href="#path-3"></use>
                        </mask>
                        <g id="SVGID_1_"></g>
                        <path d="M36.2016062,29.5080311 L26.6225907,31.3821762 L47.8692746,13.9227979 L37.9776684,15.2485492 L57.2036269,0 L34.8220725,5.88963731 C34.5270466,5.88357513 34.2295337,5.87875648 33.9320207,5.87875648 C15.5894301,5.87875648 0,18.3438342 0,31.4958031 C0,37.95 3.47549223,43.0826425 8.86274611,46.4089119 L0.591917098,55.8699482 L36.2016062,29.5080311 L36.2016062,29.5080311 Z M2.5573057,29.5515544 C2.5573057,17.7581347 17.3155959,7.81632124 32.3362694,7.81632124 C32.4402591,7.81632124 32.5417617,7.81880829 32.6457513,7.81989637 L18.123886,24.0666839 L26.4739896,22.7455959 L10.0215544,38.6561658 L16.6939896,37.4518135 L12.0335751,42.7840415 C6.3688601,40.1020725 2.5573057,35.4761658 2.5573057,29.5515544 L2.5573057,29.5515544 Z" id="path246" fill="#003E7E" mask="url(#mask-4)"></path>
                    </g>
                </g>
            </g>
        </g>
    </g>
</svg>