<?xml version="1.0" encoding="UTF-8" standalone="no"?>
<svg width="30px" height="30px" viewBox="0 0 30 30" version="1.1" xmlns="http://www.w3.org/2000/svg" xmlns:xlink="http://www.w3.org/1999/xlink">
    <!-- Generator: Sketch 41 (35326) - http://www.bohemiancoding.com/sketch -->
    <title>mapleleafs</title>
    <desc>Created with Sketch.</desc>
    <defs></defs>
    <g id="Page-1" stroke="none" stroke-width="1" fill="none" fill-rule="evenodd">
        <g id="mapleleafs">
            <g transform="translate(1.000000, 0.000000)" id="Page-1">
                <g>
                    <g id="Artboard-Copy">
                        <g id="mapleleafs" transform="translate(0.500000, 0.000000)">
                            <g id="Page-1">
                                <g id="Artboard">
                                    <g id="mapleleafs" transform="translate(0.065065, 0.000000)">
                                        <g id="Blue" transform="translate(0.003796, 0.000696)">
                                            <path d="M13.8253224,29.954279 C12.7631887,28.9677609 12.6242673,27.4783119 12.6049238,27.0861665 C12.6031653,27.0404455 12.5539273,27.0123095 12.5134818,27.031653 C12.0844079,27.2391559 10.1535756,28.1324736 7.7497069,28.5580305 C7.70222745,28.566823 7.66354045,28.5228605 7.67760845,28.4771395 C7.7532239,28.2256741 7.98007035,27.5416178 8.3458382,27.0158265 C8.3774912,26.9701055 8.3370457,26.9067995 8.28253225,26.9173505 C7.8393904,26.996483 6.5609613,27.221571 5.6817116,27.3094959 C5.6342321,27.3147714 5.59730365,27.2655334 5.61664715,27.221571 C5.7186401,26.9806565 5.9806565,26.3563892 6.11430245,26.0644783 C6.13716295,26.0152403 6.09144195,25.9624854 6.0404455,25.9765533 C5.6781946,26.0732708 4.60199296,26.3370457 3.06682298,26.5216881 C3.01230949,26.5287222 2.97538101,26.4689332 3.0052755,26.4232122 C3.2848769,26.0064479 4.31887456,24.5416178 5.78898005,23.4267292 C5.82942555,23.3968347 5.81887455,23.3335287 5.7731536,23.3159437 C5.47948415,23.2086752 4.63892146,22.8622509 3.6014068,22.1043377 C3.56271981,22.0762017 3.56799531,22.0181712 3.6084408,21.9970692 C3.94255568,21.8177022 5.17526375,21.1740914 6.40093785,20.781946 C6.46248535,20.7626026 6.45896835,20.6729191 6.39566235,20.6588511 C5.943728,20.5621336 4.96424385,20.3247363 4.26963657,19.9818288 C4.23270809,19.9624854 4.2221571,19.9132473 4.25029309,19.8815944 C4.38569754,19.7286049 4.74970691,19.3311841 5.0609613,19.1060961 C5.1014068,19.0762017 5.0943728,19.0128957 5.0468933,18.9953107 C4.70574443,18.8634232 3.66822977,18.4202813 2.67116061,17.5603751 C2.64302462,17.5375146 2.64126612,17.4953107 2.66588511,17.4689332 C2.79249707,17.3300117 3.17936694,16.9220399 3.58206331,16.6318875 C3.61899179,16.6055099 3.6172333,16.5509965 3.58030481,16.5263775 C3.27432591,16.3294255 2.14009378,15.5697538 0.974208675,14.4443142 C0.947831185,14.4179367 0.947831185,14.3757327 0.975967175,14.3511137 C1.07796014,14.2614303 1.32063306,14.0539273 1.63716295,13.8516999 C1.67233294,13.8288394 1.67760844,13.7796014 1.64771395,13.7514654 C1.42086753,13.53517 0.5961313,12.7139508 0.0228604924,11.7555686 C0.00175849942,11.7203986 0.0193434936,11.6764361 0.056271981,11.6623681 C0.212778429,11.6060962 0.620750295,11.4742087 1.2080891,11.3616647 C1.25029309,11.3528722 1.27315358,11.3071513 1.25381008,11.2702228 C1.13774912,11.0451348 0.796600235,10.320633 0.578546305,9.15474795 C0.56975381,9.10726845 0.615474795,9.066823 0.66119578,9.08264945 C0.98827667,9.18991795 2.03106682,9.5451348 2.79953107,9.9144197 C2.83470106,9.9320047 2.87866354,9.9126612 2.88921453,9.8739742 C2.95779602,9.6207503 3.18991793,8.79073855 3.35521688,8.53399765 C3.37456038,8.50234465 3.41852286,8.49531065 3.44665885,8.51817115 C3.69109027,8.7028136 4.76201641,9.5293083 5.31418525,10.2080891 C5.3405627,10.2397421 5.3898007,10.2397421 5.4144197,10.2063306 C5.52168815,10.0621336 5.78018755,9.72801875 5.975381,9.5961313 C6.003517,9.5767878 6.0404455,9.5820633 6.0615475,9.6084408 C6.3182884,9.9337632 7.96776085,11.982415 9.5592028,13.0674091 C9.6101993,13.1008206 9.67526375,13.0533411 9.6559203,12.9953107 C9.51348185,12.5451348 9.07737395,11.2702228 8.3475967,9.9267292 C8.3264947,9.8862837 8.3511137,9.8370457 8.3968347,9.8317702 C8.55334115,9.81418525 8.86987105,9.78077375 9.08440795,9.77373975 C9.13540445,9.77198125 9.16354045,9.71395075 9.13364595,9.6735053 C8.92438455,9.37983585 8.31066825,8.4249707 7.7514654,6.6471278 C7.7373974,6.6031653 7.7725674,6.5592028 7.8182884,6.5644783 C8.0961313,6.5908558 8.91559205,6.68405625 9.43786635,6.8704572 C9.48182885,6.8862837 9.5275498,6.8511137 9.52403285,6.80363425 C9.48358735,6.40093785 9.3604924,4.90973036 9.6260258,4.04806565 C9.6365768,4.01113717 9.67878075,3.99355217 9.71395075,4.00937867 C9.9109027,4.10082063 10.503517,4.38218054 10.8253224,4.58264947 C10.8675264,4.60902696 10.9237984,4.57913247 10.9237984,4.52813599 C10.9237984,4.11664713 10.9378664,2.74853458 11.1400938,2.0926143 C11.1506448,2.05744432 11.1893317,2.03810082 11.2245017,2.05216881 C11.3757327,2.11195779 11.7678781,2.27549824 12.0545135,2.47420867 C12.0879249,2.49706917 12.133646,2.48300117 12.1494724,2.44607268 C12.2866354,2.10844079 12.8634232,0.72098476 13.3821805,0.042203986 C13.408558,0.00703399765 13.461313,0.00879249705 13.485932,0.0457209847 C13.6705745,0.325322391 14.3300117,1.36635405 14.7116061,2.44783119 C14.7256741,2.48651817 14.7696366,2.50234466 14.8048066,2.48124267 C14.9595545,2.3862837 15.3534584,2.15767878 15.6559203,2.05216881 C15.6910903,2.03985932 15.7315358,2.06096132 15.7385697,2.0978898 C15.7948417,2.34056272 15.9742087,3.23036343 15.9372802,4.53341149 C15.9355217,4.58440797 15.9900352,4.61606096 16.0339976,4.58968347 C16.2485346,4.46307151 16.7672919,4.16588511 17.1735053,4.02344666 C17.2104337,4.01113717 17.2508793,4.03399766 17.2579133,4.07268464 C17.3159437,4.39800704 17.5322391,5.7538101 17.3352872,6.80363425 C17.3264947,6.8511137 17.3704572,6.8915592 17.4161782,6.8774912 C17.6746776,6.79835875 18.3798358,6.5996483 19.0480657,6.5697538 C19.0920282,6.5679953 19.1236811,6.6084408 19.1131301,6.6506448 C19.0199297,6.99882765 18.6119578,8.3862837 17.7203986,9.69460725 C17.7010551,9.72450175 17.7186401,9.76494725 17.7538101,9.76846425 C17.9138335,9.78780775 18.2760844,9.8335287 18.4589683,9.8599062 C18.5011724,9.8669402 18.5257913,9.9126612 18.5064479,9.9513482 C18.3007034,10.366354 17.3405627,12.3288394 17.1735053,13.0656507 C17.1664713,13.0990621 17.2016413,13.1236811 17.2297773,13.1060962 C17.5920282,12.8686987 19.2203986,11.7362251 20.7924971,9.6260258 C20.8135991,9.5978898 20.8540446,9.5908558 20.8821806,9.6137163 C20.9912075,9.69636575 21.2479484,9.9091442 21.4378664,10.2080891 C21.4607269,10.2432591 21.5099648,10.2467761 21.5381008,10.2168816 C21.7614303,9.97596715 22.598476,9.09320045 23.4196952,8.52520515 C23.4513482,8.50410315 23.4935521,8.51465415 23.5111371,8.54630715 C23.6025792,8.7116061 23.8487691,9.20046895 23.9630715,9.8774912 C23.9701055,9.9196952 24.0158265,9.9425557 24.0545135,9.9249707 C24.3094959,9.80187575 25.1641266,9.40269635 26.2192262,9.10199295 C26.2649472,9.08968345 26.3071513,9.12837045 26.3001172,9.17409145 C26.2491207,9.47303635 26.0644783,10.3962485 25.6318875,11.2772567 C25.6143025,11.3141852 25.6354044,11.3599062 25.6776085,11.3686987 C25.8622509,11.4056272 26.3300117,11.5041032 26.7924971,11.6623681 C26.8294255,11.6746776 26.8470106,11.7168816 26.8294255,11.7520516 C26.7010551,12.0017585 26.1875732,12.9179367 25.2063306,13.7409144 C25.1729191,13.7690504 25.1764361,13.8200469 25.2133646,13.8429074 C25.3645956,13.9378664 25.7039859,14.1594373 25.8728019,14.3493552 C25.8956623,14.3739742 25.8939039,14.4126612 25.8710434,14.4372802 C25.6459554,14.6641266 24.5152403,15.7807737 23.3001172,16.545721 C23.2631888,16.5685815 23.2596717,16.6230949 23.2948417,16.6512309 C23.4636577,16.7796014 23.8856975,17.1154748 24.1776085,17.4724502 C24.1987105,17.4988276 24.1969519,17.5357562 24.172333,17.5586167 C23.968347,17.7502931 23.0468933,18.5715123 21.8423212,19.0111371 C21.7966003,19.0287222 21.7860493,19.0885111 21.8229777,19.1201642 C22.0023447,19.2696366 22.4138335,19.6213365 22.609027,19.8851113 C22.6318875,19.9167644 22.6213365,19.9607269 22.587925,19.9800703 C22.3645956,20.0978898 21.5592028,20.4882766 20.3546307,20.6869871 C20.3317702,20.6905041 20.3282532,20.7239156 20.3511137,20.7309496 C20.6834701,20.8399765 21.8827667,21.2567409 23.2649472,22.0093786 C23.2913248,22.0234467 23.2948417,22.0603751 23.2719812,22.0797187 C23.0627198,22.2502931 22.1905041,22.9308323 21.1318875,23.3282532 C21.0861665,23.3458382 21.0756155,23.4073857 21.1143025,23.4372802 C21.4747948,23.7274326 22.8481829,24.8862837 23.862837,26.4548652 C23.8856975,26.4900352 23.8575615,26.5339976 23.8153576,26.5304807 C23.3950762,26.4812426 21.7737398,26.2790153 20.817116,25.9783119 C20.7626026,25.9607269 20.7151231,26.0187574 20.7415006,26.0697538 C20.873388,26.3177022 21.137163,26.8434936 21.2497069,27.2461899 C21.2620164,27.2901524 21.2268464,27.3305979 21.1811254,27.3270809 C20.8329425,27.2919109 19.5509965,27.1512309 18.5785463,26.9103166 C18.5222743,26.8962485 18.4783119,26.957796 18.5082063,27.0052755 C18.6752637,27.2760844 19.0392731,27.9091442 19.1975381,28.5087925 C19.2098476,28.5545135 19.1676436,28.598476 19.1219226,28.5861665 C18.6471278,28.475381 16.619578,27.9935521 15.4607269,27.5451348 C14.1418523,27.03517 14.0187573,26.8769051 13.9484174,27.1670575 C13.8798358,27.4519343 14.1172333,28.2379836 14.8470106,29.0134819 C14.8716295,29.0398593 14.8698711,29.0803048 14.8434936,29.1049238 L13.9132474,29.9701055 C13.8868699,29.9771395 13.8499414,29.9771395 13.8253224,29.954279 L13.8253224,29.954279 L13.8253224,29.954279 Z" id="Blue_Leaf" fill="#003A80"></path>
                                            <path d="M13.3135991,12.8722157 C13.3118405,12.6014068 13.2977725,12.193435 13.2960141,11.922626 C13.2960141,11.8470106 13.2731536,11.7995311 13.2116061,11.7590856 C12.4747948,11.2825322 11.838218,10.693435 11.2983587,10.0023446 C11.0803048,9.72274325 10.8886283,9.42203985 10.7022274,9.11781945 C11.3968347,10.0973037 12.2461899,10.9026963 13.28898,11.5410317 L13.28898,11.3985932 C13.2942555,10.7039859 13.3012895,10.0076201 13.3012895,9.3130129 C13.3012895,9.2549824 13.2626026,9.17760845 13.2168816,9.14067995 C12.6963657,8.7203986 12.2637749,8.22450175 11.936694,7.64067995 C11.922626,7.61781945 11.912075,7.59144195 11.9103165,7.559789 C12.3007034,8.1066823 12.7420867,8.60082065 13.303048,9 C13.3118405,8.96483 13.3188746,8.943728 13.320633,8.92086755 C13.3610785,8.0926143 13.3997655,7.2661196 13.440211,6.43786635 C13.4454865,6.3358734 13.4243845,6.2549824 13.35932,6.16354045 C13.0287222,5.7045721 12.7104337,5.23856975 12.3903868,4.77256741 C12.3604924,4.73036343 12.3429074,4.68112544 12.3305979,4.62837045 C12.6699883,5.1049238 13.0164126,5.57268465 13.4243845,5.9912075 C13.4384525,5.989449 13.4525205,5.985932 13.4665885,5.9841735 L13.4665885,2.97362251 L13.521102,2.97362251 C13.6213364,4.52637749 13.6213364,6.08264945 13.6055099,7.66529895 C14.1313013,7.41207505 14.5726846,7.07796015 15.0123095,6.72801875 C15.007034,6.74032825 15.003517,6.75439625 14.9947245,6.76318875 C14.6025792,7.1694021 14.1735053,7.528136 13.6846424,7.8147714 C13.6459554,7.8376319 13.6055099,7.89214535 13.6055099,7.93259085 C13.5949589,9.19871045 13.591442,10.46483 13.5861665,11.7291911 C13.5861665,11.7608441 13.5932004,11.7942556 13.6002344,11.8540445 C14.6096131,11.1313013 15.4923798,10.3153575 16.1623681,9.2796014 C16.1377491,9.3341149 16.1148887,9.38862835 16.0867527,9.44138335 C15.7051583,10.1289566 15.2039859,10.721571 14.6324736,11.2561548 C14.3229777,11.5463072 13.9888629,11.8083236 13.6688159,12.0879249 C13.6354044,12.1178195 13.6055099,12.1740915 13.6055099,12.2198124 C13.6037515,12.3903869 13.6125439,12.6998828 13.6248534,12.8704572 L13.3135991,12.8722157 L13.3135991,12.8722157 L13.3135991,12.8722157 Z M17.7801875,25.647714 C17.1735053,25.696952 16.5773739,25.633646 15.9865181,25.4736225 C15.4449003,25.3276671 14.901524,25.1817116 14.3511137,25.0797187 C13.9308323,25.0023447 13.510551,25.0621337 13.1342321,25.2907386 C13.0269636,25.3558031 12.9372802,25.450762 12.8352872,25.5369285 C12.8018757,25.517585 12.7667057,25.496483 12.7297772,25.475381 C12.1301289,25.1412661 11.5128957,24.9917937 10.8657679,25.3382181 C10.6652989,25.4454865 10.4736225,25.4912075 10.2415006,25.4665885 C9.5996483,25.3997656 8.971864,25.514068 8.3581477,25.696952 C8.28604925,25.718054 8.21570925,25.7426729 8.1453693,25.7672919 C8.0803048,25.7901524 8.01524035,25.8165299 7.95017585,25.8393904 C8.7186401,25.6987105 9.47655335,25.503517 10.2626026,25.637163 C10.2661196,25.6494725 10.2713951,25.661782 10.2749121,25.6740915 C9.9214537,25.8763189 9.5679953,26.0785463 9.21453695,26.2825323 C9.40269635,26.2368113 9.5890973,26.1787808 9.76494725,26.0978898 C10.1869871,25.9026964 10.6019929,25.689918 11.0257913,25.4947245 C11.2420867,25.3944901 11.4777256,25.3434936 11.7186401,25.3681126 C12.0650645,25.4032826 12.3780773,25.538687 12.6717468,25.718054 C12.7051582,25.7373974 12.7245017,25.8024619 12.7245017,25.8464244 C12.7262602,25.9378664 12.7139507,26.0293083 12.7069167,26.1207503 C12.7631887,26.0732708 12.7895662,26.0222744 12.8177022,25.9712779 C12.9566237,25.703986 13.1694021,25.521102 13.4595545,25.4349355 C13.7426729,25.3505276 14.0345838,25.3100821 14.3247362,25.3575616 C14.7467761,25.4279015 15.1635404,25.528136 15.5803048,25.6213365 C15.6770222,25.6424385 15.7842908,25.6600235 15.8581477,25.718054 C16.2256741,25.9994139 16.6283704,26.2086753 17.0662368,26.3563892 C17.1225088,26.3757327 17.1858147,26.3810082 17.2438452,26.3915592 C16.8939038,26.2069168 16.538687,26.0451348 16.2168816,25.7672919 C17.1242673,25.8587339 17.985932,25.8587339 18.8405627,25.531653 C18.4730363,25.573857 18.1266119,25.619578 17.7801875,25.647714 L17.7801875,25.647714 L17.7801875,25.647714 Z M5.4073857,13.9695194 C5.00820635,13.5984759 4.60902696,13.2274326 4.21512309,12.8511137 C4.1799531,12.8177022 4.15885111,12.7526377 4.15533411,12.7016412 C4.14126612,12.5029309 4.15005861,12.3007034 4.12368112,12.1037515 C4.09378663,11.8733881 4.03223915,11.6465416 3.9038687,11.4425557 C4.01289566,11.8329426 4.05685815,12.2268464 3.97596717,12.6611958 C3.41500586,12.1072684 2.87690504,11.5762016 2.33704572,11.0433763 C3.01758499,11.8839391 3.77725674,12.6506448 4.57913247,13.4208676 C3.91441969,13.4665885 3.33059789,13.3048066 2.75732708,13.0691677 C2.79777256,13.1096131 2.84173505,13.1395076 2.88921453,13.1658851 C3.43610785,13.4560375 4.01817116,13.6037515 4.63892145,13.60551 C4.70750293,13.60551 4.7954279,13.6424385 4.84290738,13.6916764 C5.0926143,13.9431418 5.3317702,14.2016412 5.57444315,14.4601407 C5.6377491,14.5269637 5.7221571,14.6254396 5.7221571,14.6254396 C5.7221571,14.6254396 5.80480655,14.5445486 5.89449005,14.4777257 C5.87514655,14.4531067 5.83821805,14.4249707 5.81711605,14.4021102 C5.7098476,14.2860492 5.6746776,14.1875732 5.6676436,14.0345838 C5.6500586,13.6424385 5.53927315,13.2731536 5.3458382,12.9302462 C5.25967175,12.7772567 5.1541618,12.6365768 5.0556858,12.4906213 C5.1471278,12.7385697 5.26318875,12.9724502 5.3493552,13.2151231 C5.4372802,13.46483 5.48475965,13.7250879 5.4654162,14.0099648 C5.4372802,13.9923799 5.4214537,13.9835874 5.4073857,13.9695194 L5.4073857,13.9695194 L5.4073857,13.9695194 Z M24.4835873,11.0310668 C23.8575615,11.6412661 23.2297772,12.2514654 22.5808909,12.8845252 C22.517585,12.4079718 22.5369285,11.9736225 22.6090269,11.5392731 C22.5896834,11.5603752 22.5756154,11.5797187 22.566823,11.6025792 C22.549238,11.6535756 22.531653,11.7045721 22.517585,11.7573271 C22.422626,12.1389214 22.383939,12.5257913 22.408558,12.9196952 C22.412075,12.9724502 22.3856975,13.0427902 22.3470105,13.0797187 C22.0920281,13.3241501 21.8300117,13.5615475 21.5732708,13.8042204 C21.3604924,14.0064479 21.1512309,14.2121922 20.940211,14.4179367 C21.0298945,14.4935521 21.1336459,14.5797187 21.1336459,14.5797187 C21.1336459,14.5797187 21.2110199,14.5041032 21.2813599,14.4284877 C21.4114888,14.2878078 21.5381008,14.1436108 21.6770222,14.0134818 C21.7262602,13.9677608 21.8018757,13.9361079 21.8686987,13.9255568 C22.1113716,13.8903869 22.3575615,13.8798358 22.5984759,13.8376319 C22.9853458,13.7690504 23.3458382,13.6248534 23.6764361,13.4032826 C23.1330598,13.623095 22.573857,13.7620164 21.9390387,13.7286049 C22.8429074,12.8493552 23.7116061,11.985932 24.4835873,11.0310668 L24.4835873,11.0310668 L24.4835873,11.0310668 Z" id="White_Veins" fill="#FFFFFF"></path>
                                            <path d="M5.17878075,16.1078547 L6.78780775,15.2813599 L7.00762015,15.6946073 L6.43610785,15.9935522 L7.5087925,18.0685815 L7.06916765,18.3059789 L5.978898,16.2221571 L5.4161782,16.521102 L5.17878075,16.1078547 L5.17878075,16.1078547 L5.17878075,16.1078547 Z M17.7028136,14.8786636 L18.3077374,15.080891 L17.5480657,17.3071513 L18.0228605,17.4618992 L18.7895663,15.2549824 L19.3997656,15.4642439 L19.5474795,15.021102 L17.8399765,14.4232122 L17.7028136,14.8786636 L17.7028136,14.8786636 L17.7028136,14.8786636 Z M14.3845252,16.1131301 C14.3845252,16.4314185 14.1260258,16.6881595 13.8094959,16.6881595 L13.1676436,16.6881595 C12.8493552,16.6881595 12.5926143,16.42966 12.5926143,16.1131301 L12.5926143,14.4337632 C12.5926143,14.1154748 12.8511137,13.8587339 13.1676436,13.8587339 L13.8094959,13.8587339 C14.1277843,13.8587339 14.3845252,14.1172333 14.3845252,14.4337632 L14.3845252,16.1131301 L14.3845252,16.1131301 L14.3845252,16.1131301 Z M13.8569754,14.5498242 C13.8569754,14.4390387 13.7672919,14.3493552 13.6565065,14.3493552 L13.303048,14.3493552 C13.1922626,14.3493552 13.1025792,14.4390387 13.1025792,14.5498242 L13.1025792,16.0111372 C13.1025792,16.1219227 13.1922626,16.2116061 13.303048,16.2116061 L13.6565065,16.2116061 C13.7672919,16.2116061 13.8569754,16.1219227 13.8569754,16.0111372 L13.8569754,14.5498242 L13.8569754,14.5498242 L13.8569754,14.5498242 Z M20.7626026,18.101993 C20.6166471,18.3833529 20.2684643,18.4941384 19.9871043,18.3481829 L19.4173505,18.052755 C19.1359906,17.9067996 19.0252051,17.5586167 19.1711606,17.2772568 L19.9466588,15.7860493 C20.0926143,15.5046894 20.4407972,15.3939039 20.7221571,15.5398593 L21.2919109,15.8352872 C21.5732708,15.9812427 21.6840563,16.3294256 21.5381008,16.6107855 L20.7626026,18.101993 L20.7626026,18.101993 L20.7626026,18.101993 Z M21.0158265,16.471864 C21.066823,16.3733881 21.028136,16.2520516 20.92966,16.2010551 L20.6148887,16.0375147 C20.5164126,15.9865182 20.3950762,16.0252052 20.3440797,16.1236812 L19.6705745,17.4214537 C19.619578,17.5199297 19.6582649,17.6412661 19.7567409,17.6922626 L20.0715123,17.8558031 C20.1699883,17.9067996 20.2913248,17.8681126 20.3423212,17.7696366 L21.0158265,16.471864 L21.0158265,16.471864 L21.0158265,16.471864 Z M9.8458382,16.566823 C9.9478312,16.8675264 9.78604925,17.1946073 9.48534585,17.2966003 L8.87690505,17.5023447 C8.57620165,17.6043377 8.24912075,17.4425557 8.1471278,17.1418523 L7.60902695,15.5504103 C7.507034,15.2497069 7.66881595,14.9226261 7.96951935,14.8206331 L8.57796015,14.6148887 C8.87866355,14.5128957 9.20574445,14.6746776 9.3077374,14.975381 L9.8458382,16.566823 L9.8458382,16.566823 L9.8458382,16.566823 Z M8.84701055,15.2549824 C8.81184055,15.1494725 8.6975381,15.0932005 8.59202815,15.1283705 L8.25615475,15.2409144 C8.1506448,15.2760844 8.0943728,15.3903869 8.1295428,15.4958969 L8.59730365,16.8815944 C8.6324736,16.9871044 8.7467761,17.0433763 8.85228605,17.0082064 L9.18815945,16.8956624 C9.2936694,16.8604924 9.3499414,16.7461899 9.3147714,16.64068 L8.84701055,15.2549824 L8.84701055,15.2549824 L8.84701055,15.2549824 Z M12.168816,16.7409144 L11.6711606,16.8165299 L11.1207503,16.0304807 L10.8569754,16.0779602 L11.0029309,16.9097304 L10.5052755,16.9976554 L10.0586167,14.2086753 L11.1858148,14.0169989 C11.4794842,13.9677609 11.7573271,14.1647128 11.806565,14.4583822 L11.975381,15.4607269 C12.0052755,15.6822978 11.7678781,15.9407972 11.5990622,15.9618992 L12.168816,16.7409144 L12.168816,16.7409144 L12.168816,16.7409144 Z M11.4513482,15.3007034 L11.3388042,14.6606096 C11.3212193,14.5621337 11.2297772,14.4970692 11.1313013,14.5111372 L10.623095,14.5902697 L10.7813599,15.6101993 L11.3053927,15.5134819 C11.4038687,15.4958969 11.4689332,15.4009379 11.4513482,15.3007034 L11.4513482,15.3007034 L11.4513482,15.3007034 Z M15.3429074,13.9361079 L14.8681125,16.7321219 L15.3692849,16.8112544 L15.6330598,15.2286049 L16.2221571,16.9431419 L16.6178194,17.0310668 L17.0838218,14.2526378 L16.6002344,14.1471278 L16.3364596,15.7209848 L15.7385697,13.9976554 L15.3429074,13.9361079 L15.3429074,13.9361079 L15.3429074,13.9361079 Z M8.6518171,20.6096132 L8.6518171,19.5017585 L9.08264945,20.4636577 L9.51348185,19.5017585 L9.51348185,20.6271981 L9.98827665,20.6271981 L9.98827665,18.165299 L9.6242673,18.165299 L9.073857,19.3751466 L8.54630715,18.165299 L8.1594373,18.165299 L8.1594373,20.6096132 L8.6518171,20.6096132 L8.6518171,20.6096132 L8.6518171,20.6096132 Z M12.5029309,20.6096132 L11.992966,20.6096132 L11.8997655,20.1524033 L11.2368113,20.1524033 L11.1313013,20.6096132 L10.6248534,20.6113717 L11.2368113,18.147714 L11.8874561,18.147714 L12.5029309,20.6096132 L12.5029309,20.6096132 L12.5029309,20.6096132 Z M11.7995311,19.6776085 L11.5621336,18.6717468 L11.3247363,19.6776085 L11.7995311,19.6776085 L11.7995311,19.6776085 L11.7995311,19.6776085 Z M14.3493552,23.8276671 L13.8393904,23.8276671 L13.71102,23.3704572 L13.0480656,23.3704572 L12.9073857,23.8276671 L12.4009379,23.8294256 L13.0480656,21.3657679 L13.6987105,21.3657679 L14.3493552,23.8276671 L14.3493552,23.8276671 L14.3493552,23.8276671 Z M13.6107854,22.8956624 L13.3733881,21.8898007 L13.1359906,22.8956624 L13.6107854,22.8956624 L13.6107854,22.8956624 L13.6107854,22.8956624 Z M14.6834701,18.6611958 L14.6834701,19.3944901 C14.6834701,19.6776085 14.4531067,19.9079719 14.1699883,19.9079719 L13.6107854,19.9079719 L13.6107854,20.6113717 L13.1184056,20.6113717 L13.1184056,18.1494725 L14.1699883,18.1494725 C14.4531067,18.147714 14.6834701,18.3780774 14.6834701,18.6611958 L14.6834701,18.6611958 L14.6834701,18.6611958 Z M14.1910903,18.7719813 C14.1910903,18.6893318 14.1189918,18.6225088 14.0363423,18.6225088 L13.5932004,18.6225088 L13.5932004,19.4314185 L14.0363423,19.4314185 C14.1189918,19.4314185 14.1910903,19.3698711 14.1910903,19.2872216 L14.1910903,18.7719813 L14.1910903,18.7719813 L14.1910903,18.7719813 Z M15.4044549,18.147714 L15.4044549,20.6271981 L16.7760844,20.6271981 L16.7760844,20.1524033 L15.8792497,20.1524033 L15.8792497,18.147714 L15.4044549,18.147714 L15.4044549,18.147714 L15.4044549,18.147714 Z M8.19460725,21.3833529 L8.19460725,23.8628371 L9.6014068,23.8628371 L9.6014068,23.3880422 L8.6694021,23.3880422 L8.6694021,21.3833529 L8.19460725,21.3833529 L8.19460725,21.3833529 L8.19460725,21.3833529 Z M17.3915592,18.147714 L17.3915592,20.6271981 L18.8159437,20.6271981 L18.8159437,20.1524033 L17.883939,20.1524033 L17.883939,19.6248535 L18.5169989,19.6248535 L18.5169989,19.1500586 L17.883939,19.1500586 L17.883939,18.6225088 L18.8159437,18.6225088 L18.8159437,18.147714 L17.3915592,18.147714 L17.3915592,18.147714 L17.3915592,18.147714 Z M10.2344666,21.3657679 L10.2344666,23.845252 L11.7995311,23.845252 L11.7995311,23.3704572 L10.7268464,23.3704572 L10.7268464,22.8429074 L11.5005862,22.8429074 L11.5005862,22.3681125 L10.7268464,22.3681125 L10.7268464,21.8405627 L11.7995311,21.8405627 L11.7995311,21.3657679 L10.2344666,21.3657679 L10.2344666,21.3657679 L10.2344666,21.3657679 Z M15.4572098,23.845252 L15.4572098,22.8429074 L16.2309496,22.8429074 L16.2309496,22.3681125 L15.4572098,22.3681125 L15.4572098,21.8405627 L16.5298945,21.8405627 L16.5298945,21.3657679 L14.96483,21.3657679 L14.96483,23.845252 L15.4572098,23.845252 L15.4572098,23.845252 L15.4572098,23.845252 Z M18.5943728,22.5650645 L17.7010551,22.1588511 C17.6518171,22.1359906 17.6201642,22.0867527 17.6201642,22.0339977 L17.6201642,22.0058616 C17.6201642,21.9144197 17.6940211,21.8405627 17.7854631,21.8405627 L18.1776085,21.8405627 C18.2690504,21.8405627 18.3429074,21.9144197 18.3429074,22.0058616 L18.3429074,22.0867527 L18.8177022,22.0867527 L18.8177022,21.9003517 C18.8177022,21.6049238 18.5785463,21.3657679 18.2831184,21.3657679 L17.6641266,21.3657679 C17.3686987,21.3657679 17.1295428,21.6049238 17.1295428,21.9003517 L17.1295428,22.1236812 C17.1295428,22.3241501 17.2491207,22.507034 17.4337632,22.5861665 L18.2743259,22.9466588 C18.3165299,22.9642439 18.3429074,23.0064479 18.3429074,23.0504103 L18.3429074,23.2543962 C18.3429074,23.3177023 18.2919109,23.3686987 18.2286049,23.3686987 L17.7520516,23.3686987 C17.6887456,23.3686987 17.6377491,23.3177023 17.6377491,23.2543962 L17.6377491,23.1225088 L17.1277843,23.1225088 L17.1277843,23.3352872 C17.1277843,23.6148887 17.3546307,23.8434936 17.6359906,23.8434936 L18.3094959,23.8434936 C18.5890973,23.8434936 18.8177022,23.6166471 18.8177022,23.3352872 L18.8177022,22.9097304 C18.8159437,22.7620164 18.7297773,22.626612 18.5943728,22.5650645 L18.5943728,22.5650645 L18.5943728,22.5650645 Z" id="White_Text" fill="#FFFFFF"></path>
                                        </g>
                                    </g>
                                </g>
                            </g>
                        </g>
                    </g>
                </g>
            </g>
        </g>
    </g>
</svg>