<?xml version="1.0" encoding="UTF-8" standalone="no"?>
<svg width="60px" height="60px" viewBox="0 0 60 60" version="1.1" xmlns="http://www.w3.org/2000/svg" xmlns:xlink="http://www.w3.org/1999/xlink">
    <!-- Generator: Sketch 40.3 (33839) - http://www.bohemiancoding.com/sketch -->
    <title>Artboard</title>
    <desc>Created with Sketch.</desc>
    <defs></defs>
    <g id="Page-1" stroke="none" stroke-width="1" fill="none" fill-rule="evenodd">
        <g id="Artboard">
            <g id="mapleleafs" transform="translate(3.130129, 0.000000)">
                <g id="Blue" transform="translate(0.007592, 0.001391)">
                    <path d="M27.6506448,59.908558 C25.5263775,57.9355217 25.2485346,54.9566237 25.2098476,54.1723329 C25.2063306,54.080891 25.1078546,54.024619 25.0269637,54.063306 C24.1688159,54.4783118 20.3071512,56.2649472 15.4994138,57.116061 C15.4044549,57.133646 15.3270809,57.045721 15.3552169,56.954279 C15.5064478,56.4513482 15.9601407,55.0832356 16.6916764,54.031653 C16.7549824,53.940211 16.6740914,53.8135991 16.5650645,53.8347011 C15.6787808,53.992966 13.1219226,54.4431419 11.3634232,54.6189918 C11.2684642,54.6295428 11.1946073,54.5310668 11.2332943,54.4431419 C11.4372802,53.961313 11.961313,52.7127784 12.2286049,52.1289566 C12.2743259,52.0304807 12.1828839,51.9249707 12.080891,51.9531067 C11.3563892,52.1465416 9.20398593,52.6740914 6.13364596,53.0433763 C6.02461899,53.0574443 5.95076202,52.9378664 6.010551,52.8464244 C6.56975381,52.0128957 8.63774912,49.0832356 11.5779601,46.8534584 C11.6588511,46.7936694 11.6377491,46.6670574 11.5463072,46.6318875 C10.9589683,46.4173505 9.27784291,45.7245018 7.2028136,44.2086753 C7.12543962,44.1524033 7.13599062,44.0363423 7.21688159,43.9941383 C7.88511137,43.6354045 10.3505275,42.3481829 12.8018757,41.5638921 C12.9249707,41.5252052 12.9179367,41.3458382 12.7913247,41.3177022 C11.887456,41.1242673 9.92848769,40.6494725 8.53927315,39.9636577 C8.46541618,39.9249707 8.44431419,39.8264947 8.50058617,39.7631887 C8.77139508,39.4572098 9.49941383,38.6623681 10.1219226,38.2121923 C10.2028136,38.1524033 10.1887456,38.0257913 10.0937866,37.9906213 C9.41148886,37.7268464 7.33645955,36.8405627 5.34232122,35.1207503 C5.28604924,35.0750293 5.28253224,34.9906213 5.33177022,34.9378664 C5.58499414,34.6600234 6.35873388,33.8440797 7.16412661,33.2637749 C7.23798359,33.2110199 7.23446659,33.101993 7.16060961,33.052755 C6.54865182,32.6588511 4.28018757,31.1395076 1.94841735,28.8886284 C1.89566237,28.8358734 1.89566237,28.7514654 1.95193435,28.7022274 C2.15592028,28.5228605 2.64126612,28.1078546 3.27432591,27.7033998 C3.34466589,27.6576788 3.35521688,27.5592028 3.2954279,27.5029308 C2.84173505,27.07034 1.1922626,25.4279015 0.0457209848,23.5111372 C0.00351699883,23.4407972 0.0386869871,23.3528722 0.112543962,23.3247362 C0.425556858,23.2121923 1.24150059,22.9484174 2.41617819,22.7233294 C2.50058617,22.7057444 2.54630715,22.6143025 2.50762016,22.5404455 C2.27549824,22.0902696 1.59320047,20.6412661 1.15709261,18.3094959 C1.13950762,18.2145369 1.23094959,18.133646 1.32239156,18.1652989 C1.97655334,18.3798359 4.06213365,19.0902696 5.59906213,19.8288394 C5.66940211,19.8640094 5.75732708,19.8253224 5.77842907,19.7479484 C5.91559203,19.2415006 6.37983587,17.5814771 6.71043376,17.0679953 C6.74912075,17.0046893 6.83704572,16.9906213 6.8933177,17.0363423 C7.38218054,17.4056272 9.52403283,19.0586166 10.6283705,20.4161782 C10.6811254,20.4794842 10.7796014,20.4794842 10.8288394,20.4126612 C11.0433763,20.1242673 11.5603751,19.4560375 11.950762,19.1922626 C12.007034,19.1535756 12.080891,19.1641266 12.123095,19.2168816 C12.6365768,19.8675264 15.9355217,23.96483 19.1184056,26.1348183 C19.2203986,26.2016413 19.3505275,26.1066823 19.3118406,25.9906213 C19.0269637,25.0902696 18.1547479,22.5404455 16.6951934,19.8534584 C16.6529894,19.7725674 16.7022274,19.6740914 16.7936694,19.6635404 C17.1066823,19.6283705 17.7397421,19.5615475 18.1688159,19.5474795 C18.2708089,19.5439625 18.3270809,19.4279015 18.2672919,19.3470106 C17.8487691,18.7596717 16.6213365,16.8499414 15.5029308,13.2942556 C15.4747948,13.2063306 15.5451348,13.1184056 15.6365768,13.1289566 C16.1922626,13.1817116 17.8311841,13.3681125 18.8757327,13.7409144 C18.9636577,13.7725674 19.0550996,13.7022274 19.0480657,13.6072685 C18.9671747,12.8018757 18.7209848,9.81946073 19.2520516,8.0961313 C19.2731536,8.02227433 19.3575615,7.98710434 19.4279015,8.01875733 C19.8218054,8.20164127 21.007034,8.76436108 21.6506448,9.16529894 C21.7350528,9.21805393 21.8475967,9.15826495 21.8475967,9.05627198 C21.8475967,8.23329426 21.8757327,5.49706917 22.2801876,4.1852286 C22.3012896,4.11488863 22.3786635,4.07620164 22.4490035,4.10433763 C22.7514654,4.22391559 23.5357562,4.55099648 24.109027,4.94841735 C24.1758499,4.99413834 24.2672919,4.96600234 24.2989449,4.89214537 C24.5732708,4.21688159 25.7268464,1.44196952 26.7643611,0.0844079719 C26.8171161,0.0140679953 26.922626,0.0175849941 26.971864,0.0914419695 C27.3411489,0.650644783 28.6600234,2.73270809 29.4232122,4.89566237 C29.4513482,4.97303634 29.5392732,5.00468933 29.6096131,4.96248535 C29.919109,4.77256741 30.7069168,4.31535756 31.3118406,4.10433763 C31.3821805,4.07971864 31.4630715,4.12192263 31.4771395,4.1957796 C31.5896835,4.68112544 31.9484174,6.46072685 31.8745604,9.06682298 C31.8710434,9.16881594 31.9800703,9.23212192 32.0679953,9.17936694 C32.4970692,8.92614302 33.5345838,8.33177022 34.3470106,8.04689332 C34.4208675,8.02227433 34.5017585,8.06799531 34.5158265,8.14536928 C34.6318875,8.79601407 35.0644783,11.5076202 34.6705744,13.6072685 C34.6529894,13.7022274 34.7409144,13.7831184 34.8323564,13.7549824 C35.3493552,13.5967175 36.7596717,13.1992966 38.0961313,13.1395076 C38.1840563,13.1359906 38.2473623,13.2168816 38.2262603,13.3012896 C38.0398593,13.9976553 37.2239156,16.7725674 35.4407972,19.3892145 C35.4021102,19.4490035 35.4372802,19.5298945 35.5076202,19.5369285 C35.8276671,19.5756155 36.5521688,19.6670574 36.9179367,19.7198124 C37.0023447,19.7338804 37.0515826,19.8253224 37.0128957,19.9026964 C36.6014068,20.7327081 34.6811254,24.6576788 34.3470106,26.1313013 C34.3329426,26.1981243 34.4032825,26.2473623 34.4595545,26.2121923 C35.1840563,25.7373974 38.4407972,23.4724502 41.5849941,19.2520516 C41.6271981,19.1957796 41.7080891,19.1817116 41.7643611,19.2274326 C41.982415,19.3927315 42.4958968,19.8182884 42.8757327,20.4161782 C42.9214537,20.4865182 43.0199297,20.4935522 43.0762016,20.4337632 C43.5228605,19.9519343 45.1969519,18.1864009 46.8393904,17.0504103 C46.9026964,17.0082063 46.9871043,17.0293083 47.0222743,17.0926143 C47.2051583,17.4232122 47.6975381,18.4009379 47.926143,19.7549824 C47.940211,19.8393904 48.031653,19.8851114 48.109027,19.8499414 C48.6189918,19.6037515 50.3282532,18.8053927 52.4384525,18.2039859 C52.5298945,18.1793669 52.6143025,18.2567409 52.6002345,18.3481829 C52.4982415,18.9460727 52.1289566,20.7924971 51.2637749,22.5545135 C51.2286049,22.6283705 51.2708089,22.7198124 51.3552169,22.7373974 C51.7245018,22.8112544 52.6600234,23.0082063 53.5849941,23.3247362 C53.6588511,23.3493552 53.6940211,23.4337632 53.6588511,23.5041032 C53.4021102,24.003517 52.3751465,25.8358734 50.4126612,27.4818288 C50.3458382,27.5381008 50.3528722,27.6400938 50.4267292,27.6858148 C50.7291911,27.8757327 51.4079719,28.3188746 51.7456038,28.6987104 C51.7913247,28.7479484 51.7878077,28.8253224 51.7420868,28.8745604 C51.2919109,29.3282532 49.0304807,31.5615475 46.6002345,33.091442 C46.5263775,33.137163 46.5193435,33.2461899 46.5896835,33.3024619 C46.9273154,33.5592028 47.7713951,34.2309496 48.3552169,34.9449004 C48.3974209,34.9976553 48.3939039,35.0715123 48.3446659,35.1172333 C47.936694,35.5005862 46.0937866,37.1430246 43.6846424,38.0222743 C43.5932005,38.0574443 43.5720985,38.1770223 43.6459555,38.2403283 C44.0046893,38.5392732 44.8276671,39.2426729 45.2180539,39.7702227 C45.2637749,39.8335287 45.2426729,39.9214537 45.1758499,39.9601407 C44.7291911,40.1957796 43.1184056,40.9765533 40.7092614,41.3739742 C40.6635404,41.3810082 40.6565064,41.4478312 40.7022274,41.4618992 C41.3669402,41.6799531 43.7655334,42.5134818 46.5298945,44.0187573 C46.5826495,44.0468933 46.5896835,44.1207503 46.5439625,44.1594373 C46.1254396,44.5005862 44.3810082,45.8616647 42.2637749,46.6565064 C42.1723329,46.6916764 42.1512309,46.8147714 42.2286049,46.8745604 C42.9495897,47.4548652 45.6963658,49.7725674 47.7256741,52.9097304 C47.7713951,52.9800703 47.7151231,53.0679953 47.6307151,53.0609613 C46.7901524,52.9624853 43.5474795,52.5580305 41.6342321,51.9566237 C41.5252052,51.9214537 41.4302462,52.0375147 41.4830012,52.1395076 C41.7467761,52.6354045 42.2743259,53.6869871 42.4994138,54.4923798 C42.5240328,54.5803048 42.4536928,54.6611958 42.3622509,54.6541618 C41.6658851,54.5838218 39.101993,54.3024619 37.1570926,53.8206331 C37.0445487,53.7924971 36.9566237,53.915592 37.0164127,54.010551 C37.3505275,54.5521688 38.0785463,55.8182884 38.3950762,57.017585 C38.4196952,57.109027 38.3352872,57.1969519 38.2438453,57.1723329 C37.2942556,56.950762 33.2391559,55.9871043 30.9214537,55.0902696 C28.2837046,54.07034 28.0375147,53.7538101 27.8968347,54.3341149 C27.7596717,54.9038687 28.2344666,56.4759672 29.6940211,58.0269637 C29.7432591,58.0797186 29.7397421,58.1606096 29.6869871,58.2098476 L27.8264947,59.940211 C27.7737397,59.954279 27.6998828,59.954279 27.6506448,59.908558 L27.6506448,59.908558 Z" id="Blue_Leaf" fill="#003A80"></path>
                    <path d="M26.6271981,25.7444314 C26.6236811,25.2028136 26.5955451,24.3868699 26.5920281,23.8452521 C26.5920281,23.6940211 26.5463072,23.5990621 26.4232122,23.5181712 C24.9495897,22.5650645 23.6764361,21.3868699 22.5967175,20.0046893 C22.1606096,19.4454865 21.7772567,18.8440797 21.4044549,18.2356389 C22.7936694,20.1946073 24.4923798,21.8053927 26.5779601,23.0820633 L26.5779601,22.7971864 C26.5885111,21.4079719 26.6025791,20.0152403 26.6025791,18.6260258 C26.6025791,18.5099648 26.5252052,18.3552169 26.4337632,18.2813599 C25.3927315,17.4407972 24.5275498,16.4490035 23.873388,15.2813599 C23.8452521,15.2356389 23.8241501,15.1828839 23.8206331,15.119578 C24.6014068,16.2133646 25.4841735,17.2016413 26.6060961,18 C26.6236811,17.92966 26.6377491,17.887456 26.6412661,17.8417351 C26.7221571,16.1852286 26.7995311,14.5322392 26.880422,12.8757327 C26.890973,12.6717468 26.8487691,12.5099648 26.7186401,12.3270809 C26.0574443,11.4091442 25.4208675,10.4771395 24.7807737,9.54513482 C24.7209848,9.46072685 24.6858148,9.36225088 24.6611958,9.25674091 C25.3399766,10.2098476 26.0328253,11.1453693 26.8487691,11.982415 C26.876905,11.978898 26.905041,11.971864 26.933177,11.968347 L26.933177,5.94724502 L27.042204,5.94724502 C27.2426729,9.05275498 27.2426729,12.1652989 27.2110199,15.3305979 C28.2626026,14.8241501 29.1453693,14.1559203 30.024619,13.4560375 C30.014068,13.4806565 30.007034,13.5087925 29.989449,13.5263775 C29.2051583,14.3388042 28.3470106,15.056272 27.3692849,15.6295428 C27.2919109,15.6752638 27.2110199,15.7842907 27.2110199,15.8651817 C27.1899179,18.3974209 27.1828839,20.92966 27.1723329,23.4583822 C27.1723329,23.5216882 27.1864009,23.5885111 27.2004689,23.7080891 C29.2192263,22.2626026 30.9847597,20.6307151 32.3247362,18.5592028 C32.2754982,18.6682298 32.2297773,18.7772567 32.1735053,18.8827667 C31.4103165,20.2579132 30.4079719,21.4431419 29.2649472,22.5123095 C28.6459555,23.0926143 27.9777257,23.6166471 27.3376319,24.1758499 C27.2708089,24.2356389 27.2110199,24.3481829 27.2110199,24.4396249 C27.2075029,24.7807737 27.2250879,25.3997655 27.2497069,25.7409144 L26.6271981,25.7444314 L26.6271981,25.7444314 Z M35.5603751,51.2954279 C34.3470106,51.3939039 33.1547479,51.2672919 31.9730363,50.947245 C30.8898007,50.6553341 29.8030481,50.3634232 28.7022274,50.1594373 C27.8616647,50.0046893 27.021102,50.1242673 26.2684642,50.5814771 C26.0539273,50.7116061 25.8745604,50.901524 25.6705744,51.073857 C25.6037515,51.03517 25.5334115,50.992966 25.4595545,50.950762 C24.2602579,50.2825322 23.0257913,49.9835873 21.7315358,50.6764361 C21.3305979,50.890973 20.947245,50.982415 20.4830012,50.933177 C19.1992966,50.7995311 17.943728,51.028136 16.7162954,51.3939039 C16.5720985,51.4361079 16.4314185,51.4853458 16.2907386,51.5345838 C16.1606096,51.5803048 16.0304807,51.6330598 15.9003517,51.6787808 C17.4372802,51.3974209 18.9531067,51.007034 20.5252052,51.2743259 C20.5322392,51.2989449 20.5427902,51.3235639 20.5498242,51.3481829 C19.8429074,51.7526377 19.1359906,52.1570926 18.4290739,52.5650645 C18.8053927,52.4736225 19.1781946,52.3575615 19.5298945,52.1957796 C20.3739742,51.8053927 21.2039859,51.3798359 22.0515826,50.989449 C22.4841735,50.7889801 22.9554513,50.6869871 23.4372802,50.7362251 C24.130129,50.8065651 24.7561547,51.077374 25.3434936,51.4361079 C25.4103165,51.4747948 25.4490035,51.6049238 25.4490035,51.6928488 C25.4525205,51.8757327 25.4279015,52.0586166 25.4138335,52.2415006 C25.5263775,52.1465416 25.5791325,52.0445487 25.6354045,51.9425557 C25.9132474,51.4079719 26.3388042,51.042204 26.919109,50.869871 C27.4853458,50.7010551 28.0691676,50.6201641 28.6494725,50.7151231 C29.4935522,50.855803 30.3270809,51.056272 31.1606096,51.2426729 C31.3540445,51.2848769 31.5685815,51.3200469 31.7162954,51.4361079 C32.4513482,51.9988277 33.2567409,52.4173505 34.1324736,52.7127784 C34.2450176,52.7514654 34.3716295,52.7620164 34.4876905,52.7831184 C33.7878077,52.4138335 33.077374,52.0902696 32.4337632,51.5345838 C34.2485346,51.7174678 35.971864,51.7174678 37.6811254,51.063306 C36.9460727,51.147714 36.2532239,51.2391559 35.5603751,51.2954279 L35.5603751,51.2954279 Z M10.8147714,27.9390387 C10.0164127,27.1969519 9.21805393,26.4548652 8.43024619,25.7022274 C8.35990621,25.6354045 8.31770223,25.5052755 8.31066823,25.4032825 C8.28253224,25.0058617 8.30011723,24.6014068 8.24736225,24.2075029 C8.18757327,23.7467761 8.06447831,23.2930832 7.8077374,22.8851114 C8.02579132,23.6658851 8.1137163,24.4536928 7.95193435,25.3223916 C6.83001172,24.2145369 5.75381008,23.1524033 4.67409144,22.0867526 C6.03516999,23.7678781 7.55451348,25.3012896 9.15826495,26.8417351 C7.82883939,26.933177 6.66119578,26.6096131 5.51465416,26.1383353 C5.59554513,26.2192263 5.68347011,26.2790152 5.77842907,26.3317702 C6.87221571,26.912075 8.03634232,27.2075029 9.27784291,27.2110199 C9.41500586,27.2110199 9.5908558,27.2848769 9.68581477,27.3833529 C10.1852286,27.8862837 10.6635404,28.4032825 11.1488863,28.9202814 C11.2754982,29.0539273 11.4443142,29.2508792 11.4443142,29.2508792 C11.4443142,29.2508792 11.6096131,29.0890973 11.7889801,28.9554513 C11.7502931,28.9062134 11.6764361,28.8499414 11.6342321,28.8042204 C11.4196952,28.5720985 11.3493552,28.3751465 11.3352872,28.0691676 C11.3001172,27.2848769 11.0785463,26.5463072 10.6916764,25.8604924 C10.5193435,25.5545135 10.3083236,25.2731536 10.1113716,24.9812427 C10.2942556,25.4771395 10.5263775,25.9449004 10.6987104,26.4302462 C10.8745604,26.92966 10.9695193,27.4501758 10.9308324,28.0199297 C10.8745604,27.9847597 10.8429074,27.9671747 10.8147714,27.9390387 L10.8147714,27.9390387 Z M48.9671747,22.0621336 C47.7151231,23.2825322 46.4595545,24.5029308 45.1617819,25.7690504 C45.03517,24.8159437 45.073857,23.947245 45.2180539,23.0785463 C45.1793669,23.1207503 45.1512309,23.1594373 45.133646,23.2051583 C45.098476,23.3071512 45.063306,23.4091442 45.03517,23.5146542 C44.8452521,24.2778429 44.7678781,25.0515826 44.8171161,25.8393904 C44.8241501,25.9449004 44.7713951,26.0855803 44.6940211,26.1594373 C44.1840563,26.6483001 43.6600234,27.123095 43.1465416,27.6084408 C42.7209848,28.0128957 42.3024619,28.4243845 41.880422,28.8358734 C42.059789,28.9871043 42.2672919,29.1594373 42.2672919,29.1594373 C42.2672919,29.1594373 42.4220399,29.0082063 42.5627198,28.8569754 C42.8229777,28.5756155 43.0762016,28.2872216 43.3540445,28.0269637 C43.4525205,27.9355217 43.6037515,27.8722157 43.7373974,27.8511137 C44.2227433,27.7807737 44.7151231,27.7596717 45.1969519,27.6752638 C45.9706917,27.5381008 46.6916764,27.2497069 47.3528722,26.8065651 C46.2661196,27.2461899 45.147714,27.5240328 43.8780774,27.4572098 C45.6858148,25.6987104 47.4232122,23.971864 48.9671747,22.0621336 L48.9671747,22.0621336 Z" id="White_Veins" fill="#FFFFFF"></path>
                    <path d="M10.3575615,32.2157093 L13.5756155,30.5627198 L14.0152403,31.3892145 L12.8722157,31.9871043 L15.017585,36.137163 L14.1383353,36.6119578 L11.957796,32.4443142 L10.8323564,33.042204 L10.3575615,32.2157093 L10.3575615,32.2157093 Z M35.4056272,29.7573271 L36.6154748,30.1617819 L35.0961313,34.6143025 L36.045721,34.9237984 L37.5791325,30.5099648 L38.7995311,30.9284877 L39.094959,30.042204 L35.6799531,28.8464244 L35.4056272,29.7573271 L35.4056272,29.7573271 Z M28.7690504,32.2262603 C28.7690504,32.862837 28.2520516,33.3763189 27.6189918,33.3763189 L26.3352872,33.3763189 C25.6987104,33.3763189 25.1852286,32.85932 25.1852286,32.2262603 L25.1852286,28.8675264 C25.1852286,28.2309496 25.7022274,27.7174678 26.3352872,27.7174678 L27.6189918,27.7174678 C28.2555686,27.7174678 28.7690504,28.2344666 28.7690504,28.8675264 L28.7690504,32.2262603 L28.7690504,32.2262603 Z M27.7139508,29.0996483 C27.7139508,28.8780774 27.5345838,28.6987104 27.3130129,28.6987104 L26.6060961,28.6987104 C26.3845252,28.6987104 26.2051583,28.8780774 26.2051583,29.0996483 L26.2051583,32.0222743 C26.2051583,32.2438453 26.3845252,32.4232122 26.6060961,32.4232122 L27.3130129,32.4232122 C27.5345838,32.4232122 27.7139508,32.2438453 27.7139508,32.0222743 L27.7139508,29.0996483 L27.7139508,29.0996483 Z M41.5252052,36.2039859 C41.2332943,36.7667057 40.5369285,36.9882767 39.9742087,36.6963658 L38.8347011,36.10551 C38.2719812,35.8135991 38.0504103,35.1172333 38.3423212,34.5545135 L39.8933177,31.5720985 C40.1852286,31.0093787 40.8815944,30.7878077 41.4443142,31.0797186 L42.5838218,31.6705744 C43.1465416,31.9624853 43.3681125,32.6588511 43.0762016,33.2215709 L41.5252052,36.2039859 L41.5252052,36.2039859 Z M42.031653,32.943728 C42.133646,32.7467761 42.056272,32.5041032 41.85932,32.4021102 L41.2297773,32.0750293 C41.0328253,31.9730363 40.7901524,32.0504103 40.6881594,32.2473623 L39.3411489,34.8429074 C39.2391559,35.0398593 39.3165299,35.2825322 39.5134818,35.3845252 L40.1430246,35.7116061 C40.3399766,35.8135991 40.5826495,35.7362251 40.6846424,35.5392732 L42.031653,32.943728 L42.031653,32.943728 Z M19.6916764,33.133646 C19.8956624,33.7350528 19.5720985,34.3892145 18.9706917,34.5932005 L17.7538101,35.0046893 C17.1524033,35.2086753 16.4982415,34.8851114 16.2942556,34.2837046 L15.2180539,31.1008206 C15.014068,30.4994138 15.3376319,29.8452521 15.9390387,29.6412661 L17.1559203,29.2297773 C17.7573271,29.0257913 18.4114889,29.3493552 18.6154748,29.950762 L19.6916764,33.133646 L19.6916764,33.133646 Z M17.6940211,30.5099648 C17.6236811,30.2989449 17.3950762,30.1864009 17.1840563,30.2567409 L16.5123095,30.4818288 C16.3012896,30.5521688 16.1887456,30.7807737 16.2590856,30.9917937 L17.1946073,33.7631887 C17.2649472,33.9742087 17.4935522,34.0867526 17.7045721,34.0164127 L18.3763189,33.7913247 C18.5873388,33.7209848 18.6998828,33.4923798 18.6295428,33.2813599 L17.6940211,30.5099648 L17.6940211,30.5099648 Z M24.3376319,33.4818288 L23.3423212,33.6330598 L22.2415006,32.0609613 L21.7139508,32.1559203 L22.0058617,33.8194607 L21.010551,33.9953107 L20.1172333,28.4173505 L22.3716295,28.0339977 C22.9589683,27.9355217 23.5146542,28.3294256 23.6131301,28.9167644 L23.950762,30.9214537 C24.010551,31.3645955 23.5357562,31.8815944 23.1981243,31.9237984 L24.3376319,33.4818288 L24.3376319,33.4818288 Z M22.9026964,30.6014068 L22.6776084,29.3212192 C22.6424385,29.1242673 22.4595545,28.9941383 22.2626026,29.0222743 L21.2461899,29.1805393 L21.5627198,31.2203986 L22.6107855,31.0269637 C22.8077374,30.9917937 22.9378664,30.8018757 22.9026964,30.6014068 L22.9026964,30.6014068 Z M30.6858148,27.8722157 L29.7362251,33.4642438 L30.7385698,33.6225088 L31.2661196,30.4572098 L32.4443142,33.8862837 L33.2356389,34.0621336 L34.1676436,28.5052755 L33.2004689,28.2942556 L32.6729191,31.4419695 L31.4771395,27.9953107 L30.6858148,27.8722157 L30.6858148,27.8722157 Z M17.3036342,41.2192263 L17.3036342,39.003517 L18.1652989,40.9273154 L19.0269637,39.003517 L19.0269637,41.2543962 L19.9765533,41.2543962 L19.9765533,36.3305979 L19.2485346,36.3305979 L18.147714,38.7502931 L17.0926143,36.3305979 L16.3188746,36.3305979 L16.3188746,41.2192263 L17.3036342,41.2192263 L17.3036342,41.2192263 Z M25.0058617,41.2192263 L23.985932,41.2192263 L23.7995311,40.3048066 L22.4736225,40.3048066 L22.2626026,41.2192263 L21.2497069,41.2227433 L22.4736225,36.2954279 L23.7749121,36.2954279 L25.0058617,41.2192263 L25.0058617,41.2192263 Z M23.5990621,39.3552169 L23.1242673,37.3434936 L22.6494725,39.3552169 L23.5990621,39.3552169 L23.5990621,39.3552169 Z M28.6987104,47.6553341 L27.6787808,47.6553341 L27.4220399,46.7409144 L26.0961313,46.7409144 L25.8147714,47.6553341 L24.8018757,47.6588511 L26.0961313,42.7315358 L27.3974209,42.7315358 L28.6987104,47.6553341 L28.6987104,47.6553341 Z M27.2215709,45.7913247 L26.7467761,43.7796014 L26.2719812,45.7913247 L27.2215709,45.7913247 L27.2215709,45.7913247 Z M29.3669402,37.3223916 L29.3669402,38.7889801 C29.3669402,39.3552169 28.9062134,39.8159437 28.3399766,39.8159437 L27.2215709,39.8159437 L27.2215709,41.2227433 L26.2368113,41.2227433 L26.2368113,36.2989449 L28.3399766,36.2989449 C28.9062134,36.2954279 29.3669402,36.7561547 29.3669402,37.3223916 L29.3669402,37.3223916 Z M28.3821805,37.5439625 C28.3821805,37.3786635 28.2379836,37.2450176 28.0726846,37.2450176 L27.1864009,37.2450176 L27.1864009,38.862837 L28.0726846,38.862837 C28.2379836,38.862837 28.3821805,38.7397421 28.3821805,38.5744431 L28.3821805,37.5439625 L28.3821805,37.5439625 Z M30.8089097,36.2954279 L30.8089097,41.2543962 L33.5521688,41.2543962 L33.5521688,40.3048066 L31.7584994,40.3048066 L31.7584994,36.2954279 L30.8089097,36.2954279 L30.8089097,36.2954279 Z M16.3892145,42.7667057 L16.3892145,47.7256741 L19.2028136,47.7256741 L19.2028136,46.7760844 L17.3388042,46.7760844 L17.3388042,42.7667057 L16.3892145,42.7667057 L16.3892145,42.7667057 Z M34.7831184,36.2954279 L34.7831184,41.2543962 L37.6318875,41.2543962 L37.6318875,40.3048066 L35.7678781,40.3048066 L35.7678781,39.2497069 L37.0339977,39.2497069 L37.0339977,38.3001172 L35.7678781,38.3001172 L35.7678781,37.2450176 L37.6318875,37.2450176 L37.6318875,36.2954279 L34.7831184,36.2954279 L34.7831184,36.2954279 Z M20.4689332,42.7315358 L20.4689332,47.6905041 L23.5990621,47.6905041 L23.5990621,46.7409144 L21.4536928,46.7409144 L21.4536928,45.6858148 L23.0011723,45.6858148 L23.0011723,44.7362251 L21.4536928,44.7362251 L21.4536928,43.6811254 L23.5990621,43.6811254 L23.5990621,42.7315358 L20.4689332,42.7315358 L20.4689332,42.7315358 Z M30.9144197,47.6905041 L30.9144197,45.6858148 L32.4618992,45.6858148 L32.4618992,44.7362251 L30.9144197,44.7362251 L30.9144197,43.6811254 L33.059789,43.6811254 L33.059789,42.7315358 L29.92966,42.7315358 L29.92966,47.6905041 L30.9144197,47.6905041 L30.9144197,47.6905041 Z M37.1887456,45.130129 L35.4021102,44.3177022 C35.3036342,44.2719812 35.2403283,44.1735053 35.2403283,44.0679953 L35.2403283,44.0117233 C35.2403283,43.8288394 35.3880422,43.6811254 35.5709261,43.6811254 L36.3552169,43.6811254 C36.5381008,43.6811254 36.6858148,43.8288394 36.6858148,44.0117233 L36.6858148,44.1735053 L37.6354045,44.1735053 L37.6354045,43.8007034 C37.6354045,43.2098476 37.1570926,42.7315358 36.5662368,42.7315358 L35.3282532,42.7315358 C34.7373974,42.7315358 34.2590856,43.2098476 34.2590856,43.8007034 L34.2590856,44.2473623 C34.2590856,44.6483001 34.4982415,45.014068 34.8675264,45.1723329 L36.5486518,45.8933177 C36.6330598,45.9284877 36.6858148,46.0128957 36.6858148,46.1008206 L36.6858148,46.5087925 C36.6858148,46.6354045 36.5838218,46.7373974 36.4572098,46.7373974 L35.5041032,46.7373974 C35.3774912,46.7373974 35.2754982,46.6354045 35.2754982,46.5087925 L35.2754982,46.2450176 L34.2555686,46.2450176 L34.2555686,46.6705744 C34.2555686,47.2297773 34.7092614,47.6869871 35.2719812,47.6869871 L36.6189918,47.6869871 C37.1781946,47.6869871 37.6354045,47.2332943 37.6354045,46.6705744 L37.6354045,45.8194607 C37.6318875,45.5240328 37.4595545,45.2532239 37.1887456,45.130129 L37.1887456,45.130129 Z" id="White_Text" fill="#FFFFFF"></path>
                </g>
            </g>
        </g>
    </g>
</svg>