<?xml version="1.0" encoding="UTF-8" standalone="no"?>
<svg width="30px" height="30px" viewBox="0 0 30 30" version="1.1" xmlns="http://www.w3.org/2000/svg" xmlns:xlink="http://www.w3.org/1999/xlink">
    <!-- Generator: Sketch 41 (35326) - http://www.bohemiancoding.com/sketch -->
    <title>oilers</title>
    <desc>Created with Sketch.</desc>
    <defs></defs>
    <g id="Page-1" stroke="none" stroke-width="1" fill="none" fill-rule="evenodd">
        <g id="oilers">
            <g id="Page-1">
                <g>
                    <g id="oilers">
                        <g id="Page-1">
                            <g id="Artboard">
                                <g id="oilers">
                                    <path d="M14.9976174,0.427998969 C6.96382155,0.427998969 0.428401238,6.96382155 0.428401238,14.9972305 C0.428401238,23.0313976 6.96382155,29.5668798 14.9976174,29.5668798 C23.0310417,29.5668798 29.5668643,23.0314595 29.5668643,14.9972305 C29.5668643,6.96382155 23.0310109,0.427998969 14.9976174,0.427998969 L14.9976174,0.427998969 L14.9976174,0.427998969 Z M17.3471016,6.1997731 C17.3471016,7.32470345 16.4178752,8.4194791 14.9976173,8.4194791 C13.5769726,8.4194791 12.6481485,7.32470345 12.6481485,6.1997731 C12.6481485,4.55373388 14.07574,3.67454358 14.9976173,1.37673543 C15.91951,3.67454358 17.3471016,4.55373388 17.3471016,6.1997731 L17.3471016,6.1997731 L17.3471016,6.1997731 Z M14.9976174,28.8931253 C7.3234657,28.8931253 1.10254255,22.6722022 1.10254255,14.997215 C1.10254255,7.59603405 6.8902063,1.54598246 14.1868437,1.12652398 L12.5769624,3.66642083 C11.8898246,4.75143373 11.773445,5.65705005 11.773445,6.15382155 C11.773445,8.06555955 13.468329,9.32633315 14.9976174,9.32633315 C16.5273388,9.32633315 18.2218206,8.0655441 18.2218206,6.15382155 C18.2218206,5.6570655 18.1054564,4.75143373 17.4183033,3.66642083 L15.8088705,1.12652398 C23.1054771,1.54598246 28.8931563,7.59603405 28.8931563,14.997215 C28.8931563,22.6722022 22.6717999,28.8931253 14.9976174,28.8931253 L14.9976174,28.8931253 L14.9976174,28.8931253 Z" id="path3" fill="#FFFFFF"></path>
                                    <path d="M18.2498865,2.79089737 C18.7836513,3.5337803 19.4760805,4.60499226 19.4760805,6.1045745 C19.4760805,8.43818465 17.5029499,10.6180506 14.9976173,10.6180506 C12.4923157,10.6180506 10.5191542,8.43816915 10.5191542,6.1045745 C10.5191542,4.60499226 11.212001,3.5337803 11.7457658,2.79089737 C6.34623,4.22540485 2.36736978,9.14695205 2.36736978,14.9972614 C2.36736978,21.9728571 8.0223775,27.6278649 14.9975864,27.6278649 C21.9731975,27.6278649 27.6278494,21.9728571 27.6278494,14.9972614 C27.6278494,9.1469056 23.6490356,4.22540485 18.2498865,2.79089737 L18.2498865,2.79089737 L18.2498865,2.79089737 Z M6.99392985,23.5070191 C5.59807115,21.9008355 4.70384218,19.9695564 4.53176379,17.559871 L4.53176379,12.8556421 C4.53176379,12.171738 4.79620938,11.2653171 5.78155235,11.2653171 L6.7355802,11.2653171 C7.212393,11.2653171 7.9918979,11.4085095 7.9918979,12.457705 L7.9918979,22.9508355 C7.9918979,23.8096957 7.4528262,24.035508 6.99392985,23.5070191 L6.99392985,23.5070191 L6.99392985,23.5070191 Z M9.4711501,25.7153069 C8.70102115,25.275147 8.01711705,24.7254461 7.40848375,24.0611449 C7.40848375,24.0611449 7.63632285,24.1416761 7.8918102,23.9911656 C8.16276945,23.8312635 8.2563435,23.4594275 8.2563435,23.2527386 L8.2563435,18.4569624 C8.51914905,18.4569624 8.72299125,18.1652553 8.72299125,17.9093192 L8.72299125,13.7136204 C8.72299125,13.3291284 8.49515215,13.1574677 8.26203715,13.1574677 L8.26203715,11.2815472 L10.2331563,11.2815472 L10.2331563,13.1574677 C10.01508,13.1574677 9.7717999,13.3804332 9.7717999,13.7136204 L9.7717999,17.8999432 C9.7717999,18.1985817 9.94471375,18.4569004 10.1538318,18.4569004 L10.1538318,25.1920629 C10.1538318,25.6376225 9.80475505,25.9057349 9.4711501,25.7153069 L9.4711501,25.7153069 L9.4711501,25.7153069 Z M12.8389479,26.9972614 C11.7408922,26.8255699 10.8613151,26.456983 9.92314595,25.9537287 C9.92314595,25.9537287 10.3922073,25.8683084 10.3922073,25.3834038 L10.3922073,18.4569778 C10.6570397,18.4569778 10.9325167,18.2055441 10.9325167,17.9000051 L10.9325167,13.7136668 C10.9325167,13.3458845 10.7050954,13.1575452 10.4874059,13.1575452 L10.4874059,11.2816246 L12.6180093,11.2816246 L12.6180093,13.1575452 C12.3877411,13.1575452 11.9979886,13.3459154 11.9979886,13.7136668 C11.9979886,13.8886385 11.9951418,17.683182 11.9979886,17.8422796 C12.0041155,18.2140846 12.0166941,18.461867 12.4084735,18.461867 C12.7901032,18.461867 12.8405415,18.2848995 12.8405415,17.8739969 L12.8405415,16.5119134 L13.7466065,16.5119134 L13.7466065,26.2255544 C13.7466065,26.7507323 13.3479113,27.0766014 12.8389479,26.9972614 L12.8389479,26.9972614 L12.8389479,26.9972614 Z M16.4825632,27.0928932 C15.9471738,27.18 15.4837906,27.2011037 14.9707736,27.2011037 C14.5216246,27.2011037 13.8738938,27.1746468 13.4418876,27.1234193 C13.4418876,27.1234193 13.9813461,26.9932388 13.9813461,26.2694636 L13.9813461,18.4570397 C14.2079474,18.4570397 14.3308097,18.2190046 14.3308097,17.9000516 C14.3308097,17.9000516 14.342197,13.9996957 14.3308097,13.7137287 C14.3308097,13.3829552 14.1098866,13.157576 13.5679835,13.157576 L13.5679835,11.2938628 L17.4947963,11.2938628 L17.4947963,14.3459721 L16.4968128,14.3459721 L16.4968128,13.7300052 C16.4968128,13.4598659 16.449608,13.1417329 16.0997422,13.1417329 C15.6700722,13.1417329 15.6025684,13.4236926 15.6025684,13.7894172 C15.6025684,13.8435225 15.6025684,14.2682569 15.6021815,14.7475142 L16.5924291,14.7475142 L16.5924291,16.1148736 L15.6018102,16.1148736 C15.6018102,16.8296751 15.6018102,17.7560546 15.6026148,17.8211449 C15.6091439,18.2210779 15.6209644,18.4851212 16.0139505,18.4851212 C16.395147,18.4851212 16.4451676,18.2995978 16.4456009,17.8211449 C16.4459721,17.216983 16.4456009,16.5237648 16.4456009,16.5237648 L17.4789221,16.5237648 L17.4789221,26.0152759 C17.4789221,26.6034554 17.0448118,27.0013306 16.4825632,27.0928932 L16.4825632,27.0928932 L16.4825632,27.0928932 Z M21.966328,23.5709025 C21.9504848,24.3658484 21.8935173,24.5961166 21.7181743,24.7551831 C21.194559,25.2311913 20.8125735,25.4761423 20.1481794,25.8593502 C20.1819236,25.8320732 20.2779577,25.6856163 20.2649149,24.9219855 L20.2649149,16.4797318 C20.2649149,16.1147963 20.1111552,15.8605312 19.8381691,15.8605312 C19.5045488,15.8605312 19.4146415,16.1464827 19.4146415,16.4166219 L19.4146415,17.8999587 C19.4146415,18.2335792 19.7372769,18.4699587 20.0021557,18.4699587 C20.0021557,18.597277 20.0025271,24.9699793 20.0025271,25.1123826 C20.0025271,25.6058741 19.8735534,26.0375091 19.5399793,26.1802836 C18.9105673,26.4504383 18.0489066,26.7681691 17.3678649,26.9264311 C17.3678649,26.9264311 17.7368695,26.6868179 17.7291335,25.637576 C17.7275245,25.4150438 17.7291335,18.7111656 17.7291335,18.4569314 C17.9809695,18.4569314 18.2376792,18.2189273 18.2376792,17.8999587 L18.2376792,13.7299123 C18.2376792,13.401181 17.9541413,13.1574832 17.7767251,13.1574832 L17.7767251,11.2815626 L20.5749407,11.2815626 C21.146952,11.3446261 21.5525786,11.5508819 21.5525786,12.3783961 L21.5525786,14.1273698 C21.5525786,14.3340433 21.6164621,14.8743218 21.3459051,15.0968695 C21.0757658,15.3198195 21.1233883,15.303543 21.1233883,15.303543 C21.1233883,15.303543 21.5208303,15.4943424 21.5208303,15.9556524 L21.5208303,17.8950541 C21.5208303,18.2054667 21.6986333,18.4569004 21.966328,18.4569004 L21.966328,23.5709025 L21.966328,23.5709025 L21.966328,23.5709025 L21.966328,23.5709025 Z M23.365018,13.6184528 L23.365018,14.5883548 C23.365018,14.7474213 23.4638989,14.8442599 23.6038576,14.9536927 C23.8259876,15.1290356 24.9708612,16.0509128 24.9708612,16.0509128 C25.0977927,16.1941516 25.3842084,16.3373595 25.3842084,16.877638 C25.3842084,17.3231202 25.4558278,18.7661836 24.8276225,20.2641568 C24.2076482,21.7430067 23.4923826,22.9024549 22.2047808,24.3337132 L22.2047808,16.5757504 L23.2539918,16.5757504 L23.2539918,18.0696854 C23.2698349,18.626658 24.1437184,18.5627437 24.1437184,18.1498453 L24.1437184,17.1006343 C24.1437184,16.9252759 24.1437184,16.8777153 24.0489531,16.7979577 C23.9529809,16.7186179 22.5700877,15.6062971 22.459015,15.5265859 C22.3475555,15.4472769 22.2836874,15.3199278 22.2836874,15.0017638 L22.2836874,12.0766014 C22.2999639,11.6949716 22.498886,11.28164 23.1026611,11.28164 L24.5811088,11.28164 C25.1539247,11.3447035 25.4639814,11.5355029 25.4639814,12.2511243 L25.4639814,14.3817277 L24.239412,14.3817277 L24.239412,13.6339557 C24.2392573,13.0142909 23.365018,12.9976122 23.365018,13.6184528 L23.365018,13.6184528 L23.365018,13.6184528 Z" id="path5" fill="#FFFFFF"></path>
                                    <path d="M5.73436305,13.6554616 L5.73436305,17.9902836 C5.73436305,18.6913151 6.719737,18.659149 6.719737,17.9585508 L6.719737,13.6237442 C6.6761836,12.9557297 5.73436305,12.9874471 5.73436305,13.6554616 L5.73436305,13.6554616 L5.73436305,13.6554616 Z" id="path7" fill="#FFFFFF"></path>
                                    <path d="M19.4704177,13.6212996 L19.4704177,14.4073337 C19.4704177,14.9671377 20.2584631,14.9414699 20.2584631,14.3816967 C20.2584631,13.8727334 20.2800619,13.9264518 20.2584631,13.5964982 C20.2201856,13.0110418 19.4704177,13.036261 19.4704177,13.6212996 L19.4704177,13.6212996 L19.4704177,13.6212996 Z" id="path9" fill="#FFFFFF"></path>
                                    <path d="M14.9976174,1.37673543 C14.0757246,3.67454358 12.6481486,4.55373388 12.6481486,6.1997731 C12.6481486,7.32470345 13.5769417,8.4194791 14.9976174,8.4194791 C16.4178907,8.4194791 17.3471016,7.32470345 17.3471016,6.1997731 C17.3471016,4.55373388 15.91951,3.67454358 14.9976174,1.37673543 L14.9976174,1.37673543 L14.9976174,1.37673543 Z" id="path11" fill="#E56B1F"></path>
                                    <path d="M14.9976174,0 C6.728262,0 0,6.72745745 0,14.997215 C0,23.2669726 6.728262,29.9952347 14.9976174,29.9952347 C23.2674059,29.9952347 29.9952347,23.2669726 29.9952347,14.997215 C29.9952347,6.72745745 23.2674368,0 14.9976174,0 L14.9976174,0 L14.9976174,0 Z M14.9976174,29.5668643 C6.96382155,29.5668643 0.428401238,23.0314286 0.428401238,14.997215 C0.428401238,6.96377515 6.96382155,0.427983496 14.9976174,0.427983496 C23.0310417,0.427983496 29.5668643,6.9638061 29.5668643,14.997215 C29.5668643,23.0314286 23.0310109,29.5668643 14.9976174,29.5668643 L14.9976174,29.5668643 L14.9976174,29.5668643 Z" id="path13" fill="#FFFFFF"></path>
                                    <path d="M15.8088396,1.12652398 L17.4182723,3.66642083 C18.1054255,4.75143373 18.2217896,5.65705005 18.2217896,6.15382155 C18.2217896,8.06555955 16.5272924,9.32633315 14.9975864,9.32633315 C13.4682981,9.32633315 11.7734142,8.0655441 11.7734142,6.15382155 C11.7734142,5.6570655 11.8897783,4.75143373 12.5769314,3.66642083 L14.1868128,1.12652398 C6.8901908,1.54598247 1.10252708,7.5960495 1.10252708,14.997215 C1.10252708,22.6722022 7.3234657,28.8931253 14.9976019,28.8931253 C22.671769,28.8931253 28.8931098,22.6722022 28.8931098,14.997215 C28.8931253,7.5960495 23.1054925,1.54598247 15.8088396,1.12652398 L15.8088396,1.12652398 L15.8088396,1.12652398 Z M14.9976174,27.6278649 C8.02240845,27.6278649 2.36740072,21.9728572 2.36740072,14.9972614 C2.36740072,9.14695205 6.34626095,4.22543579 11.7457968,2.79089737 C11.212032,3.5337803 10.5191852,4.60499226 10.5191852,6.1045745 C10.5191852,8.43818465 12.4923466,10.6180505 14.9976482,10.6180505 C17.5029655,10.6180505 19.4761114,8.43816915 19.4761114,6.1045745 C19.4761114,4.60499226 18.7836823,3.5337803 18.2499175,2.79089737 C23.6490665,4.22540485 27.6279113,9.14695205 27.6279113,14.9972614 C27.6279113,21.9728572 21.9732284,27.6278649 14.9976174,27.6278649 L14.9976174,27.6278649 L14.9976174,27.6278649 Z" id="path15" fill="#003876"></path>
                                    <path d="M10.1538318,25.1921403 L10.1538318,18.4569778 C9.94468285,18.4569778 9.7717999,18.1986591 9.7717999,17.9000051 L9.7717999,13.7136668 C9.7717999,13.3804951 10.0151263,13.1575452 10.2331563,13.1575452 L10.2331563,11.2816246 L8.26203715,11.2816246 L8.26203715,13.1575452 C8.49515215,13.1575452 8.72299125,13.3292367 8.72299125,13.7136668 L8.72299125,17.9093966 C8.72299125,18.1653017 8.5191645,18.4570242 8.2563435,18.4570242 L8.2563435,23.2528314 C8.2563435,23.4594739 8.16276945,23.8313564 7.8918102,23.9912584 C7.6362919,24.1417844 7.40848375,24.0612378 7.40848375,24.0612378 C8.01711705,24.7255699 8.70102115,25.2752398 9.4711501,25.7153997 C9.80475505,25.9057349 10.1538318,25.6376225 10.1538318,25.1921403 L10.1538318,25.1921403 L10.1538318,25.1921403 Z" id="path17" fill="#003876"></path>
                                    <path d="M13.7466065,26.225508 L13.7466065,16.511867 L12.8405415,16.511867 L12.8405415,17.8739505 C12.8405415,18.2848995 12.7901032,18.4618205 12.4084735,18.4618205 C12.0166941,18.4618205 12.0040846,18.2140691 11.9979886,17.8422331 C11.9951418,17.6831511 11.9979886,13.888592 11.9979886,13.7136513 C11.9979886,13.345869 12.3877411,13.1574987 12.6180093,13.1574987 L12.6180093,11.2815781 L10.4874368,11.2815781 L10.4874368,13.1574987 C10.7050954,13.1574987 10.9325322,13.345869 10.9325322,13.7136513 L10.9325322,17.8999742 C10.9325322,18.2055132 10.6570706,18.4569624 10.3922538,18.4569624 L10.3922538,25.3833574 C10.3922538,25.868293 9.9231769,25.9536978 9.9231769,25.9536978 C10.861346,26.4569366 11.7409077,26.8255699 12.8389789,26.9972151 C13.3479113,27.0766014 13.7466065,26.7507323 13.7466065,26.225508 L13.7466065,26.225508 L13.7466065,26.225508 Z" id="path19" fill="#003876"></path>
                                    <path d="M17.4789221,16.5236565 L16.4455854,16.5236565 C16.4455854,16.5236565 16.4459721,17.2169365 16.4455854,17.8210521 C16.4451676,18.2995049 16.3951005,18.4850284 16.0139505,18.4850284 C15.6209644,18.4850284 15.6091439,18.220985 15.6026148,17.8210521 C15.6018102,17.7559618 15.6018102,16.8295823 15.6018102,16.1147808 L16.5924291,16.1147808 L16.5924291,14.7474213 L15.6021815,14.7474213 C15.6025529,14.268164 15.6025529,13.8434296 15.6025529,13.7893244 C15.6025529,13.4235689 15.6700722,13.1416245 16.0997422,13.1416245 C16.449608,13.1416245 16.4968128,13.4597731 16.4968128,13.7299123 L16.4968128,14.3458639 L17.4947963,14.3458639 L17.4947963,11.29377 L13.5679835,11.29377 L13.5679835,13.1574833 C14.1098556,13.1574833 14.3308097,13.3828314 14.3308097,13.7136359 C14.342197,13.9996029 14.3308097,17.8999432 14.3308097,17.8999432 C14.3308097,18.2189118 14.2079628,18.4569159 13.9813461,18.4569159 L13.9813461,26.2693708 C13.9813461,26.9931459 13.4418876,27.1233265 13.4418876,27.1233265 C13.8739402,27.1745848 14.5216246,27.2010108 14.9707736,27.2010108 C15.4837906,27.2010108 15.9471429,27.1798762 16.4825632,27.0928004 C17.0448118,27.0012378 17.4788912,26.6033625 17.4788912,26.0151057 L17.4788912,16.5236565 L17.4788912,16.5236565 L17.4789221,16.5236565 L17.4789221,16.5236565 Z" id="path21" fill="#003876"></path>
                                    <path d="M25.4638886,14.3816658 L25.4638886,12.2510624 C25.4638886,11.5354409 25.1538938,11.3446416 24.581016,11.2815781 L23.1026302,11.2815781 C22.498886,11.2815781 22.2999175,11.6949098 22.2836565,12.0765395 L22.2836565,15.0017019 C22.2836565,15.3198505 22.34754,15.4472151 22.458984,15.526524 C22.5700722,15.6062197 23.9529345,16.7185559 24.0489376,16.7978958 C24.143703,16.8776225 24.143703,16.9252141 24.143703,17.1005725 L24.143703,18.1497988 C24.143703,18.5627127 23.2698349,18.6265962 23.2539453,18.0696235 L23.2539453,16.575704 L22.2047344,16.575704 L22.2047344,24.3336669 C23.4923826,22.9024084 24.2076018,21.7429448 24.827607,20.2640949 C25.4557813,18.7661526 25.3841619,17.3230737 25.3841619,16.8775916 C25.3841619,16.3372976 25.0977463,16.1941052 24.9708149,16.0508665 C24.9708149,16.0508665 23.8259876,15.1289892 23.6038422,14.9536462 C23.4638525,14.8442135 23.3649871,14.7473749 23.3649871,14.5883084 L23.3649871,13.6184064 C23.3649871,12.9975812 24.2392883,13.0142599 24.2392883,13.6338628 L24.2392883,14.3816348 L25.4638886,14.3816658 L25.4638886,14.3816658 L25.4638886,14.3816658 L25.4638886,14.3816658 Z" id="path23" fill="#003876"></path>
                                    <path d="M7.9918979,22.9508664 L7.9918979,12.457736 C7.9918979,11.4085405 7.212393,11.2653481 6.7355802,11.2653481 L5.78155235,11.2653481 C4.79619391,11.2653481 4.53176379,12.171769 4.53176379,12.8556731 L4.53176379,17.559902 C4.70384219,19.9695874 5.59807115,21.9008355 6.99392985,23.5070501 C7.4528262,24.035508 7.9918979,23.8096957 7.9918979,22.9508664 L7.9918979,22.9508664 L7.9918979,22.9508664 Z M6.7197215,17.9585663 C6.7197215,18.6591645 5.7343476,18.6912842 5.7343476,17.9903301 L5.7343476,13.6554771 C5.7343476,12.9874626 6.6761836,12.9557297 6.7197215,13.6237597 L6.7197215,17.9585663 L6.7197215,17.9585663 L6.7197215,17.9585663 Z" id="path25" fill="#003876"></path>
                                    <path d="M21.5208303,17.8951005 L21.5208303,15.9557143 C21.5208303,15.4943734 21.1233883,15.303574 21.1233883,15.303574 C21.1233883,15.303574 21.0757658,15.3198505 21.3459051,15.0969004 C21.6164621,14.8743527 21.5525787,14.3340743 21.5525787,14.1274007 L21.5525787,12.378427 C21.5525787,11.5509593 21.1469211,11.344688 20.5749407,11.2815936 L17.7767251,11.2815936 L17.7767251,13.1575142 C17.9541259,13.1575142 18.2376792,13.4011965 18.2376792,13.7299432 L18.2376792,17.9000051 C18.2376792,18.2189583 17.9809696,18.4569933 17.7291181,18.4569933 C17.7291181,18.7112429 17.727509,25.4151212 17.7291181,25.637607 C17.7368541,26.6868334 17.3678649,26.9264621 17.3678649,26.9264621 C18.0489066,26.7682001 18.9105673,26.4504693 19.5399793,26.1803146 C19.8735998,26.0375245 20.0025271,25.6058741 20.0025271,25.1124291 C20.0025271,24.9700258 20.0021558,18.5972924 20.0021558,18.4699742 C19.7372769,18.4699742 19.4146415,18.233641 19.4146415,17.9000051 L19.4146415,16.4166684 C19.4146415,16.1465291 19.5045642,15.8605466 19.8381691,15.8605466 C20.1111707,15.8605466 20.2649149,16.1148118 20.2649149,16.4797473 L20.2649149,24.9219701 C20.2779577,25.6856009 20.1819237,25.8320578 20.1481795,25.8593347 C20.8125116,25.476096 21.194559,25.2311604 21.7181743,24.7551676 C21.8935173,24.5961321 21.9504848,24.3658484 21.966328,23.570887 L21.966328,18.4569933 C21.6986333,18.4569778 21.5208303,18.2055596 21.5208303,17.8951005 L21.5208303,17.8951005 L21.5208303,17.8951005 Z M20.2584167,14.3816658 C20.2584167,14.9414699 19.4703714,14.9671067 19.4703714,14.4073027 L19.4703714,13.6212687 C19.4703714,13.03623 20.2201857,13.0110418 20.2584167,13.5964518 C20.2800155,13.9264208 20.2584167,13.8727179 20.2584167,14.3816658 L20.2584167,14.3816658 L20.2584167,14.3816658 Z" id="path27" fill="#003876"></path>
                                </g>
                            </g>
                        </g>
                    </g>
                </g>
            </g>
        </g>
    </g>
</svg>