<?xml version="1.0" encoding="UTF-8" standalone="no"?>
<svg width="60px" height="60px" viewBox="0 0 60 60" version="1.1" xmlns="http://www.w3.org/2000/svg" xmlns:xlink="http://www.w3.org/1999/xlink">
    <!-- Generator: Sketch 40.3 (33839) - http://www.bohemiancoding.com/sketch -->
    <title>Artboard</title>
    <desc>Created with Sketch.</desc>
    <defs></defs>
    <g id="Page-1" stroke="none" stroke-width="1" fill="none" fill-rule="evenodd">
        <g id="Artboard">
            <g id="oilers">
                <path d="M29.9952347,0.855997937 C13.9276431,0.855997937 0.856802476,13.9276431 0.856802476,29.9944611 C0.856802476,46.0627953 13.9276431,59.1337597 29.9952347,59.1337597 C46.0620835,59.1337597 59.1337287,46.062919 59.1337287,29.9944611 C59.1337287,13.9276431 46.0620217,0.855997937 29.9952347,0.855997937 L29.9952347,0.855997937 Z M34.6942032,12.3995462 C34.6942032,14.6494069 32.8357504,16.8389582 29.9952347,16.8389582 C27.1539453,16.8389582 25.2962971,14.6494069 25.2962971,12.3995462 C25.2962971,9.10746777 28.1514801,7.34908716 29.9952347,2.75347086 C31.8390201,7.34908716 34.6942032,9.10746777 34.6942032,12.3995462 L34.6942032,12.3995462 Z M29.9952347,57.7862506 C14.6469314,57.7862506 2.2050851,45.3444043 2.2050851,29.9944301 C2.2050851,15.1920681 13.7804126,3.09196493 28.3736875,2.25304796 L25.1539247,7.33284167 C23.7796493,9.50286746 23.5468901,11.3141001 23.5468901,12.3076431 C23.5468901,16.1311191 26.9366581,18.6526663 29.9952347,18.6526663 C33.0546777,18.6526663 36.4436411,16.1310882 36.4436411,12.3076431 C36.4436411,11.314131 36.2109128,9.50286746 34.8366065,7.33284167 L31.6177411,2.25304796 C46.2109541,3.09196493 57.7863125,15.1920681 57.7863125,29.9944301 C57.7863125,45.3444043 45.3435998,57.7862506 29.9952347,57.7862506 L29.9952347,57.7862506 Z" id="path3" fill="#FFFFFF"></path>
                <path d="M36.4997731,5.58179474 C37.5673027,7.0675606 38.9521609,9.20998453 38.9521609,12.209149 C38.9521609,16.8763693 35.0058999,21.2361011 29.9952347,21.2361011 C24.9846313,21.2361011 21.0383084,16.8763383 21.0383084,12.209149 C21.0383084,9.20998453 22.4240021,7.0675606 23.4915317,5.58179474 C12.69246,8.4508097 4.73473956,18.2939041 4.73473956,29.9945229 C4.73473956,43.9457143 16.044755,55.2557298 29.9951728,55.2557298 C43.946395,55.2557298 55.2556988,43.9457143 55.2556988,29.9945229 C55.2556988,18.2938112 47.2980712,8.4508097 36.4997731,5.58179474 L36.4997731,5.58179474 Z M13.9878597,47.0140382 C11.1961423,43.801671 9.40768437,39.9391129 9.06352759,35.1197421 L9.06352759,25.7112842 C9.06352759,24.343476 9.59241877,22.5306343 11.5631047,22.5306343 L13.4711604,22.5306343 C14.424786,22.5306343 15.9837958,22.8170191 15.9837958,24.91541 L15.9837958,45.901671 C15.9837958,47.6193914 14.9056524,48.071016 13.9878597,47.0140382 L13.9878597,47.0140382 Z M18.9423002,51.4306137 C17.4020423,50.550294 16.0342341,49.4508922 14.8169675,48.1222898 C14.8169675,48.1222898 15.2726457,48.2833522 15.7836204,47.9823311 C16.3255389,47.6625271 16.512687,46.9188551 16.512687,46.5054771 L16.512687,36.9139247 C17.0382981,36.9139247 17.4459825,36.3305106 17.4459825,35.8186385 L17.4459825,27.4272408 C17.4459825,26.6582568 16.9903043,26.3149355 16.5240743,26.3149355 L16.5240743,22.5630944 L20.4663125,22.5630944 L20.4663125,26.3149355 C20.0301599,26.3149355 19.5435998,26.7608664 19.5435998,27.4272408 L19.5435998,35.7998865 C19.5435998,36.3971635 19.8894275,36.9138009 20.3076637,36.9138009 L20.3076637,50.3841258 C20.3076637,51.275245 19.6095101,51.8114698 18.9423002,51.4306137 L18.9423002,51.4306137 Z M25.6778958,53.9945229 C23.4817844,53.6511398 21.7226302,52.913966 19.8462919,51.9074575 C19.8462919,51.9074575 20.7844146,51.7366168 20.7844146,50.7668076 L20.7844146,36.9139556 C21.3140794,36.9139556 21.8650335,36.4110882 21.8650335,35.8000103 L21.8650335,27.4273337 C21.8650335,26.691769 21.4101908,26.3150903 20.9748118,26.3150903 L20.9748118,22.5632491 L25.2360186,22.5632491 L25.2360186,26.3150903 C24.7754822,26.3150903 23.9959773,26.6918308 23.9959773,27.4273337 C23.9959773,27.7772769 23.9902837,35.3663641 23.9959773,35.6845591 C24.008231,36.4281692 24.0333883,36.9237339 24.8169469,36.9237339 C25.5802063,36.9237339 25.681083,36.5697989 25.681083,35.7479938 L25.681083,33.0238267 L27.493213,33.0238267 L27.493213,52.4511088 C27.493213,53.5014647 26.6958226,54.1532027 25.6778958,53.9945229 L25.6778958,53.9945229 Z M32.9651264,54.1857865 C31.8943476,54.36 30.9675812,54.4022073 29.9415472,54.4022073 C29.0432491,54.4022073 27.7477875,54.3492935 26.8837751,54.2468386 C26.8837751,54.2468386 27.9626921,53.9864776 27.9626921,52.5389273 L27.9626921,36.9140794 C28.4158948,36.9140794 28.6616194,36.4380093 28.6616194,35.8001031 C28.6616194,35.8001031 28.684394,27.9993914 28.6616194,27.4274575 C28.6616194,26.7659103 28.2197731,26.3151521 27.135967,26.3151521 L27.135967,22.5877256 L34.9895926,22.5877256 L34.9895926,28.6919443 L32.9936256,28.6919443 L32.9936256,27.4600103 C32.9936256,26.9197318 32.8992161,26.2834657 32.1994843,26.2834657 C31.3401444,26.2834657 31.2051367,26.8473853 31.2051367,27.5788345 C31.2051367,27.6870449 31.2051367,28.5365137 31.2043631,29.4950284 L33.1848582,29.4950284 L33.1848582,32.2297473 L31.2036204,32.2297473 C31.2036204,33.6593502 31.2036204,35.5121093 31.2052295,35.6422898 C31.2182878,36.4421558 31.2419288,36.9702424 32.027901,36.9702424 C32.790294,36.9702424 32.8903352,36.5991955 32.8912017,35.6422898 C32.8919443,34.433966 32.8912017,33.0475297 32.8912017,33.0475297 L34.9578442,33.0475297 L34.9578442,52.0305518 C34.9578442,53.2069108 34.0896235,54.0026612 32.9651264,54.1857865 L32.9651264,54.1857865 Z M43.932656,47.1418051 C43.9009696,48.7316968 43.7870346,49.1922331 43.4363486,49.5103662 C42.3891181,50.4623827 41.625147,50.9522847 40.2963589,51.7187004 C40.3638473,51.6641465 40.5559154,51.3712326 40.5298298,49.8439711 L40.5298298,32.9594636 C40.5298298,32.2295926 40.2223105,31.7210624 39.6763383,31.7210624 C39.0090975,31.7210624 38.8292831,32.2929654 38.8292831,32.8332439 L38.8292831,35.7999175 C38.8292831,36.4671583 39.4745539,36.9399175 40.0043115,36.9399175 C40.0043115,37.1945539 40.0050542,49.9399587 40.0050542,50.2247653 C40.0050542,51.2117483 39.7471068,52.0750181 39.0799587,52.3605673 C37.8211346,52.9008767 36.0978133,53.5363383 34.7357298,53.8528623 C34.7357298,53.8528623 35.473739,53.3736359 35.4582671,51.2751521 C35.455049,50.8300877 35.4582671,37.4223311 35.4582671,36.9138628 C35.9619391,36.9138628 36.4753584,36.4378546 36.4753584,35.7999175 L36.4753584,27.4598247 C36.4753584,26.802362 35.9082826,26.3149665 35.5534502,26.3149665 L35.5534502,22.5631253 L41.1498814,22.5631253 C42.2939041,22.6892522 43.1051573,23.1017638 43.1051573,24.7567922 L43.1051573,28.2547396 C43.1051573,28.6680866 43.2329242,29.7486436 42.6918102,30.193739 C42.1515317,30.639639 42.2467767,30.6070861 42.2467767,30.6070861 C42.2467767,30.6070861 43.0416606,30.9886849 43.0416606,31.9113048 L43.0416606,35.7901083 C43.0416606,36.4109335 43.3972666,36.9138009 43.932656,36.9138009 L43.932656,47.1418051 L43.932656,47.1418051 L43.932656,47.1418051 Z M46.7300361,27.2369056 L46.7300361,29.1767096 C46.7300361,29.4948427 46.9277978,29.6885199 47.2077153,29.9073853 C47.6519752,30.2580712 49.9417225,32.1018257 49.9417225,32.1018257 C50.1955854,32.3883032 50.7684167,32.6747189 50.7684167,33.7552759 C50.7684167,34.6462403 50.9116555,37.5323672 49.655245,40.5283136 C48.4152965,43.4860134 46.9847653,45.8049097 44.4095616,48.6674265 L44.4095616,33.1515008 L46.5079835,33.1515008 L46.5079835,36.1393708 C46.5396699,37.2533161 48.2874368,37.1254874 48.2874368,36.2996906 L48.2874368,34.2012687 C48.2874368,33.8505518 48.2874368,33.7554306 48.0979061,33.5959154 C47.9059618,33.4372357 45.1401753,31.2125941 44.9180299,31.0531717 C44.6951109,30.8945539 44.5673749,30.6398556 44.5673749,30.0035276 L44.5673749,24.1532027 C44.5999278,23.3899433 44.997772,22.56328 46.2053223,22.56328 L49.1622176,22.56328 C50.3078494,22.6894069 50.9279629,23.0710057 50.9279629,24.5022486 L50.9279629,28.7634554 L48.4788241,28.7634554 L48.4788241,27.2679113 C48.4785147,26.0285817 46.7300361,25.9952243 46.7300361,27.2369056 L46.7300361,27.2369056 Z" id="path5" fill="#FFFFFF"></path>
                <path d="M11.4687261,27.3109232 L11.4687261,35.9805673 C11.4687261,37.3826302 13.439474,37.3182981 13.439474,35.9171016 L13.439474,27.2474884 C13.3523672,25.9114595 11.4687261,25.9748943 11.4687261,27.3109232 L11.4687261,27.3109232 Z" id="path7" fill="#FFFFFF"></path>
                <path d="M38.9408355,27.2425993 L38.9408355,28.8146674 C38.9408355,29.9342754 40.5169263,29.8829397 40.5169263,28.7633935 C40.5169263,27.7454667 40.5601238,27.8529036 40.5169263,27.1929964 C40.4403713,26.0220835 38.9408355,26.0725219 38.9408355,27.2425993 L38.9408355,27.2425993 Z" id="path9" fill="#FFFFFF"></path>
                <path d="M29.9952347,2.75347086 C28.1514492,7.34908716 25.2962971,9.10746777 25.2962971,12.3995462 C25.2962971,14.6494069 27.1538834,16.8389582 29.9952347,16.8389582 C32.8357813,16.8389582 34.6942032,14.6494069 34.6942032,12.3995462 C34.6942032,9.10746777 31.8390201,7.34908716 29.9952347,2.75347086 L29.9952347,2.75347086 Z" id="path11" fill="#E56B1F"></path>
                <path d="M29.9952347,0 C13.456524,0 0,13.4549149 0,29.9944301 C0,46.5339453 13.456524,59.9904693 29.9952347,59.9904693 C46.5348118,59.9904693 59.9904693,46.5339453 59.9904693,29.9944301 C59.9904693,13.4549149 46.5348736,0 29.9952347,0 L29.9952347,0 Z M29.9952347,59.1337287 C13.9276431,59.1337287 0.856802476,46.0628571 0.856802476,29.9944301 C0.856802476,13.9275503 13.9276431,0.855966993 29.9952347,0.855966993 C46.0620835,0.855966993 59.1337287,13.9276122 59.1337287,29.9944301 C59.1337287,46.0628571 46.0620217,59.1337287 29.9952347,59.1337287 L29.9952347,59.1337287 Z" id="path13" fill="#FFFFFF"></path>
                <path d="M31.6176792,2.25304796 L34.8365446,7.33284167 C36.210851,9.50286746 36.4435792,11.3141001 36.4435792,12.3076431 C36.4435792,16.1311191 33.0545848,18.6526663 29.9951728,18.6526663 C26.9365962,18.6526663 23.5468283,16.1310882 23.5468283,12.3076431 C23.5468283,11.314131 23.7795565,9.50286746 25.1538628,7.33284167 L28.3736256,2.25304796 C13.7803816,3.09196493 2.20505415,15.192099 2.20505415,29.9944301 C2.20505415,45.3444043 14.6469314,57.7862506 29.9952037,57.7862506 C45.3435379,57.7862506 57.7862197,45.3444043 57.7862197,29.9944301 C57.7862506,15.192099 46.210985,3.09196493 31.6176792,2.25304796 L31.6176792,2.25304796 Z M29.9952347,55.2557298 C16.0448169,55.2557298 4.73480144,43.9457143 4.73480144,29.9945229 C4.73480144,18.2939041 12.6925219,8.45087158 23.4915936,5.58179474 C22.424064,7.0675606 21.0383703,9.20998453 21.0383703,12.209149 C21.0383703,16.8763693 24.9846931,21.2361011 29.9952965,21.2361011 C35.0059309,21.2361011 38.9522228,16.8763383 38.9522228,12.209149 C38.9522228,9.20998453 37.5673646,7.0675606 36.499835,5.58179474 C47.2981331,8.4508097 55.2558226,18.2939041 55.2558226,29.9945229 C55.2558226,43.9457143 43.9464569,55.2557298 29.9952347,55.2557298 L29.9952347,55.2557298 Z" id="path15" fill="#003876"></path>
                <path d="M20.3076637,50.3842806 L20.3076637,36.9139556 C19.8893657,36.9139556 19.5435998,36.3973182 19.5435998,35.8000103 L19.5435998,27.4273337 C19.5435998,26.7609902 20.0302527,26.3150903 20.4663125,26.3150903 L20.4663125,22.5632491 L16.5240743,22.5632491 L16.5240743,26.3150903 C16.9903043,26.3150903 17.4459825,26.6584734 17.4459825,27.4273337 L17.4459825,35.8187932 C17.4459825,36.3306034 17.038329,36.9140485 16.512687,36.9140485 L16.512687,46.5056627 C16.512687,46.9189479 16.3255389,47.6627127 15.7836204,47.9825168 C15.2725838,48.2835688 14.8169675,48.1224755 14.8169675,48.1224755 C16.0342341,49.4511398 17.4020423,50.5504796 18.9423002,51.4307994 C19.6095101,51.8114698 20.3076637,51.275245 20.3076637,50.3842806 L20.3076637,50.3842806 Z" id="path17" fill="#003876"></path>
                <path d="M27.493213,52.451016 L27.493213,33.0237339 L25.681083,33.0237339 L25.681083,35.747901 C25.681083,36.5697989 25.5802063,36.9236411 24.8169469,36.9236411 C24.0333883,36.9236411 24.0081692,36.4281382 23.9959773,35.6844662 C23.9902837,35.3663022 23.9959773,27.7771841 23.9959773,27.4273027 C23.9959773,26.691738 24.7754822,26.3149974 25.2360186,26.3149974 L25.2360186,22.5631563 L20.9748736,22.5631563 L20.9748736,26.3149974 C21.4101908,26.3149974 21.8650645,26.691738 21.8650645,27.4273027 L21.8650645,35.7999484 C21.8650645,36.4110263 21.3141413,36.9139247 20.7845075,36.9139247 L20.7845075,50.7667148 C20.7845075,51.7365859 19.8463538,51.9073956 19.8463538,51.9073956 C21.7226921,52.9138731 23.4818154,53.6511398 25.6779577,53.9944301 C26.6958226,54.1532027 27.493213,53.5014647 27.493213,52.451016 L27.493213,52.451016 Z" id="path19" fill="#003876"></path>
                <path d="M34.9578442,33.047313 L32.8911707,33.047313 C32.8911707,33.047313 32.8919443,34.4338731 32.8911707,35.6421042 C32.8903352,36.5990098 32.7902011,36.9700567 32.027901,36.9700567 C31.2419288,36.9700567 31.2182878,36.4419701 31.2052295,35.6421042 C31.2036204,35.5119237 31.2036204,33.6591645 31.2036204,32.2295616 L33.1848582,32.2295616 L33.1848582,29.4948427 L31.2043631,29.4948427 C31.2051057,28.536328 31.2051057,27.6868592 31.2051057,27.5786488 C31.2051057,26.8471377 31.3401444,26.2832491 32.1994843,26.2832491 C32.8992161,26.2832491 32.9936256,26.9195462 32.9936256,27.4598247 L32.9936256,28.6917277 L34.9895926,28.6917277 L34.9895926,22.58754 L27.135967,22.58754 L27.135967,26.3149665 C28.2197112,26.3149665 28.6616194,26.7656627 28.6616194,27.4272718 C28.684394,27.9992058 28.6616194,35.7998865 28.6616194,35.7998865 C28.6616194,36.4378236 28.4159257,36.9138319 27.9626921,36.9138319 L27.9626921,52.5387416 C27.9626921,53.9862919 26.8837751,54.2466529 26.8837751,54.2466529 C27.7478804,54.3491697 29.0432491,54.4020217 29.9415472,54.4020217 C30.9675812,54.4020217 31.8942857,54.3597524 32.9651264,54.1856008 C34.0896235,54.0024755 34.9577824,53.2067251 34.9577824,52.0302114 L34.9577824,33.047313 L34.9577824,33.047313 L34.9578442,33.047313 Z" id="path21" fill="#003876"></path>
                <path d="M50.9277772,28.7633316 L50.9277772,24.5021248 C50.9277772,23.0708819 50.3077875,22.6892831 49.162032,22.5631563 L46.2052604,22.5631563 C44.997772,22.5631563 44.599835,23.3898195 44.567313,24.1530789 L44.567313,30.0034038 C44.567313,30.6397009 44.6950799,30.8944301 44.917968,31.053048 C45.1401444,31.2124394 47.905869,33.4371119 48.0978752,33.5957916 C48.2874059,33.755245 48.2874059,33.8504281 48.2874059,34.2011449 L48.2874059,36.2995977 C48.2874059,37.1254255 46.5396699,37.2531924 46.5078907,36.139247 L46.5078907,33.1514079 L44.4094688,33.1514079 L44.4094688,48.6673337 C46.9847653,45.8048169 48.4152037,43.4858896 49.655214,40.5281898 C50.9115627,37.5323053 50.7683239,34.6461475 50.7683239,33.7551831 C50.7683239,32.6745952 50.1954925,32.3882104 49.9416297,32.1017329 C49.9416297,32.1017329 47.6519752,30.2579783 47.2076844,29.9072924 C46.927705,29.688427 46.7299742,29.4947499 46.7299742,29.1766168 L46.7299742,27.2368128 C46.7299742,25.9951625 48.4785766,26.0285199 48.4785766,27.2677256 L48.4785766,28.7632697 L50.9277772,28.7633316 L50.9277772,28.7633316 L50.9277772,28.7633316 Z" id="path23" fill="#003876"></path>
                <path d="M15.9837958,45.9017329 L15.9837958,24.9154719 C15.9837958,22.817081 14.424786,22.5306962 13.4711604,22.5306962 L11.5631047,22.5306962 C9.59238783,22.5306962 9.06352759,24.3435379 9.06352759,25.7113461 L9.06352759,35.119804 C9.40768437,39.9391748 11.1961423,43.801671 13.9878597,47.0141001 C14.9056524,48.071016 15.9837958,47.6193914 15.9837958,45.9017329 L15.9837958,45.9017329 Z M13.439443,35.9171325 C13.439443,37.318329 11.4686952,37.3825683 11.4686952,35.9806601 L11.4686952,27.3109541 C11.4686952,25.9749252 13.3523672,25.9114595 13.439443,27.2475193 L13.439443,35.9171325 L13.439443,35.9171325 Z" id="path25" fill="#003876"></path>
                <path d="M43.0416606,35.7902011 L43.0416606,31.9114286 C43.0416606,30.9887468 42.2467767,30.607148 42.2467767,30.607148 C42.2467767,30.607148 42.1515317,30.6397009 42.6918102,30.1938009 C43.2329242,29.7487055 43.1051573,28.6681485 43.1051573,28.2548014 L43.1051573,24.756854 C43.1051573,23.1019185 42.2938422,22.689376 41.1498814,22.5631872 L35.5534502,22.5631872 L35.5534502,26.3150284 C35.9082517,26.3150284 36.4753584,26.802393 36.4753584,27.4598865 L36.4753584,35.8000103 C36.4753584,36.4379165 35.9619391,36.9139866 35.4582362,36.9139866 C35.4582362,37.4224858 35.4550181,50.8302424 35.4582362,51.275214 C35.4737081,53.3736668 34.7357298,53.8529242 34.7357298,53.8529242 C36.0978133,53.5364002 37.8211346,52.9009386 39.0799587,52.3606292 C39.7471996,52.075049 40.0050542,51.2117483 40.0050542,50.2248582 C40.0050542,49.9400516 40.0043115,37.1945848 40.0043115,36.9399484 C39.4745539,36.9399484 38.8292831,36.4672821 38.8292831,35.8000103 L38.8292831,32.8333368 C38.8292831,32.2930583 39.0091284,31.7210933 39.6763383,31.7210933 C40.2223414,31.7210933 40.5298298,32.2296235 40.5298298,32.9594946 L40.5298298,49.8439402 C40.5559154,51.3712017 40.3638473,51.6641155 40.2963589,51.7186694 C41.6250232,50.9521919 42.3891181,50.4623208 43.4363486,49.5103352 C43.7870346,49.1922641 43.9009696,48.7316968 43.932656,47.1417741 L43.932656,36.9139866 C43.3972666,36.9139556 43.0416606,36.4111191 43.0416606,35.7902011 L43.0416606,35.7902011 Z M40.5168334,28.7633316 C40.5168334,29.8829397 38.9407427,29.9342135 38.9407427,28.8146055 L38.9407427,27.2425374 C38.9407427,26.07246 40.4403713,26.0220835 40.5168334,27.1929036 C40.5600309,27.8528417 40.5168334,27.7454358 40.5168334,28.7633316 L40.5168334,28.7633316 Z" id="path27" fill="#003876"></path>
            </g>
        </g>
    </g>
</svg>