<?xml version="1.0" encoding="UTF-8" standalone="no"?>
<svg width="29px" height="29px" viewBox="0 0 29 29" version="1.1" xmlns="http://www.w3.org/2000/svg" xmlns:xlink="http://www.w3.org/1999/xlink">
    <!-- Generator: Sketch 40.3 (33839) - http://www.bohemiancoding.com/sketch -->
    <title>panthers</title>
    <desc>Created with Sketch.</desc>
    <defs>
        <polygon id="path-1" points="0 28.2556342 29.8217664 28.2556342 29.8217664 0 0 0"></polygon>
    </defs>
    <g id="Page-1" stroke="none" stroke-width="1" fill="none" fill-rule="evenodd">
        <g id="Artboard-Copy" transform="translate(-1.000000, -1.000000)">
            <g id="panthers" transform="translate(1.000000, 0.000000)">
                <g id="Page-1">
                    <g id="Artboard">
                        <g id="panthers" transform="translate(0.000000, 0.259494)">
                            <g id="g2412" transform="translate(15.271045, 14.569142) scale(1, -1) translate(-15.271045, -14.569142) translate(0.021045, 0.069142)">
                                <g id="g2414" transform="translate(0.078342, 0.109286)">
                                    <g id="g2416-Clipped">
                                        <g>
                                            <mask id="mask-2" fill="white">
                                                <use xlink:href="#path-1"></use>
                                            </mask>
                                            <g id="path-1"></g>
                                            <g id="g2416" mask="url(#mask-2)">
                                                <g id="Group" transform="translate(0.016314, 0.032628)">
                                                    <g id="g2422" transform="translate(0.004078, 0.008157)" fill="#002F5D">
                                                        <path d="M7.47175545,26.6895021 L9.6428551,26.6106571 C9.6428551,26.6106571 10.8895126,26.8240915 11.2049088,26.8404054 C11.7459912,27.1218198 12.8716486,27.5745299 13.8681492,27.6547452 L14.4092315,28.1659079 L14.9271971,27.6581385 C15.1895895,27.6601777 16.7584297,27.3216648 17.5877293,26.82817 C17.8779695,26.8240915 19.1524911,26.6201681 19.1524911,26.6201681 L21.3263151,26.6813451 C21.2093936,26.3006934 20.4045811,24.4952857 19.9070079,23.655121 L20.1150098,23.4838253 C20.0891849,23.2173708 19.82136,21.742319 20.1870682,21.3820597 L19.525671,21.507807 C19.6623161,20.9551744 19.7901027,20.8273878 19.9219677,20.6329754 L19.6079256,20.2564022 C20.0089697,20.0579113 20.4045811,19.6500644 20.4983859,19.1035495 C21.0245248,19.2259035 21.4432367,18.9485676 21.7504759,18.4877006 C21.7504759,18.4877006 22.0869497,19.5725734 22.1460874,19.6704567 C22.2052253,19.7683399 23.4675114,19.9192433 23.6265718,19.8580662 C23.7474249,19.811588 24.8175011,18.9997606 24.8175011,18.8425274 C24.8175011,18.8045977 24.7886581,18.7430291 24.7665039,18.6804001 C24.7308255,18.579613 24.6951307,18.4775045 24.6951307,18.4775045 C24.8419556,18.4836221 25.5883154,18.4632298 25.7514542,18.3816604 C25.8328768,18.340941 26.6691098,17.433661 26.6691098,17.2927092 C26.6691098,17.2457741 26.4716303,16.8390855 26.4651863,16.8277637 C26.4651863,16.8277637 27.2564093,16.6809388 27.4440189,16.5504278 C27.6316285,16.4199168 28.0109261,15.4859473 28.0109261,15.3391224 C28.0109261,15.2396078 27.7213548,14.8700985 27.7186304,14.8075674 C27.8165136,14.7994105 28.384106,14.6070372 28.47995,14.5111932 C28.5177656,14.4733776 28.6728942,13.9069272 28.7273826,13.6329683 C28.7399933,13.5695399 28.7409721,13.5215934 28.7409721,13.4997328 C28.7409721,13.446207 27.628643,11.5309253 27.6071577,11.50944 C27.4956523,11.3979346 27.0610017,11.3217814 26.8539949,11.3435767 C26.8539949,11.3435767 26.4434399,10.6475126 25.115213,10.3919394 C25.4673317,10.7154925 25.9880054,11.5869308 25.9268284,11.6481079 C25.9268284,11.6481079 25.0642321,11.7133634 24.4748933,11.7092849 C24.4748933,11.7092849 24.0072235,11.5910093 23.672789,11.5910093 C23.3383545,11.5910093 22.9658597,11.6562648 22.5634617,11.8193872 C22.5551743,11.8193872 22.4329344,11.7976408 22.3105803,11.7867595 C21.7790253,11.3299873 21.4555047,11.1470108 21.220275,11.0363375 C20.9503619,10.9093176 20.3102543,10.7201419 19.8281629,10.5523537 C19.1292439,10.3091138 18.7792133,10.1361215 18.7273188,10.1054187 L18.7242519,10.2369575 L18.2429925,10.2288006 C17.6586783,9.4767472 17.6518755,9.48123355 17.2600814,8.8706704 C17.2133911,8.7978942 17.1582339,8.73859325 17.125492,8.67898235 C17.1126366,8.63010595 17.140256,8.2652298 17.1146269,7.78715165 C17.0737607,7.0252936 16.9821093,6.56896185 16.6360756,6.0035066 C16.6068738,5.9557722 16.5881455,5.8341359 16.535468,5.6663477 C16.4841608,5.5029316 16.3999486,5.29548435 16.2962087,5.0899295 C16.1568392,4.81380082 15.9821828,4.54783569 15.8366957,4.32317729 C15.6858576,4.09026408 15.5662605,3.90286658 15.5430459,3.85823181 C15.464201,3.48844517 15.4370057,3.04253798 15.4370057,3.04253798 C15.4370057,3.04253798 16.0039129,2.40629679 16.5912125,2.40629679 C16.9922239,2.40629679 17.8963226,2.62245566 17.8963226,3.89085956 C17.8963226,4.23261896 17.8256672,4.84295371 17.7032805,5.19053715 C17.6615496,5.3090738 17.6018245,5.4046568 17.5414958,5.50593335 L17.6556929,5.5140903 L17.4680834,6.0687621 L17.5720843,6.050409 L17.5659666,6.4521382 L17.7189092,6.4011573 L17.7291054,6.8355143 L17.8514595,6.78657265 L17.9330288,7.1781057 L18.0961676,6.93339755 L18.2266786,7.10469325 L18.3571896,6.7702588 L18.4550729,6.85182815 L18.5468384,6.511276 L18.646761,6.56837455 L18.7405657,6.215587 L18.838449,6.2808425 L18.9009801,5.7696635 L18.9934308,5.84852475 L18.9308997,5.2041103 L19.0179016,5.26938215 C19.0179016,4.72286727 18.975926,3.92353626 18.8601954,3.55914951 C18.7100914,3.08653651 18.4899356,2.65784046 18.177737,2.34919823 C17.6225105,1.80026891 16.9292197,1.6205063 16.6102508,1.6205063 C15.8845769,1.6205063 15.3921425,2.08409773 15.3921425,2.08409773 C15.3472794,1.97805754 15.2820239,0.783066075 15.2820239,0.587299555 C15.2820239,0.346539366 15.0508726,0.28237689 14.9883741,0.252865087 L14.9475894,0.081569383 C14.9475894,0.081569383 14.874177,0.138667951 14.874177,0.228394272 C14.8578631,0.248786618 14.7518229,0.252865087 14.7518229,0.252865087 C14.697204,0.202145244 14.6297135,0.160414348 14.5424669,0.160414348 C14.5152717,0.119629657 14.4989578,0.0081569383 14.4989578,0.0081569383 C14.4989578,0.0081569383 14.4214669,0.063216272 14.4337023,0.183531111 C14.3949568,0.179452642 14.2970736,0.181491877 14.2460928,0.267139729 C14.214819,0.188963632 14.1339348,0.210041161 14.0809147,0.210041161 C14.0584832,0.144785654 14.0380908,0.0265100494 14.0380908,0.0265100494 C14.0380908,0.0265100494 13.9612851,0.0700028445 13.9633243,0.25557319 C13.9198152,0.274611484 13.8096965,0.354826815 13.7743443,0.433671781 C13.7544088,0.478143408 13.7077348,0.472874026 13.6628716,0.42823926 C13.6487112,0.414160385 13.5962621,0.416444327 13.5962621,0.280060319 C13.5255578,0.346653563 13.5119683,0.473102421 13.5242037,0.577103385 C13.5242037,0.577103385 13.4079673,0.69537899 13.4079673,0.870753165 C13.4079673,1.04612733 13.4711836,1.2371302 13.5038113,1.35675986 C13.5119683,1.40707185 13.3488295,1.25616849 13.3488295,1.25616849 C13.3488295,1.25616849 13.3365941,1.54777904 13.6669501,1.70478379 C13.7403626,1.93319437 13.8899119,2.17247 14.0285798,2.35463075 C14.0584832,2.68906522 14.1889941,3.27636477 14.2433683,3.51019157 C13.9334046,4.02135426 13.5826563,5.0029276 13.5418716,5.31289125 C13.5010869,5.6228549 13.4820649,5.2231649 13.2427893,5.095362 C13.3692219,4.93086919 13.5201252,4.38298397 13.5201252,4.20898016 C13.5391635,4.1736443 13.7593846,3.93981751 13.7104592,3.67877917 C13.7104592,3.67877917 13.6261654,3.82558774 13.5826563,3.82558774 C13.5391635,3.82558774 13.6886965,3.29266234 13.6669501,3.14040493 C13.6452037,2.98814752 13.4874974,2.97455806 13.4548697,2.92018391 C13.422242,2.86580976 13.4113606,2.74073126 13.4113606,2.74073126 C13.4113606,2.74073126 13.3569865,2.78696479 13.3488295,2.88212363 C13.3461377,2.9134789 13.2949122,2.92259836 13.2699846,2.91473507 C13.2284168,2.9016024 13.2312391,2.86391735 13.1829663,2.84132263 C13.1347099,2.81872791 13.0470228,2.81412739 13.0470228,2.81412739 C13.0089625,2.78694848 12.9763347,2.64012359 12.9763347,2.64012359 C12.8458237,2.75702883 12.9790429,2.83316569 12.8159041,2.83316569 C12.753373,2.83316569 12.7219525,2.76185773 12.6962745,2.75159631 C12.6690792,2.74071495 12.5739204,2.72237815 12.5372142,2.74073126 C12.4821548,2.63876953 12.4862333,2.57963173 12.4862333,2.57963173 C12.4087424,2.64896571 12.4148601,2.76724131 12.4148601,2.76724131 C12.4148601,2.76724131 12.3604859,2.76587095 12.3149376,2.8019083 C12.2693892,2.83794565 12.2415251,2.89163462 12.2415251,2.89163462 C12.2415251,2.89163462 12.2007404,2.8640968 12.1671012,2.8610461 C12.1334457,2.8579791 12.0899366,2.86851786 12.0899366,2.86851786 C12.0817796,2.80734082 12.0464438,2.73122027 12.0464438,2.73122027 C11.9838964,2.79510541 11.9866208,2.89028057 11.9866208,2.89028057 C11.9866208,2.89028057 11.7928936,2.97932171 11.7928936,3.44426719 C11.7928936,3.63595524 11.9159328,3.7277208 11.9811883,3.87997821 C12.0134897,3.95538094 12.052431,4.14829253 12.1116993,4.40474667 C12.2356521,4.94126113 12.2384092,5.01865415 12.2095826,5.0763237 C12.2095826,5.0763237 11.9855278,5.1897215 11.7799729,5.5385611 C11.409909,6.16662905 11.2796916,7.25742375 11.2796916,7.90950575 C11.2796916,8.23578325 11.3177519,8.19770665 11.3177519,8.3282177 C11.111104,9.0134005 10.1866619,10.0248608 10.0017604,10.3402733 C9.9365049,10.3511384 9.71899195,10.3837661 9.71899195,10.3837661 L9.7217164,10.1744264 C8.3333239,10.7948105 7.5683336,10.9561058 7.2963813,11.0771222 C6.9545077,11.2292654 6.7044323,11.4395513 6.5105908,11.6997576 C6.4399028,11.691617 6.19519465,11.721504 6.12993915,11.7541317 C5.3387161,11.5420677 4.77588737,11.5828523 4.2446586,11.7092849 L2.8236547,11.6345021 C2.86716381,11.4550658 3.49660211,10.4857441 3.63799448,10.3987422 C2.75296668,10.5754705 2.2594719,10.9139834 1.92095897,11.3517337 C1.88860855,11.3444577 1.25954547,11.4034161 1.19226704,11.4931098 C1.11120339,11.6012055 0.00680288655,13.4656042 0.00680288655,13.4834027 C0.00680288655,13.6798707 0.244708149,14.4255453 0.291610544,14.5132324 C0.32050242,14.567264 0.686651065,14.7281351 1.04816657,14.8211569 C1.04816657,14.8211569 0.75724121,15.2235549 0.75724121,15.3540659 C0.75724121,15.5392611 1.24184491,16.4810449 1.28675702,16.525957 C1.4118355,16.6510354 2.29209966,16.8338814 2.29209966,16.8338814 C2.29209966,16.8338814 2.09497909,17.1649226 2.09497909,17.2845523 C2.09497909,17.4325191 2.84608628,18.2906943 3.03030257,18.3911715 C3.14993223,18.4564269 4.0794806,18.4815829 4.0794806,18.4815829 C4.05350892,18.5159073 3.93407502,18.8027542 3.94387966,18.8452355 C3.98782924,19.0356511 5.0311832,19.830349 5.1619879,19.8594203 C5.3408206,19.8991772 6.4830693,19.7846049 6.59760905,19.7044385 C6.66384335,19.6580744 7.11149615,18.1355982 7.14139945,18.0513044 C7.5592631,18.4691517 7.94893635,18.6413284 8.3431938,18.6494853 C8.2283115,19.0321762 8.26705695,19.7764969 9.20918335,20.2495993 L8.8706704,20.62074 C8.8706704,20.62074 9.11537855,20.8307811 9.26220345,21.4989649 L8.60149145,21.3589429 C8.8543565,21.6838664 8.80711155,21.9266984 8.8054149,22.2154214 C8.80300045,22.6259112 8.74294905,23.0312947 8.69665025,23.4838253 L8.90057375,23.6605535 C8.19636895,24.9683881 7.47175545,26.6895021 7.47175545,26.6895021" id="path2424"></path>
                                                    </g>
                                                    <g id="g2426" transform="translate(12.113053, 19.128021)" fill="#FFFFFF">
                                                        <path d="M1.15828523,1.54981828 L0.197120571,2.48786618 L0.0978832595,2.39610062 L0.50776941,1.96174366 C0.261022025,1.73334938 0.00407846915,1.47232736 0.00407846915,1.03593117 C0.00407846915,0.7525265 0.092010264,0.270206738 0.56690721,0.081569383 C0.69686355,0.0299522774 0.863982905,0.0122354074 1.05632351,0.0122354074 C1.69052546,0.0122354074 2.10856855,0.256943556 2.14527477,0.293649779 L2.14935324,0.440474667 C2.14935324,0.440474667 1.5144661,0.97610818 1.15828523,1.54981828" id="path2428"></path>
                                                    </g>
                                                    <g id="g2430" transform="translate(14.535664, 19.136177)" fill="#FFFFFF">
                                                        <path d="M1.64770153,1.94135131 L2.0759408,2.40221833 L1.97397906,2.49874754 L1.1501283,1.55797521 C0.973400075,1.20179434 0.0081569383,0.440474667 0.0081569383,0.440474667 L0.0101961729,0.291610544 C0.0101961729,0.291610544 0.416003853,0.0081569383 1.09302973,0.0081569383 C1.26373814,0.0081569383 1.41517985,0.0134100066 1.54711017,0.0543741505 C1.93841482,0.175928845 2.15343171,0.53563351 2.15343171,1.03593117 C2.15343171,1.55797521 1.79452642,1.83803553 1.64770153,1.94135131" id="path2432"></path>
                                                    </g>
                                                    <g id="g2434" transform="translate(10.453117, 16.515761)" fill="#D69C05">
                                                        <path d="M8.1569383,5.4488348 L7.9754464,5.36215915 L8.3159986,6.4052358 L7.7450129,7.1189679 L8.08352585,7.3086167 L8.66674695,6.50311905 C8.66674695,6.50311905 8.17325215,5.5324434 8.1569383,5.4488348 L8.1569383,5.4488348 L8.1569383,5.4488348 Z M5.3196778,7.65324735 L4.8900845,7.20461575 L4.75957349,7.35959755 L5.2489898,8.15897755 L4.96349695,9.2316149 L5.09808645,9.43553835 L5.95999745,8.2310359 L6.38823675,7.8734847 L5.3196778,7.65324735 L5.3196778,7.65324735 L5.3196778,7.65324735 Z M9.4498293,6.91096595 L8.8733948,7.3460081 L9.07731825,7.6885995 L8.50360815,7.623344 L9.00661395,8.18617275 L8.3622321,7.9006799 C8.3622321,7.9006799 7.0625545,9.92903315 6.89941575,10.2335643 C6.09094895,10.7028819 4.42956009,10.9814576 4.38162992,10.9840026 L3.9520366,11.3918495 L3.67062223,11.1240246 L3.89901651,11.1729662 L4.26607872,10.805904 C4.26607872,10.805904 5.26530365,10.606059 5.49098985,10.4075681 C5.4554582,10.4109613 5.3671675,10.4097215 5.251029,10.4164102 C4.99385708,10.4312069 4.61607663,10.4565097 4.48496201,10.4565097 C4.29462801,10.4565097 3.97990071,10.4320389 3.9581543,10.345037 C3.93640791,10.2580351 3.96835048,10.2118016 3.96835048,10.1193672 C3.96835048,10.0269164 3.94660408,10.0323489 3.94660408,9.9181518 C3.94660408,9.76385515 4.03156675,9.63946185 4.13148925,9.5619709 L3.87046722,8.9610819 L4.12605672,8.623923 L4.06080121,6.7260808 L4.26200026,6.5140004 L3.94115525,5.9865075 L3.63664042,6.5140004 L3.83240694,6.72063195 L3.6964471,8.5369211 L3.29948154,8.8740637 L3.64750547,9.43961685 L3.32122793,10.0323489 L2.80463272,9.41787045 L2.94600878,9.2221039 L2.65780783,8.1562531 L3.15061742,7.35755835 L3.01806717,7.19849805 L2.6088662,7.6614043 L0.422806739,7.81911055 L0.357551233,8.0692512 L0.82520482,8.43903785 L0.662066055,8.6402369 L0.00680288655,8.1807239 L0.134589482,7.65324735 L2.79918389,7.0632234 L2.97728247,6.5479822 L3.35250164,6.4949621 L2.842693,6.1278999 L3.58224996,5.6221697 L3.53330833,5.5569142 L2.97863653,5.7689946 L2.77471307,5.5514817 L3.41640309,5.0647735 L3.34842317,5.0022424 L2.89163463,5.2143228 L2.42668914,4.81190841 L2.67955423,4.659651 L3.95611507,4.18654858 L5.2326759,4.65149406 L5.58750275,4.92882996 L5.2204405,5.26938215 L4.55157156,5.0022424 L4.49039453,5.06341945 L5.25306825,5.61809125 L5.0654587,5.81385775 L4.35988351,5.5569142 L4.32725577,5.6221697 L5.0613802,6.13605685 L4.55157156,6.50311905 L4.92271226,6.5520607 L5.0899295,7.06186935 L7.4962263,7.5920703 L7.4962263,7.4207746 L6.92116215,7.1597526 L6.58401955,6.41611715 L5.30065585,5.9973889 L5.6595611,5.61128835 L5.45291325,5.450874 L6.00758505,4.99408547 L6.3583334,4.77384813 C6.3583334,4.77384813 6.9130052,4.26268544 6.9130052,3.68625092 C6.9130052,2.14731401 5.49914675,2.25878673 5.49914675,2.25878673 L5.4610702,2.03584129 L5.5507965,1.96786136 L6.355609,2.22888339 L6.32298125,2.04943074 L6.0184664,1.78840872 C5.92058315,1.58176085 5.43116685,0.086333035 5.43116685,0.086333035 L5.4420319,0.0428239261 L6.19041465,0.0092662819 C6.28516565,0.325021363 6.3560821,0.619030045 6.3970299,0.820261715 C6.42378465,0.951686305 6.43773305,1.04353343 6.43717835,1.07603067 L9.2323001,4.13760695 C9.1507307,4.1919811 8.87884365,4.78472949 8.81902065,5.24151805 L9.38999,5.13547785 C9.249968,5.7322884 9.4498293,6.91096595 9.4498293,6.91096595 L9.4498293,6.91096595 L9.4498293,6.91096595 Z" id="path2436"></path>
                                                    </g>
                                                    <g id="g2438" transform="translate(9.674129, 16.618399)" fill="#D69C05">
                                                        <path d="M0.587299555,5.53040415 L0.407846914,5.59565965 L0.0108813557,6.3896071 L0.880949335,7.3249306 L1.17459911,7.3181277 L1.75646615,7.0475947 L2.08274368,6.31347025 L3.38240498,5.88930945 L3.00991023,5.5072874 L3.22471504,5.35638405 C3.08054931,5.2348946 2.8937228,5.06532815 2.72033892,4.93630172 C2.5765321,4.82931531 2.5240993,4.81164738 2.4562662,4.76500601 C2.22367926,4.60509739 1.77005561,4.16581364 1.77005561,3.55370068 C1.77005561,2.8454011 2.14272981,2.15343171 3.16489206,2.15343171 C3.17145024,2.1301355 3.18326148,2.04427556 3.2106688,1.92280243 C3.28563106,1.59063559 3.47725385,0.99232417 3.99689977,0.679750295 C3.54554374,0.687907235 3.12717438,1.86929292 3.12717438,1.86929292 L2.32676665,2.12827571 L2.34308052,1.96105847 L2.6645944,1.67489676 C2.84404704,1.23985462 3.23422603,0.00339328633 3.23422603,0.00339328633 L2.9392222,0.255589505 L2.512337,1.6205063 C2.512337,1.6205063 2.05962692,1.88560679 1.82715417,2.48106329 C1.68440776,2.6115743 1.43562114,2.97455806 1.43562114,3.51291598 C1.43562114,3.93007812 1.57729085,4.34107361 1.79452642,4.67120122 C1.99641065,4.97799999 2.27306136,5.18238025 2.43892455,5.3958147 L2.43349203,5.56575635 L1.97941159,5.72344625 L1.59060296,6.7349066 L1.10934361,7.03671335 L0.367062223,6.29443195 L0.587299555,5.53040415 L0.587299555,5.53040415 L0.587299555,5.53040415 Z" id="path2440"></path>
                                                    </g>
                                                    <g id="g2442" transform="translate(10.100329, 25.328655)" fill="#D69C05">
                                                        <polygon id="path2444" points="0 0.114197136 0.307924421 0.00680288655 0.91969479 0.98563548"></polygon>
                                                    </g>
                                                    <g id="g2446" transform="translate(11.972299, 14.317960)" fill="#FFFFFF">
                                                        <path d="M4.8778491,3.01806717 C4.77259197,2.50072151 4.46917018,1.37018618 4.07240038,0.833557525 L3.88751522,1.0768953 C3.83992764,0.947738345 3.6292013,0.473281873 3.46063001,0.335984288 C3.46063001,0.335984288 3.34235441,0.446102955 3.2179611,0.672457995 C3.18329411,0.55418239 2.98548836,0.250336436 2.90595821,0.158570881 L2.6816424,0.482809177 L2.39954285,0.0103756255 L2.1296787,0.49300535 C2.0800682,0.439985252 1.88735238,0.148374707 1.88735238,0.148374707 L1.59319688,0.642375205 C1.59319688,0.642375205 1.38264998,0.346180461 1.33982605,0.329866584 C1.27457055,0.405318263 1.11551026,0.58681014 0.92178297,1.05787332 C0.795350425,0.92532308 0.728055685,0.825400585 0.728055685,0.825400585 C0.66483941,0.91375654 0.59614168,1.02596338 0.536367635,1.15371735 C0.256813045,1.75122939 0.0265589911,2.68926098 0.0075206971,2.90812795 L0.174737932,2.58865331 L0.254953263,2.86055669 L0.54860304,2.33851264 L0.66402372,2.61007343 L0.93605761,2.30384565 C0.93605761,2.30384565 0.915665265,2.17945234 0.915665265,2.04486286 C0.915665265,1.96823658 0.92595932,1.84979784 0.94013608,1.72401785 C0.976777045,1.39875178 1.1158039,1.04971639 1.7966146,1.04971639 C2.15279547,1.04971639 2.20853998,1.10273649 2.43285579,1.10273649 C2.65717159,1.10273649 2.72650557,1.04971639 3.03646922,1.04971639 C3.33927109,1.04971639 3.47937465,1.08867392 3.6360205,1.18838434 C3.90443271,1.35922325 3.94188937,1.64430825 3.94188937,2.0122351 C3.94188937,2.20459203 3.92285108,2.24062938 3.92285108,2.24062938 C4.0560865,2.34870881 4.13765589,2.5546715 4.13765589,2.5546715 C4.13765589,2.5546715 4.21106834,2.40376814 4.2029114,2.30180641 C4.23963393,2.33443417 4.46801189,2.88094903 4.46801189,2.88094903 C4.5393851,2.82996817 4.56997362,2.66479017 4.56997362,2.66479017 C4.61891525,2.6668294 4.76574014,2.84424281 4.8778491,3.01806717" id="path2448"></path>
                                                    </g>
                                                    <g id="g2450" transform="translate(16.691820, 22.067235)" fill="#FFFFFF">
                                                        <polygon id="path2452" points="0.0978832595 0 0.71508615 0.0421387432 1.16644218 0.71237805 0.92716655 1.00602783 0.473102421 0.282768423 0.0054325209 0.116921553"></polygon>
                                                    </g>
                                                    <g id="g2454" transform="translate(17.092864, 24.323990)" fill="#FFFFFF">
                                                        <polygon id="path2456" points="0 0.99514647 0.124393309 1.17255988 1.25344408 0.368416275 1.21673786 0.051666047 0.836086175 0.0081569383 0.90949862 0.261022025"></polygon>
                                                    </g>
                                                    <g id="g2458" transform="translate(7.944858, 23.797867)" fill="#FFFFFF">
                                                        <path d="M1.10934361,0 L1.23985462,0.106040198 L0.89726321,0.701496695 L1.321424,0.644398125 L0.86463546,1.15828523 L1.00330341,1.33773788 L1.95766519,0.91357709 L2.04739151,1.05632351 C1.10526514,1.43969961 0.37929763,2.00660682 0.00951099005,2.31792453 C0.0054325209,2.25266902 0.91357709,0.269178963 1.10934361,0" id="path2460"></path>
                                                    </g>
                                                    <g id="g2462" transform="translate(18.801743, 23.806024)" fill="#FFFFFF">
                                                        <path d="M0,1.0440881 L0.0978832595,0.89726321 L1.05904793,1.32822689 L1.18955894,1.14877425 L0.734124445,0.636241185 L1.16032447,0.697418225 L0.81569383,0.106040198 L0.96251872,0 C1.19091299,0.3833761 1.96582213,2.07186233 2.04331304,2.30944131 C1.85297905,2.14222408 1.09302973,1.49271971 0,1.0440881" id="path2464"></path>
                                                    </g>
                                                    <g id="g2466" transform="translate(12.985846, 17.633261)" fill="#FFFFFF">
                                                        <path d="M0,1.17459911 C0,1.19634551 0.081569383,1.26636467 0.252865087,1.26636467 C0.509808645,1.26636467 0.538357925,1.21062015 0.538357925,1.17663835 C0.538357925,1.14265654 0.395611507,0.197805753 0.469023951,0.0101961729 C0.175374174,0.381336865 0,0.948244075 0,1.17459911" id="path2468"></path>
                                                    </g>
                                                    <g id="g2470" transform="translate(15.261632, 17.651615)" fill="#FFFFFF">
                                                        <path d="M0.081569383,0 C0.402414394,0.315396176 0.5519637,1.01961729 0.5519637,1.16100965 C0.5519637,1.22626516 0.454080441,1.2561685 0.31541249,1.2561685 C0.203923457,1.2561685 0.00272441739,1.21265939 0.00272441739,1.16644218 C0.00272441739,1.11750054 0.135959848,0.568261265 0.081569383,0" id="path2472"></path>
                                                    </g>
                                                    <g id="g2474" transform="translate(14.715117, 18.336797)" fill="#FFFFFF">
                                                        <path d="M0.195766519,0 C0.244708149,0 0.303845951,0.303845951 0.303845951,0.53020099 C0.303845951,0.648476595 0.0122354074,0.509808645 0.0122354074,0.444553137 C0.0122354074,0.37929763 0.126432543,0.232472741 0.195766519,0" id="path2476"></path>
                                                    </g>
                                                    <g id="g2478" transform="translate(14.417388, 18.434680)">
                                                        <g id="path2480"></g>
                                                    </g>
                                                    <g id="g2482" transform="translate(14.087032, 18.432641)" fill="#FFFFFF">
                                                        <path id="path2484"></path>
                                                    </g>
                                                    <g id="g2486" transform="translate(13.744441, 18.340875)" fill="#FFFFFF">
                                                        <path d="M0.130511012,0 C0.175374174,0.0489416297 0.301806717,0.381336865 0.301806717,0.446592371 C0.301806717,0.53020099 0.157021062,0.57098568 0.0938047905,0.57098568 C0.0305885186,0.57098568 0.014274642,0.509808645 0.014274642,0.464945482 C0.014274642,0.420082322 0.091765556,0 0.130511012,0" id="path2488"></path>
                                                    </g>
                                                    <g id="g2490" transform="translate(13.328437, 15.693950)" fill="#FFFFFF">
                                                        <path d="M0.358905285,0 C0.407846914,0 0.435042147,0.0054325209 0.435042147,0.0489416298 C0.435042147,0.0924507385 0.163138766,0.689261285 0.081569383,1.11477613 C0.0122354074,0.978832595 0,0.72324309 0,0.636241185 C0,0.549239285 0.0108813557,0.244708149 0.0489416297,0.146824889 C0.087001904,0.0489416298 0.282768423,0 0.358905285,0" id="path2492"></path>
                                                    </g>
                                                    <g id="g2494" transform="translate(15.029159, 15.689871)" fill="#FFFFFF">
                                                        <path d="M0,0.0652555065 C0,0.0163138766 0.0693339755,0.00407846915 0.101961729,0.00407846915 C0.134589482,0.00407846915 0.318120593,0.028549284 0.37929763,0.118275605 C0.40921728,0.175374174 0.440474667,0.51388711 0.440474667,0.652555065 C0.440474667,0.791223015 0.407846914,1.01146035 0.362983754,1.11750054 C0.277335902,0.63216272 0,0.0652555065 0,0.0652555065" id="path2496"></path>
                                                    </g>
                                                    <g id="g2498" transform="translate(14.701519, 15.685792)">
                                                        <g id="path2500"></g>
                                                    </g>
                                                    <g id="g2502" transform="translate(14.429624, 15.683068)">
                                                        <g id="path2504"></g>
                                                    </g>
                                                    <g id="g2506" transform="translate(14.152288, 15.681714)">
                                                        <g id="path2508"></g>
                                                    </g>
                                                    <g id="g2510" transform="translate(13.860677, 15.700067)">
                                                        <g id="path2512"></g>
                                                    </g>
                                                    <g id="g2514" transform="translate(13.377379, 19.923322)" fill="#C8213F">
                                                        <path d="M1.0440881,0.538357925 L0.0081569383,0.925812495 C0.0081569383,0.8863166 0.148423649,0.706602935 0.329067204,0.51173368 C0.336734727,0.59791989 0.424160791,0.604967485 0.424160791,0.604967485 C0.5239854,0.604967485 0.796655535,0.467784097 0.796655535,0.205277509 C0.796655535,0.180121511 0.79456736,0.126220463 0.75022624,0.109727134 C0.80311583,0.0670663465 0.85349308,0.0302948688 0.898910915,0.00274073126 L1.04000963,0.469023951 L1.18473003,0.000261022025 C1.23115932,0.0282230065 1.28287431,0.0661364555 1.33718321,0.110412316 C1.31016743,0.140837696 1.28879625,0.178865343 1.28879625,0.216158864 C1.28879625,0.420082322 1.51719052,0.61584884 1.63138766,0.61584884 C1.63138766,0.61584884 1.72865099,0.61310811 1.76485149,0.52630197 C1.93645715,0.71639126 2.06778386,0.890460325 2.06778386,0.933969435 L1.0440881,0.538357925 L1.0440881,0.538357925 L1.0440881,0.538357925 Z" id="path2516"></path>
                                                    </g>
                                                    <g id="g2518" transform="translate(12.800960, 16.041973)" fill="#C8213F">
                                                        <path d="M1.72927092,1.33773788 C1.71295704,1.19634551 1.7238384,0.560104325 1.62050631,0.348023929 C1.47913025,0.59273208 1.52262305,1.08759721 1.48999529,1.29967761 C1.45736754,1.511758 1.31599148,1.78364507 1.31599148,1.99029294 L1.61507378,1.65858289 L1.87609581,2.0011743 C1.87609581,1.70207569 1.7455848,1.47913025 1.72927092,1.33773788 L1.72927092,1.33773788 L1.72927092,1.33773788 Z M3.11322601,2.50961257 C2.85220399,1.41387474 2.39813986,1.3622087 2.30568912,1.25073597 C2.53408339,1.79725084 2.36006327,2.46882789 2.34919823,2.58302502 C2.2785102,2.18062694 2.07186233,2.00660682 2.07186233,2.00660682 L1.90872356,2.36007958 L1.78909391,2.13168531 L1.59875991,2.37094462 L1.42473979,2.14799919 L1.25889292,2.37094462 L1.09846225,2.0011743 C0.94892926,2.19964892 0.91085267,2.322003 0.837440225,2.56671115 C0.69606417,1.90872356 0.87006798,1.2561685 0.87006798,1.2561685 C0.350422069,1.56875869 0.158799275,2.16707011 0.083837012,2.49923695 L0.000342591408,2.44572743 C0.087001904,1.8325867 0.379297631,0.444553137 0.379297631,0.444553137 C0.404094723,0.66620978 0.501015465,1.02371207 0.630808665,1.2344221 C0.796655535,0.451356023 0.99514647,0.0054325209 0.99514647,0.0054325209 L1.16371776,0.20119904 L1.32685653,0.0380602741 L1.4465025,0.20119904 L1.59875991,0.0326277532 L1.75101732,0.217512916 L1.87609581,0.0380602741 L2.03380205,0.222961752 L2.20237334,0 C2.20237334,0 2.44843554,0.56963163 2.57214367,1.30511012 C2.7080872,1.00602783 2.81685182,0.445907188 2.81685182,0.445907188 C2.90928624,0.679750295 3.20295233,2.44164897 3.20295233,2.44164897 L3.11322601,2.50961257 L3.11322601,2.50961257 L3.11322601,2.50961257 Z" id="path2520"></path>
                                                    </g>
                                                    <g id="g2522" transform="translate(13.980992, 18.981195)" fill="#C8213F">
                                                        <path id="path2524"></path>
                                                    </g>
                                                    <g id="g2526" transform="translate(15.702935, 22.857382)" fill="#FFFFFF">
                                                        <path d="M0.81569383,0.66886894 C0.848044245,0.61798596 0.86652787,0.564558015 0.86652787,0.51631788 C0.86652787,0.299343321 0.687075225,0.12343079 0.43964266,0.12343079 C0.277531669,0.12343079 0.134556854,0.198947725 0.055238786,0.312051831 L0.0074554416,0.161882597 C0.113250931,0.0685345955 0.260467353,0.0105877059 0.423328784,0.0105877059 C0.76864461,0.0105877059 1.00654987,0.237007999 1.00654987,0.51631788 C1.00654987,0.58154076 0.99214472,0.643810825 0.96623828,0.70107253 L0.81569383,0.66886894 L0.81569383,0.66886894 L0.81569383,0.66886894 Z" id="path2528"></path>
                                                    </g>
                                                    <g id="g2530" transform="translate(15.808146, 23.084135)" fill="#C8213F">
                                                        <path id="path2532"></path>
                                                    </g>
                                                    <g id="g2534" transform="translate(16.248621, 23.187459)">
                                                        <g id="path2536"></g>
                                                    </g>
                                                    <g id="g2538" transform="translate(12.078657, 22.853527)" fill="#FFFFFF">
                                                        <path d="M0.96251872,0.309963655 C0.88930204,0.200187579 0.758317925,0.127280865 0.59909449,0.127280865 C0.351661923,0.127280865 0.148798868,0.303193396 0.148798868,0.52018427 C0.148798868,0.580512985 0.165112745,0.635817025 0.193678343,0.68423661 L0.0598066715,0.712867465 C0.0315510373,0.653484955 0.0158734019,0.588425215 0.0158734019,0.52018427 C0.0158734019,0.240874387 0.27699331,0.0144540946 0.59909449,0.0144540946 C0.767111105,0.0144540946 0.90958019,0.0681593765 1.01170505,0.15537336 L0.96251872,0.309963655 L0.96251872,0.309963655 L0.96251872,0.309963655 Z" id="path2540"></path>
                                                    </g>
                                                    <g id="g2542" transform="translate(12.333291, 23.078695)" fill="#C8213F">
                                                        <path id="path2544"></path>
                                                    </g>
                                                    <g id="g2546" transform="translate(12.745216, 23.151430)">
                                                        <g id="path2548"></g>
                                                    </g>
                                                    <g id="g2550" transform="translate(15.840774, 19.234060)" fill="#002F5D">
                                                        <path d="M4.94310461,0.96251872 L4.88600604,0.750438325 L0.220237334,0.106040198 C0.220237334,0.106040198 0.146841203,0.0135894592 0.0924507385,0.0135894592 C0.0380602741,0.0135894592 0,0.087001904 0,0.149549306 C0,0.212080395 0.0842938005,0.372494744 0.179452643,0.372494744 C0.261022025,0.372494744 0.26647086,0.299082299 0.26647086,0.299082299 L4.94310461,0.96251872 L4.94310461,0.96251872 L4.94310461,0.96251872 Z" id="path2552"></path>
                                                    </g>
                                                    <g id="g2554" transform="translate(15.928461, 19.849909)" fill="#002F5D">
                                                        <path d="M0.146824889,0 C0.095844025,0 0.0122354074,0.07137321 0.0122354074,0.199844988 C0.0122354074,0.271218198 0.0652555065,0.375219161 0.140707185,0.375219161 C0.18760958,0.375219161 0.226355037,0.320159828 0.226355037,0.320159828 L5.1517917,1.54301539 L5.1218884,1.33093499 L0.237578984,0.11623637 C0.237578984,0.11623637 0.224315803,0 0.146824889,0" id="path2556"></path>
                                                    </g>
                                                    <g id="g2558" transform="translate(15.956342, 20.484789)" fill="#002F5D">
                                                        <path d="M0.195766519,0 C0.099922494,0 0.014943511,0.164492817 0.014943511,0.232815332 C0.014943511,0.301121534 0.058795211,0.363326345 0.106709067,0.363326345 C0.154639236,0.363326345 0.203923457,0.311317707 0.203923457,0.311317707 L5.40940415,2.34376571 L5.38765775,2.12352837 L0.278689953,0.130511012 C0.278689953,0.130511012 0.291610544,0 0.195766519,0" id="path2560"></path>
                                                    </g>
                                                    <g id="g2562" transform="translate(8.043808, 19.714316)" fill="#002F5D">
                                                        <polygon id="path2564" points="1.71295704 0.244708148 0.00301806717 0.486349288 0.0641951045 0.266111955 1.93061679 0.00980463985"></polygon>
                                                    </g>
                                                    <g id="g2566" transform="translate(9.746028, 19.544662)" fill="#FFFFFF">
                                                        <polygon id="path2568" points="0.228394272 0.179452642 1.48227883 0.0072596751 1.44492005 0.211705176 0.0107345308 0.414356151"></polygon>
                                                    </g>
                                                    <g id="g2570" transform="translate(11.177722, 19.234060)" fill="#002F5D">
                                                        <path d="M1.61507378,0.375219161 C1.54438575,0.375219161 1.51583647,0.309963655 1.51583647,0.309963655 L0.0132305539,0.522305075 L0.0505893315,0.317859571 L1.56340773,0.110118667 C1.56340773,0.110118667 1.63411207,0.0149598248 1.69664317,0.0149598248 C1.75917426,0.0149598248 1.77548813,0.106040198 1.77548813,0.141392368 C1.77548813,0.218883282 1.71975993,0.375219161 1.61507378,0.375219161" id="path2572"></path>
                                                    </g>
                                                    <g id="g2574" transform="translate(7.736466, 20.810977)" fill="#002F5D">
                                                        <polygon id="path2576" points="1.58244603 0.195766519 0.00854847135 0.58875149 0.0493331628 0.368514158 1.49732022 0.0095599317"></polygon>
                                                    </g>
                                                    <g id="g2578" transform="translate(9.233790, 20.331129)" fill="#FFFFFF">
                                                        <polygon id="path2580" points="0 0.489416297 1.91342196 0.0150903358 1.95794252 0.208001926 0.085125808 0.675622885"></polygon>
                                                    </g>
                                                    <g id="g2582" transform="translate(11.146456, 19.835635)" fill="#002F5D">
                                                        <path d="M1.59875991,0.391533038 C1.5457398,0.391533038 1.50699435,0.338512939 1.50699435,0.338512939 L0.0452710075,0.703486985 L0.000750438325,0.51059171 L1.47640583,0.144785654 C1.47640583,0.144785654 1.51719052,0.00203923457 1.59468144,0.00476365196 C1.64905558,0.00476365196 1.70887857,0.135274664 1.70887857,0.197805753 C1.70887857,0.2494718 1.70072164,0.391533038 1.59875991,0.391533038" id="path2584"></path>
                                                    </g>
                                                    <g id="g2586" transform="translate(11.370772, 20.471876)" fill="#002F5D">
                                                        <path d="M1.37036563,0.375219161 C1.32958094,0.375219161 1.28267855,0.336473704 1.28267855,0.336473704 L0.082613471,0.80424149 L0.00177821254,0.62350005 L1.19091299,0.157021062 C1.19091299,0.157021062 1.2092661,0.0061177037 1.28471778,0.0061177037 C1.36016946,0.0061177037 1.45193502,0.18760958 1.45193502,0.250825852 C1.45193502,0.279375137 1.44581731,0.375219161 1.37036563,0.375219161" id="path2588"></path>
                                                    </g>
                                                    <g id="g2590" transform="translate(7.456875, 22.017719)" fill="#002F5D">
                                                        <polygon id="path2592" points="1.54981827 0.212080395 0.00672131715 0.81355671 0.031192132 0.601476315 1.54696334 0.00685182815"></polygon>
                                                    </g>
                                                    <g id="g2594" transform="translate(9.003842, 21.094687)" fill="#FFFFFF">
                                                        <polygon id="path2596" points="0 0.929890965 2.36870963 0.000685182815 2.44954488 0.181426621 0.0028549284 1.13511954"></polygon>
                                                    </g>
                                                    <g id="g2598" transform="translate(8.950878, 13.453508)" fill="#D69C05">
                                                        <path d="M0.652555065,6.1829592 L0.64712254,6.33521665 L2.72984991,4.05672275 C2.82699904,3.5186911 2.93344709,3.11487371 3.0452624,2.75161262 C3.29582723,1.93763175 3.52601603,1.55249375 3.85007487,1.23985462 L3.89358398,1.45736753 C3.89358398,1.45736753 4.1110969,1.08214837 4.42649307,0.799379955 C4.46727777,0.86598951 4.5814749,1.11069766 4.5814749,1.11069766 C4.5814749,1.11069766 4.87920315,0.64167371 4.96892947,0.58049667 L5.1239113,0.92716655 L5.425718,0.441828719 L5.7152893,0.92716655 L5.8906635,0.568261265 L6.2618042,1.11069766 L6.40658985,0.782380895 C6.7858875,1.15556082 6.9102808,1.40638667 6.93271235,1.45328907 C6.97961475,1.40638667 6.9694186,1.2432479 6.9694186,1.2432479 L7.2182052,1.47368141 C7.2182052,1.47368141 7.3697122,1.65194314 7.53428655,1.98756852 C7.71917175,2.36459852 8.0196244,3.28044324 8.1569383,4.03496003 L10.4136858,6.5146693 L10.8867882,6.1775267 L11.2185145,5.5847783 L9.2064589,3.49116959 L9.0705154,3.05612744 C9.89709055,3.82287964 11.7351098,5.16606635 11.7351098,5.16606635 L12.5127433,4.5787668 L12.0505222,3.01263464 L11.1750054,3.31171694 L10.120036,2.37639346 L10.4136858,2.21868721 C10.4136858,2.21868721 10.0330341,1.63138766 9.97865995,1.60419242 L10.2831747,1.5987599 L9.5245795,0.241983731 L9.72034605,1.97125465 L8.2031555,0.0299033358 L2.66627474,0.00399689976 L1.25140484,1.96921541 L1.58787855,0.195766519 L0.796655535,1.54709386 L1.03320674,1.58244603 L0.53155504,2.27713983 L0.845597165,2.27306136 L0.0135894592,3.37016956 L0.176728225,3.61079924 L2.12623647,2.03651015 L0.413279436,4.45504236 L0.58049667,4.77724142 L2.82773317,3.03981356 L2.53408339,3.74675909 L0.652555065,6.1829592 L0.652555065,6.1829592 L0.652555065,6.1829592 Z" id="path2600"></path>
                                                    </g>
                                                    <g id="g2602" transform="translate(12.333291, 6.868125)" fill="#D69C05">
                                                        <polygon id="path2604" points="2.00660682 0 2.75704514 0.96251872 2.56671115 0.94620484 3.33891218 1.88154464 2.87669112 1.8108403 4.97573236 4.64945483 3.86095623 3.63799448 3.75219162 3.99146724 2.75704514 2.7896729 2.59935521 3.15945953 2.04466709 2.43076761 1.54981828 3.14857818 1.37579816 2.79512173 0.337158888 3.98058588 0.91900961 2.93106526 0.0108813557 3.55642509 0.94620484 2.43621644 0.233826793 2.76249397 1.10391109 1.83803553 0.690615335 1.88697717 1.47368141 0.978832595 1.14197136 1.06040198"></polygon>
                                                    </g>
                                                    <g id="g2606" transform="translate(12.425733, 5.106243)" fill="#D69C05">
                                                        <polygon id="path2608" points="0.652555065 0 0.489416298 0.0217463975 0.0489416297 1.2779149 0.304531134 1.20722686 0.0054325209 1.76189867 0.391533038 1.63682018 0.0924507385 2.19694082 0.440474668 2.03923458 0.320845011 2.69178964 0.76131968 1.93591879 0.84832158 1.26160102"></polygon>
                                                    </g>
                                                    <g id="g2610" transform="translate(15.049551, 3.703250)" fill="#D69C05">
                                                        <path d="M1.38667951,4.84522134 C1.38667951,4.84522134 1.58244603,4.26607872 1.16644218,2.00660682 L0.0734124445,0.0081569383 L0,0.456788544 L0.195766519,1.12565749 L0.252865087,1.3622087 L0.43231773,1.43562114 L0.342591408,1.76189867 L0.375219162,2.65916189 L0.53020099,2.78967289 L0.497573236,3.10779349 L0.489416298,3.55642509 L1.38667951,4.84522134 L1.38667951,4.84522134 L1.38667951,4.84522134 Z" id="path2612"></path>
                                                    </g>
                                                    <g id="g2614" transform="translate(13.665588, 0.581867)" fill="#D69C05">
                                                        <polygon id="path2616" points="1.12565749 1.51719052 1.42473979 1.96309771 1.42473979 0.179452642 1.2344221 0.0734124445 1.08214838 0.239259314 1.02234171 0.0163138766 0.777633555 0.0054325209 0.69606417 0.233826793 0.581867035 0.0108650418 0.358905285 0.0326277531 0.320845011 0.309963655 0.168571287 0.125062178 0.0108813557 0.25557319 0.0108813557 0.380651682 1.16371776 0.788498595"></polygon>
                                                    </g>
                                                    <g id="g2618" transform="translate(11.996140, 3.042538)" fill="#D69C05">
                                                        <path d="M1.50087664,0.309963655 C1.50087664,0.309963655 1.18548047,1.46824889 1.14469578,1.5335044 L0.95300773,1.30511013 L1.0631264,0.787144545 L0.00272441739,0.293649779 L0.00272441739,0.163138766 L0.190333998,0.085647852 L0.341237356,0.256943556 L0.398335924,0.0163138766 L0.65120101,0 L0.75316274,0.228394272 L0.867359875,0.061177037 L1.12430343,0.110118667 L1.13653884,0.371140692 L1.30783454,0.212080396 L1.50087664,0.309963655 L1.50087664,0.309963655 L1.50087664,0.309963655 Z" id="path2620"></path>
                                                    </g>
                                                    <g id="g2622" transform="translate(17.672007, 2.186059)" fill="#D69C05">
                                                        <path d="M0,0 L0.0319262565,0.115714326 C0.262849179,0.33001341 0.469023951,0.69604786 0.469023951,0.69604786 L0.51253306,1.04407179 L0.61041632,0.766735885 L0.643044075,1.51174168 L0.78986896,1.06038567 L0.89863358,1.6205063 L0.95300773,1.25615218 L1.11614649,1.63682018 C1.08896758,1.40026897 0.98268267,1.16314677 0.86055699,0.91900961 C0.675622885,0.54930454 0.45656015,0.271756556 0.225832993,0.066511675 L0,0 L0,0 L0,0 Z" id="path2624"></path>
                                                    </g>
                                                    <g id="g2626" transform="translate(17.939832, 11.098869)" fill="#D69C05">
                                                        <path d="M0,1.12565748 L1.33228905,2.77880785 L1.14197136,2.77880785 L1.52262305,3.17577341 L1.7075082,2.84949588 L1.76733119,2.8114356 C1.78976277,2.61328726 1.80376008,2.32761497 2.04739151,1.9195886 C2.15813011,1.73413245 2.3189523,1.54285225 2.54496475,1.28879625 C2.49057428,1.82172165 2.51776951,2.26219633 2.51776951,2.26219633 L2.86036093,2.2785102 L2.97455806,2.01203934 L3.69780115,1.38124699 L3.03438104,1.54981827 L3.25189396,1.22354074 L2.72441739,1.23985462 L3.00718581,1.03865558 L2.36006327,0.79394743 L1.3431704,1.09302973 L1.72382208,0.59273208 L0.77761724,0.706929215 L1.19091299,0.288217257 L0.59273208,0 L0.266454546,0.445907188 L0,1.12565748 L0,1.12565748 L0,1.12565748 Z" id="path2628"></path>
                                                    </g>
                                                    <g id="g2630" transform="translate(19.516845, 11.800373)" fill="#D69C05">
                                                        <path d="M0.163138766,2.56127862 L0.0054325209,2.80055425 L0.212080396,3.643427 L0.82112635,4.1110969 L1.53893692,3.84464235 L1.57156468,3.95339066 L1.68576181,3.90989786 L1.92503744,4.44825578 C1.92503744,4.44825578 2.04602115,4.22393999 2.52321835,3.87182127 C2.52321835,3.87182127 2.60069295,3.42048156 2.17245369,2.00525277 C2.32335704,2.13168531 3.26956189,2.91067292 3.57273897,3.76850549 L3.68148727,3.79570073 C3.68148727,3.79570073 3.76305666,3.34706912 4.12196194,3.14314566 C4.14370834,2.0664298 3.65429204,1.37036563 3.453093,0.973400075 C3.89356767,1.23985462 4.774517,1.70752452 5.2802472,2.69451405 C5.2863649,2.60682697 5.20683475,2.23772551 5.2639333,2.08274368 C5.29305355,2.00367032 5.44599615,1.88766235 5.53311225,1.74830921 C5.57389695,1.68305371 5.5820539,1.53622882 5.5820539,1.47913025 C5.5820539,1.42203168 5.3699735,0.60633785 5.2394625,0.4676699 L5.03553905,0.51661153 L4.75820312,0.157706245 C4.75820312,0.157706245 4.39114091,0.0108813557 4.13011888,0.0108813557 C3.97417453,0.0108813557 3.74586183,0.0257106695 3.53058391,0.080215331 C3.23091432,0.156058544 3.16760016,0.214804813 2.90657814,0.296374196 L1.58244603,1.44785655 L1.41385843,1.84619247 C1.41385843,1.84619247 1.03863927,1.76462309 0.989697635,1.79725084 C0.940756005,1.8298786 1.18546416,2.79239732 1.51174169,3.52652176 C0.997854575,3.59177727 0.06796361,3.46942319 0.163138766,2.56127862" id="path2632"></path>
                                                    </g>
                                                    <g id="g2634" transform="translate(21.827967, 15.840774)" fill="#D69C05">
                                                        <path d="M0.195766519,0.163138766 C0.138667951,0.277335902 0.0217463975,0.402414393 0.0217463975,0.61992731 C-0.0489416298,0.799379955 0.546514865,1.77005561 1.50087664,1.94678383 L1.63138766,1.38667951 C1.63138766,1.38667951 1.70752452,2.01203934 1.63138766,2.18605946 C1.5335044,2.24315803 0.91900961,2.25131497 0.91900961,2.25131497 L0.80210437,2.50961257 L1.15285272,3.62440502 C1.15285272,3.62440502 1.81899724,3.75219161 1.85978193,3.74403467 C1.90056662,3.73587773 2.75704514,3.05069492 2.76520208,3.01806717 C2.76795912,3.0070553 2.66462703,2.6743501 2.50418005,2.25131497 C2.18937118,1.42124861 1.72927092,0.326277531 1.69664317,0.130511012 L1.37036563,0 C1.37036563,0 1.65585847,0.750438325 1.46009195,1.7048001 C0.799379955,1.63954459 0.0978832595,0.823850765 0.0978832595,0.587299555 C0.0978832595,0.448631606 0.212080395,0.309963655 0.195766519,0.163138766" id="path2636"></path>
                                                    </g>
                                                    <g id="g2638" transform="translate(23.687749, 14.813000)" fill="#D69C05">
                                                        <path d="M1.33773788,3.26277532 L2.03923458,3.32803083 C2.03923458,3.32803083 2.74073126,2.5775925 2.77335902,2.47970924 C2.80598677,2.38182598 1.54166133,0.0489416298 1.54166133,0.0489416298 C1.54166133,0.0489416298 1.32958094,-0.0163138766 1.24801156,0.0163138766 C1.24801156,0.0163138766 1.46824889,0.636241185 1.34589482,1.38667951 C0.538357925,1.28063931 0,0.57914262 0,0.57914262 L0.057098568,0.799379955 C0.407846914,1.24801156 0.938047905,1.6395446 1.46009195,1.63138766 C1.50087664,1.48456277 1.54981828,1.0440881 1.54981828,1.0440881 C1.54981828,1.0440881 1.62323072,1.07671586 1.62323072,1.85162499 C1.3377542,1.98486042 0.902712045,1.94678384 0.902712045,1.94678384 L0.821142665,2.12080396 L1.33773788,3.26277532 L1.33773788,3.26277532 L1.33773788,3.26277532 Z" id="path2640"></path>
                                                    </g>
                                                    <g id="g2642" transform="translate(25.112505, 13.377379)" fill="#D69C05">
                                                        <path d="M1.2561685,2.05554845 L1.2344221,2.24588244 L1.57156468,2.96369301 L2.2785102,2.90387003 C2.2785102,2.90387003 2.65914557,2.16431306 2.69722215,2.0011743 L1.93590248,0.679750295 L1.60146801,0.0734124445 C1.60146801,0.0734124445 1.55251007,0.0081569383 1.31325075,0.0081569383 C1.31325075,0.0081569383 1.6205063,0.788498595 1.5987599,1.43018862 C0.443182771,1.28607183 0.057082254,0.649830645 0.057082254,0.649830645 L0.057082254,0.456788544 C0.057082254,0.456788544 0.0135894592,0.527492885 0.0135894592,0.62808425 C0.0135894592,0.728691925 0.0788449655,0.89183069 0.0788449655,0.89183069 L0.367731092,1.17867758 C0.367731092,1.17867758 0.99514647,1.71295704 1.74013596,1.69664316 C1.77821254,1.47368141 1.78909391,1.07128333 1.78909391,1.07128333 C1.78909391,1.07128333 1.88697717,1.15285271 1.96309771,1.87066328 C1.66401541,2.02835321 1.2561685,2.05554845 1.2561685,2.05554845" id="path2644"></path>
                                                    </g>
                                                    <g id="g2646" transform="translate(26.031515, 11.569263)" fill="#D69C05">
                                                        <path d="M0.0489416297,0.783066075 C0.0489416297,0.783066075 0.0271789184,0.657987585 0.0163138766,0.649830645 C0.0163138766,0.649830645 -0.0135894592,0.690599025 0.0163138766,0.802088055 C0.0163138766,0.802088055 0.0676373325,0.87271083 0.154981828,0.957069885 C0.395595193,1.1893958 1.00465746,1.59603549 1.54981828,1.46552448 C1.6205063,1.36083833 1.58242971,0.92716655 1.58107566,0.931245015 C1.63274171,0.992422055 1.82035129,1.46552448 1.86521445,1.71566515 C1.5307963,1.87337139 1.26567948,1.90192068 1.26567948,1.90192068 L1.25344408,2.09360873 C1.28607183,2.14799919 1.63682018,2.79102695 1.70207569,2.79102695 C1.76733119,2.79102695 2.15070729,2.72984991 2.30568912,2.69722215 C2.32745183,2.62110161 2.4932987,2.13031494 2.51369104,1.99164699 C2.26082596,1.50630916 1.54709386,0.29500383 1.41250437,0.0829234345 C1.33501346,0.0462172123 1.12701154,-0.00272441739 1.00601151,0.0081406244 C1.00601151,0.0081406244 1.37036563,0.377927265 1.46280006,1.30238571 C0.679750295,1.33773788 0.160414348,0.908128255 0.0489416297,0.783066075" id="path2648"></path>
                                                    </g>
                                                    <g id="g2650" transform="translate(7.198498, 11.236182)" fill="#D69C05">
                                                        <path d="M2.38182598,0 L2.99767482,0.558750275 L3.37289399,1.34997328 L2.26355038,2.5898279 L2.5245724,2.56535709 L2.10856855,3.03845951 C2.10856855,3.03845951 1.92911591,2.70402504 1.87201734,2.67955423 C1.86793887,2.61022025 1.84346806,2.12080395 1.43969961,1.53758287 L1.0909905,1.14401059 C1.0909905,1.14401059 1.17867759,1.96990059 1.10526514,2.15751018 C0.685182815,1.66401541 0.0081569383,0.974754125 0.0081569383,0.974754125 L0.974754125,1.03185269 L0.734124445,0.685182815 L1.60691685,0.80345842 L1.31734554,0.440474667 L2.38182598,0 L2.38182598,0 L2.38182598,0 Z" id="path2652"></path>
                                                    </g>
                                                    <g id="g2654" transform="translate(3.648876, 11.800373)" fill="#D69C05">
                                                        <path d="M5.46514865,2.61022026 L5.5793458,2.78424037 L5.3672654,3.63799448 L4.78539836,4.10566438 L3.95339066,3.82287964 L3.68150359,4.44280695 C3.57817149,4.3014309 3.4096002,4.10021555 3.06157628,3.87182127 C3.06157628,3.87182127 3.05252208,3.60066833 3.11322601,3.24102892 C3.18099386,2.83941391 3.32501275,2.32785968 3.44766048,1.96854654 C3.44766048,1.96854654 2.3872585,2.75161262 2.04466709,3.77122991 L1.8978422,3.79025189 C1.88462796,3.65819106 1.75644983,3.28997055 1.46824889,3.14314566 C1.46824889,3.14314566 1.47498652,2.75097638 1.60419242,2.24588244 C1.71440898,1.81501665 1.93591879,1.35405175 2.1099226,1.00057899 C1.5144661,1.29152066 0.64167371,1.96854654 0.315396176,2.69451405 C0.315396176,2.69451405 0.348023929,2.37639346 0.348023929,2.24180398 C0.348023929,2.1072145 0.241983731,1.90736951 0.05845262,1.74830921 C0.0543741505,1.69936758 0.00951099005,1.52399341 0.0054325209,1.48728719 C0.00135405176,1.45058097 0.237905262,0.740927335 0.396965559,0.475826839 L0.58457514,0.492140715 L0.853754105,0.149549307 C0.853754105,0.149549307 1.31054264,0.0054325209 1.44105366,0.0054325209 C1.57156467,0.0054325209 2.31384605,0.076136862 2.53408339,0.194412467 C2.63751337,0.249944903 2.96258367,0.53984249 3.28554949,0.82453595 C3.65031146,1.14604983 4.01048922,1.46281637 4.01048922,1.46281637 L4.18994186,1.85434941 C4.18994186,1.85434941 4.56245292,1.76733119 4.61139455,1.8108403 C4.66033618,1.85434941 4.50398399,2.61702314 4.08798013,3.52652176 C4.28374665,3.57138492 5.49913045,3.62440502 5.46514865,2.61022026" id="path2656"></path>
                                                    </g>
                                                    <g id="g2658" transform="translate(5.089930, 15.954972)" fill="#D69C05">
                                                        <path d="M1.48456277,3.23014756 C1.48456277,3.23014756 2.22684416,0.889106275 2.24315803,0.77490914 C2.25947191,0.660712 1.87609581,0.171295704 1.65585848,0.0244708149 C1.64770153,0.171295704 1.75374173,0.440474667 1.75374173,0.440474667 C1.7167908,0.584053095 1.71966204,0.713079545 1.33773788,1.08487279 C1.13748505,1.2798073 0.88298857,1.48022328 0.399689976,1.60487761 C0.212080395,0.82996847 0.456788544,0.0081569383 0.456788544,0.0081569383 C0.456788544,0.0081569383 -0.130511012,0.85647852 0.375219162,1.88425274 C0.973400075,1.75101731 1.42473979,1.321424 1.42473979,1.321424 C1.42473979,1.321424 1.3557484,1.42999285 1.25073597,1.57428909 C1.08050067,1.80819745 0.79225079,2.13814561 0.375219162,2.26762884 C0.350748346,2.3655121 0,3.20567675 0,3.20567675 L0.228394272,3.36065857 L1.48456277,3.23014756 L1.48456277,3.23014756 L1.48456277,3.23014756 Z" id="path2660"></path>
                                                    </g>
                                                    <g id="g2662" transform="translate(3.099636, 14.894569)" fill="#D69C05">
                                                        <path d="M0.163138766,3.03438104 L1.13789289,3.0670088 C1.13789289,3.0670088 1.90056662,1.12973595 1.93727285,0.991068 C1.97397906,0.85240005 2.23500109,0.80345842 2.23500109,0.80345842 C2.23500109,0.80345842 2.24315803,0.603613435 2.04739151,0.358905285 C1.91280203,0.7667522 1.04000963,1.27656085 0.63216272,1.321424 C0.52747657,0.342591408 0.71781057,0.0054325209 0.71781057,0.0054325209 C0.71781057,0.0054325209 0.665655105,0.061894848 0.61449479,0.184885164 C0.530184675,0.387568766 0.429593312,0.733357695 0.429593312,1.02777422 C0.429593312,1.18683452 0.53020099,1.59060296 0.53020099,1.59060296 C0.53020099,1.59060296 0.95436178,1.58244603 1.54981828,1.20722686 C1.46009195,1.35813023 0.95436178,1.86793887 0.3833761,1.94950825 L0.087001904,2.62653413 L0,2.78424037 L0.163138766,3.03438104 L0.163138766,3.03438104 L0.163138766,3.03438104 Z" id="path2664"></path>
                                                    </g>
                                                    <g id="g2666" transform="translate(1.490004, 13.507890)" fill="#D69C05">
                                                        <path d="M0.978832595,2.8549284 L1.90329104,1.14740388 C1.90329104,1.14740388 2.13168531,1.07128333 2.22956857,1.10391109 C2.28394272,0.886381855 2.26219633,0.473102421 2.26219633,0.473102421 C2.26219633,0.473102421 2.16431306,0.277319588 2.09905756,0.25557319 C2.11807954,0.320828697 2.1099226,0.418711956 2.09905756,0.516595215 C2.09905756,0.516595215 1.88071264,0.95857076 1.04681252,1.20179434 C0.899547155,1.24473247 0.73149791,1.27191139 0.54379045,1.29967761 C0.598180915,0.51661153 0.826575185,0.00407846915 0.826575185,0.00407846915 C0.826575185,0.00407846915 0.320845011,0.53020099 0.492140715,1.54981828 C1.09167568,1.5335044 1.57293504,1.21130534 1.57293504,1.21130534 C1.57293504,1.21130534 1.05496945,1.80676183 0.357551233,1.85570346 L0.0108813557,2.43076761 L0.116921553,2.65100494 L0.978832595,2.8549284 L0.978832595,2.8549284 L0.978832595,2.8549284 Z" id="path2668"></path>
                                                    </g>
                                                    <g id="g2670" transform="translate(0.625368, 11.544792)" fill="#D69C05">
                                                        <path d="M0,2.47970924 L0.076136862,2.70267099 L0.609045955,2.88755615 C0.609045955,2.88755615 1.13653884,2.01203934 1.22354074,1.78364507 C1.36493311,1.56340773 1.85978193,1.59331107 1.85978193,1.59331107 C1.85978193,1.59331107 2.1072145,1.18818858 2.15615612,1.14740388 C2.17654847,1.0780699 2.20101929,0.59273208 2.20101929,0.59273208 C2.20101929,0.59273208 2.14799919,0.503005755 2.1072145,0.490770349 C2.0664298,0.478534942 2.09497909,0.792577065 2.09497909,0.792577065 C2.09497909,0.792577065 1.58517044,1.33909193 0.64712254,1.32277805 C0.70829958,0.53563351 1.11206802,0.0054325209 1.11206802,0.0054325209 C1.11206802,0.0054325209 0.920379975,0.131865064 0.85512447,0.254219139 C0.78986896,0.376573213 0.4676699,0.957069885 0.541082345,1.53077998 C1.04681252,1.54981828 1.58244603,1.34589482 1.58244603,1.34589482 C1.51725578,1.4602714 1.15549557,1.67974199 1.01961729,1.73197902 C0.89775263,1.77883247 0.68860873,1.8023734 0.402414394,1.8543331 L0,2.47970924 L0,2.47970924 L0,2.47970924 Z" id="path2672"></path>
                                                    </g>
                                                    <g id="g2674" transform="translate(12.746579, 5.100811)" fill="#FFFFFF">
                                                        <polygon id="path2676" points="0.86463546 1.38667951 0.505730175 2.05554845 0 2.69722215 0.41872827 1.72927092 0.244708148 1.78907759 0.407846914 1.33228905 0.146824889 1.42473979 0.386100517 0.82112635 0.081569383 1.01689287 0.331710053 0.0054325209 0.57098568 0.369770327"></polygon>
                                                    </g>
                                                    <g id="g2678" transform="translate(10.201614, 9.978644)" fill="#FFFFFF">
                                                        <path d="M1.5335044,2.46339536 L0.000685182815,5.44408745 L1.69121064,3.70324998 L1.05496945,5.285696 L2.02835322,4.36125388 L1.90872356,5.38357925 C1.97397906,5.2367544 2.42533509,4.50807877 2.67547576,4.25792179 L2.74073126,4.51351129 C3.0670088,4.07846914 3.26277531,3.92621173 3.26277531,3.92621173 L3.39871885,4.18180124 L3.55642509,3.96427201 L3.75762413,3.76850549 L3.88813515,3.98603472 L4.16547105,3.5999342 L4.45912083,4.00778112 L4.62770843,3.77395433 L4.81802612,3.95340697 L4.97573236,4.20354763 C4.97573236,4.20354763 5.1388711,3.98058588 5.1388711,3.92621173 C5.2367544,3.94252561 5.50865775,4.28511702 5.63371995,4.5570204 C5.6500338,4.46456966 5.6881104,4.3014309 5.67179655,4.25792179 C5.67179655,4.25792179 6.1829592,4.82890747 6.5146693,5.44340225 L6.4330999,4.35580505 L7.40106745,5.27483095 L6.78114015,3.71413134 L8.46962635,5.44612665 L6.93339755,2.47970924 L6.7702588,3.05069492 L6.0089391,1.50632548 L5.80230755,1.96311403 L5.0083601,0.603613435 L4.85065386,1.05496945 L4.23072656,0.0108813557 L3.61079924,1.0440881 L3.45854184,0.61449479 L2.6645944,1.96311403 L2.45251401,1.511758 L1.70207569,3.06157628 L1.5335044,2.46339536 L1.5335044,2.46339536 L1.5335044,2.46339536 Z" id="path2680"></path>
                                                    </g>
                                                    <g id="g2682" transform="translate(13.956521, 5.008360)" fill="#FFFFFF">
                                                        <path d="M0,1.14197136 L0.293649779,1.67217235 L0.350748346,0.0081569383 C0.350748346,0.0081569383 0.081569383,0.685182815 0,1.14197136" id="path2684"></path>
                                                    </g>
                                                    <g id="g2686" transform="translate(14.870099, 3.703250)" fill="#FFFFFF">
                                                        <path d="M1.56613215,4.84522134 C1.56613215,4.84522134 0.538357925,3.64615141 0.301806717,3.28724613 L0.587299555,2.81414371 L0.220237334,2.81414371 L0.464945482,2.31657047 L0.154981827,2.30841354 C0.181491877,2.2411188 0.56555316,1.47503547 0.56555316,1.47503547 L0.405122497,1.38666319 C0.405122497,1.38666319 0.112843084,0.303144454 0.0135894592,0.0924344245 L0.252865087,0.0081569383 L0.252865087,0.418711956 L0.386084203,0.551931075 L0.345315825,0.902695735 L0.50845459,1.03320674 L0.43775025,1.28877993 L0.67702588,1.37579816 L0.58457514,1.7292546 L0.769476615,1.82713787 L0.638965605,2.1534154 L0.87822492,2.20235702 L0.671593355,2.56671115 L1.01418476,2.58845754 L0.785790495,2.9854231 L1.1283819,2.9854231 L0.86191104,3.55640878 L1.11206802,3.4748394 L1.56613215,4.84522134 L1.56613215,4.84522134 L1.56613215,4.84522134 Z" id="path2688"></path>
                                                    </g>
                                                    <g id="g2690" transform="translate(16.269013, 1.712957)" fill="#FFFFFF">
                                                        <path d="M1.40299339,0.473102421 L1.43493596,0.588882005 C1.42839409,0.58281324 1.4218196,0.57679342 1.41522879,0.570969365 C0.898617265,0.114180822 0.229764638,0.103315781 0.00137036563,0.119629657 L0.164509131,0.0271789184 C0.164509131,0.0271789184 0.262392391,0.0162975627 0.322199063,0.0162975627 C0.69322556,0.0162975627 1.18265817,0.142925873 1.62854904,0.539434645 L1.40299339,0.473102421 L1.40299339,0.473102421 L1.40299339,0.473102421 Z" id="path2692"></path>
                                                    </g>
                                                    <g id="g2694" transform="translate(17.880008, 4.967575)" fill="#C8213F">
                                                        <path d="M0,0.832007705 L0.228394272,1.60691684 C0.228394272,1.60691684 0.318120593,0.80753689 0.28549284,0.473102421 L0.448631606,0.67294741 L0.440474667,0.00407846914 L0.358905285,0.399689976 L0.154981828,0.114197136 L0.154981828,1.07671585 L0,0.832007705 L0,0.832007705 L0,0.832007705 Z" id="path2696"></path>
                                                    </g>
                                                    <g id="g2698" transform="translate(18.116560, 3.829683)" fill="#C8213F">
                                                        <polygon id="path2700" points="0.0489416297 1.10934361 0.0122354074 0.444553137 0.14274642 0.57506415 0.138667951 0.203923458 0.305885186 0.342591408 0.309963655 0.0122354075 0.416003853 0.61584884 0.261022025 0.51388711 0.265100495 0.876870865 0.118275605 0.734124445"></polygon>
                                                    </g>
                                                    <g id="g2702" transform="translate(18.282423, 3.860956)" fill="#C8213F">
                                                        <path d="M0.440474667,0 L0.565536845,0.35345645 L0.614478475,1.23985462 L0.494848819,1.16371776 L0.59273208,1.82715417 L0.424160791,1.66401541 L0.467653586,2.3002566 L0.266454546,2.15886423 L0.271887067,2.53408339 L0.114197136,2.37637715 L0.0163138766,2.84947957 L0.0054325209,1.93046996 L0.125062178,2.08272737 L0.146824889,1.76189867 L0.304514821,1.91415608 L0.239259314,0.761303365 L0.456788545,0.935323485 C0.456788545,0.935323485 0.429609626,0.0924507385 0.440474667,0" id="path2704"></path>
                                                    </g>
                                                    <g id="g2706" transform="translate(21.599573, 12.504587)" fill="#C8213F">
                                                        <path d="M0.0163138766,1.01146035 C-0.0368693611,0.95827711 0.10331578,0.71508615 0.130511012,0.67702588 C0.157706245,0.638965605 0.447179671,0.385366392 0.67702588,0.193042102 C0.73097587,0.147901605 0.771825815,0.103886766 0.80753689,0.081569383 C0.938047905,4.33680869e-17 1.15285272,-0.00137036564 1.20179434,0.014943511 C1.25073597,0.0312573876 1.0440881,0.61992731 0.986989535,0.66886894 C0.929890965,0.71781057 0.0652555065,1.06040198 0.0163138766,1.01146035" id="path2708"></path>
                                                    </g>
                                                    <g id="g2710" transform="translate(21.585776, 13.875207)" fill="#C8213F">
                                                        <path d="M0.440474667,1.40299338 C0.338039837,1.44005851 0.232276975,1.47549225 0.122566155,1.50877256 C0.0464456066,1.35651515 -0.0296912554,0.127509259 0.035564251,0.051388711 C0.0408173192,0.0452546936 0.0739508025,0.0290223864 0.126089952,0.0057261707 C0.325902313,0.67821679 0.408238447,1.12422186 0.440474667,1.40299338" id="path2712"></path>
                                                    </g>
                                                    <g id="g2714" transform="translate(23.124012, 12.262141)" fill="#C8213F">
                                                        <path d="M0,0.603613435 C0.085125808,0.428793932 0.167200921,0.266536116 0.210285869,0.228834747 C0.266063013,0.180039942 0.918650705,0.0820424855 1.39992637,0.0180105197 L1.63230123,0.00588930945 C1.68243378,0.0591541165 1.74457333,0.212341417 1.80214501,0.384012341 C1.69431028,0.58953456 1.50391103,1.00633779 1.13136734,1.46862411 C0.742623975,1.05477369 0.309751575,0.788204945 0,0.603613435" id="path2716"></path>
                                                    </g>
                                                    <g id="g2718" transform="translate(21.753057, 12.967875)" fill="#C8213F">
                                                        <path d="M1.321424,0 C1.50151288,0.326212276 1.75834224,0.792316045 1.85118451,1.42304314 C1.61430703,1.61960904 1.33733003,1.81053033 1.01247181,1.98349005 C0.66394215,1.47273521 0.194347212,1.05643771 0.00275704514,0.89367416 C0.303438105,0.76270636 1.00891539,0.480019504 1.10813638,0.393197053 C1.14699603,0.359198934 1.23204027,0.184640455 1.321424,0" id="path2720"></path>
                                                    </g>
                                                    <g id="g2722" transform="translate(3.850075, 12.276192)" fill="#C8213F">
                                                        <path d="M0.195766519,0 C0.533219055,0.0273583711 1.48766241,0.124001776 1.61507378,0.244708149 C1.66321603,0.290305434 1.72326741,0.430164298 1.79105157,0.585390835 C1.43927545,0.775398555 1.01699075,1.07989706 0.66921153,1.43955279 C0.446021386,1.15707801 0.223989526,0.817945145 0.0084342742,0.407667462 C0.0690892675,0.253794978 0.139597842,0.0960234775 0.195766519,0" id="path2724"></path>
                                                    </g>
                                                    <g id="g2726" transform="translate(5.172853, 12.948694)" fill="#C8213F">
                                                        <path d="M0.832007705,1.99029294 C0.570953055,1.86090759 0.291202697,1.69181425 0.00443737443,1.45098881 C0.0232472742,1.34315408 0.0478975417,1.22388334 0.080215331,1.09754868 C0.174933699,0.727337875 0.351743493,0.335054397 0.51005335,0.007667522 C0.582177,0.168979133 0.661478755,0.329882899 0.74365175,0.406917023 C0.84398209,0.500982835 1.4842528,0.758954165 1.80708811,0.912761395 C1.60078283,1.08338823 1.16207006,1.47751517 0.832007705,1.99029294" id="path2728"></path>
                                                    </g>
                                                    <g id="g2730" transform="translate(6.721317, 13.883109)" fill="#C8213F">
                                                        <path d="M0.440474667,0.081569383 C0.481259359,0.318120593 0.320845011,1.40842591 0.293649779,1.47913025 C0.207838788,1.43942227 0.113495639,1.40165565 0.0121048964,1.36229026 C0.019299316,1.29879666 0.0286145395,1.23035995 0.0407846915,1.15828523 C0.100819757,0.802512215 0.220661494,0.360699811 0.332509432,0.0146172334 C0.389705884,0.0438190725 0.428679735,0.067050033 0.440474667,0.081569383" id="path2732"></path>
                                                    </g>
                                                    <g id="g2734" transform="translate(5.936212, 12.494390)" fill="#C8213F">
                                                        <path d="M0.0163138766,0.0489416297 C0.0526775075,-0.0358742146 0.320159828,0.0346669877 0.418043088,0.0836086175 C0.464374497,0.106774322 0.6043965,0.236453327 0.752477555,0.36637704 C0.917231395,0.510901675 1.08991378,0.657155575 1.11138284,0.68722205 C1.15216754,0.74432062 1.25820773,1.00534265 1.22557998,1.02981346 C1.19295222,1.05428428 0.72800674,0.92377326 0.246747384,0.70353593 C0.11623637,0.434356964 -0.0081569383,0.106040198 0.0163138766,0.0489416297" id="path2736"></path>
                                                    </g>
                                                    <g id="g2738" transform="translate(1.448876, 10.604020)" fill="#FFFFFF">
                                                        <path d="M0.0163138766,2.0881762 C0.0108813557,1.7890939 0.339540713,0.51455598 1.84041736,0.014274642 C1.66300395,0.232472741 1.17766613,0.87006798 1.08521538,1.62595514 C1.04443069,1.84890058 0.201541632,2.11807954 0.0163138766,2.0881762" id="path2740"></path>
                                                    </g>
                                                    <g id="g2742" transform="translate(2.213255, 11.876494)" fill="#FFFFFF">
                                                        <path d="M0.0163138766,2.72441739 C0.0108813557,2.42533509 0.164492817,0.77490914 1.87744986,0 C1.70003645,0.218198099 1.19634551,1.15420677 1.20179434,2.09360873 C1.16100965,2.31657047 0.413279435,2.68090828 0.0163138766,2.72441739" id="path2744"></path>
                                                    </g>
                                                    <g id="g2746" transform="translate(3.850075, 13.208799)" fill="#FFFFFF">
                                                        <path d="M0.0326277532,2.78967289 C0.00272441739,2.63469107 -0.184885164,1.03865558 1.53893692,0.0135894592 C1.37036564,0.290925361 1.05224504,1.08214837 1.13109001,2.00660682 C1.09030532,2.22955225 0.399689977,2.69451405 0.0326277532,2.78967289" id="path2748"></path>
                                                    </g>
                                                    <g id="g2750" transform="translate(5.568473, 14.318143)" fill="#FFFFFF">
                                                        <path d="M0.0652555065,3.01806717 C0.0210775285,2.87871403 -0.266454546,1.32685652 1.21810822,0 C1.04952062,0.424160791 0.875516815,1.4084259 1.08759721,2.09905756 C1.01689287,2.46882788 0.43231773,2.92290832 0.0652555065,3.01806717" id="path2752"></path>
                                                    </g>
                                                    <g id="g2754" transform="translate(21.991105, 14.315426)" fill="#FFFFFF">
                                                        <path d="M1.15828523,3.01806717 C1.20247953,2.87871404 1.49001161,1.32685653 0.0054488348,0 C0.174020122,0.424160791 0.326277531,1.40571781 0.114197136,2.09633314 C0.184885164,2.46611978 0.791223015,2.92290833 1.15828523,3.01806717" id="path2756"></path>
                                                    </g>
                                                    <g id="g2758" transform="translate(25.469020, 10.601311)" fill="#FFFFFF">
                                                        <path d="M1.82715417,2.0881762 C1.83260301,1.78907759 1.50392734,0.51455598 0.00305069492,0.014274642 C0.180464103,0.232472741 0.66580193,0.870051665 0.75825267,1.62593882 C0.79903736,1.84888426 1.64192643,2.11806323 1.82715417,2.0881762" id="path2760"></path>
                                                    </g>
                                                    <g id="g2762" transform="translate(24.737253, 11.922719)" fill="#FFFFFF">
                                                        <path d="M1.79452642,2.67547576 C1.79997526,2.37639346 1.63142028,0.77490914 0.0109139834,0.0135894592 C0.188327391,0.231787559 0.6362575,1.04681252 0.59821354,2.02564512 C0.63899823,2.24859055 1.39757718,2.63196665 1.79452642,2.67547576" id="path2764"></path>
                                                    </g>
                                                    <g id="g2766" transform="translate(23.394099, 13.222397)" fill="#FFFFFF">
                                                        <path d="M1.48456277,2.77335902 C1.51448242,2.61837719 1.72385471,1.03320674 0,0.0081569383 C0.1685876,0.28549284 0.489416297,1.07263738 0.386084203,1.99029294 C0.426868894,2.21323838 1.11750054,2.67820018 1.48456277,2.77335902" id="path2768"></path>
                                                    </g>
                                                    <g id="g2770" transform="translate(19.840398, 12.877090)" fill="#FFFFFF">
                                                        <path d="M0.358905285,2.16974558 C0.580105135,2.27069586 0.827668215,2.28330648 0.92718286,2.25131497 C0.546514865,1.24528714 0.43775025,0.9067742 0.43775025,0.00407846915 C0.0971165075,0.413034727 0.0177494977,0.989191905 0.0054325209,1.37309005 C-0.00269178964,1.6260204 0.00977201205,1.86379515 0.0788449655,1.96446808 C0.132843897,2.04311728 0.252832459,2.121326 0.358905285,2.16974558" id="path2772"></path>
                                                    </g>
                                                    <g id="g2774" transform="translate(8.003327, 12.879805)" fill="#FFFFFF">
                                                        <path d="M0.57098568,2.16974558 C0.349785828,2.27069586 0.102222751,2.28330648 0.00270810352,2.25131497 C0.3833761,1.24528714 0.492140715,0.90675789 0.492140715,0.00407846915 C0.83277446,0.413034727 0.912141465,0.989191905 0.924458445,1.37309005 C0.932582755,1.6260204 0.920118955,1.86379515 0.851046,1.96446808 C0.79704707,2.04311728 0.677058505,2.121326 0.57098568,2.16974558" id="path2776"></path>
                                                    </g>
                                                    <g id="g2778" transform="translate(1.574289, 10.832414)" fill="#D69C05">
                                                        <path d="M0,1.71295704 L0.122354075,1.7048001 C0.122354075,1.7048001 0.38127161,1.01488626 0.823850765,0.485337828 C0.989697635,0.286912147 1.18138569,0.121554694 1.39483645,0.0081569383 C1.39483645,0.0081569383 0.505730175,0.261022025 0,1.71295704" id="path2780"></path>
                                                    </g>
                                                    <g id="g2782" transform="translate(2.385905, 12.237447)" fill="#D69C05">
                                                        <path d="M0,2.21868722 L0.148864124,2.18809869 C0.148864124,2.18809869 0.193449948,1.96946012 0.292295727,1.65381924 C0.434764811,1.19885785 0.70767965,0.53857001 1.27112832,0.00882580725 C1.27112832,0.00882580725 0.34394546,0.51184788 0,2.21868722" id="path2784"></path>
                                                    </g>
                                                    <g id="g2786" transform="translate(3.976507, 13.560910)" fill="#D69C05">
                                                        <path d="M0,2.26762884 L0.130511013,2.21053027 C0.248786618,1.30511012 0.52958106,0.5297442 1.09302973,0 C1.09302973,0 0.150903359,0.66479047 0,2.26762884" id="path2788"></path>
                                                    </g>
                                                    <g id="g2790" transform="translate(5.709857, 14.764059)" fill="#D69C05">
                                                        <path d="M0.0163138766,2.39813986 L0.149549307,2.32472741 C0.163138766,1.74150633 0.134589482,0.85647852 0.76131968,0.0108813557 C0.76131968,0.0108813557 -0.0734124445,0.76267373 0.0163138766,2.39813986" id="path2792"></path>
                                                    </g>
                                                    <g id="g2794" transform="translate(25.637257, 10.746766)" fill="#D69C05">
                                                        <path d="M0.929890965,1.56613215 L0.795301485,1.51719052 C0.795301485,1.51719052 0.501651705,0.383376099 0.00407846915,0.0081569383 C0.00407846915,0.0081569383 0.63216272,0.301806717 0.929890965,1.56613215" id="path2796"></path>
                                                    </g>
                                                    <g id="g2798" transform="translate(24.952074, 12.149760)" fill="#D69C05">
                                                        <path d="M0.66886894,1.92503743 L0.53427946,1.81491877 C0.53427946,1.81491877 0.497573236,0.52204405 0.0122354074,0.00407846914 C0.0122354074,0.00407846914 0.63216272,0.395611507 0.66886894,1.92503743" id="path2800"></path>
                                                    </g>
                                                    <g id="g2802" transform="translate(23.535492, 13.497009)" fill="#D69C05">
                                                        <path d="M0.538357925,1.8760958 L0.421436374,1.78636948 C0.345299511,1.26975795 0.399689976,0.473102421 0.0108650418,0 C0.0108650418,0 0.609045955,0.413279436 0.538357925,1.8760958" id="path2804"></path>
                                                    </g>
                                                    <g id="g2806" transform="translate(22.137930, 14.633548)" fill="#D69C05">
                                                        <path d="M0.261022025,1.97397906 L0.159060297,1.88425274 C0.176728225,1.46824889 0.315396176,0.640319655 0.00951099005,0.0081569383 C0.00951099005,0.0081569383 0.554671805,0.61584884 0.261022025,1.97397906" id="path2808"></path>
                                                    </g>
                                                    <g id="g2810" transform="translate(19.913811, 13.214240)" fill="#D69C05">
                                                        <path d="M0.130511012,1.51719052 L0.0054488348,1.35948427 C0.0054488348,1.35948427 0.070704341,0.41872827 0.26647086,0 C0.26647086,0 0.103332094,0.739556965 0.130511012,1.51719052" id="path2812"></path>
                                                    </g>
                                                    <g id="g2814" transform="translate(8.591981, 13.192486)" fill="#D69C05">
                                                        <path d="M0.146824889,1.5335044 L0.261022025,1.38124699 C0.261022025,1.38124699 0.233826793,0.494848818 0.0054325209,0 C0.0054325209,0 0.168571287,0.64712254 0.146824889,1.5335044" id="path2816"></path>
                                                    </g>
                                                </g>
                                            </g>
                                        </g>
                                    </g>
                                </g>
                            </g>
                        </g>
                    </g>
                </g>
            </g>
        </g>
    </g>
</svg>