<?xml version="1.0" encoding="UTF-8" standalone="no"?>
<svg width="60px" height="60px" viewBox="0 0 60 60" version="1.1" xmlns="http://www.w3.org/2000/svg" xmlns:xlink="http://www.w3.org/1999/xlink">
    <!-- Generator: Sketch 40.3 (33839) - http://www.bohemiancoding.com/sketch -->
    <title>Artboard</title>
    <desc>Created with Sketch.</desc>
    <defs>
        <polygon id="path-1" points="0 56.5112685 59.6435328 56.5112685 59.6435328 0 0 0"></polygon>
    </defs>
    <g id="Page-1" stroke="none" stroke-width="1" fill="none" fill-rule="evenodd">
        <g id="Artboard">
            <g id="panthers" transform="translate(0.000000, 1.518987)">
                <g id="g2412" transform="translate(29.947152, 28.657273) scale(1, -1) translate(-29.947152, -28.657273) translate(0.042089, 0.176261)">
                    <g id="g2414" transform="translate(0.156685, 0.218572)">
                        <g id="g2416-Clipped">
                            <mask id="mask-2" fill="white">
                                <use xlink:href="#path-1"></use>
                            </mask>
                            <g id="path2420"></g>
                            <g id="g2416" mask="url(#mask-2)">
                                <g transform="translate(0.032628, 0.065256)">
                                    <g id="g2422" transform="translate(0.008157, 0.016314)">
                                        <path d="M14.9435109,53.3790042 L19.2857102,53.2213142 C19.2857102,53.2213142 21.7790252,53.6481831 22.4098176,53.6808109 C23.4919823,54.2436396 25.7432972,55.1490598 27.7362983,55.3094904 L28.818463,56.3318158 L29.8543941,55.316277 C30.3791789,55.3203555 33.5168594,54.6433296 35.1754586,53.6563401 C35.755939,53.6481831 38.3049822,53.2403362 38.3049822,53.2403362 L42.6526303,53.3626903 C42.4187872,52.6013869 40.8091623,48.9905714 39.8140158,47.3102421 L40.2300197,46.9676507 C40.1783699,46.4347416 39.6427201,43.484638 40.3741364,42.7641194 L39.0513421,43.0156141 C39.3246321,41.9103489 39.5802053,41.6547757 39.8439354,41.2659508 L39.2158512,40.5128044 C40.0179393,40.1158225 40.8091623,39.3001287 40.9967719,38.207099 C42.0490495,38.4518071 42.8864734,37.8971353 43.5009519,36.9754013 C43.5009519,36.9754013 44.1738993,39.1451469 44.2921749,39.3409134 C44.4104505,39.5366799 46.9350229,39.8384866 47.2531435,39.7161325 C47.4948499,39.6231761 49.6350021,37.9995212 49.6350021,37.6850549 C49.6350021,37.6091954 49.5773163,37.4860582 49.5330078,37.3608003 C49.4616509,37.159226 49.3902614,36.9550089 49.3902614,36.9550089 C49.6839111,36.9672443 51.1766308,36.9264596 51.5029084,36.7633209 C51.6657535,36.681882 53.3382195,34.8673221 53.3382195,34.5854184 C53.3382195,34.4915483 52.9432605,33.678171 52.9303726,33.6555274 C52.9303726,33.6555274 54.5128186,33.3618776 54.8880378,33.1008556 C55.2632569,32.8398336 56.0218522,30.9718947 56.0218522,30.6782449 C56.0218522,30.4792156 55.4427096,29.740197 55.4372607,29.6151348 C55.6330272,29.598821 56.768212,29.2140745 56.9599001,29.0223864 C57.0355312,28.9467553 57.3457885,27.8138545 57.4547652,27.2659366 C57.4799865,27.1390799 57.4819441,27.0431869 57.4819441,26.9994657 C57.4819441,26.8924141 55.257286,23.0618506 55.2143153,23.0188799 C54.9913046,22.7958692 54.1220034,22.6435628 53.7079898,22.6871535 C53.7079898,22.6871535 52.8868798,21.2950251 50.230426,20.7838788 C50.9346634,21.430985 51.9760108,23.1738617 51.8536567,23.2962158 C51.8536567,23.2962158 50.1284643,23.4267268 48.9497867,23.4185698 C48.9497867,23.4185698 48.0144469,23.1820186 47.3455779,23.1820186 C46.676709,23.1820186 45.9317195,23.3125296 45.1269234,23.6387745 C45.1103485,23.6387745 44.8658687,23.5952817 44.6211606,23.573519 C43.5580505,22.6599746 42.9110095,22.2940217 42.4405499,22.072675 C41.9007238,21.8186353 40.6205086,21.4402839 39.6563259,21.1047075 C38.2584877,20.6182277 37.5584266,20.272243 37.4546377,20.2108375 L37.4485037,20.4739151 L36.485985,20.4576012 C35.3173567,18.9534944 35.303751,18.9624671 34.5201628,17.7413408 C34.4267822,17.5957884 34.3164678,17.4771865 34.2509839,17.3579647 C34.2252732,17.2602119 34.280512,16.5304596 34.2292538,15.5743033 C34.1475213,14.0505872 33.9642186,13.1379237 33.2721513,12.0070132 C33.2137476,11.9115444 33.176291,11.6682718 33.0709359,11.3326954 C32.9683217,11.0058632 32.7998972,10.5909687 32.5924173,10.179859 C32.3136784,9.62760164 31.9643657,9.09567138 31.6733914,8.64635459 C31.3717152,8.18052816 31.1325211,7.80573316 31.0860918,7.71646362 C30.9284019,6.97689034 30.8740114,6.08507597 30.8740114,6.08507597 C30.8740114,6.08507597 32.0078259,4.81259359 33.182425,4.81259359 C33.9844478,4.81259359 35.7926452,5.24491132 35.7926452,7.78171913 C35.7926452,8.46523793 35.6513344,9.68590743 35.406561,10.3810743 C35.3230992,10.6181476 35.203649,10.8093136 35.0829916,11.0118667 L35.3113859,11.0281806 L34.9361667,12.1375242 L35.1441686,12.100818 L35.1319332,12.9042764 L35.4378184,12.8023146 L35.4582108,13.6710286 L35.7029189,13.5731453 L35.8660577,14.3562114 L36.1923352,13.8667951 L36.4533572,14.2093865 L36.7143792,13.5405176 L36.9101458,13.7036563 L37.0936769,13.022552 L37.2935219,13.1367491 L37.4811314,12.431174 L37.676898,12.561685 L37.8019601,11.539327 L37.9868616,11.6970495 L37.8617994,10.4082206 L38.0358033,10.5387643 C38.0358033,9.44573454 37.951852,7.84707252 37.7203908,7.11829902 C37.4201828,6.17307302 36.9798713,5.31568092 36.355474,4.69839646 C35.245021,3.60053782 33.8584394,3.24101261 33.2205016,3.24101261 C31.7691538,3.24101261 30.7842851,4.16819547 30.7842851,4.16819547 C30.6945588,3.95611507 30.5640478,1.56613215 30.5640478,1.17459911 C30.5640478,0.693078733 30.1017451,0.56475378 29.9767482,0.505730174 L29.8951788,0.163138766 C29.8951788,0.163138766 29.7483539,0.277335902 29.7483539,0.456788544 C29.7157262,0.497573236 29.5036458,0.505730174 29.5036458,0.505730174 C29.3944081,0.404290489 29.2594271,0.320828697 29.0849338,0.320828697 C29.0305434,0.239259314 28.9979156,0.0163138766 28.9979156,0.0163138766 C28.9979156,0.0163138766 28.8429338,0.126432544 28.8674046,0.367062223 C28.7899137,0.358905285 28.5941472,0.362983754 28.4921855,0.534279458 C28.429638,0.377927265 28.2678696,0.420082322 28.1618295,0.420082322 C28.1169663,0.289571309 28.0761816,0.0530200989 28.0761816,0.0530200989 C28.0761816,0.0530200989 27.9225701,0.140005689 27.9266486,0.511146381 C27.8396304,0.549222969 27.6193931,0.709653631 27.5486887,0.867343562 C27.5088176,0.956286817 27.4154696,0.945748053 27.3257433,0.856478521 C27.2974224,0.82832077 27.1925242,0.832888655 27.1925242,0.560120639 C27.0511155,0.693307127 27.0239366,0.946204842 27.0484074,1.15420677 C27.0484074,1.15420677 26.8159346,1.39075798 26.8159346,1.74150633 C26.8159346,2.09225467 26.9423672,2.47426041 27.0076227,2.71351972 C27.0239366,2.81414371 26.697659,2.51233699 26.697659,2.51233699 C26.697659,2.51233699 26.6731882,3.09555808 27.3339002,3.40956758 C27.4807251,3.86638875 27.7798237,4.34494001 28.0571596,4.7092615 C28.1169663,5.37813044 28.3779883,6.55272955 28.4867366,7.02038314 C27.8668093,8.04270853 27.1653126,10.0058552 27.0837432,10.6257825 C27.0021738,11.2457098 26.9641299,10.4463298 26.4855786,10.190724 C26.7384437,9.86173839 27.0402504,8.76596793 27.0402504,8.41796032 C27.078327,8.3472886 27.5187691,7.87963502 27.4209184,7.35755834 C27.4209184,7.35755834 27.2523308,7.65117549 27.1653126,7.65117549 C27.078327,7.65117549 27.377393,6.58532468 27.3339002,6.28080986 C27.2904074,5.97629504 26.9749949,5.94911612 26.9097394,5.84036782 C26.8444839,5.73161952 26.8227212,5.48146253 26.8227212,5.48146253 C26.8227212,5.48146253 26.7139729,5.57392958 26.697659,5.76424727 C26.6922754,5.82695781 26.5898243,5.84519672 26.5399691,5.82947015 C26.4568336,5.80320481 26.4624782,5.7278347 26.3659327,5.68264526 C26.2694198,5.63745582 26.0940456,5.62825479 26.0940456,5.62825479 C26.017925,5.57389696 25.9526695,5.28024718 25.9526695,5.28024718 C25.6916475,5.51405766 25.9580857,5.66633138 25.6318082,5.66633138 C25.506746,5.66633138 25.443905,5.52371547 25.3925489,5.50319262 C25.3381584,5.4814299 25.1478408,5.44475631 25.0744283,5.48146253 C24.9643096,5.27753907 24.9724666,5.15926347 24.9724666,5.15926347 C24.8174848,5.29793142 24.8297202,5.53448263 24.8297202,5.53448263 C24.8297202,5.53448263 24.7209719,5.5317419 24.6298752,5.60381661 C24.5387785,5.67589131 24.4830503,5.78326925 24.4830503,5.78326925 C24.4830503,5.78326925 24.4014809,5.7281936 24.3342025,5.72209221 C24.2668914,5.71595819 24.1798732,5.73703572 24.1798732,5.73703572 C24.1635593,5.61468165 24.0928876,5.46244055 24.0928876,5.46244055 C23.9677928,5.59021083 23.9732416,5.78056114 23.9732416,5.78056114 C23.9732416,5.78056114 23.5857871,5.95864342 23.5857871,6.88853439 C23.5857871,7.27191049 23.8318656,7.4554416 23.9623766,7.75995642 C24.0269795,7.91076189 24.104862,8.29658507 24.2233986,8.80949335 C24.4713043,9.88252227 24.4768184,10.0373083 24.4191651,10.1526474 C24.4191651,10.1526474 23.9710556,10.379443 23.5599459,11.0771222 C22.8198179,12.3332581 22.5593832,14.5148475 22.5593832,15.8190115 C22.5593832,16.4715665 22.6355038,16.3954133 22.6355038,16.6564354 C22.222208,18.026801 20.3733237,20.0497217 20.0035208,20.6805467 C19.8730098,20.7022768 19.4379839,20.7675323 19.4379839,20.7675323 L19.4434328,20.3488529 C16.6666478,21.5896211 15.1366672,21.9122117 14.5927626,22.1542444 C13.9090154,22.4585308 13.4088646,22.8791026 13.0211816,23.3995152 C12.8798056,23.383234 12.3903893,23.443008 12.2598783,23.5082635 C10.6774322,23.0841354 9.55177474,23.1657047 8.48931721,23.4185698 L5.6473094,23.2690042 C5.73432762,22.9101316 6.99320422,20.9714883 7.27598896,20.7974845 C5.50593335,21.150941 4.51894381,21.8279669 3.84191794,22.7034674 C3.7772171,22.6889154 2.51909094,22.8068321 2.38453408,22.9862195 C2.22240678,23.202411 0.0136057731,26.9312085 0.0136057731,26.9668054 C0.0136057731,27.3597414 0.489416297,28.8510907 0.583221088,29.0264649 C0.641004839,29.134528 1.37330213,29.4562703 2.09633314,29.6423138 C2.09633314,29.6423138 1.51448242,30.4471099 1.51448242,30.7081319 C1.51448242,31.0785222 2.48368983,32.9620898 2.57351403,33.051914 C2.82367101,33.3020709 4.58419932,33.6677628 4.58419932,33.6677628 C4.58419932,33.6677628 4.18995818,34.3298452 4.18995818,34.5691045 C4.18995818,34.8650382 5.69217256,36.5813885 6.06060515,36.7823429 C6.29986446,36.9128539 8.15896121,36.9631659 8.15896121,36.9631659 C8.10701783,37.0318147 7.86815005,37.6055084 7.88775933,37.6904711 C7.97565849,38.0713022 10.0623664,39.660698 10.3239758,39.7188406 C10.6816412,39.7983545 12.9661386,39.5692098 13.1952181,39.408877 C13.3276867,39.3161489 14.2229923,36.2711965 14.2827989,36.1026089 C15.1185262,36.9383035 15.8978727,37.2826568 16.6863876,37.2989707 C16.456623,38.0643525 16.5341139,39.5529938 18.4183667,40.4991986 L17.7413408,41.24148 C17.7413408,41.24148 18.2307571,41.6615623 18.5244069,42.9979298 L17.2029829,42.7178858 C17.708713,43.3677328 17.6142231,43.8533969 17.6108298,44.4308429 C17.6060009,45.2518224 17.4858981,46.0625894 17.3933005,46.9676507 L17.8011475,47.3211071 C16.3927379,49.9367762 14.9435109,53.3790042 14.9435109,53.3790042" id="path2424" fill="#002F5D"></path>
                                    </g>
                                    <g id="g2426" transform="translate(24.226107, 38.256041)">
                                        <path d="M2.31657047,3.09963655 L0.394241141,4.97573236 L0.195766519,4.79220125 L1.01553882,3.92348732 C0.522044051,3.46669877 0.00815693829,2.94465472 0.00815693829,2.07186233 C0.00815693829,1.505053 0.184020528,0.540413476 1.13381442,0.163138766 C1.3937271,0.0599045548 1.72796581,0.0244708149 2.11264702,0.0244708149 C3.38105092,0.0244708149 4.2171371,0.513887112 4.29054954,0.587299557 L4.29870648,0.880949335 C4.29870648,0.880949335 3.02893221,1.95221636 2.31657047,3.09963655" id="path2428" fill="#FFFFFF"></path>
                                    </g>
                                    <g id="g2430" transform="translate(29.071328, 38.272354)">
                                        <path d="M3.29540307,3.88270263 L4.15188159,4.80443665 L3.94795813,4.99749507 L2.3002566,3.11595043 C1.94680015,2.40358869 0.0163138766,0.880949335 0.0163138766,0.880949335 L0.0203923457,0.583221088 C0.0203923457,0.583221088 0.832007706,0.0163138766 2.18605946,0.0163138766 C2.52747627,0.0163138766 2.8303597,0.0268200131 3.09422034,0.108748301 C3.87682963,0.35185769 4.30686342,1.07126702 4.30686342,2.07186233 C4.30686342,3.11595043 3.58905285,3.67607107 3.29540307,3.88270263" id="path2432" fill="#FFFFFF"></path>
                                    </g>
                                    <g id="g2434" transform="translate(20.906233, 33.031522)">
                                        <path d="M16.3138766,10.8976696 L15.9508928,10.7243183 L16.6319972,12.8104716 L15.4900258,14.2379358 L16.1670517,14.6172334 L17.3334939,13.0062381 C17.3334939,13.0062381 16.3465043,11.0648868 16.3138766,10.8976696 L16.3138766,10.8976696 Z M10.6393556,15.3064947 L9.78016901,14.4092315 L9.51914699,14.7191951 L10.4979796,16.3179551 L9.9269939,18.4632298 L10.1961729,18.8710767 L11.9199949,16.4620718 L12.7764735,15.7469694 L10.6393556,15.3064947 L10.6393556,15.3064947 Z M18.8996586,13.8219319 L17.7467896,14.6920162 L18.1546365,15.377199 L17.0072163,15.246688 L18.0132279,16.3723455 L16.7244642,15.8013598 C16.7244642,15.8013598 14.125109,19.8580663 13.7988315,20.4671285 C12.1818979,21.4057637 8.85912017,21.9629153 8.76325983,21.9680052 L7.9040732,22.783699 L7.34124446,22.2480492 L7.79803301,22.3459324 L8.53215745,21.611808 C8.53215745,21.611808 10.5306073,21.212118 10.9819797,20.8151362 C10.9109164,20.8219227 10.734335,20.819443 10.502058,20.8328204 C9.98771415,20.8624138 9.23215327,20.9130194 8.96992402,20.9130194 C8.58925602,20.9130194 7.95980141,20.8640778 7.91630861,20.690074 C7.87281582,20.5160702 7.93670096,20.4236031 7.93670096,20.2387343 C7.93670096,20.0538328 7.89320816,20.0646978 7.89320816,19.8363036 C7.89320816,19.5277103 8.0631335,19.2789237 8.26297849,19.1239418 L7.74093444,17.9221638 L8.25211345,17.247846 L8.12160243,13.4521616 L8.52400051,13.0280008 L7.88231049,11.973015 L7.27328085,13.0280008 L7.66481389,13.4412639 L7.3928942,17.0738422 L6.59896308,17.7481274 L7.29501094,18.8792337 L6.64245587,20.0646978 L5.60926544,18.8357409 L5.89201755,18.4442078 L5.31561566,16.3125062 L6.30123483,14.7151167 L6.03613434,14.3969961 L5.2177324,15.3228086 L0.845613479,15.6382211 L0.715102466,16.1385024 L1.65040964,16.8780757 L1.32413211,17.2804738 L0.0136057731,16.3614478 L0.269178964,15.3064947 L5.59836777,14.1264468 L5.95456495,13.0959644 L6.70500328,12.9899242 L5.68538599,12.2557998 L7.16449992,11.2443394 L7.06661666,11.1138284 L5.95727306,11.5379892 L5.54942614,11.1029634 L6.83280618,10.129547 L6.69684634,10.0044848 L5.78326925,10.4286456 L4.85337828,9.62381682 L5.35910846,9.319302 L7.91223014,8.37309716 L10.4653518,9.30298812 L11.1750055,9.85765992 L10.440881,10.5387643 L9.10314313,10.0044848 L8.98078906,10.1268389 L10.5061365,11.2361825 L10.1309174,11.6277155 L8.71976703,11.1138284 L8.65451153,11.2443394 L10.1227604,12.2721137 L9.10314313,13.0062381 L9.84542452,13.1041214 L10.179859,14.1237387 L14.9924526,15.1841406 L14.9924526,14.8415492 L13.8423243,14.3195052 L13.1680391,12.8322343 L10.6013117,11.9947778 L11.3191222,11.2225767 L10.9058265,10.901748 L12.0151701,9.98817094 L12.7166668,9.54769627 C12.7166668,9.54769627 13.8260104,8.52537088 13.8260104,7.37250185 C13.8260104,4.29462801 10.9982935,4.51757345 10.9982935,4.51757345 L10.9221404,4.07168257 L11.101593,3.93572273 L12.711218,4.45776678 L12.6459625,4.09886149 L12.0369328,3.57681744 C11.8411663,3.16352169 10.8623337,0.17266607 10.8623337,0.17266607 L10.8840638,0.0856478521 L12.3808293,0.0185325638 C12.5703313,0.650042726 12.7121642,1.23806009 12.7940598,1.64052343 C12.8475693,1.90337261 12.8754661,2.08706686 12.8743567,2.15206134 L18.4646002,8.2752139 C18.3014614,8.3839622 17.7576873,9.56945898 17.6380413,10.4830361 L18.77998,10.2709557 C18.499936,11.4645768 18.8996586,13.8219319 18.8996586,13.8219319 L18.8996586,13.8219319 Z" id="path2436" fill="#D69C05"></path>
                                    </g>
                                    <g id="g2438" transform="translate(19.348258, 33.236799)">
                                        <path d="M1.17459911,11.0608083 L0.815693829,11.1913193 L0.0217627114,12.7792142 L1.76189867,14.6498612 L2.34919823,14.6362554 L3.5129323,14.0951894 L4.16548736,12.6269405 L6.76480995,11.7786189 L6.01982046,11.0145748 L6.44943008,10.7127681 C6.16109863,10.4697892 5.7874456,10.1306563 5.44067784,9.87260344 C5.1530642,9.65863063 5.0481986,9.62329477 4.9125324,9.53001203 C4.44735852,9.21019479 3.54011122,8.33162728 3.54011122,7.10740136 C3.54011122,5.6908022 4.28545961,4.30686342 6.32978411,4.30686342 C6.34290047,4.26027099 6.36652296,4.08855112 6.42133759,3.84560487 C6.57126212,3.18127119 6.9545077,1.98464834 7.99379953,1.35950059 C7.09108748,1.37581447 6.25434875,3.73858584 6.25434875,3.73858584 L4.6535333,4.25655142 L4.68616105,3.92211695 L5.32918881,3.34979353 C5.68809409,2.47970924 6.46845206,0.00678657266 6.46845206,0.00678657266 L5.8784444,0.511179009 L5.02467399,3.24101261 C5.02467399,3.24101261 4.11925384,3.77121359 3.65430835,4.96212658 C3.36881551,5.22314861 2.87124228,5.94911612 2.87124228,7.02583197 C2.87124228,7.86015625 3.15458169,8.68214723 3.58905285,9.34240245 C3.99282129,9.95599997 4.54612273,10.3647605 4.8778491,10.7916294 L4.86698406,11.1315127 L3.95882317,11.4468925 L3.18120593,13.4698132 L2.21868722,14.0734267 L0.734124446,12.5888639 L1.17459911,11.0608083 L1.17459911,11.0608083 Z" id="path2440" fill="#D69C05"></path>
                                    </g>
                                    <g id="g2442" transform="translate(20.200658, 50.657311)">
                                        <polygon id="path2444" fill="#D69C05" points="0 0.228394272 0.615848841 0.0136057731 1.83938958 1.97127096"></polygon>
                                    </g>
                                    <g id="g2446" transform="translate(23.944598, 28.635920)">
                                        <path d="M9.7556982,6.03613434 C9.54518393,5.00144303 8.93834035,2.74037236 8.14480077,1.66711505 L7.77503044,2.15379061 C7.67985528,1.89547669 7.2584026,0.946563747 6.92126002,0.671968576 C6.92126002,0.671968576 6.68470881,0.89220591 6.43592219,1.34491599 C6.36658822,1.10836478 5.97097671,0.500672872 5.81191642,0.317141761 L5.36328481,0.965618355 L4.7990857,0.020751251 L4.25935741,0.986010701 C4.16013641,0.879970503 3.77470476,0.296749415 3.77470476,0.296749415 L3.18639375,1.28475041 C3.18639375,1.28475041 2.76529996,0.692360922 2.67965211,0.659733169 C2.5491411,0.810636527 2.23102051,1.17362028 1.84356594,2.11574665 C1.59070085,1.85064616 1.45611137,1.65080117 1.45611137,1.65080117 C1.32967882,1.82751308 1.19228336,2.05192677 1.07273527,2.3074347 C0.51362609,3.50245879 0.0531179822,5.37852197 0.0150413942,5.81625591 L0.349475864,5.17730662 L0.509906526,5.72111338 L1.09720608,4.67702528 L1.32804744,5.22014686 L1.87211522,4.6076913 C1.87211522,4.6076913 1.83133053,4.35890468 1.83133053,4.08972572 C1.83133053,3.93647316 1.85191864,3.69959568 1.88027216,3.4480357 C1.95355409,2.79750356 2.23160781,2.09943278 3.5932292,2.09943278 C4.30559094,2.09943278 4.41707997,2.20547298 4.86571157,2.20547298 C5.31434318,2.20547298 5.45301113,2.09943278 6.07293844,2.09943278 C6.67854217,2.09943278 6.95874931,2.17734785 7.272041,2.37676868 C7.80886542,2.71844651 7.88377874,3.2886165 7.88377874,4.02447021 C7.88377874,4.40918405 7.84570215,4.48125876 7.84570215,4.48125876 C8.11217301,4.69741762 8.27531178,5.10934301 8.27531178,5.10934301 C8.27531178,5.10934301 8.42213667,4.80753629 8.40582279,4.60361283 C8.47926786,4.66886834 8.93602378,5.76189807 8.93602378,5.76189807 C9.0787702,5.65993634 9.13994724,5.32958034 9.13994724,5.32958034 C9.2378305,5.33365881 9.53148028,5.68848563 9.7556982,6.03613434" id="path2448" fill="#FFFFFF"></path>
                                    </g>
                                    <g id="g2450" transform="translate(33.383640, 44.134469)">
                                        <polygon id="path2452" fill="#FFFFFF" points="0.195766519 0 1.4301723 0.0842774864 2.33288435 1.4247561 1.8543331 2.01205565 0.946204842 0.565536846 0.0108650418 0.233843107"></polygon>
                                    </g>
                                    <g id="g2454" transform="translate(34.185728, 48.647980)">
                                        <polygon id="path2456" fill="#FFFFFF" points="0 1.99029294 0.248786618 2.34511976 2.50688816 0.73683255 2.43347571 0.103332094 1.67217235 0.0163138766 1.81899724 0.522044051"></polygon>
                                    </g>
                                    <g id="g2458" transform="translate(15.889716, 47.595735)">
                                        <path d="M2.21868722,0 L2.47970924,0.212080396 L1.79452642,1.40299339 L2.64284801,1.28879625 L1.72927092,2.31657047 L2.00660682,2.67547576 L3.91533038,1.82715418 L4.09478302,2.11264702 C2.21053028,2.87939922 0.758595261,4.01321364 0.0190219801,4.63584905 C0.0108650418,4.50533804 1.82715418,0.538357927 2.21868722,0" id="path2460" fill="#FFFFFF"></path>
                                    </g>
                                    <g id="g2462" transform="translate(37.603486, 47.612049)">
                                        <path d="M0,2.0881762 L0.195766519,1.79452642 L2.11809585,2.65645378 L2.37911788,2.29754849 L1.46824889,1.27248237 L2.32064894,1.39483645 L1.63138766,0.212080396 L1.92503744,0 C2.38182598,0.766752199 3.93164426,4.14372465 4.08662608,4.61888262 C3.70595809,4.28444815 2.18605946,2.98543941 0,2.0881762" id="path2464" fill="#FFFFFF"></path>
                                    </g>
                                    <g id="g2466" transform="translate(25.971692, 35.266523)">
                                        <path d="M0,2.34919823 C0,2.39269102 0.163138766,2.53272934 0.505730174,2.53272934 C1.01961729,2.53272934 1.07671585,2.42124031 1.07671585,2.3532767 C1.07671585,2.28531309 0.791223014,0.395611507 0.938047903,0.0203923457 C0.350748347,0.76267373 0,1.89648815 0,2.34919823" id="path2468" fill="#FFFFFF"></path>
                                    </g>
                                    <g id="g2470" transform="translate(30.523263, 35.303229)">
                                        <path d="M0.163138766,0 C0.804828787,0.630792352 1.1039274,2.03923457 1.1039274,2.32201931 C1.1039274,2.45253032 0.908160882,2.51233699 0.63082498,2.51233699 C0.407846915,2.51233699 0.00544883478,2.42531878 0.00544883478,2.33288435 C0.00544883478,2.23500109 0.271919695,1.13652253 0.163138766,0" id="path2472" fill="#FFFFFF"></path>
                                    </g>
                                    <g id="g2474" transform="translate(29.430233, 36.673595)">
                                        <path d="M0.391533038,0 C0.489416297,0 0.607691903,0.607691903 0.607691903,1.06040198 C0.607691903,1.29695319 0.0244708149,1.01961729 0.0244708149,0.889106274 C0.0244708149,0.758595261 0.252865087,0.464945483 0.391533038,0" id="path2476" fill="#FFFFFF"></path>
                                    </g>
                                    <g id="g2478" transform="translate(28.834777, 36.869361)">
                                        <path id="path2480" fill="#FFFFFF"></path>
                                    </g>
                                    <g id="g2482" transform="translate(28.174065, 36.865283)">
                                        <path d="M0.293649778,0 C0.367062223,0 0.534279458,0.579142619 0.534279458,0.758595261 C0.534279458,0.938047903 0.028549284,0.897263212 0.028549284,0.746359854 C0.028549284,0.595456495 0.208001926,0 0.293649778,0" id="path2484" fill="#FFFFFF"></path>
                                    </g>
                                    <g id="g2486" transform="translate(27.488882, 36.681751)">
                                        <path d="M0.261022025,0 C0.350748347,0.0978832595 0.603613434,0.76267373 0.603613434,0.893184743 C0.603613434,1.06040198 0.314042124,1.14197136 0.187609581,1.14197136 C0.0611770372,1.14197136 0.028549284,1.01961729 0.028549284,0.929890965 C0.028549284,0.840164644 0.183531112,0 0.261022025,0" id="path2488" fill="#FFFFFF"></path>
                                    </g>
                                    <g id="g2490" transform="translate(26.656874, 31.387899)">
                                        <path d="M0.71781057,0 C0.815693829,0 0.870084294,0.0108650418 0.870084294,0.0978832595 C0.870084294,0.184901477 0.326277532,1.37852257 0.163138766,2.22955226 C0.0244708149,1.95766519 0,1.44648618 0,1.27248237 C0,1.09847857 0.0217627114,0.489416297 0.0978832595,0.293649778 C0.174003808,0.0978832595 0.565536846,0 0.71781057,0" id="path2492" fill="#FFFFFF"></path>
                                    </g>
                                    <g id="g2494" transform="translate(30.058318, 31.379742)">
                                        <path d="M0,0.130511013 C0,0.0326277532 0.138667951,0.00815693829 0.203923457,0.00815693829 C0.269178964,0.00815693829 0.636241187,0.057098568 0.758595261,0.23655121 C0.81843456,0.350748347 0.880949335,1.02777422 0.880949335,1.30511013 C0.880949335,1.58244603 0.815693829,2.0229207 0.725967508,2.23500109 C0.554671804,1.26432544 0,0.130511013 0,0.130511013" id="path2496" fill="#FFFFFF"></path>
                                    </g>
                                    <g id="g2498" transform="translate(29.403038, 31.371585)">
                                        <path id="path2500" fill="#FFFFFF"></path>
                                    </g>
                                    <g id="g2502" transform="translate(28.859248, 31.366136)">
                                        <path id="path2504" fill="#FFFFFF"></path>
                                    </g>
                                    <g id="g2506" transform="translate(28.304576, 31.363428)">
                                        <path id="path2508" fill="#FFFFFF"></path>
                                    </g>
                                    <g id="g2510" transform="translate(27.721355, 31.400134)">
                                        <path id="path2512" fill="#FFFFFF"></path>
                                    </g>
                                    <g id="g2514" transform="translate(26.754758, 39.846644)">
                                        <path d="M2.0881762,1.07671585 L0.0163138766,1.85162499 C0.0163138766,1.7726332 0.296847298,1.41320587 0.658134409,1.02346736 C0.673469453,1.19583978 0.848321582,1.20993497 0.848321582,1.20993497 C1.0479708,1.20993497 1.59331107,0.935568194 1.59331107,0.410555018 C1.59331107,0.360243023 1.58913472,0.252440926 1.50045248,0.219454268 C1.60623166,0.134132693 1.70698616,0.0605897376 1.79782183,0.00548146253 L2.08001926,0.938047903 L2.36946006,0.000522044051 C2.46231865,0.056446013 2.56574863,0.132272911 2.67436642,0.220824633 C2.62033486,0.281675393 2.5775925,0.357730686 2.5775925,0.432317729 C2.5775925,0.840164644 3.03438104,1.23169768 3.26277532,1.23169768 C3.26277532,1.23169768 3.45730198,1.22621622 3.52970297,1.05260394 C3.8729143,1.43278252 4.13556771,1.78092065 4.13556771,1.86793887 L2.0881762,1.07671585 L2.0881762,1.07671585 Z" id="path2516" fill="#C8213F"></path>
                                    </g>
                                    <g id="g2518" transform="translate(25.601921, 32.083946)">
                                        <path d="M3.45854184,2.67547576 C3.42591408,2.39269102 3.44767679,1.12020865 3.24101261,0.696047858 C2.9582605,1.18546416 3.04524609,2.17519442 2.97999058,2.59935521 C2.91473507,3.023516 2.63198296,3.56729014 2.63198296,3.98058589 L3.23014756,3.31716578 L3.75219161,4.0023486 C3.75219161,3.40415137 3.49116959,2.9582605 3.45854184,2.67547576 L3.45854184,2.67547576 Z M6.22645202,5.01922515 C5.70440797,2.82774948 4.79627972,2.72441739 4.61137824,2.50147195 C5.06816678,3.59450168 4.72012654,4.93765577 4.69839646,5.16605004 C4.5570204,4.36125388 4.14372465,4.01321364 4.14372465,4.01321364 L3.81744712,4.72015917 L3.57818781,4.26337062 L3.19751981,4.74188925 L2.84947957,4.29599838 L2.51778583,4.74188925 L2.1969245,4.0023486 C1.89785852,4.39929784 1.82170534,4.64400599 1.67488045,5.13342229 C1.39212834,3.81744712 1.74013596,2.51233699 1.74013596,2.51233699 C0.700844138,3.13751737 0.317598549,4.33414022 0.167674024,4.9984739 L0.000685182816,4.89145487 C0.174003808,3.6651734 0.758595261,0.889106274 0.758595261,0.889106274 C0.808189446,1.33241956 1.00203093,2.04742414 1.26161733,2.4688442 C1.59331107,0.902712047 1.99029294,0.0108650418 1.99029294,0.0108650418 L2.32743552,0.40239808 L2.65371305,0.0761205481 L2.89300499,0.40239808 L3.19751981,0.0652555063 L3.50203463,0.435025833 L3.75219161,0.0761205481 L4.0676041,0.445923503 L4.40474668,0 C4.40474668,0 4.89687108,1.13926326 5.14428733,2.61022025 C5.4161744,2.01205565 5.63370363,0.891814377 5.63370363,0.891814377 C5.81857248,1.35950059 6.40590466,4.88329793 6.40590466,4.88329793 L6.22645202,5.01922515 L6.22645202,5.01922515 Z" id="path2520" fill="#C8213F"></path>
                                    </g>
                                    <g id="g2522" transform="translate(27.961984, 37.962391)">
                                        <path d="M0.848321582,0.652555063 C0.848321582,0.652555063 0.448631606,0.179452642 0.00815693829,0.0244708149 L0.294824378,0.0244708149 C0.329768701,0.0654512728 0.403637934,0.0938047903 0.489416297,0.0938047903 C0.575194661,0.0938047903 0.649063894,0.0654512728 0.684008217,0.0244708149 L0.975928725,0.0244708149 C1.01087305,0.0654512728 1.08474228,0.0938047903 1.17052064,0.0938047903 C1.25629901,0.0938047903 1.33016824,0.0654512728 1.36511256,0.0244708149 L1.64362307,0.0244708149 C1.2031484,0.220237334 0.848321582,0.652555063 0.848321582,0.652555063" id="path2524" fill="#C8213F"></path>
                                    </g>
                                    <g id="g2526" transform="translate(31.405870, 45.714765)">
                                        <path d="M1.63138766,1.33773788 C1.69608849,1.23597192 1.73305574,1.12911603 1.73305574,1.03263576 C1.73305574,0.598686643 1.37415045,0.24686158 0.87928532,0.24686158 C0.555063337,0.24686158 0.269113708,0.39789545 0.110477572,0.624103663 L0.0149108832,0.323765195 C0.226501862,0.137069191 0.520934707,0.0211754118 0.846657567,0.0211754118 C1.53728922,0.0211754118 2.01309974,0.474015998 2.01309974,1.03263576 C2.01309974,1.16308152 1.98428944,1.28762165 1.93247656,1.40214506 L1.63138766,1.33773788 L1.63138766,1.33773788 Z" id="path2528" fill="#FFFFFF"></path>
                                    </g>
                                    <g id="g2530" transform="translate(31.616293, 46.168271)">
                                        <path d="M0.0326277532,0.587299557 L0.0252865087,0.564329619 C0.0342917686,0.255899468 0.318642637,0.00815693829 0.66886894,0.00815693829 C1.02473984,0.00815693829 1.31326706,0.263795384 1.31326706,0.579142619 C1.31326706,0.675296607 1.2861534,0.765773367 1.2387779,0.845254573 L0.0326277532,0.587299557 L0.0326277532,0.587299557 Z" id="path2532" fill="#C8213F"></path>
                                    </g>
                                    <g id="g2534" transform="translate(32.497242, 46.374919)">
                                        <path id="path2536" fill="#FFFFFF"></path>
                                    </g>
                                    <g id="g2538" transform="translate(24.157314, 45.707055)">
                                        <path d="M1.92503744,0.61992731 C1.77860408,0.400375159 1.51663585,0.25456173 1.19818898,0.25456173 C0.703323847,0.25456173 0.297597737,0.606386793 0.297597737,1.04036854 C0.297597737,1.16102597 0.33022549,1.27163405 0.387356686,1.36847322 L0.119613343,1.42573493 C0.0631020746,1.30696991 0.0317468038,1.17685043 0.0317468038,1.04036854 C0.0317468038,0.481748775 0.553986621,0.0289081893 1.19818898,0.0289081893 C1.53422221,0.0289081893 1.81916038,0.136318753 2.02341011,0.310746721 L1.92503744,0.61992731 L1.92503744,0.61992731 Z" id="path2540" fill="#FFFFFF"></path>
                                    </g>
                                    <g id="g2542" transform="translate(24.666581, 46.157389)">
                                        <path d="M1.27248237,0.61992731 L0.0960561053,0.871519915 C0.0427423566,0.788417027 0.0118765022,0.692491433 0.0118765022,0.59000766 C0.0118765022,0.274660426 0.300403723,0.0190219801 0.656274627,0.0190219801 C0.993188806,0.0190219801 1.26931748,0.248231946 1.29783414,0.540217709 L1.27248237,0.61992731 L1.27248237,0.61992731 Z" id="path2544" fill="#C8213F"></path>
                                    </g>
                                    <g id="g2546" transform="translate(25.490432, 46.302860)">
                                        <path id="path2548" fill="#FFFFFF"></path>
                                    </g>
                                    <g id="g2550" transform="translate(31.681548, 38.468121)">
                                        <path d="M9.88620921,1.92503744 L9.77201207,1.50087665 L0.440474668,0.212080396 C0.440474668,0.212080396 0.293682406,0.0271789184 0.184901477,0.0271789184 C0.0761205481,0.0271789184 0,0.174003808 0,0.299098613 C0,0.424160791 0.168587601,0.744989488 0.358905285,0.744989488 C0.522044051,0.744989488 0.53294172,0.598164599 0.53294172,0.598164599 L9.88620921,1.92503744 L9.88620921,1.92503744 Z" id="path2552" fill="#002F5D"></path>
                                    </g>
                                    <g id="g2554" transform="translate(31.856922, 39.699819)">
                                        <path d="M0.293649778,0 C0.19168805,0 0.0244708149,0.14274642 0.0244708149,0.399689976 C0.0244708149,0.542436396 0.130511013,0.750438323 0.281414371,0.750438323 C0.375219161,0.750438323 0.452710075,0.640319656 0.452710075,0.640319656 L10.3035834,3.08603078 L10.2437768,2.66186999 L0.475157969,0.232472741 C0.475157969,0.232472741 0.448631606,0 0.293649778,0" id="path2556" fill="#002F5D"></path>
                                    </g>
                                    <g id="g2558" transform="translate(31.912683, 40.969577)">
                                        <path d="M0.391533038,0 C0.199844988,0 0.0298870219,0.328985635 0.0298870219,0.465630665 C0.0298870219,0.602243068 0.117590422,0.726652691 0.213418133,0.726652691 C0.309278472,0.726652691 0.407846915,0.622635414 0.407846915,0.622635414 L10.8188083,4.68753141 L10.7753155,4.24705675 L0.557379907,0.261022025 C0.557379907,0.261022025 0.583221088,0 0.391533038,0" id="path2560" fill="#002F5D"></path>
                                    </g>
                                    <g id="g2562" transform="translate(16.087616, 39.428633)">
                                        <polygon id="path2564" fill="#002F5D" points="3.42591408 0.489416297 0.00603613434 0.972698577 0.128390209 0.53222391 3.86123357 0.0196092797"></polygon>
                                    </g>
                                    <g id="g2566" transform="translate(19.492055, 39.089324)">
                                        <polygon id="path2568" fill="#FFFFFF" points="0.456788544 0.358905285 2.96455765 0.0145193502 2.8898401 0.423410353 0.0214690616 0.828712303"></polygon>
                                    </g>
                                    <g id="g2570" transform="translate(22.355443, 38.468121)">
                                        <path d="M3.23014756,0.750438323 C3.08877151,0.750438323 3.03167294,0.61992731 3.03167294,0.61992731 L0.0264611078,1.04461015 L0.101178663,0.635719143 L3.12681547,0.220237334 C3.12681547,0.220237334 3.26822415,0.0299196497 3.39328633,0.0299196497 C3.51834851,0.0299196497 3.55097626,0.212080396 3.55097626,0.282784737 C3.55097626,0.437766564 3.43951986,0.750438323 3.23014756,0.750438323" id="path2572" fill="#002F5D"></path>
                                    </g>
                                    <g id="g2574" transform="translate(15.472932, 41.621955)">
                                        <polygon id="path2576" fill="#002F5D" points="3.16489206 0.391533038 0.0170969427 1.17750298 0.0986663256 0.737028316 2.99464044 0.0191198634"></polygon>
                                    </g>
                                    <g id="g2578" transform="translate(18.467579, 40.662259)">
                                        <polygon id="path2580" fill="#FFFFFF" points="0 0.978832595 3.82684391 0.0301806717 3.91588505 0.416003853 0.170251616 1.35124577"></polygon>
                                    </g>
                                    <g id="g2582" transform="translate(22.292912, 39.671269)">
                                        <path d="M3.19751981,0.783066076 C3.09147961,0.783066076 3.0139887,0.677025878 3.0139887,0.677025878 L0.090542015,1.40697397 L0.00150087665,1.02118342 L2.95281166,0.289571309 C2.95281166,0.289571309 3.03438104,0.00407846915 3.18936287,0.00952730392 C3.29811117,0.00952730392 3.41775714,0.270549329 3.41775714,0.395611507 C3.41775714,0.498943601 3.40144327,0.783066076 3.19751981,0.783066076" id="path2584" fill="#002F5D"></path>
                                    </g>
                                    <g id="g2586" transform="translate(22.741544, 40.943752)">
                                        <path d="M2.74073127,0.750438323 C2.65916188,0.750438323 2.56535709,0.672947409 2.56535709,0.672947409 L0.165226942,1.60848298 L0.00355642509,1.2470001 L2.38182598,0.314042124 C2.38182598,0.314042124 2.4185322,0.0122354074 2.56943556,0.0122354074 C2.72033892,0.0122354074 2.90387003,0.375219161 2.90387003,0.501651705 C2.90387003,0.558750273 2.89163462,0.750438323 2.74073127,0.750438323" id="path2588" fill="#002F5D"></path>
                                    </g>
                                    <g id="g2590" transform="translate(14.913751, 44.035437)">
                                        <polygon id="path2592" fill="#002F5D" points="3.09963655 0.424160791 0.0134426343 1.62711342 0.0623842641 1.20295263 3.09392669 0.0137036563"></polygon>
                                    </g>
                                    <g id="g2594" transform="translate(18.007684, 42.189375)">
                                        <polygon id="path2596" fill="#FFFFFF" points="0 1.85978193 4.73741925 0.00137036563 4.89908977 0.362853243 0.0057098568 2.27023907"></polygon>
                                    </g>
                                    <g id="g2598" transform="translate(17.901755, 26.907015)">
                                        <path d="M1.30511013,12.3659184 L1.29424508,12.6704333 L5.45969982,8.1134455 C5.65399809,7.0373822 5.86689418,6.22974742 6.0905248,5.50322524 C6.59165446,3.8752635 7.05203206,3.1049875 7.70014975,2.47970924 L7.78716796,2.91473507 C7.78716796,2.91473507 8.2221938,2.16429675 8.85298615,1.59875991 C8.93455553,1.73197902 9.1629498,2.22139532 9.1629498,2.22139532 C9.1629498,2.22139532 9.7584063,1.28334742 9.93785894,1.16099334 L10.2478226,1.8543331 L10.851436,0.883657439 L11.4305786,1.8543331 L11.781327,1.13652253 L12.5236084,2.22139532 L12.8131797,1.56476179 C13.571775,2.31112164 13.8205616,2.81277334 13.8654247,2.90657814 C13.9592295,2.81277334 13.9388372,2.48649581 13.9388372,2.48649581 L14.4364104,2.94736283 C14.4364104,2.94736283 14.7394244,3.30388629 15.0685731,3.97513705 C15.4383435,4.72919705 16.0392488,6.56088649 16.3138766,8.06992007 L20.8273716,13.0293386 L21.7735764,12.3550534 L22.4370291,11.1695566 L18.4129178,6.98233918 L18.1410308,6.11225488 C19.7941811,7.64575928 23.4702196,10.3321327 23.4702196,10.3321327 L25.0254867,9.1575336 L24.1010445,6.02526929 L22.3500109,6.62343389 L20.240072,4.75278692 L20.8273716,4.43737443 C20.8273716,4.43737443 20.0660682,3.26277532 19.9573199,3.20838485 L20.5663495,3.19751981 L19.049159,0.483967463 L19.4406921,3.9425093 L16.406311,0.0598066716 L5.33254947,0.00799379953 L2.50280969,3.93843083 L3.1757571,0.391533038 L1.59331107,3.09418772 L2.06641349,3.16489206 L1.06311008,4.55427967 L1.69119433,4.54612273 L0.0271789184,6.74033913 L0.35345645,7.22159849 L4.25247295,4.07302031 L0.826558871,8.91008472 L1.16099334,9.55448284 L5.65546634,6.07962713 L5.06816678,7.49351819 L1.30511013,12.3659184 L1.30511013,12.3659184 Z" id="path2600" fill="#D69C05"></path>
                                    </g>
                                    <g id="g2602" transform="translate(24.666581, 13.736251)">
                                        <polygon id="path2604" fill="#D69C05" points="4.01321364 0 5.51409028 1.92503744 5.13342229 1.89240968 6.67782436 3.76308928 5.75338223 3.6216806 9.95146472 9.29890965 7.72191246 7.27598896 7.50438323 7.98293448 5.51409028 5.57934579 5.19871042 6.31891907 4.08933419 4.86153522 3.09963655 6.29715636 2.75159631 5.59024346 0.674317775 7.96117177 1.83801922 5.86213053 0.0217627114 7.11285019 1.89240968 4.87243289 0.467653586 5.52498795 2.20782217 3.67607107 1.38123067 3.77395433 2.94736283 1.95766519 2.28394272 2.12080396"></polygon>
                                    </g>
                                    <g id="g2606" transform="translate(24.851467, 10.212487)">
                                        <polygon id="path2608" fill="#D69C05" points="1.30511013 0 0.978832595 0.043492795 0.0978832595 2.55582979 0.609062268 2.41445373 0.0108650418 3.52379734 0.783066076 3.27364036 0.184901477 4.39388164 0.880949335 4.07846915 0.641690021 5.38357927 1.52263936 3.87183758 1.69664316 2.52320204"></polygon>
                                    </g>
                                    <g id="g2610" transform="translate(30.099102, 7.406500)">
                                        <path d="M2.77335902,9.69044269 C2.77335902,9.69044269 3.16489206,8.53215745 2.33288435,4.01321364 L0.146824889,0.0163138766 L0,0.913577089 L0.391533038,2.25131497 L0.505730174,2.72441739 L0.864635459,2.87124228 L0.685182816,3.52379734 L0.750438323,5.31832377 L1.06040198,5.57934579 L0.995146472,6.21558698 L0.978832595,7.11285019 L2.77335902,9.69044269 L2.77335902,9.69044269 Z" id="path2612" fill="#D69C05"></path>
                                    </g>
                                    <g id="g2614" transform="translate(27.331176, 1.163734)">
                                        <polygon id="path2616" fill="#D69C05" points="2.25131497 3.03438104 2.84947957 3.92619542 2.84947957 0.358905285 2.4688442 0.146824889 2.16429675 0.478518628 2.04468341 0.0326277532 1.55526711 0.0108650418 1.39212834 0.467653586 1.16373407 0.0217300836 0.71781057 0.0652555063 0.641690021 0.61992731 0.337142573 0.250124356 0.0217627114 0.511146381 0.0217627114 0.761303365 2.32743552 1.57699719"></polygon>
                                    </g>
                                    <g id="g2618" transform="translate(23.992280, 6.085076)">
                                        <path d="M3.00175329,0.61992731 C3.00175329,0.61992731 2.37096094,2.93649778 2.28939156,3.0670088 L1.90601546,2.61022025 L2.12625279,1.57428909 L0.00544883478,0.587299557 L0.00544883478,0.326277532 L0.380667996,0.171295704 L0.682474713,0.513887112 L0.796671849,0.0326277532 L1.30240202,0 L1.50632548,0.456788544 L1.73471975,0.122354074 L2.24860686,0.220237334 L2.27307768,0.742281384 L2.61566909,0.424160791 L3.00175329,0.61992731 L3.00175329,0.61992731 Z" id="path2620" fill="#D69C05"></path>
                                    </g>
                                    <g id="g2622" transform="translate(35.344014, 4.372119)">
                                        <path d="M0,0 L0.0638525129,0.231428653 C0.525698359,0.660026819 0.938047903,1.39209572 0.938047903,1.39209572 L1.02506612,2.08814357 L1.22083264,1.53347177 L1.28608815,3.02348337 L1.57973792,2.12077133 L1.79726716,3.24101261 L1.90601546,2.51230437 L2.23229299,3.27364036 C2.17793515,2.80053794 1.96536534,2.32629355 1.72111398,1.83801922 C1.35124577,1.09860908 0.9131203,0.543513112 0.451665987,0.13302335 L0,0 L0,0 Z" id="path2624" fill="#D69C05"></path>
                                    </g>
                                    <g id="g2626" transform="translate(35.879663, 22.197737)">
                                        <path d="M0,2.25131497 L2.66457809,5.55761571 L2.28394272,5.55761571 L3.04524609,6.35154683 L3.41501641,5.69899176 L3.53466238,5.62287121 C3.57952554,5.22657452 3.60752016,4.65522994 4.09478302,3.8391772 C4.31626021,3.46826491 4.6379046,3.0857045 5.08992949,2.5775925 C4.98114856,3.64344331 5.03553903,4.52439265 5.03553903,4.52439265 L5.72072185,4.5570204 L5.94911612,4.02407868 L7.3956023,2.76249398 L6.06876209,3.09963655 L6.50378792,2.44708149 L5.44883478,2.47970924 L6.01437162,2.07731116 L4.72012654,1.58789486 L2.6863408,2.18605946 L3.44764417,1.18546416 L1.55523448,1.41385843 L2.38182598,0.576434515 L1.18546416,0 L0.532909092,0.891814377 L0,2.25131497 L0,2.25131497 Z" id="path2628" fill="#D69C05"></path>
                                    </g>
                                    <g id="g2630" transform="translate(39.033690, 23.600747)">
                                        <path d="M0.326277532,5.12255725 L0.0108650418,5.6011085 L0.424160791,7.286854 L1.6422527,8.2221938 L3.07787384,7.68928471 L3.14312935,7.90678131 L3.37152362,7.81979572 L3.85007487,8.89651157 C3.85007487,8.89651157 4.09204229,8.44787997 5.0464367,7.74364254 C5.0464367,7.74364254 5.2013859,6.84096312 4.34490738,4.01050554 C4.64671409,4.26337062 6.53912378,5.82134584 7.14547794,7.53701098 L7.36297455,7.59140145 C7.36297455,7.59140145 7.52611331,6.69413823 8.24392388,6.28629132 C8.28741668,4.13285961 7.30858408,2.74073127 6.906186,1.94680015 C7.78713534,2.47970924 9.54903401,3.41504904 10.5604944,5.38902811 C10.5727298,5.21365393 10.4136695,4.47545102 10.5278666,4.16548736 C10.5861071,4.00734064 10.8919923,3.77532469 11.0662245,3.49661842 C11.1477939,3.36610741 11.1641078,3.07245763 11.1641078,2.9582605 C11.1641078,2.84406336 10.739947,1.2126757 10.478925,0.9353398 L10.0710781,1.03322306 L9.51640625,0.31541249 C9.51640625,0.31541249 8.78228181,0.0217627114 8.26023776,0.0217627114 C7.94834907,0.0217627114 7.49172366,0.051421339 7.06116783,0.160430662 C6.46182863,0.312117087 6.33520032,0.429609626 5.81315627,0.592748392 L3.16489206,2.89571309 L2.82771686,3.69238494 C2.82771686,3.69238494 2.07727853,3.52924618 1.97939527,3.59450168 C1.88151201,3.65975719 2.37092831,5.58479463 3.02348337,7.05304352 C1.99570915,7.18355453 0.13592722,6.93884638 0.326277532,5.12255725" id="path2632" fill="#D69C05"></path>
                                    </g>
                                    <g id="g2634" transform="translate(43.655934, 31.681548)">
                                        <path d="M0.391533038,0.326277532 C0.277335902,0.554671804 0.043492795,0.804828787 0.043492795,1.23985462 C-0.0978832595,1.59875991 1.09302973,3.54011122 3.00175329,3.89356767 L3.26277532,2.77335902 C3.26277532,2.77335902 3.41504904,4.02407868 3.26277532,4.37211892 C3.0670088,4.48631606 1.83801922,4.50262994 1.83801922,4.50262994 L1.60420874,5.01922515 L2.30570543,7.24881004 C2.30570543,7.24881004 3.63799448,7.50438323 3.71956386,7.48806935 C3.80113324,7.47175547 5.51409028,6.10138984 5.53040416,6.03613434 C5.53591825,6.0141106 5.32925406,5.3487002 5.00836011,4.50262994 C4.37874236,2.84249723 3.45854184,0.652555063 3.39328633,0.261022025 L2.74073127,0 C2.74073127,0 3.31171695,1.50087665 2.92018391,3.40960021 C1.59875991,3.27908919 0.195766519,1.64770153 0.195766519,1.17459911 C0.195766519,0.897263212 0.424160791,0.61992731 0.391533038,0.326277532" id="path2636" fill="#D69C05"></path>
                                    </g>
                                    <g id="g2638" transform="translate(47.375498, 29.626000)">
                                        <path d="M2.67547576,6.52555063 L4.07846915,6.65606165 C4.07846915,6.65606165 5.48146253,5.155185 5.54671804,4.95941848 C5.61197354,4.76365196 3.08332267,0.0978832595 3.08332267,0.0978832595 C3.08332267,0.0978832595 2.65916188,-0.0326277532 2.49602312,0.0326277532 C2.49602312,0.0326277532 2.93649778,1.27248237 2.69178964,2.77335902 C1.07671585,2.56127862 0,1.15828524 0,1.15828524 L0.114197136,1.59875991 C0.815693829,2.49602312 1.87609581,3.27908919 2.92018391,3.26277532 C3.00175329,2.96912554 3.09963655,2.0881762 3.09963655,2.0881762 C3.09963655,2.0881762 3.24646144,2.15343171 3.24646144,3.70324998 C2.67550839,3.96972084 1.80542409,3.89356767 1.80542409,3.89356767 L1.64228533,4.24160791 L2.67547576,6.52555063 L2.67547576,6.52555063 Z" id="path2640" fill="#D69C05"></path>
                                    </g>
                                    <g id="g2642" transform="translate(50.225010, 26.754758)">
                                        <path d="M2.51233699,4.1110969 L2.4688442,4.49176489 L3.14312935,5.92738603 L4.5570204,5.80774006 C4.5570204,5.80774006 5.31829114,4.32862613 5.39444431,4.0023486 L3.87180496,1.35950059 L3.20293602,0.146824889 C3.20293602,0.146824889 3.10502013,0.0163138766 2.6265015,0.0163138766 C2.6265015,0.0163138766 3.24101261,1.57699719 3.19751981,2.86037724 C0.886365542,2.57214367 0.114164508,1.29966129 0.114164508,1.29966129 L0.114164508,0.913577089 C0.114164508,0.913577089 0.0271789184,1.05498577 0.0271789184,1.2561685 C0.0271789184,1.45738385 0.157689931,1.78366138 0.157689931,1.78366138 L0.735462184,2.35735517 C0.735462184,2.35735517 1.99029294,3.42591408 3.48027192,3.39328633 C3.55642509,2.94736283 3.57818781,2.14256667 3.57818781,2.14256667 C3.57818781,2.14256667 3.77395433,2.30570543 3.92619542,3.74132657 C3.32803082,4.05670643 2.51233699,4.1110969 2.51233699,4.1110969" id="path2644" fill="#D69C05"></path>
                                    </g>
                                    <g id="g2646" transform="translate(52.063029, 23.138526)">
                                        <path d="M0.0978832595,1.56613215 C0.0978832595,1.56613215 0.0543578368,1.31597517 0.0326277532,1.29966129 C0.0326277532,1.29966129 -0.0271789184,1.38119805 0.0326277532,1.60417611 C0.0326277532,1.60417611 0.135274665,1.74542166 0.309963655,1.91413977 C0.791190386,2.3787916 2.00931492,3.19207098 3.09963655,2.93104895 C3.24101261,2.72167666 3.16485943,1.8543331 3.16215133,1.86249003 C3.26548342,1.98484411 3.64070258,2.93104895 3.7304289,3.43133029 C3.06159259,3.74674278 2.53135897,3.80384135 2.53135897,3.80384135 L2.50688816,4.18721745 C2.57214367,4.29599838 3.27364036,5.58205389 3.40415137,5.58205389 C3.53466238,5.58205389 4.30141458,5.45969982 4.61137824,5.39444431 C4.65490366,5.24220322 4.9865974,4.26062989 5.02738209,3.98329399 C4.52165192,3.01261833 3.09418772,0.59000766 2.82500875,0.165846869 C2.67002692,0.0924344247 2.25402307,-0.00544883478 2.01202303,0.0162812488 C2.01202303,0.0162812488 2.74073127,0.75585453 2.92560012,2.60477142 C1.35950059,2.67547576 0.320828697,1.81625651 0.0978832595,1.56613215" id="path2648" fill="#D69C05"></path>
                                    </g>
                                    <g id="g2650" transform="translate(14.396996, 22.472365)">
                                        <path d="M4.76365196,0 L5.99534964,1.11750055 L6.74578797,2.69994657 L4.52710075,5.17965581 L5.0491448,5.13071419 L4.2171371,6.07691903 C4.2171371,6.07691903 3.85823181,5.40805009 3.74403468,5.35910846 C3.73587774,5.22044051 3.68693611,4.24160791 2.87939922,3.07516574 L2.18198099,2.28802119 C2.18198099,2.28802119 2.35735517,3.93980119 2.21053028,4.31502036 C1.37036563,3.32803082 0.0163138766,1.94950825 0.0163138766,1.94950825 L1.94950825,2.06370539 L1.46824889,1.37036563 L3.21383369,1.60691684 L2.63469107,0.880949335 L4.76365196,0 L4.76365196,0 Z" id="path2652" fill="#D69C05"></path>
                                    </g>
                                    <g id="g2654" transform="translate(7.297752, 23.600747)">
                                        <path d="M10.9302973,5.22044051 L11.1586916,5.56848075 L10.7345308,7.27598896 L9.57079672,8.21132876 L7.90678131,7.64575928 L7.36300717,8.8856139 C7.15634298,8.60286179 6.81920041,8.20043109 6.12315255,7.74364254 C6.12315255,7.74364254 6.10504415,7.20133666 6.22645202,6.48205784 C6.36198771,5.67882781 6.65002551,4.65571935 6.89532096,3.93709309 C6.89532096,3.93709309 4.774517,5.50322524 4.08933419,7.54245982 L3.79568441,7.58050378 C3.76925593,7.31638211 3.51289967,6.5799411 2.93649778,6.28629132 C2.93649778,6.28629132 2.94997305,5.50195276 3.20838485,4.49176489 C3.42881795,3.63003331 3.87183758,2.70810351 4.2198452,2.00115798 C3.02893221,2.58304133 1.28334742,3.93709309 0.630792352,5.38902811 C0.630792352,5.38902811 0.696047858,4.75278692 0.696047858,4.48360796 C0.696047858,4.21442899 0.483967463,3.81473902 0.11690524,3.49661842 C0.108748301,3.39873516 0.0190219801,3.04798682 0.0108650418,2.97457437 C0.00270810351,2.90116193 0.475810524,1.48185467 0.793931118,0.951653677 L1.16915028,0.98428143 L1.70750821,0.299098613 C1.70750821,0.299098613 2.62108529,0.0108650418 2.88210732,0.0108650418 C3.14312935,0.0108650418 4.62769211,0.152273724 5.06816678,0.388824934 C5.27502674,0.499889806 5.92516735,1.07968498 6.57109898,1.6490719 C7.30062291,2.29209966 8.02097844,2.92563274 8.02097844,2.92563274 L8.37988373,3.70869882 C8.37988373,3.70869882 9.12490584,3.53466238 9.2227891,3.6216806 C9.32067236,3.70869882 9.00796798,5.23404628 8.17596027,7.05304352 C8.56749331,7.14276984 10.9982609,7.24881004 10.9302973,5.22044051" id="path2656" fill="#D69C05"></path>
                                    </g>
                                    <g id="g2658" transform="translate(10.179859, 31.909943)">
                                        <path d="M2.96912554,6.46029513 C2.96912554,6.46029513 4.45368831,1.77821255 4.48631606,1.54981828 C4.51894381,1.321424 3.75219161,0.342591408 3.31171695,0.0489416297 C3.29540307,0.342591408 3.50748347,0.880949335 3.50748347,0.880949335 C3.4335816,1.16810619 3.43932409,1.42615909 2.67547576,2.16974559 C2.27497009,2.55961461 1.76597714,2.96044656 0.799379953,3.20975522 C0.424160791,1.65993694 0.913577089,0.0163138766 0.913577089,0.0163138766 C0.913577089,0.0163138766 -0.261022025,1.71295704 0.750438323,3.76850549 C1.94680015,3.50203463 2.84947957,2.64284801 2.84947957,2.64284801 C2.84947957,2.64284801 2.7114968,2.8599857 2.50147195,3.14857818 C2.16100135,3.61639491 1.58450158,4.27629121 0.750438323,4.53525769 C0.701496693,4.73102421 0,6.4113535 0,6.4113535 L0.456788544,6.72131715 L2.96912554,6.46029513 L2.96912554,6.46029513 Z" id="path2660" fill="#D69C05"></path>
                                    </g>
                                    <g id="g2662" transform="translate(6.199273, 29.789139)">
                                        <path d="M0.326277532,6.06876209 L2.27578578,6.13401759 C2.27578578,6.13401759 3.80113324,2.25947191 3.87454569,1.982136 C3.94795813,1.7048001 4.47000218,1.60691684 4.47000218,1.60691684 C4.47000218,1.60691684 4.48631606,1.20722687 4.09478302,0.71781057 C3.82560406,1.5335044 2.08001926,2.55312169 1.26432544,2.64284801 C1.05495314,0.685182816 1.43562114,0.0108650418 1.43562114,0.0108650418 C1.43562114,0.0108650418 1.33131021,0.123789696 1.22898958,0.369770327 C1.06036935,0.775137532 0.859186624,1.46671539 0.859186624,2.05554845 C0.859186624,2.37366904 1.06040198,3.18120593 1.06040198,3.18120593 C1.06040198,3.18120593 1.90872356,3.16489206 3.09963655,2.41445373 C2.92018391,2.71626045 1.90872356,3.73587774 0.766752199,3.8990165 L0.174003808,5.25306826 L0,5.56848075 L0.326277532,6.06876209 L0.326277532,6.06876209 Z" id="path2664" fill="#D69C05"></path>
                                    </g>
                                    <g id="g2666" transform="translate(2.980007, 27.015780)">
                                        <path d="M1.95766519,5.7098568 L3.80658208,2.29480776 C3.80658208,2.29480776 4.26337062,2.14256667 4.45913714,2.20782217 C4.56788544,1.77276371 4.52439265,0.946204842 4.52439265,0.946204842 C4.52439265,0.946204842 4.32862613,0.554639176 4.19811512,0.511146381 C4.23615908,0.641657394 4.2198452,0.837423913 4.19811512,1.03319043 C4.19811512,1.03319043 3.76142527,1.91714152 2.09362504,2.40358869 C1.79909431,2.48946494 1.46299582,2.54382278 1.0875809,2.59935521 C1.19636183,1.03322306 1.65315037,0.00815693829 1.65315037,0.00815693829 C1.65315037,0.00815693829 0.641690021,1.06040198 0.98428143,3.09963655 C2.18335136,3.0670088 3.14587008,2.42261067 3.14587008,2.42261067 C3.14587008,2.42261067 2.10993891,3.61352366 0.715102466,3.71140692 L0.0217627114,4.86153522 L0.233843107,5.30200989 L1.95766519,5.7098568 L1.95766519,5.7098568 Z" id="path2668" fill="#D69C05"></path>
                                    </g>
                                    <g id="g2670" transform="translate(1.250736, 23.089584)">
                                        <path d="M0,4.95941848 L0.152273724,5.40534198 L1.21809191,5.77511231 C1.21809191,5.77511231 2.27307768,4.02407868 2.44708149,3.56729014 C2.72986622,3.12681547 3.71956386,3.18662214 3.71956386,3.18662214 C3.71956386,3.18662214 4.21442899,2.37637715 4.31231225,2.29480776 C4.35309694,2.15613981 4.40203857,1.18546416 4.40203857,1.18546416 C4.40203857,1.18546416 4.29599838,1.00601151 4.21442899,0.981540698 C4.13285961,0.957069884 4.18995818,1.58515413 4.18995818,1.58515413 C4.18995818,1.58515413 3.17034089,2.67818386 1.29424508,2.64555611 C1.41659916,1.07126702 2.22413605,0.0108650418 2.22413605,0.0108650418 C2.22413605,0.0108650418 1.84075995,0.263730129 1.71024894,0.508438278 C1.57973792,0.753146426 0.9353398,1.91413977 1.08216469,3.06155996 C2.09362504,3.09963655 3.16489206,2.69178964 3.16489206,2.69178964 C3.03451156,2.92054281 2.31099113,3.35948398 2.03923457,3.46395804 C1.79550526,3.55766495 1.37721746,3.6047468 0.804828787,3.70866619 L0,4.95941848 L0,4.95941848 Z" id="path2672" fill="#D69C05"></path>
                                    </g>
                                    <g id="g2674" transform="translate(25.493157, 10.201622)">
                                        <polygon id="path2676" fill="#FFFFFF" points="1.72927092 2.77335902 1.01146035 4.1110969 0 5.39444431 0.83745654 3.45854184 0.489416297 3.57815518 0.815693829 2.66457809 0.293649778 2.84947957 0.772201034 1.6422527 0.163138766 2.03378574 0.663420105 0.0108650418 1.14197136 0.739540653"></polygon>
                                    </g>
                                    <g id="g2678" transform="translate(20.403227, 19.957287)">
                                        <path d="M3.0670088,4.92679073 L0.00137036563,10.8881749 L3.38242129,7.40649997 L2.10993891,10.571392 L4.05670643,8.72250776 L3.81744712,10.7671585 C3.94795813,10.4735088 4.85067018,9.01615754 5.35095152,8.51584358 L5.48146253,9.02702258 C6.13401759,8.15693829 6.52555063,7.85242347 6.52555063,7.85242347 L6.7974377,8.36360248 L7.11285019,7.92854402 L7.51524827,7.53701098 L7.77627029,7.97206944 L8.3309421,7.19986841 L8.91824166,8.01556224 L9.25541686,7.54790865 L9.63605223,7.90681394 L9.95146472,8.40709527 C9.95146472,8.40709527 10.2777422,7.96117177 10.2777422,7.85242347 C10.4735088,7.88505122 11.0173155,8.57023404 11.2674399,9.1140408 C11.3000676,8.92913933 11.3762208,8.60286179 11.3435931,8.51584358 C11.3435931,8.51584358 12.3659184,9.65781494 13.0293386,10.8868045 L12.8661998,8.71161009 L14.8021349,10.5496619 L13.5622803,7.42826268 L16.9392527,10.8922533 L13.8667951,4.95941848 L13.5405176,6.10138984 L12.0178782,3.01265096 L11.6046151,3.92622805 L10.0167202,1.20722687 L9.70130773,2.10993891 L8.46145311,0.0217627114 L7.22159849,2.0881762 L6.91708367,1.22898958 L5.32918881,3.92622805 L4.90502802,3.023516 L3.40415137,6.12315255 L3.0670088,4.92679073 L3.0670088,4.92679073 Z" id="path2680" fill="#FFFFFF"></path>
                                    </g>
                                    <g id="g2682" transform="translate(27.913043, 10.016720)">
                                        <path d="M0,2.28394272 L0.587299557,3.3443447 L0.701496693,0.0163138766 C0.701496693,0.0163138766 0.163138766,1.37036563 0,2.28394272" id="path2684" fill="#FFFFFF"></path>
                                    </g>
                                    <g id="g2686" transform="translate(29.740197, 7.406500)">
                                        <path d="M3.1322643,9.69044269 C3.1322643,9.69044269 1.07671585,7.29230283 0.603613434,6.57449226 L1.17459911,5.62828742 L0.440474668,5.62828742 L0.929890965,4.63314095 L0.309963655,4.61682707 C0.362983754,4.48223759 1.13110632,2.95007093 1.13110632,2.95007093 L0.810244994,2.77332639 C0.810244994,2.77332639 0.225686169,0.606288909 0.0271789184,0.184868849 L0.505730174,0.0163138766 L0.505730174,0.837423913 L0.772168406,1.10386215 L0.690631651,1.80539147 L1.01690918,2.06641349 L0.875500501,2.57755987 L1.35405176,2.75159631 L1.16915028,3.45850921 L1.53895323,3.65427573 L1.27793121,4.30683079 L1.75644984,4.40471405 L1.34318671,5.13342229 L2.02836953,5.17691508 L1.57158099,5.9708462 L2.2567638,5.9708462 L1.72382208,7.11281756 L2.22413605,6.9496788 L3.1322643,9.69044269 L3.1322643,9.69044269 Z" id="path2688" fill="#FFFFFF"></path>
                                    </g>
                                    <g id="g2690" transform="translate(32.538027, 3.425914)">
                                        <path d="M2.80598677,0.946204842 L2.86987191,1.17776401 C2.85678818,1.16562648 2.8436392,1.15358684 2.83045759,1.14193873 C1.79723453,0.228361644 0.459529276,0.206631561 0.00274073127,0.239259314 L0.329018263,0.0543578368 C0.329018263,0.0543578368 0.524784782,0.0325951254 0.644398125,0.0325951254 C1.38645112,0.0325951254 2.36531634,0.285851745 3.25709809,1.07886929 L2.80598677,0.946204842 L2.80598677,0.946204842 Z" id="path2692" fill="#FFFFFF"></path>
                                    </g>
                                    <g id="g2694" transform="translate(35.760017, 9.935151)">
                                        <path d="M0,1.66401541 L0.456788544,3.21383369 C0.456788544,3.21383369 0.636241187,1.61507378 0.57098568,0.946204842 L0.897263212,1.34589482 L0.880949335,0.00815693829 L0.71781057,0.799379953 L0.309963655,0.228394272 L0.309963655,2.15343171 L0,1.66401541 L0,1.66401541 Z" id="path2696" fill="#C8213F"></path>
                                    </g>
                                    <g id="g2698" transform="translate(36.233120, 7.659365)">
                                        <polygon id="path2700" fill="#C8213F" points="0.0978832595 2.21868722 0.0244708149 0.889106274 0.28549284 1.1501283 0.277335902 0.407846915 0.611770372 0.685182816 0.61992731 0.0244708149 0.832007706 1.23169768 0.522044051 1.02777422 0.530200989 1.75374173 0.23655121 1.46824889"></polygon>
                                    </g>
                                    <g id="g2702" transform="translate(36.564846, 7.721912)">
                                        <path d="M0.880949335,0 L1.13107369,0.7069129 L1.22895695,2.47970924 L0.989697637,2.32743552 L1.18546416,3.65430835 L0.848321582,3.32803082 L0.935307172,4.6005132 L0.532909092,4.31772846 L0.543774134,5.06816678 L0.228394272,4.75275429 L0.0326277532,5.69895913 L0.0108650418,3.86093992 L0.250124356,4.16545474 L0.293649778,3.52379734 L0.609029641,3.82831216 L0.478518628,1.52260673 L0.913577089,1.87064697 C0.913577089,1.87064697 0.859219252,0.184901477 0.880949335,0" id="path2704" fill="#C8213F"></path>
                                    </g>
                                    <g id="g2706" transform="translate(43.199145, 25.009173)">
                                        <path d="M0.0326277532,2.0229207 C-0.0737387222,1.91655422 0.206631561,1.4301723 0.261022025,1.35405176 C0.31541249,1.27793121 0.894359342,0.770732785 1.35405176,0.386084203 C1.46195174,0.29580321 1.54365163,0.207773532 1.61507378,0.163138766 C1.87609581,8.67361738e-17 2.30570543,-0.00274073127 2.40358869,0.0298870219 C2.50147195,0.0625147751 2.0881762,1.23985462 1.97397907,1.33773788 C1.85978193,1.43562114 0.130511013,2.12080396 0.0326277532,2.0229207" id="path2708" fill="#C8213F"></path>
                                    </g>
                                    <g id="g2710" transform="translate(43.171552, 27.750413)">
                                        <path d="M0.880949335,2.80598677 C0.676079673,2.88011703 0.46455395,2.95098451 0.24513231,3.01754512 C0.0928912133,2.7130303 -0.0593825108,0.255018519 0.0711285019,0.102777422 C0.0816346384,0.0905093873 0.147901605,0.0580447729 0.252179904,0.0114523414 C0.651804625,1.35643358 0.816476895,2.24844373 0.880949335,2.80598677" id="path2712" fill="#C8213F"></path>
                                    </g>
                                    <g id="g2714" transform="translate(46.248023, 24.524282)">
                                        <path d="M0,1.20722687 C0.170251616,0.857587864 0.334401842,0.533072231 0.420571738,0.457669494 C0.532126026,0.360079884 1.83730141,0.164084971 2.79985275,0.0360210395 L3.26460247,0.0117786189 C3.36486756,0.118308233 3.48914667,0.424682835 3.60429001,0.768024682 C3.38862056,1.17906912 3.00782205,2.01267558 2.26273468,2.93724822 C1.48524795,2.10954738 0.619503149,1.57640989 0,1.20722687" id="path2716" fill="#C8213F"></path>
                                    </g>
                                    <g id="g2718" transform="translate(43.506114, 25.935749)">
                                        <path d="M2.64284801,0 C3.00302577,0.652424552 3.51668449,1.58463209 3.70236903,2.84608628 C3.22861406,3.23921808 2.67466007,3.62106067 2.02494362,3.96698011 C1.3278843,2.94547042 0.388694423,2.11287541 0.00551409028,1.78734832 C0.606876209,1.52541272 2.01783077,0.960039009 2.21627276,0.786394107 C2.29399207,0.718397869 2.46408055,0.36928091 2.64284801,0" id="path2720" fill="#C8213F"></path>
                                    </g>
                                    <g id="g2722" transform="translate(7.700150, 24.552384)">
                                        <path d="M0.391533038,0 C1.06643811,0.0547167421 2.97532481,0.248003552 3.23014756,0.489416297 C3.32643206,0.580610868 3.44653482,0.860328595 3.58210314,1.17078167 C2.8785509,1.55079711 2.0339815,2.15979412 1.33842306,2.87910557 C0.892042772,2.31415602 0.447979051,1.63589029 0.0168685484,0.815334924 C0.138178535,0.507589956 0.279195684,0.192046955 0.391533038,0" id="path2724" fill="#C8213F"></path>
                                    </g>
                                    <g id="g2726" transform="translate(10.345706, 25.897388)">
                                        <path d="M1.66401541,3.98058589 C1.14190611,3.72181518 0.582405394,3.38362851 0.00887474886,2.90197762 C0.0464945483,2.68630817 0.0957950833,2.44776667 0.160430662,2.19509735 C0.349867397,1.45467575 0.703486986,0.670108794 1.0201067,0.015335044 C1.164354,0.337958267 1.32295751,0.659765797 1.4873035,0.813834047 C1.68796418,1.00196567 2.96850561,1.51790833 3.61417622,1.82552279 C3.20156565,2.16677646 2.32414011,2.95503035 1.66401541,3.98058589" id="path2728" fill="#C8213F"></path>
                                    </g>
                                    <g id="g2730" transform="translate(13.442634, 27.766218)">
                                        <path d="M0.880949335,0.163138766 C0.962518718,0.636241187 0.641690021,2.81685181 0.587299557,2.9582605 C0.415677575,2.87884454 0.226991279,2.8033113 0.0242097928,2.72458053 C0.038598632,2.59759331 0.0572290791,2.46071989 0.0815693829,2.31657047 C0.201639515,1.60502443 0.441322989,0.721399622 0.665018865,0.0292344668 C0.779411768,0.087638145 0.85735947,0.134100066 0.880949335,0.163138766" id="path2732" fill="#C8213F"></path>
                                    </g>
                                    <g id="g2734" transform="translate(11.872424, 24.988780)">
                                        <path d="M0.0326277532,0.0978832595 C0.105355015,-0.0717484292 0.640319656,0.0693339755 0.836086175,0.167217235 C0.928748994,0.213548644 1.208793,0.472906654 1.50495511,0.732754081 C1.83446279,1.02180335 2.17982756,1.31431115 2.22276568,1.3744441 C2.30433507,1.48864124 2.51641546,2.01068529 2.45115996,2.05962692 C2.38590445,2.10856855 1.45601348,1.84754652 0.493494767,1.40707186 C0.232472741,0.868713928 -0.0163138766,0.212080396 0.0326277532,0.0978832595" id="path2736" fill="#C8213F"></path>
                                    </g>
                                    <g id="g2738" transform="translate(2.897752, 21.208040)">
                                        <path d="M0.0326277532,4.17635241 C0.0217627114,3.57818781 0.679081427,1.02911196 3.68083472,0.028549284 C3.3260079,0.464945483 2.35533225,1.74013596 2.17043077,3.25191027 C2.08886139,3.69780115 0.403083263,4.23615908 0.0326277532,4.17635241" id="path2740" fill="#FFFFFF"></path>
                                    </g>
                                    <g id="g2742" transform="translate(4.426509, 23.752988)">
                                        <path d="M0.0326277532,5.44883478 C0.0217627114,4.85067018 0.328985635,1.54981828 3.75489972,0 C3.4000729,0.436396199 2.39269102,2.30841354 2.40358869,4.18721745 C2.32201931,4.63314095 0.826558871,5.36181656 0.0326277532,5.44883478" id="path2744" fill="#FFFFFF"></path>
                                    </g>
                                    <g id="g2746" transform="translate(7.700150, 26.417599)">
                                        <path d="M0.0652555063,5.57934579 C0.00544883478,5.26938214 -0.369770327,2.07731116 3.07787384,0.0271789184 C2.74073127,0.581850722 2.10449008,2.16429675 2.26218001,4.01321364 C2.18061063,4.45910451 0.799379953,5.38902811 0.0652555063,5.57934579" id="path2748" fill="#FFFFFF"></path>
                                    </g>
                                    <g id="g2750" transform="translate(11.136945, 28.636286)">
                                        <path d="M0.130511013,6.03613434 C0.0421550571,5.75742807 -0.532909092,2.65371305 2.43621645,0 C2.09904124,0.848321582 1.75103363,2.81685181 2.17519442,4.19811512 C2.03378574,4.93765577 0.864635459,5.84581665 0.130511013,6.03613434" id="path2752" fill="#FFFFFF"></path>
                                    </g>
                                    <g id="g2754" transform="translate(43.982211, 28.630853)">
                                        <path d="M2.31657047,6.03613434 C2.40495906,5.75742807 2.98002321,2.65371305 0.0108976696,0 C0.348040243,0.848321582 0.652555063,2.81143561 0.228394272,4.19266628 C0.369770327,4.93223956 1.58244603,5.84581665 2.31657047,6.03613434" id="path2756" fill="#FFFFFF"></path>
                                    </g>
                                    <g id="g2758" transform="translate(50.938040, 21.202623)">
                                        <path d="M3.65430835,4.17635241 C3.66520602,3.57815518 3.00785468,1.02911196 0.00610138984,0.028549284 C0.360928206,0.464945483 1.33160386,1.74010333 1.51650534,3.25187765 C1.59807472,3.69776852 3.28385285,4.23612645 3.65430835,4.17635241" id="path2760" fill="#FFFFFF"></path>
                                    </g>
                                    <g id="g2762" transform="translate(49.474506, 23.845439)">
                                        <path d="M3.58905285,5.35095152 C3.59995052,4.75278692 3.26284057,1.54981828 0.0218279669,0.0271789184 C0.376654783,0.463575117 1.272515,2.09362504 1.19642708,4.05129023 C1.27799646,4.4971811 2.79515436,5.2639333 3.58905285,5.35095152" id="path2764" fill="#FFFFFF"></path>
                                    </g>
                                    <g id="g2766" transform="translate(46.788198, 26.444794)">
                                        <path d="M2.96912554,5.54671804 C3.02896484,5.23675438 3.44770942,2.06641349 0,0.0163138766 C0.337175201,0.57098568 0.978832595,2.14527477 0.772168406,3.98058589 C0.853737789,4.42647676 2.23500109,5.35640035 2.96912554,5.54671804" id="path2768" fill="#FFFFFF"></path>
                                    </g>
                                    <g id="g2770" transform="translate(39.680797, 25.754179)">
                                        <path d="M0.71781057,4.33949117 C1.16021027,4.54139171 1.65533643,4.56661296 1.85436572,4.50262994 C1.09302973,2.49057428 0.875500501,1.8135484 0.875500501,0.00815693829 C0.194233015,0.826069455 0.0354989954,1.97838381 0.0108650418,2.7461801 C-0.00538357927,3.25204079 0.0195440241,3.72759029 0.157689931,3.92893615 C0.265687794,4.08623455 0.505664919,4.242652 0.71781057,4.33949117" id="path2772" fill="#FFFFFF"></path>
                                    </g>
                                    <g id="g2774" transform="translate(16.006654, 25.759611)">
                                        <path d="M1.14197136,4.33949117 C0.699571656,4.54139171 0.204445501,4.56661296 0.00541620703,4.50262994 C0.766752199,2.49057428 0.98428143,1.81351578 0.98428143,0.00815693829 C1.66554892,0.826069455 1.82428293,1.97838381 1.84891689,2.7461801 C1.86516551,3.25204079 1.84023791,3.72759029 1.702092,3.92893615 C1.59409414,4.08623455 1.35411701,4.242652 1.14197136,4.33949117" id="path2776" fill="#FFFFFF"></path>
                                    </g>
                                    <g id="g2778" transform="translate(3.148578, 21.664828)">
                                        <path d="M0,3.42591408 L0.244708149,3.40960021 C0.244708149,3.40960021 0.762543219,2.02977252 1.64770153,0.970675657 C1.97939527,0.573824295 2.36277137,0.243109389 2.7896729,0.0163138766 C2.7896729,0.0163138766 1.01146035,0.522044051 0,3.42591408" id="path2780" fill="#D69C05"></path>
                                    </g>
                                    <g id="g2782" transform="translate(4.771809, 24.474893)">
                                        <path d="M0,4.43737443 L0.297728248,4.37619739 C0.297728248,4.37619739 0.386899897,3.93892025 0.584591453,3.30763848 C0.869529622,2.3977157 1.4153593,1.07714002 2.54225664,0.0176516145 C2.54225664,0.0176516145 0.68789092,1.02369576 0,4.43737443" id="path2784" fill="#D69C05"></path>
                                    </g>
                                    <g id="g2786" transform="translate(7.953015, 27.121820)">
                                        <path d="M0,4.53525769 L0.261022025,4.42106055 C0.497573236,2.61022025 1.05916212,1.0594884 2.18605946,0 C2.18605946,0 0.301806717,1.32958094 0,4.53525769" id="path2788" fill="#D69C05"></path>
                                    </g>
                                    <g id="g2790" transform="translate(11.419714, 29.528117)">
                                        <path d="M0.0326277532,4.79627972 L0.299098613,4.64945483 C0.326277532,3.48301265 0.269178964,1.71295704 1.52263936,0.0217627114 C1.52263936,0.0217627114 -0.146824889,1.52534746 0.0326277532,4.79627972" id="path2792" fill="#D69C05"></path>
                                    </g>
                                    <g id="g2794" transform="translate(51.274514, 21.493532)">
                                        <path d="M1.85978193,3.1322643 L1.59060297,3.03438104 C1.59060297,3.03438104 1.00330341,0.766752199 0.00815693829,0.0163138766 C0.00815693829,0.0163138766 1.26432544,0.603613434 1.85978193,3.1322643" id="path2796" fill="#D69C05"></path>
                                    </g>
                                    <g id="g2798" transform="translate(49.904148, 24.299519)">
                                        <path d="M1.33773788,3.85007487 L1.06855892,3.62983754 C1.06855892,3.62983754 0.995146472,1.0440881 0.0244708149,0.00815693829 C0.0244708149,0.00815693829 1.26432544,0.791223014 1.33773788,3.85007487" id="path2800" fill="#D69C05"></path>
                                    </g>
                                    <g id="g2802" transform="translate(47.070983, 26.994017)">
                                        <path d="M1.07671585,3.75219161 L0.842872748,3.57273897 C0.690599023,2.53951591 0.799379953,0.946204842 0.0217300836,0 C0.0217300836,0 1.21809191,0.826558871 1.07671585,3.75219161" id="path2804" fill="#D69C05"></path>
                                    </g>
                                    <g id="g2806" transform="translate(44.275861, 29.267095)">
                                        <path d="M0.522044051,3.94795813 L0.318120593,3.76850549 C0.35345645,2.93649778 0.630792352,1.28063931 0.0190219801,0.0163138766 C0.0190219801,0.0163138766 1.10934361,1.23169768 0.522044051,3.94795813" id="path2808" fill="#D69C05"></path>
                                    </g>
                                    <g id="g2810" transform="translate(39.827622, 26.428480)">
                                        <path d="M0.261022025,3.03438104 L0.0108976696,2.71896855 C0.0108976696,2.71896855 0.141408682,0.83745654 0.53294172,0 C0.53294172,0 0.206664189,1.47911393 0.261022025,3.03438104" id="path2812" fill="#D69C05"></path>
                                    </g>
                                    <g id="g2814" transform="translate(17.183961, 26.384971)">
                                        <path d="M0.293649778,3.0670088 L0.522044051,2.76249398 C0.522044051,2.76249398 0.467653586,0.989697637 0.0108650418,0 C0.0108650418,0 0.337142573,1.29424508 0.293649778,3.0670088" id="path2816" fill="#D69C05"></path>
                                    </g>
                                </g>
                            </g>
                        </g>
                    </g>
                </g>
            </g>
        </g>
    </g>
</svg>