<?xml version="1.0" encoding="UTF-8" standalone="no"?>
<svg width="30px" height="30px" viewBox="0 0 30 30" version="1.1" xmlns="http://www.w3.org/2000/svg" xmlns:xlink="http://www.w3.org/1999/xlink">
    <!-- Generator: Sketch 40.3 (33839) - http://www.bohemiancoding.com/sketch -->
    <title>Artboard Copy</title>
    <desc>Created with Sketch.</desc>
    <defs></defs>
    <g id="Page-1" stroke="none" stroke-width="1" fill="none" fill-rule="evenodd">
        <g id="Artboard-Copy">
            <g id="penguins" transform="translate(1.000000, 1.000000)">
                <g id="Page-1">
                    <g id="Artboard">
                        <g id="penguins" transform="translate(0.000000, 0.357644)">
                            <g id="layer1" transform="translate(0.104938, 0.072536)">
                                <g id="g8" transform="translate(24.769903, 10.768812)" fill="#FFFFFF">
                                    <path d="M0.197755961,0 C0.153050491,0.0667601681 0.0738078542,0.182503506 0,0.289849229 C0.194950912,0.355417251 0.39673913,0.431942496 0.596072932,0.514130434 C0.802068726,0.599053297 1.12237027,0.714621319 1.46949509,0.834291726 C1.46493689,0.681048387 1.4595021,0.505732819 1.45669706,0.417741935 C1.26297335,0.352682328 0.403927069,0.0698457223 0.197755961,0 L0.197755961,0 L0.197755961,0 Z" id="path10"></path>
                                </g>
                                <g id="g16" transform="translate(0.035314, 0.070792)" fill="#FFFFFF">
                                    <path d="M28.6593618,11.5268233 C28.5115708,11.8721424 28.0767882,12.1955645 27.9782609,12.2678121 C27.9794881,12.3460554 27.9616059,12.441918 27.9265428,12.5477385 C27.848878,12.7762973 27.5059607,13.120249 26.819425,13.0045056 C26.1313113,12.8904804 25.8639551,12.7762973 25.8639551,12.7762973 C25.8639551,12.7762973 25.5212132,13.6145161 24.7582398,13.3097651 C24.7582398,13.3097651 24.6435835,14.3400947 24.0711781,14.6453892 C23.4991234,14.9500876 19.5673212,16.3221073 19.5673212,16.3221073 C19.5673212,16.3221073 19.5282258,16.407486 19.4279453,16.4960204 L18.5783661,17.973878 L18.691094,18.6102735 C18.691094,18.6102735 19.3778051,19.4112903 19.3778051,19.983871 L18.8818373,20.2121318 L18.7771739,20.2121318 C18.8246844,20.3597475 18.8802595,20.5352385 18.9098878,20.624474 L19.5866059,20.624474 L19.5866059,21.1882889 L16.728629,21.1882889 L13.3428296,27.0718794 L9.62403576,20.7580645 C9.26057153,21.0687237 8.88185482,21.259467 8.59491585,21.259467 L7.9027349,21.2610449 L1.11011571,21.2610449 L2.27568373,19.1633941 L8.55298035,19.1633941 C8.59886047,19.1633941 8.64063813,19.1619916 8.68257363,19.1591865 L8.71984423e-15,4.4207223 L4.45976508,4.4207223 C4.79242637,4.08790322 5.02782256,3.85248948 5.02782256,3.85248948 C5.02782256,3.85248948 5.52365008,3.35546985 5.71437585,2.82217742 C5.90543477,2.28834151 6.0961606,1.79288219 6.85922158,1.29689691 C7.62245792,0.802279103 8.11828544,0.535028052 8.61581347,0.305259467 C9.11162342,0.0767005611 9.7983345,-2.77555756e-17 10.3706697,0.610010521 C10.9431977,1.22035414 11.2479313,1.48760519 11.4390077,1.67833099 C11.6297335,1.86940743 12.0111676,2.74666901 13.1185484,2.28834151 C14.2243689,1.83157433 15.866427,0.954312765 16.8972826,0.991795229 C17.9265428,1.03083801 19.6439341,1.9443899 20.2163394,2.59360098 C20.2163394,2.59360098 20.6732118,2.19076087 21.1702314,2.24964937 C21.5894109,2.30101683 21.7817321,2.74666901 22.1632188,3.50871318 C22.1632188,3.50871318 23.0408485,3.73692146 23.0408485,4.23427419 C23.0408485,4.23427419 23.0617111,4.22880435 23.092216,4.23153927 C23.1090463,4.21339411 23.124474,4.1964411 23.1421809,4.17864657 C23.3346774,3.98637798 23.4502104,3.87063464 23.5795933,3.78418653 C23.608871,3.7648317 23.6409537,3.7523317 23.674439,3.74119916 C23.6469145,3.66861851 23.608871,3.52685835 23.7107293,3.44861501 C23.8485273,3.34007714 24.1756662,3.21884642 24.5196353,3.51812763 C24.8166199,3.77750701 24.8248597,3.88057503 24.8248597,3.88057503 C24.8248597,3.88057503 25.075561,4.17983871 24.9307503,4.4207223 L26.3764025,4.4207223 L21.5520687,12.805575 C21.5641655,12.8584678 21.5783661,12.9125701 21.5909888,12.9670231 C21.5909888,12.9670231 22.201087,13.1952314 22.3918303,13.4237903 C22.3918303,13.4237903 22.9251403,13.4237903 23.1940743,13.3863078 C23.4600281,13.3488078 23.4991234,13.3488078 23.536641,13.1952314 C23.5757363,13.0420056 23.5757363,12.8904804 23.4991234,12.6242637 C23.4225105,12.3570126 23.3080294,11.0226157 23.6523492,10.8693899 C23.7538569,10.8236851 23.8876227,10.812202 24.0420757,10.82642 C24.0434783,10.6689165 24.0462833,10.4727034 24.0462833,10.3751227 C23.8860449,10.3222125 23.404453,10.161974 23.404453,10.161974 L23.5813464,9.62575384 L28.7412342,11.3333625 L28.6593618,11.5268233 L28.6593618,11.5268233 L28.6593618,11.5268233 Z" id="path18"></path>
                                </g>
                                <g id="g20" transform="translate(17.105107, 20.282978)" fill="#FFFFFF">
                                    <path id="path22"></path>
                                </g>
                                <g id="g24" transform="translate(26.923129, 11.497300)" fill="#FFFFFF">
                                    <path d="M0.24526648,0 C0.191795232,0.0737903226 0.0887096773,0.214340813 0,0.337096774 C0.224053296,0.411062413 0.431451613,0.479207574 0.600105189,0.533292426 C0.565392706,0.353699159 0.527875176,0.164183029 0.512447405,0.0891830294 C0.423211781,0.0599228613 0.348176718,0.0347475456 0.24526648,0 L0.24526648,0 L0.24526648,0 Z" id="path26"></path>
                                </g>
                                <g id="g28" transform="translate(14.397533, 20.282978)" fill="#FFFFFF">
                                    <path d="M3.91532258,0 L3.75105189,0.575035065 L2.14375876,0.575035065 L1.93320477,0 L1.6115007,0 L1.42917251,0.575035065 L0.893057502,0.575035065 L0.566970547,0 L0.349754558,0 C0.259291725,0.130960729 0.0236676017,0.495792426 0,0.78436185 L5.03103087,0.78436185 L5.03103087,0.604312761 L4.40568022,0.604312761 L4.21335905,0 L3.91532258,0 L3.91532258,0 L3.91532258,0 Z" id="path30"></path>
                                </g>
                                <g id="g32" transform="translate(23.683472, 9.940166)" fill="#FFFFFF">
                                    <path d="M0.586079942,0.984607292 C0.683730716,1.00275245 0.786640955,1.02810309 0.894109398,1.05839761 L1.20599579,0.60042076 L2.73264376,1.10582048 L2.75052595,1.73004909 C2.84957924,1.76325386 2.94985975,1.79680926 3.04856241,1.83036465 L3.41111501,1.33010168 L3.92075736,1.49873773 L4.05014025,2.15874825 C4.15147265,2.19230365 4.22002104,2.21439341 4.23965638,2.22003857 C4.24088359,2.22003857 4.24088359,2.22158135 4.24246143,2.22158135 C4.36097475,2.13511571 4.7173913,1.85518934 4.83432679,1.58075035 L0.0555750348,0 L0,0.170178822 L0.593092568,0.366392006 L0.586079942,0.984607292 L0.586079942,0.984607292 L0.586079942,0.984607292 Z" id="path34"></path>
                                </g>
                                <g id="g36" transform="translate(9.328757, 5.004103)" fill="#FFFFFF">
                                    <path d="M3.63437938,8.10869565 C4.07454418,8.38862202 4.5088885,8.64524894 4.93520337,8.87501753 C5.81684782,7.94998248 7.74163747,5.92615708 9.25408485,4.33872721 C8.7905505,3.72717391 8.23199511,3.07538569 7.56474402,2.39005961 C3.71107995,-1.57784011 1.04915849,0.692373774 0.581416548,1.43609747 C-0.525946703,3.19095372 0.276157083,5.97357997 3.63437938,8.10869565 L3.63437938,8.10869565 L3.63437938,8.10869565 Z" id="path38"></path>
                                </g>
                                <g id="g40" transform="translate(15.459069, 10.271792)" fill="#FFFFFF">
                                    <path d="M0,4.20466339 C2.28278401,5.24119916 4.12096774,5.46647966 4.71721599,4.78695652 C5.30627627,4.11272791 5.33835905,2.42617461 3.77559607,0 C2.46528752,1.46348177 0.880084152,3.22997896 0,4.20466339 L0,4.20466339 L0,4.20466339 Z" id="path42"></path>
                                </g>
                                <g id="g44" transform="translate(3.308280, 3.960782)" fill="#FFFFFF">
                                    <path d="M0.342584151,1.71633941 C0.0374824684,2.06011571 0,3.05192847 0,3.05192847 L2.48043478,0.915269985 L1.48760519,2.74545933 C1.48760519,2.74545933 3.16697055,1.98359046 3.31900421,1.60180575 C3.31900421,1.60180575 2.97522791,0.763569426 2.21318373,3.11423009e-16 C2.21318373,3.11423009e-16 0.649035765,1.37357994 0.342584151,1.71633941 L0.342584151,1.71633941 L0.342584151,1.71633941 Z" id="path46"></path>
                                </g>
                                <g id="g48" transform="translate(26.762715, 12.349738)" fill="#FFFFFF">
                                    <path id="path50"></path>
                                </g>
                                <g id="g52" transform="translate(14.801460, 19.416568)" fill="#FFFFFF">
                                    <path d="M0.0655680223,0.505785416 C0.131136045,0.588008415 0.305224404,0.56136045 0.453892005,0.444424965 C0.603260869,0.328892006 0.672685834,0.166023843 0.607468442,0.0838008416 C0.543127631,4.16333634e-17 0.36903927,0.0266479664 0.218793829,0.143408135 C0.0697755963,0.26069425 -6.24500451e-17,0.423737728 0.0655680223,0.505785416 L0.0655680223,0.505785416 L0.0655680223,0.505785416 Z" id="path54"></path>
                                </g>
                                <g id="g56" transform="translate(6.566170, 1.871880)" fill="#FFFFFF">
                                    <path d="M0.49975456,0.974859745 C0.47612202,0.701946005 0.786868863,0.510887095 0.928962131,0.272913745 C0.786868863,0.0821879381 0.536044882,-6.9388939e-18 0.334028752,0.107012623 C0.298071529,0.665655682 0.13062763,1.17808555 0,1.68948106 C0.285396213,1.90382188 0.214340813,1.35664446 0.525087658,1.34551192 C0.703138147,1.2838885 0.797826087,1.4513324 0.905329592,1.55832749 C0.964919356,1.71309607 0.928962131,1.9164972 0.810483871,2.04745792 L1.09589761,2.02230014 C1.21435834,1.88018934 1.2506662,1.66567321 1.19193548,1.48727209 C1.1085554,1.16558555 0.726770685,1.1417777 0.49975456,0.974859745 L0.49975456,0.974859745 L0.49975456,0.974859745 Z" id="path58"></path>
                                </g>
                                <g id="g60" transform="translate(21.151390, 2.554138)" fill="#FFFFFF">
                                    <path id="path62"></path>
                                </g>
                                <g id="g64" transform="translate(20.524461, 2.643338)" fill="#FFFFFF">
                                    <path d="M1.12850631,1.17687587 C0.839761573,0.788411642 0.576788221,0.38727209 0.263323983,0 C0.150420757,0 0.0254207574,0.0612903227 0,0.186798738 C0.300841515,0.512429874 0.653401123,0.838569426 0.915147266,1.16318373 C0.965287519,1.21334151 1.06556802,1.30254208 1.12850631,1.17687587 L1.12850631,1.17687587 L1.12850631,1.17687587 Z" id="path66"></path>
                                </g>
                                <g id="g68" transform="translate(19.973094, 2.993111)" fill="#FFFFFF">
                                    <path d="M1.16567321,1.36605891 C1.24070827,1.41502455 1.4302244,1.41502455 1.4053296,1.26574334 L0.376051893,0.0876577839 C0.237903226,6.9388939e-18 0.0752103789,0.0876577839 0,0.225490884 C0.388323983,0.613955119 0.839761573,0.914936889 1.16567321,1.36605891 L1.16567321,1.36605891 L1.16567321,1.36605891 Z" id="path70"></path>
                                </g>
                                <g id="g72" transform="translate(19.484139, 3.419074)" fill="#FFFFFF">
                                    <path d="M1.50438289,1.03923562 L0.476157083,0.163166199 C0.313639551,9.02056208e-17 0.0750350632,0.0253506311 0,0.276157083 C0.463884993,0.626963535 0.976332397,0.85124474 1.40392707,1.27738429 C1.53068023,1.28988429 1.56697055,1.12843619 1.50438289,1.03923562 L1.50438289,1.03923562 L1.50438289,1.03923562 Z" id="path74"></path>
                                </g>
                                <g id="g76" transform="translate(20.864399, 4.006996)" fill="#FFFFFF">
                                    <path d="M1.40392707,0.927436887 C1.57924264,0.664463535 2.01823282,0.689463532 1.90532959,0.300823983 C1.88008415,0.126700561 1.6407784,-1.73472348e-16 1.42882188,0.0513674613 C0.651823282,0.564130437 0.0987026647,1.35373422 0,2.16868864 C0.111325386,2.29382889 0.261921459,2.30650421 0.424789621,2.30650421 C0.764726506,1.87882188 0.938814866,1.32857644 1.40392707,0.927436887 L1.40392707,0.927436887 L1.40392707,0.927436887 Z" id="path78"></path>
                                </g>
                                <g id="g80" transform="translate(19.144202, 4.033539)" fill="#FFFFFF">
                                    <path d="M1.4931627,1.13937587 C1.58082048,1.12671809 1.70634643,0.988884992 1.61833801,0.876069426 C1.11693548,0.587762971 0.653576439,0.200490884 0.113078541,0 C0.0254207574,0.0864656381 0,0.213148667 0.0126227209,0.338306452 L1.4931627,1.13937587 L1.4931627,1.13937587 L1.4931627,1.13937587 Z" id="path82"></path>
                                </g>
                                <g id="g84" transform="translate(18.931018, 4.696458)" fill="#FFFFFF">
                                    <path d="M1.46826788,0.927769984 C1.55592567,0.902419355 1.65620617,0.789603789 1.56854839,0.714446003 C1.10466339,0.476455119 0.651823282,0.175648667 0.151998598,0 C0.0892356242,0.0753155681 0,0.213148667 0.0766129031,0.275806452 C0.578015429,0.427489481 0.990708276,0.727103787 1.46826788,0.927769984 L1.46826788,0.927769984 L1.46826788,0.927769984 Z" id="path86"></path>
                                </g>
                                <g id="g88" transform="translate(21.616678, 4.909607)" fill="#FFFFFF">
                                    <path d="M0,1.41656732 C0.0736325385,1.59067321 0.211605891,1.59067321 0.38727209,1.54051543 C0.888499297,1.26607644 1.24070827,0.726770685 1.34098878,0.162990884 C1.32713885,0.0749824684 1.21581346,0.0248246844 1.14042777,0 C0.614130435,0.350964236 0.288043478,0.900894111 0,1.41656732 L0,1.41656732 L0,1.41656732 Z" id="path90"></path>
                                </g>
                                <g id="g92" transform="translate(23.347743, 5.036290)" fill="#FFFFFF">
                                    <path d="M0,0.0876577839 L0.562587658,1.07656031 C0.540497898,0.665655682 0.362026648,0.318969145 0.122370267,0 C0.0932678821,0.00548737727 0.0655680223,0.00994039273 0.0375175316,0.010957223 L0,0.0876577839 L0,0.0876577839 L0,0.0876577839 Z" id="path94"></path>
                                </g>
                                <g id="g96" transform="translate(23.057947, 5.373405)" fill="#FFFFFF">
                                    <path d="M0.777349229,1.17705119 C0.789621319,0.739446005 0.376227209,0.388639551 0.150420757,0 L0,0.300806452 L0.601683029,1.20187588 C0.653401123,1.19074334 0.739481066,1.22720897 0.777349229,1.17705119 L0.777349229,1.17705119 L0.777349229,1.17705119 Z" id="path98"></path>
                                </g>
                                <g id="g100" transform="translate(18.780598, 5.260572)" fill="#FFFFFF">
                                    <path d="M1.29260168,0.525105189 C0.877805047,0.338306452 0.47668303,0.125157784 0.0380434783,0 L0,0.1128331 C0.327314165,0.474929874 0.79119916,0.538797334 1.29260168,0.525105189 L1.29260168,0.525105189 L1.29260168,0.525105189 Z" id="path102"></path>
                                </g>
                                <g id="g104" transform="translate(22.732210, 6.075526)" fill="#FFFFFF">
                                    <path d="M0,0.162640252 C0.22545582,0.424754558 0.22545582,0.900876576 0.576437589,0.963551894 C0.664095373,0.600070127 0.40112202,0.262798036 0.187938289,0 C0.100280505,0 0.0122720897,0.0737903226 0,0.162640252 L0,0.162640252 L0,0.162640252 Z" id="path106"></path>
                                </g>
                                <g id="g108" transform="translate(22.293220, 6.614306)" fill="#FFFFFF">
                                    <path d="M0.0113955119,0 C-1.73472348e-18,0.37477209 0.275946704,0.71307854 0.451262272,1.03751753 L0.664446005,1.07671809 C0.714586253,0.662920756 0.40112202,0.37477209 0.250701262,0.0501577839 L0.0113955119,0 L0.0113955119,0 L0.0113955119,0 Z" id="path110"></path>
                                </g>
                                <g id="g112" transform="translate(20.662260, 6.639131)" fill="#FFFFFF">
                                    <path id="path114"></path>
                                </g>
                                <g id="g116" transform="translate(21.414363, 6.801087)" fill="#FFFFFF">
                                    <path d="M1.06714586,1.45406732 L1.07924264,1.06406031 C0.952664797,0.687745442 0.82871669,0.338306452 0.515603085,0.0375 C0.363604488,0.0501753155 0.0627629734,1.38777878e-17 0,0.175315568 C0.151998598,0.676612902 0.465462833,1.41623422 1.06714586,1.45406732 L1.06714586,1.45406732 L1.06714586,1.45406732 Z" id="path118"></path>
                                </g>
                                <g id="g120" transform="translate(11.398987, 13.200808)" fill="#FFFFFF">
                                    <path id="path122"></path>
                                </g>
                                <g id="g124" transform="translate(12.038101, 13.252157)" fill="#FFFFFF">
                                    <path id="path126"></path>
                                </g>
                                <g id="g128" transform="translate(10.446219, 13.288115)" fill="#FFFFFF">
                                    <path d="M0.88874474,1.12841865 C0.625420756,0.789954416 1.00447055,-0.175315568 0.288323983,0.0395511921 C-0.175315568,0.465515428 0.551630434,0.739954418 0.639288218,1.16625175 C0.702121316,1.19107644 0.852436887,1.22855891 0.88874474,1.12841865 L0.88874474,1.12841865 L0.88874474,1.12841865 Z" id="path130"></path>
                                </g>
                                <g id="g132" transform="translate(12.654108, 13.401456)" fill="#FFFFFF">
                                    <path id="path134"></path>
                                </g>
                                <g id="g136" transform="translate(13.318045, 13.728805)" fill="#FFFFFF">
                                    <path id="path138"></path>
                                </g>
                                <g id="g140" transform="translate(10.032579, 13.814745)" fill="#FFFFFF">
                                    <path d="M0.175666199,0 C0.0880084152,0.125666199 0.0251753156,0.263323983 0.0126753156,0.413814867 C-1.73472348e-18,0.789936885 0.288499299,1.03923562 0.476472651,1.32885694 C0.626963535,1.28993689 0.802279103,1.34007714 0.9151122,1.19123422 C0.76341164,0.764866761 0.587762971,0.277191445 0.175666199,0 L0.175666199,0 L0.175666199,0 Z" id="path142"></path>
                                </g>
                                <g id="g144" transform="translate(10.646885, 14.867655)" fill="#FFFFFF">
                                    <path d="M1.4292251,0.439165498 L1.44291725,0.250876578 L1.328892,0.0627629734 C0.803804347,0 0.350964236,0.2871669 0.0626577842,0.713359045 C-6.9388939e-18,0.840287516 0.0501577839,0.976332397 0.0876577839,1.07678822 C0.501455119,0.763674615 0.876051895,0.349754558 1.4292251,0.439165498 L1.4292251,0.439165498 L1.4292251,0.439165498 Z" id="path146"></path>
                                </g>
                                <g id="g148" transform="translate(12.378126, 14.967935)" fill="#FFFFFF">
                                    <path d="M0.88974404,0.249474053 C0.852436887,-3.46944695e-18 0.576788221,0.0380434783 0.376139551,0.0127980365 C0.199281206,0.0490883589 6.24500451e-17,0.150596073 0.0374824684,0.363779804 C0.0991234219,0.588008415 0.213148667,0.788394111 0.43862202,0.863955121 C0.664446005,0.714761569 0.963709679,0.551718092 0.88974404,0.249474053 L0.88974404,0.249474053 L0.88974404,0.249474053 Z" id="path150"></path>
                                </g>
                                <g id="g152" transform="translate(13.418360, 15.356961)" fill="#FFFFFF">
                                    <path id="path154"></path>
                                </g>
                                <g id="g156" transform="translate(13.882334, 15.656049)" fill="#FFFFFF">
                                    <path id="path158"></path>
                                </g>
                                <g id="g160" transform="translate(11.551022, 15.656049)" fill="#FFFFFF">
                                    <path d="M0.601612902,0.100280505 C0.386921459,0.0376928471 0.161448106,3.46944695e-17 0,0.125701262 C0.125140252,0.839761573 0.814428469,2.74403927 1.09041024,2.75666199 C1.2657258,2.19249649 1.17806802,1.74123422 1.2282258,1.11570827 C1.10308555,0.714586253 0.976384994,0.326086956 0.601612902,0.100280505 L0.601612902,0.100280505 L0.601612902,0.100280505 Z" id="path162"></path>
                                </g>
                                <g id="g164" transform="translate(14.648059, 15.806645)" fill="#FFFFFF">
                                    <path id="path166"></path>
                                </g>
                                <g id="g168" transform="translate(10.922867, 15.982136)" fill="#FFFFFF">
                                    <path d="M0.262798036,0 C0.148772791,0.125175315 0.0501577839,0.275771388 0,0.413569425 C0.0275596073,0.774368865 0.109730014,1.12815568 0.246353436,1.45704768 C0.402331697,1.83432679 0.628155682,2.17829593 0.924509115,2.46248247 C0.962184431,2.49842216 1.00120968,2.53471248 1.04025245,2.56837307 C1.12791024,2.53085554 1.26726858,2.53085554 1.20324334,2.41795231 C0.864586253,1.98036465 0.388464236,0.275771388 0.262798036,0 L0.262798036,0 L0.262798036,0 Z" id="path170"></path>
                                </g>
                                <g id="g172" transform="translate(12.879405, 16.182522)" fill="#FFFFFF">
                                    <path d="M0.250823983,0.213183731 C0.250823983,0.802419353 0.326157083,1.44179523 0.0876577839,1.9414446 C0.0518758766,2.05452314 3.46944695e-17,2.35536465 0.225823983,2.31784712 L0.236956522,2.21756662 C0.590673213,1.92934783 0.727296634,1.4289972 0.764779103,0.94021739 C0.677121319,0.626753158 0.802279103,-0.175315568 0.250823983,0.213183731 L0.250823983,0.213183731 L0.250823983,0.213183731 Z" id="path174"></path>
                                </g>
                                <g id="g176" transform="translate(7.872638, 17.794022)" fill="#FFFFFF">
                                    <path d="M1.8204418,1.30084152 C1.59170758,1.50859046 1.32017882,1.69652875 0.715655681,1.69652875 L0,3.27892707 L0.757591166,3.27892707 C1.05019285,3.27892707 1.57082749,2.96809257 2.00825736,2.44740533 C2.44535414,1.92636746 3.59859748,0.668828894 3.59859748,0.668828894 L3.12948808,-1.60901888e-16 C3.12948808,-1.60901888e-16 2.05021038,1.09361851 1.8204418,1.30084152 L1.8204418,1.30084152 L1.8204418,1.30084152 Z" id="path178"></path>
                                </g>
                                <g id="g180" transform="translate(1.582509, 19.490551)" fill="#FFFFFF">
                                    <path d="M0,1.58345021 L1.02091515,1.58345021 L1.90142006,0 L0.880347126,0 L0,1.58345021 L0,1.58345021 L0,1.58345021 Z" id="path182"></path>
                                </g>
                                <g id="g184" transform="translate(13.742975, 7.189569)" fill="#FFFFFF">
                                    <path d="M7.11037868,0.144828191 C6.965568,0.289849229 0.0489656381,7.54589763 0.0489656381,7.54589763 C0.00822230013,7.59884294 5.20417043e-18,7.65319074 0.0125,7.70613605 C0.0489656381,7.86479661 0.277191445,8.00820479 0.461062412,8.05168302 C0.552997897,8.0725456 0.63364306,8.068338 0.672615706,8.02906732 C0.819179521,7.88460731 7.11037868,0.906539269 7.43769285,0.506942497 C7.76483168,0.108537868 7.25641655,1.38777878e-17 7.11037868,0.144828191 L7.11037868,0.144828191 L7.11037868,0.144828191 Z" id="path186"></path>
                                </g>
                                <g id="g188" transform="translate(23.081614, 3.996038)" fill="#FFFFFF">
                                    <path d="M0.967917252,0.39943899 C1.2578892,0.1085554 0.785589058,5.55111512e-17 0.677068723,0.0722650771 C0.568022439,0.144512623 0.458274895,0.253401122 0.277173913,0.435904628 C-0.175315568,0.888236327 0.403927069,0.960816973 0.967917252,0.39943899 L0.967917252,0.39943899 L0.967917252,0.39943899 Z" id="path190"></path>
                                </g>
                                <g id="g192" transform="translate(17.344588, 4.923476)" fill="#D0BD7F">
                                    <path d="M3.06013324,1.44018233 L2.90708275,1.09742286 C2.90708275,1.09742286 2.22002104,1.28814867 1.18969144,0.71563815 C1.02121319,0.62096774 1.22878681,0.181136045 1.22878681,0.181136045 C1.22878681,0.181136045 1.164446,0.0919354839 1.0585554,0 L0.223176718,0 C-0.175315568,0.395476859 0.395687237,0.686535765 0.579768585,0.906714585 C0.681100984,1.02792777 1.45406732,1.89696704 2.2996143,3.30634642 C2.72317672,2.86223703 3.04768583,2.52066971 3.21195652,2.34947405 L3.06013324,1.44018233 L3.06013324,1.44018233 L3.06013324,1.44018233 Z" id="path194"></path>
                                </g>
                                <g id="g196" transform="translate(18.148585, 16.774562)" fill="#D0BD7F">
                                    <path d="M0,0.305224404 L0.0750350632,1.082223 L0.696353434,0.00122720897 C0.670056102,0.00122720897 0.643057505,0.00122720897 0.61553296,-1.18476585e-16 C0.61553296,-6.11492052e-17 0,0.305224404 0,0.305224404 L0,0.305224404 L0,0.305224404 Z" id="path198"></path>
                                </g>
                                <g id="g200" transform="translate(16.536909, 20.282978)" fill="#D0BD7F">
                                    <path id="path202"></path>
                                </g>
                                <g id="g204" transform="translate(0.792905, 4.923476)" fill="#D0BD7F">
                                    <path d="M10.091953,12.6170407 L10.1061536,12.6031907 C9.80808203,11.9557503 9.80380437,11.3552945 9.80380437,11.3552945 C9.80380437,11.3552945 9.53774545,10.7078541 9.65229663,10.5546284 C9.65229663,10.5546284 8.77296634,9.8302244 9.04074334,8.95291026 L8.77296634,8.53362552 C8.54475808,8.11434082 6.13930577,4.56693548 6.9806101,2.9664972 C6.9806101,2.9664972 7.55296282,2.3174439 7.13246845,1.47768233 C6.71318371,0.639112902 6.29270685,0.944372371 5.98760521,1.09742286 C5.68234573,1.24912342 3.23974404,2.69924614 3.23974404,2.69924614 L3.88879734,1.21162342 C3.88879734,1.21162342 2.66740884,2.392777 2.32310659,2.81327139 C2.32310659,2.81327139 2.05739832,1.21162342 2.78295933,0.485887098 C2.94561711,0.323229313 3.11151823,0.157503506 3.27021389,0 L0,0 L8.37336958,14.2159186 C8.52386047,14.1549089 8.62968092,14.071108 8.72726158,13.9818724 C8.94863255,13.7813114 10.0809958,12.6282609 10.091953,12.6170407 L10.091953,12.6170407 L10.091953,12.6170407 Z" id="path206"></path>
                                </g>
                                <g id="g208" transform="translate(20.188907, 4.923476)" fill="#D0BD7F">
                                    <path d="M3.58204769,0 C3.55014025,0.0164270687 3.51963534,0.0318373071 3.48737728,0.0457047686 C3.68671108,0.252191445 4.00420757,0.692005611 3.84098878,1.28814867 C3.84098878,1.28814867 3.84098878,1.70743338 3.61272791,1.70743338 C3.61272791,1.70743338 3.65024544,2.66002805 3.07801543,2.5460028 C3.07801543,2.5460028 3.15445302,3.84256662 1.62815568,3.34673913 C1.62815568,3.34673913 1.31048387,3.32568373 0.992987376,3.16423562 C0.784186534,3.39947405 0.434607293,3.79393408 0,4.2799965 C0.463709677,5.17145865 0.909361853,6.20897618 1.24088359,7.35948455 L5.47633239,0 L3.58204769,0 L3.58204769,0 L3.58204769,0 Z" id="path210"></path>
                                </g>
                                <g id="g212" transform="translate(15.185927, 20.282978)" fill="#D0BD7F">
                                    <path id="path214"></path>
                                </g>
                                <g id="g216" transform="translate(9.979686, 15.096442)" fill="#D0BD7F">
                                    <path d="M6.91381485,0.649018234 C6.87629734,0.534887797 5.23551895,0.115532959 5.04319776,0 C5.04319776,0 4.6867812,0.0625876577 4.96816268,0.343793829 C5.27303647,0.649018234 5.23551895,1.10729313 5.00568024,1.71581346 L4.73832398,1.79225105 C4.73832398,1.79225105 4.2049965,2.78401122 3.86241234,2.63201262 C3.86241234,2.63201262 3.40273492,3.62377279 2.83038219,3.66146564 C2.44859747,3.68653576 2.11679523,3.76332398 1.73397615,3.49316269 C1.47219495,3.77840112 0.470985273,4.86623424 0.0974228613,5.30925668 C0.0655680223,5.34835205 0.0335553997,5.38569426 0,5.42198458 L3.39416199,11.1867111 L6.28565918,6.16269285 L4.20774895,6.16269285 L4.22589411,5.95389198 C4.24798387,5.67286113 4.4276648,5.35396215 4.54723002,5.16988079 C4.54723002,5.03488781 4.58246844,4.11974053 5.50147263,4.11974053 C5.50147263,4.11974053 6.45536468,4.08064516 6.57107294,3.96651473 C6.685554,3.85238429 6.60894111,3.08923562 6.60894111,3.08923562 L6.91381485,3.08923562 C6.91381485,3.08923562 6.91381485,2.4414446 6.79968445,2.05995793 C6.685554,1.67812062 6.57107294,1.22142356 6.60894111,1.06837307 C6.64645863,0.916199158 6.95291023,0.76297335 6.91381485,0.649018234 L6.91381485,0.649018234 L6.91381485,0.649018234 Z" id="path218"></path>
                                </g>
                                <g id="g220" transform="translate(0.035314, 0.070792)" fill="#000000">
                                    <path d="M23.5813464,9.62575384 L23.404453,10.161974 C23.404453,10.161974 23.8860449,10.3222125 24.0462833,10.3751227 C24.0462833,10.4727034 24.0434783,10.6689165 24.0420757,10.82642 C23.8876227,10.812202 23.7538569,10.8236851 23.6523492,10.8693899 C23.3080294,11.0226157 23.4225105,12.3570126 23.4991234,12.6242637 C23.5757363,12.8904804 23.5757363,13.0420056 23.536641,13.1952314 C23.4991234,13.3488078 23.4600281,13.3488078 23.1940743,13.3863078 C22.9251403,13.4237903 22.3918303,13.4237903 22.3918303,13.4237903 C22.201087,13.1952314 21.5909888,12.9670231 21.5909888,12.9670231 C21.5783661,12.9125701 21.5641655,12.8584678 21.5520687,12.805575 L26.3764025,4.4207223 L24.9307503,4.4207223 C25.075561,4.17983871 24.8248597,3.88057503 24.8248597,3.88057503 C24.8248597,3.88057503 24.8166199,3.77750701 24.5196353,3.51812763 C24.1756662,3.21884642 23.8485273,3.34007714 23.7107293,3.44861501 C23.608871,3.52685835 23.6469145,3.66861851 23.674439,3.74119916 C23.6409537,3.7523317 23.608871,3.7648317 23.5795933,3.78418653 C23.4502104,3.87063464 23.3346774,3.98637798 23.1421809,4.17864657 C23.124474,4.1964411 23.1090463,4.21339411 23.092216,4.23153927 C23.0617111,4.22880435 23.0408485,4.23427419 23.0408485,4.23427419 C23.0408485,3.73692146 22.1632188,3.50871318 22.1632188,3.50871318 C21.7817321,2.74666901 21.5894109,2.30101683 21.1702314,2.24964937 C20.6732118,2.19076087 20.2163394,2.59360098 20.2163394,2.59360098 C19.6439341,1.9443899 17.9265428,1.03083801 16.8972826,0.991795229 C15.866427,0.954312765 14.2243689,1.83157433 13.1185484,2.28834151 C12.0111676,2.74666901 11.6297335,1.86940743 11.4390077,1.67833099 C11.2479313,1.48760519 10.9431977,1.22035414 10.3706697,0.610010521 C9.7983345,5.55111512e-17 9.11162342,0.0767005611 8.61581347,0.305259467 C8.11828544,0.535028052 7.62245792,0.802279103 6.85922158,1.29689691 C6.0961606,1.79288219 5.90543477,2.28834151 5.71437585,2.82217742 C5.52365008,3.35546985 5.02782256,3.85248948 5.02782256,3.85248948 C5.02782256,3.85248948 4.79242637,4.08790322 4.45976508,4.4207223 L-6.22846016e-16,4.4207223 L8.68257363,19.1591865 C8.64063813,19.1619916 8.59886047,19.1633941 8.55298035,19.1633941 L2.27568373,19.1633941 L1.11011571,21.2610449 L7.9027349,21.2610449 L8.59491585,21.259467 C8.88185482,21.259467 9.26057153,21.0687237 9.62403576,20.7580645 L13.3428296,27.0718794 L16.728629,21.1882889 L19.5866059,21.1882889 L19.5866059,20.624474 L18.9098878,20.624474 C18.8802595,20.5352385 18.8246844,20.3597475 18.7771739,20.2121318 L18.8818373,20.2121318 L19.3778051,19.983871 C19.3778051,19.4112903 18.691094,18.6102735 18.691094,18.6102735 L18.5783661,17.973878 L19.4279453,16.4960204 C19.5282258,16.407486 19.5673212,16.3221073 19.5673212,16.3221073 C19.5673212,16.3221073 23.4991234,14.9500876 24.0711781,14.6453892 C24.6435835,14.3400947 24.7582398,13.3097651 24.7582398,13.3097651 C25.5212132,13.6145161 25.8639551,12.7762973 25.8639551,12.7762973 C25.8639551,12.7762973 26.1313113,12.8904804 26.819425,13.0045056 C27.5059607,13.120249 27.848878,12.7762973 27.9265428,12.5477385 C27.9616059,12.441918 27.9794881,12.3460554 27.9782609,12.2678121 C28.0767882,12.1955645 28.5115708,11.8721424 28.6593618,11.5268233 L28.7412342,11.3333625 L23.5813464,9.62575384 L23.5813464,9.62575384 L23.5813464,9.62575384 Z M23.3234572,4.36115007 C23.5045582,4.17864657 23.6143058,4.06975806 23.723352,3.99751052 C23.8318724,3.92524544 24.3041725,4.03380084 24.0142005,4.32468443 C23.4502104,4.8860624 22.8709678,4.81348177 23.3234572,4.36115007 L23.3234572,4.36115007 L23.3234572,4.36115007 Z M23.4347826,4.9654979 C23.674439,5.28446705 23.8529102,5.63115358 23.875,6.04205821 L23.3124123,5.05315568 L23.3499299,4.97645511 C23.3779804,4.97543831 23.4056802,4.97098529 23.4347826,4.9654979 L23.4347826,4.9654979 L23.4347826,4.9654979 Z M23.1730365,5.30261221 C23.3988429,5.69125176 23.812237,6.04205821 23.7999649,6.47966337 C23.7620968,6.52982119 23.6760168,6.49335552 23.6242987,6.50448808 L23.0226157,5.60341868 L23.1730365,5.30261221 L23.1730365,5.30261221 L23.1730365,5.30261221 Z M22.2692847,6.54351334 L22.5085905,6.59367111 C22.6590112,6.91828544 22.9724755,7.20643408 22.9223352,7.62023144 L22.7091515,7.58103087 C22.5338359,7.25659185 22.2578892,6.91828544 22.2692847,6.54351334 L22.2692847,6.54351334 L22.2692847,6.54351334 Z M22.4582749,7.79435482 L22.4461781,8.18436184 C21.8444951,8.14652874 21.5310309,7.40690744 21.3790322,6.9056101 C21.4417952,6.73029455 21.7426367,6.78046984 21.8946353,6.76779455 C22.207749,7.06860097 22.331697,7.41803995 22.4582749,7.79435482 L22.4582749,7.79435482 L22.4582749,7.79435482 Z M22.6968794,6.16737377 C22.7091515,6.07852384 22.7971599,6.00473352 22.8848177,6.00473352 C23.0980014,6.26753158 23.3609747,6.60480363 23.273317,6.96828542 C22.9223352,6.9056101 22.9223352,6.42948808 22.6968794,6.16737377 L22.6968794,6.16737377 L22.6968794,6.16737377 Z M22.9223352,5.00180574 C22.8220547,5.56558553 22.4698457,6.10489132 21.9686185,6.37933031 C21.7929523,6.42948808 21.654979,6.42948808 21.5813464,6.25538221 C21.8693899,5.73970897 22.1954769,5.18977911 22.7217742,4.83881487 C22.7971599,4.86363953 22.9084853,4.91379735 22.9223352,5.00180574 L22.9223352,5.00180574 L22.9223352,5.00180574 Z M22.2578892,3.98757013 C22.4698457,3.93620266 22.7091515,4.06290323 22.7343969,4.23702665 C22.8473001,4.6256662 22.4083099,4.6006662 22.2329944,4.86363953 C21.7678822,5.26477911 21.5937938,5.81502455 21.253857,6.24270687 C21.0909888,6.24270687 20.9403927,6.23003158 20.8290673,6.10489132 C20.92777,5.28993687 21.4808906,4.5003331 22.2578892,3.98757013 L22.2578892,3.98757013 L22.2578892,3.98757013 Z M14.380277,15.1478436 C14.3413044,15.1871143 14.2606592,15.1913219 14.1687237,15.1704593 C13.9848527,15.126981 13.7566269,14.9835729 13.7201613,14.8249124 C13.7076613,14.771967 13.7158836,14.7176192 13.7566269,14.6646739 C13.7566269,14.6646739 20.6732118,7.40862552 20.8180224,7.2636045 C20.9640603,7.11877631 21.4724755,7.22731418 21.1453366,7.62571877 C20.8180224,8.02531558 14.5268408,15.0033836 14.380277,15.1478436 L14.380277,15.1478436 L14.380277,15.1478436 Z M14.912535,15.9627104 L14.8497721,16.1622195 L14.6127454,16.124176 L14.6492111,15.7731943 C14.7759643,15.735852 14.8261045,15.8862728 14.912535,15.9627104 L14.912535,15.9627104 L14.912535,15.9627104 Z M14.1741935,17.0757889 C13.9725105,17.051946 14.0348352,16.8261395 13.9471774,16.7009642 C14.1478261,16.400298 13.8470196,15.8987202 14.1351683,15.6229488 C14.3356417,15.585256 14.3858871,15.8249123 14.4237553,15.936413 C14.348317,16.3126403 14.5754032,16.8890778 14.1741935,17.0757889 L14.1741935,17.0757889 L14.1741935,17.0757889 Z M10.9123773,14.9351858 C10.7995442,15.0840287 10.6242286,15.0338885 10.4737377,15.0728085 C10.2857644,14.7831872 9.99726508,14.5338885 10.0099404,14.1577665 C10.0224404,14.0072756 10.0852735,13.8696178 10.1729313,13.7439516 C10.585028,14.0211431 10.7606767,14.5088184 10.9123773,14.9351858 L10.9123773,14.9351858 L10.9123773,14.9351858 Z M10.6992286,13.2568724 C11.4153752,13.0420056 11.0363254,14.0072756 11.2996494,14.3457398 C11.2633415,14.4458801 11.113026,14.4083976 11.0501928,14.3835729 C10.9625351,13.9572756 10.235589,13.6828366 10.6992286,13.2568724 L10.6992286,13.2568724 L10.6992286,13.2568724 Z M10.6742286,15.5102209 C10.9625351,15.0840287 11.4153752,14.7968619 11.9404628,14.8596248 L12.0544881,15.0477384 L12.0407959,15.2360274 C11.4876227,15.1466164 11.113026,15.5605365 10.6992286,15.8736501 C10.6617286,15.7731943 10.6115708,15.6371494 10.6742286,15.5102209 L10.6742286,15.5102209 L10.6742286,15.5102209 Z M11.4513324,13.2568724 C11.465533,13.1676718 11.5768233,13.130014 11.6408485,13.1924965 C11.814972,13.4056452 11.7399895,13.7191269 11.7911816,13.9824509 C11.7146388,14.0326087 11.6408485,14.0326087 11.5768233,13.9697756 C11.4390077,13.7692847 11.3636746,13.4933029 11.4513324,13.2568724 L11.4513324,13.2568724 L11.4513324,13.2568724 Z M11.1503506,15.9113429 C11.2760168,16.1871143 11.7521388,17.891655 12.0907959,18.3292426 C12.1548212,18.4421459 12.0154628,18.4421459 11.927805,18.4796634 C11.8887623,18.4460028 11.849737,18.4097125 11.8120617,18.3737728 C11.5157083,18.0895862 11.2898843,17.7456171 11.133906,17.3683906 C10.9972826,17.0394986 10.9151122,16.6857118 10.8875526,16.3249124 C10.9377104,16.1871143 11.0363254,16.0365182 11.1503506,15.9113429 L11.1503506,15.9113429 L11.1503506,15.9113429 Z M11.5157083,15.7109572 C11.6771564,15.585256 11.9026297,15.6229488 12.1173212,15.6855365 C12.4920933,15.9113429 12.6187938,16.2998422 12.7439341,16.7009642 C12.6937763,17.3264902 12.7814341,17.7776999 12.6061185,18.3418653 C12.3301367,18.3292426 11.6408485,16.4250175 11.5157083,15.7109572 L11.5157083,15.7109572 L11.5157083,15.7109572 Z M12.4292602,14.4960203 C12.303594,14.5589586 12.1173212,14.4839235 12.1173212,14.3334151 C12.1296459,13.9434081 12.0027875,13.4684783 12.1548212,13.181364 C12.6061185,13.4056452 12.3301367,14.0812237 12.4292602,14.4960203 L12.4292602,14.4960203 L12.4292602,14.4960203 Z M12.3802945,15.2609221 C12.3428121,15.0477384 12.5420933,14.9462307 12.7189516,14.9099404 C12.9196003,14.9351858 13.195249,14.8971423 13.2325561,15.1466164 C13.3065217,15.4488604 13.0072581,15.6119039 12.7814341,15.7610975 C12.5559607,15.6855365 12.4419355,15.4851508 12.3802945,15.2609221 L12.3802945,15.2609221 L12.3802945,15.2609221 Z M13.0447581,14.4083976 C12.9555575,14.5214411 12.8050666,14.4574509 12.7064516,14.4337483 C12.6424088,14.0812237 12.6187938,13.7318023 12.6424088,13.3445302 C13.2077314,13.3306627 12.9555575,14.044758 13.0447581,14.4083976 L13.0447581,14.4083976 L13.0447581,14.4083976 Z M12.9317496,18.0531206 C13.170249,17.5534712 13.0949159,16.914148 13.0949159,16.3249124 C13.646371,15.936413 13.5212132,16.7384818 13.608871,17.051946 C13.5713885,17.5406732 13.4347651,18.0410238 13.0810484,18.3292426 L13.0699158,18.4295232 C12.8440919,18.4670407 12.8959678,18.1661992 12.9317496,18.0531206 L12.9317496,18.0531206 L12.9317496,18.0531206 Z M13.4585554,14.6353962 C13.2827314,14.3835729 13.3328892,14.0326087 13.3455645,13.7064516 C13.608871,13.6580119 13.4833801,13.9572756 13.5962132,14.0812237 C13.5460379,14.270582 13.6717041,14.5840288 13.4585554,14.6353962 L13.4585554,14.6353962 L13.4585554,14.6353962 Z M13.383047,15.8361325 C13.383047,15.6371494 13.3957223,15.3599755 13.608871,15.3110624 C13.7467041,15.2861676 13.7103962,15.4488604 13.7605715,15.5226683 C13.7467041,15.6995617 13.7467041,15.8987202 13.608871,15.9990007 C13.5087132,16.0117987 13.4083976,15.936413 13.383047,15.8361325 L13.383047,15.8361325 L13.383047,15.8361325 Z M20.6269285,6.76779455 L20.6647966,6.61730366 C20.8858695,6.568338 20.9879032,6.78593971 21.0504909,6.94738781 C20.923913,6.93746492 20.7943548,6.96674265 20.6953016,7.03385342 C20.657784,6.95732821 20.6493689,6.84998245 20.6269285,6.76779455 L20.6269285,6.76779455 L20.6269285,6.76779455 Z M21.3543128,2.53352034 C21.4670407,2.73399369 21.5685484,2.92231767 21.6297335,3.12298387 C21.3543128,3.16046634 21.2913745,2.78416901 21.1425315,2.6338359 C21.1160589,2.49602034 21.2787518,2.48334502 21.3543128,2.53352034 L21.3543128,2.53352034 L21.3543128,2.53352034 Z M20.7524544,2.57254558 C21.0659187,2.95981767 21.328892,3.36095722 21.6176368,3.74942146 C21.5546985,3.87508766 21.4544179,3.7858871 21.4042777,3.73572931 C21.1425315,3.41111501 20.7899719,3.08497545 20.4891304,2.75934432 C20.5145512,2.6338359 20.6395512,2.57254558 20.7524544,2.57254558 L20.7524544,2.57254558 L20.7524544,2.57254558 Z M20.3138149,3.00997545 L21.3430926,4.18806101 C21.3679874,4.33734222 21.1784713,4.33734222 21.1034362,4.28837658 C20.7775245,3.83725456 20.326087,3.53627279 19.937763,3.14780855 C20.0129733,3.00997545 20.1756662,2.92231767 20.3138149,3.00997545 L20.3138149,3.00997545 L20.3138149,3.00997545 Z M19.924965,3.5114481 L20.9531908,4.38751753 C21.0157784,4.47671809 20.9794881,4.6381662 20.8527349,4.6256662 C20.4251402,4.19952665 19.9126929,3.97524544 19.4488079,3.62443899 C19.5238429,3.37363254 19.7624474,3.34828191 19.924965,3.5114481 L19.924965,3.5114481 L19.924965,3.5114481 Z M19.2219495,3.96274544 C19.7624474,4.16323633 20.2258065,4.55050842 20.727209,4.83881487 C20.8152174,4.95163045 20.6896915,5.08946352 20.6020336,5.10212134 L19.1214937,4.30105189 C19.108871,4.17589411 19.1342917,4.04921108 19.2219495,3.96274544 L19.2219495,3.96274544 L19.2219495,3.96274544 Z M19.0476858,4.6256662 C19.5475105,4.80131487 20.0003506,5.10212134 20.4642356,5.34011221 C20.5518934,5.41527 20.4516129,5.52808553 20.3639551,5.55343616 C19.8863955,5.35276998 19.4737027,5.05315568 18.9723001,4.90147263 C18.8956873,4.83881487 18.9849228,4.70098177 19.0476858,4.6256662 L19.0476858,4.6256662 L19.0476858,4.6256662 Z M18.78331,5.18977911 C19.2219495,5.31493689 19.6230715,5.52808553 20.0378682,5.71488431 C19.5364656,5.72857645 19.0725807,5.66470897 18.7452665,5.30261221 L18.78331,5.18977911 L18.78331,5.18977911 L18.78331,5.18977911 Z M17.5324334,4.85268232 L18.367812,4.85268232 C18.4737027,4.94461781 18.5380435,5.03381835 18.5380435,5.03381835 C18.5380435,5.03381835 18.3304698,5.47365005 18.4989481,5.56832047 C19.5292777,6.14083098 20.2163394,5.95010521 20.2163394,5.95010521 L20.3693899,6.29286465 C20.3693899,6.29286465 20.3693899,6.29286465 20.5212132,7.20215637 C20.3569425,7.37335205 20.0324334,7.71491937 19.608871,8.15902877 C18.763324,6.74964939 17.9903577,5.88061011 17.8890253,5.7593969 C17.7049439,5.5392181 17.1339586,5.24815921 17.5324334,4.85268232 L17.5324334,4.85268232 L17.5324334,4.85268232 Z M9.87485976,6.36940742 C10.3426017,5.62568371 13.0045231,3.35546985 16.8581872,7.32336958 C17.5254383,8.00869563 18.0839761,8.66048385 18.5475105,9.27203715 C17.0350806,10.8594671 15.110291,12.8832924 14.2286466,13.8083275 C13.8023317,13.5785589 13.3679874,13.321932 12.9278226,13.0420056 C9.56960027,10.9068899 8.76749652,8.12426366 9.87485976,6.36940742 L9.87485976,6.36940742 L9.87485976,6.36940742 Z M6.86488427,1.90809958 C7.0669004,1.80108696 7.3177244,1.8832749 7.45981766,2.0740007 C7.3177244,2.31197405 7.00697758,2.50303296 7.03061008,2.7759467 C7.25762623,2.94286466 7.63941092,2.96667251 7.72279103,3.28835905 C7.78152174,3.46676017 7.7452139,3.6812763 7.62675315,3.8233871 L7.34133939,3.84854488 C7.45981766,3.71758415 7.49577489,3.51418303 7.43618511,3.35941445 C7.32868161,3.25241936 7.23399368,3.08497545 7.05594319,3.14659888 C6.74519637,3.15773142 6.81625176,3.70490883 6.53085552,3.49056802 C6.66148316,2.97917251 6.82892705,2.46674264 6.86488427,1.90809958 L6.86488427,1.90809958 L6.86488427,1.90809958 Z M5.48615008,3.88998948 C6.24819426,4.6535589 6.59197055,5.49179521 6.59197055,5.49179521 C6.43993689,5.87357995 4.76057153,6.63544882 4.76057153,6.63544882 L5.75340111,4.80525947 L3.27296634,6.94191794 C3.27296634,6.94191794 3.31044881,5.95010521 3.61555049,5.60632887 C3.9220021,5.26356944 5.48615008,3.88998948 5.48615008,3.88998948 L5.48615008,3.88998948 L5.48615008,3.88998948 Z M0.757591166,4.85268232 L4.02780505,4.85268232 C3.8691094,5.01018585 3.70320827,5.17591166 3.54055049,5.33856944 C2.81498948,6.06430577 3.08069775,7.66595371 3.08069775,7.66595371 C3.425,7.24545934 4.6463885,6.06430577 4.6463885,6.06430577 L3.9973352,7.55192845 C3.9973352,7.55192845 6.43993689,6.10180577 6.74519637,5.95010521 C7.05029802,5.79705469 7.47077487,5.49179521 7.89005961,6.33036465 C8.31055398,7.17012624 7.73820126,7.81917953 7.73820126,7.81917953 C6.89689694,9.41961779 9.30234924,12.9670231 9.5305575,13.3863078 L9.7983345,13.8055926 C9.5305575,14.6829067 10.4098878,15.4073107 10.4098878,15.4073107 C10.2953366,15.5605365 10.5613955,16.2079769 10.5613955,16.2079769 C10.5613955,16.2079769 10.5656732,16.8084327 10.8637447,17.4558731 L10.8495442,17.469723 C10.838587,17.4809432 9.70622371,18.6339411 9.48485274,18.8345021 C9.38727208,18.9237377 9.28145163,19.0075386 9.13096074,19.0685484 L0.757591166,4.85268232 L0.757591166,4.85268232 L0.757591166,4.85268232 Z M2.5681101,21.0031557 L1.54719495,21.0031557 L2.42754208,19.4197055 L3.44861501,19.4197055 L2.5681101,21.0031557 L2.5681101,21.0031557 L2.5681101,21.0031557 Z M8.59491585,21.0021038 L7.83732469,21.0021038 L8.55298035,19.4197055 C9.15750348,19.4197055 9.42903227,19.2317672 9.6577665,19.0240182 C9.88753505,18.8167952 10.9668128,17.7231767 10.9668128,17.7231767 L11.4359221,18.3920056 C11.4359221,18.3920056 10.2826788,19.6495442 9.84558203,20.1705821 C9.40815218,20.6912693 8.88751752,21.0021038 8.59491585,21.0021038 L8.59491585,21.0021038 L8.59491585,21.0021038 Z M13.3385343,26.2123071 L9.94437237,20.4475806 C9.97792776,20.4112903 10.0099404,20.3739481 10.0417952,20.3348527 C10.4153577,19.8918303 11.4165673,18.8039972 11.6783485,18.5187587 C12.0611676,18.7889201 12.3929699,18.7121318 12.7747545,18.6870617 C13.3471073,18.6493689 13.8067847,17.6576087 13.8067847,17.6576087 C14.1493689,17.8096073 14.6826963,16.8178997 14.6826963,16.8178997 L14.9500526,16.7414621 C15.1798913,16.1329418 15.2174088,15.6746669 14.912535,15.3694425 C14.6311536,15.0882363 14.9875701,15.0256486 14.9875701,15.0256486 C15.1798913,15.1411816 16.8206697,15.5605365 16.8581872,15.6746669 C16.8972826,15.788622 16.590831,15.9418478 16.5533135,16.0940218 C16.5154453,16.2470722 16.6299264,16.7037693 16.7440568,17.0856066 C16.8581872,17.4670933 16.8581872,18.1148317 16.8581872,18.1148317 L16.5533135,18.1148317 C16.5533135,18.1148317 16.6299264,18.8779804 16.5154453,18.9921108 C16.399737,19.1062412 15.445845,19.1453366 15.445845,19.1453366 C14.5268408,19.1453366 14.4916024,20.0604839 14.4916024,20.1954768 C14.3720371,20.3795582 14.1923563,20.6984572 14.1702665,20.9794881 L14.1521213,21.1882889 L16.2300315,21.1882889 L13.3385343,26.2123071 L13.3385343,26.2123071 L13.3385343,26.2123071 Z M16.791392,20.2121318 L16.6130961,20.5215638 C16.5825912,20.4351332 16.540866,20.3181977 16.5015954,20.2121318 L16.791392,20.2121318 L16.791392,20.2121318 L16.791392,20.2121318 Z M15.7715813,20.2121318 C15.7274018,20.3529103 15.6756837,20.5117461 15.6507889,20.5937938 L15.3676543,20.5937938 C15.3301367,20.5298037 15.2382714,20.368338 15.1506136,20.2121318 L15.7715813,20.2121318 L15.7715813,20.2121318 L15.7715813,20.2121318 Z M14.8317146,19.8515077 C14.7661466,19.76946 14.8359222,19.6064165 14.9849404,19.4891304 C15.1351859,19.3723703 15.3092742,19.3457223 15.373615,19.4295231 C15.4388324,19.5117462 15.3694074,19.6746143 15.2200386,19.7901473 C15.071371,19.9070827 14.8972826,19.9337307 14.8317146,19.8515077 L14.8317146,19.8515077 L14.8317146,19.8515077 Z M18.7678822,20.8164446 L19.3932328,20.8164446 L19.3932328,20.9964937 L14.3622195,20.9964937 C14.3858871,20.7079243 14.6215112,20.3430926 14.7119741,20.2121318 L14.92919,20.2121318 L15.255277,20.7871669 L15.791392,20.7871669 L15.9737202,20.2121318 L16.2954242,20.2121318 L16.5059783,20.7871669 L18.1132539,20.7871669 L18.2775245,20.2121318 L18.575561,20.2121318 L18.7678822,20.8164446 L18.7678822,20.8164446 L18.7678822,20.8164446 Z M17.0697931,20.5937938 L17.2899895,20.2121318 L18.0767882,20.2121318 C18.0378682,20.3487027 17.9921108,20.5089411 17.9682679,20.5937938 L17.0697931,20.5937938 L17.0697931,20.5937938 L17.0697931,20.5937938 Z M18.1882889,17.7859397 L18.1132539,17.0089937 L18.7287868,16.7037693 C18.7563114,16.7049965 18.78331,16.7049965 18.8096073,16.7049965 L18.1882889,17.7859397 L18.1882889,17.7859397 L18.1882889,17.7859397 Z M20.1409537,14.9879558 C19.5447055,15.667479 17.7065218,15.4421985 15.4237553,14.4056627 C16.3038394,13.4309783 17.8890253,11.6644811 19.1993338,10.2009993 C20.7620968,12.6271739 20.730014,14.3137272 20.1409537,14.9879558 L20.1409537,14.9879558 L20.1409537,14.9879558 Z M20.1535764,9.13267882 C20.5881837,8.6466164 20.937763,8.25215637 21.1465638,8.01691795 C21.4640603,8.17836605 21.7817321,8.19942145 21.7817321,8.19942145 C23.3080294,8.69524897 23.2315919,7.39868511 23.2315919,7.39868511 C23.8038219,7.51271037 23.7663044,6.56011573 23.7663044,6.56011573 C23.9945652,6.56011573 23.9945652,6.14083098 23.9945652,6.14083098 C24.157784,5.54468792 23.8402875,5.10487379 23.6409537,4.89838708 C23.6732118,4.88451963 23.7037167,4.8691094 23.7356241,4.85268232 L25.6299089,4.85268232 L21.39446,12.2121669 C21.0629383,11.0616585 20.6172861,10.024141 20.1535764,9.13267882 L20.1535764,9.13267882 L20.1535764,9.13267882 Z M25.3306452,11.2121494 C25.1313114,11.1299614 24.9295231,11.0534362 24.7345722,10.9878682 C24.8083801,10.8805224 24.8876227,10.7647791 24.9323282,10.6980189 C25.1384993,10.7678647 25.9975456,11.0507012 26.1912693,11.1157609 C26.1940743,11.2037518 26.1995091,11.3790673 26.2040673,11.5323106 C25.8569425,11.4126403 25.5366409,11.2970722 25.3306452,11.2121494 L25.3306452,11.2121494 L25.3306452,11.2121494 Z M27.1297335,12.6953191 C26.9461781,12.7384642 26.7759467,12.6925666 26.7524544,12.5894986 C26.7273843,12.4876403 26.8569425,12.3681276 27.0408485,12.3234572 C27.2245792,12.2789446 27.3958625,12.3261921 27.4195302,12.4292602 C27.4447756,12.5311185 27.3153927,12.6508065 27.1297335,12.6953191 L27.1297335,12.6953191 L27.1297335,12.6953191 Z M26.887798,11.7636045 C26.9765077,11.6408485 27.0795933,11.500298 27.1330645,11.4265077 C27.2359748,11.4612553 27.3110098,11.4864306 27.4002454,11.5156907 C27.4156732,11.5906907 27.4531907,11.7802069 27.4879032,11.9598001 C27.3192496,11.9057153 27.1118513,11.8375701 26.887798,11.7636045 L26.887798,11.7636045 L26.887798,11.7636045 Z M27.8906031,12.0909537 C27.8890252,12.0909537 27.8890252,12.0894109 27.887798,12.0894109 C27.8681627,12.0837658 27.7996143,12.061676 27.6982819,12.0281206 L27.568899,11.3681101 L27.0592567,11.199474 L26.6967041,11.699737 C26.5980014,11.6661816 26.4977209,11.6326262 26.3986676,11.5994215 L26.3807854,10.9751928 L24.8541375,10.4697931 L24.5422511,10.92777 C24.4347826,10.8974755 24.3318724,10.8721248 24.2342216,10.8539797 L24.2412342,10.2357644 L23.6481417,10.0395512 L23.7037167,9.86937237 L28.4824684,11.4501227 C28.3655329,11.7245617 28.0091164,12.0044881 27.8906031,12.0909537 L27.8906031,12.0909537 L27.8906031,12.0909537 Z" id="path222"></path>
                                </g>
                            </g>
                        </g>
                    </g>
                </g>
            </g>
        </g>
    </g>
</svg>