<?xml version="1.0" encoding="UTF-8" standalone="no"?>
<svg width="60px" height="60px" viewBox="0 0 60 60" version="1.1" xmlns="http://www.w3.org/2000/svg" xmlns:xlink="http://www.w3.org/1999/xlink">
    <!-- Generator: Sketch 40.3 (33839) - http://www.bohemiancoding.com/sketch -->
    <title>Artboard</title>
    <desc>Created with Sketch.</desc>
    <defs></defs>
    <g id="Page-1" stroke="none" stroke-width="1" fill="none" fill-rule="evenodd">
        <g id="Artboard">
            <g id="penguins" transform="translate(0.000000, 1.739130)">
                <g id="layer1" transform="translate(0.216872, 0.149907)">
                    <g id="g8" transform="translate(51.191133, 22.255545)" fill="#FFFFFF">
                        <path d="M0.408695652,0 C0.316304348,0.137971014 0.152536232,0.377173913 0,0.599021739 C0.402898551,0.734528986 0.819927536,0.892681159 1.23188406,1.06253623 C1.6576087,1.23804348 2.31956522,1.47688406 3.03695652,1.7242029 C3.02753623,1.4075 3.01630435,1.04518116 3.01050725,0.863333333 C2.61014493,0.728876812 0.834782609,0.144347826 0.408695652,0 L0.408695652,0 Z" id="path10"></path>
                    </g>
                    <g id="g16" transform="translate(0.072983, 0.146304)" fill="#FFFFFF">
                        <path d="M59.2293478,23.8221014 C58.923913,24.5357609 58.0253623,25.2041667 57.8217391,25.3534783 C57.8242754,25.5151812 57.7873188,25.7132971 57.7148551,25.9319928 C57.5543478,26.4043478 56.8456522,27.1151812 55.4268116,26.8759783 C54.0047101,26.6403261 53.4521739,26.4043478 53.4521739,26.4043478 C53.4521739,26.4043478 52.7438406,28.1366667 51.167029,27.5068478 C51.167029,27.5068478 50.9300725,29.6361957 49.7471014,30.2671377 C48.5648551,30.8968478 40.4391304,33.7323551 40.4391304,33.7323551 C40.4391304,33.7323551 40.3583333,33.9088043 40.151087,34.0917754 L38.3952899,37.1460145 L38.6282609,38.4612319 C38.6282609,38.4612319 40.0474638,40.1166667 40.0474638,41.3 L39.0224638,41.7717391 L38.8061594,41.7717391 C38.9043478,42.0768116 39.0192029,42.4394928 39.0804348,42.623913 L40.4789855,42.623913 L40.4789855,43.7891304 L34.5725,43.7891304 L27.5751812,55.9485507 L19.8896739,42.9 C19.1385145,43.542029 18.3558333,43.9362319 17.7628261,43.9362319 L16.3323188,43.9394928 L2.29423913,43.9394928 L4.70307971,39.6043478 L17.6761594,39.6043478 C17.7709783,39.6043478 17.8573188,39.6014493 17.9439855,39.5956522 L1.80210114e-14,9.13615942 L9.21684783,9.13615942 C9.90434783,8.44833333 10.3908333,7.96181159 10.3908333,7.96181159 C10.3908333,7.96181159 11.4155435,6.93463768 11.8097101,5.8325 C12.2045652,4.72923913 12.5987319,3.70528986 14.1757246,2.68025362 C15.7530797,1.65804348 16.7777899,1.10572464 17.8060145,0.630869565 C18.8306884,0.158514493 20.2498913,-5.55111512e-17 21.4327174,1.26068841 C22.615942,2.52206522 23.2457246,3.07438406 23.6406159,3.46855072 C24.0347826,3.86344203 24.8230797,5.67644928 27.1116667,4.72923913 C29.397029,3.78525362 32.7906159,1.97224638 34.9210507,2.04971014 C37.0481884,2.13039855 40.5974638,4.0184058 41.7804348,5.3601087 C41.7804348,5.3601087 42.7246377,4.52757246 43.7518116,4.64927536 C44.6181159,4.75543478 45.0155797,5.67644928 45.8039855,7.25134058 C45.8039855,7.25134058 47.6177536,7.72297101 47.6177536,8.75083333 C47.6177536,8.75083333 47.6608696,8.73952899 47.723913,8.74518116 C47.7586957,8.70768116 47.7905797,8.67264493 47.8271739,8.63586957 C48.225,8.23851449 48.4637681,7.99931159 48.7311594,7.82065217 C48.7916667,7.78065217 48.857971,7.75481884 48.9271739,7.73181159 C48.8702899,7.58181159 48.7916667,7.28884058 49.0021739,7.12713768 C49.2869565,6.90282609 49.9630435,6.65228261 50.673913,7.2707971 C51.2876812,7.80684783 51.3047101,8.01985507 51.3047101,8.01985507 C51.3047101,8.01985507 51.8228261,8.63833333 51.5235507,9.13615942 L54.5112319,9.13615942 L44.540942,26.4648551 C44.565942,26.5741667 44.5952899,26.6859783 44.6213768,26.7985145 C44.6213768,26.7985145 45.8822464,27.2701449 46.2764493,27.7425 C46.2764493,27.7425 47.3786232,27.7425 47.9344203,27.6650362 C48.484058,27.5875362 48.5648551,27.5875362 48.6423913,27.2701449 C48.7231884,26.9534783 48.7231884,26.6403261 48.5648551,26.0901449 C48.4065217,25.5378261 48.1699275,22.7800725 48.8815217,22.4634058 C49.0913043,22.3689493 49.3677536,22.3452174 49.6869565,22.3746014 C49.6898551,22.0490942 49.6956522,21.643587 49.6956522,21.4419203 C49.3644928,21.3325725 48.3692029,21.001413 48.3692029,21.001413 L48.7347826,19.8932246 L59.3985507,23.4222826 L59.2293478,23.8221014 L59.2293478,23.8221014 Z" id="path18"></path>
                    </g>
                    <g id="g20" transform="translate(35.350554, 41.918154)" fill="#FFFFFF">
                        <path d="M0.455072464,0 L0,0.788768116 L1.85688406,0.788768116 C1.90615942,0.613405797 2.00072464,0.282246377 2.08115942,0 L0.455072464,0 L0.455072464,0 Z" id="path22"></path>
                    </g>
                    <g id="g24" transform="translate(55.641133, 23.761087)" fill="#FFFFFF">
                        <path d="M0.506884058,0 C0.396376812,0.1525 0.183333333,0.442971014 0,0.696666667 C0.463043478,0.849528986 0.891666667,0.990362319 1.24021739,1.10213768 C1.16847826,0.730978261 1.09094203,0.339311594 1.05905797,0.184311594 C0.874637681,0.12384058 0.719565217,0.0718115942 0.506884058,0 L0.506884058,0 Z" id="path26"></path>
                    </g>
                    <g id="g28" transform="translate(29.754901, 41.918154)" fill="#FFFFFF">
                        <path d="M8.09166667,0 L7.75217391,1.1884058 L4.43043478,1.1884058 L3.99528986,0 L3.33043478,0 L2.95362319,1.1884058 L1.84565217,1.1884058 L1.17173913,0 L0.722826087,0 C0.535869565,0.270652174 0.0489130435,1.02463768 0,1.62101449 L10.3974638,1.62101449 L10.3974638,1.24891304 L9.10507246,1.24891304 L8.7076087,0 L8.09166667,0 L8.09166667,0 Z" id="path30"></path>
                    </g>
                    <g id="g32" transform="translate(48.945843, 20.543009)" fill="#FFFFFF">
                        <path d="M1.21123188,2.03485507 C1.41304348,2.07235507 1.62572464,2.12474638 1.84782609,2.18735507 L2.4923913,1.24086957 L5.64746377,2.28536232 L5.68442029,3.57543478 C5.88913043,3.64405797 6.09637681,3.7134058 6.30036232,3.78275362 L7.04963768,2.74887681 L8.10289855,3.0973913 L8.37028986,4.46141304 C8.57971014,4.53076087 8.72137681,4.57641304 8.76195652,4.58807971 C8.76449275,4.58807971 8.76449275,4.59126812 8.76775362,4.59126812 C9.01268116,4.41257246 9.74927536,3.83405797 9.99094203,3.26688406 L0.114855072,0 L0,0.351702899 L1.22572464,0.757210145 L1.21123188,2.03485507 L1.21123188,2.03485507 Z" id="path34"></path>
                    </g>
                    <g id="g36" transform="translate(19.279432, 10.341812)" fill="#FFFFFF">
                        <path d="M7.51105072,16.757971 C8.42072464,17.3364855 9.31836957,17.8668478 10.1994203,18.3417029 C12.0214855,16.4299638 15.9993841,12.2473913 19.1251087,8.9667029 C18.1671377,7.70282609 17.0127899,6.3557971 15.6338043,4.93945652 C7.66956522,-3.26086957 2.16826087,1.4309058 1.2015942,2.96793478 C-1.08695652,6.59463768 0.570724638,12.3453986 7.51105072,16.757971 L7.51105072,16.757971 Z" id="path38"></path>
                    </g>
                    <g id="g40" transform="translate(31.948742, 21.228371)" fill="#FFFFFF">
                        <path d="M0,8.68963768 C4.71775362,10.8318116 8.51666667,11.2973913 9.74891304,9.89304348 C10.9663043,8.49963768 11.0326087,5.0140942 7.80289855,0 C5.09492754,3.02452899 1.81884058,6.67528986 0,8.68963768 L0,8.68963768 Z" id="path42"></path>
                    </g>
                    <g id="g44" transform="translate(6.837113, 8.185617)" fill="#FFFFFF">
                        <path d="M0.708007246,3.54710145 C0.0774637681,4.25757246 0,6.30731884 0,6.30731884 L5.12623188,1.89155797 L3.07438406,5.67394928 C3.07438406,5.67394928 6.54507246,4.09942029 6.85927536,3.31039855 C6.85927536,3.31039855 6.14880435,1.57804348 4.57391304,6.43607551e-16 C4.57391304,6.43607551e-16 1.34134058,2.83873188 0.708007246,3.54710145 L0.708007246,3.54710145 Z" id="path46"></path>
                    </g>
                    <g id="g48" transform="translate(55.309612, 25.522791)" fill="#FFFFFF">
                        <path d="M0.647826087,0.0919927536 C0.267753623,0.184311594 6.9388939e-18,0.431304348 0.0518115942,0.641811594 C0.100362319,0.854818841 0.452173913,0.949673913 0.831521739,0.860507246 C1.21521739,0.768514493 1.4826087,0.52115942 1.43043478,0.310652174 C1.38152174,0.0976449275 1.02753623,2.77555756e-16 0.647826087,0.0919927536 L0.647826087,0.0919927536 Z" id="path50"></path>
                    </g>
                    <g id="g52" transform="translate(30.589684, 40.127574)" fill="#FFFFFF">
                        <path d="M0.135507246,1.04528986 C0.271014493,1.21521739 0.630797101,1.16014493 0.938043478,0.918478261 C1.24673913,0.679710145 1.39021739,0.343115942 1.25543478,0.173188406 C1.12246377,1.38777878e-17 0.762681159,0.0550724638 0.452173913,0.296376812 C0.144202899,0.538768116 -1.38777878e-17,0.875724638 0.135507246,1.04528986 L0.135507246,1.04528986 Z" id="path54"></path>
                    </g>
                    <g id="g56" transform="translate(13.570084, 3.868551)" fill="#FFFFFF">
                        <path d="M1.03282609,2.01471014 C0.983985507,1.45068841 1.62619565,1.05583333 1.91985507,0.564021739 C1.62619565,0.169855072 1.10782609,0 0.690326087,0.22115942 C0.616014493,1.37568841 0.269963768,2.43471014 0,3.4915942 C0.589818841,3.93456522 0.442971014,2.80373188 1.08518116,2.78072464 C1.45315217,2.65336957 1.64884058,2.99942029 1.87101449,3.22054348 C1.99416667,3.54039855 1.91985507,3.96076087 1.675,4.23141304 L2.26485507,4.17942029 C2.50967391,3.88572464 2.58471014,3.4423913 2.46333333,3.07369565 C2.29101449,2.40887681 1.50199275,2.35967391 1.03282609,2.01471014 L1.03282609,2.01471014 Z" id="path58"></path>
                    </g>
                    <g id="g60" transform="translate(43.712872, 5.278551)" fill="#FFFFFF">
                        <path d="M1.0615942,1.32192029 C0.935144928,0.907210145 0.725362319,0.518007246 0.492391304,0.103695652 C0.336231884,2.28983499e-16 -6.9388939e-18,0.0261956522 0.0547101449,0.311014493 C0.362318841,0.621702899 0.492391304,1.39938406 1.0615942,1.32192029 L1.0615942,1.32192029 Z" id="path62"></path>
                    </g>
                    <g id="g64" transform="translate(42.417220, 5.462899)" fill="#FFFFFF">
                        <path d="M2.33224638,2.43221014 C1.73550725,1.62938406 1.19202899,0.800362319 0.544202899,0 C0.310869565,0 0.0525362319,0.126666667 0,0.386050725 C0.62173913,1.05902174 1.35036232,1.73304348 1.89130435,2.40391304 C1.99492754,2.50757246 2.20217391,2.69192029 2.33224638,2.43221014 L2.33224638,2.43221014 Z" id="path66"></path>
                    </g>
                    <g id="g68" transform="translate(41.277728, 6.185762)" fill="#FFFFFF">
                        <path d="M2.40905797,2.82318841 C2.56413043,2.92438406 2.9557971,2.92438406 2.90434783,2.61586957 L0.777173913,0.18115942 C0.491666667,0 0.155434783,0.18115942 0,0.466014493 C0.802536232,1.26884058 1.73550725,1.89086957 2.40905797,2.82318841 L2.40905797,2.82318841 Z" id="path70"></path>
                    </g>
                    <g id="g72" transform="translate(40.267220, 7.066087)" fill="#FFFFFF">
                        <path d="M3.10905797,2.14775362 L0.984057971,0.337210145 C0.648188406,0 0.155072464,0.0523913043 0,0.570724638 C0.958695652,1.29572464 2.01775362,1.75923913 2.90144928,2.63992754 C3.1634058,2.66576087 3.2384058,2.33210145 3.10905797,2.14775362 L3.10905797,2.14775362 Z" id="path74"></path>
                    </g>
                    <g id="g76" transform="translate(43.119757, 8.281125)" fill="#FFFFFF">
                        <path d="M2.90144928,1.9167029 C3.26376812,1.37322464 4.17101449,1.4248913 3.93768116,0.621702899 C3.88550725,0.261847826 3.39094203,-3.60822483e-16 2.95289855,0.10615942 C1.34710145,1.16586957 0.203985507,2.79771739 0,4.48195652 C0.230072464,4.74057971 0.541304348,4.76677536 0.877898551,4.76677536 C1.58043478,3.88289855 1.94021739,2.74572464 2.90144928,1.9167029 L2.90144928,1.9167029 Z" id="path78"></path>
                    </g>
                    <g id="g80" transform="translate(39.564684, 8.335980)" fill="#FFFFFF">
                        <path d="M3.08586957,2.35471014 C3.26702899,2.32855072 3.52644928,2.04369565 3.34456522,1.81054348 C2.30833333,1.21471014 1.35072464,0.414347826 0.233695652,0 C0.0525362319,0.178695652 -3.46944695e-18,0.440507246 0.0260869565,0.699166667 L3.08586957,2.35471014 L3.08586957,2.35471014 Z" id="path82"></path>
                    </g>
                    <g id="g84" transform="translate(39.124104, 9.706014)" fill="#FFFFFF">
                        <path d="M3.03442029,1.9173913 C3.21557971,1.865 3.42282609,1.63184783 3.24166667,1.47652174 C2.28297101,0.984673913 1.34710145,0.363007246 0.314130435,0 C0.18442029,0.155652174 0,0.440507246 0.158333333,0.57 C1.19456522,0.883478261 2.04746377,1.50268116 3.03442029,1.9173913 L3.03442029,1.9173913 Z" id="path86"></path>
                    </g>
                    <g id="g88" transform="translate(44.674467, 10.146522)" fill="#FFFFFF">
                        <path d="M0,2.92757246 C0.152173913,3.2873913 0.437318841,3.2873913 0.800362319,3.18373188 C1.83623188,2.61655797 2.56413043,1.50199275 2.77137681,0.336847826 C2.74275362,0.154963768 2.51268116,0.0513043478 2.35688406,0 C1.2692029,0.725326087 0.595289855,1.86184783 0,2.92757246 L0,2.92757246 Z" id="path90"></path>
                    </g>
                    <g id="g92" transform="translate(48.252003, 10.408333)" fill="#FFFFFF">
                        <path d="M0,0.18115942 L1.16268116,2.2248913 C1.11702899,1.37568841 0.748188406,0.659202899 0.252898551,0 C0.192753623,0.0113405797 0.135507246,0.0205434783 0.0775362319,0.0226449275 L0,0.18115942 L0,0.18115942 Z" id="path94"></path>
                    </g>
                    <g id="g96" transform="translate(47.653090, 11.105038)" fill="#FFFFFF">
                        <path d="M1.60652174,2.43257246 C1.63188406,1.52818841 0.777536232,0.803188406 0.310869565,0 L0,0.621666667 L1.24347826,2.48387681 C1.35036232,2.46086957 1.52826087,2.53623188 1.60652174,2.43257246 L1.60652174,2.43257246 Z" id="path98"></path>
                    </g>
                    <g id="g100" transform="translate(38.813235, 10.871849)" fill="#FFFFFF">
                        <path d="M2.67137681,1.08521739 C1.81413043,0.699166667 0.985144928,0.25865942 0.0786231884,0 L0,0.233188406 C0.676449275,0.981521739 1.63514493,1.11351449 2.67137681,1.08521739 L2.67137681,1.08521739 Z" id="path102"></path>
                    </g>
                    <g id="g104" transform="translate(46.979901, 12.556087)" fill="#FFFFFF">
                        <path d="M0,0.336123188 C0.465942029,0.877826087 0.465942029,1.86181159 1.19130435,1.99134058 C1.37246377,1.24014493 0.828985507,0.543115942 0.388405797,0 C0.207246377,0 0.0253623188,0.1525 0,0.336123188 L0,0.336123188 Z" id="path106"></path>
                    </g>
                    <g id="g108" transform="translate(46.072655, 13.669565)" fill="#FFFFFF">
                        <path d="M0.0235507246,0 C0,0.774528986 0.570289855,1.47369565 0.932608696,2.1442029 L1.37318841,2.22521739 C1.47681159,1.37003623 0.828985507,0.774528986 0.518115942,0.10365942 L0.0235507246,0 L0.0235507246,0 Z" id="path110"></path>
                    </g>
                    <g id="g112" transform="translate(42.702003, 13.720870)" fill="#FFFFFF">
                        <path d="M0,0.412210145 C0.0463768116,0.582065217 0.0637681159,0.803913043 0.141304348,0.962065217 C0.346014493,0.823369565 0.613768116,0.762862319 0.875362319,0.783369565 C0.746014493,0.449710145 0.535144928,1.38777878e-17 0.0782608696,0.101195652 L0,0.412210145 L0,0.412210145 Z" id="path114"></path>
                    </g>
                    <g id="g116" transform="translate(44.256351, 14.055580)" fill="#FFFFFF">
                        <path d="M2.20543478,3.00507246 L2.23043478,2.19905797 C1.96884058,1.42134058 1.71268116,0.699166667 1.06557971,0.0775 C0.751449275,0.103695652 0.129710145,1.38777878e-17 0,0.362318841 C0.314130435,1.39833333 0.961956522,2.92688406 2.20543478,3.00507246 L2.20543478,3.00507246 Z" id="path118"></path>
                    </g>
                    <g id="g120" transform="translate(23.557907, 27.281670)" fill="#FFFFFF">
                        <path d="M0.883514493,1.7617029 C0.777717391,1.2175 0.932681159,0.569637681 0.572826087,0.129130435 C0.440507246,0 0.210507246,0.077826087 0.18115942,0.262173913 C4.16333634e-17,0.750797101 0.155688406,1.32115942 0.440507246,1.73550725 C0.572826087,1.86536232 0.725326087,1.86536232 0.883514493,1.7617029 L0.883514493,1.7617029 Z" id="path122"></path>
                    </g>
                    <g id="g124" transform="translate(24.878742, 27.387791)" fill="#FFFFFF">
                        <path d="M0.881376812,2.71695652 C0.676521739,1.85971014 1.24688406,0.463514493 0.314202899,0 C0,0.593369565 0.262173913,1.5748913 0.236702899,2.3809058 C0.236702899,2.69195652 0.621666667,2.84702899 0.881376812,2.71695652 L0.881376812,2.71695652 Z" id="path126"></path>
                    </g>
                    <g id="g128" transform="translate(21.588852, 27.462104)" fill="#FFFFFF">
                        <path d="M1.83673913,2.33206522 C1.29253623,1.63257246 2.0759058,-0.362318841 0.595869565,0.0817391304 C-0.362318841,0.962065217 1.14003623,1.52923913 1.32119565,2.41025362 C1.45105072,2.46155797 1.7617029,2.53902174 1.83673913,2.33206522 L1.83673913,2.33206522 Z" id="path130"></path>
                    </g>
                    <g id="g132" transform="translate(26.151823, 27.696342)" fill="#FFFFFF">
                        <path d="M0.0488043478,0.0286594203 C0,0.829021739 0.0488043478,1.55115942 0.18115942,2.27971014 C0.384963768,2.32869565 0.695978261,2.46094203 0.880326087,2.22731884 C0.695978261,1.4757971 1.21713768,0 0.0488043478,0.0286594203 L0.0488043478,0.0286594203 Z" id="path134"></path>
                    </g>
                    <g id="g136" transform="translate(27.523959, 28.372864)" fill="#FFFFFF">
                        <path d="M0.129855072,0.100108696 C0.10365942,0.774166667 -4.16333634e-17,1.49949275 0.363369565,2.01992754 C0.803876812,1.91376812 0.544166667,1.26597826 0.647862319,0.874637681 C0.414673913,0.618478261 0.674021739,0 0.129855072,0.100108696 L0.129855072,0.100108696 Z" id="path138"></path>
                    </g>
                    <g id="g140" transform="translate(20.733997, 28.550472)" fill="#FFFFFF">
                        <path d="M0.363043478,0 C0.181884058,0.259710145 0.0520289855,0.544202899 0.0261956522,0.855217391 C0,1.63253623 0.596231884,2.14775362 0.984710145,2.74630435 C1.29572464,2.66586957 1.65804348,2.76949275 1.89123188,2.46188406 C1.57771739,1.58072464 1.21471014,0.572862319 0.363043478,0 L0.363043478,0 Z" id="path142"></path>
                    </g>
                    <g id="g144" transform="translate(22.003562, 30.726487)" fill="#FFFFFF">
                        <path d="M2.95373188,0.907608696 L2.98202899,0.518478261 L2.74637681,0.129710145 C1.66119565,0 0.725326087,0.593478261 0.129492754,1.47427536 C0,1.7365942 0.10365942,2.01775362 0.18115942,2.22536232 C1.03634058,1.57826087 1.81050725,0.722826087 2.95373188,0.907608696 L2.95373188,0.907608696 Z" id="path146"></path>
                    </g>
                    <g id="g148" transform="translate(25.581461, 30.933733)" fill="#FFFFFF">
                        <path d="M1.83880435,0.51557971 C1.7617029,-3.46944695e-18 1.19202899,0.0786231884 0.777355072,0.0264492754 C0.411847826,0.101449275 0,0.311231884 0.0774637681,0.751811594 C0.204855072,1.21521739 0.440507246,1.62934783 0.906485507,1.78550725 C1.37318841,1.47717391 1.99166667,1.14021739 1.83880435,0.51557971 L1.83880435,0.51557971 Z" id="path150"></path>
                    </g>
                    <g id="g152" transform="translate(27.731278, 31.737719)" fill="#FFFFFF">
                        <path d="M0.466702899,0.0514492754 C0.0261956522,0.152536232 0,0.725362319 0,1.1365942 C0.0523913043,1.34384058 0.259710145,1.49963768 0.466702899,1.47318841 C0.751557971,1.26594203 0.751557971,0.854347826 0.780217391,0.488768116 C0.676521739,0.336231884 0.751557971,3.26128013e-16 0.466702899,0.0514492754 L0.466702899,0.0514492754 Z" id="path154"></path>
                    </g>
                    <g id="g156" transform="translate(28.690157, 32.355835)" fill="#FFFFFF">
                        <path d="M1.19192029,0.725724638 C1.11365942,0.495289855 1.00981884,0 0.595507246,0.0778985507 C0,0.647826087 0.621666667,1.68442029 0.206992754,2.3057971 C0.388152174,2.56449275 0.259347826,3.03115942 0.67615942,3.08043478 C1.50532609,2.69456522 1.03601449,1.50326087 1.19192029,0.725724638 L1.19192029,0.725724638 Z" id="path158"></path>
                    </g>
                    <g id="g160" transform="translate(23.872113, 32.355835)" fill="#FFFFFF">
                        <path d="M1.24333333,0.207246377 C0.799637681,0.0778985507 0.33365942,4.16333634e-17 0,0.259782609 C0.258623188,1.73550725 1.68315217,5.67101449 2.25351449,5.69710145 C2.61583333,4.53115942 2.43467391,3.59855072 2.53833333,2.3057971 C2.27971014,1.47681159 2.01786232,0.673913043 1.24333333,0.207246377 L1.24333333,0.207246377 Z" id="path162"></path>
                    </g>
                    <g id="g164" transform="translate(30.272655, 32.667067)" fill="#FFFFFF">
                        <path d="M0.0753623188,0.077173913 L0,0.802536232 L0.489855072,0.88115942 L0.619565217,0.46884058 C0.440942029,0.310869565 0.337318841,0 0.0753623188,0.077173913 L0.0753623188,0.077173913 Z" id="path166"></path>
                    </g>
                    <g id="g168" transform="translate(22.573925, 33.029748)" fill="#FFFFFF">
                        <path d="M0.543115942,0 C0.307463768,0.258695652 0.10365942,0.569927536 0,0.854710145 C0.0569565217,1.60036232 0.226775362,2.33152174 0.509130435,3.01123188 C0.831485507,3.79094203 1.29818841,4.50181159 1.91065217,5.08913043 C1.98851449,5.1634058 2.06916667,5.2384058 2.14985507,5.30797101 C2.33101449,5.23043478 2.61902174,5.23043478 2.4867029,4.99710145 C1.78681159,4.09275362 0.802826087,0.569927536 0.543115942,0 L0.543115942,0 Z" id="path170"></path>
                    </g>
                    <g id="g172" transform="translate(26.617438, 33.443878)" fill="#FFFFFF">
                        <path d="M0.518369565,0.44057971 C0.518369565,1.65833333 0.674057971,2.97971014 0.18115942,4.01231884 C0.107210145,4.24601449 5.55111512e-17,4.86775362 0.466702899,4.79021739 L0.489710145,4.58297101 C1.22072464,3.98731884 1.50307971,2.95326087 1.58054348,1.94311594 C1.39938406,1.29528986 1.65804348,-0.362318841 0.518369565,0.44057971 L0.518369565,0.44057971 Z" id="path174"></path>
                    </g>
                    <g id="g176" transform="translate(16.270119, 36.774313)" fill="#FFFFFF">
                        <path d="M3.76224638,2.6884058 C3.28952899,3.11775362 2.72836957,3.50615942 1.47902174,3.50615942 L0,6.77644928 L1.56568841,6.77644928 C2.17039855,6.77644928 3.24637681,6.13405797 4.15039855,5.05797101 C5.05373188,3.98115942 7.43710145,1.38224638 7.43710145,1.38224638 L6.4676087,-1.60901888e-16 C6.4676087,-1.60901888e-16 4.23710145,2.26014493 3.76224638,2.6884058 L3.76224638,2.6884058 Z" id="path178"></path>
                    </g>
                    <g id="g180" transform="translate(3.270519, 40.280472)" fill="#FFFFFF">
                        <path d="M0,3.27246377 L2.1098913,3.27246377 L3.92960145,0 L1.81938406,0 C1.81938406,0 0,3.27246377 0,3.27246377 L0,3.27246377 Z" id="path182"></path>
                    </g>
                    <g id="g184" transform="translate(28.402148, 14.858443)" fill="#FFFFFF">
                        <path d="M14.6947826,0.299311594 C14.3955072,0.599021739 0.101195652,15.5948551 0.101195652,15.5948551 C0.0169927536,15.7042754 -1.73472348e-18,15.8165942 0.0258333333,15.9260145 C0.101195652,16.253913 0.572862319,16.5502899 0.952862319,16.6401449 C1.14286232,16.6832609 1.30952899,16.6745652 1.39007246,16.5934058 C1.69297101,16.2948551 14.6947826,1.87351449 15.3712319,1.04768116 C16.0473188,0.224311594 14.9965942,2.77555756e-17 14.6947826,0.299311594 L14.6947826,0.299311594 Z" id="path186"></path>
                    </g>
                    <g id="g188" transform="translate(47.702003, 8.258478)" fill="#FFFFFF">
                        <path d="M2.00036232,0.825507246 C2.59963768,0.224347826 1.62355072,1.11022302e-16 1.39927536,0.149347826 C1.17391304,0.29865942 0.947101449,0.523695652 0.572826087,0.900869565 C-0.362318841,1.83568841 0.834782609,1.98568841 2.00036232,0.825507246 L2.00036232,0.825507246 Z" id="path190"></path>
                    </g>
                    <g id="g192" transform="translate(35.845481, 10.175183)" fill="#D0BD7F">
                        <path d="M6.32427536,2.97637681 L6.00797101,2.26800725 C6.00797101,2.26800725 4.58804348,2.66217391 2.45869565,1.47898551 C2.11050725,1.28333333 2.53949275,0.374347826 2.53949275,0.374347826 C2.53949275,0.374347826 2.40652174,0.19 2.18768116,0 L0.461231884,0 C-0.362318841,0.817318841 0.817753623,1.41884058 1.19818841,1.87387681 C1.4076087,2.12438406 3.00507246,3.92039855 4.75253623,6.83311594 C5.62789855,5.91528986 6.29855072,5.20938406 6.63804348,4.85557971 L6.32427536,2.97637681 L6.32427536,2.97637681 Z" id="path194"></path>
                    </g>
                    <g id="g196" transform="translate(37.507075, 34.667429)" fill="#D0BD7F">
                        <path d="M0,0.630797101 L0.155072464,2.2365942 L1.43913043,0.00253623188 C1.38478261,0.00253623188 1.32898551,0.00253623188 1.27210145,-1.18476585e-16 C1.27210145,2.46519033e-32 0,0.630797101 0,0.630797101 L0,0.630797101 Z" id="path198"></path>
                    </g>
                    <g id="g200" transform="translate(34.176278, 41.918154)" fill="#D0BD7F">
                        <path d="M0.230434783,0.639492754 L0.598913043,0 L0,0 C0.0811594203,0.219202899 0.167391304,0.460869565 0.230434783,0.639492754 L0.230434783,0.639492754 Z" id="path202"></path>
                    </g>
                    <g id="g204" transform="translate(1.638670, 10.175183)" fill="#D0BD7F">
                        <path d="M20.8567029,26.0752174 L20.8860507,26.0465942 C20.2700362,24.7085507 20.2611957,23.4676087 20.2611957,23.4676087 C20.2611957,23.4676087 19.7113406,22.1295652 19.9480797,21.8128986 C19.9480797,21.8128986 18.1307971,20.3157971 18.6842029,18.5026812 L18.1307971,17.6361594 C17.6591667,16.7696377 12.6878986,9.43833333 14.4265942,6.13076087 C14.4265942,6.13076087 15.6094565,4.78938406 14.7404348,3.05387681 C13.873913,1.32083333 13.0049275,1.9517029 12.3743841,2.26800725 C11.7435145,2.58152174 6.69547101,5.57844203 6.69547101,5.57844203 L8.03684783,2.50402174 C8.03684783,2.50402174 5.51264493,4.94507246 4.80108696,5.8140942 C4.80108696,5.8140942 4.25195652,2.50402174 5.75144928,1.00416667 C6.0876087,0.668007246 6.43047101,0.325507246 6.75844203,0 L0,0 L17.3049638,29.3795652 C17.6159783,29.2534783 17.8346739,29.0802899 18.0363406,28.8958696 C18.4938406,28.4813768 20.834058,26.0984058 20.8567029,26.0752174 L20.8567029,26.0752174 Z" id="path206"></path>
                    </g>
                    <g id="g208" transform="translate(41.723742, 10.175183)" fill="#D0BD7F">
                        <path d="M7.40289855,0 C7.33695652,0.0339492754 7.27391304,0.0657971014 7.20724638,0.0944565217 C7.6192029,0.521195652 8.27536232,1.43014493 7.93804348,2.66217391 C7.93804348,2.66217391 7.93804348,3.52869565 7.46630435,3.52869565 C7.46630435,3.52869565 7.54384058,5.4973913 6.36123188,5.26173913 C6.36123188,5.26173913 6.5192029,7.94130435 3.36485507,6.9165942 C3.36485507,6.9165942 2.70833333,6.87307971 2.05217391,6.53942029 C1.62065217,7.02557971 0.898188406,7.8407971 0,8.84532609 C0.958333333,10.6876812 1.87934783,12.8318841 2.56449275,15.2096014 L11.3177536,0 L7.40289855,0 L7.40289855,0 Z" id="path210"></path>
                    </g>
                    <g id="g212" transform="translate(31.384249, 41.918154)" fill="#D0BD7F">
                        <path d="M0.448550725,0.788768116 L1.03369565,0.788768116 C1.08514493,0.619202899 1.19202899,0.290942029 1.28333333,0 L0,0 C0.18115942,0.322826087 0.371014493,0.656521739 0.448550725,0.788768116 L0.448550725,0.788768116 Z" id="path214"></path>
                    </g>
                    <g id="g216" transform="translate(20.624684, 31.199313)" fill="#D0BD7F">
                        <path d="M14.2885507,1.34130435 C14.2110145,1.10543478 10.8200725,0.238768116 10.4226087,0 C10.4226087,0 9.68601449,0.129347826 10.2675362,0.710507246 C10.8976087,1.34130435 10.8200725,2.2884058 10.3450725,3.54601449 L9.79253623,3.70398551 C9.79253623,3.70398551 8.69032609,5.75362319 7.98231884,5.43949275 C7.98231884,5.43949275 7.03231884,7.48913043 5.84945652,7.56702899 C5.06043478,7.61884058 4.37471014,7.77753623 3.58355072,7.2192029 C3.04253623,7.80869565 0.973369565,10.0568841 0.20134058,10.9724638 C0.135507246,11.0532609 0.0693478261,11.1304348 0,11.2054348 L7.01460145,23.1192029 L12.9903623,12.7362319 L8.69601449,12.7362319 L8.73351449,12.3047101 C8.77916667,11.723913 9.15050725,11.0648551 9.3976087,10.6844203 C9.3976087,10.4054348 9.47043478,8.51413043 11.3697101,8.51413043 C11.3697101,8.51413043 13.341087,8.43333333 13.5802174,8.19746377 C13.8168116,7.9615942 13.6584783,6.38442029 13.6584783,6.38442029 L14.2885507,6.38442029 C14.2885507,6.38442029 14.2885507,5.04565217 14.0526812,4.25724638 C13.8168116,3.46811594 13.5802174,2.52427536 13.6584783,2.20797101 C13.7360145,1.89347826 14.3693478,1.57681159 14.2885507,1.34130435 L14.2885507,1.34130435 Z" id="path218"></path>
                    </g>
                    <g id="g220" transform="translate(0.072983, 0.146304)" fill="#000000">
                        <path d="M48.7347826,19.8932246 L48.3692029,21.001413 C48.3692029,21.001413 49.3644928,21.3325725 49.6956522,21.4419203 C49.6956522,21.643587 49.6898551,22.0490942 49.6869565,22.3746014 C49.3677536,22.3452174 49.0913043,22.3689493 48.8815217,22.4634058 C48.1699275,22.7800725 48.4065217,25.5378261 48.5648551,26.0901449 C48.7231884,26.6403261 48.7231884,26.9534783 48.6423913,27.2701449 C48.5648551,27.5875362 48.484058,27.5875362 47.9344203,27.6650362 C47.3786232,27.7425 46.2764493,27.7425 46.2764493,27.7425 C45.8822464,27.2701449 44.6213768,26.7985145 44.6213768,26.7985145 C44.5952899,26.6859783 44.565942,26.5741667 44.540942,26.4648551 L54.5112319,9.13615942 L51.5235507,9.13615942 C51.8228261,8.63833333 51.3047101,8.01985507 51.3047101,8.01985507 C51.3047101,8.01985507 51.2876812,7.80684783 50.673913,7.2707971 C49.9630435,6.65228261 49.2869565,6.90282609 49.0021739,7.12713768 C48.7916667,7.28884058 48.8702899,7.58181159 48.9271739,7.73181159 C48.857971,7.75481884 48.7916667,7.78065217 48.7311594,7.82065217 C48.4637681,7.99931159 48.225,8.23851449 47.8271739,8.63586957 C47.7905797,8.67264493 47.7586957,8.70768116 47.723913,8.74518116 C47.6608696,8.73952899 47.6177536,8.75083333 47.6177536,8.75083333 C47.6177536,7.72297101 45.8039855,7.25134058 45.8039855,7.25134058 C45.0155797,5.67644928 44.6181159,4.75543478 43.7518116,4.64927536 C42.7246377,4.52757246 41.7804348,5.3601087 41.7804348,5.3601087 C40.5974638,4.0184058 37.0481884,2.13039855 34.9210507,2.04971014 C32.7906159,1.97224638 29.397029,3.78525362 27.1116667,4.72923913 C24.8230797,5.67644928 24.0347826,3.86344203 23.6406159,3.46855072 C23.2457246,3.07438406 22.615942,2.52206522 21.4327174,1.26068841 C20.2498913,0 18.8306884,0.158514493 17.8060145,0.630869565 C16.7777899,1.10572464 15.7530797,1.65804348 14.1757246,2.68025362 C12.5987319,3.70528986 12.2045652,4.72923913 11.8097101,5.8325 C11.4155435,6.93463768 10.3908333,7.96181159 10.3908333,7.96181159 C10.3908333,7.96181159 9.90434783,8.44833333 9.21684783,9.13615942 L-1.2872151e-15,9.13615942 L17.9439855,39.5956522 C17.8573188,39.6014493 17.7709783,39.6043478 17.6761594,39.6043478 L4.70307971,39.6043478 L2.29423913,43.9394928 L16.3323188,43.9394928 L17.7628261,43.9362319 C18.3558333,43.9362319 19.1385145,43.542029 19.8896739,42.9 L27.5751812,55.9485507 L34.5725,43.7891304 L40.4789855,43.7891304 L40.4789855,42.623913 L39.0804348,42.623913 C39.0192029,42.4394928 38.9043478,42.0768116 38.8061594,41.7717391 L39.0224638,41.7717391 L40.0474638,41.3 C40.0474638,40.1166667 38.6282609,38.4612319 38.6282609,38.4612319 L38.3952899,37.1460145 L40.151087,34.0917754 C40.3583333,33.9088043 40.4391304,33.7323551 40.4391304,33.7323551 C40.4391304,33.7323551 48.5648551,30.8968478 49.7471014,30.2671377 C50.9300725,29.6361957 51.167029,27.5068478 51.167029,27.5068478 C52.7438406,28.1366667 53.4521739,26.4043478 53.4521739,26.4043478 C53.4521739,26.4043478 54.0047101,26.6403261 55.4268116,26.8759783 C56.8456522,27.1151812 57.5543478,26.4043478 57.7148551,25.9319928 C57.7873188,25.7132971 57.8242754,25.5151812 57.8217391,25.3534783 C58.0253623,25.2041667 58.923913,24.5357609 59.2293478,23.8221014 L59.3985507,23.4222826 L48.7347826,19.8932246 L48.7347826,19.8932246 Z M48.2018116,9.01304348 C48.576087,8.63586957 48.8028986,8.41083333 49.0282609,8.26152174 C49.2525362,8.11217391 50.2286232,8.33652174 49.6293478,8.93768116 C48.4637681,10.0978623 47.2666667,9.94786232 48.2018116,9.01304348 L48.2018116,9.01304348 Z M48.4318841,10.262029 C48.9271739,10.9212319 49.2960145,11.6377174 49.3416667,12.4869203 L48.1789855,10.4431884 L48.2565217,10.2846739 C48.3144928,10.2825725 48.3717391,10.2733696 48.4318841,10.262029 L48.4318841,10.262029 Z M47.890942,10.9587319 C48.3576087,11.7619203 49.2119565,12.4869203 49.1865942,13.3913043 C49.1083333,13.4949638 48.9304348,13.4196014 48.8235507,13.4426087 L47.5800725,11.5803986 L47.890942,10.9587319 L47.890942,10.9587319 Z M46.0231884,13.5232609 L46.5177536,13.6269203 C46.8286232,14.2977899 47.4764493,14.8932971 47.3728261,15.7484783 L46.9322464,15.6674638 C46.5699275,14.9969565 45.9996377,14.2977899 46.0231884,13.5232609 L46.0231884,13.5232609 Z M46.4137681,16.1083333 L46.3887681,16.9143478 C45.1452899,16.8361594 44.4974638,15.3076087 44.1833333,14.2715942 C44.3130435,13.9092754 44.9347826,14.012971 45.248913,13.9867754 C45.8960145,14.608442 46.1521739,15.3306159 46.4137681,16.1083333 L46.4137681,16.1083333 Z M46.9068841,12.7459058 C46.9322464,12.5622826 47.1141304,12.4097826 47.2952899,12.4097826 C47.7358696,12.9528986 48.2793478,13.6499275 48.0981884,14.4011232 C47.3728261,14.2715942 47.3728261,13.2876087 46.9068841,12.7459058 L46.9068841,12.7459058 Z M47.3728261,10.3370652 C47.1655797,11.5022101 46.4376812,12.6167754 45.4018116,13.1839493 C45.0387681,13.2876087 44.7536232,13.2876087 44.6014493,12.9277899 C45.1967391,11.8620652 45.8706522,10.7255435 46.9583333,10.0002174 C47.1141304,10.0515217 47.3442029,10.1551812 47.3728261,10.3370652 L47.3728261,10.3370652 Z M45.9996377,8.24097826 C46.4376812,8.13481884 46.9322464,8.39666667 46.9844203,8.75652174 C47.2177536,9.55971014 46.3105072,9.50804348 45.9481884,10.0515217 C44.9869565,10.8805435 44.6271739,12.0177174 43.9246377,12.9015942 C43.5880435,12.9015942 43.2768116,12.8753986 43.0467391,12.6167754 C43.2507246,10.9325362 44.3938406,9.30068841 45.9996377,8.24097826 L45.9996377,8.24097826 Z M29.7192391,31.3055435 C29.6386957,31.3867029 29.472029,31.3953986 29.282029,31.3522826 C28.902029,31.2624275 28.4303623,30.9660507 28.355,30.6381522 C28.3291667,30.5287319 28.3461594,30.416413 28.4303623,30.3069928 C28.4303623,30.3069928 42.7246377,15.3111594 43.023913,15.0114493 C43.3257246,14.7121377 44.3764493,14.9364493 43.7003623,15.7598188 C43.023913,16.5856522 30.0221377,31.0069928 29.7192391,31.3055435 L29.7192391,31.3055435 Z M30.8192391,32.9896014 L30.689529,33.4019203 L30.1996739,33.3232971 L30.2750362,32.5979348 C30.5369928,32.5207609 30.6406159,32.8316304 30.8192391,32.9896014 L30.8192391,32.9896014 Z M29.2933333,35.2899638 C28.8765217,35.2406884 29.0053261,34.7740217 28.8241667,34.5153261 C29.2388406,33.8939493 28.6171739,32.8573551 29.2126812,32.2874275 C29.6269928,32.209529 29.7308333,32.7048188 29.8090942,32.9352536 C29.6531884,33.7127899 30.1225,34.9040942 29.2933333,35.2899638 L29.2933333,35.2899638 Z M22.5522464,30.8660507 C22.319058,31.1736594 21.9567391,31.0700362 21.6457246,31.150471 C21.2572464,30.5519203 20.6610145,30.0367029 20.6872101,29.2593841 C20.7130435,28.9483696 20.8428986,28.6638768 21.024058,28.4041667 C21.8757246,28.977029 22.2387319,29.9848913 22.5522464,30.8660507 L22.5522464,30.8660507 Z M22.1117391,27.3975362 C23.5917754,26.9534783 22.8084058,28.9483696 23.3526087,29.6478623 C23.2775725,29.8548188 22.9669203,29.7773551 22.8370652,29.7260507 C22.6559058,28.8450362 21.1535507,28.2778623 22.1117391,27.3975362 L22.1117391,27.3975362 Z M22.0600725,32.0544565 C22.6559058,31.1736594 23.5917754,30.5801812 24.6769565,30.7098913 L24.9126087,31.0986594 L24.8843116,31.4877899 C23.741087,31.3030072 22.9669203,32.158442 22.1117391,32.8055435 C22.0342391,32.5979348 21.9305797,32.3167754 22.0600725,32.0544565 L22.0600725,32.0544565 Z M23.666087,27.3975362 C23.6954348,27.2131884 23.9254348,27.1353623 24.0577536,27.2644928 C24.4176087,27.705 24.2626449,28.3528623 24.368442,28.8970652 C24.2102536,29.0007246 24.0577536,29.0007246 23.9254348,28.8708696 C23.6406159,28.4565217 23.4849275,27.8861594 23.666087,27.3975362 L23.666087,27.3975362 Z M23.044058,32.883442 C23.3037681,33.4533696 24.2877536,36.976087 24.9876449,37.8804348 C25.1199638,38.1137681 24.8319565,38.1137681 24.6507971,38.1913043 C24.5701087,38.1217391 24.4894565,38.0467391 24.4115942,37.9724638 C23.7991304,37.3851449 23.3324275,36.6742754 23.0100725,35.8946739 C22.7277174,35.2149638 22.5578986,34.4838043 22.500942,33.7381522 C22.6046014,33.4533696 22.8084058,33.1421377 23.044058,32.883442 L23.044058,32.883442 Z M23.7991304,32.4693116 C24.1327899,32.209529 24.5987681,32.2874275 25.0424638,32.4167754 C25.8169928,32.883442 26.0788406,33.6863406 26.3374638,34.5153261 C26.2338043,35.8080797 26.4149638,36.7405797 26.0526449,37.9065217 C25.4822826,37.8804348 24.0577536,33.9450362 23.7991304,32.4693116 L23.7991304,32.4693116 Z M25.6871377,29.958442 C25.4274275,30.0885145 25.0424638,29.933442 25.0424638,29.6223913 C25.0679348,28.8163768 24.8057609,27.8348551 25.1199638,27.2414855 C26.0526449,27.705 25.4822826,29.1011957 25.6871377,29.958442 L25.6871377,29.958442 Z M25.585942,31.5392391 C25.5084783,31.0986594 25.9203261,30.8888768 26.2858333,30.8138768 C26.7005072,30.8660507 27.2701812,30.7874275 27.3472826,31.3030072 C27.5001449,31.9276449 26.8816667,32.2646014 26.4149638,32.5729348 C25.9489855,32.4167754 25.7133333,32.0026449 25.585942,31.5392391 L25.585942,31.5392391 Z M26.9591667,29.7773551 C26.7748188,30.0109783 26.4638043,29.8787319 26.26,29.8297464 C26.1276449,29.1011957 26.0788406,28.379058 26.1276449,27.5786957 C27.2959783,27.5500362 26.7748188,29.0258333 26.9591667,29.7773551 L26.9591667,29.7773551 Z M26.7256159,37.3097826 C27.2185145,36.2771739 27.0628261,34.9559058 27.0628261,33.7381522 C28.2025,32.9352536 27.9438406,34.5928623 28.125,35.2406884 C28.0475362,36.2507246 27.7651812,37.2847826 27.0341667,37.8804348 L27.0111594,38.0876812 C26.5444565,38.1652174 26.6516667,37.5434783 26.7256159,37.3097826 L26.7256159,37.3097826 Z M27.8143478,30.2464855 C27.4509783,29.7260507 27.5546377,29.0007246 27.5808333,28.3266667 C28.125,28.226558 27.8656522,28.8450362 28.0988406,29.1011957 C27.9951449,29.4925362 28.2548551,30.1403261 27.8143478,30.2464855 L27.8143478,30.2464855 Z M27.6582971,32.7280072 C27.6582971,32.3167754 27.6844928,31.7439493 28.125,31.6428623 C28.4098551,31.591413 28.3348188,31.9276449 28.4385145,32.0801812 C28.4098551,32.4457609 28.4098551,32.8573551 28.125,33.0646014 C27.9180072,33.0910507 27.7106884,32.9352536 27.6582971,32.7280072 L27.6582971,32.7280072 Z M42.6289855,13.9867754 L42.7072464,13.6757609 C43.1641304,13.5745652 43.375,14.0242754 43.5043478,14.3579348 C43.2427536,14.3374275 42.975,14.3979348 42.7702899,14.5366304 C42.6927536,14.3784783 42.6753623,14.1566304 42.6289855,13.9867754 L42.6289855,13.9867754 Z M44.1322464,5.23594203 C44.3652174,5.65025362 44.575,6.03945652 44.7014493,6.45416667 C44.1322464,6.53163043 44.0021739,5.75394928 43.6945652,5.44326087 C43.6398551,5.15844203 43.976087,5.13224638 44.1322464,5.23594203 L44.1322464,5.23594203 Z M42.8884058,5.3165942 C43.5362319,6.11695652 44.0797101,6.94597826 44.6764493,7.74880435 C44.5463768,8.00851449 44.3391304,7.82416667 44.2355072,7.72050725 C43.6945652,7.04963768 42.965942,6.37561594 42.3442029,5.70264493 C42.3967391,5.44326087 42.6550725,5.3165942 42.8884058,5.3165942 L42.8884058,5.3165942 Z M41.9818841,6.22061594 L44.109058,8.65532609 C44.1605072,8.96384058 43.7688406,8.96384058 43.6137681,8.86264493 C42.9402174,7.93032609 42.0072464,7.3082971 41.2047101,6.50547101 C41.3601449,6.22061594 41.6963768,6.03945652 41.9818841,6.22061594 L41.9818841,6.22061594 Z M41.1782609,7.25699275 L43.3032609,9.06753623 C43.4326087,9.25188406 43.3576087,9.58554348 43.0956522,9.55971014 C42.2119565,8.67902174 41.1528986,8.21550725 40.1942029,7.49050725 C40.3492754,6.97217391 40.8423913,6.91978261 41.1782609,7.25699275 L41.1782609,7.25699275 Z M39.7253623,8.18967391 C40.8423913,8.60402174 41.8,9.40438406 42.8362319,10.0002174 C43.0181159,10.2333696 42.7586957,10.5182246 42.5775362,10.5443841 L39.5177536,8.88884058 C39.4916667,8.63018116 39.5442029,8.36836957 39.7253623,8.18967391 L39.7253623,8.18967391 Z M39.3652174,9.55971014 C40.3981884,9.92271739 41.334058,10.5443841 42.2927536,11.0362319 C42.473913,11.191558 42.2666667,11.4247101 42.0855072,11.4771014 C41.0985507,11.0623913 40.2456522,10.4431884 39.2094203,10.1297101 C39.051087,10.0002174 39.2355072,9.71536232 39.3652174,9.55971014 L39.3652174,9.55971014 Z M38.8188406,10.7255435 C39.7253623,10.9842029 40.5543478,11.4247101 41.4115942,11.8107609 C40.3753623,11.839058 39.4166667,11.7070652 38.7402174,10.9587319 L38.8188406,10.7255435 L38.8188406,10.7255435 Z M36.2336957,10.0288768 L37.9601449,10.0288768 C38.1789855,10.2188768 38.3119565,10.4032246 38.3119565,10.4032246 C38.3119565,10.4032246 37.882971,11.3122101 38.2311594,11.5078623 C40.3605072,12.6910507 41.7804348,12.2968841 41.7804348,12.2968841 L42.0967391,13.0052536 C42.0967391,13.0052536 42.0967391,13.0052536 42.4105072,14.8844565 C42.0710145,15.2382609 41.4003623,15.9441667 40.525,16.8619928 C38.7775362,13.9492754 37.1800725,12.1532609 36.9706522,11.9027536 C36.5902174,11.4477174 35.4101812,10.8461957 36.2336957,10.0288768 L36.2336957,10.0288768 Z M20.4080435,13.163442 C21.3747101,11.626413 26.8760145,6.93463768 34.8402536,15.1349638 C36.2192391,16.5513043 37.3735507,17.8983333 38.3315217,19.1622101 C35.2058333,22.4428986 31.2279348,26.625471 29.4058696,28.5372101 C28.5248188,28.0623551 27.6271739,27.5319928 26.7175,26.9534783 C19.7771739,22.5409058 18.1194928,16.7901449 20.4080435,13.163442 L20.4080435,13.163442 Z M14.1874275,3.9434058 C14.6049275,3.72224638 15.1232971,3.89210145 15.4169565,4.28626812 C15.1232971,4.77807971 14.481087,5.17293478 14.5299275,5.73695652 C14.9990942,6.08192029 15.7881159,6.13112319 15.9604348,6.79594203 C16.0818116,7.16463768 16.0067754,7.60797101 15.7619565,7.90166667 L15.1721014,7.95365942 C15.4169565,7.68300725 15.4912681,7.26264493 15.3681159,6.94278986 C15.145942,6.72166667 14.9502536,6.37561594 14.5822826,6.50297101 C13.9400725,6.52597826 14.0869203,7.65681159 13.4971014,7.21384058 C13.7670652,6.15695652 14.1131159,5.09793478 14.1874275,3.9434058 L14.1874275,3.9434058 Z M11.3380435,8.03931159 C12.9129348,9.61735507 13.6234058,11.3497101 13.6234058,11.3497101 C13.3092029,12.1387319 9.83851449,13.7132609 9.83851449,13.7132609 L11.8903623,9.93086957 L6.76413043,14.3466304 C6.76413043,14.3466304 6.8415942,12.2968841 7.47213768,11.586413 C8.10547101,10.8780435 11.3380435,8.03931159 11.3380435,8.03931159 L11.3380435,8.03931159 Z M1.56568841,10.0288768 L8.32413043,10.0288768 C7.99615942,10.3543841 7.6532971,10.6968841 7.31713768,11.0330435 C5.81764493,12.5328986 6.36677536,15.842971 6.36677536,15.842971 C7.07833333,14.9739493 9.60253623,12.5328986 9.60253623,12.5328986 L8.26115942,15.6073188 C8.26115942,15.6073188 13.3092029,12.6103986 13.9400725,12.2968841 C14.5706159,11.9805797 15.4396014,11.3497101 16.3061232,13.0827536 C17.1751449,14.8182609 15.9922826,16.1596377 15.9922826,16.1596377 C14.253587,19.4672101 19.2248551,26.7985145 19.6964855,27.6650362 L20.2498913,28.531558 C19.6964855,30.3446739 21.5137681,31.8417754 21.5137681,31.8417754 C21.277029,32.158442 21.8268841,33.4964855 21.8268841,33.4964855 C21.8268841,33.4964855 21.8357246,34.7374275 22.4517391,36.075471 L22.4223913,36.1040942 C22.3997464,36.1272826 20.059529,38.5101449 19.602029,38.9246377 C19.4003623,39.109058 19.1816667,39.2822464 18.8706522,39.4083333 L1.56568841,10.0288768 L1.56568841,10.0288768 Z M5.30742754,43.4065217 L3.19753623,43.4065217 L5.01692029,40.134058 L7.12713768,40.134058 L5.30742754,43.4065217 L5.30742754,43.4065217 Z M17.7628261,43.4043478 L16.1971377,43.4043478 L17.6761594,40.134058 C18.9255072,40.134058 19.4866667,39.7456522 19.9593841,39.3163043 C20.4342391,38.8880435 22.6647464,36.6278986 22.6647464,36.6278986 L23.6342391,38.0101449 C23.6342391,38.0101449 21.2508696,40.609058 20.3475362,41.6858696 C19.4435145,42.7619565 18.3675362,43.4043478 17.7628261,43.4043478 L17.7628261,43.4043478 Z M27.5663043,54.1721014 L20.5517029,42.2583333 C20.6210507,42.1833333 20.6872101,42.1061594 20.7530435,42.0253623 C21.5250725,41.1097826 23.5942391,38.8615942 24.1352536,38.2721014 C24.926413,38.8304348 25.6121377,38.6717391 26.4011594,38.6199275 C27.5840217,38.542029 28.5340217,36.4923913 28.5340217,36.4923913 C29.242029,36.8065217 30.3442391,34.7569928 30.3442391,34.7569928 L30.8967754,34.5990217 C31.3717754,33.341413 31.4493116,32.3943116 30.8192391,31.7635145 C30.2377174,31.1823551 30.9743116,31.0530072 30.9743116,31.0530072 C31.3717754,31.2917754 34.7627174,32.158442 34.8402536,32.3943116 C34.9210507,32.6298188 34.2877174,32.9464855 34.2101812,33.2609783 C34.1319203,33.5772826 34.3685145,34.5211232 34.6043841,35.3102536 C34.8402536,36.0986594 34.8402536,37.4373188 34.8402536,37.4373188 L34.2101812,37.4373188 C34.2101812,37.4373188 34.3685145,39.0144928 34.1319203,39.2503623 C33.8927899,39.4862319 31.921413,39.567029 31.921413,39.567029 C30.0221377,39.567029 29.9493116,41.4583333 29.9493116,41.7373188 C29.7022101,42.1177536 29.3308696,42.7768116 29.2852174,43.3576087 L29.2477174,43.7891304 L33.5420652,43.7891304 L27.5663043,54.1721014 L27.5663043,54.1721014 Z M34.7022101,41.7717391 L34.3337319,42.4112319 C34.2706884,42.2326087 34.1844565,41.990942 34.1032971,41.7717391 L34.7022101,41.7717391 L34.7022101,41.7717391 Z M32.5946014,41.7717391 C32.5032971,42.0626812 32.396413,42.390942 32.3449638,42.5605072 L31.7598188,42.5605072 C31.6822826,42.4282609 31.4924275,42.0945652 31.3112681,41.7717391 L32.5946014,41.7717391 L32.5946014,41.7717391 Z M30.6522101,41.0264493 C30.5167029,40.8568841 30.6609058,40.5199275 30.9688768,40.2775362 C31.2793841,40.0362319 31.6391667,39.9811594 31.7721377,40.1543478 C31.9069203,40.3242754 31.763442,40.6608696 31.4547464,40.8996377 C31.1475,41.1413043 30.7877174,41.1963768 30.6522101,41.0264493 L30.6522101,41.0264493 Z M38.7869565,43.0206522 L40.0793478,43.0206522 L40.0793478,43.3927536 L29.6819203,43.3927536 C29.7308333,42.7963768 30.2177899,42.0423913 30.4047464,41.7717391 L30.8536594,41.7717391 L31.5275725,42.9601449 L32.6355435,42.9601449 L33.0123551,41.7717391 L33.6772101,41.7717391 L34.1123551,42.9601449 L37.434058,42.9601449 L37.7735507,41.7717391 L38.3894928,41.7717391 L38.7869565,43.0206522 L38.7869565,43.0206522 Z M35.2775725,42.5605072 L35.7326449,41.7717391 L37.3586957,41.7717391 C37.2782609,42.0539855 37.1836957,42.3851449 37.1344203,42.5605072 L35.2775725,42.5605072 L35.2775725,42.5605072 Z M37.5891304,36.7576087 L37.434058,35.1519203 L38.7061594,34.5211232 C38.7630435,34.5236594 38.8188406,34.5236594 38.8731884,34.5236594 L37.5891304,36.7576087 L37.5891304,36.7576087 Z M41.6246377,30.9751087 C40.3923913,32.3794565 36.5934783,31.9138768 31.8757609,29.7717029 C33.6946014,27.7573551 36.9706522,24.1065942 39.6786232,21.0820652 C42.9083333,26.0961594 42.842029,29.5817029 41.6246377,30.9751087 L41.6246377,30.9751087 Z M41.6507246,18.8742029 C42.548913,17.8696739 43.2713768,17.0544565 43.7028986,16.5682971 C44.359058,16.9019565 45.0155797,16.945471 45.0155797,16.945471 C48.1699275,17.9701812 48.0119565,15.2906159 48.0119565,15.2906159 C49.1945652,15.5262681 49.117029,13.5575725 49.117029,13.5575725 C49.5887681,13.5575725 49.5887681,12.6910507 49.5887681,12.6910507 C49.926087,11.4590217 49.2699275,10.5500725 48.857971,10.1233333 C48.9246377,10.0946739 48.9876812,10.0628261 49.0536232,10.0288768 L52.9684783,10.0288768 L44.2152174,25.2384783 C43.5300725,22.8607609 42.609058,20.716558 41.6507246,18.8742029 L41.6507246,18.8742029 Z M52.35,23.1717754 C51.9380435,23.0019203 51.5210145,22.8437681 51.1181159,22.7082609 C51.2706522,22.486413 51.4344203,22.2472101 51.5268116,22.1092391 C51.9528986,22.253587 53.7282609,22.8381159 54.1286232,22.9725725 C54.1344203,23.1544203 54.1456522,23.5167391 54.1550725,23.833442 C53.4376812,23.5861232 52.7757246,23.3472826 52.35,23.1717754 L52.35,23.1717754 Z M56.0681159,26.2369928 C55.6887681,26.3261594 55.3369565,26.2313043 55.2884058,26.0182971 C55.2365942,25.8077899 55.5043478,25.5607971 55.8844203,25.4684783 C56.2641304,25.3764855 56.6181159,25.4741304 56.667029,25.6871377 C56.7192029,25.8976449 56.4518116,26.145 56.0681159,26.2369928 L56.0681159,26.2369928 Z M55.5681159,24.3114493 C55.7514493,24.0577536 55.9644928,23.7672826 56.075,23.6147826 C56.2876812,23.6865942 56.4427536,23.7386232 56.6271739,23.7990942 C56.659058,23.9540942 56.7365942,24.3457609 56.8083333,24.7169203 C56.4597826,24.6051449 56.0311594,24.4643116 55.5681159,24.3114493 L55.5681159,24.3114493 Z M57.6405797,24.987971 C57.6373188,24.987971 57.6373188,24.9847826 57.6347826,24.9847826 C57.5942029,24.9731159 57.4525362,24.9274638 57.2431159,24.8581159 L56.9757246,23.4940942 L55.9224638,23.1455797 L55.1731884,24.1794565 C54.9692029,24.1101087 54.7619565,24.0407609 54.5572464,23.9721377 L54.5202899,22.6820652 L51.3652174,21.6375725 L50.7206522,22.584058 C50.4985507,22.5214493 50.2858696,22.469058 50.084058,22.431558 L50.0985507,21.153913 L48.8728261,20.7484058 L48.9876812,20.3967029 L58.8637681,23.663587 C58.6221014,24.2307609 57.8855072,24.8092754 57.6405797,24.987971 L57.6405797,24.987971 Z" id="path222"></path>
                    </g>
                </g>
            </g>
        </g>
    </g>
</svg>