<?xml version="1.0" encoding="UTF-8" standalone="no"?>
<svg width="30px" height="30px" viewBox="0 0 30 30" version="1.1" xmlns="http://www.w3.org/2000/svg" xmlns:xlink="http://www.w3.org/1999/xlink">
    <!-- Generator: Sketch 40.3 (33839) - http://www.bohemiancoding.com/sketch -->
    <title>Artboard Copy</title>
    <desc>Created with Sketch.</desc>
    <defs></defs>
    <g id="Page-1" stroke="none" stroke-width="1" fill="none" fill-rule="evenodd">
        <g id="Artboard-Copy">
            <g id="predators" transform="translate(0.000000, 6.000000)">
                <g id="Page-1">
                    <g id="Artboard">
                        <g id="predators" transform="translate(0.000000, 0.287016)">
                            <g id="g236" transform="translate(1.571678, 0.956651)" fill="#FFFFFF">
                                <path d="M7.9784966,3.4720729 C7.9784966,3.4720729 6.8206606,3.94107062 6.02507975,5.14127565 C6.38603645,5.04300685 6.7849886,4.94091116 7.21851935,4.83915718 C7.5725057,4.01740319 7.9784966,3.4720729 7.9784966,3.4720729" id="path244"></path>
                                <path d="M24.4101594,5.9729385 C25.1313895,6.17070615 25.6960593,6.42731205 25.6960593,6.42731205 C25.6960593,6.42731205 26.6741002,7.0461731 27.1111162,6.25298405 L25.6172665,5.549795 C25.1994533,5.7918451 24.7894989,5.91854215 24.4101594,5.9729385" id="path246"></path>
                                <path d="M4.16357631,3.43694761 L9.46701595,2.25027335 C9.46701595,2.25027335 9.6767426,2.93200455 10.5813212,3.47890661 L10.5655353,3.64660592 C10.1456036,3.73148064 9.4867654,4.00161731 8.85820045,4.49460137 C9.80528475,4.3181549 10.8561731,4.16091116 11.9864009,4.05061503 L12.2546925,3.42300683 C10.5911617,3.66703872 9.84123005,2.25191344 9.84123005,2.25191344 L9.713918,1.81968109 L0.0593166285,3.97974943 C1.10091116,4.05191344 2.24938496,4.38321184 3.29542141,4.91665148 C3.54498861,4.08328018 4.16357631,3.43694761 4.16357631,3.43694761" id="path248"></path>
                                <path d="M20.3296127,6.084328 C19.8858997,6.305877 19.5016401,6.60874715 19.0670843,6.97906605 L19.5683372,6.0371754 C19.5683372,6.0371754 18.2462187,5.98366745 16.9806151,6.00765375 L16.1540774,6.9167426 C15.845877,6.8233941 15.5204556,6.77111615 15.1830752,6.7634624 C15.1636675,6.3036902 15.3440091,5.7804328 15.7484966,5.27842825 C15.2131435,5.6823007 14.8893622,6.2002278 14.8218451,6.77419135 C14.586287,6.79243735 14.3565376,6.83350795 14.1347152,6.89494305 C14.0188155,6.51252845 14.0316629,6.0418223 14.208246,5.5299772 C13.8963554,6.00546695 13.7676765,6.50931665 13.8321868,6.9923918 C13.6102961,7.07589975 13.3983143,7.1812073 13.1982233,7.30496585 C13.003189,7.00810935 12.8838041,6.612369 12.874852,6.14036445 C12.7622323,6.62384965 12.7935308,7.07473805 12.9643052,7.4624829 C12.2577676,7.98895215 11.9393167,8.6259909 11.9393167,8.6259909 C9.69526195,8.22157175 8.3367198,10.0993394 8.28895215,11.4170843 C8.1466059,10.5027335 8.4391572,8.885672 10.2465376,8.1159909 L10.8464009,6.713918 C10.8839864,6.62453305 10.9329157,6.54601365 10.9918907,6.4756264 C8.976287,6.85168565 7.72667425,7.650205 7.72667425,7.650205 C7.72667425,7.650205 7.18373575,8.622164 7.41594535,9.61551255 C7.41594535,9.61551255 7.06168565,9.13373575 6.8525057,8.31362185 C6.76059225,8.40047835 6.684123,8.47974945 6.6261048,8.5431663 C6.69970385,8.8338041 6.7391344,9.13394075 6.7391344,9.4422779 C6.7391344,10.9112529 6.12505695,11.8359909 6.12505695,11.8359909 L8.18070615,12.2531208 C8.18070615,12.2531208 8.95810935,13.3841686 10.6270387,13.3841686 C11.154943,13.3841686 11.8489066,13.3257403 11.8489066,12.9890433 C11.8489066,12.7347608 11.2240319,12.389385 11.2240319,11.6527107 C11.2240319,10.4565376 12.7264921,9.2153303 14.3386333,8.6840091 C16.2226196,8.06350795 19.1002278,7.3405695 20.5481549,7.3405695 C24.654328,7.3405695 24.5190205,10.0513667 24.5190205,10.0513667 L24.7180865,10.0422096 C25.6320957,9.52845105 26.4412073,9.43072895 26.6773121,9.41275625 C27.0730524,7.93974945 26.321754,6.61134395 20.3296127,6.084328" id="path250"></path>
                                <path d="M15.3072437,3.20849659 C14.4380638,3.24492027 13.7559909,3.55954442 13.2369704,3.95125284 C13.9171982,3.90977221 14.6210023,3.88735763 15.3426424,3.88892939 C15.6961503,3.42198178 15.9066287,2.91116173 15.9066287,2.3766287 C15.9066287,1.45496583 15.4346925,0.91496583 15.4346925,0.91496583 L17.7193394,0.408451025 L18.4299089,0.75690205 C18.4299089,0.75690205 16.7510706,1.40220956 16.7510706,3.221959 C16.7510706,3.48082005 16.7892028,3.71569476 16.8492027,3.92794988 C18.0571982,3.98856492 19.3056492,4.12182233 20.574328,4.35164009 C20.574328,4.35164009 20.9841458,5.34724375 22.1136902,5.34724375 C22.6604556,5.34724375 23.0780638,5.0443736 23.0780638,5.0443736 C24.3024602,5.969795 25.4241458,5.4591116 25.4241458,5.4591116 L25.0044192,5.1106606 L24.6032802,5.32394075 L24.8526423,4.95 L24.6993622,4.77574032 L24.1577221,5.05517085 L24.4969476,4.54093394 L24.3792028,4.40528474 L23.922164,4.60646925 L24.1841685,4.16036446 L23.9999317,3.87744875 C23.8280638,4.63120729 23.1557631,4.72127562 22.578041,4.67610478 L22.548041,4.34268792 C22.4229841,4.42100228 22.2744874,4.46658315 22.1157403,4.46658315 C21.6646469,4.46658315 21.2994533,4.10104784 21.2994533,3.65070615 C21.2994533,3.39273348 20.027836,2.25498861 20.027836,2.25498861 L21.6735308,2.76341686 C23.0528474,3.18963553 22.9925057,3.87375854 23.0082915,4.24482915 C23.2405012,4.34726652 23.7636218,4.42216401 24,3.87751709 L23.8259454,2.97164009 L22.7302962,2.44025057 L21.9779043,1.73624146 L17.7632802,0.0324601366 L13.6148064,0.952687925 C14.5924374,1.18790433 15.4013439,1.69824602 15.4013439,1.69824602 C15.4013439,1.69824602 15.7118679,2.41277905 15.3072437,3.20849659 L15.3072437,3.20849659 L15.3072437,3.20849659 Z M23.5638041,3.34701595 L23.3589977,4.13952164 C23.3589977,3.53965832 23.004123,3.19551253 21.9539864,2.57767654 L23.5638041,3.34701595 L23.5638041,3.34701595 L23.5638041,3.34701595 Z" id="path252"></path>
                                <path d="M3.85592255,5.22785875 C4.05833713,5.35004555 4.25453303,5.48029615 4.44355353,5.6175171 C4.61569476,5.56018225 4.81906606,5.4944419 5.0510023,5.42330295 C5.40785875,4.05874715 6.13872435,3.15362187 6.13872435,3.15362187 C4.62362187,3.71986332 3.98132118,4.95649203 3.85592255,5.22785875" id="path254"></path>
                                <path d="M10.1405467,2.11373577 C10.1405467,2.11373577 10.746082,3.14446469 11.8255353,3.14446469 L12.9466742,3.0671754 L13.8676538,2.1047836 L15.1251936,1.91118451 C14.6591344,1.62888382 14.1334852,1.42537585 13.5972438,1.28077449 L12.545877,2.74920273 L13.2140774,1.18742597 C13.0187699,1.1447836 12.8239408,1.10897494 12.6312984,1.07924829 L11.7252848,2.3418451 L12.2861275,1.03175398 C12.0496811,1.00291572 11.8195217,0.98234624 11.5995444,0.96854214 L10.9065376,1.93489749 L11.3257176,0.95425968 C10.3471982,0.913189065 9.6325968,0.9923918 9.6325968,0.9923918 L9.87355355,1.20020501 L10.1405467,2.11373577 L10.1405467,2.11373577 L10.1405467,2.11373577 Z" id="path256"></path>
                                <path d="M11.5572437,11.79 C11.6896128,12.3884283 12.0895217,12.5570843 12.1278587,12.7807517 C12.1278587,12.7807517 13.1668565,12.5669248 13.8568565,11.5402278 C12.5130752,12.2164237 11.5572437,11.79 11.5572437,11.79" id="path258"></path>
                            </g>
                            <g id="g260" transform="translate(0.068262, 0.068268)">
                                <path d="M25.2205695,10.1993167 C25.2205695,9.61353075 24.2510023,9.05179955 23.7941002,9.05179955 C21.9123007,9.05179955 21.9379271,13.0494533 15.3034169,16.4362415 C20.9539408,15.6199544 25.2205695,11.7764692 25.2205695,10.1993167" id="path268" fill="#FFFFFF"></path>
                                <path d="M29.081754,6.80350795 C29.046902,6.7191116 28.9828018,6.65070615 28.9006606,6.6110706 L27.3279499,5.8515034 L26.8427563,5.4785877 L26.1364921,4.60236902 L25.9036675,3.55776766 C25.8809795,3.45580865 25.8164693,3.36854214 25.7259909,3.31715262 L24.6206378,2.68913439 L23.9253075,1.99093394 C23.8926423,1.95785877 23.8538269,1.93127563 23.8109111,1.9128246 L19.4834624,0.0306833713 C19.4141003,0.00061503417 19.337836,-0.00744874715 19.2641686,0.00703872435 L13.3666743,1.1851025 C11.7610251,1.05970387 10.3539635,1.2610934 10.2943736,1.2695672 C9.93266515,1.32970387 9.93068335,1.72059225 10.0565603,1.8461959 L1.22958997,3.60970387 C1.14150342,3.6270615 1.06284738,3.67646925 1.00838269,3.74781321 L0.0743507975,4.97583143 C-0.091571754,5.1942369 0.0334851936,5.52744875 0.320501139,5.56503415 C0.385284738,5.57350795 6.7698861,6.4476082 6.7698861,10.3201367 C6.7698861,11.7461959 5.79102505,13.1486105 5.7809795,13.1627562 C5.6394533,13.3631891 5.7254214,13.6860136 6.01667425,13.7384966 L9.62289295,14.3896811 C9.8959681,14.6078132 10.8137357,15.2525057 12.1492483,15.2525057 C13.7303644,15.2525057 14.1779726,14.6544874 14.280615,14.1645102 C15.0644419,13.83082 16.0499317,13.0400911 16.0499317,12.4025741 C16.0499317,12.0051253 15.6923918,11.7385422 15.3587016,11.7385422 C15.3205695,11.7385422 15.2864692,11.7522779 15.2501822,11.7581549 C15.2501822,11.7581549 15.0817312,11.4467426 14.6745103,11.4467426 C14.5004556,11.4467426 14.3111618,11.5342141 14.1636902,11.5969476 C14.5251253,11.1814578 15.1225968,10.6864237 16.0781549,10.3699544 C17.5518451,9.88113895 19.4733485,9.4671526 20.4355353,9.27321185 C18.9728474,13.5243963 13.9631207,15.7575854 13.9102278,15.7802733 C13.6121413,15.9100455 13.6661276,16.2878132 13.7887927,16.3660592 L13.240934,16.6113895 C12.851344,16.7830524 13.0172665,17.3503189 13.4210023,17.315877 C18.7081094,16.8666287 22.596697,15.0156492 25.3044874,11.66959 L26.3936446,11.66959 C26.4570615,11.66959 26.5184282,11.6533941 26.5736446,11.6231891 C27.6388838,11.0281777 28.3545103,11.052369 28.3612756,11.0525741 C28.5079271,11.0593394 28.6472665,10.9787016 28.7117767,10.8474259 C29.2396811,9.774123 29.8081777,9.2053531 29.813713,9.2002278 C29.892164,9.12136675 29.9680866,8.97341685 29.8966059,8.7977221 L29.081754,6.80350795 L29.081754,6.80350795 L29.081754,6.80350795 Z M28.3810251,10.6846469 C28.3810251,10.6846469 27.5860593,10.6359226 26.3936447,11.3007061 L25.3954442,11.3007061 L25.2116173,11.201344 C22.5142141,14.6816173 18.6707973,16.4994533 13.3897722,16.9487699 C13.3897722,16.9487699 15.1815718,16.1596128 16.1525741,15.6472209 L14.0572893,16.1189521 C14.0572893,16.1189521 19.7352848,13.655877 20.9761504,8.79157175 C20.9761504,8.79157175 18.0468792,9.32931665 15.9620501,10.019795 C13.8986788,10.7030979 13.3361959,12.2015945 13.3361959,12.2015945 C14.0711617,12.1333941 14.4504328,11.8158314 14.6745786,11.8158314 C14.9417085,11.8158314 15.0427107,12.0919134 14.9724602,12.2485422 C15.095672,12.1958542 15.246902,12.1073577 15.3587699,12.1073577 C15.4937358,12.1073577 15.6813212,12.222164 15.6813212,12.4025057 C15.6813212,12.8518906 14.6796356,13.6646925 13.9397495,13.9035307 C13.9397495,14.1781093 13.8316401,14.8836219 12.1493166,14.8836219 C10.7030296,14.8836219 9.7827335,14.0431435 9.7827335,14.0431435 L6.08200455,13.3754214 C6.08200455,13.3754214 7.13842825,11.8866287 7.13842825,10.3201367 C7.13842825,6.07257405 0.367790433,5.1990205 0.367790433,5.1990205 L1.30182233,3.97120729 L10.8479727,2.06432802 L10.3481549,1.6343508 C10.3481549,1.6343508 11.7868565,1.42312073 13.3927107,1.55589977 L19.3364009,0.368678816 L23.6646697,2.25095672 L24.3947153,2.9848975 L25.5439408,3.63744875 L25.7947381,4.76665148 L26.5831435,5.7442141 L27.132779,6.1670843 L28.7403417,6.9432574 L29.5551253,8.9374032 C29.5551253,8.9374032 28.9475399,9.53214125 28.3810251,10.6846469 L28.3810251,10.6846469 L28.3810251,10.6846469 Z" id="path270" fill="#FDBB30"></path>
                            </g>
                            <g id="g272" transform="translate(0.409947, 0.409954)">
                                <path d="M26.8578587,6.9741458 C26.8578587,6.9741458 26.2931207,6.7172665 25.571959,6.51984055 C24.4516401,6.6804328 23.5989294,6.210205 23.5989294,6.210205 C22.6699544,6.210205 22.0359909,6.3594533 21.4914123,6.6309567 C27.4835535,7.15797265 28.2348519,8.48624145 27.838975,9.95938495 C27.8840774,9.95589975 27.9083372,9.95514805 27.9083372,9.95514805 C27.9083372,9.95514805 28.313508,9.19886105 28.7836674,8.6504556 C28.7836674,8.6504556 28.1736218,7.3713212 26.0327562,7.26492025 L26.8578587,6.9741458 L26.8578587,6.9741458 L26.8578587,6.9741458 Z" id="path280" fill="#FDBB30"></path>
                                <path d="M8.3803189,5.38605925 C7.94678815,5.4878132 7.547836,5.58970385 7.18687925,5.68797265 C6.93949885,6.06102505 6.7273804,6.5050114 6.5957631,7.0271754 C7.16938495,7.6341458 7.59594535,8.3298861 7.7881777,9.0903417 C7.8461959,9.0265148 7.92266515,8.94731205 8.0145786,8.8604556 C7.9267654,8.5168565 7.8642369,8.11482915 7.8642369,7.6630524 C7.86416855,6.8214123 8.10669705,6.02091115 8.3803189,5.38605925" id="path282" fill="#FDBB30"></path>
                                <path d="M21.7359226,4.89833713 C20.4672438,4.66817767 19.2189294,4.53492028 18.010729,4.47464693 C18.2492939,5.32093395 18.8434852,5.78330295 18.8434852,5.78330295 L18.1423462,6.55448745 C19.4080866,6.53036445 20.7298633,6.58394075 20.7298633,6.58394075 L20.2288155,7.52569475 L21.533508,6.0905467 L21.7359226,4.89833713 L21.7359226,4.89833713 L21.7359226,4.89833713 Z" id="path284" fill="#FDBB30"></path>
                                <path d="M13.0478815,6.18505695 L12.4057859,6.3351936 L13.1483371,4.59724374 C12.0179044,4.70747152 10.967016,4.8647836 10.02,5.0414351 C9.126287,5.74202735 8.2932574,6.8930296 8.2932574,8.6030296 C8.2932574,9.4603189 8.57788155,10.1621412 8.57788155,10.1621412 C8.345672,9.1687927 8.8886105,8.1968337 8.8886105,8.1968337 C8.8886105,8.1968337 10.1382915,7.3985877 12.1538952,7.02252845 C12.2950797,6.85394075 12.5009112,6.73592255 12.798656,6.65863325 C14.2454214,6.28298405 15.7238269,5.4671754 16.5047153,4.43548975 C15.7828702,4.43405467 15.0789977,4.4561959 14.3988383,4.49767654 C13.4507973,5.2132346 13.0478815,6.18505695 13.0478815,6.18505695" id="path286" fill="#FDBB30"></path>
                                <path d="M6.09123005,6.5475854 C6.12300685,6.34735765 6.1646925,6.1544419 6.2127335,5.969795 C5.98072895,6.04134395 5.77756265,6.10687925 5.6055581,6.1642141 C5.7735991,6.2864009 5.93589975,6.41398635 6.09123005,6.5475854" id="path288" fill="#FDBB30"></path>
                                <path d="M23.3898861,4.76138952 C23.5614807,4.76138952 23.6883143,4.68068337 23.6883143,4.68068337 C23.6771754,4.62006834 23.6637813,4.56252847 23.6487471,4.50731207 C23.6067881,4.53382688 23.5471982,4.56013667 23.4764009,4.56013667 C23.2908656,4.56013667 23.1762642,4.41758542 23.1762642,4.26027335 C23.1762642,4.12660592 23.2679727,4.00564921 23.3990433,3.97148064 C23.2349658,3.73940774 23.0706833,3.64148064 23.0706833,3.64148064 C23.0706833,3.64148064 22.7842824,3.80179955 22.7842824,4.1548975 C22.7842824,4.50840547 23.0809339,4.76138952 23.3898861,4.76138952" id="path290" fill="#FDBB30"></path>
                                <path d="M26.7912984,5.82539865 L26.2414578,5.40252845 L25.4530524,4.4251025 L25.2020501,3.29596811 L24.052893,2.64321185 L23.322984,1.90927107 L18.9949202,0.0269931663 L13.0508201,1.21414578 C11.4453075,1.08143508 10.0066059,1.29300683 10.0066059,1.29300683 L10.5062187,1.72257403 L0.960068335,3.62917995 L0.0261731208,4.85747153 C0.0261731208,4.85747153 6.79681095,5.73116175 6.79681095,9.97851935 C6.79681095,11.5450114 5.74018225,13.0338041 5.74018225,13.0338041 L9.4407745,13.7015262 C9.4407745,13.7015262 10.361344,14.5417312 11.8073577,14.5417312 C13.4897494,14.5417312 13.5978588,13.8366287 13.5978588,13.5619135 C14.3377448,13.3229385 15.3397038,12.51041 15.3397038,12.0606833 C15.3397038,11.8804784 15.1519818,11.7657403 15.017016,11.7657403 C14.905148,11.7657403 14.753713,11.8541003 14.6306378,11.9072665 C14.7009567,11.7502962 14.6000911,11.4742141 14.3327562,11.4742141 C14.1087471,11.4742141 13.7295444,11.7917084 12.9943736,11.8601139 C12.9943736,11.8601139 13.5569932,10.3616173 15.6202962,9.67810935 C17.7053303,8.98742595 20.6341913,8.44995445 20.6341913,8.44995445 C19.3935308,13.3139864 13.7156037,15.7772665 13.7156037,15.7772665 L15.8109567,15.3053303 C14.8396128,15.8182005 13.0478132,16.6068792 13.0478132,16.6068792 C18.3289749,16.1575626 22.1725968,14.3398633 24.87,10.85959 L25.0533485,10.9587472 L26.0518907,10.9587472 C27.2441002,10.2941002 28.0394761,10.3428929 28.0394761,10.3428929 C28.6057859,9.19038725 29.2132346,8.5956492 29.2132346,8.5956492 L28.398656,6.60136675 L26.7912984,5.82539865 L26.7912984,5.82539865 L26.7912984,5.82539865 Z M12.4875854,1.50075171 L12.0682005,2.48159454 L12.761139,1.51523918 C12.9812529,1.52904328 13.211549,1.54933941 13.4477905,1.57810934 L12.886811,2.88854214 L13.7928246,1.62560364 C13.9858087,1.65567198 14.1802962,1.69154897 14.3758087,1.733918 L13.7076082,3.29589977 L14.758975,1.82740319 C15.2950798,1.97186788 15.820934,2.17537585 16.2873349,2.45788155 L15.0292483,2.6514123 L14.1084738,3.61359909 L12.9872665,3.69123007 C11.9078816,3.69123007 11.3022096,2.6604328 11.3022096,2.6604328 L11.0354898,1.74656036 L10.7946697,1.53908884 C10.7946014,1.53908884 11.5088611,1.45988611 12.4875854,1.50075171 L12.4875854,1.50075171 L12.4875854,1.50075171 Z M6.0910934,6.5475854 C5.93583145,6.414123 5.7734624,6.28646925 5.6054214,6.1642141 C5.4161959,6.02699315 5.219795,5.89687925 5.01765375,5.77448745 C5.1432574,5.50312075 5.7856264,4.26649202 7.3003189,3.70025057 C7.3003189,3.70025057 6.5694533,4.60537585 6.2127335,5.96993165 C6.1645558,6.1544419 6.12300685,6.34722095 6.0910934,6.5475854 L6.0910934,6.5475854 L6.0910934,6.5475854 Z M15.018451,12.0869249 C14.3283143,13.1136218 13.2894533,13.327312 13.2894533,13.327312 C13.2510479,13.1035763 12.8512073,12.9351253 12.7189749,12.336697 C12.7189749,12.336697 13.6747381,12.7631208 15.018451,12.0869249 L15.018451,12.0869249 L15.018451,12.0869249 Z M14.9615262,16.0944874 C21.5961731,12.7076993 21.5703417,8.70970385 23.4524146,8.70970385 C23.9091799,8.70970385 24.8788838,9.2721868 24.8788838,9.85742595 C24.8788838,11.4347836 20.6123918,15.2782688 14.9615262,16.0944874 L14.9615262,16.0944874 L14.9615262,16.0944874 Z M28.7835308,8.6503189 C28.3133713,9.1989294 27.9084055,9.9553531 27.9084055,9.9553531 C27.9084055,9.9553531 27.8840091,9.95589975 27.8390433,9.95938495 C27.6031435,9.9776993 26.7939635,10.0754214 25.8798177,10.58918 L25.6807517,10.5979271 C25.6807517,10.5979271 25.8159909,7.8872665 21.7098861,7.8872665 C20.262164,7.8872665 17.3840091,8.61027335 15.5003644,9.23050115 C13.8881549,9.76202735 12.3857631,11.0034397 12.3857631,12.1994761 C12.3857631,12.9357403 13.0103645,13.2815262 13.0103645,13.535672 C13.0103645,13.8723007 12.3167426,13.930729 11.78877,13.930729 C10.1197039,13.930729 9.34243735,12.8000911 9.34243735,12.8000911 L7.28692485,12.3826196 C7.28692485,12.3826196 7.9010023,11.4582232 7.9010023,9.9890433 C7.9010023,9.6806378 7.86157175,9.38070615 7.78797265,9.08993165 C7.5957403,8.32961275 7.16917995,7.6342141 6.5955581,7.02724375 C6.72724375,6.50473805 6.93949885,6.0610934 7.1869476,5.68797265 C7.98266515,4.48763098 9.14015945,4.01883827 9.14015945,4.01883827 C9.14015945,4.01883827 8.7342369,4.56403189 8.3801139,5.38612755 C8.10656035,6.02111615 7.86430525,6.8212073 7.86430525,7.66298405 C7.86430525,8.11462415 7.92669705,8.5170615 8.0143736,8.86059225 C8.2234852,9.68036445 8.57774485,10.1621412 8.57774485,10.1621412 C8.57774485,10.1621412 8.29332575,9.4606606 8.29332575,8.6031663 C8.29332575,6.89275625 9.12615035,5.74189065 10.019795,5.0414351 C10.6484283,4.54824602 11.3074032,4.27810934 11.7271299,4.19316628 L11.7429157,4.02539864 C10.8384054,3.47883827 10.6286105,2.79676538 10.6286105,2.79676538 L5.3253075,3.98371299 C5.3253075,3.98371299 4.70665148,4.63004556 4.45715262,5.4632802 C3.41111618,4.92984055 2.26264237,4.59854214 1.22104784,4.52671982 L10.8757859,2.36630979 L11.0028929,2.79854214 C11.0028929,2.79854214 11.7528246,4.21339408 13.4161504,3.96963554 L13.1479954,4.59710706 L12.4056492,6.33526195 L13.0477449,6.1851253 C13.0477449,6.1851253 13.4505239,5.21330295 14.3985649,4.49794988 C14.9175854,4.10637813 15.5996583,3.79175399 16.4687016,3.75505695 C16.8734624,2.95961276 16.5629385,2.24501139 16.5629385,2.24501139 C16.5629385,2.24501139 15.7540319,1.73460137 14.7767426,1.49938496 L18.924738,0.5790205 L23.1394988,2.28287016 L23.8918906,2.98708428 L24.9875399,3.51861048 L25.1617312,4.42414578 L25.3459681,4.70692483 L25.0837585,5.1530296 L25.5410023,4.95205011 L25.6587471,5.0874943 L25.3195216,5.6018679 L25.8611617,5.322369 L26.0145786,5.4968337 L25.7650798,5.8705695 L26.1662187,5.6576993 L26.586082,6.00601365 C26.586082,6.00601365 25.4640546,6.5164237 24.2398633,5.59127565 C24.2398633,5.59127565 23.8220501,5.89394075 23.2754897,5.89394075 C22.1459454,5.89394075 21.7361275,4.89854214 21.7361275,4.89854214 L21.533713,6.09047835 L20.2288838,7.5257631 C20.6635079,7.1554442 21.047631,6.85264235 21.4914123,6.63102505 C22.0355808,6.35931665 22.6699544,6.21027335 23.5987927,6.21027335 C23.5987927,6.21027335 24.4515717,6.68050115 25.571959,6.51963555 C25.9510934,6.46517085 26.3610478,6.3384738 26.7790661,6.09669705 L28.2729157,6.79981775 C27.8354897,7.59307515 26.8578587,6.9742141 26.8578587,6.9742141 L26.0326879,7.26505695 C28.1734852,7.3713895 28.7835308,8.6503189 28.7835308,8.6503189 L28.7835308,8.6503189 L28.7835308,8.6503189 Z" id="path292" fill="#002D62"></path>
                                <path d="M24.1700228,4.79166287 C24.1542369,4.42045558 24.2143736,3.73612756 22.8352619,3.30990888 L21.1891572,2.80148064 C21.1891572,2.80148064 22.4613895,3.9390205 22.4613895,4.19719818 C22.4613895,4.64774487 22.8264464,5.01321185 23.2774716,5.01321185 C23.4362187,5.01321185 23.5847152,4.96769931 23.7097722,4.88924829 L23.7397722,5.22287015 C24.317631,5.26797265 24.989795,5.177836 25.1614579,4.42421412 C24.9255581,4.96886105 24.4025057,4.89375854 24.1700228,4.79166287 M23.3898861,4.76138952 C23.0809339,4.76138952 22.7842824,4.50840546 22.7842824,4.15496583 C22.7842824,3.80186788 23.0706833,3.64154897 23.0706833,3.64154897 C23.0706833,3.64154897 23.2348975,3.73947608 23.3990433,3.97154897 C23.2679727,4.00571754 23.1762642,4.12667426 23.1762642,4.26034169 C23.1762642,4.41765376 23.2908656,4.56020501 23.4764009,4.56020501 C23.5471982,4.56020501 23.6067881,4.53389521 23.6487471,4.50738041 C23.6637813,4.56259681 23.6771754,4.62006833 23.6883143,4.68075171 C23.6883827,4.68068337 23.5614807,4.76138952 23.3898861,4.76138952" id="path294" fill="#002D62"></path>
                                <path d="M24.5205239,4.68621868 L24.7255353,3.89384966 L23.1159226,3.1242369 C24.1658542,3.74241458 24.5205239,4.0866287 24.5205239,4.68621868" id="path296" fill="#002D62"></path>
                                <path d="M19.5916401,1.30366742 L18.8808656,0.955148065 L16.5964237,1.4617312 C16.5964237,1.4617312 17.0687016,2.00166287 17.0687016,2.92339408 C17.0687016,3.45765376 16.8578815,3.96888382 16.5047153,4.43555809 C15.7236902,5.46724375 14.2452847,6.28298405 12.7985193,6.6587016 C12.5007745,6.7357859 12.2950797,6.85366745 12.1537585,7.02232345 C12.0946469,7.0927107 12.0458542,7.17102505 12.0082688,7.2605467 L11.4081321,8.66275625 C9.6009567,9.43243735 9.30854215,11.0494989 9.45061505,11.9640546 C9.4983827,10.6461048 10.8570615,8.76833715 13.1010479,9.17275625 C13.1010479,9.17275625 13.4194305,8.5356492 14.1261048,8.0089066 C13.955262,7.6214351 13.9240319,7.17061505 14.0367198,6.6871982 C14.0455353,7.1589977 14.1649202,7.55460135 14.3598177,7.85166285 C14.5600455,7.72790435 14.771754,7.6225968 14.9939864,7.53908885 C14.9294761,7.05615035 15.0581549,6.55202735 15.3698405,6.0767426 C15.1936674,6.58851935 15.1808884,7.05929385 15.2965832,7.4416401 C15.5184054,7.38041 15.7482915,7.3393394 15.9835763,7.3210934 C16.0515718,6.74712985 16.3748064,6.2291344 16.9103644,5.82539865 C16.505877,6.3274032 16.3254669,6.85025055 16.345148,7.31029615 C16.6825284,7.3180182 17.0078816,7.37015945 17.3159453,7.46350795 L18.1426879,6.55428245 L18.8436219,5.78364465 C18.8436219,5.78364465 18.2495672,5.3210023 18.0108656,4.47464693 C17.9514807,4.26252847 17.9129385,4.02765376 17.9129385,3.76879271 C17.9128701,1.9489066 19.5916401,1.30366742 19.5916401,1.30366742" id="path302" fill="#002D62"></path>
                            </g>
                        </g>
                    </g>
                </g>
            </g>
        </g>
    </g>
</svg>