<?xml version="1.0" encoding="UTF-8" standalone="no"?>
<svg width="60px" height="60px" viewBox="0 0 60 60" version="1.1" xmlns="http://www.w3.org/2000/svg" xmlns:xlink="http://www.w3.org/1999/xlink">
    <!-- Generator: Sketch 40.3 (33839) - http://www.bohemiancoding.com/sketch -->
    <title>Artboard</title>
    <desc>Created with Sketch.</desc>
    <defs></defs>
    <g id="Page-1" stroke="none" stroke-width="1" fill="none" fill-rule="evenodd">
        <g id="Artboard">
            <g id="predators" transform="translate(0.000000, 12.574032)">
                <g id="g236" transform="translate(3.143357, 1.913302)" fill="#FFFFFF">
                    <path d="M15.9569932,6.94414579 C15.9569932,6.94414579 13.6413212,7.88214123 12.0501595,10.2825513 C12.7720729,10.0860137 13.5699772,9.88182232 14.4370387,9.67831435 C15.1450114,8.03480638 15.9569932,6.94414579 15.9569932,6.94414579" id="path244"></path>
                    <path d="M48.8203189,11.945877 C50.262779,12.3414123 51.3921185,12.8546241 51.3921185,12.8546241 C51.3921185,12.8546241 53.3482005,14.0923462 54.2222323,12.5059681 L51.234533,11.09959 C50.3989066,11.5836902 49.5789977,11.8370843 48.8203189,11.945877" id="path246"></path>
                    <path d="M8.32715262,6.87389522 L18.9340319,4.5005467 C18.9340319,4.5005467 19.3534852,5.86400911 21.1626424,6.95781321 L21.1310706,7.29321185 C20.2912073,7.46296128 18.9735308,8.00323462 17.7164009,8.98920273 C19.6105695,8.63630979 21.7123462,8.32182232 23.9728018,8.10123007 L24.509385,6.84601367 C21.1823235,7.33407745 19.6824601,4.50382688 19.6824601,4.50382688 L19.427836,3.63936219 L0.118633257,7.95949886 C2.20182232,8.10382688 4.49876993,8.76642369 6.59084282,9.83330296 C7.08997722,8.16656036 8.32715262,6.87389522 8.32715262,6.87389522" id="path248"></path>
                    <path d="M40.6592255,12.168656 C39.7717995,12.611754 39.0032802,13.2174943 38.1341686,13.9581321 L39.1366743,12.0743508 C39.1366743,12.0743508 36.4924374,11.9673349 33.9612301,12.0153075 L32.3081549,13.8334852 C31.691754,13.6467882 31.0409112,13.5422323 30.3661503,13.5269248 C30.3273349,12.6073804 30.6880182,11.5608656 31.4969932,10.5568565 C30.426287,11.3646014 29.7787244,12.4004556 29.6436902,13.5483827 C29.172574,13.5848747 28.7130752,13.6670159 28.2694305,13.7898861 C28.037631,13.0250569 28.0633257,12.0836446 28.416492,11.0599544 C27.7927107,12.0109339 27.5353531,13.0186333 27.6643736,13.9847836 C27.2205923,14.1517995 26.7966287,14.3624146 26.3964465,14.6099317 C26.0063781,14.0162187 25.7676082,13.224738 25.7497039,12.2807289 C25.5244647,13.2476993 25.5870615,14.1494761 25.9286105,14.9249658 C24.5155353,15.9779043 23.8786333,17.2519818 23.8786333,17.2519818 C19.3905239,16.4431435 16.6734396,20.1986788 16.5779043,22.8341686 C16.2932118,21.005467 16.8783144,17.771344 20.4930752,16.2319818 L21.6928018,13.427836 C21.7679727,13.2490661 21.8658314,13.0920273 21.9837813,12.9512528 C17.952574,13.7033713 15.4533485,15.30041 15.4533485,15.30041 C15.4533485,15.30041 14.3674715,17.244328 14.8318907,19.2310251 C14.8318907,19.2310251 14.1233713,18.2674715 13.7050114,16.6272437 C13.5211845,16.8009567 13.368246,16.9594989 13.2522096,17.0863326 C13.3994077,17.6676082 13.4782688,18.2678815 13.4782688,18.8845558 C13.4782688,21.8225057 12.2501139,23.6719818 12.2501139,23.6719818 L16.3614123,24.5062415 C16.3614123,24.5062415 17.9162187,26.7683371 21.2540774,26.7683371 C22.3098861,26.7683371 23.6978132,26.6514806 23.6978132,25.9780866 C23.6978132,25.4695216 22.4480638,24.7787699 22.4480638,23.3054214 C22.4480638,20.9130752 25.4529841,18.4306606 28.6772665,17.3680182 C32.4452392,16.1270159 38.2004556,14.681139 41.0963098,14.681139 C49.308656,14.681139 49.038041,20.1027335 49.038041,20.1027335 L49.4361731,20.0844191 C51.2641913,19.0569021 52.8824146,18.8614579 53.3546241,18.8255125 C54.1461048,15.8794989 52.643508,13.2226879 40.6592255,12.168656" id="path250"></path>
                    <path d="M30.6144875,6.41699317 C28.8761276,6.48984055 27.5119818,7.11908884 26.4739408,7.90250569 C27.8343964,7.81954442 29.2420046,7.77471526 30.6852847,7.77785877 C31.3923007,6.84396355 31.8132574,5.82232346 31.8132574,4.7532574 C31.8132574,2.90993166 30.869385,1.82993166 30.869385,1.82993166 L35.4386788,0.81690205 L36.8598178,1.5138041 C36.8598178,1.5138041 33.5021412,2.80441913 33.5021412,6.443918 C33.5021412,6.96164009 33.5784055,7.43138952 33.6984055,7.85589977 C36.1143964,7.97712984 38.6112984,8.24364465 41.148656,8.70328018 C41.148656,8.70328018 41.9682916,10.6944875 44.2273804,10.6944875 C45.3209112,10.6944875 46.1561276,10.0887472 46.1561276,10.0887472 C48.6049203,11.93959 50.8482916,10.9182232 50.8482916,10.9182232 L50.0088383,10.2213212 L49.2065604,10.6478815 L49.7052847,9.9 L49.3987244,9.55148064 L48.3154442,10.1103417 L48.9938952,9.08186788 L48.7584055,8.81056948 L47.844328,9.2129385 L48.3683371,8.32072893 L47.9998633,7.75489749 C47.6561276,9.26241458 46.3115262,9.44255125 45.156082,9.35220957 L45.096082,8.68537585 C44.8459681,8.84200456 44.5489749,8.93316629 44.2314806,8.93316629 C43.3292938,8.93316629 42.5989066,8.20209567 42.5989066,7.3014123 C42.5989066,6.78546697 40.055672,4.50997722 40.055672,4.50997722 L43.3470615,5.52683371 C46.1056948,6.37927107 45.9850114,7.74751708 46.0165831,8.48965831 C46.4810023,8.69453303 47.5272437,8.84432802 48,7.75503417 L47.6518907,5.94328018 L45.4605923,4.88050114 L43.9558087,3.47248292 L35.5265604,0.0649202733 L27.2296128,1.90537585 C29.1848747,2.37580866 30.8026879,3.39649203 30.8026879,3.39649203 C30.8026879,3.39649203 31.4237358,4.82555809 30.6144875,6.41699317 L30.6144875,6.41699317 Z M47.1276082,6.69403189 L46.7179954,8.27904328 C46.7179954,7.07931663 46.008246,6.39102506 43.9079727,5.15535308 L47.1276082,6.69403189 L47.1276082,6.69403189 Z" id="path252"></path>
                    <path d="M7.7118451,10.4557175 C8.11667426,10.7000911 8.50906606,10.9605923 8.88710706,11.2350342 C9.23138952,11.1203645 9.63813212,10.9888838 10.1020046,10.8466059 C10.8157175,8.11749431 12.2774487,6.30724374 12.2774487,6.30724374 C9.24724374,7.43972665 7.96264237,9.91298405 7.7118451,10.4557175" id="path254"></path>
                    <path d="M20.2810934,4.22747153 C20.2810934,4.22747153 21.492164,6.28892938 23.6510706,6.28892938 L25.8933485,6.1343508 L27.7353075,4.2095672 L30.2503872,3.82236902 C29.3182688,3.25776765 28.2669704,2.85075171 27.1944875,2.56154897 L25.091754,5.49840547 L26.4281549,2.37485194 C26.0375399,2.2895672 25.6478815,2.21794989 25.2625968,2.15849658 L23.4505695,4.68369021 L24.5722551,2.06350797 C24.0993622,2.00583144 23.6390433,1.96469248 23.1990888,1.93708428 L21.8130752,3.86979499 L22.6514351,1.90851936 C20.6943964,1.82637813 19.2651936,1.9847836 19.2651936,1.9847836 L19.7471071,2.40041002 L20.2810934,4.22747153 L20.2810934,4.22747153 Z" id="path256"></path>
                    <path d="M23.1144875,23.58 C23.3792255,24.7768565 24.1790433,25.1141686 24.2557175,25.5615034 C24.2557175,25.5615034 26.333713,25.1338497 27.713713,23.0804556 C25.0261503,24.4328474 23.1144875,23.58 23.1144875,23.58" id="path258"></path>
                </g>
                <g id="g260" transform="translate(0.136523, 0.136537)">
                    <path d="M50.441139,20.3986333 C50.441139,19.2270615 48.5020046,18.1035991 47.5882005,18.1035991 C43.8246014,18.1035991 43.8758542,26.0989066 30.6068337,32.8724829 C41.9078815,31.2399089 50.441139,23.5529385 50.441139,20.3986333" id="path268" fill="#FFFFFF"></path>
                    <path d="M58.163508,13.6070159 C58.0938041,13.4382232 57.9656036,13.3014123 57.8013212,13.2221412 L54.6558998,11.7030068 L53.6855125,10.9571754 L52.2729841,9.20473804 L51.8073349,7.11553531 C51.761959,6.91161731 51.6329385,6.73708428 51.4519818,6.63430524 L49.2412756,5.37826879 L47.850615,3.98186788 C47.7852847,3.91571754 47.7076538,3.86255125 47.6218223,3.8256492 L38.9669248,0.0613667426 C38.8282005,0.00123006834 38.675672,-0.0148974943 38.5283371,0.0140774487 L26.7333485,2.37020501 C23.5220501,2.11940774 20.7079271,2.52218679 20.5887472,2.5391344 C19.8653303,2.65940774 19.8613667,3.44118451 20.1131207,3.6923918 L2.45917995,7.21940774 C2.28300683,7.25412301 2.12569476,7.3529385 2.01676538,7.49562642 L0.148701595,9.95166287 C-0.183143508,10.3884738 0.0669703872,11.0548975 0.641002278,11.1300683 C0.770569476,11.1470159 13.5397722,12.8952164 13.5397722,20.6402733 C13.5397722,23.4923918 11.5820501,26.297221 11.561959,26.3255125 C11.2789066,26.7263781 11.4508428,27.3720273 12.0333485,27.4769932 L19.2457859,28.7793622 C19.7919362,29.2156264 21.6274715,30.5050114 24.2984966,30.5050114 C27.4607289,30.5050114 28.3559453,29.3089749 28.5612301,28.3290205 C30.1288838,27.6616401 32.0998633,26.0801822 32.0998633,24.8051481 C32.0998633,24.0102506 31.3847836,23.4770843 30.7174032,23.4770843 C30.641139,23.4770843 30.5729385,23.5045558 30.5003645,23.5163098 C30.5003645,23.5163098 30.1634624,22.8934852 29.3490205,22.8934852 C29.0009112,22.8934852 28.6223235,23.0684282 28.3273804,23.1938952 C29.0502506,22.3629157 30.2451936,21.3728474 32.1563098,20.7399089 C35.1036902,19.7622779 38.946697,18.9343052 40.8710706,18.5464237 C37.9456948,27.0487927 27.9262415,31.5151708 27.8204556,31.5605467 C27.2242825,31.8200911 27.3322551,32.5756264 27.5775854,32.7321185 L26.4818679,33.222779 C25.7026879,33.5661048 26.034533,34.7006378 26.8420046,34.631754 C37.4162187,33.7332574 45.1933941,30.0312984 50.6089749,23.33918 L52.7872893,23.33918 C52.914123,23.33918 53.0368565,23.3067882 53.1472893,23.2463781 C55.2777677,22.0563554 56.7090205,22.104738 56.7225513,22.1051481 C57.0158542,22.1186788 57.294533,21.9574032 57.4235535,21.6948519 C58.4793622,19.548246 59.6163554,18.4107062 59.627426,18.4004556 C59.784328,18.2427335 59.9361731,17.9468337 59.7932118,17.5954442 L58.163508,13.6070159 L58.163508,13.6070159 Z M56.7620501,21.3692938 C56.7620501,21.3692938 55.1721185,21.2718451 52.7872893,22.6014123 L50.7908884,22.6014123 L50.4232346,22.4026879 C45.0284282,29.3632346 37.3415945,32.9989066 26.7795444,33.8975399 C26.7795444,33.8975399 30.3631435,32.3192255 32.3051481,31.2944419 L28.1145786,32.2379043 C28.1145786,32.2379043 39.4705695,27.311754 41.9523007,17.5831435 C41.9523007,17.5831435 36.0937585,18.6586333 31.9241002,20.03959 C27.7973576,21.4061959 26.6723918,24.4031891 26.6723918,24.4031891 C28.1423235,24.2667882 28.9008656,23.6316629 29.3491572,23.6316629 C29.8834169,23.6316629 30.0854214,24.1838269 29.9449203,24.4970843 C30.191344,24.3917084 30.4938041,24.2147153 30.7175399,24.2147153 C30.9874715,24.2147153 31.3626424,24.444328 31.3626424,24.8050114 C31.3626424,25.7037813 29.3592711,27.329385 27.8794989,27.8070615 C27.8794989,28.3562187 27.6632802,29.7672437 24.2986333,29.7672437 C21.4060592,29.7672437 19.565467,28.086287 19.565467,28.086287 L12.1640091,26.7508428 C12.1640091,26.7508428 14.2768565,23.7732574 14.2768565,20.6402733 C14.2768565,12.1451481 0.735580866,10.398041 0.735580866,10.398041 L2.60364465,7.94241458 L21.6959453,4.12865604 L20.6963098,3.26870159 C20.6963098,3.26870159 23.573713,2.84624146 26.7854214,3.11179954 L38.6728018,0.737357631 L47.3293394,4.50191344 L48.7894305,5.96979499 L51.0878815,7.27489749 L51.5894761,9.53330296 L53.166287,11.4884282 L54.2655581,12.3341686 L57.4806834,13.8865148 L59.1102506,17.8748064 C59.1102506,17.8748064 57.8950797,19.0642825 56.7620501,21.3692938 L56.7620501,21.3692938 Z" id="path270" fill="#FDBB30"></path>
                </g>
                <g id="g272" transform="translate(0.819894, 0.819908)">
                    <path d="M53.7157175,13.9482916 C53.7157175,13.9482916 52.5862415,13.434533 51.143918,13.0396811 C48.9032802,13.3608656 47.1978588,12.42041 47.1978588,12.42041 C45.3399089,12.42041 44.0719818,12.7189066 42.9828246,13.2619134 C54.9671071,14.3159453 56.4697039,16.9724829 55.6779499,19.9187699 C55.7681549,19.9117995 55.8166743,19.9102961 55.8166743,19.9102961 C55.8166743,19.9102961 56.6270159,18.3977221 57.5673349,17.3009112 C57.5673349,17.3009112 56.3472437,14.7426424 52.0655125,14.5298405 L53.7157175,13.9482916 L53.7157175,13.9482916 Z" id="path280" fill="#FDBB30"></path>
                    <path d="M16.7606378,10.7721185 C15.8935763,10.9756264 15.095672,11.1794077 14.3737585,11.3759453 C13.8789977,12.1220501 13.4547608,13.0100228 13.1915262,14.0543508 C14.3387699,15.2682916 15.1918907,16.6597722 15.5763554,18.1806834 C15.6923918,18.0530296 15.8453303,17.8946241 16.0291572,17.7209112 C15.8535308,17.033713 15.7284738,16.2296583 15.7284738,15.3261048 C15.7283371,13.6428246 16.2133941,12.0418223 16.7606378,10.7721185" id="path282" fill="#FDBB30"></path>
                    <path d="M43.4718451,9.79667426 C40.9344875,9.33635535 38.4378588,9.06984055 36.0214579,8.94929385 C36.4985877,10.6418679 37.6869704,11.5666059 37.6869704,11.5666059 L36.2846925,13.1089749 C38.8161731,13.0607289 41.4597267,13.1678815 41.4597267,13.1678815 L40.457631,15.0513895 L43.0670159,12.1810934 L43.4718451,9.79667426 L43.4718451,9.79667426 Z" id="path284" fill="#FDBB30"></path>
                    <path d="M26.0957631,12.3701139 L24.8115718,12.6703872 L26.2966743,9.19448747 C24.0358087,9.41494305 21.9340319,9.7295672 20.04,10.0828702 C18.252574,11.4840547 16.5865148,13.7860592 16.5865148,17.2060592 C16.5865148,18.9206378 17.1557631,20.3242825 17.1557631,20.3242825 C16.691344,18.3375854 17.777221,16.3936674 17.777221,16.3936674 C17.777221,16.3936674 20.2765831,14.7971754 24.3077904,14.0450569 C24.5901595,13.7078815 25.0018223,13.4718451 25.5973121,13.3172665 C28.4908428,12.5659681 31.4476538,10.9343508 33.0094305,8.8709795 C31.5657403,8.86810934 30.1579954,8.9123918 28.7976765,8.99535308 C26.9015945,10.4264692 26.0957631,12.3701139 26.0957631,12.3701139" id="path286" fill="#FDBB30"></path>
                    <path d="M12.1824601,13.0951708 C12.2460137,12.6947153 12.329385,12.3088838 12.425467,11.93959 C11.9614579,12.0826879 11.5551253,12.2137585 11.2111162,12.3284282 C11.5471982,12.5728018 11.8717995,12.8279727 12.1824601,13.0951708" id="path288" fill="#FDBB30"></path>
                    <path d="M46.7797722,9.52277904 C47.1229613,9.52277904 47.3766287,9.36136674 47.3766287,9.36136674 C47.3543508,9.24013667 47.3275626,9.12505695 47.2974943,9.01462415 C47.2135763,9.06765376 47.0943964,9.12027335 46.9528018,9.12027335 C46.5817312,9.12027335 46.3525285,8.83517084 46.3525285,8.5205467 C46.3525285,8.25321185 46.5359453,8.01129841 46.7980866,7.94296128 C46.4699317,7.47881549 46.1413667,7.28296128 46.1413667,7.28296128 C46.1413667,7.28296128 45.5685649,7.60359909 45.5685649,8.30979499 C45.5685649,9.01681093 46.1618679,9.52277904 46.7797722,9.52277904" id="path290" fill="#FDBB30"></path>
                    <path d="M53.5825968,11.6507973 L52.4829157,10.8050569 L50.9061048,8.85020501 L50.4041002,6.59193622 L48.1057859,5.28642369 L46.6459681,3.81854214 L37.9898405,0.0539863326 L26.1016401,2.42829157 C22.890615,2.16287016 20.0132118,2.58601367 20.0132118,2.58601367 L21.0124374,3.44514806 L1.92013667,7.25835991 L0.0523462415,9.71494305 C0.0523462415,9.71494305 13.5936219,11.4623235 13.5936219,19.9570387 C13.5936219,23.0900228 11.4803645,26.0676082 11.4803645,26.0676082 L18.881549,27.4030524 C18.881549,27.4030524 20.7226879,29.0834624 23.6147153,29.0834624 C26.9794989,29.0834624 27.1957175,27.6732574 27.1957175,27.1238269 C28.6754897,26.645877 30.6794077,25.02082 30.6794077,24.1213667 C30.6794077,23.7609567 30.3039636,23.5314806 30.0340319,23.5314806 C29.8102961,23.5314806 29.507426,23.7082005 29.2612756,23.814533 C29.4019134,23.5005923 29.2001822,22.9484282 28.6655125,22.9484282 C28.2174943,22.9484282 27.4590888,23.5834169 25.9887472,23.7202278 C25.9887472,23.7202278 27.1139863,20.7232346 31.2405923,19.3562187 C35.4106606,17.9748519 41.2683827,16.8999089 41.2683827,16.8999089 C38.7870615,26.6279727 27.4312073,31.554533 27.4312073,31.554533 L31.6219134,30.6106606 C29.6792255,31.6364009 26.0956264,33.2137585 26.0956264,33.2137585 C36.6579499,32.3151253 44.3451936,28.6797267 49.74,21.71918 L50.106697,21.9174943 L52.1037813,21.9174943 C54.4882005,20.5882005 56.0789522,20.6857859 56.0789522,20.6857859 C57.2115718,18.3807745 58.4264692,17.1912984 58.4264692,17.1912984 L56.7973121,13.2027335 L53.5825968,11.6507973 L53.5825968,11.6507973 Z M24.9751708,3.00150342 L24.1364009,4.96318907 L25.5222779,3.03047836 C25.9625057,3.05808656 26.4230979,3.09867882 26.8955809,3.15621868 L25.7736219,5.77708428 L27.5856492,3.25120729 C27.9716173,3.31134396 28.3605923,3.38309795 28.7516173,3.46783599 L27.4152164,6.59179954 L29.5179499,3.65480638 C30.5901595,3.94373576 31.6418679,4.35075171 32.5746697,4.9157631 L30.0584966,5.3028246 L28.2169476,7.22719818 L25.974533,7.38246014 C23.8157631,7.38246014 22.6044191,5.3208656 22.6044191,5.3208656 L22.0709795,3.49312073 L21.5893394,3.07817768 C21.5892027,3.07817768 23.0177221,2.91977221 24.9751708,3.00150342 L24.9751708,3.00150342 Z M12.1821868,13.0951708 C11.8716629,12.828246 11.5469248,12.5729385 11.2108428,12.3284282 C10.8323918,12.0539863 10.43959,11.7937585 10.0353075,11.5489749 C10.2865148,11.0062415 11.5712528,8.53298405 14.6006378,7.40050114 C14.6006378,7.40050114 13.1389066,9.21075171 12.425467,11.9398633 C12.3291116,12.3088838 12.2460137,12.6944419 12.1821868,13.0951708 L12.1821868,13.0951708 Z M30.0369021,24.1738497 C28.6566287,26.2272437 26.5789066,26.6546241 26.5789066,26.6546241 C26.5020957,26.2071526 25.7024146,25.8702506 25.4379499,24.6733941 C25.4379499,24.6733941 27.3494761,25.5262415 30.0369021,24.1738497 L30.0369021,24.1738497 Z M29.9230524,32.1889749 C43.1923462,25.4153986 43.1406834,17.4194077 46.9048292,17.4194077 C47.8183599,17.4194077 49.7577677,18.5443736 49.7577677,19.7148519 C49.7577677,22.8695672 41.2247836,30.5565376 29.9230524,32.1889749 L29.9230524,32.1889749 Z M57.5670615,17.3006378 C56.6267426,18.3978588 55.8168109,19.9107062 55.8168109,19.9107062 C55.8168109,19.9107062 55.7680182,19.9117995 55.6780866,19.9187699 C55.206287,19.9553986 53.5879271,20.1508428 51.7596355,21.1783599 L51.3615034,21.1958542 C51.3615034,21.1958542 51.6319818,15.774533 43.4197722,15.774533 C40.524328,15.774533 34.7680182,17.2205467 31.0007289,18.4610023 C27.7763098,19.5240547 24.7715262,22.0068793 24.7715262,24.3989522 C24.7715262,25.8714806 26.0207289,26.5630524 26.0207289,27.071344 C26.0207289,27.7446014 24.6334852,27.8614579 23.5775399,27.8614579 C20.2394077,27.8614579 18.6848747,25.6001822 18.6848747,25.6001822 L14.5738497,24.7652392 C14.5738497,24.7652392 15.8020046,22.9164465 15.8020046,19.9780866 C15.8020046,19.3612756 15.7231435,18.7614123 15.5759453,18.1798633 C15.1914806,16.6592255 14.3383599,15.2684282 13.1911162,14.0544875 C13.4544875,13.0094761 13.8789977,12.1221868 14.3738952,11.3759453 C15.9653303,8.97526196 18.2803189,8.03767654 18.2803189,8.03767654 C18.2803189,8.03767654 17.4684738,9.12806378 16.7602278,10.7722551 C16.2131207,12.0422323 15.7286105,13.6424146 15.7286105,15.3259681 C15.7286105,16.2292483 15.8533941,17.034123 16.0287472,17.7211845 C16.4469704,19.3607289 17.1554897,20.3242825 17.1554897,20.3242825 C17.1554897,20.3242825 16.5866515,18.9213212 16.5866515,17.2063326 C16.5866515,13.7855125 18.2523007,11.4837813 20.03959,10.0828702 C21.2968565,9.09649203 22.6148064,8.55621868 23.4542597,8.38633257 L23.4858314,8.05079727 C21.6768109,6.95767654 21.257221,5.59353075 21.257221,5.59353075 L10.650615,7.96742597 C10.650615,7.96742597 9.41330296,9.26009112 8.91430524,10.9265604 C6.82223235,9.85968109 4.52528474,9.19708428 2.44209567,9.05343964 L21.7515718,4.73261959 L22.0057859,5.59708428 C22.0057859,5.59708428 23.5056492,8.42678815 26.8323007,7.93927107 L26.2959909,9.19421412 L24.8112984,12.6705239 L26.0954897,12.3702506 C26.0954897,12.3702506 26.9010478,10.4266059 28.7971298,8.99589977 C29.8351708,8.21275626 31.1993166,7.58350797 32.9374032,7.5101139 C33.7469248,5.91922551 33.125877,4.49002278 33.125877,4.49002278 C33.125877,4.49002278 31.5080638,3.46920273 29.5534852,2.99876993 L37.8494761,1.158041 L46.2789977,4.56574032 L47.7837813,5.97416856 L49.9750797,7.03722096 L50.3234624,8.84829157 L50.6919362,9.41384966 L50.1675171,10.3060592 L51.0820046,9.90410023 L51.3174943,10.1749886 L50.6390433,11.2037358 L51.7223235,10.644738 L52.0291572,10.9936674 L51.5301595,11.741139 L52.3324374,11.3153986 L53.172164,12.0120273 C53.172164,12.0120273 50.9281093,13.0328474 48.4797267,11.1825513 C48.4797267,11.1825513 47.6441002,11.7878815 46.5509795,11.7878815 C44.2918907,11.7878815 43.4722551,9.79708428 43.4722551,9.79708428 L43.067426,12.1809567 L40.4577677,15.0515262 C41.3270159,14.3108884 42.095262,13.7052847 42.9828246,13.2620501 C44.0711617,12.7186333 45.3399089,12.4205467 47.1975854,12.4205467 C47.1975854,12.4205467 48.9031435,13.3610023 51.143918,13.0392711 C51.9021868,12.9303417 52.7220957,12.6769476 53.5581321,12.1933941 L56.5458314,13.5996355 C55.6709795,15.1861503 53.7157175,13.9484282 53.7157175,13.9484282 L52.0653759,14.5301139 C56.3469704,14.742779 57.5670615,17.3006378 57.5670615,17.3006378 L57.5670615,17.3006378 Z" id="path292" fill="#002D62"></path>
                    <path d="M48.3400456,9.58332574 C48.3084738,8.84091116 48.4287472,7.47225513 45.6705239,6.61981777 L42.3783144,5.60296128 C42.3783144,5.60296128 44.922779,7.878041 44.922779,8.39439636 C44.922779,9.29548975 45.6528929,10.0264237 46.5549431,10.0264237 C46.8724374,10.0264237 47.1694305,9.93539863 47.4195444,9.77849658 L47.4795444,10.4457403 C48.635262,10.5359453 49.97959,10.355672 50.3229157,8.84842825 C49.8511162,9.9377221 48.8050114,9.78751708 48.3400456,9.58332574 M46.7797722,9.52277904 C46.1618679,9.52277904 45.5685649,9.01681093 45.5685649,8.30993166 C45.5685649,7.60373576 46.1413667,7.28309795 46.1413667,7.28309795 C46.1413667,7.28309795 46.469795,7.47895216 46.7980866,7.94309795 C46.5359453,8.01143508 46.3525285,8.25334852 46.3525285,8.52068337 C46.3525285,8.83530752 46.5817312,9.12041002 46.9528018,9.12041002 C47.0943964,9.12041002 47.2135763,9.06779043 47.2974943,9.01476082 C47.3275626,9.12519362 47.3543508,9.24013667 47.3766287,9.36150342 C47.3767654,9.36136674 47.1229613,9.52277904 46.7797722,9.52277904" id="path294" fill="#002D62"></path>
                    <path d="M49.0410478,9.37243736 L49.4510706,7.78769932 L46.2318451,6.2484738 C48.3317084,7.48482916 49.0410478,8.1732574 49.0410478,9.37243736" id="path296" fill="#002D62"></path>
                    <path d="M39.1832802,2.60733485 L37.7617312,1.91029613 L33.1928474,2.92346241 C33.1928474,2.92346241 34.1374032,4.00332574 34.1374032,5.84678815 C34.1374032,6.91530752 33.7157631,7.93776765 33.0094305,8.87111617 C31.4473804,10.9344875 28.4905695,12.5659681 25.5970387,13.3174032 C25.001549,13.4715718 24.5901595,13.7073349 24.3075171,14.0446469 C24.1892938,14.1854214 24.0917084,14.3420501 24.0165376,14.5210934 L22.8162642,17.3255125 C19.2019134,18.8648747 18.6170843,22.0989977 18.9012301,23.9281093 C18.9967654,21.2922096 21.714123,17.5366743 26.2020957,18.3455125 C26.2020957,18.3455125 26.838861,17.0712984 28.2522096,16.0178132 C27.9105239,15.2428702 27.8480638,14.3412301 28.0734396,13.3743964 C28.0910706,14.3179954 28.3298405,15.1092027 28.7196355,15.7033257 C29.1200911,15.4558087 29.543508,15.2451936 29.9879727,15.0781777 C29.8589522,14.1123007 30.1163098,13.1040547 30.7396811,12.1534852 C30.3873349,13.1770387 30.3617768,14.1185877 30.5931663,14.8832802 C31.0368109,14.76082 31.4965831,14.6786788 31.9671526,14.6421868 C32.1031435,13.4942597 32.7496128,12.4582688 33.8207289,11.6507973 C33.011754,12.6548064 32.6509339,13.7005011 32.6902961,14.6205923 C33.3650569,14.6360364 34.0157631,14.7403189 34.6318907,14.9270159 L36.2853759,13.1085649 L37.6872437,11.5672893 C37.6872437,11.5672893 36.4991344,10.6420046 36.0217312,8.94929385 C35.9029613,8.52505695 35.825877,8.05530752 35.825877,7.53758542 C35.8257403,3.89781321 39.1832802,2.60733485 39.1832802,2.60733485" id="path302" fill="#002D62"></path>
                </g>
            </g>
        </g>
    </g>
</svg>