<?xml version="1.0" encoding="UTF-8" standalone="no"?>
<svg width="60px" height="60px" viewBox="0 0 60 60" version="1.1" xmlns="http://www.w3.org/2000/svg" xmlns:xlink="http://www.w3.org/1999/xlink">
    <!-- Generator: Sketch 40.3 (33839) - http://www.bohemiancoding.com/sketch -->
    <title>Artboard</title>
    <desc>Created with Sketch.</desc>
    <defs>
        <polygon id="path-1" points="0 59.4759825 59.4759825 59.4759825 59.4759825 0 0 0"></polygon>
    </defs>
    <g id="Page-1" stroke="none" stroke-width="1" fill="none" fill-rule="evenodd">
        <g id="Artboard">
            <g id="rangers">
                <g id="g11" transform="translate(29.803493, 29.986638) scale(1, -1) translate(-29.803493, -29.986638) translate(0.000000, 0.183144)">
                    <g id="g13" transform="translate(0.000052, 0.130952)">
                        <g id="g15-Clipped">
                            <mask id="mask-2" fill="white">
                                <use xlink:href="#path-1"></use>
                            </mask>
                            <g id="path19"></g>
                            <g id="g15" mask="url(#mask-2)">
                                <g transform="translate(0.000000, 1.310044)">
                                    <g id="g21" stroke-width="1" fill="none" transform="translate(0.056803, 0.052716)">
                                        <path d="M55.5458515,56.5938865 L45.1068996,56.5938865 L44.2548472,56.5938865 L43.6427948,56.0006987 L42.209607,54.6117904 L40.5576419,56.1568559 L39.9508297,56.7243668 L39.7708297,56.7243668 L39.120524,56.7243668 L29.699738,56.7243668 L20.27869,56.7243668 L19.4481223,56.7243668 L18.8415721,56.1568559 L17.189607,54.6117904 L15.7564192,56.0006987 L15.1443668,56.5938865 L14.2923144,56.5938865 L3.85336245,56.5938865 L0.205152838,56.5938865 L4.66427948,48.72 L4.68262009,10.5193886 C4.68262009,10.1523144 4.72611354,9.57615721 4.89144105,8.90279476 C5.1390393,7.89563319 5.6641048,6.66471616 6.75144105,5.67930131 C7.83746725,4.6920524 9.4771179,3.98489083 11.8310044,3.98803493 L16.6788105,3.98803493 L23.4209607,3.98803493 C24.6154585,3.98777293 25.5869869,3.6780786 26.3625328,3.27432314 C27.1370306,2.87056769 27.7113537,2.37065502 28.0878603,1.99414847 C28.469083,1.61292576 28.7719651,1.25135371 28.9776419,0.987772926 C29.0803493,0.855720524 29.158952,0.748034934 29.2110917,0.67441048 C29.2370306,0.637991266 29.2564192,0.609432314 29.2692576,0.591091703 C29.2752838,0.581921397 29.28,0.57510917 29.2828821,0.570917031 C29.2855022,0.566462882 29.2860262,0.565938865 29.2860262,0.565938865 L29.639476,0.0262008734 L30.030917,0.539213974 C30.031179,0.539213974 30.0841048,0.608646288 30.1705677,0.720262009 C30.300262,0.88768559 30.5038428,1.14759825 30.7066376,1.39703057 C30.9078603,1.64489083 31.1156332,1.88882096 31.2254148,1.99755459 C31.380786,2.1539738 31.9328384,2.66148472 32.7618341,3.11895197 C33.5924017,3.57825328 34.6962445,3.98855895 35.9782533,3.98803493 L47.5684716,3.98803493 C48.7472489,3.98829694 49.7821834,4.14 50.6766812,4.42611354 C52.0168559,4.85344978 53.0418341,5.59231441 53.7178166,6.55021834 C54.3948472,7.50733624 54.7176419,8.66934498 54.7168559,9.91624454 L54.7168559,48.7627074 L57.3757205,53.4524017 L59.1571179,56.5938865 L55.5458515,56.5938865 Z" id="path23" fill="#0161AB"></path>
                                    </g>
                                    <g id="g25" stroke-width="1" fill="none" transform="translate(0.788332, 0.774524)">
                                        <path d="M39.0393013,55.5458515 L38.3892576,55.5458515 L28.9682096,55.5458515 L19.5471616,55.5458515 L18.8971179,55.5458515 L18.4220961,55.1017467 L16.4525764,53.2593013 L14.7070742,54.9508297 L14.2278603,55.4153712 L13.560786,55.4153712 L3.12183406,55.4153712 L0.257030568,55.4153712 L4.38917031,48.11869 L4.40751092,9.79781659 C4.40751092,8.47310044 5.05624454,3.7228821 11.099476,3.7228821 L22.6894323,3.7228821 C25.2390393,3.7228821 26.8834061,2.39082969 27.6791266,1.59537118 C28.4748472,0.799650655 28.9365066,0.0943231441 28.9365066,0.0943231441 C28.9365066,0.0943231441 29.8082096,1.2358952 30.1708297,1.59877729 C30.5337118,1.96139738 32.4851528,3.7228821 35.2467249,3.7228821 L46.8369432,3.7228821 C51.3958952,3.7228821 53.5289083,6.07414847 53.5289083,9.19441048 L53.5289083,48.1611354 L56.2472489,52.9558952 L57.6419214,55.4153712 L54.8143231,55.4153712 L44.3756332,55.4153712 L43.7082969,55.4153712 L43.229083,54.9508297 L41.4838428,53.2593013 L39.5143231,55.1017467 L39.0393013,55.5458515 L39.0393013,55.5458515 Z M38.3892576,53.8986026 L41.5037555,50.9848035 L44.3756332,53.7681223 L54.8143231,53.7681223 L51.8816594,48.5958079 L51.8816594,9.19441048 C51.8816594,6.62567686 49.9354585,5.370131 46.8369432,5.370131 L35.2467249,5.370131 C30.9524017,5.370131 28.9682096,2.46471616 28.9682096,2.46471616 C28.9682096,2.46471616 26.9840175,5.370131 22.6894323,5.370131 L11.099476,5.370131 C8.0009607,5.370131 6.05475983,6.62567686 6.05475983,9.19441048 L6.05475983,48.5958079 L3.12183406,53.7681223 L13.560786,53.7681223 L16.4324017,50.9848035 L19.5471616,53.8986026 L28.9682096,53.8986026 L38.3892576,53.8986026 L38.3892576,53.8986026 Z" id="path27" fill="#FFFFFF"></path>
                                    </g>
                                    <g id="g29" stroke-width="1" fill="none" transform="translate(8.077100, 4.610227)">
                                        <path d="M0,25.9388646 L0,5.77441048 C0,4.04908297 1.25318777,2.77912664 4.04646288,2.77912664 L15.0738865,2.77912664 C19.6464629,2.77912664 21.6786026,0.156419214 21.6786026,0.156419214 C21.6786026,0.156419214 23.7741485,2.77886463 27.8601747,2.77886463 L32.1699563,2.77886463 L0,25.9388646 L0,25.9388646 Z" id="path31" fill="#FFFFFF"></path>
                                    </g>
                                    <polygon id="path33" fill="#FFFFFF" points="51.4087336 40.3273362 8.07720524 40.3273362 8.07720524 39.2963319 51.4087336 39.2963319"></polygon>
                                    <g id="g35" stroke-width="1" fill="none" transform="translate(21.015721, 16.067214)">
                                        <polygon id="path37" fill="#FFFFFF" points="30.3930131 0 30.3930131 1.06061135 1.50917031 21.6510917 0.0366812227 21.6510917"></polygon>
                                    </g>
                                    <g id="g39" stroke-width="1" fill="none" transform="translate(8.077100, 7.273808)">
                                        <polygon id="path41" fill="#FFFFFF" points="0 26.4628821 0 25.4051528 35.0633188 0.115283843 36.5567686 0.115283843"></polygon>
                                    </g>
                                    <g id="g43" stroke-width="1" fill="none" transform="translate(25.469869, 19.261231)">
                                        <polygon id="path45" fill="#E3393F" points="25.9388646 0 25.9388646 18.4569432 0.0476855895 18.4569432"></polygon>
                                    </g>
                                    <g id="g47" stroke-width="1" fill="none" transform="translate(8.412157, 41.609738)">
                                        <polygon id="path49" fill="#FFFFFF" points="4.71615721 0 3.50829694 0 1.350131 5.03842795 1.350131 0 0.137292576 0 0.137292576 7.81414847 1.38262009 7.81414847 3.50331878 2.89781659 3.50331878 7.81414847 4.71615721 7.81414847"></polygon>
                                    </g>
                                    <g id="g51" stroke-width="1" fill="none" transform="translate(14.832917, 41.619354)">
                                        <polygon id="path53" fill="#FFFFFF" points="3.1441048 6.55021834 1.25161572 6.55021834 1.25161572 4.57441048 3.13545852 4.57441048 3.13545852 3.34742358 1.25161572 3.34742358 1.25161572 1.26104803 3.1441048 1.26104803 3.1441048 0.0230567686 0 0.0230567686 0 7.79921397 3.1441048 7.79921397"></polygon>
                                    </g>
                                    <g id="g55" stroke-width="1" fill="none" transform="translate(19.212236, 41.609738)">
                                        <polygon id="path57" fill="#FFFFFF" points="4.19213974 0 3.46637555 4.14 2.74873362 0 1.2809607 0 0.0133624454 7.82515284 1.20235808 7.82515284 2.0310917 2.91694323 2.83441048 7.8209607 4.08209607 7.8209607 4.91790393 2.96567686 5.69240175 7.81965066 6.94558952 7.81965066 5.63764192 0"></polygon>
                                    </g>
                                    <g id="g59" stroke-width="1" fill="none" transform="translate(29.173808, 41.631511)">
                                        <polygon id="path61" fill="#FFFFFF" points="3.1441048 0 1.86052402 0 1.86052402 3.22951965 0.181048035 7.79659389 1.44235808 7.79659389 2.5110917 4.92131004 3.55362445 7.79502183 4.83930131 7.79502183 3.1441048 3.19676856"></polygon>
                                    </g>
                                    <g id="g63" stroke-width="1" fill="none" transform="translate(34.663965, 41.614480)">
                                        <path d="M1.31004367,2.62008734 C1.31004367,2.05126638 1.30663755,1.84113537 1.39991266,1.61580786 C1.51152838,1.37947598 1.77510917,1.2568559 2.04497817,1.2568559 C2.31458515,1.2568559 2.56847162,1.38340611 2.68008734,1.61973799 C2.78227074,1.8450655 2.77965066,2.04052402 2.77965066,2.62008734 L2.77965066,5.18567686 C2.77965066,5.76524017 2.79248908,5.95048035 2.69030568,6.17580786 C2.57868996,6.41213974 2.31458515,6.5489083 2.04497817,6.5489083 C1.77510917,6.5489083 1.51755459,6.4139738 1.40593886,6.17790393 C1.31292576,5.96305677 1.31004367,5.75449782 1.31004367,5.18567686 L1.31004367,2.62008734 L1.31004367,2.62008734 Z M4.01161572,2.53283843 C4.01161572,1.46331878 4.00716157,1.23720524 3.71423581,0.805676856 C3.45694323,0.428646288 2.75004367,0.011790393 2.03659389,0.011790393 C1.34253275,0.011790393 0.710043668,0.290567686 0.384628821,0.76768559 C0.0917030568,1.19921397 0.0618340611,1.68131004 0.0618340611,2.53283843 L0.0618340611,5.2920524 C0.0618340611,6.18917031 0.0825327511,6.62882096 0.421310044,7.1279476 C0.780786026,7.65458515 1.30165939,7.81283843 2.03659389,7.81283843 C2.73117904,7.81283843 3.36157205,7.59379913 3.6869869,7.11694323 C4.07790393,6.54131004 4.01161572,6.28480349 4.01161572,5.2920524 L4.01161572,2.53283843 L4.01161572,2.53283843 Z" id="path65" fill="#FFFFFF"></path>
                                    </g>
                                    <g id="g67" stroke-width="1" fill="none" transform="translate(39.936891, 41.384961)">
                                        <path d="M1.83406114,5.24017467 C2.42855895,5.24017467 2.78882096,5.20689956 3.00497817,5.32978166 C3.23475983,5.46026201 3.25231441,5.73930131 3.25231441,6.02331878 C3.25231441,6.29973799 3.25886463,6.55834061 3.02960699,6.68882096 C2.81318777,6.81170306 2.42855895,6.79886463 1.83406114,6.79886463 L1.32078603,6.79886463 L1.32078603,5.24017467 L1.83406114,5.24017467 L1.83406114,5.24017467 Z M1.33100437,0.245240175 L0.0765065502,0.245240175 L0.0765065502,8.04576419 L2.09790393,8.04576419 C3.20672489,8.04576419 3.4920524,8.00279476 3.89371179,7.67528384 C4.36008734,7.30611354 4.49528384,6.9028821 4.49606987,6.46454148 L4.4971179,5.54305677 C4.4971179,5.15030568 4.29065502,4.69912664 4.04069869,4.4790393 C3.72812227,4.20366812 3.35633188,4.11170306 3.33117904,4.09965066 L4.70934498,0.245240175 L3.43912664,0.245240175 L2.10262009,4.09100437 L1.33100437,4.09100437 L1.33100437,0.245240175 L1.33100437,0.245240175 Z" id="path69" fill="#FFFFFF"></path>
                                    </g>
                                    <g id="g71" stroke-width="1" fill="none" transform="translate(45.977659, 41.530559)">
                                        <polygon id="path73" fill="#FFFFFF" points="1.31004367 5.24017467 2.95755459 7.89615721 4.22148472 7.89615721 2.68847162 5.39344978 5.06122271 0.100873362 3.79755459 0.100873362 1.9380786 4.23563319 1.31004367 3.26515284 1.31004367 0.100873362 0.0723144105 0.100873362 0.0723144105 7.89615721 1.31004367 7.89615721"></polygon>
                                    </g>
                                    <g id="g75" stroke-width="1" fill="none" transform="translate(37.736672, 11.496655)">
                                        <path d="M4.19213974,5.50218341 C4.67082969,5.15082969 4.93781659,4.90585153 5.19877729,4.89641921 C5.47598253,4.88646288 5.68768559,5.14532751 5.8889083,5.41912664 C6.08436681,5.68558952 6.27248908,5.9310917 6.18,6.19257642 C6.09275109,6.43860262 5.77362445,6.6539738 5.29467249,7.0050655 L4.88122271,7.30873362 L3.77868996,5.80558952 L4.19213974,5.50218341 L4.19213974,5.50218341 Z M1.03048035,2.02742358 L0.0188646288,2.76943231 L4.63336245,9.05868996 L6.26279476,7.86340611 C7.15703057,7.20733624 7.36165939,7.00375546 7.49187773,6.50200873 C7.64934498,5.92873362 7.51991266,5.52340611 7.26131004,5.16969432 L6.49624454,4.16489083 C6.26384279,3.84812227 5.83048035,3.60655022 5.49851528,3.57668122 C5.08375546,3.53973799 4.72978166,3.68541485 4.70227074,3.69065502 L3.75406114,0.0290829694 L2.730131,0.780524017 L3.6990393,4.36742358 L3.07676856,4.82384279 L1.03048035,2.02742358 L1.03048035,2.02742358 Z" id="path77" fill="#FFFFFF"></path>
                                    </g>
                                    <g id="g79" stroke-width="1" fill="none" transform="translate(18.243511, 24.709415)">
                                        <path d="M5.76419214,6.55021834 L3.32069869,4.48454148 L4.55475983,3.60917031 L5.76419214,6.55021834 L5.76419214,6.55021834 Z M2.44925764,3.81222707 L1.09729258,2.77755459 L0.0985152838,3.50672489 L6.45746725,8.58864629 L7.41956332,7.82227074 L4.60218341,0.222707424 L3.59240175,0.961834061 L4.14707424,2.54908297 L2.44925764,3.81222707 L2.44925764,3.81222707 Z" id="path81" fill="#FFFFFF"></path>
                                    </g>
                                    <g id="g83" stroke-width="1" fill="none" transform="translate(23.515022, 21.627223)">
                                        <polygon id="path85" fill="#FFFFFF" points="3.930131 0 2.94026201 0.708471616 4.11117904 6.08331878 1.17117904 1.97449782 0.176855895 2.68585153 4.7371179 9.05790393 5.75790393 8.32742358 4.62707424 3.07441048 7.49606987 7.08366812 8.490131 6.3720524"></polygon>
                                    </g>
                                    <g id="g87" stroke-width="1" fill="none" transform="translate(29.396672, 18.135930)">
                                        <path d="M0.262008734,2.88209607 C0.262008734,3.56489083 0.875371179,4.29432314 1.17379913,4.68812227 L2.41467249,6.40454148 L0.262008734,2.88209607 Z M5.34078603,3.31624454 L2.92034934,0.044279476 L2.35388646,0.451965066 L2.38218341,0.783668122 C1.94174672,0.802532751 1.75860262,0.836593886 1.12637555,1.29196507 C0.516943231,1.73056769 0.227947598,2.4958952 0.262008734,2.88209607 C0.344541485,3.67519651 0.875371179,4.29432314 1.17379913,4.68812227 L2.41467249,6.40454148 C3.27615721,7.60113537 3.44960699,7.87179039 4.17196507,8.05152838 C4.75650655,8.21030568 5.1958952,8.00724891 5.84751092,7.53825328 C6.64873362,6.96104803 6.83423581,6.43703057 6.83423581,5.93187773 C6.83423581,5.23572052 6.49179039,4.93126638 5.84358079,4.03414847 L4.83930131,4.76829694 C5.29598253,5.39868996 5.82864629,5.93161572 5.17074236,6.45877729 C4.89353712,6.68122271 4.79030568,6.75799127 4.60008734,6.75799127 C4.29694323,6.75799127 4.18427948,6.69563319 3.80620087,6.17082969 L2.2679476,4.06165939 C1.9349345,3.59895197 1.53956332,3.07860262 1.53956332,2.89834061 C1.53956332,2.54489083 1.73606987,2.4180786 2.08847162,2.16445415 C2.66541485,1.74917031 2.92375546,2.10812227 3.55545852,2.98585153 L3.7409607,3.24340611 L2.74087336,3.95292576 L3.29528384,4.76305677 L5.34078603,3.31624454 L5.34078603,3.31624454 Z" id="path89" fill="#FFFFFF"></path>
                                    </g>
                                    <g id="g91" stroke-width="1" fill="none" transform="translate(33.554017, 15.348996)">
                                        <polygon id="path93" fill="#FFFFFF" points="6.55021834 5.24017467 5.0339738 6.37231441 3.85179039 4.78925764 5.36122271 3.66235808 4.62707424 2.6790393 3.11764192 3.80593886 1.86943231 2.13432314 3.38593886 1.0019214 2.64524017 0.0102183406 0.125764192 1.89144105 4.77799127 8.12200873 7.29772926 6.24078603"></polygon>
                                    </g>
                                    <g id="g95" stroke-width="1" fill="none" transform="translate(14.002376, 28.563825)">
                                        <path d="M4.19213974,5.50218341 C4.67082969,5.1510917 4.93781659,4.90585153 5.19877729,4.89641921 C5.47598253,4.88646288 5.68768559,5.14532751 5.8889083,5.41912664 C6.08436681,5.68558952 6.27248908,5.93082969 6.18,6.19231441 C6.09275109,6.43860262 5.77362445,6.6539738 5.29467249,7.0050655 L4.88122271,7.30847162 L3.77868996,5.80558952 L4.19213974,5.50218341 L4.19213974,5.50218341 Z M1.03021834,2.02742358 L0.0188646288,2.76943231 L4.63336245,9.05868996 L6.26279476,7.8631441 C7.15703057,7.20707424 7.36165939,7.00375546 7.49187773,6.50227074 C7.64934498,5.92873362 7.51991266,5.52366812 7.26104803,5.16969432 L6.49624454,4.16462882 C6.2641048,3.84812227 5.83048035,3.60628821 5.49877729,3.57668122 C5.08375546,3.53973799 4.72978166,3.68541485 4.70227074,3.69065502 L3.75406114,0.0290829694 L2.730131,0.780262009 L3.6990393,4.36742358 L3.07703057,4.82384279 L1.03021834,2.02742358 L1.03021834,2.02742358 Z" id="path97" fill="#FFFFFF"></path>
                                    </g>
                                    <g id="g99" stroke-width="1" fill="none" transform="translate(42.552367, 8.987371)">
                                        <path d="M5.50218341,4.71615721 C6.21982533,5.39292576 6.10270742,6.06943231 5.63266376,6.37965066 C5.20165939,6.66445415 4.66349345,6.7739738 4.23825328,6.23292576 C4.07292576,6.02200873 4.00480349,5.71912664 4.06951965,5.4120524 C4.12296943,5.11231441 4.05275109,5.03449782 4.45860262,4.01475983 C4.76855895,3.1980786 4.79292576,2.7809607 4.79292576,2.36777293 C4.79292576,2.27004367 4.76724891,1.41144105 4.40960699,1.03860262 C3.43912664,0.0272489083 2.46445415,-0.133886463 1.12349345,0.948995633 C-0.907074236,2.58786026 1.09362445,4.27048035 1.18061135,4.43895197 L2.00384279,3.84366812 C1.58829694,3.20751092 0.839475983,2.35703057 2.08139738,1.66689956 C2.41991266,1.4790393 3.02515284,1.28436681 3.41475983,1.78061135 C3.66131004,2.09475983 3.7050655,2.5530131 3.26803493,3.69694323 C2.75266376,5.05283843 2.7749345,5.14716157 2.72541485,5.6250655 C2.68008734,6.08620087 2.81502183,6.53973799 3.11004367,6.91572052 C3.90157205,7.92340611 5.30724891,8.25825328 6.52978166,7.18689956 C8.04628821,5.85772926 7.04358079,4.79790393 6.51327511,3.95764192 L5.50218341,4.71615721 L5.50218341,4.71615721 Z" id="path101" fill="#FFFFFF"></path>
                                    </g>
                                </g>
                            </g>
                        </g>
                    </g>
                </g>
            </g>
        </g>
    </g>
</svg>