<?xml version="1.0" encoding="UTF-8" standalone="no"?>
<svg width="60px" height="60px" viewBox="0 0 60 60" version="1.1" xmlns="http://www.w3.org/2000/svg" xmlns:xlink="http://www.w3.org/1999/xlink">
    <!-- Generator: Sketch 40.3 (33839) - http://www.bohemiancoding.com/sketch -->
    <title>Artboard</title>
    <desc>Created with Sketch.</desc>
    <defs></defs>
    <g id="Page-1" stroke="none" stroke-width="1" fill="none" fill-rule="evenodd">
        <g id="Artboard">
            <g id="Layer_1" transform="translate(0.000000, 7.762238)">
                <path d="M55.1997902,15.011958 C53.1998601,16.7605594 50.9278322,17.887972 48.4535664,18.7084615 C46.0982517,19.4897203 43.6684615,19.8503497 41.2275524,19.7511189 C40.9197902,19.7385315 40.7202797,19.2088112 40.4062238,19.0216783 C40.1483916,18.8679021 39.770979,18.9213986 39.4353147,18.8714685 C39.3073427,18.8517483 39.2884615,18.6037762 39.3725874,18.5771329 C39.8918182,18.408042 40.4481818,18.4722378 41.0074825,18.3811888 C41.2586014,18.339021 41.2766434,18.0142657 41.4568531,17.9337063 C42.1896503,17.6070629 43.0093007,17.7226573 43.803986,17.6456643 C44.0026573,17.6278322 43.9015385,17.2724476 44.0366434,17.2116084 C44.3299301,17.0817483 44.6362238,17.3127273 44.9576224,17.3878322 C45.2358042,17.4566434 45.2374825,17.028042 45.3824476,17.0702098 C45.9507692,17.2294406 46.1886713,17.0979021 46.5931469,16.7695804 C46.6665734,16.7079021 46.8444755,16.7641259 46.9690909,16.7972727 C47.0979021,16.8304196 47.3047552,16.9072028 47.3725175,16.7408392 C47.803007,15.6759441 48.9448951,16.7007692 49.6059441,16.4928671 C49.7788112,16.4402098 49.5041958,16.1467133 49.6355245,16.059021 C50.0955944,15.7617483 50.6431469,16.1555245 51.1130769,15.9365035 C51.292028,15.8515385 51.1204196,15.5857343 51.2194406,15.4755944 C51.3717483,15.3037762 51.6392308,15.5347552 51.8332867,15.4416084 C51.9793007,15.3717483 52.2218182,15.2930769 52.3338462,15.2876224 C52.8725874,15.2723077 53.2466434,15.0201399 53.7734266,14.9334965 C53.8586014,14.9209091 53.9112587,14.7776224 53.9970629,14.7581119 C54.4078322,14.6605594 55.1502797,14.7948252 55.1997902,14.8233566 C55.2595804,14.8598601 55.3223077,14.9045455 55.1997902,15.011958 L55.1997902,15.011958 Z M51.6732168,19.4379021 C51.9318881,19.4987413 52.4156643,19.599021 52.3355245,19.6651049 C48.2521678,23.0135664 42.9744755,23.6555245 38.0679021,23.7046154 C37.5881119,23.0628671 36.7793706,22.7861538 36.0742657,22.3892308 C36.0320979,22.3667832 36.033986,22.1725175 36.0742657,22.1517483 C36.6495105,21.8681119 37.2912587,21.9801399 37.921049,21.8825874 C38.1537063,21.8477622 38.22,21.5030769 38.4365035,21.4378322 C39.1674126,21.213986 39.8792308,20.9330769 40.6523077,20.9643357 C41.300979,20.9922378 41.9345455,21.0467832 42.5851049,21.0163636 C42.7802098,21.0067133 42.6971329,20.6162937 42.8804895,20.5814685 C43.6063636,20.4499301 44.2900699,20.7373427 45.020979,20.5888112 C45.1676224,20.5600699 45.2026573,20.2684615 45.2634965,20.2424476 C46.057972,19.9220979 46.9841958,20.1933566 47.8252448,19.9034266 C47.7383916,19.8264336 47.608951,19.711049 47.6985315,19.6403497 C47.8397203,19.5304196 48.0893706,19.5866434 48.2483916,19.6036364 C48.5815385,19.6384615 48.9627273,19.6804196 49.2874825,19.4416783 C49.5058741,19.2805594 49.8539161,19.5203497 50.1060839,19.4362238 C50.3754545,19.3485315 50.6272028,19.1890909 50.902028,19.2786713 C51.2097902,19.3797902 51.4191608,19.3797902 51.6732168,19.4379021 L51.6732168,19.4379021 Z M41.011049,26.366014 C38.2271329,26.8875524 35.6068531,26.8168531 32.9248951,26.1333566 C32.7881119,26.0966434 33.1558741,25.8253846 33.350979,25.7555245 C33.99,25.5302098 34.6888112,25.4844755 35.330979,25.2534965 C35.4654545,25.2037762 35.5718182,24.9983916 35.6737762,24.8955944 C35.9362238,24.6281119 36.3887413,24.543986 36.731958,24.440979 C37.7823776,24.1277622 38.8871329,24.4827273 40.0051049,24.6465734 C40.447972,24.7122378 40.8677622,24.7602797 41.3081119,24.8901399 C41.3626573,24.9069231 41.5495804,24.8334965 41.5682517,24.7067832 C41.5900699,24.5618182 41.5934266,24.380979 41.7276923,24.3774126 C42.0811888,24.3694406 42.4678322,24.5108392 42.7892308,24.3864336 C43.2016783,24.2253147 43.6554545,24.3371329 44.0937063,24.2744056 C44.2093007,24.2576224 44.1216084,24.091049 44.2386713,24.0633566 C44.6853147,23.9597203 45.1533566,24.1663636 45.5557343,23.9792308 C45.8618182,23.836993 46.5438462,24.2557343 46.6762238,24.4231469 C44.9223776,25.4093706 43.0514685,25.9846154 41.011049,26.366014 L41.011049,26.366014 Z M41.0058042,28.7148252 C39.2303497,29.2632168 37.4362238,29.2554545 35.6284615,29.2569231 C33.7852448,29.2615385 32.0622378,28.7165035 30.2513287,28.2182517 C30.1437063,28.1895105 30.1598601,28.0481119 30.1892308,28.0296503 C30.4437063,27.8872028 30.7651049,27.9677622 31.0340559,27.8540559 C31.179021,27.7951049 31.2094406,27.6008392 31.3363636,27.5238462 C31.5029371,27.421049 31.8753147,27.4344755 32.0343357,27.3386014 C32.266993,27.1999301 32.3351748,27.0325175 32.5644755,26.8955245 C32.7772028,26.7688112 33.0383916,26.9781818 33.3444755,26.9118881 C33.9627273,26.7822378 34.4095804,27.3297902 34.9865035,27.4978322 C35.2174825,27.5641259 35.4213986,27.361049 35.6244755,27.3941958 C35.8573427,27.4309091 36.0371329,27.6446853 36.2769231,27.7143357 C36.4638462,27.7690909 36.6,27.7753846 36.7923776,27.6813986 C37.0632168,27.5498601 37.3309091,27.9157343 37.6334266,27.8444056 C37.7353846,27.8211189 37.7339161,27.6060839 37.8555944,27.5953846 C38.3441958,27.5567832 38.6653846,28.0730769 39.1432867,28.0659441 C39.1932168,28.0640559 39.2337063,27.9694406 39.2916084,27.9451049 C39.5467133,27.8483916 39.7829371,28.0716084 40.089021,27.982028 C40.4668531,27.8702098 40.8113287,28.1653846 41.0603497,28.4561538 C41.1765734,28.5885315 41.1472028,28.6728671 41.0058042,28.7148252 L41.0058042,28.7148252 Z M35.4098601,31.2973427 C35.5793706,31.4253147 35.6670629,31.6384615 35.6104196,31.6565035 C34.5,31.9846154 32.6762937,31.7976923 31.3260839,31.6768531 C30.125035,31.5686014 28.9921678,31.235035 27.8897203,30.7886014 C27.1523077,30.4894406 26.4400699,30.2051748 25.7446154,29.7799301 C25.5576923,29.6662238 25.2740559,29.6242657 25.2461538,29.368951 C25.2425874,29.3406294 25.2998601,29.2556643 25.3107692,29.2502098 C25.7160839,29.0488112 26.1725874,29.3370629 26.5841958,29.2046853 C26.7291608,29.1570629 26.8321678,28.9093007 26.9511189,28.910979 C27.2517483,28.9145455 27.5794406,29.0246853 27.8567832,28.8197203 C28.0598601,28.6659441 28.3588112,28.7741958 28.5709091,28.8725874 C28.8553846,29.004965 29.3133566,29.6351748 29.6723077,29.5642657 C29.7717483,29.5434965 30.3686014,29.4247552 30.4695105,29.4828671 C31.029021,29.8183217 31.9336364,30.4841958 32.5609091,30.5196503 C32.6836364,30.528042 32.763986,30.1592308 32.9198601,30.2397902 C33.2993706,30.4395105 33.5452448,30.7223077 33.8567832,30.7783217 C33.9570629,30.7972028 34.1404196,30.6396503 34.2574825,30.6576923 C34.4867832,30.6906294 34.6206294,30.8607692 34.8715385,31.0386713 C34.9797902,31.113986 35.2365734,31.1630769 35.4098601,31.2973427 L35.4098601,31.2973427 Z M30.8213287,33.6482517 C26.8044755,33.7422378 23.1444755,31.4022378 20.5090909,28.2845455 C20.4704895,28.239021 20.4671329,28.0921678 20.5663636,28.0974126 C21.0281119,28.1305594 21.3906294,28.4311888 21.8011888,28.6216783 C22.2503497,28.8268531 22.7578322,29.4442657 23.2193706,29.0836364 C23.3152448,29.0083217 23.257972,28.8616783 23.3590909,28.8893706 C23.9641259,29.0486014 24.3837063,29.5560839 24.8232168,29.9926573 C25.2008392,30.3704895 25.3967832,30.898951 25.8862238,31.1381119 C26.0991608,31.2400699 26.2602797,30.7586014 26.4266434,30.9037762 C26.7937762,31.2237063 27.0476224,31.5411189 27.4405594,31.8341958 C27.6033566,31.9571329 27.7009091,31.5866434 27.7663636,31.5562238 C27.939021,31.4775524 28.3363636,31.8746853 28.5358741,32.0341259 C28.7872028,32.2334266 29.0582517,32.5027972 29.3733566,32.6918182 C29.529021,32.7839161 29.6668531,32.5602797 29.8118182,32.6194406 C30.0463636,32.7157343 30.2702098,32.8571329 30.5251049,32.9288811 C30.6841259,32.9727273 30.8246853,33.3100699 30.9482517,33.4638462 C31.1058042,33.6564336 30.9151049,33.6465734 30.8213287,33.6482517 L30.8213287,33.6482517 Z M22.2736364,41.1132168 C20.4453147,42.1724476 18.5429371,42.7273427 16.4777622,42.918042 C15.5129371,43.0065734 14.5716084,42.9421678 13.6168531,42.8007692 C7.01013986,41.8246154 1.74293706,35.827972 1.83986014,29.2302797 C1.83986014,29.2168531 1.93909091,29.4595804 2.0634965,29.5032168 C2.21370629,29.5541958 2.27454545,29.4318881 2.37104895,29.3232168 C2.50909091,29.167972 2.66307692,29.4996503 2.84643357,29.4354545 C2.90286713,29.4138462 2.95195804,29.3108392 2.98699301,29.3198601 C3.34132867,29.4037762 3.34678322,28.9770629 3.63041958,29.0467133 C3.80118881,29.0886713 3.75272727,29.3527972 3.85237762,29.5155944 C3.9534965,29.683007 4.13076923,29.7060839 4.27573427,29.641049 C4.80713287,29.4075524 4.61853147,28.7756643 4.92986014,28.3684615 C5.06937063,29.1031469 4.9351049,29.8388811 5.10062937,30.5859441 C5.34944056,31.7001399 5.61167832,32.7283217 6.09377622,33.7401399 C6.9493007,35.538042 8.2906993,36.950979 10.0267133,38.0454545 C14.8741259,41.1056643 21.3287413,39.4797902 24.3686014,34.8960839 C24.8070629,34.9867133 25.3565035,35.1675524 25.8772028,35.240979 C26.1627273,35.281049 26.4472028,35.281049 26.7327273,35.240979 C26.7883217,35.231958 26.9548951,35.180979 26.9385315,35.1585315 C26.5036364,34.5425874 25.5908392,33.8171329 25.5157343,32.8883916 C26.4123776,33.2263636 27.5041259,33.5918182 28.6002797,33.963986 C27.1525175,36.8446154 25.1532168,39.444965 22.2736364,41.1132168 L22.2736364,41.1132168 Z M2.72664336,23.2151748 C3.61951049,21.5066434 4.79286713,20.0741958 6.22909091,18.7676224 C8.08048951,17.0853147 10.1511189,15.9746853 12.6138462,15.4262937 C15.5723077,14.7704895 18.3211888,14.91 21.2070629,16.1762937 C21.3325175,16.228951 20.9725175,16.9841958 20.8831469,16.9493706 C16.016014,15.1004895 10.297972,15.8628671 6.60839161,19.6455944 C5.19902098,21.0881119 3.64741259,22.5958741 3.35223776,24.6371329 C3.11244755,24.3167832 3.37363636,23.8476923 3.04972028,23.5783217 C2.90664336,23.4629371 2.7748951,23.8093007 2.65594406,23.6848951 C2.54034965,23.5651049 2.65594406,23.3527972 2.72664336,23.2151748 L2.72664336,23.2151748 Z M31.1462937,7.86482517 C36.7651049,7.74587413 43.7160839,8.02237762 47.5651049,6.96734266 C50.8636364,6.06524476 53.1834965,5.19461538 55.7332867,2.74468531 C56.1304196,2.36160839 56.263007,2.43146853 56.0131469,2.84391608 C54.4411888,5.44972028 51.7254545,7.35755245 47.9865734,8.40188811 C43.7806993,9.5786014 35.7495105,9.12041958 31.1465035,9.30020979 C26.008951,9.49972028 22.1809091,11.4513986 20.5665734,14.919021 L19.370979,14.4402797 C20.8187413,10.1555245 25.6428671,7.98188811 31.1462937,7.86482517 L31.1462937,7.86482517 Z M19.0835664,30.6432168 C18.7390909,30.2601399 18.7265035,29.6939161 18.9511888,29.2464336 C19.089021,28.9732867 19.5381818,28.6493706 19.7171329,28.8526573 C19.8952448,29.0521678 19.981049,29.3861538 20.1279021,29.5835664 C20.2451748,29.7413287 20.424965,29.7616783 20.5455944,29.9406294 C20.6681119,30.1220979 20.7855944,30.4506294 20.9456643,30.5788112 C21.061049,30.6744755 21.2202797,30.7164336 21.3268531,30.8355944 C21.4093007,30.9251748 21.4252448,31.0625874 21.5022378,31.1379021 C21.5792308,31.2113287 21.7151748,31.2201399 21.8011888,31.2971329 C21.9513986,31.4286713 22.0562937,31.7465035 22.2396503,31.7958042 C22.3416084,31.8216084 22.509021,31.7131469 22.5948252,31.7626573 C22.7523776,31.8583217 22.8839161,31.9846154 23.0091608,32.126014 C23.1406993,32.2753846 23.2651049,32.439021 23.3993706,32.5875524 C23.5218881,32.7226573 23.6391608,32.9188112 23.7931469,33.0109091 C23.9030769,33.0744755 24.1162238,32.91 24.2039161,32.9832168 C24.3193007,33.076993 24.3740559,33.3188811 24.4921678,33.3885315 C24.6513986,33.4835664 24.8840559,33.3956643 24.9736364,33.5601399 C25.0873427,33.7642657 25.284965,34.2367133 25.4720979,34.5044056 C22.9627972,34.091958 20.7713287,32.5286014 19.0835664,30.6432168 L19.0835664,30.6432168 Z M15.6474126,20.015035 C10.7194406,20.015035 6.72398601,24.0104895 6.72398601,28.9403497 C6.72398601,33.8681119 10.7194406,37.8635664 15.6474126,37.8635664 C18.6146853,37.8635664 21.2437762,36.4158042 22.8660839,34.1878322 L24.058951,34.6124476 C22.2352448,37.3095105 19.1498601,39.0839161 15.6474126,39.0839161 C10.0447552,39.0839161 5.50342657,34.5425874 5.50342657,28.9399301 C5.50342657,23.3372727 10.0447552,18.7940559 15.6474126,18.7940559 C17.1264336,18.7940559 18.740979,19.1718881 20.1574825,19.8302098 L20.1574825,21.2351748 C18.8339161,20.4606294 17.293007,20.015035 15.6474126,20.015035 L15.6474126,20.015035 Z M19.3474825,25.2241259 C18.9662937,24.8408392 18.536014,24.5276224 18.0696503,24.2851049 L20.2252448,22.4469231 C20.2378322,23.3857343 19.9892308,24.5418881 19.5891608,25.4582517 L19.3474825,25.2241259 L19.3474825,25.2241259 Z M15.6633566,34.1144056 C16.4588811,34.1144056 17.225035,33.9327273 17.9192308,33.5970629 L18.1428671,36.7309091 C17.3626573,36.9784615 16.5285315,37.1135664 15.6631469,37.1135664 C15.5091608,37.1135664 15.3537063,37.1085315 15.2013986,37.1011888 L14.7325175,34.0271329 C15.0371329,34.0829371 15.3484615,34.1144056 15.6633566,34.1144056 L15.6633566,34.1144056 Z M14.5844056,33.069021 L14.3901399,31.7884615 C14.7222378,31.936993 15.0862238,32.0301399 15.4676224,32.0525874 L14.5844056,33.069021 L14.5844056,33.069021 Z M14.2602797,34.1913986 L14.6979021,37.0558741 C13.8656643,36.9562238 13.072028,36.7363636 12.3354545,36.406993 L14.2602797,34.1913986 L14.2602797,34.1913986 Z M11.4837063,32.0026573 C11.6358042,32.2065734 11.7988112,32.4062937 11.981958,32.5896503 C12.5431469,33.15 13.2098601,33.5603497 13.9372028,33.8154545 L11.8772727,36.1871329 C11.0800699,35.7709091 10.3613287,35.2267133 9.7458042,34.5832867 L11.4837063,32.0026573 L11.4837063,32.0026573 Z M11.1425874,31.6311189 L9.40657343,34.2071329 C8.81685315,33.5112587 8.34,32.7155245 8.00706294,31.8467832 L11.1425874,31.6311189 L11.1425874,31.6311189 Z M10.5199301,28.0938462 C10.4796503,28.3577622 10.4572028,28.6288112 10.4572028,28.9055245 C10.4572028,29.6970629 10.6372028,30.457972 10.9682517,31.1502797 L7.83797203,31.366993 C7.5965035,30.5930769 7.46496503,29.7688112 7.46496503,28.9141259 C7.46496503,28.8356643 7.46853147,28.756993 7.4720979,28.6781119 L10.5199301,28.0938462 L10.5199301,28.0938462 Z M10.5046154,27.5953846 L7.50146853,28.1744056 C7.58391608,27.2527972 7.81657343,26.3765035 8.17888112,25.5686014 L10.5046154,27.5953846 L10.5046154,27.5953846 Z M12.7220979,24.611958 C11.8244056,25.2274825 11.1274825,26.1197203 10.7561538,27.1651049 L8.40083916,25.1104196 C8.86258741,24.2324476 9.47832168,23.4495105 10.2111189,22.7951748 L12.7220979,24.611958 L12.7220979,24.611958 Z M13.3027972,24.2658042 C13.2608392,24.2874126 13.216993,24.3075524 13.1748252,24.331049 L10.6002797,22.4716783 C11.4029371,21.838951 12.3247552,21.3511888 13.3304895,21.0551748 L13.3027972,24.2658042 L13.3027972,24.2658042 Z M12.5555245,29.3861538 C12.5607692,29.4245455 12.57,29.461049 12.5752448,29.4975524 L11.5273427,31.0556643 C11.1864336,30.3988112 11.0028671,29.6679021 11.0028671,28.9055245 C11.0028671,28.6306993 11.0305594,28.3613287 11.0762937,28.0955245 L12.5555245,29.3861538 L12.5555245,29.3861538 Z M13.2830769,26.8609091 C13.216993,26.9355944 13.1567832,27.0163636 13.0978322,27.0988112 L11.2357343,27.4537762 C11.4593706,26.7669231 11.8424476,26.1367133 12.3686014,25.6084615 C12.6216084,25.3556643 12.9018881,25.14 13.198951,24.9547552 L13.2975524,25.0244056 L13.2830769,26.8609091 L13.2830769,26.8609091 Z M12.5261538,28.7095804 L11.5837762,27.8890909 L12.7829371,27.6581119 C12.6415385,27.9841259 12.5521678,28.3372028 12.5261538,28.7095804 L12.5261538,28.7095804 Z M13.3011189,30.9893706 L12.1082517,31.072028 L12.7571329,30.1099301 C12.8893007,30.4321678 13.072028,30.729021 13.3011189,30.9893706 L13.3011189,30.9893706 Z M13.7993706,31.4477622 C13.8146853,31.4582517 13.8308392,31.4674825 13.8459441,31.4788112 L14.1243357,33.3033566 C13.4720979,33.0742657 12.8725175,32.7067133 12.3686014,32.2027972 C12.176014,32.0104196 12.0033566,31.801049 11.8495804,31.580979 L13.7993706,31.4477622 L13.7993706,31.4477622 Z M14.5896503,25.9586014 C14.2961538,26.0651748 14.0215385,26.2137063 13.7762937,26.3987413 L13.7851049,25.376014 L14.5896503,25.9586014 L14.5896503,25.9586014 Z M17.1354545,26.1348252 C16.8660839,25.9917483 16.5744755,25.8834965 16.2648252,25.8237063 L17.0305594,25.1704196 L17.1354545,26.1348252 L17.1354545,26.1348252 Z M17.0548951,20.8365734 C18.1302797,21.0218182 19.1362238,21.412028 20.0257343,21.9713287 L17.5747552,24.0616783 C17.5166434,24.0386014 17.4576923,24.0178322 17.3976923,23.9981119 L17.0548951,20.8365734 L17.0548951,20.8365734 Z M16.7355944,31.8692308 C17.1132168,31.7330769 17.4576923,31.5264336 17.7530769,31.2658741 L17.8487413,32.5896503 L16.7355944,31.8692308 L16.7355944,31.8692308 Z M15.6633566,30.5976923 C14.731049,30.5976923 13.9739161,29.8407692 13.9739161,28.9057343 C13.9739161,27.9732168 14.7308392,27.2141958 15.6633566,27.2141958 C16.5986014,27.2141958 17.3555245,27.973007 17.3555245,28.9057343 C17.3557343,29.8405594 16.5986014,30.5976923 15.6633566,30.5976923 L15.6633566,30.5976923 Z M16.117972,32.0525874 L17.7127972,33.0864336 C17.0953846,33.3925175 16.400979,33.5676923 15.6633566,33.5676923 C15.393986,33.5676923 15.1265035,33.5408392 14.8642657,33.4961538 L16.117972,32.0525874 L16.117972,32.0525874 Z M13.796014,24.0453147 L13.822028,20.9242657 C14.4163636,20.7891608 15.0318881,20.7140559 15.6635664,20.7140559 C15.9660839,20.7140559 16.2631469,20.7354545 16.554965,20.7667133 L16.8876923,23.8476923 C16.4922378,23.752028 16.0833566,23.6974825 15.6635664,23.6974825 C15.0056643,23.6974825 14.3775524,23.8218881 13.796014,24.0453147 L13.796014,24.0453147 Z M15.6633566,24.2433566 C16.1053846,24.2433566 16.5375524,24.3077622 16.9502098,24.4269231 L16.9663636,24.5823776 L15.573986,25.7695804 C15.4514685,25.7735664 15.3325175,25.786993 15.2125175,25.8029371 L13.7905594,24.7764336 L13.7905594,24.6369231 C14.373986,24.3811888 15.0075524,24.2433566 15.6633566,24.2433566 L15.6633566,24.2433566 Z M17.9542657,26.7579021 C17.8646853,26.6603497 17.7671329,26.5705594 17.6670629,26.4866434 L17.4818182,24.7856643 L17.6133566,24.6736364 C18.1082517,24.901049 18.5645455,25.2134266 18.9608392,25.6086713 L19.3707692,26.0177622 L19.0523077,26.6737762 L17.9542657,26.7579021 L17.9542657,26.7579021 Z M18.1672028,27.0564336 L18.9125874,27.0325175 L18.5976923,27.7544056 C18.500979,27.4726573 18.3354545,27.2964336 18.1672028,27.0564336 L18.1672028,27.0564336 Z M18.3488811,32.7121678 L18.2091608,30.7642657 C18.4730769,31.1347552 18.8123077,31.6653147 19.130979,31.9357343 C18.8616084,32.2646853 18.6971329,32.4641958 18.3488811,32.7121678 L18.3488811,32.7121678 Z M20.943986,35.1793007 C20.2569231,35.7581119 19.4773427,36.2326573 18.6234965,36.560979 L18.406993,33.5372727 L20.943986,35.1793007 L20.943986,35.1793007 Z M18.6933566,33.1372028 C18.9241259,32.9725175 19.1433566,32.7925175 19.3474825,32.5896503 L19.6697203,32.2923776 L22.0814685,34.0061538 C21.881958,34.2461538 21.6474126,34.5306294 21.3234965,34.841958 L18.6933566,33.1372028 L18.6933566,33.1372028 Z M51.6811888,10.5788811 C54.1609091,9.97216783 56.2351049,8.6765035 57.8899301,6.84734266 C58.0105594,6.68811189 58.4232168,6.19153846 58.5037762,6.03230769 C58.5826573,5.87286713 58.6640559,5.87286713 58.6032168,6.05286713 C58.5438462,6.23013986 58.136014,6.88699301 58.0348951,7.0865035 C57.0031469,8.77594406 55.3611189,9.82027972 53.6842657,10.6785315 C51.2322378,11.9267832 48.6004196,12.6669231 45.8844755,12.8171329 C41.0460839,13.0883916 36.2299301,12.9067133 31.396993,12.9253846 C29.6267832,12.9325175 27.9572727,13.4802797 26.3882517,14.4717483 C24.7229371,15.5259441 23.5428671,16.9737063 22.7561538,18.7017483 C22.0896503,20.163986 22.138951,21.7934266 22.0025874,23.4184615 C21.8238462,25.5706993 20.7453147,27.4713986 19.192028,28.3374126 C19.8793007,27.0818182 20.5995105,25.6348951 20.8357343,24.153986 C21.0736364,22.6657343 20.8411888,21.4892308 20.9011888,20.1755245 C21.0388112,17.1472028 22.9627972,14.5361538 25.6027972,13.0443357 C27.472028,11.9865734 29.4360839,11.3307692 31.5417483,11.2520979 C33.1944755,11.1912587 34.835035,11.3290909 36.4902797,11.4409091 C38.5082517,11.5776923 40.5109091,11.5705594 42.5144056,11.5141259 C42.7525175,11.5088811 43.0676224,11.516014 43.3072028,11.5088811 C46.1240559,11.4146853 48.8752448,11.2661538 51.6811888,10.5788811 L51.6811888,10.5788811 Z M34.6407692,14.0634965 C34.9986713,13.9256643 35.4948252,14.4383916 35.8995105,14.0851049 C36.1321678,13.8818182 36.5853147,14.2038462 36.9274825,14.3578322 C37.2839161,14.518951 37.5306294,14.2772727 37.8243357,14.0884615 C38.0167133,13.9640559 38.3154545,14.3345455 38.6536364,14.2531469 C38.7692308,14.2262937 38.7423776,13.9693007 38.8577622,13.9552448 C39.2534266,13.9086713 39.6014685,14.281049 39.9633566,14.1216084 C40.0927972,14.0634965 40.2344056,13.837972 40.3755944,13.753007 C40.5490909,13.6474825 40.7853147,13.8927273 40.9126573,13.779021 C41.2856643,13.4416783 41.6616084,13.5828671 42.007972,13.6340559 C42.0813986,13.6455944 42.1529371,13.933007 42.0652448,13.9883916 C40.601958,14.8965734 39.148951,15.1407692 37.4765035,15.326014 C36.669021,15.4174825 35.0639161,15.2668531 34.0823077,14.6951748 C33.5267832,14.375035 34.3401399,14.1824476 34.6407692,14.0634965 L34.6407692,14.0634965 Z M35.3431469,21.624965 C33.7976224,21.982028 32.3406294,21.8827972 30.8328671,21.5202797 C30.519021,21.4451748 30.341958,21.1390909 30.0920979,20.9225874 C30.0375524,20.8751748 29.7772028,20.9028671 29.7683916,20.8716084 C29.6634965,20.5638462 29.5848252,20.4386014 29.3353846,20.2388811 C29.2967832,20.2074126 29.2663636,20.0062238 29.3907692,19.9953147 C29.7755245,19.9640559 30.1531469,19.9185315 30.5345455,19.8709091 C30.7300699,19.8467832 30.7393007,19.5023077 30.9083916,19.4307692 C31.3038462,19.2677622 31.7513287,19.2472028 32.188951,19.2016783 C33.3199301,19.0844056 34.4232168,18.9029371 35.5573427,18.9868531 C36.6971329,19.0737063 37.7553147,19.4431469 38.8531469,19.779021 C38.9934965,19.820979 39.2429371,19.9097203 39.1206294,20.1037762 C38.97,20.34 38.6509091,20.3418881 38.4018881,20.5101399 C38.0714685,20.7320979 37.5992308,20.647972 37.3021678,20.9297203 C36.8823776,21.3316783 36.3176224,21.3627273 35.776993,21.4317483 C35.6284615,21.4523077 35.5076224,21.5855245 35.3431469,21.624965 L35.3431469,21.624965 Z M29.1318881,25.2534965 C28.621049,25.1248951 27.8584615,24.9602098 27.7395105,24.6465734 C27.8083217,24.6665035 27.9406993,24.476014 27.9461538,24.4212587 C27.9623077,24.1831469 27.4915385,24.133007 27.3287413,23.9718881 C27.2865734,23.932028 27.2536364,23.7268531 27.3832867,23.724965 C27.6348252,23.7186713 28.1662238,23.9372727 28.5306294,23.7501399 C28.6298601,23.701049 28.6353147,23.5575524 28.7857343,23.4956643 C28.9361538,23.4331469 29.1373427,23.5172727 29.2348951,23.4662937 C29.3278322,23.4125874 29.4782517,23.3964336 29.5479021,23.3007692 C29.5990909,23.2300699 29.5166434,23.0311888 29.5917483,22.9577622 C29.7161538,22.8335664 29.8888112,22.8925175 30.0776224,22.77 C30.1984615,22.6932168 30.3102797,22.4941259 30.406993,22.4379021 C30.5903497,22.3313287 30.8326573,22.318951 31.0413986,22.3036364 C31.6336364,22.2614685 32.2286014,22.2874825 32.8298601,22.3646853 C33.3413287,22.4293007 33.836014,22.4783916 34.3397203,22.6248252 C35.1648252,22.8633566 35.9744056,23.0429371 36.7055245,23.4893706 C36.260979,24.0927273 35.5298601,24.1237762 34.921049,24.4386713 C34.4297203,24.6937762 33.9020979,24.7197902 33.3906294,24.8735664 C31.9888112,25.2973427 30.541049,25.606993 29.1318881,25.2534965 L29.1318881,25.2534965 Z M22.2102797,27.0234965 C22.4276224,27.0604196 22.6002797,26.9376923 22.7783916,26.9817483 C23.0181818,27.0398601 23.1176224,27.0623077 23.3018182,27.1569231 C23.4207692,27.0818182 23.6007692,27.0551748 23.6616084,27.0362937 C23.9972727,26.9299301 24.3837063,27.1393007 24.7355245,27.1132867 C24.9073427,27.1004895 24.8966434,26.7354545 25.0273427,26.6756643 C25.5123776,26.4553846 26.1505594,26.7774126 26.6630769,26.6496503 C26.7222378,26.6334965 26.6783916,26.366014 26.9039161,26.2004895 C26.9968531,26.1314685 27.4004895,26.1251748 27.5301399,26.073986 C27.5444056,26.0213287 27.5597203,25.9023776 27.6786713,25.8415385 C28.066993,25.648951 28.6172727,25.9695105 29.165035,26.0578322 C29.5497902,26.1213986 29.9293007,26.2592308 30.3123776,26.3855245 C30.609021,26.4830769 31.0575524,26.7579021 30.9608392,26.8573427 C29.4155245,28.4276224 26.9985315,28.6166434 24.8723077,28.4643357 C23.6213287,28.3737063 22.2612587,28.3577622 21.2481818,27.5347552 C21.0146853,27.3474126 21.3117483,26.9590909 21.5827972,26.8151748 C21.7770629,26.7121678 22.0061538,26.9886713 22.2102797,27.0234965 L22.2102797,27.0234965 Z M25.0854545,24.2798601 C25.6921678,24.5662238 26.3318182,24.8112587 26.8061538,25.2837063 C25.7483916,25.9220979 24.5727273,26.1161538 23.3576224,26.3156643 C22.9137063,26.3890909 22.4483916,26.4662937 22.0009091,26.2886014 C22.2612587,25.3606993 22.6021678,24.4634266 22.9342657,23.5613287 C23.6911888,23.6823776 24.3891608,23.9515385 25.0854545,24.2798601 L25.0854545,24.2798601 Z M27.1067832,15.7814685 C27.4531469,15.6606294 27.8897203,15.5639161 27.8362238,15.0944056 C27.8236364,14.9851049 28.0053147,14.9206993 28.102028,14.9081119 C28.3659441,14.8730769 28.6244056,14.8634266 28.8830769,14.7962937 C29.0916084,14.7425874 29.1776224,14.5252448 29.3387413,14.4096503 C29.9013986,14.0026573 30.6056643,14.4014685 31.1534266,14.1671329 C31.4047552,14.0572028 31.6606993,13.9988811 31.880979,14.1270629 C32.4302098,14.4501399 33.2393706,14.5745455 33.4059441,15.241049 C31.4433566,16.3883916 29.1159441,16.7041259 26.8779021,16.6764336 C26.8883916,16.3462238 26.7694406,15.9014685 27.1067832,15.7814685 L27.1067832,15.7814685 Z M28.2486713,17.4352448 C28.9672028,17.5909091 29.5204196,17.964965 30.1636364,18.2173427 C30.4132867,18.3148951 30.9465734,18.6020979 30.7040559,18.7434965 C28.6682517,19.9111888 26.306014,20.0599301 24.0096503,20.0462937 C24.0337762,19.6984615 24.2072727,19.4548951 24.2861538,19.1301399 C24.3870629,18.7155944 25.0288112,18.611958 25.018951,18.0383916 C25.0153846,17.7224476 25.6374126,17.7832867 25.8331469,17.5067832 C25.9118182,17.3966434 25.9906993,17.2275524 26.0953846,17.2095105 C26.8231469,17.0888811 27.513986,17.2776923 28.2486713,17.4352448 L28.2486713,17.4352448 Z M23.4574825,21.4244056 C23.606014,21.2051748 23.7071329,20.9064336 23.8334266,20.8346853 C24.7596503,20.3030769 25.9758042,20.5411888 27.0226573,20.833007 C27.9255944,21.0834965 28.8570629,21.2964336 29.5202098,21.9944056 C29.5569231,22.0327972 29.5514685,22.1670629 29.5237762,22.1796503 C27.5211189,23.0979021 25.3233566,23.4826573 23.1595804,23.2464336 C23.0970629,23.2390909 23.1757343,22.779021 23.1354545,22.4786014 C23.1058741,22.269021 23.3083217,22.1481818 23.4711189,21.9524476 C23.5586014,21.8458741 23.3483916,21.5899301 23.4574825,21.4244056 L23.4574825,21.4244056 Z M41.1543357,17.4648252 C38.2040559,18.6075524 35.011049,18.6075524 31.9013287,18.4321678 C31.7729371,18.425035 31.7431469,18.1825175 31.6535664,18.0616783 C31.5400699,17.9022378 31.2830769,17.8602797 31.1462937,17.7591608 C31.0361538,17.6767133 31.0470629,17.5372028 30.9279021,17.4406993 C30.8160839,17.3475524 30.5152448,17.3708392 30.3346154,17.2902797 C30.2666434,17.2625874 30.1808392,17.0414685 30.2666434,16.9913287 C30.6530769,16.7658042 31.250979,17.1585315 31.4962238,16.8392308 C31.9032168,16.3130769 32.4266434,16.7039161 32.8999301,16.5222378 C33.0448951,16.4668531 33.0117483,16.2788811 33.0774126,16.1974825 C33.4844056,15.7025874 34.2358741,15.639021 34.8847552,15.6239161 C35.4182517,15.6113287 36.0532867,15.6291608 36.5215385,15.6883217 C37.8245455,15.8916084 38.9752448,16.091958 40.1278322,16.6466434 C40.447972,16.8025175 40.8148951,16.8795105 41.0968531,17.1604196 C41.2122378,17.2741259 41.111958,17.3725175 41.1543357,17.4648252 L41.1543357,17.4648252 Z M58.9214685,6.29076923 C58.8427972,6.60944056 58.7477622,6.90272727 58.6286014,7.24195804 C57.7506294,9.73048951 55.8314685,11.3251049 53.7534965,12.8429371 C51.8053846,14.2648951 49.8446853,15.1588112 47.5260839,15.6956643 C45.7634266,16.1028671 44.0729371,16.4670629 42.3031469,16.340979 C41.8959441,16.3113986 41.5825175,16.0437063 41.2032168,15.8567832 C41.0404196,15.7781119 40.7637063,15.8022378 40.5983916,15.7090909 C40.4158741,15.6044056 40.5016783,15.3700699 40.7253147,15.3295804 C40.9894406,15.2813287 41.2854545,15.3895804 41.4895804,15.2741958 C42.0058741,14.9815385 42.5723077,15.1004895 43.0833566,14.9368531 C43.3858741,14.842028 43.0915385,14.4151049 43.3168531,14.3454545 C43.6078322,14.2514685 43.9271329,14.2191608 44.2315385,14.1377622 C44.3773427,14.0991608 44.4029371,13.7458741 44.4765734,13.7242657 C44.8944755,13.6025874 45.6148951,13.7806993 46.1731469,13.7697902 C46.3495804,13.7681119 46.2304196,13.4469231 46.4486014,13.4431469 C47.1484615,13.436014 47.0857343,13.522028 47.5575524,13.2071329 C47.9897203,12.918042 49.0374126,13.3244056 49.0248252,12.6593706 C49.908042,12.5127273 50.8541958,12.7747552 51.6497203,12.1896503 C51.7793706,12.0962937 52.0172727,12.1896503 52.1958042,12.0759441 C52.2983916,12.0106993 52.2912587,11.8432867 52.4175524,11.8065734 C52.7494406,11.7065035 53.1012587,11.7100699 53.4106993,11.5667832 C53.5925874,11.4826573 53.5613287,11.1713287 53.6559441,11.1291608 C55.5843357,10.2530769 57.1808392,9.07468531 58.2946154,7.24363636 C58.513007,6.88657343 58.7565734,6.38895105 58.8174126,6.22972028 C58.8759441,6.0706993 58.9716084,6.09482517 58.9214685,6.29076923 L58.9214685,6.29076923 Z M56.4293706,14.1144755 C55.6407692,14.0517483 54.8551049,14.1341958 54.0667133,14.0725175 C53.9406294,14.0634965 53.9720979,13.8612587 54.011958,13.8297902 C57.136993,11.3431469 59.4660839,8.00622378 59.5046853,4.05104895 C59.5046853,4.00174825 59.4216084,3.94111888 59.3848951,3.98916084 C57.2227972,6.83853147 54.6513986,9.45230769 51.0467832,9.89160839 C50.8764336,9.91405594 50.8651049,9.61531469 50.9974825,9.5293007 C54.2851049,7.38881119 56.6899301,4.52622378 57.4923776,0.677412587 C57.5013986,0.633566434 57.4172727,0.570839161 57.3734266,0.616573427 C55.0218881,3.07111888 52.2029371,4.79370629 48.9627273,5.74321678 C43.1265734,7.45594406 37.1704196,6.87524476 31.2545455,6.89391608 C28.9118182,6.90125874 26.5512587,7.10433566 24.391049,8.11636364 C21.7225175,9.36566434 19.4318182,11.3834266 18.2003497,14.0939161 L18.161958,14.1656643 C17.3316084,14.0206993 16.477972,13.948951 15.6052448,13.948951 C7.29587413,13.948951 0.557412587,20.6844755 0.557412587,28.9959441 C0.557412587,37.3063636 7.29566434,44.043986 15.6052448,44.043986 C21.9793007,44.043986 27.4254545,40.0814685 29.6196503,34.4842657 L29.8317483,34.4806993 C30.5691608,34.5102797 31.3825175,34.537972 32.1100699,34.2463636 C32.1977622,34.2096503 32.4528671,34.0430769 32.3582517,33.8597203 C32.2401399,33.6360839 31.8793007,33.1846154 31.7674825,32.8825175 C31.7414685,32.8170629 31.7253147,32.6863636 31.8302098,32.6848951 C33.6553846,32.6718881 35.6181818,32.7893706 37.2967133,32.1266434 C36.8718881,31.4257343 35.8982517,30.9077622 35.3630769,30.2186014 C35.2422378,30.0618881 35.4786713,29.9762937 35.559021,29.9762937 C38.1083916,29.9670629 40.4848951,29.9653846 42.7304895,28.8218182 C42.8148252,28.777972 42.8162937,28.6860839 42.7672028,28.6346853 C42.2706294,28.1162937 41.6565734,27.6268531 41.0815385,27.2198601 C43.9214685,26.651958 47.0465035,25.2295804 47.9448252,24.4235664 C48.0396503,24.3375524 47.977972,24.2544755 47.9278322,24.198042 C47.6897203,23.9144056 47.0534266,23.4866434 46.9346853,23.3676923 C46.8946154,23.3274126 46.9061538,23.193986 46.9294406,23.1822378 C49.4548951,22.2151049 51.9495105,21.1099301 53.7633566,18.9587413 C53.8458042,18.8578322 53.7323077,18.7241958 53.6318182,18.7038462 C52.9009091,18.5641259 52.2035664,18.530979 51.4833566,18.5408392 C51.4833566,18.4451748 51.4544056,18.3046154 51.4965734,18.2786014 C53.3857343,17.1805594 55.0588112,16.027972 56.4843357,14.3634965 C56.5269231,14.3137762 56.5552448,14.1232867 56.4293706,14.1144755 L56.4293706,14.1144755 Z" id="Shape" fill="#FFFFFF"></path>
                <path d="M56.4837063,14.3630769 C55.0581818,16.0275524 53.3848951,17.1801399 51.4959441,18.2781818 C51.4537762,18.3041958 51.4827273,18.4445455 51.4827273,18.5404196 C52.2031469,18.5305594 52.9002797,18.5637063 53.6311888,18.7034266 C53.7316783,18.723986 53.8451748,18.8574126 53.7627273,18.9583217 C51.9488811,21.1095105 49.4542657,22.2146853 46.9288112,23.1818182 C46.9057343,23.1935664 46.893986,23.3267832 46.9340559,23.3672727 C47.0527972,23.4862238 47.6893007,23.913986 47.9272028,24.1976224 C47.9773427,24.2542657 48.039021,24.3371329 47.9441958,24.4231469 C47.0458741,25.2291608 43.9208392,26.6515385 41.0809091,27.2194406 C41.6559441,27.6264336 42.27,28.1158741 42.7665734,28.6342657 C42.8156643,28.6854545 42.8144056,28.7775524 42.7298601,28.8213986 C40.4844755,29.964965 38.107972,29.9666434 35.5583916,29.9758741 C35.478042,29.9758741 35.2416084,30.0614685 35.3624476,30.2181818 C35.8976224,30.9073427 36.871049,31.4253147 37.2960839,32.1262238 C35.6175524,32.788951 33.654965,32.6716783 31.8295804,32.6844755 C31.7246853,32.6861538 31.7408392,32.8168531 31.7668531,32.8820979 C31.8786713,33.1841958 32.2395105,33.6356643 32.3576224,33.8593007 C32.4522378,34.0426573 32.1971329,34.2092308 32.1094406,34.2459441 C31.3816783,34.5377622 30.5683217,34.5098601 29.8311189,34.4802797 L29.619021,34.4838462 C27.4248252,40.0812587 21.9788811,44.0435664 15.6046154,44.0435664 C7.29524476,44.0435664 0.556783217,37.3061538 0.556783217,28.9955245 C0.556783217,20.6842657 7.29503497,13.9485315 15.6046154,13.9485315 C16.4773427,13.9485315 17.330979,14.0202797 18.1613287,14.1652448 L18.1997203,14.0934965 C19.4311888,11.383007 21.7218881,9.36503497 24.3904196,8.11594406 C26.5506294,7.10391608 28.9111888,6.90083916 31.2539161,6.8934965 C37.1697902,6.87482517 43.1259441,7.45552448 48.9620979,5.7427972 C52.2023077,4.7934965 55.0212587,3.0706993 57.3727972,0.616153846 C57.4166434,0.57041958 57.5007692,0.633146853 57.4917483,0.676993007 C56.6893007,4.5258042 54.2844755,7.38839161 50.9968531,9.52888112 C50.8644755,9.6148951 50.876014,9.91363636 51.0461538,9.89118881 C54.6507692,9.45188811 57.2221678,6.8379021 59.3842657,3.98874126 C59.420979,3.9406993 59.5040559,4.00132867 59.5040559,4.05062937 C59.4654545,8.0058042 57.1363636,11.3427273 54.0113287,13.8293706 C53.9714685,13.8608392 53.94,14.0630769 54.0660839,14.0720979 C54.8544755,14.1337762 55.6401399,14.0513287 56.4287413,14.1140559 C56.5552448,14.1232867 56.5269231,14.3137762 56.4837063,14.3630769 L56.4837063,14.3630769 Z M56.4675524,13.640979 C56.0517483,13.6086713 55.6393007,13.6141259 55.2415385,13.6193706 C55.1611888,13.6212587 55.0804196,13.6212587 55.0017483,13.6212587 C57.3912587,11.5407692 59.9368531,8.32825175 59.979021,4.0541958 C59.9811189,3.82174825 59.8216783,3.60398601 59.5925874,3.52552448 C59.3758741,3.4520979 59.1415385,3.52258741 59.0055944,3.70258741 C57.3178322,5.9272028 55.2400699,8.23846154 52.4118881,9.11454545 C55.4097902,6.84692308 57.273986,4.04706294 57.9572727,0.771818182 C58.003007,0.542727273 57.8842657,0.304615385 57.6677622,0.189230769 C57.4520979,0.0755244755 57.196993,0.115804196 57.0323077,0.286783217 C54.7342657,2.68321678 51.9738462,4.36636364 48.8290909,5.28797203 C44.2699301,6.62412587 39.528042,6.53895105 34.9428671,6.45839161 C33.7340559,6.43678322 32.4837063,6.41475524 31.2524476,6.41811189 C29.0844755,6.42629371 26.5493706,6.58195804 24.1894406,7.68608392 C21.3375524,9.02097902 19.1129371,11.131049 17.8906993,13.6453846 C17.1371329,13.5335664 16.3711888,13.4746154 15.605035,13.4746154 C7.04685315,13.4746154 0.0839160839,20.4367133 0.0839160839,28.9957343 C0.0839160839,37.5543357 7.04664336,44.5176923 15.605035,44.5176923 C18.7862937,44.5176923 21.845035,43.561049 24.448951,41.750979 C26.9051748,40.0462238 28.7941259,37.7024476 29.9362238,34.9592308 C30.6457343,34.9867133 31.501049,35.0011888 32.2862937,34.6841958 C32.3282517,34.6672028 32.6836364,34.5151049 32.8113986,34.1704196 C32.8758042,33.9952448 32.8632168,33.8064336 32.7774126,33.639021 C32.7201399,33.5305594 32.636014,33.4046853 32.5367832,33.2595105 C32.5151748,33.2288811 32.4929371,33.1940559 32.4688112,33.1592308 L32.6272028,33.1592308 C34.2614685,33.1627972 35.9498601,33.168042 37.4702098,32.566993 C37.599021,32.516014 37.6993007,32.4094406 37.7456643,32.2776923 C37.7893007,32.1453147 37.7744056,31.9984615 37.700979,31.8797203 C37.4299301,31.4303497 36.9973427,31.0716084 36.5777622,30.7235664 C36.4659441,30.6297902 36.3558042,30.5381119 36.2496503,30.4470629 C38.5869231,30.4300699 40.807972,30.3312587 42.9448951,29.2426573 C43.1165035,29.154965 43.2337762,28.9990909 43.2648252,28.8121678 C43.2965035,28.6286014 43.2383916,28.44 43.1093706,28.3065734 C42.8418881,28.0275524 42.5286713,27.742028 42.1751748,27.4537762 C44.7335664,26.791049 47.3706294,25.5755245 48.2611888,24.7745455 C48.4793706,24.5786014 48.5741958,24.2286713 48.2907692,23.8934266 C48.1531469,23.728951 47.9372727,23.5468531 47.7243357,23.3821678 C50.0293007,22.4712587 52.3686713,21.3490909 54.1241958,19.2623077 C54.2630769,19.0986713 54.3016783,18.8811189 54.2299301,18.676993 C54.1512587,18.4558741 53.9515385,18.2834266 53.7207692,18.2376923 C53.394965,18.174965 53.064965,18.1311189 52.7131469,18.1017483 C54.1334266,17.2187413 55.571958,16.160979 56.8434965,14.6735664 C56.9941259,14.4971329 57.0377622,14.2093007 56.9483916,13.9898601 C56.8651049,13.7913986 56.6825874,13.6581818 56.4675524,13.640979 L56.4675524,13.640979 Z" id="Shape" fill="#EC2024"></path>
                <path d="M53.6561538,11.1291608 C53.5615385,11.1713287 53.5927972,11.4826573 53.4109091,11.5667832 C53.1012587,11.7098601 52.7496503,11.7065035 52.4177622,11.8065734 C52.2914685,11.8432867 52.2988112,12.0106993 52.196014,12.0759441 C52.0174825,12.1896503 51.7797902,12.0965035 51.6499301,12.1896503 C50.8544056,12.7747552 49.9082517,12.5127273 49.025035,12.6593706 C49.0376224,13.3241958 47.9897203,12.9178322 47.5577622,13.2071329 C47.0859441,13.522028 47.1486713,13.436014 46.4488112,13.4431469 C46.2306294,13.4469231 46.3495804,13.7681119 46.1733566,13.7697902 C45.6151049,13.7804895 44.8946853,13.6025874 44.4767832,13.7242657 C44.4031469,13.7458741 44.3775524,14.0991608 44.2317483,14.1377622 C43.9273427,14.2191608 43.6078322,14.2514685 43.3170629,14.3454545 C43.0917483,14.4153147 43.3860839,14.842028 43.0835664,14.9368531 C42.5725175,15.1006993 42.0060839,14.9815385 41.4897902,15.2741958 C41.2856643,15.3895804 40.9896503,15.2813287 40.7255245,15.3295804 C40.5018881,15.3698601 40.4158741,15.6044056 40.5986014,15.7090909 C40.7639161,15.8022378 41.0404196,15.7781119 41.2034266,15.8567832 C41.5829371,16.0439161 41.8961538,16.3113986 42.3033566,16.340979 C44.0733566,16.4672727 45.7636364,16.1028671 47.5262937,15.6956643 C49.8448951,15.1588112 51.8053846,14.2648951 53.7537063,12.8429371 C55.8316783,11.3251049 57.751049,9.7306993 58.6288112,7.24195804 C58.7477622,6.90272727 58.843007,6.60944056 58.9216783,6.29076923 C58.9716084,6.09461538 58.8759441,6.0706993 58.8178322,6.22972028 C58.756993,6.38895105 58.5134266,6.88657343 58.295035,7.24363636 C57.181049,9.07468531 55.5845455,10.2532867 53.6561538,11.1291608" id="Shape" fill="#EC2024"></path>
                <path d="M41.0970629,17.1606294 C40.8151049,16.8797203 40.4481818,16.8025175 40.128042,16.6468531 C38.9754545,16.0921678 37.8247552,15.8916084 36.5217483,15.6885315 C36.0537063,15.6295804 35.4184615,15.6117483 34.884965,15.6241259 C34.2360839,15.6394406 33.4846154,15.7027972 33.0776224,16.1976923 C33.011958,16.2790909 33.0453147,16.4670629 32.9001399,16.5224476 C32.4266434,16.7041259 31.9034266,16.3130769 31.4964336,16.8394406 C31.2511888,17.1587413 30.6530769,16.766014 30.2668531,16.9915385 C30.181049,17.0416783 30.2668531,17.2625874 30.3348252,17.2904895 C30.5154545,17.371049 30.8162937,17.3477622 30.9281119,17.4409091 C31.0472727,17.5374126 31.0363636,17.6769231 31.1465035,17.7593706 C31.2832867,17.8604895 31.5402797,17.9024476 31.6537762,18.0618881 C31.7433566,18.1827273 31.7729371,18.4252448 31.9015385,18.4323776 C35.0112587,18.6077622 38.2042657,18.6077622 41.1545455,17.465035 C41.111958,17.3725175 41.2122378,17.2741259 41.0970629,17.1606294" id="Shape" fill="#EC2024"></path>
                <path d="M23.1354545,22.4786014 C23.1757343,22.7792308 23.0970629,23.2390909 23.1595804,23.2464336 C25.3233566,23.4826573 27.5211189,23.0979021 29.5237762,22.1796503 C29.5514685,22.1670629 29.5569231,22.0327972 29.5202098,21.9944056 C28.8570629,21.2964336 27.9253846,21.0834965 27.0226573,20.833007 C25.9758042,20.5411888 24.7596503,20.3032867 23.8334266,20.8346853 C23.7073427,20.9062238 23.6062238,21.2051748 23.4574825,21.4244056 C23.3481818,21.5899301 23.5586014,21.8458741 23.4709091,21.9524476 C23.3083217,22.1483916 23.1058741,22.2692308 23.1354545,22.4786014" id="Shape" fill="#EC2024"></path>
                <path d="M33.4057343,15.241049 C33.2391608,14.5745455 32.4302098,14.4499301 31.8807692,14.1270629 C31.6604895,13.9990909 31.4045455,14.0572028 31.1532168,14.1671329 C30.6054545,14.4014685 29.9011888,14.0026573 29.3385315,14.4096503 C29.1774126,14.525035 29.0913986,14.7423776 28.8828671,14.7962937 C28.6241958,14.8634266 28.3657343,14.8730769 28.1018182,14.9081119 C28.0051049,14.9206993 27.8234266,14.9851049 27.836014,15.0944056 C27.8897203,15.5641259 27.4529371,15.6608392 27.1065734,15.7814685 C26.7692308,15.9014685 26.8881818,16.3462238 26.8774825,16.6764336 C29.1157343,16.7041259 31.4431469,16.3883916 33.4057343,15.241049" id="Shape" fill="#EC2024"></path>
                <path d="M26.0955944,17.2097203 C25.9909091,17.2275524 25.912028,17.3968531 25.8333566,17.506993 C25.6374126,17.7834965 25.0155944,17.7226573 25.0191608,18.0386014 C25.029021,18.611958 24.3872727,18.7158042 24.2863636,19.1303497 C24.2076923,19.4551049 24.033986,19.6986713 24.0098601,20.0465035 C26.306014,20.0599301 28.6684615,19.9113986 30.7042657,18.7437063 C30.9467832,18.6023077 30.4134965,18.3151049 30.1638462,18.2175524 C29.5204196,17.9651748 28.9674126,17.5911189 28.2488811,17.4354545 C27.513986,17.2776923 26.8231469,17.0888811 26.0955944,17.2097203" id="Shape" fill="#EC2024"></path>
                <path d="M22.0009091,26.2888112 C22.4481818,26.4665035 22.9137063,26.3893007 23.3576224,26.3158741 C24.5727273,26.1163636 25.7486014,25.9223077 26.8061538,25.2839161 C26.3318182,24.8114685 25.6921678,24.5664336 25.0854545,24.2800699 C24.3891608,23.9517483 23.6911888,23.6823776 22.9342657,23.5615385 C22.6021678,24.4634266 22.2612587,25.3609091 22.0009091,26.2888112" id="Shape" fill="#EC2024"></path>
                <path d="M21.5827972,26.8151748 C21.3117483,26.9590909 21.0146853,27.3474126 21.2481818,27.5347552 C22.2612587,28.3577622 23.6213287,28.3737063 24.8723077,28.4643357 C26.9985315,28.6166434 29.4155245,28.4276224 30.9608392,26.8573427 C31.0575524,26.7579021 30.609021,26.4830769 30.3123776,26.3855245 C29.9290909,26.2592308 29.5497902,26.1213986 29.165035,26.0578322 C28.6172727,25.9695105 28.066993,25.648951 27.6786713,25.8415385 C27.5595105,25.9023776 27.5444056,26.0213287 27.5301399,26.073986 C27.4004895,26.124965 26.9968531,26.1312587 26.9039161,26.2004895 C26.6783916,26.366014 26.7222378,26.6332867 26.6630769,26.6496503 C26.1505594,26.7774126 25.5123776,26.4553846 25.0273427,26.6756643 C24.8966434,26.7354545 24.9073427,27.1004895 24.7355245,27.1132867 C24.3839161,27.1393007 23.9972727,26.9299301 23.6616084,27.0362937 C23.6007692,27.0551748 23.420979,27.0818182 23.3018182,27.1569231 C23.1176224,27.0623077 23.0181818,27.0398601 22.7783916,26.9817483 C22.6002797,26.9376923 22.4276224,27.0604196 22.2102797,27.0234965 C22.0061538,26.9886713 21.7770629,26.7121678 21.5827972,26.8151748" id="Shape" fill="#EC2024"></path>
                <path d="M34.9214685,24.4390909 C35.5300699,24.1241958 36.2613986,24.0931469 36.7059441,23.4897902 C35.9748252,23.0433566 35.165035,22.8637762 34.3401399,22.6252448 C33.8364336,22.4788112 33.3415385,22.4295105 32.8302797,22.3651049 C32.229021,22.2881119 31.6340559,22.2620979 31.0418182,22.3040559 C30.8330769,22.3193706 30.5907692,22.3317483 30.4074126,22.4383217 C30.3106993,22.4945455 30.1988811,22.6936364 30.078042,22.7704196 C29.8892308,22.8929371 29.7163636,22.833986 29.5921678,22.9581818 C29.5170629,23.0316084 29.5993007,23.2304895 29.5483217,23.3011888 C29.4784615,23.3968531 29.3282517,23.413007 29.2353147,23.4667133 C29.1377622,23.5174825 28.9365734,23.4335664 28.7861538,23.4960839 C28.6357343,23.557972 28.6302797,23.7014685 28.531049,23.7505594 C28.1668531,23.9376923 27.6352448,23.7190909 27.3837063,23.7253846 C27.2540559,23.7272727 27.2872028,23.9322378 27.3291608,23.9723077 C27.491958,24.1334266 27.9627273,24.1835664 27.9465734,24.4216783 C27.9413287,24.4764336 27.8087413,24.6669231 27.7399301,24.646993 C27.8588811,24.9604196 28.6214685,25.1251049 29.1323077,25.2539161 C30.5414685,25.6074126 31.9894406,25.2977622 33.3914685,24.8744056 C33.9025175,24.7202098 34.4301399,24.6941958 34.9214685,24.4390909" id="Shape" fill="#EC2024"></path>
                <path d="M38.4016783,20.5099301 C38.6506993,20.3416783 38.9697902,20.3397902 39.1204196,20.1035664 C39.2427273,19.9095105 38.9932867,19.8207692 38.8529371,19.7788112 C37.7551049,19.4429371 36.6969231,19.0734965 35.5571329,18.9866434 C34.4232168,18.9027273 33.3197203,19.0841958 32.1887413,19.2014685 C31.7511189,19.246993 31.3036364,19.2675524 30.9081818,19.4305594 C30.7388811,19.5020979 30.7296503,19.8465734 30.5343357,19.8706993 C30.1529371,19.9183217 29.7753147,19.9638462 29.3905594,19.9951049 C29.2661538,20.0058042 29.2965734,20.2072028 29.3351748,20.2386713 C29.5846154,20.4381818 29.6634965,20.5634266 29.7681818,20.8713986 C29.776993,20.9026573 30.0373427,20.874965 30.0918881,20.9223776 C30.3417483,21.1388811 30.5188112,21.444965 30.8326573,21.5200699 C32.3406294,21.8825874 33.7974126,21.9818182 35.3429371,21.6247552 C35.5074126,21.5853147 35.6282517,21.4520979 35.7765734,21.4315385 C36.316993,21.3625175 36.881958,21.3312587 37.3017483,20.9295105 C37.599021,20.6477622 38.0712587,20.7318881 38.4016783,20.5099301" id="Shape" fill="#EC2024"></path>
                <path d="M37.4765035,15.326014 C39.148951,15.1407692 40.601958,14.8965734 42.0652448,13.9883916 C42.1529371,13.9327972 42.0811888,13.6455944 42.007972,13.6340559 C41.6618182,13.5828671 41.2858741,13.4416783 40.9126573,13.779021 C40.7855245,13.8927273 40.5493007,13.6474825 40.3755944,13.753007 C40.2344056,13.837972 40.0927972,14.0634965 39.9633566,14.1216084 C39.6014685,14.2808392 39.2534266,13.9086713 38.8577622,13.9552448 C38.7423776,13.9695105 38.7692308,14.2262937 38.6536364,14.2531469 C38.3154545,14.3345455 38.0167133,13.9640559 37.8243357,14.0884615 C37.5306294,14.2772727 37.2839161,14.518951 36.9274825,14.3578322 C36.5851049,14.2040559 36.1321678,13.8818182 35.8995105,14.0851049 C35.4948252,14.4383916 34.9986713,13.9256643 34.6407692,14.0634965 C34.3399301,14.1824476 33.5265734,14.375035 34.0823077,14.6951748 C35.0639161,15.2668531 36.669021,15.4174825 37.4765035,15.326014" id="Shape" fill="#EC2024"></path>
                <path d="M42.5141958,11.5139161 C40.5106993,11.5703497 38.508042,11.5774825 36.4900699,11.4406993 C34.8348252,11.3288811 33.1942657,11.191049 31.5415385,11.2518881 C29.4358741,11.3305594 27.4718182,11.9865734 25.6025874,13.0441259 C22.9627972,14.5359441 21.0388112,17.146993 20.900979,20.1753147 C20.840979,21.489021 21.0734266,22.6655245 20.8355245,24.1537762 C20.5993007,25.6348951 19.8788811,27.0816084 19.1918182,28.3372028 C20.7451049,27.4711888 21.8236364,25.5704895 22.0023776,23.4182517 C22.1385315,21.7932168 22.0894406,20.1635664 22.7559441,18.7015385 C23.5426573,16.9734965 24.7229371,15.5257343 26.388042,14.4715385 C27.9568531,13.4800699 29.6265734,12.9323077 31.3967832,12.9251748 C36.2297203,12.9065035 41.0458741,13.0881818 45.8842657,12.8169231 C48.6,12.6667133 51.2318182,11.9265734 53.6840559,10.6783217 C55.3609091,9.82006993 57.0029371,8.77573427 58.0346853,7.08629371 C58.1358042,6.88657343 58.5436364,6.22972028 58.603007,6.05265734 C58.6638462,5.87286713 58.5824476,5.87286713 58.5035664,6.0320979 C58.423007,6.19132867 58.0103497,6.6879021 57.8897203,6.84713287 C56.2348951,8.67629371 54.1609091,9.97195804 51.680979,10.5786713 C48.875035,11.2659441 46.1240559,11.4144755 43.306993,11.5084615 C43.0674126,11.5158042 42.7523077,11.5086713 42.5141958,11.5139161" id="Shape" fill="#EC2024"></path>
                <path d="M22.0812587,34.0061538 L19.6695105,32.2923776 L19.3472727,32.5896503 C19.1431469,32.7927273 18.9239161,32.9725175 18.6931469,33.1372028 L21.3230769,34.841958 C21.6474126,34.5306294 21.8817483,34.2459441 22.0812587,34.0061538" id="Shape" fill="#EC2024"></path>
                <path d="M18.6234965,36.5607692 C19.4771329,36.2324476 20.2567133,35.7579021 20.943986,35.1790909 L18.4072028,33.5370629 L18.6234965,36.5607692" id="Shape" fill="#EC2024"></path>
                <path d="M18.2093706,30.7642657 L18.3490909,32.7121678 C18.6971329,32.4641958 18.8618182,32.2646853 19.1311888,31.9357343 C18.8123077,31.6653147 18.4732867,31.1345455 18.2093706,30.7642657" id="Shape" fill="#EC2024"></path>
                <path d="M18.1672028,27.0564336 C18.3354545,27.2966434 18.500979,27.4726573 18.5976923,27.7544056 L18.9125874,27.0325175 L18.1672028,27.0564336" id="Shape" fill="#EC2024"></path>
                <path d="M19.3707692,26.0177622 L18.9608392,25.6086713 C18.5643357,25.2134266 18.1082517,24.901049 17.6133566,24.6736364 L17.4818182,24.7856643 L17.6670629,26.4866434 C17.7673427,26.5705594 17.8646853,26.6603497 17.9542657,26.7579021 L19.0523077,26.6737762 L19.3707692,26.0177622" id="Shape" fill="#EC2024"></path>
                <path d="M13.7905594,24.7766434 L15.2125175,25.8031469 C15.3323077,25.7872028 15.4512587,25.7735664 15.573986,25.7697902 L16.9663636,24.5825874 L16.9502098,24.4271329 C16.5377622,24.307972 16.1055944,24.2435664 15.6633566,24.2435664 C15.0075524,24.2435664 14.373986,24.3813986 13.7905594,24.6373427 L13.7905594,24.7766434" id="Shape" fill="#EC2024"></path>
                <path d="M16.8876923,23.8476923 L16.554965,20.7667133 C16.2631469,20.7354545 15.9660839,20.7140559 15.6635664,20.7140559 C15.0318881,20.7140559 14.4163636,20.7891608 13.822028,20.9242657 L13.796014,24.0453147 C14.3775524,23.8218881 15.0056643,23.6974825 15.6633566,23.6974825 C16.0831469,23.6974825 16.492028,23.752028 16.8876923,23.8476923" id="Shape" fill="#EC2024"></path>
                <path d="M15.6633566,33.5676923 C16.4007692,33.5676923 17.0951748,33.3925175 17.7127972,33.0864336 L16.117972,32.0525874 L14.8642657,33.4961538 C15.1265035,33.5408392 15.393986,33.5676923 15.6633566,33.5676923" id="Shape" fill="#EC2024"></path>
                <path d="M17.3557343,28.9055245 C17.3557343,27.973007 16.5986014,27.213986 15.6635664,27.213986 C14.7312587,27.213986 13.9741259,27.9727972 13.9741259,28.9055245 C13.9741259,29.8405594 14.731049,30.5974825 15.6635664,30.5974825 C16.5986014,30.5976923 17.3557343,29.8405594 17.3557343,28.9055245" id="Shape" fill="#EC2024"></path>
                <path d="M17.7530769,31.2658741 C17.4579021,31.5264336 17.1132168,31.7330769 16.7355944,31.8692308 L17.8487413,32.5896503 L17.7530769,31.2658741" id="Shape" fill="#EC2024"></path>
                <path d="M20.0259441,21.9711189 C19.1364336,21.4118182 18.1304895,21.0218182 17.0551049,20.8363636 L17.3979021,23.9979021 C17.4579021,24.0176224 17.5168531,24.0381818 17.574965,24.0614685 L20.0259441,21.9711189" id="Shape" fill="#EC2024"></path>
                <path d="M16.2648252,25.8237063 C16.5744755,25.8834965 16.8660839,25.991958 17.1354545,26.1348252 L17.0305594,25.1702098 L16.2648252,25.8237063" id="Shape" fill="#EC2024"></path>
                <path d="M13.7762937,26.3987413 C14.0215385,26.2137063 14.2961538,26.0651748 14.5896503,25.9586014 L13.7853147,25.376014 L13.7762937,26.3987413" id="Shape" fill="#EC2024"></path>
                <path d="M12.3688112,32.203007 C12.8725175,32.7069231 13.4720979,33.0744755 14.1245455,33.3035664 L13.8461538,31.479021 C13.831049,31.4674825 13.8148951,31.4582517 13.7995804,31.447972 L11.8497902,31.5813986 C12.0035664,31.8012587 12.1762238,32.0106294 12.3688112,32.203007" id="Shape" fill="#EC2024"></path>
                <path d="M13.3011189,30.9893706 C13.072028,30.729021 12.8895105,30.4321678 12.7571329,30.1099301 L12.1082517,31.072028 L13.3011189,30.9893706" id="Shape" fill="#EC2024"></path>
                <path d="M12.5261538,28.7095804 C12.5521678,28.3374126 12.6415385,27.9841259 12.7829371,27.6581119 L11.5837762,27.8890909 L12.5261538,28.7095804" id="Shape" fill="#EC2024"></path>
                <path d="M12.3688112,25.6084615 C11.8426573,26.1367133 11.4595804,26.7667133 11.2359441,27.4537762 L13.098042,27.0988112 C13.156993,27.0163636 13.216993,26.9358042 13.2832867,26.8609091 L13.2975524,25.0244056 L13.198951,24.9547552 C12.9020979,25.14 12.6218182,25.3556643 12.3688112,25.6084615" id="Shape" fill="#EC2024"></path>
                <path d="M11.0030769,28.9055245 C11.0030769,29.6679021 11.1864336,30.3988112 11.5275524,31.0556643 L12.5754545,29.4975524 C12.5702098,29.461049 12.560979,29.4243357 12.5557343,29.3861538 L11.0767133,28.0955245 C11.030979,28.3613287 11.0030769,28.6309091 11.0030769,28.9055245" id="Shape" fill="#EC2024"></path>
                <path d="M13.1748252,24.331049 C13.216993,24.3077622 13.2608392,24.2874126 13.3027972,24.2658042 L13.3304895,21.054965 C12.3247552,21.3511888 11.4029371,21.8387413 10.6002797,22.4714685 L13.1748252,24.331049" id="Shape" fill="#EC2024"></path>
                <path d="M8.40083916,25.1104196 L10.7561538,27.1651049 C11.1274825,26.1197203 11.8244056,25.2274825 12.7220979,24.611958 L10.2111189,22.7951748 C9.47832168,23.4495105 8.86258741,24.2326573 8.40083916,25.1104196" id="Shape" fill="#EC2024"></path>
                <path d="M7.50146853,28.1744056 L10.5046154,27.5953846 L8.17888112,25.5686014 C7.81657343,26.3765035 7.58370629,27.2527972 7.50146853,28.1744056" id="Shape" fill="#EC2024"></path>
                <path d="M7.46496503,28.9141259 C7.46496503,29.7688112 7.5965035,30.5930769 7.83797203,31.366993 L10.9682517,31.1502797 C10.6372028,30.457972 10.4572028,29.6970629 10.4572028,28.9055245 C10.4572028,28.6288112 10.4794406,28.3577622 10.5199301,28.0938462 L7.4720979,28.6781119 C7.46853147,28.756993 7.46496503,28.8356643 7.46496503,28.9141259" id="Shape" fill="#EC2024"></path>
                <path d="M11.1425874,31.6311189 L8.00706294,31.8467832 C8.33979021,32.7155245 8.81685315,33.5112587 9.40657343,34.2071329 L11.1425874,31.6311189" id="Shape" fill="#EC2024"></path>
                <path d="M13.9374126,33.8154545 C13.2098601,33.5603497 12.5431469,33.15 11.9821678,32.5896503 C11.7988112,32.4062937 11.636014,32.2065734 11.4839161,32.0026573 L9.74601399,34.5832867 C10.3617483,35.2265035 11.0802797,35.7706993 11.8774825,36.1871329 L13.9374126,33.8154545" id="Shape" fill="#EC2024"></path>
                <path d="M14.2602797,34.1913986 L12.3354545,36.4072028 C13.072028,36.7363636 13.8656643,36.9564336 14.6979021,37.0560839 L14.2602797,34.1913986" id="Shape" fill="#EC2024"></path>
                <path d="M14.3901399,31.7884615 L14.5844056,33.069021 L15.4676224,32.0525874 C15.0862238,32.0303497 14.722028,31.936993 14.3901399,31.7884615" id="Shape" fill="#EC2024"></path>
                <path d="M15.6633566,37.1137762 C16.5287413,37.1137762 17.3628671,36.9784615 18.1430769,36.7311189 L17.9194406,33.5972727 C17.225035,33.9329371 16.4590909,34.1146154 15.6635664,34.1146154 C15.3486713,34.1146154 15.0373427,34.0831469 14.7329371,34.0275524 L15.2018182,37.1016084 C15.3539161,37.1087413 15.5093706,37.1137762 15.6633566,37.1137762" id="Shape" fill="#EC2024"></path>
                <path d="M20.2252448,22.4471329 L18.0696503,24.2853147 C18.536014,24.5276224 18.9662937,24.8408392 19.3474825,25.2243357 L19.5891608,25.4586713 C19.9892308,24.5420979 20.2378322,23.3859441 20.2252448,22.4471329" id="Shape" fill="#EC2024"></path>
                <path d="M15.6474126,18.7944755 C10.0447552,18.7944755 5.50342657,23.3376923 5.50342657,28.9403497 C5.50342657,34.5427972 10.0447552,39.0843357 15.6474126,39.0843357 C19.1498601,39.0843357 22.2352448,37.3099301 24.058951,34.6128671 L22.8660839,34.1882517 C21.2437762,36.416014 18.6146853,37.863986 15.6474126,37.863986 C10.7194406,37.863986 6.72398601,33.8685315 6.72398601,28.9407692 C6.72398601,24.0109091 10.7194406,20.0154545 15.6474126,20.0154545 C17.293007,20.0154545 18.8339161,20.461049 20.1574825,21.236014 L20.1574825,19.831049 C18.740979,19.1723077 17.1264336,18.7944755 15.6474126,18.7944755" id="Shape" fill="#EC2024"></path>
                <path d="M24.9736364,33.5603497 C24.8840559,33.3958741 24.6513986,33.4837762 24.4921678,33.3887413 C24.3740559,33.3190909 24.3195105,33.0774126 24.2039161,32.9834266 C24.1162238,32.91 23.9030769,33.0746853 23.7931469,33.0111189 C23.6391608,32.9192308 23.5220979,32.7228671 23.3993706,32.5877622 C23.2651049,32.4392308 23.1406993,32.2755944 23.0091608,32.1262238 C22.8839161,31.9846154 22.7523776,31.8585315 22.5948252,31.7628671 C22.509021,31.7135664 22.3416084,31.8218182 22.2396503,31.796014 C22.0562937,31.7467133 21.9513986,31.4288811 21.8011888,31.2973427 C21.7151748,31.2203497 21.5792308,31.2115385 21.5022378,31.1381119 C21.4252448,31.0627972 21.4093007,30.9251748 21.3268531,30.8358042 C21.2202797,30.7168531 21.061049,30.6746853 20.9456643,30.579021 C20.7853846,30.4508392 20.6681119,30.1223077 20.5455944,29.9408392 C20.4247552,29.7616783 20.244965,29.7415385 20.1279021,29.5837762 C19.981049,29.3863636 19.895035,29.0523776 19.7171329,28.8528671 C19.5381818,28.6495804 19.089021,28.9734965 18.9511888,29.2466434 C18.7265035,29.6941259 18.7390909,30.2603497 19.0835664,30.6434266 C20.7713287,32.5286014 22.9627972,34.091958 25.4720979,34.5046154 C25.2847552,34.2367133 25.0873427,33.7642657 24.9736364,33.5603497" id="Shape" fill="#EC2024"></path>
                <path d="M31.1462937,9.30020979 C35.7493007,9.12041958 43.7806993,9.5786014 47.9863636,8.40188811 C51.725035,7.35755245 54.440979,5.44972028 56.0129371,2.84391608 C56.2627972,2.43146853 56.1302098,2.36160839 55.7330769,2.74468531 C53.1834965,5.19461538 50.8634266,6.06545455 47.5648951,6.96734266 C43.7158741,8.02258741 36.7651049,7.74587413 31.1460839,7.86482517 C25.6426573,7.9820979 20.8185315,10.1555245 19.3705594,14.4402797 L20.5661538,14.919021 C22.1806993,11.4513986 26.0087413,9.49972028 31.1462937,9.30020979" id="Shape" fill="#EC2024"></path>
                <path d="M3.04972028,23.5783217 C3.37363636,23.8476923 3.11244755,24.3167832 3.35223776,24.6371329 C3.64741259,22.5960839 5.19923077,21.0881119 6.60839161,19.6455944 C10.297972,15.8630769 16.016014,15.1006993 20.8831469,16.9493706 C20.9725175,16.9841958 21.3325175,16.228951 21.2070629,16.1762937 C18.3211888,14.91 15.5723077,14.7704895 12.6138462,15.4262937 C10.1511189,15.9748951 8.08048951,17.0853147 6.22909091,18.7676224 C4.79286713,20.0741958 3.61972028,21.5068531 2.72664336,23.2151748 C2.65594406,23.3527972 2.54034965,23.5651049 2.65594406,23.6846853 C2.7748951,23.8090909 2.90643357,23.4629371 3.04972028,23.5783217" id="Shape" fill="#EC2024"></path>
                <path d="M26.9385315,35.1587413 C26.9546853,35.180979 26.7881119,35.2321678 26.7327273,35.2411888 C26.4474126,35.2812587 26.1627273,35.2812587 25.8772028,35.2411888 C25.3565035,35.1677622 24.8070629,34.9869231 24.3686014,34.8962937 C21.3287413,39.48 14.8741259,41.1058741 10.0267133,38.0456643 C8.29090909,36.950979 6.94951049,35.5382517 6.09377622,33.7403497 C5.61146853,32.7285315 5.34944056,31.7001399 5.10062937,30.5861538 C4.9351049,29.8388811 5.06937063,29.1033566 4.92986014,28.3686713 C4.61853147,28.7758741 4.80713287,29.4077622 4.27573427,29.6412587 C4.13076923,29.7065035 3.9534965,29.6832168 3.85237762,29.5158042 C3.75293706,29.353007 3.8013986,29.0888811 3.63041958,29.0469231 C3.34678322,28.9772727 3.34132867,29.403986 2.98699301,29.3200699 C2.95195804,29.311049 2.90286713,29.4140559 2.84643357,29.4356643 C2.66307692,29.4998601 2.50909091,29.1681818 2.37104895,29.3234266 C2.27454545,29.4323077 2.21370629,29.5546154 2.0634965,29.5034266 C1.93909091,29.4597902 1.83986014,29.2170629 1.83986014,29.2304895 C1.74314685,35.827972 7.01034965,41.8246154 13.6168531,42.800979 C14.5716084,42.9423776 15.5131469,43.0065734 16.4777622,42.9182517 C18.5429371,42.7277622 20.4453147,42.1726573 22.2736364,41.1134266 C25.1532168,39.4453846 27.1523077,36.8448252 28.6002797,33.9644056 C27.5041259,33.5922378 26.4123776,33.2267832 25.5157343,32.8888112 C25.5908392,33.8173427 26.5036364,34.5427972 26.9385315,35.1587413" id="Shape" fill="#EC2024"></path>
                <path d="M30.5253147,32.9286713 C30.2702098,32.8569231 30.0463636,32.7155245 29.812028,32.6192308 C29.6670629,32.5600699 29.5292308,32.7837063 29.3735664,32.6916084 C29.0584615,32.5027972 28.7874126,32.2332168 28.5360839,32.0339161 C28.3365734,31.8742657 27.939021,31.4773427 27.7665734,31.556014 C27.7011189,31.5866434 27.6037762,31.9569231 27.4407692,31.833986 C27.0478322,31.5411189 26.793986,31.2237063 26.4268531,30.9035664 C26.2604895,30.7586014 26.0993706,31.2400699 25.8864336,31.1379021 C25.396993,30.8987413 25.2008392,30.3702797 24.8234266,29.9924476 C24.3841259,29.5558741 23.9643357,29.0483916 23.3593007,28.8891608 C23.2581818,28.8614685 23.3154545,29.0079021 23.2195804,29.0834266 C22.758042,29.4440559 22.2505594,28.8264336 21.8013986,28.6214685 C21.3906294,28.430979 21.0281119,28.1303497 20.5665734,28.0972028 C20.4671329,28.091958 20.4706993,28.2388112 20.5093007,28.2843357 C23.1446853,31.402028 26.8046853,33.7422378 30.8215385,33.648042 C30.9153147,33.6463636 31.106014,33.6562238 30.9484615,33.4634266 C30.8248951,33.3098601 30.6843357,32.9725175 30.5253147,32.9286713" id="Shape" fill="#EC2024"></path>
                <path d="M34.2574825,30.6576923 C34.1402098,30.6396503 33.9568531,30.7972028 33.8567832,30.7783217 C33.5454545,30.7220979 33.2993706,30.4395105 32.9198601,30.2397902 C32.763986,30.1592308 32.6836364,30.528042 32.5609091,30.5196503 C31.9338462,30.4841958 31.029021,29.8181119 30.4695105,29.4828671 C30.3686014,29.4247552 29.7715385,29.5434965 29.6723077,29.5642657 C29.3133566,29.6351748 28.8553846,29.004965 28.5709091,28.8725874 C28.3588112,28.7741958 28.0598601,28.6659441 27.8567832,28.8197203 C27.5794406,29.0246853 27.2517483,28.9143357 26.9511189,28.910979 C26.8321678,28.9093007 26.7291608,29.1572727 26.5841958,29.2046853 C26.1725874,29.3370629 25.7160839,29.0488112 25.3107692,29.2502098 C25.2998601,29.2556643 25.2427972,29.3408392 25.2461538,29.368951 C25.2740559,29.6242657 25.5576923,29.6662238 25.7446154,29.7799301 C26.4398601,30.204965 27.1523077,30.4894406 27.8897203,30.7886014 C28.9921678,31.235035 30.125035,31.5688112 31.3260839,31.6768531 C32.6762937,31.7976923 34.5,31.9848252 35.6104196,31.6565035 C35.6670629,31.6384615 35.5793706,31.4253147 35.4098601,31.2973427 C35.2365734,31.1630769 34.9797902,31.113986 34.8715385,31.0388811 C34.6206294,30.8607692 34.4867832,30.6906294 34.2574825,30.6576923" id="Shape" fill="#EC2024"></path>
                <path d="M40.0892308,27.982028 C39.7831469,28.0716084 39.5469231,27.8483916 39.2918182,27.9451049 C39.2339161,27.9694406 39.1934266,28.0640559 39.1434965,28.0659441 C38.6658042,28.0730769 38.3444056,27.5567832 37.8558042,27.5953846 C37.7341259,27.6060839 37.7358042,27.8209091 37.6336364,27.8444056 C37.3313287,27.9157343 37.0634266,27.5498601 36.7925874,27.6813986 C36.6002098,27.7753846 36.4640559,27.7690909 36.2771329,27.7143357 C36.0371329,27.6446853 35.8575524,27.4306993 35.6246853,27.3941958 C35.4216084,27.361049 35.2176923,27.5643357 34.9867133,27.4978322 C34.4097902,27.3297902 33.9629371,26.7822378 33.3446853,26.9118881 C33.0386014,26.977972 32.7774126,26.7686014 32.5646853,26.8955245 C32.3351748,27.0325175 32.2672028,27.1999301 32.0345455,27.3386014 C31.8755245,27.4344755 31.5031469,27.421049 31.3365734,27.5238462 C31.2096503,27.6008392 31.1792308,27.7951049 31.0342657,27.8540559 C30.7653147,27.9677622 30.4439161,27.8872028 30.1894406,28.0296503 C30.1600699,28.0483217 30.1439161,28.1897203 30.2515385,28.2182517 C32.0624476,28.7165035 33.7854545,29.2617483 35.6286713,29.2569231 C37.4364336,29.2554545 39.2305594,29.2632168 41.006014,28.7148252 C41.1474126,28.6728671 41.1767832,28.5885315 41.0607692,28.4561538 C40.8115385,28.1653846 40.4670629,27.8702098 40.0892308,27.982028" id="Shape" fill="#EC2024"></path>
                <path d="M45.5557343,23.9792308 C45.1533566,24.1665734 44.6853147,23.9597203 44.2386713,24.0633566 C44.1213986,24.091049 44.2090909,24.2576224 44.0937063,24.2744056 C43.6554545,24.3371329 43.2016783,24.2255245 42.7892308,24.3864336 C42.468042,24.5108392 42.0811888,24.3694406 41.7276923,24.3774126 C41.5934266,24.3811888 41.5900699,24.5618182 41.5682517,24.7067832 C41.5495804,24.8334965 41.3626573,24.9069231 41.3081119,24.8901399 C40.8677622,24.7602797 40.447972,24.7122378 40.0051049,24.6465734 C38.8873427,24.4827273 37.7823776,24.1275524 36.731958,24.440979 C36.3887413,24.543986 35.9362238,24.6281119 35.6737762,24.8955944 C35.572028,24.9983916 35.4654545,25.2037762 35.330979,25.2534965 C34.6886014,25.4844755 33.9897902,25.53 33.350979,25.7555245 C33.1556643,25.8253846 32.7879021,26.0966434 32.9248951,26.1333566 C35.6068531,26.8170629 38.2271329,26.8877622 41.011049,26.366014 C43.0514685,25.9848252 44.9223776,25.4093706 46.6762238,24.4231469 C46.5438462,24.2557343 45.8618182,23.836993 45.5557343,23.9792308" id="Shape" fill="#EC2024"></path>
                <path d="M50.1060839,19.4362238 C49.8539161,19.5203497 49.5058741,19.2805594 49.2874825,19.4416783 C48.9627273,19.6804196 48.5815385,19.6384615 48.2483916,19.6036364 C48.0893706,19.5864336 47.8397203,19.5302098 47.6985315,19.6403497 C47.608951,19.711049 47.7383916,19.8264336 47.8252448,19.9034266 C46.9841958,20.1931469 46.057972,19.9220979 45.2634965,20.2424476 C45.2026573,20.2686713 45.1676224,20.5602797 45.020979,20.5888112 C44.2900699,20.7373427 43.6063636,20.4499301 42.8804895,20.5814685 C42.6971329,20.6162937 42.78,21.0067133 42.5851049,21.0163636 C41.9345455,21.0467832 41.300979,20.9922378 40.6523077,20.9643357 C39.8792308,20.9330769 39.1676224,21.213986 38.4365035,21.4378322 C38.22,21.5030769 38.1537063,21.8477622 37.921049,21.8825874 C37.2912587,21.9801399 36.6495105,21.8683217 36.0742657,22.1517483 C36.033986,22.1725175 36.0320979,22.3667832 36.0742657,22.3892308 C36.7793706,22.7861538 37.5881119,23.0628671 38.0679021,23.7046154 C42.9744755,23.6555245 48.2521678,23.0135664 52.3355245,19.6651049 C52.4156643,19.5988112 51.9318881,19.4987413 51.6732168,19.4379021 C51.4191608,19.3797902 51.2097902,19.3797902 50.902028,19.2786713 C50.6272028,19.1890909 50.3754545,19.3485315 50.1060839,19.4362238" id="Shape" fill="#EC2024"></path>
                <path d="M55.1997902,14.8231469 C55.1502797,14.7946154 54.4078322,14.6603497 53.9970629,14.7579021 C53.9112587,14.7776224 53.8586014,14.9206993 53.7734266,14.9332867 C53.2464336,15.0201399 52.8725874,15.2723077 52.3338462,15.2874126 C52.2218182,15.2928671 51.9795105,15.3715385 51.8332867,15.4413986 C51.6392308,15.5345455 51.3717483,15.3035664 51.2194406,15.4753846 C51.1204196,15.5853147 51.292028,15.8513287 51.1130769,15.9362937 C50.6431469,16.1553147 50.0955944,15.7617483 49.6355245,16.0588112 C49.5041958,16.1465035 49.779021,16.44 49.6059441,16.4926573 C48.9448951,16.7003497 47.8027972,15.6757343 47.3725175,16.7406294 C47.3047552,16.906993 47.0979021,16.8302098 46.9690909,16.7970629 C46.8444755,16.7637063 46.6665734,16.7074825 46.5931469,16.7693706 C46.1884615,17.0976923 45.9505594,17.2292308 45.3824476,17.07 C45.2374825,17.0278322 45.2358042,17.4564336 44.9576224,17.3876224 C44.6364336,17.3125175 44.3301399,17.0815385 44.0366434,17.2113986 C43.9013287,17.2722378 44.0026573,17.6274126 43.803986,17.6454545 C43.0095105,17.7224476 42.1898601,17.6068531 41.4568531,17.9334965 C41.2768531,18.0140559 41.2588112,18.339021 41.0074825,18.380979 C40.4481818,18.4722378 39.8918182,18.4078322 39.3725874,18.5769231 C39.2884615,18.6035664 39.3071329,18.8517483 39.4353147,18.8712587 C39.770979,18.9213986 40.1483916,18.8676923 40.4062238,19.0214685 C40.7202797,19.2083916 40.9197902,19.7383217 41.2275524,19.7509091 C43.6686713,19.8503497 46.0984615,19.4895105 48.4535664,18.7082517 C50.9278322,17.8877622 53.1998601,16.7603497 55.1997902,15.0117483 C55.3223077,14.9045455 55.2595804,14.8598601 55.1997902,14.8231469" id="Shape" fill="#EC2024"></path>
                <path d="M31.6481119,38.6108392 C31.0378322,38.6108392 30.5429371,38.1188811 30.5429371,37.5086014 C30.5429371,36.8983217 31.0376224,36.4034266 31.6481119,36.4034266 C32.2586014,36.4034266 32.7513986,36.8981119 32.7513986,37.5086014 C32.7513986,38.1190909 32.2586014,38.6108392 31.6481119,38.6108392 L31.6481119,38.6108392 Z M31.6481119,36.103007 C30.8714685,36.103007 30.2425175,36.7325874 30.2425175,37.5086014 C30.2425175,38.2852448 30.8714685,38.9135664 31.6481119,38.9135664 C32.4228671,38.9135664 33.052028,38.2852448 33.052028,37.5086014 C33.0522378,36.7325874 32.4230769,36.103007 31.6481119,36.103007 L31.6481119,36.103007 Z" id="Shape" fill="#EC2024"></path>
                <path d="M31.7475524,37.357972 L31.3718182,37.357972 L31.3718182,37.0074126 L31.7475524,37.0074126 C31.8442657,37.0074126 31.9227273,37.0862937 31.9227273,37.181958 C31.9227273,37.2793007 31.8442657,37.357972 31.7475524,37.357972 L31.7475524,37.357972 Z M32.2235664,37.181958 C32.2235664,36.9197203 32.0104196,36.7048951 31.7475524,36.7048951 L31.0711888,36.7048951 L31.0711888,38.311049 L31.3718182,38.311049 L31.3718182,37.6588112 L31.5874825,37.6588112 L31.8914685,38.311049 L32.2252448,38.311049 L31.9086713,37.6309091 C32.0939161,37.565035 32.2235664,37.3888112 32.2235664,37.181958 L32.2235664,37.181958 Z" id="Shape" fill="#EC2024"></path>
            </g>
        </g>
    </g>
</svg>