<?xml version="1.0" encoding="UTF-8" standalone="no"?>
<svg width="30px" height="30px" viewBox="0 0 30 30" version="1.1" xmlns="http://www.w3.org/2000/svg" xmlns:xlink="http://www.w3.org/1999/xlink">
    <!-- Generator: Sketch 40.3 (33839) - http://www.bohemiancoding.com/sketch -->
    <title>Artboard Copy</title>
    <desc>Created with Sketch.</desc>
    <defs></defs>
    <g id="Page-1" stroke="none" stroke-width="1" fill="none" fill-rule="evenodd">
        <g id="Artboard-Copy">
            <g id="redwings" transform="translate(0.000000, 3.500000)">
                <g id="Page-1">
                    <g id="Artboard">
                        <g id="Layer_1" transform="translate(0.000000, 0.381119)">
                            <path d="M27.5998951,7.505979 C26.5999301,8.3802797 25.4639161,8.943986 24.2267832,9.35423075 C23.0491258,9.74486015 21.8342307,9.92517485 20.6137762,9.87555945 C20.4598951,9.86926575 20.3601398,9.6044056 20.2031119,9.51083915 C20.0741958,9.43395105 19.8854895,9.4606993 19.7176573,9.43573425 C19.6536713,9.42587415 19.6442307,9.3018881 19.6862937,9.28856645 C19.9459091,9.204021 20.2240909,9.2361189 20.5037413,9.1905944 C20.6293007,9.1695105 20.6383217,9.00713285 20.7284265,8.96685315 C21.0948251,8.80353145 21.5046503,8.86132865 21.901993,8.82283215 C22.0013287,8.8139161 21.9507693,8.6362238 22.0183217,8.6058042 C22.164965,8.54087415 22.3181119,8.65636365 22.4788112,8.6939161 C22.6179021,8.7283217 22.6187412,8.514021 22.6912238,8.5351049 C22.9753846,8.6147203 23.0943357,8.54895105 23.2965735,8.3847902 C23.3332867,8.35395105 23.4222378,8.38206295 23.4845454,8.39863635 C23.548951,8.4152098 23.6523776,8.4536014 23.6862588,8.3704196 C23.9015035,7.83797205 24.4724475,8.3503846 24.8029721,8.24643355 C24.8894056,8.2201049 24.7520979,8.07335665 24.8177623,8.0295105 C25.0477972,7.88087415 25.3215734,8.07776225 25.5565385,7.96825175 C25.646014,7.92576925 25.5602098,7.79286715 25.6097203,7.7377972 C25.6858742,7.6518881 25.8196154,7.7673776 25.9166434,7.7208042 C25.9896504,7.68587415 26.1109091,7.64653845 26.1669231,7.6438112 C26.4362937,7.63615385 26.6233217,7.51006995 26.8867133,7.46674825 C26.9293007,7.46045455 26.9556293,7.3888112 26.9985315,7.37905595 C27.2039161,7.3302797 27.5751398,7.3974126 27.5998951,7.4116783 C27.6297902,7.42993005 27.6611539,7.45227275 27.5998951,7.505979 L27.5998951,7.505979 L27.5998951,7.505979 Z M25.8366084,9.71895105 C25.9659441,9.74937065 26.2078322,9.7995105 26.1677623,9.83255245 C24.1260839,11.5067832 21.4872378,11.8277622 19.0339511,11.8523077 C18.794056,11.5314335 18.3896853,11.3930769 18.0371329,11.1946154 C18.016049,11.1833916 18.016993,11.0862588 18.0371329,11.0758742 C18.3247553,10.9340559 18.6456294,10.99007 18.9605245,10.9412937 C19.0768532,10.9238811 19.11,10.7515384 19.2182518,10.7189161 C19.5837063,10.606993 19.9396154,10.4665384 20.3261539,10.4821678 C20.6504895,10.4961189 20.9672728,10.5233916 21.2925525,10.5081818 C21.3901049,10.5033567 21.3485665,10.3081468 21.4402448,10.2907342 C21.8031818,10.224965 22.145035,10.3686713 22.5104895,10.2944056 C22.5838112,10.2800349 22.6013287,10.1342308 22.6317483,10.1212238 C23.028986,9.96104895 23.4920979,10.0966783 23.9126224,9.9517133 C23.8691958,9.9132168 23.8044755,9.8555245 23.8492658,9.82017485 C23.9198602,9.7652098 24.0446853,9.7933217 24.1241958,9.8018182 C24.2907693,9.81923075 24.4813637,9.8402098 24.6437413,9.72083915 C24.7529371,9.6402797 24.9269581,9.76017485 25.053042,9.7181119 C25.1877273,9.67426575 25.3136014,9.59454545 25.451014,9.63933565 C25.6048951,9.6898951 25.7095804,9.6898951 25.8366084,9.71895105 L25.8366084,9.71895105 L25.8366084,9.71895105 Z M20.5055245,13.183007 C19.1135665,13.4437762 17.8034266,13.4084265 16.4624476,13.0666783 C16.394056,13.0483217 16.5779371,12.9126923 16.6754895,12.8777622 C16.995,12.7651049 17.3444056,12.7422377 17.6654895,12.6267483 C17.7327273,12.6018881 17.7859091,12.4991958 17.8368881,12.4477972 C17.9681119,12.314056 18.1943707,12.271993 18.365979,12.2204895 C18.8911888,12.0638811 19.4435665,12.2413637 20.0025525,12.3232867 C20.223986,12.3561189 20.4338811,12.3801399 20.654056,12.44507 C20.6813287,12.4534616 20.7747902,12.4167482 20.7841259,12.3533916 C20.795035,12.2809091 20.7967133,12.1904895 20.8638462,12.1887063 C21.0405944,12.1847203 21.2339161,12.2554196 21.3946154,12.1932168 C21.6008392,12.1126573 21.8277273,12.1685665 22.0468532,12.1372028 C22.1046504,12.1288112 22.0608042,12.0455245 22.1193357,12.0316783 C22.3426574,11.9798602 22.5766783,12.0831818 22.7778672,11.9896154 C22.9309091,11.9184965 23.2719231,12.1278672 23.3381119,12.2115734 C22.4611888,12.7046853 21.5257343,12.9923077 20.5055245,13.183007 L20.5055245,13.183007 L20.5055245,13.183007 Z M20.5029021,14.3574126 C19.6151748,14.6316084 18.7181119,14.6277272 17.8142308,14.6284616 C16.8926224,14.6307693 16.0311189,14.3582518 15.1256644,14.1091258 C15.0718532,14.0947553 15.0799301,14.0240559 15.0946154,14.0148252 C15.2218532,13.9436014 15.3825525,13.9838811 15.5170279,13.9270279 C15.5895105,13.8975524 15.6047203,13.8004196 15.6681818,13.7619231 C15.7514686,13.7105245 15.9376574,13.7172378 16.0171678,13.6693007 C16.1334965,13.599965 16.1675874,13.5162588 16.2822378,13.4477623 C16.3886014,13.3844056 16.5191958,13.4890909 16.6722378,13.455944 C16.9813636,13.3911189 17.2047902,13.6648951 17.4932517,13.7489161 C17.6087413,13.782063 17.7106993,13.6805245 17.8122378,13.6970979 C17.9286713,13.7154546 18.0185665,13.8223426 18.1384615,13.8571678 C18.2319231,13.8845454 18.3,13.8876923 18.3961888,13.8406993 C18.5316084,13.7749301 18.6654545,13.9578672 18.8167133,13.9222028 C18.8676923,13.9105594 18.8669581,13.803042 18.9277972,13.7976923 C19.1720979,13.7783916 19.3326923,14.0365385 19.5716433,14.032972 C19.5966084,14.0320279 19.6168532,13.9847203 19.6458042,13.9725525 C19.7733567,13.9241958 19.8914685,14.0358042 20.0445105,13.991014 C20.2334266,13.9351049 20.4056643,14.0826923 20.5301749,14.2280769 C20.5882867,14.2942657 20.5736014,14.3364336 20.5029021,14.3574126 L20.5029021,14.3574126 L20.5029021,14.3574126 Z M17.7049301,15.6486713 C17.7896853,15.7126573 17.8335315,15.8192307 17.8052098,15.8282517 C17.25,15.9923077 16.3381469,15.8988461 15.663042,15.8384265 C15.0625175,15.7843007 14.4960839,15.6175175 13.9448602,15.3943007 C13.5761539,15.2447203 13.220035,15.1025874 12.8723077,14.889965 C12.7788461,14.8331119 12.637028,14.8121328 12.6230769,14.6844755 C12.6212937,14.6703147 12.6499301,14.6278321 12.6553846,14.6251049 C12.858042,14.5244056 13.0862937,14.6685314 13.2920979,14.6023426 C13.3645804,14.5785314 13.4160839,14.4546503 13.4755595,14.4554895 C13.6258742,14.4572727 13.7897203,14.5123426 13.9283916,14.4098601 C14.0299301,14.332972 14.1794056,14.3870979 14.2854546,14.4362937 C14.4276923,14.5024825 14.6566783,14.8175874 14.8361539,14.7821328 C14.8858741,14.7717482 15.1843007,14.7123776 15.2347552,14.7414335 C15.5145105,14.9091608 15.9668182,15.2420979 16.2804546,15.2598251 C16.3418182,15.264021 16.381993,15.0796154 16.4599301,15.1198951 C16.6496853,15.2197552 16.7726224,15.3611538 16.9283916,15.3891608 C16.9785314,15.3986014 17.0702098,15.3198251 17.1287413,15.3288461 C17.2433916,15.3453147 17.3103147,15.4303846 17.4357692,15.5193356 C17.4898951,15.556993 17.6182867,15.5815384 17.7049301,15.6486713 L17.7049301,15.6486713 L17.7049301,15.6486713 Z M15.4106644,16.8241259 C13.4022378,16.8711189 11.5722377,15.7011189 10.2545455,14.1422728 C10.2352447,14.1195105 10.2335665,14.0460839 10.2831818,14.0487063 C10.5140559,14.0652797 10.6953147,14.2155944 10.9005944,14.3108391 C11.1251749,14.4134266 11.3789161,14.7221328 11.6096853,14.5418182 C11.6576224,14.5041608 11.628986,14.4308392 11.6795455,14.4446853 C11.9820629,14.5243007 12.1918532,14.778042 12.4116084,14.9963287 C12.6004196,15.1852448 12.6983916,15.4494755 12.9431119,15.5690559 C13.0495804,15.620035 13.1301399,15.3793007 13.2133217,15.4518881 C13.3968881,15.6118531 13.5238112,15.7705595 13.7202797,15.9170979 C13.8016783,15.9785665 13.8504546,15.7933217 13.8831818,15.7781119 C13.9695105,15.7387762 14.1681818,15.9373426 14.2679371,16.0170629 C14.3936014,16.1167133 14.5291258,16.2513986 14.6866783,16.3459091 C14.7645105,16.391958 14.8334266,16.2801399 14.9059091,16.3097203 C15.0231818,16.3578672 15.1351049,16.4285665 15.2625525,16.4644405 C15.342063,16.4863637 15.4123426,16.655035 15.4741259,16.7319231 C15.5529021,16.8282168 15.4575525,16.8232867 15.4106644,16.8241259 L15.4106644,16.8241259 L15.4106644,16.8241259 Z M11.1368182,20.5566084 C10.2226574,21.0862238 9.27146855,21.3636714 8.2388811,21.459021 C7.75646855,21.5032867 7.2858042,21.4710839 6.80842655,21.4003846 C3.50506993,20.9123077 0.87146853,17.913986 0.91993007,14.6151399 C0.91993007,14.6084266 0.969545455,14.7297902 1.03174825,14.7516084 C1.10685315,14.7770979 1.13727273,14.7159441 1.18552448,14.6616084 C1.25454546,14.583986 1.33153846,14.7498252 1.42321679,14.7177273 C1.45143357,14.7069231 1.47597902,14.6554196 1.49349651,14.6599301 C1.67066434,14.7018881 1.67339161,14.4885315 1.81520979,14.5233567 C1.90059441,14.5443357 1.87636364,14.6763986 1.92618881,14.7577972 C1.97674825,14.8415035 2.06538462,14.853042 2.13786714,14.8205245 C2.40356644,14.7037762 2.30926574,14.3878322 2.46493007,14.1842308 C2.53468532,14.5515735 2.46755245,14.9194406 2.55031469,15.2929721 C2.67472028,15.85007 2.80583916,16.3641609 3.04688811,16.87007 C3.47465035,17.769021 4.14534965,18.4754895 5.01335665,19.0227273 C7.43706295,20.5528322 10.6643707,19.7398951 12.1843007,17.448042 C12.4035314,17.4933567 12.6782518,17.5837762 12.9386014,17.6204895 C13.0813637,17.6405245 13.2236014,17.6405245 13.3663637,17.6204895 C13.3941609,17.615979 13.4774476,17.5904895 13.4692658,17.5792658 C13.2518182,17.2712937 12.7954196,16.9085665 12.7578671,16.4441958 C13.2061888,16.6131818 13.7520629,16.7959091 14.3001399,16.981993 C13.5762588,18.4223077 12.5766084,19.7224825 11.1368182,20.5566084 L11.1368182,20.5566084 L11.1368182,20.5566084 Z M1.36332168,11.6075874 C1.80975525,10.7533217 2.39643357,10.0370979 3.11454546,9.3838112 C4.04024476,8.54265735 5.07555945,7.98734265 6.3069231,7.71314685 C7.78615385,7.38524475 9.1605944,7.455 10.6035315,8.08814685 C10.6662588,8.1144755 10.4862588,8.4920979 10.4415734,8.4746853 C8.008007,7.55024475 5.148986,7.93143355 3.30419581,9.8227972 C2.59951049,10.544056 1.8237063,11.297937 1.67611888,12.3185664 C1.55622378,12.1583916 1.68681818,11.9238461 1.52486014,11.7891608 C1.45332168,11.7314685 1.38744755,11.9046504 1.32797203,11.8424475 C1.27017483,11.7825525 1.32797203,11.6763986 1.36332168,11.6075874 L1.36332168,11.6075874 L1.36332168,11.6075874 Z M15.5731469,3.93241258 C18.3825525,3.87293706 21.858042,4.01118881 23.7825525,3.48367133 C25.4318182,3.03262238 26.5917483,2.59730769 27.8666434,1.37234266 C28.0652098,1.1808042 28.1315035,1.21573427 28.0065735,1.42195804 C27.2205944,2.72486014 25.8627273,3.67877622 23.9932867,4.20094405 C21.8903497,4.7893007 17.8747553,4.56020979 15.5732518,4.65010489 C13.0044755,4.74986014 11.0904546,5.7256993 10.2832867,7.4595105 L9.6854895,7.22013985 C10.4093707,5.07776225 12.8214336,3.99094405 15.5731469,3.93241258 L15.5731469,3.93241258 L15.5731469,3.93241258 Z M9.5417832,15.3216084 C9.36954545,15.1300699 9.36325175,14.846958 9.4755944,14.6232168 C9.5445105,14.4866433 9.7690909,14.3246853 9.85856645,14.4263287 C9.9476224,14.5260839 9.9905245,14.6930769 10.0639511,14.7917832 C10.1225874,14.8706644 10.2124825,14.8808391 10.2727972,14.9703147 C10.3340559,15.0610489 10.3927972,15.2253147 10.4728322,15.2894056 C10.5305245,15.3372377 10.6101398,15.3582168 10.6634266,15.4177972 C10.7046504,15.4625874 10.7126224,15.5312937 10.7511189,15.5689511 C10.7896154,15.6056643 10.8575874,15.6100699 10.9005944,15.6485665 C10.9756993,15.7143357 11.0281469,15.8732517 11.1198252,15.8979021 C11.1708042,15.9108042 11.2545105,15.8565735 11.2974126,15.8813287 C11.3761888,15.9291609 11.4419581,15.9923077 11.5045804,16.063007 C11.5703497,16.1376923 11.6325525,16.2195105 11.6996853,16.2937762 C11.7609441,16.3613287 11.8195804,16.4594056 11.8965735,16.5054545 C11.9515385,16.5372377 12.0581119,16.455 12.1019581,16.4916084 C12.1596503,16.5384965 12.187028,16.6594405 12.2460839,16.6942657 C12.3256993,16.7417832 12.4420279,16.6978321 12.4868182,16.78007 C12.5436714,16.8821329 12.6424825,17.1183566 12.736049,17.2522028 C11.4813986,17.045979 10.3856644,16.2643007 9.5417832,15.3216084 L9.5417832,15.3216084 L9.5417832,15.3216084 Z M7.8237063,10.0075175 C5.3597203,10.0075175 3.36199301,12.0052447 3.36199301,14.4701748 C3.36199301,16.934056 5.3597203,18.9317832 7.8237063,18.9317832 C9.30734265,18.9317832 10.6218881,18.2079021 11.4330419,17.0939161 L12.0294755,17.3062238 C11.1176224,18.6547553 9.57493005,19.541958 7.8237063,19.541958 C5.0223776,19.541958 2.75171329,17.2712937 2.75171329,14.469965 C2.75171329,11.6686363 5.0223776,9.39702795 7.8237063,9.39702795 C8.5632168,9.39702795 9.3704895,9.58594405 10.0787413,9.9151049 L10.0787413,10.6175874 C9.41695805,10.2303147 8.6465035,10.0075175 7.8237063,10.0075175 L7.8237063,10.0075175 L7.8237063,10.0075175 Z M9.67374125,12.612063 C9.48314685,12.4204196 9.268007,12.2638112 9.03482515,12.1425525 L10.1126224,11.2234615 C10.1189161,11.6928671 9.9946154,12.2709441 9.7945804,12.7291259 L9.67374125,12.612063 L9.67374125,12.612063 L9.67374125,12.612063 Z M7.8316783,17.0572028 C8.22944055,17.0572028 8.6125175,16.9663637 8.9596154,16.7985314 L9.07143355,18.3654545 C8.68132865,18.4892308 8.26426575,18.5567832 7.83157345,18.5567832 C7.7545804,18.5567832 7.67685315,18.5542657 7.6006993,18.5505944 L7.36625875,17.0135664 C7.51856645,17.0414686 7.67423075,17.0572028 7.8316783,17.0572028 L7.8316783,17.0572028 L7.8316783,17.0572028 Z M7.2922028,16.5345105 L7.19506995,15.8942308 C7.3611189,15.9684965 7.5431119,16.01507 7.7338112,16.0262937 L7.2922028,16.5345105 L7.2922028,16.5345105 L7.2922028,16.5345105 Z M7.13013985,17.0956993 L7.34895105,18.527937 C6.93283215,18.4781119 6.536014,18.3681818 6.16772725,18.2034965 L7.13013985,17.0956993 L7.13013985,17.0956993 L7.13013985,17.0956993 Z M5.74185315,16.0013287 C5.8179021,16.1032867 5.8994056,16.2031468 5.990979,16.2948252 C6.27157345,16.575 6.60493005,16.7801749 6.9686014,16.9077273 L5.93863635,18.0935665 C5.54003495,17.8854545 5.18066435,17.6133567 4.8729021,17.2916434 L5.74185315,16.0013287 L5.74185315,16.0013287 L5.74185315,16.0013287 Z M5.5712937,15.8155594 L4.70328672,17.1035664 C4.40842658,16.7556293 4.17,16.3577623 4.00353147,15.9233916 L5.5712937,15.8155594 L5.5712937,15.8155594 L5.5712937,15.8155594 Z M5.25996505,14.0469231 C5.23982515,14.1788811 5.2286014,14.3144056 5.2286014,14.4527622 C5.2286014,14.8485314 5.3186014,15.228986 5.48412585,15.5751398 L3.91898602,15.6834965 C3.79825175,15.2965384 3.73248252,14.8844056 3.73248252,14.4570629 C3.73248252,14.4178322 3.73426574,14.3784965 3.73604895,14.339056 L5.25996505,14.0469231 L5.25996505,14.0469231 L5.25996505,14.0469231 Z M5.2523077,13.7976923 L3.75073427,14.0872028 C3.79195804,13.6263986 3.90828672,13.1882517 4.08944056,12.7843007 L5.2523077,13.7976923 L5.2523077,13.7976923 L5.2523077,13.7976923 Z M6.36104895,12.305979 C5.9122028,12.6137413 5.56374125,13.0598602 5.3780769,13.5825524 L4.20041958,12.5552098 C4.43129371,12.1162238 4.73916084,11.7247552 5.10555945,11.3975874 L6.36104895,12.305979 L6.36104895,12.305979 L6.36104895,12.305979 Z M6.6513986,12.1329021 C6.6304196,12.1437063 6.6084965,12.1537762 6.5874126,12.1655245 L5.30013985,11.2358392 C5.70146855,10.9194755 6.1623776,10.6755944 6.66524475,10.5275874 L6.6513986,12.1329021 L6.6513986,12.1329021 L6.6513986,12.1329021 Z M6.27776225,14.6930769 C6.2803846,14.7122728 6.285,14.7305245 6.2876224,14.7487762 L5.76367135,15.5278322 C5.5932168,15.1994056 5.50143355,14.833951 5.50143355,14.4527622 C5.50143355,14.3153496 5.5152797,14.1806644 5.53814685,14.0477622 L6.27776225,14.6930769 L6.27776225,14.6930769 L6.27776225,14.6930769 Z M6.64153845,13.4304545 C6.6084965,13.4677972 6.5783916,13.5081818 6.5489161,13.5494056 L5.61786715,13.7268881 C5.7296853,13.3834615 5.9212238,13.0683566 6.1843007,12.8042307 C6.3108042,12.6778321 6.45094405,12.57 6.5994755,12.4773776 L6.6487762,12.5122028 L6.64153845,13.4304545 L6.64153845,13.4304545 L6.64153845,13.4304545 Z M6.2630769,14.3547902 L5.7918881,13.9445454 L6.39146855,13.829056 C6.32076925,13.9920629 6.2760839,14.1686014 6.2630769,14.3547902 L6.2630769,14.3547902 L6.2630769,14.3547902 Z M6.65055945,15.4946853 L6.05412585,15.536014 L6.37856645,15.054965 C6.44465035,15.2160839 6.536014,15.3645105 6.65055945,15.4946853 L6.65055945,15.4946853 L6.65055945,15.4946853 Z M6.8996853,15.7238811 C6.90734265,15.7291259 6.9154196,15.7337413 6.92297205,15.7394056 L7.06216785,16.6516783 C6.73604895,16.5371328 6.43625875,16.3533567 6.1843007,16.1013986 C6.088007,16.0052098 6.0016783,15.9005245 5.9247902,15.7904895 L6.8996853,15.7238811 L6.8996853,15.7238811 L6.8996853,15.7238811 Z M7.29482515,12.9793007 C7.1480769,13.0325874 7.01076925,13.1068532 6.88814685,13.1993707 L6.89255245,12.688007 L7.29482515,12.9793007 L7.29482515,12.9793007 L7.29482515,12.9793007 Z M8.56772725,13.0674126 C8.43304195,12.9958742 8.28723775,12.9417482 8.1324126,12.9118532 L8.5152797,12.5852098 L8.56772725,13.0674126 L8.56772725,13.0674126 L8.56772725,13.0674126 Z M8.52744755,10.4182867 C9.06513985,10.5109091 9.5681119,10.706014 10.0128672,10.9856644 L8.7873776,12.0308392 C8.7583217,12.0193007 8.72884615,12.0089161 8.69884615,11.999056 L8.52744755,10.4182867 L8.52744755,10.4182867 L8.52744755,10.4182867 Z M8.3677972,15.9346154 C8.5566084,15.8665385 8.72884615,15.7632168 8.87653845,15.6329371 L8.92437065,16.2948252 L8.3677972,15.9346154 L8.3677972,15.9346154 L8.3677972,15.9346154 Z M7.8316783,15.2988461 C7.3655245,15.2988461 6.98695805,14.9203846 6.98695805,14.4528671 C6.98695805,13.9866084 7.3654196,13.6070979 7.8316783,13.6070979 C8.2993007,13.6070979 8.67776225,13.9865035 8.67776225,14.4528671 C8.67786715,14.9202797 8.2993007,15.2988461 7.8316783,15.2988461 L7.8316783,15.2988461 L7.8316783,15.2988461 Z M8.058986,16.0262937 L8.8563986,16.5432168 C8.5476923,16.6962587 8.2004895,16.7838461 7.8316783,16.7838461 C7.696993,16.7838461 7.56325175,16.7704196 7.43213285,16.7480769 L8.058986,16.0262937 L8.058986,16.0262937 L8.058986,16.0262937 Z M6.898007,12.0226573 L6.911014,10.4621328 C7.2081818,10.3945804 7.51594405,10.3570279 7.8317832,10.3570279 C7.98304195,10.3570279 8.13157345,10.3677272 8.2774825,10.3833566 L8.44384615,11.9238461 C8.2461189,11.876014 8.0416783,11.8487412 7.8317832,11.8487412 C7.50283215,11.8487412 7.1887762,11.910944 6.898007,12.0226573 L6.898007,12.0226573 L6.898007,12.0226573 Z M7.8316783,12.1216783 C8.0526923,12.1216783 8.2687762,12.1538811 8.4751049,12.2134615 L8.4831818,12.2911888 L7.786993,12.8847902 C7.72573425,12.8867832 7.66625875,12.8934965 7.60625875,12.9014685 L6.8952797,12.3882168 L6.8952797,12.3184615 C7.186993,12.1905944 7.5037762,12.1216783 7.8316783,12.1216783 L7.8316783,12.1216783 L7.8316783,12.1216783 Z M8.97713285,13.378951 C8.93234265,13.3301749 8.88356645,13.2852797 8.83353145,13.2433217 L8.7409091,12.3928322 L8.8066783,12.3368182 C9.05412585,12.4505245 9.28227275,12.6067133 9.4804196,12.8043357 L9.6853846,13.0088811 L9.52615385,13.3368881 L8.97713285,13.378951 L8.97713285,13.378951 L8.97713285,13.378951 Z M9.0836014,13.5282168 L9.4562937,13.5162588 L9.29884615,13.8772028 C9.2504895,13.7363287 9.16772725,13.6482168 9.0836014,13.5282168 L9.0836014,13.5282168 L9.0836014,13.5282168 Z M9.17444055,16.3560839 L9.1045804,15.3821328 C9.23653845,15.5673776 9.40615385,15.8326573 9.5654895,15.9678671 C9.4308042,16.1323426 9.34856645,16.2320979 9.17444055,16.3560839 L9.17444055,16.3560839 L9.17444055,16.3560839 Z M10.471993,17.5896503 C10.1284616,17.879056 9.73867135,18.1163286 9.31174825,18.2804895 L9.2034965,16.7686364 L10.471993,17.5896503 L10.471993,17.5896503 L10.471993,17.5896503 Z M9.3466783,16.5686014 C9.46206295,16.4862588 9.5716783,16.3962588 9.67374125,16.2948252 L9.83486015,16.1461888 L11.0407342,17.0030769 C10.940979,17.1230769 10.8237063,17.2653147 10.6617483,17.420979 L9.3466783,16.5686014 L9.3466783,16.5686014 L9.3466783,16.5686014 Z M25.8405944,5.28944055 C27.0804545,4.98608391 28.1175525,4.33825175 28.9449651,3.42367133 C29.0052797,3.34405594 29.2116084,3.09576923 29.2518881,3.01615384 C29.2913287,2.93643356 29.332028,2.93643356 29.3016084,3.02643356 C29.2719231,3.11506993 29.068007,3.4434965 29.0174475,3.54325175 C28.5015734,4.38797203 27.6805595,4.91013986 26.8421328,5.33926575 C25.6161189,5.9633916 24.3002098,6.33346155 22.9422378,6.40856645 C20.5230419,6.5441958 18.114965,6.45335665 15.6984965,6.4626923 C14.8133916,6.46625875 13.9786364,6.74013985 13.1941259,7.23587415 C12.3614686,7.76297205 11.7714336,8.48685315 11.3780769,9.35087415 C11.0448252,10.081993 11.0694755,10.8967133 11.0012937,11.7092307 C10.9119231,12.7853497 10.3726574,13.7356993 9.596014,14.1687063 C9.93965035,13.5409091 10.2997553,12.8174476 10.4178671,12.076993 C10.5368182,11.3328671 10.4205944,10.7446154 10.4505944,10.0877623 C10.5194056,8.5736014 11.4813986,7.2680769 12.8013986,6.52216785 C13.736014,5.9932867 14.7180419,5.6653846 15.7708742,5.62604895 C16.5972378,5.59562935 17.4175175,5.66454545 18.2451399,5.72045455 C19.2541259,5.78884615 20.2554545,5.7852797 21.2572028,5.75706295 C21.3762588,5.75444055 21.5338112,5.758007 21.6536014,5.75444055 C23.062028,5.70734265 24.4376224,5.6330769 25.8405944,5.28944055 L25.8405944,5.28944055 L25.8405944,5.28944055 Z M17.3203846,7.03174825 C17.4993357,6.96283215 17.7474126,7.2191958 17.9497553,7.04255245 C18.0660839,6.9409091 18.2926574,7.1019231 18.4637413,7.1789161 C18.6419581,7.2594755 18.7653147,7.13863635 18.9121679,7.04423075 C19.0083567,6.98202795 19.1577273,7.16727275 19.3268182,7.12657345 C19.3846154,7.11314685 19.3711888,6.98465035 19.4288811,6.9776224 C19.6267133,6.95433565 19.8007343,7.1405245 19.9816783,7.0608042 C20.0463986,7.03174825 20.1172028,6.918986 20.1877972,6.8765035 C20.2745455,6.82374125 20.3926574,6.94636365 20.4563287,6.8895105 C20.6428322,6.72083915 20.8308042,6.79143355 21.003986,6.81702795 C21.0406993,6.8227972 21.0764686,6.9665035 21.0326224,6.9941958 C20.300979,7.4482867 19.5744755,7.5703846 18.7382518,7.663007 C18.3345105,7.70874125 17.5319581,7.63342655 17.0411539,7.3475874 C16.7633916,7.1875175 17.17007,7.0912238 17.3203846,7.03174825 L17.3203846,7.03174825 L17.3203846,7.03174825 Z M17.6715735,10.8124825 C16.8988112,10.991014 16.1703147,10.9413986 15.4164336,10.7601398 C15.2595105,10.7225874 15.170979,10.5695454 15.046049,10.4612937 C15.0187762,10.4375874 14.8886014,10.4514336 14.8841958,10.4358042 C14.8317483,10.2819231 14.7924126,10.2193007 14.6676923,10.1194406 C14.6483916,10.1037063 14.6331818,10.0031119 14.6953846,9.99765735 C14.8877623,9.98202795 15.0765735,9.95926575 15.2672728,9.93545455 C15.365035,9.9233916 15.3696504,9.75115385 15.4541958,9.7153846 C15.6519231,9.6338811 15.8756644,9.6236014 16.0944755,9.60083915 C16.6599651,9.5422028 17.2116084,9.45146855 17.7786714,9.49342655 C18.3485665,9.53685315 18.8776574,9.72157345 19.4265735,9.8895105 C19.4967483,9.9104895 19.6214686,9.95486015 19.5603147,10.0518881 C19.485,10.17 19.3254546,10.170944 19.2009441,10.2550699 C19.0357343,10.3660489 18.7996154,10.323986 18.6510839,10.4648601 C18.4411888,10.6658392 18.1588112,10.6813636 17.8884965,10.7158741 C17.8142308,10.7261538 17.7538112,10.7927622 17.6715735,10.8124825 L17.6715735,10.8124825 L17.6715735,10.8124825 Z M14.5659441,12.6267483 C14.3105245,12.5624475 13.9292308,12.4801049 13.8697553,12.3232867 C13.9041609,12.3332518 13.9703496,12.238007 13.9730769,12.2106293 C13.9811539,12.0915735 13.7457693,12.0665035 13.6643707,11.9859441 C13.6432867,11.966014 13.6268182,11.8634265 13.6916433,11.8624825 C13.8174126,11.8593357 14.0831119,11.9686364 14.2653147,11.87507 C14.3149301,11.8505245 14.3176574,11.7787762 14.3928672,11.7478322 C14.4680769,11.7165735 14.5686714,11.7586363 14.6174476,11.7331469 C14.6639161,11.7062937 14.7391259,11.6982168 14.7739511,11.6503846 C14.7995455,11.615035 14.7583217,11.5155944 14.7958741,11.4788811 C14.8580769,11.4167832 14.9444056,11.4462588 15.0388112,11.385 C15.0992308,11.3466084 15.1551399,11.247063 15.2034965,11.218951 C15.2951749,11.1656644 15.4163287,11.1594755 15.5206993,11.1518182 C15.8168182,11.1307342 16.1143007,11.1437412 16.4149301,11.1823427 C16.6706644,11.2146503 16.918007,11.2391958 17.1698602,11.3124126 C17.5824126,11.4316783 17.9872028,11.5214685 18.3527623,11.7446853 C18.1304895,12.0463636 17.7649301,12.0618881 17.4605245,12.2193356 C17.2148601,12.3468881 16.951049,12.3598951 16.6953147,12.4367832 C15.9944056,12.6486714 15.2705245,12.8034965 14.5659441,12.6267483 L14.5659441,12.6267483 L14.5659441,12.6267483 Z M11.1051399,13.5117483 C11.2138112,13.5302098 11.3001399,13.4688461 11.3891958,13.4908741 C11.5090909,13.51993 11.5588112,13.5311539 11.6509091,13.5784616 C11.7103846,13.5409091 11.8003846,13.5275874 11.8308042,13.5181469 C11.9986364,13.464965 12.1918532,13.5696503 12.3677623,13.5566433 C12.4536714,13.5502447 12.4483217,13.3677272 12.5136713,13.3378322 C12.7561888,13.2276923 13.0752797,13.3887063 13.3315385,13.3248252 C13.3611189,13.3167482 13.3391958,13.183007 13.4519581,13.1002447 C13.4984266,13.0657343 13.7002447,13.0625874 13.76507,13.036993 C13.7722028,13.0106644 13.7798602,12.9511888 13.8393357,12.9207692 C14.0334965,12.8244755 14.3086364,12.9847552 14.5825175,13.0289161 C14.7748951,13.0606993 14.9646503,13.1296154 15.1561888,13.1927622 C15.3045105,13.2415385 15.5287762,13.378951 15.4804196,13.4286714 C14.7077623,14.2138112 13.4992657,14.3083217 12.4361539,14.2321678 C11.8106643,14.1868531 11.1306293,14.1788811 10.6240909,13.7673776 C10.5073427,13.6737063 10.6558742,13.4795454 10.7913986,13.4075874 C10.8885315,13.3560839 11.0030769,13.4943357 11.1051399,13.5117483 L11.1051399,13.5117483 L11.1051399,13.5117483 Z M12.5427273,12.1399301 C12.8460839,12.2831119 13.1659091,12.4056293 13.4030769,12.6418531 C12.8741958,12.961049 12.2863637,13.0580769 11.6788112,13.1578322 C11.4568532,13.1945454 11.2241958,13.2331469 11.0004546,13.1443007 C11.1306293,12.6803497 11.3010839,12.2317133 11.4671329,11.7806644 C11.8455944,11.8411888 12.1945804,11.9757693 12.5427273,12.1399301 L12.5427273,12.1399301 L12.5427273,12.1399301 Z M13.5533916,7.89073425 C13.7265735,7.8303147 13.9448602,7.78195805 13.9181119,7.5472028 C13.9118182,7.49255245 14.0026573,7.46034965 14.051014,7.45405595 C14.1829721,7.43653845 14.3122028,7.4317133 14.4415384,7.39814685 C14.5458042,7.3712937 14.5888112,7.2626224 14.6693707,7.20482515 C14.9506993,7.00132865 15.3028322,7.20073425 15.5767133,7.08356645 C15.7023776,7.0286014 15.8303497,6.99944055 15.9404895,7.06353145 C16.2151049,7.22506995 16.6196853,7.28727275 16.702972,7.6205245 C15.7216783,8.1941958 14.5579721,8.35206295 13.4389511,8.3382168 C13.4441958,8.1731119 13.3847203,7.95073425 13.5533916,7.89073425 L13.5533916,7.89073425 L13.5533916,7.89073425 Z M14.1243357,8.7176224 C14.4836014,8.79545455 14.7602098,8.9824825 15.0818182,9.10867135 C15.2066434,9.15744755 15.4732867,9.30104895 15.352028,9.37174825 C14.3341258,9.9555944 13.153007,10.029965 12.0048252,10.0231468 C12.0168881,9.84923075 12.1036364,9.72744755 12.1430769,9.56506995 C12.1935315,9.3577972 12.5144056,9.305979 12.5094755,9.0191958 C12.5076923,8.8612238 12.8187063,8.89164335 12.9165735,8.7533916 C12.9559091,8.6983217 12.9953497,8.6137762 13.0476923,8.60475525 C13.4115735,8.54444055 13.756993,8.63884615 14.1243357,8.7176224 L14.1243357,8.7176224 L14.1243357,8.7176224 Z M11.7287413,10.7122028 C11.803007,10.6025874 11.8535665,10.4532168 11.9167133,10.4173426 C12.3798252,10.1515384 12.9879021,10.2705944 13.5113286,10.4165035 C13.9627972,10.5417482 14.4285315,10.6482168 14.7601049,10.9972028 C14.7784615,11.0163986 14.7757342,11.0835314 14.7618881,11.0898251 C13.7605595,11.548951 12.6616783,11.7413286 11.5797902,11.6232168 C11.5485315,11.6195454 11.5878672,11.3895105 11.5677273,11.2393007 C11.5529371,11.1345105 11.6541609,11.0740909 11.7355595,10.9762238 C11.7793007,10.922937 11.6741958,10.794965 11.7287413,10.7122028 L11.7287413,10.7122028 L11.7287413,10.7122028 Z M20.5771679,8.7324126 C19.102028,9.3037762 17.5055245,9.3037762 15.9506644,9.2160839 C15.8864686,9.2125175 15.8715735,9.09125875 15.8267832,9.03083915 C15.770035,8.9511189 15.6415385,8.93013985 15.5731469,8.8795804 C15.5180769,8.83835665 15.5235315,8.7686014 15.4639511,8.72034965 C15.408042,8.6737762 15.2576224,8.6854196 15.1673077,8.64513985 C15.1333217,8.6312937 15.0904196,8.52073425 15.1333217,8.49566435 C15.3265385,8.3829021 15.6254895,8.57926575 15.7481119,8.4196154 C15.9516084,8.15653845 16.2133217,8.35195805 16.4499651,8.2611189 C16.5224476,8.23342655 16.5058742,8.13944055 16.5387063,8.09874125 C16.7422028,7.8512937 17.1179371,7.8195105 17.4423776,7.81195805 C17.7091259,7.80566435 18.0266434,7.8145804 18.2607693,7.84416085 C18.9122728,7.9458042 19.4876224,8.045979 20.0639161,8.3233217 C20.223986,8.40125875 20.4074476,8.43975525 20.5484266,8.5802098 C20.6061189,8.63706295 20.555979,8.68625875 20.5771679,8.7324126 L20.5771679,8.7324126 L20.5771679,8.7324126 Z M29.4607343,3.14538462 C29.4213986,3.30472028 29.3738811,3.45136364 29.3143007,3.62097902 C28.8753147,4.86524476 27.9157343,5.66255245 26.8767483,6.42146855 C25.9026923,7.13244755 24.9223427,7.5794056 23.763042,7.84783215 C22.8817133,8.05143355 22.0364686,8.23353145 21.1515735,8.1704895 C20.9479721,8.1556993 20.7912588,8.02185315 20.6016084,7.9283916 C20.5202098,7.88905595 20.3818532,7.9011189 20.2991958,7.85454545 C20.2079371,7.8022028 20.2508392,7.68503495 20.3626574,7.6647902 C20.4947203,7.64066435 20.6427273,7.6947902 20.7447902,7.6370979 C21.0029371,7.49076925 21.2861539,7.55024475 21.5416783,7.46842655 C21.6929371,7.421014 21.5457693,7.20755245 21.6584266,7.17272725 C21.8039161,7.12573425 21.9635665,7.1095804 22.1157693,7.0688811 C22.1886714,7.0495804 22.2014686,6.87293705 22.2382867,6.86213285 C22.4472378,6.8012937 22.8074476,6.89034965 23.0865735,6.8848951 C23.1747902,6.88405595 23.1152098,6.72346155 23.2243007,6.72157345 C23.5742308,6.718007 23.5428672,6.761014 23.7787762,6.60356645 C23.9948602,6.459021 24.5187063,6.6622028 24.5124126,6.3296853 C24.954021,6.25636365 25.4270979,6.3873776 25.8248602,6.09482515 C25.8896853,6.04814685 26.0086364,6.09482515 26.0979021,6.03797205 C26.1491958,6.00534965 26.1456294,5.92164335 26.2087762,5.9032867 C26.3747203,5.85325175 26.5506294,5.85503495 26.7053497,5.7833916 C26.7962937,5.74132865 26.7806644,5.58566435 26.8279721,5.5645804 C27.7921679,5.12653845 28.5904196,4.53734265 29.1473077,3.62181818 C29.2565035,3.44328672 29.3782867,3.19447553 29.4087063,3.11486014 C29.4379721,3.03534965 29.4858042,3.04741259 29.4607343,3.14538462 L29.4607343,3.14538462 L29.4607343,3.14538462 Z M28.2146853,7.05723775 C27.8203846,7.02587415 27.4275525,7.0670979 27.0333567,7.03625875 C26.9703147,7.03174825 26.986049,6.93062935 27.005979,6.9148951 C28.5684965,5.67157345 29.733042,4.00311189 29.7523427,2.02552447 C29.7523427,2.00087413 29.7108042,1.97055944 29.6924476,1.99458042 C28.6113986,3.41926574 27.3256993,4.72615384 25.5233916,4.9458042 C25.4382168,4.95702797 25.4325525,4.80765734 25.4987413,4.76465035 C27.1425525,3.6944056 28.344965,2.26311189 28.7461888,0.338706293 C28.7506993,0.316783217 28.7086363,0.28541958 28.6867133,0.308286713 C27.510944,1.53555944 26.1014685,2.39685315 24.4813636,2.87160839 C21.5632867,3.72797203 18.5852098,3.43762238 15.6272727,3.44695804 C14.4559091,3.45062937 13.2756294,3.55216783 12.1955245,4.05818182 C10.8612588,4.68283217 9.7159091,5.6917133 9.10017485,7.04695805 L9.080979,7.08283215 C8.6658042,7.01034965 8.238986,6.9744755 7.8026224,6.9744755 C3.64793707,6.9744755 0.278706294,10.3422378 0.278706294,14.497972 C0.278706294,18.6531818 3.64783217,22.021993 7.8026224,22.021993 C10.9896504,22.021993 13.7127273,20.0407342 14.8098252,17.2421329 L14.9158742,17.2403496 C15.2845804,17.2551398 15.6912588,17.268986 16.0550349,17.1231818 C16.0988811,17.1048251 16.2264335,17.0215385 16.1791258,16.9298601 C16.12007,16.818042 15.9396504,16.5923077 15.8837413,16.4412587 C15.8707343,16.4085315 15.8626573,16.3431818 15.9151049,16.3424475 C16.8276923,16.335944 17.8090909,16.3946853 18.6483567,16.0633217 C18.4359441,15.7128671 17.9491259,15.4538811 17.6815385,15.1093007 C17.6211189,15.0309441 17.7393357,14.9881469 17.7795105,14.9881469 C19.0541958,14.9835314 20.2424476,14.9826923 21.3652448,14.4109091 C21.4074126,14.388986 21.4081469,14.3430419 21.3836014,14.3173427 C21.1353147,14.0581468 20.8282867,13.8134266 20.5407693,13.60993 C21.9607343,13.325979 23.5232518,12.6147902 23.9724126,12.2117832 C24.0198252,12.1687762 23.988986,12.1272378 23.9639161,12.099021 C23.8448602,11.9572028 23.5267133,11.7433217 23.4673426,11.6838461 C23.4473077,11.6637063 23.4530769,11.596993 23.4647203,11.5911189 C24.7274476,11.1075525 25.9747553,10.554965 26.8816783,9.47937065 C26.9229021,9.4289161 26.8661539,9.3620979 26.8159091,9.3519231 C26.4504546,9.28206295 26.1017832,9.2654895 25.7416783,9.2704196 C25.7416783,9.2225874 25.7272028,9.1523077 25.7482867,9.1393007 C26.6928672,8.5902797 27.5294056,8.013986 28.2421679,7.18174825 C28.2634616,7.1568881 28.2776224,7.06164335 28.2146853,7.05723775 L28.2146853,7.05723775 L28.2146853,7.05723775 Z" id="Shape" fill="#FFFFFF"></path>
                            <path d="M28.2418532,7.18153845 C27.5290909,8.0137762 26.6924476,8.59006995 25.747972,9.1390909 C25.7268881,9.1520979 25.7413637,9.22227275 25.7413637,9.2702098 C26.1015735,9.2652797 26.4501398,9.28185315 26.8155944,9.3517133 C26.8658391,9.361993 26.9225874,9.4287063 26.8813637,9.47916085 C25.9744406,10.5547552 24.7271329,11.1073426 23.4644056,11.5909091 C23.4528671,11.5967832 23.446993,11.6633916 23.4670279,11.6836364 C23.5263986,11.7431119 23.8446503,11.956993 23.9636014,12.0988112 C23.9886714,12.1271329 24.0195105,12.1685665 23.9720979,12.2115735 C23.522937,12.6145804 21.9604196,13.3257693 20.5404545,13.6097203 C20.827972,13.8132168 21.135,14.057937 21.3832867,14.3171329 C21.4078322,14.3427273 21.4072028,14.3887762 21.3649301,14.4106993 C20.2422377,14.9824825 19.053986,14.9833217 17.7791958,14.987937 C17.739021,14.987937 17.6208042,15.0307343 17.6812238,15.1090909 C17.9488112,15.4536714 18.4355245,15.7126574 18.6480419,16.0631119 C17.8087762,16.3944755 16.8274825,16.3358391 15.9147902,16.3422377 C15.8623427,16.3430769 15.8704196,16.4084266 15.8834265,16.4410489 C15.9393357,16.5920979 16.1197553,16.8178322 16.1788112,16.9296503 C16.2261189,17.0213287 16.0985664,17.1046154 16.0547203,17.1229721 C15.6908392,17.2688811 15.2841608,17.25493 14.9155594,17.2401398 L14.8095105,17.2419231 C13.7124126,20.0406293 10.9894405,22.0217832 7.8023077,22.0217832 C3.64762238,22.0217832 0.278391608,18.6530769 0.278391608,14.4977623 C0.278391608,10.3421329 3.64751748,6.97426575 7.8023077,6.97426575 C8.23867135,6.97426575 8.6654895,7.01013985 9.08066435,7.0826224 L9.09986015,7.04674825 C9.7155944,5.6915035 10.8609441,4.68251748 12.1952098,4.05797203 C13.2753147,3.55195804 14.4555944,3.45041958 15.6269581,3.44674825 C18.5848951,3.43741258 21.562972,3.72776224 24.4810489,2.8713986 C26.1011538,2.39674825 27.5106293,1.53534965 28.6863986,0.308076923 C28.7083217,0.28520979 28.7503846,0.316573426 28.7458741,0.338496503 C28.3446503,2.2629021 27.1422377,3.6941958 25.4984266,4.76444056 C25.4322377,4.80744755 25.438007,4.95681818 25.5230769,4.9455944 C27.3253846,4.72594405 28.6110839,3.41895105 29.6921328,1.99437063 C29.7104895,1.97034965 29.7520279,2.00066433 29.7520279,2.02531468 C29.7327272,4.0029021 28.5681818,5.67136365 27.0056643,6.9146853 C26.9857342,6.9304196 26.97,7.03153845 27.033042,7.03604895 C27.4272377,7.0668881 27.82007,7.02566435 28.2143706,7.05702795 C28.2776224,7.06164335 28.2634615,7.1568881 28.2418532,7.18153845 L28.2418532,7.18153845 L28.2418532,7.18153845 Z M28.2337762,6.8204895 C28.0258741,6.80433565 27.8196503,6.80706295 27.6207692,6.8096853 C27.5805944,6.81062935 27.5402098,6.81062935 27.5008742,6.81062935 C28.6956294,5.7703846 29.9684266,4.16412587 29.9895105,2.0270979 C29.9905594,1.91087412 29.9108392,1.801993 29.7962937,1.76276224 C29.687937,1.72604895 29.5707693,1.7612937 29.5027972,1.8512937 C28.6589161,2.9636014 27.620035,4.11923077 26.205944,4.55727272 C27.7048951,3.42346154 28.636993,2.02353147 28.9786363,0.385909091 C29.0015035,0.271363637 28.9421329,0.152307693 28.8338811,0.0946153845 C28.7260489,0.0377622378 28.5984965,0.057902098 28.5161538,0.143391608 C27.3671329,1.34160839 25.9869231,2.18318182 24.4145454,2.64398601 C22.1349651,3.31206294 19.764021,3.26947552 17.4714336,3.2291958 C16.867028,3.21839161 16.2418532,3.20737762 15.6262238,3.20905594 C14.5422377,3.21314686 13.2746853,3.29097902 12.0947203,3.84304196 C10.6687762,4.51048951 9.55646855,5.5655245 8.94534965,6.8226923 C8.56856645,6.7667832 8.1855944,6.7373077 7.8025175,6.7373077 C3.52342657,6.7373077 0.0419580419,10.2183567 0.0419580419,14.4978671 C0.0419580419,18.7771679 3.52332168,22.2588462 7.8025175,22.2588462 C9.39314685,22.2588462 10.9225175,21.7805245 12.2244755,20.8754895 C13.4525874,20.0231119 14.397063,18.8512238 14.9681119,17.4796154 C15.3228672,17.4933566 15.7505245,17.5005944 16.1431469,17.3420979 C16.1641259,17.3336014 16.3418182,17.2575524 16.4056993,17.0852098 C16.4379021,16.9976224 16.4316084,16.9032168 16.3887063,16.8195105 C16.3600699,16.7652797 16.318007,16.7023426 16.2683916,16.6297552 C16.2575874,16.6144406 16.2464685,16.597028 16.2344056,16.5796154 L16.3136014,16.5796154 C17.1307342,16.5813986 17.9749301,16.584021 18.7351049,16.2834965 C18.7995105,16.258007 18.8496504,16.2047203 18.8728322,16.1388461 C18.8946503,16.0726574 18.8872028,15.9992307 18.8504895,15.9398601 C18.714965,15.7151749 18.4986713,15.5358042 18.2888811,15.3617832 C18.2329721,15.3148951 18.1779021,15.269056 18.1248251,15.2235314 C19.2934615,15.2150349 20.403986,15.1656293 21.4724475,14.6213287 C21.5582518,14.5774825 21.6168881,14.4995454 21.6324126,14.4060839 C21.6482518,14.3143007 21.6191958,14.22 21.5546853,14.1532867 C21.420944,14.0137762 21.2643356,13.871014 21.0875874,13.7268881 C22.3667832,13.3955245 23.6853147,12.7877623 24.1305944,12.3872727 C24.2396853,12.2893007 24.2870979,12.1143356 24.1453846,11.9467133 C24.0765735,11.8644755 23.9686364,11.7734265 23.8621678,11.6910839 C25.0146504,11.2356293 26.1843357,10.6745455 27.0620979,9.63115385 C27.1315385,9.54933565 27.1508391,9.44055945 27.114965,9.3384965 C27.0756293,9.22793705 26.9757692,9.1417133 26.8603846,9.11884615 C26.6974825,9.0874825 26.5324825,9.06555945 26.3565734,9.05087415 C27.0667133,8.60937065 27.785979,8.0804895 28.4217483,7.3367832 C28.497063,7.24856645 28.5188811,7.10465035 28.4741958,6.99493005 C28.4325524,6.8956993 28.3412937,6.8290909 28.2337762,6.8204895 L28.2337762,6.8204895 L28.2337762,6.8204895 Z" id="Shape" fill="#EC2024"></path>
                            <path d="M26.8280769,5.5645804 C26.7807692,5.58566435 26.7963986,5.74132865 26.7054545,5.7833916 C26.5506294,5.85493005 26.3748251,5.85325175 26.2088811,5.9032867 C26.1457343,5.92164335 26.1494056,6.00534965 26.098007,6.03797205 C26.0087412,6.09482515 25.8898951,6.04825175 25.824965,6.09482515 C25.4272028,6.3873776 24.9541259,6.25636365 24.5125175,6.3296853 C24.5188112,6.6620979 23.9948602,6.4589161 23.7788811,6.60356645 C23.542972,6.761014 23.5743356,6.718007 23.2244056,6.72157345 C23.1153147,6.72346155 23.1747902,6.88405595 23.0866783,6.8848951 C22.8075524,6.89024475 22.4473426,6.8012937 22.2383916,6.86213285 C22.2015735,6.87293705 22.1887762,7.0495804 22.1158741,7.0688811 C21.9636713,7.1095804 21.8039161,7.12573425 21.6585315,7.17272725 C21.5458741,7.20765735 21.693042,7.421014 21.5417832,7.46842655 C21.2862587,7.55034965 21.003042,7.49076925 20.7448951,7.6370979 C20.6428322,7.6947902 20.4948252,7.64066435 20.3627622,7.6647902 C20.2509441,7.68493005 20.2079371,7.8022028 20.2993007,7.85454545 C20.3819581,7.9011189 20.5202098,7.88905595 20.6017133,7.9283916 C20.7914686,8.02195805 20.9480769,8.1556993 21.1516783,8.1704895 C22.0366783,8.23363635 22.8818182,8.05143355 23.7631468,7.84783215 C24.9224476,7.5794056 25.9026923,7.13244755 26.8768531,6.42146855 C27.9158392,5.66255245 28.8755245,4.86534965 29.3144056,3.62097902 C29.3738811,3.45136363 29.4215035,3.30472028 29.4608392,3.14538462 C29.4858042,3.04730769 29.437972,3.03534965 29.4089161,3.11486014 C29.3784965,3.19447553 29.2567133,3.44328672 29.1475175,3.62181818 C28.5905245,4.53734265 27.7922727,5.12664335 26.8280769,5.5645804" id="Shape" fill="#EC2024"></path>
                            <path d="M20.5485314,8.5803147 C20.4075525,8.43986015 20.2240909,8.40125875 20.064021,8.32342655 C19.4877272,8.0460839 18.9123776,7.9458042 18.2608741,7.84426575 C18.0268532,7.8147902 17.7092307,7.80587415 17.4424825,7.81206295 C17.1180419,7.8197203 16.7423077,7.8513986 16.5388112,8.09884615 C16.505979,8.13954545 16.5226573,8.23353145 16.4500699,8.2612238 C16.2133217,8.35206295 15.9517133,8.15653845 15.7482168,8.4197203 C15.6255944,8.57937065 15.3265384,8.383007 15.1334265,8.49576925 C15.0905245,8.52083915 15.1334265,8.6312937 15.1674126,8.64524475 C15.2577273,8.6855245 15.4081468,8.6738811 15.464056,8.72045455 C15.5236364,8.7687063 15.5181818,8.83846155 15.5732518,8.8796853 C15.6416434,8.93024475 15.7701398,8.9512238 15.8268881,9.03094405 C15.8716783,9.09136365 15.8864686,9.2126224 15.9507693,9.2161888 C17.5056293,9.3038811 19.1021329,9.3038811 20.5772727,8.7325175 C20.555979,8.68625875 20.6061189,8.63706295 20.5485314,8.5803147" id="Shape" fill="#EC2024"></path>
                            <path d="M11.5677273,11.2393007 C11.5878671,11.3896154 11.5485315,11.6195455 11.5797902,11.6232168 C12.6616783,11.7413286 13.7605595,11.548951 14.7618881,11.0898251 C14.7757342,11.0835315 14.7784615,11.0163986 14.7601049,10.9972028 C14.4285314,10.6482168 13.9626923,10.5417482 13.5113286,10.4165035 C12.9879021,10.2705944 12.3798252,10.1516434 11.9167133,10.4173427 C11.8536714,10.4531119 11.8031119,10.6025874 11.7287413,10.7122028 C11.6740909,10.7949651 11.7793007,10.922937 11.7354546,10.9762238 C11.6541609,11.0741958 11.5529371,11.1346154 11.5677273,11.2393007" id="Shape" fill="#EC2024"></path>
                            <path d="M16.7028671,7.6205245 C16.6195804,7.28727275 16.2151049,7.22496505 15.9403846,7.06353145 C15.8302448,6.99954545 15.7022728,7.0286014 15.5766084,7.08356645 C15.3027273,7.20073425 14.9505944,7.00132865 14.6692657,7.20482515 C14.5887063,7.2625175 14.5456993,7.3711888 14.4414335,7.39814685 C14.3120979,7.4317133 14.1828671,7.43653845 14.0509091,7.45405595 C14.0025524,7.46034965 13.9117133,7.49255245 13.918007,7.5472028 C13.9448602,7.78206295 13.7264685,7.8304196 13.5532867,7.89073425 C13.3846154,7.95073425 13.4440909,8.1731119 13.4387412,8.3382168 C14.5578671,8.35206295 15.7215734,8.1941958 16.7028671,7.6205245" id="Shape" fill="#EC2024"></path>
                            <path d="M13.0477972,8.60486015 C12.9954545,8.6137762 12.956014,8.69842655 12.9166783,8.7534965 C12.8187063,8.89174825 12.5077972,8.86132865 12.5095804,9.0193007 C12.5145105,9.305979 12.1936364,9.3579021 12.1431818,9.56517485 C12.1038462,9.72755245 12.016993,9.84933565 12.0049301,10.0232518 C13.153007,10.029965 14.3342307,9.9556993 15.3521329,9.37185315 C15.4733916,9.30115385 15.2067483,9.15755245 15.0819231,9.1087762 C14.7602098,8.9825874 14.4837063,8.79555945 14.1244405,8.71772725 C13.756993,8.63884615 13.4115735,8.54444055 13.0477972,8.60486015" id="Shape" fill="#EC2024"></path>
                            <path d="M11.0004546,13.1444056 C11.2240909,13.2332518 11.4568532,13.1946503 11.6788112,13.157937 C12.2863637,13.0581818 12.8743007,12.9611539 13.4030769,12.641958 C13.1659091,12.4057343 12.8460839,12.2832168 12.5427273,12.140035 C12.1945804,11.9758741 11.8455944,11.8411888 11.4671329,11.7807693 C11.3010839,12.2317133 11.1306293,12.6804546 11.0004546,13.1444056" id="Shape" fill="#EC2024"></path>
                            <path d="M10.7913986,13.4075874 C10.6558742,13.4795454 10.5073427,13.6737063 10.6240909,13.7673776 C11.1306293,14.1788811 11.8106643,14.1868531 12.4361539,14.2321678 C13.4992657,14.3083217 14.7077623,14.2138112 15.4804196,13.4286714 C15.5287762,13.378951 15.3045105,13.2415385 15.1561888,13.1927622 C14.9645454,13.1296154 14.7748951,13.0606993 14.5825175,13.0289161 C14.3086364,12.9847552 14.0334965,12.8244755 13.8393357,12.9207692 C13.7797552,12.9511888 13.7722028,13.0106644 13.76507,13.036993 C13.7002447,13.0624825 13.4984265,13.0656294 13.4519581,13.1002447 C13.3391958,13.183007 13.3611189,13.3166433 13.3315385,13.3248252 C13.0752797,13.3887063 12.7561888,13.2276923 12.5136713,13.3378322 C12.4483217,13.3677272 12.4536714,13.5502447 12.3677623,13.5566433 C12.1919581,13.5696503 11.9986363,13.464965 11.8308042,13.5181469 C11.8003846,13.5275874 11.7104895,13.5409091 11.6509091,13.5784616 C11.5588112,13.5311539 11.5090909,13.51993 11.3891958,13.4908741 C11.3001399,13.4688461 11.2138112,13.5302098 11.1051399,13.5117483 C11.0030769,13.4943357 10.8885315,13.3560839 10.7913986,13.4075874" id="Shape" fill="#EC2024"></path>
                            <path d="M17.4607343,12.2195454 C17.765035,12.0620979 18.1306993,12.0465735 18.3529721,11.7448951 C17.9874126,11.5216783 17.5825175,11.4318881 17.1700699,11.3126224 C16.9182168,11.2394056 16.6707692,11.2147552 16.4151398,11.1825524 C16.1145105,11.144056 15.8170279,11.131049 15.5209091,11.152028 C15.4165384,11.1596853 15.2953846,11.1658742 15.2037063,11.2191608 C15.1553496,11.2472728 15.0994406,11.3468182 15.039021,11.3852098 C14.9446154,11.4464685 14.8581818,11.416993 14.7960839,11.4790909 C14.7585314,11.5158042 14.7996504,11.6152447 14.7741608,11.6505944 C14.7392308,11.6984266 14.6641258,11.7065035 14.6176573,11.7333566 C14.5688811,11.7587412 14.4682867,11.7167832 14.3930769,11.7480419 C14.3178671,11.778986 14.3151398,11.8507342 14.2655245,11.8752797 C14.0834266,11.9688461 13.8176224,11.8595454 13.6918532,11.8626923 C13.627028,11.8636364 13.6436014,11.9661189 13.6645804,11.9861539 C13.745979,12.0667133 13.9813637,12.0917832 13.9732867,12.2108391 C13.9706643,12.2382168 13.9043707,12.3334615 13.869965,12.3234965 C13.9294406,12.4802098 14.3107342,12.5625524 14.5661538,12.626958 C15.2707343,12.8037063 15.9947203,12.6488811 16.6957343,12.4372028 C16.9512588,12.3601049 17.21507,12.3470979 17.4607343,12.2195454" id="Shape" fill="#EC2024"></path>
                            <path d="M19.2008392,10.254965 C19.3253496,10.1708392 19.4848951,10.1698951 19.5602098,10.0517832 C19.6213636,9.95475525 19.4966433,9.9103846 19.4264685,9.8894056 C18.8775524,9.72146855 18.3484615,9.53674825 17.7785664,9.4933217 C17.2116084,9.45136365 16.6598602,9.5420979 16.0943706,9.60073425 C15.8755595,9.6234965 15.6518182,9.6337762 15.4540909,9.7152797 C15.3694406,9.75104895 15.3648251,9.9232867 15.2671678,9.93534965 C15.0764685,9.95916085 14.8876573,9.9819231 14.6952797,9.99755245 C14.6330769,10.0029021 14.6482867,10.1036014 14.6675874,10.1193357 C14.7923077,10.2190909 14.8317483,10.2817133 14.8840909,10.4356993 C14.8884965,10.4513287 15.0186713,10.4374825 15.045944,10.4611888 C15.1708741,10.5694405 15.2594056,10.7224825 15.4163287,10.7600349 C16.1703147,10.9412937 16.8987063,10.9909091 17.6714686,10.8123776 C17.7537063,10.7926574 17.8141258,10.7260489 17.8882867,10.7157692 C18.1584965,10.6812587 18.440979,10.6656293 18.6508741,10.4647552 C18.7995105,10.3238811 19.0356294,10.365944 19.2008392,10.254965" id="Shape" fill="#EC2024"></path>
                            <path d="M18.7382517,7.663007 C19.5744755,7.5703846 20.300979,7.4482867 21.0326224,6.9941958 C21.0764685,6.9663986 21.0405944,6.8227972 21.003986,6.81702795 C20.8309091,6.79143355 20.642937,6.72083915 20.4563286,6.8895105 C20.3927622,6.94636365 20.2746503,6.82374125 20.1877972,6.8765035 C20.1172028,6.918986 20.0463986,7.03174825 19.9816783,7.0608042 C19.8007342,7.1404196 19.6267133,6.95433565 19.4288811,6.9776224 C19.3711888,6.98475525 19.3846154,7.11314685 19.3268182,7.12657345 C19.1577272,7.16727275 19.0083566,6.98202795 18.9121678,7.04423075 C18.7653147,7.13863635 18.641958,7.2594755 18.4637412,7.1789161 C18.2925524,7.10202795 18.0660839,6.9409091 17.9497552,7.04255245 C17.7474126,7.2191958 17.4993356,6.96283215 17.3203846,7.03174825 C17.169965,7.0912238 16.7632867,7.1875175 17.0411538,7.3475874 C17.531958,7.63342655 18.3345105,7.70874125 18.7382517,7.663007" id="Shape" fill="#EC2024"></path>
                            <path d="M21.2570979,5.75695805 C20.2553496,5.78517485 19.254021,5.78874125 18.245035,5.72034965 C17.4174126,5.66444055 16.5971329,5.5955245 15.7707693,5.62594405 C14.717937,5.6652797 13.7359091,5.9932867 12.8012937,6.52206295 C11.4813986,7.26797205 10.5194056,8.5734965 10.4504895,10.0876574 C10.4204895,10.7445105 10.5367133,11.3327623 10.4177622,12.0768881 C10.2996504,12.8174476 9.93944055,13.5408042 9.5959091,14.1686014 C10.3725525,13.7355944 10.9118182,12.7852448 11.0011888,11.7091258 C11.0692657,10.8966084 11.0447203,10.0817832 11.3779721,9.35076925 C11.7713286,8.48674825 12.3614685,7.76286715 13.194021,7.23576925 C13.9784266,6.74003495 14.8132867,6.46615385 15.6983916,6.4625874 C18.1148601,6.45325175 20.5229371,6.5440909 22.9421329,6.40846155 C24.3,6.33335665 25.6159091,5.9632867 26.8420279,5.33916085 C27.6804546,4.91003497 28.5014685,4.38786713 29.0173426,3.54314685 C29.0679021,3.44328672 29.2718182,3.11486014 29.3015035,3.02632867 C29.3319231,2.93643357 29.2912238,2.93643357 29.2517832,3.01604895 C29.2115035,3.09566433 29.0051748,3.34395105 28.9448602,3.42356644 C28.1174476,4.33814685 27.0804545,4.98597902 25.8404895,5.28933565 C24.4375175,5.63297205 23.062028,5.70723775 21.6534965,5.75423075 C21.5337063,5.7579021 21.3761539,5.75433565 21.2570979,5.75695805" id="Shape" fill="#EC2024"></path>
                            <path d="M11.0406293,17.0030769 L9.83475525,16.1461888 L9.67363635,16.2948252 C9.57157345,16.3963637 9.46195805,16.4862588 9.34657345,16.5686014 L10.6615385,17.420979 C10.8237063,17.2653147 10.9408742,17.1229721 11.0406293,17.0030769" id="Shape" fill="#EC2024"></path>
                            <path d="M9.31174825,18.2803846 C9.73856645,18.1162238 10.1283567,17.8789511 10.471993,17.5895454 L9.2036014,16.7685315 L9.31174825,18.2803846" id="Shape" fill="#EC2024"></path>
                            <path d="M9.1046853,15.3821328 L9.17454545,16.3560839 C9.34856645,16.2320979 9.4309091,16.1323426 9.5655944,15.9678672 C9.40615385,15.8326573 9.23664335,15.5672728 9.1046853,15.3821328" id="Shape" fill="#EC2024"></path>
                            <path d="M9.0836014,13.5282168 C9.16772725,13.6483217 9.2504895,13.7363287 9.29884615,13.8772028 L9.4562937,13.5162588 L9.0836014,13.5282168" id="Shape" fill="#EC2024"></path>
                            <path d="M9.6853846,13.0088811 L9.4804196,12.8043357 C9.28216785,12.6067133 9.05412585,12.4505245 8.8066783,12.3368182 L8.7409091,12.3928322 L8.83353145,13.2433217 C8.88367135,13.2852797 8.93234265,13.3301749 8.97713285,13.378951 L9.52615385,13.3368881 L9.6853846,13.0088811" id="Shape" fill="#EC2024"></path>
                            <path d="M6.8952797,12.3883217 L7.60625875,12.9015735 C7.66615385,12.8936014 7.72562935,12.8867832 7.786993,12.8848951 L8.4831818,12.2912937 L8.4751049,12.2135665 C8.2688811,12.153986 8.0527972,12.1217832 7.8316783,12.1217832 C7.5037762,12.1217832 7.186993,12.1906993 6.8952797,12.3186714 L6.8952797,12.3883217" id="Shape" fill="#EC2024"></path>
                            <path d="M8.44384615,11.9238461 L8.2774825,10.3833566 C8.13157345,10.3677272 7.98304195,10.357028 7.8317832,10.357028 C7.51594405,10.357028 7.2081818,10.3945804 6.911014,10.4621328 L6.898007,12.0226573 C7.1887762,11.910944 7.50283215,11.8487412 7.8316783,11.8487412 C8.04157345,11.8487412 8.246014,11.876014 8.44384615,11.9238461" id="Shape" fill="#EC2024"></path>
                            <path d="M7.8316783,16.7838461 C8.2003846,16.7838461 8.5475874,16.6962587 8.8563986,16.5432168 L8.058986,16.0262937 L7.43213285,16.7480769 C7.56325175,16.7704196 7.696993,16.7838461 7.8316783,16.7838461" id="Shape" fill="#EC2024"></path>
                            <path d="M8.67786715,14.4527622 C8.67786715,13.9865035 8.2993007,13.606993 7.8317832,13.606993 C7.36562935,13.606993 6.98706295,13.9863986 6.98706295,14.4527622 C6.98706295,14.9202797 7.3655245,15.2987413 7.8317832,15.2987413 C8.2993007,15.2988461 8.67786715,14.9202797 8.67786715,14.4527622" id="Shape" fill="#EC2024"></path>
                            <path d="M8.87653845,15.6329371 C8.72895105,15.7632168 8.5566084,15.8665385 8.3677972,15.9346154 L8.92437065,16.2948252 L8.87653845,15.6329371" id="Shape" fill="#EC2024"></path>
                            <path d="M10.0129721,10.9855595 C9.5682168,10.7059091 9.06524475,10.5109091 8.52755245,10.4181818 L8.69895105,11.9989511 C8.72895105,12.0088112 8.75842655,12.0190909 8.7874825,12.0307343 L10.0129721,10.9855595" id="Shape" fill="#EC2024"></path>
                            <path d="M8.1324126,12.9118532 C8.28723775,12.9417482 8.43304195,12.995979 8.56772725,13.0674126 L8.5152797,12.5851049 L8.1324126,12.9118532" id="Shape" fill="#EC2024"></path>
                            <path d="M6.88814685,13.1993707 C7.01076925,13.1068531 7.1480769,13.0325874 7.29482515,12.9793007 L6.89265735,12.688007 L6.88814685,13.1993707" id="Shape" fill="#EC2024"></path>
                            <path d="M6.1844056,16.1015035 C6.43625875,16.3534615 6.73604895,16.5372377 7.06227275,16.6517832 L6.9230769,15.7395105 C6.9155245,15.7337412 6.90744755,15.7291259 6.8997902,15.723986 L5.9248951,15.7906993 C6.0017832,15.9006294 6.0881119,16.0053147 6.1844056,16.1015035" id="Shape" fill="#EC2024"></path>
                            <path d="M6.65055945,15.4946853 C6.536014,15.3645105 6.44475525,15.2160839 6.37856645,15.054965 L6.05412585,15.536014 L6.65055945,15.4946853" id="Shape" fill="#EC2024"></path>
                            <path d="M6.2630769,14.3547902 C6.2760839,14.1687063 6.32076925,13.9920629 6.39146855,13.8290559 L5.7918881,13.9445454 L6.2630769,14.3547902" id="Shape" fill="#EC2024"></path>
                            <path d="M6.1844056,12.8042308 C5.92132865,13.0683567 5.7297902,13.3833566 5.61797205,13.7268881 L6.549021,13.5494056 C6.5784965,13.5081818 6.6084965,13.4679021 6.64164335,13.4304546 L6.6487762,12.5122028 L6.5994755,12.4773776 C6.45104895,12.57 6.3109091,12.6778322 6.1844056,12.8042308" id="Shape" fill="#EC2024"></path>
                            <path d="M5.50153845,14.4527622 C5.50153845,14.833951 5.5932168,15.1994056 5.7637762,15.5278322 L6.28772725,14.7487762 C6.2851049,14.7305245 6.2804895,14.7121679 6.27786715,14.6930769 L5.53835665,14.0477622 C5.5154895,14.1806644 5.50153845,14.3154546 5.50153845,14.4527622" id="Shape" fill="#EC2024"></path>
                            <path d="M6.5874126,12.1655245 C6.6084965,12.1538811 6.6304196,12.1437063 6.6513986,12.1329021 L6.66524475,10.5274825 C6.1623776,10.6755944 5.70146855,10.9193706 5.30013985,11.2357343 L6.5874126,12.1655245" id="Shape" fill="#EC2024"></path>
                            <path d="M4.20041958,12.5552098 L5.3780769,13.5825525 C5.56374125,13.0598602 5.9122028,12.6137413 6.36104895,12.305979 L5.10555945,11.3975874 C4.73916084,11.7247553 4.4312937,12.1163287 4.20041958,12.5552098" id="Shape" fill="#EC2024"></path>
                            <path d="M3.75073427,14.0872028 L5.2523077,13.7976923 L4.08944056,12.7843007 C3.90828672,13.1882517 3.79185315,13.6263986 3.75073427,14.0872028" id="Shape" fill="#EC2024"></path>
                            <path d="M3.73248252,14.4570629 C3.73248252,14.8844056 3.79825175,15.2965384 3.91898602,15.6834965 L5.48412585,15.5751398 C5.3186014,15.228986 5.2286014,14.8485314 5.2286014,14.4527622 C5.2286014,14.3144056 5.2397203,14.1788811 5.25996505,14.0469231 L3.73604895,14.339056 C3.73426574,14.3784965 3.73248252,14.4178322 3.73248252,14.4570629" id="Shape" fill="#EC2024"></path>
                            <path d="M5.5712937,15.8155595 L4.00353147,15.9233916 C4.16989511,16.3577623 4.40842658,16.7556293 4.70328671,17.1035665 L5.5712937,15.8155595" id="Shape" fill="#EC2024"></path>
                            <path d="M6.9687063,16.9077273 C6.60493005,16.7801749 6.27157345,16.575 5.9910839,16.2948252 C5.8994056,16.2031468 5.818007,16.1032867 5.74195805,16.0013287 L4.87300699,17.2916434 C5.18087415,17.6132517 5.54013985,17.8853496 5.93874125,18.0935665 L6.9687063,16.9077273" id="Shape" fill="#EC2024"></path>
                            <path d="M7.13013985,17.0956993 L6.16772725,18.2036014 C6.536014,18.3681818 6.93283215,18.4782168 7.34895105,18.5280419 L7.13013985,17.0956993" id="Shape" fill="#EC2024"></path>
                            <path d="M7.19506995,15.8942308 L7.2922028,16.5345105 L7.7338112,16.0262937 C7.5431119,16.0151749 7.361014,15.9684965 7.19506995,15.8942308" id="Shape" fill="#EC2024"></path>
                            <path d="M7.8316783,18.5568881 C8.26437065,18.5568881 8.68143355,18.4892308 9.07153845,18.3655594 L8.9597203,16.7986363 C8.6125175,16.9664685 8.22954545,17.0573077 7.8317832,17.0573077 C7.67433565,17.0573077 7.51867135,17.0415735 7.36646855,17.0137762 L7.6009091,18.5508042 C7.67695805,18.5543706 7.7546853,18.5568881 7.8316783,18.5568881" id="Shape" fill="#EC2024"></path>
                            <path d="M10.1126224,11.2235664 L9.03482515,12.1426574 C9.268007,12.2638112 9.48314685,12.4204196 9.67374125,12.6121679 L9.7945804,12.7293356 C9.9946154,12.271049 10.1189161,11.692972 10.1126224,11.2235664" id="Shape" fill="#EC2024"></path>
                            <path d="M7.8237063,9.39723775 C5.0223776,9.39723775 2.75171329,11.6688462 2.75171329,14.4701748 C2.75171329,17.2713986 5.0223776,19.5421678 7.8237063,19.5421678 C9.57493005,19.5421678 11.1176224,18.6549651 12.0294755,17.3064336 L11.4330419,17.0941259 C10.6218881,18.208007 9.30734265,18.931993 7.8237063,18.931993 C5.3597203,18.931993 3.361993,16.9342658 3.361993,14.4703846 C3.361993,12.0054545 5.3597203,10.0077273 7.8237063,10.0077273 C8.6465035,10.0077273 9.41695805,10.2305245 10.0787413,10.618007 L10.0787413,9.9155245 C9.3704895,9.58615385 8.5632168,9.39723775 7.8237063,9.39723775" id="Shape" fill="#EC2024"></path>
                            <path d="M12.4868182,16.7801749 C12.442028,16.6979371 12.3256993,16.7418881 12.2460839,16.6943706 C12.187028,16.6595454 12.1597553,16.5387063 12.1019581,16.4917133 C12.0581119,16.455 11.9515385,16.5373426 11.8965735,16.5055594 C11.8195804,16.4596154 11.761049,16.3614336 11.6996853,16.2938811 C11.6325525,16.2196154 11.5703497,16.1377972 11.5045804,16.0631119 C11.4419581,15.9923077 11.3761888,15.9292658 11.2974126,15.8814336 C11.2545105,15.8567832 11.1708042,15.9109091 11.1198252,15.898007 C11.0281469,15.8733566 10.9756993,15.7144406 10.9005944,15.6486714 C10.8575874,15.6101748 10.7896154,15.6057692 10.7511189,15.5690559 C10.7126224,15.5313986 10.7046504,15.4625874 10.6634266,15.4179021 C10.6101399,15.3584266 10.5305245,15.3373427 10.4728322,15.2895105 C10.3926923,15.2254196 10.334056,15.0611539 10.2727972,14.9704196 C10.2123776,14.8808391 10.1224825,14.8707693 10.0639511,14.7918881 C9.9905245,14.6931818 9.9475175,14.5261888 9.85856645,14.4264336 C9.7690909,14.3247902 9.5445105,14.4867482 9.4755944,14.6233217 C9.36325175,14.8470629 9.36954545,15.1301748 9.5417832,15.3217133 C10.3856644,16.2643007 11.4813986,17.045979 12.736049,17.2523077 C12.6423776,17.1183566 12.5436714,16.8821329 12.4868182,16.7801749" id="Shape" fill="#EC2024"></path>
                            <path d="M15.5731469,4.6501049 C17.8746504,4.56020979 21.8903497,4.7893007 23.9931818,4.20094405 C25.8625175,3.67877623 27.2204895,2.72486014 28.0064686,1.42195804 C28.1313986,1.21573427 28.0651049,1.18080419 27.8665385,1.37234265 C26.5917483,2.59730769 25.4317133,3.03272728 23.7824476,3.48367133 C21.8579371,4.0112937 18.3825524,3.87293706 15.573042,3.93241258 C12.8213287,3.99104895 10.4092658,5.07776225 9.6852797,7.22013985 L10.2830769,7.4595105 C11.0903497,5.7256993 13.0043707,4.74986014 15.5731469,4.6501049" id="Shape" fill="#EC2024"></path>
                            <path d="M1.52486014,11.7891609 C1.68681818,11.9238461 1.55622378,12.1583916 1.67611888,12.3185665 C1.8237063,11.298042 2.59961538,10.544056 3.3041958,9.8227972 C5.148986,7.93153845 8.008007,7.55034965 10.4415734,8.4746853 C10.4862587,8.4920979 10.6662588,8.1144755 10.6035314,8.08814685 C9.1605944,7.455 7.78615385,7.38524475 6.3069231,7.71314685 C5.07555945,7.98744755 4.04024475,8.54265735 3.11454546,9.3838112 C2.39643357,10.0370979 1.80986014,10.7534266 1.36332168,11.6075874 C1.32797203,11.6763986 1.27017483,11.7825525 1.32797203,11.8423427 C1.38744755,11.9045455 1.45321678,11.7314686 1.52486014,11.7891609" id="Shape" fill="#EC2024"></path>
                            <path d="M13.4692657,17.5793707 C13.4773427,17.5904895 13.394056,17.6160839 13.3663637,17.6205944 C13.2237063,17.6406294 13.0813637,17.6406294 12.9386014,17.6205944 C12.6782517,17.5838811 12.4035314,17.4934616 12.1843007,17.4481469 C10.6643707,19.74 7.43706295,20.5529371 5.01335665,19.0228322 C4.14545454,18.4754895 3.47475524,17.7691259 3.04688811,16.8701749 C2.80573426,16.3642658 2.67472028,15.85007 2.55031469,15.2930769 C2.46755245,14.9194406 2.53468531,14.5516783 2.46493007,14.1843357 C2.30926573,14.3879371 2.40356644,14.7038811 2.13786714,14.8206294 C2.06538462,14.8532518 1.97674825,14.8416084 1.92618881,14.7579021 C1.87646853,14.6765035 1.9006993,14.5444406 1.81520979,14.5234616 C1.67339161,14.4886364 1.67066433,14.701993 1.4934965,14.660035 C1.47597902,14.6555245 1.45143357,14.707028 1.42321678,14.7178322 C1.33153846,14.7499301 1.25454545,14.5840909 1.18552448,14.6617133 C1.13727273,14.7161539 1.10685315,14.7773077 1.03174825,14.7517133 C0.969545455,14.7298951 0.91993007,14.6085315 0.91993007,14.6152448 C0.871573425,17.913986 3.50517483,20.9123077 6.80842655,21.4004895 C7.2858042,21.4711888 7.75657345,21.5032867 8.2388811,21.4591259 C9.27146855,21.3638811 10.2226574,21.0863287 11.1368182,20.5567133 C12.5766084,19.7226923 13.5761539,18.4224126 14.3001399,16.9822028 C13.7520629,16.7961189 13.2061888,16.6133916 12.7578671,16.4444056 C12.7954196,16.9086714 13.2518182,17.2713986 13.4692657,17.5793707" id="Shape" fill="#EC2024"></path>
                            <path d="M15.2626574,16.4643356 C15.1351049,16.4284616 15.0231818,16.3577623 14.906014,16.3096154 C14.8335315,16.280035 14.7646154,16.3918531 14.6867832,16.3458042 C14.5292308,16.2513986 14.3937063,16.1166084 14.268042,16.016958 C14.1682867,15.9371328 13.9695105,15.7386714 13.8832867,15.778007 C13.8505595,15.7933217 13.8018881,15.9784616 13.7203846,15.916993 C13.5239161,15.7705595 13.396993,15.6118531 13.2134266,15.4517832 C13.1302448,15.3793007 13.0496853,15.620035 12.9432168,15.5689511 C12.6984965,15.4493707 12.6004196,15.1851399 12.4117133,14.9962238 C12.192063,14.7779371 11.9821679,14.5241958 11.6796504,14.4445804 C11.6290909,14.4307343 11.6577273,14.503951 11.6097902,14.5417133 C11.379021,14.7220279 11.1252797,14.4132168 10.9006993,14.3107342 C10.6953147,14.2154895 10.514056,14.0651749 10.2832867,14.0486014 C10.2335665,14.045979 10.2353497,14.1194056 10.2546504,14.1421678 C11.5723427,15.701014 13.4023427,16.8711189 15.4107693,16.824021 C15.4576574,16.8231818 15.553007,16.8281119 15.4742308,16.7317133 C15.4124476,16.6549301 15.3421679,16.4862588 15.2626574,16.4643356" id="Shape" fill="#EC2024"></path>
                            <path d="M17.1287413,15.3288462 C17.0701049,15.3198252 16.9784266,15.3986014 16.9283916,15.3891609 C16.7727273,15.361049 16.6496853,15.2197553 16.4599301,15.1198951 C16.381993,15.0796154 16.3418182,15.264021 16.2804546,15.2598252 C15.9669231,15.2420979 15.5145105,14.909056 15.2347553,14.7414336 C15.1843007,14.7123776 14.8857693,14.7717483 14.8361539,14.7821329 C14.6566783,14.8175874 14.4276923,14.5024825 14.2854546,14.4362937 C14.1794056,14.3870979 14.0299301,14.3329721 13.9283916,14.4098602 C13.7897203,14.5123427 13.6258742,14.4571679 13.4755595,14.4554895 C13.4160839,14.4546504 13.3645804,14.5786364 13.2920979,14.6023427 C13.0862937,14.6685315 12.858042,14.5244056 12.6553846,14.6251049 C12.6499301,14.6278322 12.6213986,14.6704196 12.6230769,14.6844755 C12.637028,14.8121329 12.7788462,14.8331119 12.8723077,14.8899651 C13.2199301,15.1024825 13.5761539,15.2447203 13.9448602,15.3943007 C14.4960839,15.6175175 15.0625175,15.7844056 15.663042,15.8384266 C16.3381469,15.8988462 17.25,15.9924126 17.8052098,15.8282518 C17.8335315,15.8192308 17.7896853,15.7126574 17.7049301,15.6486714 C17.6182867,15.5815385 17.4898951,15.556993 17.4357693,15.5194406 C17.3103147,15.4303846 17.2433916,15.3453147 17.1287413,15.3288462" id="Shape" fill="#EC2024"></path>
                            <path d="M20.0446154,13.991014 C19.8915735,14.0358042 19.7734616,13.9241958 19.6459091,13.9725525 C19.6169581,13.9847203 19.5967133,14.0320279 19.5717483,14.032972 C19.3329021,14.0365385 19.1722028,13.7783916 18.9279021,13.7976923 C18.867063,13.803042 18.8679021,13.9104546 18.8168182,13.9222028 C18.6656644,13.9578672 18.5317133,13.7749301 18.3962937,13.8406993 C18.3001049,13.8876923 18.232028,13.8845454 18.1385664,13.8571678 C18.0185665,13.8223426 17.9287762,13.7153497 17.8123427,13.6970979 C17.7108042,13.6805245 17.6088462,13.7821679 17.4933567,13.7489161 C17.2048951,13.6648951 16.9814686,13.3911189 16.6723427,13.455944 C16.5193007,13.488986 16.3887063,13.3843007 16.2823427,13.4477623 C16.1675874,13.5162588 16.1336014,13.599965 16.0172728,13.6693007 C15.9377623,13.7172378 15.7515735,13.7105245 15.6682867,13.7619231 C15.6048252,13.8004196 15.5896154,13.8975524 15.5171329,13.9270279 C15.3826574,13.9838811 15.2219581,13.9436014 15.0947203,14.0148252 C15.080035,14.0241608 15.0719581,14.0948602 15.1257693,14.1091258 C16.0312238,14.3582518 16.8927273,14.6308742 17.8143357,14.6284616 C18.7182168,14.6277272 19.6152797,14.6316084 20.503007,14.3574126 C20.5737063,14.3364336 20.5883916,14.2942657 20.5303846,14.2280769 C20.4057693,14.0826923 20.2335315,13.9351049 20.0446154,13.991014" id="Shape" fill="#EC2024"></path>
                            <path d="M22.7778671,11.9896154 C22.5766783,12.0832867 22.3426573,11.9798602 22.1193357,12.0316783 C22.0606993,12.0455245 22.1045454,12.1288112 22.0468532,12.1372028 C21.8277272,12.1685665 21.6008391,12.1127622 21.3946154,12.1932168 C21.234021,12.2554196 21.0405944,12.1847203 20.8638462,12.1887063 C20.7967133,12.1905944 20.795035,12.2809091 20.7841258,12.3533916 C20.7747902,12.4167482 20.6813287,12.4534616 20.654056,12.44507 C20.4338811,12.3801399 20.223986,12.3561189 20.0025524,12.3232867 C19.4436713,12.2413637 18.8911888,12.0637762 18.365979,12.2204895 C18.1943706,12.271993 17.9681119,12.314056 17.8368881,12.4477972 C17.786014,12.4991958 17.7327272,12.6018881 17.6654895,12.6267483 C17.3443007,12.7422377 16.9948951,12.765 16.6754895,12.8777622 C16.5778321,12.9126923 16.393951,13.0483217 16.4624476,13.0666783 C17.8034266,13.4085314 19.1135665,13.4438811 20.5055245,13.183007 C21.5257342,12.9924126 22.4611888,12.7046853 23.3381119,12.2115734 C23.2719231,12.1278672 22.9309091,11.9184965 22.7778671,11.9896154" id="Shape" fill="#EC2024"></path>
                            <path d="M25.053042,9.7181119 C24.926958,9.76017485 24.752937,9.6402797 24.6437413,9.72083915 C24.4813636,9.8402098 24.2907693,9.81923075 24.1241958,9.8018182 C24.0446853,9.7932168 23.9198602,9.7651049 23.8492658,9.82017485 C23.8044755,9.8555245 23.8691958,9.9132168 23.9126224,9.9517133 C23.4920979,10.0965734 23.028986,9.96104895 22.6317483,10.1212238 C22.6013286,10.1343357 22.5838112,10.2801398 22.5104895,10.2944056 C22.1450349,10.3686713 21.8031818,10.224965 21.4402448,10.2907342 C21.3485664,10.3081468 21.39,10.5033567 21.2925524,10.5081818 C20.9672727,10.5233916 20.6504895,10.4961189 20.3261539,10.4821678 C19.9396154,10.4665384 19.5838112,10.606993 19.2182518,10.7189161 C19.11,10.7515384 19.0768532,10.9238811 18.9605245,10.9412937 C18.6456294,10.99007 18.3247552,10.9341608 18.0371328,11.0758742 C18.016993,11.0862588 18.0160489,11.1833916 18.0371328,11.1946154 C18.3896853,11.3930769 18.794056,11.5314335 19.033951,11.8523077 C21.4872377,11.8277622 24.1260839,11.5067832 26.1677623,9.83255245 C26.2078322,9.7994056 25.9659441,9.74937065 25.8366084,9.71895105 C25.7095804,9.6898951 25.6048951,9.6898951 25.451014,9.63933565 C25.3136014,9.59454545 25.1877272,9.67426575 25.053042,9.7181119" id="Shape" fill="#EC2024"></path>
                            <path d="M27.5998951,7.41157345 C27.5751398,7.3973077 27.2039161,7.33017485 26.9985315,7.37895105 C26.9556293,7.3888112 26.9293007,7.46034965 26.8867133,7.46664335 C26.6232168,7.51006995 26.4362937,7.63615385 26.1669231,7.6437063 C26.1109091,7.64643355 25.9897553,7.68576925 25.9166434,7.7206993 C25.8196154,7.76727275 25.6858742,7.6517832 25.6097203,7.7376923 C25.5602098,7.79265735 25.646014,7.92566435 25.5565385,7.96814685 C25.3215734,8.07765735 25.0477972,7.88087415 24.8177623,8.0294056 C24.7520979,8.07325175 24.8895105,8.22 24.8029721,8.24632865 C24.4724475,8.35017485 23.9013986,7.83786715 23.6862588,8.3703147 C23.6523776,8.4534965 23.548951,8.4151049 23.4845454,8.39853145 C23.4222378,8.38185315 23.3332867,8.35374125 23.2965735,8.3846853 C23.0942308,8.54884615 22.9752797,8.6146154 22.6912238,8.535 C22.6187412,8.5139161 22.6179021,8.7282168 22.4788112,8.6938112 C22.3182168,8.65625875 22.1650699,8.54076925 22.0183217,8.6056993 C21.9506644,8.6361189 22.0013287,8.8137063 21.901993,8.82272725 C21.5047552,8.8612238 21.09493,8.80342655 20.7284265,8.96674825 C20.6384265,9.00702795 20.6294056,9.1695105 20.5037413,9.1904895 C20.2240909,9.2361189 19.9459091,9.2039161 19.6862937,9.28846155 C19.6442307,9.3017832 19.6535664,9.42587415 19.7176573,9.43562935 C19.8854895,9.4606993 20.0741958,9.43384615 20.2031119,9.51073425 C20.3601398,9.6041958 20.4598951,9.86916085 20.6137762,9.87545455 C21.8343356,9.92517485 23.0492307,9.74475525 24.2267832,9.35412585 C25.4639161,8.9438811 26.5999301,8.38017485 27.5998951,7.50587415 C27.6611538,7.45227275 27.6297902,7.42993005 27.5998951,7.41157345" id="Shape" fill="#EC2024"></path>
                            <path d="M15.8240559,19.3054196 C15.5189161,19.3054196 15.2714685,19.0594406 15.2714685,18.7543007 C15.2714685,18.4491608 15.5188112,18.2017133 15.8240559,18.2017133 C16.1293007,18.2017133 16.3756993,18.449056 16.3756993,18.7543007 C16.3756993,19.0595455 16.1293007,19.3054196 15.8240559,19.3054196 L15.8240559,19.3054196 L15.8240559,19.3054196 Z M15.8240559,18.0515035 C15.4357342,18.0515035 15.1212587,18.3662937 15.1212587,18.7543007 C15.1212587,19.1426224 15.4357342,19.4567832 15.8240559,19.4567832 C16.2114335,19.4567832 16.526014,19.1426224 16.526014,18.7543007 C16.5261189,18.3662937 16.2115384,18.0515035 15.8240559,18.0515035 L15.8240559,18.0515035 L15.8240559,18.0515035 Z" id="Shape" fill="#EC2024"></path>
                            <path d="M15.8737762,18.678986 L15.6859091,18.678986 L15.6859091,18.5037063 L15.8737762,18.5037063 C15.9221329,18.5037063 15.9613636,18.5431468 15.9613636,18.590979 C15.9613636,18.6396504 15.9221329,18.678986 15.8737762,18.678986 L15.8737762,18.678986 L15.8737762,18.678986 Z M16.1117832,18.590979 C16.1117832,18.4598602 16.0052098,18.3524476 15.8737762,18.3524476 L15.5355944,18.3524476 L15.5355944,19.1555245 L15.6859091,19.1555245 L15.6859091,18.8294056 L15.7937413,18.8294056 L15.9457342,19.1555245 L16.1126224,19.1555245 L15.9543357,18.8154545 C16.0469581,18.7825175 16.1117832,18.6944056 16.1117832,18.590979 L16.1117832,18.590979 L16.1117832,18.590979 Z" id="Shape" fill="#EC2024"></path>
                        </g>
                    </g>
                </g>
            </g>
        </g>
    </g>
</svg>