<?xml version="1.0" encoding="UTF-8" standalone="no"?>
<svg width="60px" height="60px" viewBox="0 0 60 60" version="1.1" xmlns="http://www.w3.org/2000/svg" xmlns:xlink="http://www.w3.org/1999/xlink">
    <!-- Generator: Sketch 40.3 (33839) - http://www.bohemiancoding.com/sketch -->
    <title>Artboard</title>
    <desc>Created with Sketch.</desc>
    <defs></defs>
    <g id="Page-1" stroke="none" stroke-width="1" fill="none" fill-rule="evenodd">
        <g id="Artboard">
            <g id="sabres">
                <path d="M53.2120152,18.1633433 C53.170038,17.8699592 52.953308,18.0919364 52.953308,18.0919364 C52.953308,18.0919364 44.1720913,27.8511764 29.9534601,38.5752068 C15.7371103,27.8511764 6.9556654,18.0919364 6.9556654,18.0919364 C6.9556654,18.0919364 6.7391635,17.8699592 6.69695817,18.1633433 C6.69695817,18.1633433 6.3773384,19.7764992 7.63711027,21.08783 C7.63711027,21.08783 16.353308,30.7631156 28.3190875,39.797108 C27.1980228,40.6213665 26.0495817,41.4501878 24.8696578,42.2767278 L25.2460837,44.2895795 C26.8528517,43.2278304 28.4260837,42.1275262 29.9532319,41.0105681 C31.4801521,42.1275262 33.0558935,43.2276023 34.6626616,44.2895795 L35.0390875,42.2767278 C33.8571103,41.4501878 32.7107224,40.6213665 31.5896578,39.797108 C43.5554373,30.7631156 52.2695817,21.08783 52.2695817,21.08783 C53.531635,19.7767273 53.2120152,18.1633433 53.2120152,18.1633433" id="path236" fill="#FFFFFF"></path>
                <path d="M11.7618251,19.6526208 C13.5517871,21.0830391 14.0924715,22.0008338 14.5044867,22.4142178 C14.8558175,22.7632672 15.2030418,22.7981722 15.5815209,23.1766517 C16.1493536,23.7424312 16.3218251,24.423876 16.8622814,24.423876 C17.4155133,24.423876 18.0255513,23.2133817 19.2203042,23.2133817 C20.0194677,23.2133817 18.7259316,23.7517848 18.7259316,24.2726213 C18.7259316,24.7184008 19.708289,24.1074502 19.9227376,24.1074502 C20.2802281,24.1074502 21.6663878,24.7288951 22.4844867,23.6267658 C22.1165019,23.2567278 21.0225856,23.40707 21.0225856,21.9641037 C21.0225856,21.5655486 21.3634221,20.774598 22.2321673,20.774598 C22.9284411,20.774598 23.4604563,21.3887425 23.2396198,22.0893509 C23.1682129,22.3081341 23.5425856,22.5668414 23.5425856,22.9695034 C23.5425856,24.182051 22.7076046,24.3177924 22.7076046,24.8498076 C22.7076046,25.9184008 23.4645627,25.8362715 23.8831939,25.8111764 C24.8591635,25.8111764 26.3673764,26.6231156 26.878403,26.6231156 C27.5030418,26.6231156 27.9971863,26.3518608 27.9971863,26.0436479 C27.9971863,25.7333817 27.2673764,24.3609103 26.8594677,24.3609103 C26.6301901,24.3609103 26.3819772,24.7984768 26.0285932,24.7984768 C25.635057,24.7984768 25.4123954,24.5523171 25.5554373,24.3093513 C25.6332319,24.1715567 25.4080608,23.9475262 25.4080608,23.5836479 C25.4080608,23.1417468 26.0178707,22.1901874 27.2041825,22.1901874 C28.1865399,22.1901874 29.2129278,23.0429635 29.2129278,24.4177163 C29.2129278,25.558857 28.9038023,26.2181726 28.9038023,26.4442563 C28.9038023,26.8660814 29.7073004,27.3593133 30.2226616,27.3593133 C30.7357414,27.3593133 32.658251,26.642051 33.27673,26.642051 C33.8929278,26.642051 34.6081369,26.6872221 34.6081369,26.1161954 C34.6081369,25.5460814 34.2168821,24.4555871 33.8005323,24.4555871 C33.3880608,24.4555871 32.4374144,25.795435 31.2175665,25.795435 C31.0745247,25.795435 30.9104943,25.7660053 30.9104943,25.5609103 C30.9104943,25.3560433 31.2365019,24.8908722 31.4069202,24.7900357 C31.575057,24.6910243 32.4691255,24.3072981 32.4691255,23.9844844 C32.4691255,23.8015186 31.6530798,23.5733817 31.6530798,23.2115567 C31.6530798,22.8424312 32.4711787,23.1378684 32.4711787,22.7824307 C32.4711787,22.4616703 31.7247148,22.1618984 31.7247148,21.3047881 C31.7247148,20.686309 32.1495057,20.0468414 32.9486692,20.0468414 C34.4968061,20.0468414 35.4663878,21.2034954 36.9196198,21.2034954 C38.1522433,21.2034954 39.5069202,20.5505676 40.0998479,20.5505676 C41.9023574,20.5505676 41.8560456,22.5866893 43.6460076,22.5866893 C44.4789354,22.5866893 44.7755133,22.2720885 44.7755133,21.2963471 C44.7755133,20.7620505 44.5168061,20.8136094 44.203346,20.8136094 C43.8921673,20.8136094 43.8479087,20.5749783 43.3852471,20.5749783 C42.7079087,20.5749783 41.9591635,20.2236475 41.9591635,19.8787045 C41.9591635,19.5253205 44.491711,18.7154345 44.861749,18.7154345 C46.1575665,18.7154345 46.2793916,21.3004535 48.3618251,21.3004535 C48.8876806,21.3004535 49.2768821,21.1868414 49.2768821,20.2688186 C49.2768821,19.3517083 49.1295057,19.4349783 48.9611407,19.4568794 C48.7971103,19.4808338 47.9536882,19.7155866 47.9536882,19.4525448 C47.9536882,19.1874497 48.353384,18.924636 47.8717871,18.8468414 C45.6631939,18.4809098 46.3069962,16.4133052 45.446692,16.4133052 C45.0365019,16.4133052 43.6081369,17.1882862 43.6081369,16.2976398 C43.6081369,15.8064611 43.9489734,15.1364231 43.9489734,14.0783243 C43.9489734,12.9088946 43.280076,12.2160429 43.9238783,12.2160429 C45.3307985,12.2160429 47.791711,12.9333052 47.791711,13.2750543 C47.791711,13.521214 46.4078327,13.3790847 46.4078327,13.9987045 C46.4078327,14.3637235 47.2028897,14.806309 48.4081369,14.806309 C49.6177186,14.806309 50.1036502,14.4339897 49.5020532,14.4339897 C48.9025095,14.4339897 47.9751331,14.4171075 47.9751331,13.9987045 C47.9751331,13.581214 49.0455513,13.7660049 49.0455513,13.3266132 C49.0455513,12.6789326 47.9539163,12.7282102 45.9536122,12.1571836 C35.9942966,9.32509232 32.5279848,5.6297311 26.2770342,5.6297311 C18.5828897,5.6297311 19.8134601,10.8764231 15.1377947,12.0604535 C11.4401521,12.9994649 11.0972624,14.8863851 11.0972624,17.1367273 C11.0972624,18.4019744 11.5261597,19.4630391 11.7618251,19.6526208 M15.2954373,21.6043319 C14.8852471,21.6043319 14.9904183,21.3171075 14.9904183,21.3171075 C15.5226616,20.5914041 15.2491255,18.8730771 15.9139163,18.8730771 C16.288289,18.8730771 15.7519392,19.2558908 15.7519392,19.699617 C15.7519392,20.2001494 16.4922433,20.0530011 16.4922433,20.6388566 C16.4922433,21.0143699 15.8865399,21.6043319 15.2954373,21.6043319 M16.8876046,24.0483627 C16.8876046,24.0483627 16.5803042,23.8263856 16.5803042,23.665549 C16.5803042,23.2996175 17.2008365,23.1933057 17.2008365,23.3080586 C17.2008365,23.6180966 16.8876046,24.0483627 16.8876046,24.0483627 M17.388365,17.3933813 C17.388365,17.6479821 16.866616,18.2568794 16.5365019,18.2568794 C16.2862357,18.2568794 15.8865399,17.282963 15.8865399,17.1976398 C15.8865399,17.1136855 16.0022053,16.9517083 16.3681369,16.9517083 C16.7361217,16.9519364 17.388365,17.1367273 17.388365,17.3933813 M14.3908745,13.5232672 C15.8676046,13.5232672 16.6309506,14.3931532 16.6309506,15.3467653 C16.6309506,16.3017463 15.8295057,16.9927729 14.9420532,16.9927729 C14.3762738,16.9927729 14.2079087,16.519617 14.2079087,16.279617 C14.2079087,15.9524687 14.6979468,15.6613661 14.6979468,15.2744459 C14.6979468,14.7894269 14.1068441,14.4561189 13.5177947,14.4561189 C12.5187833,14.4561189 11.8457795,15.3132292 11.8457795,14.8904916 C11.8460076,14.3869935 12.8557414,13.5232672 14.3908745,13.5232672" id="path238" fill="#FFFFFF"></path>
                <path d="M32.2628897,29.4075262 C29.7346768,30.3444844 28.700076,30.7348266 28.8431179,31.1196935 C28.9229658,31.3334578 29.4447148,31.9514806 32.8813688,30.6832677 C36.3034221,29.4141422 43.0446388,26.3251688 42.8110266,25.6964236 C42.6976426,25.38707 37.931635,27.3095795 32.2628897,29.4075262" id="path240" fill="#FFFFFF"></path>
                <path d="M37.7863118,7.18699346 C41.9614449,8.33429384 44.3655513,9.39467407 44.4730038,9.0107197 C44.5781749,8.62562464 41.2590114,7.42790601 38.1944487,6.5853965 C35.1296578,5.74402768 31.9496578,5.32562464 32.0525475,5.42235468 C32.3744487,5.72646114 33.6091255,6.03878053 37.7863118,7.18699346" id="path242" fill="#FFFFFF"></path>
                <path d="M29.9534601,-2.61443521e-06 C13.4361217,-2.61443521e-06 0,13.4370315 0,29.9545985 C0,46.4730776 13.4361217,59.9089711 29.9534601,59.9089711 C46.4730798,59.9089711 59.9092015,46.4728494 59.9092015,29.9545985 C59.9092015,13.4370315 46.4730798,-2.61443521e-06 29.9534601,-2.61443521e-06 M29.9534601,59.5325452 C13.6444106,59.5325452 0.374372624,46.2672981 0.374372624,29.9545985 C0.374372624,13.6444079 13.6444106,0.374370023 29.9534601,0.374370023 C46.2647909,0.374370023 59.5325475,13.6444079 59.5325475,29.9545985 C59.5325475,46.26707 46.2647909,59.5325452 29.9534601,59.5325452" id="path244" fill="#B0B7BB"></path>
                <path d="M29.9534601,3.22744973 C15.2176426,3.22744973 3.22859316,15.2176398 3.22859316,29.9532297 C3.22859316,44.6936099 15.2176426,56.6806061 29.9534601,56.6806061 C44.6915589,56.6806061 56.6803802,44.6936099 56.6803802,29.9532297 C56.6803802,15.2176398 44.6913308,3.22744973 29.9534601,3.22744973 M37.2353612,43.8542943 C37.458251,43.8944464 37.6307224,44.0669179 37.7295057,44.3274502 C37.7295057,44.3274502 38.1524715,44.1679825 38.3879087,44.7818989 C38.3879087,44.7818989 38.8298099,44.638857 39.0419772,45.2320129 C39.0419772,45.2320129 39.4774905,45.0889711 39.698327,45.6864616 C39.698327,45.6864616 40.1126236,45.530416 40.3523954,46.1365757 C40.3523954,46.1365757 40.7942966,45.9958152 41.0064639,46.5910243 C41.0064639,46.5910243 41.4294297,46.4479825 41.6605323,47.0450167 C41.6605323,47.0450167 42.1001521,46.9019749 42.3189354,47.4951308 C42.3189354,47.4951308 42.7396198,47.3479825 42.9688973,47.9457011 C43.0236502,47.9372601 43.0740684,47.9203779 43.1265399,47.928819 C43.5620532,48.0045605 43.7997719,48.572165 43.6820532,49.2472221 C43.6777186,49.2832677 43.6692776,49.318857 43.6608365,49.3546745 C44.3678327,48.6207582 44.9755894,48.0424312 45.7706464,48.5406821 C46.450038,48.9698076 46.5825856,49.9058532 46.0882129,50.6924692 C45.4571863,51.693762 44.6454753,51.1724692 44.2562738,50.865397 C43.4486692,51.4772601 41.3685171,53.9488951 37.5362738,51.5297316 C32.5197719,48.3666137 35.9692015,42.8618989 35.3151331,42.0312525 C35.1426616,41.8124692 34.7073764,41.5074502 34.9282129,41.1520129 C35.1111787,40.8618228 35.6707985,40.7648646 36.1795437,41.0844844 C37.1493536,41.6986289 37.0546768,42.7334578 36.8126236,43.9494274 C36.944943,43.8650167 37.0879848,43.8294274 37.2353612,43.8542943 M35.3507224,42.148743 L34.8668441,44.7650167 C33.3104943,43.7406821 31.4320152,42.4387049 29.9534601,41.3598456 C28.4728517,42.4387049 26.596654,43.7406821 25.0423574,44.7650167 L24.5584791,42.148743 C25.6291255,41.3956631 26.8238783,40.5394654 27.8438783,39.7907202 C16.1368061,30.890416 7.52988593,21.3898832 7.42904943,21.2783243 C6.08076046,19.876195 6.40471483,18.1811379 6.41543726,18.1231912 C6.45741445,17.7540657 6.85072243,17.5690467 7.16623574,17.901214 C7.26296578,18.0104916 16.0170342,27.6732297 29.9536882,38.2174882 C43.8905703,27.6732297 52.6444106,18.0107197 52.7434221,17.901214 C53.0589354,17.5690467 53.4501901,17.7538376 53.4921673,18.1231912 C53.504943,18.1811379 53.8288973,19.8764231 52.4803802,21.2783243 C52.3813688,21.3896551 43.7703422,30.890416 32.0612167,39.7907202 C33.0853232,40.5394654 34.280076,41.3956631 35.3507224,42.148743 M13.8209886,50.6922411 C13.326616,49.9058532 13.4591635,48.9695795 14.1385551,48.540454 C14.9317871,48.042203 15.541597,48.6207582 16.2460837,49.3544464 C16.239924,49.318857 16.2314829,49.2830395 16.2250951,49.2469939 C16.1094297,48.5719369 16.3469202,48.0043323 16.7803802,47.9285909 C16.8351331,47.9201498 16.8855513,47.9370319 16.9380228,47.945473 C17.1695817,47.3479825 17.590038,47.4949027 17.590038,47.4949027 C17.8065399,46.9017468 18.2484411,47.0447886 18.2484411,47.0447886 C18.4797719,46.4477544 18.9025095,46.5907962 18.9025095,46.5907962 C19.1128517,45.9955871 19.5565779,46.1363475 19.5565779,46.1363475 C19.7963498,45.530416 20.2106464,45.6862335 20.2106464,45.6862335 C20.431711,45.088743 20.8669962,45.2317848 20.8669962,45.2317848 C21.0793916,44.6386289 21.5210646,44.7816707 21.5210646,44.7816707 C21.7544487,44.1677544 22.1794677,44.3272221 22.1794677,44.3272221 C22.2784791,44.0664616 22.4486692,43.8942183 22.6738403,43.8540662 C22.8189354,43.8291992 22.9638023,43.8647886 23.0965779,43.9489711 C22.8526996,42.7330015 22.7580228,41.6981726 23.7296578,41.0840281 C24.2386312,40.7644084 24.798251,40.8611384 24.9809886,41.1515567 C25.2018251,41.5069939 24.7665399,41.8120129 24.5940684,42.0307962 C23.94,42.8614426 27.3894297,48.3661574 22.3688213,51.5292753 C18.5386312,53.9484388 16.4605323,51.4768038 15.6529278,50.8649407 C15.2637262,51.1720129 14.4520152,51.6933057 13.8209886,50.6922411 M32.7552091,22.7810619 C32.7552091,23.1301118 32.4985551,23.2407582 32.0126236,23.2859293 C32.2754373,23.5079065 32.7529278,23.6320129 32.7529278,23.9831156 C32.7529278,24.3860053 32.264943,24.6816707 31.5517871,25.0348266 C31.4634981,25.090492 31.2720913,25.3638 31.2173384,25.5102639 C32.3363498,25.5102639 33.2092015,24.170416 33.8023574,24.170416 C34.4796958,24.170416 34.8919392,25.5239521 34.8919392,26.1159673 C34.8919392,26.7816707 34.3364259,26.9256251 33.4026616,26.9256251 C32.5277567,26.9256251 30.8787833,27.6431156 30.2226616,27.6431156 C29.6190114,27.6431156 28.62,27.0803019 28.62,26.4431156 C28.62,26.1907962 28.9311787,25.4806061 28.9311787,24.4163475 C28.9311787,23.2163475 28.035057,22.4739897 27.2023574,22.4739897 C26.1631939,22.4739897 25.690038,23.3238 25.690038,23.5843323 C25.690038,23.9418228 25.9886692,24.1366517 25.7929278,24.4446365 C25.8036502,24.4635719 25.8791635,24.5151308 26.0285932,24.5151308 C26.2346008,24.5151308 26.5060837,24.0775643 26.8612928,24.0775643 C27.5048669,24.0775643 28.2789354,25.6583247 28.2789354,26.042051 C28.2789354,26.5332297 27.6796198,26.905549 26.8781749,26.905549 C26.2492015,26.905549 24.7706464,26.0933817 23.8998479,26.0933817 C23.3548289,26.1428875 22.4231179,26.1157392 22.4231179,24.8482106 C22.4231179,24.1510243 23.2560456,24.0752829 23.2560456,22.9690471 C23.2560456,22.669503 22.8501901,22.3916322 22.9676806,22.0015182 C23.1529278,21.3832672 22.6270722,21.0581722 22.2294297,21.0581722 C21.524943,21.0581722 21.3082129,21.7218224 21.3082129,21.9627349 C21.3082129,23.2035719 22.1306464,22.9101878 22.6859316,23.425549 C22.784943,23.5243323 22.801597,23.6863095 22.713308,23.7935338 C22.2524715,24.3561194 21.6467681,24.8336099 19.9389354,24.3896555 C19.1776426,24.7514806 18.4434981,24.9134578 18.4434981,24.2719369 C18.4434981,23.9890471 18.6369582,23.7524692 18.8431939,23.5526213 C17.9660076,23.7935338 17.5053992,24.7063095 16.8597719,24.7063095 C16.129962,24.7063095 15.9152852,23.9103399 15.3812167,23.3760433 C15.1245627,23.1193894 14.5168061,22.8542943 14.3064639,22.6133813 C13.1347529,21.172925 12.4996198,20.6573357 11.5827376,19.8739136 C11.2209125,19.5825828 10.815057,18.3510999 10.815057,17.136271 C10.815057,14.8847881 11.1390114,12.7836475 15.0679848,11.7855486 C19.5123194,10.6571836 18.5092015,5.34615696 26.2745247,5.34615696 C32.6646388,5.34615696 36.7028897,9.3193889 46.0291255,11.8852444 C48.1156654,12.4574117 49.3293536,12.4122406 49.3293536,13.3259288 C49.3293536,13.8686665 48.6752852,13.8855486 48.3134601,14.02129 C48.4227376,14.0790087 48.7129278,14.1485904 49.5038783,14.1485904 C50.2631179,14.1485904 50.4923954,15.0898832 48.4101901,15.0898832 C47.1271483,15.0898832 46.1240304,14.6091988 46.1240304,13.9982482 C46.1240304,13.4208338 46.755057,13.2693509 47.1903422,13.1904155 C46.5068441,12.8993129 44.9988593,12.5048642 43.9407605,12.5007577 C43.9407605,12.5007577 44.2309506,13.3409859 44.2309506,14.0792368 C44.2309506,15.1909478 43.8903422,15.8671456 43.8903422,16.2983243 C43.8903422,16.7076018 45.0262357,16.1301874 45.446692,16.1301874 C46.6601521,16.1301874 45.84,18.2452444 47.9180989,18.5660049 C48.4186312,18.6659288 48.4797719,18.9538376 48.3134601,19.2809859 C48.3134601,19.2809859 48.6161977,19.2433433 48.9485932,19.1717083 C49.3902662,19.1021265 49.5586312,19.3786284 49.5586312,20.2674497 C49.5586312,21.4263851 48.954981,21.5840277 48.3595437,21.5840277 C46.1404563,21.5840277 45.905019,18.9990087 44.861749,18.9990087 C44.5252471,18.9990087 42.6848669,19.619541 42.2874525,19.9213661 C42.4072243,20.061214 42.8552852,20.2916322 43.3873004,20.2916322 C43.8522433,20.2916322 44.0518631,20.5282102 44.2056274,20.5282102 C44.6114829,20.5282102 45.0572624,20.5503395 45.0572624,21.2947501 C45.0572624,22.4126208 44.6493536,22.8691232 43.6457795,22.8691232 C41.6920152,22.8691232 41.7109506,20.8341417 40.0996198,20.8341417 C39.5822053,20.8341417 38.1960456,21.4870695 36.9214449,21.4870695 C35.4006844,21.4870695 34.3932319,20.3301874 32.9461597,20.3301874 C32.329962,20.3301874 32.0080608,20.8213661 32.0080608,21.3043319 C32.0085171,22.0640277 32.7552091,22.2816703 32.7552091,22.7810619 M28.4917871,25.7069179 C28.2834981,25.0350548 27.6209886,23.7939901 26.8615209,23.7939901 C26.4661597,23.7939901 26.1234981,24.1450928 26.1234981,24.1450928 C26.1086692,23.9297316 25.9761217,23.7383247 25.9761217,23.5845605 C25.9843346,23.4406061 26.3356654,22.7580201 27.2023574,22.7580201 C27.8963498,22.7580201 28.6450951,23.3911004 28.6450951,24.4165757 C28.6453232,24.9675262 28.5675285,25.3893513 28.4917871,25.7069179 M22.9409886,23.3048646 C22.4363498,22.6263851 21.5906464,23.0723932 21.5906464,21.962963 C21.5906464,21.8103395 21.7380228,21.3422026 22.2301141,21.3422026 C22.4806084,21.3422026 22.7224335,21.5000733 22.7224335,21.7692748 C22.7224335,21.8682862 22.6612928,21.9891988 22.6612928,22.1352064 C22.6612928,22.6455486 23.1219011,22.8399217 22.9409886,23.3048646 M29.9534601,3.60410373 C39.9590875,3.60410373 48.6837262,9.2105676 53.1426616,17.4472216 C52.9407605,17.4355866 52.7196958,17.5156627 52.5326236,17.7123167 C52.4990875,17.7458528 51.5607605,18.7838756 49.8339924,20.5263851 C49.8403802,20.444484 49.8467681,20.3582482 49.8467681,20.2676779 C49.8467681,18.859617 49.3608365,18.8060049 48.6627376,18.9374117 C48.6627376,18.9374117 48.6837262,18.4220505 47.9664639,18.286309 C46.0984791,18.0602254 46.9546768,15.8463851 45.446692,15.8463851 C45.0976426,15.8463851 44.6431939,16.0642558 44.1971863,16.1431912 C44.2834221,15.564636 44.5147529,15.0944459 44.5147529,14.0796931 C44.5147529,13.5508718 44.4034221,13.1301874 44.3087452,12.8050923 C44.956654,12.8566513 45.7115589,13.0165752 46.3154373,13.1908718 C46.048289,13.3496551 45.84,13.597868 45.84,13.9987045 C45.84,14.7946741 46.9211407,15.3741417 48.4104183,15.3741417 C51.0353612,15.3741417 50.600076,13.7810619 49.3779468,13.862963 C49.5104943,13.7336094 49.613384,13.5736855 49.613384,13.3263851 C49.613384,12.2105676 48.2463878,12.16129 46.1071483,11.6121646 C40.0053992,9.86760183 36.438251,7.85771589 33.1505703,6.53064365 C34.2086692,6.86509232 35.739924,7.21414175 37.6348289,7.73475011 C42.3673004,9.03558662 44.683346,10.3818224 45.0196198,9.16083376 C45.3036502,8.12919878 42.2431939,7.11011133 38.3436502,6.03741171 C31.8928517,4.26341932 31.6152091,4.91087179 31.5205323,5.25376152 C31.4238023,5.61558662 31.6489734,5.8932292 32.1495057,6.14554859 C30.3109506,5.47984517 28.4897338,5.06235468 26.2747529,5.06235468 C18.4147529,5.06235468 19.2139163,10.4470695 14.9988593,11.5101874 C10.8741445,12.5577919 10.5312548,14.8640277 10.5312548,17.1364992 C10.5312548,18.3618224 10.9332319,19.7164992 11.4063878,20.0961189 C13.1162738,21.4653965 13.5978707,22.3076779 14.1027376,22.8134573 C14.3993156,23.1447125 14.9650951,23.3603019 15.1797719,23.5761194 C15.7140684,24.0818989 15.9451711,24.9914806 16.8602281,24.9914806 C17.4196198,24.9914806 17.8320913,24.5066897 18.1642586,24.2564236 C18.1622053,24.5865376 18.3853232,25.46053 19.9626616,24.6832677 C19.9626616,24.6832677 21.2436502,25.0902639 22.173308,24.6034198 C22.1543726,24.6812144 22.1397719,24.7578684 22.1397719,24.8482106 C22.1397719,26.3523171 23.2859316,26.4362715 23.9169582,26.3785529 C24.7373384,26.3785529 26.1463118,27.190492 26.878403,27.190492 C27.5473004,27.190492 28.0813688,26.9399977 28.3590114,26.5763475 C28.4726236,27.3323932 29.5202281,27.9266897 30.2226616,27.9266897 C30.9230418,27.9266897 32.6267681,27.2094274 33.4008365,27.2094274 C34.2358175,27.2094274 35.1759696,27.1147506 35.1759696,26.1157392 C35.1759696,25.5015947 34.7511787,23.8861574 33.8023574,23.8861574 C33.5057795,23.8861574 33.2514068,24.0565757 32.9568821,24.2869939 C32.9990875,24.1900357 33.0346768,24.0933057 33.0346768,23.9828875 C33.0346768,23.6990852 32.8726996,23.5222791 32.6812928,23.3867658 C32.9484411,23.2268418 33.0387833,22.9923171 33.0387833,22.7810619 C33.0387833,22.1226589 32.2923194,21.9134573 32.2923194,21.30456 C32.2923194,21.0668414 32.4310266,20.6146741 32.9463878,20.6146741 C34.3010646,20.6146741 35.3208365,21.7713281 36.921673,21.7713281 C38.1773384,21.7713281 39.6686692,21.1184003 40.0998479,21.1184003 C41.5154373,21.1184003 41.5681369,23.1545224 43.6460076,23.1545224 C45.1690494,23.1545224 45.3415209,22.094598 45.3415209,21.2952064 C45.3415209,20.4969554 44.8555894,20.1814421 44.209962,20.244636 C43.7071483,19.9218224 43.3097338,20.0701113 42.8847148,19.926157 C43.528289,19.6455486 44.5925475,19.3056246 44.8763498,19.2814421 C45.5810646,19.2814421 46.098251,21.8687425 48.3595437,21.8687425 C48.4058555,21.8687425 48.4480608,21.8644079 48.4920913,21.8644079 C44.6452471,25.6482867 38.2213688,31.5935338 29.9532319,37.8622791 C16.1406844,27.3866897 7.47285171,17.819541 7.37612167,17.7125448 C7.18676806,17.5158908 6.96821293,17.4358148 6.76608365,17.4474497 C11.2254753,9.2105676 19.9460076,3.60410373 29.9534601,3.60410373 M31.7876806,5.33817217 C31.7812928,5.11824821 33.5123954,5.0037235 38.2701901,6.31094783 C41.7511027,7.26798205 44.9395437,8.37649916 44.7463118,9.08532046 C44.5254753,9.88859042 42.1635741,8.68448395 37.7085171,7.4593889 C33.6196198,6.33535848 31.8022814,6.01231665 31.7876806,5.33817217 M3.60296578,29.9534578 C3.60296578,25.9647125 4.49703422,22.1785524 6.09125475,18.7859288 C6.11224335,19.466233 6.31619772,20.5304916 7.21847909,21.4676779 C7.31749049,21.5801494 15.7936882,30.9358152 27.3704943,39.7845605 C26.7668441,40.2264616 26.0285932,40.76053 25.3197719,41.2631156 C25.3069962,41.1768798 25.2757414,41.0883627 25.2189354,40.9980205 C24.9602281,40.5878304 24.2388593,40.4281346 23.578403,40.8444844 C22.5581749,41.4880586 22.5269202,42.4555871 22.7180989,43.5641042 C22.6886692,43.5663856 22.6590114,43.5682106 22.6254753,43.5743703 C22.3626616,43.6206821 22.1584791,43.7890471 22.0154373,44.0333817 C22.0154373,44.0333817 21.6727757,43.995511 21.3593156,44.4850928 C21.3593156,44.4850928 20.9974905,44.453838 20.7052471,44.9372601 C20.7052471,44.9372601 20.3603042,44.8909483 20.0532319,45.3894274 C20.0532319,45.3894274 19.6936882,45.3622791 19.3971103,45.843876 C19.3971103,45.843876 19.0352852,45.8082867 18.7407605,46.2960433 C18.7407605,46.2960433 18.3894297,46.2599977 18.086692,46.7500357 C18.086692,46.7500357 17.7310266,46.7144464 17.4303422,47.2006061 C17.4303422,47.2006061 17.0917871,47.1627354 16.7785551,47.6545985 C16.7639544,47.6545985 16.7491255,47.6461574 16.7342966,47.650492 C16.2885171,47.7262335 15.9896578,48.125473 15.926692,48.6725452 C15.3335361,48.1298076 14.7488213,47.8206821 13.9875285,48.3022791 C13.4552852,48.638781 12.9926236,49.4466137 13.3628897,50.4077544 C7.4121673,45.5728494 3.60296578,38.2006061 3.60296578,29.9534578 M29.9534601,56.3041802 C24.3501901,56.3041802 19.1488973,54.5436479 14.8726996,51.5502639 C15.173384,51.5044084 15.4448669,51.3568038 15.638327,51.222203 C16.4060076,51.8468418 18.7197719,54.168819 22.5225856,51.7711004 C25.625019,49.8127734 25.6268441,47.078781 25.271635,44.9625833 C26.7355894,43.9822791 28.6537643,42.6572601 29.9534601,41.7109483 C31.253384,42.6572601 33.1736122,43.9825072 34.6375665,44.9625833 C34.2821293,47.0785529 34.2841825,49.8127734 37.386616,51.7711004 C41.1894297,54.168819 43.5031939,51.8468418 44.2688213,51.222203 C44.4622814,51.3568038 44.7358175,51.5041802 45.0365019,51.5502639 C40.7605323,54.5436479 35.5587833,56.3041802 29.9534601,56.3041802 M46.5465399,50.4084388 C46.9168061,49.4429635 46.4541445,48.6394654 45.9219011,48.3029635 C45.1606084,47.8213665 44.5758935,48.130492 43.9827376,48.6732297 C43.9197719,48.1261574 43.6209125,47.7269179 43.1751331,47.6511764 C43.1605323,47.6466137 43.1454753,47.6552829 43.1308745,47.6552829 C42.8176426,47.1634198 42.4768061,47.2012905 42.4768061,47.2012905 C42.1781749,46.7151308 41.8206844,46.7507202 41.8206844,46.7507202 C41.5177186,46.2606821 41.166616,46.2967278 41.166616,46.2967278 C40.8720913,45.808743 40.5125475,45.8445605 40.5125475,45.8445605 C40.2157414,45.3629635 39.8561977,45.3901118 39.8561977,45.3901118 C39.5470722,44.8914046 39.2021293,44.9379445 39.2021293,44.9379445 C38.9119392,44.4545224 38.5480608,44.4857772 38.5480608,44.4857772 C38.236654,43.9961954 37.8939924,44.0340662 37.8939924,44.0340662 C37.7509506,43.7899597 37.5469962,43.6213665 37.2839544,43.5750548 C37.2504183,43.5688951 37.2209886,43.56707 37.1892776,43.5647886 C37.3827376,42.4562715 37.3512548,41.488743 36.3310266,40.8451688 C35.6705703,40.428819 34.9489734,40.5885148 34.6904943,40.9987049 C34.631635,41.0890471 34.6022053,41.1775643 34.5896578,41.2638 C33.8808365,40.7612144 33.1425856,40.2269179 32.5389354,39.7852449 C44.1134601,30.9364996 52.5919392,21.5808338 52.6932319,21.4683623 C53.5932319,20.5314041 53.7974144,19.4671456 53.818403,18.7866132 C55.4128517,22.1792368 56.306692,25.965397 56.306692,29.9541422 C56.3062357,38.2006061 52.494981,45.5728494 46.5465399,50.4084388" id="path246" fill="#B0B7BB"></path>
                <path d="M36.4421293,45.9725452 C36.2780989,47.4866897 36.5390875,49.0644844 38.5729278,50.3472981 C40.4995437,51.5632677 41.7321673,51.085549 42.6892015,50.2968798 C42.4809125,50.2482867 42.3189354,50.0780966 42.2265399,49.8298837 C42.2265399,49.8298837 41.7994677,49.9898076 41.5640304,49.3777163 C41.5640304,49.3777163 41.1244106,49.5184768 40.909962,48.925549 C40.909962,48.925549 40.47673,49.0685909 40.2579468,48.4715567 C40.2579468,48.4715567 39.8393156,48.627146 39.6018251,48.0193894 C39.6018251,48.0193894 39.159924,48.1642563 38.9454753,47.5672221 C38.9454753,47.5672221 38.5247909,47.7102639 38.2914068,47.1150548 C38.2914068,47.1150548 37.8517871,47.2558152 37.6373384,46.6628875 C37.6373384,46.6628875 37.2125475,46.8102639 36.98327,46.2127734 C36.9307985,46.2189331 36.8780989,46.2380966 36.8274525,46.2273741 C36.6693536,46.2015947 36.5390875,46.1112525 36.4421293,45.9725452 M36.6841825,46.4858532 C36.7136122,46.493838 36.7471483,46.5022791 36.7788593,46.5068418 C36.7934601,46.5086669 36.8062357,46.5022791 36.8251711,46.5045605 C37.1363498,46.9945985 37.4769582,46.9546745 37.4769582,46.9546745 C37.7758175,47.4408342 38.1310266,47.4068418 38.1310266,47.4068418 C38.438327,47.8968798 38.7873764,47.8612905 38.7873764,47.8612905 C39.0819011,48.3492753 39.4414449,48.3152829 39.4414449,48.3152829 C39.7380228,48.7968798 40.0955133,48.7658532 40.0955133,48.7658532 C40.406692,49.2661574 40.7495817,49.2198456 40.7495817,49.2198456 C41.0441065,49.7060053 41.4059316,49.6699597 41.4059316,49.6699597 C41.715057,50.1622791 42.0579468,50.1244084 42.0579468,50.1244084 C42.099924,50.1958152 42.148289,50.2590091 42.2030418,50.3178684 C41.3470722,50.8815947 40.2764259,51.0832677 38.7241825,50.1075262 C37.0291255,49.0350548 36.6378707,47.7625072 36.6841825,46.4858532" id="path248" fill="#B0B7BB"></path>
                <path d="M21.3360456,50.3472981 C23.3678327,49.0644844 23.6329278,47.4866897 23.4668441,45.9725452 C23.3698859,46.1110243 23.2375665,46.1997696 23.081749,46.2291992 C23.0292776,46.2376403 22.9765779,46.2207582 22.9259316,46.2123171 C22.6946008,46.8098076 22.2698099,46.6624312 22.2698099,46.6624312 C22.0553612,47.2555871 21.6157414,47.1125452 21.6157414,47.1125452 C21.3823574,47.7100357 20.961673,47.5669939 20.961673,47.5669939 C20.7490494,48.1640281 20.3053232,48.0209863 20.3053232,48.0209863 C20.0676046,48.6269179 19.6512548,48.4731536 19.6512548,48.4731536 C19.4324715,49.0683627 18.9971863,48.9253209 18.9971863,48.9253209 C18.7845627,49.5184768 18.3431179,49.3774882 18.3431179,49.3774882 C18.1097338,49.9898076 17.6824335,49.8296555 17.6824335,49.8296555 C17.590038,50.0778684 17.4280608,50.2462335 17.2197719,50.2966517 C18.1747529,51.0878304 19.4073764,51.5609863 21.3360456,50.3472981 M17.8487452,50.1244084 C17.8487452,50.1244084 18.191635,50.1622791 18.5007605,49.6722411 C18.5007605,49.6722411 18.8646388,49.7039521 19.1568821,49.2200738 C19.1568821,49.2200738 19.4997719,49.2663856 19.8109506,48.7660814 C19.8109506,48.7660814 20.1707224,48.795511 20.4673004,48.3139141 C20.4673004,48.3139141 20.8268441,48.3495034 21.1213688,47.8617468 C21.1213688,47.8617468 21.4704183,47.8996175 21.7777186,47.4095795 C21.7777186,47.4095795 22.1331559,47.4412905 22.4317871,46.9574122 C22.4317871,46.9574122 22.7723954,46.9993894 23.0835741,46.5052449 C23.1004563,46.5029635 23.1152852,46.5114046 23.1298859,46.5093513 C23.161597,46.5031916 23.1928517,46.4947506 23.2225095,46.4865376 C23.2685932,47.7631916 22.8796198,49.0375643 21.1822814,50.1059293 C19.6320913,51.0862335 18.5593916,50.882051 17.7077567,50.3185529 C17.758403,50.2612905 17.8090494,50.1958152 17.8487452,50.1244084" id="path250" fill="#B0B7BB"></path>
                <path d="M33.0768821,31.2132297 C39.5488973,28.8207582 43.7429658,26.5765757 43.3453232,25.4995414 C42.9415209,24.4069939 39.9337643,25.9644844 32.0653232,28.8743703 C28.2773384,30.2764996 28.0542205,30.6276023 28.3108745,31.3163475 C28.5148289,31.8666137 29.2003802,32.6477544 33.0768821,31.2132297 M32.1641065,29.1415186 C38.9324715,26.6365757 42.8194677,24.8961194 43.0804563,25.5985529 C43.3939163,26.4513285 37.925019,29.1184768 32.9780989,30.9483627 C29.3247148,32.3007582 28.7190114,31.5994654 28.5780228,31.2196175 C28.3781749,30.6812144 29.0048669,30.3109483 32.1641065,29.1415186" id="path252" fill="#B0B7BB"></path>
                <path d="M29.9534601,0.751024015 C13.8253232,0.751024015 0.751026616,13.8241798 0.751026616,29.9545985 C0.751026616,46.0841042 13.8253232,59.1581726 29.9534601,59.1581726 C46.0818251,59.1581726 59.158403,46.083876 59.158403,29.9545985 C59.158403,13.8241798 46.0818251,0.751024015 29.9534601,0.751024015 M29.9534601,57.0568038 C14.988365,57.0568038 2.8521673,44.9210624 2.8521673,29.9545985 C2.8521673,14.9874497 14.988365,2.85330525 29.9534601,2.85330525 C44.9208365,2.85330525 57.054981,14.9874497 57.054981,29.9545985 C57.054981,44.9210624 44.9208365,57.0568038 29.9534601,57.0568038" id="path254" fill="#FDBB30"></path>
                <path d="M36.8735361,45.9472221 C36.9807605,45.9682106 37.0859316,45.9177924 37.1847148,45.8233437 C37.2688973,46.5595414 37.6895817,46.4543703 37.8410646,46.275511 C37.925019,47.0117087 38.3436502,46.9065376 38.4951331,46.7272221 C38.5790875,47.463876 39.0020532,47.3587049 39.1492015,47.1793894 C39.2331559,47.9155871 39.6561217,47.810416 39.8053232,47.633838 C39.8895057,48.3700357 40.3101901,48.2648646 40.4596198,48.0860053 C40.5435741,48.8242563 40.9665399,48.7170319 41.1157414,48.5381726 C41.1976426,49.2743703 41.6206084,49.1691992 41.7698099,48.9903399 C41.851711,49.7281346 42.2746768,49.6229635 42.4261597,49.442051 C42.4512548,49.7580205 42.5796958,49.9891232 42.7667681,50.0226593 C43.0318631,50.0689711 43.3156654,49.6987049 43.4041825,49.1984008 C43.4881369,48.6976403 43.3430418,48.2536859 43.0779468,48.2096555 C42.9727757,48.1932297 42.8655513,48.2390852 42.7667681,48.3339901 C42.6848669,47.5996175 42.2619011,47.7029635 42.1106464,47.8818228 C42.0285171,47.1456251 41.6101141,47.2507962 41.4563498,47.4296555 C41.3744487,46.6914046 40.951711,46.7986289 40.8045627,46.9774882 C40.7203802,46.2412905 40.2974144,46.3464616 40.1461597,46.5253209 C40.0660837,45.78707 39.643346,45.8922411 39.4920913,46.0690471 C39.409962,45.3328494 38.9892776,45.4380205 38.8380228,45.6189331 C38.7558935,44.8827354 38.3331559,44.9879065 38.1837262,45.1644844 C38.1018251,44.4282867 37.6790875,44.5334578 37.5276046,44.7143703 C37.5025095,44.4011384 37.3761217,44.1677544 37.1847148,44.133762 C36.9237262,44.0874502 36.6358175,44.4577163 36.5495817,44.9584768 C36.463346,45.4592373 36.6107224,45.9029635 36.8735361,45.9472221" id="path256" fill="#FDBB30"></path>
                <path d="M17.1422053,50.0233437 C17.3292776,49.992089 17.4577186,49.7564236 17.4850951,49.4427354 C17.6342966,49.6236479 18.054981,49.728819 18.1391635,48.9926213 C18.2906464,49.1694274 18.7113308,49.2768798 18.7932319,48.5386289 C18.9447148,48.7195414 19.3653992,48.8224312 19.4495817,48.0885148 C19.5987833,48.2648646 20.021749,48.3700357 20.1036502,47.6340662 C20.2528517,47.810416 20.6758175,47.9155871 20.7577186,47.1796175 C20.9092015,47.36053 21.3276046,47.4657011 21.4117871,46.7295034 C21.56327,46.9063095 21.9839544,47.0114806 22.0681369,46.275511 C22.2173384,46.4518608 22.640076,46.5570319 22.7222053,45.8210624 C22.8209886,45.9177924 22.9282129,45.9663856 23.033384,45.9472221 C23.298251,45.9009103 23.4435741,45.4592373 23.3573384,44.9589331 C23.2711027,44.4581726 22.9870722,44.0879065 22.7222053,44.1342183 C22.5328517,44.1659293 22.4044106,44.3993133 22.3793156,44.7125452 C22.2298859,44.5339141 21.8092015,44.428743 21.7252471,45.1669939 C21.5737643,44.9860814 21.1551331,44.8831916 21.0711787,45.6191612 C20.9196958,45.44053 20.49673,45.3349027 20.4148289,46.0713285 C20.2656274,45.8922411 19.8426616,45.7893513 19.7607605,46.5234958 C19.6092776,46.3466897 19.1906464,46.2392373 19.106692,46.9774882 C18.9552091,46.798857 18.5322433,46.6936859 18.4503422,47.4296555 C18.3011407,47.2510243 17.8781749,47.1458532 17.7962738,47.8818228 C17.6447909,47.7031916 17.2241065,47.5980205 17.1401521,48.3362715 C17.0431939,48.2390852 16.9339163,48.1888951 16.8287452,48.2096555 C16.5638783,48.2559673 16.4208365,48.6976403 16.5070722,49.1984008 C16.5930798,49.6993894 16.8771103,50.0696555 17.1422053,50.0233437" id="path258" fill="#FDBB30"></path>
                <path d="M45.6191635,48.7825072 C43.9722433,47.7433437 42.8596198,53.3849407 38.4214449,50.58707 C33.5292776,47.4996935 38.3290494,42.7774882 36.0257795,41.3242563 C35.6324715,41.0780966 35.251711,41.1727734 35.1698099,41.3030395 C35.0856274,41.4355871 35.3379468,41.603724 35.5357414,41.8542183 C36.3896578,42.9310243 32.761597,48.1831916 37.6895817,51.2897316 C41.9046388,53.9484388 43.9576426,50.3326973 44.3044106,50.5491992 C44.5861597,50.7301118 45.2719392,51.4496555 45.8484411,50.5412144 C46.3594677,49.728819 46.0165779,49.030492 45.6191635,48.7825072" id="path260" fill="#FDBB30"></path>
                <path d="M24.3711787,41.8542183 C24.573308,41.6018989 24.8256274,41.4378684 24.7414449,41.3009863 C24.6572624,41.1725452 24.2744487,41.0760433 23.8811407,41.3242563 C21.579924,42.7756631 26.3819772,47.4996935 21.4852471,50.58707 C17.0495817,53.3849407 15.9346768,47.7433437 14.2898099,48.7825072 C13.8923954,49.0330015 13.5495057,49.7272221 14.0628137,50.5412144 C14.6347529,51.4496555 15.3225856,50.7282867 15.6045627,50.5514806 C15.9515589,50.3308722 18.0063878,53.9486669 22.2173384,51.2897316 C27.1455513,48.1831916 23.5172624,42.9310243 24.3711787,41.8542183" id="path262" fill="#FDBB30"></path>
                <path id="path264" fill="#E31837"></path>
                <path d="M29.9534601,0.374370023 C13.6444106,0.374370023 0.374372624,13.6432672 0.374372624,29.9545985 C0.374372624,46.2650167 13.6444106,59.5325452 29.9534601,59.5325452 C46.2647909,59.5325452 59.5325475,46.2650167 59.5325475,29.9545985 C59.5325475,13.6432672 46.2647909,0.374370023 29.9534601,0.374370023 M29.9534601,59.1581726 C13.8253232,59.1581726 0.751026616,46.083876 0.751026616,29.9545985 C0.751026616,13.8241798 13.8253232,0.751024015 29.9534601,0.751024015 C46.0818251,0.751024015 59.158403,13.8241798 59.158403,29.9545985 C59.158403,46.083876 46.0818251,59.1581726 29.9534601,59.1581726" id="path266" fill="#002D62"></path>
                <path d="M29.9534601,2.85216456 C14.988365,2.85216456 2.8521673,14.9872216 2.8521673,29.9534578 C2.8521673,44.9228875 14.988365,57.0549787 29.9534601,57.0549787 C44.9208365,57.0549787 57.054981,44.9226593 57.054981,29.9534578 C57.054981,14.9872216 44.9208365,2.85216456 29.9534601,2.85216456 M29.9534601,56.6808342 C15.2176426,56.6808342 3.22859316,44.693838 3.22859316,29.9534578 C3.22859316,15.2176398 15.2176426,3.22767787 29.9534601,3.22767787 C44.6915589,3.22767787 56.6803802,15.217868 56.6803802,29.9534578 C56.6803802,44.693838 44.6913308,56.6808342 29.9534601,56.6808342" id="path268" fill="#002D62"></path>
                <path d="M53.8177186,18.7859288 C53.79673,19.466233 53.5948289,20.5304916 52.6925475,21.4699592 C52.5894297,21.5792368 44.1130038,30.9358152 32.5361977,39.7845605 C33.1398479,40.2264616 33.8801521,40.76053 34.5889734,41.2631156 C34.601749,41.1768798 34.6311787,41.0883627 34.6879848,40.9980205 C34.9487452,40.5878304 35.6703422,40.4281346 36.3305703,40.8444844 C37.3526236,41.4880586 37.3820532,42.4555871 37.1888213,43.562051 C37.218251,43.5666137 37.2517871,43.5666137 37.2834981,43.5745985 C37.5442586,43.6190852 37.7504943,43.7892753 37.8955894,44.0336099 C37.8955894,44.0336099 38.2384791,43.9957392 38.5476046,44.4853209 C38.5476046,44.4853209 38.9114829,44.4540662 39.201673,44.9374882 C39.201673,44.9374882 39.546616,44.8911764 39.8577947,45.3919369 C39.8577947,45.3919369 40.2175665,45.3625072 40.5120913,45.8441042 C40.5120913,45.8441042 40.871635,45.8085148 41.1661597,46.2962715 C41.1661597,46.2962715 41.5172624,46.2625072 41.8202281,46.7502639 C41.8202281,46.7502639 42.1756654,46.7169559 42.4763498,47.2024312 C42.4763498,47.2024312 42.8192395,47.1627354 43.1304183,47.6525452 C43.145019,47.6548266 43.160076,47.6463856 43.17673,47.6484388 C43.6227376,47.7264616 43.9170342,48.1257011 43.9822814,48.6727734 C44.573384,48.1300357 45.1622053,47.8209103 45.9193916,48.3025072 C46.4536882,48.637184 46.9163498,49.4445605 46.5460837,50.4079825 C52.4942966,45.5726213 56.3055513,38.2003779 56.3055513,29.9530015 C56.3062357,25.9647125 55.4123954,22.1785524 53.8177186,18.7859288" id="path270" fill="#002D62"></path>
                <path d="M27.2044106,22.7568794 C26.3356654,22.7568794 25.9843346,23.4394654 25.9761217,23.5845605 C25.9761217,23.737184 26.1063878,23.9285909 26.1253232,24.1462335 C26.1253232,24.1462335 26.4659316,23.7928494 26.8615209,23.7928494 C27.6207605,23.7928494 28.28327,25.0336859 28.4917871,25.7060053 C28.5675285,25.3893513 28.6476046,24.9688951 28.6476046,24.4177163 C28.6473764,23.3922411 27.8963498,22.7568794 27.2044106,22.7568794" id="path272" fill="#002D62"></path>
                <path d="M37.386616,51.7713285 C34.2864639,49.8152829 34.2841825,47.0790091 34.6398479,44.96053 C33.1736122,43.9847886 31.2554373,42.6572601 29.9534601,41.7109483 C28.6537643,42.6572601 26.733308,43.9845605 25.2695817,44.96053 C25.6268441,47.078781 25.6229658,49.8150548 22.5225856,51.7713285 C18.7197719,54.1713285 16.4060076,51.84707 15.638327,51.2224312 C15.4469202,51.3613665 15.173384,51.5062335 14.8706464,51.550492 C19.146616,54.543876 24.3504183,56.3044084 29.9534601,56.3044084 C35.5610646,56.3044084 40.7605323,54.543876 45.0365019,51.550492 C44.7335361,51.5064616 44.4620532,51.3615947 44.2708745,51.2224312 C43.5029658,51.84707 41.1894297,54.1713285 37.386616,51.7713285" id="path274" fill="#002D62"></path>
                <path d="M22.2298859,21.3415182 C21.740076,21.3415182 21.5904183,21.8094269 21.5904183,21.9641037 C21.5904183,23.0714806 22.4381749,22.6277539 22.9407605,23.3039521 C23.1196198,22.8412905 22.6610646,22.6466893 22.6610646,22.1365752 C22.6610646,21.9885144 22.7222053,21.8673737 22.7222053,21.7685904 C22.7224335,21.501214 22.4803802,21.3415182 22.2298859,21.3415182" id="path276" fill="#002D62"></path>
                <path d="M13.9873004,48.3029635 C14.7485932,47.8213665 15.333308,48.130492 15.9264639,48.6732297 C15.9894297,48.1261574 16.288289,47.7269179 16.7340684,47.6488951 C16.7488973,47.6466137 16.7637262,47.6550548 16.778327,47.6530015 C17.0915589,47.1634198 17.4301141,47.2028875 17.4301141,47.2028875 C17.7307985,46.717184 18.0864639,46.7507202 18.0864639,46.7507202 C18.3892015,46.2627354 18.7405323,46.2967278 18.7405323,46.2967278 C19.035057,45.808743 19.3968821,45.8445605 19.3968821,45.8445605 C19.6934601,45.3629635 20.0530038,45.3923932 20.0530038,45.3923932 C20.3603042,44.8916327 20.705019,44.9379445 20.705019,44.9379445 C20.9972624,44.4545224 21.3590875,44.4857772 21.3590875,44.4857772 C21.6725475,43.9961954 22.0152091,44.0340662 22.0152091,44.0340662 C22.158251,43.7899597 22.3622053,43.6197696 22.6252471,43.5750548 C22.6587833,43.56707 22.6884411,43.56707 22.719924,43.5625072 C22.5264639,42.4560433 22.5579468,41.488743 23.5781749,40.8449407 C24.2388593,40.4285909 24.9602281,40.5882867 25.2187072,40.9984768 C25.2755133,41.088819 25.3069962,41.1773361 25.3195437,41.2635719 C26.028365,40.7609863 26.766616,40.2266897 27.3702662,39.7850167 C15.7934601,30.9362715 7.31726236,21.5796931 7.21825095,21.4704155 C6.31596958,20.531176 6.11178707,19.4669174 6.09102662,18.7863851 C4.49680608,22.1790087 3.60273764,25.9651688 3.60273764,29.9539141 C3.60273764,38.2010624 7.41193916,45.5733057 13.3622053,50.4088951 C12.9921673,49.4450167 13.455057,48.6376403 13.9873004,48.3029635" id="path278" fill="#002D62"></path>
                <path d="M29.9557414,37.862051 C38.221597,31.5910243 44.6431939,25.6469179 48.4902662,21.8630391 C48.4480608,21.8653205 48.4040304,21.8673737 48.3618251,21.8673737 C46.0984791,21.8673737 45.5812928,19.2823547 44.8765779,19.2823547 C44.5927757,19.3065372 43.5285171,19.646233 42.884943,19.9241037 C43.3097338,20.071252 43.7094297,19.9218224 44.2101901,20.244636 C44.8558175,20.182811 45.3438023,20.4969554 45.3438023,21.2963471 C45.3438023,22.0934573 45.1672243,23.1524692 43.6444106,23.1524692 C41.5704183,23.1524692 41.5158935,21.1197691 40.1003042,21.1197691 C39.6691255,21.1197691 38.1757414,21.7726969 36.920076,21.7726969 C35.3238023,21.7726969 34.3015209,20.6160429 32.9491255,20.6160429 C32.4296578,20.6160429 32.295057,21.066157 32.295057,21.3050163 C32.295057,21.9148262 33.0396958,22.1231151 33.0396958,22.7826589 C33.0396958,22.9941422 32.9493536,23.2284388 32.6822053,23.3883627 C32.8715589,23.5241042 33.0378707,23.7006821 33.0378707,23.9844844 C33.0378707,24.093762 33,24.190492 32.9577947,24.2863095 C33.2523194,24.0581726 33.506692,23.8877544 33.80327,23.8877544 C34.7539163,23.8877544 35.1768821,25.5031916 35.1768821,26.1164236 C35.1768821,27.1165757 34.2344487,27.2089711 33.401749,27.2089711 C32.6276806,27.2089711 30.9241825,27.9262335 30.2235741,27.9262335 C29.5211407,27.9262335 28.4755894,27.3312525 28.359924,26.5781726 C28.0843346,26.942051 27.5479848,27.1891232 26.8793156,27.1891232 C26.1451711,27.1891232 24.7380228,26.377184 23.9178707,26.377184 C23.2847909,26.437184 22.1406844,26.3539141 22.1406844,24.8502639 C22.1406844,24.7599217 22.1552852,24.6798456 22.1742205,24.6052449 C21.2445627,25.0911764 19.9615209,24.6853209 19.9615209,24.6853209 C18.3862357,25.4623551 18.1608365,24.5874502 18.1631179,24.2584768 C17.8330038,24.508743 17.4205323,24.9923932 16.8611407,24.9923932 C15.9460837,24.9923932 15.714981,24.0839521 15.1806844,23.5779445 C14.9662357,23.3625833 14.4002281,23.1449407 14.1036502,22.815511 C13.5987833,22.3085904 13.1171863,21.4672216 11.4073004,20.0970315 C10.9341445,19.716271 10.5301141,18.3606817 10.5301141,17.1374117 C10.5301141,14.8658528 10.875057,12.5587045 14.9997719,11.5122406 C19.2148289,10.4479821 18.4156654,5.06326722 26.2756654,5.06326722 C28.488365,5.06326722 30.3118631,5.4818984 32.1504183,6.14646114 C31.6498859,5.8932292 31.4247148,5.61649916 31.5234981,5.25467407 C31.6161217,4.91292502 31.8914829,4.26410373 38.346616,6.03923681 C42.2441065,7.10965506 45.3045627,8.12988319 45.0205323,9.16243072 C44.6860837,10.3813661 42.3682129,9.03513034 37.6336882,7.73429384 C35.7406084,7.21482616 34.2093536,6.8637235 33.1514829,6.53018738 C36.4391635,7.8584003 40.0063118,9.86600487 46.1103422,11.612849 C48.2473004,12.1596931 49.6142966,12.2123927 49.6142966,13.3270695 C49.6142966,13.5732292 49.5114068,13.7340657 49.3788593,13.8636475 C50.6007605,13.7817463 51.038327,15.3736855 48.4090494,15.3736855 C46.9220532,15.3736855 45.8409125,14.7964992 45.8409125,13.9993889 C45.8409125,13.5964992 46.0492015,13.3514802 46.3163498,13.189503 C45.7106464,13.0181722 44.9575665,12.8582482 44.3096578,12.8066893 C44.4043346,13.1315562 44.5156654,13.5513281 44.5156654,14.0790087 C44.5156654,15.0960429 44.2825095,15.5650923 44.1960456,16.14456 C44.6420532,16.0626589 45.0985551,15.8450163 45.4476046,15.8450163 C46.9576426,15.8450163 46.0993916,18.0597691 47.9650951,18.2858528 C48.6825856,18.4236475 48.6636502,18.937868 48.6636502,18.937868 C49.3619772,18.8064611 49.8458555,18.8609859 49.8458555,20.2692748 C49.8458555,20.359617 49.8394677,20.4440277 49.8330798,20.5279821 C51.5641825,18.7852444 52.5,17.7474497 52.531711,17.7127729 C52.7187833,17.5149783 52.9419011,17.4371836 53.1438023,17.4476779 C48.6825856,9.21193643 39.9602281,3.60341932 29.956654,3.60341932 C19.9489734,3.60341932 11.2263878,9.21193643 6.76539924,17.4476779 C6.96958175,17.4371836 7.19019011,17.5149783 7.37749049,17.7127729 C7.47307985,17.8193129 16.1409125,27.3876023 29.9557414,37.862051 M32.0653232,28.875511 C39.9337643,25.9656251 42.9394677,24.4058532 43.3453232,25.5006821 C43.7429658,26.5777163 39.5488973,28.8198456 33.0768821,31.2143703 C29.2003802,32.6488951 28.5148289,31.865473 28.3106464,31.3174882 C28.0562738,30.6264616 28.2771103,30.2774122 32.0653232,28.875511" id="path280" fill="#002D62"></path>
                <path d="M41.4061597,49.6722411 C41.4061597,49.6722411 41.0443346,49.7039521 40.7520913,49.2200738 C40.7520913,49.2200738 40.4069202,49.2663856 40.0957414,48.7660814 C40.0957414,48.7660814 39.738251,48.795511 39.441673,48.3139141 C39.441673,48.3139141 39.0821293,48.3495034 38.7876046,47.8617468 C38.7876046,47.8617468 38.4362738,47.8973361 38.1312548,47.4095795 C38.1312548,47.4095795 37.7739924,47.4412905 37.4771863,46.9574122 C37.4771863,46.9574122 37.1365779,46.9975643 36.8253992,46.5029635 C36.8085171,46.5029635 36.7918631,46.5114046 36.7790875,46.5091232 C36.7473764,46.5029635 36.7138403,46.4945224 36.6844106,46.4863095 C36.6380989,47.7606821 37.0293536,49.0373361 38.7246388,50.1079825 C40.2768821,51.0860053 41.3475285,50.882051 42.2034981,50.3183247 C42.1487452,50.2594654 42.1026616,50.1962715 42.058403,50.1248646 C42.0581749,50.1244084 41.7155133,50.1622791 41.4061597,49.6722411" id="path282" fill="#002D62"></path>
                <path d="M22.4320152,46.9569559 C22.1331559,47.4426593 21.7779468,47.40707 21.7779468,47.40707 C21.4706464,47.897108 21.1195437,47.8615186 21.1195437,47.8615186 C20.8270722,48.3495034 20.4675285,48.3116327 20.4675285,48.3116327 C20.1709506,48.795511 19.8134601,48.7660814 19.8134601,48.7660814 C19.5022814,49.2663856 19.155057,49.2200738 19.155057,49.2200738 C18.8648669,49.7062335 18.5030418,49.6701878 18.5030418,49.6701878 C18.1939163,50.1625072 17.8489734,50.1246365 17.8489734,50.1246365 C17.8067681,50.1960433 17.7606844,50.2592373 17.7059316,50.3180966 C18.5621293,50.8818228 19.6325475,51.0834958 21.1847909,50.1077544 C22.8803042,49.0352829 23.2713308,47.7647886 23.225019,46.4860814 C23.1914829,46.4940662 23.1620532,46.5025072 23.1303422,46.50707 C23.1157414,46.5111764 23.0988593,46.5025072 23.0840304,46.50707 C22.7726236,46.9968798 22.4320152,46.9569559 22.4320152,46.9569559" id="path284" fill="#002D62"></path>
                <path d="M16.3681369,16.9519364 C16.0022053,16.9519364 15.8865399,17.1139136 15.8865399,17.197868 C15.8865399,17.2841037 16.2862357,18.2571075 16.5365019,18.2571075 C16.866616,18.2571075 17.388365,17.6482102 17.388365,17.3936094 C17.388365,17.137868 16.7340684,16.9519364 16.3681369,16.9519364" id="path286" fill="#002D62"></path>
                <path d="M16.5805323,23.665549 C16.5805323,23.8263856 16.8878327,24.0483627 16.8878327,24.0483627 C16.8878327,24.0483627 17.2010646,23.6180966 17.2010646,23.3080586 C17.2008365,23.1933057 16.5805323,23.2987049 16.5805323,23.665549" id="path288" fill="#002D62"></path>
                <path d="M16.6330038,15.347906 C16.6330038,14.3940657 15.8676046,13.5232672 14.3931559,13.5232672 C12.8577947,13.5232672 11.8437262,14.384484 11.8437262,14.8914041 C11.8437262,15.3132292 12.5210646,14.4561189 13.5203042,14.4561189 C14.1070722,14.4561189 14.6958935,14.7885144 14.6958935,15.2721646 C14.6958935,15.6602254 14.2079087,15.9517843 14.2079087,16.2807577 C14.2079087,16.5173357 14.3760456,16.9936855 14.9441065,16.9936855 C15.8297338,16.9936855 16.6330038,16.3017463 16.6330038,15.347906" id="path290" fill="#002D62"></path>
                <path d="M32.946616,20.3306437 C34.3957414,20.3306437 35.4011407,21.4875258 36.9219011,21.4875258 C38.1965019,21.4875258 39.5826616,20.834598 40.0980228,20.834598 C41.7111787,20.834598 41.6922433,22.870492 43.6462357,22.870492 C44.6495817,22.870492 45.0577186,22.4130771 45.0577186,21.2963471 C45.0577186,20.5487425 44.6119392,20.5286665 44.2060837,20.5286665 C44.0523194,20.5286665 43.8526996,20.2920885 43.3877567,20.2920885 C42.8557414,20.2920885 42.4076806,20.0616703 42.2879087,19.9218224 C42.6853232,19.6199973 44.5259316,18.9994649 44.8622053,18.9994649 C45.9054753,18.9994649 46.1409125,21.584484 48.36,21.584484 C48.9552091,21.584484 49.5611407,21.4268414 49.5611407,20.2688186 C49.5611407,19.3790847 49.3907224,19.1037235 48.9490494,19.1719364 C48.616654,19.2433433 48.3139163,19.2821265 48.3139163,19.2821265 C48.4802281,18.9540657 48.4190875,18.6659288 47.9185551,18.5669174 C45.8404563,18.2463851 46.6606084,16.1283623 45.4471483,16.1283623 C45.0264639,16.1283623 43.8907985,16.70783 43.8907985,16.2985524 C43.8907985,15.8685144 44.2314068,15.1920885 44.2314068,14.0806056 C44.2314068,13.341214 43.9412167,12.5021265 43.9412167,12.5021265 C44.9993156,12.5041798 46.5093536,12.899541 47.1907985,13.1908718 C46.7555133,13.2709478 46.1244867,13.42129 46.1244867,13.9987045 C46.1244867,14.6107957 47.1276046,15.0903395 48.4106464,15.0903395 C50.4928517,15.0903395 50.2635741,14.1490467 49.5043346,14.1490467 C48.713384,14.1490467 48.4234221,14.0806056 48.3139163,14.0226589 C48.6757414,13.8860049 49.3298099,13.8691227 49.3298099,13.3263851 C49.3298099,12.4136094 48.1161217,12.4587805 46.0295817,11.8857007 C36.703346,9.32075772 32.6650951,5.34661323 26.274981,5.34661323 C18.511711,5.34661323 19.5127757,10.6574117 15.0684411,11.7869174 C11.1394677,12.7838756 10.8155133,14.886157 10.8155133,17.1364992 C10.8155133,18.3513281 11.2213688,19.582811 11.5831939,19.8741417 C12.5021293,20.6555106 13.1354373,21.172925 14.3048669,22.6136094 C14.5174905,22.8545224 15.1252471,23.1196175 15.3819011,23.3762715 C15.9161977,23.9105681 16.1306464,24.7076783 16.8604563,24.7076783 C17.5060837,24.7076783 17.9687452,23.793762 18.8438783,23.5528494 C18.6376426,23.7526973 18.4441825,23.9881346 18.4441825,24.272165 C18.4441825,24.9136859 19.1760456,24.7526213 19.941673,24.3898837 C21.6495057,24.8317848 22.2531559,24.3563475 22.7137643,23.793762 C22.8020532,23.6863095 22.7851711,23.5243323 22.6863878,23.4234958 C22.1311027,22.9113285 21.3086692,23.2038 21.3086692,21.962963 C21.3086692,21.7220505 21.5253992,21.0563471 22.2298859,21.0563471 C22.6275285,21.0563471 23.153384,21.3844079 22.9681369,22.0017463 C22.8504183,22.3918604 23.2565019,22.6697311 23.2565019,22.9692753 C23.2565019,24.0766517 22.4235741,24.1491992 22.4235741,24.8495795 C22.4235741,26.1136859 23.3575665,26.1442563 23.9003042,26.0936099 C24.7708745,26.0936099 26.2496578,26.9034958 26.8786312,26.9034958 C27.680076,26.9034958 28.2793916,26.5334578 28.2793916,26.0422791 C28.2793916,25.6594654 27.5053232,24.0789331 26.861749,24.0789331 C26.5063118,24.0789331 26.235057,24.5153589 26.0290494,24.5153589 C25.8796198,24.5153589 25.8041065,24.4638 25.793384,24.4448646 C25.9870722,24.1366517 25.6925475,23.942051 25.6925475,23.5825072 C25.6925475,23.3249407 26.1636502,22.4742178 27.2028137,22.4742178 C28.0355133,22.4742178 28.931635,23.2165757 28.931635,24.4165757 C28.931635,25.4808342 28.6204563,26.1917087 28.6204563,26.4433437 C28.6204563,27.08053 29.6194677,27.6433437 30.2231179,27.6433437 C30.8792395,27.6433437 32.5282129,26.9258532 33.4031179,26.9258532 C34.3371103,26.9258532 34.8923954,26.7796175 34.8923954,26.1161954 C34.8923954,25.5218989 34.479924,24.1715567 33.8028137,24.1715567 C33.2096578,24.1715567 32.3368061,25.5114046 31.2177947,25.5114046 C31.2725475,25.3640281 31.4639544,25.0907202 31.5522433,25.0350548 C32.2653992,24.6816707 32.753384,24.3860053 32.753384,23.9844844 C32.753384,23.6333817 32.2758935,23.5058532 32.0130798,23.2861574 C32.4990114,23.2387049 32.7556654,23.1303399 32.7556654,22.7824307 C32.7556654,22.2807577 32.0089734,22.0649402 32.0089734,21.3047881 C32.0085171,20.8197691 32.3324715,20.3306437 32.946616,20.3306437 M31.7265399,21.3047881 C31.7265399,22.1618984 32.4711787,22.4614421 32.4711787,22.7824307 C32.4711787,23.1399217 31.6507985,22.8424312 31.6507985,23.2124692 C31.6507985,23.5722411 32.4691255,23.8003779 32.4691255,23.9844844 C32.4691255,24.3072981 31.575057,24.6903399 31.4048669,24.7888951 C31.2365019,24.8908722 30.9125475,25.3558152 30.9125475,25.5631916 C30.9125475,25.767146 31.0745247,25.7956631 31.2175665,25.7956631 C32.4376426,25.7956631 33.3862357,24.4558152 33.8025856,24.4558152 C34.2168821,24.4558152 34.6081369,25.5474502 34.6081369,26.1164236 C34.6081369,26.6874502 33.8952091,26.6422791 33.27673,26.6422791 C32.6561977,26.6422791 30.7380228,27.3595414 30.2226616,27.3595414 C29.7073004,27.3595414 28.9038023,26.8663095 28.9038023,26.4435719 C28.9038023,26.2174882 29.2152091,25.5579445 29.2152091,24.4168038 C29.2152091,23.0425072 28.1865399,22.1904155 27.2023574,22.1904155 C26.0160456,22.1904155 25.4060076,23.142203 25.4060076,23.5829635 C25.4060076,23.9479825 25.6332319,24.1717848 25.553384,24.3116327 C25.4103422,24.5545985 25.6375665,24.7987049 26.0288213,24.7987049 C26.379924,24.7987049 26.6304183,24.3611384 26.8615209,24.3611384 C27.2673764,24.3611384 27.9953612,25.7326973 27.9953612,26.0427354 C27.9953612,26.3509483 27.50327,26.622203 26.878403,26.622203 C26.3650951,26.622203 24.8591635,25.8102639 23.8811407,25.8102639 C23.4645627,25.8364996 22.7073764,25.9206821 22.7073764,24.8500357 C22.7073764,24.3180205 23.5423574,24.1822791 23.5423574,22.9697316 C23.5423574,22.5668414 23.1677567,22.3083623 23.2373384,22.0884383 C23.4602281,21.3891988 22.930038,20.7748262 22.2296578,20.7748262 C21.3609125,20.7748262 21.0246388,21.5657767 21.0246388,21.9634193 C21.0246388,23.4093513 22.1162738,23.2558152 22.4863118,23.6269939 C21.6682129,24.7314046 20.28,24.1067658 19.9225095,24.1067658 C19.7098859,24.1067658 18.7277567,24.718857 18.7277567,24.2730776 C18.7277567,23.7513285 20.0192395,23.2129255 19.220076,23.2129255 C18.02327,23.2129255 17.4152852,24.4236479 16.86,24.4236479 C16.321597,24.4236479 16.1468441,23.7433437 15.5812928,23.1773361 C15.2048669,22.7977159 14.8555894,22.7650923 14.5065399,22.4137615 C14.089962,22.0003775 13.5513308,21.0834954 11.761597,19.6530771 C11.5282129,19.4660049 11.0990875,18.4015182 11.0990875,17.1374117 C11.0990875,14.8870695 11.4419772,13.0001494 15.1396198,12.0611379 C19.8111787,10.8759668 18.5808365,5.62927483 26.2747529,5.62927483 C32.530038,5.62927483 35.9942966,9.32577673 45.9515589,12.157868 C47.9536882,12.7288946 49.0476046,12.679617 49.0476046,13.3272976 C49.0476046,13.7669174 47.9769582,13.5818984 47.9769582,13.9993889 C47.9769582,14.4168794 48.9004563,14.4346741 49.5038783,14.4346741 C50.1054753,14.4346741 49.6174905,14.8069935 48.4101901,14.8069935 C47.2006084,14.8069935 46.4057795,14.3650923 46.4057795,13.9993889 C46.4057795,13.3809098 47.791711,13.5207577 47.791711,13.2757387 C47.791711,12.932849 45.3307985,12.2176398 43.9259316,12.2176398 C43.2803042,12.2176398 43.9469202,12.909579 43.9469202,14.08129 C43.9469202,15.1382482 43.608365,15.8080581 43.608365,16.2992368 C43.608365,17.1889706 45.0344487,16.4139897 45.4469202,16.4139897 C46.3072243,16.4139897 45.6613688,18.4815942 47.8740684,18.8475258 C48.3517871,18.9253205 47.9561977,19.1904155 47.9561977,19.4520885 C47.9561977,19.7171836 48.7975665,19.4806056 48.9636502,19.4593889 C49.1317871,19.4354345 49.2771103,19.3510239 49.2771103,20.2692748 C49.2771103,21.1863851 48.8858555,21.3009098 48.3597719,21.3009098 C46.2819011,21.3009098 46.1596198,18.7158908 44.859924,18.7158908 C44.4919392,18.7158908 41.9593916,19.5257767 41.9593916,19.8809859 C41.9593916,20.2259288 42.7081369,20.5772596 43.3875285,20.5772596 C43.8501901,20.5772596 43.8923954,20.8138376 44.2058555,20.8138376 C44.5170342,20.8138376 44.7757414,20.7622786 44.7757414,21.2965752 C44.7757414,22.2714041 44.4791635,22.5857767 43.6462357,22.5857767 C41.8562738,22.5857767 41.9005323,20.5507957 40.0980228,20.5507957 C39.5089734,20.5507957 38.1524715,21.2037235 36.9219011,21.2037235 C35.4684411,21.2037235 34.4988593,20.0470695 32.946616,20.0470695 C32.1515589,20.0468414 31.7265399,20.686309 31.7265399,21.3047881" id="path292" fill="#002D62"></path>
                <path d="M15.7539924,19.6987045 C15.7539924,19.2549783 16.288289,18.8744459 15.9139163,18.8744459 C15.2491255,18.8744459 15.5247148,20.5927729 14.9904183,21.316195 C14.9904183,21.316195 14.8852471,21.6034193 15.2954373,21.6034193 C15.8885932,21.6034193 16.489962,21.014598 16.489962,20.6399973 C16.489962,20.0541417 15.7539924,20.2003775 15.7539924,19.6987045 M15.8486692,20.9808338 C15.7330038,20.9808338 15.5730798,20.7631912 15.5730798,20.6990847 C15.5730798,20.637944 15.6698099,20.4698071 15.7708745,20.4698071 C15.9958175,20.4698071 16.0022053,20.6463851 16.0022053,20.8882102 C16.0022053,20.9502634 15.9159696,20.9808338 15.8486692,20.9808338" id="path294" fill="#002D62"></path>
                <path d="M45.7706464,48.5427354 C44.9774144,48.0401498 44.3678327,48.6230395 43.6608365,49.3505681 C43.6692776,49.3211384 43.6756654,49.2832677 43.6820532,49.2495034 C43.8,48.5703399 43.56,48.0045605 43.1265399,47.9306441 C43.0761217,47.9203779 43.0213688,47.9390852 42.9688973,47.9457011 C42.7419011,47.3482106 42.3171103,47.4951308 42.3171103,47.4951308 C42.1026616,46.9019749 41.6630418,47.0429635 41.6630418,47.0429635 C41.4296578,46.4482106 41.0089734,46.5912525 41.0089734,46.5912525 C40.7945247,45.993762 40.3526236,46.1390852 40.3526236,46.1390852 C40.1149049,45.5308722 39.6985551,45.6869179 39.6985551,45.6869179 C39.4754373,45.0894274 39.0444867,45.2324692 39.0444867,45.2324692 C38.830038,44.6393133 38.3860837,44.7803019 38.3860837,44.7803019 C38.1545247,44.1684388 37.7276806,44.3281346 37.7276806,44.3281346 C37.6309506,44.0696555 37.458251,43.8928494 37.2355894,43.8531536 C37.0882129,43.8298837 36.9431179,43.8657011 36.8146768,43.9498837 C37.0546768,42.7339141 37.1514068,41.6990852 36.1795437,41.0849407 C35.6707985,40.7653209 35.1109506,40.862051 34.930038,41.1524692 C34.7050951,41.5058532 35.1426616,41.8129255 35.3130798,42.0317087 C35.9671483,42.8646365 32.5177186,48.36707 37.538327,51.5324692 C41.3705703,53.9493513 43.4507224,51.4799977 44.2562738,50.8658532 C44.6454753,51.1729255 45.4574144,51.6923932 46.0861597,50.6929255 C46.5825856,49.9079065 46.4498099,48.9718608 45.7706464,48.5427354 M37.1867681,44.1342183 C37.3740684,44.1659293 37.5002281,44.3993133 37.5296578,44.7125452 C37.6770342,44.5339141 38.0997719,44.428743 38.1837262,45.1647125 C38.3352091,44.9860814 38.7538403,44.8831916 38.8380228,45.6191612 C38.9892776,45.44053 39.409962,45.3349027 39.4941445,46.0713285 C39.643346,45.8922411 40.0642586,45.78707 40.1482129,46.5234958 C40.2996958,46.3444084 40.718327,46.2392373 40.8022814,46.9752068 C40.9537643,46.798857 41.3744487,46.6936859 41.4586312,47.4319369 C41.6078327,47.2510243 42.0285171,47.1458532 42.1126996,47.882051 C42.2641825,47.7052449 42.6825856,47.5982487 42.7667681,48.3364996 C42.8657795,48.2393133 42.9727757,48.1911764 43.0802281,48.2098837 C43.3450951,48.2561954 43.4881369,48.6978684 43.4019011,49.1986289 C43.3156654,49.6989331 43.0318631,50.0691992 42.7667681,50.0228875 C42.5774144,49.9916327 42.4512548,49.7559673 42.4238783,49.4445605 C42.2746768,49.6231916 41.851711,49.7283627 41.7698099,48.9923932 C41.618327,49.1691992 41.199924,49.2743703 41.1157414,48.5384008 C40.9642586,48.7193133 40.5415209,48.822203 40.4596198,48.0839521 C40.3101901,48.2648646 39.8874525,48.3700357 39.8053232,47.633838 C39.6540684,47.8101878 39.2331559,47.9153589 39.1492015,47.1793894 C39,47.3603019 38.5813688,47.465473 38.4971863,46.7292753 C38.3457034,46.9060814 37.9229658,47.0112525 37.8410646,46.2752829 C37.691635,46.4516327 37.2688973,46.5568038 37.1847148,45.8208342 C37.0879848,45.9175643 36.9805323,45.9661574 36.8735361,45.9469939 C36.6107224,45.9006821 36.4653992,45.4590091 36.551635,44.9587049 C36.6378707,44.4558913 36.9219011,44.0876783 37.1867681,44.1342183 M42.6869202,50.2945985 C41.7342205,51.085549 40.4995437,51.5632677 38.5729278,50.34707 C36.5411407,49.0642563 36.2762738,47.4864616 36.4421293,45.9723171 C36.5411407,46.1107962 36.6693536,46.1995414 36.8272243,46.2289711 C36.8796958,46.2374122 36.9303422,46.22053 36.9848669,46.212089 C37.2120913,46.8095795 37.6368821,46.662203 37.6368821,46.662203 C37.8513308,47.2553589 38.2909506,47.1143703 38.2909506,47.1143703 C38.5243346,47.7095795 38.9473004,47.5665376 38.9473004,47.5665376 C39.1596958,48.1635719 39.6013688,48.0187049 39.6013688,48.0187049 C39.8411407,48.6264616 40.2554373,48.4726973 40.2554373,48.4726973 C40.478327,49.0679065 40.9095057,48.9248646 40.9095057,48.9248646 C41.1239544,49.5180205 41.5656274,49.3770319 41.5656274,49.3770319 C41.7990114,49.9893513 42.2263118,49.8291992 42.2263118,49.8291992 C42.3189354,50.0780966 42.4809125,50.2466897 42.6869202,50.2945985 M45.8463878,50.5412144 C45.2719392,51.4496555 44.5863878,50.7282867 44.3023574,50.5514806 C43.9553612,50.3308722 41.9044106,53.9486669 37.6895817,51.2897316 C32.7613688,48.1809103 36.3919392,42.9333057 35.5377947,41.8542183 C35.3358935,41.6018989 35.0856274,41.4378684 35.1675285,41.3030395 C35.251711,41.1727734 35.6345247,41.0760433 36.0278327,41.3242563 C38.3288213,42.7756631 33.5267681,47.4996935 38.4212167,50.58707 C42.8571103,53.3849407 43.9720152,47.7433437 45.6189354,48.7825072 C46.0145247,49.0327734 46.3594677,49.7269939 45.8463878,50.5412144" id="path296" fill="#002D62"></path>
                <path d="M22.3690494,51.5315567 C27.3896578,48.3661574 23.9402281,42.863724 24.5942966,42.0307962 C24.7667681,41.8120129 25.2020532,41.5049407 24.9812167,41.1495034 C24.798251,40.8613665 24.2388593,40.7644084 23.7298859,41.0842563 C22.7580228,41.6984008 22.8526996,42.7332297 23.0968061,43.9491992 C22.9642586,43.8650167 22.8191635,43.8294274 22.6740684,43.8565757 C22.4488973,43.892165 22.2787072,44.0691992 22.1796958,44.3274502 C22.1796958,44.3274502 21.7549049,44.1679825 21.5212928,44.7780205 C21.5212928,44.7780205 21.0793916,44.6390852 20.8672243,45.2342943 C20.8672243,45.2342943 20.4319392,45.0889711 20.2108745,45.6864616 C20.2108745,45.6864616 19.7965779,45.530416 19.5568061,46.1386289 C19.5568061,46.1386289 19.1130798,45.9955871 18.9027376,46.5907962 C18.9027376,46.5907962 18.4797719,46.4477544 18.2486692,47.0447886 C18.2486692,47.0447886 17.8067681,46.9017468 17.5902662,47.4949027 C17.5902662,47.4949027 17.1695817,47.3477544 16.9403042,47.945473 C16.8855513,47.938857 16.8351331,47.9201498 16.7803802,47.930416 C16.3471483,48.0043323 16.1096578,48.5703399 16.2250951,49.2492753 C16.2312548,49.2830395 16.2396958,49.318857 16.2460837,49.3544464 C15.541597,48.6228114 14.9315589,48.0399217 14.1385551,48.5425072 C13.4591635,48.9716327 13.326616,49.9076783 13.8209886,50.6920129 C14.4520152,51.6933057 15.2637262,51.1720129 15.6529278,50.8649407 C16.4605323,51.4790852 18.5409125,53.9484388 22.3690494,51.5315567 M16.8287452,48.2103399 C16.9339163,48.1893513 17.0431939,48.2397696 17.1401521,48.3369559 C17.2241065,47.5987049 17.6470722,47.703876 17.7962738,47.8825072 C17.8781749,47.1463095 18.2988593,47.2514806 18.4503422,47.4303399 C18.5345247,46.6941422 18.9552091,46.7993133 19.1044106,46.9781726 C19.1885932,46.2399217 19.6115589,46.347146 19.7584791,46.5241802 C19.8426616,45.7898076 20.2656274,45.8926973 20.4148289,46.0720129 C20.4990114,45.3353589 20.9196958,45.4409863 21.0688973,45.6198456 C21.1530798,44.8836479 21.5758175,44.9867658 21.7229658,45.1676783 C21.8071483,44.4294274 22.2298859,44.5345985 22.3813688,44.7132297 C22.4064639,44.3999977 22.5328517,44.1666137 22.7222053,44.1349027 C22.985019,44.0885909 23.2731559,44.458857 23.3573384,44.9596175 C23.4435741,45.4599217 23.298251,45.9015947 23.0354373,45.9479065 C22.9282129,45.96707 22.8189354,45.9184768 22.7222053,45.8217468 C22.6380228,46.5579445 22.2173384,46.4527734 22.0681369,46.2761954 C21.9839544,47.0123932 21.5609886,46.9072221 21.4138403,46.7301878 C21.3298859,47.4663856 20.9092015,47.3612144 20.7597719,47.1803019 C20.6758175,47.9164996 20.2549049,47.8113285 20.1036502,47.6347506 C20.0194677,48.3709483 19.6008365,48.2657772 19.4495817,48.0891992 C19.3653992,48.8231156 18.9424335,48.7202259 18.7955133,48.5393133 C18.7113308,49.2775643 18.288365,49.1703399 18.1391635,48.9933057 C18.054981,49.7295034 17.6342966,49.6243323 17.4850951,49.4434198 C17.4577186,49.757108 17.3292776,49.9927734 17.1422053,50.0240281 C16.875057,50.0703399 16.5910266,49.7000738 16.5047909,49.1997696 C16.4185551,48.6980966 16.5657034,48.2566517 16.8287452,48.2103399 M23.4668441,45.9725452 C23.6331559,47.4866897 23.3698859,49.0644844 21.3360456,50.3472981 C19.4073764,51.5609863 18.1768061,51.0878304 17.2197719,50.2968798 C17.4280608,50.2464616 17.590038,50.0780966 17.6824335,49.8298837 C17.6824335,49.8298837 18.1095057,49.9898076 18.3431179,49.3777163 C18.3431179,49.3777163 18.7847909,49.5184768 18.9971863,48.925549 C18.9971863,48.925549 19.4324715,49.0685909 19.6512548,48.4733817 C19.6512548,48.4733817 20.0676046,48.627146 20.3076046,48.0212144 C20.3076046,48.0212144 20.7492776,48.1642563 20.9637262,47.5672221 C20.9637262,47.5672221 21.3844106,47.7102639 21.6177947,47.1127734 C21.6177947,47.1127734 22.0553612,47.2558152 22.2698099,46.6626593 C22.2698099,46.6626593 22.6946008,46.8100357 22.9259316,46.2125452 C22.9765779,46.2209863 23.0311027,46.2378684 23.081749,46.2294274 C23.2375665,46.1997696 23.3698859,46.1112525 23.4668441,45.9725452 M15.6045627,50.5512525 C15.3228137,50.7280586 14.6347529,51.4496555 14.0628137,50.5409863 C13.5495057,49.7285909 13.8923954,49.0327734 14.2877567,48.7822791 C15.93673,47.7431156 17.0493536,53.3847125 21.4875285,50.5868418 C26.3796958,47.4994654 21.5822053,42.775435 23.8811407,41.3240281 C24.2762738,41.0758152 24.6570342,41.1725452 24.7391635,41.3028114 C24.8256274,41.4376403 24.5710266,41.6057772 24.3732319,41.8539901 C23.5170342,42.9330776 27.1473764,48.1806821 22.2193916,51.2917848 C18.0045627,53.9484388 15.9515589,50.3308722 15.6045627,50.5512525" id="path298" fill="#002D62"></path>
                <path d="M27.8461597,39.7886669 C26.8238783,40.5417468 25.6291255,41.3956631 24.5584791,42.1507962 L25.0423574,44.7650167 C26.596654,43.738857 28.4749049,42.4387049 29.9534601,41.3598456 C31.4342966,42.4387049 33.3125475,43.738857 34.8647909,44.7650167 L35.3507224,42.1507962 C34.2780228,41.3956631 33.08327,40.5417468 32.06327,39.7886669 C43.7701141,30.890416 52.3813688,21.3917083 52.4801521,21.2771836 C53.8284411,19.8750543 53.5065399,18.1799973 53.4919392,18.1222786 C53.4497338,17.7563471 53.0607605,17.5690467 52.7411407,17.9023547 C52.6441825,18.0107197 43.8903422,27.6723171 29.9534601,38.2174882 C16.0168061,27.6723171 7.26273764,18.0107197 7.1660076,17.9023547 C6.8504943,17.5690467 6.45718631,17.7561189 6.41520913,18.1222786 C6.40448669,18.1799973 6.08053232,19.8752824 7.4269962,21.2771836 C7.5278327,21.3919364 16.1365779,30.890416 27.8461597,39.7886669 M6.69695817,18.1633433 C6.74098859,17.8699592 6.9556654,18.0919364 6.9556654,18.0919364 C6.9556654,18.0919364 15.7371103,27.8511764 29.9534601,38.5752068 C44.1720913,27.8511764 52.9514829,18.0919364 52.9514829,18.0919364 C52.9514829,18.0919364 53.1702662,17.8699592 53.2122433,18.1633433 C53.2122433,18.1633433 53.530038,19.7764992 52.270038,21.08783 C52.270038,21.08783 43.5558935,30.7631156 31.5901141,39.797108 C32.7091255,40.6213665 33.8596198,41.4501878 35.0395437,42.2767278 L34.6651711,44.2895795 C33.0561217,43.2278304 31.4806084,42.1275262 29.9536882,41.0105681 C28.4267681,42.1275262 26.8555894,43.2276023 25.2442586,44.2895795 L24.8719392,42.2767278 C26.0520913,41.4501878 27.198251,40.6213665 28.3193156,39.797108 C16.3555894,30.7631156 7.63939163,21.08783 7.63939163,21.08783 C6.3773384,19.7767273 6.69695817,18.1633433 6.69695817,18.1633433" id="path300" fill="#002D62"></path>
                <path d="M32.9780989,30.9483627 C37.9252471,29.1175643 43.3939163,26.450416 43.0781749,25.5974122 C42.8194677,24.8961194 38.9324715,26.6377163 32.1641065,29.1406061 C29.0069202,30.3100357 28.3802281,30.6812144 28.5777947,31.2196175 C28.71673,31.5983247 29.3224335,32.3007582 32.9780989,30.9483627 M32.2628897,29.4075262 C37.931635,27.3095795 42.6976426,25.38707 42.8110266,25.6961954 C43.0444106,26.3251688 36.3034221,29.4139141 32.8813688,30.6830395 C29.4447148,31.9514806 28.9227376,31.3332297 28.8431179,31.1194654 C28.700076,30.7350548 29.7346768,30.3447125 32.2628897,29.4075262" id="path302" fill="#002D62"></path>
                <path d="M44.7463118,9.08532046 C44.9397719,8.37649916 41.7511027,7.26798205 38.2701901,6.31094783 C33.5123954,5.00395163 31.783346,5.11824821 31.7876806,5.33817217 C31.8022814,6.01231665 33.6175665,6.33513034 37.7105703,7.4593889 C42.163346,8.68448395 44.5254753,9.88881856 44.7463118,9.08532046 M38.1944487,6.5853965 C41.2569582,7.42676532 44.5779468,8.62676532 44.4730038,9.0107197 C44.3655513,9.39558662 41.9614449,8.33338129 37.7863118,7.18608091 C33.6091255,6.03763985 32.3723954,5.72532046 32.0525475,5.42258281 C31.9496578,5.32471209 35.1319392,5.74311513 38.1944487,6.5853965" id="path304" fill="#002D62"></path>
            </g>
        </g>
    </g>
</svg>