<?xml version="1.0" encoding="UTF-8" standalone="no"?>
<svg width="60px" height="60px" viewBox="0 0 60 60" version="1.1" xmlns="http://www.w3.org/2000/svg" xmlns:xlink="http://www.w3.org/1999/xlink">
    <!-- Generator: Sketch 40.3 (33839) - http://www.bohemiancoding.com/sketch -->
    <title>Artboard</title>
    <desc>Created with Sketch.</desc>
    <defs></defs>
    <g id="Page-1" stroke="none" stroke-width="1" fill="none" fill-rule="evenodd">
        <g id="Artboard">
            <g id="senators" transform="translate(5.084746, 0.000000)">
                <g id="Group">
                    <path d="M36.2422881,21.8140678 L30.2679661,13.6304237 L28.3177119,14.5449153 C28.3177119,14.5449153 27.6002542,14.139661 24.7718644,13.7397458 L26.1765254,12.3284746 L26.1765254,9.09330508 L25.175339,9.09330508 C25.8119492,8.24262712 25.9161864,6.93483051 25.9161864,5.82355932 C25.9161864,4.71254237 25.8927966,2.16635593 29.1566949,0.00483050847 L16.3042373,0.00483050847 C8.75237288,2.54822034 8.34813559,13.8915254 9.01855932,21.5641525 L10.8790678,20.8423729 C10.8790678,20.8423729 9.64372881,23.6242373 10.2279661,25.1260169 C9.36559322,27.154322 9.65288136,29.0870339 10.4883051,30.5511864 L9.55067797,31.8704237 L9.75889831,37.8251695 C9.75889831,37.8251695 9.64118644,37.9899153 9.53313559,38.1376271 C9.28144068,38.4818644 8.65449153,39.0155085 6.39940678,39.4309322 C3.9040678,39.8908475 3.33559322,40.4049153 3.08364407,41.4536441 C2.83067797,42.5061864 0.555762712,43.2772881 0.326186441,43.3487288 C0.326186441,43.3487288 0.0889830508,44.0405085 0.0889830508,44.8388136 C0.0889830508,48.0223729 4.08966102,50.064661 8.74347458,51.8611017 C13.6599153,53.7592373 19.6721186,55.3072881 21.7194915,58.0225424 C24.2338983,59.2855932 27.1192373,59.994661 30.2748305,59.994661 C41.3911017,59.994661 49.7928814,50.7877119 49.7928814,40.3685593 C49.7931356,31.6922034 44.1289831,24.4449153 36.2422881,21.8140678 L36.2422881,21.8140678 Z" id="Shape" fill="#000000"></path>
                    <path d="M10.3609322,18.9251695 C10.3609322,18.9251695 9.39737288,4.89610169 16.2259322,2.04915254 L17.2126271,8.35830508 L17.4208475,1.71508475 L25.8467797,1.72652542 C24.9254237,2.31127119 24.6139831,3.02542373 24.4347458,3.82144068 C24.055678,5.50271186 24.3594915,7.68711864 23.6651695,8.86779661 L17.2416102,8.86194915 L10.3609322,18.9251695 L10.3609322,18.9251695 Z" id="Shape" fill="#E4173E"></path>
                    <path d="M4.065,43.2302542 L4.65508475,44.335678 L4.12550847,44.8914407 L12.7276271,48.8323729 C6.88855932,45.1055085 4.36550847,43.6009322 4.36550847,42.0615254 C4.36550847,40.6118644 7.80584746,41.1238983 9.7240678,39.7525424 C10.2333051,42.8138136 5.87008475,42.9063559 5.87008475,42.9063559 L13.0459322,46.8645763 C16.5297458,50.2037288 20.5573729,51.2799153 20.5573729,51.2799153 C21.425339,52.2869492 21.5989831,53.1897458 21.5989831,53.1897458 C21.5989831,53.1897458 17.2934746,50.5334746 15.1060169,50.2383051 C15.1060169,50.2383051 16.4727966,50.9069492 18.0747458,51.7662712 C20.6501695,53.1477966 23.8914407,55.2038136 23.4739831,57.1309322 C19.8305085,51.9719492 1.84271186,50.3570339 1.84271186,45.099661 C1.84271186,43.6815254 3.79855932,43.6815254 4.065,43.2302542 L4.065,43.2302542 Z" id="Shape" fill="#E4173E"></path>
                    <path d="M29.8398305,56.2972881 C30.8524576,53.184661 33.0615254,51.4441525 35.8235593,49.4168644 C38.3509322,47.5614407 40.6789831,45.8150847 40.6789831,42.3566949 C40.5747458,41.9918644 37.7883051,40.8722034 37.4758475,40.7855085 C37.4758475,40.7855085 39.2466102,42.2524576 39.2466102,42.8600847 C39.2466102,43.4677119 35.3318644,45.7505085 35.3318644,45.7505085 C35.3318644,45.7505085 35.7216102,45.2590678 36.2171186,44.6654237 C36.9012712,43.8452542 37.7534746,42.7967797 37.7534746,42.2781356 C37.7534746,41.5576271 36.4080508,41.3318644 35.9885593,39.8331356 C35.9885593,39.8331356 35.6234746,40.3937288 35.2683051,41.1701695 C34.8933051,41.9888136 34.5274576,43.0377966 34.5274576,43.5427119 L35.210339,48.305339 L33.3183051,48.0854237 C33.1461864,48.2257627 29.8131356,51.3719492 29.8398305,56.2972881 L29.8398305,56.2972881 Z" id="Shape" fill="#E4173E"></path>
                    <polygon id="Shape" fill="#D69F0F" points="32.559661 46.7488983 33.2539831 44.9433051 33.6475424 46.9108475"></polygon>
                    <path d="M18.6017797,30.6381356 L29.5970339,26.8418644 L35.1752542,30.1057627 L35.2217797,30.6147458 C35.2217797,30.6147458 35.0120339,30.4324576 34.6502542,30.2344068 C34.0685593,29.9155932 33.1039831,29.5210169 32.0621186,29.5210169 C31.4313559,29.5238136 30.8084746,29.8764407 30.3549153,30.2966949 C29.8136441,30.7977966 29.4897458,31.3614407 29.4897458,31.3614407 C29.4897458,31.3614407 28.7865254,29.5848305 25.6095763,29.5848305 C22.6235593,29.5848305 18.6017797,30.6381356 18.6017797,30.6381356 L18.6017797,30.6381356 Z" id="Shape" fill="#D69F0F"></path>
                    <path d="M15.5115254,28.855678 L16.0497458,30.5280508 L30.5921186,24.6831356 L36.3327966,29.7005085 L36.1990678,27.4761864 C36.1286441,27.5044068 36.0483051,27.5244915 35.9623729,27.5244915 C35.3491525,27.5244915 34.1801695,26.7490678 34.1801695,26.7490678 L34.3998305,26.5639831 C34.3998305,26.5639831 35.1986441,26.8416102 35.5225424,26.8416102 C35.6936441,26.8416102 35.9491525,26.770678 36.1525424,26.7038136 L36.020339,24.5038983 L29.7272034,15.7116102 L28.3235593,16.2170339 C28.3235593,16.2170339 25.1349153,14.9323729 22.2531356,14.9323729 C17.475,14.9323729 11.9466102,19.5966102 11.9466102,24.4576271 L15.0020339,24.6658475 L23.37,18.3813559 L14.9326271,26.7144915 C14.9326271,26.7144915 14.2728814,25.2561864 13.0576271,25.2561864 C12.5323729,25.2694068 11.2782203,26.1277119 11.2782203,28.1379661 C11.2782203,29.8855932 12.1085593,30.834661 12.1085593,30.834661 L11.1422034,32.1772881 C11.55,40.369322 11.4269492,44.2172034 8.60186441,43.3805085 L12.7105932,45.3828814 C12.7105932,45.3828814 12.6297458,40.1051695 12.6297458,38.6237288 C12.6297458,35.9115254 12.8514407,35.6275424 13.1852542,35.6377119 C14.0918644,35.6377119 14.3369492,40.3817797 14.4424576,43.4285593 C14.5034746,45.1929661 14.5683051,46.5577119 14.5683051,46.5577119 C14.5683051,46.5577119 17.8611864,50.1747458 23.7175424,50.6837288 C18.6394068,47.1030508 19.2177966,42.7677966 19.5971186,39.8392373 C19.7715254,38.4922881 19.9571186,37.0876271 20.2914407,35.5451695 C15.6272034,35.4988983 15.5923729,32.9064407 15.5923729,32.235 C15.5923729,31.5635593 15.6922881,31.219322 15.6922881,31.219322 C15.4883898,31.3611864 14.539322,32.1020339 13.3299153,31.7433051 C15.5171186,31.0316949 15.5115254,28.855678 15.5115254,28.855678 L15.5115254,28.855678 Z M18.0401695,21.3411864 L14.5855932,23.6415254 L12.6673729,23.5807627 C12.6673729,23.1348305 12.8844915,19.3011864 18.1184746,16.8447458 C17.6834746,17.1358475 17.3066949,17.4772881 16.9207627,17.7907627 C15.9742373,18.5598305 14.5510169,19.9433898 14.5510169,20.6638983 C14.5507627,21.549661 15.7052542,21.879661 18.0401695,21.3411864 L18.0401695,21.3411864 Z M33.864661,22.8401695 C33.9081356,22.8401695 35.0364407,23.8240678 35.0364407,25.2447458 C35.0364407,25.6266102 35.2563559,25.9507627 35.2563559,25.9507627 L35.1869492,26.1012712 C35.1869492,26.1012712 34.9207627,25.9507627 34.8282203,25.9507627 C34.735678,25.9507627 34.6083051,26.0666949 34.3072881,26.0666949 C34.0062712,26.0666949 33.4161864,25.6962712 32.7795763,24.9788136 C32.7795763,24.9788136 32.8604237,24.9208475 32.9649153,24.9208475 C33.0688983,24.9208475 33.5666949,25.4186441 33.9025424,25.4186441 C34.2383898,25.4186441 34.1455932,25.2333051 34.6083051,25.2681356 C34.6083051,25.2681356 34.4926271,24.9208475 34.4926271,24.6777966 C34.4926271,23.6636441 33.8328814,23.0862712 33.8328814,22.9764407 C33.8328814,22.8602542 33.864661,22.8401695 33.864661,22.8401695 L33.864661,22.8401695 Z M31.6337288,22.8422034 C31.6675424,22.8422034 32.1777966,23.4071186 32.4757627,23.4071186 C32.6455932,23.4071186 32.7155085,23.3290678 32.8924576,23.3290678 C32.8924576,23.3290678 32.8764407,23.2622034 32.8794915,23.1770339 C32.8962712,22.9004237 32.9761017,22.7839831 32.9834746,22.5737288 C32.9928814,22.3100847 32.6951695,21.5651695 32.6870339,21.5407627 C32.6537288,21.4418644 32.6994915,21.1777119 32.7391525,21.2227119 C32.889661,21.4032203 33.4797458,22.3454237 33.4797458,22.9817797 C33.4797458,23.2835593 33.4540678,23.4358475 33.4449153,23.6936441 C33.4357627,23.9514407 33.5824576,24.21 33.5824576,24.21 L33.5326271,24.3444915 C33.5326271,24.3444915 33.3264407,24.0582203 32.9791525,24.0582203 C32.6036441,24.0582203 32.4541525,23.9799153 32.2370339,23.780339 C32.0199153,23.5807627 31.5338136,22.9316949 31.535339,22.8950847 C31.5355932,22.8704237 31.5584746,22.8422034 31.6337288,22.8422034 L31.6337288,22.8422034 Z M28.6390678,18.2944068 C28.6390678,18.2944068 28.2312712,18.7283898 28.2312712,19.935 C28.2312712,21.7894068 29.2088136,22.9472034 30.3058475,22.9472034 C30.4705932,22.9472034 31.0433898,22.834322 31.0433898,22.834322 C31.0433898,22.834322 30.7484746,23.589661 29.8370339,23.589661 C28.6390678,23.589661 27.3544068,21.9577119 27.3544068,20.5601695 C27.3544068,18.9282203 28.6390678,18.2944068 28.6390678,18.2944068 L28.6390678,18.2944068 Z M24.1540678,23.0311017 C24.1540678,22.8076271 24.1395763,22.7626271 24.1395763,22.5709322 C24.1395763,22.3792373 24.2982203,21.9592373 24.3940678,21.7665254 C24.5181356,21.5176271 25.2607627,20.7330508 25.4532203,20.5975424 C25.5038136,20.5642373 25.5373729,20.8088136 25.4921186,20.889661 C25.4809322,20.9097458 25.3507627,21.0422034 25.2274576,21.2369492 C25.0754237,21.4766949 24.925678,21.8026271 24.925678,22.0311864 C24.925678,22.2134746 25.0276271,22.2851695 25.0362712,22.5259322 C25.0362712,22.599661 24.9958475,22.6690678 24.9958475,22.6690678 C25.2315254,22.6690678 25.3337288,22.8485593 25.6266102,22.8485593 C26.3816949,22.8485593 26.8736441,22.3914407 27.0155085,22.3914407 C27.0559322,22.3914407 27.1484746,22.4130508 27.1484746,22.4725424 C27.1484746,22.504322 26.8011864,22.7720339 26.3382203,23.0366949 C25.940339,23.2644915 25.4547458,23.4968644 25.0535593,23.4968644 C24.5415254,23.4968644 24.5933898,23.3984746 24.399661,23.3984746 C24.205678,23.3984746 23.9539831,23.5894068 23.9539831,23.5894068 L23.8164407,23.5655085 C23.8172034,23.5655085 24.1540678,23.2545763 24.1540678,23.0311017 L24.1540678,23.0311017 Z M21.7497458,24.804661 C21.7835593,24.7278814 21.8201695,24.2542373 21.9061017,23.925 C21.9742373,23.6638983 22.0820339,23.5563559 22.1781356,23.3636441 C22.4173729,22.8831356 23.3463559,22.239661 23.5583898,22.0904237 C23.6089831,22.0571186 23.6237288,22.1745763 23.5787288,22.2554237 C23.5477119,22.3111017 23.0666949,22.6934746 22.7974576,23.2248305 C22.6751695,23.4663559 22.6324576,23.7460169 22.6324576,24.0261864 C22.6324576,24.2402542 22.5861864,24.4111017 22.5861864,24.4111017 C22.9311864,24.4111017 23.1828814,24.7235593 23.4137288,24.7235593 C24.1688136,24.7235593 24.9907627,24.2621186 25.1323729,24.2621186 C25.1727966,24.2621186 25.3418644,24.2961864 25.3418644,24.3554237 C25.3418644,24.414661 23.8128814,25.3512712 22.9449153,25.3512712 C22.4328814,25.3512712 22.1028814,25.1544915 21.9091525,25.1544915 C21.7154237,25.1544915 21.5908475,25.2762712 21.5908475,25.2762712 L21.5041525,25.160339 C21.5038983,25.1605932 21.6892373,24.9424576 21.7497458,24.804661 L21.7497458,24.804661 Z M19.090678,25.8073729 C19.1730508,25.6815254 19.3716102,24.9116949 19.6576271,24.5183898 C19.7735593,24.3592373 20.4470339,23.8838136 20.4910169,23.8527966 C20.5400847,23.8179661 20.6298305,23.9077119 20.5721186,23.9799153 C20.5141525,24.0523729 20.3318644,24.1738983 20.1872034,24.4777119 C20.0425424,24.7815254 20.0280508,25.1257627 19.9672881,25.2676271 C19.9065254,25.4094915 19.8111864,25.5251695 19.8111864,25.5251695 C20.4592373,25.5251695 20.270339,26.1587288 21.5473729,26.1587288 C21.7904237,26.1587288 23.014322,25.9677966 23.014322,25.9677966 L23.3961864,26.2194915 C23.3961864,26.2194915 22.1374576,26.8011864 20.965678,26.8011864 C19.9067797,26.8011864 19.5594915,26.254322 18.9691525,26.2629661 C18.8911017,26.2629661 18.5524576,26.3323729 18.5524576,26.3323729 L18.500339,26.2716102 C18.500339,26.2716102 19.0083051,25.9332203 19.090678,25.8073729 L19.090678,25.8073729 Z M15.9513559,27.2295763 C15.9513559,27.2295763 16.245,27.1520339 16.3159322,26.79 C16.4954237,25.8727119 17.0161017,25.8467797 17.3026271,25.5775424 C17.3649153,25.5238983 17.4073729,25.6052542 17.3720339,25.6426271 C17.289661,25.729322 17.2332203,25.8986441 17.2332203,25.9594068 C17.2332203,26.0201695 17.2810169,26.2067797 17.2810169,26.2980508 C17.2810169,26.5497458 16.9988136,26.7755085 16.9988136,26.7755085 C17.6649153,26.7755085 17.5128814,27.2529661 18.4919492,27.2529661 C18.7263559,27.2529661 18.8044068,27.2181356 18.9172881,27.2181356 C19.0301695,27.2181356 19.3080508,27.2788983 19.6029661,27.5783898 C18.9172881,27.6650847 18.6785593,27.8951695 17.9277966,27.8951695 C16.6866102,27.8951695 16.6517797,27.3526271 16.0876271,27.3526271 C16.0311864,27.3526271 16.0215254,27.3884746 15.9671186,27.3884746 C15.9127119,27.3884746 15.8705085,27.3688983 15.8705085,27.3091525 C15.8702542,27.2494068 15.9513559,27.2295763 15.9513559,27.2295763 L15.9513559,27.2295763 Z M13.2777966,31.1819492 C12.3460169,31.1819492 11.9120339,29.7582203 11.9120339,29.7582203 C11.9120339,29.7582203 12.3345763,30.4314407 12.8994915,30.4314407 C13.3052542,30.4314407 14.4122034,29.5072881 14.4122034,28.0451695 C14.4122034,27.1365254 14.2037288,26.7488136 14.2037288,26.7488136 C14.2037288,26.7488136 15.0139831,27.7334746 15.0139831,28.6065254 C15.0137288,30.2394915 13.8409322,31.1819492 13.2777966,31.1819492 L13.2777966,31.1819492 Z" id="Shape" fill="#D69F0F"></path>
                    <path d="M12.5138136,17.9992373 L12.7975424,19.2897458 C13.3472034,18.4042373 16.7036441,13.8094068 23.1444915,13.8414407 L24.0673729,12.8763559 L19.2381356,12.8750847 L15.1207627,16.1763559 L18.7594068,11.9072034 L24.654661,11.9064407 L24.654661,10.204322 L18.235678,10.204322 L12.5138136,17.9992373 L12.5138136,17.9992373 Z" id="Shape" fill="#D69F0F"></path>
                    <path d="M38.1363559,24.4395763 L38.1277119,30.7304237 C40.9660169,33.0666102 42.7098305,36.4957627 42.7098305,40.3904237 C42.7098305,45.7825424 39.4370339,50.254322 34.4588136,52.1839831 C33.3955932,53.9483898 32.49,56.3989831 33.2885593,58.0065254 C42.0038136,56.1938136 48.0221186,49.1560169 48.0221186,40.3947458 C48.0223729,33.4034746 44.1086441,27.4772034 38.1363559,24.4395763 L38.1363559,24.4395763 Z M45.7683051,35.6788983 C45.7683051,35.6788983 45.8598305,35.9173729 45.8969492,36.2781356 C45.9383898,36.680339 45.9907627,37.1458475 45.7266102,37.6319492 C45.6658475,37.7438136 45.5377119,37.8480508 45.4713559,37.9698305 C45.2694915,38.3410169 45.3284746,38.6186441 45.3284746,38.6186441 C45.3284746,38.6186441 45.2188983,38.2840678 45.0620339,38.1724576 C44.9054237,38.0611017 44.8291525,38.075339 44.4264407,37.7379661 C43.9166949,37.3108475 43.7117797,36.09 43.7117797,36.09 C44.1302542,36.1197458 44.4429661,36.8529661 44.9407627,36.7827966 C45.3472881,36.725339 45.3742373,35.8128814 45.7683051,35.6788983 L45.7683051,35.6788983 Z M44.7767797,33.1845763 C44.7767797,33.1845763 44.905678,33.4055085 45.0002542,33.755339 C45.1057627,34.1458475 45.2323729,34.5968644 45.0495763,35.1190678 C45.0076271,35.239322 44.8977966,35.3626271 44.8520339,35.4938136 C44.7124576,35.8924576 44.8154237,36.1568644 44.8154237,36.1568644 C44.8154237,36.1568644 44.6534746,35.8441525 44.4808475,35.7592373 C44.3082203,35.6745763 44.2352542,35.7010169 43.7837288,35.4327966 C43.2119492,35.0931356 42.8135593,33.9208475 42.8135593,33.9208475 C43.2315254,33.8832203 43.6581356,34.5566949 44.1378814,34.4072034 C44.5294068,34.2851695 44.4094068,33.380339 44.7767797,33.1845763 L44.7767797,33.1845763 Z M38.2830508,27.4899153 C38.2830508,27.4899153 40.7425424,28.3810169 40.7425424,29.0755932 C40.7425424,29.3417797 40.580339,29.4805932 40.3489831,29.4805932 C39.5618644,29.4805932 38.2830508,27.4899153 38.2830508,27.4899153 L38.2830508,27.4899153 Z M40.0060169,30.1736441 C40.3878814,30 41.0130508,30.495 41.4165254,30.1952542 C41.7462712,29.9509322 41.3341525,29.1361017 41.6161017,28.8302542 C41.6161017,28.8302542 41.8108475,28.9962712 42.0155085,29.2952542 C42.2438136,29.6290678 42.5122881,30.0129661 42.5122881,30.5661864 C42.5122881,30.6935593 42.4494915,30.8463559 42.4494915,30.9849153 C42.4494915,31.4074576 42.6340678,31.6230508 42.6340678,31.6230508 C42.6340678,31.6230508 42.3777966,31.3815254 42.1868644,31.3583898 C41.9959322,31.335 41.9359322,31.384322 41.4208475,31.2800847 C40.7689831,31.1486441 40.0060169,30.1736441 40.0060169,30.1736441 L40.0060169,30.1736441 Z M41.5807627,31.9154237 C41.9870339,31.810678 42.5171186,32.4063559 42.9663559,32.1811017 C43.3329661,31.9972881 43.0683051,31.1239831 43.3990678,30.8715254 C43.3990678,30.8715254 43.5622881,31.0685593 43.7117797,31.3985593 C43.8790678,31.7666949 44.0771186,32.1912712 43.9812712,32.7363559 C43.9591525,32.8616949 43.8709322,33.0012712 43.8470339,33.1380508 C43.7738136,33.5542373 43.9179661,33.7983051 43.9179661,33.7983051 C43.9179661,33.7983051 43.7077119,33.5163559 43.5236441,33.4601695 C43.339322,33.4044915 43.2719492,33.4426271 42.7825424,33.250678 C42.1634746,33.0078814 41.5807627,31.9154237 41.5807627,31.9154237 L41.5807627,31.9154237 Z M36.2262712,54.7070339 C35.9816949,55.3571186 33.3661017,55.3258475 33.3661017,55.3258475 C33.3661017,55.3258475 35.2637288,53.9122881 36.0002542,54.1894068 C36.2171186,54.2707627 36.3198305,54.4576271 36.2262712,54.7070339 L36.2262712,54.7070339 Z M38.2838136,53.6066949 C38.235,53.7368644 38.2400847,53.9016102 38.1950847,54.0208475 C38.000339,54.5389831 37.6141525,54.8036441 37.2826271,55.0355085 C36.9859322,55.2434746 36.7454237,55.3304237 36.7454237,55.3304237 C36.5890678,54.9447458 37.2612712,54.3274576 37.0388136,53.9824576 C36.7665254,53.5601695 36.0071186,53.8032203 35.710678,53.5062712 C35.710678,53.5062712 36.7680508,52.8622881 37.4244915,52.9683051 C37.9433898,53.0522034 37.9820339,53.119322 38.1691525,53.1648305 C38.3560169,53.210339 38.6809322,53.074322 38.6809322,53.074322 C38.6809322,53.074322 38.4322881,53.2113559 38.2838136,53.6066949 L38.2838136,53.6066949 Z M40.6639831,51.8611017 C40.6388136,51.9976271 40.6731356,52.1590678 40.6502542,52.2844068 C40.550339,52.8287288 40.2172881,53.1577119 39.9322881,53.4447458 C39.6770339,53.7020339 39.4555932,53.8304237 39.4555932,53.8304237 C39.2333898,53.4783051 39.785339,52.7516949 39.5051695,52.4516949 C39.1622034,52.084322 38.4584746,52.4583051 38.1139831,52.2188136 C38.1139831,52.2188136 39.0401695,51.3973729 39.7052542,51.3851695 C40.2305085,51.3757627 40.2808475,51.4347458 40.4727966,51.4464407 C40.665,51.4581356 40.9601695,51.2666949 40.9601695,51.2666949 C40.9601695,51.2666949 40.74,51.445678 40.6639831,51.8611017 L40.6639831,51.8611017 Z M42.5415254,50.2558475 C42.545339,50.809322 42.2794068,51.1947458 42.0531356,51.5300847 C41.8502542,51.8308475 41.6567797,51.9978814 41.6567797,51.9978814 C41.3725424,51.6938136 41.7790678,50.8766949 41.4480508,50.6344068 C41.0425424,50.3374576 40.4209322,50.8365254 40.0377966,50.6654237 C40.0377966,50.6654237 40.7944068,49.6855932 41.4452542,49.549322 C41.9595763,49.4415254 42.0198305,49.4905932 42.2107627,49.4661864 C42.4016949,49.4415254 42.6561864,49.1982203 42.6561864,49.1982203 C42.6561864,49.1982203 42.4731356,49.415339 42.4759322,49.8376271 C42.4766949,49.9761864 42.5407627,50.1284746 42.5415254,50.2558475 L42.5415254,50.2558475 Z M43.7773729,49.3428814 C43.624322,49.6716102 43.4598305,49.8673729 43.4598305,49.8673729 C43.1313559,49.6118644 43.4038983,48.7405932 43.0388136,48.5537288 C42.5913559,48.324661 42.0561864,48.9152542 41.6509322,48.8066949 C41.6509322,48.8066949 42.2435593,47.7198305 42.8649153,47.4826271 C43.3558475,47.2955085 43.4229661,47.3338983 43.6077966,47.2797458 C43.7923729,47.2255932 44.0051695,46.9451695 44.0051695,46.9451695 C44.0051695,46.9451695 43.8587288,47.1882203 43.9278814,47.6049153 C43.9507627,47.7419492 44.0379661,47.8822881 44.0588136,48.0078814 C44.1498305,48.5534746 43.9479661,48.9762712 43.7773729,49.3428814 L43.7773729,49.3428814 Z M45.1062712,46.835339 C45.0195763,47.1874576 44.8957627,47.4111864 44.8957627,47.4111864 C44.5240678,47.2238136 44.6242373,46.3164407 44.2299153,46.2030508 C43.7468644,46.0642373 43.335,46.7468644 42.9165254,46.7181356 C42.9165254,46.7181356 43.2889831,45.5374576 43.8533898,45.185339 C44.2990678,44.9072034 44.3725424,44.9321186 44.5433898,44.8433898 C44.7139831,44.754661 44.8688136,44.4386441 44.8688136,44.4386441 C44.8688136,44.4386441 44.7716949,44.705339 44.9201695,45.100678 C44.9687288,45.2308475 45.0813559,45.3513559 45.1261017,45.4708475 C45.3200847,45.9892373 45.2031356,46.4427966 45.1062712,46.835339 L45.1062712,46.835339 Z M45.9800847,44.3094915 C45.9498305,44.6707627 45.8626271,44.9110169 45.8626271,44.9110169 C45.4660169,44.7844068 45.4220339,43.8727119 45.0147458,43.8231356 C44.515678,43.7621186 44.2166949,44.5011864 43.7989831,44.5388136 C43.7989831,44.5388136 43.9807627,43.3141525 44.4823729,42.8773729 C44.8789831,42.5326271 44.9552542,42.5455932 45.1098305,42.4311864 C45.2644068,42.3165254 45.3678814,41.9801695 45.3678814,41.9801695 C45.3678814,41.9801695 45.3139831,42.2585593 45.5227119,42.6259322 C45.5913559,42.7466949 45.7212712,42.8483898 45.784322,42.9589831 C46.0576271,43.44 46.0136441,43.9062712 45.9800847,44.3094915 L45.9800847,44.3094915 Z M45.3661017,41.349661 C44.8578814,41.349661 44.4460169,40.9291525 44.4460169,40.41 C44.4460169,39.8911017 44.8578814,39.4705932 45.3661017,39.4705932 C45.874322,39.4705932 46.2861864,39.8911017 46.2861864,40.41 C46.2861864,40.9288983 45.874322,41.349661 45.3661017,41.349661 L45.3661017,41.349661 Z" id="Shape" fill="#D69F0F"></path>
                    <path d="M33.7258475,32.4869492 L34.7326271,32.9382203 L34.5851695,31.3324576 C34.5851695,31.3324576 32.7088983,29.5466949 31.2086441,30.8290678 C30.7311864,31.2368644 29.2642373,33.0831356 29.2642373,33.0831356 C28.564322,31.6624576 26.9755932,30.7670339 24.7939831,30.7159322 C23.7513559,30.6917797 22.5111864,30.8694915 21.0439831,31.2167797 C19.2317797,31.6451695 17.8784746,32.1772881 17.8784746,32.1772881 C17.8784746,32.1772881 17.5891525,32.5070339 17.5891525,33.0221186 C17.5891525,34.630678 20.2685593,34.6423729 20.6966949,34.6423729 C21.1248305,34.6423729 21.7904237,34.6133898 21.7904237,34.6133898 L21.130678,37.5648305 L23.6364407,37.9149153 C23.6364407,37.9149153 21.6805932,42.0264407 21.6805932,45.3020339 C21.6805932,45.5351695 21.8199153,46.1855085 22.1377119,46.5055932 C22.4036441,46.7921186 23.5212712,47.8998305 24.4294068,48.710339 C24.6955932,48.9480508 24.9709322,49.1865254 25.2020339,49.3657627 C25.3779661,49.5022881 25.5289831,49.5994068 25.6273729,49.6652542 C25.8345763,49.8040678 26.0359322,49.8734746 26.194322,49.8734746 C27.5623729,49.8734746 28.4684746,49.670339 29.0877966,49.4916102 C29.395678,49.4026271 29.9964407,49.1394915 30.1454237,48.979322 C30.3172881,48.7947458 30.3727119,48.3297458 30.3727119,48.2532203 C30.3727119,47.6974576 30.2222034,46.7600847 28.1041525,46.7600847 C25.9861017,46.7600847 25.1150847,47.5472034 25.1150847,47.5472034 L25.5838983,46.0194915 C25.5838983,46.0194915 25.7000847,45.8277966 26.1221186,45.6808475 C26.4795763,45.5565254 27.0559322,45.4726271 27.9798305,45.4726271 C28.7783898,45.4726271 30.1932203,45.6373729 30.1932203,45.6373729 L30.0892373,44.274661 L29.2383051,44.4310169 L27.2766102,44.1272034 L23.034661,44.2489831 L22.8378814,44.0811864 L28.0057627,43.1204237 L29.1429661,43.3721186 L30.0805932,43.1463559 L29.5772034,42.6602542 L29.0127966,42.9033051 L28.9088136,41.7488136 L25.8010169,41.2367797 L28.2404237,40.3599153 L29.7854237,40.9677966 L30.9572034,40.4033898 L29.6722881,35.3862712 L30.1670339,33.8585593 L33.7258475,32.4869492 L33.7258475,32.4869492 Z M27.7911864,35.6842373 L25.7369492,35.4063559 L26.8248305,34.5439831 L25.4336441,34.1511864 C25.4336441,34.1511864 25.0388136,34.8218644 24.3312712,34.8218644 C23.389322,34.8218644 23.1094068,33.78 23.1094068,33.78 L18.1616949,33.1377966 L23.9125424,32.1958475 L28.6011864,34.0927119 L27.7911864,35.6842373 L27.7911864,35.6842373 Z" id="Shape" fill="#FFFFFF"></path>
                    <path d="M32.5192373,43.3375424 L32.2327119,42.6688983 L31.3647458,41.6794068 L32.5019492,40.7331356 L31.8205932,39.2966949 L31.0433898,36.7922034 L31.5122034,35.0994915 C31.5122034,35.0994915 31.8160169,35.5855932 32.2934746,35.5855932 C33.0139831,35.5855932 33.2397458,34.535339 33.2397458,34.535339 L34.2033051,34.3413559 L33.9485593,35.2441525 C33.9485593,35.2441525 34.7964407,36.8847458 34.7964407,37.4895763 L33.769322,39.1965254 L32.5192373,43.3375424 L32.5192373,43.3375424 Z" id="Shape" fill="#FFFFFF"></path>
                    <polygon id="Shape" fill="#FFFFFF" points="27.4347458 54.4375424 28.1616102 51.9310169 25.7397458 51.5926271 24.6894915 52.53"></polygon>
                </g>
            </g>
        </g>
    </g>
</svg>