<?xml version="1.0" encoding="UTF-8" standalone="no"?>
<svg width="30px" height="30px" viewBox="0 0 30 30" version="1.1" xmlns="http://www.w3.org/2000/svg" xmlns:xlink="http://www.w3.org/1999/xlink">
    <!-- Generator: Sketch 41 (35326) - http://www.bohemiancoding.com/sketch -->
    <title>sharks</title>
    <desc>Created with Sketch.</desc>
    <defs>
        <polygon id="path-1" points="0 1.42108547e-14 95.7621702 1.42108547e-14 95.7621702 149.376216 0 149.376216"></polygon>
        <polygon id="path-3" points="0.0547822643 0.0373440541 33.5715418 0.0373440541 33.5715418 29.4229653 0.0547822643 29.4229653"></polygon>
        <polygon id="path-5" points="0 1.42108547e-14 95.7621702 1.42108547e-14 95.7621702 149.376216 0 149.376216"></polygon>
        <polygon id="path-7" points="0.0547822643 0.0373440541 33.5715418 0.0373440541 33.5715418 29.4229653 0.0547822643 29.4229653"></polygon>
        <polygon id="path-9" points="0.0454896909 0.0593282082 30.0131968 0.0593282082 30.0131968 24.4203588 0.0454896909 24.4203588"></polygon>
        <polygon id="path-11" points="0 1.42108547e-14 95.7621702 1.42108547e-14 95.7621702 149.376216 0 149.376216"></polygon>
        <polygon id="path-13" points="0.0547822643 0.0373440541 33.5715418 0.0373440541 33.5715418 29.4229653 0.0547822643 29.4229653"></polygon>
    </defs>
    <g id="Page-1" stroke="none" stroke-width="1" fill="none" fill-rule="evenodd">
        <g id="sharks">
            <g transform="translate(-15.000000, -111.000000)" id="Page-1">
                <g>
                    <g id="Mobile-Portrait">
                        <g id="san_jose_sharks">
                            <g id="layer1">
                                <g id="g2612" transform="translate(48.037504, 75.513807) scale(1, -1) translate(-48.037504, -75.513807) translate(0.037504, 0.513807)">
                                    <g id="g2614-Clipped">
                                        <g>
                                            <mask id="mask-2" fill="white">
                                                <use xlink:href="#path-1"></use>
                                            </mask>
                                            <g id="path-1"></g>
                                            <g id="g2614" mask="url(#mask-2)">
                                                <g transform="translate(13.000000, 10.000000)" id="g2620">
                                                    <g transform="translate(0.112516, 0.114015)">
                                                        <g id="Group">
                                                            <g id="g2622-Clipped">
                                                                <g>
                                                                    <mask id="mask-4" fill="white">
                                                                        <use xlink:href="#path-3"></use>
                                                                    </mask>
                                                                    <g id="path-3"></g>
                                                                    <g id="g2622" mask="url(#mask-4)">
                                                                        <g transform="translate(4.000000, 2.000000)" id="Group">
                                                                            <g transform="translate(0.412538, 0.749513)">
                                                                                <path d="M16.9503912,3.80851564 C16.897456,3.88657768 16.7708371,3.92469714 16.7200326,4.06033126 C16.6966188,4.12153402 16.6817225,4.19855872 16.6293219,4.22500817 C16.6293219,4.22500817 16.4229013,3.91666039 16.5210601,3.45763972 C16.7317342,3.40732899 16.9448024,3.61816729 16.9448024,3.61816729 C16.9448024,3.61816729 16.987366,3.75405815 16.9503912,3.80851564 M15.6818111,4.21515349 C15.4259107,4.11816009 15.3442441,3.93429249 15.3442441,3.93429249 C15.3442441,3.93429249 15.3963813,3.89487636 15.4458611,3.82408085 C15.4953382,3.75328015 15.5081092,3.65291801 15.5112986,3.62153863 C15.514488,3.59042118 15.7858168,3.6267279 15.7858168,3.6267279 C15.8624292,3.64539733 16.0736353,4.1998528 16.0736353,4.1998528 C16.0736353,4.1998528 16.1183243,4.32355498 16.0975732,4.35000961 C16.0765614,4.37671839 15.9382383,4.31266037 15.6818111,4.21515349" id="path2628" fill="#FFFFFF"></path>
                                                                                <path d="M22.9501572,18.363104 L21.4610554,18.0736876 C21.4014727,18.0620175 15.4466591,16.9180966 11.6927821,16.9180966 C7.98519003,16.9180966 2.14502768,18.0267482 1.89817675,18.0739495 L0.00660521806,18.4256008 L11.6800138,0.0365094352 L23.3667253,18.4559455 L22.9501572,18.363104 L22.9501572,18.363104 Z" id="path2630" fill="#010101"></path>
                                                                                <path d="M21.5469754,17.6092209 C21.3001191,17.5615061 15.4580974,16.4450719 11.6927821,16.4450719 C7.94262907,16.4450719 2.06229714,17.5615061 1.81385017,17.6089642 L0.982847342,17.7694865 L11.6800138,1.14723571 L22.3771802,17.7705291 L21.5469754,17.6092209 L21.5469754,17.6092209 Z" id="path2632" fill="#F28F20"></path>
                                                                                <path d="M21.572778,17.4681459 L21.572778,17.4681459 C21.3256584,17.420426 15.4753904,16.301401 11.6927821,16.301401 C7.92959477,16.301401 2.03490118,17.4206827 1.78591688,17.4681459 L1.28210412,17.5656528 L11.6800138,1.40812542 L22.0779234,17.5664308 L21.572778,17.4681459 L21.572778,17.4681459 Z" id="path2634" fill="#05535D"></path>
                                                                                <path d="M21.2397384,17.0560621 C20.250196,16.8758226 15.1388928,15.9767152 11.6927821,15.9767152 C8.24800665,15.9767152 3.15026712,16.8999432 2.16311875,17.0848455 L2.04128533,17.1076721 L11.6802824,2.13996515 L21.3613032,17.0781029 L21.2397384,17.0560621 L21.2397384,17.0560621 Z" id="path2636" fill="#FFFFFF"></path>
                                                                                <path d="M0.610702248,18.0314162 L4.81040808,11.5016527 C4.81040808,11.5016527 4.50104041,14.1577512 5.97950192,14.8234556 C7.45796874,15.4894272 9.23222629,16.791023 9.23222629,16.791023 L0.610702248,18.0314162 L0.610702248,18.0314162 Z" id="path2638" fill="#010101"></path>
                                                                                <path d="M20.4864093,14.181864 C18.913513,13.5241963 18.5419079,13.3115453 18.4317788,13.1665751 C18.4317788,13.1665751 18.4285867,13.1616478 18.4269907,13.1598324 C17.2850268,14.1336331 16.0217668,15.0700845 14.8481456,15.8084076 C14.8481456,15.8084076 15.616371,15.8377123 15.4668729,15.9308131 C15.2913116,16.295955 15.0633418,16.6826216 14.792021,17.0967775 C14.339542,17.0970394 12.630722,16.9180966 11.6927821,16.9180966 C11.2514754,16.9180966 10.7798494,16.9339133 10.2914623,16.9616646 C10.3308285,16.8729699 10.3651486,16.787395 10.3928106,16.7044056 C10.10047,16.6823596 9.35964052,16.516648 9.15242448,16.4896773 C8.90796494,16.4577792 8.48953746,16.3672718 8.16740416,16.2736523 C5.43818231,15.7059682 4.47710253,14.4531297 4.43400689,14.3815536 L4.47736854,14.2970082 L4.50077707,14.1608606 C4.49865168,14.1411512 4.89153992,14.1250725 4.89153992,13.8730001 C4.89153992,13.2856093 5.24559661,12.0223948 5.74967271,10.8206424 C5.46638161,10.7957464 7.410085,7.21538517 7.09087776,7.22342192 L7.32842381,6.89147477 C9.12954797,6.43972064 9.76157563,6.37644062 11.4344902,6.41119393 C11.4344902,6.41119393 11.5259989,6.41300408 11.6172337,6.41482201 C12.0494935,6.13914768 12.5370852,5.82820916 13.0132333,5.54657534 C13.2994585,5.37723043 13.676921,5.14045616 14.0767254,4.88968047 C14.2459079,4.78361298 14.7459992,5.00404404 14.9026795,4.9067939 C14.9026795,4.9067939 20.6811258,13.9632509 20.7178346,14.2809321 C20.7178346,14.2809321 20.560359,14.2127273 20.4864093,14.181864" id="path2640" fill="#FFFFFF"></path>
                                                                                <path d="M5.0139027,11.0781634 C5.04556007,10.995174 5.1245612,10.8657691 5.18601126,10.7231329 C5.68157783,10.7231329 6.04174999,10.8068977 6.35829716,10.8177871 C6.35829716,10.8177871 7.74524993,9.41323576 7.77344923,9.92464183 C7.80164587,10.4352725 6.91557979,11.4788339 6.12128579,11.3636898 C5.32672578,11.2482837 4.90484022,11.4477113 5.0139027,11.0781634" id="path2642" fill="#05535D"></path>
                                                                                <path d="M23.1435436,6.70890643 C22.8062479,7.44307757 22.7559728,7.58986304 22.7559728,7.58986304 C22.7559728,7.58986304 22.4689549,8.86526623 22.2367317,9.1458653 C22.0047717,9.42672371 21.6039033,9.59918062 21.6039033,9.59918062 C21.6039033,9.59918062 21.5594777,9.6559747 21.4791438,9.75504018 C21.8332005,10.3634371 22.4208078,11.4477113 22.9302067,12.7404898 C23.7213086,14.7485133 24.0535528,15.6063893 23.7848841,15.5093959 C23.515686,15.4121457 21.6810424,14.4730983 20.5574329,14.0037043 C19.4346188,13.5340484 18.6908686,13.1938052 18.5804735,13.0483215 C18.531265,12.9834881 18.4977509,12.9287635 18.4615715,12.8802707 C17.3914265,13.805314 16.0829455,14.8053048 14.7497207,15.6442494 C12.9991377,16.745121 12.7674464,16.8530038 11.9444238,16.9178372 C11.1219305,16.9826707 9.66767816,16.8976066 8.96622026,16.8063237 C8.69994823,16.771573 8.40840562,16.7010342 8.1362788,16.6219401 C5.44748986,16.0669659 4.43400689,14.3815536 4.43400689,14.3815536 C4.43400689,14.3815536 4.27307591,12.7952067 5.0139027,11.0781634 C5.50946927,11.0781634 5.89996878,11.1536243 6.2162526,11.1645189 C7.92401131,10.1624534 7.6941821,9.71484346 7.16616013,9.43606231 C7.9636462,8.86500689 9.28968093,7.80147935 9.5370692,7.72004857 C9.93262016,7.5888283 10.321255,7.41740353 10.51358,7.31652532 C11.0352152,7.04111551 12.0949832,6.31264453 13.1074021,5.71332433 C14.1198211,5.11426346 16.2231307,3.70504668 16.7133798,3.62413197 C17.2036289,3.54321985 17.9010941,3.42626035 18.2806874,3.44259837 C18.6597459,3.45841773 18.8866491,3.54840652 18.8866491,3.54840652 C18.8866491,3.54840652 19.4008361,3.39721497 19.9067822,3.39721497 C20.413255,3.39721497 20.7790133,3.59223133 20.7790133,3.59223133 C20.7790133,3.59223133 21.1586066,3.36557626 21.9810999,3.30074283 C21.9810999,3.30074283 22.5200281,3.25691543 23.0262376,3.26313944 C23.5489367,3.25146943 23.9290594,3.34093956 23.9878467,3.41251566 C24.0838775,3.52947776 23.4811052,5.97499204 23.1435436,6.70890643" id="path2644" fill="#010101"></path>
                                                                                <path d="M19.0377405,3.90058429 C18.6360687,3.90032237 17.9146631,3.8998037 17.6236498,3.95167044 L17.4965016,3.97397055 L17.6079581,4.04114057 C17.7739459,4.14176205 17.9649382,4.26105556 18.087035,4.3575277 C17.6162016,4.33807767 16.853299,4.36271437 16.6245338,4.42132379 L16.5402099,4.44284589 L16.6040514,4.50378931 C16.6654987,4.56266066 16.7578028,4.6360521 16.8554244,4.71333095 C16.9602361,4.79658226 17.072488,4.8868278 17.1512231,4.96255583 C16.8078093,4.92572526 16.2888342,4.88293779 16.0337344,4.8930518 L15.9294627,4.89694181 L16.0191041,4.99444869 C16.0954478,5.07717614 16.2388251,5.23355696 16.3074546,5.36218908 C16.3037305,5.36140848 16.2930903,5.35959315 16.2930903,5.35959315 C16.015114,5.31161641 15.6344594,5.24548372 15.4743211,5.25145358 L15.3865444,5.25456299 L15.4368169,5.32795443 C15.5086412,5.43116925 15.5815215,5.539314 15.6299373,5.62048026 C15.5945585,5.61373759 15.5581157,5.60647624 15.5581157,5.60647624 C15.3572838,5.56420744 15.1077674,5.51104403 14.9731711,5.55357476 L14.9093269,5.57354086 L14.9489618,5.6285222 C15.0255716,5.73536769 15.0572263,5.80876172 15.0723913,5.85802994 C14.9247553,5.82016981 14.6872093,5.77426775 14.5536742,5.83028383 L14.4879734,5.85751387 L14.5382485,5.9093832 C14.5762874,5.94828067 14.6103388,6.01181743 14.6302866,6.06498084 C14.0615657,6.07042425 13.734913,5.9723987 13.734913,5.9723987 C14.6207077,5.93998199 15.5168847,4.60155812 15.749108,4.35338095 C15.9810679,4.10519859 16.676937,3.78103145 17.5523628,3.68403805 C18.2181759,3.61012535 18.6847478,3.69752341 18.8188202,3.72812478 C18.8901072,3.77480485 18.9629928,3.83237693 19.0377405,3.90058429" id="path2646" fill="#FFFFFF"></path>
                                                                                <path d="M18.3115414,4.76364169 C17.3520603,5.27063909 16.7719012,5.73484902 15.6121149,5.96150669 C15.2796073,6.02659945 14.983008,6.05512615 14.7297729,6.06290617 C14.7130118,6.00818675 14.6845519,5.950874 14.6542272,5.9047126 C14.7760553,5.89018992 14.9657229,5.92623471 15.1208017,5.97188003 L15.1814485,5.98925799 L15.1814485,5.92494323 C15.1814485,5.8808565 15.1607053,5.78567843 15.0684012,5.63837429 C15.1939561,5.63033754 15.3878718,5.66975626 15.5386972,5.70191364 L15.7991171,5.75222438 L15.7634723,5.66820026 C15.7366057,5.60440417 15.6655821,5.49392801 15.5687559,5.35129447 C15.7523027,5.36477982 16.0608644,5.41794323 16.2771299,5.45528729 L16.4516299,5.48537 L16.4314134,5.41171922 C16.3947046,5.27712503 16.2507953,5.10778012 16.1441269,4.98926461 C16.4268913,4.99108254 16.9083623,5.03127926 17.2658717,5.0730294 L17.3693507,5.08496134 L17.3102974,4.99730136 C17.2461899,4.90083182 17.0772734,4.76649436 16.9136824,4.63682751 C16.8509049,4.58677869 16.7942457,4.54087663 16.7434385,4.49808916 C17.0573256,4.45270317 17.7989531,4.4314378 18.2147152,4.46073992 L18.3298958,4.46851993 L18.2538207,4.37983039 C18.1732209,4.28621093 17.9777065,4.15576607 17.7742119,4.03025115 C18.1136382,3.99705384 18.7132132,3.99757251 19.0566269,3.99783443 L19.2734245,3.99809117 L19.1920267,3.91510698 C19.1553178,3.87698233 19.0747153,3.79581088 18.9688449,3.71489876 C19.1268525,3.68248205 19.4197225,3.62698464 19.5979519,3.61920463 C19.8929499,3.60701594 20.2411544,3.57615523 20.6103708,3.66225402 C20.0935184,3.89954696 19.2710278,4.25613081 18.3115414,4.76364169" id="path2648" fill="#FFFFFF"></path>
                                                                                <path d="M10.676639,13.6689045 C10.676639,13.6689045 11.2248775,13.2586386 11.7943937,12.5031995 C12.3641839,11.7475011 12.7435059,11.1645189 12.6381701,11.0996855 C12.5328264,11.034852 12.1109435,11.2293523 12.1109435,11.2293523 C12.1109435,11.2293523 13.0281297,10.6479261 13.8719061,9.89248705 C14.7151425,9.13652669 15.1476684,8.7034394 15.1476684,8.7034394 C15.1476684,8.7034394 16.5189268,8.72522343 16.6662968,8.37953419 C16.8141961,8.03410169 16.8775056,7.88316947 16.9828439,7.68866919 C17.0881797,7.49443083 17.7422885,6.52296417 17.8263491,6.52296417 C17.910939,6.52296417 18.1660388,6.52425824 18.2293482,6.58909167 C18.292655,6.65418702 18.3958653,6.86839926 18.3958653,6.86839926 C18.3958653,6.86839926 18.4804579,6.39329731 18.3115414,6.15600697 C18.4780638,6.0255647 20.0421819,4.99574795 21.4030661,4.4091351 C22.5875936,3.8990231 23.650285,3.4851291 23.7556234,3.59326866 C23.8612278,3.70115148 23.2887855,5.8538832 22.9514872,6.58779759 C22.6139256,7.32171458 22.5636478,7.46875161 22.5636478,7.46875161 C22.5636478,7.46875161 22.2766299,8.74415998 22.0444066,9.02475386 C21.8127154,9.30561486 21.411847,9.47833111 21.411847,9.47833111 C21.411847,9.47833111 20.3786769,10.7975643 19.1973415,11.9202173 C18.0165434,13.0428729 16.3077206,14.4220096 14.5576643,15.5231431 C12.8068126,16.6242689 12.5751267,16.7321517 11.7523674,16.7967284 C10.9298741,16.8615618 9.62245714,16.7344883 8.92658537,16.6050808 C8.23044759,16.4754139 7.30208389,16.1302382 7.30208389,16.1302382 C7.30208389,16.1302382 8.25145941,15.6766661 9.24260319,14.8779183 L10.676639,13.6689045 L10.676639,13.6689045 Z" id="path2650" fill="#05535D"></path>
                                                                                <path d="M16.0020797,7.93710829 C16.0020797,7.93710829 16.3710274,7.59168097 16.5926131,7.2680325 C16.8141961,6.94386537 17.1831465,6.35024792 17.1831465,6.35024792 C17.1831465,6.35024792 16.6873139,6.57690558 16.5505841,6.65263102 C16.413591,6.72835646 16.2976098,6.81445525 16.2976098,6.81445525 C16.2976098,6.81445525 16.1393362,7.18141505 16.0970439,7.40807011 C16.0547489,7.63498711 16.0020797,7.93710829 16.0020797,7.93710829" id="path2652" fill="#F28F20"></path>
                                                                                <path d="M13.3893474,8.92698505 L13.6414609,8.57377254 C13.6414609,8.57377254 13.3655305,7.43348741 13.3987147,7.09349833 C13.3987147,7.09349833 13.1953137,7.91039951 13.3893474,8.92698505" id="path2654" fill="#05535D"></path>
                                                                                <path d="M12.7803609,9.50711456 L13.0437487,9.10151923 C13.0437487,9.10151923 12.8019134,7.83882081 12.862932,7.41014219 C12.862932,7.41014219 12.5779889,8.34063673 12.7803609,9.50711456" id="path2656" fill="#05535D"></path>
                                                                                <path d="M12.175094,10.0348613 L12.4406157,9.68164874 C12.4406157,9.68164874 12.2309687,8.35956809 12.2927604,7.792662 C12.2927604,7.792662 11.9646033,8.78824671 12.175094,10.0348613" id="path2658" fill="#05535D"></path>
                                                                            </g>
                                                                        </g>
                                                                    </g>
                                                                </g>
                                                            </g>
                                                        </g>
                                                    </g>
                                                </g>
                                            </g>
                                        </g>
                                    </g>
                                </g>
                                <g id="g2660" transform="translate(48.037504, 75.513807) scale(1, -1) translate(-48.037504, -75.513807) translate(0.037504, 0.513807)">
                                    <g id="g2662-Clipped">
                                        <g>
                                            <mask id="mask-6" fill="white">
                                                <use xlink:href="#path-5"></use>
                                            </mask>
                                            <g id="path-5"></g>
                                            <g id="g2662" mask="url(#mask-6)">
                                                <g transform="translate(13.000000, 10.000000)" id="g2668">
                                                    <g transform="translate(0.112516, 0.114015)">
                                                        <g id="Group">
                                                            <g id="g2670-Clipped">
                                                                <g>
                                                                    <mask id="mask-8" fill="white">
                                                                        <use xlink:href="#path-7"></use>
                                                                    </mask>
                                                                    <g id="path-7"></g>
                                                                    <g id="g2670" mask="url(#mask-8)">
                                                                        <g transform="translate(1.000000, 2.000000)" id="g2676">
                                                                            <g transform="translate(0.783821, 0.490179)">
                                                                                <g id="Group">
                                                                                    <g id="g2678-Clipped">
                                                                                        <g>
                                                                                            <mask id="mask-10" fill="white">
                                                                                                <use xlink:href="#path-9"></use>
                                                                                            </mask>
                                                                                            <g id="path-9"></g>
                                                                                            <g id="g2678" mask="url(#mask-10)">
                                                                                                <path d="M13.4213342,12.3522673 C13.4213342,12.3522673 11.238486,13.7557813 9.80445019,14.1548985 C8.37014569,14.5542698 8.24379282,14.6084705 8.15920291,14.5433804 C8.074879,14.4788037 7.83255016,14.295198 7.83255016,14.295198 C7.83255016,14.295198 8.04322428,14.7269861 8.14882867,14.7269861 C8.25443572,14.7269861 9.14023048,14.5757971 10.3949836,14.0794324 C11.6260568,13.5921443 12.6624216,12.8813055 13.4213342,12.3522673" id="path2684" fill="#05535D"></path>
                                                                                                <path d="M8.83964633,11.2674744 C8.83964633,11.2674744 7.52610856,11.1289928 5.09002269,11.0317426 C2.6539448,10.9344925 0.0579893142,10.9124465 0.0460190429,10.8629164 C-0.00133003014,10.6686728 3.18595686,9.17568608 7.03346273,8.13368583 C11.1866175,7.00921487 11.7340579,6.81471459 14.0594826,6.86320999 C13.8222079,7.20319908 13.5535392,7.47834955 13.0946814,7.85101468 C12.6358184,8.2234153 10.4056238,10.4254152 8.83964633,11.2674744" id="path2686" fill="#010101"></path>
                                                                                                <path d="M12.8257467,13.8579588 C12.8257467,13.8579588 14.0751743,14.0848758 15.4991099,13.809466 C16.9227715,13.5343103 19.3678989,12.6422024 19.5131382,12.7353058 C19.766376,12.8968655 17.6667877,17.0420581 15.7547417,19.3882501 C14.0485764,21.4818512 11.5920107,23.6091656 9.77306414,24.4185461 C9.57568501,24.5064628 11.3073843,21.4878184 12.0189504,19.4963949 C12.7307798,17.5047094 12.6121412,16.4971979 12.6121412,16.4971979 C12.6121412,16.4971979 10.9118333,16.5944481 9.70975205,16.302957 C8.50740214,16.0114659 10.4529755,14.3924482 12.8257467,13.8579588" id="path2688" fill="#010101"></path>
                                                                                                <path d="M19.3982236,5.23199837 C19.3923688,5.23874105 19.2739988,5.33780912 19.2011131,5.44413594 C19.1973917,5.51207877 19.1838228,5.65963965 19.1287595,5.70969365 C19.1175872,5.77634501 19.016505,5.80020112 18.9013243,5.79890445 C18.7026205,5.79656785 18.6496826,5.86062587 18.3679796,5.81498055 C18.0857525,5.76908367 17.5013346,5.64537889 15.9632878,5.6508249 C15.9632878,5.6508249 13.8711504,5.63967355 12.8241533,5.71462099 C11.7771509,5.78982518 11.3158938,5.87074248 11.2326392,5.81576114 C11.14964,5.76182232 9.59217738,4.5891127 8.69068561,3.65888268 C7.78998654,2.72839333 7.05687659,1.76782387 6.61210919,1.21647781 C6.16761577,0.666174274 5.98220957,0.343041879 5.99338448,0.300249224 C5.9992313,0.278208452 6.10670039,0.111200137 6.12079605,0.0756688252 C6.14261121,0.0222460812 6.95738767,0.116124884 7.6162846,0.133759576 C8.27517888,0.151134935 9.14368856,0.159949687 9.17455058,0.20326101 C9.20566796,0.246310406 9.66479437,1.42913405 10.5750697,2.43457084 C11.4864063,3.44000503 12.5017513,4.43558455 12.6060257,4.42573246 C12.7110981,4.41639645 15.2208649,4.4960119 16.3918208,4.61504347 C17.561984,4.73407765 19.0880606,4.90005122 19.181426,4.96488465 C19.2747995,5.03023674 19.4721733,5.14719884 19.3982236,5.23199837" id="path2690" fill="#010101"></path>
                                                                                            </g>
                                                                                        </g>
                                                                                    </g>
                                                                                </g>
                                                                            </g>
                                                                        </g>
                                                                    </g>
                                                                </g>
                                                            </g>
                                                        </g>
                                                    </g>
                                                </g>
                                            </g>
                                        </g>
                                    </g>
                                </g>
                                <g id="g2692" transform="translate(48.037504, 75.513807) scale(1, -1) translate(-48.037504, -75.513807) translate(0.037504, 0.513807)">
                                    <g id="g2694-Clipped">
                                        <g>
                                            <mask id="mask-12" fill="white">
                                                <use xlink:href="#path-11"></use>
                                            </mask>
                                            <g id="path-11"></g>
                                            <g id="g2694" mask="url(#mask-12)">
                                                <g transform="translate(13.000000, 10.000000)" id="g2700">
                                                    <g transform="translate(0.112516, 0.114015)">
                                                        <g id="Group">
                                                            <g id="g2702-Clipped">
                                                                <g>
                                                                    <mask id="mask-14" fill="white">
                                                                        <use xlink:href="#path-13"></use>
                                                                    </mask>
                                                                    <g id="path-13"></g>
                                                                    <g id="g2702" mask="url(#mask-14)">
                                                                        <g transform="translate(7.000000, 2.000000)" id="Group">
                                                                            <g transform="translate(0.980181, 0.749513)">
                                                                                <path d="M4.23400298,3.81785684 C3.81929692,3.84404695 3.49690027,3.85545504 3.24765528,3.85831031 C3.0170254,3.65214001 2.79570838,3.4428603 2.60365203,3.24498868 C2.56002704,3.19960268 2.51666806,3.15421929 2.47383843,3.10909522 C3.09868659,3.18093066 4.15898928,3.27403405 4.84315944,3.17755932 C4.96605157,3.31215092 5.09081105,3.44648838 5.21343983,3.57615523 C5.02616893,3.68740939 4.72372007,3.78647487 4.23400298,3.81785684" id="path2708" fill="#FFFFFF"></path>
                                                                                <path d="M2.37142876,3.00017766 C2.16500809,2.77948467 1.96949366,2.55956709 1.78515148,2.34639219 C2.04450736,2.37206623 2.42063988,2.39514952 2.98430665,2.4127868 C3.46577757,2.42730949 3.83685597,2.39826412 4.08743365,2.32824142 C4.11988639,2.36869489 4.14941572,2.40318886 4.17468629,2.4311995 L4.1863879,2.444161 C4.35636841,2.63710787 4.55640228,2.8619502 4.764419,3.09145793 C4.09594585,3.16796138 3.05719231,3.08290511 2.37142876,3.00017766" id="path2710" fill="#FFFFFF"></path>
                                                                                <path d="M2.98723272,2.33904136 C2.34589485,2.31786259 1.94980655,2.28832379 1.69284739,2.25627418 C1.62634588,2.1715647 1.56144041,2.08935208 1.49786497,2.00770236 C1.68593123,2.04225998 1.94395974,2.08266962 2.29295699,2.12390969 L2.40600955,2.13784309 C3.04043393,2.21308065 3.64692767,2.28553711 3.98821341,2.21503411 C4.00044702,2.23259019 4.0118906,2.24959173 4.02386087,2.26547301 C3.82062961,2.3195346 3.49796429,2.35603731 2.98723272,2.33904136" id="path2712" fill="#FFFFFF"></path>
                                                                                <path d="M2.06179775,1.02742354 C2.63504074,1.05283824 2.88561842,1.06398959 3.20110157,0.993712749 C3.28941557,1.14931038 3.38118765,1.30153927 3.47243038,1.44702807 C3.27159316,1.52923167 2.97872053,1.60080777 2.56348512,1.60495971 C2.02934501,1.61014638 1.54468203,1.60210704 1.14913106,1.58239508 C1.01293864,1.41434943 0.886583115,1.2556372 0.771402505,1.11015099 L0.594774502,0.889717338 C0.937656272,0.944177417 1.39944008,0.998118828 1.88836448,1.01964353 L2.06179775,1.02742354 L2.06179775,1.02742354 Z" id="path2714" fill="#FFFFFF"></path>
                                                                                <path d="M2.41585443,2.03260099 L2.30306522,2.02015298 C1.88144566,1.9734755 1.59256577,1.92783018 1.4021028,1.89203953 C1.34331281,1.82098209 1.28586082,1.75070525 1.2299969,1.68224115 C1.61118354,1.69935718 2.06605384,1.70661852 2.56401713,1.70117251 C3.00478912,1.69676384 3.31335611,1.62026299 3.52536292,1.53079027 C3.66714413,1.75277733 3.80573327,1.95376355 3.92463796,2.11584711 C3.58707897,2.16304326 2.97340041,2.09483849 2.41585443,2.03260099" id="path2716" fill="#FFFFFF"></path>
                                                                                <path d="M3.39448529,3.98875516 C3.38118765,3.97682581 3.36735533,3.96541772 3.35405503,3.95296711 C3.58840634,3.94855844 3.87888759,3.93662909 4.23985511,3.91406965 C4.69764882,3.88450042 5.04612204,3.79529221 5.28153471,3.64825 C5.30840132,3.67599611 5.33447257,3.70374741 5.36107052,3.73123938 C5.29323632,3.76313743 5.21928664,3.79270147 5.14267957,3.81889158 C4.8705554,3.91121698 3.86478661,3.96697113 3.39448529,3.98875516" id="path2718" fill="#FFFFFF"></path>
                                                                                <path d="M4.16404339,4.6376081 C3.95389863,4.46670719 3.72539945,4.27661558 3.49929699,4.08056189 C4.0057698,4.05592259 4.90566554,4.0006871 5.1722089,3.91043638 C5.25945355,3.88087234 5.34829957,3.84482236 5.43129877,3.80385023 C5.64649499,4.02479995 5.84493548,4.21826549 6.00320907,4.35233843 C5.84121406,4.44025515 5.57334333,4.52272586 5.13389871,4.57666468 C4.73542168,4.62593808 4.41781048,4.64149811 4.16404339,4.6376081" id="path2720" fill="#FFFFFF"></path>
                                                                                <path d="M3.57138196,1.42757286 C3.57883013,1.38322939 3.58654164,1.33888332 3.59372647,1.29661452 C3.71369518,1.48359153 3.83872068,1.66097579 3.9677336,1.82902403 C3.96028543,1.8749261 3.95176792,1.92679284 3.94272637,1.97969432 C3.82887579,1.82150595 3.70119024,1.63270582 3.57138196,1.42757286" id="path2722" fill="#FFFFFF"></path>
                                                                                <path d="M4.16032197,2.06787038 C4.20979643,2.12621787 4.25927355,2.18482729 4.30981469,2.24058663 C4.31619884,2.24758864 4.51863209,2.47061563 4.79660573,2.76521872 C4.79022158,2.81708546 4.78064802,2.8834723 4.76974178,2.95531033 C4.60667742,2.77481407 4.43483753,2.58264779 4.25634748,2.37985142 L4.2438452,2.3658474 C4.21165847,2.33005935 4.17282159,2.28337669 4.12866459,2.22787668 C4.13664477,2.18794189 4.14835169,2.12933247 4.16032197,2.06787038" id="path2724" fill="#FFFFFF"></path>
                                                                                <path d="M5.29270431,3.54977028 C5.31946117,3.48049248 5.34945191,3.40488629 5.37759275,3.33289762 C5.4209527,3.36271719 5.4647832,3.39223858 5.50814776,3.42205815 C5.49384668,3.49645348 5.47723898,3.58320435 5.46062666,3.66844316 C5.40573358,3.62989157 5.34945191,3.59043636 5.29270431,3.54977028" id="path2726" fill="#FFFFFF"></path>
                                                                                <path d="M5.99975099,4.22630484 C5.86116185,4.10052799 5.68267181,3.925221 5.47359107,3.70867476 C5.48183459,3.64150732 5.49194548,3.56578447 5.50098969,3.4936897 C5.68107577,3.67392404 5.8561104,3.84275028 6.00560312,3.97630714 C6.00400975,4.05747859 6.00187638,4.14720546 5.99975099,4.22630484" id="path2728" fill="#FFFFFF"></path>
                                                                                <path d="M3.61103856,1.17601916 C3.60075699,1.22036782 3.59010821,1.26471388 3.58056103,1.3072472 C3.47737803,1.18613317 3.37419871,1.06009958 3.27505124,0.933285401 C3.28496562,0.887902002 3.2945128,0.840700674 3.30405998,0.795322461 C3.40356731,0.925764723 3.50601958,1.05283824 3.61103856,1.17601916" id="path2730" fill="#FFFFFF"></path>
                                                                                <path d="M5.2163659,3.43870836 C5.10117997,3.31656478 4.97962053,3.18508 4.85220099,3.04555587 C4.86151386,2.98098437 4.87135076,2.91381694 4.87986827,2.85365152 C5.00036634,2.9804657 5.13097264,3.1173939 5.26477634,3.2543221 C5.24748594,3.32019286 5.23046156,3.38450762 5.2163659,3.43870836" id="path2732" fill="#FFFFFF"></path>
                                                                                <path d="M4.08776825,2.26441046 C4.06549907,2.24090952 4.04378405,2.21697338 4.02093215,2.19303724 C4.03863666,2.10513067 4.0580722,2.01547458 4.07691931,1.92886492 C4.10262199,1.95411537 4.1266222,1.98022317 4.1540502,2.00546492 C4.13004999,2.09816308 4.10719808,2.18955997 4.08776825,2.26441046" id="path2734" fill="#FFFFFF"></path>
                                                                                <path d="M12.972833,5.00197196 C12.9185651,5.027646 12.8369039,5.06680539 12.8241356,5.17546881 L12.8206776,5.24289298 C12.8182809,5.35362847 12.8113647,5.35699981 12.7488533,5.35648114 C12.6658621,5.35570314 12.60388,5.36556042 12.5496174,5.37411583 C12.4634288,5.38786311 12.3892158,5.39978987 12.2285482,5.37359717 L12.1519411,5.36062789 C11.8516203,5.30980107 11.2265034,5.20321492 9.80975533,5.20840159 C9.78874086,5.20840159 7.7016549,5.19828758 6.66343337,5.27271895 L5.71379451,5.35285047 C5.41294435,5.38085851 5.17593032,5.40264254 5.12512317,5.38604519 C5.07937279,5.35440388 4.7319636,5.09507017 4.2834801,4.73382091 C4.51969345,4.7322675 4.80325588,4.71488955 5.14507362,4.67261815 C5.5720133,4.619976 5.88483905,4.53465262 6.08221286,4.41717185 C6.1896793,4.50197916 6.27160915,4.54969397 6.31576615,4.54580397 C6.46978364,4.53491195 8.98433863,4.57484934 10.1356127,4.69232751 L12.1862532,4.89486973 C12.5655778,4.93091453 12.6671921,4.9407718 12.6943274,4.95140448 L12.7023075,4.95477063 L12.7105511,4.95477063 C12.7890202,4.95529449 12.9153757,4.96255583 13.0244382,4.97214599 C13.0090125,4.9830406 12.9922515,4.99263595 12.972833,5.00197196" id="path2736" fill="#F28F20"></path>
                                                                                <path d="M2.06578784,0.930951398 L1.89261791,0.923428127 C1.33879336,0.899315278 0.839500048,0.833957997 0.504864464,0.777166508 C0.211459815,0.411246645 0.0816488731,0.209485019 0.024720923,0.102639531 C0.193900757,0.110419542 0.459643439,0.126238898 0.689735994,0.139983585 L1.43694959,0.179404902 C1.85537707,0.191331659 2.64807237,0.215968362 2.81832155,0.23334372 C2.91115766,0.450924702 3.02686762,0.680435035 3.15242246,0.906314695 C2.86433794,0.966739449 2.62094242,0.956106767 2.06578784,0.930951398" id="path2738" fill="#F28F20"></path>
                                                                                <path d="M23.7801233,14.0996552 C23.8168321,14.3722175 23.8168321,14.6292172 23.8168321,14.6292172 C23.8168321,14.6292172 23.3619645,14.7508422 23.091439,14.7578468 C22.8209109,14.7643301 22.3663066,14.693532 22.3663066,14.693532 C22.3663066,14.693532 22.1125341,14.3226822 22.0529488,14.1631946 C22.0369884,14.1224818 22.1202483,13.7275139 22.1202483,13.7275139 C22.1202483,13.7275139 21.7308155,13.0171989 21.4613514,12.4902328 C21.1924193,11.9632667 20.7508466,11.1419543 20.1244051,10.1455967 C19.5594109,9.24726219 19.1356607,8.56859106 19.1356607,8.56859106 L19.3298451,8.10853046 L19.5123252,8.24545866 L19.5586103,8.26335269 L19.7166152,8.25012407 C19.7166152,8.25012407 20.0047024,8.58207641 20.3755148,8.96277311 C20.7468565,9.34295892 21.5730739,10.6640074 22.1024259,11.4152946 C22.6309799,12.1665843 23.1401154,13.2793853 23.1401154,13.2793853 C23.1401154,13.2793853 23.4026634,13.3073933 23.5529594,13.3758548 C23.7032475,13.4445835 23.738363,13.6720191 23.738363,13.6720191 C23.738363,13.6720191 23.7479419,13.8592581 23.7801233,14.0996552" id="path2740" fill="#010101"></path>
                                                                                <path d="M22.7716944,14.207538 C22.7716944,14.207538 23.3233936,14.1961299 23.3601024,14.1956113 C23.3978753,14.2376259 23.5119919,14.3693649 23.5870056,14.5065498 C23.472357,14.5202971 23.2403997,14.5457092 23.0494074,14.5503798 C22.8328785,14.5558258 22.5445306,14.4829556 22.458874,14.4596104 C22.4091309,14.3916676 22.3210802,14.2643347 22.2641576,14.1587885 C22.3944979,14.1875719 22.5655424,14.2106526 22.7716944,14.207538" id="path2742" fill="#F28F20"></path>
                                                                                <path d="M19.6205897,8.87927025 L19.6905493,8.94669701 L19.6559685,8.84348219 C19.6559685,8.83751493 19.6471929,8.79342819 19.633092,8.76282941 C19.6658107,8.7726815 19.767957,8.82532883 19.767957,8.82532883 C19.767957,8.82532883 19.6083534,8.53565567 19.5639304,8.47445033 C19.576164,8.48223034 19.7166152,8.59555657 19.7288541,8.60307985 C19.8815416,8.71018467 20.7178645,9.87252094 21.4762477,11.1419543 C21.8265777,11.7290884 22.6519944,13.1865438 23.1079287,13.8981555 C23.0273262,13.9080076 22.9070942,13.9147529 22.8025564,13.9204582 C22.6320439,13.9300536 22.5402718,13.8921934 22.4586106,13.8592581 L22.3599224,13.8247641 C22.3240089,13.7840487 22.2325029,13.6170378 22.2325029,13.6170378 C22.2295768,13.6126291 21.8539763,12.9160588 21.5874382,12.39402 C21.3270157,11.8841673 20.8003264,10.9329313 20.2858681,10.0810252 C19.9491071,9.52345518 19.5655264,8.98222832 19.3003211,8.6834733 C19.353783,8.72937536 19.588935,8.8489282 19.6205897,8.87927025" id="path2744" fill="#F28F20"></path>
                                                                                <path d="M19.603853,8.66843194 C19.5711157,8.66013326 19.5409182,8.65312866 19.5377363,8.65235325 C19.441101,8.58311374 19.3149134,8.56054912 19.2678657,8.54447043 C19.2834381,8.51749972 19.3911988,8.33129812 19.4074133,8.30251208 C19.4322038,8.3180721 19.4792516,8.34763614 19.4938704,8.35671282 C19.4843343,8.37979093 19.47257,8.40857956 19.4592227,8.44410569 C19.5081713,8.51620046 19.5615733,8.62019587 19.603853,8.66843194" id="path2746" fill="#F28F20"></path>
                                                                                <path d="M12.2181739,3.6267279 C12.2181739,3.6267279 11.9468451,3.59042118 11.9436557,3.62153863 C11.9404663,3.65291801 11.9276953,3.75328015 11.8782182,3.82408085 C11.8287384,3.89487636 11.7766012,3.93429249 11.7766012,3.93429249 C11.7766012,3.93429249 11.8582678,4.11816009 12.1141682,4.21515349 C12.3705954,4.31266037 12.5089185,4.37671839 12.5299303,4.35000961 C12.5506815,4.32355498 12.5059924,4.1998528 12.5059924,4.1998528 C12.5059924,4.1998528 12.2947863,3.64539733 12.2181739,3.6267279" id="path2748" fill="#010101"></path>
                                                                                <path d="M12.3926739,4.23356618 C12.3647406,4.22267157 12.3344159,4.21100415 12.3043599,4.19933413 L12.1500764,4.13968738 C12.0058984,4.08496797 11.929028,4.0006871 11.8923192,3.94985251 C11.9130623,3.929111 11.9364762,3.90265637 11.9601481,3.86868365 C11.9800959,3.84041628 12.031169,3.75379882 12.0423439,3.72293552 C12.1553992,3.87620433 12.3666053,4.1306107 12.3926739,4.23356618" id="path2750" fill="#F28F20"></path>
                                                                                <path d="M20.2943856,7.5141376 C20.2943856,7.5141376 20.530599,7.6518438 20.5117125,7.68270711 C20.4930894,7.71434322 20.4345681,7.81729871 20.4244599,7.91532426 C20.414881,8.01283632 20.428716,8.08337509 20.428716,8.08337509 C20.428716,8.08337509 20.2403837,8.20422719 19.9743777,8.13394517 C19.7081057,8.06314706 19.5564822,8.03565769 19.5588789,7.99753304 C19.5604723,7.95941617 19.5950504,7.8556801 19.5950504,7.8556801 C19.5950504,7.8556801 20.2220293,7.48275563 20.2943856,7.5141376" id="path2752" fill="#010101"></path>
                                                                                <path d="M19.7450805,8.02112552 C19.7740751,8.03154216 19.8057299,8.04098193 19.8371186,8.05107946 L19.9983182,8.10317891 C20.1472816,8.15299901 20.2645929,8.11555253 20.3278997,8.08429611 C20.3263037,8.04326454 20.3257717,7.99344443 20.3305624,7.93450692 C20.3342838,7.88533806 20.3441261,7.83714607 20.3560963,7.79188141 C20.1637713,7.88305546 19.9193144,7.98757999 19.7450805,8.02112552" id="path2754" fill="#F28F20"></path>
                                                                                <path d="M13.3827483,3.80851564 C13.3298131,3.88657768 13.2031942,3.92469714 13.1523897,4.06033126 C13.1289759,4.12153402 13.1140796,4.19855872 13.061679,4.22500817 C13.061679,4.22500817 12.8552584,3.91666039 12.9534172,3.45763972 C13.1640914,3.40732899 13.3771595,3.61816729 13.3771595,3.61816729 C13.3771595,3.61816729 13.4197231,3.75405815 13.3827483,3.80851564" id="path2756" fill="#010101"></path>
                                                                                <path d="M13.3324873,3.6643261 L13.3503492,3.67573937 L13.3343095,3.69259607 C13.2752678,3.75742949 13.1899854,3.85856964 13.1181878,3.97837922 L13.0930404,4.01935654 L13.0766399,3.98071582 C13.0387366,3.89098635 12.9982821,3.74835281 13.0208783,3.57693323 L13.0241584,3.55099986 L13.1302148,3.57200848 C13.1943589,3.59093984 13.2625083,3.6220573 13.3324873,3.6643261" id="path2758" fill="#F28F20"></path>
                                                                                <polygon id="path2760" fill="#010101" points="9.00588246 0.0206926722 9.00588246 0.543250096 8.84894156 0.543250096 8.84894156 0.64957173 9.26923109 0.64957173 9.26923109 0.543250096 9.11228753 0.543250096 9.11228753 0.0206926722"></polygon>
                                                                                <polygon id="path2762" fill="#010101" points="9.3362646 0.0206926722 9.3362646 0.64957173 9.49613423 0.64957173 9.5921624 0.220117701 9.68659454 0.64957173 9.8477942 0.64957173 9.8477942 0.0206926722 9.74830528 0.0206926722 9.74830528 0.516276797 9.64296956 0.0206926722 9.54029123 0.0206926722 9.43601687 0.516276797 9.43601687 0.0206926722"></polygon>
                                                                            </g>
                                                                        </g>
                                                                    </g>
                                                                </g>
                                                            </g>
                                                        </g>
                                                    </g>
                                                </g>
                                            </g>
                                        </g>
                                    </g>
                                </g>
                            </g>
                        </g>
                    </g>
                </g>
            </g>
        </g>
    </g>
</svg>