<?xml version="1.0" encoding="UTF-8" standalone="no"?>
<svg width="762px" height="762px" viewBox="0 0 762 762" version="1.1" xmlns="http://www.w3.org/2000/svg" xmlns:xlink="http://www.w3.org/1999/xlink">
    <!-- Generator: Sketch 40.3 (33839) - http://www.bohemiancoding.com/sketch -->
    <title>Artboard</title>
    <desc>Created with Sketch.</desc>
    <defs></defs>
    <g id="Page-1" stroke="none" stroke-width="1" fill="none" fill-rule="evenodd">
        <g id="Artboard">
            <g id="stars" transform="translate(0.000000, 68.000000)">
                <g id="#0b714cff" fill="#0B714C">
                    <path d="M408.52,0.18 C409.79,8.03 410.2,16 411.12,23.91 C417.06,82.28 422.78,140.68 428.86,199.04 C458.32,201.87 488.26,212.61 508.95,234.52 C584.62,234.46 660.3,234.53 735.98,234.48 C744.64,233.96 753.32,234.21 762,234.26 L762,234.54 C681.8,277.39 601.67,320.42 521.49,363.3 C506.12,395.81 483.24,425.14 453.63,445.8 C459.31,501.69 464.88,557.58 470.54,613.46 C417.89,571.26 365.45,528.79 312.85,486.52 C305.07,487.24 297.16,486.62 289.45,487.62 C203.11,533.71 116.93,580.14 30.55,626.16 C58.4,579.81 86.5,533.6 114.35,487.25 C93.6,487.23 72.84,487.29 52.09,487.22 C80.37,439.74 108.74,392.32 137.1,344.88 C91.42,308.1 45.76,271.28 0.08,234.5 C67.72,234.49 135.37,234.51 203.02,234.49 C210.33,222.34 217.57,210.16 224.83,197.99 C246.26,198.02 267.69,197.99 289.12,198 C328.88,132.04 368.8,66.17 408.52,0.18 L408.52,0.18 Z M397.59,43.66 C364.09,99.43 330.21,154.97 296.81,210.8 C275.29,211.38 253.72,210.65 232.19,211.16 C225.58,222.48 218.73,233.66 212.08,244.96 C211.34,246.05 210.7,247.86 209.01,247.49 C151.72,247.43 94.43,247.57 37.14,247.42 C75.73,278.71 114.49,309.79 153.16,340.98 C154.7,341.91 153.01,343.47 152.59,344.55 C126.73,387.62 101.1,430.84 75.21,473.89 C95.97,474.19 116.74,473.85 137.5,474.05 C135.66,477.89 133.12,481.33 131.04,485.03 C111.49,517.49 91.84,549.89 72.3,582.35 C70.46,585.49 68.28,588.44 66.92,591.84 C140.33,552.73 213.51,513.17 286.96,474.16 C296.27,473.91 305.62,473.91 314.94,473.3 C317.73,472.66 319.53,475.15 321.51,476.61 C352.48,501.62 383.52,526.55 414.48,551.56 C427.77,562.02 440.67,573 454.13,583.23 C454.09,582.43 454.02,580.84 453.98,580.04 C449.25,533.06 444.45,486.09 439.84,439.11 C471.5,419.23 495.55,388.73 510.87,354.9 C511.79,353.08 514.02,352.58 515.64,351.56 C579.75,317.25 643.84,282.9 707.94,248.58 C708.2,248.3 708.73,247.74 708.99,247.46 C640.33,247.46 571.68,247.56 503.03,247.41 C494.93,238.14 485.12,230.35 474.06,224.89 C456.4,215.85 436.52,212.34 416.88,211.16 C410.98,154.44 405.45,97.68 399.64,40.95 C398.9,41.81 398.17,42.69 397.59,43.66 L397.59,43.66 Z" id="path3091"></path>
                </g>
                <g id="#231f1fff" transform="translate(37.000000, 40.000000)" fill="#231F1F">
                    <path d="M360.59,3.66 C361.17,2.69 361.9,1.81 362.64,0.95 C368.45,57.68 373.98,114.44 379.88,171.16 C399.52,172.34 419.4,175.85 437.06,184.89 C448.12,190.35 457.93,198.14 466.03,207.41 C534.68,207.56 603.33,207.46 671.99,207.46 C671.73,207.74 671.2,208.3 670.94,208.58 C606.84,242.9 542.75,277.25 478.64,311.56 C477.02,312.58 474.79,313.08 473.87,314.9 C458.55,348.73 434.5,379.23 402.84,399.11 C407.45,446.09 412.25,493.06 416.98,540.04 C417.02,540.84 417.09,542.43 417.13,543.23 C403.67,533 390.77,522.02 377.48,511.56 C346.52,486.55 315.48,461.62 284.51,436.61 C282.53,435.15 280.73,432.66 277.94,433.3 C268.62,433.91 259.27,433.91 249.96,434.16 C176.51,473.17 103.33,512.73 29.92,551.84 C31.28,548.44 33.46,545.49 35.3,542.35 C54.84,509.89 74.49,477.49 94.04,445.03 C96.12,441.33 98.66,437.89 100.5,434.05 C79.74,433.85 58.97,434.19 38.21,433.89 C64.1,390.84 89.73,347.62 115.59,304.55 C116.01,303.47 117.7,301.91 116.16,300.98 C77.49,269.79 38.73,238.71 0.14,207.42 C57.43,207.57 114.72,207.43 172.01,207.49 C173.7,207.86 174.34,206.05 175.08,204.96 C181.73,193.66 188.58,182.48 195.19,171.16 C216.72,170.65 238.29,171.38 259.81,170.8 C293.21,114.97 327.09,59.43 360.59,3.66 L360.59,3.66 Z M337.57,92.62 C316.47,127.5 295.48,162.44 274.31,197.28 C252.95,197.23 231.59,197.24 210.23,197.27 C202.98,209.42 195.68,221.54 188.47,233.73 C151.28,233.87 114.08,233.56 76.89,233.88 C76.44,233.77 75.54,233.56 75.09,233.46 C76.08,235.56 78.32,236.62 79.98,238.13 C103.82,257.36 127.73,276.51 151.51,295.82 C136.86,319.74 122.7,343.98 108.21,368.02 C100.5,381.18 92.34,394.09 84.92,407.4 L84.37,407.7 C117.91,407.81 151.45,407.72 184.99,407.75 C187.26,407.85 189.68,407.29 191.81,408.33 C187.69,409.23 183.7,410.62 179.57,411.45 L179.38,411.68 C165.63,415.22 151.96,419.09 138.22,422.69 C132.01,432.97 125.79,443.24 119.61,453.54 C113.76,463.46 107.35,473.09 101.95,483.26 C103.04,482.62 104.12,481.95 105.29,481.48 C108.16,480.42 110.74,478.76 113.45,477.38 C148.82,458.4 184.22,439.49 219.59,420.51 C227.73,416.38 235.58,411.54 243.88,407.8 C258.85,407.83 273.85,407.62 288.78,406.27 C319.95,431.58 351.27,456.7 382.54,481.88 L382.49,482.21 C383.28,482.76 384.11,483.31 384.91,483.87 C382.05,456.81 379.52,429.7 376.35,402.68 C365.22,404.1 353.98,404.03 342.78,404.04 C333.76,403.97 324.74,403.53 315.74,402.97 C340.17,398.78 364.42,391.62 385.79,378.8 C404.44,367.8 420.31,352.38 432.58,334.59 C444.04,317.92 453.78,299.59 457.79,279.6 C460.08,269.02 459.72,258.14 457.96,247.52 C460.88,251.19 463.42,255.15 465.68,259.26 C469.84,267.29 472.25,276.12 473.36,285.08 C503.6,268.8 533.78,252.4 564,236.09 C564.39,235.73 565.17,235.02 565.56,234.66 C565.93,234.62 566.67,234.52 567.04,234.48 C566.88,234.3 566.57,233.96 566.42,233.79 C528.41,233.74 490.39,233.69 452.37,233.81 L452.27,233.6 C444.77,219.95 431.55,210.24 417.15,204.85 C397.75,197.35 376.62,196.91 356.1,197.35 C352.11,159.89 348.83,122.33 344.52,84.91 C344.43,83.93 344.34,82.94 344.26,81.96 C341.73,85.32 339.86,89.1 337.57,92.62 L337.57,92.62 Z" id="path3094"></path>
                    <path d="M229.95,254.13 C263.3,253.83 296.66,254.09 330.02,254 C341.19,254.48 353.01,255.27 362.84,261.14 C367.96,264.09 371.43,269.36 372.66,275.09 C374.53,284.94 371.28,294.97 366.66,303.6 C356.08,322.57 337.67,337.06 316.72,342.82 C305.12,346.08 293.03,347.11 281.02,347.48 C256.65,347.58 232.28,347.37 207.92,347.59 C208.76,345.38 210.16,343.46 211.4,341.47 C225.31,318.59 239.42,295.83 253.29,272.93 C245.56,266.59 237.75,260.37 229.95,254.13 L229.95,254.13 Z" id="path3096"></path>
                </g>
                <g id="#a7aaacff" transform="translate(112.000000, 124.000000)" fill="#A7AAAC">
                    <path d="M268.25,1.76 C268.57,1.55 269.2,1.13 269.52,0.91 C273.83,38.33 277.11,75.89 281.1,113.35 C268.06,113.71 255,113.37 241.96,113.53 C242.51,109.24 243.8,105.09 244.72,100.87 C252.58,67.84 260.32,34.76 268.25,1.76 L268.25,1.76 Z" id="path3099"></path>
                    <path d="M156.65,149.64 C158.29,146.84 159.87,143.99 161.82,141.4 C200.54,141.62 239.25,141.43 277.97,141.49 C292.43,141.74 307.49,143.44 320.25,150.78 C327.64,154.96 333.45,161.57 337.09,169.21 C350.53,162.75 363.92,156.21 377.27,149.6 L377.37,149.81 C379.56,154.24 381.05,158.96 382.96,163.52 C384.72,174.14 385.08,185.02 382.79,195.6 C378.78,215.59 369.04,233.92 357.58,250.59 C345.31,268.38 329.44,283.8 310.79,294.8 C289.42,307.62 265.17,314.78 240.74,318.97 C231.76,320.15 222.76,321.16 213.78,322.27 C198.85,323.62 183.85,323.83 168.88,323.8 C160.58,327.54 152.73,332.38 144.59,336.51 C109.22,355.49 73.82,374.4 38.45,393.38 C35.74,394.76 33.16,396.42 30.29,397.48 C29.97,396.28 30.75,395.4 31.61,394.7 C53.43,374.82 75.18,354.87 96.97,334.95 C99.51,332.6 102.25,330.43 104.38,327.68 L104.57,327.45 C108.7,326.62 112.69,325.23 116.81,324.33 C114.68,323.29 112.26,323.85 109.99,323.75 C76.45,323.72 42.91,323.81 9.37,323.7 L9.92,323.4 C30.14,313.45 50.48,303.66 70.61,293.55 C80.79,277.3 90.3,260.61 100.25,244.21 C119.04,212.68 137.86,181.17 156.65,149.64 L156.65,149.64 Z M154.95,170.13 C162.75,176.37 170.56,182.59 178.29,188.93 C164.42,211.83 150.31,234.59 136.4,257.47 C135.16,259.46 133.76,261.38 132.92,263.59 C112.66,273.65 92.17,283.26 72.03,293.52 C112.32,293.46 152.61,293.51 192.9,293.49 C219.04,293.85 245.61,290.15 269.75,279.76 C298.27,267.71 322.32,244.58 333.67,215.58 C339.38,201.21 342.16,184.75 336.86,169.83 C323.68,176.1 310.63,182.65 297.46,188.96 C297.51,189.49 297.61,190.56 297.66,191.09 C296.43,185.36 292.96,180.09 287.84,177.14 C278.01,171.27 266.19,170.48 255.02,170 C221.66,170.09 188.3,169.83 154.95,170.13 L154.95,170.13 Z" id="path3101"></path>
                    <path d="M0.09,149.46 C0.54,149.56 1.44,149.77 1.89,149.88 C2.67,150.23 4.24,150.92 5.03,151.26 C35.32,160.8 65.7,170.05 95.96,179.68 C89.42,190.36 83.33,201.32 76.51,211.82 C52.73,192.51 28.82,173.36 4.98,154.13 C3.32,152.62 1.08,151.56 0.09,149.46 L0.09,149.46 Z" id="path3103"></path>
                    <path d="M477.38,153.53 C481.76,152.53 486.05,151.04 490.56,150.66 C490.17,151.02 489.39,151.73 489,152.09 C458.78,168.4 428.6,184.8 398.36,201.08 C397.25,192.12 394.84,183.29 390.68,175.26 C419.55,167.91 448.48,160.79 477.38,153.53 L477.38,153.53 Z" id="path3105"></path>
                    <path d="M267.78,320.04 C278.98,320.03 290.22,320.1 301.35,318.68 C304.52,345.7 307.05,372.81 309.91,399.87 C309.11,399.31 308.28,398.76 307.49,398.21 L307.54,397.88 C307.87,396.83 307.75,395.85 307.2,394.93 C294.05,369.97 280.69,345.12 267.78,320.04 L267.78,320.04 Z" id="path3107"></path>
                </g>
                <path d="M123.751792,444.788504 C124.268592,443.94096 127.563032,438.340048 131.072768,432.34204 C136.957544,422.28516 181.969072,347.241656 200.320288,316.892128 C204.654696,309.723832 208.049024,303.717312 207.86324,303.54432 C207.677464,303.37132 187.255504,296.911232 162.481112,289.188552 C137.70672,281.46588 117.010024,274.951464 116.488456,274.71208 C115.893864,274.439184 124.02924,274.239624 138.299408,274.177072 C150.816992,274.122192 175.652128,273.947728 193.488584,273.789368 L225.918512,273.501432 L236.625576,255.602232 L247.33264,237.703024 L279.35668,237.703024 L311.380712,237.703024 L343.817832,184.005424 C381.574928,121.500928 380.99644,122.434152 381.230584,123.649928 C381.32648,124.147896 381.097088,124.782792 380.720816,125.060808 C380.024392,125.575384 353.824248,234.615152 353.80536,237.077568 C353.80216,237.50116 362.257336,237.686192 388.532624,237.83756 C425.415048,238.05004 426.130976,238.089248 438.268704,240.561392 C460.137032,245.015416 477.760032,255.982688 487.36,271.112256 C488.18932,272.41928 488.829424,273.519928 488.782448,273.558144 C488.572688,273.728776 449.452192,292.704552 449.310168,292.704552 C449.222544,292.704552 448.393936,291.413064 447.468808,289.834584 C438.787896,275.022856 422.99688,267.293992 398.124792,265.683296 C394.179888,265.427824 364.944392,265.218984 332.368504,265.21356 L273.715088,265.2038 L272.334688,267.218936 C271.575472,268.327264 253.456104,298.572176 232.069432,334.429848 C210.682768,370.287528 190.757024,403.616744 187.790016,408.494784 L182.395456,417.363944 L160.110352,428.374872 C136.125296,440.225728 123.541056,446.329504 123.092992,446.329504 C122.938528,446.329504 123.234992,445.636056 123.751792,444.788512 L123.751792,444.788504 Z" id="path3000" stroke-opacity="0" stroke="#000000" stroke-width="4.74151039" fill-opacity="0" fill="#FFFFFF"></path>
                <path d="M501.47296,296.616296 C500.757064,295.377576 499.055104,292.763816 497.69084,290.807944 C495.642824,287.871816 493.26204,282.856024 490.320128,275.279496 L489.905888,274.212656 L546.199592,274.283696 C577.161128,274.322736 601.853184,274.443832 601.07084,274.552736 C600.288488,274.661632 577.946504,280.177224 551.421984,286.809616 C524.897472,293.442008 503.100872,298.868504 502.985096,298.868504 C502.869328,298.868504 502.188864,297.855008 501.47296,296.616288 L501.47296,296.616296 Z" id="path3002" stroke-opacity="0" stroke="#000000" stroke-width="4.74151039" fill-opacity="0" fill="#FFFFFF"></path>
                <path d="M195.197536,412.344968 C200.673976,409.57308 214.093512,402.944472 225.018728,397.614728 L244.882744,387.924288 L284.050528,387.714976 C329.287672,387.473216 336.183776,387.09628 349.059552,384.16164 C377.173312,377.753944 400.197496,357.755608 408.64468,332.4072 C409.838736,328.824056 409.949944,327.864096 409.996896,320.735184 L410.048096,312.967408 L429.36592,303.57676 C441.41928,297.717464 448.753656,294.39788 448.869664,294.749248 C452.092168,304.51036 452.172032,315.808144 449.10436,327.954744 C441.739928,357.114672 419.677432,384.011664 390.729136,399.121576 C373.732152,407.993352 354.141592,413.555288 330.25756,416.29 C324.009736,417.005368 315.462224,417.112216 254.229368,417.240376 L185.240392,417.384768 L195.197568,412.344968 L195.197568,412.344968 L195.197536,412.344968 Z" id="path3004" stroke-opacity="0" stroke="#000000" stroke-width="4.74151039" fill-opacity="0" fill="#FFFFFF"></path>
                <path d="M372.833328,483.844248 C347.443408,463.360704 326.881864,446.53076 327.141024,446.444376 C327.400184,446.357992 333.34468,445.594224 340.351024,444.74712 C351.176784,443.438232 353.908704,443.257408 358.542576,443.543064 C361.541576,443.727936 366.579288,443.897088 369.73748,443.918968 C372.89568,443.940808 376.43716,444.089976 377.60744,444.250384 L379.735224,444.542032 L387.455096,459.30468 C391.701024,467.424136 400.606032,484.35112 407.244,496.9202 C413.881976,509.48928 419.241896,520.06872 419.154936,520.430064 C419.058536,520.830648 400.980496,506.552224 372.833328,483.844248 L372.833328,483.844248 L372.833328,483.844248 Z" id="path3006" stroke-opacity="0" stroke="#000000" stroke-width="4.74151039" fill-opacity="0" fill="#FFFFFF"></path>
                <path d="M141.661072,518.993144 C142.642136,517.232856 148.8082,506.937848 155.363432,496.115352 C161.918672,485.292856 169.063072,473.450936 171.23988,469.799968 C173.416696,466.149008 175.234664,463.108584 175.279816,463.043464 C175.489752,462.740728 214.563968,452.468872 214.979176,452.607272 C215.238904,452.693848 214.521552,453.596632 213.38504,454.613456 C194.66248,471.364336 142.275216,519.72632 142.041856,520.474856 C141.727072,521.484528 141.016048,522.172808 140.273744,522.1864 C140.055712,522.1904 140.680008,520.753432 141.661072,518.993144 L141.661072,518.993144 L141.661072,518.993144 Z" id="path3008" stroke-opacity="0" stroke="#000000" stroke-width="4.74151039" fill-opacity="0" fill="#FFFFFF"></path>
                <path d="M402.709184,508.131136 C393.581312,500.758752 372.722984,483.916312 356.357352,470.70348 C339.99172,457.490656 326.601784,446.60076 326.601928,446.50372 C326.602072,446.406672 332.599312,445.605832 339.929128,444.724072 L353.256056,443.120864 L359.793928,443.47816 C363.38976,443.674672 369.342232,443.943496 373.021648,444.075544 L379.711496,444.315624 L388.213232,460.57648 C392.889192,469.519952 401.770936,486.38856 407.950448,498.062264 C417.4126,515.937208 420.259152,521.76384 419.433008,521.56604 C419.362768,521.54924 411.837056,515.50352 402.709184,508.131136 L402.709184,508.131136 Z" id="path3005" stroke-opacity="0" stroke="#000000" stroke-width="3.35275421" fill="#FFFFFF"></path>
                <path d="M381.559296,490.814576 C361.101496,474.306248 340.398344,457.578408 335.552288,453.641592 L326.74128,446.483736 L339.04184,444.970608 C349.938168,443.630224 352.954392,443.513616 365.462864,443.949184 L379.58332,444.440888 L383.864432,452.569432 C412.205968,506.381472 419.124536,519.722 418.954752,520.231352 C418.845056,520.560448 402.017096,507.322896 381.559296,490.814576 L381.559296,490.814576 Z" id="path3775" stroke-opacity="0" stroke="#000000" stroke-width="6.70550842" fill="#FFFFFF"></path>
                <path d="M142.192208,519.000936 C142.192208,518.716176 142.988392,517.098808 143.961512,515.406792 C145.705032,512.375232 175.084976,463.578808 175.412984,463.169816 C175.847456,462.628072 214.633016,452.583576 214.466432,453.055936 C214.361928,453.352272 200.99952,465.724144 184.772192,480.548992 C168.544856,495.373832 152.325912,510.20672 148.73008,513.510968 C145.134248,516.815216 142.192208,519.285704 142.192208,519.000936 L142.192208,519.000936 Z" id="path3777" stroke-opacity="0" stroke="#000000" stroke-width="6.70550842" fill="#FFFFFF"></path>
                <path d="M123.416784,445.85392 C123.416784,445.24684 142.235488,413.609088 171.025352,365.815032 C208.044784,304.359072 208.181384,304.125608 207.495584,303.483064 C207.168216,303.176336 186.834136,296.672704 162.308736,289.030552 C137.783336,281.388392 117.26448,274.878008 116.71128,274.563032 C116.14892,274.242848 139.990632,273.98136 170.785992,273.96996 L225.86652,273.94956 L236.528608,256.01232 L247.190688,238.075088 L279.355832,237.901104 L311.520976,237.727128 L345.369504,181.721608 C363.986192,150.918576 379.308312,125.986936 379.418656,126.317952 C379.528992,126.648976 374.004536,150.57188 367.142072,179.479968 C360.279608,208.388056 354.422768,233.32256 354.126872,234.889968 L353.588872,237.739808 L383.844736,237.750368 C416.028352,237.761648 426.100656,238.26784 437.009288,240.422128 C444.348856,241.871592 455.534576,245.52712 461.003808,248.263616 C470.706856,253.11848 481.909184,262.622064 486.498808,269.892488 C488.412432,272.923872 488.560464,273.657016 487.358264,274.149104 C486.897264,274.337808 478.170832,278.567096 467.966192,283.54752 L449.412296,292.602848 L446.673208,288.367448 C439.218496,276.840376 427.657224,270.127904 409.445336,266.752936 C404.085016,265.759576 395.733416,265.6014 338.328336,265.405984 C276.47548,265.195416 273.248712,265.243296 272.547136,266.381912 C272.141368,267.04048 253.538344,298.206696 231.20708,335.6402 C176.775656,426.882624 183.284696,416.658368 177.88416,419.398736 C164.042472,426.422376 123.416784,446.15452 123.416784,445.853872 L123.416784,445.85392 Z" id="path3779" stroke-opacity="0" stroke="#000000" stroke-width="6.70550842" fill="#FFFFFF"></path>
                <path d="M123.416784,445.866064 C123.416784,445.261032 132.207928,430.476888 170.541912,366.615352 C191.49584,331.707672 207.8338,303.81084 207.49952,303.510744 C207.169984,303.21492 186.834136,296.707952 162.308736,289.0508 C137.783336,281.393656 117.26448,274.872584 116.71128,274.559536 C116.153656,274.243984 140.24864,273.981264 170.783008,273.96996 L225.86056,273.94956 L236.516184,256.01232 L247.171808,238.075088 L279.339056,237.900352 L311.506304,237.725624 L345.362688,181.722432 C363.983704,150.920672 379.308216,125.986656 379.417168,126.313504 C379.52612,126.640344 374.16776,149.886408 367.509704,177.971416 C360.851656,206.056424 354.993608,230.993632 354.491824,233.38744 L353.579496,237.739808 L383.84004,237.750368 C424.88124,237.764768 435.156176,238.750752 450.720248,244.168248 C463.575832,248.642984 472.65668,254.314304 480.598064,262.82804 C485.517824,268.102384 488.828912,272.870008 488.08724,273.61168 C487.612056,274.086864 450.65928,292.066928 449.798832,292.241624 C449.397832,292.323032 448.313984,291.031784 447.39028,289.372168 C444.725592,284.584552 436.240448,276.591096 430.86436,273.803872 C424.717152,270.616872 417.488376,268.227784 409.686,266.80448 C404.068808,265.7798 396.225424,265.625144 338.635224,265.403464 C276.848992,265.165632 273.850672,265.209528 272.845312,266.366768 C272.26596,267.033664 253.534912,298.206696 231.22076,335.6402 C208.906608,373.073696 188.790856,406.718592 186.519096,410.406616 L182.388608,417.112128 L176.539616,420.06936 C161.324312,427.762144 123.416784,446.170192 123.416784,445.866016 L123.416784,445.866064 Z" id="path3781" stroke-opacity="0" stroke="#000000" stroke-width="6.70550842" fill="#FFFFFF"></path>
                <path d="M499.150704,292.897696 C496.03164,288.281496 490.208104,276.157552 490.208104,274.280216 C490.208104,274.09836 515.630368,273.97792 546.702016,274.012576 C595.33268,274.066816 602.589264,274.198632 598.837344,274.959656 C595.163592,275.704816 507.430048,297.50044 504.214336,298.466824 C503.443104,298.698592 501.991504,297.10208 499.150704,292.897696 L499.150704,292.897696 L499.150704,292.897696 Z" id="path3783" stroke-opacity="0" stroke="#000000" stroke-width="6.70550842" fill="#FFFFFF"></path>
                <path d="M214.946976,402.685192 L244.451216,388.041312 L281.737048,387.992272 C328.022064,387.931392 339.755312,387.09956 354.756832,382.815584 C385.495184,374.037664 411.564224,344.148 410.259896,319.178128 L409.942904,313.109536 L429.042768,303.8786 C439.547704,298.801592 448.380624,294.894 448.671488,295.195072 C448.96236,295.496144 449.6764,298.068304 450.258248,300.910976 C455.826816,328.116672 437.394312,365.715392 407.39508,388.343464 C389.361928,401.945664 366.209192,410.98244 338.937624,415.063192 C326.078104,416.987408 308.615688,417.427824 247.133416,417.378536 L185.442744,417.329016 L214.946976,402.685144 L214.946976,402.685136 L214.946976,402.685192 Z" id="path3785" stroke-opacity="0" stroke="#000000" stroke-width="6.70550842" fill="#FFFFFF"></path>
                <path d="M384.912616,493.512952 C366.29852,478.4906 345.591352,461.793368 338.896696,456.408 C332.20204,451.022624 326.770576,446.567544 326.826784,446.507808 C326.882944,446.448048 332.360432,445.738328 338.998888,444.930592 C349.572976,443.643992 352.835128,443.521232 365.321392,443.940072 L379.573976,444.418168 L383.189472,451.216976 C399.638584,482.148944 419.119776,519.736264 418.956432,520.226312 C418.846432,520.556312 403.526712,508.535304 384.912616,493.512952 L384.912616,493.512952 Z" id="path3787" stroke-opacity="0" stroke="#000000" stroke-width="6.70550842" fill="#FFFFFF"></path>
                <path d="M142.192208,518.999744 C142.192208,518.715632 142.989728,517.098808 143.96448,515.406792 C145.87028,512.098608 175.107936,463.5198 175.40384,463.169816 C175.871256,462.616968 214.631896,452.587568 214.466432,453.062288 C214.309616,453.512208 194.84104,471.42332 148.059528,514.156696 C144.832504,517.10448 142.192208,519.283848 142.192208,518.999744 L142.192208,518.999744 Z" id="path3789" stroke-opacity="0" stroke="#000000" stroke-width="6.70550842" fill="#FFFFFF"></path>
            </g>
        </g>
    </g>
</svg>