<?xml version="1.0" encoding="UTF-8" standalone="no"?>
<svg width="30px" height="30px" viewBox="0 0 30 30" version="1.1" xmlns="http://www.w3.org/2000/svg" xmlns:xlink="http://www.w3.org/1999/xlink">
    <!-- Generator: Sketch 40.3 (33839) - http://www.bohemiancoding.com/sketch -->
    <title>Artboard Copy</title>
    <desc>Created with Sketch.</desc>
    <defs></defs>
    <g id="Page-1" stroke="none" stroke-width="1" fill="none" fill-rule="evenodd">
        <g id="Artboard-Copy">
            <g id="stars" transform="translate(0.000000, 2.500000)">
                <g id="Page-1">
                    <g id="Artboard-Copy">
                        <g id="stars" transform="translate(0.000000, 0.137796)">
                            <g id="Page-1">
                                <g id="Artboard">
                                    <g id="stars">
                                        <g id="#0b714cff" fill="#0B714C">
                                            <path d="M16.0834645,0.00708661415 C16.1334645,0.316141732 16.1496063,0.62992126 16.1858268,0.941338585 C16.419685,3.23937008 16.6448819,5.5385827 16.8842519,7.83622045 C18.0440945,7.9476378 19.2228346,8.37047245 20.0374015,9.23307085 C23.0165354,9.23070865 25.996063,9.23346455 28.9755905,9.23149605 C29.3165354,9.2110236 29.6582677,9.22086615 30,9.22283465 L30,9.23385825 C26.8425197,10.9208662 23.6877953,12.6149607 20.5311024,14.3031496 C19.9259842,15.5830709 19.0251969,16.7377953 17.8594488,17.5511811 C18.0830708,19.7515748 18.3023622,21.9519685 18.5251969,24.1519685 C16.4523622,22.4905512 14.3877953,20.818504 12.3169291,19.1543307 C12.0106299,19.1826771 11.6992126,19.1582677 11.3956693,19.1976378 C7.9964567,21.0122047 4.6035433,22.8401575 1.20275591,24.6519685 C2.2992126,22.8271654 3.40551181,21.007874 4.5019685,19.1830709 C3.68503937,19.1822834 2.86771654,19.1846457 2.0507874,19.1818897 C3.16417323,17.3125984 4.28110236,15.4456693 5.3976378,13.5779527 C3.5992126,12.1299213 1.80157481,10.6803149 0.0031496063,9.23228345 C2.66614173,9.23188975 5.32952755,9.23267715 7.9929134,9.23188975 C8.28070865,8.7535433 8.56574805,8.27401575 8.8515748,7.7948819 C9.6952756,7.796063 10.5389764,7.7948819 11.3826771,7.7952756 C12.9480315,5.1984252 14.519685,2.60511811 16.0834645,0.00708661415 L16.0834645,0.00708661415 L16.0834645,0.00708661415 L16.0834645,0.00708661415 Z M15.6531496,1.71889764 C14.334252,3.91456693 13.0003937,6.1011811 11.6854331,8.2992126 C10.838189,8.32204725 9.9889764,8.2933071 9.1413386,8.31338585 C8.88110235,8.7590551 8.6114173,9.1992126 8.3496063,9.6440945 C8.32047245,9.68700785 8.2952756,9.7582677 8.22874015,9.7437008 C5.97322835,9.7413386 3.71771654,9.7468504 1.46220473,9.7409449 C2.98149606,10.9728346 4.50748031,12.1964567 6.02992125,13.4244094 C6.0905512,13.4610236 6.02401575,13.522441 6.0074803,13.5649607 C4.98937008,15.2606299 3.98031496,16.9622047 2.96102362,18.6570866 C3.77834646,18.6688977 4.59606299,18.6555118 5.41338585,18.6633859 C5.3409449,18.8145669 5.2409449,18.95 5.1590551,19.0956693 C4.38937008,20.3736221 3.61574803,21.6492126 2.8464567,22.9271653 C2.77401575,23.0507874 2.68818898,23.1669292 2.63464567,23.3007874 C5.52480315,21.7610236 8.4059055,20.2035433 11.2976378,18.6677166 C11.6641732,18.657874 12.0322834,18.657874 12.3992126,18.6338582 C12.5090551,18.6086614 12.5799212,18.7066929 12.657874,18.7641732 C13.8771654,19.7488189 15.0992126,20.730315 16.3181103,21.7149606 C16.8413386,22.1267716 17.3492126,22.5590551 17.8791338,22.961811 C17.877559,22.9303149 17.8748032,22.8677166 17.8732284,22.8362204 C17.6870079,20.9866142 17.4980315,19.1374015 17.3165354,17.2877953 C18.5629921,16.5051181 19.5098425,15.3043307 20.1129922,13.9724409 C20.1492126,13.9007874 20.2370079,13.8811024 20.3007874,13.8409449 C22.8248032,12.4901575 25.3480315,11.1377953 27.8716536,9.78661415 C27.8818897,9.77559055 27.9027559,9.7535433 27.9129922,9.7425197 C25.2098425,9.7425197 22.5070866,9.7464567 19.8043307,9.7405512 C19.4854331,9.37559055 19.0992126,9.06889765 18.6637796,8.853937 C17.9685039,8.4980315 17.1858267,8.3598425 16.4125984,8.31338585 C16.1803149,6.08031495 15.9625984,3.84566929 15.7338582,1.61220473 C15.7047244,1.64606299 15.6759843,1.68070866 15.6531496,1.71889764 L15.6531496,1.71889764 L15.6531496,1.71889764 L15.6531496,1.71889764 Z" id="path3091"></path>
                                        </g>
                                        <g id="#231f1fff" transform="translate(1.456693, 1.574803)" fill="#231F1F">
                                            <path d="M14.1964567,0.144094488 C14.2192914,0.105905512 14.2480315,0.0712598425 14.2771654,0.0374015748 C14.5059055,2.27086614 14.723622,4.50551181 14.9559055,6.7385827 C15.7291338,6.78503935 16.511811,6.92322835 17.2070866,7.27913385 C17.6425197,7.4940945 18.0287402,7.8007874 18.3476378,8.16574805 C21.0503937,8.17165355 23.7531496,8.16771655 26.4562992,8.16771655 C26.446063,8.17874015 26.4251968,8.2007874 26.4149607,8.211811 C23.8913386,9.56299215 21.3681103,10.9153544 18.8440945,12.2661417 C18.780315,12.3062992 18.6925197,12.3259842 18.6562992,12.3976378 C18.0531496,13.7295276 17.1062992,14.9303149 15.8598425,15.7129921 C16.0413386,17.5625984 16.230315,19.411811 16.4165355,21.2614173 C16.4181103,21.2929134 16.4208661,21.3555118 16.4224409,21.3870078 C15.8925197,20.984252 15.3846457,20.5519685 14.8614173,20.1401575 C13.6425197,19.1555118 12.4204725,18.1740157 11.2011811,17.1893701 C11.1232283,17.1318897 11.0523622,17.0338583 10.9425197,17.0590551 C10.5755905,17.0830708 10.2074803,17.0830708 9.8409449,17.0929134 C6.9492126,18.6287401 4.06811023,20.1862205 1.17795275,21.7259842 C1.23149606,21.592126 1.31732283,21.4759842 1.38976378,21.3523622 C2.15905512,20.0744095 2.93267716,18.7988189 3.70236221,17.5208661 C3.78425197,17.3751968 3.88425197,17.2397638 3.95669291,17.0885827 C3.13937008,17.0807086 2.32165355,17.0940945 1.50433071,17.0822834 C2.52362205,15.3874015 3.53267716,13.6858268 4.5507874,11.9901575 C4.56732283,11.9476378 4.63385827,11.8862204 4.57322835,11.8496063 C3.0507874,10.6216535 1.52480315,9.3980315 0.005511811,8.16614175 C2.26102362,8.17204725 4.51653543,8.16653545 6.77204725,8.16889765 C6.8385827,8.18346455 6.86377955,8.1122047 6.8929134,8.06929135 C7.1547244,7.62440945 7.42440945,7.18425195 7.68464565,6.7385827 C8.53228345,6.71850395 9.38149605,6.7472441 10.2287402,6.72440945 C11.5437008,4.52637796 12.8775591,2.33976378 14.1964567,0.144094488 L14.1964567,0.144094488 L14.1964567,0.144094488 L14.1964567,0.144094488 Z M13.2901575,3.64645669 C12.4594488,5.01968505 11.6330708,6.3952756 10.7996063,7.76692915 C9.9586614,7.76496065 9.11771655,7.76535435 8.27677165,7.76653545 C7.9913386,8.2448819 7.703937,8.72204725 7.42007875,9.2019685 C5.9559055,9.2074803 4.49133858,9.1952756 3.02716535,9.207874 C3.00944882,9.2035433 2.97401575,9.1952756 2.95629921,9.1913386 C2.99527559,9.27401575 3.08346456,9.31574805 3.1488189,9.37519685 C4.08740157,10.1322834 5.02874015,10.8862204 5.96496065,11.6464567 C5.388189,12.588189 4.83070866,13.5425197 4.26023622,14.4889764 C3.95669291,15.0070866 3.63543307,15.5153544 3.34330708,16.0393701 L3.32165354,16.0511811 C4.64212598,16.0555118 5.96259845,16.0519685 7.28307085,16.0531496 C7.37244095,16.0570866 7.46771655,16.0350394 7.5515748,16.0759843 C7.3893701,16.1114173 7.23228345,16.1661418 7.06968505,16.1988189 L7.0622047,16.207874 C6.52086615,16.3472441 5.98267715,16.4996063 5.4417323,16.6413386 C5.1972441,17.046063 4.95236221,17.4503937 4.70905512,17.8559055 C4.47874015,18.2464567 4.22637796,18.6255905 4.01377953,19.0259843 C4.05669291,19.0007874 4.0992126,18.9744094 4.14527559,18.9559055 C4.25826771,18.9141733 4.35984252,18.8488189 4.46653543,18.7944882 C5.8590551,18.0472441 7.2527559,17.3027559 8.6452756,16.5555118 C8.96574805,16.3929134 9.27480315,16.2023622 9.6015748,16.0551181 C10.1909449,16.0562992 10.781496,16.0480315 11.3692913,15.9948819 C12.5964567,16.9913386 13.8295276,17.980315 15.0606299,18.9716535 L15.0586614,18.9846457 C15.0897638,19.0062992 15.1224409,19.0279528 15.153937,19.05 C15.0413386,17.9846457 14.9417323,16.9173229 14.8169291,15.8535433 C14.3787402,15.9094488 13.9362205,15.9066929 13.4952756,15.9070866 C13.1401575,15.9043307 12.7850393,15.8870078 12.4307086,15.8649607 C13.3925197,15.7 14.3472441,15.4181102 15.1885827,14.9133858 C15.9228347,14.480315 16.5476378,13.8732283 17.0307087,13.1728347 C17.4818898,12.5165354 17.8653544,11.7948819 18.0232284,11.007874 C18.1133859,10.5913386 18.0992126,10.1629921 18.0299213,9.7448819 C18.1448819,9.8893701 18.2448819,10.0452756 18.3338582,10.2070866 C18.4976378,10.5232284 18.5925197,10.8708661 18.6362204,11.223622 C19.8267717,10.5826772 21.0149606,9.93700785 22.2047244,9.2948819 C22.2200787,9.28070865 22.2507874,9.2527559 22.2661417,9.2385827 C22.2807087,9.23700785 22.3098425,9.23307085 22.3244095,9.23149605 C22.3181103,9.22440945 22.3059055,9.2110236 22.3,9.2043307 C20.8035433,9.2023622 19.3066929,9.2003937 17.8098425,9.2051181 L17.8059055,9.1968504 C17.5106299,8.6594488 16.9901575,8.27716535 16.4232283,8.06496065 C15.6594488,7.76968505 14.827559,7.7523622 14.019685,7.76968505 C13.8625985,6.2948819 13.7334646,4.81614173 13.5637795,3.34291339 C13.5602362,3.30433071 13.5566929,3.26535433 13.5535433,3.22677165 C13.453937,3.35905512 13.380315,3.50787402 13.2901575,3.64645669 L13.2901575,3.64645669 L13.2901575,3.64645669 L13.2901575,3.64645669 Z" id="path3094"></path>
                                            <path d="M9.0531496,10.0051181 C10.3661418,9.9933071 11.6795275,10.0035433 12.9929134,10 C13.4326771,10.0188976 13.8980315,10.05 14.2850393,10.2811023 C14.4866141,10.3972441 14.6232283,10.6047244 14.6716536,10.8303149 C14.7452756,11.2181102 14.6173229,11.6129921 14.4354331,11.9527559 C14.0188976,12.6996063 13.2940945,13.2700787 12.4692914,13.4968504 C12.0125985,13.6251968 11.5366142,13.665748 11.0637795,13.6803149 C10.1043307,13.6842519 9.1448819,13.6759842 8.18582675,13.6846456 C8.21889765,13.5976378 8.27401575,13.5220472 8.32283465,13.4437008 C8.87047245,12.5429134 9.42598425,11.6468504 9.97204725,10.7452756 C9.66771655,10.4956693 9.3602362,10.2507874 9.0531496,10.0051181 L9.0531496,10.0051181 L9.0531496,10.0051181 L9.0531496,10.0051181 Z" id="path3096"></path>
                                        </g>
                                        <g id="#a7aaacff" transform="translate(4.409449, 4.881890)" fill="#A7AAAC">
                                            <path d="M10.5610236,0.0692913385 C10.5736221,0.061023622 10.5984252,0.044488189 10.6110236,0.0358267716 C10.7807086,1.50905512 10.9098425,2.98779527 11.0669291,4.46259842 C10.5535433,4.47677165 10.0393701,4.46338582 9.52598425,4.46968504 C9.5476378,4.3007874 9.5984252,4.13740157 9.63464565,3.97125984 C9.9440945,2.67086614 10.2488189,1.36850393 10.5610236,0.0692913385 L10.5610236,0.0692913385 L10.5610236,0.0692913385 L10.5610236,0.0692913385 Z" id="path3099"></path>
                                            <path d="M6.16732285,5.8913386 C6.23188975,5.78110235 6.2940945,5.66889765 6.37086615,5.56692915 C7.8952756,5.57559055 9.41929135,5.56811025 10.9437008,5.57047245 C11.5129922,5.58031495 12.1059055,5.6472441 12.6082677,5.93622045 C12.8992126,6.1007874 13.1279528,6.3610236 13.2712598,6.661811 C13.8003937,6.4074803 14.327559,6.15 14.8531496,5.8897638 L14.8570866,5.8980315 C14.9433071,6.07244095 15.0019685,6.2582677 15.0771653,6.4377953 C15.1464567,6.8559055 15.1606299,7.28425195 15.0704725,7.7007874 C14.9125985,8.4877953 14.5291338,9.2094488 14.0779527,9.86574805 C13.5948819,10.5661417 12.9700788,11.1732283 12.2358267,11.6062992 C11.3944882,12.1110236 10.4397638,12.3929134 9.47795275,12.557874 C9.12440945,12.6043307 8.77007875,12.6440945 8.41653545,12.6877953 C7.82874015,12.7409449 7.238189,12.7492126 6.6488189,12.7480315 C6.32204725,12.8952756 6.01299215,13.0858267 5.6925197,13.2484252 C4.3,13.9956693 2.90629922,14.7401575 1.51377953,15.4874015 C1.40708662,15.5417323 1.30551181,15.6070866 1.19251968,15.6488189 C1.17992126,15.6015748 1.21062992,15.5669291 1.24448819,15.5393701 C2.10354331,14.7566929 2.95984252,13.9712598 3.81771654,13.1870078 C3.91771653,13.0944882 4.02559055,13.0090551 4.10944882,12.9007874 L4.11692914,12.8917323 C4.27952756,12.8590551 4.43661417,12.8043307 4.5988189,12.7688976 C4.51496063,12.7279527 4.41968504,12.75 4.33031496,12.746063 C3.00984252,12.7448819 1.68937008,12.7484252 0.368897638,12.7440945 L0.390551181,12.7322834 C1.18661418,12.3405512 1.98740158,11.9551181 2.77992126,11.5570866 C3.18070866,10.9173228 3.55511811,10.2602362 3.94685039,9.61456695 C4.68661417,8.37322835 5.42755905,7.13267715 6.16732285,5.8913386 L6.16732285,5.8913386 L6.16732285,5.8913386 L6.16732285,5.8913386 Z M6.1003937,6.6980315 C6.4074803,6.9437008 6.71496065,7.1885827 7.01929135,7.438189 C6.47322835,8.3397638 5.91771655,9.23582675 5.37007875,10.1366141 C5.32125985,10.2149606 5.26614175,10.2905512 5.23307085,10.377559 C4.43543307,10.773622 3.62874015,11.1519685 2.83582677,11.5559055 C4.42204724,11.5535433 6.0082677,11.5555118 7.5944882,11.5547244 C8.62362205,11.5688977 9.66968505,11.4232283 10.6200787,11.0141732 C11.7429134,10.5397638 12.6897638,9.62913385 13.1366141,8.48740155 C13.3614173,7.92165355 13.4708661,7.27362205 13.2622047,6.68622045 C12.7433071,6.93307085 12.2295275,7.1909449 11.7110236,7.4393701 C11.7129921,7.4602362 11.7169291,7.5023622 11.7188976,7.52322835 C11.6704724,7.2976378 11.5338582,7.0901575 11.3322834,6.97401575 C10.9452756,6.7429134 10.4799212,6.711811 10.0401575,6.6929134 C8.72677165,6.6964567 7.41338585,6.68622045 6.1003937,6.6980315 L6.1003937,6.6980315 L6.1003937,6.6980315 L6.1003937,6.6980315 Z" id="path3101"></path>
                                            <path d="M0.00354330708,5.88425195 C0.0212598425,5.888189 0.0566929135,5.8964567 0.074409449,5.9007874 C0.10511811,5.91456695 0.166929134,5.9417323 0.198031496,5.9551181 C1.39055118,6.33070865 2.58661417,6.6948819 3.77795275,7.07401575 C3.52047244,7.4944882 3.28070866,7.92598425 3.01220473,8.3393701 C2.07598425,7.57913385 1.13464567,6.82519685 0.196062992,6.06811025 C0.130708661,6.0086614 0.042519685,5.96692915 0.00354330708,5.88425195 L0.00354330708,5.88425195 L0.00354330708,5.88425195 L0.00354330708,5.88425195 Z" id="path3103"></path>
                                            <path d="M18.7944882,6.0444882 C18.9669291,6.0051181 19.1358267,5.9464567 19.3133858,5.93149605 C19.2980315,5.9456693 19.2673228,5.97362205 19.2519685,5.9877953 C18.0622047,6.62992125 16.8740158,7.27559055 15.6834646,7.91653545 C15.6397638,7.56377955 15.5448819,7.21614175 15.3811024,6.9 C16.5177165,6.6106299 17.6566929,6.33031495 18.7944882,6.0444882 L18.7944882,6.0444882 L18.7944882,6.0444882 L18.7944882,6.0444882 Z" id="path3105"></path>
                                            <path d="M10.5425197,12.6 C10.9834646,12.5996063 11.4259843,12.6023622 11.8641733,12.5464567 C11.9889764,13.6102362 12.0885827,14.677559 12.2011811,15.7429134 C12.1696851,15.7208661 12.1370078,15.6992126 12.1059055,15.677559 L12.107874,15.6645669 C12.1208661,15.6232283 12.1161418,15.5846456 12.0944882,15.5484252 C11.5767716,14.565748 11.0507874,13.5874015 10.5425197,12.6 L10.5425197,12.6 L10.5425197,12.6 L10.5425197,12.6 Z" id="path3107"></path>
                                        </g>
                                        <path d="M4.87211779,17.5113584 C4.89246425,17.4779906 5.0221666,17.2574822 5.1603452,17.0213402 C5.3920293,16.6254 7.1641367,13.6709314 7.8866255,12.476068 C8.0572715,12.1938516 8.19090645,11.9573745 8.18359215,11.9505638 C8.1762781,11.9437527 7.37226395,11.6894186 6.39689415,11.385376 C5.4215244,11.0813339 4.60669386,10.8248608 4.58615968,10.8154362 C4.56275055,10.8046923 4.88304094,10.7968356 5.4448586,10.7943729 C5.93767685,10.7922123 6.9154381,10.7853436 7.6176608,10.779109 L8.8944296,10.7677729 L9.31596755,10.06308 L9.7375055,9.35838675 L10.9982945,9.35838675 L12.2590831,9.35838675 L13.5361351,7.24430805 C15.022635,4.7835011 14.9998598,4.8202422 15.0090781,4.8681074 C15.0128535,4.88771244 15.0038224,4.91270834 14.9890085,4.92365386 C14.9615903,4.94391275 13.9300885,9.236817 13.9293449,9.3337625 C13.9292189,9.35043935 14.2620998,9.3577241 15.29656,9.36368345 C16.7486239,9.3720488 16.7768101,9.37359245 17.2546734,9.47092095 C18.1156312,9.6462762 18.8094501,10.0780586 19.1874016,10.6737108 C19.2200519,10.7251685 19.2452529,10.7685011 19.2434034,10.7700056 C19.2351452,10.7767234 17.6949682,11.5238012 17.6893767,11.5238012 C17.6859269,11.5238012 17.6533046,11.4729553 17.6168822,11.4108104 C17.275114,10.8276715 16.6534204,10.5233855 15.6742044,10.4599723 C15.5188932,10.4499144 14.3678894,10.4416923 13.0853741,10.4414787 L10.7761845,10.4410945 L10.7218381,10.5204306 C10.6919477,10.5640655 9.97858675,11.7548101 9.1365918,13.1665294 C8.29459715,14.5782491 7.51011905,15.890423 7.3933077,16.0824718 L7.18092345,16.4316513 L6.30355715,16.8651525 C5.3592636,17.3317216 4.8638211,17.5720277 4.84618078,17.5720277 C4.84009953,17.5720277 4.85177134,17.5447266 4.87211779,17.5113587 L4.87211779,17.5113584 L4.87211779,17.5113584 L4.87211779,17.5113584 Z" id="path3000" stroke-opacity="0" stroke="#000000" stroke-width="0.5" fill-opacity="0" fill="#FFFFFF"></path>
                                        <path d="M19.7430299,11.677807 C19.714845,11.6290384 19.6478387,11.5261345 19.5941275,11.4491316 C19.513497,11.333536 19.4197653,11.136064 19.303942,10.8377755 L19.2876334,10.7957738 L21.5039209,10.7985707 C22.722879,10.8001077 23.6950072,10.8048753 23.6642063,10.8091628 C23.633405,10.8134501 22.7537993,11.0305993 21.7095269,11.2917172 C20.6652548,11.5528349 19.8071209,11.7664766 19.8025628,11.7664766 C19.798005,11.7664766 19.7712151,11.7265751 19.7430299,11.6778066 L19.7430299,11.677807 L19.7430299,11.677807 L19.7430299,11.677807 Z" id="path3002" stroke-opacity="0" stroke="#000000" stroke-width="0.5" fill-opacity="0" fill="#FFFFFF"></path>
                                        <path d="M7.68494235,16.2340538 C7.90055025,16.1249244 8.42887845,15.8639556 8.85900505,15.6541232 L9.6410529,15.2726098 L11.1830916,15.2643692 C12.9640815,15.254851 13.2355817,15.240011 13.7425021,15.124474 C14.849343,14.8722025 15.755807,14.0848665 16.0883733,13.0868976 C16.1353833,12.945829 16.1397615,12.9080353 16.1416101,12.6273694 L16.1436258,12.3215515 L16.9041701,11.9518409 C17.3787118,11.72116 17.6674667,11.5904677 17.672034,11.6043011 C17.7989042,11.9885969 17.8020485,12.4333915 17.681274,12.9116041 C17.3913357,14.0596328 16.5227336,15.1185695 15.3830368,15.7134479 C14.7138643,16.0627304 13.9425824,16.2817043 13.0022662,16.3893701 C12.7562888,16.4175342 12.4197726,16.4217408 10.0090303,16.4267865 L7.2929288,16.4324712 L7.6849436,16.2340538 L7.6849436,16.2340538 L7.68494235,16.2340538 L7.68494235,16.2340538 L7.68494235,16.2340538 Z" id="path3004" stroke-opacity="0" stroke="#000000" stroke-width="0.5" fill-opacity="0" fill="#FFFFFF"></path>
                                        <path d="M14.6784775,19.0489862 C13.6788743,18.2425474 12.8693647,17.5799512 12.8795679,17.5765503 C12.889771,17.5731493 13.1238063,17.5430797 13.3996466,17.5097291 C13.8258576,17.4581981 13.9334135,17.4510791 14.1158495,17.4623254 C14.2339203,17.4696038 14.4322554,17.4762633 14.5565937,17.4771247 C14.6809323,17.4779845 14.8203606,17.4838573 14.8664347,17.4901726 L14.9502056,17.5016548 L15.2541377,18.0828614 C15.4213002,18.4025251 15.771891,19.0689418 16.0332284,19.5637874 C16.294566,20.0586331 16.5055864,20.4751465 16.5021629,20.4893726 C16.4983676,20.5051436 15.7866337,19.9430009 14.6784775,19.0489862 L14.6784775,19.0489862 L14.6784775,19.0489862 L14.6784775,19.0489862 L14.6784775,19.0489862 Z" id="path3006" stroke-opacity="0" stroke="#000000" stroke-width="0.5" fill-opacity="0" fill="#FFFFFF"></path>
                                        <path d="M5.57720755,20.432801 C5.61583215,20.3634982 5.85859055,19.958183 6.11667055,19.5321005 C6.37475085,19.1060179 6.65602645,18.6398007 6.74172755,18.4960617 C6.827429,18.3523232 6.8990025,18.2326214 6.90078015,18.2300576 C6.90904535,18.2181389 8.4474003,17.8137351 8.4637471,17.8191839 C8.4739726,17.8225924 8.4457304,17.8581351 8.40098585,17.8981676 C7.66387715,18.557651 5.60138645,20.4616661 5.59219905,20.4911361 C5.579806,20.5308869 5.5518129,20.5579846 5.52258835,20.5585197 C5.5140044,20.5586772 5.538583,20.5021036 5.57720755,20.432801 L5.57720755,20.432801 L5.57720755,20.432801 L5.57720755,20.432801 L5.57720755,20.432801 Z" id="path3008" stroke-opacity="0" stroke="#000000" stroke-width="0.5" fill-opacity="0" fill="#FFFFFF"></path>
                                        <path d="M15.8546923,20.0051629 C15.4953272,19.7149115 14.6741332,19.0518233 14.029817,18.531633 C13.3855008,18.0114432 12.8583379,17.5827071 12.8583436,17.5788866 C12.8583493,17.5750659 13.0944611,17.5435367 13.3830365,17.5088217 L13.9077187,17.4457033 L14.1651153,17.4597701 C14.3066834,17.4675067 14.5410327,17.4780904 14.6858916,17.4832892 L14.9492715,17.4927411 L15.2839855,18.1329323 C15.4680784,18.4850375 15.8177534,19.1491559 16.0610412,19.6087505 C16.4335669,20.3124885 16.5456359,20.5418835 16.5131106,20.534096 C16.5103452,20.5334347 16.2140573,20.2954141 15.8546923,20.0051629 L15.8546923,20.0051629 L15.8546923,20.0051629 L15.8546923,20.0051629 Z" id="path3005" stroke-opacity="0" stroke="#000000" stroke-width="0.5" fill="#FFFFFF"></path>
                                        <path d="M15.0220196,19.3234085 C14.2165944,18.6734743 13.4015096,18.014898 13.21072,17.8599052 L12.8638299,17.5780999 L13.348104,17.5185279 C13.7770933,17.4657568 13.8958422,17.461166 14.3883018,17.4783144 L14.9442252,17.4976727 L15.1127729,17.8176942 C16.2285814,19.9362784 16.500966,20.4614961 16.4942816,20.4815493 C16.4899629,20.4945058 15.8274447,19.9733423 15.0220196,19.3234085 L15.0220196,19.3234085 L15.0220196,19.3234085 L15.0220196,19.3234085 Z" id="path3775" stroke-opacity="0" stroke="#000000" stroke-width="0.5" fill="#FFFFFF"></path>
                                        <path d="M5.59811845,20.4331077 C5.59811845,20.4218967 5.62946425,20.3582208 5.66777605,20.291606 C5.7364186,20.1722533 6.8931093,18.2511342 6.906023,18.2350322 C6.9231282,18.2137036 8.45011875,17.818251 8.4435603,17.8368479 C8.439446,17.8485147 7.91336695,18.3355962 7.27449575,18.9192517 C6.63562425,19.5029068 5.99708315,20.0868788 5.85551495,20.2169673 C5.71394675,20.3470558 5.59811845,20.4443191 5.59811845,20.4331077 L5.59811845,20.4331077 L5.59811845,20.4331077 L5.59811845,20.4331077 Z" id="path3777" stroke-opacity="0" stroke="#000000" stroke-width="0.5" fill="#FFFFFF"></path>
                                        <path d="M4.8589285,17.5533039 C4.8589285,17.5294031 5.59982235,16.2838223 6.73328155,14.4021666 C8.19073955,11.9826406 8.1961175,11.9734492 8.1691175,11.9481521 C8.156229,11.9360762 7.35567465,11.6800277 6.3901077,11.3791556 C5.4245408,11.0782831 4.61671181,10.8219688 4.59493228,10.8095682 C4.57279213,10.7969625 5.5114422,10.7866677 6.72385795,10.7862189 L8.8923827,10.7854157 L9.3121499,10.0792252 L9.73191685,9.37303495 L10.9982611,9.3661852 L12.2646054,9.35933575 L13.5972245,7.154394 C14.3301651,5.9416762 14.9333981,4.96011559 14.9377424,4.97314771 C14.9420863,4.98618015 14.7245881,5.92802675 14.4544123,7.06614045 C14.1842366,8.20425415 13.9536523,9.18592755 13.9420029,9.24763655 L13.9208218,9.35983495 L15.1119975,9.3602507 C16.379069,9.3606948 16.7756164,9.3806236 17.2050901,9.4654381 C17.4940494,9.5225036 17.9344321,9.66642205 18.1497562,9.7741581 C18.531766,9.9652945 18.9728025,10.3394513 19.1534964,10.6256885 C19.2288359,10.7450343 19.234664,10.7738982 19.1873332,10.7932718 C19.1691836,10.8007011 18.8256233,10.9672085 18.4238658,11.1632882 L17.6933975,11.5197971 L17.5855594,11.3530491 C17.2920668,10.8992274 16.8368986,10.6349568 16.1198951,10.5020841 C15.9088589,10.4629754 15.5800557,10.456748 13.3200133,10.4490545 C10.8848614,10.4407644 10.7578233,10.4426494 10.7302022,10.4874768 C10.7142271,10.5134047 9.98182455,11.7404211 9.10264095,13.2141811 C6.9596715,16.8064025 7.2159329,16.4038727 7.0033134,16.5117612 C6.45836505,16.7882825 4.8589285,17.5651386 4.8589285,17.553302 L4.8589285,17.5533039 L4.8589285,17.5533039 L4.8589285,17.5533039 Z" id="path3779" stroke-opacity="0" stroke="#000000" stroke-width="0.5" fill="#FFFFFF"></path>
                                        <path d="M4.85892851,17.553782 C4.85892851,17.5299619 5.20503655,16.947909 6.7142485,14.4336753 C7.5392063,13.0593572 8.18243305,11.9610567 8.16927245,11.9492419 C8.1562986,11.9375953 7.35567465,11.6814154 6.3901077,11.3799527 C5.4245408,11.0784904 4.61671181,10.8217553 4.59493229,10.8094306 C4.57297859,10.7970073 5.5216,10.7866639 6.72374045,10.7862189 L8.89214805,10.7854158 L9.3116608,10.0792252 L9.73117355,9.37303495 L10.9976007,9.3661556 L12.2640277,9.35927655 L13.5969562,7.15442645 C14.3300671,5.94175875 14.9333944,4.96010456 14.9376838,4.9729726 C14.9419733,4.98584032 14.7310142,5.9010397 14.468886,7.00674865 C14.2067581,8.11245765 13.9761263,9.0942375 13.956371,9.1884819 L13.9204526,9.35983495 L15.1118126,9.3602507 C16.7276078,9.36081765 17.1321329,9.3996359 17.7448916,9.61292315 C18.251017,9.78909385 18.6085307,10.0123741 18.9211836,10.3475607 C19.114875,10.555212 19.2452327,10.7429137 19.2160331,10.7721134 C19.1973251,10.7908214 17.7424914,11.498698 17.7086155,11.5055758 C17.6928281,11.5087808 17.6501569,11.4579443 17.6137906,11.3926051 C17.5088816,11.2041162 17.1748208,10.8894133 16.9631638,10.77968 C16.7211477,10.6542076 16.4365503,10.560149 16.1293701,10.5041134 C15.9082208,10.4637716 15.5994262,10.4576828 13.3320955,10.4489553 C10.8995666,10.4395918 10.7815225,10.44132 10.7419414,10.4868806 C10.7191323,10.5131364 9.98168945,11.7404211 9.10317955,13.2141811 C8.2246696,14.6879408 7.43271085,16.012543 7.3432715,16.1577408 L7.18065385,16.4217373 L6.9503786,16.5381638 C6.35135085,16.8410293 4.85892851,17.5657556 4.85892851,17.5537802 L4.85892851,17.553782 L4.85892851,17.553782 L4.85892851,17.553782 Z" id="path3781" stroke-opacity="0" stroke="#000000" stroke-width="0.5" fill="#FFFFFF"></path>
                                        <path d="M19.6516025,11.5314053 C19.5288047,11.3496652 19.2995316,10.8723445 19.2995316,10.7984337 C19.2995316,10.791274 20.3004082,10.7865323 21.5237014,10.7878967 C23.4382945,10.7900322 23.7239868,10.7952217 23.5762734,10.8251833 C23.4316375,10.8545203 19.977561,11.7126157 19.8509581,11.7506624 C19.8205947,11.7597871 19.7634451,11.6969323 19.6516025,11.5314053 L19.6516025,11.5314053 L19.6516025,11.5314053 L19.6516025,11.5314053 L19.6516025,11.5314053 Z" id="path3783" stroke-opacity="0" stroke="#000000" stroke-width="0.5" fill="#FFFFFF"></path>
                                        <path d="M8.46247935,15.8537477 L9.6240636,15.277217 L11.0920098,15.2752863 C12.9142545,15.2728895 13.3761934,15.2401402 13.9668044,15.0714797 C15.1769758,14.7258923 16.2033159,13.5491339 16.1519644,12.5660681 L16.1394844,12.3271471 L16.8914475,11.9637244 C17.3050277,11.7638422 17.6527805,11.61 17.6642318,11.6218532 C17.6756835,11.6337065 17.7037953,11.7349726 17.7267027,11.8468888 C17.9459377,12.9179792 17.2202485,14.3982438 16.0391764,15.2891127 C15.3292098,15.8246324 14.4176847,16.180411 13.3440009,16.3410706 C12.8377206,16.4168271 12.150224,16.4341663 9.72966205,16.4322258 L7.30089545,16.4302762 L8.46247935,15.8537458 L8.46247935,15.8537455 L8.46247935,15.8537477 L8.46247935,15.8537477 L8.46247935,15.8537477 Z" id="path3785" stroke-opacity="0" stroke="#000000" stroke-width="0.5" fill="#FFFFFF"></path>
                                        <path d="M15.15404,19.4296438 C14.4212015,18.8382126 13.6059587,18.1808413 13.3423896,17.9688189 C13.0788205,17.7567962 12.8649833,17.5813994 12.8671962,17.5790475 C12.8694073,17.5766948 13.0850564,17.548753 13.3464129,17.5169525 C13.7627156,17.4662989 13.8911468,17.4614658 14.382732,17.4779556 L14.9438573,17.4967782 L15.0861997,17.7644478 C15.7338025,18.9822419 16.5007786,20.4620576 16.4943477,20.4813508 C16.490017,20.494343 15.8868784,20.0210749 15.15404,19.4296438 L15.15404,19.4296438 L15.15404,19.4296438 L15.15404,19.4296438 Z" id="path3787" stroke-opacity="0" stroke="#000000" stroke-width="0.5" fill="#FFFFFF"></path>
                                        <path d="M5.59811845,20.4330608 C5.59811845,20.4218753 5.62951685,20.3582208 5.6678929,20.291606 C5.7429244,20.1613625 6.89401325,18.248811 6.905663,18.2350321 C6.9240652,18.2132664 8.45007465,17.8184082 8.4435603,17.8370979 C8.43738645,17.8548113 7.6709071,18.5599732 5.8291153,20.2423896 C5.7020671,20.3584441 5.59811845,20.444246 5.59811845,20.4330608 L5.59811845,20.4330608 L5.59811845,20.4330608 L5.59811845,20.4330608 Z" id="path3789" stroke-opacity="0" stroke="#000000" stroke-width="0.5" fill="#FFFFFF"></path>
                                    </g>
                                </g>
                            </g>
                        </g>
                    </g>
                </g>
            </g>
        </g>
    </g>
</svg>