<?xml version="1.0" encoding="UTF-8" standalone="no"?>
<svg width="60px" height="60px" viewBox="0 0 60 60" version="1.1" xmlns="http://www.w3.org/2000/svg" xmlns:xlink="http://www.w3.org/1999/xlink">
    <!-- Generator: Sketch 40.3 (33839) - http://www.bohemiancoding.com/sketch -->
    <title>Artboard Copy</title>
    <desc>Created with Sketch.</desc>
    <defs></defs>
    <g id="Page-1" stroke="none" stroke-width="1" fill="none" fill-rule="evenodd">
        <g id="Artboard-Copy">
            <g id="stars" transform="translate(0.000000, 5.275591)">
                <g id="Page-1">
                    <g id="Artboard">
                        <g id="stars">
                            <g id="#0b714cff" fill="#0B714C">
                                <path d="M32.1669291,0.0141732283 C32.2669291,0.632283465 32.2992126,1.25984252 32.3716535,1.88267717 C32.8393701,6.47874016 33.2897638,11.0771654 33.7685039,15.6724409 C36.088189,15.8952756 38.4456693,16.7409449 40.0748031,18.4661417 C46.0330709,18.4614173 51.992126,18.4669291 57.9511811,18.4629921 C58.6330709,18.4220472 59.3165354,18.4417323 60,18.4456693 L60,18.4677165 C53.6850394,21.8417323 47.3755906,25.2299213 41.0622047,28.6062992 C39.8519685,31.1661417 38.0503937,33.4755906 35.7188976,35.1023622 C36.1661417,39.5031496 36.6047244,43.903937 37.0503937,48.303937 C32.9047244,44.9811024 28.7755906,41.6370079 24.6338583,38.3086614 C24.0212598,38.3653543 23.3984252,38.3165354 22.7913386,38.3952756 C15.9929134,42.0244094 9.20708661,45.680315 2.40551181,49.303937 C4.5984252,45.6543307 6.81102362,42.015748 9.00393701,38.3661417 C7.37007874,38.3645669 5.73543307,38.3692913 4.1015748,38.3637795 C6.32834646,34.6251969 8.56220472,30.8913386 10.7952756,27.1559055 C7.1984252,24.2598425 3.60314961,21.3606299 0.0062992126,18.4645669 C5.33228346,18.4637795 10.6590551,18.4653543 15.9858268,18.4637795 C16.5614173,17.5070866 17.1314961,16.5480315 17.7031496,15.5897638 C19.3905512,15.592126 21.0779528,15.5897638 22.7653543,15.5905512 C25.896063,10.3968504 29.0393701,5.21023622 32.1669291,0.0141732283 L32.1669291,0.0141732283 L32.1669291,0.0141732283 Z M31.3062992,3.43779528 C28.6685039,7.82913386 26.0007874,12.2023622 23.3708661,16.5984252 C21.676378,16.6440945 19.9779528,16.5866142 18.2826772,16.6267717 C17.7622047,17.5181102 17.2228346,18.3984252 16.6992126,19.288189 C16.6409449,19.3740157 16.5905512,19.5165354 16.4574803,19.4874016 C11.9464567,19.4826772 7.43543307,19.4937008 2.92440945,19.4818898 C5.96299213,21.9456693 9.01496063,24.3929134 12.0598425,26.8488189 C12.1811024,26.9220472 12.0480315,27.0448819 12.0149606,27.1299213 C9.97874016,30.5212598 7.96062992,33.9244094 5.92204724,37.3141732 C7.55669291,37.3377953 9.19212598,37.3110236 10.8267717,37.3267717 C10.6818898,37.6291339 10.4818898,37.9 10.3181102,38.1913386 C8.77874016,40.7472441 7.23149606,43.2984252 5.69291339,45.8543307 C5.5480315,46.1015748 5.37637795,46.3338583 5.26929134,46.6015748 C11.0496063,43.5220472 16.811811,40.4070866 22.5952756,37.3354331 C23.3283465,37.315748 24.0645669,37.315748 24.7984252,37.2677165 C25.0181102,37.2173228 25.1598425,37.4133858 25.315748,37.5283465 C27.7543307,39.4976378 30.1984252,41.4606299 32.6362205,43.4299213 C33.6826772,44.2535433 34.6984252,45.1181102 35.7582677,45.923622 C35.7551181,45.8606299 35.7496063,45.7354331 35.7464567,45.6724409 C35.3740157,41.9732283 34.996063,38.2748031 34.6330709,34.5755906 C37.1259843,33.0102362 39.019685,30.6086614 40.2259843,27.9448819 C40.2984252,27.8015748 40.4740157,27.7622047 40.6015748,27.6818898 C45.6496063,24.980315 50.696063,22.2755906 55.7433071,19.5732283 C55.7637795,19.5511811 55.8055118,19.5070866 55.8259843,19.4850394 C50.419685,19.4850394 45.0141732,19.4929134 39.6086614,19.4811024 C38.9708661,18.7511811 38.1984252,18.1377953 37.3275591,17.707874 C35.9370079,16.996063 34.3716535,16.719685 32.8251969,16.6267717 C32.3606299,12.1606299 31.9251969,7.69133858 31.4677165,3.22440945 C31.4094488,3.29212598 31.3519685,3.36141732 31.3062992,3.43779528 L31.3062992,3.43779528 L31.3062992,3.43779528 Z" id="path3091"></path>
                            </g>
                            <g id="#231f1fff" transform="translate(2.913386, 3.149606)" fill="#231F1F">
                                <path d="M28.3929134,0.288188976 C28.4385827,0.211811024 28.496063,0.142519685 28.5543307,0.0748031496 C29.011811,4.54173228 29.4472441,9.01102362 29.911811,13.4771654 C31.4582677,13.5700787 33.023622,13.8464567 34.4141732,14.5582677 C35.2850394,14.988189 36.0574803,15.6015748 36.6952756,16.3314961 C42.1007874,16.3433071 47.5062992,16.3354331 52.9125984,16.3354331 C52.892126,16.3574803 52.8503937,16.4015748 52.8299213,16.423622 C47.7826772,19.1259843 42.7362205,21.8307087 37.688189,24.5322835 C37.5606299,24.6125984 37.3850394,24.6519685 37.3125984,24.7952756 C36.1062992,27.4590551 34.2125984,29.8606299 31.719685,31.4259843 C32.0826772,35.1251969 32.4606299,38.823622 32.8330709,42.5228346 C32.8362205,42.5858268 32.8417323,42.7110236 32.8448819,42.7740157 C31.7850394,41.9685039 30.7692913,41.103937 29.7228346,40.280315 C27.2850394,38.3110236 24.8409449,36.3480315 22.4023622,34.3787402 C22.2464567,34.2637795 22.1047244,34.0677165 21.8850394,34.1181102 C21.1511811,34.1661417 20.4149606,34.1661417 19.6818898,34.1858268 C13.8984252,37.2574803 8.13622047,40.3724409 2.35590551,43.4519685 C2.46299213,43.184252 2.63464567,42.9519685 2.77952756,42.7047244 C4.31811024,40.1488189 5.86535433,37.5976378 7.40472441,35.0417323 C7.56850394,34.7503937 7.76850394,34.4795276 7.91338583,34.1771654 C6.27874016,34.1614173 4.64330709,34.188189 3.00866142,34.1645669 C5.04724409,30.7748031 7.06535433,27.3716535 9.1015748,23.980315 C9.13464567,23.8952756 9.26771654,23.7724409 9.14645669,23.6992126 C6.1015748,21.2433071 3.0496063,18.796063 0.011023622,16.3322835 C4.52204724,16.3440945 9.03307087,16.3330709 13.5440945,16.3377953 C13.6771654,16.3669291 13.7275591,16.2244094 13.7858268,16.1385827 C14.3094488,15.2488189 14.8488189,14.3685039 15.3692913,13.4771654 C17.0645669,13.4370079 18.7629921,13.4944882 20.4574803,13.4488189 C23.0874016,9.05275591 25.7551181,4.67952756 28.3929134,0.288188976 L28.3929134,0.288188976 L28.3929134,0.288188976 Z M26.580315,7.29291339 C24.9188976,10.0393701 23.2661417,12.7905512 21.5992126,15.5338583 C19.9173228,15.5299213 18.2354331,15.5307087 16.5535433,15.5330709 C15.9826772,16.4897638 15.407874,17.4440945 14.8401575,18.403937 C11.911811,18.4149606 8.98267717,18.3905512 6.05433071,18.415748 C6.01889764,18.4070866 5.9480315,18.3905512 5.91259843,18.3826772 C5.99055118,18.5480315 6.16692913,18.6314961 6.2976378,18.7503937 C8.17480315,20.2645669 10.0574803,21.7724409 11.9299213,23.2929134 C10.776378,25.176378 9.66141732,27.0850394 8.52047244,28.9779528 C7.91338583,30.0141732 7.27086614,31.0307087 6.68661417,32.0787402 L6.64330709,32.1023622 C9.28425197,32.1110236 11.9251969,32.103937 14.5661417,32.1062992 C14.7448819,32.1141732 14.9354331,32.0700787 15.1031496,32.1519685 C14.7787402,32.2228346 14.4645669,32.3322835 14.1393701,32.3976378 L14.1244094,32.415748 C13.0417323,32.6944882 11.9653543,32.9992126 10.8834646,33.2826772 C10.3944882,34.092126 9.90472441,34.9007874 9.41811024,35.711811 C8.95748031,36.4929134 8.45275591,37.2511811 8.02755906,38.0519685 C8.11338583,38.0015748 8.1984252,37.9488189 8.29055118,37.911811 C8.51653543,37.8283465 8.71968504,37.6976378 8.93307087,37.5889764 C11.7181102,36.0944882 14.5055118,34.6055118 17.2905512,33.1110236 C17.9314961,32.7858268 18.5496063,32.4047244 19.2031496,32.1102362 C20.3818898,32.1125984 21.5629921,32.096063 22.7385827,31.9897638 C25.1929134,33.9826772 27.6590551,35.9606299 30.1212598,37.9433071 L30.1173228,37.9692913 C30.1795276,38.0125984 30.2448819,38.0559055 30.307874,38.1 C30.0826772,35.9692913 29.8834646,33.8346457 29.6338583,31.7070866 C28.7574803,31.8188976 27.8724409,31.8133858 26.9905512,31.8141732 C26.280315,31.8086614 25.5700787,31.7740157 24.8614173,31.7299213 C26.7850394,31.4 28.6944882,30.8362205 30.3771654,29.8267717 C31.8456693,28.9606299 33.0952756,27.7464567 34.0614173,26.3456693 C34.9637795,25.0330709 35.7307087,23.5897638 36.0464567,22.015748 C36.2267717,21.1826772 36.1984252,20.3259843 36.0598425,19.4897638 C36.2897638,19.7787402 36.4897638,20.0905512 36.6677165,20.4141732 C36.9952756,21.0464567 37.1850394,21.7417323 37.2724409,22.4472441 C39.6535433,21.1653543 42.0299213,19.8740157 44.4094488,18.5897638 C44.4401575,18.5614173 44.5015748,18.5055118 44.5322835,18.4771654 C44.5614173,18.4740157 44.619685,18.4661417 44.6488189,18.4629921 C44.6362205,18.4488189 44.611811,18.4220472 44.6,18.4086614 C41.6070866,18.4047244 38.6133858,18.4007874 35.619685,18.4102362 L35.611811,18.3937008 C35.0212598,17.3188976 33.980315,16.5543307 32.8464567,16.1299213 C31.3188976,15.5393701 29.6551181,15.5047244 28.0393701,15.5393701 C27.7251969,12.5897638 27.4669291,9.63228346 27.1275591,6.68582677 C27.1204724,6.60866142 27.1133858,6.53070866 27.1070866,6.45354331 C26.907874,6.71811024 26.7606299,7.01574803 26.580315,7.29291339 L26.580315,7.29291339 L26.580315,7.29291339 Z" id="path3094"></path>
                                <path d="M18.1062992,20.0102362 C20.7322835,19.9866142 23.3590551,20.0070866 25.9858268,20 C26.8653543,20.0377953 27.796063,20.1 28.5700787,20.5622047 C28.9732283,20.7944882 29.2464567,21.2094488 29.3433071,21.6606299 C29.4905512,22.4362205 29.2346457,23.2259843 28.8708661,23.9055118 C28.0377953,25.3992126 26.588189,26.5401575 24.9385827,26.9937008 C24.0251969,27.2503937 23.0732283,27.3314961 22.1275591,27.3606299 C20.2086614,27.3685039 18.2897638,27.3519685 16.3716535,27.3692913 C16.4377953,27.1952756 16.5480315,27.0440945 16.6456693,26.8874016 C17.7409449,25.0858268 18.8519685,23.2937008 19.9440945,21.4905512 C19.3354331,20.9913386 18.7204724,20.5015748 18.1062992,20.0102362 L18.1062992,20.0102362 L18.1062992,20.0102362 Z" id="path3096"></path>
                            </g>
                            <g id="#a7aaacff" transform="translate(8.818898, 9.763780)" fill="#A7AAAC">
                                <path d="M21.1220472,0.138582677 C21.1472441,0.122047244 21.1968504,0.088976378 21.2220472,0.0716535433 C21.5614173,3.01811024 21.819685,5.97559055 22.1338583,8.92519685 C21.1070866,8.95354331 20.0787402,8.92677165 19.0519685,8.93937008 C19.0952756,8.6015748 19.1968504,8.27480315 19.2692913,7.94251969 C19.888189,5.34173228 20.4976378,2.73700787 21.1220472,0.138582677 L21.1220472,0.138582677 L21.1220472,0.138582677 Z" id="path3099"></path>
                                <path d="M12.3346457,11.7826772 C12.4637795,11.5622047 12.588189,11.3377953 12.7417323,11.1338583 C15.7905512,11.1511811 18.8385827,11.1362205 21.8874016,11.1409449 C23.0259843,11.1606299 24.211811,11.2944882 25.2165354,11.8724409 C25.7984252,12.2015748 26.2559055,12.7220472 26.5425197,13.323622 C27.6007874,12.8149606 28.6551181,12.3 29.7062992,11.7795276 L29.7141732,11.796063 C29.8866142,12.1448819 30.003937,12.5165354 30.1543307,12.8755906 C30.2929134,13.711811 30.3212598,14.5685039 30.1409449,15.4015748 C29.8251969,16.9755906 29.0582677,18.4188976 28.1559055,19.7314961 C27.1897638,21.1322835 25.9401575,22.3464567 24.4716535,23.2125984 C22.7889764,24.2220472 20.8795276,24.7858268 18.9559055,25.115748 C18.2488189,25.2086614 17.5401575,25.288189 16.8330709,25.3755906 C15.6574803,25.4818898 14.476378,25.4984252 13.2976378,25.496063 C12.6440945,25.7905512 12.0259843,26.1716535 11.3850394,26.4968504 C8.6,27.9913386 5.81259843,29.480315 3.02755906,30.9748031 C2.81417323,31.0834646 2.61102362,31.2141732 2.38503937,31.2976378 C2.35984252,31.2031496 2.42125984,31.1338583 2.48897638,31.0787402 C4.20708661,29.5133858 5.91968504,27.9425197 7.63543307,26.3740157 C7.83543307,26.1889764 8.0511811,26.0181102 8.21889764,25.8015748 L8.23385827,25.7834646 C8.55905512,25.7181102 8.87322835,25.6086614 9.1976378,25.5377953 C9.02992126,25.4559055 8.83937008,25.5 8.66062992,25.492126 C6.01968504,25.4897638 3.37874016,25.4968504 0.737795276,25.488189 L0.781102362,25.4645669 C2.37322835,24.6811024 3.97480315,23.9102362 5.55984252,23.1141732 C6.36141732,21.8346457 7.11023622,20.5204724 7.89370079,19.2291339 C9.37322835,16.7464567 10.8551181,14.2653543 12.3346457,11.7826772 L12.3346457,11.7826772 L12.3346457,11.7826772 Z M12.2007874,13.396063 C12.8149606,13.8874016 13.4299213,14.3771654 14.0385827,14.876378 C12.9464567,16.6795276 11.8354331,18.4716535 10.7401575,20.2732283 C10.6425197,20.4299213 10.5322835,20.5811024 10.4661417,20.7551181 C8.87086614,21.5472441 7.25748031,22.303937 5.67165354,23.111811 C8.84409449,23.1070866 12.0165354,23.1110236 15.1889764,23.1094488 C17.2472441,23.1377953 19.3393701,22.8464567 21.2401575,22.0283465 C23.4858268,21.0795276 25.3795276,19.2582677 26.2732283,16.9748031 C26.7228346,15.8433071 26.9417323,14.5472441 26.5244094,13.3724409 C25.4866142,13.8661417 24.4590551,14.3818898 23.4220472,14.8787402 C23.4259843,14.9204724 23.4338583,15.0047244 23.4377953,15.0464567 C23.3409449,14.5952756 23.0677165,14.180315 22.6645669,13.9480315 C21.8905512,13.4858268 20.9598425,13.423622 20.080315,13.3858268 C17.4535433,13.3929134 14.8267717,13.3724409 12.2007874,13.396063 L12.2007874,13.396063 L12.2007874,13.396063 Z" id="path3101"></path>
                                <path d="M0.00708661417,11.7685039 C0.042519685,11.776378 0.113385827,11.7929134 0.148818898,11.8015748 C0.21023622,11.8291339 0.333858268,11.8834646 0.396062992,11.9102362 C2.78110236,12.6614173 5.17322835,13.3897638 7.55590551,14.1480315 C7.04094488,14.9889764 6.56141732,15.8519685 6.02440945,16.6787402 C4.1519685,15.1582677 2.26929134,13.6503937 0.392125984,12.1362205 C0.261417323,12.0173228 0.0850393701,11.9338583 0.00708661417,11.7685039 L0.00708661417,11.7685039 L0.00708661417,11.7685039 Z" id="path3103"></path>
                                <path d="M37.5889764,12.0889764 C37.9338583,12.0102362 38.2716535,11.8929134 38.6267717,11.8629921 C38.596063,11.8913386 38.5346457,11.9472441 38.503937,11.9755906 C36.1244094,13.2598425 33.7480315,14.5511811 31.3669291,15.8330709 C31.2795276,15.1275591 31.0897638,14.4322835 30.7622047,13.8 C33.0354331,13.2212598 35.3133858,12.6606299 37.5889764,12.0889764 L37.5889764,12.0889764 L37.5889764,12.0889764 Z" id="path3105"></path>
                                <path d="M21.0850394,25.2 C21.9669291,25.1992126 22.8519685,25.2047244 23.7283465,25.0929134 C23.9779528,27.2204724 24.1771654,29.3551181 24.4023622,31.4858268 C24.3393701,31.4417323 24.2740157,31.3984252 24.211811,31.3551181 L24.215748,31.3291339 C24.2417323,31.2464567 24.2322835,31.1692913 24.1889764,31.0968504 C23.1535433,29.1314961 22.1015748,27.1748031 21.0850394,25.2 L21.0850394,25.2 L21.0850394,25.2 Z" id="path3107"></path>
                            </g>
                            <path d="M9.74423559,35.0227169 C9.7849285,34.9559811 10.0443332,34.5149644 10.3206904,34.0426803 C10.7840586,33.2508 14.3282734,27.3418627 15.773251,24.9521361 C16.114543,24.3877033 16.3818129,23.914749 16.3671843,23.9011276 C16.3525562,23.8875055 14.7445279,23.3788372 12.7937883,22.7707521 C10.8430488,22.1626677 9.21338772,21.6497216 9.17231937,21.6308724 C9.1255011,21.6093846 9.76608189,21.5936712 10.8897172,21.5887458 C11.8753537,21.5844246 13.8308762,21.5706872 15.2353216,21.558218 L17.7888592,21.5355458 L18.6319351,20.12616 L19.475011,18.7167735 L21.996589,18.7167735 L24.5181663,18.7167735 L27.0722702,14.4886161 C30.0452699,9.5670022 29.9997197,9.64048441 30.0181562,9.7362148 C30.0257071,9.77542488 30.0076447,9.82541669 29.978017,9.84730772 C29.9231805,9.88782551 27.860177,18.473634 27.8586898,18.667525 C27.8584378,18.7008787 28.5241997,18.7154482 30.59312,18.7273669 C33.4972479,18.7440976 33.5536202,18.7471849 34.5093468,18.9418419 C36.2312624,19.2925524 37.6189002,20.1561172 38.3748031,21.3474217 C38.4401039,21.450337 38.4905058,21.5370022 38.4868069,21.5400113 C38.4702904,21.5534469 35.3899364,23.0476025 35.3787534,23.0476025 C35.3718539,23.0476025 35.3066091,22.9459106 35.2337644,22.8216208 C34.550228,21.655343 33.3068409,21.046771 31.3484088,20.9199446 C31.0377865,20.8998287 28.7357789,20.8833846 26.1707483,20.8829575 L21.5523691,20.882189 L21.4436762,21.0408611 C21.3838954,21.128131 19.9571735,23.5096202 18.2731836,26.3330589 C16.5891943,29.1564983 15.0202381,31.780846 14.7866154,32.1649436 L14.3618469,32.8633027 L12.6071143,33.7303049 C10.7185272,34.6634431 9.7276422,35.1440554 9.69236157,35.1440554 C9.68019906,35.1440554 9.70354268,35.0894532 9.74423559,35.0227175 L9.74423559,35.0227169 L9.74423559,35.0227169 Z" id="path3000" stroke-opacity="0" stroke="#000000" stroke-width="0.5" fill-opacity="0" fill="#FFFFFF"></path>
                            <path d="M39.4860598,23.3556139 C39.4296901,23.2580769 39.2956775,23.052269 39.1882551,22.8982633 C39.026994,22.6670721 38.8395307,22.2721279 38.6078841,21.6755509 L38.5752668,21.5915477 L43.0078419,21.5971414 C45.4457581,21.6002154 47.3900145,21.6097506 47.3284126,21.6183257 C47.2668101,21.6269002 45.5075987,22.0611987 43.4190539,22.5834343 C41.3305096,23.1056699 39.6142419,23.5329531 39.6051257,23.5329531 C39.5960101,23.5329531 39.5424302,23.4531502 39.4860598,23.3556132 L39.4860598,23.3556139 L39.4860598,23.3556139 Z" id="path3002" stroke-opacity="0" stroke="#000000" stroke-width="0.5" fill-opacity="0" fill="#FFFFFF"></path>
                            <path d="M15.3698847,32.4681077 C15.8011005,32.2498488 16.8577569,31.7279112 17.7180101,31.3082463 L19.2821058,30.5452195 L22.3661833,30.5287383 C25.9281631,30.509702 26.4711635,30.480022 27.4850041,30.248948 C29.698686,29.744405 31.5116139,28.1697329 32.1767465,26.1737953 C32.2707666,25.891658 32.2795231,25.8160706 32.2832202,25.2547389 L32.2872517,24.643103 L33.8083402,23.9036819 C34.7574236,23.44232 35.3349335,23.1809354 35.344068,23.2086022 C35.5978085,23.9771937 35.604097,24.866783 35.362548,25.8232082 C34.7826715,28.1192655 33.0454671,30.2371389 30.7660737,31.4268957 C29.4277285,32.1254608 27.8851647,32.5634085 26.0045323,32.7787402 C25.5125776,32.8350683 24.8395452,32.8434816 20.0180605,32.8535729 L14.5858576,32.8649424 L15.3698872,32.4681077 L15.3698872,32.4681077 L15.3698847,32.4681077 L15.3698847,32.4681077 Z" id="path3004" stroke-opacity="0" stroke="#000000" stroke-width="0.5" fill-opacity="0" fill="#FFFFFF"></path>
                            <path d="M29.356955,38.0979723 C27.3577487,36.4850948 25.7387294,35.1599024 25.7591357,35.1531005 C25.779542,35.1462986 26.2476126,35.0861594 26.7992932,35.0194583 C27.6517153,34.9163962 27.8668271,34.9021581 28.2316989,34.9246507 C28.4678406,34.9392076 28.8645109,34.9525266 29.1131874,34.9542494 C29.3618646,34.9559691 29.6407213,34.9677146 29.7328693,34.9803452 L29.9004113,35.0033096 L30.5082753,36.1657228 C30.8426003,36.8050501 31.543782,38.1378835 32.0664567,39.1275748 C32.589132,40.1172661 33.0111729,40.9502929 33.0043257,40.9787452 C32.9967351,41.0102872 31.5732674,39.8860019 29.356955,38.0979723 L29.356955,38.0979723 L29.356955,38.0979723 L29.356955,38.0979723 Z" id="path3006" stroke-opacity="0" stroke="#000000" stroke-width="0.5" fill-opacity="0" fill="#FFFFFF"></path>
                            <path d="M11.1544151,40.8656019 C11.2316643,40.7269965 11.7171811,39.916366 12.2333411,39.0642009 C12.7495017,38.2120359 13.3120529,37.2796013 13.4834551,36.9921235 C13.654858,36.7046463 13.798005,36.4652428 13.8015603,36.4601153 C13.8180907,36.4362778 16.8948006,35.6274702 16.9274942,35.6383679 C16.9479452,35.6451849 16.8914608,35.7162702 16.8019717,35.7963351 C15.3277543,37.115302 11.2027729,40.9233323 11.1843981,40.9822721 C11.159612,41.0617739 11.1036258,41.1159691 11.0451767,41.1170394 C11.0280088,41.1173543 11.077166,41.0042072 11.1544151,40.8656019 L11.1544151,40.8656019 L11.1544151,40.8656019 L11.1544151,40.8656019 Z" id="path3008" stroke-opacity="0" stroke="#000000" stroke-width="0.5" fill-opacity="0" fill="#FFFFFF"></path>
                            <path d="M31.7093846,40.0103257 C30.9906545,39.429823 29.3482665,38.1036466 28.059634,37.0632661 C26.7710016,36.0228863 25.7166759,35.1654142 25.7166872,35.1577732 C25.7166986,35.1501317 26.1889222,35.0870734 26.7660731,35.0176435 L27.8154375,34.8914066 L28.3302306,34.9195402 C28.6133669,34.9350135 29.0820655,34.9561808 29.3717833,34.9665783 L29.898543,34.9854822 L30.567971,36.2658646 C30.9361569,36.970075 31.6355068,38.2983118 32.1220825,39.2175011 C32.8671339,40.624977 33.0912718,41.0837669 33.0262211,41.0681921 C33.0206904,41.0668693 32.4281146,40.5908283 31.7093846,40.0103257 L31.7093846,40.0103257 L31.7093846,40.0103257 Z" id="path3005" stroke-opacity="0" stroke="#000000" stroke-width="0.5" fill="#FFFFFF"></path>
                            <path d="M30.0440391,38.646817 C28.4331887,37.3469487 26.8030192,36.0297959 26.42144,35.7198104 L25.7276598,35.1561997 L26.6962079,35.0370557 C27.5541865,34.9315137 27.7916844,34.922332 28.7766035,34.9566287 L29.8884504,34.9953455 L30.2255458,35.6353883 C32.4571628,39.8725569 33.001932,40.9229921 32.9885631,40.9630986 C32.9799257,40.9890117 31.6548894,39.9466847 30.0440391,38.646817 L30.0440391,38.646817 L30.0440391,38.646817 Z" id="path3775" stroke-opacity="0" stroke="#000000" stroke-width="0.527992789" fill="#FFFFFF"></path>
                            <path d="M11.1962369,40.8662154 C11.1962369,40.8437934 11.2589285,40.7164416 11.3355521,40.583212 C11.4728372,40.3445065 13.7862186,36.5022683 13.812046,36.4700643 C13.8462564,36.4274072 16.9002375,35.636502 16.8871206,35.6736957 C16.878892,35.6970293 15.8267339,36.6711924 14.5489915,37.8385033 C13.2712485,39.0058135 11.9941663,40.1737575 11.7110299,40.4339345 C11.4278935,40.6941115 11.1962369,40.8886381 11.1962369,40.8662154 L11.1962369,40.8662154 L11.1962369,40.8662154 Z" id="path3777" stroke-opacity="0" stroke="#000000" stroke-width="0.527992789" fill="#FFFFFF"></path>
                            <path d="M9.71785701,35.1066079 C9.71785701,35.0588063 11.1996447,32.5676447 13.4665631,28.8043332 C16.3814791,23.9652813 16.392235,23.9468983 16.338235,23.8963043 C16.312458,23.8721524 14.7113493,23.3600554 12.7802154,22.7583112 C10.8490816,22.1565663 9.23342362,21.6439376 9.18986457,21.6191364 C9.14558425,21.593925 11.0228844,21.5733354 13.4477159,21.5724378 L17.7847654,21.5708315 L18.6242998,20.1584504 L19.4638337,18.7460699 L21.9965222,18.7323704 L24.5292107,18.7186715 L27.1944491,14.308788 C28.6603301,11.8833524 29.8667962,9.92023118 29.8754847,9.94629543 C29.8841726,9.97236031 29.4491761,11.8560535 28.9088246,14.1322809 C28.3684731,16.4085083 27.9073046,18.3718551 27.8840057,18.4952731 L27.8416435,18.7196699 L30.223995,18.7205014 C32.758138,18.7213896 33.5512328,18.7612472 34.4101802,18.9308762 C34.9880989,19.0450072 35.8688643,19.3328441 36.2995124,19.5483162 C37.063532,19.930589 37.945605,20.6789027 38.3069928,21.251377 C38.4576718,21.4900687 38.4693279,21.5477965 38.3746665,21.5865436 C38.3383672,21.6014022 37.6512466,21.934417 36.8477317,22.3265764 L35.386795,23.0395943 L35.1711187,22.7060983 C34.5841335,21.7984548 33.6737972,21.2699137 32.2397902,21.0041682 C31.8177178,20.9259509 31.1601115,20.9134961 26.6400265,20.898109 C21.7697228,20.8815288 21.5156466,20.8852989 21.4604044,20.9749537 C21.4284542,21.0268094 19.9636491,23.4808422 18.2052819,26.4283622 C13.919343,33.612805 14.4318658,32.8077455 14.0066268,33.0235225 C12.9167301,33.576565 9.71785701,35.1302772 9.71785701,35.1066041 L9.71785701,35.1066079 L9.71785701,35.1066079 Z" id="path3779" stroke-opacity="0" stroke="#000000" stroke-width="0.527992789" fill="#FFFFFF"></path>
                            <path d="M9.71785701,35.1075641 C9.71785701,35.0599238 10.4100731,33.895818 13.428497,28.8673506 C15.0784126,26.1187143 16.3648661,23.9221134 16.3385449,23.8984838 C16.3125972,23.8751906 14.7113493,23.3628309 12.7802154,22.7599055 C10.8490816,22.1569808 9.23342362,21.6435106 9.18986457,21.6188611 C9.14595717,21.5940145 11.0432,21.5733279 13.4474809,21.5724378 L17.7842961,21.5708315 L18.6233216,20.1584504 L19.4623471,18.7460699 L21.9952013,18.7323112 L24.5280554,18.7185531 L27.1939124,14.3088529 C28.6601342,11.8835175 29.8667887,9.92020913 29.8753676,9.9459452 C29.8839465,9.97168063 29.4620283,11.8020794 28.937772,14.0134973 C28.4135162,16.2249153 27.9522526,18.188475 27.912742,18.3769638 L27.8409052,18.7196699 L30.2236252,18.7205014 C33.4552157,18.7216353 34.2642658,18.7992718 35.4897833,19.2258463 C36.502034,19.5781877 37.2170614,20.0247483 37.8423672,20.6951213 C38.2297499,21.1104239 38.4904655,21.4858274 38.4320661,21.5442268 C38.3946501,21.5816428 35.4849827,22.9973959 35.4172309,23.0111515 C35.3856561,23.0175616 35.3003137,22.9158885 35.2275811,22.7852101 C35.0177631,22.4082324 34.3496416,21.7788265 33.9263276,21.55936 C33.4422954,21.3084151 32.8731005,21.120298 32.2587402,21.0082268 C31.8164416,20.9275433 31.1988523,20.9153657 26.6641909,20.8979106 C21.7991332,20.8791836 21.563045,20.88264 21.4838828,20.9737613 C21.4382646,21.0262728 19.9633789,23.4808422 18.2063591,26.4283622 C16.4493392,29.3758816 14.8654217,32.025086 14.686543,32.3154816 L14.3613077,32.8434746 L13.9007572,33.0763276 C12.7027017,33.6820586 9.71785701,35.1315112 9.71785701,35.1075603 L9.71785701,35.1075641 L9.71785701,35.1075641 Z" id="path3781" stroke-opacity="0" stroke="#000000" stroke-width="0.527992789" fill="#FFFFFF"></path>
                            <path d="M39.303205,23.0628107 C39.0576094,22.6993304 38.5990633,21.7446891 38.5990633,21.5968674 C38.5990633,21.582548 40.6008164,21.5730646 43.0474028,21.5757934 C46.876589,21.5800643 47.4479735,21.5904435 47.1525468,21.6503666 C46.863275,21.7090406 39.9551219,23.4252315 39.7019162,23.5013247 C39.6411893,23.5195742 39.5268901,23.3938646 39.303205,23.0628107 L39.303205,23.0628107 L39.303205,23.0628107 L39.303205,23.0628107 Z" id="path3783" stroke-opacity="0" stroke="#000000" stroke-width="0.527992789" fill="#FFFFFF"></path>
                            <path d="M16.9249587,31.7074954 L19.2481272,30.554434 L22.1840195,30.5505726 C25.828509,30.5457789 26.7523868,30.4802803 27.9336088,30.1429594 C30.3539515,29.4517846 32.4066318,27.0982677 32.3039288,25.1321361 L32.2789688,24.6542942 L33.7828951,23.9274488 C34.6100554,23.5276844 35.3055609,23.22 35.3284636,23.2437065 C35.3513669,23.2674129 35.4075906,23.4699452 35.4534054,23.6937776 C35.8918753,25.8359584 34.440497,28.7964876 32.0783528,30.5782255 C30.6584195,31.6492649 28.8353694,32.360822 26.6880019,32.6821411 C25.6754413,32.8336542 24.3004479,32.8683326 19.4593241,32.8644517 L14.6017909,32.8605524 L16.9249587,31.7074917 L16.9249587,31.707491 L16.9249587,31.7074954 L16.9249587,31.7074954 Z" id="path3785" stroke-opacity="0" stroke="#000000" stroke-width="0.527992789" fill="#FFFFFF"></path>
                            <path d="M30.30808,38.8592876 C28.8424031,37.6764252 27.2119175,36.3616825 26.6847792,35.9376378 C26.1576409,35.5135924 25.7299666,35.1627987 25.7343924,35.1580951 C25.7388145,35.1533896 26.1701128,35.0975061 26.6928258,35.0339049 C27.5254312,34.9325978 27.7822935,34.9229317 28.7654639,34.9559112 L29.8877146,34.9935565 L30.1723994,35.5288957 C31.467605,37.9644838 33.0015572,40.9241153 32.9886954,40.9627017 C32.980034,40.988686 31.7737569,40.0421499 30.30808,38.8592876 L30.30808,38.8592876 L30.30808,38.8592876 Z" id="path3787" stroke-opacity="0" stroke="#000000" stroke-width="0.527992789" fill="#FFFFFF"></path>
                            <path d="M11.1962369,40.8661216 C11.1962369,40.8437506 11.2590337,40.7164416 11.3357858,40.583212 C11.4858488,40.322725 13.7880265,36.497622 13.811326,36.4700643 C13.8481304,36.4265329 16.9001493,35.6368164 16.8871206,35.6741959 C16.8747729,35.7096227 15.3418142,37.1199465 11.6582306,40.4847792 C11.4041342,40.7168882 11.1962369,40.888492 11.1962369,40.8661216 L11.1962369,40.8661216 L11.1962369,40.8661216 Z" id="path3789" stroke-opacity="0" stroke="#000000" stroke-width="0.527992789" fill="#FFFFFF"></path>
                        </g>
                    </g>
                </g>
            </g>
        </g>
    </g>
</svg>