<?xml version="1.0" encoding="UTF-8" standalone="no"?>
<svg width="60px" height="60px" viewBox="0 0 60 60" version="1.1" xmlns="http://www.w3.org/2000/svg" xmlns:xlink="http://www.w3.org/1999/xlink">
    <!-- Generator: Sketch 40.3 (33839) - http://www.bohemiancoding.com/sketch -->
    <title>Artboard</title>
    <desc>Created with Sketch.</desc>
    <defs>
        <polygon id="path-1" points="0 38.7856712 59.4713625 38.7856712 59.4713625 0 0 0"></polygon>
    </defs>
    <g id="Page-1" stroke="none" stroke-width="1" fill="none" fill-rule="evenodd">
        <g id="Artboard">
            <g id="wild" transform="translate(0.000000, 10.434783)">
                <g id="g2412" transform="translate(29.934815, 19.731196) scale(1, -1) translate(-29.934815, -19.731196) translate(0.097859, 0.165978)">
                    <g id="g2414" transform="translate(0.036051, 0.207899)">
                        <g id="g2416-Clipped">
                            <mask id="mask-2" fill="white">
                                <use xlink:href="#path-1"></use>
                            </mask>
                            <g id="path2420"></g>
                            <g id="g2416" mask="url(#mask-2)">
                                <g transform="translate(0.000000, 0.258571)">
                                    <g id="g2422" transform="translate(0.227775, 0.197703)">
                                        <path d="M33.6142484,0 L49.636092,15.7459482 L46.2402772,15.7570668 L58.8557046,29.1996633 C58.8557046,29.1996633 55.9196293,30.0754437 54.9626575,30.2378264 L56.9792538,31.8386403 C53.6266204,32.7038194 46.6837267,33.8066253 39.3162592,33.3199944 C39.3162592,33.3199944 37.7423366,37.8731736 31.6728962,37.8731736 C24.7406039,37.8731736 23.0805772,32.5308353 23.0805772,32.5308353 C23.0805772,32.5308353 14.7587236,30.8002186 7.14509635,25.8633198 L8.78883309,24.6195926 C8.78883309,24.6195926 5.3606969,22.8623432 0.160055536,18.7404606 C0.723740625,16.4086661 2.99218525,13.3942437 3.22205499,13.1235197 C4.11826257,12.5114818 7.2099977,10.8685208 9.59738505,10.0493674 C10.0354046,10.1548644 10.8951536,10.5160883 10.8951536,10.5160883 C11.1707904,10.4036099 12.463129,10.055056 12.8202158,10.0090303 C12.5660403,8.47596201 13.6975476,7.61026583 13.6975476,7.61026583 L12.9145942,7.18077917 C12.9145942,7.18077917 13.9799073,4.77994612 19.1981315,3.54164892 C31.0021627,6.16433601 33.6142484,0 33.6142484,0" id="path2424" fill="#EEE3C6"></path>
                                    </g>
                                    <g id="g2426" transform="translate(1.597763, 1.732478)">
                                        <path d="M0,16.8071242 C0.551532244,15.336113 1.5679754,13.6815162 2.54149575,12.3514263 C2.84143827,12.0835466 5.87240919,10.5018669 8.25695226,9.59893648 C8.51112769,9.63436073 9.29795967,9.99093033 9.43577809,10.0801374 C9.57359651,10.0801374 11.3230888,9.30157967 13.5832592,9.30157967 C14.3835369,9.30157967 14.9999705,9.382771 14.9999705,9.55058368 C14.9999705,9.68788495 14.6666723,9.86061047 14.5133396,9.92861468 C14.0523072,10.1336616 13.4425965,10.3084557 13.4425965,10.8062051 C13.4425965,11.303696 14.3512155,11.9658967 18.4715466,11.9658967 C21.0670837,11.9658967 22.7757218,11.821614 22.7757218,11.821614 L22.7757218,11.5294286 C21.4474419,11.5294286 20.0708091,11.3334317 19.1515887,11.1074405 C18.5677351,10.9639335 17.654979,10.6952781 17.654979,10.4046442 C17.654979,9.87069475 20.0289206,9.86681618 20.0289206,8.80408879 C20.0289206,7.94097832 19.1464173,6.99796937 15.8705795,6.99796937 C14.0996258,6.99796937 12.6720545,7.5738073 12.5505261,7.5738073 C12.428739,7.5738073 12.4044334,7.5334702 12.4044334,7.49287453 C12.4044334,7.43288603 12.5052761,7.23197625 12.6883445,6.98400653 C12.944847,6.63648691 13.3890723,6.1966574 14.17668,5.915332 L13.1183483,5.31492981 C14.3186355,4.08852689 17.2278194,3.24532639 17.8308073,3.07622087 C17.8308073,3.07622087 27.815532,5.68959939 32.4470582,0.0307699658 L45.1245427,13.1946268 L42.1235661,13.2111753 L54.1600527,26.8968287 C54.1600527,26.8968287 51.856701,27.7296863 49.5316293,28.1839958 L51.1158946,29.4171216 C51.1158946,29.4171216 43.1128592,31.0877497 36.607985,30.5605232 C36.607985,30.5605232 35.3914078,35.1380081 29.7080141,35.1380081 C24.2032931,35.1380081 22.4297537,30.076478 22.4297537,30.076478 C22.4297537,30.076478 15.8922995,29.0111649 7.62448724,24.2366488 L9.38716671,22.8848389 C9.38716671,22.8848389 5.58720522,21.115178 0,16.8071242" id="path2428" fill="#015836"></path>
                                    </g>
                                    <g id="g2430" transform="translate(7.682019, 13.693928)">
                                        <path d="M0.258571141,1.29285571 C0.258571141,1.29285571 1.35620564,0.952317513 4.28038667,1.14029873 L7.63431295,3.20188644 L10.2027001,2.3690288 L10.9841021,3.46381901 L10.140643,3.46381901 L11.8518668,6.22975451 L13.3040024,3.46381901 L12.6469731,3.46381901 L13.084734,2.50684721 L14.9180034,2.83911113 L15.6805297,3.81289005 L14.9989362,3.81289005 L16.0210679,5.37802117 L15.2262202,5.37802117 L16.8402213,8.13594096 L18.2434869,5.31337838 L17.6027476,5.31337838 L18.5922993,3.6422331 L17.8217573,3.6422331 L19.3411214,0.898276145 L20.811874,3.0069238 L19.8062909,3.0069238 L21.3419449,5.3319955 L20.3684245,5.3319955 L22.596532,9.20383977 L24.5321956,5.3319955 L23.7321765,5.3319955 L25.0296865,3.0069238 L24.1213261,3.0069238 L25.3973746,0.195221212 L27.5820422,3.72109729 L26.381755,3.72109729 L28.1444344,6.63002263 L27.04137,6.63002263 L29.442203,11.4316887 L31.9187974,6.37041721 L31.0427584,6.37041721 L32.6327123,3.70997874 L31.5402492,3.70997874 L32.7948364,1.11470019 L34.7739399,4.15342824 L33.7137983,4.15342824 L36.0391285,7.51666308 L34.7847999,7.51666308 L38.5157229,12.6430945 L40.5165464,9.09575704 L44.658339,14.2162413 C44.658339,14.2162413 37.4343784,17.2500565 26.7709045,17.2500565 C12.6143931,17.2500565 4.58989633,12.2754064 4.58989633,12.2754064 C4.58989633,12.2754064 13.8798403,15.5168542 24.0833161,15.5168542 C31.5293893,15.5168542 35.9525072,13.8216618 35.9525072,13.8216618 C35.9525072,13.8216618 26.4220921,13.8666532 11.1004591,9.72305063 C13.5876549,9.72305063 15.0801275,9.00370571 15.0801275,9.00370571 C15.0801275,9.00370571 8.86175015,7.89521123 0.155918398,4.16945965 L1.26984287,2.52055149 L0.258571141,1.29285571 L0.258571141,1.29285571 Z" id="path2432" fill="#BF2B37"></path>
                                    </g>
                                    <g id="g2434" transform="translate(27.689970, 23.972131)">
                                        <path d="M0,1.55142685 C0.94921466,0.732273472 2.18596043,0.236851165 3.53802893,0.236851165 C5.53238814,0.236851165 7.27464049,1.31431711 8.21558087,2.91849247 C5.92464056,2.62372137 3.16672077,2.19009757 0,1.55142685" id="path2436" fill="#EFB410"></path>
                                    </g>
                                    <g id="g2438" transform="translate(25.592363, 28.750396)">
                                        <path d="M0.258571141,1.55142685 C0.2311626,1.33060709 0.216941188,1.1056502 0.216941188,0.877590454 C0.216941188,0.622897879 0.234782596,0.372601015 0.268913987,0.127734144 C2.15725903,0.332522488 4.14722254,0.460256632 6.17312743,0.460256632 C7.96942115,0.460256632 9.58911078,0.361482456 11.0138378,0.211769765 C11.0407292,0.430003808 11.0544334,0.652116418 11.0544334,0.877590454 C11.0544334,1.31819568 11.0016849,1.74638949 10.9026522,2.15648332 C10.2370901,2.18053043 9.55627224,2.19345899 8.8604573,2.19345899 C5.67563655,2.19345899 2.80110117,1.9416107 0.258571141,1.55142685" id="path2440" fill="#EFB410"></path>
                                    </g>
                                    <g id="g2442" transform="translate(25.630864, 30.176571)">
                                        <path d="M10.3428457,2.06856913 C9.41974668,3.7389387 7.64077723,4.87018745 5.59703092,4.87018745 C2.83264685,4.87018745 0.551790816,2.79980832 0.220044041,0.125148432 C2.63147851,1.01747744 6.64501976,1.78077945 10.3428457,2.06856913" id="path2444" fill="#EFB410"></path>
                                    </g>
                                    <g id="g2446" transform="translate(12.089726, 22.976968)">
                                        <path d="M19.6514067,4.65428054 C17.3558121,4.58084634 13.1382583,4.37657514 6.30318871,2.67827988 C6.30163728,2.67776274 6.29982729,2.67776274 6.29827586,2.67750417 C6.21786023,3.20757501 6.1464946,3.62206455 6.1464946,3.62206455 C6.1464946,3.62206455 5.86982348,3.16956505 5.52049387,2.53735861 C3.79117007,1.91523644 1.6450296,1.00816888 0.222629753,0.246418298 C1.0958245,0.550239389 2.827734,1.1227159 5.10833147,1.76578232 C4.87251459,1.30759426 4.63824913,0.818636233 4.45673219,0.36691245 L5.64641801,1.43765555 C5.64641801,1.43765555 6.46557139,0.964211786 6.50875277,0.980501768 C6.48858422,1.26493002 6.44591998,1.62796391 6.39679146,1.99332493 C10.0734145,2.98261811 14.7990607,4.08723403 19.6514067,4.65428054" id="path2448" fill="#FFFFFF"></path>
                                    </g>
                                </g>
                            </g>
                        </g>
                    </g>
                </g>
            </g>
        </g>
    </g>
</svg>