<?xml version="1.0" encoding="UTF-8" standalone="no"?>
<svg width="30px" height="30px" viewBox="0 0 30 30" version="1.1" xmlns="http://www.w3.org/2000/svg" xmlns:xlink="http://www.w3.org/1999/xlink">
    <!-- Generator: Sketch 40.3 (33839) - http://www.bohemiancoding.com/sketch -->
    <title>Artboard Copy</title>
    <desc>Created with Sketch.</desc>
    <defs>
        <polygon id="path-1" points="0 18.7672603 28.7764657 18.7672603 28.7764657 0 0 0"></polygon>
    </defs>
    <g id="Page-1" stroke="none" stroke-width="1" fill="none" fill-rule="evenodd">
        <g id="Artboard-Copy">
            <g id="wild" transform="translate(0.000000, 4.838710)">
                <g id="Page-1">
                    <g id="Artboard">
                        <g id="wild" transform="translate(0.000000, 0.210379)">
                            <g id="g2412" transform="translate(14.805416, 9.820845) scale(1, -1) translate(-14.805416, -9.820845) translate(0.047351, 0.143426)">
                                <g id="g2414" transform="translate(0.017444, 0.100596)">
                                    <g id="g2416-Clipped">
                                        <g>
                                            <mask id="mask-2" fill="white">
                                                <use xlink:href="#path-1"></use>
                                            </mask>
                                            <g id="path-1"></g>
                                            <g id="g2416" mask="url(#mask-2)">
                                                <g id="Group" transform="translate(0.000000, 0.125115)">
                                                    <g id="g2422" transform="translate(0.110214, 0.095663)" fill="#EEE3C6">
                                                        <path d="M16.2649589,0 L24.0174639,7.61900719 L22.3743277,7.62438716 L28.4785667,14.1288693 C28.4785667,14.1288693 27.0578851,14.552634 26.5948343,14.6312063 L27.5706067,15.4057937 C25.9483647,15.8244287 22.5889,16.3580445 19.0239964,16.1225779 C19.0239964,16.1225779 18.2624209,18.3257292 15.3255949,18.3257292 C11.97126,18.3257292 11.1680212,15.7407268 11.1680212,15.7407268 C11.1680212,15.7407268 7.14131787,14.9033316 3.45730469,12.5145096 L4.25266117,11.9127061 C4.25266117,11.9127061 2.5938856,11.0624241 0.0774462271,9.06796481 C0.350197077,7.93967715 1.44783157,6.48108566 1.55905887,6.35009018 C1.9927077,6.05394281 3.48870856,5.25896168 4.64389599,4.86259713 C4.85584094,4.91364406 5.27184852,5.08842982 5.27184852,5.08842982 C5.40522116,5.03400479 6.03054629,4.86534968 6.20333023,4.84307918 C6.08034208,4.10127194 6.62784561,3.68238669 6.62784561,3.68238669 L6.24899719,3.47457057 C6.24899719,3.47457057 6.76447127,2.31287715 9.28941847,1.71370109 C15.0010465,2.98274323 16.2649589,0 16.2649589,0" id="path2424"></path>
                                                    </g>
                                                    <g id="g2426" transform="translate(0.773111, 0.838296)" fill="#015836">
                                                        <path d="M0,8.13247945 C0.266870441,7.42069984 0.758697774,6.62008848 1.22975601,5.9764966 C1.37488949,5.84687739 2.84148832,5.0815485 3.99529948,4.64464668 C4.11828759,4.66178745 4.49901274,4.83432113 4.56569908,4.87748584 C4.63238541,4.87748584 5.47891394,4.50076436 6.57254477,4.50076436 C6.95977592,4.50076436 7.25805024,4.54005048 7.25805024,4.62125017 C7.25805024,4.68768627 7.09677692,4.77126313 7.02258368,4.80416839 C6.79950348,4.90338465 6.50448218,4.98796244 6.50448218,5.22880892 C6.50448218,5.46953032 6.94413653,5.78995002 8.93784513,5.78995002 C10.1937502,5.78995002 11.0205105,5.72013581 11.0205105,5.72013581 L11.0205105,5.57875577 C10.3777945,5.57875577 9.71168182,5.48391856 9.26689776,5.37456798 C8.98438795,5.30512911 8.54273177,5.17513456 8.54273177,5.03450526 C8.54273177,4.77614262 9.69141319,4.77426589 9.69141319,4.26004296 C9.69141319,3.84240886 9.26439547,3.38611421 7.67931266,3.38611421 C6.82239958,3.38611421 6.13163927,3.66474547 6.07283521,3.66474547 C6.01390597,3.66474547 6.00214519,3.64522752 6.00214519,3.62558445 C6.00214519,3.59655776 6.05094005,3.49934335 6.13952153,3.379358 C6.26363565,3.21120334 6.47858337,2.99838261 6.85968387,2.86225742 L6.34758789,2.57174023 C6.92837202,1.97831946 8.33604165,1.57031922 8.62780998,1.48849397 C8.62780998,1.48849397 13.4591284,2.75303196 15.7001895,0.0148886931 L21.8344561,6.38449684 L20.3823707,6.39250418 L26.2064771,13.0145945 C26.2064771,13.0145945 25.0919521,13.4175901 23.9669174,13.6374173 L24.7334974,14.2340911 C24.7334974,14.2340911 20.8610609,15.0424595 17.7135411,14.7873499 C17.7135411,14.7873499 17.1248747,17.002262 14.3748455,17.002262 C11.7112709,17.002262 10.8531066,14.5531345 10.8531066,14.5531345 C10.8531066,14.5531345 7.68982234,14.0376604 3.68926802,11.7274107 L4.54217744,11.0733091 C4.54217744,11.0733091 2.7034864,10.2170216 0,8.13247945" id="path2428"></path>
                                                    </g>
                                                    <g id="g2430" transform="translate(3.717106, 6.626094)" fill="#BF2B37">
                                                        <path d="M0.125115068,0.625575344 C0.125115068,0.625575344 0.656228535,0.460798797 2.07115484,0.55175745 L3.6940224,1.54929989 L4.93679037,1.14630426 L5.31488811,1.67604146 L4.90676274,1.67604146 L5.73477426,3.01439734 L6.43742052,1.67604146 L6.11950311,1.67604146 L6.3313229,1.21299059 L7.21838874,1.37376345 L7.58735308,1.8449468 L7.25754977,1.8449468 L7.75212963,2.60226831 L7.3675259,2.60226831 L8.14849418,3.93674563 L8.82749366,2.57098954 L8.51745852,2.57098954 L8.99627385,1.76237085 L8.62343095,1.76237085 L9.35860713,0.434649748 L10.0702616,1.45496313 L9.58368915,1.45496313 L10.3267475,2.57999782 L9.85568927,2.57999782 L10.9338058,4.45347086 L11.8704172,2.57999782 L11.4833112,2.57999782 L12.1111386,1.45496313 L11.6716094,1.45496313 L12.2890522,0.0944618768 L13.3461495,1.80053095 L12.7653653,1.80053095 L13.6182747,3.20807547 L13.0845339,3.20807547 L14.2462273,5.53146227 L15.4445794,3.08245994 L15.0206895,3.08245994 L15.7900221,1.795151 L15.2614109,1.795151 L15.8684692,0.53937106 L16.8261,2.00972334 L16.3131282,2.00972334 L17.438288,3.63709504 L16.8313548,3.63709504 L18.6366401,6.11762637 L19.6047805,4.40117276 L21.6088737,6.87882644 C21.6088737,6.87882644 18.1134089,8.34680153 12.9536635,8.34680153 C6.1037386,8.34680153 2.22091758,5.93971277 2.22091758,5.93971277 C2.22091758,5.93971277 6.71605176,7.50815526 11.6532175,7.50815526 C15.2561561,7.50815526 17.3963745,6.68790087 17.3963745,6.68790087 C17.3963745,6.68790087 12.7848833,6.7096709 5.37118989,4.70470192 C6.57467173,4.70470192 7.29683589,4.3566318 7.29683589,4.3566318 C7.29683589,4.3566318 4.28794362,3.8202635 0.0754443861,2.01748048 L0.614440098,1.21962169 L0.125115068,0.625575344 L0.125115068,0.625575344 L0.125115068,0.625575344 Z" id="path2432"></path>
                                                    </g>
                                                    <g id="g2434" transform="translate(13.398373, 11.599418)" fill="#EFB410">
                                                        <path d="M0,0.750690411 C0.459297416,0.354325874 1.05772279,0.114605402 1.71194948,0.114605402 C2.676962,0.114605402 3.51998733,0.635959892 3.97528107,1.41217378 C2.86676156,1.2695426 1.53228424,1.05972463 0,0.750690411" id="path2436"></path>
                                                    </g>
                                                    <g id="g2438" transform="translate(12.383401, 13.911482)" fill="#EFB410">
                                                        <path d="M0.125115068,0.750690411 C0.111852871,0.64384214 0.104971543,0.534992032 0.104971543,0.424640542 C0.104971543,0.3014022 0.113604482,0.180290814 0.130119671,0.0618068439 C1.04383501,0.160897978 2.00672058,0.222704822 2.98699714,0.222704822 C3.85617152,0.222704822 4.63989231,0.174910866 5.32927635,0.102469241 C5.34228832,0.208066359 5.34891939,0.315540202 5.34891939,0.424640542 C5.34891939,0.637836619 5.32339592,0.845027173 5.27547687,1.04345967 C4.95343069,1.05509537 4.6240027,1.06135112 4.28731805,1.06135112 C2.74627575,1.06135112 1.35537153,0.939489048 0.125115068,0.750690411" id="path2440"></path>
                                                    </g>
                                                    <g id="g2442" transform="translate(12.402031, 14.601567)" fill="#EFB410">
                                                        <path d="M5.00460276,1.00092055 C4.55794194,1.80916389 3.69715027,2.35654231 2.70824077,2.35654231 C1.37063557,2.35654231 0.266995556,1.35474596 0.106472923,0.0605556929 C1.27329605,0.492327794 3.21533214,0.861667476 5.00460276,1.00092055" id="path2444"></path>
                                                    </g>
                                                    <g id="g2446" transform="translate(5.849867, 11.117888)" fill="#FFFFFF">
                                                        <path d="M9.50874518,2.25207123 C8.3979736,2.21653855 6.35722176,2.11769765 3.04993002,1.29594188 C3.04917933,1.29569165 3.04830353,1.29569165 3.04755284,1.29556653 C3.00864205,1.55205242 2.97411029,1.75261188 2.97411029,1.75261188 C2.97411029,1.75261188 2.84023717,1.53366051 2.67120671,1.22775417 C1.83443713,0.92672731 0.795982065,0.487823652 0.107724074,0.11923466 C0.530237661,0.266244866 1.36825839,0.543249629 2.47177329,0.8544108 C2.35766835,0.6327069 2.2443141,0.396114306 2.15648332,0.177538282 L2.73213775,0.695639782 C2.73213775,0.695639782 3.12850229,0.46655409 3.1493965,0.474436339 C3.13963753,0.612062913 3.11899354,0.787724473 3.09522167,0.964512063 C4.87423282,1.44320231 7.16083582,1.97769389 9.50874518,2.25207123" id="path2448"></path>
                                                    </g>
                                                </g>
                                            </g>
                                        </g>
                                    </g>
                                </g>
                            </g>
                        </g>
                    </g>
                </g>
            </g>
        </g>
    </g>
</svg>