<?xml version="1.0" standalone="no"?>
<!DOCTYPE svg PUBLIC "-//W3C//DTD SVG 20010904//EN"
 "http://www.w3.org/TR/2001/REC-SVG-20010904/DTD/svg10.dtd">
<svg version="1.0" xmlns="http://www.w3.org/2000/svg"
 width="260.000000pt" height="260.000000pt" viewBox="0 0 260.000000 260.000000"
 preserveAspectRatio="xMidYMid meet">
<metadata>
Created by potrace 1.11, written by Peter Selinger 2001-2013
</metadata>
<g transform="translate(0.000000,260.000000) scale(0.100000,-0.100000)"
fill="#000000" stroke="none">
<path d="M1640 1300 l0 -1300 480 0 480 0 0 1300 0 1300 -480 0 -480 0 0
-1300z m350 616 c0 -15 141 -966 146 -986 6 -21 71 390 144 903 l12 87 89 0
c50 0 89 -4 89 -10 0 -5 -43 -286 -95 -624 -52 -338 -95 -617 -95 -620 0 -3
-67 -6 -148 -6 l-148 0 -93 608 c-51 334 -95 617 -98 630 -5 22 -4 22 96 22
56 0 101 -2 101 -4z"/>
<path d="M10 1300 l0 -1290 485 0 485 0 0 1290 0 1290 -485 0 -485 0 0 -1290z
m625 594 c55 -30 94 -70 119 -124 20 -44 21 -59 21 -480 0 -421 -1 -436 -21
-480 -25 -54 -64 -94 -119 -124 -37 -19 -58 -21 -252 -24 l-213 -3 0 631 0
631 213 -3 c194 -3 215 -5 252 -24z"/>
<path d="M370 1290 l0 -450 58 1 c93 2 115 10 134 49 16 31 18 73 18 400 0
461 5 446 -152 449 l-58 1 0 -450z"/>
<path d="M1200 1290 l0 -630 100 0 100 0 0 630 0 630 -100 0 -100 0 0 -630z"/>
</g>
</svg>
