<?xml version="1.0" encoding="UTF-8"?>
<svg width="30px" height="30px" viewBox="0 0 30 30" version="1.1" xmlns="http://www.w3.org/2000/svg" xmlns:xlink="http://www.w3.org/1999/xlink">
    <!-- Generator: Sketch 50.2 (55047) - http://www.bohemiancoding.com/sketch -->
    <title>avalanche</title>
    <desc>Created with Sketch.</desc>
    <defs></defs>
    <g id="avalanche" stroke="none" stroke-width="1" fill="none" fill-rule="evenodd">
        <path d="M29.7130328,20.5546721 C29.6489754,20.4028278 28.8552049,18.6702049 28.2596312,18.0582787 C27.4875,16.947418 27.4582377,16.9882376 27.4875,16.947418 C28.8106967,15.0824999 29.3246311,13.1285656 28.7664344,11.364959 C27.8160246,8.3621311 24.0059016,6.69577866 19.1890574,6.74815571 C19.0209836,6.47803276 18.8070492,6.21540981 18.5490984,5.97602455 C17.9063115,5.37885243 17.1420492,5.06336062 16.4934836,5.06336062 L15.0381148,2.704918 L11.7309836,8.0647131 C4.20196721,10.5939344 -0.759590165,15.9992213 0.594959015,20.2812295 C0.948688525,21.3986065 2.48459017,23.0052049 2.48459017,23.0052049 L0,27.1690573 C6.1115164,26.4306147 11.2156967,26.1619672 11.2156967,26.1619672 L11.5471721,24.8387704 C13.3461885,24.7022951 15.2531558,24.3387295 17.1828688,23.7279098 C17.7097131,23.5613114 18.2238934,23.380082 18.7259017,23.1863114 C18.9635655,23.9467622 19.2432787,24.8327458 19.2992213,24.9633196 C20.2256558,27.1522131 23.3085246,27.9398361 26.1843442,26.7227458 C29.0599181,25.5052869 30.639959,22.7436885 29.7130328,20.5546721 L29.7130328,20.5546721 L29.7130328,20.5546721 Z" id="Shape" fill="#005488"></path>
        <path d="M19.3573771,21.7326639 C16.1336065,20.2215984 13.5146311,21.329754 12.8091394,21.4302049 C12.6233607,21.504959 12.4409017,21.5727049 12.2605328,21.6371311 C12.1314345,21.6840984 12.0025819,21.7293443 11.8764344,21.7707787 C8.37086065,22.9247951 5.9668033,22.2420492 4.76827869,20.6762705 C4.68836066,20.5731147 4.61631147,20.4639344 4.54721311,20.3520491 C3.07364754,17.9692623 4.04717213,13.9342623 7.7770082,10.9681967 C0.88819672,16.1902869 3.96073771,20.3918852 4.24622951,20.7253279 C4.25803279,20.7456147 4.27057377,20.7646721 4.2825,20.7854508 C2.36508196,23.9237704 0.93135246,26.300041 0.821065575,26.5679508 C4.95147541,26.114877 10.844877,25.6618032 10.844877,25.6618032 L12.1168033,22.0463115 C14.8427459,20.9513114 17.9133196,20.960041 20.6670492,22.7396311 C20.6669262,22.739754 20.5664754,22.1862295 19.3573771,21.7326639 L19.3573771,21.7326639 L19.3573771,21.7326639 Z" id="Shape" fill="#A7B1B7"></path>
        <path d="M26.9604099,16.3753278 C27.1646312,16.4441803 27.8648361,14.5602049 27.8200819,13.5556967 C27.6788115,10.3683197 23.9910246,7.9316803 19.5261885,8.02807375 C19.4806967,8.46073765 19.3988115,8.83106555 19.2930738,9.09528685 L23.1590164,15.1186475 C23.1591394,15.1185246 25.2510246,15.2344672 26.9604099,16.3753278 L26.9604099,16.3753278 L26.9604099,16.3753278 Z" id="Shape" fill="#FFFFFF"></path>
        <path d="M3.98163935,20.2582376 C1.94508196,17.0392622 4.74737705,12.4184016 10.3131148,9.3606147 C-3.49659836,15.537418 3.33159836,21.2538934 3.33159836,21.2538934 L4.01508197,20.3090164 C4.00377049,20.2921721 3.99233606,20.2756967 3.98163935,20.2582376 L3.98163935,20.2582376 L3.98163935,20.2582376 Z" id="Shape" fill="#FFFFFF"></path>
        <path d="M12.1115164,23.3658197 L12.4638935,22.4591803 C16.8462295,20.9984016 18.357541,22.1572131 18.357541,22.1572131 C15.2345902,23.3658197 12.1115164,23.3658197 12.1115164,23.3658197 L12.1115164,23.3658197 L12.1115164,23.3658197 Z" id="Shape" fill="#FFFFFF"></path>
        <path d="M13.862459,16.7579508 C14.9433196,16.379754 15.9957787,15.8862295 17.0813115,15.4779098 L17.0804508,15.4855327 C17.1464754,15.4581147 17.2125,15.4315573 17.2788935,15.4041393 C18.1535655,15.0854508 18.6896312,14.872254 18.6896312,14.872254 C18.6896312,14.872254 20.1895082,14.4336885 20.9894263,14.3610246 C19.5795492,14.3610246 17.1169672,15.069836 17.1169672,15.069836 C17.1169672,15.069836 16.6352459,15.2536475 16.3464345,15.3665164 C16.2178278,15.4161885 15.0962705,12.4345081 15.0962705,12.4345081 C15.0962705,12.4345081 13.9198771,15.7753279 13.6947541,16.4506967 C13.6772951,16.502459 12.905164,16.7536475 12.905164,16.7536475 C12.905164,16.7536475 11.0917623,17.5593442 10.3867623,17.6604098 C10.8420492,17.6604098 11.4419262,17.5163115 11.9625,17.3579508 C12.6175819,17.1989754 13.2146312,16.9021721 13.862459,16.7579508 L13.862459,16.7579508 L13.862459,16.7579508 Z" id="Shape"></path>
        <path d="M7.77688525,10.9681967 C8.17758195,10.6643852 8.6107377,10.3567623 9.08213115,10.0463115 C8.6138115,10.3386885 8.180041,10.6475409 7.77688525,10.9681967 L7.77688525,10.9681967 L7.77688525,10.9681967 Z" id="Shape" fill="#A7B1B7"></path>
        <path d="M14.2962295,16.1396311 C14.2962295,16.1396311 15.4404098,15.6188114 15.7544262,15.5837705 L15.1204918,13.7440573 L14.2962295,16.1396311 L14.2962295,16.1396311 L14.2962295,16.1396311 Z" id="Shape"></path>
        <path d="M13.862459,16.7579508 C14.9433196,16.379754 15.9957787,15.8862295 17.0813115,15.4779098 L17.0804508,15.4855327 C17.1464754,15.4581147 17.2125,15.4315573 17.2788935,15.4041393 C18.1535655,15.0854508 18.6896312,14.872254 18.6896312,14.872254 C18.6896312,14.872254 20.1895082,14.4336885 20.9894263,14.3610246 C19.5795492,14.3610246 17.1169672,15.069836 17.1169672,15.069836 C17.1169672,15.069836 16.6352459,15.2536475 16.3464345,15.3665164 C16.2178278,15.4161885 15.0962705,12.4345081 15.0962705,12.4345081 C15.0962705,12.4345081 13.9198771,15.7753279 13.6947541,16.4506967 C13.6772951,16.502459 12.905164,16.7536475 12.905164,16.7536475 C12.905164,16.7536475 11.0917623,17.5593442 10.3867623,17.6604098 C10.8420492,17.6604098 11.4419262,17.5163115 11.9625,17.3579508 C12.6175819,17.1989754 13.2146312,16.9021721 13.862459,16.7579508 L13.862459,16.7579508 L13.862459,16.7579508 Z" id="Shape"></path>
        <path d="M9.58536885,10.4493442 C5.15286885,12.9681147 4.85040983,17.7029508 4.85040983,17.7029508 C4.85040983,17.7029508 5.15286885,17.6018852 5.15286885,17.7029508 C5.1164754,18.5015164 5.2377049,19.089959 5.4587705,19.5366393 L6.88290985,17.1832376 C6.1909426,15.902582 6.2572131,13.6852868 9.58536885,10.4493442 L9.58536885,10.4493442 L9.58536885,10.4493442 Z" id="Shape" fill="#FFFFFF"></path>
        <path d="M4.50049181,21.1196311 L1.4252459,26.1984835 L10.6263935,25.3594672 L11.727664,22.1977869 C10.8055328,22.5110655 6.4572541,23.8064754 4.50049181,21.1196311 L4.50049181,21.1196311 L4.50049181,21.1196311 Z" id="Shape" fill="#8B2942"></path>
        <path d="M11.8764344,21.7707786 L12.1654918,20.9406147 C10.5762295,21.3625819 8.9890574,21.6028278 7.26860655,20.9269672 C6.5593033,20.6687704 5.85159835,20.3280737 5.4587705,19.5366393 L4.76815574,20.6763934 C5.9668033,22.2420491 8.37086065,22.924918 11.8764344,21.7707786 L11.8764344,21.7707786 L11.8764344,21.7707786 Z" id="Shape"></path>
        <path d="M15.1204918,13.7440573 L14.2962295,16.1395082 C14.2962295,16.1395082 15.4404098,15.6186885 15.7544262,15.5836475 L15.1204918,13.7440573 L15.1204918,13.7440573 L15.1204918,13.7440573 Z" id="Shape"></path>
        <path d="M29.5863934,23.2037705 C28.6761885,25.6112704 24.2431967,28.1304098 21.0477049,26.4458606 C20.2134836,25.9638934 19.8106967,25.3093032 19.1856147,23.9402459 C21.6746311,26.7695901 26.7947951,22.8768442 26.7947951,22.8768442 C26.7947951,22.8768442 27.6403278,22.6634016 27.6403278,22.0142213 C28.0732377,21.6906147 28.2895082,21.2583197 28.6137295,20.8259016 C28.937336,21.4744672 29.5863934,23.2037705 29.5863934,23.2037705 L29.5863934,23.2037705 L29.5863934,23.2037705 Z" id="Shape" fill="#000000"></path>
        <path d="M14.2962295,16.1396311 C14.2962295,16.1396311 15.4404098,15.6188114 15.7544262,15.5837705 L15.1204918,13.7440573 L14.2962295,16.1396311 L14.2962295,16.1396311 L14.2962295,16.1396311 Z" id="Shape"></path>
        <path d="M17.1170901,15.069959 C17.1170901,15.069959 16.6353688,15.2537705 16.3465574,15.3666393 C16.2179508,15.4163114 15.0963935,12.4346311 15.0963935,12.4346311 C15.0963935,12.4346311 13.92,15.7754508 13.6948771,16.4508197 C13.677418,16.502582 12.9052869,16.7537705 12.9052869,16.7537705 C12.9052869,16.7537705 11.0918853,17.5594672 10.3868853,17.6605328 C10.8421721,17.6605328 11.4420492,17.5164344 11.962623,17.3580737 C12.6175819,17.1992213 13.2146312,16.9022951 13.8625819,16.7581967 C14.9434426,16.3799999 15.9959017,15.8864754 17.0814344,15.4781557 L17.0805737,15.4857786 C17.1465984,15.4583606 17.212623,15.4318033 17.2790164,15.4043852 C18.1536885,15.0856967 18.6897541,14.8725 18.6897541,14.8725 C18.6897541,14.8725 20.1896312,14.4339344 20.9895492,14.3612704 C19.5795492,14.3611475 17.1170901,15.069959 17.1170901,15.069959 L17.1170901,15.069959 L17.1170901,15.069959 Z M14.2962295,16.1396311 L15.1204918,13.7441803 L15.7544262,15.5838934 C15.4404098,15.6186885 14.2962295,16.1396311 14.2962295,16.1396311 L14.2962295,16.1396311 L14.2962295,16.1396311 Z" id="Shape" fill="#A7B1B7"></path>
        <path d="M16.3465574,15.3665164 C16.2179508,15.4161885 15.0963935,12.4345081 15.0963935,12.4345081 C15.0963935,12.4345081 13.92,15.7753279 13.6948771,16.4506967 C13.677418,16.502459 12.9052869,16.7536475 12.9052869,16.7536475 C12.9052869,16.7536475 11.0918853,17.5593442 10.3868853,17.6604098 C10.8421721,17.6604098 11.4420492,17.5163115 11.962623,17.3579508 C12.6175819,17.1990984 13.2146312,16.9021721 13.8625819,16.7580738 C14.9434426,16.379877 15.9959017,15.8863524 17.0814344,15.4780327 L17.0805737,15.4856557 C17.1465984,15.4582376 17.212623,15.4316803 17.2790164,15.4042622 C18.1536885,15.0855738 18.6897541,14.872377 18.6897541,14.872377 C18.6897541,14.872377 20.1896312,14.4338114 20.9895492,14.3611475 C19.5796722,14.3611475 17.1170901,15.069959 17.1170901,15.069959 C17.1170901,15.069959 16.6352459,15.2536475 16.3465574,15.3665164 L16.3465574,15.3665164 L16.3465574,15.3665164 Z" id="Shape"></path>
        <path d="M22.5308607,15.0839754 L15.0254508,3.34684423 C15.0254508,3.34684423 7.46987705,15.7551639 7.47282785,15.5953278 C7.3257787,15.9293852 7.2631967,16.2421721 7.2817623,16.5255738 L7.6379508,15.9363934 L15.0464754,3.93479505 L22.0439754,14.8083197 C22.135082,14.9451639 22.2004918,15.0581557 22.2437705,15.1511065 C22.9085655,15.1954917 22.5308607,15.0839754 22.5308607,15.0839754 L22.5308607,15.0839754 L22.5308607,15.0839754 Z" id="Shape" fill="#A7B1B7"></path>
        <path d="M22.0439754,14.8081967 L15.0464754,3.9346721 L7.6379508,15.9362704 L7.2817623,16.5254508 C7.3988115,18.3132787 10.7787295,18.9065164 16.842418,16.0281147 C17.8892213,15.5318852 19.2931967,15.200041 21.174836,15.1420081 C21.4491393,15.1335246 21.7326639,15.1304508 22.0270082,15.1340164 C22.1098771,15.1415164 22.1814345,15.1468033 22.2436475,15.1509836 C22.2004918,15.0580327 22.134959,14.9450409 22.0439754,14.8081967 L22.0439754,14.8081967 L22.0439754,14.8081967 Z M18.6896311,14.872377 C18.6896311,14.872377 18.1535655,15.0855738 17.2788935,15.4042622 C17.2125,15.4315573 17.1464754,15.4582377 17.0804508,15.4856557 L17.0813115,15.4780328 C15.9956558,15.8862295 14.9433196,16.379754 13.862459,16.7580738 C13.2145082,16.9021721 12.6175819,17.1990984 11.9625,17.3579508 C11.4419262,17.5163115 10.8420492,17.6604098 10.3867623,17.6604098 C11.0917623,17.5594672 12.9051639,16.7536475 12.9051639,16.7536475 C12.9051639,16.7536475 13.6772951,16.502459 13.6947541,16.4506967 C13.9198771,15.7754508 15.0962705,12.4345081 15.0962705,12.4345081 C15.0962705,12.4345081 16.2178278,15.4161885 16.3464345,15.3665164 C16.6352459,15.2536475 17.1169672,15.069836 17.1169672,15.069836 C17.1169672,15.069836 19.5794262,14.3610246 20.9894262,14.3610246 C20.1895082,14.4338115 18.6896311,14.872377 18.6896311,14.872377 L18.6896311,14.872377 L18.6896311,14.872377 Z" id="Shape" fill="#8B2942"></path>
        <path d="M19.0191393,8.7601229 C19.71,5.00938521 15.1626639,5.29487701 15.1626639,5.29487701 L14.974918,6.2291803 L14.2784016,6.49635242 L13.7433196,8.13651635 L13.2861885,8.42409835 L12.4734836,9.819959 C12.4734836,9.819959 17.5739754,6.02446718 19.0191393,8.7601229 L19.0191393,8.7601229 L19.0191393,8.7601229 Z" id="Shape" fill="#FFFFFF"></path>
        <path d="M14.7234836,7.09131145 L14.5889754,7.49446718 C14.5889754,7.49446718 17.0743033,6.62127046 18.4841803,7.35995899 C18.4841803,7.35995899 17.880123,6.35249997 14.7234836,7.09131145 L14.7234836,7.09131145 L14.7234836,7.09131145 Z" id="Shape" fill="#005488"></path>
        <path d="M13.5146311,8.8377049 C13.5146311,8.8377049 13.5146311,8.8377049 13.7159016,8.38426225 C17.4436476,6.36909833 18.6018442,7.7797131 18.6018442,7.7797131 C16.5869263,6.77225407 13.5146311,8.8377049 13.5146311,8.8377049 L13.5146311,8.8377049 L13.5146311,8.8377049 Z" id="Shape" fill="#A7B1B7"></path>
        <path d="M26.1071312,16.5947951 C23.4806558,15.3255737 20.9242623,15.5090164 19.2563115,15.8784835 C18.0777049,16.14 17.3427049,16.4937295 17.3427049,16.4937295 C12.6581558,18.4583606 10.4415983,18.8111065 8.77942625,18.3071311 C8.6787295,18.4081967 8.6787295,18.5086475 8.4772131,18.5086475 C8.0665574,18.4305737 7.3222131,17.9954508 6.88290985,17.1831147 L5.4587705,19.5365164 C5.85159835,20.3280737 6.5593033,20.6686475 7.26860655,20.9268442 C8.98893445,21.6027049 10.5762295,21.362459 12.1654918,20.9404918 C14.484959,20.3258606 16.8092213,19.3245492 19.5584017,20.2214754 C21.2718443,20.8259016 23.8908197,22.3871311 23.8908197,23.6468852 C21.2717213,25.0067213 19.659959,23.5459426 19.4581967,23.3445491 C20.364959,24.7551639 22.430041,24.7042623 23.7897541,23.9488525 L24.5364345,23.5781557 L24.1931557,22.8405738 L24.3946722,22.6390573 L24.9986066,23.142295 L24.5956967,21.9336885 C24.5956967,21.8332377 25.7042213,22.9413934 25.7042213,22.9413934 C26.0066803,22.9413934 24.6963934,21.1278688 24.6963934,21.1278688 C24.6963934,21.1278688 24.1931557,21.429836 23.9912705,21.5306557 C23.3869672,20.4226229 21.5229099,19.4655738 21.1707787,19.3144672 C20.4655328,19.0120082 18.0982377,18.3066393 15.8313935,18.6090984 C17.2921721,18.055082 18.5515574,17.9038524 19.7601639,18.004918 C22.782541,18.2063115 24.3947951,20.4226229 24.3947951,20.4226229 L24.8980328,20.0197131 C24.8980328,20.0197131 27.0137705,22.2359016 27.3159836,23.6465163 L27.3159836,20.6240163 C27.4166804,20.5235656 27.4166804,20.5235656 27.5175,20.4226229 C27.7191393,20.5235656 27.9206558,20.9264754 27.9206558,20.9264754 L28.0215984,19.6164344 C28.8272951,20.4227458 29.3309017,21.5306557 29.5326639,22.6389344 C29.6333607,20.2215984 28.1222951,17.9043443 26.1071312,16.5947951 L26.1071312,16.5947951 L26.1071312,16.5947951 Z" id="Shape" fill="#FFFFFF"></path>
        <path d="M23.7898771,15.9402049 C23.7898771,15.9402049 26.4676229,17.6843852 26.5389344,18.197336 L26.047623,18.7841803 L25.8825,19.5768443 L25.3942623,19.0042623 C25.3942623,19.0042623 25.2318443,19.0298361 25.149959,19.1385246 C24.5454098,18.3322131 23.5375819,17.8289754 22.6316803,17.3249999 C20.5159426,16.619877 18.1988115,16.619877 16.0835655,17.3249999 C13.8670082,18.3322131 11.6505737,19.339918 9.23262295,19.339918 C6.25893445,19.0822131 6.18762295,16.9991803 6.17016395,15.7753279 L6.51282785,13.8242213 C6.51282785,13.8242213 3.89311476,18.8612704 7.7218033,19.7428278 C10.5421722,20.2468032 13.1616393,19.0381967 15.5795902,17.9294262 C16.8388525,17.4506557 20.9189754,16.0406557 24.3441393,19.1385246 C24.6462295,19.2394672 24.7470492,19.5413114 25.0490164,19.7427049 C25.1498361,19.642377 25.4518033,19.5413114 25.4518033,19.5413114 L26.1574181,20.3476229 C26.1574181,20.3476229 26.2583607,19.5413114 26.3591803,19.1385246 C26.4601229,19.0380737 26.5603279,18.9370082 26.5603279,18.9370082 L26.862541,18.4331557 L26.862541,18.2317622 L26.862541,18.0302459 C25.8721722,16.5276639 23.7898771,15.9402049 23.7898771,15.9402049 L23.7898771,15.9402049 L23.7898771,15.9402049 Z" id="Shape" fill="#005488"></path>
        <path d="M24.63,24.9565574 L24.4283606,25.3594672 C21.4728689,26.4004918 20.2304508,25.2252049 20.0964345,25.0238115 C22.2453688,26.0981557 24.63,24.9565574 24.63,24.9565574 L24.63,24.9565574 L24.63,24.9565574 Z" id="Shape" fill="#A7B1B7"></path>
        <path d="M26.8793852,24.989877 L26.8122541,25.3594672 C22.4471312,27.7771721 20.7004918,25.7955737 20.7004918,25.7955737 C20.7004918,25.7955737 22.9506147,27.3072541 26.8793852,24.989877 L26.8793852,24.989877 L26.8793852,24.989877 Z" id="Shape" fill="#A7B1B7"></path>
    </g>
</svg>