<?xml version="1.0" encoding="UTF-8"?>
<svg width="30px" height="30px" viewBox="0 0 30 30" version="1.1" xmlns="http://www.w3.org/2000/svg" xmlns:xlink="http://www.w3.org/1999/xlink">
    <!-- Generator: Sketch 50.2 (55047) - http://www.bohemiancoding.com/sketch -->
    <title>blackhawks</title>
    <desc>Created with Sketch.</desc>
    <defs></defs>
    <g id="blackhawks" stroke="none" stroke-width="1" fill="none" fill-rule="evenodd">
        <g id="g2452" transform="translate(16.078803, 14.644216) scale(1, -1) translate(-16.078803, -14.644216) translate(0.078803, 1.144216)">
            <g id="g3200" transform="translate(0.021202, 0.035573)">
                <g id="g3202-Clipped">
                    <g id="g3202">
                        <g>
                            <g id="Group" transform="translate(0.500000, 0.000000)">
                                <g transform="translate(0.404794, 0.466460)">
                                    <g id="g3208" transform="translate(4.183904, 15.300731)" fill="#FFFFFF">
                                        <path d="M1.35719133,0.233230011 C1.63541556,0.328854315 1.63541556,0.296901804 1.38818054,0.424478619 C1.14071931,0.552055435 0.186840007,0.86598303 0.186840007,0.86598303 C0.186840007,0.86598303 0.125087801,0.584007945 0.155850805,0.488150412 C0.186840007,0.392526108 0.186840007,0.163027777 0.155850805,0.0356841916 C0.155850805,0.0356841916 1.07896711,0.137372476 1.35719133,0.233230011" id="path3210"></path>
                                    </g>
                                    <g id="g3212" transform="translate(4.775957, 12.795582)" fill="#FFFFFF">
                                        <path d="M1.58338989,1.16615005 C1.21559104,0.93268681 0.86453088,0.86784887 0.212174246,0.827733305 C0.27098587,0.69805742 0.422086505,0.586806705 0.646249275,0.601966655 C0.419598321,0.393225797 0.310344419,0.22879864 0.285688776,0.105653195 C0.807528845,0.351011165 1.18776861,0.469492011 1.89282952,0.430309369 C3.03694181,0.366404346 3.05843067,0.8890728 2.77998025,1.33547504 C2.50175603,1.78164405 1.88151958,1.35529959 1.58338989,1.16615005" id="path3214"></path>
                                    </g>
                                    <g id="g3216" transform="translate(13.445466, 10.050581)" fill="#FFFFFF">
                                        <path d="M2.48818412,4.66460021 L1.46486184,4.1764498 C1.39247831,4.05983479 1.32190436,3.94228687 1.252009,3.82450571 L2.36988227,4.36956425 C2.13689775,3.77739325 1.91160399,3.15187036 1.71209687,2.56599658 C1.35379835,2.32110507 0.57477053,2.02723525 0.284557783,1.92158206 C0.251758993,1.84205062 0.220091195,1.76275242 0.18955439,1.68345422 C0.49175566,1.78490927 1.26739051,2.05778838 1.62229604,2.29941468 C1.30064169,1.3382738 1.05928783,0.523134915 0.982832725,0.20874086 C0.970391805,0.157663487 1.00070241,0.105653195 1.05046609,0.092825544 C1.10022977,0.0799978935 1.15044586,0.111017485 1.16288678,0.162328088 C1.23640131,0.465060641 1.46486184,1.20183425 1.75937236,2.07154896 C1.90210365,1.6708598 2.20362633,1.16638328 2.48886271,0.85478799 C2.54812673,0.91286226 2.59065206,0.952278135 2.62096266,0.977000515 C2.62164126,0.982131575 2.62254605,0.987962325 2.62322465,0.993093385 C2.31966619,1.32474646 2.01180995,1.97849018 1.88151958,2.42955702 C2.06428802,2.95898914 2.26560474,3.52037378 2.46760005,4.05307112 C2.58002072,3.77062958 2.89240093,3.25915617 3.0220127,3.05134823 C3.04531115,3.15396943 3.06906201,3.25868971 3.09349145,3.36480936 C2.96252249,3.56048934 2.6462969,4.05097205 2.57527055,4.33434652 C2.90868723,5.19496525 3.23509175,5.94736525 3.47282643,6.31470255 C3.54407897,6.42525355 3.65107089,6.7193566 3.56421065,6.75690665 C3.23893712,6.36601315 2.85756635,5.57256465 2.48818412,4.66460021" id="path3218"></path>
                                    </g>
                                    <g id="g3220" transform="translate(20.764437, 8.298837)" fill="#FFFFFF">
                                        <path d="M6.5597581,0.466460021 C6.50773245,0.478821212 6.45661155,0.492348552 6.4023239,0.504243285 C5.92481875,0.609896475 5.36678695,0.735140995 4.5723776,1.76718379 L4.98948774,3.05764543 C5.2930462,2.5272804 5.516078,2.12215986 5.60158105,1.93347678 C5.6230699,1.88566463 5.67826235,1.86514039 5.72485925,1.88729724 C5.77122995,1.90968732 5.7913616,1.96682868 5.76964655,2.0144076 C5.67961955,2.21358603 5.4464088,2.6368985 5.13086185,3.18685486 L6.30551095,2.9664525 C6.5308047,2.16577387 6.63304645,1.32941106 6.5597581,0.466460021 M3.00572641,4.4733516 L3.44138482,5.6889464 C3.95576034,4.82809444 4.46538569,3.96630956 4.86417374,3.27524903 L4.43597987,1.95026934 C4.02656049,2.51678504 3.55629369,3.32142858 3.00572641,4.4733516 M1.85030418,7.1272759 L2.01633393,8.0552981 C2.3956689,7.43000845 2.85507817,6.6689789 3.31788041,5.89582145 L2.89307953,4.71124621 C2.57323477,5.39461015 2.22715098,6.1931897 1.85030418,7.1272759 M0.548757695,10.5755816 C0.537900165,10.6313235 0.5641392,10.6761037 0.628831985,10.6201285 C0.79124255,10.4603659 0.97695156,10.2828779 1.18641142,10.083233 C1.73652631,9.55939845 2.41534818,8.9131181 3.10389658,8.1649162 L1.99665465,8.4438593 C1.60035478,9.0959704 1.32326155,9.5465708 1.27892663,9.61560685 C1.25042561,9.65968735 1.19297118,9.67158205 1.15021965,9.6421951 C1.10769432,9.6128081 1.09593201,9.5535677 1.12443302,9.50972045 C1.19704276,9.3973036 1.47979095,8.93784045 1.87043586,8.29505855 L1.72001382,7.45333145 C1.35786993,8.365494 0.968356015,9.40033555 0.548757695,10.5755816 M5.16320825,5.4997969 L3.4615165,6.0175675 C2.98808292,6.80775075 2.51939951,7.58324055 2.13780255,8.211329 L3.3352977,7.90952935 C3.98086838,7.18768245 4.62259369,6.3788408 5.16320825,5.4997969 M5.3061657,5.2605029 C5.69296525,4.59976226 6.01869115,3.90147161 6.24443735,3.1723946 L5.00554785,3.40469169 C4.60992657,4.08922177 4.11093255,4.93141534 3.60741456,5.7733757 L5.28806985,5.26190225 C5.2941772,5.26026965 5.30028455,5.26096935 5.3061657,5.2605029 M1.31240402,10.2238707 C0.912032575,10.6049685 0.589473435,10.9123657 0.373227617,11.1521262 C0.330702288,11.0758599 0.279129018,11.004958 0.220091195,10.9424524 C3.76756315,0.89257125 5.20641215,0.572579675 6.36364395,0.316959584 C6.4527662,0.297368263 6.53691205,0.278709862 6.62015315,0.255620091 L6.72510925,0.22599988 L6.7364192,0.337950285 C7.174792,4.64337628 3.36108434,8.2736014 1.31240402,10.2238707" id="path3222"></path>
                                    </g>
                                    <g id="g3224" transform="translate(2.847774, 5.155083)" fill="#FFFFFF">
                                        <path d="M0.226198555,1.86584009 C0.177113469,1.88776371 0.110384895,1.87470282 0.128254581,1.80123537 C0.128254581,1.80123537 0.235246498,1.27949984 0.235246498,1.05606548 C0.235246498,0.958108885 0.22710335,0.87204701 0.212852841,0.796247255 C0.61548627,-0.568148305 1.88106719,0.185417859 0.960891465,1.25337808 C0.65280903,1.39098378 0.410097981,1.78327666 0.226198555,1.86584009" id="path3226"></path>
                                    </g>
                                    <g id="g3228" transform="translate(20.915696, 7.279878)" fill="#FEE011">
                                        <path d="M1.13099278,0.69969003 C1.0181197,0.955776585 0.871316835,1.64403834 0.70641809,2.57276024 L0.0710263465,1.76042012 C0.260128339,1.15285594 0.487457888,0.565582775 0.762289135,0.0153931807 L1.13099278,0.69969003 L1.13099278,0.69969003 L1.13099278,0.69969003 Z" id="path3230"></path>
                                    </g>
                                    <g id="g3232" transform="translate(21.470900, 9.340792)" fill="#FEE011">
                                        <path d="M0,2.56553012 C0.102015548,1.91645099 0.20199531,1.30025731 0.296546307,0.756131695 L1.57027037,0.044546932 C1.55307928,0.542259775 1.50082742,1.10247826 1.40084765,1.73219929 L0,2.56553012 L0,2.56553012 L0,2.56553012 Z" id="path3234"></path>
                                    </g>
                                    <g id="g3236" transform="translate(20.245336, 11.118054)" fill="#FEE011">
                                        <path d="M0,1.86584009 C0.050442278,1.31355142 0.120111433,0.751467095 0.21307904,0.190782148 L1.00364299,1.0056878 C0.923568705,1.52019321 0.841684825,2.05522285 0.75980095,2.59515033 L0,1.86584009 L0,1.86584009 L0,1.86584009 Z" id="path3238"></path>
                                    </g>
                                    <g id="g3240" transform="translate(20.316750, 16.736912)" fill="#FEE011">
                                        <path d="M0.452397112,2.3323001 C0.365989263,2.28075627 0.271890664,2.24180686 0.171684704,2.21848386 C0.497636823,1.49453791 0.787397175,0.809774595 1.04503733,0.161161937 C0.844625405,0.834263745 0.64670167,1.5558774 0.452397112,2.3323001" id="path3242"></path>
                                    </g>
                                    <g id="g3244" transform="translate(20.372732, 13.153939)" fill="#FEE011">
                                        <path d="M0.226198556,4.4313702 C0.368251249,3.55255952 0.527268835,2.49952602 0.69103659,1.41454002 C0.72360918,1.19810256 0.756860365,0.979332815 0.790111555,0.759863375 L2.03985858,0.0382497217 C1.69626297,1.31611695 1.18912581,2.80389119 0.459183068,4.538656 C0.361691491,4.77281894 0.177339668,4.6652999 0.226198556,4.4313702" id="path3246"></path>
                                    </g>
                                    <g id="g3248" transform="translate(21.199125, 11.108071)" fill="#FEE011">
                                        <path d="M0,2.56553012 C0.0775861045,2.05335701 0.156077004,1.53978453 0.233663108,1.04183845 L1.63224878,0.210140239 C1.54629332,0.70575401 1.43093206,1.24311595 1.28118862,1.82549129 L0,2.56553012 L0,2.56553012 L0,2.56553012 Z" id="path3250"></path>
                                    </g>
                                    <g id="g3252" transform="translate(20.065873, 13.008544)" fill="#FEE011">
                                        <path d="M0.904794225,0.93292004 C0.874709815,1.13209847 0.844625405,1.33151013 0.814541,1.53068856 C0.650773245,2.6159078 0.49175566,3.6682416 0.349929165,4.54518644 C0.317582772,4.74576425 0.111063491,4.75812545 0.094777195,4.47381806 C0.0470492996,3.33495592 0.026465231,1.82455837 0.158791386,0.216903909 L0.904794225,0.93292004 L0.904794225,0.93292004 L0.904794225,0.93292004 Z" id="path3254"></path>
                                    </g>
                                    <g id="g3256" transform="translate(20.447241, 9.168619)" fill="#FEE011">
                                        <path d="M1.13099278,0.93292004 C1.03757277,1.47074845 0.939176405,2.07761293 0.83806565,2.72226068 L0.050894675,1.91015379 C0.160148578,1.29582594 0.298129696,0.68453008 0.472528783,0.090959704 L1.13099278,0.93292004 L1.13099278,0.93292004 L1.13099278,0.93292004 Z" id="path3258"></path>
                                    </g>
                                    <g id="g3260" transform="translate(19.536634, 4.175563)" fill="#FEE011">
                                        <path d="M4.29777256,6.2972103 C3.94852199,6.8320067 3.53729301,7.6354841 3.24572307,8.32141355 C4.16951798,4.37446208 3.44907558,2.60238046 3.11113493,1.77161516 L3.04123958,1.5978588 C3.04123958,1.5978588 2.98174936,1.44929129 2.98129696,1.44812514 L2.88312679,1.57336965 C-0.0680857655,5.33397035 0.366441661,12.3208417 0.50917295,14.6165247 C0.512565925,14.6725 0.515958905,14.7252099 0.518899485,14.7762873 C0.496279631,14.7811852 0.474112173,14.7872491 0.451944715,14.7937796 L0.264878509,14.7380376 C0.172137101,14.259916 0.172137101,9.50902075 0.295641513,8.07418975 C0.419372122,6.6393587 0.75980095,4.79007796 0.79056395,4.02508352 C0.852542355,3.86532096 1.61664108,2.60704505 1.90368705,2.04799272 C2.18191127,1.50619941 2.5840923,0.836596045 2.67683371,0.198711969 C4.28646263,1.72986699 4.58323514,4.20000603 4.29777256,6.2972103" id="path3262"></path>
                                    </g>
                                    <g id="g3264" transform="translate(21.689320, 7.299071)" fill="#FEE011">
                                        <path d="M1.35719133,1.86584009 L0.120337632,2.55666737 C0.286819769,1.6195492 0.432717837,0.93665172 0.536769175,0.737939755 L1.21717443,0.120813145 C1.30697526,0.588206085 1.36737027,1.16148545 1.35719133,1.86584009" id="path3266"></path>
                                    </g>
                                    <g id="g3268" transform="translate(21.571855, 5.788233)" fill="#FEE011">
                                        <path d="M0.904794225,0.23323001 C1.01631011,0.507275275 1.16989893,0.8867405 1.28978416,1.417572 L0.60485494,2.03889675 L0.208781267,1.30375576 C0.413264762,0.91799332 0.64082051,0.551588975 0.89597248,0.211306389 L0.904794225,0.23323001 L0.904794225,0.23323001 L0.904794225,0.23323001 Z" id="path3270"></path>
                                    </g>
                                    <g id="g3272" transform="translate(16.929627, 2.255052)" fill="#FEE011">
                                        <path d="M2.48818412,3.73168016 C2.09278904,3.9208297 1.67341691,4.18997714 1.41125279,4.46122364 C1.35900092,4.98762377 1.33615487,5.8039288 1.34316702,6.76553615 C1.67952427,6.45557345 2.31853519,6.04998645 2.54586474,5.90934875 C2.58612809,5.0888456 2.55694847,4.36443318 2.48818412,3.73168016 M2.28709359,2.50745584 C2.06293083,2.26792862 1.60420016,2.7961946 1.41849114,3.15163713 L1.35673894,2.96038853 C1.07150256,2.37241567 0.859328315,2.45521232 0.70619189,2.64063018 C0.619105445,3.0161305 0.546043315,3.39979386 0.486553093,3.79162028 C0.674071695,3.89657379 1.11448028,4.1484622 1.30878484,4.30565923 C1.55805565,4.03231365 2.28437921,3.61879684 2.46352847,3.5189744 C2.41625297,3.14767222 2.35540556,2.81088809 2.28709359,2.50745584 M0.29609391,6.31003795 L1.12217104,6.8926465 C1.11832566,5.93640345 1.14931486,5.1035391 1.21559104,4.51883145 C1.01133374,4.32058595 0.62996298,4.10111651 0.455111494,4.0054922 C0.352869747,4.74599748 0.300391682,5.51449035 0.29609391,6.31003795 M0.442444375,8.8823317 C0.60259295,8.9956815 1.02445326,9.30214575 1.20518591,9.51205275 C1.15836281,8.68921725 1.13099278,7.87781005 1.12375443,7.1328734 C0.935557225,6.96051645 0.5170899,6.66081585 0.29451052,6.50431855 C0.298129697,7.27211175 0.348345776,8.06579345 0.442444375,8.8823317 M0.56707978,9.82434775 C0.743288455,10.9697403 0.971975195,11.9474405 1.283903,12.9703873 C1.34882199,13.2379022 1.56371062,13.2703211 1.53113803,12.986247 C1.3942879,12.0038822 1.29114135,10.9002378 1.2226032,9.8045232 C1.1117659,9.6314665 0.65009465,9.2652954 0.469588202,9.12582385 C0.498541617,9.35672155 0.53088801,9.5894851 0.56707978,9.82434775 M2.00638119,12.8994854 C2.05953785,11.5679753 2.15748183,10.0519802 2.24502067,8.96023055 C2.02719146,9.0934049 1.66708335,9.3609197 1.43183686,9.5915842 C1.49562485,10.7780252 1.59311643,11.9768275 1.72453779,13.0030395 C1.78923057,13.3374914 1.97403479,13.2339372 2.00638119,12.8994854 M2.37802541,7.5888381 C2.45425433,7.0752656 2.50311322,6.592013 2.53206663,6.1348822 C2.21765064,6.32030005 1.64943987,6.72215535 1.34565521,7.0393482 C1.35447695,7.7593292 1.37913259,8.5478799 1.41916974,9.3485585 C1.66640476,9.1160282 2.04754932,8.84058355 2.26628333,8.70297785 C2.31016585,8.1786768 2.34997679,7.77892055 2.37802541,7.5888381 M2.19367359,16.1236571 C1.37031085,14.0182898 0.702798915,11.9280824 0.383632751,9.8544344 C-0.177565867,6.20764995 0.119432837,2.99793856 1.26512852,0.312294984 C1.2678429,0.259351771 1.35900092,0.171890518 1.44948035,0.142270306 C1.55760325,0.107285805 1.57818733,0.205942099 1.64898747,0.310662374 C1.8168268,0.557652955 3.26653335,2.86033285 2.56169864,7.61799185 C2.42213413,8.5572091 2.00954797,15.3001219 2.19367359,16.1236571" id="path3274"></path>
                                    </g>
                                    <g id="g3276" transform="translate(9.487310, 3.219691)" fill="#FEE011">
                                        <path d="M4.75016967,2.56553012 C4.74270512,2.74814922 4.78409945,2.81625237 4.80061195,2.83631016 C5.00464305,2.90464655 5.16026765,2.65135876 5.2769861,2.29684914 C5.31747565,2.04426104 5.33104755,1.82129315 5.3267498,1.62468026 C5.0397038,1.86467394 4.76532498,2.18909688 4.75016967,2.56553012 M7.79005205,16.0914713 L7.79005205,16.0620844 C7.8922938,16.0662825 7.9721419,16.1551432 7.9682965,16.2605631 C7.96422495,16.3662163 7.8780433,16.4485465 7.77580155,16.4445816 C5.98702335,16.491694 3.29526056,16.2423712 1.69762016,15.8878616 C1.61822447,16.6939045 1.37098944,17.1808887 1.08982464,17.7329442 C0.92243771,18.0610988 0.749395815,18.4006816 0.59354501,18.8510488 C0.401954833,19.4040372 0.406252606,19.8014611 0.605533535,19.9700864 C0.851411365,20.1776611 1.3936093,20.0839026 1.74580045,19.8660658 C1.80687406,19.8282826 1.87518603,19.7835024 1.94756957,19.7359235 C2.61824829,19.2955852 3.74087171,18.5585784 4.95442696,19.5283487 C5.2953082,19.8007614 5.5721752,19.9052484 5.7766587,19.8390112 C6.1539579,19.7174983 6.36454875,19.0252717 6.56857985,18.3563679 L6.581247,18.314853 C6.71312075,17.8815117 6.95809375,17.5703829 7.30847535,17.3905625 C7.77987315,17.148703 8.4263486,17.3038009 8.736693,17.4854871 C8.82581525,17.5377307 8.85680445,17.6251919 8.80636215,17.7168513 C8.7556937,17.8087439 8.6423682,17.8409296 8.553246,17.7886862 C8.35464365,17.6720711 7.86628095,17.5022796 7.4738265,17.7037904 C7.2168649,17.8353321 7.0359061,18.0993485 6.9352477,18.4296022 L6.9228068,18.4706507 C6.6900485,19.2337793 6.4498256,19.9931762 5.8877222,20.1748624 C5.55543655,20.2821482 5.17610155,20.1599357 4.72709742,19.8012279 C3.72028764,18.9965843 2.77342049,19.6179091 2.14685049,20.0293269 C2.07243117,20.0783051 2.00230962,20.1242514 1.93648584,20.1646002 C1.56800839,20.3929324 0.817029185,20.6434215 0.370513235,20.2658221 C0.0309892021,19.9791824 -0.0115361263,19.4597791 0.244068242,18.7223059 C0.408966989,18.2465167 0.596259395,17.8789462 0.76115814,17.5549896 C1.22328179,16.6484246 1.58814006,15.9324085 1.16356537,13.3988308 C0.55780564,9.7821331 0.458504472,8.351267 1.72046622,6.4970884 C1.98579712,6.10666135 2.21357906,5.79973065 2.41466958,5.52895065 C3.12877843,4.56687684 3.42441993,4.16805352 3.51128018,2.48343315 C3.57144899,1.31891571 3.92658073,0.471357851 4.46154031,0.216437449 C4.7151089,0.0953910745 4.98699956,0.125710975 5.20776935,0.299234104 C5.39302595,0.44476963 5.5251259,0.67636703 5.6063312,0.965805475 C5.63098685,0.951111985 5.6554163,0.93665172 5.67826235,0.92382407 C5.8902104,0.802544465 6.26027125,0.9380511 6.4864698,1.21979295 C6.71470415,1.50363388 7.1091944,2.33276657 5.84904225,3.89167596 C5.5452576,4.2674095 5.21116235,4.61585514 4.88769839,4.95240604 C4.52170913,5.33327065 4.17607773,5.69314455 3.87297167,6.08800295 C3.30046312,6.83387255 2.58748528,7.762128 2.79898093,10.2250369 L2.92384253,11.7146769 C3.01002418,12.7656114 3.01522675,12.8283502 3.10344418,13.1926556 C3.22174603,13.6794065 3.38777577,13.9152021 3.46807626,13.9268636 C3.50585141,13.9326944 3.60854556,13.8743869 3.75308644,13.6203994 C4.04646597,13.1042613 4.32220201,12.8724307 4.5730562,12.9312047 C4.8709597,13.0011737 4.93881927,13.4223871 4.96392731,13.7330494 C5.05372815,14.8467227 5.22450805,14.9031645 5.2317464,14.9050303 C5.2326512,14.9052635 5.33036895,14.9078291 5.5576985,14.5918024 C5.84994705,14.1845828 6.04108485,13.9375922 6.2765575,13.9840049 C6.52650695,14.0329832 6.60070005,14.3198562 6.7990762,15.08625 L6.8445421,15.261639 C6.87078115,15.3637937 6.8124219,15.4687472 6.71334695,15.4960351 C6.61449815,15.5235563 6.5127088,15.4335295 6.4862436,15.331608 L6.4403253,15.1555193 C6.35075065,14.808473 6.2652476,14.4791523 6.2021382,14.3569398 C6.1053252,14.4427684 5.92843795,14.6885929 5.855602,14.7900479 C5.6859531,15.0263099 5.42605095,15.3304418 5.13018325,15.243447 C4.82888677,15.1550529 4.67348836,14.718213 4.59386647,13.735615 C4.56717504,13.4027958 4.50791102,13.3036731 4.48845794,13.2791839 C4.43349169,13.2969093 4.27198593,13.434515 4.07315739,13.7843601 C3.99670228,13.9189338 3.76439637,14.3574062 3.41514579,14.3056291 C3.05141851,14.2519862 2.84919701,13.7211547 2.74356228,13.2852478 C2.64810649,12.8913223 2.64109434,12.804794 2.55423409,11.7468627 L2.42937249,10.258622 C2.20475733,7.6441136 3.00075004,6.60717295 3.58208033,5.8503416 C3.89807971,5.43892385 4.26700955,5.0545608 4.62395088,4.68302538 C4.94198605,4.35230523 5.27042635,4.00992357 5.56403205,3.64678444 C6.2785933,2.76260948 6.5287689,1.99295044 6.2505447,1.5348867 C6.11346835,1.30958651 5.9021989,1.25104577 5.85130425,1.26224081 C5.80357635,1.28952873 5.7461219,1.32428 5.6832387,1.36439556 C5.7137755,1.66199706 5.7011084,1.99994734 5.64229675,2.36588522 C5.5721752,2.79829367 5.1561961,3.2547248 4.73931214,3.20994463 C4.57667538,3.19268561 4.35839377,3.06394265 4.37943024,2.54943725 C4.40363349,1.95283487 4.85806638,1.48870716 5.2785695,1.1820097 C5.2154601,0.8890728 5.10168225,0.69689127 4.98292798,0.603366035 C4.87028111,0.514971865 4.74745529,0.50144452 4.61739112,0.563483705 C4.31677324,0.70692016 3.94399802,1.30072377 3.88179342,2.50372416 C3.78882581,4.30682537 3.45065897,4.76255681 2.7094063,5.76148095 C2.51057777,6.029229 2.28528401,6.3331277 2.02402468,6.71679105 C0.843042015,8.4522556 0.94302178,9.83227755 1.52932843,13.3337597 C1.68653643,14.272977 1.7383359,14.9729002 1.71956142,15.532419 C3.32466637,15.9205138 5.75358645,16.1535105 7.79005205,16.0914713" id="path3278"></path>
                                    </g>
                                    <g id="g3280" transform="translate(0.114545, 0.003919)" fill="#E7A908">
                                        <path d="M10.4051336,5.36429025 C9.964725,5.4883686 9.76227725,6.17173255 9.95273645,6.89078065 C10.1434218,7.60959555 10.6546306,8.0919152 11.0950391,7.96783685 C11.5354477,7.84352525 11.7378954,7.16039455 11.5474363,6.4411132 C11.3569771,5.72253155 10.8453159,5.24021185 10.4051336,5.36429025 M8.6473446,9.153345 C6.4518614,9.8227151 7.8477327,12.6210088 8.8638166,12.341366 C7.5339953,11.0977836 8.2044478,9.65339015 8.6473446,9.153345 M6.0806696,12.8197208 C6.86399515,13.1924223 7.10127745,12.4052711 6.35912,12.1820699 C4.24235391,11.545352 4.07066921,12.6601915 4.56559165,13.1387794 C3.26675954,13.9357264 4.93655728,14.6053297 5.64772555,14.8285309 C6.35912,15.051732 6.3281308,14.3501761 5.92617595,14.2545518 C5.52399495,14.1589275 5.3695013,14.0633032 5.0292987,13.9676789 C4.85354241,13.9182341 4.81079089,13.7582383 4.87367408,13.6194665 C5.5260307,13.6593488 5.8768647,13.72442 6.24488975,13.9578832 C6.5430194,14.1467995 7.16302965,14.5733772 7.4412539,14.126975 C7.7199305,13.6805727 7.69844165,13.1581375 6.55410315,13.2220425 C5.84926845,13.2612252 5.4688025,13.1427443 4.94718861,12.8973864 C4.87774566,12.5505733 5.48712455,12.5372792 6.0806696,12.8197208 M3.59225927,14.2879037 C3.35475078,14.2424238 3.51942333,14.8161697 3.49499389,14.9673027 C3.2260438,14.9117939 2.73202616,14.9894595 2.68294107,15.1002438 C2.62231986,15.2371498 2.9288189,15.3155151 3.53706682,15.3432694 C3.48798173,15.646002 3.38777577,16.1912938 3.57212759,16.4863297 C3.11000395,16.6519231 2.58974727,16.7568766 3.00640501,17.0768681 C3.36289393,17.3504469 3.28259344,17.5193055 3.28259344,17.5193055 C3.0548115,17.7075221 2.77500388,18.107978 3.3669655,18.3594 C3.95847473,18.6112883 4.76600357,18.4757817 5.1835661,18.1327004 C5.6712502,17.7320112 6.3566318,17.2779124 6.8904604,17.3537121 C7.74820535,17.4759247 7.55525795,17.0528454 7.04110865,16.8401397 C6.4398729,16.59105 5.5459362,17.0542448 5.34529805,17.181122 C5.14511235,17.307999 4.54025741,17.6359205 4.44457542,17.3679392 C4.34866724,17.1001912 4.17766113,16.9077764 4.39209736,16.7617744 C4.8392919,16.4576425 5.56471065,16.0105406 5.97458245,15.8059978 C6.27429555,15.6562642 6.24511595,15.4405264 5.69432245,15.3036203 C5.06390705,15.1468898 4.11025396,14.9934244 4.11025396,14.9934244 C4.0410372,14.6344834 3.8374585,14.3350161 3.59225927,14.2879037 M6.00670265,20.4255846 C6.5013989,20.7761294 6.7796231,20.9993304 6.7796231,20.9993304 C7.11982575,21.2225315 7.10218225,21.1035843 7.33629775,20.9356587 C7.6097718,20.7395122 8.10514665,20.2532276 8.27592655,20.077139 C8.58514,19.7583136 8.3179995,19.5124892 8.08546735,19.8320143 C7.6577259,20.4204536 7.0628237,20.7637682 7.0628237,20.7637682 L6.77736115,20.5676217 C7.24106815,20.153172 8.29108185,19.2379774 8.7041204,18.5564793 C8.82310085,18.3603329 8.58514,18.2131648 8.41865785,18.4338003 C7.8472803,19.1910982 6.49189855,20.3469861 6.49189855,20.3469861 L6.20643595,20.1508397 C6.5466386,19.8000618 7.03907285,19.4394881 7.22930585,19.1206627 C7.41275285,18.8134988 7.27409315,18.558112 7.00853605,18.9098228 C6.68213155,19.3415315 6.25393765,19.660357 6.25393765,19.660357 C5.94472425,19.9152774 5.5120064,20.0748067 6.00670265,20.4255846 M3.80398111,6.36671285 C3.76643215,6.3751091 3.72978798,6.38817 3.69404861,6.4044961 C4.61445053,5.3367691 3.34864342,4.5829697 2.94600999,5.94736525 C2.80961226,5.22528515 2.09550342,5.4781065 2.1923164,5.97745195 C2.24683025,6.25896055 2.26379514,6.77813055 2.26379514,7.03515005 C2.26379514,7.13637185 2.12129005,7.3605059 2.3174042,7.43094135 C2.52234009,7.5044088 2.64742789,7.52260075 2.78111124,7.6240558 C2.97745159,7.75256555 3.0697406,7.5585182 3.13805256,7.5135048 C3.3986333,7.3418475 3.69042943,7.24109215 3.99421409,7.1272759 C4.77912309,6.8327064 4.26791435,6.26572425 3.80398111,6.36671285 M11.5696038,5.7733757 C12.4363966,7.93448495 11.0190364,8.4585528 10.5955927,8.1478904 C8.36889415,11.734968 9.21646015,14.5160026 9.38950205,15.8169596 C10.0389181,20.6951985 7.90066315,21.3550062 7.1585057,21.9289853 C6.2772361,21.4984427 4.14350514,19.7098017 2.93741444,18.609889 C1.73154995,17.5099763 2.10251557,17.0701044 2.19548318,16.4483133 C2.28822459,15.826522 1.91725896,15.2429806 1.68517924,14.9082955 C1.45332572,14.5733772 1.36963225,14.3487767 0.442218176,12.8659003 C-0.485648299,11.3832571 0.386347133,11.0152201 0.896651075,11.0152201 C1.40695502,11.0152201 2.36942987,11.1978392 3.23305596,11.2722396 C3.51851854,11.2964955 3.81687443,11.5826688 3.58502091,11.9294818 C3.35316739,12.2762948 3.05956166,12.4775724 2.71687085,12.4570481 C2.41444339,12.4383897 2.30428468,12.0519276 2.74876485,11.9460412 C3.131719,12.029071 3.18374467,11.4963736 2.51532794,11.7088462 C2.0507161,11.8571805 1.88672215,12.8663667 2.82997013,12.743921 C3.6963106,12.6319706 4.11319453,11.8851681 3.99421409,11.321218 C4.13332621,11.2734058 4.7770873,10.8785474 4.93972406,10.4382091 C5.22541285,9.6657513 4.81802924,9.722193 4.63639179,10.1928511 C4.20842413,11.3027928 2.79400456,10.8906754 1.91703276,10.8141759 C1.40016906,10.7689292 1.52209008,10.7010593 1.43477744,10.4125538 C1.20292392,9.64732615 1.05906164,8.8963255 1.56936558,8.75288905 C1.98195174,8.63697375 2.94193842,8.8340531 3.31313024,8.92991065 C3.68409587,9.02553495 3.63772517,9.31240785 3.26675954,9.2645957 C2.89556771,9.21678355 2.71008489,9.599514 3.26675954,9.6951383 C3.82320799,9.7907626 4.14802911,9.50365645 4.10165841,9.2645957 C4.0552877,9.02553495 4.19439982,8.8340531 4.33373813,8.7864742 C4.47262404,8.73866205 4.58368754,8.40141145 4.61196236,8.2122619 C4.70470376,7.5904707 4.19439982,7.68656145 4.24077053,8.1166376 C4.26135459,8.3069533 3.9625463,8.59499235 3.68409587,8.4515559 C3.40587166,8.3078862 2.0516209,8.16444975 1.44857555,8.26007405 C1.03123922,7.8299979 1.2845816,7.39572365 1.42369371,7.204475 C1.56280582,7.0129932 1.6297606,6.3494538 1.44857555,5.935937 C0.8455302,4.55848056 2.23506793,4.05027236 2.79830233,4.01342202 C4.78771863,3.88351291 6.3548222,4.23125885 7.77489675,4.76722141 C8.49760115,5.08464745 8.9742015,5.68078335 9.38950205,6.25173045 C9.2583069,5.65419515 8.9574628,5.1082037 8.4700049,4.7376012 C7.7871115,4.25458185 6.60296205,3.90636945 5.886365,3.72701556 C5.886365,3.72701556 5.99403555,2.85706763 6.1887925,2.2553342 C6.3570842,1.73523128 6.66765485,1.33734088 6.7981714,0.981198655 C6.9727967,0.506342355 7.08634835,-0.0102621204 7.6547853,0.153698577 C9.9606534,0.819570255 11.973142,1.86140872 13.0401205,2.53077884 C12.9473791,2.67398207 11.8478279,5.15135125 11.5696038,5.7733757" id="path3282"></path>
                                    </g>
                                    <g id="g3284" transform="translate(10.179070, 5.630686)" fill="#E7A908">
                                        <path d="M0.904794225,1.86584009 C0.62521281,1.94420536 0.354226938,1.66246352 0.233210711,1.20603239 C0.112194483,0.749834485 0.187066205,0.291304283 0.466421422,0.212939 C0.746002835,0.134107256 0.992559265,0.479987361 1.11334929,0.93641849 C1.23436552,1.39261639 1.18414944,1.78700834 0.904794225,1.86584009" id="path3286"></path>
                                    </g>
                                    <g id="g3288" transform="translate(3.311954, 16.887182)" fill="#E7A908">
                                        <path d="M0.904794225,0.69969003 C0.6111885,0.64907912 0.262842722,0.537595175 0.201542913,0.44943423 C0.150874436,0.375966777 0.58585426,0.166992687 0.72994274,0.102154745 C0.87403122,0.0370835716 0.889186525,0.188216618 0.95206972,0.336784135 C1.01495292,0.485351651 1.19839995,0.750300945 0.904794225,0.69969003" id="path3290"></path>
                                    </g>
                                    <g id="g3292" transform="translate(19.013479, 21.119398)" fill="#F57215">
                                        <polygon id="path3294" points="1.80958844 1.16615005 0.196792744 1.16615005 1.22644857 0.0160928707 1.80958844 0.0160928707"></polygon>
                                    </g>
                                    <g id="g3296" transform="translate(23.592758, 10.174799)" fill="#F57215">
                                        <path d="M2.035787,1.39938006 C1.63699895,2.09044059 1.1273736,2.95199224 0.612998085,3.81307744 L0.177339667,2.59724939 C0.72790695,1.4455596 1.19839995,0.64091607 1.60759313,0.0744003735 L2.035787,1.39938006 L2.035787,1.39938006 L2.035787,1.39938006 Z" id="path3298"></path>
                                    </g>
                                    <g id="g3300" transform="translate(22.614788, 12.860512)" fill="#F57215">
                                        <path d="M0,2.56553011 C0.376620595,1.63144392 0.722930585,0.833097595 1.04277534,0.149500436 L1.46757623,1.33407566 C1.00454778,2.10746637 0.54536472,2.8684959 0.165803542,3.49355232 L0,2.56553011 L0,2.56553011 L0,2.56553011 Z" id="path3302"></path>
                                    </g>
                                    <g id="g3304" transform="translate(24.242991, 11.461692)" fill="#F57215">
                                        <path d="M1.80958844,2.0990701 L0.128933177,2.6105435 C0.632224965,1.76858317 1.13121897,0.9263896 1.52684025,0.241626291 L2.76595594,0.0093292004 C2.53998358,0.738639445 2.21425766,1.43693009 1.82768433,2.09743748 C1.82180317,2.09813718 1.81569581,2.09743748 1.80958844,2.0990701" id="path3306"></path>
                                    </g>
                                    <g id="g3308" transform="translate(20.624424, 7.761102)" fill="#F57215">
                                        <path d="M7.46455235,2.79876012 C6.7221687,7.70895155 1.31082063,11.4714181 0.661404575,12.1410214 L0.6421777,12.1118677 C0.628831985,11.959102 0.583592275,11.8163653 0.513244525,11.6897213 C0.72949034,11.4501941 1.05204948,11.142797 1.45242092,10.7616992 C3.50110125,8.8114298 7.3148089,5.1812047 6.8764361,0.87577869 L6.86512615,0.763828285 L6.76017005,0.793215265 C6.67692895,0.816538265 6.5927831,0.835196665 6.50366085,0.85455476 C5.34642905,1.11040808 3.90758005,1.43039965 0.3601081,11.4802808 C0.296546307,11.4133438 0.22393657,11.3555027 0.144767076,11.3081571 C0.339071635,10.5317344 0.53699537,9.8101207 0.73740729,9.13678565 C1.2049597,7.9589741 1.56574641,6.90080955 1.83967285,5.95109695 C4.36540593,-0.268914202 6.9535698,0.0307863614 7.55751995,0.0569081225 C7.37158475,0.503077135 7.6235699,1.74735924 7.46455235,2.79876012" id="path3310"></path>
                                    </g>
                                    <g id="g3312" transform="translate(21.272320, 15.583403)" fill="#F57215">
                                        <path d="M0.678595665,2.79876012 C0.469135804,2.99840501 0.283426791,3.17565982 0.121016228,3.33565561 C0.0563234405,3.39139758 0.0298582094,3.34661742 0.0409419386,3.29110867 C0.460314061,2.11562942 0.85005417,1.08078787 1.21219806,0.168858527 L1.3626201,1.01058564 C0.971975195,1.65336755 0.689227,2.11283067 0.616617265,2.2250143 C0.588116245,2.26886154 0.59987857,2.3283352 0.6424039,2.35772218 C0.684929225,2.38687593 0.74238366,2.37521442 0.771110875,2.33113395 C0.815445795,2.26209787 1.09231283,1.81149749 1.48883889,1.15938638 L2.59585462,0.88044329 C1.90753242,1.62841193 1.22871055,2.27492552 0.678595665,2.79876012" id="path3314"></path>
                                    </g>
                                    <g id="g3316" transform="translate(22.902287, 13.711499)" fill="#F57215">
                                        <path d="M0,2.79876012 C0.381596963,2.17043848 0.85028037,1.39494869 1.32348775,0.604765415 L3.02540568,0.086994794 C2.48456493,0.966271935 1.84283964,1.77488038 1.19749515,2.49696049 L0,2.79876012 L0,2.79876012 L0,2.79876012 Z" id="path3318"></path>
                                    </g>
                                    <g id="g3320" transform="translate(25.131019, 8.569804)" fill="#F57215">
                                        <path d="M2.035787,0.233230011 C2.09007466,0.22133528 2.14119553,0.20780794 2.1932212,0.195446749 C2.26650953,1.05839778 2.16404159,1.89499384 1.93897402,2.69543923 L0.76432492,2.91584159 C1.07964571,2.36588522 1.31308261,1.94280598 1.40310964,1.74339433 C1.42459851,1.69581541 1.40469303,1.63890729 1.35832233,1.61628397 C1.31172543,1.59412712 1.25653298,1.61488459 1.23481792,1.66269675 C1.14954106,1.85137982 0.926509285,2.25650035 0.62295082,2.78663216 L0.205840686,1.49617051 C1.00025002,0.464360951 1.55805565,0.338883205 2.035787,0.233230011" id="path3322"></path>
                                    </g>
                                    <g id="g3324" transform="translate(18.275190, 8.361366)" fill="#007F55">
                                        <path d="M0,0.93292004 C0.303784661,0.61572723 0.87222163,0.21387192 1.18641142,0.0286872913 C1.15745801,0.485584881 1.10882532,0.969070695 1.03259641,1.48240994 C1.00432159,1.67272563 0.96451064,2.07224865 0.92062812,2.59678293 C0.70189412,2.73415541 0.32097575,3.00983329 0.073740729,3.24213037 C0.0334773862,2.44168498 0.00904794225,1.65290109 0,0.93292004" id="path3326"></path>
                                    </g>
                                    <g id="g3328" transform="translate(18.046596, 5.755254)" fill="#007F55">
                                        <path d="M0.226198556,3.26522014 C0.2191864,2.30361282 0.242032454,1.48730778 0.294284321,0.960907645 C0.556448445,0.68989437 0.97582057,0.420513709 1.37121564,0.23136417 C1.43998001,0.86411719 1.46915962,1.5885296 1.42889628,2.40903278 C1.20156673,2.54990371 0.56255581,2.95549069 0.226198556,3.26522014" id="path3330"></path>
                                    </g>
                                    <g id="g3332" transform="translate(16.542805, 1.866122)" fill="#007F55">
                                        <path d="M2.035787,0.69969003 C1.96498686,0.594969755 1.94440279,0.496313462 1.83627988,0.531297965 C1.74580045,0.560684945 1.65464243,0.64837943 1.65192805,0.70108941 C0.506458565,3.38673298 0.209233664,6.5966776 0.77043228,10.2432288 C1.08959845,12.3168768 1.75711038,14.4070842 2.58069932,16.5126847 C2.3963475,15.6891495 2.80915986,8.94623675 2.94849817,8.00678625 C3.65333287,3.2493605 2.20362633,0.94644738 2.035787,0.69969003 M2.94940297,16.9838094 C2.99509508,17.1361085 3.02970345,17.2454935 3.05662109,17.3240919 C2.98468994,17.3896296 2.92203295,17.4658958 2.87045967,17.5503251 C1.69988214,15.9046541 -1.69467958,5.8932559 1.60600974,0.313927594 C1.73064515,0.071601613 1.98082076,0.0410484818 2.09505103,0.187750158 C2.6944772,0.776655935 3.83994668,3.81401036 3.4133362,6.27062205 C2.9604867,8.8760345 2.70194175,16.1546766 2.94940297,16.9838094" id="path3334"></path>
                                    </g>
                                    <g id="g3336" transform="translate(18.269811, 11.215215)" fill="#007F55">
                                        <path d="M0.904794225,0 C0.81725538,1.09174968 0.719311405,2.60774475 0.666154745,3.93925488 C0.633808355,4.27370671 0.449230332,4.37726084 0.384311346,4.042809 C0.252889986,3.01683018 0.155624607,1.8177947 0.091610415,0.63135364 C0.326856913,0.400689158 0.68719121,0.133174336 0.904794225,0" id="path3338"></path>
                                    </g>
                                    <g id="g3340" transform="translate(17.147072, 6.115783)" fill="#007F55">
                                        <path d="M0.904794225,3.03199014 L0.0787170975,2.44938157 C0.0827886715,1.65360077 0.135492935,0.88534112 0.237734682,0.144835837 C0.412359967,0.240460141 0.79395693,0.45992958 0.998214225,0.65794186 C0.93171185,1.24288273 0.900948845,2.0757471 0.904794225,3.03199014" id="path3342"></path>
                                    </g>
                                    <g id="g3344" transform="translate(17.416251, 4.647386)" fill="#007F55">
                                        <path d="M0,1.39938006 C0.0592640215,1.00755364 0.132552353,0.62389028 0.219638798,0.248156731 C0.37277522,0.062738873 0.584949465,-0.0200577809 0.869959645,0.568148305 L0.93193805,0.759396915 C1.11764707,0.403954378 1.57637773,-0.124311595 1.80054051,0.115215625 C1.86862627,0.418414638 1.92969988,0.755198775 1.97697538,1.12650095 C1.79782612,1.2263234 1.07150256,1.64007343 0.82200555,1.913419 C0.62792719,1.75622198 0.187292404,1.50433357 0,1.39938006" id="path3346"></path>
                                    </g>
                                    <g id="g3348" transform="translate(17.247527, 11.359771)" fill="#007F55">
                                        <path d="M0.904794225,0.69969003 C0.973332385,1.79540462 1.07625273,2.89928226 1.21332905,3.88164707 C1.24590165,4.16572121 1.03078682,4.13306902 0.96609403,3.8655542 C0.654166225,2.84260737 0.425479483,1.86490716 0.24904461,0.71951458 C0.21307904,0.484885191 0.180732646,0.251888412 0.151779231,0.021223931 C0.332285679,0.160695477 0.79373073,0.526866595 0.904794225,0.69969003" id="path3350"></path>
                                    </g>
                                    <g id="g3352" transform="translate(17.003820, 8.735072)" fill="#007F55">
                                        <path d="M1.13099278,3.03199014 C0.950260135,2.82208312 0.528399825,2.51561889 0.368251249,2.40226911 C0.27415265,1.58573084 0.22393657,0.792049115 0.220317394,0.0242559211 C0.442896772,0.180753258 0.8613641,0.480453821 1.0495613,0.6528108 C1.05679965,1.39774745 1.08416968,2.20915466 1.13099278,3.03199014" id="path3354"></path>
                                    </g>
                                    <g id="g3356" transform="translate(19.360606, 18.994882)" fill="#007F55">
                                        <path d="M0.904794225,0.466460021 C0.634713145,0.466460021 0.415526747,0.69222667 0.415526747,0.970936535 C0.415526747,1.2496464 0.634713145,1.47541305 0.904794225,1.47541305 C1.1748753,1.47541305 1.3940617,1.2496464 1.3940617,0.970936535 C1.3940617,0.69222667 1.1748753,0.466460021 0.904794225,0.466460021 M0.904794225,1.75925397 C0.482707718,1.75925397 0.140243104,1.40614373 0.140243104,0.970936535 C0.140243104,0.535729335 0.482707718,0.182852328 0.904794225,0.182852328 C1.32688073,0.182852328 1.66911915,0.535729335 1.66911915,0.970936535 C1.66911915,1.40614373 1.32688073,1.75925397 0.904794225,1.75925397" id="path3358"></path>
                                    </g>
                                    <g id="g3360" transform="translate(21.186840, 19.927522)" fill="#007F55">
                                        <path d="M1.13099278,1.63261008 C0.77359906,1.47797858 0.377072992,1.18970628 0.138885913,0.8610852 L0.377072992,0.165826538 L1.46079027,0.427277379 L1.13099278,1.63261008 L1.13099278,1.63261008 L1.13099278,1.63261008 Z" id="path3362"></path>
                                    </g>
                                    <g id="g3364" transform="translate(13.300814, 9.137016)" fill="#007F55">
                                        <path d="M3.16677978,3.96491018 C2.96546307,3.06487556 2.82544616,2.31317525 2.76799173,1.90665533 C2.76731313,1.90152427 2.76640834,1.89569353 2.76572974,1.89056246 C2.73519294,1.86584008 2.69266761,1.82642421 2.63340359,1.76834994 C2.56147245,1.6981477 2.46465947,1.59972464 2.32848794,1.46071955 C1.95277213,1.07752265 1.45151613,0.567448615 1.12081385,0.319758344 C0.94098599,0.66330615 0.321428148,1.8674727 0.227555747,2.3089771 C0.261033134,2.40460141 0.296772505,2.50069217 0.334095267,2.59701616 C0.364632072,2.67631437 0.39629987,2.75561258 0.429324859,2.83514401 C0.69058419,3.46743056 1.02467946,4.10927956 1.39654989,4.73806766 C1.46644524,4.85584882 1.53724539,4.97339675 1.60940273,5.09001175 C2.68588165,6.82990765 4.01208379,8.4312649 4.85128043,9.3833098 C4.20684074,8.0520329 3.62686765,5.9608926 3.23825853,4.27837131 C3.21382908,4.17225166 3.18985204,4.06753138 3.16677978,3.96491018 M0.0429777256,2.34792652 L0.0346083791,2.32343737 L0.0393585487,2.2980153 C0.133683347,1.77861206 0.971975195,0.200344579 1.00771457,0.133174336 L1.05566866,0.043147552 L1.13936213,0.0988895245 C1.48024335,0.326522015 2.04596594,0.90353306 2.4587783,1.32474646 C2.65263047,1.52229228 2.85258999,1.72660177 2.89511532,1.75272353 L2.93334287,1.77651299 C2.93764065,1.77884529 2.94352181,1.82455837 2.94352181,1.82455837 C3.10683717,3.06954017 4.30863009,8.6444371 5.4846364,10.2922072 C4.63096303,9.41199705 1.14727908,5.53548105 0.0429777256,2.34792652" id="path3366"></path>
                                    </g>
                                    <g id="g3368" transform="translate(9.935296, 5.167630)" fill="#E32739">
                                        <path d="M1.35719133,1.39938006 C1.23617511,0.94294893 0.98984488,0.597302055 0.710263465,0.67590057 C0.43068205,0.754499085 0.356036526,1.21302928 0.477052754,1.66899395 C0.59806898,2.12565831 0.868828655,2.40740017 1.14863626,2.32880165 C1.42799148,2.24996991 1.47798136,1.85581119 1.35719133,1.39938006 M1.27440266,2.80412441 C0.833994075,2.92820278 0.322559141,2.44588312 0.132099957,1.72706823 C-0.0583592275,1.0080201 0.14408848,0.324656175 0.58449707,0.200577809 C1.02467945,0.0764994435 1.53611439,0.558819105 1.72679977,1.27740077 C1.91725896,1.99644889 1.71481125,2.67981282 1.27440266,2.80412441" id="path3370"></path>
                                    </g>
                                    <g id="g3372" transform="translate(4.159542, 11.890812)" fill="#E32739">
                                        <path d="M2.035787,0.93292004 C1.44224199,0.6504785 0.832636885,0.66353938 0.90207984,1.01058563 C0.926735485,1.13349785 1.03598939,1.29792501 1.26264034,1.50666586 C1.03847757,1.49150592 0.887376935,1.60298986 0.82856531,1.73266575 C0.76590831,1.8714376 0.808659835,2.03120016 0.984416115,2.08087816 C1.32439255,2.17650245 1.47911236,2.27212676 1.88129339,2.36775107 C2.28302203,2.46337537 2.31401122,3.16493124 1.60284296,2.94173012 C0.891674705,2.71829577 -0.77834923,2.04892564 0.520482875,1.25174546 C0.0257866353,0.773390715 0.197471339,-0.341448735 2.31401122,0.295269193 C3.05616868,0.518470315 2.8188864,1.3056216 2.035787,0.93292004" id="path3374"></path>
                                    </g>
                                    <g id="g3376" transform="translate(13.553433, 11.854662)" fill="#E32739">
                                        <path d="M2.26198555,2.56553012 L1.14411229,2.02023835 C0.77201567,1.39168347 0.438146602,0.749601255 0.176661072,0.117547925 C0.466873819,0.22296789 1.24590164,0.517070935 1.60420015,0.761962445 C1.80370728,1.34783623 2.02900104,1.97335912 2.26198555,2.56553012" id="path3378"></path>
                                    </g>
                                    <g id="g3380" transform="translate(14.747716, 13.309107)" fill="#E32739">
                                        <path d="M2.26198555,3.49845016 C2.3488458,3.46090013 2.24185388,3.16679708 2.17060134,3.05624605 C1.93286666,2.68890879 1.60646215,1.93650878 1.27304547,1.07565681 C1.34407182,0.792515575 1.6602974,0.302032864 1.79126637,0.106119655 C2.18010168,1.78887418 2.76007478,3.87978122 3.40451446,5.2110581 C2.56531782,4.25924645 1.23888949,2.6578892 0.162636762,0.91799332 L1.18595903,1.40614373 C1.55534127,2.31410816 1.93671203,3.10755666 2.26198555,3.49845016" id="path3382"></path>
                                    </g>
                                    <g id="g3384" transform="translate(12.851449, 8.629300)" fill="#E32739">
                                        <path d="M3.39297833,2.33230011 C3.39297833,2.33230011 3.38709718,2.28658702 3.3827994,2.28425472 L3.34434565,2.26046526 C3.30204651,2.2343435 3.10186079,2.03003401 2.90823483,1.83248819 C2.49519627,1.4112748 1.92969988,0.834030515 1.58881865,0.606631255 L1.50512519,0.550889285 L1.4571711,0.64091607 C1.42143172,0.70785308 0.583139875,2.28635379 0.48858888,2.8055238 L0.484064909,2.8311791 L0.492434256,2.85543502 C1.5965094,6.0432228 5.08041955,9.9197388 5.9340929,10.7999488 C4.75786042,9.1519456 3.55629369,3.57704867 3.39297833,2.33230011 M6.4093361,11.3617999 C6.3548222,11.3692633 6.27316455,11.340576 6.14604095,11.2386545 C5.86781675,11.0152201 2.46104029,8.28806165 0.332511877,3.26965152 C0.104729931,2.7325228 0.085050657,2.95082609 0.301522675,2.34489452 C0.51822089,1.73919619 1.10565854,0.68709561 1.26015216,0.43194198 C1.41487196,0.177021578 1.39112112,0.0785985135 1.60759313,0.23836107 C2.3805136,0.9077312 2.99848806,1.58479792 3.24594928,1.77627976 C3.51535176,1.98432093 3.72096624,2.30174697 3.74109792,2.65648982 C3.78113506,3.35804569 5.12543305,9.61467395 6.4552544,10.9858332 C6.45887355,10.9895649 6.46136175,10.9928301 6.4647547,10.9963285 C6.42856295,11.1029147 6.4079789,11.2169641 6.4079789,11.3363779 C6.4079789,11.3450074 6.4091099,11.3534037 6.4093361,11.3617999" id="path3386"></path>
                                    </g>
                                    <g id="g3388" transform="translate(15.326988, 10.847504)" fill="#E32739">
                                        <path d="M0,1.63261008 C0.130290368,1.18154323 0.438146602,0.527799515 0.741705065,0.196146439 C0.799159495,0.602666345 0.939176405,1.35436667 1.14049312,2.25440128 C1.01088135,2.46220922 0.69872734,2.97368263 0.58608046,3.25612418 C0.384085148,2.72342683 0.182768433,2.1620422 0,1.63261008" id="path3390"></path>
                                    </g>
                                    <g id="g3392" transform="translate(13.367224, 9.431658)" fill="#E32739">
                                        <path d="M2.26198555,1.16615005 C2.39815709,1.30515514 2.49497007,1.40334497 2.56712741,1.47378044 C2.28189103,1.78537573 1.98036836,2.28985225 1.83763707,2.6905414 C1.54312655,1.82082669 1.31466601,1.08381986 1.24115147,0.781087305 C1.22871055,0.730009935 1.17849447,0.69899034 1.1287308,0.71181799 C1.07896711,0.72441241 1.04865651,0.776422705 1.06109743,0.827500075 C1.13755253,1.14212736 1.3789064,1.95726625 1.70056074,2.91817389 C1.34565521,2.6765476 0.57002036,2.40390172 0.26781909,2.30244667 C0.230496328,2.20588944 0.194756956,2.10979867 0.161053371,2.01417437 C0.255151971,1.57290319 0.874709815,0.368736646 1.05431147,0.0251888411 C1.38501375,0.272879112 1.88649596,0.782953145 2.26198555,1.16615005" id="path3394"></path>
                                    </g>
                                    <g id="g3396" transform="translate(19.586804, 19.304122)" fill="#E32739">
                                        <path d="M0.678595665,1.16615005 C0.408514592,1.16615005 0.189328191,0.9403834 0.189328191,0.66167354 C0.189328191,0.382963677 0.408514592,0.157197027 0.678595665,0.157197027 C0.948676745,0.157197027 1.16786315,0.382963677 1.16786315,0.66167354 C1.16786315,0.9403834 0.948676745,1.16615005 0.678595665,1.16615005" id="path3398"></path>
                                    </g>
                                    <g id="g3400" transform="translate(2.072929, 5.498488)" fill="#E32739">
                                        <path d="M2.035787,1.63261007 C1.73200234,1.74665955 1.44020621,1.84718169 1.17962547,2.0190722 C1.11131351,2.06385236 1.0190245,2.25813296 0.822910345,2.12962323 C0.6890008,2.02793494 0.563913,2.009743 0.358977108,1.93627554 C0.163089159,1.86584009 0.30536805,1.64193927 0.30536805,1.54048422 C0.30536805,1.28346475 0.288403159,0.764294745 0.233889307,0.483019352 C0.137076325,-0.0165593308 0.851185165,-0.269147432 0.987582895,0.452932681 C1.0020596,0.528499205 1.00997655,0.61479431 1.00997655,0.71275091 C1.00997655,0.93595203 0.903210835,1.45768757 0.903210835,1.45768757 C0.88511495,1.53138825 0.95206972,1.5442159 1.00092861,1.52252551 C1.18505424,1.43996208 1.42776529,1.04743597 1.73562152,0.90983027 C1.77158709,0.8937374 1.80800506,0.88044329 1.84555402,0.87228024 C2.30948726,0.771291645 2.82069599,1.33804057 2.035787,1.63261007" id="path3402"></path>
                                    </g>
                                    <g id="g3404" transform="translate(19.737880, 5.471436)"></g>
                                </g>
                            </g>
                        </g>
                    </g>
                </g>
            </g>
            <path d="M23.1520601,8.53899912 C23.0480088,8.73771108 22.9021107,9.42084179 22.7356286,10.3577267 L23.9724823,9.66689945 C23.9826612,8.96254482 23.9222662,8.38926545 23.8324654,7.92187251 L23.1520601,8.53899912 L23.1520601,8.53899912 L23.1520601,8.53899912 Z M23.4026881,6.52342536 L23.3938664,6.50173497 C23.1384882,6.84201756 22.9111587,7.20818868 22.7066752,7.59395112 L23.1027488,8.3290921 L23.7874519,7.70776736 C23.6677928,7.17693586 23.514204,6.79770385 23.4026881,6.52342536 L23.4026881,6.52342536 L23.4026881,6.52342536 Z M21.9127182,9.54212139 L22.54811,10.3546948 C22.7130087,9.42597284 22.8598116,8.73771108 22.9726847,8.48162453 L22.603981,7.79732768 C22.3291498,8.34751727 22.1018202,8.93479044 21.9127182,9.54212139 L21.9127182,9.54212139 L21.9127182,9.54212139 Z M21.4241293,11.5810182 L22.2113003,12.3928918 C22.3124111,11.7482441 22.4108075,11.1416128 22.5042275,10.6035512 L21.8457635,9.76159083 C21.6713644,10.3553944 21.5333833,10.9664571 21.4241293,11.5810182 L21.4241293,11.5810182 L21.4241293,11.5810182 Z M21.1712394,13.4860409 L21.9310403,14.2153511 C22.0129242,13.6754237 22.0948081,13.140394 22.1751085,12.6258886 L21.3843184,11.8107497 C21.291577,12.3716679 21.2219078,12.9337522 21.1712394,13.4860409 L21.1712394,13.4860409 L21.1712394,13.4860409 Z M21.0866411,17.9843481 C21.1029274,18.2686554 21.3094467,18.2565275 21.3417931,18.0559497 C21.4836196,17.1790049 21.6426371,16.1264378 21.8064049,15.0412186 C21.8364893,14.8422734 21.8665737,14.6426285 21.8966581,14.4434501 L21.1506553,13.727434 C21.0185553,15.3350884 21.0389132,16.8457191 21.0866411,17.9843481 L21.0866411,17.9843481 L21.0866411,17.9843481 Z M21.7577722,18.1947216 C22.4879412,16.4599568 22.9950783,14.9721825 23.3384477,13.694082 L22.0889269,14.4159289 C22.0556757,14.6353983 22.0221983,14.8541681 21.9896257,15.0706055 C21.825858,16.1555916 21.6668404,17.208625 21.5250139,18.0874357 C21.476155,18.3213654 21.6605068,18.4288845 21.7577722,18.1947216 L21.7577722,18.1947216 L21.7577722,18.1947216 Z M23.4063073,13.4356632 C23.5560507,12.8532879 23.671412,12.3159259 23.7573675,11.8203121 L22.3587818,12.6520103 C22.2811957,13.1499564 22.2027048,13.6635289 22.1251187,14.175702 L23.4063073,13.4356632 L23.4063073,13.4356632 L23.4063073,13.4356632 Z M23.9672797,9.8873018 L22.6933294,10.5988866 C22.5987785,11.1432454 22.4990249,11.7592059 22.3967831,12.408285 L23.797857,11.5751874 C23.8978368,10.9454664 23.9500886,10.3850147 23.9672797,9.8873018 L23.9672797,9.8873018 L23.9672797,9.8873018 Z M23.7082824,12.9990566 C23.6184815,13.3831865 23.5128468,13.7876073 23.3902472,14.2141849 C23.1163207,15.1638975 22.7553078,16.2220621 22.2877554,17.4001069 C22.0301153,18.0487195 21.7403549,18.7334828 21.4144028,19.4574288 C21.3426979,19.4406362 21.2680523,19.4308406 21.191371,19.4308406 C21.1194399,19.4308406 21.0490921,19.4390037 20.9814588,19.4536972 C20.9785182,19.402853 20.9751252,19.350143 20.9717322,19.2941678 C20.8290009,16.9984848 20.3944735,10.0116134 23.3456861,6.25077948 L23.4440824,6.1257682 C23.4443086,6.12670112 23.5037989,6.27550186 23.5037989,6.27550186 L23.5736942,6.44925822 C23.9116349,7.28002352 24.6323035,9.05210514 23.7082824,12.9990566 L23.7082824,12.9990566 L23.7082824,12.9990566 Z M23.3901351,14.2142527 C23.5129609,13.787675 23.6183694,13.3830209 23.7081703,12.9988911 C23.9999664,12.3129616 24.4111954,11.5094842 24.760446,10.974921 C25.0459085,8.87771675 24.749136,6.4073445 23.1392809,4.87618948 C23.0465395,5.51407355 22.6445847,6.1836769 22.3663604,6.72547025 C22.0793145,7.2847558 21.3149896,8.5430317 21.2532373,8.70256105 C21.2222481,9.46755545 20.8820455,11.3170695 20.7583149,12.7519005 C20.6345843,14.1867315 20.6345843,18.9373936 20.7275519,19.4157484 L20.9146181,19.4714903 C20.9367856,19.4649599 20.958953,19.4586627 20.9815729,19.4537648 C21.0489801,19.4388381 21.1193278,19.4306751 21.1914851,19.4306751 C21.2681665,19.4306751 21.3425858,19.4404707 21.4142907,19.4574965 C21.5147229,19.4808195 21.6088215,19.5195357 21.6952293,19.5713128 C21.7743988,19.6186585 21.8470086,19.6764995 21.9103442,19.7434365 C21.9696082,19.8059422 22.0211814,19.8766109 22.0637068,19.9528771 C22.1338283,20.079521 22.1792942,20.2222577 22.1924138,20.3750234 L22.2116406,20.4041771 C22.8612829,19.7345738 28.2726309,15.9721073 29.0150146,11.0619158 C29.1740322,10.0102817 28.922047,8.7662328 29.107756,8.3200638 C28.5040321,8.29394205 25.9158682,7.9942415 23.3901351,14.2142527 L23.3901351,14.2142527 L23.3901351,14.2142527 Z M19.5637603,2.55601734 C19.4497563,2.40908243 19.1993545,2.43963556 19.0747191,2.68219477 C15.7742559,8.2615231 19.1685915,18.2729213 20.3393952,19.918359 C20.3907423,19.8339298 20.4533993,19.7578968 20.5253304,19.6921259 C20.4984128,19.6137606 20.4638044,19.5041425 20.4183385,19.3518433 C20.1706511,18.5227106 20.4294222,11.2443017 20.8820455,8.638656 C21.3088822,6.1820443 20.1634127,3.14468988 19.5637603,2.55601734 L19.5637603,2.55601734 L19.5637603,2.55601734 Z M17.0233244,10.9075176 C16.7758631,10.716269 16.1581149,10.0392022 15.3849682,9.3698321 C15.1684962,9.2098363 15.192247,9.30825935 15.0377534,9.56317975 C14.8830336,9.81856665 14.295596,10.870434 14.079124,11.4761323 C13.8626519,12.0822971 13.8823312,11.8639938 14.109887,12.4011225 C16.2384154,17.4192995 19.6451918,20.146458 19.923416,20.3698923 C20.0505396,20.4718138 20.1321973,20.5005011 20.1867112,20.493271 C20.186485,20.4848747 20.185354,20.4764784 20.185354,20.4678489 C20.185354,20.3484352 20.205938,20.2343857 20.2421298,20.1275663 C20.2387368,20.1243011 20.2362486,20.1208026 20.2328557,20.117071 C18.9030344,18.7459118 17.5587363,12.4895167 17.518473,11.7877276 C17.4983413,11.433218 17.2927268,11.1157919 17.0233244,10.9075176 L17.0233244,10.9075176 L17.0233244,10.9075176 Z M16.8998199,4.94149388 C16.6736214,4.65975203 16.3033344,4.5242454 16.0916125,4.645525 C16.0687665,4.65835265 16.044337,4.67304614 16.0196814,4.68773963 C15.9384761,4.39806796 15.8063761,4.16647056 15.6211195,4.02093503 C15.4003497,3.84741191 15.1284591,3.817092 14.8748905,3.93813838 C14.3399309,4.19305878 13.984573,5.04061665 13.9246304,6.2051341 C13.8375439,7.88998765 13.5421286,8.28857775 12.8280198,9.25065155 C12.6269292,9.5214316 12.3991473,9.8285955 12.1338164,10.2187894 C10.8718546,12.0729679 10.9711558,13.5040673 11.5769156,17.1207651 C12.001264,19.6541094 11.6366319,20.3701256 11.1745083,21.2769238 C11.0093834,21.6008803 10.8223171,21.9682176 10.6571922,22.4440068 C10.4018141,23.1814801 10.4443394,23.7008833 10.7836372,23.987523 C11.2301531,24.3651224 11.9813585,24.1146334 12.349836,23.8863012 C12.4156598,23.8459524 12.4857813,23.8000061 12.5602007,23.7510278 C13.1865445,23.3398433 14.1334117,22.7182853 15.1402214,23.5229288 C15.5892255,23.8816366 15.9687867,24.0038491 16.3008462,23.8965633 C16.8629496,23.7148771 17.1033986,22.9554802 17.3359308,22.1923516 L17.3485979,22.1513031 C17.44903,21.8210495 17.6302151,21.5572663 17.8871766,21.4254914 C18.2796312,21.2239806 18.7677676,21.3937721 18.9665961,21.5103871 C19.0557184,21.5628638 19.1690439,21.5304449 19.2197123,21.4387855 C19.2701546,21.3468928 19.2391654,21.2594316 19.1500432,21.2071881 C18.8396988,21.0255019 18.1932233,20.8704039 17.7218255,21.1122635 C17.3712178,21.2920838 17.1264709,21.6032126 16.9943709,22.036554 L16.98193,22.0780689 C16.7778989,22.7472058 16.5673081,23.4391993 16.1900089,23.5607121 C15.9852992,23.6269494 15.7086583,23.5224624 15.3677771,23.2500497 C14.1542219,22.2802793 13.0315985,23.0172862 12.3609198,23.4576244 C12.2885362,23.5052034 12.2202243,23.5499835 12.1589245,23.5877668 C11.8069595,23.8056036 11.2647616,23.8995953 11.0188837,23.6917874 C10.8193766,23.5231621 10.815305,23.1257381 11.006669,22.5727498 C11.162746,22.1223826 11.3357879,21.783033 11.5029487,21.4546451 C11.7841134,20.9025897 12.0313484,20.4156054 12.1107442,19.6095625 C13.7086107,19.9643053 16.4001473,20.2136282 18.1889255,20.1662825 C18.2913935,20.1702474 18.3775751,20.0879172 18.3814205,19.9822641 C18.3854921,19.8768441 18.305644,19.7879835 18.203176,19.7837853 L18.203176,19.8131723 C16.1669366,19.8754447 13.7380166,19.6422147 12.1326854,19.25412 C12.1516861,18.6946012 12.0998866,17.9946779 11.9424524,17.0554606 C11.3561457,13.5539785 11.2563922,12.1739565 12.4371487,10.438492 C12.698408,10.0548287 12.9239279,9.75092995 13.1227565,9.4831819 C13.8640091,8.48449095 14.202176,8.0285263 14.2951436,6.2254251 C14.357122,5.0224247 14.7301234,4.42885432 15.0305151,4.28518463 C15.1605792,4.22314545 15.2834051,4.23667279 15.3960519,4.3253002 C15.5150324,4.4185922 15.6288103,4.61100696 15.6916935,4.90371062 C15.2711903,5.2106413 14.8167574,5.6745358 14.7927804,6.27113815 C14.7717439,6.78564355 14.9897993,6.91438655 15.1526623,6.93164555 C15.5695462,6.9764257 15.9855254,6.5199946 16.0556469,6.08758615 C16.1144586,5.72164825 16.1271257,5.383698 16.0963627,5.0860965 C16.1594721,5.04598095 16.2169265,5.0114629 16.2646544,4.98417498 C16.3155491,4.97274671 16.5268185,5.03128745 16.6636687,5.25682085 C16.9418929,5.71465135 16.6919435,6.4843104 15.977156,7.36848535 C15.6835503,7.7316245 15.35511,8.07400615 15.0370748,8.4047263 C14.6803597,8.7762617 14.3114299,9.16062475 13.9954305,9.5720425 C13.4141002,10.3288739 12.6181075,11.3658145 12.8427227,13.980323 L12.9675843,15.4685637 C13.0542183,16.526495 13.0612305,16.6130233 13.1569124,17.0069488 C13.2625472,17.4428557 13.4647687,17.9736872 13.828496,18.0273301 C14.1775203,18.0791072 14.4100524,17.6406347 14.4862814,17.5062943 C14.6853361,17.156216 14.8468419,17.0186103 14.9018081,17.0008848 C14.9212612,17.025374 14.9805252,17.12473 15.0072166,17.457316 C15.0866124,18.439914 15.2420108,18.8767538 15.5435334,18.9653812 C15.8394011,19.0521428 16.0993033,18.7480108 16.2689522,18.5117488 C16.3417881,18.4102938 16.5184492,18.1644693 16.6154884,18.0786407 C16.6785978,18.2008532 16.7641008,18.530174 16.8536754,18.8772203 L16.8993675,19.0533089 C16.9258328,19.1552304 17.0278484,19.2452572 17.1266971,19.2179693 C17.2255459,19.1904482 17.2841313,19.0854947 17.2578923,18.9833399 L17.2122001,18.8079509 C17.0140502,18.0415571 16.9398571,17.7549175 16.6896815,17.7057059 C16.454435,17.6592931 16.263071,17.906517 15.9710487,18.3135033 C15.7437191,18.62953 15.6457752,18.6269645 15.6450966,18.6267312 C15.6378582,18.6250986 15.4670783,18.5684237 15.3770513,17.4547504 C15.3521694,17.1440881 15.2843099,16.7228747 14.9864064,16.6529057 C14.7355522,16.5941317 14.4595899,16.8259623 14.1662104,17.3421003 C14.0218958,17.5960878 13.9192016,17.6543953 13.8812003,17.6487978 C13.8011259,17.6369031 13.63487,17.4011075 13.5167943,16.9143565 C13.4285769,16.5500512 13.4233743,16.4873123 13.3371927,15.4363779 L13.2123311,13.9467378 C13.0006092,11.4838289 13.7135871,10.5555735 14.2863218,9.8097039 C14.5894279,9.4148455 14.9350593,9.0549716 15.3010486,8.67410695 C15.6245125,8.33755605 15.9586078,7.98911045 16.2623924,7.6133769 C17.5223184,6.0544675 17.1278281,5.2253348 16.8998199,4.94149388 L16.8998199,4.94149388 L16.8998199,4.94149388 Z M8.69537215,0.65962412 C8.1269352,0.495663425 8.0133835,1.01226789 7.8387582,1.48735742 C7.70801545,1.84326642 7.39767105,2.24115682 7.2293793,2.76125975 C7.03462235,3.3632264 6.92695185,4.23294111 6.92695185,4.23294111 C7.64354885,4.41229499 8.8274721,4.76050739 9.51036555,5.24352675 C9.99804965,5.61412925 10.2986675,6.1601207 10.4300889,6.75765595 C10.0145621,6.1867089 9.53818795,5.590573 8.8154836,5.27314695 C7.39540905,4.7371844 5.82830545,4.38943844 3.83888917,4.51934757 C3.27565476,4.55619791 1.88611703,5.0644061 2.48916238,6.44186255 C2.67012122,6.85537935 2.60339265,7.51891875 2.46405434,7.71040055 C2.32494223,7.90164915 2.07182605,8.33592345 2.48916238,8.7662328 C3.09220773,8.6706085 4.44645849,8.81381175 4.7246827,8.95748145 C5.00313313,9.1009179 5.30194142,8.81287885 5.28135735,8.62256315 C5.23498665,8.192487 5.7452906,8.09639625 5.652323,8.71842065 C5.62404815,8.907337 5.51321087,9.24458755 5.37432496,9.29239975 C5.23498665,9.33997865 5.09564834,9.5314605 5.14224524,9.7707545 C5.18838974,10.009582 4.86379482,10.2966882 4.30734637,10.2010639 C3.75044553,10.1054396 3.93615454,9.7227091 4.30734637,9.7707545 C4.678312,9.81856665 4.7246827,9.5314605 4.35371707,9.4358362 C3.98252524,9.33997865 3.02231238,9.1428993 2.60995241,9.2588146 C2.09942227,9.40225105 2.24351075,10.1532517 2.47513807,10.9184794 C2.56267691,11.2072181 2.44075589,11.2748548 2.95761959,11.3201015 C3.83459139,11.3966009 5.24878476,11.8087183 5.67697865,10.6987767 C5.85861605,10.2281186 6.26577345,10.1716769 5.9803109,10.9443679 C5.81767415,11.3844729 5.17391304,11.7795646 5.03480092,11.8271435 C5.15378136,12.3913269 4.73689743,13.1378962 3.87055696,13.2498466 C2.92730898,13.3722923 3.09130294,12.3631061 3.55591477,12.2147718 C4.2241053,12.0022992 4.17230583,12.5349966 3.78935168,12.4519667 C3.34487151,12.5578531 3.45503021,12.9443153 3.75745768,12.9629737 C4.10014849,12.9837311 4.39375422,12.7822204 4.62560774,12.4354074 C4.85746126,12.0885943 4.55910537,11.8026544 4.27341659,11.7781652 C3.4100167,11.7037648 2.44731565,11.5211457 1.9372379,11.5211457 C1.42670776,11.5211457 0.554938531,11.8894159 1.48257881,13.3718259 C2.41021909,14.8547023 2.49391255,15.0793028 2.72576607,15.4142211 C2.95784579,15.7489061 3.32858522,16.3324476 3.23584381,16.9544721 C3.1431024,17.57603 2.77191057,18.0159018 3.97800127,19.1158146 C5.18409198,20.2157273 7.31759675,22.0046015 8.1990925,22.4349108 C8.94125,21.8609318 11.0795049,21.2011241 10.4300889,16.3228852 C10.2568208,15.0219282 9.409481,12.2408935 11.6359534,8.6540492 C12.0593971,8.96447835 13.4769834,8.4404105 12.6101905,6.2793012 C12.8884148,5.6572768 13.9879659,3.17990762 14.0807073,3.03670439 C13.0135026,2.36733426 11.0012402,1.3254958 8.69537215,0.65962412 L8.69537215,0.65962412 L8.69537215,0.65962412 Z M21.9555839,20.4678489 C21.9555839,20.0326417 21.6135716,19.6797647 21.1914851,19.6797647 C20.7691725,19.6797647 20.4267079,20.0326417 20.4267079,20.4678489 C20.4267079,20.9030561 20.7691725,21.2561664 21.1914851,21.2561664 C21.6135716,21.2561664 21.9555839,20.9030561 21.9555839,20.4678489 L21.9555839,20.4678489 L21.9555839,20.4678489 Z M21.7490646,22.7875546 L21.7490646,21.6374974 L21.1659248,21.6374974 L20.1362689,22.7875546 L21.7490646,22.7875546 L21.7490646,22.7875546 L21.7490646,22.7875546 Z M23.2437847,22.0622093 L23.5735822,20.8566434 L22.4898649,20.5951925 L22.2516778,21.2906844 C22.4898649,21.6193055 22.8866172,21.9075778 23.2437847,22.0622093 L23.2437847,22.0622093 L23.2437847,22.0622093 Z M29.2848695,9.1414999 C29.8738905,14.6074785 24.7432549,18.5000873 22.8058642,20.2327531 L24.0671474,20.5219583 L23.4177313,22.7315794 C23.4177313,22.7315794 22.5830587,22.1576004 22.1654961,21.8707274 L22.1654961,23.2097009 L19.706944,23.2097009 C19.706944,23.2097009 18.8256744,24.022974 17.2949888,25.218511 C15.764077,26.4142813 13.0508253,25.7337161 12.4801264,25.709227 C12.1469359,25.6845046 11.4728642,25.9028079 10.2204028,25.8071836 C8.08780285,25.644389 7.66096615,23.8230959 8.0319318,22.9622439 C6.59398755,21.9579555 2.38058707,18.8135485 2.61244059,17.7612147 C2.7680652,17.0556939 2.86940215,16.4663216 2.49821032,16.0360123 C2.3604554,15.8760165 2.17361539,15.2707846 1.0602661,13.5966596 C-0.26525743,11.6034759 1.32310882,10.9786527 1.96302454,10.9884484 C1.96302454,10.9884484 1.98994217,10.7971998 1.94176187,10.6791854 C1.78704206,10.3032186 1.70968216,9.29239975 1.89516498,9.05333895 C1.9372379,8.9992296 1.96664371,8.9705423 1.98700158,8.95538235 C1.97433447,8.9495516 1.95872677,8.9362575 1.94176187,8.9096693 C1.84879427,8.7662328 1.50157948,8.41662105 1.89516498,7.80975655 C2.36362218,7.08767645 1.89177199,6.73176745 1.84517509,6.30122485 C1.49456733,3.04673328 5.6208814,4.22617744 6.40850475,4.13171929 C6.4508039,3.76088357 6.5439977,3.14352373 6.75390995,2.56091517 C7.00408555,1.86612297 7.3598959,1.53446989 7.4646258,1.06987571 C7.591297,0.506858465 7.877212,-0.074350723 8.4356962,0.0613891435 C10.6157979,0.592220645 13.352348,1.87918385 14.6509539,2.74026905 C15.1148871,2.50074183 16.923797,2.30949322 17.8516635,2.40511752 C18.7793037,2.50074183 18.9978115,1.94285564 19.4753167,2.0226203 C19.6361439,2.13340456 19.7358974,2.4111815 19.872069,2.58237233 C20.8915459,3.86140571 21.3380618,6.88103465 21.2007593,8.29697405 C21.7413738,7.2350778 22.877343,5.55512205 22.9723464,4.51258389 C24.7837444,5.31349575 25.4272793,8.9992296 25.0219315,10.5742319 C26.5528433,8.379071 27.9466788,7.92613835 29.4307675,8.0744726 C29.4070167,8.1351124 29.2486777,8.80938035 29.2848695,9.1414999 L29.2848695,9.1414999 L29.2848695,9.1414999 Z" id="path3426" fill="#000000"></path>
            <path d="M15.2139206,6.55806006 C15.1974081,6.53776905 15.1560137,6.46989912 15.1634783,6.28728002 C15.1786336,5.91084679 15.4530124,5.58642384 15.7400584,5.34643016 C15.7443562,5.54304306 15.7307843,5.76601095 15.6902947,6.01859905 C15.5735763,6.37310867 15.4179517,6.62639646 15.2139206,6.55806006" id="path3438" fill="#231F20"></path>
            <path d="M9.68793233,9.65918 C9.24503556,10.1592251 8.57458304,11.6038518 9.90440435,12.8474342 C8.88832044,13.127077 7.49222295,10.3285501 9.68793233,9.65918" id="path3442" fill="#000000"></path>
            <path d="M7.29443767,20.1661921 C7.29443767,20.1661921 7.72263153,19.8473666 8.04903605,19.4156579 C8.31459315,19.0641803 8.45325287,19.3193339 8.26980584,19.6267311 C8.07957285,19.9455565 7.5871386,20.3058968 7.24693597,20.6566748 L7.53239855,20.8528212 C7.53239855,20.8528212 8.88778029,19.6971665 9.45915784,18.9398687 C9.62563998,18.7192331 9.86360087,18.8664012 9.74462042,19.0625477 C9.33158186,19.7438125 8.28156816,20.6592403 7.81786112,21.07369 L8.1033237,21.2698365 C8.1033237,21.2698365 8.6982259,20.9265219 9.12619357,20.3378493 C9.35849949,20.0185575 9.62563998,20.2641487 9.31642655,20.5832073 C9.14564664,20.759296 8.65027181,21.2453473 8.37679775,21.4414938 C8.14290845,21.6094194 8.16032574,21.7283667 7.82012311,21.5053988 C7.82012311,21.5053988 7.54189889,21.2821977 7.04720265,20.9314197 C6.5525064,20.5806418 6.98522424,20.4213457 7.29443767,20.1661921" id="path3446" fill="#000000"></path>
            <path d="M6.49805822,16.2271681 C6.74551944,16.0995913 6.74551944,16.1315438 6.46706902,16.0359195 C6.1888448,15.9402952 5.26572849,15.8383736 5.26572849,15.8383736 C5.29671769,15.9659505 5.29671769,16.1952156 5.26572849,16.2910731 C5.23496549,16.3866974 5.29671769,16.6686725 5.29671769,16.6686725 C5.29671769,16.6686725 6.250597,16.3547449 6.49805822,16.2271681 M4.96782499,17.4912747 C4.82396271,17.5561127 4.38875669,17.7650868 4.43942517,17.8385542 C4.50072497,17.9269484 4.84907075,18.0381991 5.14267648,18.08881 C5.4362822,18.1394209 5.25306137,17.8744716 5.18995197,17.7261374 C5.12706878,17.5775698 5.11191347,17.4264368 4.96782499,17.4912747 M7.93102607,17.8597781 C7.39719748,17.7837452 6.71181586,18.237844 6.22413177,18.6385332 C5.80656924,18.9816145 4.99904039,19.1171211 4.40730497,18.865466 C3.81556955,18.6138108 4.09537716,18.2133548 4.32315911,18.0251382 C4.32315911,18.0251382 4.4034596,17.8565129 4.04697067,17.5827009 C3.63031293,17.2629426 4.15056961,17.157989 4.61269326,16.9923957 C4.42834144,16.6971266 4.5285474,16.152068 4.57763248,15.8493355 C3.96938457,15.8215811 3.66288553,15.7429826 3.72350674,15.6063098 C3.77236563,15.4955255 4.26660947,15.4178599 4.53555955,15.4733687 C4.559989,15.3220024 4.39531645,14.7484898 4.63282493,14.7937364 C4.87802417,14.8408489 5.08137667,15.1405495 5.15081962,15.4994904 C5.15081962,15.4994904 6.10424654,15.6529558 6.73488811,15.8096864 C7.28568159,15.9463591 7.31486121,16.1623301 7.01514812,16.3118306 C6.60527634,16.5163733 5.87985757,16.9634752 5.43266302,17.2678404 C5.21822679,17.4136091 5.3892329,17.6060239 5.48491489,17.8740052 C5.58082308,18.1417532 6.18567802,17.8140651 6.38586374,17.6869547 C6.58650186,17.5600776 7.48043855,17.097116 8.08167431,17.3462057 C8.59582365,17.5589114 8.788771,17.9817574 7.93102607,17.8597781" id="path3450" fill="#000000"></path>
        </g>
    </g>
</svg>