<?xml version="1.0" encoding="UTF-8"?>
<svg width="30px" height="30px" viewBox="0 0 30 30" version="1.1" xmlns="http://www.w3.org/2000/svg" xmlns:xlink="http://www.w3.org/1999/xlink">
    <!-- Generator: Sketch 50.2 (55047) - http://www.bohemiancoding.com/sketch -->
    <title>bluejackets</title>
    <desc>Created with Sketch.</desc>
    <defs></defs>
    <g id="bluejackets" stroke="none" stroke-width="1" fill="none" fill-rule="evenodd">
        <g id="Silver_BG" transform="translate(0.004982, 2.042847)" fill="#A7B1B7">
            <path d="M14.9078644,0.0927457625 L13.5880678,2.85457627 C11.6246441,3.03498305 8.7800339,3.76342373 6.2377627,5.10935595 C2.92535593,6.86277965 0.0967118645,9.72071185 0.0967118645,13.154644 C0.0967118645,18.0565424 4.79562712,19.4105084 5.2782712,19.6696271 L3.11725423,24.999356 L8.8224407,20.4844068 C11.9000339,20.9232204 15.8487458,20.7032543 17.8801017,20.3447796 L24.1219322,25.8286779 L21.9918305,19.416 C21.9918305,19.416 23.5344407,18.8946101 24.0732203,18.5943051 L29.8622034,5.26688135 C25.1421356,8.0260678 20.8947457,9.6555254 20.8947457,9.6555254 L29.1234916,3.53430509 L23.9264746,4.41884746 C23.9264746,4.41884746 21.0140339,2.50779661 15.7890508,2.66511865 L14.9078644,0.0927457625 L14.9078644,0.0927457625 L14.9078644,0.0927457625 Z" id="path7"></path>
        </g>
        <g id="Blue_BG" transform="translate(0.513457, 3.364881)" fill="#00285D">
            <path d="M28.2836949,5.15054235 C23.9765085,7.55125425 21.0135254,8.76925425 17.9624746,9.88138985 L17.782983,9.3476949 L27.091322,2.88284746 L16.7538305,5.52945765 L22.5278644,3.19759322 C22.5278644,3.19759322 19.7452882,1.60922034 14.9126441,1.85033899 L14.3184407,0.0868474575 L11.0982712,6.77115255 L6.2118305,8.1559322 L10.7330847,6.3020339 L12.8194577,2.04579661 C12.238983,2.13610169 11.6206779,2.24094916 10.989661,2.3859661 C4.83671186,3.8001356 0.0811525425,7.69922035 0.0811525425,11.7980339 C0.0811525425,16.1384746 3.90833898,17.5154238 5.4441356,18.0449492 L3.42559322,22.4792543 L8.16528815,18.6316271 C11.4242034,19.1203729 15.375661,18.9410848 17.5400339,18.5012542 L22.792678,23.1736271 L20.8250847,17.7588813 C20.8250847,17.7588813 21.9884746,17.4638644 23.1806441,16.9044407 L28.2836949,5.15054235 L28.2836949,5.15054235 L28.2836949,5.15054235 Z M8.51074575,11.4066102 C6.936,11.197017 6.4543729,10.6529491 6.4543729,10.2155593 C6.4543729,10.0525423 6.5317627,9.86522035 6.5317627,9.86522035 L8.91071185,10.5291864 L8.51074575,11.4066102 L8.51074575,11.4066102 L8.51074575,11.4066102 Z" id="path10"></path>
        </g>
        <g id="Red" transform="translate(1.327016, 5.602169)" fill="#E13A3E">
            <path d="M22.3183729,6.1762373 C16.9492882,8.964 12.2563729,10.0665763 9.24732205,10.0665763 C5.2659661,10.0665763 3.48172881,8.1682373 3.48172881,6.97332205 C3.48172881,4.12515254 7.73461015,1.89925423 11.4151526,1.01359322 L11.7178983,0.395898305 C8.63664405,0.960101695 5.1582712,2.24023729 3.16942373,4.05925424 C1.23040678,5.36277965 0.0121016949,7.30922035 0.0121016949,9.55149155 C0.0121016949,12.8511865 2.74861017,15.9434237 11.2135932,15.9434237 C16.6069831,15.9434237 20.3385762,14.7973221 21.6040678,14.1619322 C16.2974238,14.1293899 10.8714916,12.5487458 10.8714916,12.5487458 C10.8714916,12.5487458 17.780339,9.89277965 22.3183729,6.1762373 L22.3183729,6.1762373 L22.3183729,6.1762373 Z" id="Banner"></path>
            <path d="M14.4378305,0.59776271 C14.4384407,0.59776271 14.4391526,0.597661015 14.4398644,0.597661015 C14.9898305,0.55240678 15.5444746,0.528915255 16.0992204,0.528915255 C18.4483729,0.528915255 20.012644,0.90844068 20.012644,0.90844068 C20.012644,0.90844068 18.3423051,0.0726101695 14.9287119,0.0726101695 C14.7195254,0.0726101695 14.5028136,0.078101695 14.2796949,0.088779661 L14.4378305,0.59776271 L14.4378305,0.59776271 L14.4378305,0.59776271 Z" id="Banner_Tip"></path>
        </g>
        <g id="White" transform="translate(1.327016, 9.568270)" fill="#FFFFFF">
            <path d="M14.4740339,9.42122035 L14.4740339,9.42122035 C14.4740339,9.42122035 12.5618644,9.72325425 10.2154576,9.72325425 C0.961118645,9.72325425 0.319118644,5.0637966 0.319118644,3.68227119 C0.119898305,4.28125424 0.0134237288,4.91471187 0.0122033898,5.5737966 C0.0178983051,5.67061015 0.374135593,10.9780678 10.6025085,10.9780678 C14.8038305,10.9780678 18.307017,10.0007797 18.307017,10.0007797 L18.307017,10.0007797 C16.9148136,9.85261015 15.6,9.6384407 14.4740339,9.42122035 L14.4740339,9.42122035 L14.4740339,9.42122035 Z" id="Low_Stripe"></path>
            <path d="M18.2817966,4.97176271 C18.2588135,4.98081356 12.6475932,7.1977627 8.7584746,7.1977627 C4.28430508,7.1977627 2.24877966,4.64542373 2.24877966,2.64061017 C2.24877966,1.25013559 3.16942373,0.0932542375 3.16942373,0.0932542375 C3.13962712,0.11338983 3.10983051,0.133627119 3.08033899,0.153966102 C3.06762712,0.163525423 1.45311864,1.38823729 1.45311864,3.31454237 C1.45311864,6.4496949 4.54291525,8.1700678 8.142,8.1700678 C10.1842373,8.1700678 12.2401017,7.8115932 13.447017,7.4776271 C14.7968135,6.8575932 16.5305084,6.00142375 18.2817966,4.97176271 L18.2817966,4.97176271 L18.2817966,4.97176271 Z" id="Top_Stripe"></path>
        </g>
        <g id="Stars" transform="translate(23.649050, 11.398779)"></g>
        <g id="Dot" transform="translate(20.038880, 14.653016)"></g>
        <g id="Star" transform="translate(5.598203, 5.805559)">
            <g id="Grey" fill="#A7B1B7">
                <path d="M14.1295932,16.7987797 L14.1295932,16.7987797 L15.8797627,18.1748135 L14.9894238,15.8124407 C14.1124068,16.0329152 14.1295932,16.7987797 14.1295932,16.7987797 L14.1295932,16.7987797 L14.1295932,16.7987797 Z" id="path20"></path>
                <path d="M4.4401017,9.0458644 C4.59610169,9.05105085 4.75911865,9.0538983 4.92986441,9.0538983 C7.48322035,9.0538983 10.4720339,8.22050845 11.9511865,7.7516949 L11.5115593,6.58525425 L17.9574916,2.35677966 L10.3866101,4.194 L9.05461015,0.0185084746 L6.9382373,5.06471185 L1.18220339,6.5180339 L5.21511865,7.4977627 L4.4401017,9.0458644 L4.4401017,9.0458644 L4.4401017,9.0458644 Z" id="path22"></path>
                <path d="M1.03088135,15.8563729 L1.03088135,15.8563729 L0.074237288,17.7674237 L1.85867797,16.4287118 C1.85867797,16.4285084 1.68315254,15.8527119 1.03088135,15.8563729 L1.03088135,15.8563729 L1.03088135,15.8563729 Z" id="path24"></path>
            </g>
            <g id="White_1_" transform="translate(0.406780, 0.711865)" fill="#FFFFFF">
                <polygon id="polygon27" points="8.6456949 0.0190169492 9.6844068 3.56776271 7.5536949 4.94440678"></polygon>
                <polygon id="polygon29" points="1.94593221 5.71728815 6.63874575 4.44223729 7.5536949 4.94440678"></polygon>
                <g id="g31" transform="translate(0.000000, 4.881356)">
                    <path d="M0.76922034,10.2729153 L0.050338983,11.6812882 L0.93457627,10.3119661 C0.88423729,10.2944746 0.829118645,10.2811525 0.76922034,10.2729153 L0.76922034,10.2729153 L0.76922034,10.2729153 Z" id="path33"></path>
                    <path d="M4.52318644,3.46067796 C4.80376271,3.46067796 5.0895254,3.45050847 5.3779322,3.432 L7.5536949,0.0629491525 L5.02525425,1.93505084 L4.24779661,3.45813559 C4.33738983,3.45976271 4.42911864,3.46067796 4.52318644,3.46067796 L4.52318644,3.46067796 L4.52318644,3.46067796 Z" id="path35"></path>
                </g>
                <g id="g37" transform="translate(7.525423, 4.881356)">
                    <path d="M7.4222034,11.8605762 L6.5499661,10.4688814 C6.38115255,10.612678 6.29318645,10.7824068 6.24722035,10.9227458 L7.4222034,11.8605762 L7.4222034,11.8605762 L7.4222034,11.8605762 Z" id="path39"></path>
                    <path d="M1.74101695,2.79589831 L0.0282711864,0.0630508475 L0.0282711864,3.15864407 C0.62338983,3.05237288 1.20213559,2.92677966 1.74101695,2.79589831 L1.74101695,2.79589831 L1.74101695,2.79589831 Z" id="path41"></path>
                </g>
                <polygon id="polygon43" points="7.5536949 4.94440678 10.9350508 5.661661 16.3815254 2.27227119"></polygon>
            </g>
        </g>
        <polygon id="polygon46" fill="#FFFFFF" points="15.185389 17.4503383 14.9849483 17.6925756 14.6669483 17.73244 14.8767449 17.8330163 14.6815924 18.0917281 15.0159653 17.919762 15.2433551 18.0878637 15.2054229 17.8189824 15.5019653 17.645796 15.1938297 17.6769146"></polygon>
        <polygon id="polygon48" fill="#FFFFFF" points="16.9034229 17.8250841 16.7241347 18.0368129 16.4206771 18.0694569 16.6100331 18.1794908 16.4206771 18.4116603 16.7269822 18.2618637 16.9442025 18.4238637 16.9163381 18.1612874 17.2048466 18.0064061 16.9047449 18.019118"></polygon>
        <polygon id="polygon50" fill="#FFFFFF" points="17.5539653 16.3138976 17.3447788 16.5798298 17.0296263 16.6111519 17.2325076 16.728101 17.0365415 16.9818299 17.3718297 16.8052875 17.6068466 16.9805078 17.5646432 16.6966773 17.8661687 16.5269485 17.5592534 16.552779"></polygon>
        <polygon id="polygon52" fill="#FFFFFF" points="19.278711 16.5124061 19.0845754 16.759118 18.7925076 16.788101 18.9806432 16.8966095 18.798711 17.1318298 19.1096941 16.9682027 19.3276263 17.1306095 19.2886771 16.867423 19.5682364 16.7099994 19.2835924 16.7338976"></polygon>
        <polygon id="polygon54" fill="#FFFFFF" points="18.6041687 18.0714908 18.4111517 18.2907451 18.133728 18.305796 18.3006093 18.4212197 18.1161348 18.6520672 18.4270161 18.4890502 18.6469822 18.656135 18.6061008 18.4035247 18.8831178 18.2466095 18.6101686 18.2656264"></polygon>
        <polygon id="polygon56" fill="#FFFFFF" points="20.7665077 18.2406095 20.537389 18.5035925 20.2098297 18.5365417 20.4162704 18.6533891 20.2071856 18.9113891 20.5601687 18.7294569 20.8046432 18.9168807 20.7665077 18.6289824 21.0951856 18.4551858 20.7612195 18.4687112"></polygon>
        <polygon id="polygon58" fill="#FFFFFF" points="19.9972873 14.8208129 19.7815924 15.1018976 19.404711 15.1466434 19.6348466 15.2688807 19.4066432 15.5703044 19.7976602 15.35644 20.070711 15.558101 20.0198636 15.2382705 20.3762026 15.0305078 20.0116263 15.0712875"></polygon>
        <polygon id="polygon60" fill="#FFFFFF" points="23.1443381 18.1550841 22.8428127 18.5013552 22.3865076 18.5501688 22.6757279 18.6928468 22.392711 19.059457 22.8659991 18.8062366 23.1950839 19.0655586 23.1400669 18.6703722 23.5902703 18.434135 23.1400669 18.4543722"></polygon>
        <polygon id="polygon62" fill="#FFFFFF" points="23.9956262 16.0543722 23.7322364 16.3911858 23.3139652 16.4373552 23.5748127 16.5758637 23.3085754 16.9179654 23.7539991 16.6789824 24.0539991 16.8949824 23.9924737 16.5479993 24.4247788 16.3042366 23.9915584 16.3538637"></polygon>
        <polygon id="polygon64" fill="#FFFFFF" points="24.7126771 13.9632197 24.4416601 14.3115248 23.9874907 14.3645078 24.2646093 14.5111519 23.9874907 14.8778637 24.4682025 14.6211858 24.8022703 14.8675926 24.7308805 14.4764739 25.1687788 14.2259993 24.7329144 14.266779"></polygon>
        <polygon id="polygon66" fill="#FFFFFF" points="22.6921008 13.0833553 22.480372 13.47244 22.0157279 13.566101 22.3355584 13.7066434 22.1196601 14.0874909 22.5677279 13.7840332 22.9791856 14.0060332 22.8305076 13.6190841 23.213694 13.3175587 22.7674568 13.405118"></polygon>
        <polygon id="polygon68" fill="#FFFFFF" points="25.4424399 11.4464739 25.122406 11.898101 24.5537279 11.9658298 24.941694 12.1549824 24.6159652 12.6281688 25.194711 12.2978637 25.6292534 12.5985756 25.5226771 12.1051519 26.0488466 11.7879654 25.49105 11.8542705"></polygon>
        <path d="M20.1174902,16.6681007 C20.1174902,16.9206092 20.3049139,17.6620668 21.1928122,17.6620668 C22.1624732,17.6620668 23.1809478,16.7251516 23.1809478,15.7882363 C23.1809478,15.2097957 22.773558,14.7454567 22.1299308,14.7454567 C20.8915919,14.7454567 20.1174902,15.9348804 20.1174902,16.6681007 L20.1174902,16.6681007 L20.1174902,16.6681007 Z" id="White_2_" fill="#FFFFFF"></path>
        <path d="M20.4107783,16.5432194 C20.4107783,16.9776601 20.6931851,17.3905414 21.2309478,17.3905414 C22.0837614,17.3905414 22.8739309,16.5862363 22.8739309,15.807355 C22.8739309,15.3972194 22.5559308,14.9831177 22.0402359,14.9831177 C21.1237614,14.983016 20.4107783,15.9336601 20.4107783,16.5432194 L20.4107783,16.5432194 L20.4107783,16.5432194 Z" id="Red_1_" fill="#E13A3E"></path>
    </g>
</svg>