<?xml version="1.0" encoding="UTF-8"?>
<svg width="30px" height="30px" viewBox="0 0 30 30" version="1.1" xmlns="http://www.w3.org/2000/svg" xmlns:xlink="http://www.w3.org/1999/xlink">
    <!-- Generator: Sketch 50.2 (55047) - http://www.bohemiancoding.com/sketch -->
    <title>blues</title>
    <desc>Created with Sketch.</desc>
    <defs></defs>
    <g id="blues" stroke="none" stroke-width="1" fill="none" fill-rule="evenodd">
        <path d="M5.287,3 C5.287,3 6.435625,4.722125 6.771875,5.604125 C6.784625,5.6345 6.792125,5.676875 6.802125,5.7055 C6.874125,5.912375 6.8725,6.109125 6.820375,6.181 C6.697125,6.35125 6.490375,6.426625 5.999125,6.41425 L3.857,3 L0,3 L9.025125,17.66875 C8.9105,17.664875 8.796625,17.66275 8.68475,17.66275 C6.97625,17.66275 5.37925,18.1005 4.18825,18.895 C2.791875,19.8265 2.083875,20.994875 2.083875,22.367375 C2.083875,23.689875 2.833875,24.918375 4.1955,25.8265 C5.378375,26.6155 6.972875,27.05 8.685125,27.05 C10.351125,27.05 11.936375,26.604375 13.149,25.795125 C14.50275,24.89175 15.248375,23.676125 15.248375,22.37175 C15.248375,21.78175 15.091875,21.212125 14.755875,20.57875 L14.74025,20.549375 L12.634375,17.187 C13.041375,17.254875 13.445,17.2615 13.739875,17.2615 C14.321875,17.2615 14.80025,17.17375 14.819125,17.16975 C14.981625,17.135625 15.441875,17.030875 15.441875,17.030875 L14.852625,16.174875 C15.073375,16.19025 16.250625,16.249125 17.28775,16.17975 C18.012125,16.131375 18.668125,15.96775 18.883,15.906875 C19.070625,15.85375 19.625,15.65125 19.625,15.65125 L18.87075,14.902625 C19.6845,14.889625 20.522625,14.693875 21.62225,14.192375 C23.416875,13.374 24.437125,12.193125 24.80875,11.7105 L24.6135,11.7105 C24.891625,11.553875 25.212375,11.3465 25.4785,11.129125 C25.992875,10.709125 26.366875,10.285625 26.646375,9.843125 C26.76025,9.662625 26.87125,9.48275 26.947375,9.32875 C27.05475,9.111375 27.105375,8.95 27.105375,8.95 L26.896375,8.95 C27.056125,8.81775 27.55575,8.355625 27.908375,7.711125 C28.0725,7.411375 28.2075,7.0675 28.293875,6.7965 C28.377,6.535625 28.414625,6.341625 28.414625,6.341625 L28.085875,6.341625 C28.442625,6.091875 28.999375,5.549 29.42025,4.767 C29.62425,4.387875 29.783375,3.97375 29.87675,3.630625 C29.97275,3.276875 30,3 30,3 L5.287,3 L5.287,3 L5.287,3 Z" id="path5" fill="#0F1F48"></path>
        <path d="M6.006625,3.436625 L6.307625,3.872375 C6.313875,3.8815 6.938375,4.790125 7.2055,5.55775 C7.332875,5.92375 7.283,6.274 7.2295,6.372 C7.008125,6.776875 6.2195,6.82075 5.89075,6.82075 C5.843875,6.82075 5.79625,6.819875 5.749,6.818125 L3.616125,3.436625 L0.78125,3.436625 L9.8455,18.168875 C9.4655,18.1235 9.06825,18.099375 8.68475,18.099375 C7.0615,18.099375 5.550625,18.510875 4.4305,19.25825 C3.163125,20.10375 2.5205,21.149875 2.5205,22.367375 C2.5205,23.53925 3.201375,24.638625 4.43775,25.46325 C5.54975,26.205 7.058125,26.613375 8.685125,26.613375 C10.26575,26.613375 11.765,26.193875 12.906625,25.431875 C14.135125,24.612125 14.811625,23.525375 14.811625,22.371875 C14.811625,21.856 14.67125,21.35125 14.370125,20.783625 L14.361875,20.768 L11.6955,16.5105 C12.014625,16.594125 13.200375,16.824875 13.739875,16.824875 C14.279375,16.824875 14.692625,16.7305 14.692625,16.7305 L13.9235,15.64625 C14.239875,15.666375 15.472,15.810375 16.601375,15.759625 C17.81075,15.70525 18.277625,15.58925 18.80125,15.462625 L17.893125,14.509875 C18.667125,14.495875 19.922375,14.473 21.4245,13.787875 C22.8175,13.15275 23.654125,12.289375 24.03625,11.793125 L23.248875,11.793125 C24.0065,11.57975 24.598,11.284375 25.202375,10.79075 C26.062625,10.08825 26.411375,9.259125 26.411375,9.259125 L25.589375,9.257375 C25.720875,9.173625 26.024875,9.017125 26.3635,8.761125 C26.6745,8.526 27.009625,8.197 27.266,7.877875 C27.43425,7.6685 27.744625,7.145125 27.800875,6.65225 L26.960125,6.651 C27.310875,6.3985 28.189875,5.7435 28.755125,4.935375 C28.970125,4.628125 29.157,4.27525 29.26125,3.987625 C29.3755,3.672625 29.396875,3.436375 29.396875,3.436375 L6.006625,3.436625 L6.006625,3.436625 L6.006625,3.436625 Z" id="path7" fill="#FFFFFF"></path>
        <path d="M6.53625,3.7145 C6.53625,3.7145 7.18475,4.65275 7.467875,5.4665 C7.62175,5.908625 7.5645,6.338375 7.47325,6.505375 C7.191125,7.0215 6.360625,7.098625 5.890625,7.098625 C5.76925,7.098625 5.665375,7.093375 5.5905,7.088125 L3.462875,3.7145 L1.278625,3.7145 L10.397125,18.535 C9.860875,18.431625 9.2525,18.37725 8.684875,18.37725 C7.1435,18.37725 5.682875,18.756875 4.584875,19.48925 C3.39175,20.28525 2.7985,21.241375 2.7985,22.36725 C2.7985,23.456375 3.4595,24.4765 4.592,25.231875 C5.6895,25.963875 7.1435,26.335375 8.68525,26.335375 C10.2285,26.335375 11.6555,25.932625 12.7525,25.200625 C13.884,24.445625 14.533875,23.461 14.533875,22.371625 C14.533875,21.903 14.403875,21.439625 14.12475,20.9135 L14.120625,20.905625 L11.120375,16.027125 C11.881,16.253625 13.0605,16.561875 13.730375,16.5315 L14.2635,16.50725 L13.938,16.084375 C13.93425,16.079625 13.667125,15.7315 13.438375,15.3605 C14.084,15.408875 15.231875,15.481875 16.26025,15.481875 C16.637875,15.481875 17.288,15.455125 17.758125,15.4105 C18.077375,15.380125 18.317625,15.326125 18.317625,15.326125 L17.3205,14.268625 C17.382375,14.269625 17.447625,14.27025 17.516,14.27025 L17.51625,14.27025 C18.23525,14.27025 19.843125,14.210375 21.193125,13.60925 C21.893,13.2975 22.520125,12.90775 22.94475,12.542375 C23.292375,12.24325 23.504875,11.932 23.504875,11.932 L22.329125,11.932 C23.354375,11.60175 24.260125,11.22325 25.09675,10.53275 C25.435875,10.25275 25.656875,9.9135 25.7695,9.699125 C25.824625,9.593875 25.847125,9.515375 25.8575,9.495125 L24.67725,9.495125 C24.785375,9.436625 26.016875,8.787375 26.717625,8.091375 C27.058,7.7535 27.2485,7.403625 27.323125,7.165125 C27.37225,7.007875 27.3545,6.889125 27.3545,6.889125 L26.082625,6.889125 C26.6415,6.538375 27.63,5.87175 28.279,5.08925 C28.529875,4.786875 28.76725,4.4265 28.889375,4.1515 C29.00275,3.896125 29.009625,3.714375 29.009625,3.714375 L6.53625,3.714375 L6.53625,3.7145 L6.53625,3.7145 Z" id="path9" fill="#FFC325"></path>
        <path d="M28.6245,3.992375 L7.05325,3.992375 C9.548,7.882875 5.428375,7.352125 5.428375,7.352125 L3.309625,3.992375 L1.774625,3.992375 L10.942,18.9595 C10.26225,18.764375 9.475875,18.655 8.68475,18.655 C5.61,18.655 3.1135,20.32075 3.1135,22.371625 C3.1135,24.425875 5.61,26.089125 8.68475,26.089125 C11.7635,26.089125 14.255875,24.42575 14.255875,22.371625 C14.255875,21.893375 14.104375,21.468125 13.879125,21.04375 L10.493,15.53775 C10.493,15.53775 12.7305,16.298875 13.7175,16.253875 C13.7175,16.253875 13.176,15.55075 12.94925,15.042375 C12.94925,15.042375 16.252,15.342625 17.7345,15.12475 L16.652625,13.9565 C16.652625,13.9565 20.752375,14.393875 22.85225,12.20975 L22.39475,12.20975 L11.607,12.20975 L11.4275,11.929375 L21.330625,11.929375 C22.681875,11.580625 24.7025,10.890625 25.358625,9.772875 L24.910625,9.772875 L10.131625,9.772875 L9.952125,9.4925 L24.081125,9.4925 C25.0265,9.015875 26.808375,8.01625 27.004875,7.167 L26.282375,7.167 L8.49375,7.167 L8.31425,6.886625 L25.548875,6.886625 C26.4365,6.36575 28.22725,5.191125 28.6245,3.992375 L28.6245,3.992375 L28.6245,3.992375 Z" id="path11" fill="#0447A0"></path>
    </g>
</svg>