<?xml version="1.0" encoding="UTF-8"?>
<svg width="30px" height="30px" viewBox="0 0 30 30" version="1.1" xmlns="http://www.w3.org/2000/svg" xmlns:xlink="http://www.w3.org/1999/xlink">
    <!-- Generator: Sketch 50.2 (55047) - http://www.bohemiancoding.com/sketch -->
    <title>bruins</title>
    <desc>Created with Sketch.</desc>
    <defs></defs>
    <g id="bruins" stroke="none" stroke-width="1" fill="none" fill-rule="evenodd">
        <path d="M14.9986784,28.6311013 C11.3573128,28.6311013 7.93387665,27.2130396 5.35903085,24.6381939 C2.78431718,22.0632158 1.36625551,18.6396476 1.36625551,14.9986784 C1.36625551,11.3573128 2.78418502,7.93387665 5.35903085,5.359163 C7.93387665,2.78444934 11.3573128,1.36638766 14.9986784,1.36638766 C18.6399119,1.36638766 22.0632158,2.78444934 24.6380617,5.359163 C27.2127754,7.93387665 28.6311013,11.3574449 28.6311013,14.9986784 C28.6311013,18.6397797 27.2129075,22.0632158 24.6380617,24.6381939 C22.0632158,27.2129075 18.6397797,28.6311013 14.9986784,28.6311013 L14.9986784,28.6311013 L14.9986784,28.6311013 L14.9986784,28.6311013 Z" id="Shape" fill="#FFFFFF"></path>
        <path d="M14.9985463,2.73237886 C21.7727313,2.73237886 27.2648458,8.2240969 27.2648458,14.9985463 C27.2648458,21.7725991 21.7727313,27.2647137 14.9985463,27.2647137 C8.2240969,27.2647137 2.73237886,21.7724669 2.73237886,14.9985463 C2.73237886,8.2240969 8.2240969,2.73237886 14.9985463,2.73237886 L14.9985463,2.73237886 L14.9985463,2.73237886 Z M14.9985463,0 C12.9750661,0 11.0105286,0.396872247 9.1596476,1.17977974 C7.3732599,1.93533039 5.7695154,3.01638766 4.39295154,4.39295154 C3.01638766,5.7695154 1.93533039,7.3732599 1.17977974,9.1596476 C0.396872247,11.0105286 0,12.9749339 0,14.9985463 C0,17.0220264 0.396872247,18.986696 1.17977974,20.8373128 C1.93533039,22.6238326 3.01638766,24.2274449 4.39295154,25.6038767 C5.7695154,26.9805727 7.3732599,28.0617621 9.1595154,28.8171806 C11.0103965,29.6000881 12.9749339,29.9970925 14.9985463,29.9970925 C17.0220264,29.9970925 18.986696,29.6000881 20.8374449,28.8171806 C22.6238326,28.06163 24.2274449,26.9805727 25.6040088,25.6040088 C26.9807048,24.2274449 28.0617621,22.6237005 28.8171806,20.8374449 C29.6000881,18.986696 29.9970925,17.0220264 29.9970925,14.9985463 C29.9970925,12.9749339 29.6000881,11.0103965 28.8171806,9.1595154 C28.06163,7.37312775 26.9807048,5.7695154 25.6040088,4.39295154 C24.2274449,3.01638766 22.6237005,1.93533039 20.8374449,1.17977974 C18.9868282,0.396872247 17.0220264,0 14.9985463,0 L14.9985463,0 L14.9985463,0 L14.9985463,0 Z" id="Shape" fill="#FFC422"></path>
        <polygon id="Shape" fill="#FFC422" points="16.1422465 9.6767834 13.8498236 9.67599045 13.8498236 1.518105 16.1422465 1.518105"></polygon>
        <path d="M16.4837443,1.17660721 L16.4837443,10.0184134 L13.5081936,10.0174883 L13.5081936,1.17660721 L16.4837443,1.17660721 L16.4837443,1.17660721 L16.4837443,1.17660721 Z M15.8007487,1.85973496 L14.1913214,1.85973496 L14.1913214,9.33462485 L15.8007487,9.33515345 L15.8007487,1.85973496 L15.8007487,1.85973496 L15.8007487,1.85973496 L15.8007487,1.85973496 Z" id="Shape" fill="#231F20"></path>
        <polygon id="Shape" fill="#FFC422" points="16.1422465 28.5003954 13.8496914 28.5003954 13.8496914 20.3611442 16.1422465 20.3611442"></polygon>
        <path d="M16.4837443,20.0195143 L16.4837443,28.8418931 L13.5081936,28.8418931 L13.5081936,20.0195143 L16.4837443,20.0195143 L16.4837443,20.0195143 L16.4837443,20.0195143 Z M15.8007487,20.702642 L14.1913214,20.702642 L14.1913214,28.1587654 L15.8007487,28.1587654 L15.8007487,20.702642 L15.8007487,20.702642 L15.8007487,20.702642 L15.8007487,20.702642 Z" id="Shape" fill="#231F20"></path>
        <path d="M23.7251094,25.3595151 L18.1125984,19.7470041 L18.5750213,19.2847133 L18.6753296,19.1845371 L18.6750653,19.0428631 L18.673083,17.0653741 L25.3461667,23.7383257 L23.7251094,25.3595151 L23.7251094,25.3595151 L23.7251094,25.3595151 L23.7251094,25.3595151 Z M6.26682745,25.3595151 L4.64577021,23.7383257 L11.6456821,16.7385459 L12.1342724,16.2500878 L12.1342724,19.4918058 L6.26682745,25.3595151 L6.26682745,25.3595151 L6.26682745,25.3595151 L6.26682745,25.3595151 Z M28.4869156,16.1555944 L18.5878407,16.1555944 L17.9273121,16.1555944 L17.5987658,15.8270481 L17.4987218,15.7270041 L17.3574442,15.7270041 L12.4760345,15.7255504 L12.1344046,15.7254182 L12.1344046,16.0670481 L12.1344046,16.1555944 L11.4043605,16.1555944 L1.50488914,16.1555944 L1.50488914,13.8629072 L11.4040962,13.8629072 L12.1407482,13.8629072 L12.1407482,13.9696914 L12.1407482,14.3111892 L12.482246,14.3111892 L17.3635235,14.3111892 L17.5050653,14.3111892 L17.6051094,14.2111451 L17.9533473,13.8629072 L18.5878407,13.8629072 L28.4869156,13.8629072 L28.4869156,16.1555944 L28.4869156,16.1555944 L28.4869156,16.1555944 L28.4869156,16.1555944 Z M12.1407482,13.7750218 L11.64555,13.2799557 L4.64577021,6.28017591 L6.26682745,4.65911865 L12.1407482,10.5330393 L12.1407482,13.7750218 L12.1407482,13.7750218 L12.1407482,13.7750218 L12.1407482,13.7750218 Z M18.6815412,12.9448014 L18.6794266,10.9926869 L18.6792944,10.8514094 L18.5792504,10.7514975 L18.1058583,10.2781054 L23.7251094,4.65911865 L25.3462988,6.28017591 L18.6815412,12.9448014 L18.6815412,12.9448014 L18.6815412,12.9448014 L18.6815412,12.9448014 Z" id="Shape" fill="#FFC422"></path>
        <path d="M23.7251094,4.176079 L25.8292063,6.28017591 L18.5878407,13.5214094 L28.8286777,13.5214094 L28.8286777,16.49696 L18.5878407,16.49696 L25.8292063,23.7383257 L23.7251094,25.8424226 L17.6296909,19.7470041 L18.3336997,19.0431274 L18.331453,17.0429072 L17.3571799,16.0685019 L12.4759023,16.0670481 L12.4759023,19.6332156 L6.26682745,25.8422904 L4.16273055,23.7383257 L11.4040962,16.49696 L1.16339135,16.49696 L1.16339135,13.5214094 L11.4042283,13.5214094 L4.16273055,6.28017591 L6.26682745,4.176079 L12.482246,10.3914975 L12.482246,13.9698235 L17.3635235,13.9698235 L18.3400434,12.9933036 L18.3379288,10.9930834 L17.6229508,10.2782376 L23.7251094,4.176079 L23.7251094,4.176079 L23.7251094,4.176079 Z M23.7251094,5.14202613 L18.5891623,10.2781055 L18.8209685,10.5099116 L19.0207922,10.7097354 L19.0210566,10.9922905 L19.022246,12.1211892 L24.8629948,6.28017591 L23.7251094,5.14202613 L23.7251094,5.14202613 L23.7251094,5.14202613 L23.7251094,5.14202613 Z M6.26682745,5.14215829 L5.12880985,6.28017591 L11.7991182,12.9504843 L11.7991182,10.674449 L6.26682745,5.14215829 L6.26682745,5.14215829 L6.26682745,5.14215829 L6.26682745,5.14215829 Z M28.1454178,14.2045372 L18.5878407,14.2045372 L18.094757,14.2045372 L17.8465631,14.452731 L17.6466072,14.6528191 L17.3635235,14.6528191 L12.482246,14.6528191 L11.7991182,14.6528191 L11.7991182,14.2045372 L11.4040962,14.2045372 L1.84638695,14.2045372 L1.84638695,15.8139645 L11.4042283,15.8139645 L11.7929067,15.8139645 L11.7929067,15.3836561 L12.4762989,15.3839204 L17.3574442,15.3855063 L17.6402636,15.3856385 L17.8403517,15.5855944 L18.0688539,15.8140966 L18.588105,15.8140966 L28.1456821,15.8140966 L28.1456821,14.2045372 L28.1454178,14.2045372 L28.1454178,14.2045372 L28.1454178,14.2045372 Z M11.7927746,17.074361 L5.12880985,23.7383257 L6.26682745,24.8763433 L11.7927746,19.3503962 L11.7927746,17.074361 L11.7927746,17.074361 L11.7927746,17.074361 L11.7927746,17.074361 Z M19.0155059,17.8907046 L19.0166953,19.0424666 L19.0170918,19.3259468 L18.8167393,19.5264314 L18.5956381,19.7471363 L23.7251094,24.8766077 L24.8629948,23.73859 L19.0155059,17.8907046 L19.0155059,17.8907046 L19.0155059,17.8907046 L19.0155059,17.8907046 Z" id="Shape" fill="#231F20"></path>
        <path d="M18.7698238,22.7512339 L18.5315418,22.7512339 L9.26405286,22.7512339 L8.67845814,22.7512339 L8.67845814,22.1657714 L8.67845814,20.6530842 L8.67845814,20.4023794 L8.86004405,20.2292516 L9.75198237,19.3790753 L9.75198237,10.6580622 L8.85991189,9.80669652 L8.6785903,9.63370092 L8.6785903,9.38312824 L8.6785903,7.86951591 L8.6785903,7.28405335 L9.26418502,7.28405335 L18.5318061,7.28405335 L18.7703524,7.28405335 L18.9409692,7.45083749 L21.1388986,9.59841458 L21.3151982,9.77074939 L21.3151982,10.0172252 L21.3151982,13.725463 L21.3151982,13.9748463 L21.1357268,14.1475776 L20.2309691,15.0169168 L21.1361234,15.8891635 L21.3151982,16.0618948 L21.3151982,16.3108816 L21.3151982,20.019648 L21.3151982,20.266256 L21.1387665,20.4385908 L18.940837,22.5847142 L18.7698238,22.7512339 L18.7698238,22.7512339 L18.7698238,22.7512339 L18.7698238,22.7512339 Z M13.0613656,19.4340533 L17.1148018,19.4340533 L17.7478414,18.8010137 L17.7462555,17.2856833 L17.1146696,16.6539652 L13.0613656,16.6527758 L13.0613656,19.4340533 L13.0613656,19.4340533 L13.0613656,19.4340533 L13.0613656,19.4340533 Z M13.0677093,13.3843617 L17.1210132,13.3843617 L17.754185,12.7509256 L17.7525991,11.2359917 L17.1207489,10.6041415 L13.0677093,10.602952 L13.0677093,13.3843617 L13.0677093,13.3843617 L13.0677093,13.3843617 L13.0677093,13.3843617 Z" id="Shape" fill="#231F20"></path>
        <path d="M18.5315418,7.86951591 L20.7294713,10.017093 L20.7294713,13.7253309 L19.3862114,15.016256 L20.7294713,16.3107494 L20.7294713,20.0195159 L18.5315418,22.1656393 L9.26405285,22.1656393 L9.26405285,20.6530842 L10.3375771,19.6300446 L10.3375771,10.4074895 L9.26405285,9.38312824 L9.26405285,7.86951591 L18.5315418,7.86951591 L18.5315418,7.86951591 L18.5315418,7.86951591 Z M12.4822467,13.9698243 L17.3635242,13.9698243 L18.340044,12.9933045 L18.3379295,10.9930842 L17.3635242,10.0188111 L12.4822467,10.0172252 L12.4822467,13.9698243 L12.4822467,13.9698243 L12.4822467,13.9698243 Z M12.4759031,20.0195159 L17.3571806,20.0195159 L18.3337005,19.0429961 L18.3314537,17.0427758 L17.3571806,16.0683705 L12.4759031,16.0669168 L12.4759031,20.0195159 L12.4759031,20.0195159 L12.4759031,20.0195159 Z M19.0087665,6.69859079 L18.531674,6.69859079 L9.26405286,6.69859079 L8.09312774,6.69859079 L8.09312774,7.86951591 L8.09312774,9.38312824 L8.09312774,9.88427361 L8.45563876,10.2302648 L9.16651982,10.9086349 L9.16651982,19.1285027 L8.45616739,19.8055511 L8.09312774,20.1515424 L8.09312774,20.6530842 L8.09312774,22.1656393 L8.09312774,23.3366965 L9.26405286,23.3366965 L18.531674,23.3366965 L19.0085022,23.3366965 L19.3496035,23.0035247 L21.5476652,20.8574014 L21.9005287,20.5128639 L21.9005287,20.019648 L21.9005287,16.3108816 L21.9005287,15.812908 L21.5421146,15.4675776 L21.0751982,15.0175776 L21.5410572,14.5698243 L21.9005287,14.2242296 L21.9005287,13.7254631 L21.9005287,10.017093 L21.9005287,9.52414146 L21.5479295,9.17960401 L19.3498679,7.03202692 L19.0087665,6.69859079 L19.0087665,6.69859079 L19.0087665,6.69859079 L19.0087665,6.69859079 Z M13.653304,12.798767 L13.653304,11.1885467 L16.8783701,11.1894719 L17.1672687,11.4785027 L17.1684582,12.5086789 L16.8786344,12.7986348 L13.653304,12.7986348 L13.653304,12.798767 L13.653304,12.798767 L13.653304,12.798767 Z M13.6469604,18.8484587 L13.6469604,17.2383706 L16.8718943,17.2392957 L17.1609251,17.5284587 L17.1621146,18.5585027 L16.8722908,18.8483265 L13.6469604,18.8483265 L13.6469604,18.8484587 L13.6469604,18.8484587 L13.6469604,18.8484587 Z" id="Shape" fill="#231F20"></path>
        <path d="M18.6407049,22.4340534 L18.5315419,22.4340534 L9.2640529,22.4340534 L8.99563881,22.4340534 L8.99563881,22.1657714 L8.99563881,20.6533485 L8.99563881,20.5383706 L9.07876656,20.4590754 L10.0690309,19.5150666 L10.0690309,10.5223353 L9.0786344,9.57726925 L8.99563881,9.4979741 L8.99563881,9.38312829 L8.99563881,7.86951595 L8.99563881,7.60110185 L9.2640529,7.60110185 L18.531674,7.60110185 L18.640837,7.60110185 L18.7192071,7.67748952 L20.9171366,9.82519877 L20.9980176,9.90409745 L20.9980176,10.017093 L20.9980176,13.725331 L20.9980176,13.8396481 L20.9154186,13.9188111 L19.7734362,15.0165204 L20.915815,16.1172692 L20.9980176,16.1964323 L20.9980176,16.3106172 L20.9980176,20.0193838 L20.9980176,20.1326437 L20.9170045,20.2115424 L18.7190749,22.3576657 L18.6407049,22.4340534 L18.6407049,22.4340534 L18.6407049,22.4340534 L18.6407049,22.4340534 Z M12.7443172,19.7513661 L17.2462996,19.7513661 L18.0652864,18.9323794 L18.0631718,17.1540534 L17.2461674,16.3369169 L12.7441851,16.3354631 L12.7441851,19.7513661 L12.7443172,19.7513661 L12.7443172,19.7513661 L12.7443172,19.7513661 Z M12.7506608,13.701278 L17.2523789,13.701278 L18.0714978,12.8822913 L18.0695154,11.1042296 L17.2522467,10.2869609 L12.7506608,10.2856393 L12.7506608,13.701278 L12.7506608,13.701278 L12.7506608,13.701278 L12.7506608,13.701278 Z" id="Shape" fill="#231F20"></path>
        <path d="M18.5315419,7.86951595 L20.7294714,10.017093 L20.7294714,13.725331 L19.3862115,15.016256 L20.7294714,16.3107494 L20.7294714,20.0195159 L18.5315419,22.1656393 L9.2640529,22.1656393 L9.2640529,20.6530842 L10.3375771,19.6300446 L10.3375771,10.4074895 L9.2640529,9.38312829 L9.2640529,7.86951595 L18.5315419,7.86951595 L18.5315419,7.86951595 L18.5315419,7.86951595 Z M12.4822467,13.9698243 L17.3635243,13.9698243 L18.3400441,12.9933045 L18.3379296,10.9930842 L17.3635243,10.0188111 L12.4822467,10.0172252 L12.4822467,13.9698243 L12.4822467,13.9698243 L12.4822467,13.9698243 Z M12.4759031,20.0195159 L17.3571807,20.0195159 L18.3337005,19.0429961 L18.3314538,17.0427758 L17.3571807,16.0683706 L12.4759031,16.0669168 L12.4759031,20.0195159 L12.4759031,20.0195159 L12.4759031,20.0195159 Z M18.7502644,7.33281992 L18.5315419,7.33281992 L9.26405291,7.33281992 L8.72735687,7.33281992 L8.72735687,7.86951595 L8.72735687,9.38312829 L8.72735687,9.61281992 L8.89348022,9.77141022 L9.80074894,10.6371811 L9.80074894,19.4002208 L8.89374453,20.2646701 L8.72735687,20.4232604 L8.72735687,20.6530842 L8.72735687,22.1656393 L8.72735687,22.7024675 L9.26405291,22.7024675 L18.531674,22.7024675 L18.7501322,22.7024675 L18.9066079,22.5498243 L21.1045375,20.4037009 L21.2664318,20.2457714 L21.2664318,20.0196481 L21.2664318,16.3108816 L21.2664318,16.0825115 L21.1020265,15.9243177 L20.1606608,15.017049 L21.1014978,14.1124235 L21.2664318,13.9540975 L21.2664318,13.7255953 L21.2664318,10.017093 L21.2664318,9.79123401 L21.1046696,9.6333045 L18.9067401,7.4857274 L18.7502644,7.33281992 L18.7502644,7.33281992 L18.7502644,7.33281992 L18.7502644,7.33281992 Z M13.0190749,13.4329961 L13.0190749,10.5540534 L17.1412335,10.555375 L17.8013657,11.2156393 L17.8030838,12.771278 L17.1412335,13.4331283 L13.0190749,13.4331283 L13.0190749,13.4329961 L13.0190749,13.4329961 L13.0190749,13.4329961 Z M13.0125992,19.4829521 L13.0125992,16.6040094 L17.1347578,16.6053309 L17.7950221,17.2655953 L17.7967402,18.821234 L17.1347578,19.4830843 L13.0125992,19.4830843 L13.0125992,19.4829521 L13.0125992,19.4829521 L13.0125992,19.4829521 Z" id="Shape" fill="#FFC422"></path>
        <path d="M14.9985469,2.73237949 C21.7727319,2.73237949 27.2648464,8.22409755 27.2648464,14.9985469 C27.2648464,21.7725997 21.7727319,27.2647143 14.9985469,27.2647143 C8.22409755,27.2647143 2.7323795,21.7724676 2.7323795,14.9985469 C2.7323795,8.22409755 8.22409755,2.73237949 14.9985469,2.73237949 L14.9985469,2.73237949 L14.9985469,2.73237949 Z M14.9985469,0.585595352 C13.0538333,0.585595352 11.1659478,0.966872885 9.3876218,1.71911958 C7.67101385,2.44519888 6.12991255,3.48409755 4.80687289,4.8071372 C3.48383324,6.1300447 2.44493456,7.67127815 1.71885526,9.38775395 C0.966872885,11.1659478 0.585463194,13.0537011 0.585463194,14.9985469 C0.585463194,16.9432606 0.966872885,18.8310139 1.71898742,20.6093399 C2.44506672,22.3256834 3.48396539,23.8669169 4.80700504,25.1898244 C6.12991255,26.5129962 7.671146,27.5518949 9.3876218,28.2779742 C11.16608,29.0302209 13.0538333,29.4114984 14.9985469,29.4114984 C16.9433927,29.4114984 18.831146,29.0302209 20.609472,28.2779742 C22.3258156,27.5518949 23.8670491,26.5129962 25.1900887,25.1899566 C26.5131284,23.8669169 27.5521593,22.3256834 28.2781064,20.6093399 C29.0303531,18.8310139 29.4116306,16.9432606 29.4116306,14.9985469 C29.4116306,13.0537011 29.0303531,11.1659478 28.2781064,9.3876218 C27.5521593,7.671146 26.5131284,6.12991255 25.1900887,4.80700504 C23.8670491,3.48396539 22.3258156,2.44506672 20.6093399,1.71898742 C18.831146,0.966872885 16.9435249,0.585595352 14.9985469,0.585595352 L14.9985469,0.585595352 L14.9985469,0.585595352 L14.9985469,0.585595352 Z" id="Shape" fill="#231F20"></path>
    </g>
</svg>