<?xml version="1.0" encoding="UTF-8"?>
<svg width="30px" height="30px" viewBox="0 0 30 30" version="1.1" xmlns="http://www.w3.org/2000/svg" xmlns:xlink="http://www.w3.org/1999/xlink">
    <!-- Generator: Sketch 50.2 (55047) - http://www.bohemiancoding.com/sketch -->
    <title>canadiens</title>
    <desc>Created with Sketch.</desc>
    <defs></defs>
    <g id="canadiens" stroke="none" stroke-width="1" fill="none" fill-rule="evenodd">
        <path d="M26.5890666,14.8774666 L28.9374667,12.3610666 L27.8190666,7.16066667 L22.7865333,5.65093334 L22.2833333,6.15413333 C22.2833333,6.15413333 18.164,4.9332 14.548,4.9332 C7.01773335,4.93333333 0,8.9688 0,15.0732 C0,20.8794667 5.5584,25.2594666 14.548,25.2594666 C22.8238666,25.2594666 30,19.966 30,19.966 L26.5890666,14.8774666 L26.5890666,14.8774666 L26.5890666,14.8774666 Z M10.3168,17.4985333 C10.3168,17.4985333 7.444,16.4501334 7.444,15.1290666 C7.444,13.4725333 10.3168,12.7246666 10.3168,12.7246666 L10.3168,17.4985333 L10.3168,17.4985333 L10.3168,17.4985333 Z M15.5265333,18.0341334 C14.9488,18.1198666 14.1845334,18.0833333 14.1845334,18.0833333 L14.1845334,16.8344 L15.5265333,16.8344 L15.5265333,18.0341334 L15.5265333,18.0341334 L15.5265333,18.0341334 Z M15.5265333,13.3117333 L14.1845334,13.3117333 L14.1845334,12.0629333 C15.382,12.0601333 15.3604,12.0869333 15.5265333,12.1114666 L15.5265333,13.3117333 L15.5265333,13.3117333 L15.5265333,13.3117333 Z M19.2917334,17.254 L19.2917334,12.9202667 C22.2274667,13.7869333 23.8490667,15.3248 23.8490667,15.3248 C23.8490667,15.3248 21.6122666,16.6389333 19.2917334,17.254 L19.2917334,17.254 L19.2917334,17.254 Z" id="Shape" fill="#21386F"></path>
        <path d="M25.6664,15.4086666 C23.1724,17.0777334 20.7969333,18.118 18.2013333,18.6065334 L18.2013333,11.6313333 C23.1182666,12.5585334 25.0233334,14.9893334 25.0233334,14.9893334 L27.8192,12.0814666 L26.8686667,7.9436 L23.0661334,6.8812 L22.5629334,7.3844 C22.5629334,7.3844 19.0121333,5.95853333 14.1822667,5.95853333 C6.48653335,5.95853333 1.066,10.404 1.066,15.1012 C1.066,20.2176 6.43066665,24.2064 14.0588,24.2064 C22.1716,24.2064 28.5741334,19.7145334 28.5741334,19.7145334 L25.6664,15.4086666 L25.6664,15.4086666 L25.6664,15.4086666 Z M14.2101333,11.2777334 C14.9448,11.2777334 15.6361333,11.3098667 16.2861334,11.368 L16.2861334,14.1505333 L13.4062666,14.1505333 L13.4062666,11.2909333 C13.6652,11.2825333 13.9322667,11.2777334 14.2101333,11.2777334 L14.2101333,11.2777334 L14.2101333,11.2777334 Z M6.38866665,15.1150667 C6.38866665,14.1144 7.0632,12.0778667 11.3793333,11.4597334 L11.3793333,18.7161334 C6.3084,17.9002667 6.38866665,15.1150667 6.38866665,15.1150667 L6.38866665,15.1150667 L6.38866665,15.1150667 Z M13.4062666,18.9154666 L13.4062666,15.9818666 L16.2861334,15.9818666 L16.2861334,18.8641333 C15.6954667,18.9136 15.0910667,18.9386666 14.4686666,18.9386666 C14.0976,18.9386666 13.7441334,18.9302666 13.4062666,18.9154666 L13.4062666,18.9154666 L13.4062666,18.9154666 Z" id="Shape" fill="#FFFFFF"></path>
        <path d="M22.7306666,8.27906666 L23.2897333,7.664 L26.3092,8.55866666 L26.9802667,11.9137334 L24.9112,13.9828 C24.9112,13.9828 21.5561333,10.5158666 14.0492,10.5158666 C8.13586665,10.5158666 5.64746665,13.0392 5.64746665,14.9893334 C5.64746665,16.9393333 7.88413335,19.6862666 14.3241334,19.6862666 C20.9410666,19.6862666 25.4705334,16.4430666 25.4705334,16.4430666 L27.4836,19.4628 C27.4836,19.4628 22.0036,23.4701334 13.8396,23.4701334 C7.38106665,23.4701334 1.83586666,20.2456 1.83586666,15.0172 C1.83586666,10.2642666 7.49293335,6.7204 14.1610667,6.7204 C19.7670667,6.7204 22.7306666,8.27906666 22.7306666,8.27906666 L22.7306666,8.27906666 L22.7306666,8.27906666 Z" id="Shape" fill="#BE2F37"></path>
    </g>
</svg>