<?xml version="1.0" encoding="UTF-8"?>
<svg width="30px" height="30px" viewBox="0 0 30 30" version="1.1" xmlns="http://www.w3.org/2000/svg" xmlns:xlink="http://www.w3.org/1999/xlink">
    <!-- Generator: Sketch 50.2 (55047) - http://www.bohemiancoding.com/sketch -->
    <title>canucks</title>
    <desc>Created with Sketch.</desc>
    <defs></defs>
    <g id="canucks" stroke="none" stroke-width="1" fill="none" fill-rule="evenodd">
        <path d="M14.8342988,18.2331134 L21.1884433,15.0143387 C25.5360149,16.2532636 26.8259538,17.9294553 26.8259538,17.9294553 L29.3162538,15.0689975 C29.4536074,14.9232413 29.8656716,14.4070228 29.8656716,13.465683 C29.8656716,12.4453916 28.8205821,11.6619553 28.092006,11.1275166 C26.8558134,7.82371742 20.0000269,6.86415914 19.492412,5.71633168 C19.3192253,5.32157627 18.3159403,1.87809538 18.3159403,1.87809538 C17.7187462,0.098659 15.9570239,0.098659 15.2941388,0.098659 C14.6252809,0.098659 13.1979873,0.329439673 13.1979873,0.329439673 C13.1979873,2.80728789 12.8695306,5.831722 12.523158,6.3843792 C12.523158,6.3843792 11.2869664,7.04635392 9.82981315,7.57471819 L6.3660879,5.20011308 L7.2797948,8.40066761 C1.42729364,11.6680281 0,17.3646509 0,17.3646509 C0,17.3646509 1.50492881,29.365214 16.2974239,29.365214 C24.1206656,29.365214 28.6354523,25.5209049 28.6354523,25.5209049 L26.115294,19.7878419 C26.115294,19.7878419 22.2693642,21.8223504 17.3484851,21.8223504 C12.8157831,21.8223504 11.042117,19.6724516 10.3911755,18.421381 C14.2311328,18.5428442 14.8342988,18.2331134 14.8342988,18.2331134 L14.8342988,18.2331134 L14.8342988,18.2331134 Z" id="path4" fill="#A7A9AC"></path>
        <polygon id="polygon6" fill="#A7A9AC" points="6.0316594 14.5952903 9.8656449 11.9716855 9.57899175 14.0547791"></polygon>
        <polygon id="polygon8" fill="#A7A9AC" points="10.7554639 11.6133691 10.0388312 9.85822605 12.8098113 8.27920463"></polygon>
        <polygon id="polygon10" fill="#A7A9AC" points="11.7229182 11.4129548 13.3652017 12.8097814 10.056747 12.3542945"></polygon>
        <path d="M27.5545314,11.5769307 C26.3481985,8.25491297 19.6835134,7.64759703 18.942994,6.0867941 C18.6503687,5.45518671 18.2681642,3.95511536 17.7187462,2.12709462 C17.2768224,0.803146732 15.9749388,0.803146732 15.3239985,0.803146732 C14.7029161,0.803146732 13.8967042,0.936755637 13.8967042,0.936755637 C13.8967042,2.28499646 13.6458828,6.21433168 13.030773,6.9005978 C12.8755026,7.09493831 11.7408339,7.56257251 10.5046424,8.04842525 L10.8749027,8.30349736 L10.4986705,8.68610703 C11.72889,8.03020519 12.7560637,7.79942602 13.3711736,7.27713308 C14.2669645,6.34186768 25.4703239,12.88266 24.8313268,12.88266 C24.5506448,12.88266 23.5175,13.2895611 22.6575403,13.6357321 C25.5300433,14.5952904 26.9991403,15.6277276 27.196215,15.7734837 L26.7722074,16.2593365 C26.7722074,16.2593365 25.0702045,14.8564369 21.0869194,13.7814867 C19.3729731,14.656022 14.3445997,13.8786585 14.3445997,13.8786585 C11.5736196,14.4556086 8.92805015,17.1338718 8.79666745,17.2674807 C9.1728997,19.1501601 10.9823976,23.0369823 17.3723732,23.0369823 C21.9886836,23.0369823 25.559903,21.3972292 25.559903,21.3972292 L27.2141298,25.1625882 C27.2141298,25.1625882 22.8785015,28.2173866 16.3213119,28.2173866 C2.91430671,28.2173866 1.2123038,17.4982613 1.2123038,17.4982613 C3.06360522,12.4696846 6.17498595,10.2651285 8.15169805,9.33593449 L7.53061625,9.26305717 L7.4768688,9.07478953 C2.25142134,12.0141976 0.71066085,17.4436026 0.71066085,17.4436026 C0.71066085,17.4436026 2.29919686,28.7214594 16.3272836,28.7214594 C23.5055552,28.7214594 27.8471552,25.3387101 27.8471552,25.3387101 L25.816697,20.7231088 C25.816697,20.7231088 22.024515,22.5329094 17.3783448,22.5329094 C10.4568669,22.5329094 9.43566505,17.7290405 9.43566505,17.7290405 C9.43566505,17.7290405 13.3771455,17.9719669 14.6372248,17.6257974 L21.152612,14.3159254 C25.5658747,15.5791432 26.8378985,16.951677 26.8378985,16.951677 L28.8564135,14.6378034 C28.8564135,14.6378034 29.2266746,14.2855596 29.2266746,13.489976 C29.2266746,12.7490496 28.1338089,12.0020519 27.5545314,11.5769307" id="path12" fill="#003E7E"></path>
        <path d="M22.0722896,9.93110475 C22.0722896,9.58493373 22.3828314,9.51812927 22.5978209,9.51812927 C23.7265179,9.51812927 25.4703239,10.4291032 25.7569776,11.2003954 C25.261306,10.6598839 24.3953747,10.1861768 23.7384612,10.1861768 C23.5951343,10.1861768 23.4518075,10.2286898 23.4518075,10.4048103 C23.4518075,10.8602972 24.2460761,11.5708578 27.1424672,11.8988072 C26.0316865,8.64359398 19.9104477,8.41281481 18.5369015,6.37223353 C18.154697,5.80742907 17.5216716,2.16960613 16.8826746,1.67768051 C16.1839567,1.13109614 14.3864033,1.38009689 14.3864033,1.38009689 C14.3864033,1.88416823 14.2669645,6.34186768 13.3592297,7.27106022 C12.7500918,7.79335163 11.7169461,8.02413232 10.4867266,8.68003417 L9.77606565,9.40881329 L8.9937415,11.8988072 L7.9785118,11.3582972 L8.34280015,12.2753441 L6.5273303,12.5850749 L7.55450405,12.9433916 L4.59242179,15.2511923 L5.3926618,15.3119239 L4.3416003,17.2492606 C5.86444505,16.5508487 6.32428435,16.4111655 6.32428435,16.4111655 L5.88833285,15.9556785 L8.9519379,14.6985351 C8.9519379,14.6985351 8.71903225,15.3240696 8.71903225,16.5326286 C8.71903225,16.7087506 8.74292,16.9577498 8.8026394,17.2553349 C8.9340221,17.0002613 11.3466858,12.4818318 16.5124135,12.1720994 L10.0627188,17.2492606 C10.0627188,17.2492606 13.5981073,17.4010895 14.4640385,17.1520903 C17.193215,15.8645811 19.3789448,14.656022 21.0928925,13.7814867 C22.7351747,12.9433916 23.9534507,12.4150258 24.7895224,12.4150258 C25.8226687,12.4150258 27.2678776,13.4353172 28.4921253,14.2977053 C28.4921253,14.2977053 28.5697612,14.2309009 28.6354523,14.0972919 C28.9340493,13.0041232 27.393288,12.1660266 25.9122477,11.8077098 C23.1472388,11.5830035 22.0722896,10.6598839 22.0722896,9.93110475 L22.0722896,9.93110475 Z" id="path14" fill="#002E56"></path>
        <path d="M8.8026394,17.2614078 L8.8026394,17.2614078 C8.9340221,17.1338718 11.5795915,14.4556086 14.3505716,13.8786585 L16.5124135,12.1781738 C11.3466858,12.4879046 8.9340221,17.0063342 8.8026394,17.2614078" id="path5" fill="#FFFFFF"></path>
        <path d="M28.7369747,13.6235849 C28.7369747,12.9555373 27.8710433,12.5061232 27.1364955,11.9048816 C24.2341329,11.5769307 23.4458358,10.8663716 23.4458358,10.4108846 C23.4458358,10.2347627 23.5951343,10.1922497 23.7324896,10.1922497 C24.389403,10.1922497 25.261306,10.6659567 25.7510045,11.2064683 C25.4643523,10.4351761 23.7205448,9.52420214 22.5918492,9.52420214 C22.3768597,9.52420214 22.0663179,9.59100812 22.0663179,9.93717761 C22.0663179,10.6659567 23.1412672,11.5830035 25.9062761,11.8137842 C27.3873164,12.1720994 28.9280776,13.0101961 28.6294806,14.0972919 C28.6892,13.9819016 28.7369747,13.8239997 28.7369747,13.6235849" id="path7" fill="#FFFFFF"></path>
        <path d="M23.3025089,13.617512 L24.3774582,14.0061946 C24.5745328,13.92117 24.7895224,13.8118525 24.8074388,13.7875611 C24.8193791,13.7571953 24.8193791,13.7329023 24.7775791,13.6903893 C24.7477194,13.6600235 24.2639925,13.4778288 23.9653955,13.3685128 L23.3025089,13.617512 L23.3025089,13.617512 L23.3025089,13.617512 Z" id="path9" fill="#FFFFFF"></path>
        <path d="M24.2102448,13.2713425 C24.496897,13.3867314 24.8910462,13.5507076 24.9268776,13.5567804 C24.9746522,13.5628518 25.0463164,13.5689231 25.094091,13.5567804 C25.1299239,13.5446377 25.3628284,13.4231715 25.5360149,13.338147 C25.3688015,13.2531225 25.0343717,13.0952206 24.8074388,13.0952206 C24.5924493,13.0891493 24.2102448,13.2713425 24.2102448,13.2713425" id="path11" fill="#FFFFFF"></path>
        <path d="M25.2732492,13.6478778 C25.261309,13.6721707 25.2732492,13.6843165 25.3090821,13.7146823 C25.350885,13.7450481 25.9122477,14.0426332 25.9540508,14.0426332 C25.9958552,14.0487046 26.0376582,14.0487046 26.0794612,14.0365619 C26.1093209,14.0304905 26.3063955,13.9029514 26.4377776,13.8118541 L25.6912851,13.404953 C25.5001836,13.5081961 25.2911656,13.6235864 25.2732492,13.6478793" id="path13" fill="#FFFFFF"></path>
        <path d="M25.8047522,14.2491209 C25.8166925,14.2187551 25.8226687,14.2005351 25.8166925,14.1762421 C25.7808597,14.1337306 25.2254701,13.8422183 25.1657508,13.8361455 C25.1000597,13.8300741 25.0642269,13.8300741 25.0104806,13.8543656 C24.9627045,13.8786585 24.6820239,14.0365604 24.5805,14.0912191 L25.4464314,14.4920473 C25.6136462,14.3888027 25.7868328,14.2734139 25.8047478,14.2491209" id="path15" fill="#FFFFFF"></path>
        <path d="M26.8677582,14.5588518 C26.8856731,14.5649231 26.9453926,14.5467091 27.0051119,14.528486 C27.0349716,14.5163433 27.1663552,14.4130956 27.2499627,14.3402183 L26.5811045,13.9090243 C26.4198627,14.0122674 26.2526478,14.1276577 26.2347329,14.1519507 C26.2347329,14.158022 26.2347329,14.1762421 26.2705642,14.224828 L26.8677582,14.5588518 L26.8677582,14.5588518 L26.8677582,14.5588518 Z" id="path17" fill="#FFFFFF"></path>
        <path d="M27.1424672,14.6256562 C27.1245508,14.6620949 27.1185791,14.6803149 27.1305268,14.6924607 C27.1544134,14.7106807 27.5007866,14.9475343 27.7336926,15.1054362 L28.0024298,14.8321439 L27.3873194,14.4252428 C27.2738523,14.5102659 27.1544134,14.6074376 27.1424702,14.6256562" id="path19" fill="#FFFFFF"></path>
        <path d="M26.7602627,14.7410465 C26.772203,14.7228265 26.7662329,14.6863878 26.7423478,14.6620949 C26.7065149,14.6256562 26.1750135,14.3341455 26.133209,14.3280711 C26.0854343,14.3159284 26.0077985,14.3280711 25.9600224,14.3462912 C25.9361358,14.3523625 25.7808642,14.4616815 25.6375388,14.5709975 L26.4556941,14.95968 C26.5930492,14.8685826 26.7483194,14.7653395 26.7602627,14.7410465" id="path21" fill="#FFFFFF"></path>
        <path d="M26.9035895,14.8503641 C26.8797015,14.8564354 26.7244313,14.9779001 26.6109642,15.0689975 L27.3514851,15.5366302 L27.626194,15.2268993 C27.3992597,15.0689975 27.0767761,14.8442897 27.0469164,14.8321439 C27.0170567,14.8260726 26.9394209,14.8382153 26.9035895,14.8503641" id="path23" fill="#FFFFFF"></path>
        <path d="M11.5139001,11.7834184 L12.7799515,12.5304162 L10.6240812,12.2631968 L11.5139001,11.7834184 L11.5139001,11.7834184 L11.5139001,11.7834184 Z M11.7229181,11.412956 L10.0627188,12.3542942 L13.3652016,12.8097812 L11.7229181,11.412956 L11.7229181,11.412956 L11.7229181,11.412956 Z" id="path29" fill="#AEB0B2"></path>
        <path d="M9.31622625,13.8543656 L6.96328195,14.224828 L9.5610758,12.4332459 L9.31622625,13.8543656 L9.31622625,13.8543656 L9.31622625,13.8543656 Z M9.57899165,14.0547789 L9.8716167,11.9716861 L6.0316594,14.5952904 L9.57899165,14.0547789 L9.57899165,14.0547789 L9.57899165,14.0547789 Z" id="path31" fill="#AEB0B2"></path>
        <path d="M10.4568669,9.95539768 L12.2126171,8.94725195 L10.6957445,11.0364192 L10.4568669,9.95539768 L10.4568669,9.95539768 L10.4568669,9.95539768 Z M12.8098112,8.27920442 L10.0328591,9.8582259 L10.7554639,11.6133693 L12.8098112,8.27920442 L12.8098112,8.27920442 L12.8098112,8.27920442 Z" id="path33" fill="#AEB0B2"></path>
        <path d="M25.2911656,22.1017154 C24.132609,22.5572024 21.1108074,23.5835667 17.3843179,23.5835667 C10.0328591,23.5835667 8.18155775,18.4638925 8.18155775,16.5326286 C8.18155775,16.1075075 8.21141745,15.7431179 8.2472491,15.4516056 L6.55719,16.0224829 L6.7781518,16.5083357 L5.45835315,16.9941885 L4.32368448,17.7533334 L6.6348252,18.1906003 L6.15707015,19.8667936 L7.1484121,19.5692085 L8.0979506,22.0288381 L9.23859105,21.8770091 L9.6148233,23.6078596 C9.6148233,23.6078596 11.7587497,25.1200752 15.3837179,25.4480261 C20.1732134,25.8852945 24.4670373,24.2212484 24.4670373,24.2212484 C24.4670373,24.2212484 19.349085,26.2618297 14.7029161,25.7577569 C11.149612,25.3751488 8.83847105,23.9054432 8.83847105,23.9054432 L8.80861135,22.3446418 L7.4052055,22.3628619 L6.74232015,19.9761095 L5.4941848,20.5712798 L6.0436033,18.4335267 L3.64885538,18.1359431 L4.13855433,16.6419461 L4.70588865,15.4758986 L3.9414803,15.4941186 L7.14244015,13.0709277 L5.74500625,12.5182704 L8.02031535,12.0749292 L7.2260473,10.4533962 L8.6294533,11.2671998 L9.1848436,9.49383634 C7.50075655,10.0890066 3.87578895,11.9838318 1.77963806,17.5529185 C2.03643149,18.8282821 4.22813344,27.6708022 16.3272836,27.6708022 C21.5527313,27.6708022 25.3688015,25.6545138 26.5393015,24.9500276 L25.2911656,22.1017154 L25.2911656,22.1017154 L25.2911656,22.1017154 Z" id="path41" fill="#003E7E"></path>
        <polygon id="polygon43" fill="#003E7E" points="9.62079535 9.39666593 10.3135404 8.44925307 6.9393943 6.07464776 7.90684855 8.96547161"></polygon>
        <path d="M17.6112507,7.00991525 C17.6112507,7.00991525 16.6736567,6.60908551 16.4228343,6.28113608 C16.1720135,5.95925805 15.8734164,2.71619049 15.8734164,2.71619049 C15.8734164,2.71619049 15.8196687,6.01998964 15.6345388,6.31757475 C15.4434373,6.60908551 14.511814,7.1556699 14.511814,7.1556699 C14.511814,7.1556699 15.5449597,6.80950041 16.0525747,6.78520742 C16.4288075,6.76091449 17.6112507,7.00991525 17.6112507,7.00991525" id="path45" fill="#FFFFFF"></path>
        <path d="M16.0585462,6.78520742 C15.5509314,6.81557322 14.517786,7.1556699 14.517786,7.1556699 C14.517786,7.1556699 15.449409,6.60908551 15.6345388,6.31757475 C15.8196687,6.02606251 15.8734164,2.71619049 15.8734164,2.71619049 C15.8734164,2.71619049 16.1720135,5.95318519 16.4228343,6.28113608 C16.6796284,6.60908551 17.6172224,7.00991525 17.6172224,7.00991525 C17.6172224,7.00991525 16.4288075,6.76091449 16.0585462,6.78520742" id="path32" fill="#FFFFFF"></path>
        <path d="M21.0928925,13.7814867 C25.0761761,14.8564369 26.7781791,16.2593365 26.7781791,16.2593365 L27.2021866,15.7734837 C27.0051119,15.6277276 25.5360149,14.5952904 22.663512,13.6357321 C23.5175,13.2895611 24.5566164,12.88266 24.8372985,12.88266 C25.4703239,12.88266 26.7781791,13.7268295 28.181585,14.656022 L28.5040687,14.2916325 C27.2798224,13.4292444 25.8405836,12.408953 24.8014672,12.408953 C23.9534507,12.408953 22.7411477,12.9373188 21.0928925,13.7814867" id="path25" fill="#FFFFFF"></path>
        <polygon id="polygon37" fill="#003E7E" points="12.7799516 12.5304162 11.5139003 11.7834175 10.6181093 12.2631971"></polygon>
        <polygon id="polygon39" fill="#003E7E" points="10.456867 9.95539656 10.6957446 11.0303458 12.2126173 8.94725215"></polygon>
        <polygon id="polygon35" fill="#003E7E" points="9.56107595 12.4393188 6.96328205 14.2309008 9.3162264 13.8543649"></polygon>
    </g>
</svg>