<?xml version="1.0" encoding="UTF-8" standalone="no"?>
<svg width="30px" height="30px" viewBox="0 0 30 30" version="1.1" xmlns="http://www.w3.org/2000/svg" xmlns:xlink="http://www.w3.org/1999/xlink">
    <!-- Generator: Sketch 41 (35326) - http://www.bohemiancoding.com/sketch -->
    <title>coyotes</title>
    <desc>Created with Sketch.</desc>
    <defs></defs>
    <g id="Page-1" stroke="none" stroke-width="1" fill="none" fill-rule="evenodd">
        <g id="coyotes">
            <g id="Page-1">
                <g>
                    <g id="coyotes">
                        <g id="Page-1">
                            <g id="Artboard">
                                <g id="coyotes" transform="translate(0.078227, 0.000000)">
                                    <g id="Group">
                                        <path d="M28.8808181,14.2628365 L28.1324804,13.9341346 C28.1514016,13.7920673 28.1632823,13.6159615 28.1531617,13.4157693 C28.1192797,12.7456731 27.8508638,12.1152404 27.3776891,11.5928365 L26.6072034,10.7425962 L26.6409387,11.8628366 C26.6391786,11.8869231 26.6256845,12.0278365 26.5400261,12.2434615 C26.4700619,12.4197116 26.3393742,12.6760096 26.0988266,12.9735577 L25.9304433,12.8896154 L25.5127119,11.8227404 L27.2449479,8.2512981 L27.3776891,8.8733654 L27.9319752,7.9870673 C27.9463494,7.96427885 28.0745437,7.7539904 28.1824967,7.39802885 C28.3117177,6.97240385 28.3601206,6.50610575 28.3240385,6.0421154 L28.7020209,5.2841827 L28.7521838,5.1837981 L28.7441167,5.0723077 C28.7419165,5.04302885 28.5331975,2.14341346 28.5085561,1.65576923 C28.496382,1.41692307 28.2766623,1.04480769 27.9742177,0.750865385 C27.6833605,0.468173077 27.1875978,0.13125 26.4778357,0.13125 C26.2145535,0.13125 25.9619785,0.173509615 25.7271513,0.257163462 C25.5521676,0.319326923 25.4225065,0.393317307 25.3647164,0.437884616 C25.3086864,0.481009615 24.6323663,0.99605769 23.6961375,1.70884616 C20.9571219,3.79442308 18.2660691,5.8437981 17.6501793,6.3174519 C17.6353651,6.3174519 17.6199642,6.3173077 17.6035365,6.3173077 C17.3468546,6.3173077 16.8128096,6.33302885 16.120942,6.43860575 C15.3155476,6.5614904 14.5306877,6.7681731 13.7883638,7.05302885 C12.8197197,7.42485575 11.9345339,7.92677885 11.1573012,8.5452404 C10.2385267,9.27634615 9.46320076,10.1766346 8.85200456,11.2220193 L0.360528032,17.9316346 L0.0350554107,18.1887981 L0.293350717,18.5112981 C0.323712516,18.5492307 0.364634942,18.6044711 0.412304433,18.6685096 C0.673973273,19.0210096 1.16093546,19.6771154 1.93171447,20.2439423 C2.8845176,20.9446154 3.98267601,21.2998557 5.19582788,21.2998557 C5.52907434,21.2998557 5.87522817,21.2727404 6.22460888,21.2187981 L6.2309159,21.2177885 L6.23722297,21.2164904 L7.87837353,20.9133173 C7.93631029,21.1360096 8.02152869,21.4446635 8.13710888,21.8173558 C8.48106259,22.9263462 9.12232724,24.5636539 10.2234192,26.0665384 C10.8341753,26.9000481 11.5273631,27.6109615 12.2834746,28.1790866 C13.1682203,28.8438462 14.1540254,29.3244231 15.2134615,29.6074039 L16.193693,29.8691827 L15.6901565,29.0016346 C15.6844361,28.9915385 15.0908409,27.9579808 14.6851369,26.5647115 C14.4083605,25.614375 14.1776402,24.3418269 14.3942797,23.1183173 C14.545942,23.4835096 14.7376467,23.9001923 14.9699804,24.3220673 C15.3660039,25.0410577 15.7989896,25.6266346 16.2572034,26.0620673 C16.8635593,26.6384135 17.5183181,26.9575962 18.2032921,27.0106731 L19.2452738,27.0915865 L18.5547262,26.3252884 C18.5355117,26.3027885 18.0426825,25.72125 17.7537321,24.7176923 C17.4244459,23.5740866 17.4759289,22.3626923 17.9061278,21.1073077 C18.0310952,21.2635096 18.1801174,21.4337019 18.3529009,21.6038942 C18.7055085,21.9512019 19.0858377,22.2294231 19.4830345,22.4304808 C19.991118,22.6876443 20.5261897,22.8186057 21.0737288,22.8196154 L21.9465939,22.8214904 L21.4055085,22.1479327 C21.2619133,21.9692308 21.1407594,21.7332692 21.003618,21.4341346 C20.5326434,20.4086539 20.4097295,19.2135577 20.6584909,18.1752404 L25.1740385,18.3451443 L25.2676174,18.3486058 L25.3537158,18.3129808 L27.5297914,17.4132692 L27.664586,17.3574519 L27.7352836,17.2313943 L29.0776565,14.8416346 L29.2995763,14.4467308 L28.8808181,14.2628365 L28.8808181,14.2628365 L28.8808181,14.2628365 Z" id="Shape" fill="#FFFFFF"></path>
                                        <path d="M0.624837025,18.2544231 C1.05430248,18.7908173 2.60612777,21.3561058 6.15948498,20.80875 L8.19475231,20.4328846 C8.19475231,20.4328846 8.30153197,20.9255769 8.5404661,21.6962019 C9.20549217,23.8397596 11.0147327,28.0563461 15.3240548,29.2071634 C15.3240548,29.2071634 12.8726695,24.9830769 14.3683181,21.8012019 C14.3683181,21.8012019 15.6727021,26.3984134 18.236734,26.5974519 C18.236734,26.5974519 16.0439374,24.1260577 17.8065352,20.2198558 C17.8065352,20.2198558 18.9704042,22.4010577 21.0746089,22.4050961 C20.8996252,22.1873077 20.7611636,21.9142788 20.6191819,21.6047596 C20.148794,20.5801443 19.8970991,19.1307693 20.3409387,17.7484615 L25.1904661,17.9310577 L27.366395,17.0312019 L28.7087679,14.6414423 L27.6516786,14.1770193 C27.6516786,14.1770193 28.062223,12.9718269 27.062777,11.86875 C27.062777,11.86875 27.0585235,12.5861539 26.2025261,13.4900481 L25.5952901,13.1873077 L25.054058,11.8051442 L27.3198989,7.13322115 C27.3198989,7.13322115 27.5202575,7.5229327 27.5730606,7.76971155 C27.5730606,7.76971155 28.0144068,7.0639904 27.8935463,5.9637981 L28.3237451,5.1012981 C28.3237451,5.1012981 28.1128259,2.17384616 28.0875978,1.67625 C28.0787973,1.501875 27.5407921,0.545625 26.4781291,0.545625 C25.9681389,0.545625 25.6527868,0.7425 25.6250652,0.763990385 C25.4310137,0.91326923 18.0233214,6.5499519 17.792161,6.73514425 C17.2755704,6.71033655 11.9453879,6.67716345 9.17909059,11.4954808 L0.624837025,18.2544231 L0.624837025,18.2544231 L0.624837025,18.2544231 Z" id="Shape" fill="#000000"></path>
                                        <path d="M5.15314536,19.6919712 C5.60857236,19.5924519 4.68085072,19.2773077 4.51364081,18.4259134 C4.76518905,18.6194711 5.73794003,18.97875 5.95721969,18.8017789 C6.12164278,18.6400962 5.60299871,18.0967788 5.80541069,16.8777404 C6.0154498,15.6125481 6.74149281,15.4097596 6.37891134,15.2025 C5.97408737,15.1361538 2.21259778,18.1880769 2.21259778,18.1880769 L2.8029661,19.1500961 C2.80281943,19.1500961 4.78205672,19.8744231 5.15314536,19.6919712 L5.15314536,19.6919712 L5.15314536,19.6919712 Z" id="Shape" fill="#EFE1C6"></path>
                                        <polygon id="Shape" fill="#8E0028" points="25.8884942 16.9399039 27.0924055 16.44375 26.7422914 15.6421154"></polygon>
                                        <path d="M16.8874674,20.8475481 C16.8594524,21.03 17.1067471,21.1295193 17.1966591,20.919375 C17.2865711,20.7092307 17.781307,19.3161057 17.9725717,19.2995192 C18.045616,19.2931731 18.135088,19.6970193 18.388543,20.1067789 C18.7985006,20.7690866 19.575,21.5663942 20.0079857,21.5663942 C20.1998371,21.5663942 20.2313722,21.5407211 20.2313722,21.5407211 L19.761131,20.8566346 L18.388543,17.1099519 L17.5451597,18.3539423 L16.8874674,20.8475481 L16.8874674,20.8475481 L16.8874674,20.8475481 Z" id="Shape" fill="#8E0028"></path>
                                        <path d="M15.0544655,18.2544231 C15.0544655,18.2544231 16.919736,25.0997596 16.7990222,24.9601443 C14.8271186,22.6792789 14.7397001,20.1507692 14.7397001,20.1507692 C14.7397001,20.1507692 13.4667047,21.6363462 13.4300358,24.1093269 L12.9769557,24.0761539 L13.9189048,20.3277404 L15.0544655,18.2544231 L15.0544655,18.2544231 L15.0544655,18.2544231 Z" id="Shape" fill="#8E0028"></path>
                                        <path d="M27.2230932,14.2944231 C27.2230932,14.2944231 27.5098435,13.3158173 27.1895046,12.615 C27.0123207,13.2204808 26.6497392,13.6101923 26.3439211,13.8797596 L25.2538299,13.359375 L27.4633475,14.7657692 L26.1308018,15.0752884 L24.9107562,14.6440385 C24.9107562,14.6440385 25.1498371,13.3723558 24.8362451,12.9321634 C24.8189374,13.0296634 24.744133,13.1736058 24.7035039,13.2700962 C24.4675033,13.83 23.957073,14.2880769 23.957073,14.2880769 L22.7798566,13.8699519 L21.8128259,11.3764904 L25.3493155,5.7591346 C25.3493155,5.7591346 25.7400587,6.14610575 25.9339635,6.6160096 C26.1701108,5.8918269 25.8271838,4.98504807 25.8271838,4.98504807 L26.2488755,4.31596154 L27.2748696,3.58341346 L27.4632008,4.50403846 L25.7764341,9.1039904 L27.1147001,6.2676923 C27.1147001,6.2676923 27.1799707,6.3258173 27.2720828,6.45576925 C27.3681552,6.5914904 27.4926825,6.8030769 27.5588331,6.9754327 C27.7162158,6.58283655 27.4969361,5.5269231 27.4969361,5.5269231 L27.8848925,4.82466346 L27.4125978,3.11076923 L25.6203716,4.32778846 L20.3366852,10.2553846 C20.3366852,10.2553846 19.1389341,10.7112981 18.3083116,11.3293269 C18.1308344,11.4614423 17.9782921,11.6091346 17.848631,11.7523557 C17.848631,11.7523557 19.2430736,12.0122596 19.3668677,12.93 C19.3668677,12.93 18.9158409,13.1897596 18.2478814,13.6846154 C15.8164439,15.4866346 10.4121904,20.2430769 12.5410365,25.4583173 C12.9286995,26.4080769 13.5718709,27.3582692 14.5230606,28.3250481 C14.5230606,28.3250481 11.8383148,23.8550481 15.0656128,18.7808654 C15.0667862,18.8987019 15.0554922,23.5598077 17.1825782,25.3753846 C15.6617015,21.8424519 18.3055248,17.6336539 18.3055248,17.6336539 C17.8235496,19.8050481 20.2313722,21.5404327 20.2313722,21.5404327 C19.1027053,19.1997115 20.0669492,17.0352404 20.0669492,17.0352404 L25.1872392,17.2357212 L25.8883475,16.9397596 L26.7689863,16.0870673 L27.0922588,16.4436057 L28.0831975,14.6841346 L27.2230932,14.2944231 L27.2230932,14.2944231 L27.2230932,14.2944231 Z M21.0593546,11.3157692 L22.6673566,9.36966345 L21.5134615,11.3048077 L22.4649446,13.8591346 L21.0593546,11.3157692 L21.0593546,11.3157692 L21.0593546,11.3157692 Z" id="Shape" fill="#EFE1C6"></path>
                                        <path d="M27.6953879,1.98317308 C27.5393253,2.17384616 27.3059648,2.97 27.3059648,2.97 C27.3059648,2.97 27.2822034,2.31072115 26.9659713,1.89605769 C26.668807,1.50663462 26.2996252,1.84629807 26.0423566,1.48557692 C25.9245763,1.32057692 25.9285365,1.07927884 25.9285365,1.07927884 L25.2115874,1.61004807 C25.2115874,1.61004807 25.0176825,2.37302884 25.059925,3.31009616 C25.059925,3.31009616 24.6297262,2.97836539 24.3850717,2.32326923 C24.3850717,2.32326923 24.2165417,2.70475961 24.2080345,4.11461538 C24.2080345,4.11461538 23.7441004,3.69995193 23.4742177,3.028125 C23.4742177,3.028125 23.2632985,3.90721154 23.2886734,4.97711539 C23.2886734,4.97711539 22.8838494,4.67855769 22.4705182,3.78288462 C22.4705182,3.78288462 22.2681063,4.82783654 22.2849739,5.93091345 C22.2849739,5.93091345 21.6271349,5.34216345 21.3741199,4.54586538 C21.3741199,4.54586538 18.2239733,6.9177404 18.0046936,7.08360575 C17.7855606,7.24947115 16.4233866,8.70908655 16.0775261,10.2807693 C16.0775261,10.2807693 16.0395372,9.5053846 16.1507171,8.76721155 C16.1507171,8.76721155 14.8090776,9.70572115 14.0556063,10.5129808 C14.0556063,10.5129808 14.0366852,9.51908655 14.597425,8.68846155 C14.597425,8.68846155 14.3982399,8.81451925 14.1483051,9.00778845 C13.9907757,9.12966345 13.8380867,9.2653846 13.6232073,9.45346155 C13.083442,9.92610575 12.4200293,10.5413942 12.0081649,10.9566346 C12.0081649,10.9566346 13.134045,8.86673075 14.8488266,7.6752404 C14.8488266,7.6752404 10.4435789,8.64 8.90026078,13.4072596 C8.85801824,13.3616827 8.97623858,12.3083654 8.97623858,12.3083654 L1.43639179,18.1938461 C3.15689374,20.5270673 5.99066166,20.2062981 6.30557364,20.1510577 C7.24253583,19.9864904 10.1612288,19.5359134 10.1612288,19.5359134 C10.1612288,19.5359134 9.68468059,18.3499039 9.78588656,17.5662981 C9.78588656,17.5662981 10.1063722,19.0962981 11.2083442,20.0459135 L8.80184161,20.3721634 C8.80184161,20.3721634 8.92959585,20.8550481 9.14476856,21.5676923 C9.68805412,23.3674038 11.0773631,26.7552404 14.5227673,28.3254808 C14.5227673,28.3254808 14.2319101,28.0286539 13.8128586,27.5368269 C12.6274283,26.1454327 10.6012549,22.96875 12.6701108,18.8019231 C11.0170795,19.1890385 10.7696382,18.0832211 10.7696382,18.0832211 C12.9737288,19.5980769 17.7893742,13.2703846 16.6128911,11.769375 C16.6128911,11.769375 18.624397,10.1646635 20.0497881,9.965625 L25.6203716,4.32822115 L27.3056714,3.40427885 L27.8847458,4.82524038 L27.6953879,1.98317308 L27.6953879,1.98317308 L27.6953879,1.98317308 Z M6.07514669,19.5814904 C5.8756682,19.6198557 5.57043676,19.6373077 5.45676336,19.6367308 C4.74450782,19.6332693 3.099397,19.3937019 2.48248044,18.3320192 L8.36372227,13.6932692 C4.34921773,17.5854807 8.72909059,18.8516827 9.28587025,19.0341346 C9.28572361,19.0341346 6.72462519,19.4570192 6.07514669,19.5814904 L6.07514669,19.5814904 L6.07514669,19.5814904 Z" id="Shape" fill="#8E0028"></path>
                                        <polygon id="Shape" fill="#8E0028" points="24.0562255 11.5534615 24.7982562 10.4837019 24.3935789 11.5618269 24.7898957 12.5652404"></polygon>
                                        <path d="M15.1352836,8.26528845 C15.1352836,8.26528845 15.7037973,8.12841345 16.5021513,8.16576925 C16.5562745,8.008125 16.2990058,7.9749519 16.0965939,7.9749519 C16.419133,7.7469231 16.9294165,7.58927885 16.9294165,7.58927885 L17.2076597,7.26591345 C16.3729303,7.3322596 15.1352836,8.26528845 15.1352836,8.26528845 L15.1352836,8.26528845 L15.1352836,8.26528845 Z" id="Shape" fill="#EFE1C6"></path>
                                    </g>
                                </g>
                            </g>
                        </g>
                    </g>
                </g>
            </g>
        </g>
    </g>
</svg>