<?xml version="1.0" encoding="UTF-8"?>
<svg width="30px" height="30px" viewBox="0 0 30 30" version="1.1" xmlns="http://www.w3.org/2000/svg" xmlns:xlink="http://www.w3.org/1999/xlink">
    <!-- Generator: Sketch 50.2 (55047) - http://www.bohemiancoding.com/sketch -->
    <title>devils</title>
    <desc>Created with Sketch.</desc>
    <defs></defs>
    <g id="devils" stroke="none" stroke-width="1" fill="none" fill-rule="evenodd">
        <path d="M15.3100757,28.0622467 C22.4869275,28.0622467 28.3048905,22.1483426 28.3048905,14.8536492 C28.3048905,7.55876767 22.4869275,1.64467538 15.3100757,1.64467538 C8.13359415,1.64467538 2.315446,7.55857943 2.315446,14.8536492 C2.315446,22.1483426 8.13340895,28.0622467 15.3100757,28.0622467 L15.3100757,28.0622467 L15.3100757,28.0622467 L15.3100757,28.0622467 Z" id="path5" fill="#000000"></path>
        <path d="M15.3100756,26.6718581 C21.7310016,26.6718581 26.936372,21.3805892 26.936372,14.8536492 C26.936372,8.32652114 21.7310016,3.03525219 15.3100756,3.03525219 C8.8891497,3.03525219 3.68322378,8.32652114 3.68322378,14.8536492 C3.68322378,21.3804009 8.8889645,26.6718581 15.3100756,26.6718581 L15.3100756,26.6718581 L15.3100756,26.6718581 L15.3100756,26.6718581 Z" id="path7" fill="#FFFFFF"></path>
        <path d="M4.69766822,28.0031453 C3.1930386,28.6589073 1.79192748,29.6660779 1.26822378,30.3487555 C0.429705259,28.27456 0.264520074,26.8427628 0.425631185,25.2861751 C0.646742296,23.1502431 1.48489045,21.2072376 2.62692748,19.8281423 C2.68081637,21.029557 2.985446,22.0024714 3.6767423,21.8998909 C4.22748304,21.8178266 4.46081637,21.5121557 4.82433489,21.3534853 C5.9993349,20.8405831 7.0582238,20.7547543 8.54729785,20.7547543 C9.90100155,20.7547543 12.0424831,21.3587555 12.99952,20.3858411 C13.6185942,19.7566183 14.235446,19.11422 14.235446,19.11422 L12.8919275,16.6289498 L11.4547053,20.4167094 C10.3263719,20.089393 8.9291497,20.0208806 8.32489045,20.0208806 C7.0352608,20.0208806 5.5767423,20.3807592 4.93952007,20.6213056 L4.72340896,20.2482516 C4.60655711,19.999047 4.54989044,19.8855497 4.54989044,19.8855497 L8.10989045,10.8117913 C8.96970525,8.73627827 9.34581635,7.42513073 10.850446,7.0976262 C12.3000757,6.78197958 13.1617423,7.32273855 14.2893349,8.57252601 C15.3102608,9.70373425 17.083409,12.1225625 17.083409,12.1225625 L18.6956312,7.80759582 C17.0163719,7.80759582 15.4041497,6.66057702 15.4041497,4.91294496 C15.4041497,3.60217386 15.8298904,2.43049809 17.1910016,1.49918054 C17.7661868,1.10561042 18.493409,0.786952248 19.1652608,0.596096145 C20.1252608,0.323740347 20.9593349,0.270097359 20.9593349,0.270097359 C20.8380386,0.379641986 20.6972979,0.536241865 20.6972979,0.536241865 C20.4552608,0.782058501 19.8106312,1.44459645 19.7637793,1.86094132 C19.6969275,2.45139062 20.1865571,2.77588364 20.9522978,2.77588364 C21.4132238,2.77588364 24.888409,2.78284782 24.888409,2.78284782 C25.6002608,2.78284782 26.1378534,2.10017022 25.73452,1.44459645 C25.4134089,0.922283149 25.2980386,0.816502947 25.0695201,0.461518124 C25.0695201,0.461518124 24.9421127,0.297577627 24.8482238,0.188221221 L25.4391497,0.188221221 C25.9361867,0.188221221 27.580446,0.319411264 28.5422978,1.25336391 C29.4421127,2.12727405 29.6080386,2.44028558 29.7648905,3.615914 C29.8721127,4.42149991 29.5230386,5.75975127 28.6884089,6.52166993 C27.8821126,7.25742581 26.6098905,7.71913199 25.6541497,7.87610826 L21.2208163,19.7831574 C20.2832238,22.169047 19.6719275,23.2441654 17.9698905,24.2485127 C16.3041497,25.2317792 14.6117423,25.4503038 13.6447053,25.4503038 C12.0056312,25.4503038 11.235446,25.0441229 9.7489645,24.4945175 C8.2939645,23.9565819 7.47137195,24.0533275 7.10248305,24.3034732 C6.73989045,24.5492898 6.68618675,24.6038739 6.59100155,24.8212692 C6.4517423,25.140492 6.69211265,25.6669462 7.0352608,25.9421253 C7.98229785,26.6999031 8.97637195,27.1506924 9.1643349,27.2321921 C8.9628534,27.2318156 6.2439645,27.3296906 4.69766822,28.0031453 L4.69766822,28.0031453 L4.69766822,28.0031453 L4.69766822,28.0031453 Z" id="path9" fill="#000000"></path>
        <path d="M5.18563118,19.9651672 C5.9602608,19.7317731 7.18340895,19.474475 8.32470525,19.474475 C8.4919275,19.474475 9.84600155,19.4838861 11.1239645,19.7697938 L12.8065571,15.3364361 L14.8922978,19.1949668 L14.6310015,19.4836979 C14.6052608,19.5121192 13.9991497,20.1422831 13.3793349,20.7720707 C12.3498904,21.8183912 10.581372,21.3171587 9.11859415,21.3043597 L8.54729785,21.3005952 L7.7443349,21.2911842 C6.7256312,21.2746208 5.92359415,21.4677355 5.03618674,21.8550943 C4.95137192,21.8919857 4.86489045,21.9492048 4.76452007,22.0156468 C4.52581637,22.1733761 4.22877934,22.3693141 3.7541497,22.439897 C3.42377934,22.4890227 3.11414971,22.4014999 2.85859415,22.1869279 C2.61489045,21.9832728 2.42859415,21.6642382 2.29896452,21.2364119 C1.58692748,22.4374501 1.11174229,23.876588 0.96007563,25.3430178 C0.829334889,26.6065454 0.93266822,27.7360597 1.47211266,29.347608 C2.22081637,28.6976808 3.33489044,28.0023925 4.48581637,27.5011599 C5.31063118,27.1414695 6.4032238,26.9402613 7.325446,26.8265758 C7.12100155,26.6891745 6.91100155,26.5372801 6.7026682,26.3701398 C6.20118675,25.9692291 5.83840895,25.1965819 6.09970525,24.5986037 C6.2552608,24.2421131 6.4080386,24.1163815 6.8039645,23.8479784 C7.25007565,23.5458836 8.15489045,23.3234064 9.93211265,23.9802977 L10.5667423,24.2202795 C11.6406312,24.6319189 12.3500756,24.9031453 13.6443349,24.9031453 C14.2891497,24.9031453 15.9756312,24.7932243 17.6998905,23.7755133 C19.2332238,22.8701702 19.8026682,21.9343354 20.687483,19.6540379 L20.7247052,19.5717853 L25.2611867,7.38692191 L25.5676682,7.33647866 C26.3678534,7.20472393 27.5715571,6.80588363 28.3287794,6.11435966 C29.0424831,5.4633032 29.3119275,4.28711011 29.2317423,3.68875553 C29.0930386,2.64714047 28.9837794,2.43746227 28.1708164,1.64806336 C27.5891497,1.08321211 26.6280386,0.843983212 25.9393349,0.765683275 C26.0102608,0.869393048 26.0911868,0.993807137 26.1900756,1.1547361 C26.46452,1.60119633 26.48452,2.10976949 26.2441497,2.54983021 C25.9826682,3.029982 25.4630386,3.3283123 24.8871127,3.3283123 L20.9519275,3.32172456 C20.3213719,3.32172456 19.8274831,3.13858552 19.5241497,2.79282353 C19.2882238,2.52385571 19.186372,2.18016415 19.2295201,1.79826372 C19.2541497,1.57672759 19.3535942,1.3384398 19.5408163,1.06024915 C19.46452,1.07944769 19.3876682,1.09958734 19.3091497,1.12179742 C18.6517423,1.30813622 17.9889645,1.6107956 17.490446,1.95185206 C16.4191497,2.68497289 15.9415571,3.598033 15.9415571,4.91256852 C15.9415571,5.48024308 16.157483,5.99973305 16.5658164,6.41476039 C17.0869275,6.94497895 17.8830386,7.26119023 18.695446,7.26119023 L19.4741497,7.26119023 L17.2376682,13.2473712 L16.652483,12.4489377 C16.6350757,12.4248454 14.8839645,10.0391441 13.8932238,8.94162741 C12.767483,7.69372215 12.0828534,7.38767475 10.9628534,7.631421 C9.9315571,7.8563451 9.5715571,8.64555576 8.85618675,10.4093749 L8.6076682,11.0171405 L5.06229785,20.0033761 L5.18563118,19.9651672 L5.18563118,19.9651672 L5.18563118,19.9651672 L5.18563118,19.9651672 Z" id="path11" fill="#E13A3E"></path>
        <polygon id="polygon13" fill="#E13A3E" points="8.60489045 11.02354 8.60748305 11.0173287 8.6089645 11.0143171"></polygon>
        <polygon id="polygon15" fill="#E13A3E" points="20.7326682 19.5548454 20.7248904 19.5721617 20.7182238 19.5896663"></polygon>
    </g>
</svg>