<?xml version="1.0" encoding="UTF-8"?>
<svg width="30px" height="30px" viewBox="0 0 30 30" version="1.1" xmlns="http://www.w3.org/2000/svg" xmlns:xlink="http://www.w3.org/1999/xlink">
    <!-- Generator: Sketch 50.2 (55047) - http://www.bohemiancoding.com/sketch -->
    <title>ducks</title>
    <desc>Created with Sketch.</desc>
    <defs></defs>
    <g id="ducks" stroke="none" stroke-width="1" fill="none" fill-rule="evenodd">
        <path d="M18.1587662,7.23444995 C10.1508117,7.23444995 3.77629871,11.5421055 3.77629871,11.5421055 C3.77629871,11.5421055 11.6352273,10.9205744 11.6352273,12.5196174 C11.6352273,13.9205744 5.41412336,16.2014356 5.41412336,16.2014356 C5.41412336,16.2014356 10.3202922,16.3277514 10.3202922,17.4918662 C10.3202922,19.456938 0.123701298,22.1023925 0.123701298,22.1023925 C0.123701298,22.1023925 3.69594155,23.7143542 9.27711037,23.7143542 C19.2720779,23.7143542 29.8777597,18.1464117 29.8777597,13.8071772 C29.8777597,9.81100497 23.9108766,7.23444995 18.1587662,7.23444995 L18.1587662,7.23444995 L18.1587662,7.23444995 Z" id="Shape" fill="#A4A9AD"></path>
        <path d="M26.1959415,20.1846893 L26.0702923,19.9205744 C26.1448052,19.8947371 26.1959415,19.8258376 26.1959415,19.7454547 C26.1959415,19.6435408 26.1112014,19.5588519 26.0074676,19.5588519 L25.7386363,19.5588519 L25.7386363,20.1846893 L25.8584416,20.1846893 L25.8584416,19.9306222 L25.9446429,19.9306222 L26.0659091,20.1846893 L26.1959415,20.1846893 L26.1959415,20.1846893 L26.1959415,20.1846893 Z M26.0074676,19.8129188 L25.8569805,19.8129188 L25.8569805,19.6751198 L26.0074676,19.6751198 C26.0454545,19.6751198 26.0775974,19.7052634 26.0775974,19.7440194 C26.0775974,19.7827754 26.0454545,19.8129188 26.0074676,19.8129188 L26.0074676,19.8129188 L26.0074676,19.8129188 Z" id="Shape" fill="#A4A9AD"></path>
        <path d="M26.5261363,19.8717705 C26.5261363,19.5688997 26.2762988,19.3220098 25.9680195,19.3220098 C25.6597403,19.3220098 25.4099026,19.5688997 25.4099026,19.8717705 C25.4099026,20.1746414 25.6597403,20.4186605 25.9680195,20.4186605 C26.2762988,20.4186605 26.5261363,20.1746414 26.5261363,19.8717705 L26.5261363,19.8717705 L26.5261363,19.8717705 Z M25.5297077,19.8717705 C25.5297077,19.6334929 25.725487,19.4397132 25.9680195,19.4397132 C26.2090909,19.4397132 26.4063312,19.6334929 26.4063312,19.8717705 C26.4063312,20.1086126 26.2090909,20.3023925 25.9680195,20.3023925 C25.725487,20.3023925 25.5297077,20.1086126 25.5297077,19.8717705 L25.5297077,19.8717705 L25.5297077,19.8717705 Z" id="Shape" fill="#A4A9AD"></path>
        <path d="M18.1587662,7.58612459 C12.375974,7.58612459 7.41282466,9.89425856 5.20519479,11.1057418 C5.20519479,11.1057418 11.9931819,10.6363638 11.9931819,12.518182 C11.9931819,13.6909093 9.07548702,15.1004787 7.03733764,15.9430624 C8.71168832,16.0995217 10.6782468,16.4956939 10.6782468,17.4904307 C10.6782468,19.3234452 4.42938311,21.2842107 1.27938312,22.1540672 C2.70097403,22.6205744 5.54269479,23.3626796 9.27711038,23.3626796 C19.3202923,23.3626796 29.5212662,17.801914 29.5212662,13.8057418 C29.5198052,9.96315808 23.6215909,7.58612459 18.1587662,7.58612459 L18.1587662,7.58612459 L18.1587662,7.58612459 Z" id="Shape" fill="#000000"></path>
        <path d="M7.4055195,22.0779906 L6.22646105,22.3851677 C6.22646105,22.3851677 7.28133118,22.5000002 8.94107143,22.5000002 C20.8558442,22.5000002 28.7673702,15.3775122 28.7673702,14.2435408 C28.7673702,14.1186605 28.7264611,14.0138758 28.7264611,14.0138758 C24.5040585,18.948804 16.1176948,22.3521533 7.4055195,22.0779906 L7.4055195,22.0779906 L7.4055195,22.0779906 Z" id="Shape" fill="#FF4C00"></path>
        <path d="M18.3019481,8.55071789 C13.8530845,8.55071789 9.0068182,10.2459332 9.0068182,10.2459332 C9.0068182,10.2459332 13.9933441,10.0004787 13.9933441,12.048804 C13.9933441,13.9593303 10.4693182,15.3617227 10.4693182,15.3617227 C10.4693182,15.3617227 12.6082793,15.8540672 12.6082793,17.0669858 C12.6082793,19.8287083 5.67418832,21.5425839 5.67418832,21.5425839 C20.2232143,22.2358854 28.533604,14.5937801 28.533604,13.1813399 C28.533604,11.8665074 24.485065,8.55071789 18.3019481,8.55071789 L18.3019481,8.55071789 L18.3019481,8.55071789 Z" id="Shape" fill="#FFFFFF"></path>
        <path d="M18.3019481,8.8306222 C15.5128247,8.8306222 12.5396104,9.51387579 10.7498376,10.0090911 C10.7498376,10.0090911 14.2782467,10.149761 14.2782467,12.0473686 C14.2782467,13.5918662 12.3102272,14.7818184 11.2422077,15.3143543 C11.9391234,15.5913877 12.8931818,16.1411485 12.8931818,17.0655504 C12.8931818,19.1210528 9.56201298,20.5808615 7.44496752,21.3028711 C20.6366883,21.3028711 28.2457791,14.4129188 28.2457791,13.1799045 C28.2457791,12.0617227 24.340422,8.8306222 18.3019481,8.8306222 L18.3019481,8.8306222 L18.3019481,8.8306222 Z" id="Shape" fill="#8D734A"></path>
        <path d="M15.864935,10.8976079 C15.864935,10.8976079 19.7629871,11.7617227 21.5060065,12.9057418 L13.9056819,14.8392346 L21.112987,14.6081342 C19.5058441,15.7622012 13.6514611,18.5224882 13.6514611,18.5224882 C13.6514611,18.5224882 20.8485389,17.4703352 25.3996754,13.3866031 C21.3496753,9.81244039 15.864935,10.8976079 15.864935,10.8976079 L15.864935,10.8976079 L15.864935,10.8976079 Z" id="Shape" fill="#FFFFFF"></path>
        <path d="M17.5334416,11.0339715 C17.5334416,11.0339715 20.549026,11.7904308 22.1941558,13.0205744 L16.4771104,14.4760767 L22.0290584,14.2980863 C20.477435,15.5799045 15.9087662,17.7430624 15.9087662,17.7430624 C18.3121754,17.1172251 22.1079545,15.8167466 24.9452923,13.3923447 C22.4176948,11.3153112 19.3626624,10.9952155 17.5334416,11.0339715 L17.5334416,11.0339715 L17.5334416,11.0339715 Z" id="Shape" fill="#000000"></path>
    </g>
</svg>