<?xml version="1.0" encoding="UTF-8"?>
<svg width="30px" height="30px" viewBox="0 0 30 30" version="1.1" xmlns="http://www.w3.org/2000/svg" xmlns:xlink="http://www.w3.org/1999/xlink">
    <!-- Generator: Sketch 50.2 (55047) - http://www.bohemiancoding.com/sketch -->
    <title>Artboard 2</title>
    <desc>Created with Sketch.</desc>
    <defs>
        <linearGradient x1="-9.36363954%" y1="49.9993695%" x2="117.786036%" y2="49.9993695%" id="linearGradient-1">
            <stop stop-color="#FFFFFF" offset="11.24%"></stop>
            <stop stop-color="#DDDFE1" offset="23.5%"></stop>
            <stop stop-color="#A8AFB3" offset="43.93%"></stop>
            <stop stop-color="#949CA1" offset="53.93%"></stop>
        </linearGradient>
        <linearGradient x1="50%" y1="100%" x2="50%" y2="0.251746032%" id="linearGradient-2">
            <stop stop-color="#FFFFFF" offset="0%"></stop>
            <stop stop-color="#FFFFFF" offset="34.83%"></stop>
            <stop stop-color="#949CA1" offset="56.18%"></stop>
            <stop stop-color="#949CA1" offset="100%"></stop>
        </linearGradient>
        <linearGradient x1="-0.148470588%" y1="49.9996753%" x2="99.8515294%" y2="49.9996753%" id="linearGradient-3">
            <stop stop-color="#FFFFFF" offset="15.17%"></stop>
            <stop stop-color="#FAFAFA" offset="21.2%"></stop>
            <stop stop-color="#EBECED" offset="28.63%"></stop>
            <stop stop-color="#D2D5D7" offset="36.81%"></stop>
            <stop stop-color="#AFB5B9" offset="45.46%"></stop>
            <stop stop-color="#949CA1" offset="51.12%"></stop>
        </linearGradient>
        <linearGradient x1="83.0935526%" y1="89.7786241%" x2="17.0084211%" y2="1.66031941%" id="linearGradient-4">
            <stop stop-color="#949CA1" offset="0%"></stop>
            <stop stop-color="#9DA5AA" offset="2.59%"></stop>
            <stop stop-color="#C2C7CB" offset="12.59%"></stop>
            <stop stop-color="#DADDDF" offset="20.5%"></stop>
            <stop stop-color="#E4E5E6" offset="25.28%"></stop>
            <stop stop-color="#E4E5E6" offset="75.28%"></stop>
            <stop stop-color="#DCDEE0" offset="79.82%"></stop>
            <stop stop-color="#C6CBCF" offset="86.85%"></stop>
            <stop stop-color="#A6ADB2" offset="95.43%"></stop>
            <stop stop-color="#949CA1" offset="100%"></stop>
        </linearGradient>
        <linearGradient x1="-0.141726619%" y1="49.9991379%" x2="99.9982014%" y2="49.9991379%" id="linearGradient-5">
            <stop stop-color="#FFFFFF" offset="24.72%"></stop>
            <stop stop-color="#FAFAFA" offset="33.76%"></stop>
            <stop stop-color="#EBECED" offset="44.92%"></stop>
            <stop stop-color="#D2D5D7" offset="57.18%"></stop>
            <stop stop-color="#AFB5B9" offset="70.15%"></stop>
            <stop stop-color="#949CA1" offset="78.65%"></stop>
        </linearGradient>
        <linearGradient x1="1.60756275e-14%" y1="49.9998058%" x2="100.000226%" y2="49.9998058%" id="linearGradient-6">
            <stop stop-color="#FFFFFF" offset="19.66%"></stop>
            <stop stop-color="#FAFBFB" offset="32.81%"></stop>
            <stop stop-color="#EDEEEF" offset="47.46%"></stop>
            <stop stop-color="#D7DADC" offset="62.82%"></stop>
            <stop stop-color="#B8BDC0" offset="78.58%"></stop>
            <stop stop-color="#949CA1" offset="93.26%"></stop>
        </linearGradient>
        <linearGradient x1="0%" y1="50%" x2="100.143525%" y2="50%" id="linearGradient-7">
            <stop stop-color="#FFFFFF" offset="24.72%"></stop>
            <stop stop-color="#FAFAFA" offset="33.76%"></stop>
            <stop stop-color="#EBECED" offset="44.92%"></stop>
            <stop stop-color="#D2D5D7" offset="57.19%"></stop>
            <stop stop-color="#AFB5B9" offset="70.16%"></stop>
            <stop stop-color="#949CA1" offset="78.65%"></stop>
        </linearGradient>
        <linearGradient x1="-0.728977273%" y1="49.9994709%" x2="99.7676136%" y2="49.9994709%" id="linearGradient-8">
            <stop stop-color="#FFFFFF" offset="38.76%"></stop>
            <stop stop-color="#FAFAFA" offset="46.77%"></stop>
            <stop stop-color="#EBECED" offset="56.65%"></stop>
            <stop stop-color="#D2D5D7" offset="67.51%"></stop>
            <stop stop-color="#AFB5B9" offset="79%"></stop>
            <stop stop-color="#949CA1" offset="86.52%"></stop>
        </linearGradient>
    </defs>
    <g id="Artboard-2" stroke="none" stroke-width="1" fill="none" fill-rule="evenodd">
        <g id="Group" transform="translate(2.000000, 0.000000)" fill-rule="nonzero">
            <g transform="translate(0.870968, 10.673077)" fill="#FFFFFF" id="Shape">
                <path d="M0.551612903,7.5 C0.551612903,4.78846154 1.82903226,3.75 2.11935484,1.15384615 C1.74193548,3.40384615 0.232258065,5.27884615 0.232258065,7.5 C0.232258065,8.36538462 0.348387097,9.14423077 0.580645161,9.83653846 C1.53870968,12.9807692 4.35483871,14.7115385 7.11290323,15.4038462 C2.87419355,14.3653846 0.551612903,10.8461538 0.551612903,7.5 Z"></path>
                <path d="M23.8935484,3.92307692 C23.3709677,2.68269231 22.8193548,1.58653846 22.8193548,0.201923077 C22.8193548,3.51923077 24.416129,4.44230769 24.416129,7.5 C24.416129,10.8461538 22.0935484,14.3653846 17.883871,15.4038462 C21.6870968,14.4519231 24.7064516,11.6826923 24.7064516,7.5 C24.7064516,6.08653846 24.3,4.96153846 23.8935484,3.92307692 Z"></path>
            </g>
            <g transform="translate(6.096774, 0.576923)" fill="#D1D3D3" id="Shape">
                <path d="M18.0870968,4.38461538 C17.216129,4.125 16.6064516,3.49038462 16.2290323,2.45192308 L15.3580645,0.0865384615 L14.9516129,1.58653846 C15.7935484,5.27884615 18.8419355,5.53846154 18.8419355,5.53846154 L20.0903226,4.96153846 L18.0870968,4.38461538 Z"></path>
                <path d="M3.62903226,17.7980769 L2.03225806,15.375 L0.261290323,16.7019231 C0.261290323,16.7019231 0.870967742,16.7307692 0.870967742,17.3653846 L0.870967742,21.9519231 L2.11935484,21.0288462 L2.11935484,17.7692308 L3.54193548,19.9326923 L4.87741935,18.9519231 L4.87741935,13.2403846 L3.62903226,14.1634615 L3.62903226,17.7980769 Z"></path>
                <path d="M8.73870968,12.4903846 L7.31612903,13.5576923 L7.31612903,11.4519231 L5.4,12.8653846 C5.4,12.8653846 6.00967742,12.8942308 6.00967742,13.5288462 L6.00967742,18.1153846 L7.28709677,17.1634615 L7.28709677,15.0865385 L8.70967742,14.0192308 L8.70967742,16.0961538 L9.92903226,15.1730769 L9.92903226,9.49038462 L8.70967742,10.4134615 C8.73870968,10.3846154 8.73870968,12.4903846 8.73870968,12.4903846 Z"></path>
                <path d="M12.3096774,11.9711538 L12.3096774,7.73076923 L10.3935484,9.14423077 C10.3935484,9.14423077 11.0032258,9.17307692 11.0032258,9.80769231 L11.0032258,14.3942308 L14.5741935,11.7403846 C14.4870968,10.8173077 14.5741935,10.2980769 14.5741935,10.2980769 L12.3096774,11.9711538 Z"></path>
            </g>
            <g transform="translate(0.290323, 0.576923)" id="Shape">
                <path d="M1.82903226,10.2980769 C1.82903226,13.5288462 0.232258065,14.1923077 0.232258065,17.5673077 C0.232258065,18.6057692 0.406451613,19.5865385 0.725806452,20.4519231 C0.841935484,20.2788462 0.987096774,20.1057692 1.16129032,19.9326923 C0.958064516,19.2115385 0.812903226,18.4326923 0.812903226,17.5961538 C0.812903226,15.375 2.32258065,13.5288462 2.7,11.25 C2.72903226,10.9615385 2.75806452,10.6442308 2.75806452,10.2980769 C2.75806452,7.70192308 1.50967742,5.53846154 1.50967742,5.53846154 L0.261290323,4.96153846 L1.10322581,6.86538462 C1.50967742,7.81730769 1.82903226,8.97115385 1.82903226,10.2980769 Z" fill="url(#linearGradient-1)"></path>
                <path d="M23.4,10.2980769 C23.4,11.6538462 23.9516129,12.7788462 24.4741935,14.0192308 L25.1419355,13.9903846 C24.7354839,12.9519231 24.3,11.9711538 24.3,10.2980769 C24.3,8.97115385 24.6193548,7.78846154 25.0548387,6.83653846 L25.8967742,4.93269231 L24.6483871,5.50961538 C24.6193548,5.53846154 23.4,7.73076923 23.4,10.2980769 Z" fill="url(#linearGradient-2)"></path>
                <path d="M12.0774194,26.5096154 C11.0612903,26.1346154 9.66774194,26.0192308 7.66451613,25.5288462 C4.93548387,24.8076923 2.09032258,23.0769231 1.16129032,19.9326923 C0.987096774,20.0769231 0.841935484,20.2788462 0.75483871,20.4807692 C1.82903226,23.5096154 4.52903226,25.6153846 7.46129032,26.3653846 C9.3483871,26.8269231 10.2193548,26.8846154 11.6129032,27.2596154 C11.7870968,27.4615385 13.0935484,28.8173077 13.0935484,28.8173077 L13.0935484,27.4903846 C13.0645161,27.5192308 12.2225806,26.625 12.0774194,26.5096154 Z" fill="url(#linearGradient-3)"></path>
                <path d="M7.89677419,24.6346154 C10.1322581,25.1826923 11.583871,25.2692308 12.5709677,25.7307692 C12.5709677,25.7307692 12.9193548,26.0480769 13.0645161,26.1923077 C13.2096774,26.0480769 13.5580645,25.7307692 13.5580645,25.7307692 C14.5451613,25.2692308 15.9967742,25.2115385 18.2322581,24.6346154 C21.0483871,23.9134615 24.0967742,21.4615385 24.0967742,17.5961538 C24.0967742,14.8269231 22.5,13.8173077 22.5,10.2980769 C22.5,7.93269231 23.4,6.11538462 23.4,6.11538462 C23.4,6.11538462 21.3096774,5.71153846 20.3225806,3.08653846 C20.3225806,3.08653846 18.9290323,4.35576923 17.0419355,4.35576923 C14.6612903,4.35576923 13.0645161,2.71153846 13.0645161,2.71153846 C13.0645161,2.71153846 11.4677419,4.35576923 9.08709677,4.35576923 C7.17096774,4.35576923 5.80645161,3.08653846 5.80645161,3.08653846 C4.81935484,5.71153846 2.72903226,6.11538462 2.72903226,6.11538462 C2.72903226,6.11538462 3.62903226,7.93269231 3.62903226,10.2980769 C3.62903226,13.8173077 2.03225806,14.8269231 2.03225806,17.5961538 C2.03225806,21.4615385 5.08064516,23.9134615 7.89677419,24.6346154 Z M23.0516129,17.5961538 C23.0516129,20.8846154 20.4096774,23.0192308 17.9709677,23.6538462 C16.2,24.0865385 14.0516129,24.3173077 13.383871,24.6923077 C13.2387097,24.8076923 13.0645161,24.9807692 13.0645161,24.9807692 C13.0645161,24.9807692 12.8903226,24.7788462 12.7451613,24.6923077 C12.0774194,24.3173077 9.92903226,24.0865385 8.15806452,23.6538462 C8.1,23.625 8.01290323,23.625 7.95483871,23.5961538 L21.8612903,13.2403846 C22.3548387,14.8846154 23.0516129,15.9519231 23.0516129,17.5961538 Z M22.0645161,6.66346154 C21.7741935,7.5 21.4548387,8.79807692 21.4548387,10.2980769 C21.4548387,10.9326923 21.5129032,11.4807692 21.5709677,11.9711538 L6.6483871,23.0769231 C4.79032258,22.125 3.13548387,20.3076923 3.0483871,17.7980769 L20.2064516,5.04807692 C20.816129,5.85576923 21.5129032,6.375 22.0645161,6.66346154 Z M4.67419355,10.2980769 C4.67419355,8.79807692 4.35483871,7.5 4.06451613,6.66346154 C4.73225806,6.31730769 5.54516129,5.68269231 6.21290323,4.58653846 C6.90967742,4.99038462 7.92580645,5.36538462 9.11612903,5.36538462 C10.8870968,5.36538462 12.3096774,4.58653846 13.0935484,4.00961538 C13.8774194,4.58653846 15.3,5.36538462 17.0709677,5.36538462 C17.3612903,5.36538462 17.6225806,5.33653846 17.883871,5.30769231 L3.2516129,16.1826923 C3.65806452,14.5384615 4.67419355,13.1826923 4.67419355,10.2980769 Z" fill="url(#linearGradient-4)"></path>
                <path d="M9.08709677,3.46153846 C11.4967742,3.46153846 13.0645161,1.44230769 13.0645161,1.44230769 L13.0645161,0.173076923 L11.816129,1.41346154 C11.1774194,2.04807692 10.1322581,2.56730769 9.08709677,2.56730769 C8.30322581,2.56730769 7.57741935,2.22115385 6.93870968,1.70192308 L4.99354839,0.115384615 L5.4,1.61538462 C5.4,1.58653846 7.22903226,3.46153846 9.08709677,3.46153846 Z" fill="url(#linearGradient-5)"></path>
                <path d="M25.2870968,17.5961538 C25.2870968,21.7788462 22.2677419,24.5480769 18.4645161,25.5 C16.4612903,25.9903846 15.0677419,26.1346154 14.0516129,26.4807692 C13.9064516,26.5961538 13.0645161,27.5192308 13.0645161,27.5192308 L13.0645161,28.8461538 C13.0645161,28.8461538 14.3419355,27.4615385 14.5451613,27.2884615 C15.9387097,26.9134615 16.8096774,26.8557692 18.6967742,26.3942308 C22.4709677,25.4134615 25.8967742,22.1538462 25.8967742,17.5961538 C25.8967742,15.9519231 25.5193548,14.9711538 25.1419355,13.9903846 L24.4741935,14.0192308 C24.8806452,15.0576923 25.2870968,16.1826923 25.2870968,17.5961538 Z" fill="url(#linearGradient-6)"></path>
                <path d="M17.0419355,3.46153846 C18.9,3.46153846 20.7290323,1.58653846 20.7290323,1.58653846 L21.1354839,0.0865384615 L19.1903226,1.67307692 C18.5516129,2.19230769 17.8258065,2.53846154 17.0419355,2.53846154 C15.9967742,2.53846154 14.9516129,2.01923077 14.3129032,1.38461538 L13.0645161,0.173076923 L13.0645161,1.44230769 C13.0645161,1.44230769 14.6322581,3.46153846 17.0419355,3.46153846 Z" fill="url(#linearGradient-7)"></path>
                <path d="M5.4,1.58653846 L4.99354839,0.0865384615 L4.12258065,2.45192308 C3.74516129,3.46153846 3.10645161,4.125 2.26451613,4.38461538 L0.290322581,4.96153846 L1.53870968,5.53846154 C1.50967742,5.53846154 4.55806452,5.27884615 5.4,1.58653846 Z" fill="url(#linearGradient-8)"></path>
            </g>
            <g fill="#000000" id="Shape">
                <path d="M1.74193548,10.875 C1.74193548,13.9903846 0.14516129,14.7115385 0.14516129,18.1442308 C0.14516129,23.1346154 4.03548387,26.3942308 7.66451613,27.3173077 C9.49354839,27.75 10.0451613,27.7788462 11.7,28.1826923 C11.8451613,28.3269231 13.383871,29.9711538 13.383871,29.9711538 C13.383871,29.9711538 14.9225806,28.3269231 15.0677419,28.1826923 C16.7225806,27.7788462 17.2741935,27.75 19.1032258,27.3173077 C22.7322581,26.3942308 26.6225806,23.1346154 26.6225806,18.1442308 C26.6225806,14.6826923 25.0258065,13.9903846 25.0258065,10.875 C25.0258065,9.75 25.2580645,8.65384615 25.7516129,7.58653846 L26.7677419,5.27884615 L24.3580645,4.58653846 C23.6322581,4.38461538 23.0806452,3.80769231 22.7612903,2.91346154 L21.6870968,0.0288461538 L19.3064516,1.99038462 C18.6677419,2.50961538 18.0290323,2.76923077 17.4193548,2.76923077 C16.5774194,2.76923077 15.6193548,2.36538462 14.9806452,1.73076923 L13.3548387,0.201923077 L11.816129,1.70192308 C11.1774194,2.33653846 10.2193548,2.74038462 9.37741935,2.74038462 C8.73870968,2.74038462 8.1,2.48076923 7.46129032,1.96153846 L5.08064516,0 L4.03548387,2.91346154 C3.71612903,3.80769231 3.16451613,4.38461538 2.43870968,4.58653846 L0,5.27884615 L1.01612903,7.58653846 C1.50967742,8.65384615 1.74193548,9.75 1.74193548,10.875 Z M2.52580645,4.96153846 C3.39677419,4.70192308 4.00645161,4.06730769 4.38387097,3.02884615 L5.25483871,0.663461538 L7.2,2.25 C7.83870968,2.76923077 8.56451613,3.11538462 9.3483871,3.11538462 C10.3935484,3.11538462 11.4387097,2.59615385 12.0774194,1.96153846 L13.3548387,0.75 L14.6032258,1.99038462 C15.2419355,2.625 16.2870968,3.14423077 17.3322581,3.14423077 C18.116129,3.14423077 18.8419355,2.79807692 19.4806452,2.27884615 L21.4258065,0.692307692 L22.2967742,3.05769231 C22.6741935,4.06730769 23.3129032,4.73076923 24.1548387,4.99038462 L26.1290323,5.56730769 L25.2870968,7.47115385 C24.8516129,8.42307692 24.5322581,9.60576923 24.5322581,10.9326923 C24.5322581,12.6057692 24.9677419,13.5865385 25.3741935,14.625 C25.7516129,15.5769231 26.1290323,16.5865385 26.1290323,18.2307692 C26.1290323,22.7884615 22.7032258,26.0480769 18.9290323,27.0288462 C17.0419355,27.4903846 16.1709677,27.5480769 14.7774194,27.9230769 C14.6032258,28.125 13.2967742,29.4807692 13.2967742,29.4807692 C13.2967742,29.4807692 12.0193548,28.0961538 11.816129,27.9230769 C10.4225806,27.5480769 9.5516129,27.4903846 7.66451613,27.0288462 C4.81935484,26.2211538 2.11935484,24.0865385 1.01612903,21.0576923 C0.696774194,20.1634615 0.522580645,19.1826923 0.522580645,18.1730769 C0.522580645,14.7692308 2.11935484,14.1346154 2.11935484,10.9038462 C2.11935484,9.57692308 1.8,8.39423077 1.36451613,7.44230769 L0.522580645,5.53846154 L2.52580645,4.96153846 Z"></path>
                <path d="M8.24516129,24.1730769 C8.30322581,24.2019231 8.39032258,24.2019231 8.4483871,24.2307692 C10.2193548,24.6634615 12.3677419,24.8942308 13.0354839,25.2692308 C13.1806452,25.3846154 13.3548387,25.5576923 13.3548387,25.5576923 C13.3548387,25.5576923 13.5290323,25.3557692 13.6741935,25.2692308 C14.3419355,24.8942308 16.4903226,24.6634615 18.2612903,24.2307692 C20.7,23.625 23.3419355,21.4615385 23.3419355,18.1730769 C23.3419355,16.5288462 22.616129,15.4615385 22.1516129,13.8173077 L8.24516129,24.1730769 Z"></path>
                <path d="M3.54193548,16.7596154 L18.1451613,5.88461538 C17.883871,5.91346154 17.6225806,5.94230769 17.3322581,5.94230769 C15.5322581,5.94230769 14.1387097,5.16346154 13.3548387,4.58653846 C12.5709677,5.16346154 11.1483871,5.94230769 9.37741935,5.94230769 C8.18709677,5.94230769 7.2,5.53846154 6.47419355,5.16346154 C5.80645161,6.25961538 4.99354839,6.89423077 4.32580645,7.24038462 C4.61612903,8.07692308 4.93548387,9.375 4.93548387,10.875 C4.96451613,13.7596154 3.9483871,15.1153846 3.54193548,16.7596154 Z"></path>
                <path d="M6.93870968,23.6538462 L21.8612903,12.5480769 C21.7741935,12.0576923 21.7451613,11.5096154 21.7451613,10.875 C21.7451613,9.375 22.0645161,8.07692308 22.3548387,7.24038462 C21.8032258,6.92307692 21.1064516,6.43269231 20.4967742,5.59615385 L3.36774194,18.375 C3.42580645,20.8846154 5.08064516,22.7019231 6.93870968,23.6538462 Z M18.4064516,8.30769231 L18.4064516,12.5480769 L20.6709677,10.8461538 C20.6709677,10.8461538 20.583871,11.3942308 20.6709677,12.2884615 L17.1290323,14.9711538 L17.1290323,10.3846154 C17.1290323,9.75 16.5193548,9.72115385 16.5193548,9.72115385 L18.4064516,8.30769231 Z M13.4129032,12.0288462 L13.4129032,14.1346154 L14.8354839,13.0673077 L14.8354839,10.9615385 L16.0548387,10.0384615 L16.0548387,15.75 L14.8354839,16.6730769 L14.8354839,14.5961538 L13.4129032,15.6634615 L13.4129032,17.7403846 L12.1354839,18.6923077 L12.1354839,14.1057692 C12.1354839,13.4711538 11.5258065,13.4423077 11.5258065,13.4423077 L13.4129032,12.0288462 Z M8.12903226,15.9519231 L9.72580645,18.375 L9.72580645,14.7692308 L10.9741935,13.8461538 L10.9741935,19.5576923 L9.66774194,20.5096154 L8.24516129,18.3461538 L8.24516129,21.5769231 L6.96774194,22.5288462 L6.96774194,17.9423077 C6.96774194,17.3076923 6.35806452,17.2788462 6.35806452,17.2788462 L8.12903226,15.9519231 Z"></path>
                <path d="M2.99032258,11.8269231 C2.72903226,14.4230769 1.42258065,15.4326923 1.42258065,18.1730769 C1.42258065,21.5192308 3.74516129,25.0384615 7.95483871,26.0769231 C9.95806452,26.5673077 11.3516129,26.7115385 12.3677419,27.0576923 C12.5129032,27.1730769 13.3548387,28.0961538 13.3548387,28.0961538 C13.3548387,28.0961538 14.1967742,27.1730769 14.3419355,27.0576923 C15.3580645,26.6826923 16.7516129,26.5673077 18.7548387,26.0769231 C22.9645161,25.0096154 25.2870968,21.5192308 25.2870968,18.1730769 C25.2870968,15.1442308 23.6903226,14.1923077 23.6903226,10.875 C23.6903226,8.27884615 24.9387097,6.11538462 24.9387097,6.11538462 C24.9387097,6.11538462 21.8612903,5.85576923 21.0193548,2.16346154 C21.0193548,2.16346154 19.1903226,4.03846154 17.3322581,4.03846154 C14.9225806,4.03846154 13.3548387,2.01923077 13.3548387,2.01923077 C13.3548387,2.01923077 11.7870968,4.03846154 9.37741935,4.03846154 C7.51935484,4.03846154 5.69032258,2.16346154 5.69032258,2.16346154 C4.8483871,5.85576923 1.8,6.11538462 1.8,6.11538462 C1.8,6.11538462 3.0483871,8.30769231 3.0483871,10.875 C3.01935484,11.2211538 3.01935484,11.5384615 2.99032258,11.8269231 Z M3.01935484,6.69230769 C3.01935484,6.69230769 5.10967742,6.28846154 6.06774194,3.66346154 C6.06774194,3.66346154 7.46129032,4.93269231 9.3483871,4.93269231 C11.7580645,4.93269231 13.3548387,3.28846154 13.3548387,3.28846154 C13.3548387,3.28846154 14.9516129,4.93269231 17.3322581,4.93269231 C19.2483871,4.93269231 20.6129032,3.66346154 20.6129032,3.66346154 C21.5709677,6.28846154 23.6612903,6.69230769 23.6612903,6.69230769 C23.6612903,6.69230769 22.7612903,8.50961538 22.7612903,10.875 C22.7612903,14.3942308 24.3580645,15.4038462 24.3580645,18.1730769 C24.3580645,22.0384615 21.3096774,24.4903846 18.4935484,25.2115385 C16.2580645,25.7596154 14.8064516,25.8461538 13.8193548,26.3076923 C13.8193548,26.3076923 13.4709677,26.625 13.3258065,26.7692308 C13.1806452,26.625 12.8322581,26.3076923 12.8322581,26.3076923 C11.8451613,25.8461538 10.3935484,25.7884615 8.15806452,25.2115385 C5.37096774,24.4903846 2.32258065,22.0384615 2.32258065,18.1730769 C2.32258065,15.4038462 3.91935484,14.3942308 3.91935484,10.875 C3.91935484,8.50961538 3.01935484,6.69230769 3.01935484,6.69230769 Z"></path>
            </g>
        </g>
    </g>
</svg>