<?xml version="1.0" encoding="UTF-8"?>
<svg width="30px" height="30px" viewBox="0 0 30 30" version="1.1" xmlns="http://www.w3.org/2000/svg" xmlns:xlink="http://www.w3.org/1999/xlink">
    <!-- Generator: Sketch 50.2 (55047) - http://www.bohemiancoding.com/sketch -->
    <title>flames</title>
    <desc>Created with Sketch.</desc>
    <defs></defs>
    <g id="flames" stroke="none" stroke-width="1" fill="none" fill-rule="evenodd">
        <path d="M6.42029095,17.6652434 C5.8546599,17.5009716 5.5986405,17.0955347 5.5986405,17.0955347 C5.90592205,17.0093211 6.054757,16.5668939 6.27669875,16.515923 C6.63262105,16.4329133 6.4884463,16.7827191 7.43592205,17.2545638 C7.78339775,17.4167968 7.8305822,17.4313599 8.09941715,17.4832046 C7.44495115,17.8088356 7.04825215,17.8478648 6.42029095,17.6652434 L6.42029095,17.6652434 L6.42029095,17.6652434 Z M29.5252424,12.614758 C31.009223,7.29893275 27.5190289,2.08009781 21.1249512,2.08009781 C17.2715531,2.08009781 14.5176696,4.6970881 12.8740774,4.6970881 C12.1986405,4.6970881 11.4177667,3.3555347 11.4177667,3.3555347 C10.278058,4.01291334 10.523592,5.20592305 10.523592,5.20592305 C9.63029095,4.67961237 8.16495115,4.68893276 8.16495115,4.68893276 C6.88485405,4.69737936 5.7454366,5.5216512 5.7454366,5.5216512 C4.99165019,6.07388422 4.71990261,6.75747644 4.71990261,6.75747644 C3.86912591,7.00359295 2.94757251,7.87126285 2.94757251,7.87126285 C2.72038805,8.0993211 2.63213562,8.169224 2.63213562,8.169224 C2.06271815,8.59883565 1.309223,8.6253405 1.309223,8.6253405 C1.36980553,9.2300007 1.70330067,9.83524345 1.70330067,9.83524345 C2.27300941,10.6941755 3.31631038,10.8607774 3.31631038,10.8607774 C3.31631038,10.8607774 2.7853395,11.4200007 1.88737834,11.6940784 C1.22300941,11.8967968 0.291261835,12.044758 0.291261835,12.044758 C0.317766689,12.2640784 0.414465718,12.4306804 0.414465718,12.4306804 C1.35291232,13.9653405 3.5099997,13.8776706 3.5099997,13.8776706 C3.87757251,13.9207774 4.4999997,13.8162143 4.4999997,13.8162143 C4.23728125,14.1843696 3.93029096,15.2981561 3.93029096,15.2981561 C3.79893174,15.850389 3.5184463,16.0612628 3.5184463,16.0612628 C3.22864047,16.2977677 2.44834922,16.7623308 2.44834922,16.7623308 C2.79029096,17.2091269 3.68533951,17.4112628 3.68533951,17.4112628 C3.70223271,18.1388356 3.97019387,19.1655347 3.97019387,19.1655347 C2.75533951,18.9100978 2.1238832,19.2960201 2.1238832,19.2960201 C2.4745628,19.6030104 2.73786377,20.0148551 2.73786377,20.0148551 C3.1584463,20.5231075 3.24669873,21.523593 3.24669873,21.523593 C3.33436863,22.7154376 3.70223271,23.5571852 3.99116475,23.9955347 C4.28097058,24.4341755 4.8599997,24.8634958 4.8599997,24.8634958 C5.25407737,25.196991 5.9906793,25.363593 5.9906793,25.363593 C6.49951425,25.5039813 6.984757,25.3988357 6.984757,25.3988357 C6.6570871,25.670292 5.7454366,26.0206803 5.7454366,26.0206803 C6.00029095,26.5734958 6.744757,26.8889328 6.744757,26.8889328 C7.34970845,27.231457 8.37582495,27.2751463 8.37582495,27.2751463 C9.50650455,27.2658259 10.4365046,26.3538842 10.4365046,26.3538842 C11.4332036,25.4498066 12.0500968,25.1515541 13.0377667,25.2275736 C14.4853395,25.3391269 15.4974754,26.546991 18.2737861,26.546991 C23.874757,26.546991 28.3980579,21.1845638 29.0999997,16.5165055 L21.614854,16.5165055 C21.614854,16.5165055 20.8322327,19.2566997 18.9189317,19.2566997 C17.4605822,19.2566997 16.4906793,18.0762143 16.4906793,16.1600007 C16.4906793,13.6536901 18.5799026,9.27572885 21.5921356,9.27572885 C23.0012618,9.27572885 22.9919414,10.9833988 22.4397085,12.6176706 L29.5252424,12.614758 L29.5252424,12.614758 L29.5252424,12.614758 Z" id="path240" fill="#000000"></path>
        <path d="M6.38883465,17.9748551 C5.8354366,17.8618454 5.5584463,17.5242726 5.21038805,17.083593 L5.16698999,17.0087386 C5.57650455,16.875923 5.814757,16.4075735 6.17271815,16.1821366 C6.7368929,16.0073793 6.9113589,16.8060201 7.9861162,17.1453405 C8.2931065,17.2988356 8.4760191,17.324758 8.7932036,17.4788356 C8.0513589,17.9463114 7.36106765,18.2509716 6.38883465,17.9748551 L6.38883465,17.9748551 L6.38883465,17.9748551 Z M29.280291,12.3066026 C30.5778638,6.734758 26.7591259,2.36990363 21.138058,2.36990363 C17.5520385,2.36990363 14.6790289,4.94436965 12.9433977,5.02155411 C12.2190288,5.05359295 11.3475725,3.8294182 11.3475725,3.8294182 C10.3663104,4.56543761 11.0842716,5.91602014 11.0842716,5.91602014 C9.6299997,4.84621431 7.99660165,5.01310752 7.99660165,5.01310752 C5.56048515,5.24961237 4.96456281,7.0033017 4.96456281,7.0033017 C3.5437861,7.52961235 3.05330067,8.2833988 3.05330067,8.2833988 C2.17601912,8.91427255 1.66805795,8.8533988 1.66805795,8.8533988 C2.00155309,10.6857289 3.91252397,10.5983503 3.91252397,10.5983503 C3.1584463,12.0537872 0.70368902,12.2815541 0.70368902,12.2815541 C1.58009679,13.6842726 3.66669873,13.5619424 3.66669873,13.5619424 C4.38029096,13.6385444 5.35106765,13.2523308 5.8299026,13.0353405 C5.509223,13.2028163 5.3600968,13.3353405 5.3600968,13.3353405 C4.43941718,13.9831075 4.45980553,15.1644667 3.98504824,16.0056318 C3.80242688,16.3842725 3.27203853,16.5648551 2.97902883,16.7964085 C3.29563077,16.9551464 3.65825212,17.0885444 3.99961135,17.149127 C3.99116475,17.7363114 4.27543659,19.1582531 4.46475698,19.7262143 C3.78087349,19.2173794 2.72009679,19.4468939 2.72009679,19.4468939 C3.89533951,20.9093211 3.3431065,21.812525 3.93262106,23.1741755 C4.13126183,23.846991 4.74582494,24.4254376 5.36330065,24.8358259 C6.96349485,25.5566997 8.06883465,24.609224 8.06883465,24.609224 C7.88504825,25.4952434 6.21902885,26.16136 6.21902885,26.16136 C6.60961135,26.5883503 7.56699,26.9107774 8.1393201,26.9483502 C10.4000968,27.0968939 10.5168929,24.6363114 13.0237861,24.8932046 C14.4774755,25.0417483 15.8099997,26.2627192 18.234757,26.2627192 C24.3037861,26.2627192 28.2454366,20.1197095 28.7228153,16.814758 L21.8440773,16.814758 C21.8440773,16.814758 21.0005822,19.5727192 18.955922,19.5727192 C16.8387376,19.5727192 16.1691259,17.7575735 16.1691259,16.1206803 C16.1691259,13.6324279 18.2350482,8.9308745 21.6075725,8.9308745 C23.1964074,8.9308745 23.4413589,10.6743697 22.879223,12.3063114 L29.280291,12.3063114 L29.280291,12.3066026 L29.280291,12.3066026 Z" id="path242" fill="#FFC758"></path>
        <path d="M8.52495115,8.80912695 C8.1468929,8.7479619 7.7076696,8.56504925 7.2693201,8.67514635 C6.48902885,8.7846609 5.9886405,9.55301045 5.23368902,9.699224 C4.39135892,10.0161172 3.14854339,10.064758 2.4899997,9.30893275 C2.4899997,9.272525 2.4299997,9.24805895 2.44135892,9.2116512 C3.51407737,9.0893211 4.07475698,7.8826221 5.12359193,7.6877677 C6.379223,7.2246609 7.6593201,7.78504925 8.46349485,8.72378715 C8.46349485,8.7601949 8.5124269,8.7724279 8.52495115,8.80912695" id="path244" fill="#E03A3E"></path>
        <path d="M6.18407735,22.4745639 C7.4761162,23.2184473 8.43902885,21.7796123 9.7555337,22.2674764 L9.7555337,22.3161172 C8.7323298,22.6944667 8.28116475,23.8155347 7.3424269,24.3031075 C6.8545628,24.5346609 6.1721356,24.5346609 5.69650455,24.278059 C4.55067931,23.6570881 4.20961135,22.2797095 4.14815504,21.0115541 C4.10009679,20.7066026 3.96582494,20.4386415 3.8676696,20.1462143 C5.02631038,20.5239813 5.03854339,22.0970881 6.18407735,22.4745639" id="path246" fill="#E03A3E"></path>
        <path d="M28.6928152,11.6113599 C29.5933978,7.5933988 26.6300968,3.06281625 21.1479609,3.0363114 C17.8013589,3.02029198 15.0463104,5.69669975 12.8688347,5.69669975 C12.3160191,5.69669975 11.8499997,5.35941819 11.5240774,4.94436965 C11.6216502,6.1394182 12.7307764,7.1387386 13.7912618,7.54126285 C13.2550482,7.57737935 12.7913589,7.370292 12.3160191,7.26048615 C10.8899997,6.87048616 9.87699,5.50534052 8.24417445,5.63961237 C7.0983492,5.60291334 6.0862133,6.29786479 5.5255337,7.2485444 C5.8063104,6.99223373 6.1354366,6.83407839 6.48902885,6.76097159 C7.32961135,6.61446674 8.06126185,6.99223373 8.60970845,7.56514635 C9.29271815,8.65038905 10.0488346,9.6986415 11.1699026,10.4553405 C10.3651454,10.4553405 9.65883465,10.1498065 8.9516502,9.90602015 C7.5005822,9.49126285 5.78126185,9.6738842 4.6837861,10.7104861 C4.12339775,11.6250492 3.18436863,12.3686415 2.14893174,12.5879619 L2.14893174,12.6249522 L2.45330067,12.7586415 C3.64864047,13.2712629 4.96456281,12.7705833 5.96417445,12.1490299 C6.6591259,11.9294182 7.4883492,12.0514571 7.9762133,12.6004862 C8.31699,13.1853405 8.9516502,13.7710687 9.51203855,14.1968939 C9.3652424,14.258059 9.21902885,14.1357289 9.0486405,14.1357289 C8.08572785,13.6612629 6.6346599,13.0143697 5.65951425,13.904758 C4.74582494,14.5997095 5.20864048,15.9406804 4.23320359,16.5983503 C4.91592203,16.6595153 5.3062133,16.1597095 5.6962133,15.6721367 C6.6716502,14.9527191 7.2932036,16.2450493 8.0732036,16.5500007 C8.9030094,16.9522338 9.99961135,16.8182531 10.59699,17.6713599 C9.96262105,17.7931075 9.31660165,17.9032046 8.7684463,18.2323308 C7.92699,18.7566027 6.69582495,18.8422338 5.78126185,18.4030104 C5.3062133,18.1466997 4.97708708,17.7931075 4.6607764,17.3544667 C4.6607764,17.3666998 4.6607764,17.3908745 4.6476696,17.4033988 C4.70912591,19.2077677 5.37873755,21.170292 7.2445628,21.8040784 C8.5124269,22.3889328 9.87699,21.4382532 11.1212618,22.0478648 C10.4627182,22.1943697 9.85339775,22.5479619 9.46281525,23.120292 C8.81737835,23.9620395 8.8293201,25.1200978 8.02485405,25.839224 C7.8786405,25.9734959 7.6593201,26.0463114 7.51339775,26.1561172 C7.6715531,26.229224 7.8299997,26.2662143 8.01262105,26.2903891 C8.9030094,26.4363114 9.65883465,25.8633988 10.1580579,25.1929134 C10.878058,24.4982531 11.9699997,24.0738842 12.840291,24.1324279 C14.5974754,24.2506803 15.90699,25.5261172 18.2271841,25.5345639 C22.8463104,25.5532046 26.9239803,21.1510687 27.7904851,17.5423308 L22.3403881,17.5423308 C22.3403881,17.5423308 21.349223,20.3032046 18.9495143,20.3032046 C15.9535919,20.3032046 15.4307764,17.5062143 15.4307764,16.1174765 C15.4307764,12.8556318 17.9880579,8.1939813 21.6017472,8.1939813 C23.3158249,8.1939813 24.3253395,9.944758 23.7664074,11.6113599 L28.6928152,11.6113599" id="path248" fill="#E03A3E"></path>
    </g>
</svg>