<?xml version="1.0" encoding="UTF-8"?>
<svg width="30px" height="30px" viewBox="0 0 30 30" version="1.1" xmlns="http://www.w3.org/2000/svg" xmlns:xlink="http://www.w3.org/1999/xlink">
    <!-- Generator: Sketch 50.2 (55047) - http://www.bohemiancoding.com/sketch -->
    <title>goldenknights</title>
    <desc>Created with Sketch.</desc>
    <defs></defs>
    <g id="goldenknights" stroke="none" stroke-width="1" fill="none" fill-rule="evenodd">
        <path d="M13.734175,1.21381215 C14.157125,0.811325967 14.5853,0.414088398 15.00825,0.0116022099 L15.0066,0.0284530387 C14.9923,0.148066298 14.998075,0.268232044 14.998075,0.388121547 C14.9978,5.15745856 14.998075,9.92651934 14.9978,14.6958564 C14.996425,14.8187845 14.996425,14.9422652 15.00935,15.0649171 C15.35915,13.8922652 15.732325,12.7262431 16.08845,11.5555249 C17.060025,11.0748619 18.03985,10.6104972 19.01445,10.1361878 C19.97255,9.66933702 20.936975,9.21436464 21.891225,8.74033149 C21.707525,7.72679558 21.364325,6.73701657 20.82725,5.85662983 C20.286875,4.95883978 19.5595,4.17872928 18.717175,3.55994475 C18.00355,3.03287293 17.20715,2.62596685 16.37775,2.31685083 C16.414875,2.05441989 16.502325,1.79364641 16.644225,1.56933702 C19.75805,1.57016575 22.87215,1.56878453 25.985975,1.5698895 C25.98735,7.0781768 25.98625,12.5861878 25.986525,18.0944751 C25.984875,19.4555249 25.9901,20.8168508 25.983775,22.1779006 C25.261625,22.9765193 24.515,23.7535912 23.71805,24.4776243 C22.2072,25.8737569 20.5242,27.0770718 18.738625,28.0930939 C17.69885,28.6895028 16.6269,29.2270718 15.545325,29.741989 C15.364375,29.8251381 15.1859,29.9157459 15.00165,29.9906077 C14.60345,29.8223757 14.215975,29.6248619 13.82465,29.439779 C12.59595,28.839779 11.385125,28.1997238 10.22545,27.4732044 C8.898575,26.648895 7.6443,25.7069061 6.482425,24.6610497 C5.612875,23.8798343 4.7931,23.0436464 4.0132,22.1718232 C4.010175,18.9707182 4.01265,15.769337 4.011825,12.5679558 C4.013475,8.90165746 4.0088,5.23535912 4.0143,1.56906077 C7.02555,1.57044199 10.036525,1.56906077 13.0475,1.56961326 C13.1355,1.57154696 13.225975,1.55939227 13.311225,1.58867403 C13.46825,1.48425414 13.5942,1.33977901 13.734175,1.21381215 Z" id="Shape" fill="#92734B"></path>
        <path d="M14.998075,0.388121547 C14.998075,0.268232044 14.9923,0.148066298 15.0066,0.0284530387 C15.554675,0.539779006 16.096975,1.05690608 16.644225,1.56933702 C16.502325,1.79364641 16.414875,2.05441989 16.37775,2.31685083 C17.20715,2.62596685 18.00355,3.03287293 18.717175,3.55994475 C19.5595,4.17872928 20.286875,4.95883978 20.82725,5.85662983 C21.364325,6.73701657 21.707525,7.72679558 21.891225,8.74033149 C20.936975,9.21436464 19.97255,9.66933702 19.01445,10.1361878 C18.03985,10.6104972 17.060025,11.0748619 16.08845,11.5555249 C15.732325,12.7262431 15.35915,13.8922652 15.00935,15.0649171 C14.996425,14.9422652 14.996425,14.8187845 14.9978,14.6958564 C14.998075,9.92651934 14.9978,5.15745856 14.998075,0.388121547 Z" id="Shape" fill="#202C36"></path>
        <path d="M13.150075,1.64751381 C13.222125,1.61270718 13.30215,1.60331492 13.379425,1.58674033 C13.51115,1.81022099 13.593375,2.06464088 13.635725,2.3198895 C13.513075,2.22016575 13.38245,2.12983425 13.241375,2.05828729 C11.952725,2.60331492 10.736675,3.36574586 9.78105,4.40027624 C9.2129,5.01353591 8.74045,5.71629834 8.390925,6.47707182 C7.84505,7.65883978 7.600025,8.96546961 7.586275,10.2638122 C7.578025,10.8093923 7.584625,11.3555249 7.5827,11.9013812 C7.5838,11.9345304 7.5849,11.9679558 7.58655,12.0016575 C7.577475,15.0088398 7.585175,18.0160221 7.5827,21.0232044 C7.580225,21.1058011 7.590675,21.189779 7.57445,21.271547 L7.56345,21.2842541 C7.433375,21.1571823 7.304125,21.0290055 7.17955,20.8966851 C7.18395,17.3008287 7.179275,13.7052486 7.182025,10.1096685 C7.20485,9.9 7.1933,9.68812155 7.219425,9.47872928 C7.25435,9.04944751 7.32035,8.62320442 7.406975,8.20138122 C7.591225,7.34502762 7.892075,6.51187845 8.317225,5.74585635 C9.086675,4.3359116 10.27055,3.17292818 11.65215,2.36933702 C12.1312,2.08895028 12.63335,1.84889503 13.150075,1.64751381 Z" id="Shape" fill="#FEFEFD"></path>
        <path d="M4.807125,2.36104972 C6.77475,2.36243094 8.74265,2.36104972 10.71055,2.36160221 C11.024325,2.36657459 11.338925,2.35138122 11.65215,2.36933702 C10.27055,3.17292818 9.086675,4.3359116 8.317225,5.74585635 C7.892075,6.51187845 7.591225,7.34502762 7.406975,8.20138122 C7.32035,8.62320442 7.25435,9.04944751 7.219425,9.47872928 C7.1933,9.68812155 7.20485,9.9 7.182025,10.1096685 C7.179275,13.7052486 7.18395,17.3008287 7.17955,20.8966851 C7.304125,21.0290055 7.433375,21.1571823 7.56345,21.2842541 C7.853575,21.5533149 8.132975,21.8348066 8.428875,22.0983425 C9.7926,23.3290055 11.27155,24.4389503 12.87205,25.340884 C13.199025,25.5198895 13.525725,25.7002762 13.8659,25.8527624 C12.36825,21.4986188 10.861525,17.1472376 9.360025,12.7944751 C9.1513,12.191989 8.945875,11.5883978 8.734675,10.9867403 C8.7179,10.9392265 8.70745,10.889779 8.70085,10.8400552 C10.2953,11.6002762 11.88315,12.3762431 13.47595,13.140884 C13.506475,13.1577348 13.5458,13.1671271 13.56175,13.2024862 C13.366225,13.3944751 13.1751,13.590884 12.980675,13.7839779 C13.387675,15.1027624 13.795775,16.4209945 14.197275,17.7411602 L14.207725,17.7599448 C14.3741,18.3287293 14.5622,18.8911602 14.7239,19.4610497 C14.7316,19.4632597 14.746725,19.4671271 14.754425,19.4690608 C14.919975,19.4881215 15.088,19.471547 15.254925,19.4779006 C15.792,17.7475138 16.321925,16.0146409 16.855425,14.2828729 C16.90135,14.1171271 16.97065,13.9558011 16.998975,13.7864641 C16.859275,13.6265193 16.698675,13.4823204 16.551,13.328453 C16.510575,13.2814917 16.44815,13.2475138 16.433025,13.1839779 C17.4882,12.6770718 18.542275,12.1676796 19.596075,11.6574586 C20.16835,11.3867403 20.73375,11.1008287 21.309325,10.8370166 C20.687,12.619337 20.07595,14.4060773 19.4583,16.1900552 C19.05185,17.3660221 18.64705,18.5425414 18.239775,19.718232 C17.617175,21.5237569 16.994575,23.3292818 16.369775,25.1339779 C16.283425,25.3809392 16.206975,25.6323204 16.10715,25.8743094 C16.12255,25.861326 16.153075,25.8356354 16.168475,25.8226519 C16.20945,25.8209945 16.24905,25.8088398 16.2826,25.7842541 L16.290575,25.7790055 C17.443925,25.2143646 18.5288,24.5165746 19.560325,23.7522099 C20.422725,23.109116 21.248,22.4157459 22.027625,21.6734807 C22.29465,21.4138122 22.56745,21.1604972 22.817425,20.8839779 C22.817975,17.5320442 22.8177,14.1801105 22.8177,10.8281768 C22.812475,10.6074586 22.8309,10.3853591 22.8023,10.1657459 C22.80505,9.60911602 22.74125,9.05359116 22.6439,8.50607735 C22.4492,7.42513812 22.066675,6.37569061 21.494675,5.43839779 C21.01205,4.64281768 20.396875,3.92955801 19.6882,3.32928177 C19.265525,2.96519337 18.80215,2.65276243 18.327225,2.36243094 C20.615225,2.35994475 22.903225,2.36243094 25.191225,2.36132597 C25.19315,8.86381215 25.1926,15.3662983 25.1915,21.8685083 C23.729875,23.5027624 22.07795,24.9668508 20.26515,26.1977901 C18.604425,27.3320442 16.8238,28.2798343 14.9989,29.1176796 C13.8274,28.5798343 12.67625,27.9953039 11.56085,27.3477901 C9.9763,26.428453 8.4715,25.3657459 7.098975,24.148895 C6.2913,23.4353591 5.52955,22.6701657 4.806575,21.870442 C4.805475,15.3671271 4.804375,8.8640884 4.807125,2.36104972 Z" id="Shape" fill="#000000"></path>
        <path d="M13.899175,4.25441989 C13.915675,4.37375691 13.911,4.49475138 13.914025,4.61519337 C13.912925,6.92541436 13.91595,9.23563536 13.91265,11.5458564 C13.0629,11.1486188 12.2225,10.7298343 11.375775,10.3254144 C10.727875,10.0118785 10.079975,9.69779006 9.43125,9.38563536 C9.2613,9.30082873 9.088325,9.2218232 8.92305,9.1281768 C10.4504,9.70828729 11.978025,10.2878453 13.502625,10.8754144 C13.552125,10.7135359 13.516375,10.5389503 13.546625,10.3732044 C13.656625,8.33425414 13.7922,6.29392265 13.899175,4.25441989 Z" id="Shape" fill="#202C36"></path>
        <path d="M21.309325,10.8370166 C21.472675,10.7444751 21.64675,10.6720994 21.8145,10.5875691 C21.645925,11.1138122 21.45535,11.6334254 21.278525,12.1571823 C19.851,16.2922652 18.42375,20.4273481 16.99595,24.5621547 C16.939575,24.729558 16.88265,24.8969613 16.821325,25.0621547 C16.621675,25.290884 16.433575,25.5328729 16.21825,25.7461326 C16.239425,25.7588398 16.260875,25.771547 16.2826,25.7842541 C16.24905,25.8088398 16.20945,25.8209945 16.168475,25.8226519 C16.153075,25.8356354 16.12255,25.861326 16.10715,25.8743094 C16.206975,25.6323204 16.283425,25.3809392 16.369775,25.1339779 C16.994575,23.3292818 17.617175,21.5237569 18.239775,19.718232 C18.64705,18.5425414 19.05185,17.3660221 19.4583,16.1900552 C20.07595,14.4060773 20.687,12.619337 21.309325,10.8370166 Z" id="Shape" fill="#FEFEFD"></path>
        <path d="M7.5827,11.9013812 C8.353525,14.1320442 9.11775,16.3649171 9.887475,18.5958564 C10.310425,19.8378453 10.746025,21.0756906 11.1632,22.3196133 C10.740525,21.3616022 10.34645,20.3911602 9.93285,19.4290055 C9.7167,18.9107735 9.4967,18.3944751 9.278075,17.8773481 C9.104825,17.4803867 8.983825,17.0632597 8.835875,16.6566298 C8.55125,15.830663 8.260025,15.0066298 7.979525,14.1792818 C7.864025,13.5701657 7.7609,12.9585635 7.6553,12.3475138 C7.63385,12.231768 7.617625,12.1151934 7.58655,12.0016575 C7.5849,11.9679558 7.5838,11.9345304 7.5827,11.9013812 Z" id="Shape" fill="#202C36"></path>
        <path d="M22.417025,11.9022099 C22.365875,12.2845304 22.283925,12.6627072 22.223425,13.0439227 C22.162925,13.4298343 22.0796,13.8121547 22.02515,14.1986188 C22.023225,15.579558 22.024875,16.9604972 22.024325,18.3414365 C22.021025,19.0875691 22.03065,19.8342541 22.019375,20.5798343 C21.640975,21.0279006 21.218575,21.4378453 20.789575,21.8372928 C20.182375,22.4002762 19.549325,22.9350829 18.8995,23.4475138 C18.8093,23.5234807 18.74715,23.6259669 18.67455,23.7176796 C18.48425,23.9610497 18.29725,24.2071823 18.1086,24.4519337 C18.22355,24.05 18.377275,23.660221 18.507625,23.2629834 C19.811125,19.4762431 21.1105,15.6878453 22.417025,11.9022099 Z" id="Shape" fill="#202C36"></path>
        <path d="M13.56175,13.2024862 C13.5733,13.1825967 13.5942,13.189779 13.610425,13.1994475 L13.564225,13.2198895 C13.55075,13.4566298 13.4611,13.6850829 13.447625,13.9196133 C13.9594,15.5889503 14.4742,17.2571823 14.987625,18.9259669 C15.001375,18.9574586 15.000275,18.9881215 14.983775,19.0179558 C14.907325,19.168232 14.82675,19.3165746 14.754425,19.4690608 C14.746725,19.4671271 14.7316,19.4632597 14.7239,19.4610497 C14.5622,18.8911602 14.3741,18.3287293 14.207725,17.7599448 L14.197275,17.7411602 C13.795775,16.4209945 13.387675,15.1027624 12.980675,13.7839779 C13.1751,13.590884 13.366225,13.3944751 13.56175,13.2024862 Z" id="Shape" fill="#FEFEFD"></path>
    </g>
</svg>