<?xml version="1.0" encoding="UTF-8" standalone="no"?>
<svg width="30px" height="30px" viewBox="0 0 30 30" version="1.1" xmlns="http://www.w3.org/2000/svg" xmlns:xlink="http://www.w3.org/1999/xlink">
    <!-- Generator: Sketch 41.2 (35397) - http://www.bohemiancoding.com/sketch -->
    <title>goldenknights</title>
    <desc>Created with Sketch.</desc>
    <defs></defs>
    <g id="Page-1" stroke="none" stroke-width="1" fill="none" fill-rule="evenodd">
        <g id="goldenknights">
            <g id="Vegas_Golden_Knights_Logo" transform="translate(4.000000, 0.000000)">
                <path d="M9.734175,1.21381215 C10.157125,0.811325967 10.5853,0.414088398 11.00825,0.0116022099 L11.0066,0.0284530387 C10.9923,0.148066298 10.998075,0.268232044 10.998075,0.388121547 C10.9978,5.15745856 10.998075,9.92651934 10.9978,14.6958564 C10.996425,14.8187845 10.996425,14.9422652 11.00935,15.0649171 C11.35915,13.8922652 11.732325,12.7262431 12.08845,11.5555249 C13.060025,11.0748619 14.03985,10.6104972 15.01445,10.1361878 C15.97255,9.66933702 16.936975,9.21436464 17.891225,8.74033149 C17.707525,7.72679558 17.364325,6.73701657 16.82725,5.85662983 C16.286875,4.95883978 15.5595,4.17872928 14.717175,3.55994475 C14.00355,3.03287293 13.20715,2.62596685 12.37775,2.31685083 C12.414875,2.05441989 12.502325,1.79364641 12.644225,1.56933702 C15.75805,1.57016575 18.87215,1.56878453 21.985975,1.5698895 C21.98735,7.0781768 21.98625,12.5861878 21.986525,18.0944751 C21.984875,19.4555249 21.9901,20.8168508 21.983775,22.1779006 C21.261625,22.9765193 20.515,23.7535912 19.71805,24.4776243 C18.2072,25.8737569 16.5242,27.0770718 14.738625,28.0930939 C13.69885,28.6895028 12.6269,29.2270718 11.545325,29.741989 C11.364375,29.8251381 11.1859,29.9157459 11.00165,29.9906077 C10.60345,29.8223757 10.215975,29.6248619 9.82465,29.439779 C8.59595,28.839779 7.385125,28.1997238 6.22545,27.4732044 C4.898575,26.648895 3.6443,25.7069061 2.482425,24.6610497 C1.612875,23.8798343 0.7931,23.0436464 0.0132,22.1718232 C0.010175,18.9707182 0.01265,15.769337 0.011825,12.5679558 C0.013475,8.90165746 0.0088,5.23535912 0.0143,1.56906077 C3.02555,1.57044199 6.036525,1.56906077 9.0475,1.56961326 C9.1355,1.57154696 9.225975,1.55939227 9.311225,1.58867403 C9.46825,1.48425414 9.5942,1.33977901 9.734175,1.21381215 Z" id="Shape" fill="#92734B"></path>
                <path d="M10.998075,0.388121547 C10.998075,0.268232044 10.9923,0.148066298 11.0066,0.0284530387 C11.554675,0.539779006 12.096975,1.05690608 12.644225,1.56933702 C12.502325,1.79364641 12.414875,2.05441989 12.37775,2.31685083 C13.20715,2.62596685 14.00355,3.03287293 14.717175,3.55994475 C15.5595,4.17872928 16.286875,4.95883978 16.82725,5.85662983 C17.364325,6.73701657 17.707525,7.72679558 17.891225,8.74033149 C16.936975,9.21436464 15.97255,9.66933702 15.01445,10.1361878 C14.03985,10.6104972 13.060025,11.0748619 12.08845,11.5555249 C11.732325,12.7262431 11.35915,13.8922652 11.00935,15.0649171 C10.996425,14.9422652 10.996425,14.8187845 10.9978,14.6958564 C10.998075,9.92651934 10.9978,5.15745856 10.998075,0.388121547 Z" id="Shape" fill="#202C36"></path>
                <path d="M9.150075,1.64751381 C9.222125,1.61270718 9.30215,1.60331492 9.379425,1.58674033 C9.51115,1.81022099 9.593375,2.06464088 9.635725,2.3198895 C9.513075,2.22016575 9.38245,2.12983425 9.241375,2.05828729 C7.952725,2.60331492 6.736675,3.36574586 5.78105,4.40027624 C5.2129,5.01353591 4.74045,5.71629834 4.390925,6.47707182 C3.84505,7.65883978 3.600025,8.96546961 3.586275,10.2638122 C3.578025,10.8093923 3.584625,11.3555249 3.5827,11.9013812 C3.5838,11.9345304 3.5849,11.9679558 3.58655,12.0016575 C3.577475,15.0088398 3.585175,18.0160221 3.5827,21.0232044 C3.580225,21.1058011 3.590675,21.189779 3.57445,21.271547 L3.56345,21.2842541 C3.433375,21.1571823 3.304125,21.0290055 3.17955,20.8966851 C3.18395,17.3008287 3.179275,13.7052486 3.182025,10.1096685 C3.20485,9.9 3.1933,9.68812155 3.219425,9.47872928 C3.25435,9.04944751 3.32035,8.62320442 3.406975,8.20138122 C3.591225,7.34502762 3.892075,6.51187845 4.317225,5.74585635 C5.086675,4.3359116 6.27055,3.17292818 7.65215,2.36933702 C8.1312,2.08895028 8.63335,1.84889503 9.150075,1.64751381 Z" id="Shape" fill="#FEFEFD"></path>
                <path d="M0.807125,2.36104972 C2.77475,2.36243094 4.74265,2.36104972 6.71055,2.36160221 C7.024325,2.36657459 7.338925,2.35138122 7.65215,2.36933702 C6.27055,3.17292818 5.086675,4.3359116 4.317225,5.74585635 C3.892075,6.51187845 3.591225,7.34502762 3.406975,8.20138122 C3.32035,8.62320442 3.25435,9.04944751 3.219425,9.47872928 C3.1933,9.68812155 3.20485,9.9 3.182025,10.1096685 C3.179275,13.7052486 3.18395,17.3008287 3.17955,20.8966851 C3.304125,21.0290055 3.433375,21.1571823 3.56345,21.2842541 C3.853575,21.5533149 4.132975,21.8348066 4.428875,22.0983425 C5.7926,23.3290055 7.27155,24.4389503 8.87205,25.340884 C9.199025,25.5198895 9.525725,25.7002762 9.8659,25.8527624 C8.36825,21.4986188 6.861525,17.1472376 5.360025,12.7944751 C5.1513,12.191989 4.945875,11.5883978 4.734675,10.9867403 C4.7179,10.9392265 4.70745,10.889779 4.70085,10.8400552 C6.2953,11.6002762 7.88315,12.3762431 9.47595,13.140884 C9.506475,13.1577348 9.5458,13.1671271 9.56175,13.2024862 C9.366225,13.3944751 9.1751,13.590884 8.980675,13.7839779 C9.387675,15.1027624 9.795775,16.4209945 10.197275,17.7411602 L10.207725,17.7599448 C10.3741,18.3287293 10.5622,18.8911602 10.7239,19.4610497 C10.7316,19.4632597 10.746725,19.4671271 10.754425,19.4690608 C10.919975,19.4881215 11.088,19.471547 11.254925,19.4779006 C11.792,17.7475138 12.321925,16.0146409 12.855425,14.2828729 C12.90135,14.1171271 12.97065,13.9558011 12.998975,13.7864641 C12.859275,13.6265193 12.698675,13.4823204 12.551,13.328453 C12.510575,13.2814917 12.44815,13.2475138 12.433025,13.1839779 C13.4882,12.6770718 14.542275,12.1676796 15.596075,11.6574586 C16.16835,11.3867403 16.73375,11.1008287 17.309325,10.8370166 C16.687,12.619337 16.07595,14.4060773 15.4583,16.1900552 C15.05185,17.3660221 14.64705,18.5425414 14.239775,19.718232 C13.617175,21.5237569 12.994575,23.3292818 12.369775,25.1339779 C12.283425,25.3809392 12.206975,25.6323204 12.10715,25.8743094 C12.12255,25.861326 12.153075,25.8356354 12.168475,25.8226519 C12.20945,25.8209945 12.24905,25.8088398 12.2826,25.7842541 L12.290575,25.7790055 C13.443925,25.2143646 14.5288,24.5165746 15.560325,23.7522099 C16.422725,23.109116 17.248,22.4157459 18.027625,21.6734807 C18.29465,21.4138122 18.56745,21.1604972 18.817425,20.8839779 C18.817975,17.5320442 18.8177,14.1801105 18.8177,10.8281768 C18.812475,10.6074586 18.8309,10.3853591 18.8023,10.1657459 C18.80505,9.60911602 18.74125,9.05359116 18.6439,8.50607735 C18.4492,7.42513812 18.066675,6.37569061 17.494675,5.43839779 C17.01205,4.64281768 16.396875,3.92955801 15.6882,3.32928177 C15.265525,2.96519337 14.80215,2.65276243 14.327225,2.36243094 C16.615225,2.35994475 18.903225,2.36243094 21.191225,2.36132597 C21.19315,8.86381215 21.1926,15.3662983 21.1915,21.8685083 C19.729875,23.5027624 18.07795,24.9668508 16.26515,26.1977901 C14.604425,27.3320442 12.8238,28.2798343 10.9989,29.1176796 C9.8274,28.5798343 8.67625,27.9953039 7.56085,27.3477901 C5.9763,26.428453 4.4715,25.3657459 3.098975,24.148895 C2.2913,23.4353591 1.52955,22.6701657 0.806575,21.870442 C0.805475,15.3671271 0.804375,8.8640884 0.807125,2.36104972 Z" id="Shape" fill="#000000"></path>
                <path d="M9.899175,4.25441989 C9.915675,4.37375691 9.911,4.49475138 9.914025,4.61519337 C9.912925,6.92541436 9.91595,9.23563536 9.91265,11.5458564 C9.0629,11.1486188 8.2225,10.7298343 7.375775,10.3254144 C6.727875,10.0118785 6.079975,9.69779006 5.43125,9.38563536 C5.2613,9.30082873 5.088325,9.2218232 4.92305,9.1281768 C6.4504,9.70828729 7.978025,10.2878453 9.502625,10.8754144 C9.552125,10.7135359 9.516375,10.5389503 9.546625,10.3732044 C9.656625,8.33425414 9.7922,6.29392265 9.899175,4.25441989 Z" id="Shape" fill="#202C36"></path>
                <path d="M17.309325,10.8370166 C17.472675,10.7444751 17.64675,10.6720994 17.8145,10.5875691 C17.645925,11.1138122 17.45535,11.6334254 17.278525,12.1571823 C15.851,16.2922652 14.42375,20.4273481 12.99595,24.5621547 C12.939575,24.729558 12.88265,24.8969613 12.821325,25.0621547 C12.621675,25.290884 12.433575,25.5328729 12.21825,25.7461326 C12.239425,25.7588398 12.260875,25.771547 12.2826,25.7842541 C12.24905,25.8088398 12.20945,25.8209945 12.168475,25.8226519 C12.153075,25.8356354 12.12255,25.861326 12.10715,25.8743094 C12.206975,25.6323204 12.283425,25.3809392 12.369775,25.1339779 C12.994575,23.3292818 13.617175,21.5237569 14.239775,19.718232 C14.64705,18.5425414 15.05185,17.3660221 15.4583,16.1900552 C16.07595,14.4060773 16.687,12.619337 17.309325,10.8370166 Z" id="Shape" fill="#FEFEFD"></path>
                <path d="M3.5827,11.9013812 C4.353525,14.1320442 5.11775,16.3649171 5.887475,18.5958564 C6.310425,19.8378453 6.746025,21.0756906 7.1632,22.3196133 C6.740525,21.3616022 6.34645,20.3911602 5.93285,19.4290055 C5.7167,18.9107735 5.4967,18.3944751 5.278075,17.8773481 C5.104825,17.4803867 4.983825,17.0632597 4.835875,16.6566298 C4.55125,15.830663 4.260025,15.0066298 3.979525,14.1792818 C3.864025,13.5701657 3.7609,12.9585635 3.6553,12.3475138 C3.63385,12.231768 3.617625,12.1151934 3.58655,12.0016575 C3.5849,11.9679558 3.5838,11.9345304 3.5827,11.9013812 Z" id="Shape" fill="#202C36"></path>
                <path d="M18.417025,11.9022099 C18.365875,12.2845304 18.283925,12.6627072 18.223425,13.0439227 C18.162925,13.4298343 18.0796,13.8121547 18.02515,14.1986188 C18.023225,15.579558 18.024875,16.9604972 18.024325,18.3414365 C18.021025,19.0875691 18.03065,19.8342541 18.019375,20.5798343 C17.640975,21.0279006 17.218575,21.4378453 16.789575,21.8372928 C16.182375,22.4002762 15.549325,22.9350829 14.8995,23.4475138 C14.8093,23.5234807 14.74715,23.6259669 14.67455,23.7176796 C14.48425,23.9610497 14.29725,24.2071823 14.1086,24.4519337 C14.22355,24.05 14.377275,23.660221 14.507625,23.2629834 C15.811125,19.4762431 17.1105,15.6878453 18.417025,11.9022099 Z" id="Shape" fill="#202C36"></path>
                <path d="M9.56175,13.2024862 C9.5733,13.1825967 9.5942,13.189779 9.610425,13.1994475 L9.564225,13.2198895 C9.55075,13.4566298 9.4611,13.6850829 9.447625,13.9196133 C9.9594,15.5889503 10.4742,17.2571823 10.987625,18.9259669 C11.001375,18.9574586 11.000275,18.9881215 10.983775,19.0179558 C10.907325,19.168232 10.82675,19.3165746 10.754425,19.4690608 C10.746725,19.4671271 10.7316,19.4632597 10.7239,19.4610497 C10.5622,18.8911602 10.3741,18.3287293 10.207725,17.7599448 L10.197275,17.7411602 C9.795775,16.4209945 9.387675,15.1027624 8.980675,13.7839779 C9.1751,13.590884 9.366225,13.3944751 9.56175,13.2024862 Z" id="Shape" fill="#FEFEFD"></path>
            </g>
        </g>
    </g>
</svg>