<?xml version="1.0" encoding="UTF-8"?>
<svg width="30px" height="30px" viewBox="0 0 30 30" version="1.1" xmlns="http://www.w3.org/2000/svg" xmlns:xlink="http://www.w3.org/1999/xlink">
    <!-- Generator: Sketch 50.2 (55047) - http://www.bohemiancoding.com/sketch -->
    <title>hockeyclub</title>
    <desc>Created with Sketch.</desc>
    <defs></defs>
    <g id="hockeyclub" stroke="none" stroke-width="1" fill="none" fill-rule="evenodd">
        <g id="UTA_dark" fill-rule="nonzero">
            <path d="M15,30 C23.2695755,30 29.9733962,23.2842656 29.9733962,15 C29.9733962,6.71573438 23.2696698,0 15,0 C6.73033019,0 0.0265566038,6.71573438 0.0265566038,15 C0.0265566038,23.2842656 6.73037736,30 15.0000472,30 L15,30 Z" id="Shape" fill="#6CACE4"></path>
            <path d="M15,27.6902812 C22.0526887,27.6902812 27.7700943,22.0086563 27.7700943,15 C27.7700943,7.99134375 22.0527358,2.30976562 15,2.30976562 C7.94726415,2.30976562 2.22990566,7.99139062 2.22990566,15 C2.22990566,22.0086094 7.94726415,27.6902812 15,27.6902812 Z" id="Shape" fill="#6CACE4"></path>
            <path d="M15,2.30976562 C22.0533962,2.30976562 27.7700943,7.99064062 27.7700943,15 C27.7700943,22.0093594 22.0534434,27.6902344 15,27.6902344 C7.9465566,27.6902344 2.2265566,22.0093594 2.2265566,15 C2.2265566,7.99064062 7.9465566,2.30976562 15.0000472,2.30976562 L15,2.30976562 Z M15,1.29839062 C13.1391981,1.29839062 11.332217,1.66223437 9.63264151,2.37651562 C7.99023585,3.06745312 6.51570755,4.05539062 5.24943396,5.31375 C3.98320755,6.57210937 2.9890566,8.037375 2.29377358,9.6695625 C1.575,11.3584687 1.20886792,13.1542031 1.20886792,15.0033281 C1.20886792,16.8524531 1.575,18.6481875 2.29377358,20.3371406 C2.9890566,21.9692812 3.98325472,23.4345937 5.24943396,24.6929062 C6.51570755,25.9512656 7.99023585,26.93925 9.63264151,27.6301875 C11.332217,28.3444687 13.1392453,28.7082656 15,28.7082656 C16.8607547,28.7082656 18.667783,28.3444688 20.3673113,27.6301875 C22.0097642,26.93925 23.4842925,25.9512656 24.7505189,24.6929062 C26.0167925,23.4345937 27.0109906,21.9692812 27.7062264,20.3371406 C28.425,18.6481875 28.7911321,16.8524531 28.7911321,15.0033281 C28.7911321,13.1542031 28.425,11.3584687 27.7062264,9.6695625 C27.0109906,8.037375 26.0167925,6.57210938 24.750566,5.31375 C23.4842453,4.05539063 22.0097642,3.06740625 20.3673113,2.37651563 C18.667783,1.66223438 16.8607547,1.29839063 15,1.29839063 Z" id="Shape" fill="#FFFFFF"></path>
            <polygon id="Shape" fill="#FFFFFF" points="8.6384434 8.78840625 7.07665094 6.962625 7.37221698 6.7123125 8.03386792 7.48664063 8.65863208 6.95929688 7.99693396 6.18492187 8.2925 5.9345625 9.85433962 7.76034375 9.55877358 8.01070313 8.89707547 7.23965625 8.27235849 7.76704688 8.9340566 8.53804688 8.6384434 8.78840625"></polygon>
            <path d="M8.63514151,8.8284375 L7.03636792,6.95929687 L7.37561321,6.67223438 L8.03726415,7.44660938 L8.61834906,6.95596875 L7.95669811,6.18159375 L8.29584906,5.89453125 L9.89462264,7.76367188 L9.5554717,8.05073438 L8.89377358,7.27973437 L8.31264151,7.770375 L8.97433962,8.541375 L8.63514151,8.8284375 Z M7.12028302,6.96595313 L8.64518868,8.74832813 L8.89707547,8.53471875 L8.23542453,7.76367188 L8.90382075,7.199625 L9.5654717,7.970625 L9.81740566,7.75701563 L8.2925,5.97464063 L8.04061321,6.18825 L8.70231132,6.962625 L8.03391509,7.52671875 L7.37226415,6.75234375 L7.12033019,6.96595313 L7.12028302,6.96595313 Z M10.9996698,7.096125 L10.677217,6.96928125 L9.9215566,5.213625 L10.0491509,4.8931875 L11.0702358,4.45926562 L11.3926415,4.58610937 L12.1483962,6.3418125 L12.0174057,6.66220312 L10.9963208,7.096125 L10.9996698,7.096125 Z M11.0668868,6.6755625 L11.6714623,6.41854687 L11.7151415,6.31509375 L11.1172642,4.92323437 L11.0098113,4.88320312 L10.4051887,5.14017187 L10.3615094,5.24367187 L10.9593868,6.63553125 L11.0668396,6.6755625 L11.0668868,6.6755625 Z" id="Shape" fill="#FFFFFF"></path>
            <path d="M11.0030189,7.12617187 L10.6604245,6.98929687 L9.89806604,5.213625 L10.0357547,4.87317188 L11.0769811,4.43254687 L11.4229245,4.56609375 L12.1853774,6.34176562 L12.0442925,6.68221875 L11.003066,7.12284375 L11.003066,7.12617187 L11.0030189,7.12617187 Z M10.7007547,6.94926562 L10.9996698,7.06940625 L11.997217,6.64551562 L12.1215094,6.34846875 L11.3758491,4.61282812 L11.0735849,4.49596875 L10.0760377,4.91990625 L9.95509434,5.21695312 L10.7007547,6.95259375 L10.7007547,6.94926562 Z M11.0668868,6.70560937 L10.9392925,6.658875 L10.3312736,5.247 L10.3850472,5.12015625 L11.0097642,4.85310937 L11.1374528,4.89984375 L11.7453774,6.31176562 L11.6916038,6.4385625 L11.0668396,6.70560937 L11.0668868,6.70560937 Z M10.9795755,6.61214062 L11.0635377,6.64551562 L11.6479717,6.39853125 L11.6848585,6.31509375 L11.0971226,4.94657812 L11.0131604,4.91320312 L10.4287264,5.1601875 L10.3917925,5.24367187 L10.9795283,6.61214062 L10.9795755,6.61214062 Z M13.5221698,6.27839062 L13.2534434,6.06140625 L13.055283,4.16221875 L13.2736321,3.89521875 L14.375283,3.78173438 L14.6473585,3.99867187 L14.7078302,4.56942187 L14.3215094,4.6095 L14.2811792,4.23567188 L14.1905189,4.16554688 L13.535566,4.23229688 L13.4616509,4.31910938 L13.6161792,5.82445312 L13.7068396,5.89453125 L14.3617925,5.82778125 L14.4357075,5.74096875 L14.3953774,5.36714063 L14.7816981,5.32710938 L14.8421226,5.89785938 L14.6204245,6.16490625 L13.5187736,6.27839063 L13.5221226,6.27839063 L13.5221698,6.27839062 Z" id="Shape" fill="#FFFFFF"></path>
            <path d="M13.5154245,6.3084375 L13.2299057,6.07809375 L13.0317925,4.1555625 L13.2634906,3.87182812 L13.2735849,3.87182812 L14.3886792,3.75501562 L14.6775472,3.9853125 L14.7413679,4.59609375 L14.2980189,4.642875 L14.2576887,4.25235937 L14.1871698,4.19564063 L13.5557075,4.25901562 L13.4952358,4.32909375 L13.6497642,5.81109375 L13.720283,5.8678125 L14.3517453,5.80439062 L14.412217,5.7343125 L14.3718868,5.34379687 L14.815283,5.2970625 L14.8790566,5.90789063 L14.6439623,6.19157812 L14.6338679,6.19157812 L13.5187736,6.3084375 L13.5154717,6.3084375 L13.5154245,6.3084375 Z M13.2803302,6.04804687 L13.5288679,6.25167187 L14.6070283,6.14151562 L14.815283,5.89120312 L14.7615094,5.36048437 L14.4323585,5.39385937 L14.4692925,5.751 L14.3785849,5.8545 L13.7034906,5.92457812 L13.5959906,5.84114062 L13.4381604,4.31240625 L13.5288208,4.20895312 L14.2040094,4.138875 L14.3114623,4.2223125 L14.3484434,4.57945312 L14.6775943,4.54607812 L14.6238208,4.01535937 L14.371934,3.81510937 L13.2937736,3.92526562 L13.0888679,4.17225 L13.2836792,6.04804687 L13.2803302,6.04804687 Z M15.9539151,6.19157812 L16.4174528,3.84178125 L16.8003302,3.91523437 L16.6021698,4.91320312 L16.9950943,4.98998437 L17.6400472,4.07873437 L18.0565094,4.15889062 L17.2940566,5.2303125 L17.5930189,6.5086875 L17.1765094,6.42857812 L16.9246226,5.34379687 L16.5316509,5.26701562 L16.3334434,6.26503125 L15.950566,6.19157812 L15.9538679,6.19157812 L15.9539151,6.19157812 Z" id="Shape" fill="#FFFFFF"></path>
            <path d="M17.6299528,6.54539062 L17.1530189,6.45192188 L16.9010849,5.36714063 L16.5551415,5.30039063 L16.3569811,6.29840625 L15.9203302,6.21159375 L16.3939151,3.80503125 L16.830566,3.89184375 L16.6324057,4.88985937 L16.9783491,4.95660937 L17.6231604,4.04535937 L18.1001415,4.13882812 L17.3208962,5.23696875 L17.6265566,6.54539062 L17.6299057,6.54539062 L17.6299528,6.54539062 Z M17.2,6.4051875 L17.5559906,6.4753125 L17.2637736,5.22698437 L18.009434,4.17885937 L17.6533962,4.10882812 L17.0085849,5.02003125 L16.5718868,4.93321875 L16.7700472,3.93525 L16.4442453,3.87182813 L15.9908019,6.16823437 L16.3166038,6.23165625 L16.5147642,5.23364063 L16.9514151,5.32040625 L17.2033491,6.4051875 L17.2000472,6.4051875 L17.2,6.4051875 Z M18.5166509,6.86582813 L19.6418396,4.74632812 L20.9416981,5.42723438 L20.7704245,5.74767187 L19.8131604,5.247 L19.5041509,5.82778125 L20.350566,6.2716875 L20.1826415,6.58546875 L19.3362264,6.14151562 L19.027217,6.72229688 L19.9878302,7.22629688 L19.8165094,7.54673438 L18.5099057,6.8625 L18.5166509,6.86582813 Z" id="Shape" fill="#FFFFFF"></path>
            <path d="M19.8366509,7.58676562 L18.479717,6.8758125 L19.6317925,4.709625 L20.9820283,5.41720312 L20.7838208,5.78770313 L19.8266038,5.28703125 L19.544434,5.81775 L20.3908491,6.26165625 L20.1960377,6.6255 L19.3496226,6.18159375 L19.0675,6.71226562 L20.0281132,7.21626563 L19.8299528,7.58676562 L19.8366509,7.58676562 Z M18.5536321,6.85246875 L19.8097642,7.51003125 L19.9541981,7.23965625 L18.9935849,6.73565625 L19.329434,6.1048125 L20.1758491,6.54871875 L20.316934,6.28504687 L19.4705189,5.84114062 L19.8063679,5.21029688 L20.7636321,5.71096875 L20.908066,5.44059375 L19.6585849,4.78635937 L18.560283,6.85579687 L18.5535849,6.85246875 L18.5536321,6.85246875 Z M21.0626415,8.54807812 L21.7074528,7.89384375 L21.7074528,7.61015625 L22.2616981,6.36182813 L22.5606132,6.65221875 L22.0736321,7.75701563 L22.1273585,7.81040625 L23.2256604,7.29975 L23.5246226,7.59014063 L22.2851887,8.16421875 L21.999717,8.17425 L21.3548113,8.8284375 L21.0659906,8.54475 L21.0626415,8.54807812 Z" id="Shape" fill="#FFFFFF"></path>
            <path d="M21.3514151,8.87184375 L21.0222642,8.55140625 L21.680566,7.88385938 L21.6873113,7.600125 L22.2516038,6.31509375 L22.5941981,6.64551563 L22.107217,7.75035938 L22.1340566,7.77703125 L23.2324057,7.266375 L23.575,7.59679687 L22.2885849,8.1909375 L22.0165094,8.20092188 L21.3582075,8.86851563 L21.3514623,8.87184375 L21.3514151,8.87184375 Z M21.1028774,8.54807812 L21.3514623,8.79173438 L21.9862736,8.14753125 L22.2750943,8.1375 L23.4741509,7.5834375 L23.2189623,7.33645313 L22.1206132,7.84715625 L22.0399528,7.76704688 L22.5270283,6.66220313 L22.2717925,6.41521875 L21.7410849,7.62014063 L21.7410849,7.91053125 L21.1028774,8.55473437 L21.1028774,8.54807812 Z M9.81745283,25.0667812 L9.69650943,24.7463438 L10.4891981,23.0073281 L10.8116509,22.8871875 L11.8226415,23.341125 L11.9468868,23.6648906 L11.7084434,24.1889063 L11.3524057,24.0286875 L11.5068868,23.6849063 L11.4632075,23.578125 L10.8653302,23.30775 L10.7578302,23.3444531 L10.1297642,24.7229531 L10.1733962,24.8298281 L10.7712736,25.1001563 L10.8788208,25.0634063 L11.0333019,24.719625 L11.3892925,24.8798438 L11.1508019,25.4038594 L10.825,25.5240469 L9.81400943,25.0701094 L9.81740566,25.0667813 L9.81745283,25.0667812 Z" id="Shape" fill="#FFFFFF"></path>
            <path d="M10.8284434,25.5507188 L9.79726415,25.0867969 L9.66627358,24.7429688 L10.4656604,22.9806562 L10.8116509,22.8504844 L11.842783,23.3144063 L11.9771226,23.6581875 L11.7218396,24.2189531 L11.3154245,24.0353906 L11.4766509,23.67825 L11.443066,23.5948125 L10.8653774,23.3344219 L10.778066,23.3644688 L10.1600472,24.719625 L10.1936321,24.8030625 L10.7713208,25.0634062 L10.8585849,25.0333594 L11.0198585,24.6762187 L11.4262736,24.8598281 L11.1710377,25.4205469 L10.8216981,25.5473906 L10.8284434,25.5507188 Z M9.8409434,25.0467188 L10.8284434,25.4906719 L11.1340566,25.3771875 L11.3557547,24.8898281 L11.0533962,24.753 L10.9056132,25.0800937 L10.7746226,25.1268281 L10.1532547,24.8497969 L10.1028774,24.7229531 L10.7410849,23.3244375 L10.8720755,23.2777031 L11.4934434,23.5547344 L11.5438679,23.6815781 L11.3960377,24.0086719 L11.6983491,24.1455 L11.9200472,23.6581875 L11.8024528,23.3578125 L10.815,22.9138594 L10.5126415,23.0273438 L9.73009434,24.7463438 L9.84424528,25.0467188 L9.8409434,25.0467188 Z M12.6656604,26.0747813 L13.0082547,23.7049219 L13.3945283,23.7616875 L13.1023113,25.7710313 L14.1804717,25.9245469 L14.1266981,26.2883906 L12.6656132,26.0781094 L12.6656132,26.0747812 L12.6656604,26.0747813 Z" id="Shape" fill="#FFFFFF"></path>
            <path d="M14.1536321,26.3151094 L12.6354717,26.098125 L12.9881132,23.6715469 L13.4281132,23.7349688 L13.1358962,25.7443125 L14.2140566,25.897875 L14.1535849,26.3151094 L14.1536321,26.3151094 Z M12.6992453,26.0513906 L14.1065566,26.2516875 L14.1502358,25.9446094 L13.0720283,25.7910469 L13.3642453,23.7817031 L13.0350943,23.7349688 L12.6992453,26.0513906 Z M15.9875,26.2616719 L15.7120283,26.0547188 L15.4232075,23.9219063 L15.8094811,23.8684688 L16.0714623,25.8044063 L16.1621698,25.8711563 L16.8171226,25.7843906 L16.8842925,25.69425 L16.6189623,23.7583594 L17.0052358,23.7049219 L17.2940566,25.8377813 L17.0858491,26.1114844 L15.9875,26.2583438 L15.9875,26.2616719 Z" id="Shape" fill="#FFFFFF"></path>
            <path d="M15.9808019,26.2917187 L15.6885849,26.0680781 L15.3930189,23.8951875 L15.8330189,23.8350938 L16.0983019,25.7877187 L16.1688208,25.8411094 L16.800283,25.7576719 L16.8540566,25.6875938 L16.5887264,23.7349688 L17.0287264,23.674875 L17.3242925,25.8478125 L17.0992453,26.1382031 L15.9774528,26.2883906 L15.9807547,26.2917188 L15.9808019,26.2917187 Z M15.7389623,26.0380312 L15.9942453,26.231625 L17.0690566,26.0880937 L17.2637736,25.8344531 L16.9783019,23.7416719 L16.6491509,23.7850312 L16.9111321,25.7042812 L16.8305189,25.8110625 L16.1520283,25.9012031 L16.0445755,25.8210469 L15.7825943,23.9018437 L15.4533962,23.94525 L15.7389151,26.0380312 L15.7389623,26.0380312 Z M18.9700472,25.6108125 L17.9725,23.4312656 L19.1984434,22.8771562 L19.5209434,22.9973437 L19.8232547,23.6582344 L19.7157075,23.9419219 L19.7157075,23.948625 L20.0146226,24.0554063 L20.3236321,24.7329844 L20.2027358,25.0534219 L18.9700472,25.6108125 Z M18.7517925,24.1956094 L19.4201887,23.8951875 L19.4604717,23.7917344 L19.252217,23.3344687 L19.1481132,23.2943906 L18.479717,23.5948125 L18.7551415,24.1956094 L18.7517925,24.1956094 Z M19.1783491,25.1268281 L19.8534434,24.823125 L19.8904245,24.7162969 L19.6754245,24.249 L19.5679717,24.2055937 L18.8928302,24.5093437 L19.175,25.1268281 L19.1783019,25.1268281 L19.1783491,25.1268281 Z" id="Shape" fill="#FFFFFF"></path>
            <path d="M18.9566038,25.6475156 L17.935566,23.4145313 L19.1984434,22.8437813 L19.5443868,22.9739531 L19.8567925,23.6548594 L19.7526415,23.9285625 L20.0347642,24.0320625 L20.3538679,24.7296563 L20.2228774,25.0734375 L18.9532547,25.6475156 L18.9566038,25.6475156 Z M18.012783,23.4445781 L18.9868396,25.5741094 L20.1825943,25.0333594 L20.2968396,24.7329844 L19.9978774,24.07875 L19.7023113,23.9719688 L19.6888679,23.94525 L19.7963679,23.6581875 L19.5041509,23.0173594 L19.2017925,22.903875 L18.0128302,23.44125 L18.0128302,23.4445781 L18.012783,23.4445781 Z M19.1615566,25.1635313 L18.8558962,24.4959844 L19.5679245,24.1755469 L19.695566,24.2256563 L19.9172642,24.7129688 L19.8701887,24.8431406 L19.1581604,25.1635313 L19.1615094,25.1635313 L19.1615566,25.1635313 Z M18.9331604,24.5227031 L19.1917925,25.090125 L19.8299528,24.8030625 L19.8601415,24.7162969 L19.6552358,24.2690156 L19.5712736,24.2356406 L18.9331132,24.5227031 L18.9331604,24.5227031 Z M18.7383491,24.2323125 L18.439434,23.5814531 L19.1447642,23.2643438 L19.2724057,23.3110781 L19.4907075,23.7917344 L19.4436792,23.9185781 L18.7383491,24.2356406 L18.7383491,24.2323125 Z M18.5132547,23.608125 L18.7651887,24.1588594 L19.3966038,23.8751719 L19.4268396,23.7917344 L19.2287264,23.3544844 L19.1447642,23.3244375 L18.5132547,23.608125 Z" id="Shape" fill="#FFFFFF"></path>
            <path d="M15.0066981,12.2663438 L15.0066981,10.8744844 L10.3010377,10.8744844 L10.3010377,12.2897344 C10.8350943,12.2830313 11.3725,12.2797031 11.9065566,12.276375 C11.9065566,14.7062812 11.9065566,17.1395156 11.9032547,19.5694219 C12.396934,19.5494062 12.8940094,19.5360469 13.387783,19.5260156 L13.387783,12.2696719 L15.0066981,12.2696719 L15.0066981,12.2663437 Z M18.1740566,10.8577969 L16.2192453,10.8577969 C15.6750943,13.7416406 15.1343396,16.6188281 14.5868396,19.506 C15.1108019,19.506 15.6348113,19.506 16.1621226,19.5127031 C16.242783,19.0053281 16.32,18.498 16.4006132,17.9872969 C16.9379717,17.994 17.4720283,18.0073594 18.009434,18.0240469 C18.0933962,18.5380312 18.1740566,19.0520625 18.2580189,19.5694219 C18.7785849,19.5894375 19.3025943,19.6161562 19.8231604,19.6462031 C19.2757075,16.68225 18.7248585,13.7583281 18.1774057,10.8577969 L18.1740094,10.8577969 L18.1740566,10.8577969 Z M16.6055189,16.6087969 C16.8003302,15.3337969 16.9984434,14.0554219 17.1932547,12.7770469 C17.3948113,14.05875 17.5963679,15.3404531 17.7945283,16.6288594 C17.3982075,16.6188281 17.0018396,16.6121719 16.6055189,16.6087969 Z M8.13132075,18.1208437 C8.13132075,18.1875937 8.10783019,18.2476875 8.06415094,18.3010781 C8.0204717,18.3544687 7.96339623,18.3845156 7.89622642,18.3878437 C7.55028302,18.4145625 7.20424528,18.4412344 6.85834906,18.4712812 C6.79117925,18.4779844 6.73745283,18.4579219 6.69042453,18.4145625 C6.64674528,18.3711562 6.62325472,18.3177656 6.62325472,18.2476406 C6.62325472,15.7877344 6.62325472,13.3277813 6.6265566,10.8678281 L5.14537736,10.8678281 L5.14537736,18.3845156 C5.14537736,18.6348281 5.1890566,18.8651719 5.27971698,19.0754531 C5.37042453,19.2857344 5.49132075,19.4626406 5.64584906,19.6095 C5.80033019,19.7563594 5.98509434,19.8631406 6.19669811,19.9332656 C6.40830189,20.0033437 6.63330189,20.0266875 6.86839623,20.0000156 C7.2106705,19.9633059 7.55329685,19.9299136 7.89622642,19.8998437 C8.13132075,19.8798281 8.35636792,19.8130781 8.56462264,19.7062969 C8.77287736,19.5994687 8.95424528,19.4592656 9.10872642,19.2923906 C9.26325472,19.1255156 9.3875,18.9319219 9.47820755,18.7116094 C9.56886792,18.4913437 9.61254717,18.261 9.61254717,18.0240469 C9.61254717,15.6375 9.61584906,13.2543281 9.61929245,10.8678281 L8.13806604,10.8678281 C8.13806604,13.284375 8.13466981,15.7009219 8.13132075,18.1174687 L8.13132075,18.1208437 Z M23.4674528,14.1655781 C22.9248569,14.3084158 22.3818515,14.4497133 21.8384434,14.5894688 L21.8384434,10.8711563 L20.357217,10.8711563 C20.357217,13.8050625 20.360566,16.7423438 20.3639623,19.67625 C20.8576887,19.709625 21.3514151,19.7463281 21.8451887,19.7897344 L21.8451887,16.0280625 C22.3892925,15.8945156 22.9300943,15.7610156 23.4741509,15.6275156 L23.4741509,19.94325 C23.9679245,19.9966875 24.4616509,20.0534063 24.9520283,20.1135 L24.9520283,10.8711563 L23.4708491,10.8711563 L23.4708491,14.1622031 L23.4675,14.1655781 L23.4674528,14.1655781 Z" id="Shape" fill="#010101"></path>
        </g>
    </g>
</svg>