<?xml version="1.0" encoding="UTF-8" standalone="no"?>
<svg width="30px" height="30px" viewBox="0 0 30 30" version="1.1" xmlns="http://www.w3.org/2000/svg" xmlns:xlink="http://www.w3.org/1999/xlink">
    <!-- Generator: Sketch 41 (35326) - http://www.bohemiancoding.com/sketch -->
    <title>hurricanes</title>
    <desc>Created with Sketch.</desc>
    <defs></defs>
    <g id="Page-1" stroke="none" stroke-width="1" fill="none" fill-rule="evenodd">
        <g id="hurricanes">
            <g transform="translate(0.000000, 5.000000)" id="Page-1">
                <g>
                    <g id="Artboard-Copy">
                        <g id="hurricanes" transform="translate(0.000000, 0.500000)">
                            <g id="Page-1">
                                <g id="Artboard">
                                    <g id="Layer_6" transform="translate(0.000000, 0.445946)">
                                        <g id="Layer_2">
                                            <g id="Group">
                                                <path d="M7.76635135,17.8418919 C6.4787838,17.8418919 5.3306757,17.7527027 4.35351352,17.5762162 L3.8777027,17.4905405 L4.28270271,17.2266216 L5.1831081,16.6397298 C4.65864865,16.5794595 3.84702703,16.4313513 3.02756757,16.0682432 C1.76189189,15.5071621 0.253243243,14.3110811 0.253243243,11.7994595 C0.253243243,9.99905405 1.01216216,8.30513515 2.50945946,6.76445945 C3.82972973,5.4056757 5.6939189,4.19202702 8.05,3.15689189 C12.1662162,1.34864865 17.5770271,0.225405405 22.1705405,0.225405405 C23.5044594,0.225405405 24.6959459,0.321891892 25.712027,0.51243243 L26.1855405,0.601216215 L25.7809459,0.86256757 L24.8829729,1.44216216 C25.4013513,1.51067568 26.2072973,1.67148648 27.0210811,2.04689189 C28.2718919,2.62391892 29.7631081,3.83283784 29.7631081,6.31445945 C29.7572973,8.12864865 28.9862162,9.8291892 27.4712162,11.3693243 C26.1383784,12.7237838 24.2582432,13.9314865 21.8829729,14.9575676 C17.7652703,16.7367568 12.355946,17.8418919 7.76635135,17.8418919 L7.76635135,17.8418919 L7.76635135,17.8418919 L7.76635135,17.8418919 Z" id="Shape" fill="#FFFFFF"></path>
                                                <path d="M22.1705405,0.417432432 C23.4728379,0.417432432 24.6641892,0.51135135 25.6767567,0.701216215 L24.3101352,1.58337838 C24.3101352,1.58337838 29.5712162,1.70689189 29.5712162,6.3141892 C29.5472973,13.7783784 16.1582433,17.65 7.7662162,17.65 C6.50675675,17.65 5.35972975,17.5627027 4.38756757,17.3874324 L5.7656757,16.4893243 C5.7656757,16.4893243 0.445135135,16.462027 0.445135135,11.7995946 C0.445,4.39756757 13.689054,0.417432432 22.1705405,0.417432432 L22.1705405,0.417432432 L22.1705405,0.417432432 Z M22.1705405,0.0335135135 C17.5518919,0.0335135135 12.1117567,1.16297297 7.97283785,2.98121621 C5.5939189,4.02635135 3.70945946,5.2543243 2.37162162,6.6308108 C0.83837838,8.2083784 0.061081081,9.9472973 0.061081081,11.7994595 C0.061081081,13.8690541 1.05986486,15.405946 2.94972973,16.2436487 C3.55756757,16.5132432 4.16189189,16.6674324 4.65391892,16.7555405 L4.17783784,17.0656757 L3.36783784,17.5936486 L4.31932433,17.7654054 C5.30783785,17.9437838 6.46756755,18.0339189 7.7662162,18.0339189 C12.3805405,18.0339189 17.8187838,16.9225676 21.959054,15.1336486 C24.3571622,14.0974324 26.2577027,12.8762162 27.607973,11.5037838 C29.1594594,9.92675675 29.9491892,8.1810811 29.9551352,6.31554055 C29.9551352,4.2695946 28.9682433,2.73364865 27.1013514,1.87243243 C26.4958108,1.59297297 25.8935135,1.42932433 25.4047298,1.33364865 L25.885,1.02391892 L26.6943243,0.501486485 L25.7472973,0.324054054 C24.7197297,0.131081081 23.5163514,0.0335135135 22.1705405,0.0335135135 L22.1705405,0.0335135135 L22.1705405,0.0335135135 L22.1705405,0.0335135135 Z" id="Shape" fill="#8E8E91"></path>
                                            </g>
                                        </g>
                                        <g id="Layer_3" transform="translate(1.081081, 0.945946)" fill="#231F20">
                                            <path d="M22.6756757,0.157567568 C22.6756757,0.157567568 21.9991892,0.0478378379 20.7012162,0.0478378379 C13.8332433,0.0478378379 0.104459459,3.62918919 0.104459459,10.7164865 C0.104459459,14.5833784 3.91662162,15.0495946 6.0010811,15.0495946 C9.60297295,15.0495946 13.8997298,13.6921621 15.6274325,12.7185135 C15.6274325,12.7185135 9.18243245,15.2781081 3.73378378,13.4313513 C4.80445946,13.6031081 7.26256755,13.2667568 8.2327027,12.8555406 C8.2327027,12.8555406 5.5210811,12.4077027 5.5210811,9.6193243 C5.5210811,2.65932433 20.9483784,0.157567568 22.6756757,0.157567568 L22.6756757,0.157567568 L22.6756757,0.157567568 Z" id="Shape"></path>
                                            <path d="M7.4956757,9.85243245 C8.2133784,8.54972975 8.2316216,7.72702705 9.05445945,6.75797295 C10.4821622,5.13594595 14.9966216,3.90797298 17.4512162,3.90797298 C19.929054,3.90797298 20.7972973,5.5072973 20.8109459,6.5156757 C20.8109459,9.37702705 14.8443243,11.7081081 14.8548649,11.7081081 C20.6097297,7.8366216 20.4087838,5.62202705 17.0913513,5.62202705 C14.3486486,5.62216215 9.2645946,7.42527025 7.4956757,9.85243245 L7.4956757,9.85243245 L7.4956757,9.85243245 Z" id="Shape"></path>
                                        </g>
                                        <g id="Layer_4" transform="translate(6.216216, 2.027027)" fill="#E13A3E">
                                            <path d="M0.052162162,14.9558108 C0.052162162,14.9558108 0.72864865,15.0656757 2.02675676,15.0656757 C8.89472975,15.0656757 22.6236486,11.484054 22.6236486,4.39716216 C22.6236486,0.530135135 18.8114865,0.063918919 16.7268919,0.063918919 C13.125,0.063918919 8.8283784,1.42162162 7.10054055,2.395 C7.10054055,2.395 13.5456757,-0.164729729 18.9941892,1.68202703 C17.9233784,1.51054054 15.4654054,1.84648649 14.4952703,2.25797297 C14.4952703,2.25797297 17.2068919,2.70581081 17.2068919,5.4941892 C17.2070271,12.454054 1.77959459,14.9558108 0.052162162,14.9558108 L0.052162162,14.9558108 L0.052162162,14.9558108 Z" id="Shape"></path>
                                        </g>
                                        <g id="Layer_5" transform="translate(8.783784, 6.756757)">
                                            <path d="M11.7689189,0.823783785 C11.3578378,-0.320135135 8.15513515,-0.17554054 5.1616216,0.86027027 C1.94432433,2.01648649 -0.332297297,3.85175676 0.078918919,4.99554054 C0.49,6.1395946 3.69216216,6.0485135 6.6485135,4.97351351 C9.8656757,3.81743243 12.1798648,1.96770271 11.7689189,0.823783785 L11.7689189,0.823783785 L11.7689189,0.823783785 Z" id="Shape" fill="#E13A3E"></path>
                                            <ellipse id="Oval" fill="#231F20" transform="translate(5.837967, 2.935141) rotate(-18.445820) translate(-5.837967, -2.935141) " cx="5.83796693" cy="2.93514109" rx="2.58115287" ry="0.850925065"></ellipse>
                                        </g>
                                    </g>
                                </g>
                            </g>
                        </g>
                    </g>
                </g>
            </g>
        </g>
    </g>
</svg>