<?xml version="1.0" encoding="UTF-8"?>
<svg width="30px" height="30px" viewBox="0 0 30 30" version="1.1" xmlns="http://www.w3.org/2000/svg" xmlns:xlink="http://www.w3.org/1999/xlink">
    <!-- Generator: Sketch 50.2 (55047) - http://www.bohemiancoding.com/sketch -->
    <title>islanders</title>
    <desc>Created with Sketch.</desc>
    <defs></defs>
    <g id="islanders" stroke="none" stroke-width="1" fill="none" fill-rule="evenodd">
        <g id="g236" transform="translate(0.077386, 0.094310)">
            <g id="g238" fill="#FFFFFF">
                <path d="M15.1646252,0.000310344827 C6.78936799,0.000310344827 0,6.44472415 0,14.3941034 C0,22.3433793 6.78936799,28.7882069 15.1646252,28.7882069 C23.540303,28.7882069 30.3298813,22.3433793 30.3298813,14.3941034 C30.3298813,6.44472415 23.5401979,0.000310344827 15.1646252,0.000310344827 M15.1646252,27.7277586 C7.38500961,27.7277586 1.07919955,21.7579655 1.07919955,14.3941034 C1.07919955,7.0302414 7.38500961,1.06044827 15.1646252,1.06044827 C22.9439254,1.06044827 29.2500509,7.03013795 29.2500509,14.3941034 C29.2499457,21.7581724 22.9439254,27.7277586 15.1646252,27.7277586" id="path246"></path>
            </g>
            <g id="g248" transform="translate(8.000000, 17.000000)" fill="#FFFFFF">
                <path d="M7.589723,1.562138 C7.5108649,1.7210345 7.3565133,1.8305862 7.1776631,1.855 L1.10727076,2.6768965 C1.05354212,2.6844483 1.00412436,2.713 0.97173998,2.7560345 C0.93914526,2.7977242 0.9255817,2.8526552 0.93409836,2.9047931 L1.30410064,5.2949655 C1.31272245,5.3496896 1.34426566,5.3995517 1.39179085,5.4306896 C1.43900054,5.4617241 1.49693497,5.4717586 1.55255624,5.4593449 L2.1546117,5.3172069 L2.5137841,3.9397931 C2.5260859,3.8924138 2.5739265,3.8637586 2.6226082,3.8750345 L3.8021153,4.1595173 C3.8378643,4.167069 3.8644658,4.1964483 3.8696178,4.2313104 L3.9752878,4.8912069 L4.7328513,4.7131724 L4.7328513,4.4142069 C4.7328513,4.3824483 4.7465201,4.3519311 4.7704929,4.3308276 C4.7945709,4.3095172 4.826745,4.2995862 4.8584986,4.3033104 L5.799013,4.4128621 C5.8256145,4.4153449 5.8465382,4.4296207 5.864623,4.4477241 L7.6707892,4.0242069 C7.8315546,3.986862 7.9643516,3.8796896 8.0353239,3.7326897 L9.1556348,1.3861724 L7.9745506,0.7935173 L7.589723,1.562138 L7.589723,1.562138 L7.589723,1.562138 Z" id="path256"></path>
            </g>
            <g id="g258" transform="translate(16.000000, 17.000000)" fill="#FFFFFF">
                <polygon id="polygon266" points="0.2161719 0.3104138 0.1194393 0.5046896 1.2948457 1.0945517 1.3885291 0.8984138"></polygon>
            </g>
            <g id="g268" transform="translate(16.000000, 16.000000)" fill="#FFFFFF">
                <polygon id="polygon276" points="0.6415851 0.4603793 0.6023663 0.5382759 1.7606342 1.1186207 1.8544229 0.9232069 0.6998349 0.3438966"></polygon>
            </g>
            <g id="g278" transform="translate(16.000000, 16.000000)" fill="#FFFFFF">
                <polygon id="polygon286" points="0.4578983 0.8272069 0.3612708 1.0214828 1.52774 1.6068965 1.6214234 1.4107586"></polygon>
            </g>
            <g id="g288" transform="translate(6.000000, 2.000000)" fill="#FFFFFF">
                <path d="M14.4367632,6.87472415 L11.6264703,0.91724138 C11.5935602,0.84648276 11.5214313,0.80137931 11.4423629,0.80137931 L6.564095,0.80137931 C6.4514856,0.80137931 6.3605359,0.89106897 6.3605359,1.00165517 L6.3605359,4.9027931 L4.213177,0.82279311 C2.93367778,1.31137931 1.75353984,1.98182759 0.70945847,2.80289655 L0.70945847,10.0618621 C0.70945847,10.1720345 0.79998757,10.2621379 0.91228151,10.2621379 L3.68240929,10.2621379 C3.79386207,10.2621379 3.88523233,10.1721379 3.88523233,10.0618621 L3.88523233,6.817 L5.9249237,10.165 C5.9619344,10.2251035 6.0280701,10.2621379 6.0993578,10.2621379 L9.2058417,10.2621379 C9.3179254,10.2621379 9.4094008,10.1721379 9.4094008,10.0618621 L9.4094008,3.7666207 L12.6047315,10.5374138 L12.2225325,11.3002414 L10.8439876,14.0543448 L11.9934234,14.6311724 L12.1466184,14.3104827 L12.8441447,12.8481379 L13.1883867,12.1280345 L13.8972685,10.6433449 L17.6350379,2.81510345 C17.3591396,2.59775862 17.0736733,2.3922069 16.7787439,2.19668966 L14.4367632,6.87472415 L14.4367632,6.87472415 L14.4367632,6.87472415 Z" id="path296"></path>
            </g>
            <g id="g298" transform="translate(17.000000, 17.000000)" fill="#FFFFFF">
                <path d="M2.6064398,0.2910689 C1.5798123,0.2910689 0.7480169,0.5682069 0.7480169,0.9094827 C0.7480169,1.2495173 1.5799175,1.5260345 2.6064398,1.5260345 C3.6318056,1.5260345 4.4646524,1.2495173 4.4646524,0.9094827 C4.4646524,0.5682069 3.6318056,0.2910689 2.6064398,0.2910689" id="path306"></path>
            </g>
            <g id="g308" transform="translate(15.000000, 17.000000)" fill="#F47D30">
                <polygon id="polygon316" points="2.1556348 1.3865862 2.2948457 1.0945517 1.1194393 0.5046896 0.9744454 0.7937241"></polygon>
            </g>
            <g id="g318" transform="translate(2.000000, 12.000000)" fill="#F47D30">
                <path d="M8.0016269,5.2069655 C8.4896009,4.6639655 9.1817648,5.3065862 9.7618451,4.9629311 C10.2103901,4.7374138 10.5929045,5.1322759 11.0737286,5.060069 C11.3760181,5.0551035 11.8323437,4.7263449 12.0934166,5.1211035 C12.3136936,5.2263104 12.6235534,5.1872069 12.8109203,5.0502414 C12.9276303,4.6341724 13.413186,4.7954483 13.7339808,4.6995517 C13.9453205,4.6528966 14.3593782,4.4437242 14.6416902,4.4604828 L14.6999401,4.344 L15.8544229,4.9232069 L15.9935286,4.6317931 L14.8448287,4.0543449 L16.2233737,1.3000345 C15.4074551,1.1726897 14.3948117,1.7038966 13.6826704,1.3314828 C12.8626512,1.3065517 11.9078372,1.3595173 11.181186,0.9812069 C10.709299,0.9068276 10.2038711,0.9136552 9.7746727,0.7442069 C9.5446173,1.1683449 9.285437,0.6057931 9.0095387,0.6879311 C8.8433058,0.7401724 8.704831,0.9189311 8.7382668,1.1107242 C8.6534155,1.5501724 8.1103459,1.2932069 7.83087281,1.478069 C7.31818994,1.7643104 7.03366985,1.0418276 6.54380328,1.0484483 C6.20986549,0.959069 5.81147427,0.9992069 5.626,1.3345862 C5.33769477,1.4064828 5.19049294,1.0369655 4.86391521,1.1574828 C4.63690897,1.0188621 4.96474845,0.9232759 4.88136912,0.7557931 C4.6946331,0.5546897 4.34660601,0.4086207 4.08353534,0.5776552 C4.03537933,0.9220345 4.41011307,1.2190345 4.21233693,1.5801724 C4.01676881,1.6197931 4.02780892,1.3398621 3.86304804,1.2741724 C3.67494517,1.1848966 3.66737477,1.4106207 3.56675182,1.4977242 C3.20063989,1.4812759 3.27718483,1.0795862 3.16257773,0.8622414 C2.73726964,0.7971724 2.39702318,1.0534138 2.04636744,1.205069 C1.80075071,1.3887931 1.96151611,1.7824138 1.75007122,1.9748276 C1.5861515,1.8535862 1.60297456,1.6210345 1.44094743,1.4764138 C1.30352403,1.3876552 1.13897343,1.3232069 0.96906049,1.3814483 C0.81208027,1.4187931 0.76676314,1.547069 0.73385302,1.6822759 C0.73774336,1.7631724 0.8204918,1.827 0.91017976,1.8039311 C1.01584963,1.8282414 1.09691577,1.95 1.04760316,2.0521035 C0.99303335,2.1250345 0.95928208,2.2716207 0.82911362,2.2449311 C0.68958734,2.1146897 0.49465009,1.9322069 0.29813567,2.0113449 C0.21517694,2.0833449 0.2975048,2.1804828 0.2975048,2.2602414 C0.20823742,2.5558966 0.42861956,2.7257586 0.59117241,2.9349311 C0.64626795,3.1660345 0.66971509,3.5034828 0.48970831,3.6715862 C0.24714076,3.7188621 0.18678801,3.9823449 0.16271,4.1835517 C0.22064443,4.3853793 0.44596834,4.3696552 0.52829621,4.5372414 C0.5725619,4.6748276 0.41999774,4.7787931 0.29561221,4.8561724 C0.34376823,5.084069 0.39949463,5.3094828 0.46079367,5.5337586 C0.60925721,5.4763449 0.77853929,5.4215173 0.87569248,5.437138 C0.95738949,5.4775862 1.01532391,5.5505173 1.01532391,5.6314138 C1.09407688,5.7827586 1.25904805,5.9346207 1.44609949,5.8475173 C1.63346637,5.7677586 1.80401017,5.5131724 2.00620237,5.617138 L2.00620237,3.9368276 L2.88058112,4.6916897 L2.88058112,5.5623104 C3.20526626,5.5547586 3.57526854,5.5872414 3.87461389,5.4683793 C4.46888861,5.5118276 5.17819108,5.6725862 5.69402828,5.3388621 C6.15098475,5.2582759 6.57345391,5.1065173 7.06405651,5.1076552 C7.39873038,5.085 7.69050537,5.2295173 8.0016269,5.2069655" id="path326"></path>
            </g>
            <g id="g328" transform="translate(19.000000, 10.000000)" fill="#F47D30">
                <path d="M1.1824194,3.5764483 C1.5102589,3.1504483 2.3495195,3.6605517 2.457082,3.002 C2.5875658,2.6589655 2.9787021,2.7868276 3.2230571,2.6174828 C3.2970786,2.4903448 3.1673307,2.402 3.1419909,2.2896551 C3.46226,1.9457931 3.8940871,1.7073449 4.2370673,1.3555173 C4.482684,1.1163449 4.8661447,1.1705517 5.1838903,1.1646551 C5.3307767,1.0774483 5.544745,0.9485517 5.5757626,0.7810689 L5.5345461,0.7234483 C5.0856857,0.659 4.5996043,0.7380345 4.1824974,0.8725172 C3.7154471,1.287862 3.2002408,1.5837242 2.6406637,1.7515172 C2.2596213,2.2282069 1.4652572,2.4514483 0.8973737,2.6436552 L0.1884918,4.1279311 C0.5474539,4.0342069 1.0229158,3.7832414 1.1824194,3.5764483" id="path336"></path>
            </g>
            <g id="g338" transform="translate(16.000000, 16.000000)" fill="#F47D30">
                <polygon id="polygon346" points="1.6214234 1.4100345 1.7606342 1.1186207 0.6023663 0.5382759 0.4586342 0.8272069"></polygon>
            </g>
            <g id="g348" transform="translate(16.000000, 17.000000)" fill="#F47D30">
                <polygon id="polygon356" points="0.3612708 0.0208621 0.2161719 0.3104138 1.3885291 0.8984138 1.52774 0.6068965"></polygon>
            </g>
            <g id="g358" transform="translate(1.000000, 1.000000)" fill="#F47D30">
                <path d="M14.1646252,0.06086207 C6.38500961,0.06086207 0.07919955,6.03013795 0.07919955,13.3945173 C0.07919955,20.7580689 6.38500961,26.7277586 14.1646252,26.7277586 C21.9439254,26.7277586 28.2500509,20.7579655 28.2500509,13.3945173 C28.250156,6.03013795 21.9439254,0.06086207 14.1646252,0.06086207 M14.1646252,25.8733793 C6.86352063,25.8733793 0.94611306,20.2866552 0.94611306,13.3945172 C0.94611306,9.5381724 2.79896326,6.0922069 5.70903789,3.803 C6.7534347,2.98162069 7.93420351,2.3117931 9.2137026,1.823 C10.7432346,1.23955173 12.4136597,0.91472414 14.1646252,0.91472414 C17.0013092,0.91472414 19.6260226,1.76113793 21.7787439,3.19648276 C22.0737784,3.3924138 22.3586139,3.59755172 22.6345122,3.8152069 C25.1682759,5.8142414 26.8943222,8.69031035 27.2925031,11.950069 L27.0107168,12.0431724 C26.8436427,12.6603448 26.1220384,12.2511035 25.8163844,12.6898276 C25.4276665,12.7113448 25.0037253,12.7445517 24.7992199,13.1297931 C24.6751498,13.1674483 24.4967202,13.1674483 24.4485642,13.0162069 C24.5321538,12.6624138 23.9447134,12.5403449 24.2156699,12.1635862 C24.1993725,12.0035517 24.0023324,11.9877242 23.8789983,12.0346897 C23.6207643,12.129138 23.6004714,12.4033793 23.5701899,12.626 C23.2162747,12.6898276 23.1866241,12.0813449 22.8029531,12.2249311 C22.4106602,12.5925862 21.9142747,12.7611035 21.3503867,12.6636552 C20.3495195,12.5877241 20.0192618,13.8698621 19.1635986,14.1396551 C18.7964353,14.1957242 18.2444285,13.9876897 17.8444602,13.8480345 L17.1464082,15.3102759 L17.5534211,15.2106552 C17.8236416,15.1472414 18.0376099,14.9702414 18.2820701,14.8445517 C18.6783584,15.1414483 18.7445992,14.5705172 19.0649735,14.5393793 C19.2686377,14.4933448 19.4389712,14.670138 19.5688242,14.8146552 C20.0498587,15.0163793 20.6303595,14.8818966 21.0234935,14.5629655 C21.4437546,14.3861724 21.9810413,14.4596207 22.4076111,14.2777586 C22.6930775,14.0920689 22.9697117,13.8697586 23.3729395,13.9338966 C24.5691645,13.5294138 26.1135218,13.0299655 27.3548536,12.6022069 C27.3725178,12.8643449 27.3832425,13.1278276 27.3832425,13.3943103 C27.382822,20.2866552 21.4655195,25.8733793 14.1646252,25.8733793" id="path366"></path>
            </g>
            <g id="g368" transform="translate(5.000000, 17.000000)" fill="#F47D30">
                <path d="M2.24832222,2.1251035 L0.986277,1.0067242 C0.49756699,0.5744138 0.15668966,0.9542758 0.15668966,1.2315172 L0.15668966,2.3867241 C0.15668966,2.608931 0.23239344,2.7396896 0.334173,2.8705517 L1.47666931,4.3382758 C1.54080724,4.4198966 1.56562127,4.5020345 1.56562127,4.6022759 L1.56562127,4.7648965 C1.56562127,4.8957586 1.44817523,4.8837586 1.3571204,4.8028621 L1.1099265,4.5955517 C1.02192086,4.5288276 1.0308581,4.3912414 1.0308581,4.2722758 L1.0308581,4.124138 C1.0308581,4.0437586 0.94474503,3.9023448 0.85800114,3.8327242 L0.28675296,3.3195173 C0.20063989,3.2373793 0.15668966,3.3059655 0.15668966,3.525069 L0.15668966,4.1951035 C0.15668966,4.3695173 0.27382022,4.7219655 0.54025551,4.9585517 L1.84761785,6.1162414 C2.16504804,6.3945172 2.43947427,6.1245173 2.43947427,5.4804483 L2.43947427,4.7419311 C2.43947427,4.3757241 2.27334654,4.0057931 2.07893497,3.7555517 L1.11728661,2.5242069 C1.11728661,2.5242069 1.0308581,2.4115517 1.0308581,2.2677586 L1.0308581,2.14 C1.0308581,2.14 1.06471453,1.9545172 1.21496553,2.089 L1.45995136,2.3057241 C1.52356362,2.3636551 1.56562127,2.4507586 1.56562127,2.5547241 L1.56562127,2.7291379 C1.56562127,2.83 1.59222272,2.905931 1.68927076,2.993138 L2.1494867,3.4004138 C2.34410851,3.5723449 2.43936912,3.4477931 2.43936912,3.2976896 L2.43936912,2.6034483 C2.43936912,2.3480345 2.32707518,2.1947241 2.24832222,2.1251035" id="path376"></path>
            </g>
            <g id="g378" transform="translate(7.000000, 19.000000)" fill="#F47D30">
                <path d="M2.38106612,4.9121724 L1.68890218,4.5085172 L1.68890218,1.1127241 C1.68890218,1.074138 1.6679785,1.0374138 1.63317582,1.0180689 L0.98506726,0.6394483 C0.94994914,0.6194827 0.90715547,0.6182414 0.87151156,0.6388276 C0.83660373,0.6581724 0.81515433,0.6948965 0.81515433,0.7341034 L0.81515433,4.7515172 C0.81515433,4.7907241 0.83513169,4.8273448 0.87024986,4.8467931 L2.26561785,5.6619655 C2.30073602,5.681931 2.34405542,5.6824483 2.37917354,5.6625862 C2.4146071,5.6426207 2.43616166,5.6058965 2.43616166,5.5666896 L2.43616166,5.0073448 C2.43616166,4.9682414 2.4146071,4.9326551 2.38106612,4.9121724" id="path386"></path>
            </g>
            <g id="g388" transform="translate(9.000000, 20.000000)" fill="#F47D30">
                <path d="M2.9758134,1.8913104 L2.8695127,1.2312069 C2.8644658,1.1964483 2.8378643,1.1675862 2.8021153,1.1588966 L1.6225031,0.8750345 C1.5738214,0.8637586 1.5259808,0.8917931 1.5136789,0.9391724 L1.1544014,2.3173103 L0.53289431,4.7035517 C0.5204873,4.7489655 0.54645788,4.7958276 0.59272131,4.8107241 L1.2874087,5.0324138 C1.3114867,5.0392414 1.3374573,5.0373793 1.3593273,5.0262069 C1.3807767,5.0137931 1.396338,4.9938276 1.4030673,4.970138 L1.5824432,4.272069 L2.5331566,4.5765172 L2.67058,5.4246897 C2.6753115,5.457069 2.6993895,5.4843793 2.7316688,5.4945173 L3.4583199,5.7274828 C3.4880757,5.7374138 3.5208807,5.731 3.5449587,5.7110345 C3.5690367,5.689931 3.5800769,5.6602414 3.5756608,5.6302414 L2.9758134,1.8913104 L2.9758134,1.8913104 L2.9758134,1.8913104 Z M1.7753827,3.5197931 L2.1364477,2.1193103 L2.3943663,3.7186207 L1.7753827,3.5197931 L1.7753827,3.5197931 L1.7753827,3.5197931 Z" id="path396"></path>
            </g>
            <g id="g398" transform="translate(12.000000, 21.000000)" fill="#F47D30">
                <path d="M3.856684,0.6522414 L3.2085755,0.5768276 C3.1762962,0.5731035 3.1449633,0.5835517 3.120675,0.6036207 C3.0959661,0.6248276 3.0824025,0.6553448 3.0824025,0.687 L3.0824025,2.9157931 L1.8877546,0.4746207 C1.8819717,0.464069 1.8728242,0.4566207 1.864623,0.4478276 C1.8469587,0.4303449 1.8256145,0.4154483 1.799013,0.4131724 L0.8591295,0.3040345 C0.8268502,0.2996897 0.7942555,0.3096207 0.7705981,0.3309311 C0.7465201,0.3520345 0.7329565,0.3825517 0.7329565,0.4143104 L0.7329565,0.7132759 L0.7329565,4.6696552 C0.7329565,4.7248966 0.7744884,4.773 0.8300045,4.7797241 L1.4788491,4.8669311 C1.5111283,4.8718966 1.5436178,4.861862 1.567801,4.8407586 C1.5921944,4.8202759 1.6063889,4.7897586 1.6063889,4.7573793 L1.6063889,2.1734483 L3.0206829,4.8855517 C3.0409757,4.9254828 3.0830333,4.949069 3.1270888,4.9467931 L3.8504805,4.9036551 C3.9100972,4.9006551 3.9567812,4.8513103 3.9567812,4.7935862 L3.9567812,0.7625173 C3.9567812,0.7058276 3.9136721,0.6583448 3.856684,0.6522414" id="path406"></path>
            </g>
            <g id="g408" transform="translate(16.000000, 21.000000)" fill="#F47D30">
                <path d="M2.355645,0.2530345 L0.5422239,0.6085862 C0.489126,0.6192414 0.4510639,0.6646552 0.4510639,0.7182414 L0.4510639,4.7286207 C0.4510639,4.7611035 0.4669407,4.7915172 0.4922804,4.8134483 C0.5177253,4.8346552 0.551792,4.8433449 0.5835455,4.8371379 L2.355645,4.5262759 C3.2291826,4.3726551 3.2291826,3.8556207 3.2291826,3.7447242 L3.2291826,0.5975172 C3.2291826,0.5974138 3.2291826,0.0819311 2.355645,0.2530345 L2.355645,0.2530345 L2.355645,0.2530345 Z M2.355645,3.4116207 C2.355645,3.4116207 2.355645,3.7897242 2.0150831,3.8493104 L1.3251272,3.9714828 L1.3251272,1.2736552 L1.9751283,1.1452759 C2.3555398,1.0713104 2.3555398,1.4192069 2.3555398,1.4192069 L2.3555398,3.4116207 L2.355645,3.4116207 L2.355645,3.4116207 Z" id="path416"></path>
            </g>
            <g id="g418" transform="translate(19.000000, 20.000000)" fill="#F47D30">
                <path d="M2.4761131,0.0530345 C2.4501424,0.0367931 2.4171272,0.0350345 2.3886331,0.048069 L0.7543776,0.8358276 C0.7234653,0.8502069 0.7038033,0.8819655 0.7038033,0.9149655 L0.7038033,4.9547242 C0.7038033,4.9852414 0.7196801,5.0138965 0.7450198,5.0294138 C0.7710955,5.0463793 0.8032696,5.0473104 0.8310277,5.0356207 L2.4660192,4.312 C2.4982984,4.2977242 2.5190119,4.265862 2.5190119,4.231 L2.5190119,3.6598621 C2.5190119,3.6299655 2.5032403,3.6026552 2.4772696,3.5866207 C2.4514042,3.5691379 2.4197558,3.5666551 2.3917874,3.5790689 L1.7049859,3.8836207 C1.6771227,3.8955173 1.6454743,3.8934483 1.6187677,3.8766896 C1.5935331,3.8605517 1.5777614,3.8324138 1.5777614,3.8027241 L1.5777614,3.0385517 C1.5777614,3.0024483 1.59858,2.9715173 1.6302284,2.9575517 L2.4657038,2.5871035 C2.4979831,2.5728276 2.5189067,2.5416896 2.5189067,2.5065173 L2.5189067,1.9324827 C2.5189067,1.9014483 2.50303,1.8733104 2.4759028,1.8566552 C2.4499321,1.8410345 2.4169169,1.839069 2.3884229,1.8528276 L1.707299,2.1809655 C1.679541,2.1942069 1.6466309,2.1921379 1.6200294,2.1766207 C1.5934279,2.1597586 1.5776563,2.1318276 1.5776563,2.1012069 L1.5776563,1.284069 C1.5776563,1.2506552 1.5974234,1.2187931 1.6277049,1.2045172 L2.4683324,0.8002414 C2.4992448,0.7846207 2.5188016,0.7541034 2.5188016,0.7204827 L2.5188016,0.1277241 C2.519117,0.0977242 2.5033454,0.0691724 2.4761131,0.0530345" id="path426"></path>
            </g>
            <g id="g428" transform="translate(21.000000, 18.000000)" fill="#F47D30">
                <path d="M2.4495636,3.3675517 C2.4495636,3.3675517 2.9609847,2.992138 2.9609847,2.308862 L2.9609847,1.2508966 C2.9609847,0.6891724 2.595714,0.6368276 2.1798689,0.9195517 L0.8164647,1.845 C0.7918609,1.8611379 0.7772459,1.8884483 0.7772459,1.9184483 L0.7772459,5.9119655 C0.7772459,5.9445517 0.7956461,5.9742414 0.8255071,5.9902758 C0.8557886,6.0061035 0.8912222,6.0047586 0.9189802,5.9847931 L1.6128265,5.522069 C1.6369045,5.5053103 1.6520452,5.4778966 1.6520452,5.4492414 L1.6520452,3.9084828 L1.7951464,3.8114483 L2.5559695,4.7902759 C2.5850944,4.8277242 2.6382974,4.8364138 2.6787778,4.8102414 L3.1863087,4.4703103 C3.2066015,4.4565517 3.2205857,4.4354483 3.2242657,4.4117586 C3.2280509,4.3867241 3.2217422,4.3618966 3.2066015,4.3430689 L2.4495636,3.3675517 L2.4495636,3.3675517 L2.4495636,3.3675517 Z M2.1798689,2.4502759 C2.1798689,2.5955173 2.0938609,2.7642414 1.9887168,2.8352069 L1.7932538,2.9685517 C1.7653906,2.9872758 1.7299571,2.9897586 1.7002012,2.9747586 C1.6697094,2.9586207 1.6520452,2.9288276 1.6520452,2.895 L1.6520452,2.185138 C1.6520452,2.1564827 1.6659243,2.129069 1.6913691,2.1128276 L1.9755738,1.9197931 C2.0889192,1.8426207 2.1798689,1.9173104 2.1798689,2.0366896 L2.1798689,2.4502759 L2.1798689,2.4502759 L2.1798689,2.4502759 L2.1798689,2.4502759 Z" id="path436"></path>
            </g>
            <g id="g438" transform="translate(24.000000, 16.000000)" fill="#F47D30">
                <path d="M1.3585607,0.7505517 L0.4787145,1.7065173 C0.2532855,1.9556207 0.2015546,2.2208621 0.2015546,2.5261379 L0.2015546,2.9327931 C0.2015546,3.2178965 0.2604353,3.4726896 0.6356948,3.5498621 L1.1168344,3.6569311 C1.2724477,3.6906552 1.3585607,3.7329655 1.3585607,3.843862 L1.3585607,3.9472069 C1.3585607,4.114069 1.319342,4.155862 1.2472131,4.2269311 C1.1762408,4.2960345 1.0116902,4.463 1.0116902,4.2543448 L1.0116902,4.0767242 C1.0116902,3.9285862 0.9483934,3.9285862 0.8527122,4.0231379 L0.2976563,4.5849655 C0.2319412,4.6445517 0.2014494,4.7142758 0.2014494,4.8288965 L0.2014494,5.1876552 C0.2014494,5.8317241 0.5399084,5.9574138 0.8850967,5.5103104 L1.7178383,4.4291724 C2.0595568,3.9851724 2.0595568,3.539931 2.0595568,3.2847241 C2.0595568,2.9783104 1.7938576,2.8525172 1.6013386,2.8195173 L1.1950616,2.7504138 C1.0500679,2.7242414 1.0115851,2.6257586 1.0115851,2.4888965 L1.0115851,2.2695862 C1.0115851,2.2035862 1.0115851,2.0298966 1.1298722,1.9084483 L1.2115693,1.8262069 C1.2970515,1.7403448 1.3584556,1.7403448 1.3584556,1.8958276 L1.3584556,2.2104138 C1.3584556,2.2745517 1.3952561,2.3132414 1.4539265,2.2534483 L1.9628242,1.7352759 C2.0495681,1.6475517 2.059662,1.5111035 2.059662,1.4184138 L2.059662,0.8934138 C2.0599774,0.3489655 1.6801967,0.4013103 1.3585607,0.7505517" id="path446"></path>
            </g>
            <g id="g448" transform="translate(4.000000, 17.000000)" fill="#F47D30">
                <path d="M0.00630752,0.6162069 L0.00630752,2.9165862 L0.62592199,3.7927931 C0.78090447,4.0121034 0.88068626,3.9591379 0.88068626,3.7698276 L0.88068626,0.562 C0.60131826,0.6360689 0.27284794,0.545862 0.00630752,0.6162069" id="path456"></path>
            </g>
            <g id="g458" transform="translate(17.000000, 17.000000)" fill="#F47D30">
                <path d="M4.4646524,1.9227586 L4.4646524,0.908862 C4.4646524,1.2501379 3.6318056,1.5260345 2.6064398,1.5260345 C1.5798123,1.5260345 0.7480169,1.2501379 0.7480169,0.908862 L0.7480169,1.9227586 C0.7480169,2.2640345 1.5799175,2.539931 2.6064398,2.539931 C3.6318056,2.539931 4.4646524,2.2640345 4.4646524,1.9227586" id="path466"></path>
            </g>
            <g id="g488" transform="translate(4.000000, 15.000000)" fill="#00539B">
                <path d="M0.88037083,2.5621034 L0.88037083,1.6914827 L0.00630752,0.9366207 L0.00630752,2.6162069 C0.27305822,2.5458621 0.60194913,2.6360689 0.88037083,2.5621034" id="path496"></path>
            </g>
            <g id="g498" transform="translate(1.000000, 4.000000)" fill="#00539B">
                <path d="M27.3538021,9.6023103 C26.1133115,10.0307931 24.5688491,10.530138 23.3725189,10.934 C22.9692911,10.8698621 22.6926569,11.0921724 22.4072956,11.2777586 C21.9807258,11.4596207 21.443229,11.3861724 21.0229678,11.563069 C20.6298338,11.8818966 20.0494381,12.0163793 19.5685087,11.8146552 C19.4387609,11.6695173 19.2684274,11.4934483 19.0645529,11.5393793 C18.7442838,11.5706207 18.6779378,12.1415517 18.2823855,11.8445517 C18.0372945,11.9703449 17.8240622,12.1472414 17.5531057,12.2107586 L17.1460927,12.3103793 L16.9936337,12.6316896 L16.8544229,12.9231034 L16.7607394,13.1193449 L16.6215286,13.4107586 L16.5278451,13.6068965 L16.3878983,13.8985173 L16.2948457,14.093931 L16.1555297,14.3866897 L15.0352188,16.7331035 C14.9642464,16.8802069 14.8301877,16.9872758 14.670684,17.0246207 L12.8638869,17.4481379 C12.8730345,17.4567241 12.882182,17.4642758 12.8873341,17.4742069 L14.0826128,19.9166207 L14.0826128,17.6872069 C14.0826128,17.6559655 14.0961764,17.6248276 14.1205698,17.6038276 C14.1446478,17.5830345 14.1766117,17.5725862 14.2081549,17.5763103 L14.8565789,17.6522414 C14.913567,17.6583448 14.9565709,17.7058276 14.9565709,17.7617931 L14.9565709,21.7928621 C14.9565709,21.8520345 14.9097818,21.9005517 14.8495342,21.9044827 L14.1270888,21.9461724 C14.0825077,21.9491724 14.0406602,21.925069 14.0201571,21.8856552 L12.6063889,19.1730345 L12.6063889,21.7573793 C12.6063889,21.789138 12.5920893,21.8196551 12.5673804,21.8407586 C12.542987,21.861862 12.5104974,21.8718965 12.4782182,21.8675517 L11.8300045,21.7803448 C11.7742781,21.7722758 11.7322204,21.7247931 11.7322204,21.6701724 L11.7322204,17.7132758 L10.9748672,17.8913104 L11.5751351,21.6298276 C11.5795511,21.6597241 11.568511,21.6913793 11.5447485,21.7106207 C11.5200396,21.7311034 11.4874449,21.7367931 11.4576891,21.7281034 L10.7310379,21.4952414 C10.6987586,21.4846896 10.6746806,21.4571724 10.6697388,21.4248965 L10.5330515,20.5767242 L9.5820226,20.2722758 L9.4026467,20.9696207 C9.396338,20.9933104 9.3805664,21.0138965 9.3586964,21.0263103 C9.337247,21.0373793 9.3112764,21.039862 9.2871984,21.0325173 L8.59198529,20.8102069 C8.54677331,20.7959311 8.52080273,20.7496897 8.53247373,20.7035517 L9.1546117,18.3173103 L8.55171507,18.4594483 C8.49672468,18.471862 8.43836972,18.4618276 8.3916857,18.4307931 C8.34447595,18.3996552 8.3126173,18.3497931 8.30431093,18.295069 L7.93409836,15.9048966 C7.92579199,15.8526551 7.9394607,15.7978276 7.97173998,15.7561379 C8.00401922,15.7131034 8.05333183,15.6846552 8.10716562,15.677 L14.1778734,14.8551035 C14.3566184,14.8307931 14.5101289,14.7211379 14.5895127,14.5622414 L14.9750763,13.7938276 L15.1193341,13.5047931 L15.2168027,13.3105173 L15.3611656,13.0209655 L15.4578983,12.8273104 L15.6027869,12.5383793 L15.6414799,12.4611034 C15.3590628,12.4437242 14.9438485,12.6528966 14.7338756,12.6996552 C14.4128705,12.7948276 13.92742,12.6342759 13.81071,13.0502414 C13.6229225,13.1871034 13.3137988,13.2264138 13.0932063,13.1212069 C12.8321334,12.7263449 12.3757026,13.0551035 12.0738338,13.0601724 C11.5927993,13.1317586 11.2104952,12.7375172 10.7619503,12.9630345 C10.18187,13.3066896 9.4893906,12.664069 9.0014166,13.2064483 C8.69040023,13.2301379 8.39820465,13.0851034 8.06374107,13.1074483 C7.5738745,13.1061034 7.15098475,13.2580689 6.69402828,13.3384483 C6.17808593,13.6727931 5.46920405,13.511 4.87419335,13.4679655 C4.57537368,13.5869311 4.20453024,13.553931 3.88047597,13.562 L3.88047597,16.7697241 C3.88047597,16.9597586 3.78079932,17.012 3.6257117,16.7921724 L3.00609723,15.9166896 L3.00609723,13.6170345 C2.80379989,13.5136896 2.63357151,13.7676551 2.44620464,13.8466896 C2.25883776,13.9345172 2.09428717,13.7826552 2.0145879,13.6313103 C2.0145879,13.5504138 1.95759977,13.4787242 1.87600791,13.4363103 C1.77843414,13.4220345 1.60883663,13.4768621 1.4611091,13.5336552 C1.39875862,13.3093793 1.34366309,13.0839655 1.2958225,12.856069 C1.42031317,12.7794138 1.57182589,12.6753448 1.52840136,12.537138 C1.44544262,12.3690345 1.22043414,12.3852758 1.16228943,12.1834483 C1.18699831,11.9822414 1.24650989,11.7187586 1.48949802,11.6714827 C1.66960995,11.504 1.64647824,11.167069 1.5904364,10.9342069 C1.42777841,10.7253449 1.20813228,10.5558965 1.29697908,10.2598276 C1.29697908,10.1806897 1.21465122,10.0838621 1.29824082,10.0113449 C1.49443979,9.9322069 1.68969248,10.1151034 1.82837761,10.2445173 C1.95938722,10.2713104 1.99292821,10.1246207 2.04739288,10.0527241 C2.09681063,9.95 2.01511362,9.8288621 1.90996948,9.803931 C1.82070209,9.8268966 1.7369022,9.763069 1.73364274,9.6827931 C1.76602714,9.5475862 1.81218541,9.4187931 1.9688502,9.3811379 C2.13813228,9.3231035 2.30331374,9.3876552 2.44073714,9.4766207 C2.60276427,9.6207242 2.58604635,9.8536896 2.74996608,9.9748276 C2.96141097,9.7826207 2.80054042,9.3887931 3.04615715,9.2051724 C3.39618202,9.0535173 3.73705935,8.796862 4.16236744,8.8620345 C4.27697454,9.0803104 4.20000906,9.482 4.56685697,9.4978276 C4.66716448,9.4103103 4.67505032,9.1845862 4.86315319,9.2739655 C5.02770378,9.3396552 5.01655852,9.6196897 5.21244208,9.580069 C5.40937705,9.219862 5.03495874,8.9221379 5.08332505,8.5777586 C5.34608028,8.4087242 5.69442286,8.5547931 5.88115883,8.7555862 C5.96464331,8.9233793 5.63680382,9.0189655 5.86370492,9.1571724 C6.19028265,9.0366552 6.3368536,9.4072069 6.62515883,9.3346897 C6.81073825,8.999 7.21007573,8.9588621 7.54296211,9.0482414 C8.03388014,9.0420345 8.31840023,9.7651379 8.83045223,9.4781724 C9.1102408,9.2939311 9.6529949,9.5501724 9.7378462,9.1108276 C9.7046207,8.9187241 9.8435161,8.7408966 10.0093284,8.6886552 C10.284701,8.6058966 10.5441967,9.168138 10.774883,8.744 C11.2031351,8.9137586 11.7095093,8.9066207 12.1812911,8.9812069 C12.9073115,9.3595172 13.8624409,9.3066552 14.6817241,9.3311724 C15.3944963,9.7035862 16.4071396,9.1723793 17.2225325,9.3000345 L17.6041006,8.5374138 L14.4088751,1.76631035 L14.4088751,8.0622758 C14.4088751,8.1724483 14.3181357,8.2618276 14.206052,8.2618276 L11.0988321,8.2618276 C11.0273341,8.2618276 10.9610933,8.2247931 10.925134,8.165 L8.88523233,4.81772415 L8.88523233,8.0621724 C8.88523233,8.1724483 8.7943878,8.2618276 8.68240929,8.2618276 L5.91291239,8.2618276 C5.79998757,8.2618276 5.70914303,8.1724483 5.70914303,8.0621724 L5.70914303,0.8025862 C2.7990684,3.09210345 0.9462182,6.5380689 0.9462182,10.3941034 C0.9462182,17.2860345 6.86362577,22.8733793 14.1651509,22.8733793 C21.4649938,22.8733793 27.3830322,17.2860345 27.3830322,10.3941034 C27.382822,10.1282414 27.3714663,9.8644483 27.3538021,9.6023103 L27.3538021,9.6023103 L27.3538021,9.6023103 Z M6.43968456,16.2984138 C6.43968456,16.4477931 6.34410851,16.5729655 6.14917126,16.4 L5.68906047,15.9932414 C5.59201243,15.9061379 5.56541098,15.8293793 5.56541098,15.7286207 L5.56541098,15.5548276 C5.56541098,15.4502414 5.52335333,15.3636551 5.4602668,15.3051034 L5.21528097,15.0882758 C5.06439909,14.954931 5.03054267,15.14 5.03054267,15.14 L5.03054267,15.2670345 C5.03054267,15.4120689 5.11686603,15.5248276 5.11686603,15.5248276 L6.07861958,16.7554483 C6.27355683,17.0056896 6.43978971,17.3757241 6.43978971,17.7418276 L6.43978971,18.4803448 C6.43978971,19.1236896 6.1647326,19.3950345 5.84730241,19.116862 L4.54057095,17.957931 C4.27339968,17.7212414 4.15668966,17.3695172 4.15668966,17.1944827 L4.15668966,16.524862 C4.15668966,16.3057586 4.2004296,16.2378965 4.28717354,16.3195172 L4.85737026,16.8325172 C4.9444296,16.9016207 5.03043752,17.0441724 5.03043752,17.1240345 L5.03043752,17.2721724 C5.03043752,17.3916551 5.02213115,17.5293448 5.11013679,17.5953448 L5.35701525,17.8027586 C5.44775464,17.8836551 5.56520068,17.8962758 5.56520068,17.7641724 L5.56520068,17.6021724 C5.56520068,17.5026551 5.54112268,17.4205172 5.47624872,17.3381724 L4.33438329,15.8698276 C4.23249859,15.7402069 4.15647937,15.6094483 4.15647937,15.3871379 L4.15647937,14.2318276 C4.15647937,13.9535517 4.49704126,13.5742069 4.98564613,14.0072414 L6.24811193,15.1248965 C6.3266546,15.1947241 6.43957942,15.347931 6.43957942,15.6033448 L6.43957942,16.2984138 L6.43968456,16.2984138 L6.43968456,16.2984138 Z M8.43574107,20.5661724 C8.43574107,20.6066207 8.41450196,20.6426207 8.37875296,20.6625862 C8.34395028,20.6825517 8.30031544,20.6825517 8.2655127,20.6614483 L6.86982928,19.8476207 C6.83565742,19.826931 6.81473374,19.7907241 6.81473374,19.752138 L6.81473374,15.7349311 C6.81473374,15.6943793 6.8362883,15.6582758 6.87140647,15.6383104 C6.90684003,15.6189655 6.94952855,15.6189655 6.98527755,15.6394483 L7.63349126,16.0174483 C7.6679785,16.0380345 7.6885868,16.0740345 7.6885868,16.1127241 L7.6885868,19.5084138 L8.38064559,19.9127931 C8.41513283,19.932138 8.43563598,19.968862 8.43563598,20.0080689 L8.43574107,20.5661724 L8.43574107,20.5661724 L8.43574107,20.5661724 L8.43574107,20.5661724 Z M18.2291826,20.7448276 C18.2291826,20.855 18.2291826,21.3725517 17.3551193,21.5257586 L15.5834403,21.837862 C15.551056,21.8427241 15.5176201,21.8346551 15.4915444,21.8135517 C15.4662046,21.7916207 15.4516948,21.7605862 15.4516948,21.7282069 L15.4516948,17.7177241 C15.4516948,17.664138 15.489126,17.6187241 15.542329,17.6086896 L17.3551193,17.2536552 C18.2291826,17.0824483 18.2291826,17.5975172 18.2291826,17.5975172 L18.2291826,20.7448276 L18.2291826,20.7448276 L18.2291826,20.7448276 Z M16.7479118,14.9234828 L16.7479118,13.9094827 C16.7479118,13.5682069 17.5798123,13.2910689 18.6063347,13.2910689 C19.6317004,13.2910689 20.4640215,13.5682069 20.4640215,13.9094827 L20.4640215,14.9234828 C20.4640215,15.2646551 19.6317004,15.5404483 18.6063347,15.5404483 C17.5798123,15.5404483 16.7479118,15.2645517 16.7479118,14.9234828 L16.7479118,14.9234828 L16.7479118,14.9234828 Z M20.519117,16.7205862 C20.519117,16.7542069 20.4988242,16.7852414 20.4679118,16.8003448 L19.6280204,17.205138 C19.597108,17.2194138 19.5787077,17.2499311 19.5787077,17.2847931 L19.5787077,18.1004828 C19.5787077,18.1317242 19.5938485,18.1603793 19.6203448,18.1765172 C19.6469463,18.1927586 19.6798564,18.1946207 19.7076145,18.1802414 L20.3887382,17.8526207 C20.4167066,17.839069 20.4495116,17.8402069 20.4762182,17.8571724 C20.5026094,17.8738276 20.5192222,17.9019655 20.5192222,17.9324827 L20.5192222,18.5065173 C20.5192222,18.5413793 20.4989293,18.5733449 20.4653883,18.5876207 L19.6312798,18.9573448 C19.5988954,18.9712069 19.5787077,19.0029655 19.5787077,19.0383449 L19.5787077,19.8032414 C19.5787077,19.8316897 19.5938485,19.8604483 19.618978,19.8766896 C19.6450537,19.8928276 19.677333,19.8960345 19.7051962,19.8828966 L20.3913669,19.5789655 C20.4191249,19.5665517 20.4521402,19.5690345 20.4773748,19.586 C20.5027145,19.6027586 20.519117,19.6300689 20.519117,19.6604827 L20.519117,20.2303793 C20.519117,20.2659655 20.4988242,20.2976207 20.4653883,20.3113793 L18.8316586,21.0348965 C18.8037954,21.047931 18.7709904,21.0456552 18.7455455,21.029931 C18.718944,21.0131724 18.7038033,20.9852414 18.7038033,20.9541035 L18.7038033,16.9150689 C18.7038033,16.8814483 18.7227292,16.8508276 18.7543776,16.8352069 L20.3886331,16.0487931 C20.4163912,16.0355517 20.4494065,16.0368966 20.4759028,16.0531379 C20.5025042,16.0692759 20.5189067,16.097931 20.5189067,16.1285517 L20.5189067,16.7207931 L20.519117,16.7207931 L20.519117,16.7205862 L20.519117,16.7205862 Z M23.1865189,18.4704138 L22.6787778,18.8098276 C22.6384025,18.8367241 22.5850944,18.8279311 22.5559695,18.790069 L21.7951464,17.8115517 L21.6522555,17.9095173 L21.6522555,19.4489311 C21.6522555,19.4783104 21.6369045,19.5056207 21.6129316,19.5231035 L20.9185597,19.9858276 C20.8913273,20.0044483 20.854632,20.0063104 20.8255071,19.9914138 C20.7963822,19.9752758 20.777351,19.9452759 20.777351,19.9128966 L20.777351,15.9180345 C20.777351,15.8888621 20.7918609,15.8621724 20.8165698,15.8452069 L22.179974,14.919862 C22.5958191,14.6376552 22.9610899,14.69 22.9610899,15.2504827 L22.9610899,16.309069 C22.9610899,16.9922414 22.4496688,17.367138 22.4496688,17.367138 L23.2067066,18.3434827 C23.2218474,18.3628276 23.228156,18.3870345 23.2242657,18.4119655 C23.2205857,18.4356551 23.2067066,18.4568621 23.1865189,18.4704138 L23.1865189,18.4704138 L23.1865189,18.4704138 Z M25.0593465,13.4182069 C25.0593465,13.5107931 25.0505144,13.6467242 24.9637705,13.7350689 L24.4543471,14.2531379 C24.3953612,14.312931 24.3586659,14.2743448 24.3586659,14.2102069 L24.3586659,13.8956207 C24.3586659,13.7400345 24.2979977,13.7400345 24.2118847,13.8258965 L24.1301877,13.908138 C24.0119005,14.0293793 24.0119005,14.2032759 24.0119005,14.2692758 L24.0119005,14.4885862 C24.0119005,14.6254483 24.0504884,14.7245517 24.1966388,14.7494827 L24.6017592,14.8192069 C24.7942781,14.8521035 25.0595568,14.9781034 25.0595568,15.2837931 C25.0595568,15.5402414 25.0595568,15.9843448 24.7182589,16.4289655 L23.8859378,17.5107242 C23.5404342,17.9572069 23.2017648,17.8320345 23.2017648,17.1875517 L23.2017648,16.8287931 C23.2017648,16.7143793 23.2322566,16.6445517 23.2979717,16.5847586 L23.8537637,16.0229311 C23.9487089,15.9282758 24.0117954,15.9282758 24.0117954,16.0766207 L24.0117954,16.2547586 C24.0117954,16.4626897 24.1763459,16.2958276 24.2473183,16.2261035 C24.3199729,16.1563793 24.358771,16.1153104 24.358771,15.9472069 L24.358771,15.843862 C24.358771,15.7328621 24.2720271,15.6907586 24.1170447,15.6570345 L23.635905,15.5499655 C23.2598044,15.4726896 23.2017648,15.218 23.2017648,14.9327931 L23.2017648,14.5267586 C23.2017648,14.2202414 23.2536009,13.9556207 23.4789248,13.7065173 L24.358771,12.7505517 C24.6801967,12.4012069 25.0595568,12.3490689 25.0595568,12.8932069 L25.0595568,13.4182069 L25.0593465,13.4182069 L25.0593465,13.4182069 L25.0593465,13.4182069 Z" id="path506"></path>
            </g>
            <g id="g508" transform="translate(10.000000, 22.000000)" fill="#00539B">
                <polygon id="polygon516" points="1.3940509 1.7186207 1.1362374 0.1193103 0.7750673 1.5197931"></polygon>
            </g>
            <g id="g518" transform="translate(10.000000, 1.000000)" fill="#00539B">
                <path d="M2.360641,2.00165517 C2.360641,1.89137931 2.4514856,1.80137931 2.5642001,1.80137931 L7.4417321,1.80137931 C7.5215365,1.80137931 7.5936653,1.84648276 7.6265755,1.91755173 L10.4368683,7.87472415 L12.7787439,3.19606897 C10.6267586,1.76072414 8.0006784,0.91431035 5.1650458,0.91431035 C3.4139751,0.91431035 1.7429192,1.23903448 0.2133872,1.8232069 L2.3607462,5.90310345 L2.360641,2.00165517 L2.360641,2.00165517 L2.360641,2.00165517 L2.360641,2.00165517 Z" id="path526"></path>
            </g>
            <g id="g528" transform="translate(18.000000, 4.000000)" fill="#00539B">
                <path d="M3.6406637,7.7515173 C4.2008717,7.5836207 4.7148163,7.2872414 5.1826026,6.8728276 C5.6002352,6.7377242 6.0857908,6.6592069 6.5345461,6.7230345 L6.5762883,6.7809655 C6.5445347,6.9484483 6.3306716,7.0767242 6.1838903,7.1642414 C5.8661447,7.1704483 5.4825789,7.1162414 5.2370673,7.3547931 C4.8939819,7.7069311 4.46226,7.946 4.1419909,8.2895517 C4.1672255,8.4012759 4.2964477,8.4906552 4.223688,8.6167586 C3.9788072,8.787138 3.587671,8.658138 3.4571871,9.002 C3.3496246,9.6608621 2.5101538,9.1505517 2.1823143,9.5764483 C2.0228106,9.7832414 1.546823,10.0345173 1.1885969,10.1275173 L0.8442499,10.8480345 C1.2442182,10.9869655 1.7961199,11.196138 2.1632832,11.1395517 C3.0190515,10.8698621 3.3495195,9.5873104 4.3508072,9.6639655 C4.9140644,9.7607931 5.41045,9.5932069 5.802848,9.2245173 C6.1864138,9.0810345 6.2169056,9.6900345 6.5700848,9.6255862 C6.6004714,9.4035862 6.6206591,9.1289311 6.879524,9.0351035 C7.0015964,8.9872069 7.1991623,9.0036552 7.2154596,9.163069 C6.9445031,9.540138 7.5320486,9.6617931 7.448459,10.0155862 C7.4959842,10.1675517 7.6750447,10.1675517 7.798589,10.1292759 C8.0037253,9.7447586 8.4271408,9.7114483 8.8170153,9.6899311 C9.1214076,9.2504828 9.8436427,9.6606552 10.010822,9.0431724 L10.293134,8.9494483 C9.8944274,5.69031035 8.1682759,2.81351725 5.6353533,0.8152069 L1.8976891,8.6428276 C2.4646263,8.4512414 3.2588852,8.2285173 3.6406637,7.7515173" id="path536"></path>
            </g>
            <g id="g538" transform="translate(22.000000, 19.000000)" fill="#00539B">
                <path d="M0.9749429,0.9197931 L0.6907382,1.1128276 C0.6659243,1.1290689 0.6520452,1.1563793 0.6520452,1.1863793 L0.6520452,1.8956207 C0.6520452,1.9287241 0.6710763,1.9585172 0.7002012,1.9740345 C0.7293262,1.9895517 0.7659163,1.9871724 0.7932538,1.9683448 L0.9894528,1.8351034 C1.0944918,1.7635172 1.1794483,1.5953103 1.1794483,1.4501724 L1.1794483,1.0366896 C1.1794483,0.9173103 1.0889192,0.8426207 0.9749429,0.9197931" id="path546"></path>
            </g>
            <g id="g548" transform="translate(17.000000, 22.000000)" fill="#00539B">
                <path d="M0.9752335,0.146 L0.3258632,0.2736551 L0.3258632,2.9714827 L1.0151883,2.8493103 C1.3550141,2.7896207 1.3550141,2.4115172 1.3550141,2.4115172 L1.3550141,0.4187931 C1.3551193,0.4186896 1.3551193,0.0713103 0.9752335,0.146" id="path556"></path>
            </g>
        </g>
    </g>
</svg>