<?xml version="1.0" encoding="UTF-8" standalone="no"?>
<svg width="30px" height="30px" viewBox="0 0 30 30" version="1.1" xmlns="http://www.w3.org/2000/svg" xmlns:xlink="http://www.w3.org/1999/xlink">
    <!-- Generator: Sketch 41 (35326) - http://www.bohemiancoding.com/sketch -->
    <title>jets</title>
    <desc>Created with Sketch.</desc>
    <defs></defs>
    <g id="Page-1" stroke="none" stroke-width="1" fill="none" fill-rule="evenodd">
        <g id="jets">
            <g id="Page-1">
                <g>
                    <g id="jets">
                        <g id="Page-1">
                            <g id="Artboard">
                                <g id="jets">
                                    <path d="M29.9862642,14.9937564 C29.9862642,23.2744964 23.2768243,29.9864646 14.9955601,29.9864646 C6.7149897,29.98648 0,23.274481 0,14.9937564 C0,6.71235355 6.7128777,0 14.9935406,0 C23.2754676,0 29.9862642,6.71235355 29.9862642,14.9937564" id="path7" fill="#A8A9AD"></path>
                                    <path d="M28.9795221,14.9937564 C28.9795221,22.7173844 22.7202827,28.9802775 14.9956835,28.9802775 C7.2703597,28.9802775 1.0076516,22.7173998 1.0076516,14.9937564 C1.0076516,7.26906475 7.2688181,1.00647996 14.9934173,1.00647996 C22.7186948,1.00649538 28.9795221,7.26908015 28.9795221,14.9937564" id="path9" fill="#002E62"></path>
                                    <path d="M16.3473484,4.77043166 L14.9946197,1.36228674 L13.5600462,4.77069373 C8.51292395,5.45179855 4.62026208,9.77423435 4.62026208,15.0082477 C4.62026208,20.7154163 9.2875745,25.3419527 14.9946043,25.3419527 C20.7017574,25.3419527 25.2867934,20.7154471 25.2867934,15.0082477 C25.2868088,9.7738335 21.3945478,5.45179855 16.3473484,4.77043166" id="path11" fill="#FFFFFF"></path>
                                    <path d="M8.68173175,13.0652313 L9.5389363,15.1276002 L13.4464594,13.2632991 L13.657739,10.8689569 L13.9477955,9.5291778 L11.9789568,8.23839155 C11.9789568,8.23839155 12.7708273,12.9286279 12.7712436,12.9305087 L10.6760997,10.8396968 L10.6186125,12.4898047 L7.5520452,11.3327081 L8.68950155,14.3435458 L8.68950155,14.0795272 L8.68173175,13.0652313 L8.68173175,13.0652313 L8.68173175,13.0652313 Z" id="path13" fill="#810120"></path>
                                    <polygon id="polygon15" fill="#810120" points="10.9330884 19.2571943 12.367446 19.490519 13.2499486 18.2214388 13.2499486 17.6390442 10.4697071 17.4538181 11.5939517 18.4342909"></polygon>
                                    <polygon id="polygon17" fill="#810120" points="14.9946198 24.9417164 15.8855858 20.6359763 15.8822097 20.6270041 14.9946198 22.5854676 14.1315108 20.6263412 14.1152466 20.6680729"></polygon>
                                    <polygon id="polygon19" fill="#810120" points="18.436372 18.4342909 19.5625591 17.4519219 16.7636947 17.6390442 16.7636947 18.2213001 17.6465365 19.4917523 19.0978366 19.2577492"></polygon>
                                    <path d="M16.5662899,13.2633761 L20.4738901,15.1273536 L21.3082014,13.0393474 L21.3240493,14.0794039 L21.3240493,14.3917523 L22.4798047,11.3327236 L19.4126362,12.4900052 L19.3544707,10.8397585 L17.2590956,12.9307708 C17.3131912,12.6055036 18.0519065,8.2384995 18.0519065,8.2384995 L16.0678212,9.5413258 L16.3556577,10.8691881 L16.5662899,13.2633761 L16.5662899,13.2633761 L16.5662899,13.2633761 Z" id="path21" fill="#810120"></path>
                                    <polygon id="polygon23" fill="#810120" points="23.0130061 14.4416392 21.3239106 14.4336382 21.3239106 15.9153545"></polygon>
                                    <polygon id="polygon25" fill="#810120" points="7.01778005 14.4416392 8.68953235 15.9000309 8.68953235 14.4336382"></polygon>
                                    <polygon id="polygon27" fill="#6E6D75" points="16.356444 10.8689723 14.9955447 4.6499075 13.6582785 10.8689723 13.4476773 13.2633145 9.53976875 15.1275386 8.6821326 13.0651696 8.68999485 14.0794656 8.68999485 17.6850925 9.31123845 17.3757502 13.2505652 17.6390442 13.2505652 18.2213001 11.4612179 20.795149 11.4612179 22.3555499 13.9282631 21.1389312 14.132112 20.6263412 14.9935406 22.5946865 15.8827492 20.6270041 16.0854419 21.1389312 18.5529496 22.3555499 18.5529496 20.7945941 16.7640956 18.2213001 16.7640956 17.6390442 20.7032683 17.3757502 21.3245735 17.6850925 21.3245735 14.0794656 21.308741 13.0390699 20.4744142 15.1275386 16.5671223 13.2633145"></polygon>
                                    <polygon id="polygon29" fill="#A8A9AD" points="13.5805345 14.8758068 13.3243012 13.6212949 9.3990956 15.4934584 8.9599178 14.4367523 8.9599178 17.2499229 9.2554625 17.102297 13.5198561 17.387405 13.5198561 18.3059044 11.7310021 20.8797225 11.7310021 21.9214594 13.7157656 20.9433145 14.0226876 20.169851 13.8508582 19.3138643 14.1411305 19.9863053 14.9935406 21.9233556 14.9946198 5.7401747 13.9253648 10.9065262 13.7026927 13.4404933 13.7013361 13.4411716"></polygon>
                                    <path d="M13.246557,17.6390442 L10.698037,17.4692651 L11.7753545,18.4086845 C11.7582734,18.4565365 11.1910329,19.1588078 11.1910329,19.1588078 L12.4522816,19.3634738 L13.2465725,18.2214388 L13.2465725,17.6390442 L13.246557,17.6390442 L13.246557,17.6390442 Z" id="path31" fill="#C60F2F"></path>
                                    <path d="M13.913371,9.67276465 L12.1688386,8.52661355 C12.1688386,8.52661355 12.1698407,8.53467625 12.1723689,8.54784175 L13.5602004,11.9392292 L13.6541624,10.869296 L13.913371,9.67276465 L13.913371,9.67276465 L13.913371,9.67276465 Z" id="path33" fill="#C60F2F"></path>
                                    <path d="M12.7703648,13.1240596 C12.768407,13.1232426 12.7674666,13.1217626 12.7652312,13.1207451 L10.8036228,11.1643166 L10.7464132,12.6830627 L7.8131963,11.5796454 L10.6770092,14.5836999 L13.0848407,13.4342497 L12.7703648,13.1240596 L12.7703648,13.1240596 L12.7703648,13.1240596 Z" id="path35" fill="#C60F2F"></path>
                                    <polygon id="polygon37" fill="#C60F2F" points="14.3596095 21.1465314 14.9962539 24.3636383 14.9935406 22.5964594"></polygon>
                                    <polygon id="polygon39" fill="#C60F2F" points="7.38621275 14.5785663 8.6859404 15.7135098 8.6859404 14.5727235"></polygon>
                                    <polygon id="polygon41" fill="#C60F2F" points="17.8485354 8.53762075 16.0973587 9.6932374 16.2939311 10.5977081"></polygon>
                                    <polygon id="polygon43" fill="#C60F2F" points="19.0396711 14.4450925 22.2394348 11.5768089 19.3105499 12.6846352 18.4541315 14.1652107"></polygon>
                                </g>
                            </g>
                        </g>
                    </g>
                </g>
            </g>
        </g>
    </g>
</svg>