<?xml version="1.0" encoding="UTF-8"?>
<svg width="30px" height="30px" viewBox="0 0 30 30" version="1.1" xmlns="http://www.w3.org/2000/svg" xmlns:xlink="http://www.w3.org/1999/xlink">
    <!-- Generator: Sketch 50.2 (55047) - http://www.bohemiancoding.com/sketch -->
    <title>kings</title>
    <desc>Created with Sketch.</desc>
    <defs></defs>
    <g id="kings" stroke="none" stroke-width="1" fill="none" fill-rule="evenodd">
        <g transform="translate(2.000000, 0.000000)">
            <path d="M1.3370246,15.6658072 L24.4127282,15.6658072 L24.4127282,20.7528979 L12.8748764,29.1048175 L1.3370246,20.7528979 L1.3370246,15.6658072 L1.3370246,15.6658072 L1.3370246,15.6658072 Z M1.3370246,1.3119237 L24.4127282,1.3119237 L24.4127282,14.9517804 L1.3370246,14.9517804 L1.3370246,1.3119237 L1.3370246,1.3119237 L1.3370246,1.3119237 Z M0.5214414,21.1705362 L12.8748764,30.1129545 L25.2283114,21.1705362 L25.2283114,0.4950006 L0.5214414,0.4950006 L0.5214414,21.1705362 L0.5214414,21.1705362 L0.5214414,21.1705362 Z" id="path236" fill="#FFFFFF"></path>
            <g id="g238" transform="translate(2.040416, 4.018353)" fill="#FFFFFF">
                <g id="path246-Clipped" transform="translate(11.000000, 0.000000)">
                    <g id="path246">
                        <path d="M8.1844429,3.6833644 L1.7853762,3.6833644 L1.7853762,1.1823509 L8.1844429,1.1823509 L8.1844429,3.6833644 L8.1844429,3.6833644 L8.1844429,3.6833644 Z M0.2731165,0.0823814 C0.4848095,0.5777289 0.8531604,1.7528044 0.8531604,3.9408983 C0.8531604,6.1289922 0.4848095,7.3040677 0.2731165,7.7987644 L1.7853112,7.7987644 L1.7853112,4.7845706 L8.1843778,4.7845706 L8.1843778,7.7987644 L9.6960529,7.7987644 C9.4850096,7.3040026 9.1165936,6.1289922 9.1165936,3.9408983 C9.1165936,1.7528044 9.4850096,0.5777289 9.6960529,0.0823814 L0.2731165,0.0823814 L0.2731165,0.0823814 L0.2731165,0.0823814 Z"></path>
                    </g>
                </g>
                <g id="path248-Clipped">
                    <g id="path248">
                        <path d="M2.4858439,6.6985345 L2.4858439,3.9405729 C2.4858439,1.7524789 2.8535451,0.5774035 3.0645883,0.0827068 L0.9726095,0.0827068 C1.1839776,0.5774686 1.5516788,1.7524789 1.5516788,3.9405729 C1.5516788,6.1293177 1.1839776,7.3034169 0.9732593,7.7990898 L9.3661254,7.7990898 C9.5043301,7.5813217 9.8994513,6.8713952 9.9906132,5.8659914 C9.5113476,6.1932944 8.5113614,6.6985345 6.8424436,6.6985345 L2.4858439,6.6985345 L2.4858439,6.6985345 L2.4858439,6.6985345 Z"></path>
                    </g>
                </g>
                <g id="path250-Clipped" transform="translate(6.000000, 13.000000)">
                    <g transform="translate(0.000000, 0.000000)" id="path250">
                        <path d="M4.4171179,7.1476977 C3.8606604,7.1476977 3.2557305,7.0817685 2.8307852,7.0244954 C3.3936753,7.2374473 4.2413569,7.3256349 4.2413569,7.3256349 C3.6152448,7.3256349 2.9270801,7.2429143 2.5040841,7.1814107 C3.1242184,7.4202006 4.169883,7.5173046 4.169883,7.5173046 C2.6315676,7.4755213 1.720989,7.2466891 1.720989,7.2466891 L1.0147609,3.139815 L1.7295659,4.0961462 C2.0432718,3.5835516 2.652555,3.1709898 3.4335059,2.9414417 L3.2180442,2.4151797 L4.323552,2.9128052 L4.323552,2.640953 L4.8345911,1.7600532 L5.3453702,2.640953 L5.3453702,2.9128052 L6.450813,2.4151797 L6.2353514,2.9414417 C7.0163022,3.1709898 7.6255855,3.5835516 7.9396163,4.0961462 L8.6540963,3.139815 L7.9478682,7.2466891 C7.9478682,7.2466891 7.0372896,7.4755863 5.4992342,7.5173046 C5.4992342,7.5173046 6.5446388,7.4202006 7.1647082,7.1814107 C6.7416471,7.2428492 6.0535475,7.3256349 5.4274353,7.3256349 C5.4274353,7.3256349 6.2751169,7.2375123 6.8380071,7.0244954 C6.4137115,7.0817685 5.8081968,7.1476977 5.2516743,7.1476977 C5.2516743,7.1476977 6.0783685,7.0614626 6.6409338,6.8541729 C6.1384716,6.7471763 5.5193119,6.6599649 4.834656,6.6599649 C4.1497402,6.6599649 3.5305805,6.7472413 3.0280534,6.8541729 C3.5904237,7.0614626 4.4171179,7.1476977 4.4171179,7.1476977 L4.4171179,7.1476977 L4.4171179,7.1476977 Z M4.2264773,2.5053849 L4.7756575,1.5560177 L4.5062006,1.0956849 L4.4420039,1.0291699 L4.4867726,0.962655 L4.5862514,0.9699443 L4.6018457,1.0533809 L4.8344611,1.4563755 L5.0668165,1.0533809 L5.0823459,0.9699443 L5.1818247,0.962655 L5.2265934,1.0291699 L5.1623968,1.0956849 L4.8929398,1.5560177 L5.44212,2.5053849 L5.876357,2.5053849 L5.8229465,2.6082162 L5.3850058,2.6082162 L4.8344611,1.6591744 L4.2836566,2.6082162 L3.8456509,2.6082162 L3.7923053,2.5053849 L4.2264773,2.5053849 L4.2264773,2.5053849 L4.2264773,2.5053849 Z M8.0849683,7.4358206 L8.8862568,2.8307354 L8.7197224,2.7584931 C8.7197224,2.7584931 8.0662552,3.6333402 7.9439047,3.7963083 C7.6756823,3.4677688 7.1639285,3.0596978 6.4707607,2.8307354 C6.5260556,2.6969896 6.7774492,2.0848179 6.7774492,2.0848179 C6.7774492,2.0848179 6.3912946,2.2404967 6.2246953,2.3083133 C6.2422388,2.2739494 6.2599774,2.2398459 6.2599774,2.2398459 C6.2599774,2.2398459 5.6675879,2.2707604 5.5737621,2.2758368 C5.5263943,2.1924654 5.2035268,1.6194086 5.1599277,1.5423503 C5.1980688,1.4745337 5.321069,1.2599546 5.3341293,1.2373057 C5.3544669,1.2195381 5.5060567,1.0911942 5.5060567,1.0911942 L5.3090484,0.7161202 L4.8917053,0.7447568 C4.8917053,0.7447568 4.884428,0.9412427 4.8824787,0.9768431 L4.8344611,1.0564398 L4.7861837,0.9768431 C4.7848842,0.9411776 4.7776068,0.7447568 4.7776068,0.7447568 L4.3599387,0.7161202 L4.1631904,1.0911942 C4.1631904,1.0911942 4.3147802,1.2195381 4.3351178,1.2373057 C4.3481131,1.2599546 4.4711783,1.4745337 4.5096443,1.5423503 C4.4657853,1.6194086 4.1431776,2.1924003 4.095485,2.2758368 C4.0017891,2.2707604 3.4092697,2.2398459 3.4092697,2.2398459 C3.4092697,2.2398459 3.4270083,2.2738843 3.4439021,2.3083133 C3.2779525,2.2404967 2.891798,2.0848179 2.891798,2.0848179 C2.891798,2.0848179 3.1431915,2.6969896 3.1979016,2.8307354 C2.5053186,3.0596978 1.9936298,3.4677688 1.7246927,3.7963083 C1.602992,3.6333402 0.9494597,2.7584931 0.9494597,2.7584931 L0.7822756,2.8307354 L1.5842138,7.4358206 C1.5842138,7.4358206 2.7252636,7.7277834 4.8343962,7.7277834 C6.9439835,7.7277834 8.0849683,7.4358206 8.0849683,7.4358206 L8.0849683,7.4358206 L8.0849683,7.4358206 Z"></path>
                    </g>
                </g>
                <g id="path252-Clipped" transform="translate(7.000000, 16.000000)">
                    <g transform="translate(0.000000, 0.000000)" id="path252">
                        <path d="M0.8566596,1.2665338 L1.0504841,1.5266058 C1.5244217,0.5982604 2.4722318,0.4932163 2.4722318,0.4932163 C1.6591826,0.7955924 1.3213055,1.2731722 1.2113655,1.740534 L1.3931694,1.9844004 C1.3931694,1.9844004 1.369648,2.639592 1.4999905,2.9146332 C1.5409906,2.8990783 1.5882934,2.8821567 1.6417689,2.8640636 C1.2187079,1.1185348 2.5914634,0.7968941 2.5914634,0.7968941 C1.6216912,1.2990102 1.7120084,2.1929266 1.9094065,2.7825796 C1.9901072,2.7602561 2.0784751,2.7379326 2.1754198,2.7160646 L2.3219414,1.9914294 C2.1964071,1.9427472 2.1070646,1.8207815 2.1070646,1.677859 C2.1070646,1.4928928 2.2573549,1.3413793 2.4424076,1.3413793 C2.5511131,1.3413793 2.6473431,1.393576 2.7093305,1.4738234 C2.7983481,1.5297949 2.8583863,1.6297625 2.8583863,1.7431373 C2.8583863,1.8625648 2.7920454,1.9666978 2.6944509,2.0207819 L3.002114,2.5836205 C3.1648147,2.5674148 3.3329736,2.5555697 3.5033416,2.5498424 L2.5088134,0.1241951 C1.7374141,0.3493826 1.1328741,0.7664352 0.8566596,1.2665338"></path>
                    </g>
                </g>
                <g id="path254-Clipped" transform="translate(11.000000, 16.000000)">
                    <g transform="translate(0.000000, 0.000000)" id="path254">
                        <path d="M1.0037757,1.9666327 C0.9052065,1.9080579 0.8388657,1.8010613 0.8388657,1.6777939 C0.8388657,1.4925023 0.9894808,1.3419651 1.1747934,1.3419651 C1.2828491,1.3419651 1.3797938,1.3935109 1.4411965,1.4737584 C1.5301491,1.5297298 1.5902522,1.6294371 1.5902522,1.7430722 C1.5902522,1.8888584 1.492008,2.0118004 1.3578968,2.0481167 L1.4933075,2.7157392 C1.5902522,2.7379976 1.6786201,2.7603211 1.7593857,2.782905 C1.9573686,2.1935775 2.0473609,1.2990102 1.0766141,0.7968941 C1.0766141,0.7968941 2.4493697,1.1184697 2.0269584,2.8637382 C2.0803689,2.8821567 2.1277367,2.8990783 2.1687368,2.9146332 C2.2990793,2.639592 2.2755579,1.9844004 2.2755579,1.9844004 L2.4580115,1.7411848 C2.3474218,1.2729119 2.0096097,0.7956575 1.1965605,0.4932163 C1.1965605,0.4932163 2.1443706,0.5989112 2.6182432,1.5266058 L2.8121327,1.2665338 C2.5362431,0.7663701 1.9320279,0.3489921 1.1599788,0.1241951 L0.1654507,2.549517 C0.3351039,2.5555697 0.5032627,2.5670243 0.6660286,2.5835554 L1.0037757,1.9666327 L1.0037757,1.9666327 L1.0037757,1.9666327 Z"></path>
                    </g>
                </g>
                <g id="path256-Clipped" transform="translate(9.000000, 17.000000)">
                    <g transform="translate(0.000000, 0.000000)" id="path256">
                        <path d="M0.4426676,0.9335054 C0.3018638,0.9335054 0.1873754,0.8188289 0.1873754,0.6781193 C0.1873754,0.5370842 0.3018638,0.4231237 0.4426676,0.4231237 C0.5831464,0.4231237 0.6978947,0.5370842 0.6978947,0.6781193 C0.6978947,0.8188941 0.5831464,0.9335054 0.4426676,0.9335054 M0.4426676,0.3909727 C0.2843201,0.3909727 0.1563168,0.5202277 0.1563168,0.6781193 C0.1563168,0.8364014 0.2843851,0.9655914 0.4426676,0.9655914 C0.600625,0.9655914 0.7290183,0.8364014 0.7290183,0.6781193 C0.7290183,0.5202928 0.600625,0.3909727 0.4426676,0.3909727"></path>
                    </g>
                </g>
                <g id="path258-Clipped" transform="translate(11.000000, 17.000000)">
                    <g transform="translate(0.000000, 0.000000)" id="path258">
                        <path d="M1.1747934,0.9335054 C1.0343145,0.9335054 0.9198911,0.8188289 0.9198911,0.6781193 C0.9198911,0.5370842 1.0343145,0.4231237 1.1747934,0.4231237 C1.3155972,0.4231237 1.4293708,0.5370842 1.4293708,0.6781193 C1.4293708,0.8188941 1.3155972,0.9335054 1.1747934,0.9335054 M1.4614691,0.6781844 C1.4614691,0.5202928 1.3330758,0.3910377 1.1747934,0.3910377 C1.0168359,0.3910377 0.8877928,0.5202928 0.8877928,0.6781844 C0.8877928,0.8364665 1.0168359,0.9656564 1.1747934,0.9656564 C1.3330758,0.9656564 1.4614691,0.8364014 1.4614691,0.6781844"></path>
                    </g>
                </g>
            </g>
            <path d="M2.06424,16.9316736 L23.6858377,16.9316736 L23.6858377,20.3807527 L12.8752013,28.2066704 L2.06424,20.3807527 L2.06424,16.9316736 L2.06424,16.9316736 L2.06424,16.9316736 Z M24.4127282,20.7528979 L24.4127282,15.6654818 L1.3373495,15.6654818 L1.3373495,20.7528979 L12.8752013,29.1050778 L24.4127282,20.7528979 L24.4127282,20.7528979 L24.4127282,20.7528979 Z" id="path274" fill="#B0B7BB"></path>
            <path d="M23.6855128,13.8779092 L2.06424,13.8779092 L2.06424,2.0409846 L23.6855128,2.0409846 L23.6855128,13.8779092 L23.6855128,13.8779092 L23.6855128,13.8779092 Z M24.4127282,1.3119237 L1.3370246,1.3119237 L1.3370246,14.9517804 L24.4127282,14.9517804 L24.4127282,1.3119237 L24.4127282,1.3119237 L24.4127282,1.3119237 Z" id="path276" fill="#B0B7BB"></path>
            <g id="g278" transform="translate(12.040416, 3.018353)" fill="#B0B7BB">
                <g id="path286-Clipped">
                    <g id="path286">
                        <path d="M1.2727916,1.0823814 L10.6963127,1.0823814 C10.4850096,1.5777289 10.1172434,2.7524789 10.1172434,4.9408983 C10.1172434,7.1296431 10.4850096,8.3037423 10.6963127,8.7994152 L9.1843778,8.7994152 L9.1843778,5.7845706 L2.7855712,5.7845706 L2.7855712,8.7994152 L1.2727267,8.7994152 C1.4844196,8.3037423 1.8527706,7.1296431 1.8527706,4.9408983 C1.8528356,2.7524789 1.4844846,1.5777289 1.2727916,1.0823814 L1.2727916,1.0823814 L1.2727916,1.0823814 Z M2.9725732,8.9862688 L2.9725732,5.9723353 L8.9975059,5.9723353 L8.9975059,8.9862688 L10.9973482,8.9862688 C10.9973482,8.9862688 10.3037906,7.9217045 10.3037906,4.9408983 C10.3037906,1.9610684 10.9973482,0.8951373 10.9973482,0.8951373 L0.9727308,0.8951373 C0.9727308,0.8951373 1.6659636,1.9610684 1.6659636,4.9408983 C1.6659636,7.9217045 0.9727308,8.9862688 0.9727308,8.9862688 L2.9725732,8.9862688 L2.9725732,8.9862688 L2.9725732,8.9862688 Z"></path>
                    </g>
                </g>
            </g>
            <path d="M21.0375963,7.5151246 L15.0126635,7.5151246 L15.0126635,5.3887945 L21.0375963,5.3887945 L21.0375963,7.5151246 L21.0375963,7.5151246 L21.0375963,7.5151246 Z M21.225183,5.2009646 L14.8257915,5.2009646 L14.8257915,7.7023687 L21.225183,7.7023687 L21.225183,5.2009646 L21.225183,5.2009646 L21.225183,5.2009646 Z" id="path288" fill="#B0B7BB"></path>
            <path d="M3.0130248,4.1007348 L5.1046787,4.1007348 C4.8936355,4.5960823 4.5265841,5.7708323 4.5265841,7.9592517 L4.5265841,10.7172134 L8.8825341,10.7172134 C10.5515168,10.7172134 11.5520877,10.2116478 12.0303787,9.8843449 C11.9401266,10.8897487 11.5440957,11.6000006 11.4068006,11.8177686 L3.0130248,11.8177686 C3.2247177,11.3220957 3.5917692,10.1479965 3.5917692,7.9592517 C3.5917692,5.7708323 3.224068,4.5960823 3.0130248,4.1007348 L3.0130248,4.1007348 L3.0130248,4.1007348 Z M11.5078388,12.0046222 C11.5078388,12.0046222 12.2407721,11.0053363 12.2407721,9.4822615 C12.2407721,9.4822615 11.2376672,10.5300343 8.8824691,10.5300343 L4.7134561,10.5300343 L4.7134561,7.9592517 C4.7134561,4.9794218 5.4060391,3.9134907 5.4060391,3.9134907 L2.7123142,3.9134907 C2.7123142,3.9134907 3.4048972,4.9794218 3.4048972,7.9592517 C3.4048972,10.9400579 2.7123142,12.0046222 2.7123142,12.0046222 L11.5078388,12.0046222 L11.5078388,12.0046222 L11.5078388,12.0046222 Z" id="path290" fill="#B0B7BB"></path>
            <path d="M12.0440887,20.4612605 C12.0097812,20.4612605 11.9776829,20.4507821 11.9509126,20.4320382 C11.8749552,20.4135546 11.818036,20.3444363 11.818036,20.2623665 C11.818036,20.1664991 11.8968523,20.0875533 11.9925625,20.0875533 C12.0491569,20.0875533 12.0993836,20.1149533 12.1314819,20.1566715 C12.1775502,20.1856336 12.2086738,20.2375048 12.2086738,20.296405 C12.2086738,20.3873912 12.1352506,20.4612605 12.0440887,20.4612605 L12.0440887,20.4612605 L12.0440887,20.4612605 Z M12.3638373,20.0315168 L11.4309718,19.6122514 L12.3638373,21.8872964 L12.3638373,20.0315168 L12.3638373,20.0315168 L12.3638373,20.0315168 Z" id="path292" fill="#B0B7BB"></path>
            <path d="M13.7317846,20.4612605 C13.6971522,20.4612605 13.664729,20.4507821 13.6380887,20.4320382 C13.5624562,20.4135546 13.5058618,20.3444363 13.5058618,20.2623665 C13.5058618,20.1664991 13.5840283,20.0875533 13.6803883,20.0875533 C13.7363329,20.0875533 13.7865597,20.1149533 13.8183331,20.1566715 C13.865376,20.1856336 13.8964997,20.2375048 13.8964997,20.296405 C13.8964347,20.3873912 13.8223616,20.4612605 13.7317846,20.4612605 L13.7317846,20.4612605 L13.7317846,20.4612605 Z M13.3853307,20.0315168 L13.3853307,21.8872964 L14.3181313,19.6122514 L13.3853307,20.0315168 L13.3853307,20.0315168 L13.3853307,20.0315168 Z" id="path294" fill="#B0B7BB"></path>
            <path d="M12.70009,19.9748294 C12.70009,19.8783762 12.7782566,19.8003416 12.8746165,19.8003416 C12.9709765,19.8003416 13.049143,19.8783111 13.049143,19.9748294 C13.049143,20.0721937 12.9709765,20.1502284 12.8746165,20.1502284 C12.7782566,20.1502284 12.70009,20.0721937 12.70009,19.9748294 L12.70009,19.9748294 L12.70009,19.9748294 Z M13.2918947,19.9920113 L12.8745515,19.4470054 L12.4578581,19.9920113 L12.8745515,20.4880096 L13.2918947,19.9920113 L13.2918947,19.9920113 L13.2918947,19.9920113 Z" id="path296" fill="#B0B7BB"></path>
            <path d="M15.646443,22.789153 L15.7757459,22.606725 L15.8657381,22.7442456 L15.646443,22.789153 L15.646443,22.789153 L15.646443,22.789153 Z M15.7414384,22.3848567 L15.7557981,22.5484757 L15.5409213,22.4848244 L15.7414384,22.3848567 L15.7414384,22.3848567 L15.7414384,22.3848567 Z M15.8272721,22.155569 L15.7557331,22.3033076 L15.6037534,22.1384521 L15.8272721,22.155569 L15.8272721,22.155569 L15.8272721,22.155569 Z M16.0179778,22.0028189 L15.8812675,22.092959 L15.8348743,21.8738893 L16.0179778,22.0028189 L16.0179778,22.0028189 L16.0179778,22.0028189 Z M16.1689178,21.7643544 L16.2601447,21.9691058 L16.0961443,21.9767206 L16.1689178,21.7643544 L16.1689178,21.7643544 L16.1689178,21.7643544 Z M14.9433988,23.536307 C14.9185778,23.536307 14.8962909,23.5299289 14.8756934,23.5194505 C14.8763431,23.5194505 14.8775777,23.5201013 14.8782274,23.5201013 C14.9714035,23.5201013 15.0467112,23.4443446 15.0467112,23.3513408 C15.0467112,23.3115751 15.0330011,23.2755841 15.0104544,23.2469475 C15.0603562,23.2718092 15.0956384,23.3233551 15.0956384,23.3838824 C15.0956384,23.4678396 15.027933,23.536307 14.9433988,23.536307 L14.9433988,23.536307 L14.9433988,23.536307 Z M14.7421669,23.3513408 C14.7421669,23.2755841 14.8031797,23.214406 14.8782274,23.214406 C14.9528853,23.214406 15.014288,23.275519 15.014288,23.3513408 C15.014288,23.4261213 14.9529503,23.4876249 14.8782274,23.4876249 C14.8032447,23.4876249 14.7421669,23.4261864 14.7421669,23.3513408 L14.7421669,23.3513408 L14.7421669,23.3513408 Z M13.6396481,23.3042858 C13.6148272,23.3042858 13.5919555,23.2985584 13.5709681,23.288015 L13.5744769,23.288015 C13.6676529,23.288015 13.7429605,23.2122582 13.7429605,23.1189942 C13.7429605,23.0800745 13.7286007,23.0441486 13.7057941,23.015512 C13.7566056,23.0403087 13.7918878,23.0915942 13.7918878,23.151796 C13.7918228,23.2358183 13.7235326,23.3042858 13.6396481,23.3042858 L13.6396481,23.3042858 L13.6396481,23.3042858 Z M13.4377666,23.1189942 C13.4377666,23.0441486 13.4987794,22.9827101 13.5744769,22.9827101 C13.6491347,22.9827101 13.7105374,23.0440835 13.7105374,23.1189942 C13.7105374,23.1947509 13.6491996,23.2555385 13.5744769,23.2555385 C13.4988443,23.2555385 13.4377666,23.1947509 13.4377666,23.1189942 L13.4377666,23.1189942 L13.4377666,23.1189942 Z M12.931146,22.1358488 C12.9072996,22.1358488 12.884363,22.1301215 12.8634405,22.119578 L12.8669493,22.119578 C12.9591507,22.119578 13.035433,22.0438212 13.035433,21.9505572 C13.035433,21.9110517 13.0210732,21.8757116 12.9982665,21.8464242 C13.049078,21.8712209 13.0843602,21.9231572 13.0843602,21.983294 C13.0843602,22.0674464 13.016005,22.1358488 12.931146,22.1358488 L12.931146,22.1358488 L12.931146,22.1358488 Z M12.7299791,21.9506223 C12.7299791,21.8757767 12.7913168,21.8143383 12.8669493,21.8143383 C12.9416072,21.8143383 13.0030098,21.8757116 13.0030098,21.9506223 C13.0030098,22.0257281 12.9416721,22.0868412 12.8669493,22.0868412 C12.7913168,22.0868412 12.7299791,22.0257281 12.7299791,21.9506223 L12.7299791,21.9506223 L12.7299791,21.9506223 Z M12.1454518,23.3042858 C12.1209558,23.3042858 12.098084,23.2985584 12.0777464,23.288015 L12.0806054,23.288015 C12.1733916,23.288015 12.2490241,23.2122582 12.2490241,23.1189942 C12.2490241,23.0800745 12.2353791,23.0441486 12.2124424,23.015512 C12.2633189,23.0403087 12.2979513,23.0915942 12.2979513,23.151796 C12.2980163,23.2358183 12.2296612,23.3042858 12.1454518,23.3042858 L12.1454518,23.3042858 L12.1454518,23.3042858 Z M11.9446099,23.1189942 C11.9446099,23.0441486 12.0056227,22.9827101 12.0806704,22.9827101 C12.155978,22.9827101 12.2173807,23.0440835 12.2173807,23.1189942 C12.2173807,23.1947509 12.1560429,23.2555385 12.0806704,23.2555385 C12.0056227,23.2555385 11.9446099,23.1947509 11.9446099,23.1189942 L11.9446099,23.1189942 L11.9446099,23.1189942 Z M10.8442353,23.536307 C10.8197392,23.536307 10.7968675,23.5299289 10.7765299,23.5194505 C10.7771797,23.5194505 10.7787391,23.5201013 10.7793889,23.5201013 C10.8721751,23.5201013 10.9478725,23.4443446 10.9478725,23.3513408 C10.9478725,23.3115751 10.9341626,23.2755841 10.9112909,23.2469475 C10.9614526,23.2718092 10.9967348,23.3233551 10.9967348,23.3838824 C10.9967998,23.4678396 10.9290944,23.536307 10.8442353,23.536307 L10.8442353,23.536307 L10.8442353,23.536307 Z M10.6433284,23.3513408 C10.6433284,23.2755841 10.7043412,23.214406 10.7793889,23.214406 C10.8540467,23.214406 10.9154494,23.275519 10.9154494,23.3513408 C10.9154494,23.4261213 10.8541117,23.4876249 10.7793889,23.4876249 C10.7044061,23.4876249 10.6433284,23.4261864 10.6433284,23.3513408 L10.6433284,23.3513408 L10.6433284,23.3513408 Z M9.9943446,22.5484106 L10.0086394,22.3847916 L10.2085716,22.4847593 L9.9943446,22.5484106 L9.9943446,22.5484106 L9.9943446,22.5484106 Z M9.8843395,22.7442456 L9.9733571,22.606725 L10.1036997,22.789153 L9.8843395,22.7442456 L9.8843395,22.7442456 L9.8843395,22.7442456 Z M9.9218309,22.155569 L10.1452846,22.138387 L9.9936948,22.3032425 L9.9218309,22.155569 L9.9218309,22.155569 L9.9218309,22.155569 Z M9.8678356,22.0928939 L9.7311253,22.0027538 L9.9141637,21.8738242 L9.8678356,22.0928939 L9.8678356,22.0928939 L9.8678356,22.0928939 Z M9.4889584,21.9690408 L9.580835,21.7642893 L9.6532836,21.9766555 L9.4889584,21.9690408 L9.4889584,21.9690408 L9.4889584,21.9690408 Z M9.6545182,22.876104 L9.8048085,22.8108256 L9.8124107,23.0349068 L9.6545182,22.876104 L9.6545182,22.876104 L9.6545182,22.876104 Z M15.9452042,22.8108256 L16.0949097,22.876104 L15.9372771,23.0349068 L15.9452042,22.8108256 L15.9452042,22.8108256 L15.9452042,22.8108256 Z M16.1422775,22.8282679 C15.9589142,22.7990456 15.8173958,22.6309359 15.8173958,22.4274861 C15.8173958,22.2037304 15.9887384,22.0219533 16.1988069,22.0219533 C16.2268118,22.0219533 16.253517,22.0244916 16.2795725,22.0302189 L16.5392181,20.5189241 L15.4086944,22.0314555 C15.4335154,22.7566765 15.255805,23.0486393 15.255805,23.0486393 C15.255805,23.0486393 14.8762781,22.8960845 14.4557512,22.8108256 L14.3073452,22.0785757 C14.2434734,22.0766882 14.1842799,22.0569681 14.134768,22.0231899 C14.1328836,22.0225391 14.1309343,22.0218882 14.12905,22.0213025 L13.7577752,22.6994034 C13.7577752,22.6994034 13.2892956,22.6541706 13.0547309,22.6541706 L13.2638898,22.0028189 L12.8745515,20.9968294 L12.4852132,22.0028189 L12.6950219,22.6541706 C12.4607821,22.6541706 11.9919777,22.6994034 11.9919777,22.6994034 L11.6483827,22.0712864 C11.6268106,22.0760374 11.6045236,22.0785757 11.5819768,22.0785757 C11.5343492,22.0785757 11.4888658,22.0674464 11.4485154,22.0486374 L11.2943265,22.8108256 C10.8732148,22.8961496 10.4943376,23.0486393 10.4943376,23.0486393 C10.4943376,23.0486393 10.3163674,22.7566765 10.3404736,22.0314555 L9.20995,20.5189241 L9.4703102,22.0302189 C9.4957159,22.0244916 9.523071,22.0219533 9.5503611,22.0219533 C9.7614043,22.0219533 9.932422,22.2037304 9.932422,22.4274861 C9.932422,22.6309359 9.7906436,22.7990456 9.6069555,22.8282679 L9.8322935,24.1370241 C10.1882989,23.9998289 11.3858782,23.5859654 12.8746165,23.5859654 C14.3640045,23.5859654 15.5616488,23.9997638 15.9169395,24.1370241 L16.1422775,22.8282679 L16.1422775,22.8282679 L16.1422775,22.8282679 Z" id="path298" fill="#B0B7BB"></path>
            <path d="M8.8230807,19.8494142 L8.9896151,19.7768466 C8.9896151,19.7768466 9.6437321,20.6514333 9.7654328,20.8149872 C10.0337202,20.4861223 10.545409,20.0780512 11.2386417,19.8494142 C11.1839317,19.7150827 10.9325381,19.1028459 10.9325381,19.1028459 C10.9325381,19.1028459 11.3186927,19.2591105 11.4846423,19.3263413 C11.4670986,19.2925632 11.4500099,19.2578739 11.4500099,19.2578739 C11.4500099,19.2578739 12.0418145,19.2890487 12.1355754,19.2938649 C12.1829432,19.2104934 12.5058757,18.6377621 12.5494099,18.5603783 C12.5112687,18.4932125 12.3885284,18.2786335 12.375858,18.2556592 C12.3548706,18.2381518 12.2039306,18.1092222 12.2039306,18.1092222 L12.400354,17.7341483 L12.818347,17.7634357 C12.818347,17.7634357 12.8256243,17.9595961 12.8269239,17.9949362 L12.8748764,18.0745329 L12.9231538,17.9949362 C12.9245183,17.9595961 12.9317957,17.7634357 12.9317957,17.7634357 L13.3494637,17.7341483 L13.5461472,18.1092222 C13.5461472,18.1092222 13.3952071,18.2381518 13.3742197,18.2556592 C13.3612245,18.2786335 13.238809,18.4931474 13.1996932,18.5603783 C13.244267,18.637697 13.5668097,19.2104283 13.6145023,19.2938649 C13.7082632,19.2891138 14.299743,19.2578739 14.299743,19.2578739 C14.299743,19.2578739 14.2822643,19.2925632 14.2655004,19.3263413 C14.4313851,19.2591756 14.8175395,19.1028459 14.8175395,19.1028459 C14.8175395,19.1028459 14.5667958,19.7150176 14.5114359,19.8494142 C15.2046687,20.0780512 15.7164225,20.4861223 15.9846449,20.8149872 C16.1064105,20.6513682 16.7604626,19.7768466 16.7604626,19.7768466 L16.926997,19.8494142 L16.1257085,24.4544995 C16.1257085,24.4544995 14.984074,24.7458765 12.8748764,24.7458765 C10.7660038,24.7458765 9.6243691,24.4544995 9.6243691,24.4544995 L8.8230807,19.8494142 L8.8230807,19.8494142 L8.8230807,19.8494142 Z M23.6858377,20.3807527 L23.6858377,16.9316736 L2.06424,16.9316736 L2.06424,20.3807527 L12.8748764,28.2066704 L23.6858377,20.3807527 L23.6858377,20.3807527 L23.6858377,20.3807527 Z" id="path300" fill="#000000"></path>
            <path d="M23.0377635,12.0046222 L21.0375963,12.0046222 L21.0375963,8.9906888 L15.0133133,8.9906888 L15.0133133,12.0046222 L13.0128212,12.0046222 C13.0128212,12.0046222 13.7060539,10.9400579 13.7060539,7.9592517 C13.7060539,4.9794218 13.0128212,3.9134907 13.0128212,3.9134907 L23.0377635,3.9134907 C23.0377635,3.9134907 22.3445307,4.9794218 22.3445307,7.9592517 C22.3445307,10.9400579 23.0377635,12.0046222 23.0377635,12.0046222 L23.0377635,12.0046222 L23.0377635,12.0046222 Z M11.5078388,12.0046222 L2.7126391,12.0046222 C2.7126391,12.0046222 3.4052221,10.9400579 3.4052221,7.9592517 C3.4052221,4.9794218 2.7126391,3.9134907 2.7126391,3.9134907 L5.4053893,3.9134907 C5.4053893,3.9134907 4.7128063,4.9794218 4.7128063,7.9592517 L4.7128063,10.5300343 L8.8828589,10.5300343 C11.2377321,10.5300343 12.2408371,9.4822615 12.2408371,9.4822615 C12.2407721,11.0053363 11.5078388,12.0046222 11.5078388,12.0046222 L11.5078388,12.0046222 L11.5078388,12.0046222 Z M23.6855128,2.0402687 L2.06424,2.0402687 L2.06424,13.8772584 L23.6855128,13.8772584 L23.6855128,2.0402687 L23.6855128,2.0402687 L23.6855128,2.0402687 Z" id="path302" fill="#000000"></path>
            <rect id="rect304" fill="#000000" x="15.0133127" y="5.3887946" width="6.0249326" height="2.12633017"></rect>
            <g id="g306" transform="translate(9.040416, 18.018353)" fill="#000000">
                <g id="path314-Clipped" transform="translate(2.000000, 3.000000)">
                    <g transform="translate(0.000000, 0.000000)" id="path314">
                        <path d="M0.4426676,0.4228634 C0.3018638,0.4228634 0.1873754,0.5374747 0.1873754,0.677859 C0.1873754,0.8192195 0.3018638,0.9335705 0.4426676,0.9335705 C0.5831464,0.9335705 0.6978947,0.8192195 0.6978947,0.677859 C0.6978947,0.5374096 0.5831464,0.4228634 0.4426676,0.4228634"></path>
                    </g>
                </g>
                <g id="path316-Clipped" transform="translate(4.000000, 3.000000)">
                    <g transform="translate(0.000000, 0.000000)" id="path316">
                        <path d="M1.1747934,0.4228634 C1.0339897,0.4228634 0.9195663,0.5374747 0.9195663,0.677859 C0.9195663,0.8192195 1.0339897,0.9335705 1.1747934,0.9335705 C1.3152723,0.9335705 1.4293708,0.8192195 1.4293708,0.677859 C1.4293708,0.5374096 1.3152723,0.4228634 1.1747934,0.4228634"></path>
                    </g>
                </g>
                <g id="path318-Clipped" transform="translate(0.000000, 0.000000)">
                    <g transform="translate(0.000000, 0.000000)" id="path318">
                        <path d="M0.7921381,6.1187357 L0.5668001,4.8099796 C0.7504882,4.7807572 0.8922667,4.6126476 0.8922667,4.4091978 C0.8922667,4.1854421 0.7205991,4.003665 0.5095559,4.003665 C0.4822009,4.003665 0.4554956,4.0062032 0.4295051,4.012256 L0.1697945,2.5006357 L1.3003182,4.0134925 C1.2755622,4.7383882 1.4535324,5.0306763 1.4535324,5.0306763 C1.4535324,5.0306763 1.8323446,4.8777961 2.2535213,4.7925373 L2.40836,4.0303491 C2.4487103,4.0491581 2.493544,4.0602873 2.5418864,4.0602873 C2.5647581,4.0602873 2.5866551,4.0577491 2.6076425,4.0533234 L2.9512375,4.681115 C2.9512375,4.681115 3.4200419,4.6362077 3.6542817,4.6362077 L3.4451228,3.984856 L3.8344611,2.9788664 L4.2237995,3.984856 L4.0139908,4.6362077 C4.2485554,4.6362077 4.7170349,4.681115 4.7170349,4.681115 L5.0889596,4.0030142 C5.0902592,4.003665 5.0921435,4.0043158 5.0946776,4.0049015 C5.1436048,4.03894 5.2027333,4.0583348 5.266605,4.0602873 L5.415011,4.7925373 C5.8361228,4.8778613 6.2156497,5.0306763 6.2156497,5.0306763 C6.2156497,5.0306763 6.3927103,4.7383882 6.3685391,4.0134925 L7.4990627,2.5006357 L7.2387674,4.012256 C7.2127119,4.0062032 7.1859416,4.003665 7.1586516,4.003665 C6.9479332,4.003665 6.7766556,4.1854421 6.7766556,4.4091978 C6.7766556,4.6126476 6.9180441,4.7807572 7.1021221,4.8099796 L6.877044,6.1187357 C6.5207786,5.9818008 5.3231344,5.567677 3.8343962,5.567677 C2.3450731,5.567677 1.1474288,5.9818008 0.7921381,6.1187357 L0.7921381,6.1187357 L0.7921381,6.1187357 Z M0.5512058,4.7195141 C0.6916846,4.6978414 0.7997404,4.5669592 0.7997404,4.4090676 C0.7997404,4.2355561 0.6697226,4.0954973 0.5095559,4.0954973 C0.4872691,4.0954973 0.4660218,4.0980355 0.4450344,4.103112 L0.4374321,4.0576189 C0.4606287,4.0525424 0.4848,4.0490279 0.5095559,4.0490279 C0.6957782,4.0490279 0.8461335,4.2101086 0.8461335,4.4090676 C0.8461335,4.5895431 0.7212489,4.7394945 0.5591329,4.7650072 L0.5512058,4.7195141 L0.5512058,4.7195141 L0.5512058,4.7195141 Z M0.4771327,4.2884686 C0.4872691,4.2852796 0.4984449,4.2833271 0.5095559,4.2833271 C0.5747272,4.2833271 0.627423,4.3393636 0.627423,4.4091327 C0.627423,4.4750619 0.5797953,4.529146 0.5193674,4.5342875 L0.4771327,4.2884686 L0.4771327,4.2884686 L0.4771327,4.2884686 Z M2.4429924,3.9656564 C2.2846451,3.9656564 2.1556669,3.8367919 2.1556669,3.6781844 C2.1556669,3.5196419 2.2846451,3.3913631 2.4429924,3.3913631 C2.60095,3.3913631 2.7293432,3.519707 2.7293432,3.6781844 C2.7293432,3.8367268 2.60095,3.9656564 2.4429924,3.9656564 L2.4429924,3.9656564 L2.4429924,3.9656564 Z M2.5084886,2.1239348 L3.5033416,4.5498424 C3.3332985,4.5558951 3.1654646,4.5670243 3.0027637,4.5838808 L2.6947758,4.0203913 C2.7923703,3.966893 2.8581913,3.8628251 2.8581913,3.7433976 C2.8581913,3.6291117 2.7990628,3.5294695 2.7090706,3.473498 C2.6481228,3.3938363 2.5507882,3.3417047 2.4430574,3.3417047 C2.2574199,3.3417047 2.1070646,3.4928928 2.1070646,3.6781844 C2.1070646,3.8211069 2.196732,3.9424869 2.3225263,3.991169 L2.1753548,4.7161297 C2.0784101,4.7383882 1.9897823,4.7607117 1.9090167,4.7826447 C1.7119434,4.1933172 1.6213014,3.2987499 2.5920482,2.7972845 C2.5920482,2.7972845 1.2189678,3.1182094 1.6413791,4.8641287 C1.5882934,4.8818964 1.5406008,4.898818 1.5002505,4.9143729 C1.3699079,4.6399825 1.3928445,3.9841401 1.3928445,3.9841401 L1.2113655,3.7409245 C1.3213055,3.2732373 1.6592476,2.7959829 2.4728815,2.492956 C2.4728815,2.492956 1.5244217,2.5986509 1.0511338,3.5263455 L0.8566596,3.2669242 C1.133199,2.7667606 1.7370892,2.3493826 2.5084886,2.1239348 L2.5084886,2.1239348 L2.5084886,2.1239348 Z M2.3901666,1.5938329 L3.3233571,2.0130982 L3.3233571,3.8685524 L2.3901666,1.5938329 L2.3901666,1.5938329 L2.3901666,1.5938329 Z M3.8344611,1.428652 L4.2518042,1.9739833 L3.8344611,2.4699817 L3.4171179,1.9739833 L3.8344611,1.428652 L3.8344611,1.428652 L3.8344611,1.428652 Z M4.3449154,2.0131633 L5.2783657,1.593898 L4.3449154,3.8686175 L4.3449154,2.0131633 L4.3449154,2.0131633 L4.3449154,2.0131633 Z M5.1747934,3.9656564 C5.016511,3.9656564 4.8877928,3.8367919 4.8877928,3.6781844 C4.8877928,3.5196419 5.016511,3.3913631 5.1747934,3.3913631 C5.3331408,3.3913631 5.4611442,3.519707 5.4611442,3.6781844 C5.4611442,3.8367268 5.3330758,3.9656564 5.1747934,3.9656564 L5.1747934,3.9656564 L5.1747934,3.9656564 Z M6.8120027,3.2668592 L6.6177883,3.5262804 C6.1439158,2.5985858 5.1964306,2.4928909 5.1964306,2.4928909 C6.0100645,2.7959178 6.3469669,3.2731722 6.4578816,3.7408594 L6.2760777,3.984075 C6.2760777,3.984075 6.2990144,4.6399174 6.1686718,4.9143078 C6.1276717,4.8987529 6.0803689,4.8818313 6.0268934,4.8640636 C6.4499544,3.1181443 5.0765491,2.7972195 5.0765491,2.7972195 C6.0469711,3.2986848 5.9573037,4.1932521 5.7599705,4.7825796 C5.6785551,4.7605815 5.5902522,4.738258 5.4929827,4.7160646 L5.3585465,4.0484422 C5.4917481,4.01154 5.5902522,3.8889235 5.5902522,3.7433976 C5.5902522,3.6291117 5.5307988,3.5294695 5.4411965,3.473498 C5.3798588,3.3938363 5.2828491,3.3417047 5.1747934,3.3417047 C4.989221,3.3417047 4.8388657,3.4928928 4.8388657,3.6781844 C4.8388657,3.8014518 4.9052065,3.9077325 5.0034507,3.9669581 L4.6656387,4.583946 C4.5028729,4.5670243 4.3356888,4.5558951 4.1653857,4.5499075 L5.1599139,2.1239998 C5.9318979,2.3493826 6.5357882,2.7667606 6.8120027,3.2668592 L6.8120027,3.2668592 L6.8120027,3.2668592 Z M7.223238,4.103177 C7.2026405,4.0981006 7.1810034,4.0955623 7.1587166,4.0955623 C6.9995245,4.0955623 6.8685321,4.2356212 6.8685321,4.4091327 C6.8685321,4.5670243 6.9772375,4.6979065 7.1170667,4.7195791 L7.1094644,4.7650722 C6.9473484,4.7395597 6.8231137,4.5896732 6.8231137,4.4091327 C6.8231137,4.2101086 6.9734039,4.049093 7.1587166,4.049093 C7.1835375,4.049093 7.2077087,4.0526075 7.2311652,4.0576839 L7.223238,4.103177 L7.223238,4.103177 L7.223238,4.103177 Z M7.14923,4.5342875 C7.0884771,4.529146 7.0411743,4.4750619 7.0411743,4.4091327 C7.0411743,4.3394287 7.0936102,4.2833271 7.1587815,4.2833271 C7.1699574,4.2833271 7.1810684,4.2852796 7.1921794,4.2884686 L7.14923,4.5342875 L7.14923,4.5342875 L7.14923,4.5342875 Z M5.6407388,5.8538474 C5.0778487,6.0613975 4.2518042,6.1473723 4.2518042,6.1473723 C4.8083267,6.1473723 5.4131917,6.0820939 5.8381371,6.0248208 C5.274922,6.2377727 4.4269155,6.3253095 4.4269155,6.3253095 C5.0536775,6.3253095 5.7417771,6.2425889 6.1648382,6.1817362 C5.5444439,6.420526 4.4990393,6.5176301 4.4990393,6.5176301 C6.0374196,6.4758467 6.9479332,6.2463637 6.9479332,6.2463637 L7.6541613,2.1394896 L6.9393563,3.0958208 C6.6256505,2.5842025 6.0163672,2.1713153 5.2345067,1.9411163 L5.4506181,1.4151797 L4.3448504,1.9124798 L4.3448504,1.6406276 L3.8343962,0.7603787 L3.3233571,1.6406276 L3.3233571,1.9124798 L2.2181742,1.4151797 L2.4336358,1.9411163 C1.6524251,2.1713153 1.0431417,2.5842025 0.7287861,3.0958208 L0.0139813,2.1394896 L0.7211839,6.2463637 C0.7211839,6.2463637 1.6318275,6.4758467 3.169818,6.5176301 C3.169818,6.5176301 2.1244783,6.420526 1.5040191,6.1817362 C1.927405,6.2425889 2.614595,6.3253095 3.2412919,6.3253095 C3.2412919,6.3253095 2.3939352,6.2377727 1.8307202,6.0248208 C2.2553407,6.0820939 2.8605954,6.1473723 3.417053,6.1473723 C3.417053,6.1473723 2.5903588,6.0614626 2.0274686,5.8538474 C2.5305806,5.7468509 3.1497403,5.6596395 3.8343962,5.6596395 C4.5194418,5.6596395 5.1382117,5.7469159 5.6407388,5.8538474 L5.6407388,5.8538474 L5.6407388,5.8538474 Z"></path>
                    </g>
                </g>
            </g>
            <polygon id="polygon320" fill="#000000" points="12.6263419 17.9879072 12.5268631 17.9809433 12.4817045 18.0474582 12.5468757 18.1140383 12.8164626 18.5740457 12.2671525 19.5234129 11.8327206 19.5234129 11.8854165 19.6265696 12.3243967 19.6265696 12.8748764 18.6772024 13.4250962 19.6265696 13.8636866 19.6265696 13.9170972 19.5234129 13.4822754 19.5234129 12.9330952 18.5740457 13.2022273 18.1140383 13.2673986 18.0474582 13.2226298 17.9809433 13.1225013 17.9879072 13.1065821 18.0716692 12.8748764 18.4744034 12.6425859 18.0716692"></polygon>
            <polygon id="polygon350" fill="#000000" points="9.4895432 21.9689773 9.6530182 21.9765896 9.5805432 21.7643544"></polygon>
            <polygon id="polygon352" fill="#000000" points="9.7314502 22.0030391 9.8682102 22.0934766 9.9142952 21.8738241"></polygon>
            <polygon id="polygon354" fill="#000000" points="9.9218309 22.1555637 9.9940459 22.3036469 10.1456909 22.1387124"></polygon>
            <polygon id="polygon356" fill="#000000" points="9.9940196 22.5486852 10.2089747 22.4847934 10.0083196 22.3851821"></polygon>
            <polygon id="polygon358" fill="#000000" points="9.8843395 22.7442029 10.1037795 22.7890964 9.9737145 22.606725"></polygon>
            <polygon id="polygon360" fill="#000000" points="9.6542582 22.876344 9.8122082 23.0351626 9.8046032 22.8110859"></polygon>
            <polygon id="polygon362" fill="#000000" points="16.0964692 21.9765895 16.2599442 21.9686518 16.1689442 21.7640289"></polygon>
            <polygon id="polygon364" fill="#000000" points="15.8810243 22.0934765 16.0183694 22.0027787 15.8349393 21.8734987"></polygon>
            <polygon id="polygon366" fill="#000000" points="15.7561785 22.3032564 15.8273534 22.1555636 15.6038184 22.138452"></polygon>
            <polygon id="polygon368" fill="#000000" points="15.5405965 22.4847934 15.7555514 22.5486852 15.7418365 22.3851821"></polygon>
            <polygon id="polygon370" fill="#000000" points="15.646118 22.7893566 15.865493 22.7445283 15.775533 22.606725"></polygon>
            <polygon id="polygon372" fill="#000000" points="15.9366274 23.0351625 16.0949673 22.8760837 15.9452073 22.8108256"></polygon>
            <path d="M12.7258207,19.9754802 C12.7258207,19.8932803 12.7922265,19.825789 12.8748764,19.825789 C12.9569416,19.825789 13.0239322,19.8932803 13.0239322,19.9754802 C13.0239322,20.0576151 12.9569416,20.1244554 12.8748764,20.1244554 C12.7922915,20.1244554 12.7258207,20.0576151 12.7258207,19.9754802 M13.0494029,19.9754802 C13.0494029,19.8787016 12.9712363,19.800667 12.8748764,19.800667 C12.7785164,19.800667 12.7003499,19.8786366 12.7003499,19.9754802 C12.7003499,20.0718683 12.7785164,20.149968 12.8748764,20.149968 C12.9712363,20.149968 13.0494029,20.0719333 13.0494029,19.9754802" id="path376" fill="#000000"></path>
            <path d="M13.6799984,20.4122529 C13.5979983,20.4122529 13.5309427,20.3450872 13.5309427,20.2629523 C13.5309427,20.1801666 13.5979983,20.1130008 13.6799984,20.1130008 C13.7625834,20.1130008 13.829704,20.1801015 13.829704,20.2629523 C13.829639,20.3450872 13.7625834,20.4122529 13.6799984,20.4122529 M13.818528,20.1566065 C13.7867546,20.1148882 13.7365279,20.0874882 13.6799335,20.0874882 C13.5836385,20.0874882 13.505407,20.166434 13.505407,20.2628872 C13.505407,20.3443712 13.5620014,20.4134244 13.6382836,20.4322985 C13.6649889,20.4503916 13.6966974,20.46087 13.7313947,20.46087 C13.8222966,20.46087 13.8960449,20.3873261 13.8960449,20.2960145 C13.8961098,20.2375048 13.8649212,20.185959 13.818528,20.1566065" id="path378" fill="#000000"></path>
            <path d="M11.9932122,20.4122529 C11.9106272,20.4122529 11.8435067,20.3450872 11.8435067,20.2629523 C11.8435067,20.1801666 11.9105623,20.1130008 11.9932122,20.1130008 C12.0752124,20.1130008 12.142268,20.1801015 12.142268,20.2629523 C12.142268,20.3450872 12.0751474,20.4122529 11.9932122,20.4122529 M12.131157,20.1566065 C12.0993836,20.1148882 12.0491569,20.0874882 11.9932122,20.0874882 C11.8969173,20.0874882 11.818101,20.166434 11.818101,20.2628872 C11.818101,20.3443712 11.8746954,20.4134244 11.9509776,20.4322985 C11.9776829,20.4503916 12.0094563,20.46087 12.0441537,20.46087 C12.1353155,20.46087 12.2087388,20.3873261 12.2087388,20.2960145 C12.2086738,20.2375048 12.1775502,20.185959 12.131157,20.1566065" id="path380" fill="#000000"></path>
            <path d="M13.0067784,19.9754802 C13.0067784,19.9022617 12.9476499,19.8430361 12.8748764,19.8430361 C12.801778,19.8430361 12.7426495,19.9022617 12.7426495,19.9754802 C12.7426495,20.0483733 12.801778,20.1075338 12.8748764,20.1075338 C12.9476499,20.1075338 13.0067784,20.0483733 13.0067784,19.9754802" id="path382" fill="#000000"></path>
            <path d="M13.6803234,20.1301827 C13.607225,20.1301827 13.5480965,20.1894084 13.5480965,20.2626269 C13.5480965,20.3355199 13.607225,20.3947455 13.6803234,20.3947455 C13.7530968,20.3947455 13.8122253,20.3355199 13.8122253,20.2626269 C13.8122253,20.1894084 13.7530968,20.1301827 13.6803234,20.1301827" id="path384" fill="#000000"></path>
            <path d="M11.9928873,20.1301827 C11.9201138,20.1301827 11.8609853,20.1894084 11.8609853,20.2626269 C11.8609853,20.3355199 11.9201138,20.3947455 11.9928873,20.3947455 C12.0659858,20.3947455 12.1251142,20.3355199 12.1251142,20.2626269 C12.1251142,20.1894084 12.0659858,20.1301827 11.9928873,20.1301827" id="path386" fill="#000000"></path>
        </g>
    </g>
</svg>