<?xml version="1.0" encoding="UTF-8"?>
<svg width="30px" height="30px" viewBox="0 0 30 30" version="1.1" xmlns="http://www.w3.org/2000/svg" xmlns:xlink="http://www.w3.org/1999/xlink">
    <!-- Generator: Sketch 50.2 (55047) - http://www.bohemiancoding.com/sketch -->
    <title>Artboard</title>
    <desc>Created with Sketch.</desc>
    <defs></defs>
    <g id="Artboard" stroke="none" stroke-width="1" fill="none" fill-rule="evenodd">
        <g id="kraken" transform="translate(2.000000, 0.000000)" fill-rule="nonzero">
            <path d="M0,24.2307692 C5.81204819,24.75 9.51325301,26.3653846 11.3060241,29.7692308 C17.4361446,28.7884615 23.1325301,24.8365385 23.1325301,19.7884615 C23.1325301,13.0384615 14.9204819,11.9711538 14.7180723,10.0096154 C18.1590361,11.25 21.9759036,9.95192308 23.7686747,5.65384615 C18.4192771,5.25 14.486747,3.31730769 12.7807229,0.0288461538 C6.21686747,1.15384615 0.98313253,5.39423077 0.98313253,9.98076923 C0.98313253,16.6730769 9.6,18.4326923 10.5542169,19.875 C5.84096386,18.0865385 1.79277108,20.1346154 0,24.2307692 Z" id="Shape" fill="#091929"></path>
            <path d="M10.2072289,9.63461538 C9.48433735,8.88461538 9.16626506,8.30769231 9.16626506,7.52884615 C9.16626506,6.66346154 9.6,6.23076923 9.6,5.71153846 C9.6,5.27884615 9.25301205,4.90384615 8.81927711,4.84615385 C9.10843373,4.52884615 9.48433735,4.35576923 9.91807229,4.32692308 C12.1156627,4.32692308 12.7518072,9.17307692 17.3493976,9 C18.9975904,8.85576923 20.5301205,8.01923077 21.4843373,6.66346154 C17.4939759,6.14423077 13.8506024,4.44230769 12.0578313,1.58653846 C10.1783133,1.93269231 2.42891566,4.58653846 2.6313253,10.1826923 C2.83373494,16.0096154 11.4506024,17.625 13.8795181,20.1057692 C15.7879518,22.0673077 14.4578313,24.0576923 13.2144578,24.7788462 C11.3060241,19.9038462 5.08915663,19.5288462 2.60240964,23.0769231 C6.59277108,23.5961538 10.2361446,25.2980769 12.0289157,28.1826923 C16.4240964,27.2596154 18.5638554,23.3942308 17.7542169,20.625 C16.4240964,16.0096154 7.72048193,15.2019231 5.40722892,10.9038462 C4.16385542,8.48076923 5.17590361,5.88461538 7.4313253,4.38461538 C6.59277108,5.42307692 6.15903614,6.72115385 6.15903614,8.04807692 C6.30361446,8.27884615 6.41927711,8.50961538 6.44819277,8.79807692 C6.5060241,9.05769231 6.5060241,9.31730769 6.44819277,9.57692308 C6.53493976,9.83653846 6.67951807,10.0961538 6.82409639,10.3269231 C7.08433735,10.4423077 7.28674699,10.5865385 7.46024096,10.8173077 C7.6626506,11.0192308 7.77831325,11.2788462 7.83614458,11.5384615 C8.03855422,11.7115385 8.26987952,11.8846154 8.50120482,12.0576923 C8.79036145,12.0576923 9.05060241,12.1442308 9.28192771,12.3173077 C9.54216867,12.4615385 9.74457831,12.6634615 9.86024096,12.9519231 C10.0915663,13.0961538 10.3518072,13.2403846 10.6120482,13.3557692 C10.9012048,13.3269231 11.1903614,13.3846154 11.4506024,13.5288462 C11.7108434,13.6442308 11.9421687,13.8461538 12.086747,14.1057692 L12.8674699,14.4807692 C13.1566265,14.4519231 13.4457831,14.5096154 13.7060241,14.6538462 C13.9662651,14.7692308 14.1975904,14.9711538 14.3421687,15.2307692 C14.6024096,15.375 14.8626506,15.5192308 15.1228916,15.6346154 C15.4120482,15.6346154 15.7012048,15.6923077 15.9325301,15.8653846 C16.1927711,16.0096154 16.3951807,16.2115385 16.5108434,16.4711538 C16.7710843,16.6442308 17.0313253,16.8173077 17.2626506,16.9903846 C17.5518072,17.0192308 17.8120482,17.1057692 18.0144578,17.3076923 C18.2457831,17.4807692 18.4192771,17.7403846 18.4771084,18.0576923 C18.6795181,18.2884615 18.8819277,18.5192308 19.0554217,18.75 C19.6048193,19.0384615 19.8939759,19.6442308 19.7783133,20.25 C20.1831325,21.4903846 20.1253012,22.8461538 19.6626506,24.0576923 C19.6626506,24.0576923 19.6626506,24.0865385 19.6337349,24.1153846 C20.7325301,22.9038462 21.4843373,21.4326923 21.426506,19.6153846 C21.253012,13.7596154 12.6072289,12.1442308 10.2072289,9.63461538 Z" id="Shape" fill="#98D6D7"></path>
            <path d="M13.5036145,10.2692308 C12.5204819,9.14423077 11.8843373,7.125 10.7855422,6.34615385 C10.3228916,8.07692308 11.3349398,9.95192308 13.5036145,10.2692308 Z" id="Shape" fill="#C8202F"></path>
            <path d="M12.7228916,26.5096154 C12.5204819,27.0865385 12.2891566,27.6634615 12.0289157,28.1826923 C10.2650602,25.2980769 6.59277108,23.5961538 2.60240964,23.0769231 C6.7373494,21.0288462 11.0168675,23.1923077 12.7228916,26.5096154 Z M21.4554217,6.69230769 C17.3204819,8.76923077 13.0409639,6.57692308 11.3349398,3.28846154 C11.5373494,2.71153846 11.7686747,2.13461538 12.0289157,1.61538462 C10.2939759,1.93269231 2.42891566,4.58653846 2.6313253,10.2115385 C2.83373494,16.0096154 11.4506024,17.625 13.8795181,20.1346154 C15.7879518,22.0961538 14.4578313,24.0865385 13.2144578,24.8076923 C13.0987952,25.3846154 12.9253012,25.9326923 12.7518072,26.5096154 C13.6481928,26.3653846 16.3662651,24.9230769 16.3951807,22.1538462 C16.4240964,18.3461538 11.4795181,17.3365385 7.72048193,15 C4.62650602,13.0673077 4.01927711,11.1923077 3.8746988,9.98076923 C3.49879518,7.18269231 5.4939759,4.58653846 8.38554217,3.375 C8.03855422,3.66346154 7.72048193,3.98076923 7.46024096,4.35576923 C6.62168675,5.39423077 6.18795181,6.69230769 6.18795181,8.04807692 C6.33253012,8.27884615 6.44819277,8.50961538 6.47710843,8.79807692 C6.53493976,9.05769231 6.53493976,9.31730769 6.47710843,9.57692308 C6.56385542,9.83653846 6.70843373,10.0961538 6.85301205,10.3269231 C7.11325301,10.4423077 7.31566265,10.5865385 7.48915663,10.8173077 C7.69156627,11.0192308 7.80722892,11.2788462 7.86506024,11.5384615 C8.06746988,11.7115385 8.29879518,11.8846154 8.53012048,12.0576923 C8.81927711,12.0576923 9.07951807,12.1442308 9.31084337,12.3173077 C9.57108434,12.4615385 9.77349398,12.6634615 9.88915663,12.9519231 C10.1204819,13.0961538 10.3807229,13.2403846 10.6409639,13.3557692 C10.9301205,13.3269231 11.2192771,13.3846154 11.4795181,13.5288462 C11.739759,13.6442308 11.9710843,13.8461538 12.1156627,14.1057692 L12.8963855,14.4807692 C13.1855422,14.4519231 13.4746988,14.5096154 13.7349398,14.6538462 C13.9951807,14.7692308 14.226506,14.9711538 14.3710843,15.2307692 C14.6313253,15.375 14.8915663,15.5192308 15.1518072,15.6346154 C15.4409639,15.6346154 15.7301205,15.6923077 15.9614458,15.8653846 C16.2216867,16.0096154 16.4240964,16.2115385 16.539759,16.4711538 C16.8,16.6442308 17.060241,16.8173077 17.2915663,16.9903846 C17.5807229,17.0192308 17.8409639,17.1057692 18.0433735,17.3076923 C18.2746988,17.4807692 18.4481928,17.7403846 18.5060241,18.0576923 C18.7084337,18.2884615 18.9108434,18.5192308 19.0843373,18.75 C19.6337349,19.0384615 19.9228916,19.6442308 19.8072289,20.25 C20.2120482,21.4903846 20.1542169,22.8461538 19.6915663,24.0576923 C21.1084337,21.6634615 20.9638554,19.2692308 19.4024096,17.25 C16.0192771,12.9807692 7.6626506,12.4903846 7.69156627,7.64423077 C7.69156627,6.60576923 8.09638554,5.625 8.79036145,4.875 C9.07951807,4.55769231 9.45542169,4.38461538 9.88915663,4.35576923 C12.086747,4.35576923 12.7228916,9.20192308 17.3204819,9.02884615 C18.9686747,8.88461538 20.5012048,8.04807692 21.4554217,6.69230769 Z" id="Shape" fill="#649FB6"></path>
        </g>
    </g>
</svg>