<?xml version="1.0" encoding="UTF-8"?>
<svg width="30px" height="30px" viewBox="0 0 30 30" version="1.1" xmlns="http://www.w3.org/2000/svg" xmlns:xlink="http://www.w3.org/1999/xlink">
    <!-- Generator: Sketch 50.2 (55047) - http://www.bohemiancoding.com/sketch -->
    <title>lightning</title>
    <desc>Created with Sketch.</desc>
    <defs></defs>
    <g id="lightning" stroke="none" stroke-width="1" fill="none" fill-rule="evenodd">
        <path d="M29.9415544,13.721348 C29.9415544,10.6847418 28.0541191,7.69158115 24.7036788,5.8524879 L23.4202073,6.8709335 C25.7096114,8.3112444 27.0571243,10.4643273 27.0571243,12.9079283 C27.0571243,18.61026 20.0099223,23.7756226 12.1677202,23.7756226 C11.3630829,23.7756226 10.5732124,23.7163998 9.8112435,23.6033169 L7.1645596,25.5620216 C8.83554405,26.1272807 10.6999741,26.427203 12.6489638,26.427203 C21.9584456,26.427203 29.9415544,20.1422807 29.9415544,13.721348" id="path244" fill="#003E7E"></path>
        <path d="M18.1008031,15.8414776 L13.3112953,16.7785501 L23.9346373,8.04886095 L18.9888342,8.7117366 L28.6018135,1.087462 L17.4110362,4.03228066 C17.2635233,4.02924957 17.1147668,4.02684024 16.9660104,4.02684024 C7.79471505,4.02684024 0,10.2593791 0,16.8353636 C0,20.062462 1.73774611,22.6287833 4.43137305,24.291918 L0.295958549,29.0224361 L18.1008031,15.8414776 L18.1008031,15.8414776 L18.1008031,15.8414776 Z M1.27865285,15.8632392 C1.27865285,9.96652935 8.65779795,4.99562262 16.1681347,4.99562262 C16.2201295,4.99562262 16.2708809,4.99686615 16.3228757,4.99741019 L9.061943,13.120804 L13.2369948,12.46026 L5.0107772,20.4155449 L8.3469948,19.8133688 L6.01678755,22.4794828 C3.18443005,21.1384982 1.27865285,18.8255449 1.27865285,15.8632392 L1.27865285,15.8632392 L1.27865285,15.8632392 Z" id="path246" fill="#003E7E"></path>
    </g>
</svg>