<?xml version="1.0" encoding="UTF-8"?>
<svg width="30px" height="30px" viewBox="0 0 30 30" version="1.1" xmlns="http://www.w3.org/2000/svg" xmlns:xlink="http://www.w3.org/1999/xlink">
    <!-- Generator: Sketch 50.2 (55047) - http://www.bohemiancoding.com/sketch -->
    <title>lightning</title>
    <desc>Created with Sketch.</desc>
    <defs></defs>
    <g id="lightning" stroke="none" stroke-width="1" fill="none" fill-rule="evenodd">
        <g transform="translate(0.000000, 1.000000)" fill="#003E7E" id="Page-1">
            <g>
                <g id="Artboard-Copy">
                    <g id="lightning">
                        <g id="Page-1">
                            <g id="Artboard">
                                <g id="lightning" transform="translate(0.000000, 0.010363)">
                                    <g id="g236" transform="translate(0.000000, 0.077099)">
                                        <g id="path244-Clipped" transform="translate(7.000000, 4.000000)">
                                            <g id="path244">
                                                <path d="M22.9415544,8.633886 C22.9415544,5.5972798 21.0541191,2.60411915 17.7036788,0.7650259 L16.4202073,1.7834715 C18.7096114,3.2237824 20.0571243,5.3768653 20.0571243,7.8204663 C20.0571243,13.522798 13.0099223,18.6881606 5.1677202,18.6881606 C4.3630829,18.6881606 3.5732124,18.6289378 2.8112435,18.5158549 L0.1645596,20.4745596 C1.83554405,21.0398187 3.6999741,21.339741 5.6489638,21.339741 C14.9584456,21.339741 22.9415544,15.0548187 22.9415544,8.633886"></path>
                                            </g>
                                        </g>
                                        <g id="path246-Clipped" transform="translate(0.000000, -0.000000)">
                                            <g id="path246">
                                                <path d="M18.1008031,14.7540156 L13.3112953,15.6910881 L23.9346373,6.96139895 L18.9888342,7.6242746 L28.6018135,0 L17.4110362,2.94481866 C17.2635233,2.94178757 17.1147668,2.93937824 16.9660104,2.93937824 C7.79471505,2.93937824 0,9.1719171 0,15.7479016 C0,18.975 1.73774611,21.5413213 4.43137305,23.204456 L0.295958549,27.9349741 L18.1008031,14.7540156 L18.1008031,14.7540156 L18.1008031,14.7540156 Z M1.27865285,14.7757772 C1.27865285,8.87906735 8.65779795,3.90816062 16.1681347,3.90816062 C16.2201295,3.90816062 16.2708809,3.90940415 16.3228757,3.90994819 L9.061943,12.033342 L13.2369948,11.372798 L5.0107772,19.3280829 L8.3469948,18.7259068 L6.01678755,21.3920208 C3.18443005,20.0510362 1.27865285,17.7380829 1.27865285,14.7757772 L1.27865285,14.7757772 L1.27865285,14.7757772 Z"></path>
                                            </g>
                                        </g>
                                    </g>
                                </g>
                            </g>
                        </g>
                    </g>
                </g>
            </g>
        </g>
    </g>
</svg>