<?xml version="1.0" encoding="UTF-8" standalone="no"?>
<svg width="30px" height="30px" viewBox="0 0 30 30" version="1.1" xmlns="http://www.w3.org/2000/svg" xmlns:xlink="http://www.w3.org/1999/xlink">
    <!-- Generator: Sketch 41 (35326) - http://www.bohemiancoding.com/sketch -->
    <title>lightning</title>
    <desc>Created with Sketch.</desc>
    <defs>
        <rect id="path-1" x="0" y="0.00062176169" width="29.9415536" height="27.9349733"></rect>
        <rect id="path-3" x="0" y="0.00062176169" width="29.9415536" height="27.9349733"></rect>
    </defs>
    <g id="Page-1" stroke="none" stroke-width="1" fill="none" fill-rule="evenodd">
        <g id="lightning">
            <g transform="translate(0.000000, 1.000000)" id="Page-1">
                <g>
                    <g id="Artboard-Copy">
                        <g id="lightning">
                            <g id="Page-1">
                                <g id="Artboard">
                                    <g id="lightning" transform="translate(0.000000, 0.010363)">
                                        <g id="g236" transform="translate(0.000000, 0.077099)">
                                            <g id="path244-Clipped" transform="translate(0.000000, -0.000000)">
                                                <g transform="translate(0.000000, -0.000000)">
                                                    <mask id="mask-2" fill="white">
                                                        <use xlink:href="#path-1"></use>
                                                    </mask>
                                                    <g id="path-1"></g>
                                                    <path d="M29.9415544,12.633886 C29.9415544,9.5972798 28.0541191,6.60411915 24.7036788,4.7650259 L23.4202073,5.7834715 C25.7096114,7.2237824 27.0571243,9.3768653 27.0571243,11.8204663 C27.0571243,17.522798 20.0099223,22.6881606 12.1677202,22.6881606 C11.3630829,22.6881606 10.5732124,22.6289378 9.8112435,22.5158549 L7.1645596,24.4745596 C8.83554405,25.0398187 10.6999741,25.339741 12.6489638,25.339741 C21.9584456,25.339741 29.9415544,19.0548187 29.9415544,12.633886" id="path244" fill="#003E7E" mask="url(#mask-2)"></path>
                                                </g>
                                            </g>
                                            <g id="path246-Clipped" transform="translate(0.000000, -0.000000)">
                                                <g>
                                                    <mask id="mask-4" fill="white">
                                                        <use xlink:href="#path-3"></use>
                                                    </mask>
                                                    <g id="path-3"></g>
                                                    <path d="M18.1008031,14.7540156 L13.3112953,15.6910881 L23.9346373,6.96139895 L18.9888342,7.6242746 L28.6018135,0 L17.4110362,2.94481866 C17.2635233,2.94178757 17.1147668,2.93937824 16.9660104,2.93937824 C7.79471505,2.93937824 0,9.1719171 0,15.7479016 C0,18.975 1.73774611,21.5413213 4.43137305,23.204456 L0.295958549,27.9349741 L18.1008031,14.7540156 L18.1008031,14.7540156 L18.1008031,14.7540156 Z M1.27865285,14.7757772 C1.27865285,8.87906735 8.65779795,3.90816062 16.1681347,3.90816062 C16.2201295,3.90816062 16.2708809,3.90940415 16.3228757,3.90994819 L9.061943,12.033342 L13.2369948,11.372798 L5.0107772,19.3280829 L8.3469948,18.7259068 L6.01678755,21.3920208 C3.18443005,20.0510362 1.27865285,17.7380829 1.27865285,14.7757772 L1.27865285,14.7757772 L1.27865285,14.7757772 Z" id="path246" fill="#003E7E" mask="url(#mask-4)"></path>
                                                </g>
                                            </g>
                                        </g>
                                    </g>
                                </g>
                            </g>
                        </g>
                    </g>
                </g>
            </g>
        </g>
    </g>
</svg>