<?xml version="1.0" encoding="UTF-8"?>
<svg width="30px" height="30px" viewBox="0 0 30 30" version="1.1" xmlns="http://www.w3.org/2000/svg" xmlns:xlink="http://www.w3.org/1999/xlink">
    <!-- Generator: Sketch 50.2 (55047) - http://www.bohemiancoding.com/sketch -->
    <title>mapleleafs</title>
    <desc>Created with Sketch.</desc>
    <defs></defs>
    <g id="mapleleafs" stroke="none" stroke-width="1" fill="none" fill-rule="evenodd">
        <path d="M15.3941834,29.954975 C14.3320497,28.9684569 14.1931283,27.4790079 14.1737848,27.0868625 C14.1720263,27.0411415 14.1227883,27.0130055 14.0823428,27.032349 C13.6532689,27.2398519 11.7224366,28.1331696 9.3185679,28.5587265 C9.27108845,28.567519 9.23240145,28.5235565 9.24646945,28.4778355 C9.3220849,28.2263701 9.54893135,27.5423138 9.9146992,27.0165225 C9.9463522,26.9708015 9.9059067,26.9074955 9.85139325,26.9180465 C9.4082514,26.997179 8.1298223,27.222267 7.2505726,27.3101919 C7.2030931,27.3154674 7.16616465,27.2662294 7.18550815,27.222267 C7.2875011,26.9813525 7.5495175,26.3570852 7.68316345,26.0651743 C7.70602395,26.0159363 7.66030295,25.9631814 7.6093065,25.9772493 C7.2470556,26.0739668 6.17085396,26.3377417 4.63568398,26.5223841 C4.58117049,26.5294182 4.54424201,26.4696292 4.5741365,26.4239082 C4.8537379,26.0071439 5.88773556,24.5423138 7.35784105,23.4274252 C7.39828655,23.3975307 7.38773555,23.3342247 7.3420146,23.3166397 C7.04834515,23.2093712 6.20778246,22.8629469 5.1702678,22.1050337 C5.13158081,22.0768977 5.13685631,22.0188672 5.1773018,21.9977652 C5.51141668,21.8183982 6.74412475,21.1747874 7.96979885,20.782642 C8.03134635,20.7632986 8.02782935,20.6736151 7.96452335,20.6595471 C7.512589,20.5628296 6.53310485,20.3254323 5.83849757,19.9825248 C5.80156909,19.9631814 5.7910181,19.9139433 5.81915409,19.8822904 C5.95455854,19.7293009 6.31856791,19.3318801 6.6298223,19.1067921 C6.6702678,19.0768977 6.6632338,19.0135917 6.6157543,18.9960067 C6.27460543,18.8641192 5.23709077,18.4209773 4.24002161,17.5610711 C4.21188562,17.5382106 4.21012712,17.4960067 4.23474611,17.4696292 C4.36135807,17.3307077 4.74822794,16.9227359 5.15092431,16.6325835 C5.18785279,16.6062059 5.1860943,16.5516925 5.14916581,16.5270735 C4.84318691,16.3301215 3.70895478,15.5704498 2.54306967,14.4450102 C2.51669218,14.4186327 2.51669218,14.3764287 2.54482817,14.3518097 C2.64682114,14.2621263 2.88949406,14.0546233 3.20602395,13.8523959 C3.24119394,13.8295354 3.24646944,13.7802974 3.21657495,13.7521614 C2.98972853,13.535866 2.1649923,12.7146468 1.59172149,11.7562646 C1.5706195,11.7210946 1.58820449,11.6771321 1.62513298,11.6630641 C1.78163943,11.6067922 2.18961129,11.4749047 2.7769501,11.3623607 C2.81915409,11.3535682 2.84201458,11.3078473 2.82267108,11.2709188 C2.70661012,11.0458308 2.36546123,10.321329 2.1474073,9.15544395 C2.13861481,9.10796445 2.18433579,9.067519 2.23005678,9.08334545 C2.55713767,9.19061395 3.59992782,9.5458308 4.36839207,9.9151157 C4.40356206,9.9327007 4.44752454,9.9133572 4.45807553,9.8746702 C4.52665702,9.6214463 4.75877893,8.79143455 4.92407788,8.53469365 C4.94342138,8.50304065 4.98738386,8.49600665 5.01551985,8.51886715 C5.25995127,8.7035096 6.33087741,9.5300043 6.88304625,10.2087851 C6.9094237,10.2404381 6.9586617,10.2404381 6.9832807,10.2070266 C7.09054915,10.0628296 7.34904855,9.72871475 7.544242,9.5968273 C7.572378,9.5774838 7.6093065,9.5827593 7.6304085,9.6091368 C7.8871494,9.9344592 9.53662185,11.983111 11.1280638,13.0681051 C11.1790603,13.1015166 11.2441247,13.0540371 11.2247813,12.9960067 C11.0823428,12.5458308 10.646235,11.2709188 9.9164577,9.9274252 C9.8953557,9.8869797 9.9199747,9.8377417 9.9656957,9.8324662 C10.1222021,9.81488125 10.4387321,9.78146975 10.6532689,9.77443575 C10.7042654,9.77267725 10.7324014,9.71464675 10.702507,9.6742013 C10.4932455,9.38053185 9.87952925,8.4256667 9.3203264,6.6478238 C9.3062584,6.6038613 9.3414284,6.5598988 9.3871494,6.5651743 C9.6649923,6.5915518 10.4844531,6.68475225 11.0067274,6.8711532 C11.0506898,6.8869797 11.0964108,6.8518097 11.0928938,6.80433025 C11.0524484,6.40163385 10.9293534,4.91042636 11.1948868,4.04876165 C11.2054378,4.01183317 11.2476417,3.99424817 11.2828118,4.01007467 C11.4797637,4.10151663 12.072378,4.38287654 12.3941834,4.58334547 C12.4363874,4.60972296 12.4926594,4.57982847 12.4926594,4.52883199 C12.4926594,4.11734313 12.5067274,2.74923058 12.7089548,2.0933103 C12.7195058,2.05814032 12.7581927,2.03879682 12.7933627,2.05286481 C12.9445937,2.11265379 13.3367391,2.27619424 13.6233745,2.47490467 C13.6567859,2.49776517 13.702507,2.48369717 13.7183334,2.44676868 C13.8554964,2.10913679 14.4322842,0.72168076 14.9510415,0.042899986 C14.977419,0.00772999765 15.030174,0.00948849705 15.054793,0.0464169847 C15.2394355,0.326018391 15.8988727,1.36705005 16.2804671,2.44852719 C16.2945351,2.48721417 16.3384976,2.50304066 16.3736676,2.48193867 C16.5284155,2.3869797 16.9223194,2.15837478 17.2247813,2.05286481 C17.2599513,2.04055532 17.3003968,2.06165732 17.3074307,2.0985858 C17.3637027,2.34125872 17.5430697,3.23105943 17.5061412,4.53410749 C17.5043827,4.58510397 17.5588962,4.61675696 17.6028586,4.59037947 C17.8173956,4.46376751 18.3361529,4.16658111 18.7423663,4.02414266 C18.7792947,4.01183317 18.8197403,4.03469366 18.8267743,4.07338064 C18.8848047,4.39870304 19.1011001,5.7545061 18.9041482,6.80433025 C18.8953557,6.8518097 18.9393182,6.8922552 18.9850392,6.8781872 C19.2435386,6.79905475 19.9486968,6.6003443 20.6169267,6.5704498 C20.6608892,6.5686913 20.6925421,6.6091368 20.6819911,6.6513408 C20.5887907,6.99952365 20.1808188,8.3869797 19.2892596,9.69530325 C19.2699161,9.72519775 19.2875011,9.76564325 19.3226711,9.76916025 C19.4826945,9.78850375 19.8449454,9.8342247 20.0278293,9.8606022 C20.0700334,9.8676362 20.0946523,9.9133572 20.0753089,9.9520442 C19.8695644,10.36705 18.9094237,12.3295354 18.7423663,13.0663467 C18.7353323,13.0997581 18.7705023,13.1243771 18.7986383,13.1067922 C19.1608892,12.8693947 20.7892596,11.7369211 22.3613581,9.6267218 C22.3824601,9.5985858 22.4229056,9.5915518 22.4510416,9.6144123 C22.5600685,9.69706175 22.8168094,9.9098402 23.0067274,10.2087851 C23.0295879,10.2439551 23.0788258,10.2474721 23.1069618,10.2175776 C23.3302913,9.97666315 24.167337,9.09389645 24.9885562,8.52590115 C25.0202092,8.50479915 25.0624131,8.51535015 25.0799981,8.54700315 C25.1714402,8.7123021 25.4176301,9.20116495 25.5319325,9.8781872 C25.5389665,9.9203912 25.5846875,9.9432517 25.6233745,9.9256667 C25.8783569,9.80257175 26.7329876,9.40339235 27.7880872,9.10268895 C27.8338082,9.09037945 27.8760123,9.12906645 27.8689782,9.17478745 C27.8179817,9.47373235 27.6333393,10.3969445 27.2007485,11.2779527 C27.1831635,11.3148812 27.2042654,11.3606022 27.2464695,11.3693947 C27.4311119,11.4063232 27.8988727,11.5047992 28.3613581,11.6630641 C28.3982865,11.6753736 28.4158716,11.7175776 28.3982865,11.7527476 C28.2699161,12.0024545 27.7564342,12.9186327 26.7751916,13.7416104 C26.7417801,13.7697464 26.7452971,13.8207429 26.7822256,13.8436034 C26.9334566,13.9385624 27.2728469,14.1601333 27.4416629,14.3500512 C27.4645233,14.3746702 27.4627649,14.4133572 27.4399044,14.4379762 C27.2148164,14.6648226 26.0841013,15.7814697 24.8689782,16.546417 C24.8320498,16.5692775 24.8285327,16.6237909 24.8637027,16.6519269 C25.0325187,16.7802974 25.4545585,17.1161708 25.7464695,17.4731462 C25.7675715,17.4995236 25.7658129,17.5364522 25.741194,17.5593127 C25.537208,17.7509891 24.6157543,18.5722083 23.4111822,19.0118331 C23.3654613,19.0294182 23.3549103,19.0892071 23.3918387,19.1208602 C23.5712057,19.2703326 23.9826945,19.6220325 24.177888,19.8858073 C24.2007485,19.9174604 24.1901975,19.9614229 24.156786,19.9807663 C23.9334566,20.0985858 23.1280638,20.4889726 21.9234917,20.6876831 C21.9006312,20.6912001 21.8971142,20.7246116 21.9199747,20.7316456 C22.2523311,20.8406725 23.4516277,21.2574369 24.8338082,22.0100746 C24.8601858,22.0241427 24.8637027,22.0610711 24.8408422,22.0804147 C24.6315808,22.2509891 23.7593651,22.9315283 22.7007485,23.3289492 C22.6550275,23.3465342 22.6444765,23.4080817 22.6831635,23.4379762 C23.0436558,23.7281286 24.4170439,24.8869797 25.431698,26.4555612 C25.4545585,26.4907312 25.4264225,26.5346936 25.3842186,26.5311767 C24.9639372,26.4819386 23.3426008,26.2797113 22.385977,25.9790079 C22.3314636,25.9614229 22.2839841,26.0194534 22.3103616,26.0704498 C22.442249,26.3183982 22.706024,26.8441896 22.8185679,27.2468859 C22.8308774,27.2908484 22.7957074,27.3312939 22.7499864,27.3277769 C22.4018035,27.2926069 21.1198575,27.1519269 20.1474073,26.9110126 C20.0911353,26.8969445 20.0471729,26.958492 20.0770673,27.0059715 C20.2441247,27.2767804 20.6081341,27.9098402 20.7663991,28.5094885 C20.7787086,28.5552095 20.7365046,28.599172 20.6907836,28.5868625 C20.2159888,28.476077 18.188439,27.9942481 17.0295879,27.5458308 C15.7107133,27.035866 15.5876183,26.8776011 15.5172784,27.1677535 C15.4486968,27.4526303 15.6860943,28.2386796 16.4158716,29.0141779 C16.4404905,29.0405553 16.4387321,29.0810008 16.4123546,29.1056198 L15.4821084,29.9708015 C15.4557309,29.9778355 15.4188024,29.9778355 15.3941834,29.954975 L15.3941834,29.954975 L15.3941834,29.954975 Z" id="Blue_Leaf" fill="#003A80"></path>
        <path d="M14.8824601,12.8729117 C14.8807015,12.6021028 14.8666335,12.194131 14.8648751,11.923322 C14.8648751,11.8477066 14.8420146,11.8002271 14.7804671,11.7597816 C14.0436558,11.2832282 13.407079,10.694131 12.8672197,10.0030406 C12.6491658,9.72343925 12.4574893,9.42273585 12.2710884,9.11851545 C12.9656957,10.0979997 13.8150509,10.9033923 14.857841,11.5417277 L14.857841,11.3992892 C14.8631165,10.7046819 14.8701505,10.0083161 14.8701505,9.3137089 C14.8701505,9.2556784 14.8314636,9.17830445 14.7857426,9.14137595 C14.2652267,8.7210946 13.8326359,8.22519775 13.505555,7.64137595 C13.491487,7.61851545 13.480936,7.59213795 13.4791775,7.560485 C13.8695644,8.1073783 14.3109477,8.60151665 14.871909,9.000696 C14.8807015,8.965526 14.8877356,8.944424 14.889494,8.92156355 C14.9299395,8.0933103 14.9686265,7.2668156 15.009072,6.43856235 C15.0143475,6.3365694 14.9932455,6.2556784 14.928181,6.16423645 C14.5975832,5.7052681 14.2792947,5.23926575 13.9592478,4.77326341 C13.9293534,4.73105943 13.9117684,4.68182144 13.8994589,4.62906645 C14.2388493,5.1056198 14.5852736,5.57338065 14.9932455,5.9919035 C15.0073135,5.990145 15.0213815,5.986628 15.0354495,5.9848695 L15.0354495,2.97431851 L15.089963,2.97431851 C15.1901974,4.52707349 15.1901974,6.08334545 15.1743709,7.66599495 C15.7001623,7.41277105 16.1415456,7.07865615 16.5811705,6.72871475 C16.575895,6.74102425 16.572378,6.75509225 16.5635855,6.76388475 C16.1714402,7.1700981 15.7423663,7.528832 15.2535034,7.8154674 C15.2148164,7.8383279 15.1743709,7.89284135 15.1743709,7.93328685 C15.1638199,9.19940645 15.160303,10.465526 15.1550275,11.7298871 C15.1550275,11.7615401 15.1620614,11.7949516 15.1690954,11.8547405 C16.1784741,11.1319973 17.0612408,10.3160535 17.7312291,9.2802974 C17.7066101,9.3348109 17.6837497,9.38932435 17.6556137,9.44207935 C17.2740193,10.1296526 16.7728469,10.722267 16.2013346,11.2568508 C15.8918387,11.5470032 15.5577239,11.8090196 15.2376769,12.0886209 C15.2042654,12.1185155 15.1743709,12.1747875 15.1743709,12.2205084 C15.1726125,12.3910829 15.1814049,12.7005788 15.1937144,12.8711532 L14.8824601,12.8729117 L14.8824601,12.8729117 L14.8824601,12.8729117 Z M19.3490485,25.64841 C18.7423663,25.697648 18.1462349,25.634342 17.5553791,25.4743185 C17.0137613,25.3283631 16.470385,25.1824076 15.9199747,25.0804147 C15.4996933,25.0030407 15.079412,25.0628297 14.7030931,25.2914346 C14.5958246,25.3564991 14.5061412,25.451458 14.4041482,25.5376245 C14.3707367,25.518281 14.3355667,25.497179 14.2986382,25.476077 C13.6989899,25.1419621 13.0817567,24.9924897 12.4346289,25.3389141 C12.2341599,25.4461825 12.0424835,25.4919035 11.8103616,25.4672845 C11.1685093,25.4004616 10.540725,25.514764 9.9270087,25.697648 C9.85491025,25.71875 9.78457025,25.7433689 9.7142303,25.7679879 C9.6491658,25.7908484 9.58410135,25.8172259 9.51903685,25.8400864 C10.2875011,25.6994065 11.0454143,25.504213 11.8314636,25.637859 C11.8349806,25.6501685 11.8402561,25.662478 11.8437731,25.6747875 C11.4903147,25.8770149 11.1368563,26.0792423 10.7833979,26.2832283 C10.9715573,26.2375073 11.1579583,26.1794768 11.3338082,26.0985858 C11.7558481,25.9033924 12.1708539,25.690614 12.5946523,25.4954205 C12.8109477,25.3951861 13.0465866,25.3441896 13.2875011,25.3688086 C13.6339255,25.4039786 13.9469383,25.539383 14.2406078,25.71875 C14.2740192,25.7380934 14.2933627,25.8031579 14.2933627,25.8471204 C14.2951212,25.9385624 14.2828117,26.0300043 14.2757777,26.1214463 C14.3320497,26.0739668 14.3584272,26.0229704 14.3865632,25.9719739 C14.5254847,25.704682 14.7382631,25.521798 15.0284155,25.4356315 C15.3115339,25.3512236 15.6034448,25.3107781 15.8935972,25.3582576 C16.3156371,25.4285975 16.7324014,25.528832 17.1491658,25.6220325 C17.2458832,25.6431345 17.3531518,25.6607195 17.4270087,25.71875 C17.7945351,26.0001099 18.1972314,26.2093713 18.6350978,26.3570852 C18.6913698,26.3764287 18.7546757,26.3817042 18.8127062,26.3922552 C18.4627648,26.2076128 18.107548,26.0458308 17.7857426,25.7679879 C18.6931283,25.8594299 19.554793,25.8594299 20.4094237,25.532349 C20.0418973,25.574553 19.6954729,25.620274 19.3490485,25.64841 L19.3490485,25.64841 L19.3490485,25.64841 Z M6.9762467,13.9702154 C6.57706735,13.5991719 6.17788796,13.2281286 5.78398409,12.8518097 C5.7488141,12.8183982 5.72771211,12.7533337 5.72419511,12.7023372 C5.71012712,12.5036269 5.71891961,12.3013994 5.69254212,12.1044475 C5.66264763,11.8740841 5.60110015,11.6472376 5.4727297,11.4432517 C5.58175666,11.8336386 5.62571915,12.2275424 5.54482817,12.6618918 C4.98386686,12.1079644 4.44576604,11.5768976 3.90590672,11.0440723 C4.58644599,11.8846351 5.34611774,12.6513408 6.14799347,13.4215636 C5.48328069,13.4672845 4.89945889,13.3055026 4.32618808,13.0698637 C4.36663356,13.1103091 4.41059605,13.1402036 4.45807553,13.1665811 C5.00496885,13.4567335 5.58703216,13.6044475 6.20778245,13.606206 C6.27636393,13.606206 6.3642889,13.6431345 6.41176838,13.6923724 C6.6614753,13.9438378 6.9006312,14.2023372 7.14330415,14.4608367 C7.2066101,14.5276597 7.2910181,14.6261356 7.2910181,14.6261356 C7.2910181,14.6261356 7.37366755,14.5452446 7.46335105,14.4784217 C7.44400755,14.4538027 7.40707905,14.4256667 7.38597705,14.4028062 C7.2787086,14.2867452 7.2435386,14.1882692 7.2365046,14.0352798 C7.2189196,13.6431345 7.10813415,13.2738496 6.9146992,12.9309422 C6.82853275,12.7779527 6.7230228,12.6372728 6.6245468,12.4913173 C6.7159888,12.7392657 6.83204975,12.9731462 6.9182162,13.2158191 C7.0061412,13.465526 7.05362065,13.7257839 7.0342772,14.0106608 C7.0061412,13.9930759 6.9903147,13.9842834 6.9762467,13.9702154 L6.9762467,13.9702154 L6.9762467,13.9702154 Z M26.0524483,11.0317628 C25.4264225,11.6419621 24.7986382,12.2521614 24.1497519,12.8852212 C24.086446,12.4086678 24.1057895,11.9743185 24.1778879,11.5399691 C24.1585444,11.5610712 24.1444764,11.5804147 24.135684,11.6032752 C24.118099,11.6542716 24.100514,11.7052681 24.086446,11.7580231 C23.991487,12.1396174 23.9528,12.5264873 23.977419,12.9203912 C23.980936,12.9731462 23.9545585,13.0434862 23.9158715,13.0804147 C23.6608891,13.3248461 23.3988727,13.5622435 23.1421318,13.8049164 C22.9293534,14.0071439 22.7200919,14.2128882 22.509072,14.4186327 C22.5987555,14.4942481 22.7025069,14.5804147 22.7025069,14.5804147 C22.7025069,14.5804147 22.7798809,14.5047992 22.8502209,14.4291837 C22.9803498,14.2885038 23.1069618,14.1443068 23.2458832,14.0141778 C23.2951212,13.9684568 23.3707367,13.9368039 23.4375597,13.9262528 C23.6802326,13.8910829 23.9264225,13.8805318 24.1673369,13.8383279 C24.5542068,13.7697464 24.9146992,13.6255494 25.2452971,13.4039786 C24.7019208,13.623791 24.142718,13.7627124 23.5078997,13.7293009 C24.4117684,12.8500512 25.2804671,11.986628 26.0524483,11.0317628 L26.0524483,11.0317628 L26.0524483,11.0317628 Z" id="White_Veins" fill="#FFFFFF"></path>
        <path d="M6.74764175,16.1085507 L8.35666875,15.2820559 L8.57648115,15.6953033 L8.00496885,15.9942482 L9.0776535,18.0692775 L8.63802865,18.3066749 L7.547759,16.2228531 L6.9850392,16.521798 L6.74764175,16.1085507 L6.74764175,16.1085507 L6.74764175,16.1085507 Z M19.2716746,14.8793596 L19.8765984,15.081587 L19.1169267,17.3078473 L19.5917215,17.4625952 L20.3584273,15.2556784 L20.9686266,15.4649399 L21.1163405,15.021798 L19.4088375,14.4239082 L19.2716746,14.8793596 L19.2716746,14.8793596 L19.2716746,14.8793596 Z M15.9533862,16.1138261 C15.9533862,16.4321145 15.6948868,16.6888555 15.3783569,16.6888555 L14.7365046,16.6888555 C14.4182162,16.6888555 14.1614753,16.430356 14.1614753,16.1138261 L14.1614753,14.4344592 C14.1614753,14.1161708 14.4199747,13.8594299 14.7365046,13.8594299 L15.3783569,13.8594299 C15.6966453,13.8594299 15.9533862,14.1179293 15.9533862,14.4344592 L15.9533862,16.1138261 L15.9533862,16.1138261 L15.9533862,16.1138261 Z M15.4258364,14.5505202 C15.4258364,14.4397347 15.3361529,14.3500512 15.2253675,14.3500512 L14.871909,14.3500512 C14.7611236,14.3500512 14.6714402,14.4397347 14.6714402,14.5505202 L14.6714402,16.0118332 C14.6714402,16.1226187 14.7611236,16.2123021 14.871909,16.2123021 L15.2253675,16.2123021 C15.3361529,16.2123021 15.4258364,16.1226187 15.4258364,16.0118332 L15.4258364,14.5505202 L15.4258364,14.5505202 L15.4258364,14.5505202 Z M22.3314636,18.102689 C22.1855081,18.3840489 21.8373253,18.4948344 21.5559653,18.3488789 L20.9862115,18.053451 C20.7048516,17.9074956 20.5940661,17.5593127 20.7400216,17.2779528 L21.5155198,15.7867453 C21.6614753,15.5053854 22.0096582,15.3945999 22.2910181,15.5405553 L22.8607719,15.8359832 C23.1421318,15.9819387 23.2529173,16.3301216 23.1069618,16.6114815 L22.3314636,18.102689 L22.3314636,18.102689 L22.3314636,18.102689 Z M22.5846875,16.47256 C22.635684,16.3740841 22.596997,16.2527476 22.498521,16.2017511 L22.1837497,16.0382107 C22.0852736,15.9872142 21.9639372,16.0259012 21.9129407,16.1243772 L21.2394355,17.4221497 C21.188439,17.5206257 21.2271259,17.6419621 21.3256019,17.6929586 L21.6403733,17.8564991 C21.7388493,17.9074956 21.8601858,17.8688086 21.9111822,17.7703326 L22.5846875,16.47256 L22.5846875,16.47256 L22.5846875,16.47256 Z M11.4146992,16.567519 C11.5166922,16.8682224 11.3549102,17.1953033 11.0542068,17.2972963 L10.445766,17.5030407 C10.1450626,17.6050337 9.81798175,17.4432517 9.7159888,17.1425483 L9.17788795,15.5511063 C9.075895,15.2504029 9.23767695,14.9233221 9.53838035,14.8213291 L10.1468211,14.6155847 C10.4475246,14.5135917 10.7746054,14.6753736 10.8765984,14.976077 L11.4146992,16.567519 L11.4146992,16.567519 L11.4146992,16.567519 Z M10.4158716,15.2556784 C10.3807016,15.1501685 10.2663991,15.0938965 10.1608892,15.1290665 L9.82501575,15.2416104 C9.7195058,15.2767804 9.6632338,15.3910829 9.6984038,15.4965929 L10.1661647,16.8822904 C10.2013346,16.9878004 10.3156371,17.0440723 10.4211471,17.0089024 L10.7570205,16.8963584 C10.8625304,16.8611884 10.9188024,16.7468859 10.8836324,16.641376 L10.4158716,15.2556784 L10.4158716,15.2556784 L10.4158716,15.2556784 Z M13.737677,16.7416104 L13.2400216,16.8172259 L12.6896113,16.0311767 L12.4258364,16.0786562 L12.5717919,16.9104264 L12.0741365,16.9983514 L11.6274777,14.2093713 L12.7546758,14.0176949 C13.0483452,13.9684569 13.3261881,14.1654088 13.375426,14.4590782 L13.544242,15.4614229 C13.5741365,15.6829938 13.3367391,15.9414932 13.1679232,15.9625952 L13.737677,16.7416104 L13.737677,16.7416104 L13.737677,16.7416104 Z M13.0202092,15.3013994 L12.9076652,14.6613056 C12.8900803,14.5628297 12.7986382,14.4977652 12.7001623,14.5118332 L12.191956,14.5909657 L12.3502209,15.6108953 L12.8742537,15.5141779 C12.9727297,15.4965929 13.0377942,15.4016339 13.0202092,15.3013994 L13.0202092,15.3013994 L13.0202092,15.3013994 Z M16.9117684,13.9368039 L16.4369735,16.7328179 L16.9381459,16.8119504 L17.2019208,15.2293009 L17.7910181,16.9438379 L18.1866804,17.0317628 L18.6526828,14.2533338 L18.1690954,14.1478238 L17.9053206,15.7216808 L17.3074307,13.9983514 L16.9117684,13.9368039 L16.9117684,13.9368039 L16.9117684,13.9368039 Z M10.2206781,20.6103092 L10.2206781,19.5024545 L10.6515104,20.4643537 L11.0823428,19.5024545 L11.0823428,20.6278941 L11.5571376,20.6278941 L11.5571376,18.165995 L11.1931283,18.165995 L10.642718,19.3758426 L10.1151682,18.165995 L9.7282983,18.165995 L9.7282983,20.6103092 L10.2206781,20.6103092 L10.2206781,20.6103092 L10.2206781,20.6103092 Z M14.0717919,20.6103092 L13.561827,20.6103092 L13.4686265,20.1530993 L12.8056723,20.1530993 L12.7001623,20.6103092 L12.1937144,20.6120677 L12.8056723,18.14841 L13.4563171,18.14841 L14.0717919,20.6103092 L14.0717919,20.6103092 L14.0717919,20.6103092 Z M13.3683921,19.6783045 L13.1309946,18.6724428 L12.8935973,19.6783045 L13.3683921,19.6783045 L13.3683921,19.6783045 L13.3683921,19.6783045 Z M15.9182162,23.8283631 L15.4082514,23.8283631 L15.279881,23.3711532 L14.6169266,23.3711532 L14.4762467,23.8283631 L13.9697989,23.8301216 L14.6169266,21.3664639 L15.2675715,21.3664639 L15.9182162,23.8283631 L15.9182162,23.8283631 L15.9182162,23.8283631 Z M15.1796464,22.8963584 L14.9422491,21.8904967 L14.7048516,22.8963584 L15.1796464,22.8963584 L15.1796464,22.8963584 L15.1796464,22.8963584 Z M16.2523311,18.6618918 L16.2523311,19.3951861 C16.2523311,19.6783045 16.0219677,19.9086679 15.7388493,19.9086679 L15.1796464,19.9086679 L15.1796464,20.6120677 L14.6872666,20.6120677 L14.6872666,18.1501685 L15.7388493,18.1501685 C16.0219677,18.14841 16.2523311,18.3787734 16.2523311,18.6618918 L16.2523311,18.6618918 L16.2523311,18.6618918 Z M15.7599513,18.7726773 C15.7599513,18.6900278 15.6878528,18.6232048 15.6052033,18.6232048 L15.1620614,18.6232048 L15.1620614,19.4321145 L15.6052033,19.4321145 C15.6878528,19.4321145 15.7599513,19.3705671 15.7599513,19.2879176 L15.7599513,18.7726773 L15.7599513,18.7726773 L15.7599513,18.7726773 Z M16.9733159,18.14841 L16.9733159,20.6278941 L18.3449454,20.6278941 L18.3449454,20.1530993 L17.4481107,20.1530993 L17.4481107,18.14841 L16.9733159,18.14841 L16.9733159,18.14841 L16.9733159,18.14841 Z M9.76346825,21.3840489 L9.76346825,23.8635331 L11.1702678,23.8635331 L11.1702678,23.3887382 L10.2382631,23.3887382 L10.2382631,21.3840489 L9.76346825,21.3840489 L9.76346825,21.3840489 L9.76346825,21.3840489 Z M18.9604202,18.14841 L18.9604202,20.6278941 L20.3848047,20.6278941 L20.3848047,20.1530993 L19.4528,20.1530993 L19.4528,19.6255495 L20.0858599,19.6255495 L20.0858599,19.1507546 L19.4528,19.1507546 L19.4528,18.6232048 L20.3848047,18.6232048 L20.3848047,18.14841 L18.9604202,18.14841 L18.9604202,18.14841 L18.9604202,18.14841 Z M11.8033276,21.3664639 L11.8033276,23.845948 L13.3683921,23.845948 L13.3683921,23.3711532 L12.2957074,23.3711532 L12.2957074,22.8436034 L13.0694472,22.8436034 L13.0694472,22.3688085 L12.2957074,22.3688085 L12.2957074,21.8412587 L13.3683921,21.8412587 L13.3683921,21.3664639 L11.8033276,21.3664639 L11.8033276,21.3664639 L11.8033276,21.3664639 Z M17.0260708,23.845948 L17.0260708,22.8436034 L17.7998106,22.8436034 L17.7998106,22.3688085 L17.0260708,22.3688085 L17.0260708,21.8412587 L18.0987555,21.8412587 L18.0987555,21.3664639 L16.533691,21.3664639 L16.533691,23.845948 L17.0260708,23.845948 L17.0260708,23.845948 L17.0260708,23.845948 Z M20.1632338,22.5657605 L19.2699161,22.1595471 C19.2206781,22.1366866 19.1890252,22.0874487 19.1890252,22.0346937 L19.1890252,22.0065576 C19.1890252,21.9151157 19.2628821,21.8412587 19.3543241,21.8412587 L19.7464695,21.8412587 C19.8379114,21.8412587 19.9117684,21.9151157 19.9117684,22.0065576 L19.9117684,22.0874487 L20.3865632,22.0874487 L20.3865632,21.9010477 C20.3865632,21.6056198 20.1474073,21.3664639 19.8519794,21.3664639 L19.2329876,21.3664639 C18.9375597,21.3664639 18.6984038,21.6056198 18.6984038,21.9010477 L18.6984038,22.1243772 C18.6984038,22.3248461 18.8179817,22.50773 19.0026242,22.5868625 L19.8431869,22.9473548 C19.8853909,22.9649399 19.9117684,23.0071439 19.9117684,23.0511063 L19.9117684,23.2550922 C19.9117684,23.3183983 19.8607719,23.3693947 19.7974659,23.3693947 L19.3209126,23.3693947 C19.2576066,23.3693947 19.2066101,23.3183983 19.2066101,23.2550922 L19.2066101,23.1232048 L18.6966453,23.1232048 L18.6966453,23.3359832 C18.6966453,23.6155847 18.9234917,23.8441896 19.2048516,23.8441896 L19.8783569,23.8441896 C20.1579583,23.8441896 20.3865632,23.6173431 20.3865632,23.3359832 L20.3865632,22.9104264 C20.3848047,22.7627124 20.2986383,22.627308 20.1632338,22.5657605 L20.1632338,22.5657605 L20.1632338,22.5657605 Z" id="White_Text" fill="#FFFFFF"></path>
    </g>
</svg>