<?xml version="1.0" encoding="UTF-8"?>
<svg width="30px" height="30px" viewBox="0 0 30 30" version="1.1" xmlns="http://www.w3.org/2000/svg" xmlns:xlink="http://www.w3.org/1999/xlink">
    <!-- Generator: Sketch 50.2 (55047) - http://www.bohemiancoding.com/sketch -->
    <title>panthers</title>
    <desc>Created with Sketch.</desc>
    <defs></defs>
    <g id="panthers" stroke="none" stroke-width="1" fill="none" fill-rule="evenodd">
        <g transform="translate(2.000000, 0.000000)">
            <path d="M17.5969112,28.5872193 L17.5969112,29.1761658 L17.4335907,29.1761658 L17.4335907,28.5872193 L17.2980695,28.5872193 L17.2980695,28.447323 L17.730695,28.447323 L17.730695,28.5872193 L17.5969112,28.5872193 Z M18.3839768,29.1761658 L18.3909266,28.6753022 L18.3874517,28.6753022 L18.2640927,29.1761658 L18.1476834,29.1761658 L18.0277992,28.6753022 L18.0243243,28.6753022 L18.0295367,29.1761658 L17.8801158,29.1761658 L17.8801158,28.447323 L18.08861,28.447323 L18.2067568,28.9170984 L18.2102317,28.9170984 L18.3249035,28.447323 L18.5472973,28.447323 L18.5472973,29.1761658 L18.3839768,29.1761658 L18.3839768,29.1761658 Z" id="Trademark" fill="#0B204A"></path>
            <g id="Background" transform="translate(0.015637, 0.003454)">
                <g id="White_Outline" fill="#FFFFFF">
                    <path d="M13.4826255,0.359240069 C21.5861004,0.359240069 26.6177606,3.34542314 26.6177606,3.34542314 L26.6177606,8.99827288 C26.6177606,11.3126079 26.0513514,15.3195164 23.9664093,19.5682211 C22.3853282,22.7892919 19.4003861,26.5803109 13.4965251,29.5837651 C7.59092664,26.5803109 4.59555985,22.7892919 3.01447876,19.5682211 C0.92953668,15.3195164 0.347490347,11.3126079 0.347490347,8.99827288 L0.347490347,3.34715026 C0.347490347,3.34715026 5.37915058,0.359240069 13.4826255,0.359240069 L13.4826255,0.359240069 Z M13.4826255,0.0138169257 C11.6148649,0.0138169257 9.75405405,0.172711572 7.9523166,0.485319516 C6.51023166,0.735751295 5.10289575,1.08462867 3.76853282,1.52504318 C1.48725869,2.2746114 0.224131274,3.01899827 0.17027027,3.05008636 L0.00173745174,3.15025907 L0.00173745174,3.34715026 L0.00173745174,8.99827288 C0.00173745174,10.3661485 0.19980695,12.0120898 0.561196911,13.6321244 C1.02683398,15.7253886 1.74787645,17.7737478 2.7034749,19.7184801 C4.76930502,23.9291883 8.3484556,27.3506045 13.338417,29.8894646 L13.4965251,29.970639 L13.6546332,29.8894646 C18.6359073,27.3557858 22.2098456,23.9326425 24.2791506,19.7184801 C25.2330116,17.775475 25.9505792,15.7271157 26.4144788,13.6303972 C26.6055985,12.7651123 26.7498069,11.9015544 26.8436293,11.0656304 C26.9252896,10.3333333 26.9669884,9.6373057 26.9669884,8.99654577 L26.9669884,3.34715026 L26.9669884,3.15025907 L26.7984556,3.05008636 C26.746332,3.01899827 25.4814672,2.2746114 23.2001931,1.52504318 C21.8658301,1.08635579 20.4584942,0.737478411 19.0164093,0.485319516 C17.2111969,0.172711572 15.3503861,0.0138169257 13.4826255,0.0138169257 L13.4826255,0.0138169257 Z" id="path8"></path>
                </g>
                <path d="M13.5,0.359240069 C5.3965251,0.359240069 0.364864865,3.34542314 0.364864865,3.34542314 L0.364864865,8.99827288 C0.364864865,11.3126079 0.938223938,15.3195164 3.02316602,19.5682211 C4.6042471,22.7892919 7.596139,26.5803109 13.5,29.5837651 C19.403861,26.5803109 22.3957529,22.7892919 23.976834,19.5682211 C26.0617761,15.3195164 26.6351351,11.3126079 26.6351351,8.99827288 L26.6351351,3.34715026 C26.6351351,3.34715026 21.6034749,0.359240069 13.5,0.359240069 Z" id="Blue_FIll" fill="#0B204A"></path>
                <path d="M1.45945946,4.10362694 C1.45945946,4.10362694 12.7876448,-1.38169257 25.5405405,4.19861831 L25.5405405,9.30569948 C25.5405405,9.30569948 13.5868726,3.91537133 1.52895753,9.62176166 L1.45945946,4.10362694 L1.45945946,4.10362694 Z" id="Red_Fill" fill="#D80021"></path>
            </g>
            <g id="Panther" transform="translate(1.110232, 1.091537)">
                <path d="M5.16023166,14.9274611 C5.29401544,15.433506 5.53725869,15.9861831 5.53725869,15.9861831 C5.24710425,16.3143351 4.8996139,16.8151986 4.8996139,16.8151986 C4.44266409,16.1295337 4.09517375,15.1105354 4.09517375,15.1105354 C4.22200772,14.7184801 4.48262548,14.1036269 4.48262548,14.1036269 C4.76061776,14.582038 5.16023166,14.9274611 5.16023166,14.9274611 Z M5.68667954,15.9585492 C5.6953668,16.0708117 8.30675676,17.0690846 8.41969112,17.0518135 C8.41969112,17.0518135 8.57432432,16.8480138 8.56389961,16.7702936 C8.56389961,16.7702936 8.2476834,16.4248705 7.87413127,16.2227979 C7.87413127,16.2227979 8.21988417,16.2210708 8.80019305,16.3039724 C8.80019305,16.3039724 8.87142857,16.17962 8.86969112,16.0500864 L7.97837838,15.5198618 C7.97837838,15.5198618 8.3519305,15.4939551 9.02432432,15.5129534 C9.02432432,15.5129534 9.04169884,15.388601 9.04517375,15.3022453 C9.04517375,15.3022453 8.30328185,14.8963731 7.8515444,14.7720207 C7.8515444,14.7720207 8.29459459,14.6545769 8.62818533,14.5993092 C8.62818533,14.5993092 8.45096525,14.3264249 8.27722008,14.17962 C8.27722008,14.17962 7.0957529,14.1278066 6.34517375,14.3005181 C6.34517375,14.3005181 5.97509653,14.4905009 5.67277992,14.9222798 C5.67625483,14.9222798 5.65540541,15.552677 5.68667954,15.9585492 L5.68667954,15.9585492 Z M5.66409266,16.5198618 C5.66409266,16.5198618 5.41737452,16.9240069 5.38783784,17.3592401 C5.38783784,17.3592401 5.57027027,18.0552677 6.29826255,18.6787565 C6.29826255,18.6787565 7.02451737,18.3454231 8.73069498,18.1226252 C8.73069498,18.1226252 7.34420849,17.5146805 6.8003861,17.208981 C6.19749035,16.8687392 5.66409266,16.5198618 5.66409266,16.5198618 L5.66409266,16.5198618 Z M17.0444015,24.0069085 C17.0444015,24.0069085 16.0662162,21.6701209 14.0403475,20.0362694 C14.0403475,20.0362694 14.4660232,20.7443869 14.4138996,22.0138169 C14.4138996,22.0138169 12.6330116,19.9585492 10.1293436,18.8255613 C10.1293436,18.8255613 11.807722,20.2262522 12.5374517,22.1951641 C13.1455598,23.8341969 13.1177606,25.2746114 12.2629344,27.0552677 C11.6357143,28.3609672 17.0444015,24.0069085 17.0444015,24.0069085 Z" id="Panther_White" fill="#FFFFFF"></path>
                <g id="Eye_1_" transform="translate(8.061776, 10.086356)">
                    <path d="M1.21621622,0.483592401 C1.21621622,0.483592401 1.23359073,0.872193437 1.45945946,1.10535406 C1.45945946,1.10535406 3.75289575,-0.0345423143 4.83011583,0.500863558 C4.83011583,0.500863558 3.37586873,-0.599309154 1.21621622,0.483592401 Z" id="path15" fill="#FFFFFF"></path>
                    <path d="M0.00868725869,2.2193437 C0.00868725869,2.2193437 1.41602317,2.4611399 2.67567568,2.20207254 C2.67567568,2.20207254 3.43146718,1.54576857 4.04826255,0.803108808 L4.34362934,1.03626943 L2.66698842,2.92746114 L0.373552124,2.80656304 L0.00868725869,2.2193437 Z" id="path17" fill="#FFFFFF"></path>
                    <path d="M1.39864865,1.62348877 L1.24227799,1.8566494 C1.24227799,1.8566494 1.82432432,2.0984456 2.33687259,1.84801382 C2.8511583,1.59758204 2.88416988,1.28670121 2.88416988,1.28670121 L2.19787645,1.38169257 C2.19787645,1.38169257 2.03281853,2.02936097 1.39864865,1.62348877 Z" id="Eye_Pupil" fill="#E00000"></path>
                </g>
                <path d="M21.7094595,1.45423143 C20.4289575,1.03626943 19.0789575,0.702936097 17.6942085,0.464594128 C15.965444,0.165803109 14.1810811,0.0155440415 12.3880309,0.0155440415 C10.5949807,0.0155440415 8.81061776,0.167530225 7.08185328,0.464594128 C5.6988417,0.702936097 4.34710425,1.03626943 3.06660232,1.45423143 C1.56891892,1.94300518 0.516023166,2.43696028 0,2.70120898 L0,7.91018998 C0,9.20207254 0.189382239,10.7651123 0.533397683,12.3091537 C0.981660232,14.3177893 1.67316602,16.2849741 2.59054054,18.1537133 C4.5034749,22.0518135 7.80289575,25.2487047 12.4001931,27.6580311 C13.6476834,27.0034542 14.8100386,26.2849741 15.8629344,25.5164076 C16.9071429,24.7530225 17.8696911,23.9240069 18.7210425,23.0518135 C19.4855212,22.2677029 20.1787645,21.4283247 20.7833977,20.5578584 C21.3150579,19.7927461 21.7911197,18.9827288 22.1994208,18.1537133 C23.1150579,16.2884283 23.8048263,14.3212435 24.2496139,12.3091537 C24.588417,10.7702936 24.7760618,9.208981 24.7760618,7.90846287 L24.7760618,2.70120898 C24.2583012,2.43696028 23.2071429,1.94300518 21.7094595,1.45423143 L21.7094595,1.45423143 Z M23.5198842,12.1519862 C23.2940154,13.1744387 23.003861,14.1848014 22.6494208,15.1744387 C22.2341699,14.6580311 21.2194981,13.447323 20.3855212,12.8497409 C20.3855212,12.8497409 19.4247104,13.2297064 18.3301158,13.3160622 C18.3301158,13.3160622 19.2162162,12.6822107 19.6332046,12.1813472 C19.6332046,12.1813472 20.2465251,10.5924007 20.4324324,8.81865285 C20.4324324,8.81865285 20.2430502,8.31778929 20.0380309,8.15025907 C20.0380309,8.15025907 19.4942085,7.94300518 19.0303089,7.88601036 C19.0303089,7.88601036 18.4274131,7.92055268 17.2459459,8.58894646 C16.6743243,8.9119171 15.9828185,9.37132988 14.5824324,9.79792746 C14.5824324,9.79792746 14.7440154,9.53367876 15.1158301,9.09499136 C15.1158301,9.09499136 13.8301158,8.68048359 12.4749035,8.77202073 C11.0640927,8.86873921 9.92606178,9.15198618 9.92606178,9.15198618 C9.92606178,9.15198618 10.3083012,8.79447323 11.0501931,8.55267703 C11.0501931,8.55267703 10.6801158,8.15025907 10.5984556,7.72366149 L10.2388031,7.7357513 C10.1432432,7.80483592 9.74015444,8.44905009 9.48648649,9.26770294 C9.48648649,9.26770294 8.70984556,9.70466321 8.40926641,9.92400691 C8.16081081,10.1036269 7.82722008,10.3696028 7.82722008,10.3696028 L7.87586873,10.0276339 C7.87586873,10.0276339 6.77606178,10.6148532 6.76389961,10.7063903 C6.73957529,10.9015544 7.02972973,11.2936097 7.02972973,11.2936097 C7.02972973,11.2936097 5.29227799,12.0189983 4.43571429,13.3540587 C4.43571429,13.3540587 4.80579151,13.5837651 5.25752896,13.7219344 C5.25752896,13.7219344 6.21833977,13.5837651 6.69440154,13.3644214 C6.69440154,13.3644214 7.33204633,12.6390328 7.70212355,12.3402418 C7.70212355,12.3402418 7.56312741,13.0777202 7.37722008,13.6528497 L9.16158301,13.5492228 C9.59073359,13.9067358 10.2735521,14.447323 10.4247104,14.6891192 C10.4247104,14.6891192 10.3552124,15.6217617 9.42915058,17.2677029 C9.42915058,17.2677029 9.77664093,17.164076 10.3899614,17.0949914 C10.9094595,17.0362694 11.4324324,17.0949914 11.4324324,17.0949914 C11.7677606,17.2797927 12.3237452,17.716753 13.6094595,18.1433506 C14.2210425,18.3454231 15.265251,18.6735751 16.6274131,18.5803109 C16.6274131,18.5803109 17.9183398,17.3246978 18.3301158,16.3177893 L18.0173745,14.1416235 C18.0173745,14.1416235 18.4777992,14.5164076 18.8687259,15.3160622 C19.1988417,15.9896373 19.5637066,17.0431779 19.5637066,17.0431779 C19.5411197,17.4006908 19.4420849,19.1675302 18.6081081,21.1882556 C18.1372587,22.3298791 17.4857143,23.283247 16.1009653,24.4006908 C15.8785714,24.5751295 15.6527027,24.7478411 15.4216216,24.9153713 C14.4972973,25.5889465 13.4843629,26.2262522 12.4019305,26.8117444 L12.4019305,26.8117444 C13.4895753,24.8721934 11.9710425,23.2815199 11.9710425,23.2815199 C11.2725869,24.582038 10.2301158,25.1744387 9.94343629,25.3177893 C6.93243243,23.2504318 4.69111969,20.7409326 3.26293436,17.8290155 C2.37162162,16.0120898 1.6992278,14.1001727 1.26312741,12.148532 C0.941698842,10.7081174 0.816602317,9.52677029 0.771428571,8.70984456 C1.7027027,8.28670121 3.11003861,7.73229706 4.92741313,7.26597582 C7.32857143,6.64939551 9.84440154,6.33678756 12.4071429,6.33678756 C17.9409266,6.33678756 22.0187259,7.79447323 24.0081081,8.69602763 C23.9629344,9.5164076 23.8395753,10.7046632 23.5198842,12.1519862 L23.5198842,12.1519862 Z M17.2476834,10.880829 L17.8262548,9.70639033 L16.8532819,9.78756477 C16.8532819,9.78756477 18.2084942,8.6597582 19.042471,8.48704663 C19.153668,8.46459413 19.5550193,8.55785838 19.7374517,8.64766839 C19.8764479,8.71675302 19.9581081,9.06217617 19.9581081,9.06217617 C19.7374517,10.2366149 19.1710425,11.9861831 19.1710425,11.9861831 C18.8061776,12.417962 17.803668,13.0224525 17.803668,13.0224525 L17.4440154,12.2452504 L18.1042471,10.7892919 L17.2476834,10.880829 L17.2476834,10.880829 Z M13.5521236,12.0241796 L13.5660232,11.0949914 C14.0907336,11.3333333 14.5911197,11.7305699 14.5911197,11.7305699 L14.3739382,12.6459413 L12.2333977,13.6131261 C12.2316602,13.6131261 13.5086873,12.1105354 13.5521236,12.0241796 Z M12.1100386,10.8894646 L12.1100386,11.208981 C11.7451737,11.8307427 10.9772201,12.5561313 10.9772201,12.5561313 C10.1779923,12.7547496 9.00694981,12.6943005 9.00694981,12.6943005 C8.69594595,12.5561313 8.20945946,12.3229706 8.20945946,12.3229706 C8.20945946,12.3229706 8.65250965,11.6580311 9.27799228,10.82038 C9.27799228,10.82038 10.5289575,10.224525 12.1187259,10.3972366 C12.1187259,10.3972366 12.5513514,10.6044905 12.8519305,10.716753 C12.8519305,10.716753 12.4314672,10.7599309 12.1100386,10.8894646 Z M24.0289575,7.83419689 C21.8814672,6.90328152 17.8175676,5.54058722 12.4054054,5.54058722 C9.77490347,5.54058722 7.19131274,5.86183074 4.72586873,6.49568221 C3.0457529,6.92746114 1.70096525,7.43350604 0.747104247,7.84974093 L0.747104247,3.16234888 C1.31351351,2.89464594 2.196139,2.51813472 3.34980695,2.1433506 C4.59208494,1.74093264 5.90212355,1.41968912 7.24517375,1.18998273 C8.92007722,0.90328152 10.6505792,0.7582038 12.3880309,0.7582038 C14.1254826,0.7582038 15.8559846,0.90328152 17.530888,1.18998273 C18.8739382,1.41968912 20.1839768,1.74093264 21.4262548,2.1433506 C22.5816602,2.51813472 23.4625483,2.89464594 24.0289575,3.16234888 L24.0289575,7.83419689 Z" id="path20" fill="#C69C5D"></path>
            </g>
            <path d="M5.11853282,4.40759931 C5.11853282,4.22279793 4.8527027,3.97063903 4.58513514,4.08462867 C4.31756757,4.19861831 3.40366795,4.52849741 3.40366795,4.52849741 L3.40366795,7.56822107 L3.94227799,7.39032815 L3.94227799,6.3074266 C3.94227799,6.3074266 4.14034749,6.25043178 4.44266409,6.15716753 C4.74324324,6.0656304 5.10637066,5.74265976 5.11853282,5.40932642 C5.12895753,5.07599309 5.11853282,4.59240069 5.11853282,4.40759931 Z M4.5503861,5.48704663 C4.5503861,5.51295337 4.53301158,5.53540587 4.50868726,5.54404145 L3.97702703,5.7029361 L3.97702703,4.87392055 L4.47046332,4.69602763 C4.50868726,4.68221071 4.5503861,4.70984456 4.5503861,4.75129534 L4.5503861,5.48704663 L4.5503861,5.48704663 Z M7.29903475,3.37996546 C7.15135135,3.40587219 6.80907336,3.4835924 6.56583012,3.53540587 C6.32258687,3.58721934 6.00984556,3.92400691 6.00984556,4.07944732 L6.00984556,6.75647668 L6.58320463,6.58376511 L6.58320463,5.59930915 L7.21216216,5.47841105 L7.20868726,6.47150259 L7.78204633,6.34196891 L7.78204633,3.75129534 C7.78204633,3.53540587 7.4484556,3.35405872 7.29903475,3.37996546 Z M7.19131274,4.90846287 L6.58320463,5.02936097 L6.58320463,4.13126079 L7.19131274,3.9671848 L7.19131274,4.90846287 Z M8.70289575,6.20379965 L8.70289575,3.16407599 L9.32837838,3.09499136 L9.93648649,4.52849741 L9.93648649,3.00863558 L10.5098456,2.95682211 L10.5098456,6.04835924 L9.91042471,6.08290155 L9.28494208,4.55440415 L9.26756757,6.12607945 L8.70289575,6.20379965 L8.70289575,6.20379965 Z M12.942278,2.83592401 L12.942278,3.33678756 L12.3862934,3.33678756 L12.3862934,5.92746114 L11.7955598,5.92746114 L11.7955598,3.37132988 L11.2569498,3.37132988 L11.2569498,2.87046632 L12.942278,2.83592401 Z M14.2106178,2.81865285 L14.2106178,4.07944732 L14.9403475,4.09671848 L14.9403475,2.85319516 L15.4442085,2.88773748 L15.4442085,5.87564767 L14.922973,5.85837651 L14.922973,4.6148532 L14.2106178,4.59758204 L14.2106178,5.85837651 L13.6546332,5.84110535 L13.6546332,2.80138169 L14.2106178,2.81865285 Z M17.8766409,3.09499136 L17.8766409,3.55613126 L16.973166,3.45768566 L16.973166,4.24697755 L17.5812741,4.30397237 L17.5812741,4.74093264 L16.973166,4.68393782 L16.973166,5.4835924 L17.8766409,5.56476684 L17.8766409,6.05354059 L16.4866795,5.92746114 L16.4866795,2.90500864 L17.8766409,3.09499136 Z M20.6617761,6.64939551 L20.1648649,5.28842832 C20.2343629,5.30051813 20.5644788,5.22452504 20.5644788,4.8566494 C20.5644788,4.48877375 20.5592664,4.36787565 20.5592664,4.17098446 C20.5592664,3.97409326 20.3907336,3.64766839 20.1544402,3.58894646 C19.9164093,3.53195164 18.9034749,3.30051813 18.9034749,3.30051813 L18.9034749,6.27115717 L19.3899614,6.39723661 L19.3899614,5.15025907 L19.6158301,5.17962003 L20.1196911,6.55613126 L20.6200772,6.69775475 C20.646139,6.70466321 20.6722008,6.67702936 20.6617761,6.64939551 L20.6617761,6.64939551 Z M19.9789575,4.80483592 L19.3882239,4.68393782 L19.3882239,3.94127807 L19.9789575,4.06217617 L19.9789575,4.80483592 Z M22.7710425,5.01554404 L22.7588803,4.74956822 L22.1803089,4.55958549 L22.1855212,5.29533679 C22.1855212,5.29533679 22.5277992,5.42141623 22.788417,5.51468048 C23.0490347,5.60621762 23.3148649,5.87737478 23.3148649,6.10708117 L23.3148649,7.01727116 C23.3148649,7.15544041 23.1237452,7.37996546 22.8805019,7.31088083 C22.6372587,7.2417962 22.284556,7.12607945 22.103861,7.06390328 C21.9249035,7 21.5218147,6.66666667 21.6138996,6.13126079 L22.1316602,6.31606218 L22.1316602,6.5492228 L22.7397683,6.76165803 L22.7397683,5.99654577 C22.7397683,5.99654577 22.392278,5.88773748 22.1316602,5.80138169 C21.8710425,5.71502591 21.6156371,5.36960276 21.6156371,5.13989637 C21.6156371,4.91018998 21.6208494,4.52331606 21.6208494,4.32815199 C21.6208494,4.13298791 21.834556,3.98272884 22.0777992,4.04663212 C22.3210425,4.11053541 22.6164093,4.23143351 22.7953668,4.29360967 C22.9743243,4.35751295 23.3218147,4.61658031 23.2870656,5.15716753 L22.7710425,5.01554404 L22.7710425,5.01554404 Z" id="PANTHERS" fill="#FFFFFF"></path>
        </g>
    </g>
</svg>