<?xml version="1.0" encoding="UTF-8"?>
<svg width="30px" height="30px" viewBox="0 0 30 30" version="1.1" xmlns="http://www.w3.org/2000/svg" xmlns:xlink="http://www.w3.org/1999/xlink">
    <!-- Generator: Sketch 50.2 (55047) - http://www.bohemiancoding.com/sketch -->
    <title>penguins</title>
    <desc>Created with Sketch.</desc>
    <defs></defs>
    <g id="penguins" stroke="none" stroke-width="1" fill="none" fill-rule="evenodd">
        <path d="M26.072597,12.198992 C26.0278915,12.2657522 25.9486489,12.3814955 25.874841,12.4888412 C26.0697919,12.5544093 26.2715801,12.6309345 26.4709139,12.7131224 C26.6769097,12.7980453 26.9972113,12.9136133 27.3443361,13.0332837 C27.3397779,12.8800404 27.3343431,12.7047248 27.3315381,12.6167339 C27.1378144,12.5516743 26.2787681,12.2688377 26.072597,12.198992 L26.072597,12.198992 L26.072597,12.198992 Z" id="path10" fill="#FFFFFF"></path>
        <path d="M29.7996138,13.0277953 C29.6518228,13.3731144 29.2170402,13.6965365 29.1185129,13.7687841 C29.1197401,13.8470274 29.1018579,13.94289 29.0667948,14.0487105 C28.98913,14.2772693 28.6462127,14.621221 27.959677,14.5054776 C27.2715633,14.3914524 27.0042071,14.2772693 27.0042071,14.2772693 C27.0042071,14.2772693 26.6614652,15.1154881 25.8984918,14.8107371 C25.8984918,14.8107371 25.7838355,15.8410667 25.2114301,16.1463612 C24.6393754,16.4510596 20.7075732,17.8230793 20.7075732,17.8230793 C20.7075732,17.8230793 20.6684778,17.908458 20.5681973,17.9969924 L19.7186181,19.47485 L19.831346,20.1112455 C19.831346,20.1112455 20.5180571,20.9122623 20.5180571,21.484843 L20.0220893,21.7131038 L19.9174259,21.7131038 C19.9649364,21.8607195 20.0205115,22.0362105 20.0501398,22.125446 L20.7268579,22.125446 L20.7268579,22.6892609 L17.868881,22.6892609 L14.4830816,28.5728514 L10.7642878,22.2590365 C10.4008235,22.5696957 10.0221068,22.760439 9.73516785,22.760439 L9.0429869,22.7620169 L2.25036771,22.7620169 L3.41593573,20.6643661 L9.69323235,20.6643661 C9.73911247,20.6643661 9.78089013,20.6629636 9.82282563,20.6601585 L1.140252,5.9216943 L5.60001708,5.9216943 C5.93267837,5.58887522 6.16807456,5.35346148 6.16807456,5.35346148 C6.16807456,5.35346148 6.66390208,4.85644185 6.85462785,4.32314942 C7.04568677,3.78931351 7.2364126,3.29385419 7.99947358,2.79786891 C8.76270992,2.3032511 9.25853744,2.03600005 9.75606547,1.80623147 C10.2518754,1.57767256 10.9385865,1.500972 11.5109217,2.11098252 C12.0834497,2.72132614 12.3881833,2.98857719 12.5792597,3.17930299 C12.7699855,3.37037943 13.1514196,4.24764101 14.2588004,3.78931351 C15.3646209,3.33254633 17.006679,2.45528477 18.0375346,2.49276723 C19.0667948,2.53181001 20.7841861,3.4453619 21.3565914,4.09457298 C21.3565914,4.09457298 21.8134638,3.69173287 22.3104834,3.75062137 C22.7296629,3.80198883 22.9219841,4.24764101 23.3034708,5.00968518 C23.3034708,5.00968518 24.1811005,5.23789346 24.1811005,5.73524619 C24.1811005,5.73524619 24.2019631,5.72977635 24.232468,5.73251127 C24.2492983,5.71436611 24.264726,5.6974131 24.2824329,5.67961857 C24.4749294,5.48734998 24.5904624,5.37160664 24.7198453,5.28515853 C24.749123,5.2658037 24.7812057,5.2533037 24.814691,5.24217116 C24.7871665,5.16959051 24.749123,5.02783035 24.8509813,4.94958701 C24.9887793,4.84104914 25.3159182,4.71981842 25.6598873,5.01909963 C25.9568719,5.27847901 25.9651117,5.38154703 25.9651117,5.38154703 C25.9651117,5.38154703 26.215813,5.68081071 26.0710023,5.9216943 L27.5166545,5.9216943 L22.6923207,14.306547 C22.7044175,14.3594398 22.7186181,14.4135421 22.7312408,14.4679951 C22.7312408,14.4679951 23.341339,14.6962034 23.5320823,14.9247623 C23.5320823,14.9247623 24.0653923,14.9247623 24.3343263,14.8872798 C24.6002801,14.8497798 24.6393754,14.8497798 24.676893,14.6962034 C24.7159883,14.5429776 24.7159883,14.3914524 24.6393754,14.1252357 C24.5627625,13.8579846 24.4482814,12.5235877 24.7926012,12.3703619 C24.8941089,12.3246571 25.0278747,12.313174 25.1823277,12.327392 C25.1837303,12.1698885 25.1865353,11.9736754 25.1865353,11.8760947 C25.0262969,11.8231845 24.544705,11.662946 24.544705,11.662946 L24.7215984,11.1267258 L29.8814862,12.8343345 L29.7996138,13.0277953 L29.7996138,13.0277953 L29.7996138,13.0277953 Z" id="path18" fill="#FFFFFF"></path>
        <path d="M28.2733335,12.92748 C28.2198622,13.0012703 28.1167767,13.1418208 28.028067,13.2645768 C28.2521203,13.3385424 28.4595186,13.4066876 28.6281722,13.4607724 C28.5934597,13.2811792 28.5559422,13.091663 28.5405144,13.016663 C28.4512788,12.9874029 28.3762437,12.9622275 28.2733335,12.92748 L28.2733335,12.92748 L28.2733335,12.92748 Z" id="path26" fill="#FFFFFF"></path>
        <path d="M19.4177936,21.713158 L19.2535229,22.2881931 L17.6462298,22.2881931 L17.4356758,21.713158 L17.1139717,21.713158 L16.9316435,22.2881931 L16.3955285,22.2881931 L16.0694415,21.713158 L15.8522256,21.713158 C15.7617627,21.8441187 15.5261386,22.2089504 15.502471,22.4975199 L20.5335019,22.4975199 L20.5335019,22.3174708 L19.9081512,22.3174708 L19.7158301,21.713158 L19.4177936,21.713158 L19.4177936,21.713158 L19.4177936,21.713158 Z" id="path30" fill="#FFFFFF"></path>
        <path d="M25.3744899,12.3549533 C25.4721407,12.3730985 25.575051,12.3984491 25.6825194,12.4287436 L25.9944058,11.9707668 L27.5210538,12.4761665 L27.5389359,13.1003951 C27.6379892,13.1335999 27.7382698,13.1671553 27.8369724,13.2007107 L28.199525,12.7004477 L28.7091674,12.8690837 L28.8385502,13.5290943 C28.9398826,13.5626497 29.008431,13.5847394 29.0280664,13.5903846 C29.0292936,13.5903846 29.0292936,13.5919274 29.0308714,13.5919274 C29.1493847,13.5054617 29.5058013,13.2255353 29.6227368,12.9510964 L24.843985,11.370346 L24.78841,11.5405248 L25.3815026,11.736738 L25.3744899,12.3549533 L25.3744899,12.3549533 L25.3744899,12.3549533 Z" id="path34" fill="#FFFFFF"></path>
        <path d="M14.0680744,14.5429787 C14.5082392,14.822905 14.9425835,15.0795319 15.3688984,15.3093005 C16.2505428,14.3842655 18.1753325,12.3604401 19.6877799,10.7730102 C19.2242455,10.1614569 18.6656901,9.50966869 17.998439,8.82434261 C14.144775,4.85644289 11.4828535,7.12665677 11.0151115,7.87038047 C9.9077483,9.62523672 10.7098521,12.407863 14.0680744,14.5429787 L14.0680744,14.5429787 L14.0680744,14.5429787 Z" id="path38" fill="#FFFFFF"></path>
        <path d="M16.564007,15.9066354 C18.846791,16.9431712 20.6849747,17.1684517 21.281223,16.4889285 C21.8702833,15.8146999 21.9023661,14.1281466 20.3396031,11.701972 C19.0292945,13.1654538 17.4440912,14.931951 16.564007,15.9066354 L16.564007,15.9066354 L16.564007,15.9066354 Z" id="path42" fill="#FFFFFF"></path>
        <path d="M4.75580215,7.10730141 C4.45070047,7.45107771 4.413218,8.44289047 4.413218,8.44289047 L6.89365278,6.30623199 L5.90082319,8.13642133 C5.90082319,8.13642133 7.58018855,7.37455246 7.73222221,6.99276775 C7.73222221,6.99276775 7.38844591,6.15453143 6.62640173,5.390962 C6.62640173,5.390962 5.06225377,6.76454194 4.75580215,7.10730141 L4.75580215,7.10730141 L4.75580215,7.10730141 Z" id="path46" fill="#FFFFFF"></path>
        <path d="M15.971966,21.3525334 C16.037534,21.4347564 16.2116224,21.4081085 16.36029,21.291173 C16.5096589,21.17564 16.5790838,21.0127718 16.5138664,20.9305488 C16.4495256,20.846748 16.2754373,20.873396 16.1251918,20.9901561 C15.9761736,21.1074423 15.906398,21.2704857 15.971966,21.3525334 L15.971966,21.3525334 L15.971966,21.3525334 Z" id="path54" fill="#FFFFFF"></path>
        <path d="M8.17086256,4.27691975 C8.14723002,4.00400601 8.45797686,3.8129471 8.60007013,3.57497375 C8.45797686,3.38424794 8.20715288,3.30206 8.00513675,3.40907262 C7.96917953,3.96771568 7.80173563,4.48014555 7.671108,4.99154106 C7.95650421,5.20588188 7.88544881,4.65870446 8.19619566,4.64757192 C8.37424615,4.5859485 8.46893409,4.7533924 8.57643759,4.86038749 C8.63602736,5.01515607 8.60007013,5.2185572 8.48159187,5.34951792 L8.76700561,5.32436014 C8.88546634,5.18224934 8.9217742,4.96773321 8.86304348,4.78933209 C8.7796634,4.46764555 8.39787869,4.4438377 8.17086256,4.27691975 L8.17086256,4.27691975 L8.17086256,4.27691975 Z" id="path58" fill="#FFFFFF"></path>
        <path d="M22.7579053,5.25039387 C22.4691606,4.86192964 22.2061872,4.46079009 21.892723,4.073518 C21.7798198,4.073518 21.6548198,4.13480832 21.629399,4.26031674 C21.9302405,4.58594787 22.2828001,4.91208743 22.5445463,5.23670173 C22.5946865,5.28685951 22.694967,5.37606008 22.7579053,5.25039387 L22.7579053,5.25039387 L22.7579053,5.25039387 Z" id="path66" fill="#FFFFFF"></path>
        <path d="M22.2437052,5.78934991 C22.3187403,5.83831555 22.5082564,5.83831555 22.4833616,5.68903434 L21.4540839,4.51094878 C21.3159352,4.423291 21.1532424,4.51094878 21.078032,4.64878188 C21.466356,5.03724612 21.9177936,5.33822789 22.2437052,5.78934991 L22.2437052,5.78934991 L22.2437052,5.78934991 Z" id="path70" fill="#FFFFFF"></path>
        <path d="M22.0934599,5.88848962 L21.0652341,5.0124202 C20.9027166,4.849254 20.6641121,4.87460463 20.589077,5.12541108 C21.052962,5.47621754 21.5654094,5.70049874 21.9930041,6.12663829 C22.1197572,6.13913829 22.1560476,5.97769019 22.0934599,5.88848962 L22.0934599,5.88848962 L22.0934599,5.88848962 Z" id="path74" fill="#FFFFFF"></path>
        <path d="M23.3732641,6.36461289 C23.5485796,6.10163953 23.9875698,6.12663953 23.8746666,5.73799998 C23.8494211,5.56387656 23.6101154,5.437176 23.3981589,5.48854346 C22.6211603,6.00130644 22.0680397,6.79091022 21.969337,7.60586464 C22.0806624,7.73100489 22.2312585,7.74368021 22.3941266,7.74368021 C22.7340635,7.31599788 22.9081519,6.76575244 23.3732641,6.36461289 L23.3732641,6.36461289 L23.3732641,6.36461289 Z" id="path78" fill="#FFFFFF"></path>
        <path d="M21.7423027,6.60309487 C21.8299605,6.59043709 21.9554864,6.45260399 21.867478,6.33978843 C21.3660755,6.05148197 20.9027164,5.66420988 20.3622185,5.463719 C20.2745608,5.55018464 20.24914,5.67686767 20.2617627,5.80202545 L21.7423027,6.60309487 L21.7423027,6.60309487 L21.7423027,6.60309487 Z" id="path82" fill="#FFFFFF"></path>
        <path d="M21.5042239,7.05440798 C21.5918817,7.02905736 21.6921622,6.91624179 21.6045044,6.841084 C21.1406194,6.60309312 20.6877793,6.30228667 20.1879546,6.126638 C20.1251916,6.20195357 20.035956,6.33978667 20.1125689,6.40244445 C20.6139714,6.55412748 21.0266643,6.85374179 21.5042239,7.05440798 L21.5042239,7.05440798 L21.5042239,7.05440798 Z" id="path86" fill="#FFFFFF"></path>
        <path d="M22.721616,7.75635432 C22.7952485,7.93046021 22.9332219,7.93046021 23.1088881,7.88030243 C23.6101153,7.60586344 23.9623243,7.06655769 24.0626048,6.50277788 C24.0487549,6.41476947 23.9374295,6.36461168 23.8620438,6.339787 C23.3357464,6.69075124 23.0096595,7.24068111 22.721616,7.75635432 L22.721616,7.75635432 L22.721616,7.75635432 Z" id="path90" fill="#FFFFFF"></path>
        <path d="M24.452681,6.55412778 L25.0152687,7.54303031 C24.9931789,7.13212568 24.8147076,6.78543915 24.5750513,6.46647 C24.5459489,6.47195738 24.518249,6.47641039 24.4901985,6.47742722 L24.452681,6.55412778 L24.452681,6.55412778 L24.452681,6.55412778 Z" id="path94" fill="#FFFFFF"></path>
        <path d="M24.9402342,7.98063619 C24.9525063,7.543031 24.5391122,7.19222455 24.3133058,6.803585 L24.162885,7.10439145 L24.764568,8.00546088 C24.8162861,7.99432834 24.9023661,8.03079397 24.9402342,7.98063619 L24.9402342,7.98063619 L24.9402342,7.98063619 Z" id="path98" fill="#FFFFFF"></path>
        <path d="M21.1781377,7.21585719 C20.763341,7.02905845 20.362219,6.81590978 19.9235795,6.690752 L19.885536,6.8035851 C20.2128502,7.16568187 20.6767352,7.22954933 21.1781377,7.21585719 L21.1781377,7.21585719 L21.1781377,7.21585719 Z" id="path102" fill="#FFFFFF"></path>
        <path d="M23.837148,7.66834625 C24.0626038,7.93046056 24.0626038,8.40658258 24.4135856,8.46925789 C24.5012434,8.10577613 24.23827,7.76850404 24.0250863,7.505706 C23.9374285,7.505706 23.8494201,7.57949632 23.837148,7.66834625 L23.837148,7.66834625 L23.837148,7.66834625 Z" id="path106" fill="#FFFFFF"></path>
        <path d="M23.4095535,8.044486 C23.398158,8.41925809 23.6741047,8.75756454 23.8494203,9.08200353 L24.062604,9.12120409 C24.1127443,8.70740676 23.79928,8.41925809 23.6488593,8.09464378 L23.4095535,8.044486 L23.4095535,8.044486 L23.4095535,8.044486 Z" id="path110" fill="#FFFFFF"></path>
        <path d="M23.5864469,9.68533432 L23.5985436,9.29532731 C23.4719658,8.91901244 23.3480177,8.56957345 23.0349041,8.268767 C22.8829055,8.28144232 22.582064,8.231267 22.519301,8.40658257 C22.6712996,8.9078799 22.9847638,9.64750122 23.5864469,9.68533432 L23.5864469,9.68533432 L23.5864469,9.68533432 Z" id="path118" fill="#FFFFFF"></path>
        <path d="M12.4399017,15.8467137 C12.1765778,15.5082494 12.5556275,14.5429794 11.839481,14.7578462 C11.3758414,15.1838104 12.1027874,15.4582494 12.1904452,15.8845468 C12.2532783,15.9093714 12.4035939,15.9468539 12.4399017,15.8467137 L12.4399017,15.8467137 L12.4399017,15.8467137 Z" id="path130" fill="#FFFFFF"></path>
        <path d="M11.3131832,15.244925 C11.2255254,15.3705912 11.1626923,15.508249 11.1501923,15.6587399 C11.137517,16.0348619 11.4260163,16.2841606 11.6139897,16.5737819 C11.7644805,16.5348619 11.9397961,16.5850021 12.0526292,16.4361592 C11.9009286,16.0097918 11.72528,15.5221164 11.3131832,15.244925 L11.3131832,15.244925 L11.3131832,15.244925 Z" id="path142" fill="#FFFFFF"></path>
        <path d="M13.1810481,16.7370005 L13.1947403,16.5487116 L13.080715,16.360598 C12.5556273,16.297835 12.1027872,16.5850019 11.8144808,17.011194 C11.751823,17.1381225 11.8019808,17.2741674 11.8394808,17.3746232 C12.2532781,17.0615096 12.6278749,16.6475896 13.1810481,16.7370005 L13.1810481,16.7370005 L13.1810481,16.7370005 Z" id="path146" fill="#FFFFFF"></path>
        <path d="M14.372808,16.6475891 C14.3355009,16.398115 14.0598522,16.4361585 13.8592036,16.410913 C13.6823452,16.4472034 13.483064,16.5487111 13.5205465,16.7618948 C13.5821874,16.9861234 13.6962127,17.1865091 13.921686,17.2620701 C14.14751,17.1128766 14.4467737,16.9498331 14.372808,16.6475891 L14.372808,16.6475891 L14.372808,16.6475891 Z" id="path150" fill="#FFFFFF"></path>
        <path d="M13.2575729,17.1865095 C13.0428815,17.1239218 12.8174081,17.086229 12.65596,17.2119303 C12.7811003,17.9259906 13.4703885,19.8302683 13.7463702,19.842891 C13.9216858,19.2787255 13.834028,18.8274632 13.8841858,18.2019373 C13.7590455,17.8008153 13.632345,17.412316 13.2575729,17.1865095 L13.2575729,17.1865095 L13.2575729,17.1865095 Z" id="path162" fill="#FFFFFF"></path>
        <path d="M12.290603,17.412316 C12.1765778,17.5374913 12.0779628,17.6880874 12.027805,17.8258854 C12.0553646,18.1866849 12.137535,18.5404717 12.2741584,18.8693637 C12.4301367,19.2466428 12.6559607,19.5906119 12.9523141,19.8747985 C12.9899894,19.9107382 13.0290147,19.9470285 13.0680575,19.9806891 C13.1557152,19.9431715 13.2950736,19.9431715 13.2310483,19.8302683 C12.8923913,19.3926807 12.4162692,17.6880874 12.290603,17.412316 L12.290603,17.412316 L12.290603,17.412316 Z" id="path170" fill="#FFFFFF"></path>
        <path d="M14.235167,17.8258857 C14.235167,18.4151214 14.3105001,19.0544972 14.0720008,19.5541466 C14.0362189,19.6672251 13.984343,19.9680667 14.210167,19.9305491 L14.2212995,19.8302686 C14.5750162,19.5420498 14.7116396,19.0416992 14.7491221,18.5529194 C14.6614643,18.2394552 14.7866221,17.4373864 14.235167,17.8258857 L14.235167,17.8258857 L14.235167,17.8258857 Z" id="path174" fill="#FFFFFF"></path>
        <path d="M10.7980178,20.5250435 C10.5692836,20.7327925 10.2977548,20.9207307 9.69323168,20.9207307 L8.977576,22.5031291 L9.73516717,22.5031291 C10.0277688,22.5031291 10.5484035,22.1922946 10.9858334,21.6716073 C11.4229301,21.1505695 12.5761735,19.8930309 12.5761735,19.8930309 L12.1070641,19.224202 C12.1070641,19.224202 11.0277864,20.3178205 10.7980178,20.5250435 L10.7980178,20.5250435 L10.7980178,20.5250435 Z" id="path178" fill="#FFFFFF"></path>
        <polygon id="path182" fill="#FFFFFF" points="2.687447 22.5041812 3.70836215 22.5041812 4.58886706 20.920731 3.56779413 20.920731 2.687447 22.5041812"></polygon>
        <path d="M21.9582917,8.76457719 C21.813481,8.90959823 14.8968786,16.1656466 14.8968786,16.1656466 C14.8561353,16.2185919 14.847913,16.2729397 14.860413,16.3258851 C14.8968786,16.4845456 15.1251044,16.6279538 15.3089754,16.671432 C15.4009109,16.6922946 15.4815561,16.688087 15.5205287,16.6488163 C15.6670925,16.5043563 21.9582917,9.52628827 22.2856058,9.1266915 C22.6127447,8.72828687 22.1043295,8.619749 21.9582917,8.76457719 L21.9582917,8.76457719 L21.9582917,8.76457719 Z" id="path186" fill="#FFFFFF"></path>
        <path d="M25.1544693,5.82565699 C25.4444412,5.5347734 24.9721411,5.426218 24.8636207,5.49848308 C24.7545744,5.57073062 24.6448269,5.67961912 24.4637259,5.86212263 C24.0112364,6.31445433 24.5904791,6.38703497 25.1544693,5.82565699 L25.1544693,5.82565699 L25.1544693,5.82565699 Z" id="path190" fill="#FFFFFF"></path>
        <path d="M21.5096592,7.79383833 L21.3566088,7.45107886 C21.3566088,7.45107886 20.669547,7.64180467 19.6392174,7.06929415 C19.4707392,6.97462374 19.6783128,6.53479205 19.6783128,6.53479205 C19.6783128,6.53479205 19.613972,6.44559148 19.5080814,6.353656 L18.6727027,6.353656 C18.2742104,6.74913286 18.8452132,7.04019177 19.0292946,7.26037059 C19.130627,7.38158377 19.9035933,8.25062304 20.7491403,9.66000242 C21.1727027,9.21589303 21.4972118,8.87432571 21.6614825,8.70313005 L21.5096592,7.79383833 L21.5096592,7.79383833 L21.5096592,7.79383833 Z" id="path194" fill="#D0BD7F"></path>
        <path d="M19.253523,18.5099664 L19.3285581,19.286965 L19.9498764,18.2059692 C19.9235791,18.2059692 19.8965805,18.2059692 19.869056,18.204742 C19.869056,18.204742 19.253523,18.5099664 19.253523,18.5099664 L19.253523,18.5099664 L19.253523,18.5099664 Z" id="path198" fill="#D0BD7F"></path>
        <path d="M11.989796,18.9706967 L12.0039966,18.9568467 C11.705925,18.3094063 11.7016474,17.7089505 11.7016474,17.7089505 C11.7016474,17.7089505 11.4355884,17.0615101 11.5501396,16.9082844 C11.5501396,16.9082844 10.6708093,16.1838804 10.9385863,15.3065663 L10.6708093,14.8872815 C10.4426011,14.4679968 8.03714877,10.9205915 8.8784531,9.3201532 C8.8784531,9.3201532 9.45080582,8.6710999 9.03031145,7.83133833 C8.61102671,6.9927689 8.19054985,7.29802837 7.88544821,7.45107886 C7.58018873,7.60277942 5.13758704,9.05290214 5.13758704,9.05290214 L5.78664034,7.56527942 C5.78664034,7.56527942 4.56525184,8.746433 4.22094959,9.16692739 C4.22094959,9.16692739 3.95524132,7.56527942 4.68080233,6.8395431 C4.84346011,6.67688531 5.00936123,6.51115951 5.16805689,6.353656 L1.897843,6.353656 L10.2712126,20.5695746 C10.4217035,20.5085649 10.5275239,20.424764 10.6251046,20.3355284 C10.8464755,20.1349674 11.9788388,18.9819169 11.989796,18.9706967 L11.989796,18.9706967 L11.989796,18.9706967 Z" id="path206" fill="#D0BD7F"></path>
        <path d="M24.8758927,6.353656 C24.8439853,6.37008307 24.8134803,6.38549331 24.7812223,6.39936077 C24.9805561,6.60584745 25.2980526,7.04566161 25.1348338,7.64180467 C25.1348338,7.64180467 25.1348338,8.06108938 24.9065729,8.06108938 C24.9065729,8.06108938 24.9440904,9.01368405 24.3718604,8.8996588 C24.3718604,8.8996588 24.448298,10.1962226 22.9220007,9.70039513 C22.9220007,9.70039513 22.6043289,9.67933973 22.2868324,9.51789162 C22.0780315,9.75313005 21.7284523,10.1475901 21.293845,10.6336525 C21.7575547,11.5251147 22.2032069,12.5626322 22.5347286,13.7131406 L26.7701774,6.353656 L24.8758927,6.353656 L24.8758927,6.353656 L24.8758927,6.353656 Z" id="path210" fill="#D0BD7F"></path>
        <path d="M17.9984388,17.1756402 C17.9609213,17.0615098 16.3201429,16.642155 16.1278218,16.526622 C16.1278218,16.526622 15.7714052,16.5892097 16.0527867,16.8704158 C16.3576605,17.1756402 16.3201429,17.6339151 16.0903042,18.2424355 L15.822948,18.3188731 C15.822948,18.3188731 15.2896205,19.3106332 14.9470363,19.1586346 C14.9470363,19.1586346 14.4873589,20.1503948 13.9150062,20.1880876 C13.5332215,20.2131578 13.2014192,20.289946 12.8186001,20.0197847 C12.5568189,20.3050231 11.5556093,21.3928562 11.1820469,21.8358787 C11.150192,21.8749741 11.1181794,21.9123163 11.084624,21.9486066 L14.478786,27.7133331 L17.3702832,22.6893149 L15.2923729,22.6893149 L15.3105181,22.480514 C15.3326079,22.1994831 15.5122888,21.8805842 15.631854,21.6965028 C15.631854,21.5615098 15.6670924,20.6463625 16.5860966,20.6463625 C16.5860966,20.6463625 17.5399887,20.6072672 17.6556969,20.4931367 C17.770178,20.3790063 17.6935651,19.6158576 17.6935651,19.6158576 L17.9984388,19.6158576 C17.9984388,19.6158576 17.9984388,18.9680666 17.8843084,18.5865799 C17.770178,18.2047426 17.6556969,17.7480456 17.6935651,17.5949951 C17.7310826,17.4428212 18.0375342,17.2895954 17.9984388,17.1756402 L17.9984388,17.1756402 L17.9984388,17.1756402 Z" id="path218" fill="#D0BD7F"></path>
        <path d="M24.7215984,11.1267258 L24.544705,11.662946 C24.544705,11.662946 25.0262969,11.8231845 25.1865353,11.8760947 C25.1865353,11.9736754 25.1837303,12.1698885 25.1823277,12.327392 C25.0278747,12.313174 24.8941089,12.3246571 24.7926012,12.3703619 C24.4482814,12.5235877 24.5627625,13.8579846 24.6393754,14.1252357 C24.7159883,14.3914524 24.7159883,14.5429776 24.676893,14.6962034 C24.6393754,14.8497798 24.6002801,14.8497798 24.3343263,14.8872798 C24.0653923,14.9247623 23.5320823,14.9247623 23.5320823,14.9247623 C23.341339,14.6962034 22.7312408,14.4679951 22.7312408,14.4679951 C22.7186181,14.4135421 22.7044175,14.3594398 22.6923207,14.306547 L27.5166545,5.9216943 L26.0710023,5.9216943 C26.215813,5.68081071 25.9651117,5.38154703 25.9651117,5.38154703 C25.9651117,5.38154703 25.9568719,5.27847901 25.6598873,5.01909963 C25.3159182,4.71981842 24.9887793,4.84104914 24.8509813,4.94958701 C24.749123,5.02783035 24.7871665,5.16959051 24.814691,5.24217116 C24.7812057,5.2533037 24.749123,5.2658037 24.7198453,5.28515853 C24.5904624,5.37160664 24.4749294,5.48734998 24.2824329,5.67961857 C24.264726,5.6974131 24.2492983,5.71436611 24.232468,5.73251127 C24.2019631,5.72977635 24.1811005,5.73524619 24.1811005,5.73524619 C24.1811005,5.23789346 23.3034708,5.00968518 23.3034708,5.00968518 C22.9219841,4.24764101 22.7296629,3.80198883 22.3104834,3.75062137 C21.8134638,3.69173287 21.3565914,4.09457298 21.3565914,4.09457298 C20.7841861,3.4453619 19.0667948,2.53181001 18.0375346,2.49276723 C17.006679,2.45528477 15.3646209,3.33254633 14.2588004,3.78931351 C13.1514196,4.24764101 12.7699855,3.37037943 12.5792597,3.17930299 C12.3881833,2.98857719 12.0834497,2.72132614 11.5109217,2.11098252 C10.9385865,1.500972 10.2518754,1.57767256 9.75606547,1.80623147 C9.25853744,2.03600005 8.76270992,2.3032511 7.99947358,2.79786891 C7.2364126,3.29385419 7.04568677,3.78931351 6.85462785,4.32314942 C6.66390208,4.85644185 6.16807456,5.35346148 6.16807456,5.35346148 C6.16807456,5.35346148 5.93267837,5.58887522 5.60001708,5.9216943 L1.140252,5.9216943 L9.82282563,20.6601585 C9.78089013,20.6629636 9.73911247,20.6643661 9.69323235,20.6643661 L3.41593573,20.6643661 L2.25036771,22.7620169 L9.0429869,22.7620169 L9.73516785,22.760439 C10.0221068,22.760439 10.4008235,22.5696957 10.7642878,22.2590365 L14.4830816,28.5728514 L17.868881,22.6892609 L20.7268579,22.6892609 L20.7268579,22.125446 L20.0501398,22.125446 C20.0205115,22.0362105 19.9649364,21.8607195 19.9174259,21.7131038 L20.0220893,21.7131038 L20.5180571,21.484843 C20.5180571,20.9122623 19.831346,20.1112455 19.831346,20.1112455 L19.7186181,19.47485 L20.5681973,17.9969924 C20.6684778,17.908458 20.7075732,17.8230793 20.7075732,17.8230793 C20.7075732,17.8230793 24.6393754,16.4510596 25.2114301,16.1463612 C25.7838355,15.8410667 25.8984918,14.8107371 25.8984918,14.8107371 C26.6614652,15.1154881 27.0042071,14.2772693 27.0042071,14.2772693 C27.0042071,14.2772693 27.2715633,14.3914524 27.959677,14.5054776 C28.6462127,14.621221 28.98913,14.2772693 29.0667948,14.0487105 C29.1018579,13.94289 29.1197401,13.8470274 29.1185129,13.7687841 C29.2170402,13.6965365 29.6518228,13.3731144 29.7996138,13.0277953 L29.8814862,12.8343345 L24.7215984,11.1267258 L24.7215984,11.1267258 L24.7215984,11.1267258 Z M24.4637092,5.86212207 C24.6448102,5.67961857 24.7545578,5.57073006 24.863604,5.49848252 C24.9721244,5.42621744 25.4444245,5.53477284 25.1544525,5.82565643 C24.5904624,6.3870344 24.0112198,6.31445377 24.4637092,5.86212207 L24.4637092,5.86212207 L24.4637092,5.86212207 Z M24.5750346,6.4664699 C24.814691,6.78543905 24.9931622,7.13212558 25.015252,7.54303021 L24.4526643,6.55412768 L24.4901819,6.47742711 C24.5182324,6.47641031 24.5459322,6.47195729 24.5750346,6.4664699 L24.5750346,6.4664699 L24.5750346,6.4664699 Z M24.3132885,6.80358421 C24.5390949,7.19222376 24.952489,7.54303021 24.9402169,7.98063537 C24.9023488,8.03079319 24.8162688,7.99432752 24.7645507,8.00546008 L24.1628677,7.10439068 L24.3132885,6.80358421 L24.3132885,6.80358421 L24.3132885,6.80358421 Z M23.4095367,8.04448534 L23.6488425,8.09464311 C23.7992632,8.41925744 24.1127275,8.70740608 24.0625872,9.12120344 L23.8494035,9.08200287 C23.6740879,8.75756385 23.3981412,8.41925744 23.4095367,8.04448534 L23.4095367,8.04448534 L23.4095367,8.04448534 Z M23.5985269,9.29532682 L23.5864301,9.68533384 C22.9847471,9.64750074 22.6712829,8.90787944 22.5192842,8.4065821 C22.5820472,8.23126655 22.8828887,8.28144184 23.0348873,8.26876655 C23.348001,8.56957297 23.471949,8.91901195 23.5985269,9.29532682 L23.5985269,9.29532682 L23.5985269,9.29532682 Z M23.8371314,7.66834577 C23.8494035,7.57949584 23.9374119,7.50570552 24.0250697,7.50570552 C24.2382534,7.76850358 24.5012267,8.10577563 24.413569,8.46925742 C24.0625872,8.4065821 24.0625872,7.93046008 23.8371314,7.66834577 L23.8371314,7.66834577 L23.8371314,7.66834577 Z M24.0625872,6.50277774 C23.9623067,7.06655753 23.6100977,7.60586332 23.1088705,7.88030231 C22.9332043,7.93046008 22.795231,7.93046008 22.7215984,7.75635421 C23.0096419,7.24068097 23.3357289,6.69075111 23.8620262,6.33978687 C23.9374119,6.36461153 24.0487373,6.41476935 24.0625872,6.50277774 L24.0625872,6.50277774 L24.0625872,6.50277774 Z M23.3981412,5.48854213 C23.6100977,5.43717466 23.8494035,5.56387523 23.8746489,5.73799865 C23.9875521,6.1266382 23.5485619,6.1016382 23.3732464,6.36461153 C22.9081342,6.76575111 22.7340458,7.31599655 22.394109,7.74367887 C22.2312408,7.74367887 22.0806447,7.73100358 21.9693193,7.60586332 C22.068022,6.79090887 22.6211426,6.0013051 23.3981412,5.48854213 L23.3981412,5.48854213 L23.3981412,5.48854213 Z M15.520529,16.6488156 C15.4815564,16.6880863 15.4009112,16.6922939 15.3089757,16.6714313 C15.1251047,16.627953 14.8968789,16.4845449 14.8604133,16.3258844 C14.8479133,16.272939 14.8561356,16.2185912 14.8968789,16.1656459 C14.8968789,16.1656459 21.8134638,8.90959752 21.9582744,8.7645765 C22.1043123,8.61974831 22.6127275,8.72828618 22.2855886,9.12669077 C21.9582744,9.52628758 15.6670928,16.5043556 15.520529,16.6488156 L15.520529,16.6488156 L15.520529,16.6488156 Z M16.052787,17.4636824 L15.9900241,17.6631915 L15.7529974,17.625148 L15.7894631,17.2741663 C15.9162163,17.236824 15.9663565,17.3872448 16.052787,17.4636824 L16.052787,17.4636824 L16.052787,17.4636824 Z M15.3144455,18.5767609 C15.1127625,18.552918 15.1750872,18.3271115 15.0874294,18.2019362 C15.2880781,17.90127 14.9872716,17.3996922 15.2754203,17.1239208 C15.4758937,17.086228 15.5261391,17.3258843 15.5640073,17.437385 C15.488569,17.8136123 15.7156552,18.3900498 15.3144455,18.5767609 L15.3144455,18.5767609 L15.3144455,18.5767609 Z M12.0526293,16.4361578 C11.9397962,16.5850007 11.7644806,16.5348605 11.6139897,16.5737805 C11.4260164,16.2841592 11.1375171,16.0348605 11.1501924,15.6587385 C11.1626924,15.5082476 11.2255255,15.3705898 11.3131833,15.2449236 C11.72528,15.5221151 11.9009287,16.0097904 12.0526293,16.4361578 L12.0526293,16.4361578 L12.0526293,16.4361578 Z M11.8394806,14.7578444 C12.5556272,14.5429776 12.1765774,15.5082476 12.4399014,15.8467118 C12.4035935,15.9468521 12.253278,15.9093696 12.1904448,15.8845449 C12.1027871,15.4582476 11.375841,15.1838086 11.8394806,14.7578444 L11.8394806,14.7578444 L11.8394806,14.7578444 Z M11.8144806,17.0111929 C12.1027871,16.5850007 12.5556272,16.2978339 13.0807148,16.3605968 L13.1947401,16.5487104 L13.1810479,16.7369994 C12.6278747,16.6475884 12.253278,17.0615085 11.8394806,17.3746221 C11.8019806,17.2741663 11.7518228,17.1381214 11.8144806,17.0111929 L11.8144806,17.0111929 L11.8144806,17.0111929 Z M12.5915844,14.7578444 C12.605785,14.6686438 12.7170753,14.630986 12.7811005,14.6934685 C12.955224,14.9066172 12.8802415,15.2200989 12.9314336,15.4834229 C12.8548908,15.5335807 12.7811005,15.5335807 12.7170753,15.4707476 C12.5792597,15.2702567 12.5039266,14.9942749 12.5915844,14.7578444 L12.5915844,14.7578444 L12.5915844,14.7578444 Z M12.2906026,17.4123149 C12.4162688,17.6880863 12.8923908,19.392627 13.2310479,19.8302146 C13.2950732,19.9431179 13.1557148,19.9431179 13.068057,19.9806354 C13.0290143,19.9469748 12.989989,19.9106845 12.9523137,19.8747448 C12.6559603,19.5905582 12.4301363,19.2465891 12.274158,18.8693626 C12.1375346,18.5404706 12.0553642,18.1866838 12.0278046,17.8258844 C12.0779624,17.6880863 12.1765774,17.5374902 12.2906026,17.4123149 L12.2906026,17.4123149 L12.2906026,17.4123149 Z M12.6559603,17.2119292 C12.8174084,17.086228 13.0428817,17.1239208 13.2575732,17.1865085 C13.6323453,17.4123149 13.7590458,17.8008142 13.8841861,18.2019362 C13.8340283,18.8274622 13.9216861,19.2786719 13.7463705,19.8428373 C13.4703887,19.8302146 12.7811005,17.9259895 12.6559603,17.2119292 L12.6559603,17.2119292 L12.6559603,17.2119292 Z M13.5695122,15.9969923 C13.443846,16.0599306 13.2575732,15.9848955 13.2575732,15.8343871 C13.2698979,15.4443801 13.1430395,14.9694503 13.2950732,14.682336 C13.7463705,14.9066172 13.4703887,15.5821957 13.5695122,15.9969923 L13.5695122,15.9969923 L13.5695122,15.9969923 Z M13.5205465,16.7618941 C13.4830641,16.5487104 13.6823453,16.4472027 13.8592036,16.4109124 C14.0598523,16.4361578 14.335501,16.3981143 14.3728081,16.6475884 C14.4467737,16.9498324 14.1475101,17.1128759 13.9216861,17.2620695 C13.6962127,17.1865085 13.5821875,16.9861228 13.5205465,16.7618941 L13.5205465,16.7618941 L13.5205465,16.7618941 Z M14.1850101,15.9093696 C14.0958095,16.0224131 13.9453186,15.9584229 13.8467036,15.9347203 C13.7826608,15.5821957 13.7590458,15.2327743 13.7826608,14.8455022 C14.3479834,14.8316347 14.0958095,15.54573 14.1850101,15.9093696 L14.1850101,15.9093696 L14.1850101,15.9093696 Z M14.0720016,19.5540926 C14.310501,19.0544432 14.2351679,18.41512 14.2351679,17.8258844 C14.786623,17.437385 14.6614652,18.2394538 14.749123,18.552918 C14.7116405,19.0416452 14.5750171,19.5419958 14.2213004,19.8302146 L14.2101678,19.9304952 C13.9843439,19.9680127 14.0362198,19.6671712 14.0720016,19.5540926 L14.0720016,19.5540926 L14.0720016,19.5540926 Z M14.5988074,16.1363682 C14.4229834,15.8845449 14.4731412,15.5335807 14.4858165,15.2074236 C14.749123,15.1589839 14.6236321,15.4582476 14.7364652,15.5821957 C14.6862899,15.771554 14.8119561,16.0850008 14.5988074,16.1363682 L14.5988074,16.1363682 L14.5988074,16.1363682 Z M14.523299,17.3371045 C14.523299,17.1381214 14.5359743,16.8609475 14.749123,16.8120344 C14.8869561,16.7871396 14.8506482,16.9498324 14.9008235,17.0236403 C14.8869561,17.2005337 14.8869561,17.3996922 14.749123,17.4999727 C14.6489652,17.5127707 14.5486496,17.437385 14.523299,17.3371045 L14.523299,17.3371045 L14.523299,17.3371045 Z M21.7671805,8.26876655 L21.8050486,8.11827566 C22.0261215,8.06931 22.1281552,8.28691171 22.1907429,8.44835981 C22.064165,8.43843692 21.9346068,8.46771465 21.8355536,8.53482542 C21.798036,8.45830021 21.7896209,8.35095445 21.7671805,8.26876655 L21.7671805,8.26876655 L21.7671805,8.26876655 Z M22.4945648,4.03449234 C22.6072927,4.23496569 22.7088004,4.42328967 22.7699855,4.62395587 C22.4945648,4.66143834 22.4316265,4.28514101 22.2827835,4.1348079 C22.2563109,3.99699234 22.4190038,3.98431702 22.4945648,4.03449234 L22.4945648,4.03449234 L22.4945648,4.03449234 Z M21.8927064,4.07351758 C22.2061707,4.46078967 22.469144,4.86192922 22.7578888,5.25039346 C22.6949505,5.37605966 22.5946699,5.2868591 22.5445297,5.23670131 C22.2827835,4.91208701 21.9302239,4.58594745 21.6293824,4.26031632 C21.6548032,4.1348079 21.7798032,4.07351758 21.8927064,4.07351758 L21.8927064,4.07351758 L21.8927064,4.07351758 Z M21.4540669,4.51094745 L22.4833446,5.68903301 C22.5082394,5.83831422 22.3187233,5.83831422 22.2436882,5.78934858 C21.9177765,5.33822656 21.466339,5.03724479 21.078015,4.64878055 C21.1532253,4.51094745 21.3159182,4.42328967 21.4540669,4.51094745 L21.4540669,4.51094745 L21.4540669,4.51094745 Z M21.065217,5.0124201 L22.0934428,5.88848953 C22.1560304,5.97769009 22.1197401,6.1391382 21.9929869,6.1266382 C21.5653922,5.70049865 21.0529449,5.47621744 20.5890599,5.12541099 C20.6640949,4.87460454 20.9026994,4.84925391 21.065217,5.0124201 L21.065217,5.0124201 L21.065217,5.0124201 Z M20.3622015,5.46371744 C20.9026994,5.66420833 21.3660585,6.05148042 21.867461,6.33978687 C21.9554694,6.45260245 21.8299435,6.59043552 21.7422856,6.60309334 L20.2617457,5.80202389 C20.249123,5.67686611 20.2745437,5.55018308 20.3622015,5.46371744 L20.3622015,5.46371744 L20.3622015,5.46371744 Z M20.1879378,6.1266382 C20.6877625,6.30228687 21.1406026,6.60309334 21.6044876,6.84108421 C21.6921454,6.916242 21.5918649,7.02905753 21.5042071,7.05440816 C21.0266475,6.85374198 20.6139547,6.55412768 20.1125521,6.40244463 C20.0359393,6.33978687 20.1251748,6.20195377 20.1879378,6.1266382 L20.1879378,6.1266382 L20.1879378,6.1266382 Z M19.923562,6.69075111 C20.3622015,6.81590889 20.7633235,7.02905753 21.1781202,7.21585631 C20.6767176,7.22954845 20.2128327,7.16568097 19.8855185,6.80358421 L19.923562,6.69075111 L19.923562,6.69075111 L19.923562,6.69075111 Z M18.6726854,6.35365432 L19.508064,6.35365432 C19.6139547,6.44558981 19.6782955,6.53479035 19.6782955,6.53479035 C19.6782955,6.53479035 19.4707218,6.97462205 19.6392001,7.06929247 C20.6695297,7.64180298 21.3565914,7.45107721 21.3565914,7.45107721 L21.5096419,7.79383665 C21.5096419,7.79383665 21.5096419,7.79383665 21.6614652,8.70312837 C21.4971945,8.87432405 21.1726854,9.21589137 20.749123,9.66000077 C19.903576,8.25062139 19.1306097,7.38158211 19.0292773,7.2603689 C18.8451959,7.0401901 18.2742106,6.74913121 18.6726854,6.35365432 L18.6726854,6.35365432 L18.6726854,6.35365432 Z M11.0151118,7.87037942 C11.4828537,7.12665571 14.1447751,4.85644185 17.9984392,8.82434158 C18.6656903,9.50966763 19.2242281,10.1614559 19.6877625,10.7730092 C18.1753326,12.3604391 16.250543,14.3842644 15.3688986,15.3092995 C14.9425837,15.0795309 14.5082394,14.822904 14.0680746,14.5429776 C10.7098523,12.4078619 9.90774852,9.62523566 11.0151118,7.87037942 L11.0151118,7.87037942 L11.0151118,7.87037942 Z M8.00513627,3.40907158 C8.2071524,3.30205896 8.4579764,3.3842469 8.60006966,3.5749727 C8.4579764,3.81294605 8.14722958,4.00400496 8.17086208,4.2769187 C8.39787823,4.44383666 8.77966292,4.46764451 8.86304303,4.78933105 C8.92177374,4.96773217 8.8854659,5.1822483 8.76700515,5.3243591 L8.48159139,5.34951688 C8.60006966,5.21855615 8.63602689,5.01515503 8.57643711,4.86038645 C8.46893361,4.75339136 8.37424568,4.58594745 8.19619519,4.64757088 C7.88544837,4.65870342 7.95650376,5.20588083 7.67110752,4.99154002 C7.80173516,4.48014451 7.96917905,3.96771464 8.00513627,3.40907158 L8.00513627,3.40907158 L8.00513627,3.40907158 Z M6.62640208,5.39096148 C7.38844626,6.1545309 7.73222255,6.99276721 7.73222255,6.99276721 C7.58018889,7.37455195 5.90082353,8.13642082 5.90082353,8.13642082 L6.89365311,6.30623147 L4.41321834,8.44288994 C4.41321834,8.44288994 4.45070081,7.45107721 4.75580249,7.10730087 C5.0622541,6.76454144 6.62640208,5.39096148 6.62640208,5.39096148 L6.62640208,5.39096148 L6.62640208,5.39096148 Z M1.89784317,6.35365432 L5.16805705,6.35365432 C5.0093614,6.51115785 4.84346027,6.67688366 4.68080249,6.83954144 C3.95524148,7.56527777 4.22094975,9.16692571 4.22094975,9.16692571 C4.565252,8.74643134 5.7866405,7.56527777 5.7866405,7.56527777 L5.1375872,9.05290045 C5.1375872,9.05290045 7.58018889,7.60277777 7.88544837,7.45107721 C8.19055002,7.29802669 8.61102687,6.99276721 9.03031161,7.83133665 C9.45080598,8.67109824 8.87845326,9.32015153 8.87845326,9.32015153 C8.03714894,10.9205898 10.4426012,14.4679951 10.6708095,14.8872798 L10.9385865,15.3065646 C10.6708095,16.1838787 11.5501398,16.9082827 11.5501398,16.9082827 C11.4355886,17.0615085 11.7016475,17.7089489 11.7016475,17.7089489 C11.7016475,17.7089489 11.7059252,18.3094047 12.0039967,18.9568451 L11.9897962,18.970695 C11.978839,18.9819152 10.8464757,20.1349131 10.6251047,20.3354741 C10.5275241,20.4247097 10.4217036,20.5085106 10.2712127,20.5695204 L1.89784317,6.35365432 L1.89784317,6.35365432 L1.89784317,6.35365432 Z M3.7083621,22.5041277 L2.68744695,22.5041277 L3.56779408,20.9206775 L4.58886701,20.9206775 L3.7083621,22.5041277 L3.7083621,22.5041277 L3.7083621,22.5041277 Z M9.73516785,22.5030758 L8.97757669,22.5030758 L9.69323235,20.9206775 C10.2977555,20.9206775 10.5692843,20.7327392 10.7980185,20.5249902 C11.0277871,20.3177672 12.1070648,19.2241487 12.1070648,19.2241487 L12.5761741,19.8929776 C12.5761741,19.8929776 11.4229308,21.1505162 10.985834,21.6715541 C10.5484042,22.1922413 10.0277695,22.5030758 9.73516785,22.5030758 L9.73516785,22.5030758 L9.73516785,22.5030758 Z M14.4787863,27.7132791 L11.0846244,21.9485526 C11.1181798,21.9122623 11.1501924,21.8749201 11.1820472,21.8358247 C11.5556097,21.3928023 12.5568193,20.3049692 12.8186005,20.0197307 C13.2014196,20.2898921 13.5332219,20.2131038 13.9150065,20.1880337 C14.4873593,20.1503409 14.9470367,19.1585807 14.9470367,19.1585807 C15.2896209,19.3105793 15.8229483,18.3188717 15.8229483,18.3188717 L16.0903046,18.2424341 C16.3201433,17.6339138 16.3576608,17.1756389 16.052787,16.8704145 C15.7714056,16.5892083 16.1278221,16.5266206 16.1278221,16.5266206 C16.3201433,16.6421536 17.9609217,17.0615085 17.9984392,17.1756389 C18.0375346,17.289594 17.731083,17.4428198 17.6935655,17.5949938 C17.6556973,17.7480442 17.7701784,18.2047413 17.8843088,18.5865786 C17.9984392,18.9680653 17.9984392,19.6158037 17.9984392,19.6158037 L17.6935655,19.6158037 C17.6935655,19.6158037 17.7701784,20.3789524 17.6556973,20.4930828 C17.539989,20.6072132 16.586097,20.6463086 16.586097,20.6463086 C15.6670928,20.6463086 15.6318544,21.5614559 15.6318544,21.6964488 C15.5122891,21.8805302 15.3326083,22.1994292 15.3105185,22.4804601 L15.2923733,22.6892609 L17.3702835,22.6892609 L14.4787863,27.7132791 L14.4787863,27.7132791 L14.4787863,27.7132791 Z M17.931644,21.7131038 L17.7533481,22.0225358 C17.7228432,21.9361052 17.681118,21.8191697 17.6418474,21.7131038 L17.931644,21.7131038 L17.931644,21.7131038 L17.931644,21.7131038 Z M16.9118333,21.7131038 C16.8676538,21.8538823 16.8159357,22.0127181 16.7910409,22.0947658 L16.5079063,22.0947658 C16.4703887,22.0307757 16.3785234,21.86931 16.2908656,21.7131038 L16.9118333,21.7131038 L16.9118333,21.7131038 L16.9118333,21.7131038 Z M15.9719666,21.3524797 C15.9063986,21.270432 15.9761742,21.1073885 16.1251924,20.9901024 C16.2754379,20.8733423 16.4495262,20.8466943 16.513867,20.9304951 C16.5790844,21.0127182 16.5096594,21.1755863 16.3602906,21.2911193 C16.211623,21.4080547 16.0375346,21.4347027 15.9719666,21.3524797 L15.9719666,21.3524797 L15.9719666,21.3524797 Z M19.9081342,22.3174166 L20.5334848,22.3174166 L20.5334848,22.4974657 L15.5024715,22.4974657 C15.5261391,22.2088963 15.7617632,21.8440646 15.8522261,21.7131038 L16.069442,21.7131038 L16.395529,22.2881389 L16.931644,22.2881389 L17.1139722,21.7131038 L17.4356762,21.7131038 L17.6462303,22.2881389 L19.2535059,22.2881389 L19.4177765,21.7131038 L19.715813,21.7131038 L19.9081342,22.3174166 L19.9081342,22.3174166 L19.9081342,22.3174166 Z M18.2100451,22.0947658 L18.4302415,21.7131038 L19.2170402,21.7131038 C19.1781202,21.8496747 19.1323628,22.0099131 19.1085199,22.0947658 L18.2100451,22.0947658 L18.2100451,22.0947658 L18.2100451,22.0947658 Z M19.3285409,19.2869117 L19.2535059,18.5099657 L19.8690388,18.2047413 C19.8965634,18.2059685 19.923562,18.2059685 19.9498593,18.2059685 L19.3285409,19.2869117 L19.3285409,19.2869117 L19.3285409,19.2869117 Z M21.2812057,16.4889278 C20.6849575,17.168451 18.8467738,16.9431705 16.5640073,15.9066347 C17.4440914,14.9319503 19.0292773,13.1654531 20.3395858,11.7019713 C21.9023488,14.1281459 21.870266,15.8146992 21.2812057,16.4889278 L21.2812057,16.4889278 L21.2812057,16.4889278 Z M21.2938284,10.6336508 C21.7284357,10.1475884 22.078015,9.75312837 22.2868158,9.51788995 C22.6043123,9.67933805 22.9219841,9.70039345 22.9219841,9.70039345 C24.4482814,10.196221 24.3718439,8.89965711 24.3718439,8.89965711 C24.9440739,9.01368237 24.9065564,8.06108773 24.9065564,8.06108773 C25.1348172,8.06108773 25.1348172,7.64180298 25.1348172,7.64180298 C25.298036,7.04565992 24.9805395,6.60584579 24.7812057,6.39935908 C24.8134638,6.38549163 24.8439687,6.3700814 24.8758761,6.35365432 L26.7701609,6.35365432 L22.534712,13.7131389 C22.2031903,12.5626305 21.7575381,11.525113 21.2938284,10.6336508 L21.2938284,10.6336508 L21.2938284,10.6336508 Z M26.4708972,12.7131214 C26.2715634,12.6309334 26.0697751,12.5544082 25.8748242,12.4888402 C25.9486321,12.3814944 26.0278747,12.2657511 26.0725802,12.1989909 C26.2787513,12.2688367 27.1377976,12.5516732 27.3315213,12.6167329 C27.3343263,12.7047238 27.3397611,12.8800393 27.3443193,13.0332826 C26.9971945,12.9136123 26.6768929,12.7980442 26.4708972,12.7131214 L26.4708972,12.7131214 L26.4708972,12.7131214 Z M28.2699855,14.1962911 C28.0864301,14.2394362 27.9161987,14.1935386 27.8927064,14.0904706 C27.8676363,13.9886123 27.9971945,13.8690996 28.1811005,13.8244292 C28.3648312,13.7799166 28.5361145,13.8271641 28.5597822,13.9302322 C28.5850276,14.0320905 28.4556447,14.1517785 28.2699855,14.1962911 L28.2699855,14.1962911 L28.2699855,14.1962911 Z M28.02805,13.2645765 C28.1167597,13.1418205 28.2198453,13.00127 28.2733165,12.9274797 C28.3762268,12.9622273 28.4512618,12.9874026 28.5404974,13.0166627 C28.5559252,13.0916627 28.5934427,13.2811789 28.6281552,13.4607721 C28.4595016,13.4066873 28.2521033,13.3385421 28.02805,13.2645765 L28.02805,13.2645765 L28.02805,13.2645765 Z M29.0308551,13.5919257 C29.0292772,13.5919257 29.0292772,13.5903829 29.02805,13.5903829 C29.0084147,13.5847378 28.9398663,13.562648 28.8385339,13.5290926 L28.709151,12.8690821 L28.1995087,12.700446 L27.8369561,13.200709 C27.7382534,13.1671536 27.6379729,13.1335982 27.5389196,13.1003935 L27.5210374,12.4761648 L25.9943895,11.9707651 L25.6825031,12.428742 C25.5750346,12.3984475 25.4721244,12.3730968 25.3744736,12.3549517 L25.3814862,11.7367364 L24.7883937,11.5405232 L24.8439687,11.3703444 L29.6227204,12.9510947 C29.5057849,13.2255337 29.1493684,13.5054601 29.0308551,13.5919257 L29.0308551,13.5919257 L29.0308551,13.5919257 Z" id="path222" fill="#000000"></path>
    </g>
</svg>