<?xml version="1.0" encoding="UTF-8"?>
<svg width="30px" height="30px" viewBox="0 0 30 30" version="1.1" xmlns="http://www.w3.org/2000/svg" xmlns:xlink="http://www.w3.org/1999/xlink">
    <!-- Generator: Sketch 50.2 (55047) - http://www.bohemiancoding.com/sketch -->
    <title>predators</title>
    <desc>Created with Sketch.</desc>
    <defs></defs>
    <g id="predators" stroke="none" stroke-width="1" fill="none" fill-rule="evenodd">
        <path d="M9.5501746,11.7157399 C9.5501746,11.7157399 8.3923386,12.1847376 7.59675775,13.3849426 C7.95771445,13.2866738 8.3566666,13.1845782 8.79019735,13.0828242 C9.1441837,12.2610702 9.5501746,11.7157399 9.5501746,11.7157399" id="path244" fill="#FFFFFF"></path>
        <path d="M25.9818374,14.2166055 C26.7030675,14.4143731 27.2677373,14.670979 27.2677373,14.670979 C27.2677373,14.670979 28.2457782,15.2898401 28.6827942,14.496651 L27.1889445,13.793462 C26.7711313,14.0355121 26.3611769,14.1622091 25.9818374,14.2166055" id="path246" fill="#FFFFFF"></path>
        <path d="M5.73525431,11.6806146 L11.0386939,10.4939403 C11.0386939,10.4939403 11.2484206,11.1756715 12.1529992,11.7225736 L12.1372133,11.8902729 C11.7172816,11.9751476 11.0584434,12.2452843 10.4298784,12.7382684 C11.3769627,12.5618219 12.4278511,12.4045782 13.5580789,12.294282 L13.8263705,11.6666738 C12.1628397,11.9107057 11.412908,10.4955804 11.412908,10.4955804 L11.285596,10.0633481 L1.63099463,12.2234164 C2.67258916,12.2955804 3.82106296,12.6268788 4.86709941,13.1603185 C5.11666661,12.3269472 5.73525431,11.6806146 5.73525431,11.6806146" id="path248" fill="#FFFFFF"></path>
        <path d="M21.9012907,14.327995 C21.4575777,14.549544 21.0733181,14.8524141 20.6387623,15.222733 L21.1400152,14.2808424 C21.1400152,14.2808424 19.8178967,14.2273344 18.5522931,14.2513207 L17.7257554,15.1604096 C17.417555,15.0670611 17.0921336,15.0147831 16.7547532,15.0071294 C16.7353455,14.5473572 16.9156871,14.0240998 17.3201746,13.5220952 C16.7848215,13.9259677 16.4610402,14.4438948 16.3935231,15.0178583 C16.157965,15.0361043 15.9282156,15.0771749 15.7063932,15.13861 C15.5904935,14.7561954 15.6033409,14.2854893 15.779924,13.7736442 C15.4680334,14.2491339 15.3393545,14.7529836 15.4038648,15.2360588 C15.1819741,15.3195667 14.9699923,15.4248743 14.7699013,15.5486328 C14.574867,15.2517763 14.4554821,14.856036 14.44653,14.3840314 C14.3339103,14.8675166 14.3652088,15.318405 14.5359832,15.7061499 C13.8294456,16.2326191 13.5109947,16.8696579 13.5109947,16.8696579 C11.26694,16.4652387 9.9083978,18.3430064 9.86063015,19.6607513 C9.7182839,18.7464005 10.0108352,17.129339 11.8182156,16.3596579 L12.4180789,14.957585 C12.4556644,14.8682 12.5045937,14.7896806 12.5635687,14.7192934 C10.547965,15.0953526 9.29835225,15.893872 9.29835225,15.893872 C9.29835225,15.893872 8.75541375,16.865831 8.98762335,17.8591795 C8.98762335,17.8591795 8.63336365,17.3774027 8.4241837,16.5572888 C8.33227025,16.6441453 8.255801,16.7234164 8.1977828,16.7868333 C8.27138185,17.0774711 8.3108124,17.3776077 8.3108124,17.6859449 C8.3108124,19.1549199 7.69673495,20.0796579 7.69673495,20.0796579 L9.75238415,20.4967878 C9.75238415,20.4967878 10.5297874,21.6278356 12.1987167,21.6278356 C12.726621,21.6278356 13.4205846,21.5694073 13.4205846,21.2327103 C13.4205846,20.9784278 12.7957099,20.633052 12.7957099,19.8963777 C12.7957099,18.7002046 14.2981701,17.4589973 15.9103113,16.9276761 C17.7942976,16.3071749 20.6719058,15.5842365 22.1198329,15.5842365 C26.226006,15.5842365 26.0906985,18.2950337 26.0906985,18.2950337 L26.2897645,18.2858766 C27.2037737,17.772118 28.0128853,17.6743959 28.2489901,17.6564232 C28.6447304,16.1834164 27.893432,14.8550109 21.9012907,14.327995" id="path250" fill="#FFFFFF"></path>
        <path d="M16.8789217,11.4521636 C16.0097418,11.4885873 15.3276689,11.8032114 14.8086484,12.1949198 C15.4888762,12.1534392 16.1926803,12.1310246 16.9143204,12.1325964 C17.2678283,11.6656488 17.4783067,11.1548287 17.4783067,10.6202957 C17.4783067,9.69863283 17.0063705,9.15863283 17.0063705,9.15863283 L19.2910174,8.65211802 L20.0015869,9.00056905 C20.0015869,9.00056905 18.3227486,9.64587656 18.3227486,11.465626 C18.3227486,11.724487 18.3608808,11.9593618 18.4208807,12.1716169 C19.6288762,12.2322319 20.8773272,12.3654893 22.146006,12.5953071 C22.146006,12.5953071 22.5558238,13.5909107 23.6853682,13.5909107 C24.2321336,13.5909107 24.6497418,13.2880406 24.6497418,13.2880406 C25.8741382,14.213462 26.9958238,13.7027786 26.9958238,13.7027786 L26.5760972,13.3543276 L26.1749582,13.5676077 L26.4243203,13.193667 L26.2710402,13.0194073 L25.7294001,13.2988378 L26.0686256,12.7846009 L25.9508808,12.6489517 L25.493842,12.8501362 L25.7558465,12.4040315 L25.5716097,12.1211157 C25.3997418,12.8748743 24.7274411,12.9649426 24.149719,12.9197718 L24.119719,12.5863549 C23.9946621,12.6646693 23.8461654,12.7102501 23.6874183,12.7102501 C23.2363249,12.7102501 22.8711313,12.3447148 22.8711313,11.8943731 C22.8711313,11.6364005 21.599514,10.4986556 21.599514,10.4986556 L23.2452088,11.0070839 C24.6245254,11.4333025 24.5641837,12.1174255 24.5799695,12.4884961 C24.8121792,12.5909335 25.3352998,12.665831 25.571678,12.1211841 L25.3976234,11.2153071 L24.3019742,10.6839176 L23.5495823,9.97990846 L19.3349582,8.27612714 L15.1864844,9.19635492 C16.1641154,9.43157133 16.9730219,9.94191302 16.9730219,9.94191302 C16.9730219,9.94191302 17.2835459,10.656446 16.8789217,11.4521636 L16.8789217,11.4521636 L16.8789217,11.4521636 Z M25.1354821,11.5906829 L24.9306757,12.3831886 C24.9306757,11.7833253 24.575801,11.4391795 23.5256644,10.8213435 L25.1354821,11.5906829 L25.1354821,11.5906829 L25.1354821,11.5906829 Z" id="path252" fill="#FFFFFF"></path>
        <path d="M5.42760055,13.4715257 C5.63001513,13.5937125 5.82621103,13.7239631 6.01523153,13.8611841 C6.18737276,13.8038492 6.39074406,13.7381089 6.6226803,13.6669699 C6.97953675,12.3024141 7.71040235,11.3972889 7.71040235,11.3972889 C6.19529987,11.9635303 5.55299918,13.200159 5.42760055,13.4715257" id="path254" fill="#FFFFFF"></path>
        <path d="M11.7122247,10.3574028 C11.7122247,10.3574028 12.31776,11.3881317 13.3972133,11.3881317 L14.5183522,11.3108424 L15.4393318,10.3484506 L16.6968716,10.1548515 C16.2308124,9.87255082 15.7051632,9.66904285 15.1689218,9.52444149 L14.117555,10.9928697 L14.7857554,9.43109297 C14.5904479,9.3884506 14.3956188,9.35264194 14.2029764,9.32291529 L13.2969628,10.5855121 L13.8578055,9.27542098 C13.6213591,9.24658272 13.3911997,9.22601324 13.1712224,9.21220914 L12.4782156,10.1785645 L12.8973956,9.19792668 C11.9188762,9.15685606 11.2042748,9.2360588 11.2042748,9.2360588 L11.4452316,9.44387201 L11.7122247,10.3574028 L11.7122247,10.3574028 L11.7122247,10.3574028 Z" id="path256" fill="#FFFFFF"></path>
        <path d="M13.1289217,20.033667 C13.2612908,20.6320953 13.6611997,20.8007513 13.6995367,21.0244187 C13.6995367,21.0244187 14.7385345,20.8105918 15.4285345,19.7838948 C14.0847532,20.4600907 13.1289217,20.033667 13.1289217,20.033667" id="path258" fill="#FFFFFF"></path>
        <path d="M25.2888315,17.5546007 C25.2888315,16.9688148 24.3192643,16.4070836 23.8623622,16.4070836 C21.9805627,16.4070836 22.0061891,20.4047373 15.3716789,23.7915255 C21.0222028,22.9752384 25.2888315,19.1317532 25.2888315,17.5546007" id="path268" fill="#FFFFFF"></path>
        <path d="M29.150016,14.158792 C29.115164,14.0743956 29.0510638,14.0059902 28.9689226,13.9663546 L27.3962119,13.2067874 L26.9110183,12.8338717 L26.2047541,11.957653 L25.9719295,10.9130517 C25.9492415,10.8110927 25.8847313,10.7238261 25.7942529,10.6724366 L24.6888998,10.0444184 L23.9935695,9.34621794 C23.9609043,9.31314277 23.9220889,9.28655963 23.8791731,9.2681086 L19.5517244,7.38596737 C19.4823623,7.35589903 19.406098,7.34783525 19.3324306,7.36232272 L13.4349363,8.5403865 C11.8292871,8.41498787 10.4222255,8.6163774 10.3626356,8.6248512 C10.0009271,8.68498787 9.99894535,9.07587625 10.1248223,9.2014799 L1.29785197,10.9649879 C1.20976542,10.9823455 1.13110938,11.0317533 1.07664469,11.1030972 L0.142612797,12.3311154 C-0.023309754,12.5495209 0.101747194,12.8827328 0.388763139,12.9203182 C0.453546738,12.928792 6.8381481,13.8028922 6.8381481,17.6754207 C6.8381481,19.1014799 5.85928705,20.5038945 5.8492415,20.5180402 C5.7077153,20.7184731 5.7936834,21.0412976 6.08493625,21.0937806 L9.69115495,21.7449651 C9.9642301,21.9630972 10.8819977,22.6077897 12.2175103,22.6077897 C13.7986264,22.6077897 14.2462346,22.0097714 14.348877,21.5197942 C15.1327039,21.186104 16.1181937,20.3953751 16.1181937,19.7578581 C16.1181937,19.3604093 15.7606538,19.0938262 15.4269636,19.0938262 C15.3888315,19.0938262 15.3547312,19.1075619 15.3184442,19.1134389 C15.3184442,19.1134389 15.1499932,18.8020266 14.7427723,18.8020266 C14.5687176,18.8020266 14.3794238,18.8894981 14.2319522,18.9522316 C14.5933873,18.5367418 15.1908588,18.0417077 16.1464169,17.7252384 C17.6201071,17.236423 19.5416105,16.8224366 20.5037973,16.6284959 C19.0411094,20.8796803 14.0313827,23.1128694 13.9784898,23.1355573 C13.6804033,23.2653295 13.7343896,23.6430972 13.8570547,23.7213432 L13.309196,23.9666735 C12.919606,24.1383364 13.0855285,24.7056029 13.4892643,24.671161 C18.7763714,24.2219127 22.664959,22.3709332 25.3727494,19.024874 L26.4619066,19.024874 C26.5253235,19.024874 26.5866902,19.0086781 26.6419066,18.9784731 C27.7071458,18.3834617 28.4227723,18.407653 28.4295376,18.4078581 C28.5761891,18.4146234 28.7155285,18.3339856 28.7800387,18.2027099 C29.3079431,17.129407 29.8764397,16.5606371 29.881975,16.5555118 C29.960426,16.4766508 30.0363486,16.3287009 29.9648679,16.1530061 L29.150016,14.158792 L29.150016,14.158792 L29.150016,14.158792 Z M28.4492871,18.0399309 C28.4492871,18.0399309 27.6543213,17.9912066 26.4619067,18.6559901 L25.4637062,18.6559901 L25.2798793,18.556628 C22.5824761,22.0369013 18.7390593,23.8547373 13.4580342,24.3040539 C13.4580342,24.3040539 15.2498338,23.5148968 16.2208361,23.0025049 L14.1255513,23.4742361 C14.1255513,23.4742361 19.8035468,21.011161 21.0444124,16.1468558 C21.0444124,16.1468558 18.1151412,16.6846007 16.0303121,17.375079 C13.9669408,18.0583819 13.4044579,19.5568785 13.4044579,19.5568785 C14.1394237,19.4886781 14.5186948,19.1711154 14.7428406,19.1711154 C15.0099705,19.1711154 15.1109727,19.4471974 15.0407222,19.6038262 C15.163934,19.5511382 15.315164,19.4626417 15.4270319,19.4626417 C15.5619978,19.4626417 15.7495832,19.577448 15.7495832,19.7577897 C15.7495832,20.2071746 14.7478976,21.0199765 14.0080115,21.2588147 C14.0080115,21.5333933 13.8999021,22.2389059 12.2175786,22.2389059 C10.7712916,22.2389059 9.8509955,21.3984275 9.8509955,21.3984275 L6.15026655,20.7307054 C6.15026655,20.7307054 7.20669025,19.2419127 7.20669025,17.6754207 C7.20669025,13.4278581 0.436052433,12.5543045 0.436052433,12.5543045 L1.37008433,11.3264913 L10.9162347,9.41961202 L10.4164169,8.9896348 C10.4164169,8.9896348 11.8551185,8.77840473 13.4609727,8.91118377 L19.4046629,7.72396282 L23.7329317,9.60624072 L24.4629773,10.3401815 L25.6122028,10.9927328 L25.8630001,12.1219355 L26.6514055,13.0994981 L27.201041,13.5223683 L28.8086037,14.2985414 L29.6233873,16.2926872 C29.6233873,16.2926872 29.0158019,16.8874252 28.4492871,18.0399309 L28.4492871,18.0399309 L28.4492871,18.0399309 Z" id="path270" fill="#FDBB30"></path>
        <path d="M27.2678057,14.6711158 C27.2678057,14.6711158 26.7030677,14.4142365 25.981906,14.2168105 C24.8615871,14.3774028 24.0088764,13.907175 24.0088764,13.907175 C23.0799014,13.907175 22.4459379,14.0564233 21.9013593,14.3279267 C27.8935005,14.8549426 28.6447989,16.1832114 28.248922,17.6563549 C28.2940244,17.6528697 28.3182842,17.652118 28.3182842,17.652118 C28.3182842,17.652118 28.723455,16.895831 29.1936144,16.3474256 C29.1936144,16.3474256 28.5835688,15.0682912 26.4427032,14.9618902 L27.2678057,14.6711158 L27.2678057,14.6711158 L27.2678057,14.6711158 Z" id="path280" fill="#FDBB30"></path>
        <path d="M8.7902659,13.0830292 C8.35673515,13.1847832 7.957783,13.2866738 7.59682625,13.3849426 C7.34944585,13.757995 7.1373274,14.2019814 7.0057101,14.7241454 C7.57933195,15.3311158 8.00589235,16.0268561 8.1981247,16.7873117 C8.2561429,16.7234848 8.33261215,16.644282 8.4245256,16.5574256 C8.3367124,16.2138265 8.2741839,15.8117991 8.2741839,15.3600224 C8.27411555,14.5183823 8.51664405,13.7178811 8.7902659,13.0830292" id="path282" fill="#FDBB30"></path>
        <path d="M22.1458696,12.5953071 C20.8771908,12.3651477 19.6288764,12.2318903 18.420676,12.1716169 C18.6592409,13.0179039 19.2534322,13.4802729 19.2534322,13.4802729 L18.5522932,14.2514575 C19.8180336,14.2273345 21.1398103,14.2809108 21.1398103,14.2809108 L20.6387625,15.2226647 L21.943455,13.7875167 L22.1458696,12.5953071 L22.1458696,12.5953071 L22.1458696,12.5953071 Z" id="path284" fill="#FDBB30"></path>
        <path d="M13.4578285,13.8820269 L12.8157329,14.0321636 L13.5582841,12.2942137 C12.4278514,12.4044415 11.376963,12.5617536 10.429947,12.7384051 C9.536234,13.4389973 8.7032044,14.5899996 8.7032044,16.2999996 C8.7032044,17.1572889 8.98782855,17.8591112 8.98782855,17.8591112 C8.755619,16.8657627 9.2985575,15.8938037 9.2985575,15.8938037 C9.2985575,15.8938037 10.5482385,15.0955577 12.5638422,14.7194984 C12.7050267,14.5509107 12.9108582,14.4328925 13.208603,14.3556032 C14.6553684,13.979954 16.1337739,13.1641454 16.9146623,12.1324597 C16.1928172,12.1310247 15.4889447,12.1531659 14.8087853,12.1946465 C13.8607443,12.9102046 13.4578285,13.8820269 13.4578285,13.8820269" id="path286" fill="#FDBB30"></path>
        <path d="M6.50117705,14.2445554 C6.53295385,14.0443276 6.5746395,13.8514119 6.6226805,13.666765 C6.39067595,13.7383139 6.18750965,13.8038492 6.0155051,13.8611841 C6.1835461,13.9833709 6.34584675,14.1109563 6.50117705,14.2445554" id="path288" fill="#FDBB30"></path>
        <path d="M23.7998331,12.4583595 C23.9714277,12.4583595 24.0982613,12.3776534 24.0982613,12.3776534 C24.0871224,12.3170383 24.0737283,12.2594985 24.0586941,12.2042821 C24.0167351,12.2307969 23.9571452,12.2571067 23.8863479,12.2571067 C23.7008126,12.2571067 23.5862112,12.1145554 23.5862112,11.9572433 C23.5862112,11.8235759 23.6779197,11.7026192 23.8089903,11.6684506 C23.6449128,11.4363777 23.4806303,11.3384506 23.4806303,11.3384506 C23.4806303,11.3384506 23.1942294,11.4987695 23.1942294,11.8518675 C23.1942294,12.2053755 23.4908809,12.4583595 23.7998331,12.4583595" id="path290" fill="#FDBB30"></path>
        <path d="M27.2012454,13.5223686 L26.6514048,13.0994984 L25.8629994,12.1220725 L25.6119971,10.9929381 L24.46284,10.3401818 L23.732931,9.60624107 L19.4048672,7.72396317 L13.4607671,8.91111578 C11.8552545,8.77840508 10.4165529,8.98997683 10.4165529,8.98997683 L10.9161657,9.41954403 L1.37001533,11.3261499 L0.436120121,12.5544415 C0.436120121,12.5544415 7.20675795,13.4281317 7.20675795,17.6754893 C7.20675795,19.2419814 6.15012925,20.7307741 6.15012925,20.7307741 L9.8507215,21.3984962 C9.8507215,21.3984962 10.771291,22.2387012 12.2173047,22.2387012 C13.8996964,22.2387012 14.0078058,21.5335987 14.0078058,21.2588835 C14.7476918,21.0199085 15.7496508,20.20738 15.7496508,19.7576533 C15.7496508,19.5774484 15.5619288,19.4627103 15.426963,19.4627103 C15.315095,19.4627103 15.16366,19.5510703 15.0405848,19.6042365 C15.1109037,19.4472662 15.0100381,19.1711841 14.7427032,19.1711841 C14.5186941,19.1711841 14.1394914,19.4886784 13.4043206,19.5570839 C13.4043206,19.5570839 13.9669402,18.0585873 16.0302432,17.3750793 C18.1152773,16.6843959 21.0441383,16.1469244 21.0441383,16.1469244 C19.8034778,21.0109564 14.1255507,23.4742365 14.1255507,23.4742365 L16.2209037,23.0023003 C15.2495598,23.5151705 13.4577602,24.3038492 13.4577602,24.3038492 C18.7389219,23.8545326 22.5825438,22.0368333 25.279947,18.55656 L25.4632955,18.6557172 L26.4618377,18.6557172 C27.6540472,17.9910702 28.4494231,18.0398629 28.4494231,18.0398629 C29.0157329,16.8873572 29.6231816,16.2926192 29.6231816,16.2926192 L28.808603,14.2983367 L27.2012454,13.5223686 L27.2012454,13.5223686 L27.2012454,13.5223686 Z M12.8975324,9.19772171 L12.4781475,10.1785645 L13.171086,9.21220918 C13.3911999,9.22601328 13.621496,9.24630941 13.8577375,9.27507934 L13.296758,10.5855121 L14.2027716,9.32257364 C14.3957557,9.35264198 14.5902432,9.38851897 14.7857557,9.430888 L14.1175552,10.9928698 L15.168922,9.52437319 C15.7050268,9.66883788 16.230881,9.87234585 16.6972819,10.1548515 L15.4391953,10.3483823 L14.5184208,11.3105691 L13.3972135,11.3882001 C12.3178286,11.3882001 11.7121566,10.3574028 11.7121566,10.3574028 L11.4454368,9.44353036 L11.2046167,9.23605884 C11.2045484,9.23605884 11.9188081,9.15685611 12.8975324,9.19772171 L12.8975324,9.19772171 L12.8975324,9.19772171 Z M6.5010404,14.2445554 C6.34577845,14.111093 6.1834094,13.9834392 6.0153684,13.8611841 C5.8261429,13.7239631 5.629742,13.5938492 5.42760075,13.4714574 C5.5532044,13.2000907 6.1955734,11.963462 7.7102659,11.3972206 C7.7102659,11.3972206 6.9794003,12.3023458 6.6226805,13.6669016 C6.5745028,13.8514119 6.53295385,14.0441909 6.5010404,14.2445554 L6.5010404,14.2445554 L6.5010404,14.2445554 Z M15.428398,19.7838949 C14.7382613,20.8105918 13.6994003,21.024282 13.6994003,21.024282 C13.6609949,20.8005463 13.2611543,20.6320953 13.1289219,20.033667 C13.1289219,20.033667 14.0846851,20.4600908 15.428398,19.7838949 L15.428398,19.7838949 L15.428398,19.7838949 Z M15.3714732,23.7914574 C22.0061201,20.4046693 21.9802887,16.4066738 23.8623616,16.4066738 C24.3191269,16.4066738 25.2888308,16.9691568 25.2888308,17.5543959 C25.2888308,19.1317536 21.0223388,22.9752388 15.3714732,23.7914574 L15.3714732,23.7914574 L15.3714732,23.7914574 Z M29.1934778,16.3472889 C28.7233183,16.8958994 28.3183525,17.6523231 28.3183525,17.6523231 C28.3183525,17.6523231 28.2939561,17.6528697 28.2489903,17.6563549 C28.0130905,17.6746693 27.2039105,17.7723914 26.2897647,18.28615 L26.0906987,18.2948971 C26.0906987,18.2948971 26.2259379,15.5842365 22.1198331,15.5842365 C20.672111,15.5842365 17.7939561,16.3072433 15.9103114,16.9274711 C14.2981019,17.4589973 12.7957101,18.7004097 12.7957101,19.8964461 C12.7957101,20.6327103 13.4203115,20.9784962 13.4203115,21.232642 C13.4203115,21.5692707 12.7266896,21.627699 12.198717,21.627699 C10.5296509,21.627699 9.75238435,20.4970611 9.75238435,20.4970611 L7.69687185,20.0795896 C7.69687185,20.0795896 8.3109493,19.1551932 8.3109493,17.6860133 C8.3109493,17.3776078 8.27151875,17.0776761 8.19791965,16.7869016 C8.0056873,16.0265827 7.57912695,15.3311841 7.0055051,14.7242137 C7.13719075,14.201708 7.34944585,13.7580634 7.5968946,13.3849426 C8.39261215,12.184601 9.55010645,11.7158083 9.55010645,11.7158083 C9.55010645,11.7158083 9.1441839,12.2610019 8.7900609,13.0830975 C8.51650735,13.7180861 8.27425225,14.5181773 8.27425225,15.359954 C8.27425225,15.8115941 8.33664405,16.2140315 8.4243206,16.5575622 C8.6334322,17.3773344 8.98769185,17.8591112 8.98769185,17.8591112 C8.98769185,17.8591112 8.70327275,17.1576306 8.70327275,16.3001363 C8.70327275,14.5897262 9.53609735,13.4388606 10.429742,12.7384051 C11.0583753,12.245216 11.7173502,11.9750793 12.1370769,11.8901363 L12.1528627,11.7223686 C11.2483524,11.1758083 11.0385575,10.4937354 11.0385575,10.4937354 L5.7352545,11.680683 C5.7352545,11.680683 5.11659848,12.3270156 4.86709962,13.1602502 C3.82106318,12.6268105 2.67258937,12.2955121 1.63099484,12.2236898 L11.2857329,10.0632798 L11.4128399,10.4955121 C11.4128399,10.4955121 12.1627716,11.9103641 13.8260974,11.6666055 L13.5579424,12.2940771 L12.8155962,14.0322319 L13.4576919,13.8820953 C13.4576919,13.8820953 13.8604709,12.9102729 14.8085119,12.1949199 C15.3275324,11.8033481 16.0096053,11.488724 16.8786486,11.4520269 C17.2834094,10.6565828 16.9728855,9.94198139 16.9728855,9.94198139 C16.9728855,9.94198139 16.1639789,9.43157137 15.1866896,9.19635496 L19.334685,8.2759905 L23.5494458,9.97984016 L24.3018376,10.6840543 L25.3974869,11.2155805 L25.5716782,12.1211158 L25.7559151,12.4038948 L25.4937055,12.8499996 L25.9509493,12.6490201 L26.0686941,12.7844643 L25.7294686,13.2988379 L26.2711087,13.019339 L26.4245256,13.1938037 L26.1750268,13.5675395 L26.5761657,13.3546693 L26.996029,13.7029836 C26.996029,13.7029836 25.8740016,14.2133937 24.6498103,13.2882456 C24.6498103,13.2882456 24.2319971,13.5909107 23.6854367,13.5909107 C22.5558924,13.5909107 22.1460745,12.5955121 22.1460745,12.5955121 L21.94366,13.7874483 L20.6388308,15.2227331 C21.0734549,14.8524142 21.457578,14.5496123 21.9013593,14.327995 C22.4455278,14.0562866 23.0799014,13.9072433 24.0087397,13.9072433 C24.0087397,13.9072433 24.8615187,14.3774711 25.981906,14.2166055 C26.3610404,14.1621408 26.7709948,14.0354438 27.1890131,13.793667 L28.6828627,14.4967877 C28.2454367,15.2900451 27.2678057,14.6711841 27.2678057,14.6711841 L26.4426349,14.9620269 C28.5834322,15.0683595 29.1934778,16.3472889 29.1934778,16.3472889 L29.1934778,16.3472889 L29.1934778,16.3472889 Z" id="path292" fill="#002D62"></path>
        <path d="M24.5799698,12.4886329 C24.5641839,12.1174256 24.6243206,11.4330976 23.2452089,11.0068789 L21.5991042,10.4984506 C21.5991042,10.4984506 22.8713365,11.6359905 22.8713365,11.8941682 C22.8713365,12.3447149 23.2363934,12.7101818 23.6874186,12.7101818 C23.8461657,12.7101818 23.9946622,12.6646693 24.1197192,12.5862183 L24.1497192,12.9198401 C24.727578,12.9649426 25.399742,12.874806 25.5714049,12.1211841 C25.3355051,12.665831 24.8124527,12.5907285 24.5799698,12.4886329 M23.7998331,12.4583595 C23.4908809,12.4583595 23.1942294,12.2053755 23.1942294,11.8519358 C23.1942294,11.4988379 23.4806303,11.338519 23.4806303,11.338519 C23.4806303,11.338519 23.6448445,11.4364461 23.8089903,11.668519 C23.6779197,11.7026875 23.5862112,11.8236443 23.5862112,11.9573117 C23.5862112,12.1146238 23.7008126,12.257175 23.8863479,12.257175 C23.9571452,12.257175 24.0167351,12.2308652 24.0586941,12.2043504 C24.0737283,12.2595668 24.0871224,12.3170383 24.0982613,12.3777217 C24.0983297,12.3776534 23.9714277,12.4583595 23.7998331,12.4583595" id="path294" fill="#002D62"></path>
        <path d="M24.9304709,12.3831887 L25.1354823,11.5908197 L23.5258696,10.8212069 C24.5758012,11.4393846 24.9304709,11.7835987 24.9304709,12.3831887" id="path296" fill="#002D62"></path>
        <path d="M20.0015871,9.00063742 L19.2908126,8.65211806 L17.0063707,9.1587012 C17.0063707,9.1587012 17.4786486,9.69863287 17.4786486,10.6203641 C17.4786486,11.1546238 17.2678285,11.6658538 16.9146623,12.1325281 C16.1336372,13.1642137 14.6552317,13.979954 13.2084663,14.3556716 C12.9107215,14.4327559 12.7050267,14.5506374 12.5637055,14.7192934 C12.5045939,14.7896807 12.4558012,14.867995 12.4182158,14.9575167 L11.8180791,16.3597262 C10.0109037,17.1294073 9.71848915,18.7464689 9.86056205,19.6610246 C9.9083297,18.3430748 11.2670085,16.4653071 13.5109949,16.8697262 C13.5109949,16.8697262 13.8293775,16.2326192 14.5360518,15.7058766 C14.365209,15.3184051 14.3339789,14.867585 14.4466668,14.3841682 C14.4554823,14.8559677 14.5748672,15.2515713 14.7697647,15.5486328 C14.9699925,15.4248743 15.181701,15.3195668 15.4039334,15.2360588 C15.3394231,14.7531203 15.4681019,14.2489973 15.7797875,13.7737126 C15.6036144,14.2854893 15.5908354,14.7562638 15.7065302,15.1386101 C15.9283524,15.07738 16.1582385,15.0363094 16.3935233,15.0180634 C16.4615188,14.4440998 16.7847534,13.9261044 17.3203114,13.5223686 C16.915824,14.0243732 16.7354139,14.5472205 16.755095,15.0072661 C17.0924754,15.0149882 17.4178286,15.0671294 17.7258923,15.1604779 L18.5526349,14.2512524 L19.2535689,13.4806146 C19.2535689,13.4806146 18.6595142,13.0179723 18.4208126,12.1716169 C18.3614277,11.9594985 18.3228855,11.7246238 18.3228855,11.4657627 C18.3228171,9.6458766 20.0015871,9.00063742 20.0015871,9.00063742" id="path302" fill="#002D62"></path>
    </g>
</svg>