<?xml version="1.0" encoding="UTF-8"?>
<svg width="30px" height="30px" viewBox="0 0 30 30" version="1.1" xmlns="http://www.w3.org/2000/svg" xmlns:xlink="http://www.w3.org/1999/xlink">
    <!-- Generator: Sketch 50.2 (55047) - http://www.bohemiancoding.com/sketch -->
    <title>rangers</title>
    <desc>Created with Sketch.</desc>
    <defs></defs>
    <g id="rangers" stroke="none" stroke-width="1" fill="none" fill-rule="evenodd">
        <g id="Group" transform="translate(15.500000, 15.000000) scale(1, -1) translate(-15.500000, -15.000000) ">
            <g id="g21" transform="translate(0.028401, 0.026358)" fill="#0161AB">
                <path d="M27.7729257,28.2969433 L22.5534498,28.2969433 L22.1274236,28.2969433 L21.8213974,28.0003494 L21.1048035,27.3058952 L20.278821,28.0784279 L19.9754148,28.3621834 L19.8854149,28.3621834 L19.560262,28.3621834 L14.849869,28.3621834 L10.139345,28.3621834 L9.72406115,28.3621834 L9.42078605,28.0784279 L8.5948035,27.3058952 L7.8782096,28.0003494 L7.5721834,28.2969433 L7.1461572,28.2969433 L1.92668123,28.2969433 L0.102576419,28.2969433 L2.33213974,24.36 L2.34131005,5.2596943 C2.34131005,5.0761572 2.36305677,4.7880786 2.44572053,4.45139738 C2.56951965,3.94781659 2.8320524,3.33235808 3.37572053,2.83965065 C3.91873362,2.3460262 4.73855895,1.99244541 5.9155022,1.99401747 L8.33940525,1.99401747 L11.7104803,1.99401747 C12.3077292,1.99388647 12.7934934,1.8390393 13.1812664,1.63716157 C13.5685153,1.43528385 13.8556769,1.18532751 14.0439301,0.997074235 C14.2345415,0.80646288 14.3859825,0.625676855 14.4888209,0.493886463 C14.5401747,0.427860262 14.579476,0.374017467 14.6055459,0.33720524 C14.6185153,0.318995633 14.6282096,0.304716157 14.6346288,0.295545852 C14.6376419,0.290960699 14.64,0.287554585 14.641441,0.285458516 C14.6427511,0.283231441 14.6430131,0.282969433 14.6430131,0.282969433 L14.819738,0.0131004367 L15.0154585,0.269606987 C15.0155895,0.269606987 15.0420524,0.304323144 15.0852839,0.360131005 C15.150131,0.443842795 15.2519214,0.573799125 15.3533188,0.698515285 C15.4539302,0.822445415 15.5578166,0.94441048 15.6127074,0.998777295 C15.690393,1.0769869 15.9664192,1.33074236 16.3809171,1.55947598 C16.7962009,1.78912664 17.3481222,1.99427948 17.9891266,1.99401747 L23.7842358,1.99401747 C24.3736245,1.99414847 24.8910917,2.07 25.3383406,2.21305677 C26.008428,2.42672489 26.5209171,2.79615721 26.8589083,3.27510917 C27.1974236,3.75366812 27.3588209,4.33467249 27.3584279,4.95812227 L27.3584279,24.3813537 L28.6878602,26.7262009 L29.578559,28.2969433 L27.7729257,28.2969433 L27.7729257,28.2969433 Z" id="path23"></path>
            </g>
            <g id="g25" transform="translate(0.394166, 0.387262)" fill="#FFFFFF">
                <path d="M19.5196506,27.7729257 L19.1946288,27.7729257 L14.4841048,27.7729257 L9.7735808,27.7729257 L9.44855895,27.7729257 L9.21104805,27.5508733 L8.2262882,26.6296506 L7.3535371,27.4754148 L7.11393015,27.7076856 L6.780393,27.7076856 L1.56091703,27.7076856 L0.128515284,27.7076856 L2.19458515,24.059345 L2.20375546,4.8989083 C2.20375546,4.23655022 2.52812227,1.86144105 5.549738,1.86144105 L11.3447161,1.86144105 C12.6195197,1.86144105 13.441703,1.19541484 13.8395633,0.79768559 C14.2374236,0.399825327 14.4682533,0.0471615721 14.4682533,0.0471615721 C14.4682533,0.0471615721 14.9041048,0.6179476 15.0854148,0.799388645 C15.2668559,0.98069869 16.2425764,1.86144105 17.6233624,1.86144105 L23.4184716,1.86144105 C25.6979476,1.86144105 26.7644541,3.03707423 26.7644541,4.59720524 L26.7644541,24.0805677 L28.1236245,26.4779476 L28.8209607,27.7076856 L27.4071616,27.7076856 L22.1878166,27.7076856 L21.8541485,27.7076856 L21.6145415,27.4754148 L20.7419214,26.6296506 L19.7571615,27.5508733 L19.5196506,27.7729257 L19.5196506,27.7729257 L19.5196506,27.7729257 Z M19.1946288,26.9493013 L20.7518777,25.4924017 L22.1878166,26.8840612 L27.4071616,26.8840612 L25.9408297,24.2979039 L25.9408297,4.59720524 C25.9408297,3.31283843 24.9677293,2.6850655 23.4184716,2.6850655 L17.6233624,2.6850655 C15.4762008,2.6850655 14.4841048,1.23235808 14.4841048,1.23235808 C14.4841048,1.23235808 13.4920088,2.6850655 11.3447161,2.6850655 L5.549738,2.6850655 C4.00048035,2.6850655 3.02737992,3.31283843 3.02737992,4.59720524 L3.02737992,24.2979039 L1.56091703,26.8840612 L6.780393,26.8840612 L8.21620085,25.4924017 L9.7735808,26.9493013 L14.4841048,26.9493013 L19.1946288,26.9493013 L19.1946288,26.9493013 L19.1946288,26.9493013 Z" id="path27"></path>
            </g>
            <g id="g29" transform="translate(4.038550, 2.305114)" fill="#FFFFFF">
                <path d="M0,12.9694323 L0,2.88720524 C0,2.02454148 0.626593885,1.38956332 2.02323144,1.38956332 L7.53694325,1.38956332 C9.82323145,1.38956332 10.8393013,0.078209607 10.8393013,0.078209607 C10.8393013,0.078209607 11.8870742,1.38943232 13.9300874,1.38943232 L16.0849782,1.38943232 L0,12.9694323 L0,12.9694323 L0,12.9694323 Z" id="path31"></path>
            </g>
            <polygon id="path33" fill="#FFFFFF" points="25.7043668 20.1636681 4.03860262 20.1636681 4.03860262 19.6481659 25.7043668 19.6481659"></polygon>
            <g id="g35" transform="translate(10.507860, 8.033607)" fill="#FFFFFF">
                <polygon id="path37" points="15.1965066 0 15.1965066 0.530305675 0.754585155 10.8255458 0.0183406114 10.8255458"></polygon>
            </g>
            <g id="g39" transform="translate(4.038550, 3.636904)" fill="#FFFFFF">
                <polygon id="path41" points="0 13.2314411 0 12.7025764 17.5316594 0.0576419215 18.2783843 0.0576419215"></polygon>
            </g>
            <g id="g43" transform="translate(12.734934, 9.630615)" fill="#E3393F">
                <polygon id="path45" points="12.9694323 0 12.9694323 9.2284716 0.0238427948 9.2284716"></polygon>
            </g>
            <g id="g47" transform="translate(4.206079, 20.804869)" fill="#FFFFFF">
                <polygon id="path49" points="2.35807861 0 1.75414847 0 0.6750655 2.51921397 0.6750655 0 0.068646288 0 0.068646288 3.90707424 0.691310045 3.90707424 1.75165939 1.4489083 1.75165939 3.90707424 2.35807861 3.90707424"></polygon>
            </g>
            <g id="g51" transform="translate(7.416459, 20.809677)" fill="#FFFFFF">
                <polygon id="path53" points="1.5720524 3.27510917 0.62580786 3.27510917 0.62580786 2.28720524 1.56772926 2.28720524 1.56772926 1.67371179 0.62580786 1.67371179 0.62580786 0.630524015 1.5720524 0.630524015 1.5720524 0.0115283843 0 0.0115283843 0 3.89960699 1.5720524 3.89960699"></polygon>
            </g>
            <g id="g55" transform="translate(9.606118, 20.804869)" fill="#FFFFFF">
                <polygon id="path57" points="2.09606987 0 1.73318777 2.07 1.37436681 0 0.64048035 0 0.0066812227 3.91257642 0.60117904 3.91257642 1.01554585 1.45847162 1.41720524 3.91048035 2.04104804 3.91048035 2.45895196 1.48283843 2.84620088 3.90982533 3.47279476 3.90982533 2.81882096 0"></polygon>
            </g>
            <g id="g59" transform="translate(14.586904, 20.815756)" fill="#FFFFFF">
                <polygon id="path61" points="1.5720524 0 0.93026201 0 0.93026201 1.61475982 0.0905240175 3.89829694 0.72117904 3.89829694 1.25554585 2.46065502 1.77681223 3.89751091 2.41965065 3.89751091 1.5720524 1.59838428"></polygon>
            </g>
            <g id="g63" transform="translate(17.331982, 20.807240)" fill="#FFFFFF">
                <path d="M0.655021835,1.31004367 C0.655021835,1.02563319 0.653318775,0.920567685 0.69995633,0.80790393 C0.75576419,0.68973799 0.887554585,0.62842795 1.02248908,0.62842795 C1.15729258,0.62842795 1.28423581,0.691703055 1.34004367,0.809868995 C1.39113537,0.92253275 1.38982533,1.02026201 1.38982533,1.31004367 L1.38982533,2.59283843 C1.38982533,2.88262009 1.39624454,2.97524018 1.34515284,3.08790393 C1.28934498,3.20606987 1.15729258,3.27445415 1.02248908,3.27445415 C0.887554585,3.27445415 0.758777295,3.2069869 0.70296943,3.08895197 C0.65646288,2.98152838 0.655021835,2.87724891 0.655021835,2.59283843 L0.655021835,1.31004367 L0.655021835,1.31004367 L0.655021835,1.31004367 Z M2.00580786,1.26641921 C2.00580786,0.73165939 2.00358079,0.61860262 1.8571179,0.402838428 C1.72847161,0.214323144 1.37502184,0.0058951965 1.01829694,0.0058951965 C0.671266375,0.0058951965 0.355021834,0.145283843 0.192314411,0.383842795 C0.0458515284,0.599606985 0.0309170305,0.84065502 0.0309170305,1.26641921 L0.0309170305,2.6460262 C0.0309170305,3.09458515 0.0412663755,3.31441048 0.210655022,3.5639738 C0.390393013,3.82729257 0.650829695,3.90641922 1.01829694,3.90641922 C1.36558952,3.90641922 1.68078602,3.79689956 1.84349345,3.55847162 C2.03895196,3.27065502 2.00580786,3.14240174 2.00580786,2.6460262 L2.00580786,1.26641921 L2.00580786,1.26641921 L2.00580786,1.26641921 Z" id="path65"></path>
            </g>
            <g id="g67" transform="translate(19.968446, 20.692480)" fill="#FFFFFF">
                <path d="M0.91703057,2.62008734 C1.21427947,2.62008734 1.39441048,2.60344978 1.50248908,2.66489083 C1.61737991,2.73013101 1.6261572,2.86965066 1.6261572,3.01165939 C1.6261572,3.14986899 1.62943232,3.27917031 1.51480349,3.34441048 C1.40659388,3.40585153 1.21427947,3.39943231 0.91703057,3.39943231 L0.660393015,3.39943231 L0.660393015,2.62008734 L0.91703057,2.62008734 L0.91703057,2.62008734 L0.91703057,2.62008734 Z M0.665502185,0.122620088 L0.0382532751,0.122620088 L0.0382532751,4.02288209 L1.04895197,4.02288209 C1.60336244,4.02288209 1.7460262,4.00139738 1.94685589,3.83764192 C2.18004367,3.65305677 2.24764192,3.45144105 2.24803494,3.23227074 L2.24855895,2.77152839 C2.24855895,2.57515284 2.14532751,2.34956332 2.02034935,2.23951965 C1.86406114,2.10183406 1.67816594,2.05585153 1.66558952,2.04982533 L2.35467249,0.122620088 L1.71956332,0.122620088 L1.05131004,2.04550219 L0.665502185,2.04550219 L0.665502185,0.122620088 L0.665502185,0.122620088 L0.665502185,0.122620088 Z" id="path69"></path>
            </g>
            <g id="g71" transform="translate(22.988830, 20.765279)" fill="#FFFFFF">
                <polygon id="path73" points="0.655021835 2.62008734 1.47877729 3.94807861 2.11074236 3.94807861 1.34423581 2.69672489 2.53061136 0.050436681 1.89877729 0.050436681 0.9690393 2.11781659 0.655021835 1.63257642 0.655021835 0.050436681 0.0361572052 0.050436681 0.0361572052 3.94807861 0.655021835 3.94807861"></polygon>
            </g>
            <g id="g75" transform="translate(18.868336, 5.748328)" fill="#FFFFFF">
                <path d="M2.09606987,2.7510917 C2.33541484,2.57541485 2.46890829,2.45292576 2.59938864,2.44820961 C2.73799126,2.44323144 2.8438428,2.57266376 2.94445415,2.70956332 C3.0421834,2.84279476 3.13624454,2.96554585 3.09,3.09628821 C3.04637555,3.21930131 2.88681222,3.3269869 2.64733624,3.50253275 L2.44061136,3.65436681 L1.88934498,2.90279476 L2.09606987,2.7510917 L2.09606987,2.7510917 L2.09606987,2.7510917 Z M0.515240175,1.01371179 L0.0094323144,1.38471616 L2.31668122,4.52934498 L3.13139738,3.93170305 C3.57851528,3.60366812 3.68082969,3.50187773 3.74593886,3.25100437 C3.82467249,2.96436681 3.75995633,2.76170305 3.63065502,2.58484716 L3.24812227,2.08244542 C3.13192139,1.92406114 2.91524018,1.80327511 2.74925764,1.78834061 C2.54187773,1.76986899 2.36489083,1.84270742 2.35113537,1.84532751 L1.87703057,0.0145414847 L1.3650655,0.390262008 L1.84951965,2.18371179 L1.53838428,2.41192139 L0.515240175,1.01371179 L0.515240175,1.01371179 L0.515240175,1.01371179 Z" id="path77"></path>
            </g>
            <g id="g79" transform="translate(9.121756, 12.354707)" fill="#FFFFFF">
                <path d="M2.88209607,3.27510917 L1.66034935,2.24227074 L2.27737992,1.80458516 L2.88209607,3.27510917 L2.88209607,3.27510917 L2.88209607,3.27510917 Z M1.22462882,1.90611354 L0.54864629,1.3887773 L0.0492576419,1.75336245 L3.22873362,4.29432314 L3.70978166,3.91113537 L2.30109171,0.111353712 L1.79620088,0.480917031 L2.07353712,1.27454149 L1.22462882,1.90611354 L1.22462882,1.90611354 L1.22462882,1.90611354 Z" id="path81"></path>
            </g>
            <g id="g83" transform="translate(11.757511, 10.813612)" fill="#FFFFFF">
                <polygon id="path85" points="1.9650655 0 1.47013101 0.354235808 2.05558952 3.04165939 0.58558952 0.98724891 0.0884279475 1.34292576 2.36855895 4.52895197 2.87895197 4.16371179 2.31353712 1.53720524 3.74803494 3.54183406 4.2450655 3.1860262"></polygon>
            </g>
            <g id="g87" transform="translate(14.698336, 9.067965)" fill="#FFFFFF">
                <path d="M0.131004367,1.44104804 C0.131004367,1.78244542 0.437685589,2.14716157 0.586899565,2.34406114 L1.20733624,3.20227074 L0.131004367,1.44104804 L0.131004367,1.44104804 Z M2.67039301,1.65812227 L1.46017467,0.022139738 L1.17694323,0.225982533 L1.1910917,0.391834061 C0.97087336,0.401266375 0.87930131,0.418296943 0.563187775,0.645982535 C0.258471615,0.865283845 0.113973799,1.2479476 0.131004367,1.44104803 C0.172270742,1.83759826 0.437685589,2.14716157 0.586899565,2.34406114 L1.20733624,3.20227074 C1.6380786,3.80056768 1.72480349,3.9358952 2.08598253,4.02576419 C2.37825327,4.10515284 2.5979476,4.00362445 2.92375546,3.76912664 C3.32436681,3.48052401 3.4171179,3.21851529 3.4171179,2.96593887 C3.4171179,2.61786026 3.24589519,2.46563319 2.92179039,2.01707423 L2.41965065,2.38414847 C2.64799126,2.69934498 2.91432314,2.96580786 2.58537118,3.22938864 C2.44676856,3.34061136 2.39515284,3.37899563 2.30004367,3.37899563 C2.14847161,3.37899563 2.09213974,3.34781659 1.90310043,3.08541484 L1.1339738,2.03082969 C0.96746725,1.79947598 0.76978166,1.53930131 0.76978166,1.4491703 C0.76978166,1.27244541 0.868034935,1.2090393 1.04423581,1.08222708 C1.33270742,0.874585155 1.46187773,1.05406113 1.77772926,1.49292577 L1.87048035,1.62170306 L1.37043668,1.97646288 L1.64764192,2.38152839 L2.67039301,1.65812227 L2.67039301,1.65812227 L2.67039301,1.65812227 Z" id="path89"></path>
            </g>
            <g id="g91" transform="translate(16.777009, 7.674498)" fill="#FFFFFF">
                <polygon id="path93" points="3.27510917 2.62008734 2.5169869 3.18615721 1.9258952 2.39462882 2.68061135 1.83117904 2.31353712 1.33951965 1.55882096 1.90296943 0.934716155 1.06716157 1.69296943 0.5009607 1.32262009 0.0051091703 0.062882096 0.945720525 2.38899564 4.06100436 3.64886463 3.12039301"></polygon>
            </g>
            <g id="g95" transform="translate(7.001188, 14.281913)" fill="#FFFFFF">
                <path d="M2.09606987,2.75109171 C2.33541484,2.57554585 2.46890829,2.45292577 2.59938864,2.44820961 C2.73799126,2.44323144 2.84384279,2.57266376 2.94445415,2.70956332 C3.0421834,2.84279476 3.13624454,2.96541485 3.09,3.09615721 C3.04637554,3.21930131 2.88681222,3.3269869 2.64733624,3.50253275 L2.44061135,3.65423581 L1.88934498,2.90279476 L2.09606987,2.75109171 L2.09606987,2.75109171 L2.09606987,2.75109171 Z M0.51510917,1.01371179 L0.0094323144,1.38471616 L2.31668122,4.52934498 L3.13139738,3.93157205 C3.57851528,3.60353712 3.68082969,3.50187773 3.74593886,3.25113537 C3.82467249,2.96436681 3.75995633,2.76183406 3.63052401,2.58484716 L3.24812227,2.08231441 C3.1320524,1.92406114 2.91524017,1.80314411 2.74938864,1.78834061 C2.54187773,1.76986899 2.36489083,1.84270742 2.35113537,1.84532751 L1.87703057,0.0145414847 L1.3650655,0.390131004 L1.84951965,2.18371179 L1.53851528,2.41192139 L0.51510917,1.01371179 L0.51510917,1.01371179 L0.51510917,1.01371179 Z" id="path97"></path>
            </g>
            <g id="g99" transform="translate(21.276183, 4.493685)" fill="#FFFFFF">
                <path d="M2.7510917,2.35807861 C3.10991266,2.69646288 3.05135371,3.03471615 2.81633188,3.18982533 C2.60082969,3.33222708 2.33174672,3.3869869 2.11912664,3.11646288 C2.03646288,3.01100436 2.00240174,2.85956332 2.03475983,2.7060262 C2.06148472,2.5561572 2.02637555,2.51724891 2.22930131,2.00737992 C2.38427948,1.5990393 2.39646288,1.39048035 2.39646288,1.18388647 C2.39646288,1.13502184 2.38362446,0.705720525 2.2048035,0.51930131 C1.71956332,0.0136244541 1.23222707,-0.0669432315 0.561746725,0.474497817 C-0.453537118,1.29393013 0.546812225,2.13524017 0.590305675,2.21947598 L1.0019214,1.92183406 C0.79414847,1.60375546 0.419737992,1.17851529 1.04069869,0.83344978 C1.20995633,0.73951965 1.51257642,0.642183405 1.70737991,0.890305675 C1.83065502,1.04737992 1.85253275,1.27650655 1.63401746,1.84847162 C1.37633188,2.52641922 1.38746725,2.57358078 1.36270742,2.81253275 C1.34004367,3.04310043 1.40751092,3.26986899 1.55502184,3.45786026 C1.95078603,3.96170306 2.65362446,4.12912664 3.26489083,3.59344978 C4.02314411,2.92886463 3.5217904,2.39895197 3.25663756,1.97882096 L2.7510917,2.35807861 L2.7510917,2.35807861 L2.7510917,2.35807861 Z" id="path101"></path>
            </g>
        </g>
    </g>
</svg>