<?xml version="1.0" encoding="UTF-8"?>
<svg width="30px" height="30px" viewBox="0 0 30 30" version="1.1" xmlns="http://www.w3.org/2000/svg" xmlns:xlink="http://www.w3.org/1999/xlink">
    <!-- Generator: Sketch 50.2 (55047) - http://www.bohemiancoding.com/sketch -->
    <title>redwings</title>
    <desc>Created with Sketch.</desc>
    <defs></defs>
    <g id="redwings" stroke="none" stroke-width="1" fill="none" fill-rule="evenodd">
        <path d="M27.5998951,11.387098 C26.5999301,12.2613987 25.4639161,12.825105 24.2267832,13.2353498 C23.0491258,13.6259792 21.8342307,13.8062939 20.6137762,13.7566785 C20.4598951,13.7503848 20.3601398,13.4855246 20.2031119,13.3919582 C20.0741958,13.3150701 19.8854895,13.3418183 19.7176573,13.3168533 C19.6536713,13.3069932 19.6442307,13.1830071 19.6862937,13.1696855 C19.9459091,13.08514 20.2240909,13.1172379 20.5037413,13.0717134 C20.6293007,13.0506295 20.6383217,12.8882519 20.7284265,12.8479722 C21.0948251,12.6846505 21.5046503,12.7424477 21.901993,12.7039512 C22.0013287,12.6950351 21.9507693,12.5173428 22.0183217,12.4869232 C22.164965,12.4219932 22.3181119,12.5374827 22.4788112,12.5750351 C22.6179021,12.6094407 22.6187412,12.39514 22.6912238,12.4162239 C22.9753846,12.4958393 23.0943357,12.4300701 23.2965735,12.2659092 C23.3332867,12.2350701 23.4222378,12.263182 23.4845454,12.2797554 C23.548951,12.2963288 23.6523776,12.3347204 23.6862588,12.2515386 C23.9015035,11.7190911 24.4724475,12.2315036 24.8029721,12.1275526 C24.8894056,12.1012239 24.7520979,11.9544757 24.8177623,11.9106295 C25.0477972,11.7619932 25.3215734,11.9588813 25.5565385,11.8493708 C25.646014,11.8068883 25.5602098,11.6739862 25.6097203,11.6189162 C25.6858742,11.5330071 25.8196154,11.6484966 25.9166434,11.6019232 C25.9896504,11.5669932 26.1109091,11.5276575 26.1669231,11.5249302 C26.4362937,11.5172729 26.6233217,11.391189 26.8867133,11.3478673 C26.9293007,11.3415736 26.9556293,11.2699302 26.9985315,11.260175 C27.2039161,11.2113987 27.5751398,11.2785316 27.5998951,11.2927973 C27.6297902,11.3110491 27.6611539,11.3333918 27.5998951,11.387098 L27.5998951,11.387098 L27.5998951,11.387098 Z M25.8366084,13.6000701 C25.9659441,13.6304897 26.2078322,13.6806295 26.1677623,13.7136715 C24.1260839,15.3879022 21.4872378,15.7088812 19.0339511,15.7334267 C18.794056,15.4125525 18.3896853,15.2741959 18.0371329,15.0757344 C18.016049,15.0645106 18.016993,14.9673778 18.0371329,14.9569932 C18.3247553,14.8151749 18.6456294,14.871189 18.9605245,14.8224127 C19.0768532,14.8050001 19.11,14.6326574 19.2182518,14.6000351 C19.5837063,14.488112 19.9396154,14.3476574 20.3261539,14.3632868 C20.6504895,14.3772379 20.9672728,14.4045106 21.2925525,14.3893008 C21.3901049,14.3844757 21.3485665,14.1892658 21.4402448,14.1718532 C21.8031818,14.106084 22.145035,14.2497903 22.5104895,14.1755246 C22.5838112,14.1611539 22.6013287,14.0153498 22.6317483,14.0023428 C23.028986,13.842168 23.4920979,13.9777973 23.9126224,13.8328323 C23.8691958,13.7943358 23.8044755,13.7366435 23.8492658,13.7012939 C23.9198602,13.6463288 24.0446853,13.6744407 24.1241958,13.6829372 C24.2907693,13.7003498 24.4813637,13.7213288 24.6437413,13.6019582 C24.7529371,13.5213987 24.9269581,13.6412939 25.053042,13.5992309 C25.1877273,13.5553848 25.3136014,13.4756645 25.451014,13.5204547 C25.6048951,13.5710141 25.7095804,13.5710141 25.8366084,13.6000701 L25.8366084,13.6000701 L25.8366084,13.6000701 Z M20.5055245,17.064126 C19.1135665,17.3248952 17.8034266,17.2895455 16.4624476,16.9477973 C16.394056,16.9294407 16.5779371,16.7938113 16.6754895,16.7588812 C16.995,16.6462239 17.3444056,16.6233567 17.6654895,16.5078673 C17.7327273,16.4830071 17.7859091,16.3803148 17.8368881,16.3289162 C17.9681119,16.195175 18.1943707,16.153112 18.365979,16.1016085 C18.8911888,15.9450001 19.4435665,16.1224827 20.0025525,16.2044057 C20.223986,16.2372379 20.4338811,16.2612589 20.654056,16.326189 C20.6813287,16.3345806 20.7747902,16.2978672 20.7841259,16.2345106 C20.795035,16.1620281 20.7967133,16.0716085 20.8638462,16.0698253 C21.0405944,16.0658393 21.2339161,16.1365386 21.3946154,16.0743358 C21.6008392,15.9937763 21.8277273,16.0496855 22.0468532,16.0183218 C22.1046504,16.0099302 22.0608042,15.9266435 22.1193357,15.9127973 C22.3426574,15.8609792 22.5766783,15.9643008 22.7778672,15.8707344 C22.9309091,15.7996155 23.2719231,16.0089862 23.3381119,16.0926924 C22.4611888,16.5858043 21.5257343,16.8734267 20.5055245,17.064126 L20.5055245,17.064126 L20.5055245,17.064126 Z M20.5029021,18.2385316 C19.6151748,18.5127274 18.7181119,18.5088462 17.8142308,18.5095806 C16.8926224,18.5118883 16.0311189,18.2393708 15.1256644,17.9902448 C15.0718532,17.9758743 15.0799301,17.9051749 15.0946154,17.8959442 C15.2218532,17.8247204 15.3825525,17.8650001 15.5170279,17.8081469 C15.5895105,17.7786714 15.6047203,17.6815386 15.6681818,17.6430421 C15.7514686,17.5916435 15.9376574,17.5983568 16.0171678,17.5504197 C16.1334965,17.481084 16.1675874,17.3973778 16.2822378,17.3288813 C16.3886014,17.2655246 16.5191958,17.3702099 16.6722378,17.337063 C16.9813636,17.2722379 17.2047902,17.5460141 17.4932517,17.6300351 C17.6087413,17.663182 17.7106993,17.5616435 17.8122378,17.5782169 C17.9286713,17.5965736 18.0185665,17.7034616 18.1384615,17.7382868 C18.2319231,17.7656644 18.3,17.7688113 18.3961888,17.7218183 C18.5316084,17.6560491 18.6654545,17.8389862 18.8167133,17.8033218 C18.8676923,17.7916784 18.8669581,17.684161 18.9277972,17.6788113 C19.1720979,17.6595106 19.3326923,17.9176575 19.5716433,17.914091 C19.5966084,17.9131469 19.6168532,17.8658393 19.6458042,17.8536715 C19.7733567,17.8053148 19.8914685,17.9169232 20.0445105,17.872133 C20.2334266,17.8162239 20.4056643,17.9638113 20.5301749,18.1091959 C20.5882867,18.1753847 20.5736014,18.2175526 20.5029021,18.2385316 L20.5029021,18.2385316 L20.5029021,18.2385316 Z M17.7049301,19.5297903 C17.7896853,19.5937763 17.8335315,19.7003497 17.8052098,19.7093707 C17.25,19.8734267 16.3381469,19.7799651 15.663042,19.7195455 C15.0625175,19.6654197 14.4960839,19.4986365 13.9448602,19.2754197 C13.5761539,19.1258393 13.220035,18.9837064 12.8723077,18.771084 C12.7788461,18.7142309 12.637028,18.6932518 12.6230769,18.5655945 C12.6212937,18.5514337 12.6499301,18.5089511 12.6553846,18.5062239 C12.858042,18.4055246 13.0862937,18.5496504 13.2920979,18.4834616 C13.3645804,18.4596504 13.4160839,18.3357693 13.4755595,18.3366085 C13.6258742,18.3383917 13.7897203,18.3934616 13.9283916,18.2909791 C14.0299301,18.214091 14.1794056,18.2682169 14.2854546,18.3174127 C14.4276923,18.3836015 14.6566783,18.6987064 14.8361539,18.6632518 C14.8858741,18.6528672 15.1843007,18.5934966 15.2347552,18.6225525 C15.5145105,18.7902798 15.9668182,19.1232169 16.2804546,19.1409441 C16.3418182,19.14514 16.381993,18.9607344 16.4599301,19.0010141 C16.6496853,19.1008742 16.7726224,19.2422728 16.9283916,19.2702798 C16.9785314,19.2797204 17.0702098,19.2009441 17.1287413,19.2099651 C17.2433916,19.2264337 17.3103147,19.3115036 17.4357692,19.4004546 C17.4898951,19.438112 17.6182867,19.4626574 17.7049301,19.5297903 L17.7049301,19.5297903 L17.7049301,19.5297903 Z M15.4106644,20.7052449 C13.4022378,20.7522379 11.5722377,19.5822379 10.2545455,18.0233918 C10.2352447,18.0006295 10.2335665,17.9272029 10.2831818,17.9298253 C10.5140559,17.9463987 10.6953147,18.0967134 10.9005944,18.1919581 C11.1251749,18.2945456 11.3789161,18.6032518 11.6096853,18.4229372 C11.6576224,18.3852798 11.628986,18.3119582 11.6795455,18.3258043 C11.9820629,18.4054197 12.1918532,18.659161 12.4116084,18.8774477 C12.6004196,19.0663638 12.6983916,19.3305945 12.9431119,19.4501749 C13.0495804,19.501154 13.1301399,19.2604197 13.2133217,19.3330071 C13.3968881,19.4929721 13.5238112,19.6516785 13.7202797,19.7982169 C13.8016783,19.8596855 13.8504546,19.6744407 13.8831818,19.6592309 C13.9695105,19.6198952 14.1681818,19.8184616 14.2679371,19.8981819 C14.3936014,19.9978323 14.5291258,20.1325176 14.6866783,20.2270281 C14.7645105,20.273077 14.8334266,20.1612589 14.9059091,20.1908393 C15.0231818,20.2389862 15.1351049,20.3096855 15.2625525,20.3455595 C15.342063,20.3674827 15.4123426,20.536154 15.4741259,20.6130421 C15.5529021,20.7093358 15.4575525,20.7044057 15.4106644,20.7052449 L15.4106644,20.7052449 L15.4106644,20.7052449 Z M11.1368182,24.4377274 C10.2226574,24.9673428 9.27146855,25.2447904 8.2388811,25.34014 C7.75646855,25.3844057 7.2858042,25.3522029 6.80842655,25.2815036 C3.50506993,24.7934267 0.87146853,21.795105 0.91993007,18.4962589 C0.91993007,18.4895456 0.969545455,18.6109092 1.03174825,18.6327274 C1.10685315,18.6582169 1.13727273,18.5970631 1.18552448,18.5427274 C1.25454546,18.465105 1.33153846,18.6309442 1.42321679,18.5988463 C1.45143357,18.5880421 1.47597902,18.5365386 1.49349651,18.5410491 C1.67066434,18.5830071 1.67339161,18.3696505 1.81520979,18.4044757 C1.90059441,18.4254547 1.87636364,18.5575176 1.92618881,18.6389162 C1.97674825,18.7226225 2.06538462,18.734161 2.13786714,18.7016435 C2.40356644,18.5848952 2.30926574,18.2689512 2.46493007,18.0653498 C2.53468532,18.4326925 2.46755245,18.8005596 2.55031469,19.1740911 C2.67472028,19.731189 2.80583916,20.2452799 3.04688811,20.751189 C3.47465035,21.65014 4.14534965,22.3566085 5.01335665,22.9038463 C7.43706295,24.4339512 10.6643707,23.6210141 12.1843007,21.329161 C12.4035314,21.3744757 12.6782518,21.4648952 12.9386014,21.5016085 C13.0813637,21.5216435 13.2236014,21.5216435 13.3663637,21.5016085 C13.3941609,21.497098 13.4774476,21.4716085 13.4692658,21.4603848 C13.2518182,21.1524127 12.7954196,20.7896855 12.7578671,20.3253148 C13.2061888,20.4943008 13.7520629,20.6770281 14.3001399,20.863112 C13.5762588,22.3034267 12.5766084,23.6036015 11.1368182,24.4377274 L11.1368182,24.4377274 L11.1368182,24.4377274 Z M1.36332168,15.4887064 C1.80975525,14.6344407 2.39643357,13.9182169 3.11454546,13.2649302 C4.04024476,12.4237764 5.07555945,11.8684617 6.3069231,11.5942659 C7.78615385,11.2663638 9.1605944,11.336119 10.6035315,11.9692659 C10.6662588,11.9955945 10.4862588,12.3732169 10.4415734,12.3558043 C8.008007,11.4313638 5.148986,11.8125526 3.30419581,13.7039162 C2.59951049,14.425175 1.8237063,15.179056 1.67611888,16.1996854 C1.55622378,16.0395106 1.68681818,15.8049651 1.52486014,15.6702798 C1.45332168,15.6125875 1.38744755,15.7857694 1.32797203,15.7235665 C1.27017483,15.6636715 1.32797203,15.5575176 1.36332168,15.4887064 L1.36332168,15.4887064 L1.36332168,15.4887064 Z M15.5731469,7.81353158 C18.3825525,7.75405606 21.858042,7.89230781 23.7825525,7.36479033 C25.4318182,6.91374138 26.5917483,6.47842669 27.8666434,5.25346166 C28.0652098,5.0619232 28.1315035,5.09685327 28.0065735,5.30307704 C27.2205944,6.60597914 25.8627273,7.55989522 23.9932867,8.08206305 C21.8903497,8.6704197 17.8747553,8.44132879 15.5732518,8.53122389 C13.0044755,8.63097914 11.0904546,9.6068183 10.2832867,11.3406295 L9.6854895,11.1012589 C10.4093707,8.95888125 12.8214336,7.87206305 15.5731469,7.81353158 L15.5731469,7.81353158 L15.5731469,7.81353158 Z M9.5417832,19.2027274 C9.36954545,19.0111889 9.36325175,18.728077 9.4755944,18.5043358 C9.5445105,18.3677623 9.7690909,18.2058043 9.85856645,18.3074477 C9.9476224,18.4072029 9.9905245,18.5741959 10.0639511,18.6729022 C10.1225874,18.7517834 10.2124825,18.7619581 10.2727972,18.8514337 C10.3340559,18.9421679 10.3927972,19.1064337 10.4728322,19.1705246 C10.5305245,19.2183567 10.6101398,19.2393358 10.6634266,19.2989162 C10.7046504,19.3437064 10.7126224,19.4124127 10.7511189,19.4500701 C10.7896154,19.4867833 10.8575874,19.4911889 10.9005944,19.5296855 C10.9756993,19.5954547 11.0281469,19.7543707 11.1198252,19.7790211 C11.1708042,19.7919232 11.2545105,19.7376925 11.2974126,19.7624477 C11.3761888,19.8102799 11.4419581,19.8734267 11.5045804,19.944126 C11.5703497,20.0188113 11.6325525,20.1006295 11.6996853,20.1748952 C11.7609441,20.2424477 11.8195804,20.3405246 11.8965735,20.3865735 C11.9515385,20.4183567 12.0581119,20.336119 12.1019581,20.3727274 C12.1596503,20.4196155 12.187028,20.5405595 12.2460839,20.5753847 C12.3256993,20.6229022 12.4420279,20.5789511 12.4868182,20.661189 C12.5436714,20.7632519 12.6424825,20.9994756 12.736049,21.1333218 C11.4813986,20.927098 10.3856644,20.1454197 9.5417832,19.2027274 L9.5417832,19.2027274 L9.5417832,19.2027274 Z M7.8237063,13.8886365 C5.3597203,13.8886365 3.36199301,15.8863637 3.36199301,18.3512938 C3.36199301,20.815175 5.3597203,22.8129022 7.8237063,22.8129022 C9.30734265,22.8129022 10.6218881,22.0890211 11.4330419,20.9750351 L12.0294755,21.1873428 C11.1176224,22.5358743 9.57493005,23.423077 7.8237063,23.423077 C5.0223776,23.423077 2.75171329,21.1524127 2.75171329,18.351084 C2.75171329,15.5497553 5.0223776,13.278147 7.8237063,13.278147 C8.5632168,13.278147 9.3704895,13.4670631 10.0787413,13.7962239 L10.0787413,14.4987064 C9.41695805,14.1114337 8.6465035,13.8886365 7.8237063,13.8886365 L7.8237063,13.8886365 L7.8237063,13.8886365 Z M9.67374125,16.493182 C9.48314685,16.3015386 9.268007,16.1449302 9.03482515,16.0236715 L10.1126224,15.1045805 C10.1189161,15.5739861 9.9946154,16.1520631 9.7945804,16.6102449 L9.67374125,16.493182 L9.67374125,16.493182 L9.67374125,16.493182 Z M7.8316783,20.9383218 C8.22944055,20.9383218 8.6125175,20.8474827 8.9596154,20.6796504 L9.07143355,22.2465735 C8.68132865,22.3703498 8.26426575,22.4379022 7.83157345,22.4379022 C7.7545804,22.4379022 7.67685315,22.4353847 7.6006993,22.4317134 L7.36625875,20.8946854 C7.51856645,20.9225876 7.67423075,20.9383218 7.8316783,20.9383218 L7.8316783,20.9383218 L7.8316783,20.9383218 Z M7.2922028,20.4156295 L7.19506995,19.7753498 C7.3611189,19.8496155 7.5431119,19.896189 7.7338112,19.9074127 L7.2922028,20.4156295 L7.2922028,20.4156295 L7.2922028,20.4156295 Z M7.13013985,20.9768183 L7.34895105,22.409056 C6.93283215,22.3592309 6.536014,22.2493008 6.16772725,22.0846155 L7.13013985,20.9768183 L7.13013985,20.9768183 L7.13013985,20.9768183 Z M5.74185315,19.8824477 C5.8179021,19.9844057 5.8994056,20.0842658 5.990979,20.1759442 C6.27157345,20.456119 6.60493005,20.6612939 6.9686014,20.7888463 L5.93863635,21.9746855 C5.54003495,21.7665735 5.18066435,21.4944757 4.8729021,21.1727624 L5.74185315,19.8824477 L5.74185315,19.8824477 L5.74185315,19.8824477 Z M5.5712937,19.6966784 L4.70328672,20.9846854 C4.40842658,20.6367483 4.17,20.2388813 4.00353147,19.8045106 L5.5712937,19.6966784 L5.5712937,19.6966784 L5.5712937,19.6966784 Z M5.25996505,17.9280421 C5.23982515,18.0600001 5.2286014,18.1955246 5.2286014,18.3338812 C5.2286014,18.7296504 5.3186014,19.110105 5.48412585,19.4562588 L3.91898602,19.5646155 C3.79825175,19.1776574 3.73248252,18.7655246 3.73248252,18.3381819 C3.73248252,18.2989512 3.73426574,18.2596155 3.73604895,18.220175 L5.25996505,17.9280421 L5.25996505,17.9280421 L5.25996505,17.9280421 Z M5.2523077,17.6788113 L3.75073427,17.9683218 C3.79195804,17.5075176 3.90828672,17.0693707 4.08944056,16.6654197 L5.2523077,17.6788113 L5.2523077,17.6788113 L5.2523077,17.6788113 Z M6.36104895,16.187098 C5.9122028,16.4948603 5.56374125,16.9409792 5.3780769,17.4636714 L4.20041958,16.4363288 C4.43129371,15.9973428 4.73916084,15.6058742 5.10555945,15.2787064 L6.36104895,16.187098 L6.36104895,16.187098 L6.36104895,16.187098 Z M6.6513986,16.0140211 C6.6304196,16.0248253 6.6084965,16.0348952 6.5874126,16.0466435 L5.30013985,15.1169582 C5.70146855,14.8005945 6.1623776,14.5567134 6.66524475,14.4087064 L6.6513986,16.0140211 L6.6513986,16.0140211 L6.6513986,16.0140211 Z M6.27776225,18.5741959 C6.2803846,18.5933918 6.285,18.6116435 6.2876224,18.6298952 L5.76367135,19.4089512 C5.5932168,19.0805246 5.50143355,18.71507 5.50143355,18.3338812 C5.50143355,18.1964686 5.5152797,18.0617834 5.53814685,17.9288812 L6.27776225,18.5741959 L6.27776225,18.5741959 L6.27776225,18.5741959 Z M6.64153845,17.3115735 C6.6084965,17.3489162 6.5783916,17.3893008 6.5489161,17.4305246 L5.61786715,17.6080071 C5.7296853,17.2645805 5.9212238,16.9494756 6.1843007,16.6853497 C6.3108042,16.5589511 6.45094405,16.451119 6.5994755,16.3584966 L6.6487762,16.3933218 L6.64153845,17.3115735 L6.64153845,17.3115735 L6.64153845,17.3115735 Z M6.2630769,18.2359092 L5.7918881,17.8256644 L6.39146855,17.710175 C6.32076925,17.8731819 6.2760839,18.0497204 6.2630769,18.2359092 L6.2630769,18.2359092 L6.2630769,18.2359092 Z M6.65055945,19.3758043 L6.05412585,19.417133 L6.37856645,18.936084 C6.44465035,19.0972029 6.536014,19.2456295 6.65055945,19.3758043 L6.65055945,19.3758043 L6.65055945,19.3758043 Z M6.8996853,19.6050001 C6.90734265,19.6102449 6.9154196,19.6148603 6.92297205,19.6205246 L7.06216785,20.5327973 C6.73604895,20.4182518 6.43625875,20.2344757 6.1843007,19.9825176 C6.088007,19.8863288 6.0016783,19.7816435 5.9247902,19.6716085 L6.8996853,19.6050001 L6.8996853,19.6050001 L6.8996853,19.6050001 Z M7.29482515,16.8604197 C7.1480769,16.9137064 7.01076925,16.9879722 6.88814685,17.0804897 L6.89255245,16.569126 L7.29482515,16.8604197 L7.29482515,16.8604197 L7.29482515,16.8604197 Z M8.56772725,16.9485316 C8.43304195,16.8769932 8.28723775,16.8228672 8.1324126,16.7929722 L8.5152797,16.4663288 L8.56772725,16.9485316 L8.56772725,16.9485316 L8.56772725,16.9485316 Z M8.52744755,14.2994057 C9.06513985,14.3920281 9.5681119,14.587133 10.0128672,14.8667834 L8.7873776,15.9119582 C8.7583217,15.9004197 8.72884615,15.8900351 8.69884615,15.880175 L8.52744755,14.2994057 L8.52744755,14.2994057 L8.52744755,14.2994057 Z M8.3677972,19.8157344 C8.5566084,19.7476575 8.72884615,19.6443358 8.87653845,19.5140561 L8.92437065,20.1759442 L8.3677972,19.8157344 L8.3677972,19.8157344 L8.3677972,19.8157344 Z M7.8316783,19.1799651 C7.3655245,19.1799651 6.98695805,18.8015036 6.98695805,18.3339861 C6.98695805,17.8677274 7.3654196,17.4882169 7.8316783,17.4882169 C8.2993007,17.4882169 8.67776225,17.8676225 8.67776225,18.3339861 C8.67786715,18.8013987 8.2993007,19.1799651 7.8316783,19.1799651 L7.8316783,19.1799651 L7.8316783,19.1799651 Z M8.058986,19.9074127 L8.8563986,20.4243358 C8.5476923,20.5773777 8.2004895,20.6649651 7.8316783,20.6649651 C7.696993,20.6649651 7.56325175,20.6515386 7.43213285,20.6291959 L8.058986,19.9074127 L8.058986,19.9074127 L8.058986,19.9074127 Z M6.898007,15.9037763 L6.911014,14.3432518 C7.2081818,14.2756994 7.51594405,14.2381469 7.8317832,14.2381469 C7.98304195,14.2381469 8.13157345,14.2488462 8.2774825,14.2644756 L8.44384615,15.8049651 C8.2461189,15.757133 8.0416783,15.7298602 7.8317832,15.7298602 C7.50283215,15.7298602 7.1887762,15.792063 6.898007,15.9037763 L6.898007,15.9037763 L6.898007,15.9037763 Z M7.8316783,16.0027973 C8.0526923,16.0027973 8.2687762,16.0350001 8.4751049,16.0945805 L8.4831818,16.1723078 L7.786993,16.7659092 C7.72573425,16.7679022 7.66625875,16.7746155 7.60625875,16.7825875 L6.8952797,16.2693358 L6.8952797,16.1995805 C7.186993,16.0717134 7.5037762,16.0027973 7.8316783,16.0027973 L7.8316783,16.0027973 L7.8316783,16.0027973 Z M8.97713285,17.26007 C8.93234265,17.2112939 8.88356645,17.1663987 8.83353145,17.1244407 L8.7409091,16.2739512 L8.8066783,16.2179372 C9.05412585,16.3316435 9.28227275,16.4878323 9.4804196,16.6854547 L9.6853846,16.8900001 L9.52615385,17.2180071 L8.97713285,17.26007 L8.97713285,17.26007 L8.97713285,17.26007 Z M9.0836014,17.4093358 L9.4562937,17.3973778 L9.29884615,17.7583218 C9.2504895,17.6174477 9.16772725,17.5293358 9.0836014,17.4093358 L9.0836014,17.4093358 L9.0836014,17.4093358 Z M9.17444055,20.2372029 L9.1045804,19.2632518 C9.23653845,19.4484966 9.40615385,19.7137763 9.5654895,19.8489861 C9.4308042,20.0134616 9.34856645,20.1132169 9.17444055,20.2372029 L9.17444055,20.2372029 L9.17444055,20.2372029 Z M10.471993,21.4707693 C10.1284616,21.760175 9.73867135,21.9974476 9.31174825,22.1616085 L9.2034965,20.6497554 L10.471993,21.4707693 L10.471993,21.4707693 L10.471993,21.4707693 Z M9.3466783,20.4497204 C9.46206295,20.3673778 9.5716783,20.2773778 9.67374125,20.1759442 L9.83486015,20.0273078 L11.0407342,20.8841959 C10.940979,21.0041959 10.8237063,21.1464337 10.6617483,21.302098 L9.3466783,20.4497204 L9.3466783,20.4497204 L9.3466783,20.4497204 Z M25.8405944,9.17055955 C27.0804545,8.86720291 28.1175525,8.21937075 28.9449651,7.30479033 C29.0052797,7.22517494 29.2116084,6.97688823 29.2518881,6.89727284 C29.2913287,6.81755256 29.332028,6.81755256 29.3016084,6.90755256 C29.2719231,6.99618893 29.068007,7.3246155 29.0174475,7.42437075 C28.5015734,8.26909103 27.6805595,8.79125886 26.8421328,9.22038475 C25.6161189,9.8445106 24.3002098,10.2145806 22.9422378,10.2896855 C20.5230419,10.4253148 18.114965,10.3344757 15.6984965,10.3438113 C14.8133916,10.3473778 13.9786364,10.6212589 13.1941259,11.1169932 C12.3614686,11.6440911 11.7714336,12.3679722 11.3780769,13.2319932 C11.0448252,13.963112 11.0694755,14.7778323 11.0012937,15.5903497 C10.9119231,16.6664687 10.3726574,17.6168183 9.596014,18.0498253 C9.93965035,17.4220281 10.2997553,16.6985666 10.4178671,15.958112 C10.5368182,15.2139861 10.4205944,14.6257344 10.4505944,13.9688813 C10.5194056,12.4547204 11.4813986,11.1491959 12.8013986,10.4032869 C13.736014,9.8744057 14.7180419,9.5465036 15.7708742,9.50716795 C16.5972378,9.47674835 17.4175175,9.54566445 18.2451399,9.60157355 C19.2541259,9.66996515 20.2554545,9.6663987 21.2572028,9.63818195 C21.3762588,9.63555955 21.5338112,9.639126 21.6536014,9.63555955 C23.062028,9.58846165 24.4376224,9.5141959 25.8405944,9.17055955 L25.8405944,9.17055955 L25.8405944,9.17055955 Z M17.3203846,10.9128673 C17.4993357,10.8439512 17.7474126,11.1003148 17.9497553,10.9236715 C18.0660839,10.8220281 18.2926574,10.9830421 18.4637413,11.0600351 C18.6419581,11.1405945 18.7653147,11.0197554 18.9121679,10.9253498 C19.0083567,10.863147 19.1577273,11.0483918 19.3268182,11.0076925 C19.3846154,10.9942659 19.3711888,10.8657694 19.4288811,10.8587414 C19.6267133,10.8354547 19.8007343,11.0216435 19.9816783,10.9419232 C20.0463986,10.9128673 20.1172028,10.800105 20.1877972,10.7576225 C20.2745455,10.7048603 20.3926574,10.8274827 20.4563287,10.7706295 C20.6428322,10.6019582 20.8308042,10.6725526 21.003986,10.698147 C21.0406993,10.7039162 21.0764686,10.8476225 21.0326224,10.8753148 C20.300979,11.3294057 19.5744755,11.4515036 18.7382518,11.544126 C18.3345105,11.5898603 17.5319581,11.5145456 17.0411539,11.2287064 C16.7633916,11.0686365 17.17007,10.9723428 17.3203846,10.9128673 L17.3203846,10.9128673 L17.3203846,10.9128673 Z M17.6715735,14.6936015 C16.8988112,14.872133 16.1703147,14.8225176 15.4164336,14.6412588 C15.2595105,14.6037064 15.170979,14.4506644 15.046049,14.3424127 C15.0187762,14.3187064 14.8886014,14.3325526 14.8841958,14.3169232 C14.8317483,14.1630421 14.7924126,14.1004197 14.6676923,14.0005596 C14.6483916,13.9848253 14.6331818,13.8842309 14.6953846,13.8787764 C14.8877623,13.863147 15.0765735,13.8403848 15.2672728,13.8165736 C15.365035,13.8045106 15.3696504,13.6322729 15.4541958,13.5965036 C15.6519231,13.5150001 15.8756644,13.5047204 16.0944755,13.4819582 C16.6599651,13.4233218 17.2116084,13.3325876 17.7786714,13.3745456 C18.3485665,13.4179722 18.8776574,13.6026925 19.4265735,13.7706295 C19.4967483,13.7916085 19.6214686,13.8359792 19.5603147,13.9330071 C19.485,14.051119 19.3254546,14.052063 19.2009441,14.1361889 C19.0357343,14.2471679 18.7996154,14.205105 18.6510839,14.3459791 C18.4411888,14.5469582 18.1588112,14.5624826 17.8884965,14.5969931 C17.8142308,14.6072728 17.7538112,14.6738812 17.6715735,14.6936015 L17.6715735,14.6936015 L17.6715735,14.6936015 Z M14.5659441,16.5078673 C14.3105245,16.4435665 13.9292308,16.3612239 13.8697553,16.2044057 C13.9041609,16.2143708 13.9703496,16.119126 13.9730769,16.0917483 C13.9811539,15.9726925 13.7457693,15.9476225 13.6643707,15.8670631 C13.6432867,15.847133 13.6268182,15.7445455 13.6916433,15.7436015 C13.8174126,15.7404547 14.0831119,15.8497554 14.2653147,15.756189 C14.3149301,15.7316435 14.3176574,15.6598952 14.3928672,15.6289512 C14.4680769,15.5976925 14.5686714,15.6397553 14.6174476,15.6142659 C14.6639161,15.5874127 14.7391259,15.5793358 14.7739511,15.5315036 C14.7995455,15.496154 14.7583217,15.3967134 14.7958741,15.3600001 C14.8580769,15.2979022 14.9444056,15.3273778 15.0388112,15.266119 C15.0992308,15.2277274 15.1551399,15.128182 15.2034965,15.10007 C15.2951749,15.0467834 15.4163287,15.0405945 15.5206993,15.0329372 C15.8168182,15.0118532 16.1143007,15.0248602 16.4149301,15.0634617 C16.6706644,15.0957693 16.918007,15.1203148 17.1698602,15.1935316 C17.5824126,15.3127973 17.9872028,15.4025875 18.3527623,15.6258043 C18.1304895,15.9274826 17.7649301,15.9430071 17.4605245,16.1004546 C17.2148601,16.2280071 16.951049,16.2410141 16.6953147,16.3179022 C15.9944056,16.5297904 15.2705245,16.6846155 14.5659441,16.5078673 L14.5659441,16.5078673 L14.5659441,16.5078673 Z M11.1051399,17.3928673 C11.2138112,17.4113288 11.3001399,17.3499651 11.3891958,17.3719931 C11.5090909,17.401049 11.5588112,17.4122729 11.6509091,17.4595806 C11.7103846,17.4220281 11.8003846,17.4087064 11.8308042,17.3992659 C11.9986364,17.346084 12.1918532,17.4507693 12.3677623,17.4377623 C12.4536714,17.4313637 12.4483217,17.2488462 12.5136713,17.2189512 C12.7561888,17.1088113 13.0752797,17.2698253 13.3315385,17.2059442 C13.3611189,17.1978672 13.3391958,17.064126 13.4519581,16.9813637 C13.4984266,16.9468533 13.7002447,16.9437064 13.76507,16.918112 C13.7722028,16.8917834 13.7798602,16.8323078 13.8393357,16.8018882 C14.0334965,16.7055945 14.3086364,16.8658742 14.5825175,16.9100351 C14.7748951,16.9418183 14.9646503,17.0107344 15.1561888,17.0738812 C15.3045105,17.1226575 15.5287762,17.26007 15.4804196,17.3097904 C14.7077623,18.0949302 13.4992657,18.1894407 12.4361539,18.1132868 C11.8106643,18.0679721 11.1306293,18.0600001 10.6240909,17.6484966 C10.5073427,17.5548253 10.6558742,17.3606644 10.7913986,17.2887064 C10.8885315,17.2372029 11.0030769,17.3754547 11.1051399,17.3928673 L11.1051399,17.3928673 L11.1051399,17.3928673 Z M12.5427273,16.0210491 C12.8460839,16.1642309 13.1659091,16.2867483 13.4030769,16.5229721 C12.8741958,16.842168 12.2863637,16.9391959 11.6788112,17.0389512 C11.4568532,17.0756644 11.2241958,17.1142659 11.0004546,17.0254197 C11.1306293,16.5614687 11.3010839,16.1128323 11.4671329,15.6617834 C11.8455944,15.7223078 12.1945804,15.8568883 12.5427273,16.0210491 L12.5427273,16.0210491 L12.5427273,16.0210491 Z M13.5533916,11.7718533 C13.7265735,11.7114337 13.9448602,11.6630771 13.9181119,11.4283218 C13.9118182,11.3736715 14.0026573,11.3414687 14.051014,11.335175 C14.1829721,11.3176575 14.3122028,11.3128323 14.4415384,11.2792659 C14.5458042,11.2524127 14.5888112,11.1437414 14.6693707,11.0859442 C14.9506993,10.8824477 15.3028322,11.0818533 15.5767133,10.9646855 C15.7023776,10.9097204 15.8303497,10.8805596 15.9404895,10.9446505 C16.2151049,11.106189 16.6196853,11.1683918 16.702972,11.5016435 C15.7216783,12.0753148 14.5579721,12.233182 13.4389511,12.2193358 C13.4441958,12.0542309 13.3847203,11.8318533 13.5533916,11.7718533 L13.5533916,11.7718533 L13.5533916,11.7718533 Z M14.1243357,12.5987414 C14.4836014,12.6765736 14.7602098,12.8636015 15.0818182,12.9897904 C15.2066434,13.0385666 15.4732867,13.182168 15.352028,13.2528673 C14.3341258,13.8367134 13.153007,13.911084 12.0048252,13.9042658 C12.0168881,13.7303498 12.1036364,13.6085666 12.1430769,13.446189 C12.1935315,13.2389162 12.5144056,13.187098 12.5094755,12.9003148 C12.5076923,12.7423428 12.8187063,12.7727624 12.9165735,12.6345106 C12.9559091,12.5794407 12.9953497,12.4948952 13.0476923,12.4858743 C13.4115735,12.4255596 13.756993,12.5199652 14.1243357,12.5987414 L14.1243357,12.5987414 L14.1243357,12.5987414 Z M11.7287413,14.5933218 C11.803007,14.4837064 11.8535665,14.3343358 11.9167133,14.2984616 C12.3798252,14.0326574 12.9879021,14.1517134 13.5113286,14.2976225 C13.9627972,14.4228672 14.4285315,14.5293358 14.7601049,14.8783218 C14.7784615,14.8975176 14.7757342,14.9646504 14.7618881,14.9709441 C13.7605595,15.43007 12.6616783,15.6224476 11.5797902,15.5043358 C11.5485315,15.5006644 11.5878672,15.2706295 11.5677273,15.1204197 C11.5529371,15.0156295 11.6541609,14.9552099 11.7355595,14.8573428 C11.7793007,14.804056 11.6741958,14.676084 11.7287413,14.5933218 L11.7287413,14.5933218 L11.7287413,14.5933218 Z M20.5771679,12.6135316 C19.102028,13.1848952 17.5055245,13.1848952 15.9506644,13.0972029 C15.8864686,13.0936365 15.8715735,12.9723778 15.8267832,12.9119582 C15.770035,12.8322379 15.6415385,12.8112589 15.5731469,12.7606994 C15.5180769,12.7194757 15.5235315,12.6497204 15.4639511,12.6014687 C15.408042,12.5548952 15.2576224,12.5665386 15.1673077,12.5262589 C15.1333217,12.5124127 15.0904196,12.4018533 15.1333217,12.3767834 C15.3265385,12.2640211 15.6254895,12.4603848 15.7481119,12.3007344 C15.9516084,12.0376575 16.2133217,12.2330771 16.4499651,12.1422379 C16.5224476,12.1145456 16.5058742,12.0205596 16.5387063,11.9798603 C16.7422028,11.7324127 17.1179371,11.7006295 17.4423776,11.6930771 C17.7091259,11.6867834 18.0266434,11.6956994 18.2607693,11.7252799 C18.9122728,11.8269232 19.4876224,11.927098 20.0639161,12.2044407 C20.223986,12.2823778 20.4074476,12.3208743 20.5484266,12.4613288 C20.6061189,12.518182 20.555979,12.5673778 20.5771679,12.6135316 L20.5771679,12.6135316 L20.5771679,12.6135316 Z M29.4607343,7.02650362 C29.4213986,7.18583928 29.3738811,7.33248264 29.3143007,7.50209802 C28.8753147,8.74636376 27.9157343,9.54367145 26.8767483,10.3025876 C25.9026923,11.0135666 24.9223427,11.4605246 23.763042,11.7289512 C22.8817133,11.9325526 22.0364686,12.1146505 21.1515735,12.0516085 C20.9479721,12.0368183 20.7912588,11.9029722 20.6016084,11.8095106 C20.5202098,11.770175 20.3818532,11.7822379 20.2991958,11.7356645 C20.2079371,11.6833218 20.2508392,11.566154 20.3626574,11.5459092 C20.4947203,11.5217834 20.6427273,11.5759092 20.7447902,11.5182169 C21.0029371,11.3718883 21.2861539,11.4313638 21.5416783,11.3495456 C21.6929371,11.302133 21.5457693,11.0886715 21.6584266,11.0538463 C21.8039161,11.0068533 21.9635665,10.9906994 22.1157693,10.9500001 C22.1886714,10.9306994 22.2014686,10.7540561 22.2382867,10.7432519 C22.4472378,10.6824127 22.8074476,10.7714687 23.0865735,10.7660141 C23.1747902,10.765175 23.1152098,10.6045806 23.2243007,10.6026925 C23.5742308,10.599126 23.5428672,10.642133 23.7787762,10.4846855 C23.9948602,10.34014 24.5187063,10.5433218 24.5124126,10.2108043 C24.954021,10.1374827 25.4270979,10.2684966 25.8248602,9.97594415 C25.8896853,9.92926585 26.0086364,9.97594415 26.0979021,9.91909105 C26.1491958,9.88646865 26.1456294,9.80276235 26.2087762,9.7844057 C26.3747203,9.73437075 26.5506294,9.73615395 26.7053497,9.6645106 C26.7962937,9.62244765 26.7806644,9.46678335 26.8279721,9.4456994 C27.7921679,9.00765745 28.5904196,8.41846165 29.1473077,7.50293718 C29.2565035,7.32440572 29.3782867,7.07559453 29.4087063,6.99597914 C29.4379721,6.91646865 29.4858042,6.92853159 29.4607343,7.02650362 L29.4607343,7.02650362 L29.4607343,7.02650362 Z M28.2146853,10.9383568 C27.8203846,10.9069932 27.4275525,10.9482169 27.0333567,10.9173778 C26.9703147,10.9128673 26.986049,10.8117484 27.005979,10.7960141 C28.5684965,9.55269245 29.733042,7.88423089 29.7523427,5.90664347 C29.7523427,5.88199313 29.7108042,5.85167844 29.6924476,5.87569942 C28.6113986,7.30038474 27.3256993,8.60727284 25.5233916,8.8269232 C25.4382168,8.83814697 25.4325525,8.68877634 25.4987413,8.64576935 C27.1425525,7.5755246 28.344965,6.14423089 28.7461888,4.21982529 C28.7506993,4.19790222 28.7086363,4.16653858 28.6867133,4.18940571 C27.510944,5.41667844 26.1014685,6.27797215 24.4813636,6.75272739 C21.5632867,7.60909103 18.5852098,7.31874138 15.6272727,7.32807704 C14.4559091,7.33174837 13.2756294,7.43328683 12.1955245,7.93930082 C10.8612588,8.56395117 9.7159091,9.5728323 9.10017485,10.9280771 L9.080979,10.9639512 C8.6658042,10.8914687 8.238986,10.8555945 7.8026224,10.8555945 C3.64793707,10.8555945 0.278706294,14.2233568 0.278706294,18.379091 C0.278706294,22.5343008 3.64783217,25.903112 7.8026224,25.903112 C10.9896504,25.903112 13.7127273,23.9218532 14.8098252,21.1232519 L14.9158742,21.1214686 C15.2845804,21.1362588 15.6912588,21.150105 16.0550349,21.0043008 C16.0988811,20.9859441 16.2264335,20.9026575 16.1791258,20.8109791 C16.12007,20.699161 15.9396504,20.4734267 15.8837413,20.3223777 C15.8707343,20.2896505 15.8626573,20.2243008 15.9151049,20.2235665 C16.8276923,20.217063 17.8090909,20.2758043 18.6483567,19.9444407 C18.4359441,19.5939861 17.9491259,19.3350001 17.6815385,18.9904197 C17.6211189,18.9120631 17.7393357,18.8692659 17.7795105,18.8692659 C19.0541958,18.8646504 20.2424476,18.8638113 21.3652448,18.2920281 C21.4074126,18.270105 21.4081469,18.2241609 21.3836014,18.1984617 C21.1353147,17.9392658 20.8282867,17.6945456 20.5407693,17.491049 C21.9607343,17.207098 23.5232518,16.4959092 23.9724126,16.0929022 C24.0198252,16.0498952 23.988986,16.0083568 23.9639161,15.98014 C23.8448602,15.8383218 23.5267133,15.6244407 23.4673426,15.5649651 C23.4473077,15.5448253 23.4530769,15.478112 23.4647203,15.4722379 C24.7274476,14.9886715 25.9747553,14.436084 26.8816783,13.3604897 C26.9229021,13.3100351 26.8661539,13.2432169 26.8159091,13.2330421 C26.4504546,13.163182 26.1017832,13.1466085 25.7416783,13.1515386 C25.7416783,13.1037064 25.7272028,13.0334267 25.7482867,13.0204197 C26.6928672,12.4713987 27.5294056,11.895105 28.2421679,11.0628673 C28.2634616,11.0380071 28.2776224,10.9427624 28.2146853,10.9383568 L28.2146853,10.9383568 L28.2146853,10.9383568 Z" id="Shape" fill="#FFFFFF"></path>
        <path d="M28.2418532,11.0626574 C27.5290909,11.8948952 26.6924476,12.471189 25.747972,13.0202099 C25.7268881,13.0332169 25.7413637,13.1033918 25.7413637,13.1513288 C26.1015735,13.1463987 26.4501398,13.1629721 26.8155944,13.2328323 C26.8658391,13.243112 26.9225874,13.3098253 26.8813637,13.3602799 C25.9744406,14.4358742 24.7271329,14.9884616 23.4644056,15.4720281 C23.4528671,15.4779022 23.446993,15.5445106 23.4670279,15.5647554 C23.5263986,15.6242309 23.8446503,15.838112 23.9636014,15.9799302 C23.9886714,16.0082519 24.0195105,16.0496855 23.9720979,16.0926925 C23.522937,16.4956994 21.9604196,17.2068883 20.5404545,17.4908393 C20.827972,17.6943358 21.135,17.939056 21.3832867,18.1982519 C21.4078322,18.2238463 21.4072028,18.2698952 21.3649301,18.2918183 C20.2422377,18.8636015 19.053986,18.8644407 17.7791958,18.869056 C17.739021,18.869056 17.6208042,18.9118533 17.6812238,18.9902099 C17.9488112,19.3347904 18.4355245,19.5937764 18.6480419,19.9442309 C17.8087762,20.2755945 16.8274825,20.2169581 15.9147902,20.2233567 C15.8623427,20.2241959 15.8704196,20.2895456 15.8834265,20.3221679 C15.9393357,20.4732169 16.1197553,20.6989512 16.1788112,20.8107693 C16.2261189,20.9024477 16.0985664,20.9857344 16.0547203,21.0040911 C15.6908392,21.1500001 15.2841608,21.136049 14.9155594,21.1212588 L14.8095105,21.1230421 C13.7124126,23.9217483 10.9894405,25.9029022 7.8023077,25.9029022 C3.64762238,25.9029022 0.278391608,22.5341959 0.278391608,18.3788813 C0.278391608,14.2232519 3.64751748,10.8553847 7.8023077,10.8553847 C8.23867135,10.8553847 8.6654895,10.8912588 9.08066435,10.9637414 L9.09986015,10.9278672 C9.7155944,9.5726225 10.8609441,8.56363648 12.1952098,7.93909103 C13.2753147,7.43307704 14.4555944,7.33153858 15.6269581,7.32786725 C18.5848951,7.31853158 21.562972,7.60888124 24.4810489,6.7525176 C26.1011538,6.27786725 27.5106293,5.41646865 28.6863986,4.18919592 C28.7083217,4.16632879 28.7503846,4.19769243 28.7458741,4.2196155 C28.3446503,6.1440211 27.1422377,7.5753148 25.4984266,8.64555956 C25.4322377,8.68856655 25.438007,8.83793718 25.5230769,8.8267134 C27.3253846,8.60706305 28.6110839,7.30007005 29.6921328,5.87548963 C29.7104895,5.85146865 29.7520279,5.88178333 29.7520279,5.90643368 C29.7327272,7.8840211 28.5681818,9.55248265 27.0056643,10.7958043 C26.9857342,10.8115386 26.97,10.9126574 27.033042,10.9171679 C27.4272377,10.9480071 27.82007,10.9067833 28.2143706,10.938147 C28.2776224,10.9427623 28.2634615,11.0380071 28.2418532,11.0626574 L28.2418532,11.0626574 L28.2418532,11.0626574 Z M28.2337762,10.7016085 C28.0258741,10.6854546 27.8196503,10.6881819 27.6207692,10.6908043 C27.5805944,10.6917483 27.5402098,10.6917483 27.5008742,10.6917483 C28.6956294,9.6515036 29.9684266,8.04524487 29.9895105,5.9082169 C29.9905594,5.79199312 29.9108392,5.683112 29.7962937,5.64388124 C29.687937,5.60716795 29.5707693,5.6424127 29.5027972,5.7324127 C28.6589161,6.8447204 27.620035,8.00034977 26.205944,8.43839172 C27.7048951,7.30458054 28.636993,5.90465047 28.9786363,4.26702809 C29.0015035,4.15248264 28.9421329,4.03342669 28.8338811,3.97573438 C28.7260489,3.91888124 28.5984965,3.9390211 28.5161538,4.02451061 C27.3671329,5.22272739 25.9869231,6.06430082 24.4145454,6.52510501 C22.1349651,7.19318194 19.764021,7.15059452 17.4714336,7.1103148 C16.867028,7.09951061 16.2418532,7.08849662 15.6262238,7.09017494 C14.5422377,7.09426586 13.2746853,7.17209802 12.0947203,7.72416096 C10.6687762,8.39160851 9.55646855,9.4466435 8.94534965,10.7038113 C8.56856645,10.6479022 8.1855944,10.6184267 7.8025175,10.6184267 C3.52342657,10.6184267 0.0419580419,14.0994757 0.0419580419,18.3789861 C0.0419580419,22.6582869 3.52332168,26.1399652 7.8025175,26.1399652 C9.39314685,26.1399652 10.9225175,25.6616435 12.2244755,24.7566085 C13.4525874,23.9042309 14.397063,22.7323428 14.9681119,21.3607344 C15.3228672,21.3744756 15.7505245,21.3817134 16.1431469,21.2232169 C16.1641259,21.2147204 16.3418182,21.1386714 16.4056993,20.9663288 C16.4379021,20.8787414 16.4316084,20.7843358 16.3887063,20.7006295 C16.3600699,20.6463987 16.318007,20.5834616 16.2683916,20.5108742 C16.2575874,20.4955596 16.2464685,20.478147 16.2344056,20.4607344 L16.3136014,20.4607344 C17.1307342,20.4625176 17.9749301,20.46514 18.7351049,20.1646155 C18.7995105,20.139126 18.8496504,20.0858393 18.8728322,20.0199651 C18.8946503,19.9537764 18.8872028,19.8803497 18.8504895,19.8209791 C18.714965,19.5962939 18.4986713,19.4169232 18.2888811,19.2429022 C18.2329721,19.1960141 18.1779021,19.150175 18.1248251,19.1046504 C19.2934615,19.0961539 20.403986,19.0467483 21.4724475,18.5024477 C21.5582518,18.4586015 21.6168881,18.3806644 21.6324126,18.2872029 C21.6482518,18.1954197 21.6191958,18.101119 21.5546853,18.0344057 C21.420944,17.8948952 21.2643356,17.752133 21.0875874,17.6080071 C22.3667832,17.2766435 23.6853147,16.6688813 24.1305944,16.2683917 C24.2396853,16.1704197 24.2870979,15.9954546 24.1453846,15.8278323 C24.0765735,15.7455945 23.9686364,15.6545455 23.8621678,15.5722029 C25.0146504,15.1167483 26.1843357,14.5556645 27.0620979,13.5122729 C27.1315385,13.4304546 27.1508391,13.3216785 27.114965,13.2196155 C27.0756293,13.109056 26.9757692,13.0228323 26.8603846,12.9999651 C26.6974825,12.9686015 26.5324825,12.9466785 26.3565734,12.9319932 C27.0667133,12.4904897 27.785979,11.9616085 28.4217483,11.2179022 C28.497063,11.1296855 28.5188811,10.9857693 28.4741958,10.876049 C28.4325524,10.7768183 28.3412937,10.7102099 28.2337762,10.7016085 L28.2337762,10.7016085 L28.2337762,10.7016085 Z" id="Shape" fill="#EC2024"></path>
        <path d="M26.8280769,9.4456994 C26.7807692,9.46678335 26.7963986,9.62244765 26.7054545,9.6645106 C26.5506294,9.73604905 26.3748251,9.73437075 26.2088811,9.7844057 C26.1457343,9.80276235 26.1494056,9.88646865 26.098007,9.91909105 C26.0087412,9.97594415 25.8898951,9.92937075 25.824965,9.97594415 C25.4272028,10.2684966 24.9541259,10.1374827 24.5125175,10.2108043 C24.5188112,10.5432169 23.9948602,10.3400351 23.7788811,10.4846855 C23.542972,10.642133 23.5743356,10.599126 23.2244056,10.6026925 C23.1153147,10.6045806 23.1747902,10.765175 23.0866783,10.7660141 C22.8075524,10.7713638 22.4473426,10.6824127 22.2383916,10.7432519 C22.2015735,10.7540561 22.1887762,10.9306994 22.1158741,10.9500001 C21.9636713,10.9906994 21.8039161,11.0068533 21.6585315,11.0538463 C21.5458741,11.0887764 21.693042,11.302133 21.5417832,11.3495456 C21.2862587,11.4314687 21.003042,11.3718883 20.7448951,11.5182169 C20.6428322,11.5759092 20.4948252,11.5217834 20.3627622,11.5459092 C20.2509441,11.5660491 20.2079371,11.6833218 20.2993007,11.7356645 C20.3819581,11.7822379 20.5202098,11.770175 20.6017133,11.8095106 C20.7914686,11.9030771 20.9480769,12.0368183 21.1516783,12.0516085 C22.0366783,12.1147554 22.8818182,11.9325526 23.7631468,11.7289512 C24.9224476,11.4605246 25.9026923,11.0135666 26.8768531,10.3025876 C27.9158392,9.54367145 28.8755245,8.74646865 29.3144056,7.50209802 C29.3738811,7.33248263 29.4215035,7.18583928 29.4608392,7.02650362 C29.4858042,6.92842669 29.437972,6.91646865 29.4089161,6.99597914 C29.3784965,7.07559453 29.2567133,7.32440572 29.1475175,7.50293718 C28.5905245,8.41846165 27.7922727,9.00776235 26.8280769,9.4456994" id="Shape" fill="#EC2024"></path>
        <path d="M20.5485314,12.4614337 C20.4075525,12.3209792 20.2240909,12.2823778 20.064021,12.2045456 C19.4877272,11.9272029 18.9123776,11.8269232 18.2608741,11.7253848 C18.0268532,11.6959092 17.7092307,11.6869932 17.4424825,11.693182 C17.1180419,11.7008393 16.7423077,11.7325176 16.5388112,11.9799652 C16.505979,12.0206645 16.5226573,12.1146505 16.4500699,12.1423428 C16.2133217,12.233182 15.9517133,12.0376575 15.7482168,12.3008393 C15.6255944,12.4604897 15.3265384,12.264126 15.1334265,12.3768883 C15.0905245,12.4019582 15.1334265,12.5124127 15.1674126,12.5263638 C15.2577273,12.5666435 15.4081468,12.5550001 15.464056,12.6015736 C15.5236364,12.6498253 15.5181818,12.7195806 15.5732518,12.7608043 C15.6416434,12.8113638 15.7701398,12.8323428 15.8268881,12.9120631 C15.8716783,12.9724827 15.8864686,13.0937414 15.9507693,13.0973078 C17.5056293,13.1850001 19.1021329,13.1850001 20.5772727,12.6136365 C20.555979,12.5673778 20.6061189,12.518182 20.5485314,12.4614337" id="Shape" fill="#EC2024"></path>
        <path d="M11.5677273,15.1204197 C11.5878671,15.2707344 11.5485315,15.5006645 11.5797902,15.5043358 C12.6616783,15.6224476 13.7605595,15.43007 14.7618881,14.9709441 C14.7757342,14.9646505 14.7784615,14.8975176 14.7601049,14.8783218 C14.4285314,14.5293358 13.9626923,14.4228672 13.5113286,14.2976225 C12.9879021,14.1517134 12.3798252,14.0327624 11.9167133,14.2984617 C11.8536714,14.3342309 11.8031119,14.4837064 11.7287413,14.5933218 C11.6740909,14.6760841 11.7793007,14.804056 11.7354546,14.8573428 C11.6541609,14.9553148 11.5529371,15.0157344 11.5677273,15.1204197" id="Shape" fill="#EC2024"></path>
        <path d="M16.7028671,11.5016435 C16.6195804,11.1683917 16.2151049,11.106084 15.9403846,10.9446504 C15.8302448,10.8806644 15.7022728,10.9097204 15.5766084,10.9646854 C15.3027273,11.0818532 14.9505944,10.8824476 14.6692657,11.0859441 C14.5887063,11.1436365 14.5456993,11.2523078 14.4414335,11.2792658 C14.3120979,11.3128323 14.1828671,11.3176574 14.0509091,11.3351749 C14.0025524,11.3414686 13.9117133,11.3736714 13.918007,11.4283218 C13.9448602,11.663182 13.7264685,11.7115386 13.5532867,11.7718532 C13.3846154,11.8318532 13.4440909,12.0542309 13.4387412,12.2193358 C14.5578671,12.233182 15.7215734,12.0753148 16.7028671,11.5016435" id="Shape" fill="#EC2024"></path>
        <path d="M13.0477972,12.4859792 C12.9954545,12.4948952 12.956014,12.5795456 12.9166783,12.6346155 C12.8187063,12.7728673 12.5077972,12.7424477 12.5095804,12.9004197 C12.5145105,13.187098 12.1936364,13.2390211 12.1431818,13.4462939 C12.1038462,13.6086715 12.016993,13.7304547 12.0049301,13.9043708 C13.153007,13.911084 14.3342307,13.8368183 15.3521329,13.2529722 C15.4733916,13.1822729 15.2067483,13.0386715 15.0819231,12.9898952 C14.7602098,12.8637064 14.4837063,12.6766785 14.1244405,12.5988463 C13.756993,12.5199652 13.4115735,12.4255596 13.0477972,12.4859792" id="Shape" fill="#EC2024"></path>
        <path d="M11.0004546,17.0255246 C11.2240909,17.1143708 11.4568532,17.0757693 11.6788112,17.039056 C12.2863637,16.9393008 12.8743007,16.8422729 13.4030769,16.523077 C13.1659091,16.2868533 12.8460839,16.1643358 12.5427273,16.021154 C12.1945804,15.8569931 11.8455944,15.7223078 11.4671329,15.6618883 C11.3010839,16.1128323 11.1306293,16.5615736 11.0004546,17.0255246" id="Shape" fill="#EC2024"></path>
        <path d="M10.7913986,17.2887064 C10.6558742,17.3606644 10.5073427,17.5548253 10.6240909,17.6484966 C11.1306293,18.0600001 11.8106643,18.0679721 12.4361539,18.1132868 C13.4992657,18.1894407 14.7077623,18.0949302 15.4804196,17.3097904 C15.5287762,17.26007 15.3045105,17.1226575 15.1561888,17.0738812 C14.9645454,17.0107344 14.7748951,16.9418183 14.5825175,16.9100351 C14.3086364,16.8658742 14.0334965,16.7055945 13.8393357,16.8018882 C13.7797552,16.8323078 13.7722028,16.8917834 13.76507,16.918112 C13.7002447,16.9436015 13.4984265,16.9467484 13.4519581,16.9813637 C13.3391958,17.064126 13.3611189,17.1977623 13.3315385,17.2059442 C13.0752797,17.2698253 12.7561888,17.1088113 12.5136713,17.2189512 C12.4483217,17.2488462 12.4536714,17.4313637 12.3677623,17.4377623 C12.1919581,17.4507693 11.9986363,17.346084 11.8308042,17.3992659 C11.8003846,17.4087064 11.7104895,17.4220281 11.6509091,17.4595806 C11.5588112,17.4122729 11.5090909,17.401049 11.3891958,17.3719931 C11.3001399,17.3499651 11.2138112,17.4113288 11.1051399,17.3928673 C11.0030769,17.3754547 10.8885315,17.2372029 10.7913986,17.2887064" id="Shape" fill="#EC2024"></path>
        <path d="M17.4607343,16.1006644 C17.765035,15.9432169 18.1306993,15.9276925 18.3529721,15.6260141 C17.9874126,15.4027973 17.5825175,15.3130071 17.1700699,15.1937414 C16.9182168,15.1205246 16.6707692,15.0958742 16.4151398,15.0636714 C16.1145105,15.025175 15.8170279,15.012168 15.5209091,15.033147 C15.4165384,15.0408043 15.2953846,15.0469932 15.2037063,15.1002798 C15.1553496,15.1283918 15.0994406,15.2279372 15.039021,15.2663288 C14.9446154,15.3275875 14.8581818,15.298112 14.7960839,15.3602099 C14.7585314,15.3969232 14.7996504,15.4963637 14.7741608,15.5317134 C14.7392308,15.5795456 14.6641258,15.5876225 14.6176573,15.6144756 C14.5688811,15.6398602 14.4682867,15.5979022 14.3930769,15.6291609 C14.3178671,15.660105 14.3151398,15.7318532 14.2655245,15.7563987 C14.0834266,15.8499651 13.8176224,15.7406644 13.6918532,15.7438113 C13.627028,15.7447554 13.6436014,15.8472379 13.6645804,15.8672729 C13.745979,15.9478323 13.9813637,15.9729022 13.9732867,16.0919581 C13.9706643,16.1193358 13.9043707,16.2145805 13.869965,16.2046155 C13.9294406,16.3613288 14.3107342,16.4436714 14.5661538,16.508077 C15.2707343,16.6848253 15.9947203,16.5300001 16.6957343,16.3183218 C16.9512588,16.2412239 17.21507,16.2282169 17.4607343,16.1006644" id="Shape" fill="#EC2024"></path>
        <path d="M19.2008392,14.136084 C19.3253496,14.0519582 19.4848951,14.0510141 19.5602098,13.9329022 C19.6213636,13.8358743 19.4966433,13.7915036 19.4264685,13.7705246 C18.8775524,13.6025876 18.3484615,13.4178673 17.7785664,13.3744407 C17.2116084,13.3324827 16.6598602,13.4232169 16.0943706,13.4818533 C15.8755595,13.5046155 15.6518182,13.5148952 15.4540909,13.5963987 C15.3694406,13.632168 15.3648251,13.8044057 15.2671678,13.8164687 C15.0764685,13.8402799 14.8876573,13.8630421 14.6952797,13.8786715 C14.6330769,13.8840211 14.6482867,13.9847204 14.6675874,14.0004547 C14.7923077,14.1002099 14.8317483,14.1628323 14.8840909,14.3168183 C14.8884965,14.3324477 15.0186713,14.3186015 15.045944,14.3423078 C15.1708741,14.4505595 15.2594056,14.6036015 15.4163287,14.6411539 C16.1703147,14.8224127 16.8987063,14.8720281 17.6714686,14.6934966 C17.7537063,14.6737764 17.8141258,14.6071679 17.8882867,14.5968882 C18.1584965,14.5623777 18.440979,14.5467483 18.6508741,14.3458742 C18.7995105,14.2050001 19.0356294,14.247063 19.2008392,14.136084" id="Shape" fill="#EC2024"></path>
        <path d="M18.7382517,11.544126 C19.5744755,11.4515036 20.300979,11.3294057 21.0326224,10.8753148 C21.0764685,10.8475176 21.0405944,10.7039162 21.003986,10.6981469 C20.8309091,10.6725525 20.642937,10.6019581 20.4563286,10.7706295 C20.3927622,10.8274827 20.2746503,10.7048602 20.1877972,10.7576225 C20.1172028,10.800105 20.0463986,10.9128672 19.9816783,10.9419232 C19.8007342,11.0215386 19.6267133,10.8354546 19.4288811,10.8587414 C19.3711888,10.8658742 19.3846154,10.9942658 19.3268182,11.0076925 C19.1577272,11.0483918 19.0083566,10.8631469 18.9121678,10.9253497 C18.7653147,11.0197553 18.641958,11.1405945 18.4637412,11.0600351 C18.2925524,10.983147 18.0660839,10.8220281 17.9497552,10.9236714 C17.7474126,11.1003148 17.4993356,10.8439511 17.3203846,10.9128672 C17.169965,10.9723428 16.7632867,11.0686365 17.0411538,11.2287064 C17.531958,11.5145455 18.3345105,11.5898602 18.7382517,11.544126" id="Shape" fill="#EC2024"></path>
        <path d="M21.2570979,9.63807705 C20.2553496,9.66629385 19.254021,9.66986025 18.245035,9.60146865 C17.4174126,9.54555955 16.5971329,9.4766435 15.7707693,9.50706305 C14.717937,9.5463987 13.7359091,9.8744057 12.8012937,10.403182 C11.4813986,11.1490911 10.5194056,12.4546155 10.4504895,13.9687764 C10.4204895,14.6256295 10.5367133,15.2138813 10.4177622,15.9580071 C10.2996504,16.6985666 9.93944055,17.4219232 9.5959091,18.0497204 C10.3725525,17.6167134 10.9118182,16.6663638 11.0011888,15.5902448 C11.0692657,14.7777274 11.0447203,13.9629022 11.3779721,13.2318883 C11.7713286,12.3678673 12.3614685,11.6439861 13.194021,11.1168883 C13.9784266,10.621154 14.8132867,10.3472729 15.6983916,10.3437064 C18.1148601,10.3343708 20.5229371,10.4252099 22.9421329,10.2895806 C24.3,10.2144757 25.6159091,9.8444057 26.8420279,9.22027985 C27.6804546,8.79115397 28.5014685,8.26898613 29.0173426,7.42426585 C29.0679021,7.32440572 29.2718182,6.99597914 29.3015035,6.90744767 C29.3319231,6.81755257 29.2912238,6.81755257 29.2517832,6.89716795 C29.2115035,6.97678333 29.0051748,7.22507005 28.9448602,7.30468544 C28.1174476,8.21926585 27.0804545,8.86709802 25.8404895,9.17045465 C24.4375175,9.51409105 23.062028,9.58835675 21.6534965,9.63534975 C21.5337063,9.6390211 21.3761539,9.63545465 21.2570979,9.63807705" id="Shape" fill="#EC2024"></path>
        <path d="M11.0406293,20.8841959 L9.83475525,20.0273078 L9.67363635,20.1759442 C9.57157345,20.2774827 9.46195805,20.3673778 9.34657345,20.4497204 L10.6615385,21.302098 C10.8237063,21.1464337 10.9408742,21.0040911 11.0406293,20.8841959" id="Shape" fill="#EC2024"></path>
        <path d="M9.31174825,22.1615036 C9.73856645,21.9973428 10.1283567,21.7600701 10.471993,21.4706644 L9.2036014,20.6496505 L9.31174825,22.1615036" id="Shape" fill="#EC2024"></path>
        <path d="M9.1046853,19.2632518 L9.17454545,20.2372029 C9.34856645,20.1132169 9.4309091,20.0134616 9.5655944,19.8489862 C9.40615385,19.7137763 9.23664335,19.4483918 9.1046853,19.2632518" id="Shape" fill="#EC2024"></path>
        <path d="M9.0836014,17.4093358 C9.16772725,17.5294407 9.2504895,17.6174477 9.29884615,17.7583218 L9.4562937,17.3973778 L9.0836014,17.4093358" id="Shape" fill="#EC2024"></path>
        <path d="M9.6853846,16.8900001 L9.4804196,16.6854547 C9.28216785,16.4878323 9.05412585,16.3316435 8.8066783,16.2179372 L8.7409091,16.2739512 L8.83353145,17.1244407 C8.88367135,17.1663987 8.93234265,17.2112939 8.97713285,17.26007 L9.52615385,17.2180071 L9.6853846,16.8900001" id="Shape" fill="#EC2024"></path>
        <path d="M6.8952797,16.2694407 L7.60625875,16.7826925 C7.66615385,16.7747204 7.72562935,16.7679022 7.786993,16.7660141 L8.4831818,16.1724127 L8.4751049,16.0946855 C8.2688811,16.035105 8.0527972,16.0029022 7.8316783,16.0029022 C7.5037762,16.0029022 7.186993,16.0718183 6.8952797,16.1997904 L6.8952797,16.2694407" id="Shape" fill="#EC2024"></path>
        <path d="M8.44384615,15.8049651 L8.2774825,14.2644756 C8.13157345,14.2488462 7.98304195,14.238147 7.8317832,14.238147 C7.51594405,14.238147 7.2081818,14.2756994 6.911014,14.3432518 L6.898007,15.9037763 C7.1887762,15.792063 7.50283215,15.7298602 7.8316783,15.7298602 C8.04157345,15.7298602 8.246014,15.757133 8.44384615,15.8049651" id="Shape" fill="#EC2024"></path>
        <path d="M7.8316783,20.6649651 C8.2003846,20.6649651 8.5475874,20.5773777 8.8563986,20.4243358 L8.058986,19.9074127 L7.43213285,20.6291959 C7.56325175,20.6515386 7.696993,20.6649651 7.8316783,20.6649651" id="Shape" fill="#EC2024"></path>
        <path d="M8.67786715,18.3338812 C8.67786715,17.8676225 8.2993007,17.488112 7.8317832,17.488112 C7.36562935,17.488112 6.98706295,17.8675176 6.98706295,18.3338812 C6.98706295,18.8013987 7.3655245,19.1798603 7.8317832,19.1798603 C8.2993007,19.1799651 8.67786715,18.8013987 8.67786715,18.3338812" id="Shape" fill="#EC2024"></path>
        <path d="M8.87653845,19.5140561 C8.72895105,19.6443358 8.5566084,19.7476575 8.3677972,19.8157344 L8.92437065,20.1759442 L8.87653845,19.5140561" id="Shape" fill="#EC2024"></path>
        <path d="M10.0129721,14.8666785 C9.5682168,14.5870281 9.06524475,14.3920281 8.52755245,14.2993008 L8.69895105,15.8800701 C8.72895105,15.8899302 8.75842655,15.9002099 8.7874825,15.9118533 L10.0129721,14.8666785" id="Shape" fill="#EC2024"></path>
        <path d="M8.1324126,16.7929722 C8.28723775,16.8228672 8.43304195,16.877098 8.56772725,16.9485316 L8.5152797,16.4662239 L8.1324126,16.7929722" id="Shape" fill="#EC2024"></path>
        <path d="M6.88814685,17.0804897 C7.01076925,16.9879721 7.1480769,16.9137064 7.29482515,16.8604197 L6.89265735,16.569126 L6.88814685,17.0804897" id="Shape" fill="#EC2024"></path>
        <path d="M6.1844056,19.9826225 C6.43625875,20.2345805 6.73604895,20.4183567 7.06227275,20.5329022 L6.9230769,19.6206295 C6.9155245,19.6148602 6.90744755,19.6102449 6.8997902,19.605105 L5.9248951,19.6718183 C6.0017832,19.7817484 6.0881119,19.8864337 6.1844056,19.9826225" id="Shape" fill="#EC2024"></path>
        <path d="M6.65055945,19.3758043 C6.536014,19.2456295 6.44475525,19.0972029 6.37856645,18.936084 L6.05412585,19.417133 L6.65055945,19.3758043" id="Shape" fill="#EC2024"></path>
        <path d="M6.2630769,18.2359092 C6.2760839,18.0498253 6.32076925,17.8731819 6.39146855,17.7101749 L5.7918881,17.8256644 L6.2630769,18.2359092" id="Shape" fill="#EC2024"></path>
        <path d="M6.1844056,16.6853498 C5.92132865,16.9494757 5.7297902,17.2644756 5.61797205,17.6080071 L6.549021,17.4305246 C6.5784965,17.3893008 6.6084965,17.3490211 6.64164335,17.3115736 L6.6487762,16.3933218 L6.5994755,16.3584966 C6.45104895,16.451119 6.3109091,16.5589512 6.1844056,16.6853498" id="Shape" fill="#EC2024"></path>
        <path d="M5.50153845,18.3338812 C5.50153845,18.71507 5.5932168,19.0805246 5.7637762,19.4089512 L6.28772725,18.6298952 C6.2851049,18.6116435 6.2804895,18.5932869 6.27786715,18.5741959 L5.53835665,17.9288812 C5.5154895,18.0617834 5.50153845,18.1965736 5.50153845,18.3338812" id="Shape" fill="#EC2024"></path>
        <path d="M6.5874126,16.0466435 C6.6084965,16.0350001 6.6304196,16.0248253 6.6513986,16.0140211 L6.66524475,14.4086015 C6.1623776,14.5567134 5.70146855,14.8004896 5.30013985,15.1168533 L6.5874126,16.0466435" id="Shape" fill="#EC2024"></path>
        <path d="M4.20041958,16.4363288 L5.3780769,17.4636715 C5.56374125,16.9409792 5.9122028,16.4948603 6.36104895,16.187098 L5.10555945,15.2787064 C4.73916084,15.6058743 4.4312937,15.9974477 4.20041958,16.4363288" id="Shape" fill="#EC2024"></path>
        <path d="M3.75073427,17.9683218 L5.2523077,17.6788113 L4.08944056,16.6654197 C3.90828672,17.0693707 3.79185315,17.5075176 3.75073427,17.9683218" id="Shape" fill="#EC2024"></path>
        <path d="M3.73248252,18.3381819 C3.73248252,18.7655246 3.79825175,19.1776574 3.91898602,19.5646155 L5.48412585,19.4562588 C5.3186014,19.110105 5.2286014,18.7296504 5.2286014,18.3338812 C5.2286014,18.1955246 5.2397203,18.0600001 5.25996505,17.9280421 L3.73604895,18.220175 C3.73426574,18.2596155 3.73248252,18.2989512 3.73248252,18.3381819" id="Shape" fill="#EC2024"></path>
        <path d="M5.5712937,19.6966785 L4.00353147,19.8045106 C4.16989511,20.2388813 4.40842658,20.6367483 4.70328671,20.9846855 L5.5712937,19.6966785" id="Shape" fill="#EC2024"></path>
        <path d="M6.9687063,20.7888463 C6.60493005,20.6612939 6.27157345,20.456119 5.9910839,20.1759442 C5.8994056,20.0842658 5.818007,19.9844057 5.74195805,19.8824477 L4.87300699,21.1727624 C5.18087415,21.4943707 5.54013985,21.7664686 5.93874125,21.9746855 L6.9687063,20.7888463" id="Shape" fill="#EC2024"></path>
        <path d="M7.13013985,20.9768183 L6.16772725,22.0847204 C6.536014,22.2493008 6.93283215,22.3593358 7.34895105,22.4091609 L7.13013985,20.9768183" id="Shape" fill="#EC2024"></path>
        <path d="M7.19506995,19.7753498 L7.2922028,20.4156295 L7.7338112,19.9074127 C7.5431119,19.8962939 7.361014,19.8496155 7.19506995,19.7753498" id="Shape" fill="#EC2024"></path>
        <path d="M7.8316783,22.4380071 C8.26437065,22.4380071 8.68143355,22.3703498 9.07153845,22.2466784 L8.9597203,20.6797553 C8.6125175,20.8475875 8.22954545,20.9384267 7.8317832,20.9384267 C7.67433565,20.9384267 7.51867135,20.9226925 7.36646855,20.8948952 L7.6009091,22.4319232 C7.67695805,22.4354896 7.7546853,22.4380071 7.8316783,22.4380071" id="Shape" fill="#EC2024"></path>
        <path d="M10.1126224,15.1046854 L9.03482515,16.0237764 C9.268007,16.1449302 9.48314685,16.3015386 9.67374125,16.4932869 L9.7945804,16.6104546 C9.9946154,16.152168 10.1189161,15.574091 10.1126224,15.1046854" id="Shape" fill="#EC2024"></path>
        <path d="M7.8237063,13.2783568 C5.0223776,13.2783568 2.75171329,15.5499652 2.75171329,18.3512938 C2.75171329,21.1525176 5.0223776,23.4232868 7.8237063,23.4232868 C9.57493005,23.4232868 11.1176224,22.5360841 12.0294755,21.1875526 L11.4330419,20.9752449 C10.6218881,22.089126 9.30734265,22.813112 7.8237063,22.813112 C5.3597203,22.813112 3.361993,20.8153848 3.361993,18.3515036 C3.361993,15.8865735 5.3597203,13.8888463 7.8237063,13.8888463 C8.6465035,13.8888463 9.41695805,14.1116435 10.0787413,14.499126 L10.0787413,13.7966435 C9.3704895,13.4672729 8.5632168,13.2783568 7.8237063,13.2783568" id="Shape" fill="#EC2024"></path>
        <path d="M12.4868182,20.6612939 C12.442028,20.5790561 12.3256993,20.6230071 12.2460839,20.5754896 C12.187028,20.5406644 12.1597553,20.4198253 12.1019581,20.3728323 C12.0581119,20.336119 11.9515385,20.4184616 11.8965735,20.3866784 C11.8195804,20.3407344 11.761049,20.2425526 11.6996853,20.1750001 C11.6325525,20.1007344 11.5703497,20.0189162 11.5045804,19.9442309 C11.4419581,19.8734267 11.3761888,19.8103848 11.2974126,19.7625526 C11.2545105,19.7379022 11.1708042,19.7920281 11.1198252,19.779126 C11.0281469,19.7544756 10.9756993,19.5955596 10.9005944,19.5297904 C10.8575874,19.4912938 10.7896154,19.4868882 10.7511189,19.4501749 C10.7126224,19.4125176 10.7046504,19.3437064 10.6634266,19.2990211 C10.6101399,19.2395456 10.5305245,19.2184617 10.4728322,19.1706295 C10.3926923,19.1065386 10.334056,18.9422729 10.2727972,18.8515386 C10.2123776,18.7619581 10.1224825,18.7518883 10.0639511,18.6730071 C9.9905245,18.5743008 9.9475175,18.4073078 9.85856645,18.3075526 C9.7690909,18.2059092 9.5445105,18.3678672 9.4755944,18.5044407 C9.36325175,18.7281819 9.36954545,19.0112938 9.5417832,19.2028323 C10.3856644,20.1454197 11.4813986,20.927098 12.736049,21.1334267 C12.6423776,20.9994756 12.5436714,20.7632519 12.4868182,20.6612939" id="Shape" fill="#EC2024"></path>
        <path d="M15.5731469,8.5312239 C17.8746504,8.44132879 21.8903497,8.6704197 23.9931818,8.08206305 C25.8625175,7.55989523 27.2204895,6.60597914 28.0064686,5.30307704 C28.1313986,5.09685327 28.0651049,5.06192319 27.8665385,5.25346165 C26.5917483,6.47842669 25.4317133,6.91384628 23.7824476,7.36479033 C21.8579371,7.8924127 18.3825524,7.75405606 15.573042,7.81353158 C12.8213287,7.87216795 10.4092658,8.95888125 9.6852797,11.1012589 L10.2830769,11.3406295 C11.0903497,9.6068183 13.0043707,8.63097914 15.5731469,8.5312239" id="Shape" fill="#EC2024"></path>
        <path d="M1.52486014,15.6702799 C1.68681818,15.8049651 1.55622378,16.0395106 1.67611888,16.1996855 C1.8237063,15.179161 2.59961538,14.425175 3.3041958,13.7039162 C5.148986,11.8126575 8.008007,11.4314687 10.4415734,12.3558043 C10.4862587,12.3732169 10.6662588,11.9955945 10.6035314,11.9692659 C9.1605944,11.336119 7.78615385,11.2663638 6.3069231,11.5942659 C5.07555945,11.8685666 4.04024475,12.4237764 3.11454546,13.2649302 C2.39643357,13.9182169 1.80986014,14.6345456 1.36332168,15.4887064 C1.32797203,15.5575176 1.27017483,15.6636715 1.32797203,15.7234617 C1.38744755,15.7856645 1.45321678,15.6125876 1.52486014,15.6702799" id="Shape" fill="#EC2024"></path>
        <path d="M13.4692657,21.4604897 C13.4773427,21.4716085 13.394056,21.4972029 13.3663637,21.5017134 C13.2237063,21.5217484 13.0813637,21.5217484 12.9386014,21.5017134 C12.6782517,21.4650001 12.4035314,21.3745806 12.1843007,21.3292659 C10.6643707,23.621119 7.43706295,24.4340561 5.01335665,22.9039512 C4.14545454,22.3566085 3.47475524,21.6502449 3.04688811,20.7512939 C2.80573426,20.2453848 2.67472028,19.731189 2.55031469,19.1741959 C2.46755245,18.8005596 2.53468531,18.4327973 2.46493007,18.0654547 C2.30926573,18.2690561 2.40356644,18.5850001 2.13786714,18.7017484 C2.06538462,18.7343708 1.97674825,18.7227274 1.92618881,18.6390211 C1.87646853,18.5576225 1.9006993,18.4255596 1.81520979,18.4045806 C1.67339161,18.3697554 1.67066433,18.583112 1.4934965,18.541154 C1.47597902,18.5366435 1.45143357,18.588147 1.42321678,18.5989512 C1.33153846,18.6310491 1.25454545,18.4652099 1.18552448,18.5428323 C1.13727273,18.5972729 1.10685315,18.6584267 1.03174825,18.6328323 C0.969545455,18.6110141 0.91993007,18.4896505 0.91993007,18.4963638 C0.871573425,21.795105 3.50517483,24.7934267 6.80842655,25.2816085 C7.2858042,25.3523078 7.75657345,25.3844057 8.2388811,25.3402449 C9.27146855,25.2450001 10.2226574,24.9674477 11.1368182,24.4378323 C12.5766084,23.6038113 13.5761539,22.3035316 14.3001399,20.8633218 C13.7520629,20.6772379 13.2061888,20.4945106 12.7578671,20.3255246 C12.7954196,20.7897904 13.2518182,21.1525176 13.4692657,21.4604897" id="Shape" fill="#EC2024"></path>
        <path d="M15.2626574,20.3454546 C15.1351049,20.3095806 15.0231818,20.2388813 14.906014,20.1907344 C14.8335315,20.161154 14.7646154,20.2729721 14.6867832,20.2269232 C14.5292308,20.1325176 14.3937063,19.9977274 14.268042,19.898077 C14.1682867,19.8182518 13.9695105,19.6197904 13.8832867,19.659126 C13.8505595,19.6744407 13.8018881,19.8595806 13.7203846,19.798112 C13.5239161,19.6516785 13.396993,19.4929721 13.2134266,19.3329022 C13.1302448,19.2604197 13.0496853,19.501154 12.9432168,19.4500701 C12.6984965,19.3304897 12.6004196,19.0662589 12.4117133,18.8773428 C12.192063,18.6590561 11.9821679,18.4053148 11.6796504,18.3256994 C11.6290909,18.3118533 11.6577273,18.38507 11.6097902,18.4228323 C11.379021,18.6031469 11.1252797,18.2943358 10.9006993,18.1918532 C10.6953147,18.0966085 10.514056,17.9462939 10.2832867,17.9297204 C10.2335665,17.927098 10.2353497,18.0005246 10.2546504,18.0232868 C11.5723427,19.582133 13.4023427,20.7522379 15.4107693,20.70514 C15.4576574,20.7043008 15.553007,20.7092309 15.4742308,20.6128323 C15.4124476,20.5360491 15.3421679,20.3673778 15.2626574,20.3454546" id="Shape" fill="#EC2024"></path>
        <path d="M17.1287413,19.2099652 C17.0701049,19.2009442 16.9784266,19.2797204 16.9283916,19.2702799 C16.7727273,19.242168 16.6496853,19.1008743 16.4599301,19.0010141 C16.381993,18.9607344 16.3418182,19.14514 16.2804546,19.1409442 C15.9669231,19.1232169 15.5145105,18.790175 15.2347553,18.6225526 C15.1843007,18.5934966 14.8857693,18.6528673 14.8361539,18.6632519 C14.6566783,18.6987064 14.4276923,18.3836015 14.2854546,18.3174127 C14.1794056,18.2682169 14.0299301,18.2140911 13.9283916,18.2909792 C13.7897203,18.3934617 13.6258742,18.3382869 13.4755595,18.3366085 C13.4160839,18.3357694 13.3645804,18.4597554 13.2920979,18.4834617 C13.0862937,18.5496505 12.858042,18.4055246 12.6553846,18.5062239 C12.6499301,18.5089512 12.6213986,18.5515386 12.6230769,18.5655945 C12.637028,18.6932519 12.7788462,18.7142309 12.8723077,18.7710841 C13.2199301,18.9836015 13.5761539,19.1258393 13.9448602,19.2754197 C14.4960839,19.4986365 15.0625175,19.6655246 15.663042,19.7195456 C16.3381469,19.7799652 17.25,19.8735316 17.8052098,19.7093708 C17.8335315,19.7003498 17.7896853,19.5937764 17.7049301,19.5297904 C17.6182867,19.4626575 17.4898951,19.438112 17.4357693,19.4005596 C17.3103147,19.3115036 17.2433916,19.2264337 17.1287413,19.2099652" id="Shape" fill="#EC2024"></path>
        <path d="M20.0446154,17.872133 C19.8915735,17.9169232 19.7734616,17.8053148 19.6459091,17.8536715 C19.6169581,17.8658393 19.5967133,17.9131469 19.5717483,17.914091 C19.3329021,17.9176575 19.1722028,17.6595106 18.9279021,17.6788113 C18.867063,17.684161 18.8679021,17.7915736 18.8168182,17.8033218 C18.6656644,17.8389862 18.5317133,17.6560491 18.3962937,17.7218183 C18.3001049,17.7688113 18.232028,17.7656644 18.1385664,17.7382868 C18.0185665,17.7034616 17.9287762,17.5964687 17.8123427,17.5782169 C17.7108042,17.5616435 17.6088462,17.6632869 17.4933567,17.6300351 C17.2048951,17.5460141 16.9814686,17.2722379 16.6723427,17.337063 C16.5193007,17.370105 16.3887063,17.2654197 16.2823427,17.3288813 C16.1675874,17.3973778 16.1336014,17.481084 16.0172728,17.5504197 C15.9377623,17.5983568 15.7515735,17.5916435 15.6682867,17.6430421 C15.6048252,17.6815386 15.5896154,17.7786714 15.5171329,17.8081469 C15.3826574,17.8650001 15.2219581,17.8247204 15.0947203,17.8959442 C15.080035,17.9052798 15.0719581,17.9759792 15.1257693,17.9902448 C16.0312238,18.2393708 16.8927273,18.5119932 17.8143357,18.5095806 C18.7182168,18.5088462 19.6152797,18.5127274 20.503007,18.2385316 C20.5737063,18.2175526 20.5883916,18.1753847 20.5303846,18.1091959 C20.4057693,17.9638113 20.2335315,17.8162239 20.0446154,17.872133" id="Shape" fill="#EC2024"></path>
        <path d="M22.7778671,15.8707344 C22.5766783,15.9644057 22.3426573,15.8609792 22.1193357,15.9127973 C22.0606993,15.9266435 22.1045454,16.0099302 22.0468532,16.0183218 C21.8277272,16.0496855 21.6008391,15.9938812 21.3946154,16.0743358 C21.234021,16.1365386 21.0405944,16.0658393 20.8638462,16.0698253 C20.7967133,16.0717134 20.795035,16.1620281 20.7841258,16.2345106 C20.7747902,16.2978672 20.6813287,16.3345806 20.654056,16.326189 C20.4338811,16.2612589 20.223986,16.2372379 20.0025524,16.2044057 C19.4436713,16.1224827 18.8911888,15.9448952 18.365979,16.1016085 C18.1943706,16.153112 17.9681119,16.195175 17.8368881,16.3289162 C17.786014,16.3803148 17.7327272,16.4830071 17.6654895,16.5078673 C17.3443007,16.6233567 16.9948951,16.646119 16.6754895,16.7588812 C16.5778321,16.7938113 16.393951,16.9294407 16.4624476,16.9477973 C17.8034266,17.2896504 19.1135665,17.3250001 20.5055245,17.064126 C21.5257342,16.8735316 22.4611888,16.5858043 23.3381119,16.0926924 C23.2719231,16.0089862 22.9309091,15.7996155 22.7778671,15.8707344" id="Shape" fill="#EC2024"></path>
        <path d="M25.053042,13.5992309 C24.926958,13.6412939 24.752937,13.5213987 24.6437413,13.6019582 C24.4813636,13.7213288 24.2907693,13.7003498 24.1241958,13.6829372 C24.0446853,13.6743358 23.9198602,13.6462239 23.8492658,13.7012939 C23.8044755,13.7366435 23.8691958,13.7943358 23.9126224,13.8328323 C23.4920979,13.9776924 23.028986,13.842168 22.6317483,14.0023428 C22.6013286,14.0154547 22.5838112,14.1612588 22.5104895,14.1755246 C22.1450349,14.2497903 21.8031818,14.106084 21.4402448,14.1718532 C21.3485664,14.1892658 21.39,14.3844757 21.2925524,14.3893008 C20.9672727,14.4045106 20.6504895,14.3772379 20.3261539,14.3632868 C19.9396154,14.3476574 19.5838112,14.488112 19.2182518,14.6000351 C19.11,14.6326574 19.0768532,14.8050001 18.9605245,14.8224127 C18.6456294,14.871189 18.3247552,14.8152798 18.0371328,14.9569932 C18.016993,14.9673778 18.0160489,15.0645106 18.0371328,15.0757344 C18.3896853,15.2741959 18.794056,15.4125525 19.033951,15.7334267 C21.4872377,15.7088812 24.1260839,15.3879022 26.1677623,13.7136715 C26.2078322,13.6805246 25.9659441,13.6304897 25.8366084,13.6000701 C25.7095804,13.5710141 25.6048951,13.5710141 25.451014,13.5204547 C25.3136014,13.4756645 25.1877272,13.5553848 25.053042,13.5992309" id="Shape" fill="#EC2024"></path>
        <path d="M27.5998951,11.2926925 C27.5751398,11.2784267 27.2039161,11.2112939 26.9985315,11.2600701 C26.9556293,11.2699302 26.9293007,11.3414687 26.8867133,11.3477624 C26.6232168,11.391189 26.4362937,11.5172729 26.1669231,11.5248253 C26.1109091,11.5275526 25.9897553,11.5668883 25.9166434,11.6018183 C25.8196154,11.6483918 25.6858742,11.5329022 25.6097203,11.6188113 C25.5602098,11.6737764 25.646014,11.8067834 25.5565385,11.8492659 C25.3215734,11.9587764 25.0477972,11.7619932 24.8177623,11.9105246 C24.7520979,11.9543708 24.8895105,12.101119 24.8029721,12.1274477 C24.4724475,12.2312939 23.9013986,11.7189862 23.6862588,12.2514337 C23.6523776,12.3346155 23.548951,12.2962239 23.4845454,12.2796505 C23.4222378,12.2629722 23.3332867,12.2348603 23.2965735,12.2658043 C23.0942308,12.4299652 22.9752797,12.4957344 22.6912238,12.416119 C22.6187412,12.3950351 22.6179021,12.6093358 22.4788112,12.5749302 C22.3182168,12.5373778 22.1650699,12.4218883 22.0183217,12.4868183 C21.9506644,12.5172379 22.0013287,12.6948253 21.901993,12.7038463 C21.5047552,12.7423428 21.09493,12.6845456 20.7284265,12.8478673 C20.6384265,12.888147 20.6294056,13.0506295 20.5037413,13.0716085 C20.2240909,13.1172379 19.9459091,13.0850351 19.6862937,13.1695806 C19.6442307,13.1829022 19.6535664,13.3069932 19.7176573,13.3167484 C19.8854895,13.3418183 20.0741958,13.3149652 20.2031119,13.3918533 C20.3601398,13.4853148 20.4598951,13.7502799 20.6137762,13.7565736 C21.8343356,13.8062939 23.0492307,13.6258743 24.2267832,13.2352449 C25.4639161,12.8250001 26.5999301,12.2612939 27.5998951,11.3869932 C27.6611538,11.3333918 27.6297902,11.3110491 27.5998951,11.2926925" id="Shape" fill="#EC2024"></path>
        <path d="M15.8240559,23.1865386 C15.5189161,23.1865386 15.2714685,22.9405596 15.2714685,22.6354197 C15.2714685,22.3302798 15.5188112,22.0828323 15.8240559,22.0828323 C16.1293007,22.0828323 16.3756993,22.330175 16.3756993,22.6354197 C16.3756993,22.9406645 16.1293007,23.1865386 15.8240559,23.1865386 L15.8240559,23.1865386 L15.8240559,23.1865386 Z M15.8240559,21.9326225 C15.4357342,21.9326225 15.1212587,22.2474127 15.1212587,22.6354197 C15.1212587,23.0237414 15.4357342,23.3379022 15.8240559,23.3379022 C16.2114335,23.3379022 16.526014,23.0237414 16.526014,22.6354197 C16.5261189,22.2474127 16.2115384,21.9326225 15.8240559,21.9326225 L15.8240559,21.9326225 L15.8240559,21.9326225 Z" id="Shape" fill="#EC2024"></path>
        <path d="M15.8737762,22.560105 L15.6859091,22.560105 L15.6859091,22.3848253 L15.8737762,22.3848253 C15.9221329,22.3848253 15.9613636,22.4242658 15.9613636,22.472098 C15.9613636,22.5207694 15.9221329,22.560105 15.8737762,22.560105 L15.8737762,22.560105 L15.8737762,22.560105 Z M16.1117832,22.472098 C16.1117832,22.3409792 16.0052098,22.2335666 15.8737762,22.2335666 L15.5355944,22.2335666 L15.5355944,23.0366435 L15.6859091,23.0366435 L15.6859091,22.7105246 L15.7937413,22.7105246 L15.9457342,23.0366435 L16.1126224,23.0366435 L15.9543357,22.6965735 C16.0469581,22.6636365 16.1117832,22.5755246 16.1117832,22.472098 L16.1117832,22.472098 L16.1117832,22.472098 Z" id="Shape" fill="#EC2024"></path>
    </g>
</svg>