<?xml version="1.0" encoding="UTF-8" standalone="no"?>
<svg width="30px" height="30px" viewBox="0 0 30 30" version="1.1" xmlns="http://www.w3.org/2000/svg" xmlns:xlink="http://www.w3.org/1999/xlink">
    <!-- Generator: Sketch 41 (35326) - http://www.bohemiancoding.com/sketch -->
    <title>sabres</title>
    <desc>Created with Sketch.</desc>
    <defs></defs>
    <g id="Page-1" stroke="none" stroke-width="1" fill="none" fill-rule="evenodd">
        <g id="sabres">
            <g id="Page-1">
                <g>
                    <g id="sabres">
                        <g id="Page-1">
                            <g id="Artboard">
                                <g id="sabres">
                                    <path d="M26.6060076,9.08167165 C26.585019,8.9349796 26.476654,9.0459682 26.476654,9.0459682 C26.476654,9.0459682 22.0860456,13.9255882 14.9767301,19.2876034 C7.86855515,13.9255882 3.4778327,9.0459682 3.4778327,9.0459682 C3.4778327,9.0459682 3.36958175,8.9349796 3.34847909,9.08167165 C3.34847909,9.08167165 3.1886692,9.8882496 3.81855513,10.543915 C3.81855513,10.543915 8.176654,15.3815578 14.1595437,19.898554 C13.5990114,20.3106833 13.0247909,20.7250939 12.4348289,21.1383639 L12.6230418,22.1447898 C13.4264258,21.6139152 14.2130418,21.0637631 14.9766159,20.5052841 C15.7400761,21.0637631 16.5279468,21.6138012 17.3313308,22.1447898 L17.5195438,21.1383639 C16.9285552,20.7250939 16.3553612,20.3106833 15.7948289,19.898554 C21.7777187,15.3815578 26.1347909,10.543915 26.1347909,10.543915 C26.7658175,9.88836365 26.6060076,9.08167165 26.6060076,9.08167165" id="path236" fill="#FFFFFF"></path>
                                    <path d="M5.88091255,9.8263104 C6.77589355,10.5415195 7.04623575,11.0004169 7.25224335,11.2071089 C7.42790875,11.3816336 7.6015209,11.3990861 7.79076045,11.5883259 C8.0746768,11.8712156 8.16091255,12.211938 8.4311407,12.211938 C8.70775665,12.211938 9.01277565,11.6066908 9.6101521,11.6066908 C10.0097338,11.6066908 9.3629658,11.8758924 9.3629658,12.1363107 C9.3629658,12.3592004 9.8541445,12.0537251 9.9613688,12.0537251 C10.140114,12.0537251 10.8331939,12.3644475 11.2422434,11.8133829 C11.0582509,11.6283639 10.5112928,11.703535 10.5112928,10.9820518 C10.5112928,10.7827743 10.6817111,10.387299 11.1160837,10.387299 C11.4642206,10.387299 11.7302282,10.6943712 11.6198099,11.0446754 C11.5841065,11.1540671 11.7712928,11.2834207 11.7712928,11.4847517 C11.7712928,12.0910255 11.3538023,12.1588962 11.3538023,12.4249038 C11.3538023,12.9592004 11.7322813,12.9181357 11.9415969,12.9055882 C12.4295818,12.9055882 13.1836882,13.3115578 13.4392015,13.3115578 C13.7515209,13.3115578 13.9985931,13.1759304 13.9985931,13.0218239 C13.9985931,12.8666908 13.6336882,12.1804552 13.4297338,12.1804552 C13.3150951,12.1804552 13.1909886,12.3992384 13.0142966,12.3992384 C12.8175285,12.3992384 12.7061977,12.2761585 12.7777187,12.1546756 C12.8166159,12.0857784 12.7040304,11.9737631 12.7040304,11.7918239 C12.7040304,11.5708734 13.0089353,11.0950937 13.6020913,11.0950937 C14.0932699,11.0950937 14.6064639,11.5214817 14.6064639,12.2088581 C14.6064639,12.7794285 14.4519011,13.1090863 14.4519011,13.2221281 C14.4519011,13.4330407 14.8536502,13.6796567 15.1113308,13.6796567 C15.3678707,13.6796567 16.3291255,13.3210255 16.638365,13.3210255 C16.9464639,13.3210255 17.3040684,13.343611 17.3040684,13.0580977 C17.3040684,12.7730407 17.108441,12.2277935 16.9002662,12.2277935 C16.6940304,12.2277935 16.2187072,12.8977175 15.6087832,12.8977175 C15.5372623,12.8977175 15.4552471,12.8830026 15.4552471,12.7804551 C15.4552471,12.6780216 15.618251,12.4454361 15.7034601,12.3950179 C15.7875285,12.3455121 16.2345627,12.1536491 16.2345627,11.9922422 C16.2345627,11.9007593 15.8265399,11.7866908 15.8265399,11.6057783 C15.8265399,11.4212156 16.2355894,11.5689342 16.2355894,11.3912153 C16.2355894,11.2308352 15.8623574,11.0809492 15.8623574,10.652394 C15.8623574,10.3431545 16.0747528,10.0234207 16.4743346,10.0234207 C17.2484031,10.0234207 17.7331939,10.6017477 18.4598099,10.6017477 C19.0761217,10.6017477 19.7534601,10.2752838 20.049924,10.2752838 C20.9511787,10.2752838 20.9280228,11.2933446 21.8230038,11.2933446 C22.2394677,11.2933446 22.3877567,11.1360442 22.3877567,10.6481735 C22.3877567,10.3810253 22.258403,10.4068047 22.101673,10.4068047 C21.9460836,10.4068047 21.9239543,10.2874891 21.6926236,10.2874891 C21.3539543,10.2874891 20.9795818,10.1118237 20.9795818,9.93935225 C20.9795818,9.76266025 22.2458555,9.35771725 22.4308745,9.35771725 C23.0787833,9.35771725 23.1396958,10.6502267 24.1809125,10.6502267 C24.4438403,10.6502267 24.6384411,10.5934207 24.6384411,10.1344093 C24.6384411,9.67585415 24.5647529,9.71748915 24.4805704,9.7284397 C24.3985551,9.7404169 23.9768441,9.8577933 23.9768441,9.7262724 C23.9768441,9.59372485 24.176692,9.462318 23.9358935,9.4234207 C22.831597,9.2404549 23.1534981,8.2066526 22.723346,8.2066526 C22.5182509,8.2066526 21.8040684,8.5941431 21.8040684,8.1488199 C21.8040684,7.90323055 21.9744867,7.56821155 21.9744867,7.03916215 C21.9744867,6.4544473 21.640038,6.10802145 21.9619391,6.10802145 C22.6653993,6.10802145 23.8958555,6.4666526 23.8958555,6.63752715 C23.8958555,6.760607 23.2039164,6.68954235 23.2039164,6.99935225 C23.2039164,7.18186175 23.6014449,7.4031545 24.2040685,7.4031545 C24.8088593,7.4031545 25.0518251,7.21699485 24.7510266,7.21699485 C24.4512548,7.21699485 23.9875666,7.20855375 23.9875666,6.99935225 C23.9875666,6.790607 24.5227756,6.88300245 24.5227756,6.6633066 C24.5227756,6.3394663 23.9769582,6.3641051 22.9768061,6.0785918 C17.9971483,4.66254616 16.2639924,2.81486555 13.1385171,2.81486555 C9.29144485,2.81486555 9.90673005,5.43821155 7.56889735,6.03022675 C5.72007605,6.49973245 5.5486312,7.44319255 5.5486312,8.56836365 C5.5486312,9.2009872 5.76307985,9.73151955 5.88091255,9.8263104 M7.64771865,10.8021659 C7.44262355,10.8021659 7.49520915,10.6585537 7.49520915,10.6585537 C7.7613308,10.295702 7.62456275,9.43653855 7.95695815,9.43653855 C8.1441445,9.43653855 7.8759696,9.6279454 7.8759696,9.8498085 C7.8759696,10.1000747 8.24612165,10.0265005 8.24612165,10.3194283 C8.24612165,10.5071849 7.94326995,10.8021659 7.64771865,10.8021659 M8.4438023,12.0241813 C8.4438023,12.0241813 8.2901521,11.9131928 8.2901521,11.8327745 C8.2901521,11.6498088 8.60041825,11.5966528 8.60041825,11.6540293 C8.60041825,11.8090483 8.4438023,12.0241813 8.4438023,12.0241813 M8.6941825,8.69669065 C8.6941825,8.82399105 8.433308,9.1284397 8.26825095,9.1284397 C8.14311785,9.1284397 7.94326995,8.6414815 7.94326995,8.5988199 C7.94326995,8.55684275 8.00110265,8.47585415 8.18406845,8.47585415 C8.36806085,8.4759682 8.6941825,8.56836365 8.6941825,8.69669065 M7.19543725,6.7616336 C7.9338023,6.7616336 8.3154753,7.1965766 8.3154753,7.67338265 C8.3154753,8.15087315 7.91475285,8.49638645 7.4710266,8.49638645 C7.1881369,8.49638645 7.10395435,8.2598085 7.10395435,8.1398085 C7.10395435,7.97623435 7.3489734,7.83068305 7.3489734,7.63722295 C7.3489734,7.39471345 7.05342205,7.22805945 6.75889735,7.22805945 C6.25939165,7.22805945 5.92288975,7.6566146 5.92288975,7.4452458 C5.9230038,7.19349675 6.4278707,6.7616336 7.19543725,6.7616336" id="path238" fill="#FFFFFF"></path>
                                    <path d="M16.1314449,14.7037631 C14.8673384,15.1722422 14.350038,15.3674133 14.421559,15.5598468 C14.4614829,15.6667289 14.7223574,15.9757403 16.4406844,15.3416338 C18.1517111,14.7070711 21.5223194,13.1625844 21.4055133,12.8482118 C21.3488213,12.693535 18.9658175,13.6547898 16.1314449,14.7037631" id="path240" fill="#FFFFFF"></path>
                                    <path d="M18.8931559,3.59349673 C20.9807225,4.16714692 22.1827757,4.69733704 22.2365019,4.50535985 C22.2890875,4.31281232 20.6295057,3.71395301 19.0972244,3.29269825 C17.5648289,2.87201384 15.9748289,2.66281232 16.0262738,2.71117734 C16.1872244,2.86323057 16.8045627,3.01939027 18.8931559,3.59349673" id="path242" fill="#FFFFFF"></path>
                                    <path d="M14.9767301,-1.3072176e-06 C6.71806085,-1.3072176e-06 0,6.71851575 0,14.9772992 C0,23.2365388 6.71806085,29.9544856 14.9767301,29.9544856 C23.2365399,29.9544856 29.9546008,23.2364247 29.9546008,14.9772992 C29.9546008,6.71851575 23.2365399,-1.3072176e-06 14.9767301,-1.3072176e-06 M14.97673,29.7662726 C6.8222053,29.7662726 0.187186312,23.133649 0.187186312,14.9772993 C0.187186312,6.82220395 6.8222053,0.187185012 14.97673,0.187185012 C23.1323954,0.187185012 29.7662737,6.82220395 29.7662737,14.9772993 C29.7662737,23.133535 23.1323954,29.7662726 14.97673,29.7662726" id="path244" fill="#B0B7BB"></path>
                                    <path d="M14.9767301,1.61372487 C7.6088213,1.61372487 1.61429658,7.6088199 1.61429658,14.9766149 C1.61429658,22.3468049 7.6088213,28.3403031 14.9767301,28.3403031 C22.3457794,28.3403031 28.3401901,22.3468049 28.3401901,14.9766149 C28.3401901,7.6088199 22.3456654,1.61372487 14.9767301,1.61372487 M18.6176806,21.9271471 C18.7291255,21.9472232 18.8153612,22.0334589 18.8647528,22.1637251 C18.8647528,22.1637251 19.0762357,22.0839912 19.1939543,22.3909494 C19.1939543,22.3909494 19.414905,22.3194285 19.5209886,22.6160064 C19.5209886,22.6160064 19.7387453,22.5444855 19.8491635,22.8432308 C19.8491635,22.8432308 20.0563118,22.765208 20.1761977,23.0682878 C20.1761977,23.0682878 20.3971483,22.9979076 20.5032319,23.2955121 C20.5032319,23.2955121 20.7147149,23.2239912 20.8302661,23.5225083 C20.8302661,23.5225083 21.050076,23.4509874 21.1594677,23.7475654 C21.1594677,23.7475654 21.3698099,23.6739912 21.4844486,23.9728505 C21.5118251,23.96863 21.5370342,23.9601889 21.5632699,23.9644095 C21.7810266,24.0022802 21.8998859,24.2860825 21.8410266,24.623611 C21.8388593,24.6416338 21.8346388,24.6594285 21.8304183,24.6773372 C22.1839163,24.3103791 22.4877947,24.0212156 22.8853232,24.270341 C23.225019,24.4849038 23.2912928,24.9529266 23.0441065,25.3462346 C22.7285931,25.846881 22.3227377,25.5862346 22.1281369,25.4326985 C21.7243346,25.73863 20.6842585,26.9744475 18.7681369,25.7648658 C16.259886,24.1833068 17.9846007,21.4309494 17.6575665,21.0156262 C17.5713308,20.9062346 17.3536882,20.7537251 17.4641064,20.5760064 C17.5555894,20.4309114 17.8353992,20.3824323 18.0897718,20.5422422 C18.5746768,20.8493144 18.5273384,21.3667289 18.4063118,21.9747137 C18.4724715,21.9325083 18.5439924,21.9147137 18.6176806,21.9271471 M17.6753612,21.0743715 L17.4334221,22.3825084 C16.6552472,21.8703411 15.7160076,21.2193525 14.9767301,20.6799228 C14.2364258,21.2193525 13.298327,21.8703411 12.5211787,22.3825084 L12.2792395,21.0743715 C12.8145628,20.6978316 13.4119392,20.2697327 13.9219392,19.8953601 C8.06840305,15.445208 3.76494296,10.6949416 3.71452472,10.6391622 C3.04038023,9.9380975 3.20235741,9.09056895 3.20771863,9.0615956 C3.22870722,8.87703285 3.42536122,8.78452335 3.58311787,8.950607 C3.63148289,9.0052458 8.0085171,13.8366149 14.9768441,19.1087441 C21.9452852,13.8366149 26.3222053,9.00535985 26.371711,8.950607 C26.5294677,8.78452335 26.7250951,8.8769188 26.7460836,9.0615956 C26.7524715,9.09056895 26.9144487,9.93821155 26.2401901,10.6391622 C26.1906844,10.6948276 21.8851711,15.445208 16.0306084,19.8953601 C16.5426616,20.2697327 17.140038,20.6978316 17.6753612,21.0743715 M6.9104943,25.3461206 C6.663308,24.9529266 6.72958175,24.4847898 7.06927755,24.270227 C7.46589355,24.0211015 7.7707985,24.3103791 8.12304185,24.6772232 C8.119962,24.6594285 8.11574145,24.6415198 8.11254755,24.623497 C8.05471485,24.2859684 8.1734601,24.0021662 8.3901901,23.9642955 C8.41756655,23.9600749 8.44277565,23.968516 8.4690114,23.9727365 C8.58479085,23.6739913 8.795019,23.7474513 8.795019,23.7474513 C8.90326995,23.4508734 9.12422055,23.5223943 9.12422055,23.5223943 C9.23988595,23.2238772 9.45125475,23.2953981 9.45125475,23.2953981 C9.55642585,22.9977936 9.77828895,23.0681737 9.77828895,23.0681737 C9.8981749,22.765208 10.1053232,22.8431168 10.1053232,22.8431168 C10.2158555,22.5443715 10.4334981,22.6158924 10.4334981,22.6158924 C10.5396958,22.3193145 10.7605323,22.3908354 10.7605323,22.3908354 C10.8772244,22.0838772 11.0897339,22.1636111 11.0897339,22.1636111 C11.1392396,22.0332308 11.2243346,21.9471092 11.3369201,21.9270331 C11.4094677,21.9145996 11.4819012,21.9323943 11.548289,21.9744856 C11.4263498,21.3665008 11.3790114,20.8490863 11.8648289,20.542014 C12.1193156,20.3822042 12.3991255,20.4305692 12.4904943,20.5757784 C12.6009126,20.7534969 12.38327,20.9060064 12.2970342,21.0153981 C11.97,21.4307213 13.6947149,24.1830787 11.1844107,25.7646377 C9.2693156,26.9742194 8.23026615,25.7384019 7.8264639,25.4324704 C7.6318631,25.5860064 7.2260076,25.8466529 6.9104943,25.3461206 M16.3776046,11.390531 C16.3776046,11.5650559 16.2492775,11.6203791 16.0063118,11.6429646 C16.1377187,11.7539533 16.3764639,11.8160064 16.3764639,11.9915578 C16.3764639,12.1930026 16.1324715,12.3408354 15.7758935,12.5174133 C15.731749,12.545246 15.6360456,12.6819 15.6086692,12.755132 C16.1681749,12.755132 16.6046007,12.085208 16.9011787,12.085208 C17.2398479,12.085208 17.4459696,12.761976 17.4459696,13.0579836 C17.4459696,13.3908353 17.168213,13.4628126 16.7013308,13.4628126 C16.2638783,13.4628126 15.4393916,13.8215578 15.1113308,13.8215578 C14.8095057,13.8215578 14.31,13.5401509 14.31,13.2215578 C14.31,13.0953981 14.4655894,12.740303 14.4655894,12.2081737 C14.4655894,11.6081738 14.0175285,11.2369949 13.6011787,11.2369949 C13.0815969,11.2369949 12.845019,11.6619 12.845019,11.7921661 C12.845019,11.9709114 12.9943346,12.0683258 12.8964639,12.2223182 C12.9018251,12.231786 12.9395818,12.2575654 13.0142966,12.2575654 C13.1173004,12.2575654 13.2530419,12.0387821 13.4306464,12.0387821 C13.7524334,12.0387821 14.1394677,12.8291623 14.1394677,13.0210255 C14.1394677,13.2666148 13.8398099,13.4527745 13.4390875,13.4527745 C13.1246008,13.4527745 12.3853232,13.0466908 11.949924,13.0466908 C11.6774145,13.0714437 11.211559,13.0578696 11.211559,12.4241053 C11.211559,12.0755121 11.6280228,12.0376415 11.6280228,11.4845236 C11.6280228,11.3347515 11.4250951,11.1958161 11.4838403,11.0007591 C11.5764639,10.6916336 11.3135361,10.5290861 11.1147149,10.5290861 C10.7624715,10.5290861 10.6541065,10.8609112 10.6541065,10.9813674 C10.6541065,11.6017859 11.0653232,11.4550939 11.3429658,11.7127745 C11.3924715,11.7621662 11.4007985,11.8431547 11.356654,11.8967669 C11.1262357,12.1780597 10.823384,12.4168049 9.9694677,12.1948277 C9.5888213,12.3757403 9.22174905,12.4567289 9.22174905,12.1359684 C9.22174905,11.9945235 9.3184791,11.8762346 9.42159695,11.7763106 C8.9830038,11.8967669 8.7526996,12.3531547 8.42988595,12.3531547 C8.064981,12.3531547 7.9576426,11.95517 7.69060835,11.6880216 C7.56228135,11.5596947 7.25840305,11.4271471 7.15323195,11.3066906 C6.56737645,10.5864625 6.2498099,10.3286679 5.7913688,9.9369568 C5.61045625,9.7912914 5.4075285,9.17554995 5.4075285,8.5681355 C5.4075285,7.44239405 5.5695057,6.39182375 7.5339924,5.8927743 C9.7561597,5.3285918 9.25460075,2.67307848 13.1372624,2.67307848 C16.3323194,2.67307848 18.3514449,4.65969445 23.0145627,5.9426222 C24.0578327,6.22870585 24.6646768,6.2061203 24.6646768,6.6629644 C24.6646768,6.93433325 24.3376426,6.9427743 24.1567301,7.010645 C24.2113688,7.03950435 24.3564639,7.0742952 24.7519391,7.0742952 C25.131559,7.0742952 25.2461977,7.5449416 24.2050951,7.5449416 C23.5635742,7.5449416 23.0620152,7.3045994 23.0620152,6.9991241 C23.0620152,6.7104169 23.3775285,6.63467545 23.5951711,6.59520775 C23.2534221,6.44965645 22.4994296,6.2524321 21.9703803,6.25037885 C21.9703803,6.25037885 22.1154753,6.67049295 22.1154753,7.0396184 C22.1154753,7.5954739 21.9451711,7.9335728 21.9451711,8.14916215 C21.9451711,8.3538009 22.5131179,8.0650937 22.723346,8.0650937 C23.330076,8.0650937 22.92,9.1226222 23.9590494,9.28300245 C24.2093156,9.3329644 24.239886,9.4769188 24.1567301,9.64049295 C24.1567301,9.64049295 24.3080989,9.62167165 24.4742966,9.58585415 C24.6951331,9.55106325 24.7793156,9.6893142 24.7793156,10.1337249 C24.7793156,10.7131926 24.4774905,10.7920138 24.1797719,10.7920138 C23.0702281,10.7920138 22.9525095,9.49950435 22.4308745,9.49950435 C22.2626236,9.49950435 21.3424335,9.8097705 21.1437263,9.96068305 C21.2036122,10.030607 21.4276426,10.1458161 21.6936502,10.1458161 C21.9261216,10.1458161 22.0259315,10.2641051 22.1028137,10.2641051 C22.3057414,10.2641051 22.5286312,10.2751697 22.5286312,10.6473751 C22.5286312,11.2063104 22.3246768,11.4345616 21.8228898,11.4345616 C20.8460076,11.4345616 20.8554753,10.4170708 20.0498099,10.4170708 C19.7911026,10.4170708 19.0980228,10.7435348 18.4607224,10.7435348 C17.7003422,10.7435348 17.196616,10.1650937 16.4730799,10.1650937 C16.164981,10.1650937 16.0040304,10.410683 16.0040304,10.6521659 C16.0042585,11.0320139 16.3776046,11.1408351 16.3776046,11.390531 M14.2458935,12.853459 C14.141749,12.5175274 13.8104943,11.896995 13.4307604,11.896995 C13.2330798,11.896995 13.061749,12.0725464 13.061749,12.0725464 C13.0543346,11.9648658 12.9880608,11.8691623 12.9880608,11.7922802 C12.9921673,11.7203031 13.1678327,11.37901 13.6011787,11.37901 C13.9481749,11.37901 14.3225475,11.6955502 14.3225475,12.2082878 C14.3226616,12.4837631 14.2837642,12.6946757 14.2458935,12.853459 M11.4704943,11.6524323 C11.2181749,11.3131926 10.7953232,11.5361966 10.7953232,10.9814815 C10.7953232,10.9051698 10.8690114,10.6711013 11.1150571,10.6711013 C11.2403042,10.6711013 11.3612168,10.7500367 11.3612168,10.8846374 C11.3612168,10.9341431 11.3306464,10.9945994 11.3306464,11.0676032 C11.3306464,11.3227743 11.5609505,11.4199609 11.4704943,11.6524323 M14.9767301,1.80205186 C19.9795437,1.80205186 24.3418631,4.6052838 26.5713308,8.7236108 C26.4703802,8.7177933 26.3598479,8.75783135 26.2663118,8.85615835 C26.2495438,8.8729264 25.7803803,9.3919378 24.9169962,10.2631925 C24.9201901,10.222242 24.923384,10.1791241 24.923384,10.1338389 C24.923384,9.4298085 24.6804182,9.40300245 24.3313688,9.46870585 C24.3313688,9.46870585 24.3418631,9.21102525 23.9832319,9.1431545 C23.0492395,9.0301127 23.4773384,7.92319255 22.723346,7.92319255 C22.5488213,7.92319255 22.3215969,8.0321279 22.0985931,8.0715956 C22.141711,7.782318 22.2573764,7.54722295 22.2573764,7.03984655 C22.2573764,6.7754359 22.2017111,6.5650937 22.1543726,6.40254615 C22.478327,6.42832565 22.8557794,6.5082876 23.1577186,6.5954359 C23.0241445,6.67482755 22.92,6.798934 22.92,6.99935225 C22.92,7.39733705 23.4605703,7.68707085 24.2052092,7.68707085 C25.5176806,7.68707085 25.300038,6.89053095 24.6889734,6.9314815 C24.7552471,6.8668047 24.806692,6.78684275 24.806692,6.66319255 C24.806692,6.1052838 24.1231939,6.080645 23.0535741,5.8060823 C20.0026996,4.93380091 18.2191255,3.92885794 16.5752851,3.26532182 C17.1043346,3.43254616 17.869962,3.60707087 18.8174145,3.86737505 C21.1836502,4.51779331 22.341673,5.1909112 22.5098099,4.58041688 C22.6518251,4.06459939 21.1215969,3.55505566 19.1718251,3.01870585 C15.9464259,2.13170966 15.8076045,2.45543589 15.7602662,2.62688076 C15.7119011,2.80779331 15.8244867,2.9466146 16.0747528,3.07277429 C15.1554753,2.73992258 14.2448669,2.53117734 13.1373764,2.53117734 C9.20737645,2.53117734 9.60695815,5.22353475 7.49942965,5.7550937 C5.43707225,6.27889595 5.2656274,7.43201385 5.2656274,8.5682496 C5.2656274,9.1809112 5.46661595,9.8582496 5.7031939,10.0480595 C6.5581369,10.7326983 6.79893535,11.153839 7.0513688,11.4067286 C7.1996578,11.5723563 7.48254755,11.6801509 7.58988595,11.7880597 C7.8570342,12.0409494 7.97258555,12.4957403 8.43011405,12.4957403 C8.7098099,12.4957403 8.91604565,12.2533448 9.0821293,12.1282118 C9.08110265,12.2932688 9.1926616,12.730265 9.9813308,12.3416338 C9.9813308,12.3416338 10.6218251,12.545132 11.086654,12.3017099 C11.0771863,12.3406072 11.0698859,12.3789342 11.0698859,12.4241053 C11.0698859,13.1761586 11.6429658,13.2181357 11.9584791,13.1892764 C12.3686692,13.1892764 13.0731559,13.595246 13.4392015,13.595246 C13.7736502,13.595246 14.0406844,13.4699988 14.1795057,13.2881738 C14.2363118,13.6661966 14.7601141,13.9633449 15.1113308,13.9633449 C15.4615209,13.9633449 16.313384,13.6047137 16.7004182,13.6047137 C17.1179088,13.6047137 17.5879848,13.5573753 17.5879848,13.0578696 C17.5879848,12.7507973 17.3755893,11.9430787 16.9011787,11.9430787 C16.7528898,11.9430787 16.6257034,12.0282878 16.4784411,12.1434969 C16.4995438,12.0950179 16.5173384,12.0466528 16.5173384,11.9914438 C16.5173384,11.8495426 16.4363498,11.7611395 16.3406464,11.6933829 C16.4742205,11.6134209 16.5193916,11.4961586 16.5193916,11.390531 C16.5193916,11.0613295 16.1461597,10.9567287 16.1461597,10.65228 C16.1461597,10.5334207 16.2155133,10.307337 16.4731939,10.307337 C17.1505323,10.307337 17.6604182,10.8856641 18.4608365,10.8856641 C19.0886692,10.8856641 19.8343346,10.5592002 20.049924,10.5592002 C20.7577187,10.5592002 20.7840684,11.5772612 21.8230038,11.5772612 C22.5845247,11.5772612 22.6707604,11.047299 22.6707604,10.6476032 C22.6707604,10.2484777 22.4277947,10.0907211 22.104981,10.122318 C21.8535742,9.9609112 21.6548669,10.0350557 21.4423574,9.9630785 C21.7641445,9.8227743 22.2962737,9.6528123 22.4381749,9.64072105 C22.7905323,9.64072105 23.0491255,10.9343712 24.1797719,10.9343712 C24.2029278,10.9343712 24.2240304,10.9322039 24.2460456,10.9322039 C22.3226235,12.8241433 19.1106844,15.7967669 14.9766159,18.9311396 C8.0703422,13.6933449 3.73642585,8.9097705 3.68806083,8.8562724 C3.59338403,8.7579454 3.48410646,8.7179074 3.38304182,8.72372485 C5.61273765,4.6052838 9.9730038,1.80205186 14.9767301,1.80205186 M15.8938403,2.66908608 C15.8906464,2.5591241 16.7561977,2.50186175 19.1350951,3.15547391 C20.8755513,3.63399102 22.4697719,4.18824958 22.3731559,4.54266023 C22.2627376,4.94429521 21.081787,4.34224198 18.8542586,3.72969445 C16.8098099,3.16767924 15.9011407,3.00615832 15.8938403,2.66908608 M1.80148289,14.9767289 C1.80148289,12.9823563 2.24851711,11.0892762 3.04562738,9.3929644 C3.05612168,9.7331165 3.15809886,10.2652458 3.60923955,10.733839 C3.65874524,10.7900747 7.8968441,15.4679076 13.6852472,19.8922802 C13.3834221,20.1132308 13.0142966,20.380265 12.659886,20.6315578 C12.6534981,20.5884399 12.6378707,20.5441814 12.6094677,20.4990103 C12.480114,20.2939152 12.1194297,20.2140673 11.7892015,20.4222422 C11.2790875,20.7440293 11.2634601,21.2277936 11.3590495,21.7820521 C11.3443346,21.7831928 11.3295057,21.7841053 11.3127377,21.7871851 C11.1813308,21.8103411 11.0792396,21.8945236 11.0077186,22.0166909 C11.0077186,22.0166909 10.8363878,21.9977555 10.6796578,22.2425464 C10.6796578,22.2425464 10.4987453,22.226919 10.3526236,22.4686301 C10.3526236,22.4686301 10.1801521,22.4454742 10.026616,22.6947137 C10.026616,22.6947137 9.8468441,22.6811396 9.69855515,22.921938 C9.69855515,22.921938 9.5176426,22.9041433 9.37038025,23.1480217 C9.37038025,23.1480217 9.19471485,23.1299988 9.043346,23.3750178 C9.043346,23.3750178 8.8655133,23.3572232 8.7151711,23.6003031 C8.7151711,23.6003031 8.54589355,23.5813677 8.38927755,23.8272993 C8.3819772,23.8272993 8.37456275,23.8230787 8.3671483,23.825246 C8.14425855,23.8631168 7.9948289,24.0627365 7.963346,24.3362726 C7.66676805,24.0649038 7.37441065,23.910341 6.99376425,24.1511396 C6.7276426,24.3193905 6.4963118,24.7233069 6.68144485,25.2038772 C3.70608365,22.7864247 1.80148289,19.1003031 1.80148289,14.9767289 M14.9767301,28.1520901 C12.175095,28.1520901 9.57444865,27.271824 7.4363498,25.775132 C7.586692,25.7522042 7.72243345,25.6784019 7.8191635,25.6111015 C8.2030038,25.9234209 9.35988595,27.0844095 11.2612928,25.8855502 C12.8125095,24.9063867 12.813422,23.5393905 12.6358175,22.4812917 C13.3677947,21.9911395 14.3268821,21.3286301 14.9767301,20.8554741 C15.626692,21.3286301 16.5868061,21.9912536 17.3187832,22.4812917 C17.1410647,23.5392765 17.1420913,24.9063867 18.693308,25.8855502 C20.5947148,27.0844095 21.7515969,25.9234209 22.1344106,25.6111015 C22.2311407,25.6784019 22.3679088,25.7520901 22.5182509,25.775132 C20.3802662,27.271824 17.7793917,28.1520901 14.9767301,28.1520901 M23.2732699,25.2042194 C23.4584031,24.7214818 23.2270722,24.3197327 22.9609505,24.1514818 C22.5803042,23.9106833 22.2879467,24.065246 21.9913688,24.3366149 C21.959886,24.0630787 21.8104563,23.863459 21.5875665,23.8255882 C21.5802661,23.8233069 21.5727377,23.8276415 21.5654372,23.8276415 C21.4088213,23.5817099 21.238403,23.6006452 21.238403,23.6006452 C21.0890875,23.3575654 20.9103422,23.3753601 20.9103422,23.3753601 C20.7588593,23.130341 20.583308,23.1483639 20.583308,23.1483639 C20.4360456,22.9043715 20.2562737,22.9222803 20.2562737,22.9222803 C20.1078707,22.6814818 19.9280988,22.6950559 19.9280988,22.6950559 C19.7735361,22.4457023 19.6010646,22.4689723 19.6010646,22.4689723 C19.4559696,22.2272612 19.2740304,22.2428886 19.2740304,22.2428886 C19.118327,21.9980977 18.9469962,22.0170331 18.9469962,22.0170331 C18.8754753,21.8949798 18.7734981,21.8106833 18.6419772,21.7875274 C18.6252091,21.7844476 18.6104943,21.783535 18.5946388,21.7823943 C18.6913688,21.2281357 18.6756274,20.7443715 18.1655133,20.4225844 C17.8352851,20.2144095 17.4744867,20.2942574 17.3452471,20.4993525 C17.3158175,20.5445236 17.3011027,20.5887822 17.2948289,20.6319 C16.9404183,20.3806072 16.5712928,20.113459 16.2694677,19.8926225 C22.05673,15.4682498 26.2959696,10.7904169 26.346616,10.7341811 C26.7966159,10.265702 26.8987072,9.7335728 26.9092015,9.3933066 C27.7064258,11.0896184 28.153346,12.9826985 28.153346,14.9770711 C28.1531179,19.1003031 26.2474905,22.7864247 23.2732699,25.2042194" id="path246" fill="#B0B7BB"></path>
                                    <path d="M18.2210646,22.9862726 C18.1390495,23.7433448 18.2695438,24.5322422 19.2864639,25.1736491 C20.2497719,25.7816338 20.8660837,25.5427745 21.3446008,25.1484399 C21.2404563,25.1241434 21.1594677,25.0390483 21.11327,24.9149419 C21.11327,24.9149419 20.8997339,24.9949038 20.7820152,24.6888582 C20.7820152,24.6888582 20.5622053,24.7592384 20.454981,24.4627745 C20.454981,24.4627745 20.238365,24.5342954 20.1289734,24.2357784 C20.1289734,24.2357784 19.9196578,24.313573 19.8009126,24.0096947 C19.8009126,24.0096947 19.579962,24.0821281 19.4727376,23.7836111 C19.4727376,23.7836111 19.2623954,23.855132 19.1457034,23.5575274 C19.1457034,23.5575274 18.9258936,23.6279076 18.8186692,23.3314437 C18.8186692,23.3314437 18.6062737,23.405132 18.491635,23.1063867 C18.4653993,23.1094666 18.4390494,23.1190483 18.4137262,23.113687 C18.3346768,23.1007974 18.2695438,23.0556262 18.2210646,22.9862726 M18.3420912,23.2429266 C18.3568061,23.246919 18.3735741,23.2511396 18.3894297,23.2534209 C18.39673,23.2543335 18.4031179,23.2511396 18.4125855,23.2522802 C18.5681749,23.4972993 18.7384791,23.4773373 18.7384791,23.4773373 C18.8879088,23.7204171 19.0655133,23.7034209 19.0655133,23.7034209 C19.2191635,23.9484399 19.3936882,23.9306453 19.3936882,23.9306453 C19.5409506,24.1746377 19.7207225,24.1576414 19.7207225,24.1576414 C19.8690114,24.3984399 20.0477567,24.3829266 20.0477567,24.3829266 C20.203346,24.6330787 20.3747909,24.6099228 20.3747909,24.6099228 C20.5220532,24.8530027 20.7029658,24.8349798 20.7029658,24.8349798 C20.8575285,25.0811395 21.0289734,25.0622042 21.0289734,25.0622042 C21.049962,25.0979076 21.0741445,25.1295046 21.1015209,25.1589342 C20.6735361,25.4407974 20.1382129,25.5416339 19.3620912,25.0537631 C18.5145627,24.5175274 18.3189354,23.8812536 18.3420912,23.2429266" id="path248" fill="#B0B7BB"></path>
                                    <path d="M10.6680228,25.1736491 C11.6839163,24.5322422 11.8164639,23.7433448 11.733422,22.9862726 C11.6849429,23.0555121 11.6187832,23.0998848 11.5408745,23.1145996 C11.5146388,23.1188202 11.4882889,23.1103791 11.4629658,23.1061585 C11.3473004,23.4049038 11.1349049,23.3312156 11.1349049,23.3312156 C11.0276806,23.6277935 10.8078707,23.5562726 10.8078707,23.5562726 C10.6911787,23.8550178 10.4808365,23.7834969 10.4808365,23.7834969 C10.3745247,24.0820141 10.1526616,24.0104931 10.1526616,24.0104931 C10.0338023,24.313459 9.8256274,24.2365768 9.8256274,24.2365768 C9.71623575,24.5341814 9.49859315,24.4626605 9.49859315,24.4626605 C9.39228135,24.7592384 9.17155895,24.6887441 9.17155895,24.6887441 C9.0548669,24.9949038 8.84121675,24.9148278 8.84121675,24.9148278 C8.795019,25.0389342 8.7140304,25.1231168 8.60988595,25.1483258 C9.08737645,25.5439152 9.7036882,25.7804932 10.6680228,25.1736491 M8.9243726,25.0622042 C8.9243726,25.0622042 9.0958175,25.0811395 9.25038025,24.8361206 C9.25038025,24.8361206 9.4323194,24.8519761 9.57844105,24.6100369 C9.57844105,24.6100369 9.74988595,24.6331928 9.9054753,24.3830407 C9.9054753,24.3830407 10.0853612,24.3977555 10.2336502,24.156957 C10.2336502,24.156957 10.413422,24.1747517 10.5606844,23.9308734 C10.5606844,23.9308734 10.7352091,23.9498087 10.8888593,23.7047897 C10.8888593,23.7047897 11.0665779,23.7206453 11.2158935,23.4787061 C11.2158935,23.4787061 11.3861977,23.4996947 11.541787,23.2526225 C11.5502281,23.2514817 11.5576426,23.2557023 11.5649429,23.2546756 C11.5807985,23.2515958 11.5964258,23.2473753 11.6112547,23.2432688 C11.6342966,23.8815958 11.4398099,24.5187821 10.5911407,25.0529646 C9.81604565,25.5431167 9.2796958,25.4410255 8.85387835,25.1592765 C8.8792015,25.1306453 8.9045247,25.0979076 8.9243726,25.0622042" id="path250" fill="#B0B7BB"></path>
                                    <path d="M16.538441,15.6066149 C19.7744487,14.4103791 21.8714829,13.2882878 21.6726616,12.7497707 C21.4707605,12.2034969 19.9668821,12.9822422 16.0326616,14.4371852 C14.1386692,15.1382498 14.0271102,15.3138012 14.1554373,15.6581738 C14.2574145,15.9333069 14.6001901,16.3238772 16.538441,15.6066149 M16.0820533,14.5707593 C19.4662357,13.3182879 21.4097338,12.4480597 21.5402282,12.7992765 C21.6969582,13.2256642 18.9625095,14.5592384 16.4890494,15.4741814 C14.6623574,16.1503791 14.3595057,15.7997327 14.2890114,15.6098087 C14.1890875,15.3406072 14.5024334,15.1554741 16.0820533,14.5707593" id="path252" fill="#B0B7BB"></path>
                                    <path d="M14.9767301,0.375512008 C6.9126616,0.375512008 0.375513308,6.9120899 0.375513308,14.9772992 C0.375513308,23.0420521 6.9126616,29.5790863 14.9767301,29.5790863 C23.0409126,29.5790863 29.5792015,23.041938 29.5792015,14.9772992 C29.5792015,6.9120899 23.0409126,0.375512008 14.9767301,0.375512008 M14.9767301,28.5284019 C7.4941825,28.5284019 1.42608365,22.4605312 1.42608365,14.9772992 C1.42608365,7.49372485 7.4941825,1.42665262 14.9767301,1.42665262 C22.4604183,1.42665262 28.5274905,7.49372485 28.5274905,14.9772992 C28.5274905,22.4605312 22.4604183,28.5284019 14.9767301,28.5284019" id="path254" fill="#FDBB30"></path>
                                    <path d="M18.4367681,22.973611 C18.4903803,22.9841053 18.5429658,22.9588962 18.5923574,22.9116719 C18.6344486,23.2797707 18.8447908,23.2271852 18.9205323,23.1377555 C18.9625095,23.5058543 19.1718251,23.4532688 19.2475665,23.363611 C19.2895437,23.731938 19.5010266,23.6793524 19.5746007,23.5896947 C19.6165779,23.9577936 19.8280608,23.905208 19.9026616,23.816919 C19.9447529,24.1850179 20.155095,24.1324323 20.2298099,24.0430026 C20.2717871,24.4121282 20.48327,24.358516 20.5578707,24.2690863 C20.5988213,24.6371852 20.8103042,24.5845996 20.8849049,24.49517 C20.9258555,24.8640673 21.1373384,24.8114817 21.2130798,24.7210255 C21.2256274,24.8790103 21.2898479,24.9945616 21.3833841,25.0113297 C21.5159316,25.0344855 21.6578327,24.8493525 21.7020912,24.5992004 C21.7440685,24.3488202 21.6715209,24.126843 21.5389734,24.1048277 C21.4863878,24.0966149 21.4327756,24.1195426 21.3833841,24.1669951 C21.3424335,23.7998088 21.1309506,23.8514818 21.0553232,23.9409114 C21.0142586,23.5728125 20.805057,23.6253981 20.7281749,23.7148278 C20.6872244,23.3457023 20.4758555,23.3993144 20.4022813,23.4887441 C20.3601901,23.1206452 20.1487072,23.1732308 20.0730798,23.2626604 C20.0330419,22.893535 19.821673,22.9461205 19.7460456,23.0345235 C19.704981,22.6664247 19.4946388,22.7190103 19.4190114,22.8094665 C19.3779467,22.4413677 19.166578,22.4939533 19.0918631,22.5822422 C19.0509125,22.2141434 18.8395438,22.2667289 18.7638023,22.3571851 C18.7512548,22.2005692 18.6880608,22.0838772 18.5923574,22.066881 C18.4618631,22.0437251 18.3179088,22.2288582 18.2747908,22.4792384 C18.231673,22.7296186 18.3053612,22.9514817 18.4367681,22.973611" id="path256" fill="#FDBB30"></path>
                                    <path d="M8.57110265,25.0116718 C8.6646388,24.9960445 8.7288593,24.8782118 8.74254755,24.7213677 C8.8171483,24.811824 9.0274905,24.8644095 9.06958175,24.4963107 C9.1453232,24.5847137 9.3556654,24.6384399 9.39661595,24.2693144 C9.4723574,24.3597707 9.6826996,24.4112156 9.72479085,24.0442574 C9.79939165,24.1324323 10.0108745,24.1850179 10.0518251,23.8170331 C10.1264259,23.905208 10.3379088,23.9577936 10.3788593,23.5898087 C10.4546008,23.680265 10.6638023,23.7328505 10.7058936,23.3647517 C10.781635,23.4531547 10.9919772,23.5057403 11.0340684,23.1377555 C11.1086692,23.2259304 11.320038,23.2785159 11.3611026,22.9105312 C11.4104943,22.9588962 11.4641064,22.9831928 11.516692,22.973611 C11.6491255,22.9504551 11.721787,22.7296186 11.6786692,22.4794666 C11.6355514,22.2290863 11.4935361,22.0439533 11.3611026,22.0671092 C11.2664258,22.0829647 11.2022053,22.1996567 11.1896578,22.3562726 C11.1149429,22.266957 10.9046008,22.2143715 10.8626236,22.583497 C10.7868822,22.4930407 10.5775666,22.4415958 10.5355894,22.8095806 C10.4598479,22.720265 10.248365,22.6674514 10.2074144,23.0356642 C10.1328137,22.9461205 9.9213308,22.8946756 9.88038025,23.2617479 C9.8046388,23.1733448 9.5953232,23.1196186 9.553346,23.4887441 C9.47760455,23.3994285 9.26612165,23.3468429 9.2251711,23.7148278 C9.15057035,23.6255121 8.93908745,23.5729266 8.8981369,23.9409114 C8.82239545,23.8515958 8.61205325,23.7990102 8.57007605,24.1681358 C8.52159695,24.1195426 8.46695815,24.0944476 8.4143726,24.1048277 C8.28193915,24.1279837 8.21041825,24.3488202 8.2535361,24.5992004 C8.2965399,24.8496947 8.43855515,25.0348278 8.57110265,25.0116718" id="path258" fill="#FDBB30"></path>
                                    <path d="M22.8095817,24.3912536 C21.9861217,23.8716718 21.4298099,26.6924704 19.2107225,25.293535 C16.7646388,23.7498467 19.1645247,21.3887441 18.0128897,20.6621282 C17.8162358,20.5390483 17.6258555,20.5863867 17.5849049,20.6515197 C17.5428137,20.7177935 17.6689734,20.801862 17.7678707,20.9271091 C18.1948289,21.4655121 16.3807985,24.0915958 18.8447909,25.6448658 C20.9523194,26.9742194 21.9788213,25.1663486 22.1522053,25.2745996 C22.2930799,25.3650559 22.6359696,25.7248277 22.9242206,25.2706072 C23.1797339,24.8644095 23.008289,24.515246 22.8095817,24.3912536" id="path260" fill="#FDBB30"></path>
                                    <path d="M12.1855894,20.9271091 C12.286654,20.8009495 12.4128137,20.7189342 12.3707225,20.6504931 C12.3286312,20.5862726 12.1372244,20.5380217 11.9405704,20.6621282 C10.789962,21.3878316 13.1909886,23.7498467 10.7426236,25.293535 C8.52479085,26.6924704 7.9673384,23.8716718 7.14490495,24.3912536 C6.9461977,24.5165007 6.77475285,24.863611 7.03140685,25.2706072 C7.31737645,25.7248277 7.6612928,25.3641433 7.80228135,25.2757403 C7.97577945,25.1654361 9.0031939,26.9743335 11.1086692,25.6448658 C13.5727757,24.0915958 11.7586312,21.4655121 12.1855894,20.9271091" id="path262" fill="#FDBB30"></path>
                                    <path d="M14.97673,0.187185011 C6.8222053,0.187185011 0.187186312,6.8216336 0.187186312,14.9772993 C0.187186312,23.1325083 6.8222053,29.7662726 14.97673,29.7662726 C23.1323955,29.7662726 29.7662737,23.1325083 29.7662737,14.9772993 C29.7662737,6.8216336 23.1323955,0.187185011 14.97673,0.187185011 M14.9767301,29.5790863 C6.9126616,29.5790863 0.375513308,23.041938 0.375513308,14.9772992 C0.375513308,6.9120899 6.9126616,0.375512008 14.9767301,0.375512008 C23.0409126,0.375512008 29.5792015,6.9120899 29.5792015,14.9772992 C29.5792015,23.041938 23.0409126,29.5790863 14.9767301,29.5790863" id="path266" fill="#002D62"></path>
                                    <path d="M14.9767301,1.42608228 C7.4941825,1.42608228 1.42608365,7.4936108 1.42608365,14.9767289 C1.42608365,22.4614438 7.4941825,28.5274893 14.9767301,28.5274893 C22.4604183,28.5274893 28.5274905,22.4613296 28.5274905,14.9767289 C28.5274905,7.4936108 22.4604183,1.42608228 14.9767301,1.42608228 M14.9767301,28.3404171 C7.6088213,28.3404171 1.61429658,22.346919 1.61429658,14.9767289 C1.61429658,7.6088199 7.6088213,1.61383893 14.9767301,1.61383893 C22.3457794,1.61383893 28.3401901,7.608934 28.3401901,14.9767289 C28.3401901,22.346919 22.3456654,28.3404171 14.9767301,28.3404171" id="path268" fill="#002D62"></path>
                                    <path d="M26.9088593,9.3929644 C26.898365,9.7331165 26.7974145,10.2652458 26.3462738,10.7349796 C26.2947148,10.7896184 22.0565019,15.4679076 16.2680989,19.8922802 C16.5699239,20.1132308 16.940076,20.380265 17.2944867,20.6315578 C17.3008745,20.5884399 17.3155893,20.5441813 17.3439924,20.4990103 C17.4743726,20.2939152 17.8351711,20.2140673 18.1652851,20.4222422 C18.6763118,20.7440293 18.6910266,21.2277936 18.5944107,21.7810255 C18.6091255,21.7833068 18.6258936,21.7833068 18.6417491,21.7872993 C18.7721293,21.8095426 18.8752471,21.8946376 18.9477947,22.016805 C18.9477947,22.016805 19.1192395,21.9978696 19.2738023,22.2426604 C19.2738023,22.2426604 19.4557415,22.2270331 19.6008365,22.4687441 C19.6008365,22.4687441 19.773308,22.4455882 19.9288973,22.6959684 C19.9288973,22.6959684 20.1087832,22.6812536 20.2560457,22.9220521 C20.2560457,22.9220521 20.4358175,22.9042574 20.5830799,23.1481358 C20.5830799,23.1481358 20.7586312,23.1312536 20.9101141,23.375132 C20.9101141,23.375132 21.0878327,23.358478 21.2381749,23.6012156 C21.2381749,23.6012156 21.4096198,23.5813677 21.5652092,23.8262726 C21.5725095,23.8274133 21.580038,23.8231928 21.588365,23.8242194 C21.8113688,23.8632308 21.9585171,24.0628506 21.9911407,24.3363867 C22.286692,24.0650179 22.5811026,23.9104552 22.9596958,24.1512536 C23.2268441,24.318592 23.4581749,24.7222803 23.2730418,25.2039913 C26.2471483,22.7863107 28.1527756,19.1001889 28.1527756,14.9765007 C28.1531179,12.9823563 27.7061977,11.0892762 26.9088593,9.3929644" id="path270" fill="#002D62"></path>
                                    <path d="M13.6022053,11.3784397 C13.1678327,11.3784397 12.9921673,11.7197327 12.9880609,11.7922802 C12.9880609,11.868592 13.0531939,11.9642954 13.0626616,12.0731168 C13.0626616,12.0731168 13.2329658,11.8964247 13.4307604,11.8964247 C13.8103802,11.8964247 14.141635,12.5168429 14.2458935,12.8530027 C14.2837643,12.6946757 14.3238023,12.4844476 14.3238023,12.2088581 C14.3236882,11.6961205 13.9481749,11.3784397 13.6022053,11.3784397" id="path272" fill="#002D62"></path>
                                    <path d="M18.693308,25.8856643 C17.143232,24.9076414 17.1420913,23.5395046 17.3199239,22.480265 C16.5868061,21.9923943 15.6277186,21.3286301 14.9767301,20.8554741 C14.3268821,21.3286301 13.366654,21.9922803 12.6347908,22.480265 C12.813422,23.5393905 12.8114829,24.9075274 11.2612928,25.8856643 C9.35988595,27.0856643 8.2030038,25.923535 7.8191635,25.6112156 C7.7234601,25.6806833 7.586692,25.7531168 7.4353232,25.775246 C9.573308,27.271938 12.1752092,28.1522042 14.9767301,28.1522042 C17.7805323,28.1522042 20.3802662,27.271938 22.5182509,25.775246 C22.3667681,25.7532308 22.2310266,25.6807973 22.1354372,25.6112156 C21.7514829,25.923535 20.5947148,27.0856643 18.693308,25.8856643" id="path274" fill="#002D62"></path>
                                    <path d="M11.1149429,10.6707591 C10.870038,10.6707591 10.7952091,10.9047134 10.7952091,10.9820518 C10.7952091,11.5357403 11.2190874,11.3138769 11.4703802,11.6519761 C11.5598099,11.4206452 11.3305323,11.3233446 11.3305323,11.0682876 C11.3305323,10.9942572 11.3611026,10.9336869 11.3611026,10.8842952 C11.3612168,10.750607 11.2401901,10.6707591 11.1149429,10.6707591" id="path276" fill="#002D62"></path>
                                    <path d="M6.9936502,24.1514817 C7.3742966,23.9106833 7.666654,24.065246 7.96323195,24.3366149 C7.99471485,24.0630787 8.1441445,23.8634589 8.3670342,23.8244475 C8.37444865,23.8233069 8.3818631,23.8275274 8.3891635,23.8265008 C8.54577945,23.5817099 8.71505705,23.6014438 8.71505705,23.6014438 C8.86539925,23.358592 9.04323195,23.3753601 9.04323195,23.3753601 C9.19460075,23.1313677 9.37026615,23.1483639 9.37026615,23.1483639 C9.5175285,22.9043715 9.69844105,22.9222803 9.69844105,22.9222803 C9.84673005,22.6814817 10.0265019,22.6961966 10.0265019,22.6961966 C10.1801521,22.4458164 10.3525095,22.4689723 10.3525095,22.4689723 C10.4986312,22.2272612 10.6795438,22.2428886 10.6795438,22.2428886 C10.8362738,21.9980977 11.0076045,22.0170331 11.0076045,22.0170331 C11.0791255,21.8949798 11.1811026,21.8098848 11.3126236,21.7875274 C11.3293917,21.783535 11.3442205,21.783535 11.359962,21.7812536 C11.263232,21.2280216 11.2789734,20.7443715 11.7890875,20.4224704 C12.1194297,20.2142955 12.4801141,20.2941433 12.6093536,20.4992384 C12.6377567,20.5444095 12.6534981,20.588668 12.6597719,20.631786 C13.0141825,20.3804931 13.383308,20.1133449 13.6851331,19.8925083 C7.89673005,15.4681358 3.65863118,10.7898466 3.60912548,10.7352078 C3.15798479,10.265588 3.05589354,9.7334587 3.04551331,9.39319255 C2.24840304,11.0895044 1.80136882,12.9825844 1.80136882,14.976957 C1.80136882,19.1005312 3.70596958,22.7866528 6.68110265,25.2044476 C6.49608365,24.7225083 6.7275285,24.3188202 6.9936502,24.1514817" id="path278" fill="#002D62"></path>
                                    <path d="M14.9778707,18.9310255 C19.1107985,15.7955122 22.3215969,12.8234589 24.2451331,10.9315196 C24.2240304,10.9326602 24.2020152,10.9336869 24.1809125,10.9336869 C23.0492395,10.9336869 22.7906464,9.64117735 22.438289,9.64117735 C22.2963878,9.6532686 21.7642586,9.8231165 21.4424715,9.96205185 C21.6548669,10.035626 21.8547149,9.9609112 22.105095,10.122318 C22.4279088,10.0914055 22.6719012,10.2484777 22.6719012,10.6481735 C22.6719012,11.0467287 22.5836122,11.5762346 21.8222053,11.5762346 C20.7852092,11.5762346 20.7579467,10.5598845 20.0501521,10.5598845 C19.8345627,10.5598845 19.0878707,10.8863484 18.460038,10.8863484 C17.6619011,10.8863484 17.1507604,10.3080215 16.4745628,10.3080215 C16.2148289,10.3080215 16.1475285,10.5330785 16.1475285,10.6525081 C16.1475285,10.9574131 16.5198479,11.0615575 16.5198479,11.3913295 C16.5198479,11.4970711 16.4746768,11.6142194 16.3411026,11.6941813 C16.4357794,11.7620521 16.5189353,11.8503411 16.5189353,11.9922422 C16.5189353,12.046881 16.5,12.095246 16.4788973,12.1431548 C16.6261597,12.0290863 16.753346,11.9438772 16.901635,11.9438772 C17.3769582,11.9438772 17.5884411,12.7515958 17.5884411,13.0582118 C17.5884411,13.5582878 17.1172244,13.6044855 16.7008745,13.6044855 C16.3138403,13.6044855 15.4620913,13.9631167 15.1117871,13.9631167 C14.7605704,13.9631167 14.2377947,13.6656263 14.179962,13.2890863 C14.0421673,13.4710255 13.7739924,13.5945616 13.4396578,13.5945616 C13.0725855,13.5945616 12.3690114,13.188592 11.9589354,13.188592 C11.6423955,13.218592 11.0703422,13.1769571 11.0703422,12.425132 C11.0703422,12.3799608 11.0776426,12.3399228 11.0871103,12.3026224 C10.6222813,12.5455882 9.98076045,12.3426605 9.98076045,12.3426605 C9.19311785,12.7311775 9.08041825,12.2937251 9.08155895,12.1292384 C8.9165019,12.2543715 8.71026615,12.4961966 8.43057035,12.4961966 C7.97304185,12.4961966 7.8574905,12.0419761 7.5903422,11.7889723 C7.48311785,11.6812917 7.20011405,11.5724703 7.0518251,11.4077555 C6.79939165,11.1542952 6.55859315,10.7336108 5.7036502,10.0485157 C5.46707225,9.8581355 5.26505705,9.18034085 5.26505705,8.56870585 C5.26505705,7.4329264 5.4375285,6.27935225 7.49988595,5.7561203 C9.60741445,5.22399105 9.2078327,2.53163361 13.1378327,2.53163361 C14.2441825,2.53163361 15.1559316,2.7409492 16.0752091,3.07323057 C15.824943,2.9466146 15.7123574,2.80824958 15.7617491,2.62733704 C15.8080608,2.45646251 15.9457415,2.13205187 19.173308,3.01961841 C21.1220533,3.55482753 22.6522813,4.06494159 22.5102661,4.58121536 C22.3430418,5.19068305 21.1841065,4.51756517 18.8168441,3.86714692 C17.8703042,3.60741308 17.1046768,3.43186175 16.5757414,3.26509369 C18.2195817,3.92920015 20.0031559,4.93300243 23.0551711,5.8064245 C24.1236502,6.07984655 24.8071483,6.10619635 24.8071483,6.66353475 C24.8071483,6.7866146 24.7557034,6.86703285 24.6894297,6.93182375 C25.3003802,6.89087315 25.5191635,7.68684275 24.2045247,7.68684275 C23.4610266,7.68684275 22.9204563,7.3982496 22.9204563,6.99969445 C22.9204563,6.7982496 23.0246008,6.6757401 23.1581749,6.5947515 C22.8553232,6.5090861 22.4787832,6.4291241 22.1548289,6.40334465 C22.2021673,6.5657781 22.2578327,6.77566405 22.2578327,7.03950435 C22.2578327,7.54802145 22.1412548,7.78254615 22.0980228,8.07228 C22.3210266,8.03132945 22.5492775,7.92250815 22.7238023,7.92250815 C23.4788213,7.92250815 23.0496958,9.02988455 23.9825475,9.1429264 C24.3412928,9.21182375 24.3318251,9.468934 24.3318251,9.468934 C24.6809886,9.40323055 24.9229277,9.43049295 24.9229277,10.1346374 C24.9229277,10.1798085 24.9197339,10.2220138 24.9165399,10.263991 C25.7820913,9.3926222 26.25,8.87372485 26.2658555,8.85638645 C26.3593916,8.75748915 26.4709506,8.7185918 26.5719011,8.72383895 C24.3412928,4.60596821 19.9801141,1.80170966 14.978327,1.80170966 C9.9744867,1.80170966 5.6131939,4.60596821 3.38269962,8.72383895 C3.48479087,8.7185918 3.59509505,8.75748915 3.68874524,8.85638645 C3.73653993,8.90965645 8.07045625,13.6938012 14.9778707,18.9310255 M16.0326616,14.4377555 C19.9668821,12.9828126 21.4697339,12.2029266 21.6726616,12.750341 C21.8714829,13.2888581 19.7744487,14.4099228 16.538441,15.6071851 C14.6001901,16.3244475 14.2574145,15.9327365 14.1553232,15.6587441 C14.0281369,15.3132308 14.1385552,15.1387061 16.0326616,14.4377555" id="path280" fill="#002D62"></path>
                                    <path d="M20.7030799,24.8361206 C20.7030799,24.8361206 20.5221673,24.8519761 20.3760456,24.6100369 C20.3760456,24.6100369 20.2034601,24.6331928 20.0478707,24.3830407 C20.0478707,24.3830407 19.8691255,24.3977555 19.7208365,24.156957 C19.7208365,24.156957 19.5410646,24.1747517 19.3938023,23.9308734 C19.3938023,23.9308734 19.2181369,23.948668 19.0656274,23.7047897 C19.0656274,23.7047897 18.8869962,23.7206453 18.7385931,23.4787061 C18.7385931,23.4787061 18.5682889,23.4987822 18.4126996,23.2514817 C18.4042586,23.2514817 18.3959316,23.2557023 18.3895438,23.2545616 C18.3736882,23.2514817 18.3569202,23.2472612 18.3422053,23.2431547 C18.3190495,23.880341 18.5146768,24.518668 19.3623194,25.0539912 C20.1384411,25.5430026 20.6737643,25.4410255 21.101749,25.1591623 C21.0743726,25.1297327 21.0513308,25.0981358 21.0292015,25.0624323 C21.0290874,25.0622042 20.8577566,25.0811395 20.7030799,24.8361206" id="path282" fill="#002D62"></path>
                                    <path d="M11.2160076,23.4784779 C11.0665779,23.7213297 10.8889734,23.703535 10.8889734,23.703535 C10.7353232,23.948554 10.5597719,23.9307593 10.5597719,23.9307593 C10.4135361,24.1747517 10.2337643,24.1558163 10.2337643,24.1558163 C10.0854753,24.3977555 9.90673005,24.3830407 9.90673005,24.3830407 C9.7511407,24.6331928 9.5775285,24.6100369 9.5775285,24.6100369 C9.43243345,24.8531168 9.2515209,24.8350939 9.2515209,24.8350939 C9.09695815,25.0812536 8.9244867,25.0623183 8.9244867,25.0623183 C8.90338405,25.0980216 8.8803422,25.1296187 8.8529658,25.1590483 C9.28106465,25.4409114 9.81627375,25.5417479 10.5923954,25.0538772 C11.4401521,24.5176414 11.6356654,23.8823943 11.6125095,23.2430407 C11.5957415,23.2470331 11.5810266,23.2512536 11.5651711,23.253535 C11.5578707,23.2555882 11.5494297,23.2512536 11.5420152,23.253535 C11.3863118,23.4984399 11.2160076,23.4784779 11.2160076,23.4784779" id="path284" fill="#002D62"></path>
                                    <path d="M8.18406845,8.4759682 C8.00110265,8.4759682 7.94326995,8.5569568 7.94326995,8.598934 C7.94326995,8.64205185 8.14311785,9.12855375 8.26825095,9.12855375 C8.433308,9.12855375 8.6941825,8.8241051 8.6941825,8.6968047 C8.6941825,8.568934 8.3670342,8.4759682 8.18406845,8.4759682" id="path286" fill="#002D62"></path>
                                    <path d="M8.29026615,11.8327745 C8.29026615,11.9131928 8.44391635,12.0241813 8.44391635,12.0241813 C8.44391635,12.0241813 8.6005323,11.8090483 8.6005323,11.6540293 C8.60041825,11.5966528 8.29026615,11.6493525 8.29026615,11.8327745" id="path288" fill="#002D62"></path>
                                    <path d="M8.3165019,7.673953 C8.3165019,7.19703285 7.9338023,6.7616336 7.19657795,6.7616336 C6.42889735,6.7616336 5.9218631,7.192242 5.9218631,7.44570205 C5.9218631,7.6566146 6.2605323,7.22805945 6.7601521,7.22805945 C7.0535361,7.22805945 7.34794675,7.3942572 7.34794675,7.6360823 C7.34794675,7.8301127 7.10395435,7.97589215 7.10395435,8.14037885 C7.10395435,8.25866785 7.1880228,8.49684275 7.47205325,8.49684275 C7.9148669,8.49684275 8.3165019,8.15087315 8.3165019,7.673953" id="path290" fill="#002D62"></path>
                                    <path d="M16.473308,10.1653219 C17.1978707,10.1653219 17.7005703,10.7437629 18.4609505,10.7437629 C19.098251,10.7437629 19.7913308,10.417299 20.0490114,10.417299 C20.8555893,10.417299 20.8461217,11.435246 21.8231178,11.435246 C22.3247908,11.435246 22.5288593,11.2065385 22.5288593,10.6481735 C22.5288593,10.2743712 22.3059696,10.2643332 22.1030419,10.2643332 C22.0261597,10.2643332 21.9263498,10.1460442 21.6938783,10.1460442 C21.4278707,10.1460442 21.2038403,10.0308351 21.1439544,9.9609112 C21.3426616,9.80999865 22.2629658,9.49973245 22.4311026,9.49973245 C22.9527376,9.49973245 23.0704562,10.792242 24.18,10.792242 C24.4776045,10.792242 24.7805704,10.7134207 24.7805704,10.1344093 C24.7805704,9.68954235 24.6953612,9.55186175 24.4745247,9.5859682 C24.308327,9.62167165 24.1569582,9.64106325 24.1569582,9.64106325 C24.240114,9.47703285 24.2095438,9.3329644 23.9592775,9.2834587 C22.9202281,9.12319255 23.3303042,8.06418115 22.7235742,8.06418115 C22.513232,8.06418115 21.9453993,8.353915 21.9453993,8.1492762 C21.9453993,7.9342572 22.1157034,7.59604425 22.1157034,7.0403028 C22.1157034,6.670607 21.9706083,6.25106325 21.9706083,6.25106325 C22.4996578,6.2520899 23.2546768,6.4497705 23.5953992,6.5954359 C23.3777566,6.6354739 23.0622433,6.710645 23.0622433,6.99935225 C23.0622433,7.30539785 23.5638023,7.54516975 24.2053232,7.54516975 C25.2464259,7.54516975 25.131787,7.07452335 24.7521673,7.07452335 C24.356692,7.07452335 24.2117111,7.0403028 24.1569582,7.01132945 C24.3378707,6.94300245 24.664905,6.93456135 24.664905,6.66319255 C24.664905,6.2068047 24.0580609,6.22939025 23.0147909,5.94285035 C18.351673,4.66037886 16.3325476,2.67330661 13.1374905,2.67330661 C9.2558555,2.67330661 9.75638785,5.32870585 7.53422055,5.8934587 C5.56973385,6.3919378 5.40775665,7.4430785 5.40775665,8.5682496 C5.40775665,9.17566405 5.6106844,9.7914055 5.79159695,9.93707085 C6.25106465,10.3277553 6.56771865,10.5864625 7.15243345,11.3068047 C7.25874525,11.4272612 7.56262355,11.5598088 7.69095055,11.6881358 C7.95809885,11.955284 8.0653232,12.3538392 8.43022815,12.3538392 C8.75304185,12.3538392 8.9843726,11.896881 9.42193915,11.7764247 C9.3188213,11.8763487 9.22209125,11.9940673 9.22209125,12.1360825 C9.22209125,12.456843 9.5880228,12.3763107 9.9708365,12.1949418 C10.8247528,12.4158924 11.1265779,12.1781737 11.3568822,11.896881 C11.4010266,11.8431548 11.3925855,11.7621662 11.3431939,11.7117479 C11.0655513,11.4556642 10.6543346,11.6019 10.6543346,10.9814815 C10.6543346,10.8610253 10.7626996,10.5281736 11.1149429,10.5281736 C11.3137642,10.5281736 11.576692,10.6922039 11.4840685,11.0008732 C11.4252092,11.1959302 11.6282509,11.3348655 11.6282509,11.4846376 C11.6282509,12.0383258 11.211787,12.0745996 11.211787,12.4247898 C11.211787,13.056843 11.6787833,13.0721281 11.9501521,13.046805 C12.3854373,13.046805 13.1248289,13.4517479 13.4393156,13.4517479 C13.840038,13.4517479 14.1396958,13.2667289 14.1396958,13.0211395 C14.1396958,12.8297327 13.7526616,12.0394666 13.4308745,12.0394666 C13.2531559,12.0394666 13.1175285,12.2576794 13.0145247,12.2576794 C12.9398099,12.2576794 12.9020532,12.2319 12.896692,12.2224323 C12.9935361,12.0683259 12.8462737,11.9710255 12.8462737,11.7912536 C12.8462737,11.6624703 13.0818251,11.2371089 13.6014069,11.2371089 C14.0177567,11.2371089 14.4658175,11.6082878 14.4658175,12.2082878 C14.4658175,12.7404171 14.3102282,13.0958543 14.3102282,13.2216718 C14.3102282,13.540265 14.8097339,13.8216718 15.1115589,13.8216718 C15.4396198,13.8216718 16.2641064,13.4629266 16.7015589,13.4629266 C17.1685551,13.4629266 17.4461977,13.3898088 17.4461977,13.0580977 C17.4461977,12.7609495 17.239962,12.0857784 16.9014069,12.0857784 C16.6048289,12.0857784 16.168403,12.7557023 15.6088973,12.7557023 C15.6362738,12.682014 15.7319772,12.5453601 15.7761217,12.5175274 C16.1326996,12.3408354 16.376692,12.1930027 16.376692,11.9922422 C16.376692,11.8166909 16.1379468,11.7529266 16.0065399,11.6430787 C16.2495057,11.6193524 16.3778327,11.5651699 16.3778327,11.3912153 C16.3778327,11.1403788 16.0044867,11.0324701 16.0044867,10.652394 C16.0042585,10.4098845 16.1662357,10.1653219 16.473308,10.1653219 M15.8632699,10.652394 C15.8632699,11.0809492 16.2355894,11.230721 16.2355894,11.3912153 C16.2355894,11.5699608 15.8253993,11.4212156 15.8253993,11.6062346 C15.8253993,11.7861205 16.2345627,11.9001889 16.2345627,11.9922422 C16.2345627,12.1536491 15.7875285,12.34517 15.7024334,12.3944476 C15.618251,12.4454361 15.4562737,12.6779076 15.4562737,12.7815958 C15.4562737,12.883573 15.5372624,12.8978315 15.6087833,12.8978315 C16.2188213,12.8978315 16.6931179,12.2279076 16.9012928,12.2279076 C17.108441,12.2279076 17.3040684,12.7737251 17.3040684,13.0582118 C17.3040684,13.3437251 16.9476046,13.3211395 16.638365,13.3211395 C16.3280988,13.3211395 15.3690114,13.6797707 15.1113308,13.6797707 C14.8536502,13.6797707 14.4519011,13.4331547 14.4519011,13.2217859 C14.4519011,13.1087441 14.6076045,12.7789723 14.6076045,12.2084019 C14.6076045,11.5212536 14.0932699,11.0952077 13.6011787,11.0952077 C13.0080228,11.0952077 12.7030038,11.5711015 12.7030038,11.7914818 C12.7030038,11.9739912 12.8166159,12.0858924 12.776692,12.1558164 C12.7051711,12.2772993 12.8187832,12.3993525 13.0144107,12.3993525 C13.189962,12.3993525 13.3152091,12.1805692 13.4307604,12.1805692 C13.6336882,12.1805692 13.9976806,12.8663487 13.9976806,13.0213677 C13.9976806,13.1754741 13.751635,13.3111015 13.4392015,13.3111015 C13.1825476,13.3111015 12.4295818,12.9051319 11.9405703,12.9051319 C11.7322813,12.9182498 11.3536882,12.960341 11.3536882,12.4250178 C11.3536882,12.1590102 11.7711787,12.0911395 11.7711787,11.4848658 C11.7711787,11.2834207 11.5838784,11.1541811 11.6186692,11.0442191 C11.730114,10.6945994 11.465019,10.3874131 11.1148289,10.3874131 C10.6804563,10.3874131 10.5123194,10.7828883 10.5123194,10.9817097 C10.5123194,11.7046757 11.0581369,11.6279076 11.2431559,11.8134969 C10.8341065,12.3657023 10.14,12.0533829 9.96125475,12.0533829 C9.85494295,12.0533829 9.36387835,12.3594285 9.36387835,12.1365388 C9.36387835,11.8756642 10.0096198,11.6064628 9.610038,11.6064628 C9.011635,11.6064628 8.7076426,12.2118239 8.43,12.2118239 C8.1607985,12.2118239 8.07342205,11.8716719 7.7906464,11.5886681 C7.60243345,11.3988579 7.4277947,11.3825461 7.25326995,11.2068807 C7.044981,11.0001887 6.7756654,10.5417477 5.8807985,9.82653855 C5.76410645,9.73300245 5.54954375,9.2007591 5.54954375,8.56870585 C5.54954375,7.44353475 5.7209886,6.5000747 7.5698099,6.03056895 C9.90558935,5.4379834 9.29041825,2.81463741 13.1373764,2.81463741 C16.265019,2.81463741 17.9971483,4.66288836 22.9757795,6.078934 C23.9768441,6.3644473 24.5238023,6.3398085 24.5238023,6.6636488 C24.5238023,6.8834587 23.9884791,6.7909492 23.9884791,6.99969445 C23.9884791,7.2084397 24.4502282,7.21733705 24.7519392,7.21733705 C25.0527377,7.21733705 24.8087453,7.40349675 24.2050951,7.40349675 C23.6003042,7.40349675 23.2028898,7.18254615 23.2028898,6.99969445 C23.2028898,6.6904549 23.8958555,6.76037885 23.8958555,6.63786935 C23.8958555,6.4664245 22.6653993,6.1088199 21.9629658,6.1088199 C21.6401521,6.1088199 21.9734601,6.4547895 21.9734601,7.040645 C21.9734601,7.5691241 21.8041825,7.90402905 21.8041825,8.1496184 C21.8041825,8.5944853 22.5172244,8.20699485 22.7234601,8.20699485 C23.1536122,8.20699485 22.8306844,9.2407971 23.9370342,9.4237629 C24.1758936,9.46266025 23.9780988,9.59520775 23.9780988,9.72604425 C23.9780988,9.8585918 24.3987833,9.7403028 24.4818251,9.72969445 C24.5658936,9.71771725 24.6385551,9.67551195 24.6385551,10.1346374 C24.6385551,10.5931925 24.4429277,10.6504549 24.179886,10.6504549 C23.1409506,10.6504549 23.0798099,9.3579454 22.429962,9.3579454 C22.2459696,9.3579454 20.9796958,9.76288835 20.9796958,9.94049295 C20.9796958,10.1129644 21.3540684,10.2886298 21.6937643,10.2886298 C21.925095,10.2886298 21.9461977,10.4069188 22.1029278,10.4069188 C22.2585171,10.4069188 22.3878707,10.3811393 22.3878707,10.6482876 C22.3878707,11.1357021 22.2395818,11.2928884 21.8231178,11.2928884 C20.9281369,11.2928884 20.9502662,10.2753978 20.0490114,10.2753978 C19.7544867,10.2753978 19.0762357,10.6018617 18.4609505,10.6018617 C17.7342206,10.6018617 17.2494296,10.0235347 16.473308,10.0235347 C16.0757794,10.0234207 15.8632699,10.3431545 15.8632699,10.652394" id="path292" fill="#002D62"></path>
                                    <path d="M7.8769962,9.84935225 C7.8769962,9.62748915 8.1441445,9.43722295 7.95695815,9.43722295 C7.62456275,9.43722295 7.7623574,10.2963864 7.49520915,10.6580975 C7.49520915,10.6580975 7.44262355,10.8017096 7.64771865,10.8017096 C7.9442966,10.8017096 8.244981,10.507299 8.244981,10.3199987 C8.244981,10.0270708 7.8769962,10.1001887 7.8769962,9.84935225 M7.9243346,10.4904169 C7.8665019,10.4904169 7.7865399,10.3815956 7.7865399,10.3495424 C7.7865399,10.318972 7.83490495,10.2349036 7.88543725,10.2349036 C7.99790875,10.2349036 8.00110265,10.3231925 8.00110265,10.4441051 C8.00110265,10.4751317 7.9579848,10.4904169 7.9243346,10.4904169" id="path294" fill="#002D62"></path>
                                    <path d="M22.8853232,24.2713677 C22.4887072,24.0200749 22.1839164,24.3115197 21.8304183,24.675284 C21.8346388,24.6605692 21.8378327,24.6416339 21.8410266,24.6247517 C21.9,24.28517 21.78,24.0022802 21.5632699,23.9653221 C21.5380609,23.9601889 21.5106844,23.9695426 21.4844487,23.9728506 C21.3709505,23.6741053 21.1585552,23.7475654 21.1585552,23.7475654 C21.0513308,23.4509874 20.8315209,23.5214817 20.8315209,23.5214817 C20.7148289,23.2241053 20.5044867,23.2956263 20.5044867,23.2956263 C20.3972623,22.996881 20.1763118,23.0695426 20.1763118,23.0695426 C20.0574524,22.7654361 19.8492776,22.8434589 19.8492776,22.8434589 C19.7377187,22.5447137 19.5222434,22.6162346 19.5222434,22.6162346 C19.415019,22.3196566 19.1930419,22.3901509 19.1930419,22.3901509 C19.0772624,22.0842194 18.8638403,22.1640673 18.8638403,22.1640673 C18.8154753,22.0348278 18.7291255,21.9464247 18.6177947,21.9265768 C18.5441065,21.9149419 18.4715589,21.9328506 18.4073384,21.9749419 C18.5273384,21.366957 18.5757034,20.8495426 18.0897719,20.5424703 C17.8353992,20.3826604 17.5554753,20.4310255 17.465019,20.5762346 C17.3525476,20.7529266 17.5713308,20.9064627 17.6565399,21.0158544 C17.9835741,21.4323183 16.2588593,24.183535 18.7691635,25.7662346 C20.6852851,26.9746756 21.7253612,25.7399988 22.1281369,25.4329266 C22.3227377,25.5864627 22.7287072,25.8461966 23.0430799,25.3464628 C23.2912928,24.9539533 23.2249049,24.4859304 22.8853232,24.2713677 M18.5933841,22.0671092 C18.6870342,22.0829647 18.7501141,22.1996567 18.7648289,22.3562726 C18.8385171,22.266957 19.049886,22.2143715 19.0918631,22.5823563 C19.1676046,22.4930407 19.3769202,22.4415958 19.4190114,22.8095806 C19.4946388,22.720265 19.704981,22.6674514 19.7470723,23.0356642 C19.821673,22.9461205 20.0321293,22.893535 20.0741065,23.2617479 C20.1498479,23.1722042 20.3591635,23.1196186 20.4011407,23.4876034 C20.4768822,23.3994285 20.6872244,23.3468429 20.7293156,23.7159684 C20.8039164,23.6255121 21.0142586,23.5729266 21.0563498,23.9410255 C21.1320913,23.8526224 21.3412928,23.7991243 21.3833841,24.1682498 C21.4328898,24.1196566 21.4863878,24.0955882 21.540114,24.1049418 C21.6725476,24.1280977 21.7440685,24.3489342 21.7009506,24.5993145 C21.6578327,24.8494665 21.5159316,25.0345996 21.3833841,25.0114438 C21.2887072,24.9958163 21.2256274,24.8779837 21.2119391,24.7222803 C21.1373384,24.8115958 20.9258555,24.8641813 20.8849049,24.4961966 C20.8091635,24.5845996 20.599962,24.6371852 20.5578707,24.2692004 C20.4821293,24.3596567 20.2707605,24.4111015 20.2298099,24.041976 C20.155095,24.1324323 19.9437263,24.1850179 19.9026616,23.816919 C19.8270342,23.9050939 19.6165779,23.9576795 19.5746008,23.5896947 C19.5,23.680151 19.2906844,23.7327365 19.2485932,23.3646376 C19.1728517,23.4530407 18.9614829,23.5056262 18.9205323,23.1376415 C18.8458175,23.2258163 18.6344486,23.2784019 18.5923574,22.9104171 C18.5439924,22.9587822 18.4902662,22.9830787 18.4367681,22.973497 C18.3053612,22.950341 18.2326996,22.7295046 18.2758175,22.4793525 C18.3189354,22.2279456 18.4609505,22.0438392 18.5933841,22.0671092 M21.3434601,25.1472992 C20.8671102,25.5427745 20.2497718,25.7816338 19.2864639,25.173535 C18.2705703,24.5321281 18.1381369,23.7432308 18.2210646,22.9861585 C18.2705703,23.0553981 18.3346768,23.0997707 18.4136121,23.1144856 C18.4398479,23.1187061 18.4651711,23.110265 18.4924335,23.1060445 C18.6060456,23.4047897 18.8184411,23.3311015 18.8184411,23.3311015 C18.9256654,23.6276794 19.1454753,23.5571851 19.1454753,23.5571851 C19.2621673,23.8547897 19.4736502,23.7832688 19.4736502,23.7832688 C19.5798479,24.081786 19.8006844,24.0093525 19.8006844,24.0093525 C19.9205703,24.3132308 20.1277186,24.2363487 20.1277186,24.2363487 C20.2391635,24.5339532 20.4547528,24.4624323 20.4547528,24.4624323 C20.5619772,24.7590102 20.7828137,24.6885159 20.7828137,24.6885159 C20.8995057,24.9946757 21.1131559,24.9145996 21.1131559,24.9145996 C21.1594677,25.0390483 21.2404563,25.1233448 21.3434601,25.1472992 M22.9231939,25.2706072 C22.6359696,25.7248277 22.2931939,25.3641433 22.1511787,25.2757403 C21.9776806,25.1654361 20.9522053,26.9743334 18.8447908,25.6448658 C16.3806844,24.0904552 18.1959696,21.4666528 17.7688973,20.9271091 C17.6679467,20.8009495 17.5428137,20.7189342 17.5837643,20.6515197 C17.6258555,20.5863867 17.8172624,20.5380217 18.0139163,20.6621282 C19.1644107,21.3878316 16.763384,23.7498468 19.2106084,25.293535 C21.4285552,26.6924704 21.9860076,23.8716718 22.8094677,24.3912536 C23.0072624,24.5163867 23.1797339,24.8634969 22.9231939,25.2706072" id="path296" fill="#002D62"></path>
                                    <path d="M11.1845247,25.7657784 C13.6948289,24.1830787 11.970114,21.431862 12.2971483,21.0153981 C12.3833841,20.9060064 12.6010266,20.7524703 12.4906084,20.5747517 C12.3991255,20.4306833 12.1194297,20.3822042 11.8649429,20.5421281 C11.3790114,20.8492004 11.4263498,21.3666149 11.548403,21.9745996 C11.4821293,21.9325083 11.4095817,21.9147137 11.3370342,21.9282879 C11.2244486,21.9460825 11.1393536,22.0345996 11.0898479,22.1637251 C11.0898479,22.1637251 10.8774524,22.0839913 10.7606464,22.3890102 C10.7606464,22.3890102 10.5396958,22.3195426 10.4336122,22.6171472 C10.4336122,22.6171472 10.2159696,22.5444856 10.1054372,22.8432308 C10.1054372,22.8432308 9.89828895,22.765208 9.77840305,23.0693145 C9.77840305,23.0693145 9.5565399,22.9977936 9.4513688,23.2953981 C9.4513688,23.2953981 9.23988595,23.2238772 9.1243346,23.5223943 C9.1243346,23.5223943 8.90338405,23.4508734 8.7951331,23.7474513 C8.7951331,23.7474513 8.58479085,23.6738772 8.4701521,23.9727365 C8.44277565,23.9694285 8.41756655,23.9600749 8.3901901,23.965208 C8.17357415,24.0021662 8.0548289,24.28517 8.11254755,24.6246377 C8.1156274,24.6415198 8.1198479,24.6594285 8.12304185,24.6772232 C7.7707985,24.3114057 7.46577945,24.0199609 7.06927755,24.2712536 C6.72958175,24.4858164 6.663308,24.9538392 6.9104943,25.3460065 C7.2260076,25.8466529 7.6318631,25.5860064 7.8264639,25.4324703 C8.23026615,25.7395426 9.27045625,26.9742194 11.1845247,25.7657784 M8.4143726,24.10517 C8.46695815,24.0946756 8.52159695,24.1198848 8.57007605,24.1684779 C8.61205325,23.7993525 8.8235361,23.851938 8.8981369,23.9412536 C8.93908745,23.5731548 9.14942965,23.6257403 9.2251711,23.7151699 C9.26726235,23.3470711 9.47760455,23.3996567 9.5522053,23.4890863 C9.5942966,23.1199608 9.80577945,23.173573 9.87923955,23.2620901 C9.9213308,22.8949038 10.1328137,22.9463487 10.2074144,23.0360064 C10.2495057,22.6676795 10.4598479,22.7204931 10.5344487,22.8099228 C10.5765399,22.4418239 10.7879087,22.4933829 10.8614829,22.5838391 C10.9035742,22.2147137 11.1149429,22.2672993 11.1906844,22.3566148 C11.2032319,22.1999989 11.2664259,22.0833068 11.3611026,22.0674513 C11.4925095,22.0442954 11.6365779,22.2294285 11.6786692,22.4798088 C11.721787,22.7299609 11.6491255,22.9507973 11.5177187,22.9739533 C11.4641064,22.983535 11.4094677,22.9592384 11.3611026,22.9108734 C11.3190114,23.2789722 11.1086692,23.2263867 11.0340684,23.1380977 C10.9919772,23.5061966 10.7804943,23.453611 10.7069202,23.3650939 C10.664943,23.7331928 10.4546008,23.6806072 10.379886,23.590151 C10.3379088,23.9582498 10.1274524,23.9056643 10.0518251,23.8173753 C10.0097338,24.1854742 9.80041825,24.1328886 9.72479085,24.0445996 C9.6826996,24.4115578 9.47121675,24.360113 9.39775665,24.2696567 C9.3556654,24.6387822 9.1441825,24.58517 9.06958175,24.4966529 C9.0274905,24.8647517 8.8171483,24.8121661 8.74254755,24.7217099 C8.7288593,24.878554 8.6646388,24.9963867 8.57110265,25.0120141 C8.4375285,25.03517 8.2955133,24.8500369 8.25239545,24.5998848 C8.20927755,24.3490483 8.2828517,24.1283258 8.4143726,24.10517 M11.733422,22.9862726 C11.8165779,23.7433448 11.6849429,24.5322422 10.6680228,25.1736491 C9.7036882,25.7804932 9.08840305,25.5439152 8.60988595,25.1484399 C8.7140304,25.1232308 8.795019,25.0390483 8.84121675,24.9149419 C8.84121675,24.9149419 9.05475285,24.9949038 9.17155895,24.6888582 C9.17155895,24.6888582 9.39239545,24.7592384 9.49859315,24.4627745 C9.49859315,24.4627745 9.71623575,24.5342954 9.8256274,24.2366908 C9.8256274,24.2366908 10.0338023,24.313573 10.1538023,24.0106072 C10.1538023,24.0106072 10.3746388,24.0821281 10.4818631,23.7836111 C10.4818631,23.7836111 10.6922053,23.855132 10.8088974,23.5563867 C10.8088974,23.5563867 11.0276806,23.6279076 11.1349049,23.3313297 C11.1349049,23.3313297 11.3473004,23.4050179 11.4629658,23.1062726 C11.4882889,23.1104931 11.5155514,23.1189342 11.5408745,23.1147137 C11.6187832,23.0998848 11.6849429,23.0556262 11.733422,22.9862726 M7.80228135,25.2756262 C7.66140685,25.3640293 7.31737645,25.7248277 7.03140685,25.2704932 C6.77475285,24.8642955 6.9461977,24.5163867 7.14387835,24.3911395 C7.968365,23.8715578 8.5246768,26.6923562 10.7437642,25.2934209 C13.1898479,23.7497327 10.7911026,21.3877175 11.9405703,20.662014 C12.1381369,20.5379076 12.3285171,20.5862726 12.3695818,20.6514057 C12.4128137,20.7188201 12.2855133,20.8028886 12.186616,20.926995 C11.7585171,21.4665388 13.5736882,24.090341 11.1096958,25.6458924 C9.00228135,26.9742194 7.97577945,25.1654361 7.80228135,25.2756262" id="path298" fill="#002D62"></path>
                                    <path d="M13.9230799,19.8943335 C13.4119392,20.2708734 12.8145628,20.6978316 12.2792395,21.0753981 L12.5211787,22.3825083 C13.298327,21.8694285 14.2374524,21.2193524 14.9767301,20.6799228 C15.7171483,21.2193524 16.6562737,21.8694285 17.4323955,22.3825083 L17.6753612,21.0753981 C17.1390114,20.6978316 16.541635,20.2708734 16.031635,19.8943335 C21.8850571,15.445208 26.1906844,10.6958542 26.240076,10.6385918 C26.9142205,9.93752715 26.7532699,9.08999865 26.7459696,9.0611393 C26.7248669,8.87817355 26.5303803,8.78452335 26.3705704,8.95117735 C26.3220912,9.00535985 21.9451711,13.8361586 14.9767301,19.1087441 C8.00840305,13.8361586 3.63136882,9.00535985 3.5830038,8.95117735 C3.42524715,8.78452335 3.22859315,8.87805945 3.20760457,9.0611393 C3.20224334,9.08999865 3.04026616,9.9376412 3.7134981,10.6385918 C3.76391635,10.6959682 8.06828895,15.445208 13.9230799,19.8943335 M3.34847908,9.08167165 C3.37049429,8.9349796 3.4778327,9.0459682 3.4778327,9.0459682 C3.4778327,9.0459682 7.86855515,13.9255882 14.9767301,19.2876034 C22.0860456,13.9255882 26.4757414,9.0459682 26.4757414,9.0459682 C26.4757414,9.0459682 26.5851331,8.9349796 26.6061216,9.08167165 C26.6061216,9.08167165 26.765019,9.8882496 26.135019,10.543915 C26.135019,10.543915 21.7779468,15.3815578 15.7950571,19.898554 C16.3545627,20.3106833 16.9298099,20.7250939 17.5197719,21.1383639 L17.3325856,22.1447898 C16.5280608,21.6139152 15.7403042,21.0637631 14.9768441,20.5052841 C14.2133841,21.0637631 13.4277947,21.6138012 12.6221293,22.1447898 L12.4359696,21.1383639 C13.0260457,20.7250939 13.5991255,20.3106833 14.1596578,19.898554 C8.1777947,15.3815578 3.81969581,10.543915 3.81969581,10.543915 C3.1886692,9.88836365 3.34847908,9.08167165 3.34847908,9.08167165" id="path300" fill="#002D62"></path>
                                    <path d="M16.4890494,15.4741814 C18.9626235,14.5587822 21.6969582,13.225208 21.5390875,12.7987061 C21.4097338,12.4480597 19.4662357,13.3188582 16.0820533,14.570303 C14.5034601,15.1550179 14.1901141,15.3406072 14.2888973,15.6098087 C14.358365,15.7991623 14.6612167,16.1503791 16.4890494,15.4741814 M16.1314449,14.7037631 C18.9658175,13.6547897 21.3488213,12.693535 21.4055133,12.8480977 C21.5222053,13.1625844 18.151711,14.706957 16.4406844,15.3415197 C14.7223574,15.9757403 14.4613688,15.6666148 14.4215589,15.5597327 C14.350038,15.3675274 14.8673384,15.1723562 16.1314449,14.7037631" id="path302" fill="#002D62"></path>
                                    <path d="M22.3731559,4.54266023 C22.469886,4.18824958 20.8755514,3.63399102 19.1350951,3.15547391 C16.7561977,2.50197582 15.891673,2.5591241 15.8938403,2.66908608 C15.9011407,3.00615832 16.8087833,3.16756517 18.8552852,3.72969445 C21.081673,4.34224198 22.2627377,4.94440928 22.3731559,4.54266023 M19.0972244,3.29269825 C20.6284791,3.71338266 22.2889734,4.31338266 22.2365019,4.50535985 C22.1827757,4.69779331 20.9807225,4.16669065 18.8931559,3.59304046 C16.8045628,3.01881992 16.1861977,2.86266023 16.0262738,2.7112914 C15.9748289,2.66235605 17.5659696,2.87155756 19.0972244,3.29269825" id="path304" fill="#002D62"></path>
                                </g>
                            </g>
                        </g>
                    </g>
                </g>
            </g>
        </g>
    </g>
</svg>