<?xml version="1.0" encoding="UTF-8" standalone="no"?>
<svg width="30px" height="30px" viewBox="0 0 30 30" version="1.1" xmlns="http://www.w3.org/2000/svg" xmlns:xlink="http://www.w3.org/1999/xlink">
    <!-- Generator: Sketch 41 (35326) - http://www.bohemiancoding.com/sketch -->
    <title>senators</title>
    <desc>Created with Sketch.</desc>
    <defs></defs>
    <g id="Page-1" stroke="none" stroke-width="1" fill="none" fill-rule="evenodd">
        <g id="senators">
            <g transform="translate(2.000000, 0.000000)" id="Page-1">
                <g>
                    <g id="Artboard-Copy">
                        <g id="senators" transform="translate(0.500000, 0.000000)">
                            <g id="Page-1">
                                <g id="Artboard">
                                    <g id="senators" transform="translate(0.042373, 0.000000)">
                                        <g id="Group">
                                            <path d="M18.1211441,10.9070339 L15.133983,6.81521185 L14.1588559,7.27245765 C14.1588559,7.27245765 13.8001271,7.0698305 12.3859322,6.8698729 L13.0882627,6.1642373 L13.0882627,4.54665254 L12.5876695,4.54665254 C12.9059746,4.12131356 12.9580932,3.46741526 12.9580932,2.91177966 C12.9580932,2.35627119 12.9463983,1.08317796 14.5783475,0.00241525423 L8.15211865,0.00241525423 C4.37618644,1.27411017 4.1740678,6.9457627 4.50927966,10.7820762 L5.4395339,10.4211865 C5.4395339,10.4211865 4.82186441,11.8121187 5.11398305,12.5630084 C4.68279661,13.577161 4.82644068,14.543517 5.24415255,15.2755932 L4.77533899,15.9352119 L4.87944915,18.9125848 C4.87944915,18.9125848 4.82059322,18.9949576 4.7665678,19.0688136 C4.64072034,19.2409322 4.32724576,19.5077543 3.19970339,19.7154661 C1.9520339,19.9454237 1.66779661,20.2024576 1.54182204,20.726822 C1.41533898,21.2530932 0.277881356,21.638644 0.16309322,21.6743644 C0.16309322,21.6743644 0.0444915254,22.0202543 0.0444915254,22.4194068 C0.0444915254,24.0111865 2.04483051,25.0323305 4.37173729,25.9305508 C6.82995765,26.8796187 9.8360593,27.6536441 10.8597458,29.0112712 C12.1169491,29.6427966 13.5596187,29.9973305 15.1374153,29.9973305 C20.6955509,29.9973305 24.8964407,25.3938559 24.8964407,20.1842797 C24.8965678,15.8461017 22.0644915,12.2224577 18.1211441,10.9070339 L18.1211441,10.9070339 L18.1211441,10.9070339 Z" id="Shape" fill="#000000"></path>
                                            <path d="M5.1804661,9.46258475 C5.1804661,9.46258475 4.69868644,2.44805085 8.1129661,1.02457627 L8.60631355,4.17915254 L8.71042375,0.857542375 L12.9233898,0.86326271 C12.4627118,1.15563559 12.3069915,1.51271186 12.2173729,1.91072034 C12.027839,2.75135593 12.1797458,3.84355932 11.8325848,4.4338983 L8.6208051,4.43097457 L5.1804661,9.46258475 L5.1804661,9.46258475 L5.1804661,9.46258475 Z" id="Shape" fill="#E4173E"></path>
                                            <path d="M2.0325,21.6151271 L2.32754238,22.167839 L2.06275423,22.4457203 L6.36381355,24.4161865 C3.44427966,22.5527542 2.18275423,21.8004661 2.18275423,21.0307627 C2.18275423,20.3059322 3.90292373,20.5619492 4.8620339,19.8762712 C5.11665255,21.4069068 2.93504238,21.453178 2.93504238,21.453178 L6.5229661,23.4322882 C8.2648729,25.1018644 10.2786865,25.6399576 10.2786865,25.6399576 C10.7126695,26.1434746 10.7994916,26.5948729 10.7994916,26.5948729 C10.7994916,26.5948729 8.6467373,25.2667373 7.55300845,25.1191525 C7.55300845,25.1191525 8.2363983,25.4534746 9.0373729,25.8831356 C10.3250848,26.5738983 11.9457204,27.6019068 11.7369916,28.5654661 C9.91525425,25.9859746 0.92135593,25.1785169 0.92135593,22.5498305 C0.92135593,21.8407627 1.89927966,21.8407627 2.0325,21.6151271 L2.0325,21.6151271 L2.0325,21.6151271 Z" id="Shape" fill="#E4173E"></path>
                                            <path d="M14.9199153,28.1486441 C15.4262288,26.5923305 16.5307627,25.7220763 17.9117796,24.7084322 C19.1754661,23.7807203 20.3394916,22.9075423 20.3394916,21.1783475 C20.2873729,20.9959322 18.8941526,20.4361017 18.7379238,20.3927542 C18.7379238,20.3927542 19.6233051,21.1262288 19.6233051,21.4300424 C19.6233051,21.7338559 17.6659322,22.8752543 17.6659322,22.8752543 C17.6659322,22.8752543 17.8608051,22.6295339 18.1085593,22.3327118 C18.4506356,21.9226271 18.8767373,21.3983899 18.8767373,21.1390678 C18.8767373,20.7788135 18.2040254,20.6659322 17.9942796,19.9165678 C17.9942796,19.9165678 17.8117373,20.1968644 17.6341525,20.5850848 C17.4466525,20.9944068 17.2637288,21.5188983 17.2637288,21.771356 L17.6051695,24.1526695 L16.6591526,24.0427118 C16.5730932,24.1128813 14.9065678,25.6859746 14.9199153,28.1486441 L14.9199153,28.1486441 L14.9199153,28.1486441 Z" id="Shape" fill="#E4173E"></path>
                                            <polygon id="Shape" fill="#D69F0F" points="16.2798305 23.3744492 16.6269915 22.4716526 16.8237712 23.4554238"></polygon>
                                            <path d="M9.30088985,15.3190678 L14.7985169,13.4209322 L17.5876271,15.0528813 L17.6108898,15.3073729 C17.6108898,15.3073729 17.5060169,15.2162288 17.3251271,15.1172034 C17.0342796,14.9577966 16.5519916,14.7605084 16.0310593,14.7605084 C15.7156779,14.7619068 15.4042373,14.9382203 15.1774576,15.1483474 C14.9068221,15.3988983 14.7448729,15.6807203 14.7448729,15.6807203 C14.7448729,15.6807203 14.3932627,14.7924152 12.8047882,14.7924152 C11.3117797,14.7924152 9.30088985,15.3190678 9.30088985,15.3190678 L9.30088985,15.3190678 L9.30088985,15.3190678 Z" id="Shape" fill="#D69F0F"></path>
                                            <path d="M7.7557627,14.427839 L8.0248729,15.2640254 L15.2960593,12.3415678 L18.1663983,14.8502543 L18.0995339,13.7380932 C18.0643221,13.7522034 18.0241526,13.7622457 17.9811864,13.7622457 C17.6745763,13.7622457 17.0900847,13.3745339 17.0900847,13.3745339 L17.1999153,13.2819916 C17.1999153,13.2819916 17.5993221,13.4208051 17.7612712,13.4208051 C17.8468221,13.4208051 17.9745762,13.385339 18.0762712,13.3519068 L18.0101695,12.2519491 L14.8636017,7.8558051 L14.1617796,8.10851695 C14.1617796,8.10851695 12.5674576,7.46618645 11.1265678,7.46618645 C8.7375,7.46618645 5.9733051,9.7983051 5.9733051,12.2288135 L7.50101695,12.3329238 L11.685,9.19067795 L7.46631355,13.3572458 C7.46631355,13.3572458 7.1364407,12.6280932 6.52881355,12.6280932 C6.26618645,12.6347034 5.63911015,13.063856 5.63911015,14.068983 C5.63911015,14.9427966 6.05427965,15.4173305 6.05427965,15.4173305 L5.5711017,16.088644 C5.775,20.184661 5.7134746,22.1086017 4.3009322,21.6902542 L6.3552966,22.6914407 C6.3552966,22.6914407 6.3148729,20.0525848 6.3148729,19.3118644 C6.3148729,17.9557627 6.42572035,17.8137712 6.5926271,17.8188559 C7.0459322,17.8188559 7.1684746,20.1908899 7.2212288,21.7142797 C7.2517373,22.596483 7.28415255,23.278856 7.28415255,23.278856 C7.28415255,23.278856 8.9305932,25.0873729 11.8587712,25.3418644 C9.3197034,23.5515254 9.6088983,21.3838983 9.7985593,19.9196187 C9.8857627,19.2461441 9.9785593,18.5438135 10.1457203,17.7725848 C7.8136017,17.7494492 7.79618645,16.4532203 7.79618645,16.1175 C7.79618645,15.7817797 7.84614405,15.609661 7.84614405,15.609661 C7.7441949,15.6805932 7.269661,16.051017 6.66495765,15.8716526 C7.7585593,15.5158475 7.7557627,14.427839 7.7557627,14.427839 L7.7557627,14.427839 L7.7557627,14.427839 Z M9.02008475,10.6705932 L7.2927966,11.8207627 L6.33368645,11.7903814 C6.33368645,11.5674152 6.44224575,9.6505932 9.0592373,8.4223729 C8.8417373,8.56792375 8.65334745,8.73864405 8.46038135,8.89538135 C7.98711865,9.27991525 7.27550845,9.9716949 7.27550845,10.3319491 C7.27538135,10.7748305 7.8526271,10.9398305 9.02008475,10.6705932 L9.02008475,10.6705932 L9.02008475,10.6705932 Z M16.9323305,11.4200847 C16.9540678,11.4200847 17.5182203,11.9120339 17.5182203,12.6223729 C17.5182203,12.8133051 17.628178,12.9753813 17.628178,12.9753813 L17.5934746,13.0506356 C17.5934746,13.0506356 17.4603813,12.9753813 17.4141101,12.9753813 C17.367839,12.9753813 17.3041526,13.0333475 17.1536441,13.0333475 C17.0031356,13.0333475 16.7080932,12.8481356 16.3897882,12.4894068 C16.3897882,12.4894068 16.4302118,12.4604238 16.4824577,12.4604238 C16.5344492,12.4604238 16.7833475,12.7093221 16.9512712,12.7093221 C17.1191949,12.7093221 17.0727966,12.6166525 17.3041526,12.6340678 C17.3041526,12.6340678 17.2463135,12.4604238 17.2463135,12.3388983 C17.2463135,11.831822 16.9164407,11.5431356 16.9164407,11.4882204 C16.9164407,11.4301271 16.9323305,11.4200847 16.9323305,11.4200847 L16.9323305,11.4200847 L16.9323305,11.4200847 Z M15.8168644,11.4211017 C15.8337712,11.4211017 16.0888983,11.7035593 16.2378813,11.7035593 C16.3227966,11.7035593 16.3577542,11.6645339 16.4462288,11.6645339 C16.4462288,11.6645339 16.4382204,11.6311017 16.4397458,11.588517 C16.4481356,11.4502119 16.4880509,11.3919916 16.4917373,11.2868644 C16.4964407,11.1550424 16.3475847,10.7825847 16.343517,10.7703813 C16.3268644,10.7209322 16.3497458,10.5888559 16.3695763,10.611356 C16.4448305,10.7016102 16.7398729,11.1727119 16.7398729,11.4908899 C16.7398729,11.6417797 16.7270339,11.7179238 16.7224576,11.8468221 C16.7178813,11.9757203 16.7912288,12.105 16.7912288,12.105 L16.7663135,12.1722458 C16.7663135,12.1722458 16.6632203,12.0291101 16.4895762,12.0291101 C16.301822,12.0291101 16.2270762,11.9899576 16.118517,11.8901695 C16.0099577,11.7903814 15.7669068,11.4658475 15.7676695,11.4475424 C15.7677966,11.4352118 15.7792373,11.4211017 15.8168644,11.4211017 L15.8168644,11.4211017 L15.8168644,11.4211017 Z M14.3195339,9.1472034 C14.3195339,9.1472034 14.1156356,9.3641949 14.1156356,9.9675 C14.1156356,10.8947034 14.6044068,11.4736017 15.1529237,11.4736017 C15.2352966,11.4736017 15.5216949,11.417161 15.5216949,11.417161 C15.5216949,11.417161 15.3742373,11.7948305 14.918517,11.7948305 C14.3195339,11.7948305 13.6772034,10.9788559 13.6772034,10.2800848 C13.6772034,9.46411015 14.3195339,9.1472034 14.3195339,9.1472034 L14.3195339,9.1472034 L14.3195339,9.1472034 Z M12.0770339,11.5155509 C12.0770339,11.4038136 12.0697882,11.3813135 12.0697882,11.2854661 C12.0697882,11.1896186 12.1491101,10.9796187 12.1970339,10.8832627 C12.2590678,10.7588135 12.6303814,10.3665254 12.7266101,10.2987712 C12.7519068,10.2821186 12.7686865,10.4044068 12.7460593,10.4448305 C12.7404661,10.4548729 12.6753813,10.5211017 12.6137288,10.6184746 C12.5377119,10.7383474 12.462839,10.9013135 12.462839,11.0155932 C12.462839,11.1067373 12.5138135,11.1425847 12.5181356,11.2629661 C12.5181356,11.2998305 12.4979237,11.3345339 12.4979237,11.3345339 C12.6157627,11.3345339 12.6668644,11.4242797 12.8133051,11.4242797 C13.1908474,11.4242797 13.436822,11.1957204 13.5077542,11.1957204 C13.5279661,11.1957204 13.5742373,11.2065254 13.5742373,11.2362712 C13.5742373,11.252161 13.4005932,11.386017 13.1691101,11.5183475 C12.9701695,11.6322457 12.7273729,11.7484322 12.5267796,11.7484322 C12.2707627,11.7484322 12.2966949,11.6992373 12.1998305,11.6992373 C12.102839,11.6992373 11.9769915,11.7947034 11.9769915,11.7947034 L11.9082204,11.7827542 C11.9086017,11.7827542 12.0770339,11.6272882 12.0770339,11.5155509 L12.0770339,11.5155509 L12.0770339,11.5155509 Z M10.8748729,12.4023305 C10.8917797,12.3639407 10.9100847,12.1271186 10.9530509,11.9625 C10.9871186,11.8319491 11.0410169,11.7781779 11.0890678,11.681822 C11.2086865,11.4415678 11.6731779,11.1198305 11.7791949,11.0452118 C11.8044915,11.0285593 11.8118644,11.0872881 11.7893644,11.1277119 C11.7738559,11.1555508 11.5333475,11.3467373 11.3987288,11.6124152 C11.3375847,11.7331779 11.3162288,11.8730085 11.3162288,12.0130932 C11.3162288,12.1201271 11.2930932,12.2055508 11.2930932,12.2055508 C11.4655932,12.2055508 11.5914407,12.3617797 11.7068644,12.3617797 C12.0844068,12.3617797 12.4953813,12.1310593 12.5661865,12.1310593 C12.5863983,12.1310593 12.6709322,12.1480932 12.6709322,12.1777118 C12.6709322,12.2073305 11.9064407,12.6756356 11.4724577,12.6756356 C11.2164407,12.6756356 11.0514407,12.5772457 10.9545763,12.5772457 C10.8577118,12.5772457 10.7954237,12.6381356 10.7954237,12.6381356 L10.7520763,12.5801695 C10.7519491,12.5802966 10.8446186,12.4712288 10.8748729,12.4023305 L10.8748729,12.4023305 L10.8748729,12.4023305 Z M9.545339,12.9036865 C9.5865254,12.8407627 9.6858051,12.4558475 9.82881355,12.2591949 C9.88677965,12.1796187 10.2235169,11.9419068 10.2455084,11.9263983 C10.2700423,11.908983 10.3149152,11.9538559 10.2860593,11.9899576 C10.2570762,12.0261865 10.1659322,12.0869492 10.0936017,12.2388559 C10.0212712,12.3907627 10.0140254,12.5628813 9.98364405,12.6338135 C9.9532627,12.7047458 9.9055932,12.7625848 9.9055932,12.7625848 C10.2296186,12.7625848 10.1351695,13.0793644 10.7736864,13.0793644 C10.8952118,13.0793644 11.507161,12.9838983 11.507161,12.9838983 L11.6980932,13.1097458 C11.6980932,13.1097458 11.0687288,13.4005932 10.482839,13.4005932 C9.95338985,13.4005932 9.77974575,13.127161 9.48457625,13.131483 C9.44555085,13.131483 9.2762288,13.1661864 9.2762288,13.1661864 L9.2501695,13.1358051 C9.2501695,13.1358051 9.50415255,12.9666101 9.545339,12.9036865 L9.545339,12.9036865 L9.545339,12.9036865 Z M7.97567795,13.6147882 C7.97567795,13.6147882 8.1225,13.5760169 8.1579661,13.395 C8.24771185,12.9363559 8.50805085,12.9233898 8.65131355,12.7887712 C8.68245765,12.7619491 8.70368645,12.8026271 8.68601695,12.8213135 C8.6448305,12.864661 8.61661015,12.949322 8.61661015,12.9797034 C8.61661015,13.0100848 8.64050845,13.1033898 8.64050845,13.1490254 C8.64050845,13.2748729 8.4994068,13.3877543 8.4994068,13.3877543 C8.83245765,13.3877543 8.7564407,13.626483 9.2459746,13.626483 C9.36317795,13.626483 9.4022034,13.6090678 9.45864405,13.6090678 C9.51508475,13.6090678 9.6540254,13.6394492 9.80148305,13.7891949 C9.45864405,13.8325424 9.33927965,13.9475848 8.9638983,13.9475848 C8.3433051,13.9475848 8.32588985,13.6763135 8.04381355,13.6763135 C8.0155932,13.6763135 8.0107627,13.6942373 7.9835593,13.6942373 C7.95635595,13.6942373 7.93525425,13.6844492 7.93525425,13.6545762 C7.9351271,13.6247034 7.97567795,13.6147882 7.97567795,13.6147882 L7.97567795,13.6147882 L7.97567795,13.6147882 Z M6.6388983,15.5909746 C6.17300845,15.5909746 5.95601695,14.8791102 5.95601695,14.8791102 C5.95601695,14.8791102 6.16728815,15.2157203 6.44974575,15.2157203 C6.6526271,15.2157203 7.2061017,14.7536441 7.2061017,14.0225848 C7.2061017,13.5682627 7.1018644,13.3744068 7.1018644,13.3744068 C7.1018644,13.3744068 7.50699155,13.8667373 7.50699155,14.3032627 C7.5068644,15.1197457 6.9204661,15.5909746 6.6388983,15.5909746 L6.6388983,15.5909746 L6.6388983,15.5909746 Z" id="Shape" fill="#D69F0F"></path>
                                            <path d="M6.2569068,8.99961865 L6.3987712,9.6448729 C6.6736017,9.20211865 8.35182205,6.9047034 11.5722458,6.92072035 L12.0336864,6.43817795 L9.6190678,6.43754235 L7.56038135,8.08817795 L9.3797034,5.9536017 L12.3273305,5.95322035 L12.3273305,5.102161 L9.117839,5.102161 L6.2569068,8.99961865 L6.2569068,8.99961865 L6.2569068,8.99961865 Z" id="Shape" fill="#D69F0F"></path>
                                            <path d="M19.0681779,12.2197881 L19.063856,15.3652118 C20.4830084,16.5333051 21.3549153,18.2478814 21.3549153,20.1952118 C21.3549153,22.8912712 19.718517,25.127161 17.2294068,26.0919915 C16.6977966,26.9741949 16.245,28.1994916 16.6442797,29.0032627 C21.0019068,28.0969068 24.0110593,24.5780084 24.0110593,20.1973729 C24.0111865,16.7017373 22.054322,13.7386017 19.0681779,12.2197881 L19.0681779,12.2197881 L19.0681779,12.2197881 Z M22.8841525,17.8394492 C22.8841525,17.8394492 22.9299153,17.9586864 22.9484746,18.1390678 C22.9691949,18.3401695 22.9953813,18.5729238 22.8633051,18.8159746 C22.8329237,18.8719068 22.7688559,18.9240254 22.7356779,18.9849153 C22.6347458,19.1705084 22.6642373,19.309322 22.6642373,19.309322 C22.6642373,19.309322 22.6094491,19.1420339 22.531017,19.0862288 C22.4527119,19.0305509 22.4145762,19.0376695 22.2132204,18.8689831 C21.9583475,18.6554238 21.8558899,18.045 21.8558899,18.045 C22.0651271,18.0598729 22.221483,18.4264831 22.4703814,18.3913983 C22.6736441,18.3626695 22.6871186,17.9064407 22.8841525,17.8394492 L22.8841525,17.8394492 L22.8841525,17.8394492 Z M22.3883898,16.5922882 C22.3883898,16.5922882 22.452839,16.7027543 22.5001271,16.8776695 C22.5528813,17.0729238 22.6161865,17.2984322 22.5247881,17.5595339 C22.5038136,17.619661 22.4488983,17.6813135 22.426017,17.7469068 C22.3562288,17.9462288 22.4077118,18.0784322 22.4077118,18.0784322 C22.4077118,18.0784322 22.3267373,17.9220762 22.2404238,17.8796187 C22.1541102,17.8372881 22.1176271,17.8505084 21.8918644,17.7163983 C21.6059746,17.5465678 21.4067797,16.9604238 21.4067797,16.9604238 C21.6157627,16.9416101 21.8290678,17.2783474 22.0689407,17.2036017 C22.2647034,17.1425848 22.2047034,16.6901695 22.3883898,16.5922882 L22.3883898,16.5922882 L22.3883898,16.5922882 Z M19.1415254,13.7449576 C19.1415254,13.7449576 20.3712712,14.1905084 20.3712712,14.5377966 C20.3712712,14.6708899 20.2901695,14.7402966 20.1744915,14.7402966 C19.7809322,14.7402966 19.1415254,13.7449576 19.1415254,13.7449576 L19.1415254,13.7449576 L19.1415254,13.7449576 Z M20.0030084,15.0868221 C20.1939407,15 20.5065254,15.2475 20.7082627,15.0976271 C20.8731356,14.9754661 20.6670763,14.5680509 20.8080509,14.4151271 C20.8080509,14.4151271 20.9054238,14.4981356 21.0077543,14.6476271 C21.1219068,14.8145339 21.256144,15.006483 21.256144,15.2830932 C21.256144,15.3467797 21.2247458,15.4231779 21.2247458,15.4924577 C21.2247458,15.7037288 21.3170339,15.8115254 21.3170339,15.8115254 C21.3170339,15.8115254 21.1888983,15.6907627 21.0934322,15.6791949 C20.9979661,15.6675 20.9679661,15.692161 20.7104238,15.6400423 C20.3844915,15.574322 20.0030084,15.0868221 20.0030084,15.0868221 L20.0030084,15.0868221 L20.0030084,15.0868221 Z M20.7903814,15.9577119 C20.993517,15.905339 21.2585593,16.203178 21.483178,16.0905508 C21.6664831,15.998644 21.5341526,15.5619916 21.6995339,15.4357627 C21.6995339,15.4357627 21.7811441,15.5342797 21.8558899,15.6992796 C21.9395339,15.8833475 22.0385593,16.0956356 21.9906356,16.3681779 C21.9795763,16.4308475 21.9354661,16.5006356 21.9235169,16.5690254 C21.8869068,16.7771186 21.9589831,16.8991526 21.9589831,16.8991526 C21.9589831,16.8991526 21.8538559,16.758178 21.761822,16.7300847 C21.669661,16.7022457 21.6359746,16.7213136 21.3912712,16.625339 C21.0817373,16.5039407 20.7903814,15.9577119 20.7903814,15.9577119 L20.7903814,15.9577119 L20.7903814,15.9577119 Z M18.1131356,27.3535169 C17.9908475,27.6785593 16.6830509,27.6629238 16.6830509,27.6629238 C16.6830509,27.6629238 17.6318644,26.956144 18.0001271,27.0947034 C18.1085593,27.1353814 18.1599153,27.2288136 18.1131356,27.3535169 L18.1131356,27.3535169 L18.1131356,27.3535169 Z M19.1419068,26.8033475 C19.1175,26.8684322 19.1200423,26.9508051 19.0975424,27.0104238 C19.0001695,27.2694916 18.8070763,27.401822 18.6413135,27.5177542 C18.4929661,27.6217373 18.3727119,27.6652118 18.3727119,27.6652118 C18.2945339,27.4723729 18.6306356,27.1637288 18.5194068,26.9912288 C18.3832627,26.7800848 18.0035593,26.9016101 17.855339,26.7531356 C17.855339,26.7531356 18.3840254,26.4311441 18.7122458,26.4841526 C18.9716949,26.5261017 18.9910169,26.559661 19.0845763,26.5824153 C19.1780085,26.6051695 19.3404661,26.537161 19.3404661,26.537161 C19.3404661,26.537161 19.2161441,26.605678 19.1419068,26.8033475 L19.1419068,26.8033475 L19.1419068,26.8033475 Z M20.3319916,25.9305508 C20.3194068,25.9988136 20.3365678,26.0795339 20.3251271,26.1422034 C20.2751695,26.4143644 20.108644,26.578856 19.9661441,26.7223729 C19.8385169,26.851017 19.7277966,26.9152118 19.7277966,26.9152118 C19.6166949,26.7391526 19.8926695,26.3758474 19.7525848,26.2258474 C19.5811017,26.042161 19.2292373,26.2291525 19.0569915,26.1094068 C19.0569915,26.1094068 19.5200847,25.6986865 19.8526271,25.6925848 C20.1152542,25.6878814 20.1404238,25.7173729 20.2363983,25.7232203 C20.3325,25.7290678 20.4800847,25.6333474 20.4800847,25.6333474 C20.4800847,25.6333474 20.37,25.722839 20.3319916,25.9305508 L20.3319916,25.9305508 L20.3319916,25.9305508 Z M21.2707627,25.1279238 C21.2726695,25.404661 21.1397034,25.5973729 21.0265678,25.7650424 C20.9251271,25.9154237 20.8283899,25.9989407 20.8283899,25.9989407 C20.6862712,25.8469068 20.8895339,25.4383474 20.7240254,25.3172034 C20.5212712,25.1687288 20.2104661,25.4182627 20.0188983,25.3327118 C20.0188983,25.3327118 20.3972034,24.8427966 20.7226271,24.774661 C20.9797882,24.7207627 21.0099152,24.7452966 21.1053813,24.7330932 C21.2008475,24.7207627 21.3280932,24.5991102 21.3280932,24.5991102 C21.3280932,24.5991102 21.2365678,24.7076695 21.2379661,24.9188135 C21.2383474,24.9880932 21.2703814,25.0642373 21.2707627,25.1279238 L21.2707627,25.1279238 L21.2707627,25.1279238 Z M21.8886865,24.6714407 C21.812161,24.8358051 21.7299153,24.9336864 21.7299153,24.9336864 C21.565678,24.8059322 21.7019492,24.3702966 21.5194068,24.2768644 C21.295678,24.1623305 21.0280932,24.4576271 20.8254661,24.4033474 C20.8254661,24.4033474 21.1217797,23.8599153 21.4324576,23.7413136 C21.6779238,23.6477542 21.711483,23.6669492 21.8038983,23.6398729 C21.8961864,23.6127966 22.0025848,23.4725847 22.0025848,23.4725847 C22.0025848,23.4725847 21.9293644,23.5941101 21.9639407,23.8024577 C21.9753813,23.8709746 22.018983,23.941144 22.0294068,24.0039407 C22.0749153,24.2767373 21.9739831,24.4881356 21.8886865,24.6714407 L21.8886865,24.6714407 L21.8886865,24.6714407 Z M22.5531356,23.4176695 C22.5097881,23.5937288 22.4478813,23.7055932 22.4478813,23.7055932 C22.2620339,23.6119068 22.3121186,23.1582204 22.1149577,23.1015254 C21.8734322,23.0321187 21.6675,23.3734322 21.4582627,23.3590678 C21.4582627,23.3590678 21.6444916,22.7687288 21.9266949,22.5926695 C22.1495339,22.4536017 22.1862712,22.4660593 22.2716949,22.4216949 C22.3569916,22.3773305 22.4344068,22.219322 22.4344068,22.219322 C22.4344068,22.219322 22.3858474,22.3526695 22.4600848,22.550339 C22.4843644,22.6154238 22.5406779,22.675678 22.5630508,22.7354237 C22.6600424,22.9946186 22.6015678,23.2213983 22.5531356,23.4176695 L22.5531356,23.4176695 L22.5531356,23.4176695 Z M22.9900423,22.1547458 C22.9749152,22.3353813 22.9313135,22.4555084 22.9313135,22.4555084 C22.7330084,22.3922034 22.711017,21.9363559 22.5073729,21.9115678 C22.257839,21.8810593 22.1083475,22.2505932 21.8994916,22.2694068 C21.8994916,22.2694068 21.9903813,21.6570762 22.2411865,21.4386864 C22.4394915,21.2663135 22.4776271,21.2727966 22.5549153,21.2155932 C22.6322034,21.1582627 22.6839407,20.9900848 22.6839407,20.9900848 C22.6839407,20.9900848 22.6569916,21.1292797 22.7613559,21.3129661 C22.795678,21.3733475 22.8606356,21.4241949 22.892161,21.4794915 C23.0288135,21.72 23.0068221,21.9531356 22.9900423,22.1547458 L22.9900423,22.1547458 L22.9900423,22.1547458 Z M22.6830509,20.6748305 C22.4289407,20.6748305 22.2230084,20.4645763 22.2230084,20.205 C22.2230084,19.9455509 22.4289407,19.7352966 22.6830509,19.7352966 C22.937161,19.7352966 23.1430932,19.9455509 23.1430932,20.205 C23.1430932,20.4644492 22.937161,20.6748305 22.6830509,20.6748305 L22.6830509,20.6748305 L22.6830509,20.6748305 Z" id="Shape" fill="#D69F0F"></path>
                                            <path d="M16.8629238,16.2434746 L17.3663136,16.4691101 L17.2925847,15.6662288 C17.2925847,15.6662288 16.3544492,14.7733475 15.6043221,15.4145339 C15.3655932,15.6184322 14.6321187,16.5415678 14.6321187,16.5415678 C14.282161,15.8312288 13.4877966,15.383517 12.3969915,15.3579661 C11.875678,15.3458899 11.2555932,15.4347458 10.5219915,15.6083899 C9.61588985,15.8225848 8.9392373,16.088644 8.9392373,16.088644 C8.9392373,16.088644 8.79457625,16.253517 8.79457625,16.5110593 C8.79457625,17.315339 10.1342796,17.3211864 10.3483475,17.3211864 C10.5624153,17.3211864 10.8952119,17.3066949 10.8952119,17.3066949 L10.565339,18.7824152 L11.8182204,18.9574577 C11.8182204,18.9574577 10.8402966,21.0132204 10.8402966,22.6510169 C10.8402966,22.7675848 10.9099577,23.0927542 11.0688559,23.2527966 C11.2018221,23.3960593 11.7606356,23.9499153 12.2147034,24.3551695 C12.3477966,24.4740254 12.4854661,24.5932627 12.6010169,24.6828814 C12.688983,24.7511441 12.7644916,24.7997034 12.8136865,24.8326271 C12.9172881,24.9020339 13.0179661,24.9367373 13.097161,24.9367373 C13.7811864,24.9367373 14.2342373,24.8351695 14.5438983,24.7458051 C14.697839,24.7013136 14.9982204,24.5697458 15.0727118,24.489661 C15.158644,24.3973729 15.1863559,24.1648729 15.1863559,24.1266102 C15.1863559,23.8487288 15.1111017,23.3800424 14.0520763,23.3800424 C12.9930508,23.3800424 12.5575424,23.7736017 12.5575424,23.7736017 L12.7919492,23.0097458 C12.7919492,23.0097458 12.8500424,22.9138983 13.0610593,22.8404237 C13.2397882,22.7782627 13.5279661,22.7363136 13.9899152,22.7363136 C14.3891949,22.7363136 15.0966102,22.8186865 15.0966102,22.8186865 L15.0446187,22.1373305 L14.6191526,22.2155085 L13.6383051,22.0636017 L11.5173305,22.1244916 L11.4189407,22.0405932 L14.0028813,21.5602119 L14.571483,21.6860593 L15.0402966,21.573178 L14.7886017,21.3301271 L14.5063983,21.4516525 L14.4544068,20.8744068 L12.9005085,20.6183899 L14.1202119,20.1799576 L14.8927118,20.4838983 L15.4786017,20.2016949 L14.836144,17.6931356 L15.0835169,16.9292797 L16.8629238,16.2434746 L16.8629238,16.2434746 L16.8629238,16.2434746 Z M13.8955932,17.8421186 L12.8684746,17.703178 L13.4124153,17.2719915 L12.716822,17.0755932 C12.716822,17.0755932 12.5194068,17.4109322 12.1656356,17.4109322 C11.694661,17.4109322 11.5547034,16.89 11.5547034,16.89 L9.08084745,16.5688983 L11.9562712,16.0979237 L14.3005932,17.0463559 L13.8955932,17.8421186 L13.8955932,17.8421186 L13.8955932,17.8421186 Z" id="Shape" fill="#FFFFFF"></path>
                                            <path d="M16.2596187,21.6687712 L16.1163559,21.3344492 L15.6823729,20.8397034 L16.2509746,20.3665678 L15.9102966,19.6483474 L15.5216949,18.3961017 L15.7561017,17.5497457 C15.7561017,17.5497457 15.9080085,17.7927966 16.1467373,17.7927966 C16.5069915,17.7927966 16.6198729,17.2676695 16.6198729,17.2676695 L17.1016526,17.170678 L16.9742796,17.6220762 C16.9742796,17.6220762 17.3982203,18.4423729 17.3982203,18.7447882 L16.884661,19.5982627 L16.2596187,21.6687712 L16.2596187,21.6687712 L16.2596187,21.6687712 Z" id="Shape" fill="#FFFFFF"></path>
                                            <polygon id="Shape" fill="#FFFFFF" points="13.7173729 27.2187712 14.0808051 25.9655085 12.8698729 25.7963136 12.3447457 26.265"></polygon>
                                        </g>
                                    </g>
                                </g>
                            </g>
                        </g>
                    </g>
                </g>
            </g>
        </g>
    </g>
</svg>