<?xml version="1.0" encoding="UTF-8"?>
<svg width="30px" height="30px" viewBox="0 0 30 30" version="1.1" xmlns="http://www.w3.org/2000/svg" xmlns:xlink="http://www.w3.org/1999/xlink">
    <!-- Generator: Sketch 50.2 (55047) - http://www.bohemiancoding.com/sketch -->
    <title>senators</title>
    <desc>Created with Sketch.</desc>
    <defs></defs>
    <g id="senators" stroke="none" stroke-width="1" fill="none" fill-rule="evenodd">
        <g id="Ottawa_Senators_2020-2021_logo" transform="translate(-0.500000, 3.000000)" fill-rule="nonzero">
            <path d="M27.1761052,6.28351667 C25.410414,4.50824744 23.013809,3.50405503 20.51,3.49037708 C20.7142275,2.58707534 20.9960791,1.70309705 21.3524135,0.84829375 L21.359224,0.830805208 C21.4332923,0.648339825 21.4131358,0.441147514 21.3052873,0.276379711 C21.1974388,0.111611908 21.0156214,0.0102345232 20.8187625,0.00510416667 L20.8011187,0.00479166667 C20.6890625,0.00170208333 20.574225,0 20.4592312,0 C18.810031,0.00440430875 17.1743719,0.297906444 15.6265312,0.867178125 C13.5080365,1.66424375 11.8134573,2.94976562 10.5896896,4.68845417 C9.87098405,5.70783876 9.34337598,6.84926896 9.03254583,8.0571875 C8.98054375,8.26349583 8.93318437,8.47228125 8.890775,8.68044687 C8.82112778,8.68168507 8.75122326,8.6823559 8.68106146,8.68245937 C7.6768533,8.66781094 6.67526359,8.5758635 5.68517292,8.40743229 C4.663225,8.24492292 2.9610625,7.67567917 2.59549479,7.53731354 C2.33997396,7.4407375 2.07376458,7.33270729 1.80260729,7.21508229 L1.49368542,7.07872812 L0,6.41553542 L0.897667708,8.16412917 C1.16431792,8.7526881 1.46566942,9.32489998 1.80013229,9.87774583 C2.36772845,10.7844206 3.0906776,11.5839659 3.93580729,12.2396948 L4.75252917,13.7521094 C5.15896313,14.5354268 5.65857231,15.2667558 6.24049062,15.9301906 C6.49782685,16.2092084 6.77463275,16.469619 7.06882396,16.7094615 C7.37942561,16.9634702 7.71324045,17.1876877 8.06585417,17.379149 L8.49116667,18.3017344 C8.80409416,18.8678021 9.1934919,19.3880753 9.64838437,19.8478896 C10.1205404,20.2887258 10.6595862,20.651938 11.2454583,20.9240073 L11.2959135,20.9452094 C12.0736974,21.278094 12.913016,21.4429627 13.7589271,21.4290229 C14.0031552,21.4290229 14.2599177,21.4157125 14.522099,21.3898646 L14.555374,21.3864594 C14.7531698,21.6379615 14.8562469,21.8258531 14.8704865,21.9600375 C14.8810073,22.0566125 14.8443302,22.1460698 14.7729865,22.3073417 C14.7049812,22.4107346 14.6231778,22.5043586 14.5298427,22.5856198 L14.5255094,22.5899531 C14.4597312,22.6549531 14.3849781,22.728626 14.3120812,22.8103448 L14.2908781,22.8341812 C14.1278402,23.015519 14.0912196,23.2776797 14.198325,23.4967531 C14.2995482,23.7027897 14.5087619,23.8336906 14.7383187,23.8346167 C14.7507,23.8346167 14.7632375,23.8343042 14.7762354,23.8336885 L14.8078094,23.8315208 C15.6367879,23.7509139 16.4011632,23.3486395 16.9369792,22.7109844 C17.1006024,22.5102572 17.2430267,22.2931456 17.3619792,22.0631146 C21.5610029,23.4888179 26.1887739,21.8333648 28.530769,18.0677986 C30.8727641,14.3022324 30.3114612,9.4194332 27.1761052,6.28351667" id="Shape" fill="#FFFFFF"></path>
            <path d="M26.9396167,6.5203125 C25.2174704,4.78873835 22.8741417,3.8181243 20.4319927,3.82483437 C20.3239635,3.82483437 20.2126823,3.82731042 20.1006292,3.83117917 C20.3087166,2.76583425 20.624255,1.72432526 21.0424062,0.722621875 L21.0492177,0.7052875 C21.081995,0.624546717 21.0730822,0.532863759 21.0253675,0.459947877 C20.9776527,0.387031994 20.8972061,0.342159428 20.8100958,0.339870833 L20.7918333,0.339558333 C20.6825625,0.3364625 20.5708219,0.334760417 20.4592292,0.334760417 C18.8502924,0.339058303 17.2545604,0.625329528 15.7444635,1.18058021 C13.6897344,1.95365729 12.0474667,3.19878437 10.8633177,4.88144583 C10.1680071,5.86712392 9.65754312,6.97091659 9.35678854,8.1390625 C9.28187917,8.43730521 9.21997188,8.726725 9.16843333,9.00639583 L9.13639687,9.00747708 C8.98797187,9.01397812 8.83474896,9.01738333 8.68121771,9.01738333 C7.65938471,9.00262894 6.64020376,8.90923216 5.63270833,8.73802083 C4.5856875,8.57163958 2.84993958,7.99125 2.47709792,7.85025521 C2.18303542,7.738975 1.87643438,7.61345729 1.56441771,7.47602083 L1.42280313,7.41333958 L0.745063542,7.11231146 L1.13756354,7.92299792 C1.41352051,8.53424845 1.72899082,9.1268792 2.08197187,9.69712812 C2.9958875,11.1242646 4.12895833,12.1511656 5.54541667,12.8363333 C6.38225938,13.2410562 7.35220417,13.4193542 7.85567188,13.4893083 C8.29429473,13.5466645 8.73564625,13.5807618 9.17787396,13.5914573 L9.17818646,13.5914573 L9.23653542,13.5908385 C9.26284583,13.6929865 9.29152986,13.7965795 9.3225875,13.9016177 C9.30463333,13.9016177 9.28652604,13.901774 9.26872708,13.901774 C8.68663552,13.9013764 8.10548025,13.8551117 7.53065729,13.7634094 C7.01762292,13.687138 6.51103205,13.5724928 6.01514792,13.4204385 C5.80765659,13.3599008 5.60362339,13.2880853 5.40395833,13.2053125 L4.66199063,12.8802948 L5.04659479,13.5930125 C5.44047047,14.3524761 5.92452902,15.0616496 6.48827917,15.7051625 C6.73471649,15.9720535 6.99966961,16.221232 7.28116667,16.4508437 C7.58221989,16.6968662 7.90613586,16.9135007 8.24848125,17.0977823 C9.1329603,17.5952316 10.1326103,17.851575 11.1473271,17.8411427 C11.1609469,17.8411427 11.1744104,17.8409875 11.1883417,17.8408302 L11.3663271,17.8391281 C11.4454156,17.9406583 11.5258958,18.0415677 11.6077688,18.1409292 C11.5102688,18.147275 11.4183302,18.1500615 11.3188104,18.1500615 C11.1815292,18.1500615 11.0247479,18.1444906 10.8257125,18.1327271 C10.290826,18.1011552 9.41018438,17.9081552 9.16812292,17.7926969 L8.47119583,17.4591667 L8.794975,18.16105 C9.09150013,18.6907099 9.45787022,19.1781117 9.88424583,19.6101656 C10.3259876,20.0206428 10.8289876,20.3597873 11.3751479,20.6153969 L11.4269958,20.6370635 C12.1635596,20.9519238 12.9583036,21.1077174 13.7592292,21.094251 L13.7593833,21.094251 C13.9926229,21.094251 14.2380885,21.0815594 14.489125,21.0564865 L14.6895521,21.0363656 C14.7322337,21.0775616 14.7723439,21.121341 14.8096562,21.1674562 C15.3428396,21.8417896 15.2380594,22.0838521 15.077099,22.4475604 C14.9947263,22.5893545 14.8892729,22.7164114 14.7650823,22.8234979 L14.7612125,22.8273667 C14.6955875,22.8922167 14.6278,22.959076 14.5617135,23.0329021 L14.5405094,23.056426 C14.4707241,23.1345004 14.4533213,23.2462892 14.4960709,23.3418825 C14.5388205,23.4374758 14.6337437,23.4990322 14.7384604,23.4990687 C14.7440333,23.4990687 14.7496062,23.4990687 14.7553354,23.4987562 L14.7869083,23.4965885 C15.5231921,23.4243486 16.201813,23.0663392 16.6771167,22.499401 C16.8882144,22.2407839 17.060193,21.9525708 17.187549,21.6439844 C21.2445663,23.1709426 25.817166,21.6604638 28.1663344,18.0173335 C30.5155029,14.3742032 30.0045822,9.58576146 26.9396167,6.5203125" id="Shape" fill="#000000"></path>
            <path d="M29.3695115,13.0277844 C29.3662022,15.9617292 27.9247244,18.7076408 25.5117176,20.3766049 C23.0987108,22.0455689 20.0207998,22.4255072 17.274375,21.393425 C17.3173958,21.2658938 17.3520698,21.1426958 17.3817854,21.026001 C17.4300801,20.8218017 17.4631883,20.6143067 17.4808385,20.4052177 C17.6400571,20.3535295 17.7957268,20.2914893 17.9468521,20.2194938 C18.2418437,20.086701 18.4351521,19.9949219 18.4661062,19.9802229 C21.6981982,20.8938076 25.1335911,19.4594502 26.7564528,16.5188082 C28.3793144,13.5781661 27.7615382,9.90697319 25.265625,7.659425 C25.2648926,7.56214694 25.279733,7.4653785 25.3095833,7.37279062 C25.3207292,7.33626458 25.332026,7.29664479 25.3430146,7.25764062 C25.3541604,7.21833021 25.3646812,7.180875 25.3753615,7.14636146 C25.920926,7.69192604 26.2385146,7.59101562 26.2496583,7.58575312 C26.2702725,7.57356219 26.2938096,7.56719655 26.3177583,7.56733542 C26.4118089,7.58464962 26.4968695,7.63424069 26.5582708,7.70755625 L26.559974,7.70956875 L26.5619865,7.70740208 L26.559974,7.70925937 L26.5691062,7.69981875 L26.5783917,7.69022396 L26.5783917,7.69006875 C26.5626052,7.67211562 26.4332167,7.51719062 26.4935771,7.39569375 C26.4993062,7.38207396 26.6280729,7.05752083 26.0514,6.44525 L26.0371615,6.43008229 L26.0291135,6.44958333 C25.9950122,6.56803091 25.9940481,6.6935624 26.026326,6.81251979 L26.0283385,6.82753229 C26.0366462,6.90286149 26.0166795,6.97859141 25.9723115,7.04003229 C25.9274433,7.086729 25.8641968,7.11115502 25.7995885,7.10673854 L25.7373719,7.10240521 C25.6482628,7.07283392 25.5551411,7.05712198 25.4612625,7.05581875 L25.405701,7.05829479 C25.4159146,7.03213854 25.4276802,7.00520833 25.4411437,6.97626667 C25.4665151,6.92555203 25.4865369,6.8723335 25.5008854,6.81747188 L25.537101,6.81174271 C25.6242912,6.82345087 25.7060791,6.86065699 25.7721958,6.91868958 L25.7742083,6.92054688 L25.7759115,6.91807083 L25.7740552,6.9202375 L25.7821031,6.90924896 L25.7898427,6.89826042 C25.7725083,6.88324792 25.6219156,6.74720521 25.6654073,6.61859063 C25.6691219,6.60435208 25.7517687,6.26494479 25.0961625,5.73810208 L25.0796,5.72479271 L25.0746479,5.74522292 C25.0572565,5.86729612 25.0736356,5.9918011 25.1220073,6.10522292 L25.1257219,6.11977188 C25.1459297,6.19723732 25.1339268,6.27958348 25.0924469,6.34805729 C25.0376421,6.40878891 24.9573681,6.44006078 24.8759229,6.43240729 C24.8193041,6.42238932 24.761935,6.41721158 24.7044375,6.41693021 C24.6229192,6.41349935 24.5416206,6.42770035 24.4660927,6.45856354 L24.4475208,6.46784896 L24.4640833,6.48085 C24.5770611,6.57190172 24.6978942,6.6527506 24.8251615,6.72244583 L24.7904927,6.73544583 C24.7596927,6.74720833 24.7279646,6.75943542 24.6939177,6.77150729 C24.6104958,6.80153333 24.5283125,6.83620208 24.4738344,6.85988125 C24.4210783,6.88346822 24.369575,6.90976294 24.3195302,6.93866042 C23.1590211,6.19640158 21.809901,5.80272009 20.4323208,5.80434896 C20.2732167,5.80434896 20.1125667,5.80976563 19.9528417,5.82013438 C19.9275682,5.24418635 19.9615379,4.6671656 20.0542156,4.09816146 C20.1801979,4.09274479 20.3066458,4.08995833 20.4321646,4.08995833 C22.802598,4.08989865 25.0759549,5.03155596 26.7520596,6.70775037 C28.4281643,8.38394478 29.3697,10.657352 29.3695135,13.0277854" id="Shape" fill="#B79257"></path>
            <path d="M18.4695063,15.5672542 C18.8893969,16.0145406 19.2597635,16.409049 19.4019969,16.7232323 C19.4095813,16.7399479 19.4165458,16.7563573 19.4227365,16.7724479 C19.4298552,16.791176 19.4360469,16.8097479 19.4413094,16.8278562 C19.4453333,16.8419406 19.4493583,16.8557135 19.4522979,16.8694896 C19.4642156,16.9222667 19.4733469,16.9731844 19.4804656,17.0220937 C19.4875844,17.0710031 19.4925385,17.11805 19.4956344,17.1630885 C19.4985753,17.2082823 19.5000201,17.2516698 19.4999688,17.293251 C19.4998125,17.3368969 19.4979563,17.3785281 19.4950156,17.4183052 C19.4928479,17.4504927 19.4894438,17.4808333 19.4858844,17.5105469 C19.484801,17.5198323 19.4834083,17.5288094 19.482325,17.5377854 C19.4683958,17.6369948 19.4488938,17.7241281 19.4310958,17.8008948 C19.5713167,17.6860542 19.767101,17.5110094 19.9204781,17.3712521 C19.9344073,17.3585615 19.9477167,17.3463354 19.9611833,17.3341062 C20.0138042,17.2859719 20.0594615,17.2438771 20.0936667,17.2124583 C20.1122385,17.195124 20.1311219,17.1779427 20.1503125,17.1606083 C20.1698146,17.143275 20.1893146,17.1256312 20.2094354,17.1079875 C20.2495208,17.0725448 20.2911542,17.0364823 20.3337146,16.9993417 C20.4900487,16.8681075 20.6396444,16.7290493 20.7819281,16.5827 C20.8508453,16.511452 20.9106327,16.4319084 20.9599135,16.345901 L20.9719854,16.3236094 C21.0199647,16.252142 21.0457567,16.1680908 21.0461219,16.0820125 C21.0455162,16.0561558 21.0432934,16.0303624 21.0394667,16.0047833 C21.0324975,15.9550015 21.0191823,15.906317 20.9998458,15.8599177 C20.9616746,15.7768251 20.9131002,15.6989193 20.8552896,15.6280719 C20.7867271,15.5379958 20.7190906,15.4534885 20.6526948,15.373474 C20.6027038,15.3134226 20.5535372,15.255642 20.5051948,15.2001323 C20.4747042,15.1651542 20.4442156,15.1312583 20.4145,15.0978302 C20.3798313,15.0594469 20.3456785,15.0219406 20.3120417,14.9853115 C20.2909927,14.9624062 20.2702531,14.9401167 20.2496688,14.9181396 C20.2331063,14.9003406 20.2165438,14.8826969 20.2002938,14.8650531 C20.1804823,14.8440042 20.1609823,14.8232646 20.1414802,14.8026812 L20.1314198,14.7916927 C20.118575,14.7779167 20.1055719,14.7646094 20.0930365,14.7509875 C20.0791083,14.7362844 20.0654885,14.7215812 20.0518667,14.7073417 C19.7800906,14.4185406 19.5895688,14.2060417 19.5084688,13.9704802 C19.4941103,13.9310128 19.4834877,13.8902849 19.4767406,13.8488323 C19.4750375,13.840474 19.4742646,13.8319573 19.4731802,13.823449 C19.4728677,13.8206625 19.4724073,13.8180323 19.4722521,13.815401 C19.4636938,13.751996 19.4622404,13.6878338 19.4679188,13.6241062 C19.5542813,13.0254604 20.30275,12.6244448 20.8319083,13.2901125 L21.0386792,13.5471865 C21.0386792,13.5471865 22.0126479,14.776525 22.5332948,15.4072156 L22.8013563,15.7232573 C22.810951,15.7334719 22.8193083,15.7427594 22.8265823,15.7498781 C23.2656667,16.265726 24.0662917,16.6738562 24.2583635,16.762074 C24.2444344,16.7455115 24.2284938,16.7266312 24.2110031,16.7054281 C24.0796905,16.5461792 23.9618644,16.3762739 23.8587458,16.1974729 C23.827174,16.1414458 23.7974583,16.084026 23.771301,16.0258333 C23.7660385,16.0145354 23.7610865,16.0029281 23.7558229,15.991475 C23.7380229,15.9518542 23.720226,15.9117687 23.7025823,15.8701354 C23.6911292,15.8433646 23.6796771,15.816274 23.6683792,15.7884167 C23.6063131,15.6365408 23.5558174,15.48019 23.517324,15.320701 C23.5026208,15.2587937 23.4902406,15.1981219 23.4795594,15.1386917 C23.4739885,15.1072729 23.4690385,15.076475 23.4645469,15.0459833 C23.4637719,15.0405667 23.4628438,15.0354625 23.4620698,15.0301958 C23.4577365,14.9984681 23.4537642,14.9673076 23.4501531,14.9367146 C23.447676,14.9155115 23.4455104,14.8946167 23.443651,14.8738771 C23.4407115,14.8423042 23.4380802,14.8115042 23.4363781,14.7811687 C23.4362219,14.779 23.4360656,14.7771437 23.4360656,14.7748229 C23.4338969,14.7435594 23.4325063,14.7133781 23.4314219,14.6836625 C23.4295656,14.6363031 23.4289448,14.5909542 23.4292542,14.5477729 C23.4294104,14.5044396 23.4304917,14.463424 23.43235,14.4250406 C23.436375,14.3264531 23.4447323,14.2442687 23.4529344,14.182825 C23.4530896,14.1801937 23.4535531,14.178026 23.4538625,14.1757042 C23.4595917,14.1308219 23.465625,14.0973917 23.4693406,14.077426 C23.4309461,14.0684165 23.3931585,14.0569928 23.3562031,14.0432229 C23.2193222,13.9935761 23.094065,13.9164102 22.9881583,13.8164854 C22.9188513,13.7505999 22.8598883,13.6746285 22.8132625,13.5911396 C22.6434202,13.2979733 22.5495676,12.9669962 22.5402417,12.6283135 C22.5108354,12.6498271 22.4817375,12.6721135 22.4521771,12.694401 C22.3151183,12.8056493 22.1665737,12.9019464 22.0090688,12.9816552 C21.86081,13.0518364 21.7022863,13.0978685 21.5394969,13.1180094 C21.4930598,13.1234976 21.4463435,13.126288 21.3995833,13.1263667 C21.3602376,13.126374 21.3209203,13.1242556 21.2818031,13.1200208 C21.2440515,13.1157886 21.2065831,13.1093287 21.1695938,13.100675 C20.6825313,12.9876917 20.3821229,12.7617281 20.2236385,12.3898146 C20.1875976,12.3054938 20.162225,12.2170032 20.1481094,12.1263958 C20.1447042,12.1039542 20.1419198,12.0815115 20.1399073,12.0587615 C20.1377396,12.0358552 20.1365021,12.0132594 20.1358833,11.9903531 C20.1346808,11.9441219 20.1363347,11.8978606 20.1408354,11.8518333 C20.1506072,11.7432853 20.1699774,11.6358165 20.1987188,11.5306875 C20.205374,11.5063885 20.2128031,11.481625 20.2210052,11.4574812 C20.2292073,11.4333375 20.237874,11.4091927 20.2473156,11.3850479 C20.2759063,11.3126263 20.3116823,11.2432519 20.3541073,11.1779646 C20.3686552,11.1562979 20.383824,11.1346312 20.4002292,11.1140448 C20.4413953,11.0612074 20.4884966,11.0132753 20.5406063,10.9711917 C20.5730874,10.9448505 20.6075483,10.9210489 20.6436833,10.8999979 C20.6559094,10.892724 20.6686,10.8857583 20.6816,10.878949 C20.7074479,10.8656385 20.7343771,10.8531021 20.7623906,10.8418042 C20.7822021,10.8337562 20.8023208,10.827101 20.822751,10.8210646 C21.113617,10.7404066 21.424252,10.8454244 21.6065063,11.0860323 C21.6102208,11.0758167 21.6140896,11.0645187 21.6182698,11.052601 C21.6467479,10.9682521 21.6820354,10.8424229 21.7233583,10.6933792 C21.8344305,10.270763 21.9686649,9.85457637 22.1254531,9.44670521 C22.1516101,9.38170521 22.1778694,9.31567014 22.2042313,9.2486 C22.2243521,9.19737083 22.2444708,9.14567708 22.2652104,9.09429375 C22.392116,8.73262784 22.573027,8.39225129 22.8017979,8.08472708 C22.5254903,7.88378805 22.2211616,7.72453146 21.8985594,7.61205833 C21.8762677,7.60431979 21.8541396,7.5972 21.8320094,7.59039167 C21.5500963,7.50027382 21.2555167,7.45611542 20.9595708,7.45961042 L20.9084958,7.45976562 C20.4160283,7.45916868 19.9266944,7.53808511 19.4593823,7.69346875 C19.4298205,7.70352917 19.4003111,7.71405347 19.3708542,7.72504167 C19.2406917,7.77302083 19.1116639,7.82801597 18.9837708,7.89002708 C18.9429118,7.9098375 18.9020524,7.9303191 18.8611927,7.95147187 C18.8416917,7.96168646 18.8221906,7.97159167 18.8025354,7.98196146 C18.4431662,8.17683558 18.1142936,8.42332011 17.826399,8.71355937 C17.825626,8.71433333 17.8251604,8.7152625 17.8242323,8.71572604 C17.4254707,9.11688896 17.1050335,9.58891076 16.8793594,10.107576 C16.7886595,10.3161962 16.7143517,10.531566 16.6571104,10.7517302 C16.5885147,11.0020684 16.5399695,11.257473 16.5119354,11.5155208 C16.5006144,11.6293879 16.4950354,11.7437529 16.4952198,11.8581812 C16.4956518,12.0137244 16.5071334,12.1690404 16.5295781,12.3229562 C16.5388642,12.3878056 16.5504205,12.453841 16.5642469,12.5210625 C16.5831292,12.6148531 16.6075802,12.7111198 16.6359052,12.8100208 C16.6413219,12.8287479 16.647051,12.8479375 16.6529302,12.8668208 C16.7496755,13.1764706 16.8772231,13.4756404 17.0336594,13.7598417 C17.1152572,13.9088984 17.2048982,14.0534088 17.3021854,14.1927333 C17.6569301,14.6790053 18.0470875,15.1384266 18.4694771,15.5672521" id="Shape" fill="#B79257"></path>
            <path d="M25.860249,14.9444583 L25.7630521,15.3629562 L26.0335906,16.5028406 C26.0335906,16.5028406 25.2417865,16.6269667 24.889374,16.6800531 C24.7808792,17.0437635 24.2379458,18.4710552 24.2379458,18.4710552 L24.1293,18.41735 C24.0503677,17.6376177 23.6445594,17.238774 23.1807135,16.9402219 C22.9177207,16.7800585 22.6349376,16.6549261 22.3395375,16.567999 C21.9527359,16.4514795 21.5571428,16.3664396 21.1566281,16.3137115 C21.2167061,16.158186 21.2166504,15.9858501 21.1564719,15.8303635 C21.074557,15.6543291 20.9669526,15.4914362 20.8371802,15.3470156 C21.3321354,15.2626667 21.3894,14.9127302 21.3694344,14.6991469 C21.3070625,14.8081052 21.0424042,15.2560115 20.6517656,15.1677927 C19.8488177,14.2216813 19.712,14.1704542 19.6343052,13.8650938 C19.5853397,13.611575 19.6944243,13.3535997 19.9104156,13.2121177 C20.329374,12.9517938 20.5909365,13.2159865 21.0147,13.7490156 C21.2400448,14.0322448 22.0539813,15.1122313 22.5893323,15.7193958 C22.9606355,16.1451041 23.4110401,16.494694 23.9155583,16.7487708 C24.1099324,16.8474648 24.3106471,16.9331395 24.5163771,17.0052292 L24.5830823,16.8987469 C24.3251479,16.6314326 24.1063508,16.328953 23.9332021,16.0003094 C23.8109402,15.7574771 23.7177947,15.501051 23.6557021,15.2363625 C23.5699508,14.8090481 23.5680051,14.3691469 23.6499729,13.9410906 C23.6499729,13.9410906 23.2740354,14.0031531 22.9239469,13.4873042 C22.8173669,13.2842179 22.7479687,13.0637065 22.7190302,12.8361854 C22.7000227,12.7124445 22.6883429,12.5876885 22.6840521,12.4625698 C23.3274313,11.8756813 24.203276,10.8257208 24.5385083,10.7478698 C24.6397292,10.9580479 26.1040104,14.0632042 26.1040104,14.0632042 L25.7758979,14.2207615 L25.7771354,14.5779708 L24.9200188,15.2064938 L25.860249,14.9444583 Z" id="Shape" fill="#FFFFFF"></path>
            <path d="M15.9309646,22.2087552 C15.9348344,22.1801229 15.9371552,22.159849 15.9376198,22.1538125 C15.9696499,21.8276948 15.9029491,21.4994766 15.7461688,21.2117292 C15.6427234,21.0105516 15.5119979,20.8246194 15.3576948,20.659199 C15.1368827,20.4177623 14.8904293,20.2010957 14.6226948,20.0130323 C14.5935969,19.9922927 11.6998583,17.8987167 10.4524104,14.8636719 C9.69719618,13.0517987 9.49692228,11.0564958 9.87697396,9.13067292 C9.96466422,8.69163189 10.0790449,8.25834658 10.2194792,7.83322917 L10.2241219,7.81852604 C10.6142083,6.59427344 11.2492016,5.4621432 12.0904958,4.49096562 C13.9184875,2.41921146 16.8537052,1.1725375 20.1609906,1.05940313 C19.8870727,1.76985873 19.6675441,2.50010421 19.504301,3.24383125 C19.467776,3.40355417 19.1532833,4.81134375 19.2328344,5.95772708 C18.2353348,6.24933483 17.3114964,6.75032565 16.5229625,7.42727083 C15.9671093,7.9102708 15.5061712,8.49266359 15.1637708,9.14460208 C14.8516678,9.75327061 14.6605586,10.4166864 14.601026,11.0981125 C14.5939066,11.1563069 14.5868385,11.2120757 14.5798219,11.2654187 C14.486801,11.9577104 14.7135427,13.7148135 15.678226,14.8338021 C15.9427281,15.1408646 16.3096844,15.5960458 16.7746188,16.1724094 L16.7805,16.1799927 C17.0895771,16.5632042 17.4381188,16.9953229 17.8304615,17.475575 C17.5140195,17.8000629 17.2655076,18.1844325 17.0994813,18.6061708 C16.9690945,18.9054834 16.8816116,19.221703 16.8396219,19.5454708 C16.8258479,19.6621677 16.8164063,19.7842812 16.8061906,19.9133594 C16.7892443,20.2997797 16.7279666,20.6829746 16.6235625,21.0554094 C16.553075,21.2912435 16.4525801,21.5170443 16.3245458,21.7272667 C16.2151746,21.9044283 16.0828319,22.0663319 15.9309667,22.2087583" id="Shape" fill="#DA1A32"></path>
            <path d="M20.8031333,0.605305208 L20.7844063,0.604992708 C20.6783885,0.601897917 20.5689656,0.60035 20.4593875,0.60035 C18.882364,0.604449392 17.318266,0.884959333 15.8381031,1.42914479 C13.8344469,2.18303021 12.2336583,3.39596458 11.0806208,5.03420833 C10.4041812,5.99330299 9.90746692,7.06722745 9.61463646,8.20375 C9.03455729,10.5130771 9.22910417,12.2646115 9.39656563,13.1026927 C9.59518748,14.0184902 9.91071877,14.9049538 10.335401,15.7402865 C10.4189771,15.903724 10.8461438,16.655599 11.1298375,17.0671312 C11.4204287,17.4882921 11.7348678,17.8924899 12.0716146,18.2777448 C12.3757729,18.6291524 12.6981368,18.9643801 13.0373802,19.282049 C13.1161583,19.3564937 13.1841021,19.4210312 13.248951,19.4860344 C13.5640033,19.7906612 13.8990531,20.0739022 14.2518625,20.3338656 C14.5753313,20.5824271 14.8545375,20.7970948 15.0178198,21.0032458 C15.6520688,21.8052667 15.4974531,22.1544281 15.3183844,22.5586875 C15.2236811,22.7304303 15.0995227,22.884187 14.9515781,23.0129375 C14.8875031,23.0760854 14.8214156,23.1413979 14.7595083,23.210425 L14.7384594,23.2342604 L14.7701875,23.2320927 C15.4329019,23.1663673 16.043447,22.8434789 16.4708031,22.3327177 C16.7883071,21.9366553 17.0118322,21.4737301 17.1245531,20.9787875 C17.1847658,20.701663 17.2237776,20.4203538 17.24125,20.1373021 C17.2571875,19.9574594 17.2740625,19.7720448 17.2989792,19.5895708 C17.339427,19.2951096 17.4222072,19.0080371 17.5447542,18.73725 C17.6922866,18.3950548 17.8997946,18.081984 18.1574896,17.8128063 C18.0886167,17.7422323 18.021601,17.6691802 17.9548958,17.5958198 C17.6821206,17.8948215 17.4579208,18.2347492 17.2904667,18.6032156 C17.1204303,18.974068 17.0182649,19.3724033 16.9888198,19.7793146 C16.9830906,19.846176 16.9778313,19.90375 16.9693188,19.9591573 C16.9601875,20.0185896 16.9547708,20.0955115 16.9482698,20.1845021 C16.9314074,20.7180981 16.7936028,21.2408996 16.545249,21.7134771 C16.3233288,22.1273186 15.9863463,22.4680644 15.5749948,22.6945667 C15.7217186,22.4557682 15.7844203,22.1747812 15.7531354,21.8962604 C15.690299,21.1996385 15.1503063,20.6601146 14.7082813,20.3301396 C13.4189569,19.382866 12.2937925,18.2304638 11.377624,16.9188542 C10.5271615,15.6817708 9.96256042,14.3965625 9.69960313,13.0994344 C9.37997245,11.51494 9.43370415,9.87778273 9.85654167,8.31765625 C10.2540286,6.84083183 10.9900033,5.47687595 12.0061458,4.33387083 C13.9711083,2.14944375 16.876301,0.959879167 20.4084688,0.892395833 L20.3676042,1.00770833 C20.1775469,1.54538021 19.9811458,2.101625 19.8189438,2.71436042 C19.6932708,3.18950417 19.5908125,3.6691375 19.5056885,4.18111771 C19.4059806,4.75537099 19.3742405,5.3393678 19.411124,5.92104479 L19.6867698,5.85805312 C19.583074,4.01241771 20.2341927,1.99746458 20.7964719,0.622485417 L20.8031333,0.605305208 Z" id="Shape" fill="#B79257"></path>
            <polygon id="Shape" fill="#B79257" points="24.0374583 20.2546667 24.0164583 20.2191667 24.0424583 20.2756667"></polygon>
            <polygon id="Shape" fill="#000000" points="25.5389583 13.9401042 24.8826042 14.3947038 24.8989583 14.4401042 25.9932292 14.1385074"></polygon>
            <path d="M24.8138469,12.4535875 C24.8101654,12.3729571 24.7916991,12.2936894 24.7593677,12.2197333 C24.7154094,12.153801 24.9563896,12.0508792 24.9563896,12.0508792 L24.8318,11.9827802 L24.801775,12.0367948 L24.2390302,12.2338177 L23.7700719,12.6182677 L24.1721667,12.4888792 L24.9984854,12.5944333 L24.8138469,12.4535875 Z" id="Shape" fill="#000000"></path>
            <path d="M22.549251,5.35443021 C22.587007,5.29566593 22.6553906,5.26409952 22.7246052,5.27348542 C22.7757321,5.27420072 22.8265338,5.28174813 22.8756604,5.29592708 L22.8782917,5.29654583 L22.88185,5.28385417 L22.8835531,5.27023437 C22.861574,5.263425 22.6690406,5.19981771 22.6566594,5.06438958 C22.6541823,5.04968646 22.5928938,4.70609687 21.7805052,4.48848958 L21.7602313,4.48307292 L21.7637896,4.50365833 C21.7970539,4.62287676 21.8626126,4.73058574 21.9532292,4.81489583 L21.9618958,4.82572917 C22.0114982,4.88862185 22.0336491,4.96885662 22.0233396,5.04828958 C21.9975697,5.12595252 21.9366378,5.18688485 21.858975,5.21265521 C21.7213471,5.23793022 21.594448,5.30385911 21.4946448,5.40193854 L21.4813344,5.41834479 L21.5016094,5.42360625 C21.6821862,5.47400138 21.8684013,5.5014054 22.0558406,5.50516875 C22.4265177,5.50470521 22.5430583,5.36262604 22.549251,5.35442292" id="Shape" fill="#000000"></path>
            <path d="M23.7188479,5.65421979 C23.7860118,5.65716933 23.8519929,5.67292954 23.9132396,5.70065208 L23.9157167,5.70173542 L23.9212875,5.68950833 L23.9246927,5.67650729 C23.9039531,5.66660208 23.7219448,5.57714583 23.7279802,5.4414125 C23.727825,5.42670938 23.7146708,5.07770208 22.9400448,4.7503625 L22.9205427,4.74215938 L22.9213177,4.76289896 C22.9377167,4.88539188 22.9876349,5.00097399 23.0655646,5.09689271 L23.0728375,5.10911979 C23.1135364,5.17822071 23.1244818,5.2608695 23.1031729,5.33818229 C23.0668493,5.41148121 22.9980661,5.46334084 22.9176021,5.47809479 C22.7777982,5.48424922 22.6430379,5.5321163 22.5306771,5.61553125 L22.515199,5.62961562 L22.534701,5.63781875 C22.7562888,5.73889736 22.995277,5.79633318 23.2385969,5.80698542 C23.4822062,5.80698542 23.5759927,5.71954062 23.5815677,5.71396458 C23.614439,5.67232169 23.6659713,5.64989504 23.7188479,5.65422083" id="Shape" fill="#000000"></path>
            <path d="M24.7373958,5.96252292 C24.7392521,5.94797396 24.7743854,5.60051562 24.0522271,5.16932604 L24.0342708,5.15833333 L24.0321021,5.17938229 C24.0316377,5.30274064 24.0651015,5.4238517 24.1288344,5.52947187 L24.1345635,5.54324688 C24.1654159,5.61724899 24.1648013,5.70062427 24.1328615,5.77416354 C24.0868422,5.8418072 24.0115441,5.88370327 23.9298031,5.88714583 L23.8942063,5.88652708 C23.7666281,5.87910094 23.6395565,5.90797127 23.5277115,5.96979375 L23.5103771,5.98155625 L23.5283302,5.99238958 C23.9115406,6.21866354 24.1714,6.26617812 24.3218375,6.26617812 C24.4031352,6.27198893 24.4843117,6.25333856 24.5549208,6.21262708 C24.5834125,6.18347036 24.6230013,6.16787152 24.663724,6.16975625 C24.7424112,6.17672163 24.818242,6.20263559 24.8847354,6.24528333 L24.8872125,6.24652188 L24.8943333,6.23522396 L24.8995948,6.22284271 C24.8802458,6.21015104 24.7123219,6.09639479 24.7373948,5.96251875" id="Shape" fill="#000000"></path>
            <path d="M26.9383792,8.43482292 L26.9888344,8.42460729 C27.1073896,8.42460729 27.2152635,8.58046042 27.2271802,8.59826042 L27.2284177,8.60027187 L27.2395635,8.5926875 L27.2491594,8.58340208 C27.2367771,8.56405625 27.1287479,8.39225625 27.2056677,8.28005208 C27.213251,8.26736146 27.3855115,7.96369792 26.8992229,7.27744792 L26.8869969,7.26042396 L26.876476,7.27868542 C26.8260552,7.39169486 26.8077927,7.51642506 26.823699,7.63914583 L26.8233865,7.65276562 C26.8233865,7.66282604 26.8179698,7.90101667 26.6043875,7.90101667 C26.5681956,7.90040408 26.5322406,7.89504585 26.4974427,7.88507917 C26.3893141,7.82941533 26.270143,7.79853901 26.1485885,7.79469375 C26.1310817,7.79439905 26.1135815,7.79559013 26.096276,7.79825417 L26.0756927,7.80212396 L26.0879188,7.81914792 C26.4887729,8.37771458 26.7907313,8.43822917 26.9021656,8.43822917 L26.9383792,8.43482292 Z" id="Shape" fill="#000000"></path>
            <path d="M27.5037552,9.37071771 L27.5371854,9.36638437 C27.6636333,9.36638437 27.75665,9.55133437 27.7671729,9.57238333 L27.7682573,9.57455104 L27.780174,9.56882187 L27.7913198,9.56061875 C27.7814156,9.54003333 27.6986115,9.35461875 27.7902365,9.25432917 C27.7995219,9.24287604 28.0120219,8.96568333 27.6249427,8.21906979 L27.6153479,8.20049687 L27.6026562,8.2172125 C27.5372614,8.32170014 27.5019185,8.44218516 27.5005073,8.56544167 L27.4983396,8.58045417 C27.4966365,8.58943125 27.4628958,8.79868333 27.2827437,8.79868333 C27.2345466,8.79707907 27.1871694,8.78576134 27.143451,8.76540833 C27.032483,8.68328388 26.9005386,8.63424129 26.7628708,8.62395 L26.737024,8.62503437 L26.7466187,8.64345208 C27.1182219,9.35090625 27.4585625,9.37118229 27.4961719,9.37118229 L27.5037552,9.37071771 Z" id="Shape" fill="#000000"></path>
            <path d="M27.9344792,10.3756417 L27.9508854,10.3747135 C28.086774,10.3747135 28.1595167,10.5862844 28.1678719,10.6113573 L28.1686469,10.6141427 L28.1813375,10.6098094 L28.1934104,10.6036177 C28.1867552,10.5816385 28.1299542,10.3866302 28.2345802,10.2999594 C28.2454135,10.289899 28.493974,10.0445885 28.2138406,9.25185521 L28.2070292,9.23204479 L28.1920167,9.24674792 C28.1126246,9.34139121 28.0608897,9.45610764 28.0425083,9.57826563 L28.0386396,9.59219375 C28.0380208,9.59405104 27.9809104,9.78055 27.8247469,9.78055 C27.7664357,9.77778289 27.7100063,9.75904514 27.6616219,9.72638333 C27.5628802,9.62724796 27.4366668,9.56001715 27.2993042,9.53338542 L27.2782552,9.53137292 L27.2855292,9.55118333 C27.5695333,10.3423688 27.9174573,10.3745604 27.9344823,10.3756448" id="Shape" fill="#000000"></path>
            <path d="M28.0411167,10.7494125 C27.9567781,10.6377283 27.8411018,10.5536785 27.708825,10.5079708 L27.68855,10.5033281 L27.692575,10.5237583 C27.8652979,11.3469813 28.2051729,11.4269969 28.2218885,11.4302479 C28.3692292,11.4330333 28.4151958,11.6681302 28.4199948,11.6958344 L28.4206135,11.6986198 L28.4336135,11.6961438 L28.4463052,11.6913458 C28.4427458,11.668749 28.4134927,11.4678573 28.5291073,11.3963542 C28.541024,11.3879958 28.8213135,11.1793656 28.6532333,10.3553698 L28.6489,10.3349396 L28.6320313,10.3473208 C28.5403954,10.4301283 28.4733507,10.5365862 28.4382594,10.6550042 L28.4325302,10.66785 C28.4317552,10.6697073 28.3583948,10.8269542 28.2208052,10.8269542 C28.1536852,10.8229123 28.0901044,10.7954749 28.0411177,10.7494125" id="Shape" fill="#000000"></path>
            <path d="M21.5875083,5.07439425 C21.617224,4.51036156 20.2673177,4.96031841 20.2673177,4.96031841 C20.2673177,4.96031841 21.5588802,5.61957831 21.5875083,5.07439425" id="Shape" fill="#000000"></path>
            <path d="M20.797251,21.0436458 L20.7998813,21.0564906 L20.7998813,21.0547917 L20.8001938,21.0564938 L20.7994198,21.0297229 L20.7876563,21.0298792 C20.7441646,21.0298792 20.5270219,21.0230688 20.4960688,20.8856323 C20.4904979,20.8720125 20.3447042,20.5548896 19.5038375,20.5482365 L19.4827885,20.5482365 L19.4914552,20.5671177 C19.5615962,20.6872316 19.6661261,20.7835674 19.7915542,20.8436917 C19.8608375,20.8886849 19.9045701,20.9639672 19.9093344,21.0464406 C19.898692,21.1258903 19.8562406,21.1976117 19.7917104,21.2451656 L19.7844365,21.2508948 C19.6734032,21.3087934 19.5806887,21.3964707 19.5166844,21.5041 L19.5077083,21.5229802 L19.5364958,21.5231365 C20.3708635,21.5231365 20.5188229,21.2092625 20.5250125,21.1951781 C20.5722167,21.0682656 20.7746583,21.0571229 20.7974083,21.0565042 L20.797251,21.0436458 Z" id="Shape" fill="#000000"></path>
            <path d="M21.9086552,20.935925 L21.9064875,20.9232333 L21.9108208,20.9354594 L21.9106656,20.9342219 L21.9112844,20.9354594 L21.9066417,20.909149 L21.9040104,20.9094615 L21.9061781,20.9179729 L21.9061781,20.9219969 L21.9040104,20.9093063 C21.8738957,20.9139113 21.8434709,20.9161882 21.8130062,20.9161167 C21.7278823,20.9161167 21.6201615,20.8978542 21.5864219,20.8077781 C21.580851,20.7986458 21.446199,20.5864573 20.9001719,20.5864573 C20.7852934,20.5871332 20.6705773,20.5951984 20.5567344,20.6106031 L20.53615,20.6133896 L20.5472958,20.6310333 C20.6335277,20.7401412 20.750361,20.8210301 20.8828375,20.8633438 C20.9576192,20.8984312 21.0112769,20.9669678 21.0273938,21.0479844 C21.0278571,21.1280769 20.9957982,21.2049288 20.9385552,21.260949 L20.9272573,21.2717823 C20.8273174,21.3437828 20.7493102,21.4420961 20.7019125,21.5557865 L20.6955667,21.5759073 L20.7163063,21.5731208 C21.5497438,21.458899 21.6534396,21.125525 21.6576198,21.1105167 C21.6867167,20.9788073 21.8848219,20.9398052 21.908349,20.9357813 L21.9086615,20.9359302 L21.9086552,20.935925 Z" id="Shape" fill="#000000"></path>
            <path d="M22.9866302,20.6369083 L22.9838427,20.6376823 C22.9332849,20.6528028 22.8809057,20.6609773 22.8281448,20.6619813 C22.7597742,20.6705934 22.692551,20.6390904 22.6554219,20.5810375 C22.6507792,20.5753083 22.5362479,20.4391115 22.1799667,20.4391115 C21.9863559,20.4433222 21.7941589,20.4731956 21.6084042,20.52795 L21.5881302,20.5335219 L21.601749,20.5494594 C21.7022724,20.6457508 21.8293262,20.7097359 21.9665406,20.7331708 C22.0453532,20.7576041 22.1078603,20.8180433 22.1349302,20.8959896 C22.1464142,20.9753533 22.1252517,21.0559836 22.0762729,21.1194781 L22.0680708,21.129999 C21.9784625,21.2154801 21.9141935,21.3240412 21.8823469,21.4437177 L21.8789417,21.4644573 L21.8992156,21.4587281 C22.7086635,21.2309062 22.7656208,20.8860781 22.7676302,20.8709094 C22.778151,20.7361042 22.9700698,20.6701729 22.9917375,20.6630531 L22.9878698,20.6508271 L22.9940594,20.6625906 L22.9937469,20.6613531 L22.9945208,20.6624365 L22.9866302,20.6369083 Z" id="Shape" fill="#000000"></path>
            <path d="M24.0187938,20.2179448 L24.0163167,20.2190292 L24.0209594,20.2266115 L24.0220427,20.2304802 L24.0163135,20.2190219 C23.954292,20.2481895 23.8871347,20.2648607 23.8186729,20.2680844 C23.7663942,20.2719409 23.7156057,20.249621 23.6830927,20.208501 C23.5869091,20.1415529 23.4700949,20.1108957 23.3534313,20.1219833 C23.1057328,20.1334105 22.8628017,20.1941305 22.6388563,20.3005896 L22.6195104,20.3089469 L22.6351417,20.322876 C22.7478794,20.4043715 22.8824111,20.4502934 23.021449,20.4547406 C23.1029395,20.4680553 23.1732554,20.5192987 23.2108875,20.5927958 C23.2331474,20.6697429 23.2233222,20.7524231 23.183649,20.8220104 L23.1793146,20.8306781 C23.1011497,20.9284257 23.0517396,21.0460034 23.0366177,21.1702437 L23.035999,21.1912927 L23.0553448,21.1827812 C23.8256375,20.8453854 23.8344573,20.4959062 23.8343031,20.4805937 C23.8262552,20.3457885 24.0071823,20.2538562 24.028075,20.2437958 L24.0225042,20.2320323 L24.0300875,20.2428656 L24.0294688,20.2417812 L24.0302427,20.2428656 L24.0187938,20.2179448 Z" id="Shape" fill="#000000"></path>
            <path d="M24.9830115,19.6607729 L24.980999,19.6620104 L24.9864156,19.6688219 L24.9881188,19.6726896 L24.9813073,19.661701 C24.9146047,19.706049 24.8378999,19.7330711 24.7581292,19.740324 C24.7175265,19.7417736 24.6781561,19.7262387 24.6494833,19.6974542 C24.5816872,19.6601426 24.5045924,19.6431118 24.4273875,19.6483917 C24.2760229,19.6483917 24.0141521,19.6976073 23.628001,19.9323958 L23.610201,19.9433844 L23.6276917,19.9548427 C23.7359195,20.0131123 23.8581515,20.0403221 23.9808771,20.0334646 L24.0283917,20.0323812 C24.1109576,20.0342948 24.1877286,20.0752348 24.2353208,20.1427312 C24.2680909,20.215896 24.2697663,20.2992272 24.2399635,20.37365 L24.2368677,20.3823167 C24.1729166,20.4900661 24.1401767,20.6134717 24.1423042,20.7387521 L24.1447813,20.7594917 L24.1625813,20.7485031 C24.8790125,20.3077156 24.8393917,19.960876 24.8373792,19.945401 C24.8107594,19.8129167 24.9772927,19.6968396 24.9963271,19.684151 L24.9892073,19.6731625 L24.9981833,19.6827573 L24.9974094,19.6815198 L24.9984927,19.6826042 L24.9830115,19.6607729 Z" id="Shape" fill="#000000"></path>
            <path d="M25.8611792,18.9757583 L25.8591677,18.9774615 L25.8591677,18.9776177 C25.793305,19.0371593 25.7110793,19.0755495 25.6231438,19.0878146 C25.5914585,19.0883397 25.5605657,19.0778966 25.5356979,19.0582542 C25.4914328,19.0403046 25.4438147,19.0321217 25.3960969,19.0342646 C25.235599,19.0342646 24.9594896,19.1032927 24.5564677,19.4323354 L24.5405302,19.4456448 L24.5592573,19.4547771 C24.6315667,19.4833749 24.7090804,19.4964521 24.7867698,19.4931604 C24.8472397,19.4930596 24.9075628,19.4872033 24.9669229,19.4756708 L24.9745063,19.4756708 C25.0544725,19.4677931 25.1334511,19.4982135 25.1874708,19.557699 C25.2294298,19.6254372 25.2423699,19.7072089 25.223376,19.7845927 L25.2213646,19.793725 C25.1729232,19.9092617 25.1575444,20.0359877 25.1769448,20.1597573 L25.1822063,20.1800312 L25.1986125,20.1667219 C25.8472583,19.6312156 25.7601198,19.2930427 25.7559396,19.2781865 C25.7112115,19.1506542 25.8599448,19.0127552 25.8769698,18.9974333 L25.8684583,18.9879917 L25.8786729,18.9961937 L25.8777448,18.9951094 L25.8788281,18.9960375 L25.8611792,18.9757583 Z" id="Shape" fill="#000000"></path>
            <path d="M26.6362688,18.1760625 L26.6345656,18.178074 C26.5739773,18.2529149 26.4887094,18.3037242 26.3940521,18.3213906 C26.3699516,18.3214203 26.3462811,18.3150085 26.3254906,18.3028187 C26.3006203,18.295877 26.2748412,18.2927463 26.2490323,18.2935333 C26.1128333,18.2935333 25.8224865,18.3605479 25.4070813,18.8084531 L25.3929969,18.8239313 L25.4126531,18.8304323 C25.4533316,18.8408779 25.4952553,18.8456691 25.5372417,18.8446708 C25.6333287,18.843302 25.7285791,18.8265817 25.8193875,18.7951427 C25.9038636,18.7722315 25.9941791,18.7947226 26.0580448,18.854575 C26.1027458,18.9152738 26.1234685,18.9903368 26.1162396,19.0653719 L26.1143833,19.0805406 C26.0835993,19.1998751 26.0862224,19.3253768 26.1219656,19.4433208 L26.1301677,19.462824 L26.1442521,19.4473458 C26.7130333,18.8274896 26.5800854,18.504325 26.5738948,18.4900917 C26.5119875,18.3699875 26.640601,18.2130542 26.6553042,18.1955646 L26.6457094,18.1870531 L26.6570073,18.1937083 L26.6559229,18.1927802 L26.6571604,18.1935542 L26.6362688,18.1760625 Z" id="Shape" fill="#000000"></path>
            <path d="M27.2937323,17.2766917 L27.2924948,17.2788594 C27.2802688,17.2974313 27.1739396,17.4554531 27.0549219,17.4554531 L27.0035385,17.4452396 L26.9736687,17.4430708 C26.8866896,17.4430708 26.5714208,17.4884188 26.1637552,18.0728313 L26.1518385,18.0901656 L26.1724229,18.093725 C26.1877426,18.0959626 26.2032193,18.0969458 26.218699,18.0966646 C26.3416044,18.0925353 26.461937,18.0603478 26.5704906,18.0025646 C26.6068669,17.991065 26.6447092,17.9848618 26.6828531,17.9841458 C26.8927219,17.9841458 26.9012333,18.2193979 26.9013896,18.2294583 L26.9017021,18.241375 C26.8872233,18.3649072 26.9072033,18.4900369 26.9594312,18.6029177 L26.9702646,18.6211802 L26.9820271,18.6036896 C27.4594948,17.9112479 27.2832104,17.6099094 27.2751615,17.5969083 C27.1974677,17.4867115 27.3022448,17.3139917 27.3150917,17.2935583 L27.3152479,17.2935583 L27.3042594,17.2867469 L27.3163312,17.291699 L27.3150937,17.290925 L27.3167969,17.2915437 L27.2937323,17.2766917 Z" id="Shape" fill="#000000"></path>
            <path d="M27.8439396,16.3090677 L27.832176,16.303651 L27.8448677,16.3070562 L27.8436302,16.3062812 L27.8448677,16.3065937 L27.8207229,16.2954479 L27.8196385,16.297926 C27.8095781,16.3194396 27.7181083,16.5067104 27.5908885,16.5067104 L27.556374,16.5023771 L27.5528125,16.5023771 C27.5153573,16.5023771 27.1759479,16.5229604 26.8113083,17.239701 L26.803725,17.2593573 L26.8253917,17.2593573 C26.9629346,17.2485764 27.0944158,17.1982093 27.2039594,17.1143375 C27.2488547,17.0920988 27.2979796,17.079699 27.348051,17.0779667 C27.5255729,17.0779667 27.5619438,17.284425 27.5633375,17.2932531 L27.5659677,17.3084219 C27.5690517,17.4316502 27.6058827,17.551671 27.672451,17.6554177 L27.685451,17.6719802 L27.6947375,17.6532521 C28.0720677,16.9013771 27.8561625,16.6272812 27.8461021,16.6152083 C27.7538604,16.5163115 27.8343406,16.3298125 27.8439365,16.3090729" id="Shape" fill="#000000"></path>
            <path d="M28.2225073,15.3070833 L28.2225073,15.3069281 L28.2102813,15.3030594 L28.2232823,15.3049156 L28.2220448,15.3046031 L28.2232823,15.3046031 L28.197899,15.2968646 L28.197125,15.2993417 C28.189076,15.3242583 28.1175719,15.5378427 27.9807573,15.5378427 L27.9632667,15.5369146 C27.9485635,15.5379979 27.6011052,15.5728198 27.321899,16.366174 L27.3150885,16.3859854 L27.3358281,16.3839729 C27.4722421,16.3564505 27.5973279,16.2888144 27.69505,16.1897354 C27.7439221,16.1555941 27.8014225,16.1359088 27.8609646,16.1329344 C28.0160438,16.1329344 28.0742385,16.3180385 28.0748573,16.3197417 L28.0779531,16.3282531 C28.0968072,16.4521548 28.1496301,16.5684073 28.2305573,16.6641042 L28.2455708,16.6788073 L28.2523813,16.6589958 C28.5270979,15.8639427 28.2766802,15.620799 28.2653823,15.6099635 C28.1612156,15.5243792 28.2155448,15.330451 28.2225094,15.3070802" id="Shape" fill="#000000"></path>
            <path d="M28.5481448,14.5578427 C28.433151,14.4869583 28.4624021,14.2859104 28.4658073,14.2633146 L28.4531156,14.2611469 L28.4633302,14.2608344 L28.4661167,14.2611469 L28.4648792,14.2608344 L28.4661167,14.2608344 L28.4399594,14.256501 L28.4396469,14.2591312 L28.4394906,14.2591312 C28.4346927,14.2862146 28.3890354,14.5219312 28.2389083,14.5253365 C28.2246698,14.5282771 27.88495,14.6087583 27.7128437,15.4321344 L27.7085104,15.4525646 L27.7289406,15.4477656 C27.8605144,15.4025657 27.9755452,15.3190142 28.0592208,15.2078698 C28.1087604,15.1608041 28.173204,15.1325514 28.2413854,15.1280073 C28.3788208,15.1280073 28.4521823,15.285099 28.4531104,15.286801 L28.4571344,15.2951594 C28.4919335,15.415479 28.5596973,15.5236647 28.6527656,15.6074865 L28.6696344,15.6198677 L28.6736583,15.5992844 C28.841276,14.774826 28.5608323,14.5666604 28.5481375,14.5578375" id="Shape" fill="#000000"></path>
            <path d="M18.1817896,20.7141478 C18.1817896,20.7141478 19.3933312,21.5162752 19.4795375,21.0141589 C19.5626479,20.5289301 18.1817896,20.7141478 18.1817896,20.7141478" id="Shape" fill="#000000"></path>
            <path d="M28.5441208,12.55945 C28.3179481,12.5594494 28.1345985,12.7427981 28.1345979,12.9689708 C28.1345973,13.1951435 28.3179461,13.3784932 28.5441188,13.3784937 C28.7702914,13.3784943 28.9536411,13.1951456 28.9536417,12.9689729 C28.9536765,12.8603504 28.9105419,12.7561667 28.8337344,12.6793588 C28.7569268,12.6025508 28.6527434,12.5594157 28.5441208,12.55945" id="Shape" fill="#000000"></path>
            <path d="M25.1455208,7.32604896 C25.185729,7.18315999 25.2395788,7.04446667 25.3063271,6.91188229 C25.3328878,6.86902692 25.3508162,6.82139335 25.3591042,6.77166042 L25.3583333,6.7653125 L25.3530708,6.76190729 L25.3179375,6.75556146 C25.1083781,6.75556146 24.2206177,7.00288438 23.3610229,7.76032917 C22.9437102,8.13603776 22.6289709,8.61184902 22.4464865,9.14289167 L22.423425,9.20062083 C22.1011897,10.0253016 21.848649,10.8755421 21.6684552,11.7424125 C21.6296765,11.5543494 21.55929,11.3742231 21.4602885,11.2096927 C21.3595403,11.0720855 21.2000862,10.989695 21.0295594,10.9871333 C20.9938215,10.9871897 20.9581513,10.9902438 20.922924,10.9962635 C20.695137,11.046118 20.5102309,11.2118696 20.4358615,11.4328708 L20.4333833,11.439526 C20.3585888,11.6151746 20.3233962,11.8051401 20.3303062,11.995925 C20.333102,12.1332703 20.3684275,12.267995 20.4333833,12.3890417 C20.6290087,12.7380605 21.0048891,12.9467567 21.4045656,12.9282615 C21.4625126,12.9281941 21.5204191,12.9251979 21.5780635,12.9192844 C21.7644342,12.8955844 21.9422574,12.8269624 22.0962354,12.7193219 C22.4898167,12.4563677 22.8081802,12.1185031 23.145424,11.7609885 C23.3365698,11.558549 23.5342062,11.3489896 23.7470156,11.154599 C23.9775608,10.9361289 24.2292699,10.741138 24.498424,10.5725073 C24.7150705,10.4433676 24.9497509,10.3472314 25.1947344,10.2872656 L25.2307958,10.2674552 L25.2232125,10.2211781 L25.2148552,10.2001292 C25.1232473,9.94237674 25.057507,9.6761507 25.0186052,9.40538333 C24.9651192,9.08189928 24.9465435,8.75360485 24.9631979,8.42615208 C24.9894845,8.05456169 25.0505255,7.68625106 25.1455208,7.32604792" id="Shape" fill="#B79257"></path>
            <path d="M18.6273729,19.2746198 C18.8819687,19.1586979 19.1455427,19.03875 19.4221177,18.920974 C19.943509,18.6933725 20.4814395,18.5057144 21.0312646,18.3596198 C21.628887,18.1816384 22.2478749,18.0854764 22.8713271,18.0737594 L22.8835531,18.0737594 C23.1036024,18.0753864 23.3228169,18.1010243 23.5373031,18.1502177 C23.2854917,17.4020583 22.4053146,17.1443667 22.0719385,17.0468604 C21.6473522,16.9407955 21.2164907,16.8616533 20.7819271,16.8099062 L20.7475677,16.8068104 L20.775426,16.7865365 C20.843728,16.7350195 20.9039306,16.6735652 20.9540312,16.6042177 L20.9982948,16.549426 L21.0029385,16.5440094 L21.0100583,16.5449375 C21.4354399,16.5947621 21.8555774,16.6821352 22.2655542,16.8060344 C22.6261246,16.9119055 22.9659052,17.0787336 23.2701677,17.2992875 C23.4294993,17.4224502 23.5656067,17.5730222 23.6721062,17.7439417 C23.8288885,17.983525 23.8832125,18.3577615 23.8818188,18.6053927 L23.8818188,18.6293812 L23.8616979,18.6160719 C23.6902852,18.4988957 23.49484,18.4215318 23.2896677,18.3896427 C23.1441236,18.3701654 22.9974243,18.3605996 22.8505833,18.3610115 C22.4087455,18.3685841 21.9693088,18.4277987 21.541226,18.537449 C21.0690243,18.6505134 20.6039053,18.7913415 20.1482938,18.959199 C19.6166583,19.1532802 19.1983146,19.337301 18.6208656,19.5962323 C18.5304802,19.6367812 18.4431896,19.6767135 18.3572917,19.7161792 C18.075301,19.8452573 17.8075479,19.9678365 17.512401,20.069825 C17.5219969,19.962724 17.5325208,19.854076 17.544901,19.7460469 C17.929976,19.5920531 18.2840906,19.4309427 18.6273719,19.2746177" id="Shape" fill="#B79257"></path>
            <path d="M13.7593833,20.8289771 C12.9939461,20.841986 12.234385,20.6932572 11.5303823,20.3925187 L11.4776052,20.3705396 C10.9630409,20.1278735 10.4886885,19.8078107 10.0710542,19.4214885 C9.66745047,19.0114795 9.31944021,18.5502414 9.03595,18.0496052 L9.0209375,18.016949 L9.0534375,18.0325802 C9.35183438,18.1749687 10.271324,18.366575 10.8100802,18.3983031 C11.0149948,18.410376 11.176576,18.4159469 11.3189646,18.4159469 C11.4996731,18.4158446 11.680244,18.4059767 11.8598875,18.3863865 C11.8719594,18.4003156 11.883876,18.4142437 11.8961031,18.4283281 C11.9710125,18.5139156 12.0409677,18.5925406 12.107674,18.665901 C11.9221052,18.683701 11.7063542,18.6948427 11.4242083,18.7014979 L11.3759208,18.7021167 C11.0245927,18.7021167 10.0280271,18.6281375 9.73411771,18.5544667 C10.2970177,19.28405 10.802651,19.7804042 11.688401,20.148601 C12.0131255,20.2834634 12.3518286,20.38183 12.6982771,20.4418906 C13.1001773,20.5057126 13.5067848,20.5351741 13.9136875,20.5299552 C13.9811667,20.5299552 14.0514333,20.5291802 14.1252583,20.528099 C14.2461333,20.6211198 14.3603542,20.7088708 14.4631208,20.7924458 C14.224776,20.816125 13.988751,20.8289698 13.7593813,20.8289698" id="Shape" fill="#B79257"></path>
            <path d="M9.53740625,14.462351 C9.47410486,14.4648281 9.40471632,14.4660663 9.32924063,14.4660656 C8.62880649,14.456425 7.93016158,14.3927289 7.23953229,14.2755448 C6.59414062,14.1679792 6.12936562,14.0537594 5.88869896,13.9443365 C5.90433125,13.9692542 5.9232125,13.9997448 5.94457083,14.0345667 C6.16372604,14.3905385 6.67740833,15.2236667 7.34214583,15.7729458 C7.92516667,16.2547458 8.64887083,16.7840604 9.59931458,17.0559896 C10.0578491,17.1868731 10.5294735,17.2665501 11.0055563,17.2935625 C11.0721083,17.3879729 11.1394323,17.4817635 11.2087708,17.5747802 C11.1883406,17.5749365 11.1677563,17.5755552 11.1474813,17.5755552 C10.176985,17.5854731 9.22092325,17.3401732 8.37508542,16.8642323 C8.04773899,16.6880092 7.73797782,16.4809141 7.45002396,16.2457698 C7.1785138,16.024432 6.9229717,15.7841985 6.68530417,15.5268615 C6.13612725,14.8990344 5.66450302,14.2073971 5.28060417,13.4668677 L5.26280521,13.4335927 L5.29731875,13.4487604 C5.50624325,13.5357398 5.71984725,13.6110225 5.93713958,13.6742594 C6.44564805,13.8301504 6.96511647,13.9477431 7.4911875,14.026051 C8.07920658,14.1199326 8.67372121,14.1672324 9.2691875,14.1675094 C9.32428542,14.1675094 9.38077708,14.1668906 9.43742292,14.1662719 C9.46899792,14.2647094 9.50258333,14.363449 9.53740625,14.462349" id="Shape" fill="#B79257"></path>
            <path d="M6.96295833,9.49066562 L6.94190937,9.48849792 C5.79656584,9.35358176 4.66481102,9.12125596 3.55894167,8.79404479 C2.97746979,8.61946146 2.4254,8.42785833 1.91853125,8.22495417 L1.89903021,8.21644167 C2.07848901,8.6036485 2.28338892,8.97854802 2.51238542,9.33868021 C3.08149333,10.2636751 3.82748828,11.0673135 4.70764583,11.7035698 C5.51262327,12.2522983 6.41443655,12.6432534 7.36520833,12.8556792 L7.36552083,12.8507271 L7.37743854,12.8507271 L7.38331979,12.8515 L7.42773854,12.8606313 C7.9420978,12.9630938 8.46417943,13.0220122 8.9884375,13.0367604 C9.04229687,13.0367604 9.09368125,13.035676 9.14289792,13.0333542 C9.14955313,13.0689521 9.15620833,13.1040833 9.16270833,13.13705 C9.17509063,13.1989583 9.18886458,13.2622583 9.2034125,13.3261792 C9.19520938,13.3263344 9.18685,13.3263344 9.17803021,13.3263344 C8.74791382,13.3158482 8.31865259,13.2826296 7.89204375,13.2268177 C7.40374375,13.1587177 6.46490729,12.9866094 5.66103125,12.597676 C4.28961146,11.9344854 3.19213646,10.9388479 2.30498958,9.55411875 C1.93943439,8.97751071 1.62617034,8.36937042 1.36893958,7.7369625 L1.35501042,7.70275833 L1.35299792,7.70198438 L1.35176042,7.69610313 L1.33597396,7.66576771 L1.36599896,7.6793875 L1.3721875,7.6793875 L1.3742,7.68294792 C1.71949167,7.83678958 2.05874792,7.97669792 2.3828375,8.099125 C2.76078646,8.24197708 4.52361979,8.83087813 5.59075938,9.00066146 C6.61195729,9.17421377 7.64501283,9.26879944 8.68074792,9.28357813 C8.84232708,9.28357813 8.99895521,9.28001771 9.14784479,9.2733625 C9.13283125,9.36607083 9.11890208,9.45784896 9.10621146,9.54808021 C8.86757881,9.57490772 8.62759587,9.5879301 8.38746146,9.58708229 C7.9112736,9.57973152 7.43579328,9.54754752 6.96295833,9.49066146" id="Shape" fill="#B79257"></path>
        </g>
    </g>
</svg>