<?xml version="1.0" encoding="UTF-8"?>
<svg width="30px" height="30px" viewBox="0 0 30 30" version="1.1" xmlns="http://www.w3.org/2000/svg" xmlns:xlink="http://www.w3.org/1999/xlink">
    <!-- Generator: Sketch 50.2 (55047) - http://www.bohemiancoding.com/sketch -->
    <title>senators</title>
    <desc>Created with Sketch.</desc>
    <defs></defs>
    <g id="senators" stroke="none" stroke-width="1" fill="none" fill-rule="evenodd">
        <path d="M20.6635171,10.9070339 L17.676356,6.81521185 L16.7012289,7.27245765 C16.7012289,7.27245765 16.3425001,7.0698305 14.9283052,6.8698729 L15.6306357,6.1642373 L15.6306357,4.54665254 L15.1300425,4.54665254 C15.4483476,4.12131356 15.5004662,3.46741526 15.5004662,2.91177966 C15.5004662,2.35627119 15.4887713,1.08317796 17.1207205,0.00241525423 L10.6944916,0.00241525423 C6.91855944,1.27411017 6.7164408,6.9457627 7.05165266,10.7820762 L7.9819069,10.4211865 C7.9819069,10.4211865 7.36423741,11.8121187 7.65635605,12.5630084 C7.22516961,13.577161 7.36881368,14.543517 7.78652555,15.2755932 L7.31771199,15.9352119 L7.42182215,18.9125848 C7.42182215,18.9125848 7.36296622,18.9949576 7.3089408,19.0688136 C7.18309334,19.2409322 6.86961876,19.5077543 5.74207639,19.7154661 C4.4944069,19.9454237 4.21016961,20.2024576 4.08419504,20.726822 C3.95771198,21.2530932 2.82025436,21.638644 2.70546622,21.6743644 C2.70546622,21.6743644 2.58686453,22.0202543 2.58686453,22.4194068 C2.58686453,24.0111865 4.58720351,25.0323305 6.91411029,25.9305508 C9.37233065,26.8796187 12.3784323,27.6536441 13.4021188,29.0112712 C14.6593221,29.6427966 16.1019917,29.9973305 17.6797883,29.9973305 C23.2379239,29.9973305 27.4388137,25.3938559 27.4388137,20.1842797 C27.4389408,15.8461017 24.6068645,12.2224577 20.6635171,10.9070339 L20.6635171,10.9070339 L20.6635171,10.9070339 Z" id="Shape" fill="#000000"></path>
        <path d="M7.7228391,9.46258475 C7.7228391,9.46258475 7.24105944,2.44805085 10.6553391,1.02457627 L11.1486865,4.17915254 L11.2527967,0.857542375 L15.4657628,0.86326271 C15.0050848,1.15563559 14.8493645,1.51271186 14.7597459,1.91072034 C14.570212,2.75135593 14.7221188,3.84355932 14.3749578,4.4338983 L11.1631781,4.43097457 L7.7228391,9.46258475 L7.7228391,9.46258475 L7.7228391,9.46258475 Z" id="Shape" fill="#E4173E"></path>
        <path d="M4.574873,21.6151271 L4.86991538,22.167839 L4.60512723,22.4457203 L8.90618655,24.4161865 C5.98665266,22.5527542 4.72512723,21.8004661 4.72512723,21.0307627 C4.72512723,20.3059322 6.44529673,20.5619492 7.4044069,19.8762712 C7.65902555,21.4069068 5.47741538,21.453178 5.47741538,21.453178 L9.0653391,23.4322882 C10.8072459,25.1018644 12.8210595,25.6399576 12.8210595,25.6399576 C13.2550425,26.1434746 13.3418646,26.5948729 13.3418646,26.5948729 C13.3418646,26.5948729 11.1891103,25.2667373 10.0953815,25.1191525 C10.0953815,25.1191525 10.7787713,25.4534746 11.5797459,25.8831356 C12.8674578,26.5738983 14.4880934,27.6019068 14.2793646,28.5654661 C12.4576272,25.9859746 3.46372893,25.1785169 3.46372893,22.5498305 C3.46372893,21.8407627 4.44165266,21.8407627 4.574873,21.6151271 L4.574873,21.6151271 L4.574873,21.6151271 Z" id="Shape" fill="#E4173E"></path>
        <path d="M17.4622883,28.1486441 C17.9686018,26.5923305 19.0731357,25.7220763 20.4541526,24.7084322 C21.7178391,23.7807203 22.8818646,22.9075423 22.8818646,21.1783475 C22.8297459,20.9959322 21.4365256,20.4361017 21.2802968,20.3927542 C21.2802968,20.3927542 22.1656781,21.1262288 22.1656781,21.4300424 C22.1656781,21.7338559 20.2083052,22.8752543 20.2083052,22.8752543 C20.2083052,22.8752543 20.4031781,22.6295339 20.6509323,22.3327118 C20.9930086,21.9226271 21.4191103,21.3983899 21.4191103,21.1390678 C21.4191103,20.7788135 20.7463984,20.6659322 20.5366526,19.9165678 C20.5366526,19.9165678 20.3541103,20.1968644 20.1765255,20.5850848 C19.9890255,20.9944068 19.8061018,21.5188983 19.8061018,21.771356 L20.1475425,24.1526695 L19.2015256,24.0427118 C19.1154662,24.1128813 17.4489408,25.6859746 17.4622883,28.1486441 L17.4622883,28.1486441 L17.4622883,28.1486441 Z" id="Shape" fill="#E4173E"></path>
        <polygon id="Shape" fill="#D69F0F" points="18.8222035 23.3744492 19.1693645 22.4716526 19.3661442 23.4554238"></polygon>
        <path d="M11.8432629,15.3190678 L17.3408899,13.4209322 L20.1300001,15.0528813 L20.1532628,15.3073729 C20.1532628,15.3073729 20.0483899,15.2162288 19.8675001,15.1172034 C19.5766526,14.9577966 19.0943646,14.7605084 18.5734323,14.7605084 C18.2580509,14.7619068 17.9466103,14.9382203 17.7198306,15.1483474 C17.4491951,15.3988983 17.2872459,15.6807203 17.2872459,15.6807203 C17.2872459,15.6807203 16.9356357,14.7924152 15.3471612,14.7924152 C13.8541527,14.7924152 11.8432629,15.3190678 11.8432629,15.3190678 L11.8432629,15.3190678 L11.8432629,15.3190678 Z" id="Shape" fill="#D69F0F"></path>
        <path d="M10.2981357,14.427839 L10.5672459,15.2640254 L17.8384323,12.3415678 L20.7087713,14.8502543 L20.6419069,13.7380932 C20.6066951,13.7522034 20.5665256,13.7622457 20.5235594,13.7622457 C20.2169493,13.7622457 19.6324577,13.3745339 19.6324577,13.3745339 L19.7422883,13.2819916 C19.7422883,13.2819916 20.1416951,13.4208051 20.3036442,13.4208051 C20.3891951,13.4208051 20.5169492,13.385339 20.6186442,13.3519068 L20.5525425,12.2519491 L17.4059747,7.8558051 L16.7041526,8.10851695 C16.7041526,8.10851695 15.1098306,7.46618645 13.6689408,7.46618645 C11.279873,7.46618645 8.5156781,9.7983051 8.5156781,12.2288135 L10.04339,12.3329238 L14.227373,9.19067795 L10.0086866,13.3572458 C10.0086866,13.3572458 9.6788137,12.6280932 9.07118655,12.6280932 C8.80855945,12.6347034 8.18148315,13.063856 8.18148315,14.068983 C8.18148315,14.9427966 8.59665265,15.4173305 8.59665265,15.4173305 L8.1134747,16.088644 C8.317373,20.184661 8.2558476,22.1086017 6.8433052,21.6902542 L8.8976696,22.6914407 C8.8976696,22.6914407 8.8572459,20.0525848 8.8572459,19.3118644 C8.8572459,17.9557627 8.96809335,17.8137712 9.1350001,17.8188559 C9.5883052,17.8188559 9.7108476,20.1908899 9.7636018,21.7142797 C9.7941103,22.596483 9.82652555,23.278856 9.82652555,23.278856 C9.82652555,23.278856 11.4729662,25.0873729 14.4011442,25.3418644 C11.8620764,23.5515254 12.1512713,21.3838983 12.3409323,19.9196187 C12.4281357,19.2461441 12.5209323,18.5438135 12.6880933,17.7725848 C10.3559747,17.7494492 10.3385595,16.4532203 10.3385595,16.1175 C10.3385595,15.7817797 10.3885171,15.609661 10.3885171,15.609661 C10.2865679,15.6805932 9.812034,16.051017 9.20733065,15.8716526 C10.3009323,15.5158475 10.2981357,14.427839 10.2981357,14.427839 L10.2981357,14.427839 L10.2981357,14.427839 Z M11.5624578,10.6705932 L9.8351696,11.8207627 L8.87605945,11.7903814 C8.87605945,11.5674152 8.98461875,9.6505932 11.6016103,8.4223729 C11.3841103,8.56792375 11.1957205,8.73864405 11.0027544,8.89538135 C10.5294917,9.27991525 9.81788145,9.9716949 9.81788145,10.3319491 C9.81775435,10.7748305 10.3950001,10.9398305 11.5624578,10.6705932 L11.5624578,10.6705932 L11.5624578,10.6705932 Z M19.4747035,11.4200847 C19.4964408,11.4200847 20.0605933,11.9120339 20.0605933,12.6223729 C20.0605933,12.8133051 20.170551,12.9753813 20.170551,12.9753813 L20.1358476,13.0506356 C20.1358476,13.0506356 20.0027543,12.9753813 19.9564831,12.9753813 C19.910212,12.9753813 19.8465256,13.0333475 19.6960171,13.0333475 C19.5455086,13.0333475 19.2504662,12.8481356 18.9321612,12.4894068 C18.9321612,12.4894068 18.9725848,12.4604238 19.0248307,12.4604238 C19.0768222,12.4604238 19.3257205,12.7093221 19.4936442,12.7093221 C19.6615679,12.7093221 19.6151696,12.6166525 19.8465256,12.6340678 C19.8465256,12.6340678 19.7886865,12.4604238 19.7886865,12.3388983 C19.7886865,11.831822 19.4588137,11.5431356 19.4588137,11.4882204 C19.4588137,11.4301271 19.4747035,11.4200847 19.4747035,11.4200847 L19.4747035,11.4200847 L19.4747035,11.4200847 Z M18.3592374,11.4211017 C18.3761442,11.4211017 18.6312713,11.7035593 18.7802543,11.7035593 C18.8651696,11.7035593 18.9001272,11.6645339 18.9886018,11.6645339 C18.9886018,11.6645339 18.9805934,11.6311017 18.9821188,11.588517 C18.9905086,11.4502119 19.0304239,11.3919916 19.0341103,11.2868644 C19.0388137,11.1550424 18.8899577,10.7825847 18.88589,10.7703813 C18.8692374,10.7209322 18.8921188,10.5888559 18.9119493,10.611356 C18.9872035,10.7016102 19.2822459,11.1727119 19.2822459,11.4908899 C19.2822459,11.6417797 19.2694069,11.7179238 19.2648306,11.8468221 C19.2602543,11.9757203 19.3336018,12.105 19.3336018,12.105 L19.3086865,12.1722458 C19.3086865,12.1722458 19.2055933,12.0291101 19.0319492,12.0291101 C18.844195,12.0291101 18.7694492,11.9899576 18.66089,11.8901695 C18.5523307,11.7903814 18.3092798,11.4658475 18.3100425,11.4475424 C18.3101696,11.4352118 18.3216103,11.4211017 18.3592374,11.4211017 L18.3592374,11.4211017 L18.3592374,11.4211017 Z M16.8619069,9.1472034 C16.8619069,9.1472034 16.6580086,9.3641949 16.6580086,9.9675 C16.6580086,10.8947034 17.1467798,11.4736017 17.6952967,11.4736017 C17.7776696,11.4736017 18.0640679,11.417161 18.0640679,11.417161 C18.0640679,11.417161 17.9166103,11.7948305 17.46089,11.7948305 C16.8619069,11.7948305 16.2195764,10.9788559 16.2195764,10.2800848 C16.2195764,9.46411015 16.8619069,9.1472034 16.8619069,9.1472034 L16.8619069,9.1472034 L16.8619069,9.1472034 Z M14.6194069,11.5155509 C14.6194069,11.4038136 14.6121612,11.3813135 14.6121612,11.2854661 C14.6121612,11.1896186 14.6914831,10.9796187 14.7394069,10.8832627 C14.8014408,10.7588135 15.1727544,10.3665254 15.2689831,10.2987712 C15.2942798,10.2821186 15.3110595,10.4044068 15.2884323,10.4448305 C15.2828391,10.4548729 15.2177543,10.5211017 15.1561018,10.6184746 C15.0800849,10.7383474 15.005212,10.9013135 15.005212,11.0155932 C15.005212,11.1067373 15.0561865,11.1425847 15.0605086,11.2629661 C15.0605086,11.2998305 15.0402967,11.3345339 15.0402967,11.3345339 C15.1581357,11.3345339 15.2092374,11.4242797 15.3556781,11.4242797 C15.7332204,11.4242797 15.979195,11.1957204 16.0501272,11.1957204 C16.0703391,11.1957204 16.1166103,11.2065254 16.1166103,11.2362712 C16.1166103,11.252161 15.9429662,11.386017 15.7114831,11.5183475 C15.5125425,11.6322457 15.2697459,11.7484322 15.0691526,11.7484322 C14.8131357,11.7484322 14.8390679,11.6992373 14.7422035,11.6992373 C14.645212,11.6992373 14.5193645,11.7947034 14.5193645,11.7947034 L14.4505934,11.7827542 C14.4509747,11.7827542 14.6194069,11.6272882 14.6194069,11.5155509 L14.6194069,11.5155509 L14.6194069,11.5155509 Z M13.4172459,12.4023305 C13.4341527,12.3639407 13.4524577,12.1271186 13.4954239,11.9625 C13.5294916,11.8319491 13.5833899,11.7781779 13.6314408,11.681822 C13.7510595,11.4415678 14.2155509,11.1198305 14.3215679,11.0452118 C14.3468645,11.0285593 14.3542374,11.0872881 14.3317374,11.1277119 C14.3162289,11.1555508 14.0757205,11.3467373 13.9411018,11.6124152 C13.8799577,11.7331779 13.8586018,11.8730085 13.8586018,12.0130932 C13.8586018,12.1201271 13.8354662,12.2055508 13.8354662,12.2055508 C14.0079662,12.2055508 14.1338137,12.3617797 14.2492374,12.3617797 C14.6267798,12.3617797 15.0377543,12.1310593 15.1085595,12.1310593 C15.1287713,12.1310593 15.2133052,12.1480932 15.2133052,12.1777118 C15.2133052,12.2073305 14.4488137,12.6756356 14.0148307,12.6756356 C13.7588137,12.6756356 13.5938137,12.5772457 13.4969493,12.5772457 C13.4000848,12.5772457 13.3377967,12.6381356 13.3377967,12.6381356 L13.2944493,12.5801695 C13.2943221,12.5802966 13.3869916,12.4712288 13.4172459,12.4023305 L13.4172459,12.4023305 L13.4172459,12.4023305 Z M12.087712,12.9036865 C12.1288984,12.8407627 12.2281781,12.4558475 12.3711866,12.2591949 C12.4291527,12.1796187 12.7658899,11.9419068 12.7878814,11.9263983 C12.8124153,11.908983 12.8572882,11.9538559 12.8284323,11.9899576 C12.7994492,12.0261865 12.7083052,12.0869492 12.6359747,12.2388559 C12.5636442,12.3907627 12.5563984,12.5628813 12.5260171,12.6338135 C12.4956357,12.7047458 12.4479662,12.7625848 12.4479662,12.7625848 C12.7719916,12.7625848 12.6775425,13.0793644 13.3160594,13.0793644 C13.4375848,13.0793644 14.049534,12.9838983 14.049534,12.9838983 L14.2404662,13.1097458 C14.2404662,13.1097458 13.6111018,13.4005932 13.025212,13.4005932 C12.4957629,13.4005932 12.3221188,13.127161 12.0269493,13.131483 C11.9879239,13.131483 11.8186018,13.1661864 11.8186018,13.1661864 L11.7925425,13.1358051 C11.7925425,13.1358051 12.0465256,12.9666101 12.087712,12.9036865 L12.087712,12.9036865 L12.087712,12.9036865 Z M10.518051,13.6147882 C10.518051,13.6147882 10.664873,13.5760169 10.7003391,13.395 C10.7900849,12.9363559 11.0504239,12.9233898 11.1936866,12.7887712 C11.2248307,12.7619491 11.2460595,12.8026271 11.22839,12.8213135 C11.1872035,12.864661 11.1589832,12.949322 11.1589832,12.9797034 C11.1589832,13.0100848 11.1828815,13.1033898 11.1828815,13.1490254 C11.1828815,13.2748729 11.0417798,13.3877543 11.0417798,13.3877543 C11.3748307,13.3877543 11.2988137,13.626483 11.7883476,13.626483 C11.905551,13.626483 11.9445764,13.6090678 12.0010171,13.6090678 C12.0574578,13.6090678 12.1963984,13.6394492 12.3438561,13.7891949 C12.0010171,13.8325424 11.8816527,13.9475848 11.5062713,13.9475848 C10.8856781,13.9475848 10.8682629,13.6763135 10.5861866,13.6763135 C10.5579662,13.6763135 10.5531357,13.6942373 10.5259323,13.6942373 C10.498729,13.6942373 10.4776273,13.6844492 10.4776273,13.6545762 C10.4775001,13.6247034 10.518051,13.6147882 10.518051,13.6147882 L10.518051,13.6147882 L10.518051,13.6147882 Z M9.1812713,15.5909746 C8.71538145,15.5909746 8.49838995,14.8791102 8.49838995,14.8791102 C8.49838995,14.8791102 8.70966115,15.2157203 8.99211875,15.2157203 C9.1950001,15.2157203 9.7484747,14.7536441 9.7484747,14.0225848 C9.7484747,13.5682627 9.6442374,13.3744068 9.6442374,13.3744068 C9.6442374,13.3744068 10.0493646,13.8667373 10.0493646,14.3032627 C10.0492374,15.1197457 9.4628391,15.5909746 9.1812713,15.5909746 L9.1812713,15.5909746 L9.1812713,15.5909746 Z" id="Shape" fill="#D69F0F"></path>
        <path d="M8.7992798,8.99961865 L8.9411442,9.6448729 C9.2159747,9.20211865 10.894195,6.9047034 14.1146188,6.92072035 L14.5760594,6.43817795 L12.1614408,6.43754235 L10.1027543,8.08817795 L11.9220764,5.9536017 L14.8697035,5.95322035 L14.8697035,5.102161 L11.660212,5.102161 L8.7992798,8.99961865 L8.7992798,8.99961865 L8.7992798,8.99961865 Z" id="Shape" fill="#D69F0F"></path>
        <path d="M21.6105509,12.2197881 L21.606229,15.3652118 C23.0253814,16.5333051 23.8972883,18.2478814 23.8972883,20.1952118 C23.8972883,22.8912712 22.26089,25.127161 19.7717798,26.0919915 C19.2401696,26.9741949 18.787373,28.1994916 19.1866527,29.0032627 C23.5442798,28.0969068 26.5534323,24.5780084 26.5534323,20.1973729 C26.5535595,16.7017373 24.596695,13.7386017 21.6105509,12.2197881 L21.6105509,12.2197881 L21.6105509,12.2197881 Z M25.4265255,17.8394492 C25.4265255,17.8394492 25.4722883,17.9586864 25.4908476,18.1390678 C25.5115679,18.3401695 25.5377543,18.5729238 25.4056781,18.8159746 C25.3752967,18.8719068 25.3112289,18.9240254 25.2780509,18.9849153 C25.1771188,19.1705084 25.2066103,19.309322 25.2066103,19.309322 C25.2066103,19.309322 25.1518221,19.1420339 25.07339,19.0862288 C24.9950849,19.0305509 24.9569492,19.0376695 24.7555934,18.8689831 C24.5007205,18.6554238 24.3982629,18.045 24.3982629,18.045 C24.6075001,18.0598729 24.763856,18.4264831 25.0127544,18.3913983 C25.2160171,18.3626695 25.2294916,17.9064407 25.4265255,17.8394492 L25.4265255,17.8394492 L25.4265255,17.8394492 Z M24.9307628,16.5922882 C24.9307628,16.5922882 24.995212,16.7027543 25.0425001,16.8776695 C25.0952543,17.0729238 25.1585595,17.2984322 25.0671611,17.5595339 C25.0461866,17.619661 24.9912713,17.6813135 24.96839,17.7469068 C24.8986018,17.9462288 24.9500848,18.0784322 24.9500848,18.0784322 C24.9500848,18.0784322 24.8691103,17.9220762 24.7827968,17.8796187 C24.6964832,17.8372881 24.6600001,17.8505084 24.4342374,17.7163983 C24.1483476,17.5465678 23.9491527,16.9604238 23.9491527,16.9604238 C24.1581357,16.9416101 24.3714408,17.2783474 24.6113137,17.2036017 C24.8070764,17.1425848 24.7470764,16.6901695 24.9307628,16.5922882 L24.9307628,16.5922882 L24.9307628,16.5922882 Z M21.6838984,13.7449576 C21.6838984,13.7449576 22.9136442,14.1905084 22.9136442,14.5377966 C22.9136442,14.6708899 22.8325425,14.7402966 22.7168645,14.7402966 C22.3233052,14.7402966 21.6838984,13.7449576 21.6838984,13.7449576 L21.6838984,13.7449576 L21.6838984,13.7449576 Z M22.5453814,15.0868221 C22.7363137,15 23.0488984,15.2475 23.2506357,15.0976271 C23.4155086,14.9754661 23.2094493,14.5680509 23.3504239,14.4151271 C23.3504239,14.4151271 23.4477968,14.4981356 23.5501273,14.6476271 C23.6642798,14.8145339 23.798517,15.006483 23.798517,15.2830932 C23.798517,15.3467797 23.7671188,15.4231779 23.7671188,15.4924577 C23.7671188,15.7037288 23.8594069,15.8115254 23.8594069,15.8115254 C23.8594069,15.8115254 23.7312713,15.6907627 23.6358052,15.6791949 C23.5403391,15.6675 23.5103391,15.692161 23.2527968,15.6400423 C22.9268645,15.574322 22.5453814,15.0868221 22.5453814,15.0868221 L22.5453814,15.0868221 L22.5453814,15.0868221 Z M23.3327544,15.9577119 C23.53589,15.905339 23.8009323,16.203178 24.025551,16.0905508 C24.2088561,15.998644 24.0765256,15.5619916 24.2419069,15.4357627 C24.2419069,15.4357627 24.3235171,15.5342797 24.3982629,15.6992796 C24.4819069,15.8833475 24.5809323,16.0956356 24.5330086,16.3681779 C24.5219493,16.4308475 24.4778391,16.5006356 24.4658899,16.5690254 C24.4292798,16.7771186 24.5013561,16.8991526 24.5013561,16.8991526 C24.5013561,16.8991526 24.3962289,16.758178 24.304195,16.7300847 C24.212034,16.7022457 24.1783476,16.7213136 23.9336442,16.625339 C23.6241103,16.5039407 23.3327544,15.9577119 23.3327544,15.9577119 L23.3327544,15.9577119 L23.3327544,15.9577119 Z M20.6555086,27.3535169 C20.5332205,27.6785593 19.2254239,27.6629238 19.2254239,27.6629238 C19.2254239,27.6629238 20.1742374,26.956144 20.5425001,27.0947034 C20.6509323,27.1353814 20.7022883,27.2288136 20.6555086,27.3535169 L20.6555086,27.3535169 L20.6555086,27.3535169 Z M21.6842798,26.8033475 C21.659873,26.8684322 21.6624153,26.9508051 21.6399154,27.0104238 C21.5425425,27.2694916 21.3494493,27.401822 21.1836865,27.5177542 C21.0353391,27.6217373 20.9150849,27.6652118 20.9150849,27.6652118 C20.8369069,27.4723729 21.1730086,27.1637288 21.0617798,26.9912288 C20.9256357,26.7800848 20.5459323,26.9016101 20.397712,26.7531356 C20.397712,26.7531356 20.9263984,26.4311441 21.2546188,26.4841526 C21.5140679,26.5261017 21.5333899,26.559661 21.6269493,26.5824153 C21.7203815,26.6051695 21.8828391,26.537161 21.8828391,26.537161 C21.8828391,26.537161 21.7585171,26.605678 21.6842798,26.8033475 L21.6842798,26.8033475 L21.6842798,26.8033475 Z M22.8743646,25.9305508 C22.8617798,25.9988136 22.8789408,26.0795339 22.8675001,26.1422034 C22.8175425,26.4143644 22.651017,26.578856 22.5085171,26.7223729 C22.3808899,26.851017 22.2701696,26.9152118 22.2701696,26.9152118 C22.1590679,26.7391526 22.4350425,26.3758474 22.2949578,26.2258474 C22.1234747,26.042161 21.7716103,26.2291525 21.5993645,26.1094068 C21.5993645,26.1094068 22.0624577,25.6986865 22.3950001,25.6925848 C22.6576272,25.6878814 22.6827968,25.7173729 22.7787713,25.7232203 C22.874873,25.7290678 23.0224577,25.6333474 23.0224577,25.6333474 C23.0224577,25.6333474 22.912373,25.722839 22.8743646,25.9305508 L22.8743646,25.9305508 L22.8743646,25.9305508 Z M23.8131357,25.1279238 C23.8150425,25.404661 23.6820764,25.5973729 23.5689408,25.7650424 C23.4675001,25.9154237 23.3707629,25.9989407 23.3707629,25.9989407 C23.2286442,25.8469068 23.4319069,25.4383474 23.2663984,25.3172034 C23.0636442,25.1687288 22.7528391,25.4182627 22.5612713,25.3327118 C22.5612713,25.3327118 22.9395764,24.8427966 23.2650001,24.774661 C23.5221612,24.7207627 23.5522882,24.7452966 23.6477543,24.7330932 C23.7432205,24.7207627 23.8704662,24.5991102 23.8704662,24.5991102 C23.8704662,24.5991102 23.7789408,24.7076695 23.7803391,24.9188135 C23.7807204,24.9880932 23.8127544,25.0642373 23.8131357,25.1279238 L23.8131357,25.1279238 L23.8131357,25.1279238 Z M24.4310595,24.6714407 C24.354534,24.8358051 24.2722883,24.9336864 24.2722883,24.9336864 C24.108051,24.8059322 24.2443222,24.3702966 24.0617798,24.2768644 C23.838051,24.1623305 23.5704662,24.4576271 23.3678391,24.4033474 C23.3678391,24.4033474 23.6641527,23.8599153 23.9748306,23.7413136 C24.2202968,23.6477542 24.253856,23.6669492 24.3462713,23.6398729 C24.4385594,23.6127966 24.5449578,23.4725847 24.5449578,23.4725847 C24.5449578,23.4725847 24.4717374,23.5941101 24.5063137,23.8024577 C24.5177543,23.8709746 24.561356,23.941144 24.5717798,24.0039407 C24.6172883,24.2767373 24.5163561,24.4881356 24.4310595,24.6714407 L24.4310595,24.6714407 L24.4310595,24.6714407 Z M25.0955086,23.4176695 C25.0521611,23.5937288 24.9902543,23.7055932 24.9902543,23.7055932 C24.8044069,23.6119068 24.8544916,23.1582204 24.6573307,23.1015254 C24.4158052,23.0321187 24.209873,23.3734322 24.0006357,23.3590678 C24.0006357,23.3590678 24.1868646,22.7687288 24.4690679,22.5926695 C24.6919069,22.4536017 24.7286442,22.4660593 24.8140679,22.4216949 C24.8993646,22.3773305 24.9767798,22.219322 24.9767798,22.219322 C24.9767798,22.219322 24.9282204,22.3526695 25.0024578,22.550339 C25.0267374,22.6154238 25.0830509,22.675678 25.1054238,22.7354237 C25.2024154,22.9946186 25.1439408,23.2213983 25.0955086,23.4176695 L25.0955086,23.4176695 L25.0955086,23.4176695 Z M25.5324153,22.1547458 C25.5172882,22.3353813 25.4736865,22.4555084 25.4736865,22.4555084 C25.2753814,22.3922034 25.25339,21.9363559 25.0497459,21.9115678 C24.800212,21.8810593 24.6507205,22.2505932 24.4418646,22.2694068 C24.4418646,22.2694068 24.5327543,21.6570762 24.7835595,21.4386864 C24.9818645,21.2663135 25.0200001,21.2727966 25.0972883,21.2155932 C25.1745764,21.1582627 25.2263137,20.9900848 25.2263137,20.9900848 C25.2263137,20.9900848 25.1993646,21.1292797 25.3037289,21.3129661 C25.338051,21.3733475 25.4030086,21.4241949 25.434534,21.4794915 C25.5711865,21.72 25.5491951,21.9531356 25.5324153,22.1547458 L25.5324153,22.1547458 L25.5324153,22.1547458 Z M25.2254239,20.6748305 C24.9713137,20.6748305 24.7653814,20.4645763 24.7653814,20.205 C24.7653814,19.9455509 24.9713137,19.7352966 25.2254239,19.7352966 C25.479534,19.7352966 25.6854662,19.9455509 25.6854662,20.205 C25.6854662,20.4644492 25.479534,20.6748305 25.2254239,20.6748305 L25.2254239,20.6748305 L25.2254239,20.6748305 Z" id="Shape" fill="#D69F0F"></path>
        <path d="M19.4052968,16.2434746 L19.9086866,16.4691101 L19.8349577,15.6662288 C19.8349577,15.6662288 18.8968222,14.7733475 18.1466951,15.4145339 C17.9079662,15.6184322 17.1744917,16.5415678 17.1744917,16.5415678 C16.824534,15.8312288 16.0301696,15.383517 14.9393645,15.3579661 C14.418051,15.3458899 13.7979662,15.4347458 13.0643645,15.6083899 C12.1582629,15.8225848 11.4816103,16.088644 11.4816103,16.088644 C11.4816103,16.088644 11.3369493,16.253517 11.3369493,16.5110593 C11.3369493,17.315339 12.6766526,17.3211864 12.8907205,17.3211864 C13.1047883,17.3211864 13.4375849,17.3066949 13.4375849,17.3066949 L13.107712,18.7824152 L14.3605934,18.9574577 C14.3605934,18.9574577 13.3826696,21.0132204 13.3826696,22.6510169 C13.3826696,22.7675848 13.4523307,23.0927542 13.6112289,23.2527966 C13.7441951,23.3960593 14.3030086,23.9499153 14.7570764,24.3551695 C14.8901696,24.4740254 15.0278391,24.5932627 15.1433899,24.6828814 C15.231356,24.7511441 15.3068646,24.7997034 15.3560595,24.8326271 C15.4596611,24.9020339 15.5603391,24.9367373 15.639534,24.9367373 C16.3235594,24.9367373 16.7766103,24.8351695 17.0862713,24.7458051 C17.240212,24.7013136 17.5405934,24.5697458 17.6150848,24.489661 C17.701017,24.3973729 17.7287289,24.1648729 17.7287289,24.1266102 C17.7287289,23.8487288 17.6534747,23.3800424 16.5944493,23.3800424 C15.5354238,23.3800424 15.0999154,23.7736017 15.0999154,23.7736017 L15.3343222,23.0097458 C15.3343222,23.0097458 15.3924154,22.9138983 15.6034323,22.8404237 C15.7821612,22.7782627 16.0703391,22.7363136 16.5322882,22.7363136 C16.9315679,22.7363136 17.6389832,22.8186865 17.6389832,22.8186865 L17.5869917,22.1373305 L17.1615256,22.2155085 L16.1806781,22.0636017 L14.0597035,22.1244916 L13.9613137,22.0405932 L16.5452543,21.5602119 L17.113856,21.6860593 L17.5826696,21.573178 L17.3309747,21.3301271 L17.0487713,21.4516525 L16.9967798,20.8744068 L15.4428815,20.6183899 L16.6625849,20.1799576 L17.4350848,20.4838983 L18.0209747,20.2016949 L17.378517,17.6931356 L17.6258899,16.9292797 L19.4052968,16.2434746 L19.4052968,16.2434746 L19.4052968,16.2434746 Z M16.4379662,17.8421186 L15.4108476,17.703178 L15.9547883,17.2719915 L15.259195,17.0755932 C15.259195,17.0755932 15.0617798,17.4109322 14.7080086,17.4109322 C14.237034,17.4109322 14.0970764,16.89 14.0970764,16.89 L11.6232205,16.5688983 L14.4986442,16.0979237 L16.8429662,17.0463559 L16.4379662,17.8421186 L16.4379662,17.8421186 L16.4379662,17.8421186 Z" id="Shape" fill="#FFFFFF"></path>
        <path d="M18.8019917,21.6687712 L18.6587289,21.3344492 L18.2247459,20.8397034 L18.7933476,20.3665678 L18.4526696,19.6483474 L18.0640679,18.3961017 L18.2984747,17.5497457 C18.2984747,17.5497457 18.4503815,17.7927966 18.6891103,17.7927966 C19.0493645,17.7927966 19.1622459,17.2676695 19.1622459,17.2676695 L19.6440256,17.170678 L19.5166526,17.6220762 C19.5166526,17.6220762 19.9405933,18.4423729 19.9405933,18.7447882 L19.427034,19.5982627 L18.8019917,21.6687712 L18.8019917,21.6687712 L18.8019917,21.6687712 Z" id="Shape" fill="#FFFFFF"></path>
        <polygon id="Shape" fill="#FFFFFF" points="16.2597459 27.2187712 16.6231781 25.9655085 15.4122459 25.7963136 14.8871187 26.265"></polygon>
    </g>
</svg>