<?xml version="1.0" encoding="UTF-8"?>
<svg width="30px" height="30px" viewBox="0 0 30 30" version="1.1" xmlns="http://www.w3.org/2000/svg" xmlns:xlink="http://www.w3.org/1999/xlink">
    <!-- Generator: Sketch 50.2 (55047) - http://www.bohemiancoding.com/sketch -->
    <title>sharks</title>
    <desc>Created with Sketch.</desc>
    <defs></defs>
    <g id="sharks" stroke="none" stroke-width="1" fill="none" fill-rule="evenodd">
        <g id="Group" transform="translate(14.630201, 14.650279) scale(1, -1) translate(-14.630201, -14.650279) translate(-0.869799, 1.650279)">
            <path d="M20.3827482,4.80851564 C20.329813,4.88657768 20.2031941,4.92469714 20.1523896,5.06033126 C20.1289758,5.12153402 20.1140795,5.19855872 20.0616789,5.22500817 C20.0616789,5.22500817 19.8552583,4.91666039 19.9534171,4.45763972 C20.1640912,4.40732899 20.3771594,4.61816729 20.3771594,4.61816729 C20.3771594,4.61816729 20.419723,4.75405815 20.3827482,4.80851564 M19.1141681,5.21515349 C18.8582677,5.11816009 18.7766011,4.93429249 18.7766011,4.93429249 C18.7766011,4.93429249 18.8287383,4.89487636 18.8782181,4.82408085 C18.9276952,4.75328015 18.9404662,4.65291801 18.9436556,4.62153863 C18.946845,4.59042118 19.2181738,4.6267279 19.2181738,4.6267279 C19.2947862,4.64539733 19.5059923,5.1998528 19.5059923,5.1998528 C19.5059923,5.1998528 19.5506813,5.32355498 19.5299302,5.35000961 C19.5089184,5.37671839 19.3705953,5.31266037 19.1141681,5.21515349" id="path2628" fill="#FFFFFF"></path>
            <path d="M26.3825142,19.363104 L24.8934124,19.0736876 C24.8338297,19.0620175 18.8790161,17.9180966 15.1251391,17.9180966 C11.417547,17.9180966 5.57738468,19.0267482 5.33053375,19.0739495 L3.43896222,19.4256008 L15.1123708,1.03650944 L26.7990823,19.4559455 L26.3825142,19.363104 L26.3825142,19.363104 Z" id="path2630" fill="#010101"></path>
            <path d="M24.9793324,18.6092209 C24.7324761,18.5615061 18.8904544,17.4450719 15.1251391,17.4450719 C11.3749861,17.4450719 5.49465414,18.5615061 5.24620717,18.6089642 L4.41520434,18.7694865 L15.1123708,2.14723571 L25.8095372,18.7705291 L24.9793324,18.6092209 L24.9793324,18.6092209 Z" id="path2632" fill="#F28F20"></path>
            <path d="M25.005135,18.4681459 L25.005135,18.4681459 C24.7580154,18.420426 18.9077474,17.301401 15.1251391,17.301401 C11.3619518,17.301401 5.46725818,18.4206827 5.21827388,18.4681459 L4.71446112,18.5656528 L15.1123708,2.40812542 L25.5102804,18.5664308 L25.005135,18.4681459 L25.005135,18.4681459 Z" id="path2634" fill="#05535D"></path>
            <path d="M24.6720954,18.0560621 C23.682553,17.8758226 18.5712498,16.9767152 15.1251391,16.9767152 C11.6803637,16.9767152 6.58262412,17.8999432 5.59547575,18.0848455 L5.47364233,18.1076721 L15.1126394,3.13996515 L24.7936602,18.0781029 L24.6720954,18.0560621 L24.6720954,18.0560621 Z" id="path2636" fill="#FFFFFF"></path>
            <path d="M4.04305925,19.0314162 L8.24276508,12.5016527 C8.24276508,12.5016527 7.93339741,15.1577512 9.41185892,15.8234556 C10.8903257,16.4894272 12.6645833,17.791023 12.6645833,17.791023 L4.04305925,19.0314162 L4.04305925,19.0314162 Z" id="path2638" fill="#010101"></path>
            <path d="M23.9187663,15.181864 C22.34587,14.5241963 21.9742649,14.3115453 21.8641358,14.1665751 C21.8641358,14.1665751 21.8609437,14.1616478 21.8593477,14.1598324 C20.7173838,15.1336331 19.4541238,16.0700845 18.2805026,16.8084076 C18.2805026,16.8084076 19.048728,16.8377123 18.8992299,16.9308131 C18.7236686,17.295955 18.4956988,17.6826216 18.224378,18.0967775 C17.771899,18.0970394 16.063079,17.9180966 15.1251391,17.9180966 C14.6838324,17.9180966 14.2122064,17.9339133 13.7238193,17.9616646 C13.7631855,17.8729699 13.7975056,17.787395 13.8251676,17.7044056 C13.532827,17.6823596 12.7919975,17.516648 12.5847815,17.4896773 C12.3403219,17.4577792 11.9218945,17.3672718 11.5997612,17.2736523 C8.87053931,16.7059682 7.90945953,15.4531297 7.86636389,15.3815536 L7.90972554,15.2970082 L7.93313407,15.1608606 C7.93100868,15.1411512 8.32389692,15.1250725 8.32389692,14.8730001 C8.32389692,14.2856093 8.67795361,13.0223948 9.18202971,11.8206424 C8.89873861,11.7957464 10.842442,8.21538517 10.5232348,8.22342192 L10.7607808,7.89147477 C12.561905,7.43972064 13.1939326,7.37644062 14.8668472,7.41119393 C14.8668472,7.41119393 14.9583559,7.41300408 15.0495907,7.41482201 C15.4818505,7.13914768 15.9694422,6.82820916 16.4455903,6.54657534 C16.7318155,6.37723043 17.109278,6.14045616 17.5090824,5.88968047 C17.6782649,5.78361298 18.1783562,6.00404404 18.3350365,5.9067939 C18.3350365,5.9067939 24.1134828,14.9632509 24.1501916,15.2809321 C24.1501916,15.2809321 23.992716,15.2127273 23.9187663,15.181864" id="path2640" fill="#FFFFFF"></path>
            <path d="M8.4462597,12.0781634 C8.47791707,11.995174 8.5569182,11.8657691 8.61836826,11.7231329 C9.11393483,11.7231329 9.47410699,11.8068977 9.79065416,11.8177871 C9.79065416,11.8177871 11.1776069,10.4132358 11.2058062,10.9246418 C11.2340029,11.4352725 10.3479368,12.4788339 9.55364279,12.3636898 C8.75908278,12.2482837 8.33719722,12.4477113 8.4462597,12.0781634" id="path2642" fill="#05535D"></path>
            <path d="M26.5759006,7.70890643 C26.2386049,8.44307757 26.1883298,8.58986304 26.1883298,8.58986304 C26.1883298,8.58986304 25.9013119,9.86526623 25.6690887,10.1458653 C25.4371287,10.4267237 25.0362603,10.5991806 25.0362603,10.5991806 C25.0362603,10.5991806 24.9918347,10.6559747 24.9115008,10.7550402 C25.2655575,11.3634371 25.8531648,12.4477113 26.3625637,13.7404898 C27.1536656,15.7485133 27.4859098,16.6063893 27.2172411,16.5093959 C26.948043,16.4121457 25.1133994,15.4730983 23.9897899,15.0037043 C22.8669758,14.5340484 22.1232256,14.1938052 22.0128305,14.0483215 C21.963622,13.9834881 21.9301079,13.9287635 21.8939285,13.8802707 C20.8237835,14.805314 19.5153025,15.8053048 18.1820777,16.6442494 C16.4314947,17.745121 16.1998034,17.8530038 15.3767808,17.9178372 C14.5542875,17.9826707 13.1000352,17.8976066 12.3985773,17.8063237 C12.1323052,17.771573 11.8407626,17.7010342 11.5686358,17.6219401 C8.87984686,17.0669659 7.86636389,15.3815536 7.86636389,15.3815536 C7.86636389,15.3815536 7.70543291,13.7952067 8.4462597,12.0781634 C8.94182627,12.0781634 9.33232578,12.1536243 9.6486096,12.1645189 C11.3563683,11.1624534 11.1265391,10.7148435 10.5985171,10.4360623 C11.3960032,9.86500689 12.7220379,8.80147935 12.9694262,8.72004857 C13.3649772,8.5888283 13.753612,8.41740353 13.945937,8.31652532 C14.4675722,8.04111551 15.5273402,7.31264453 16.5397591,6.71332433 C17.5521781,6.11426346 19.6554877,4.70504668 20.1457368,4.62413197 C20.6359859,4.54321985 21.3334511,4.42626035 21.7130444,4.44259837 C22.0921029,4.45841773 22.3190061,4.54840652 22.3190061,4.54840652 C22.3190061,4.54840652 22.8331931,4.39721497 23.3391392,4.39721497 C23.845612,4.39721497 24.2113703,4.59223133 24.2113703,4.59223133 C24.2113703,4.59223133 24.5909636,4.36557626 25.4134569,4.30074283 C25.4134569,4.30074283 25.9523851,4.25691543 26.4585946,4.26313944 C26.9812937,4.25146943 27.3614164,4.34093956 27.4202037,4.41251566 C27.5162345,4.52947776 26.9134622,6.97499204 26.5759006,7.70890643" id="path2644" fill="#010101"></path>
            <path d="M22.4700975,4.90058429 C22.0684257,4.90032237 21.3470201,4.8998037 21.0560068,4.95167044 L20.9288586,4.97397055 L21.0403151,5.04114057 C21.2063029,5.14176205 21.3972952,5.26105556 21.519392,5.3575277 C21.0485586,5.33807767 20.285656,5.36271437 20.0568908,5.42132379 L19.9725669,5.44284589 L20.0364084,5.50378931 C20.0978557,5.56266066 20.1901598,5.6360521 20.2877814,5.71333095 C20.3925931,5.79658226 20.504845,5.8868278 20.5835801,5.96255583 C20.2401663,5.92572526 19.7211912,5.88293779 19.4660914,5.8930518 L19.3618197,5.89694181 L19.4514611,5.99444869 C19.5278048,6.07717614 19.6711821,6.23355696 19.7398116,6.36218908 C19.7360875,6.36140848 19.7254473,6.35959315 19.7254473,6.35959315 C19.447471,6.31161641 19.0668164,6.24548372 18.9066781,6.25145358 L18.8189014,6.25456299 L18.8691739,6.32795443 C18.9409982,6.43116925 19.0138785,6.539314 19.0622943,6.62048026 C19.0269155,6.61373759 18.9904727,6.60647624 18.9904727,6.60647624 C18.7896408,6.56420744 18.5401244,6.51104403 18.4055281,6.55357476 L18.3416839,6.57354086 L18.3813188,6.6285222 C18.4579286,6.73536769 18.4895833,6.80876172 18.5047483,6.85802994 C18.3571123,6.82016981 18.1195663,6.77426775 17.9860312,6.83028383 L17.9203304,6.85751387 L17.9706055,6.9093832 C18.0086444,6.94828067 18.0426958,7.01181743 18.0626436,7.06498084 C17.4939227,7.07042425 17.16727,6.9723987 17.16727,6.9723987 C18.0530647,6.93998199 18.9492417,5.60155812 19.181465,5.35338095 C19.4134249,5.10519859 20.109294,4.78103145 20.9847198,4.68403805 C21.6505329,4.61012535 22.1171048,4.69752341 22.2511772,4.72812478 C22.3224642,4.77480485 22.3953498,4.83237693 22.4700975,4.90058429" id="path2646" fill="#FFFFFF"></path>
            <path d="M21.7438984,5.76364169 C20.7844173,6.27063909 20.2042582,6.73484902 19.0444719,6.96150669 C18.7119643,7.02659945 18.415365,7.05512615 18.1621299,7.06290617 C18.1453688,7.00818675 18.1169089,6.950874 18.0865842,6.9047126 C18.2084123,6.89018992 18.3980799,6.92623471 18.5531587,6.97188003 L18.6138055,6.98925799 L18.6138055,6.92494323 C18.6138055,6.8808565 18.5930623,6.78567843 18.5007582,6.63837429 C18.6263131,6.63033754 18.8202288,6.66975626 18.9710542,6.70191364 L19.2314741,6.75222438 L19.1958293,6.66820026 C19.1689627,6.60440417 19.0979391,6.49392801 19.0011129,6.35129447 C19.1846597,6.36477982 19.4932214,6.41794323 19.7094869,6.45528729 L19.8839869,6.48537 L19.8637704,6.41171922 C19.8270616,6.27712503 19.6831523,6.10778012 19.5764839,5.98926461 C19.8592483,5.99108254 20.3407193,6.03127926 20.6982287,6.0730294 L20.8017077,6.08496134 L20.7426544,5.99730136 C20.6785469,5.90083182 20.5096304,5.76649436 20.3460394,5.63682751 C20.2832619,5.58677869 20.2266027,5.54087663 20.1757955,5.49808916 C20.4896826,5.45270317 21.2313101,5.4314378 21.6470722,5.46073992 L21.7622528,5.46851993 L21.6861777,5.37983039 C21.6055779,5.28621093 21.4100635,5.15576607 21.2065689,5.03025115 C21.5459952,4.99705384 22.1455702,4.99757251 22.4889839,4.99783443 L22.7057815,4.99809117 L22.6243837,4.91510698 C22.5876748,4.87698233 22.5070723,4.79581088 22.4012019,4.71489876 C22.5592095,4.68248205 22.8520795,4.62698464 23.0303089,4.61920463 C23.3253069,4.60701594 23.6735114,4.57615523 24.0427278,4.66225402 C23.5258754,4.89954696 22.7033848,5.25613081 21.7438984,5.76364169" id="path2648" fill="#FFFFFF"></path>
            <path d="M14.108996,14.6689045 C14.108996,14.6689045 14.6572345,14.2586386 15.2267507,13.5031995 C15.7965409,12.7475011 16.1758629,12.1645189 16.0705271,12.0996855 C15.9651834,12.034852 15.5433005,12.2293523 15.5433005,12.2293523 C15.5433005,12.2293523 16.4604867,11.6479261 17.3042631,10.892487 C18.1474995,10.1365267 18.5800254,9.7034394 18.5800254,9.7034394 C18.5800254,9.7034394 19.9512838,9.72522343 20.0986538,9.37953419 C20.2465531,9.03410169 20.3098626,8.88316947 20.4152009,8.68866919 C20.5205367,8.49443083 21.1746455,7.52296417 21.2587061,7.52296417 C21.343296,7.52296417 21.5983958,7.52425824 21.6617052,7.58909167 C21.725012,7.65418702 21.8282223,7.86839926 21.8282223,7.86839926 C21.8282223,7.86839926 21.9128149,7.39329731 21.7438984,7.15600697 C21.9104208,7.0255647 23.4745389,5.99574795 24.8354231,5.4091351 C26.0199506,4.8990231 27.082642,4.4851291 27.1879804,4.59326866 C27.2935848,4.70115148 26.7211425,6.8538832 26.3838442,7.58779759 C26.0462826,8.32171458 25.9960048,8.46875161 25.9960048,8.46875161 C25.9960048,8.46875161 25.7089869,9.74415998 25.4767636,10.0247539 C25.2450724,10.3056149 24.844204,10.4783311 24.844204,10.4783311 C24.844204,10.4783311 23.8110339,11.7975643 22.6296985,12.9202173 C21.4489004,14.0428729 19.7400776,15.4220096 17.9900213,16.5231431 C16.2391696,17.6242689 16.0074837,17.7321517 15.1847244,17.7967284 C14.3622311,17.8615618 13.0548141,17.7344883 12.3589424,17.6050808 C11.6628046,17.4754139 10.7344409,17.1302382 10.7344409,17.1302382 C10.7344409,17.1302382 11.6838164,16.6766661 12.6749602,15.8779183 L14.108996,14.6689045 L14.108996,14.6689045 Z" id="path2650" fill="#05535D"></path>
            <path d="M19.4344367,8.93710829 C19.4344367,8.93710829 19.8033844,8.59168097 20.0249701,8.2680325 C20.2465531,7.94386537 20.6155035,7.35024792 20.6155035,7.35024792 C20.6155035,7.35024792 20.1196709,7.57690558 19.9829411,7.65263102 C19.845948,7.72835646 19.7299668,7.81445525 19.7299668,7.81445525 C19.7299668,7.81445525 19.5716932,8.18141505 19.5294009,8.40807011 C19.4871059,8.63498711 19.4344367,8.93710829 19.4344367,8.93710829" id="path2652" fill="#F28F20"></path>
            <path d="M16.8217044,9.92698505 L17.0738179,9.57377254 C17.0738179,9.57377254 16.7978875,8.43348741 16.8310717,8.09349833 C16.8310717,8.09349833 16.6276707,8.91039951 16.8217044,9.92698505" id="path2654" fill="#05535D"></path>
            <path d="M16.2127179,10.5071146 L16.4761057,10.1015192 C16.4761057,10.1015192 16.2342704,8.83882081 16.295289,8.41014219 C16.295289,8.41014219 16.0103459,9.34063673 16.2127179,10.5071146" id="path2656" fill="#05535D"></path>
            <path d="M15.607451,11.0348613 L15.8729727,10.6816487 C15.8729727,10.6816487 15.6633257,9.35956809 15.7251174,8.792662 C15.7251174,8.792662 15.3969603,9.78824671 15.607451,11.0348613" id="path2658" fill="#05535D"></path>
            <path d="M14.2249742,13.0929333 C14.2249742,13.0929333 12.042126,14.4964473 10.6080902,14.8955645 C9.17378569,15.2949358 9.04743282,15.3491365 8.96284291,15.2840464 C8.878519,15.2194697 8.63619016,15.035864 8.63619016,15.035864 C8.63619016,15.035864 8.84686428,15.4676521 8.95246867,15.4676521 C9.05807572,15.4676521 9.94387048,15.3164631 11.1986236,14.8200984 C12.4296968,14.3328103 13.4660616,13.6219715 14.2249742,13.0929333" id="path2684" fill="#05535D"></path>
            <path d="M9.64328633,12.0081404 C9.64328633,12.0081404 8.32974856,11.8696588 5.89366269,11.7724086 C3.4575848,11.6751585 0.861629314,11.6531125 0.849659043,11.6035824 C0.80230997,11.4093388 3.98959686,9.91635208 7.83710273,8.87435183 C11.9902575,7.74988087 12.5376979,7.55538059 14.8631226,7.60387599 C14.6258479,7.94386508 14.3571792,8.21901555 13.8983214,8.59168068 C13.4394584,8.9640813 11.2092638,11.1660812 9.64328633,12.0081404" id="path2686" fill="#010101"></path>
            <path d="M13.6293867,14.5986248 C13.6293867,14.5986248 14.8788143,14.8255418 16.3027499,14.550132 C17.7264115,14.2749763 20.1715389,13.3828684 20.3167782,13.4759718 C20.570016,13.6375315 18.4704277,17.7827241 16.5583817,20.1289161 C14.8522164,22.2225172 12.3956507,24.3498316 10.5767041,25.1592121 C10.379325,25.2471288 12.1110243,22.2284844 12.8225904,20.2370609 C13.5344198,18.2453754 13.4157812,17.2378639 13.4157812,17.2378639 C13.4157812,17.2378639 11.7154733,17.3351141 10.513392,17.043623 C9.31104214,16.7521319 11.2566155,15.1331142 13.6293867,14.5986248" id="path2688" fill="#010101"></path>
            <path d="M20.2018636,5.97266437 C20.1960088,5.97940705 20.0776388,6.07847512 20.0047531,6.18480194 C20.0010317,6.25274477 19.9874628,6.40030565 19.9323995,6.45035965 C19.9212272,6.51701101 19.820145,6.54086712 19.7049643,6.53957045 C19.5062605,6.53723385 19.4533226,6.60129187 19.1716196,6.55564655 C18.8893925,6.50974967 18.3049746,6.38604489 16.7669278,6.3914909 C16.7669278,6.3914909 14.6747904,6.38033955 13.6277933,6.45528699 C12.5807909,6.53049118 12.1195338,6.61140848 12.0362792,6.55642714 C11.95328,6.50248832 10.3958174,5.3297787 9.49432561,4.39954868 C8.59362654,3.46905933 7.86051659,2.50848987 7.41574919,1.95714381 C6.97125577,1.40684027 6.78584957,1.08370788 6.79702448,1.04091522 C6.8028713,1.01887445 6.91034039,0.851866137 6.92443605,0.816334825 C6.94625121,0.762912081 7.76102767,0.856790884 8.4199246,0.874425576 C9.07881888,0.891800935 9.94732856,0.900615687 9.97819058,0.94392701 C10.009308,0.986976406 10.4684344,2.16980005 11.3787097,3.17523684 C12.2900463,4.18067103 13.3053913,5.17625055 13.4096657,5.16639846 C13.5147381,5.15706245 16.0245049,5.2366779 17.1954608,5.35570947 C18.365624,5.47474365 19.8917006,5.64071722 19.985066,5.70555065 C20.0784395,5.77090274 20.2758133,5.88786484 20.2018636,5.97266437" id="path2690" fill="#010101"></path>
            <path d="M11.234003,4.81785684 C10.8192969,4.84404695 10.4969003,4.85545504 10.2476553,4.85831031 C10.0170254,4.65214001 9.79570838,4.4428603 9.60365203,4.24498868 C9.56002704,4.19960268 9.51666806,4.15421929 9.47383843,4.10909522 C10.0986866,4.18093066 11.1589893,4.27403405 11.8431594,4.17755932 C11.9660516,4.31215092 12.0908111,4.44648838 12.2134398,4.57615523 C12.0261689,4.68740939 11.7237201,4.78647487 11.234003,4.81785684" id="path2708" fill="#FFFFFF"></path>
            <path d="M9.37142876,4.00017766 C9.16500809,3.77948467 8.96949366,3.55956709 8.78515148,3.34639219 C9.04450736,3.37206623 9.42063988,3.39514952 9.98430665,3.4127868 C10.4657776,3.42730949 10.836856,3.39826412 11.0874336,3.32824142 C11.1198864,3.36869489 11.1494157,3.40318886 11.1746863,3.4311995 L11.1863879,3.444161 C11.3563684,3.63710787 11.5564023,3.8619502 11.764419,4.09145793 C11.0959458,4.16796138 10.0571923,4.08290511 9.37142876,4.00017766" id="path2710" fill="#FFFFFF"></path>
            <path d="M9.98723272,3.33904136 C9.34589485,3.31786259 8.94980655,3.28832379 8.69284739,3.25627418 C8.62634588,3.1715647 8.56144041,3.08935208 8.49786497,3.00770236 C8.68593123,3.04225998 8.94395974,3.08266962 9.29295699,3.12390969 L9.40600955,3.13784309 C10.0404339,3.21308065 10.6469277,3.28553711 10.9882134,3.21503411 C11.000447,3.23259019 11.0118906,3.24959173 11.0238609,3.26547301 C10.8206296,3.3195346 10.4979643,3.35603731 9.98723272,3.33904136" id="path2712" fill="#FFFFFF"></path>
            <path d="M9.06179775,2.02742354 C9.63504074,2.05283824 9.88561842,2.06398959 10.2011016,1.99371275 C10.2894156,2.14931038 10.3811877,2.30153927 10.4724304,2.44702807 C10.2715932,2.52923167 9.97872053,2.60080777 9.56348512,2.60495971 C9.02934501,2.61014638 8.54468203,2.60210704 8.14913106,2.58239508 C8.01293864,2.41434943 7.88658312,2.2556372 7.77140251,2.11015099 L7.5947745,1.88971734 C7.93765627,1.94417742 8.39944008,1.99811883 8.88836448,2.01964353 L9.06179775,2.02742354 L9.06179775,2.02742354 Z" id="path2714" fill="#FFFFFF"></path>
            <path d="M9.41585443,3.03260099 L9.30306522,3.02015298 C8.88144566,2.9734755 8.59256577,2.92783018 8.4021028,2.89203953 C8.34331281,2.82098209 8.28586082,2.75070525 8.2299969,2.68224115 C8.61118354,2.69935718 9.06605384,2.70661852 9.56401713,2.70117251 C10.0047891,2.69676384 10.3133561,2.62026299 10.5253629,2.53079027 C10.6671441,2.75277733 10.8057333,2.95376355 10.924638,3.11584711 C10.587079,3.16304326 9.97340041,3.09483849 9.41585443,3.03260099" id="path2716" fill="#FFFFFF"></path>
            <path d="M10.3944853,4.98875516 C10.3811877,4.97682581 10.3673553,4.96541772 10.354055,4.95296711 C10.5884063,4.94855844 10.8788876,4.93662909 11.2398551,4.91406965 C11.6976488,4.88450042 12.046122,4.79529221 12.2815347,4.64825 C12.3084013,4.67599611 12.3344726,4.70374741 12.3610705,4.73123938 C12.2932363,4.76313743 12.2192866,4.79270147 12.1426796,4.81889158 C11.8705554,4.91121698 10.8647866,4.96697113 10.3944853,4.98875516" id="path2718" fill="#FFFFFF"></path>
            <path d="M11.1640434,5.6376081 C10.9538986,5.46670719 10.7253995,5.27661558 10.499297,5.08056189 C11.0057698,5.05592259 11.9056655,5.0006871 12.1722089,4.91043638 C12.2594536,4.88087234 12.3482996,4.84482236 12.4312988,4.80385023 C12.646495,5.02479995 12.8449355,5.21826549 13.0032091,5.35233843 C12.8412141,5.44025515 12.5733433,5.52272586 12.1338987,5.57666468 C11.7354217,5.62593808 11.4178105,5.64149811 11.1640434,5.6376081" id="path2720" fill="#FFFFFF"></path>
            <path d="M10.571382,2.42757286 C10.5788301,2.38322939 10.5865416,2.33888332 10.5937265,2.29661452 C10.7136952,2.48359153 10.8387207,2.66097579 10.9677336,2.82902403 C10.9602854,2.8749261 10.9517679,2.92679284 10.9427264,2.97969432 C10.8288758,2.82150595 10.7011902,2.63270582 10.571382,2.42757286" id="path2722" fill="#FFFFFF"></path>
            <path d="M11.160322,3.06787038 C11.2097964,3.12621787 11.2592735,3.18482729 11.3098147,3.24058663 C11.3161988,3.24758864 11.5186321,3.47061563 11.7966057,3.76521872 C11.7902216,3.81708546 11.780648,3.8834723 11.7697418,3.95531033 C11.6066774,3.77481407 11.4348375,3.58264779 11.2563475,3.37985142 L11.2438452,3.3658474 C11.2116585,3.33005935 11.1728216,3.28337669 11.1286646,3.22787668 C11.1366448,3.18794189 11.1483517,3.12933247 11.160322,3.06787038" id="path2724" fill="#FFFFFF"></path>
            <path d="M12.2927043,4.54977028 C12.3194612,4.48049248 12.3494519,4.40488629 12.3775928,4.33289762 C12.4209527,4.36271719 12.4647832,4.39223858 12.5081478,4.42205815 C12.4938467,4.49645348 12.477239,4.58320435 12.4606267,4.66844316 C12.4057336,4.62989157 12.3494519,4.59043636 12.2927043,4.54977028" id="path2726" fill="#FFFFFF"></path>
            <path d="M12.999751,5.22630484 C12.8611618,5.10052799 12.6826718,4.925221 12.4735911,4.70867476 C12.4818346,4.64150732 12.4919455,4.56578447 12.5009897,4.4936897 C12.6810758,4.67392404 12.8561104,4.84275028 13.0056031,4.97630714 C13.0040097,5.05747859 13.0018764,5.14720546 12.999751,5.22630484" id="path2728" fill="#FFFFFF"></path>
            <path d="M10.6110386,2.17601916 C10.600757,2.22036782 10.5901082,2.26471388 10.580561,2.3072472 C10.477378,2.18613317 10.3741987,2.06009958 10.2750512,1.9332854 C10.2849656,1.887902 10.2945128,1.84070067 10.30406,1.79532246 C10.4035673,1.92576472 10.5060196,2.05283824 10.6110386,2.17601916" id="path2730" fill="#FFFFFF"></path>
            <path d="M12.2163659,4.43870836 C12.10118,4.31656478 11.9796205,4.18508 11.852201,4.04555587 C11.8615139,3.98098437 11.8713508,3.91381694 11.8798683,3.85365152 C12.0003663,3.9804657 12.1309726,4.1173939 12.2647763,4.2543221 C12.2474859,4.32019286 12.2304616,4.38450762 12.2163659,4.43870836" id="path2732" fill="#FFFFFF"></path>
            <path d="M11.0877682,3.26441046 C11.0654991,3.24090952 11.043784,3.21697338 11.0209321,3.19303724 C11.0386367,3.10513067 11.0580722,3.01547458 11.0769193,2.92886492 C11.102622,2.95411537 11.1266222,2.98022317 11.1540502,3.00546492 C11.13005,3.09816308 11.1071981,3.18955997 11.0877682,3.26441046" id="path2734" fill="#FFFFFF"></path>
            <path d="M19.972833,6.00197196 C19.9185651,6.027646 19.8369039,6.06680539 19.8241356,6.17546881 L19.8206776,6.24289298 C19.8182809,6.35362847 19.8113647,6.35699981 19.7488533,6.35648114 C19.6658621,6.35570314 19.60388,6.36556042 19.5496174,6.37411583 C19.4634288,6.38786311 19.3892158,6.39978987 19.2285482,6.37359717 L19.1519411,6.36062789 C18.8516203,6.30980107 18.2265034,6.20321492 16.8097553,6.20840159 C16.7887409,6.20840159 14.7016549,6.19828758 13.6634334,6.27271895 L12.7137945,6.35285047 C12.4129443,6.38085851 12.1759303,6.40264254 12.1251232,6.38604519 C12.0793728,6.35440388 11.7319636,6.09507017 11.2834801,5.73382091 C11.5196934,5.7322675 11.8032559,5.71488955 12.1450736,5.67261815 C12.5720133,5.619976 12.884839,5.53465262 13.0822129,5.41717185 C13.1896793,5.50197916 13.2716091,5.54969397 13.3157661,5.54580397 C13.4697836,5.53491195 15.9843386,5.57484934 17.1356127,5.69232751 L19.1862532,5.89486973 C19.5655778,5.93091453 19.6671921,5.9407718 19.6943274,5.95140448 L19.7023075,5.95477063 L19.7105511,5.95477063 C19.7890202,5.95529449 19.9153757,5.96255583 20.0244382,5.97214599 C20.0090125,5.9830406 19.9922515,5.99263595 19.972833,6.00197196" id="path2736" fill="#F28F20"></path>
            <path d="M9.06578784,1.9309514 L8.89261791,1.92342813 C8.33879336,1.89931528 7.83950005,1.833958 7.50486446,1.77716651 C7.21145981,1.41124664 7.08164887,1.20948502 7.02472092,1.10263953 C7.19390076,1.11041954 7.45964344,1.1262389 7.68973599,1.13998358 L8.43694959,1.1794049 C8.85537707,1.19133166 9.64807237,1.21596836 9.81832155,1.23334372 C9.91115766,1.4509247 10.0268676,1.68043503 10.1524225,1.90631469 C9.86433794,1.96673945 9.62094242,1.95610677 9.06578784,1.9309514" id="path2738" fill="#F28F20"></path>
            <path d="M30.7801233,15.0996552 C30.8168321,15.3722175 30.8168321,15.6292172 30.8168321,15.6292172 C30.8168321,15.6292172 30.3619645,15.7508422 30.091439,15.7578468 C29.8209109,15.7643301 29.3663066,15.693532 29.3663066,15.693532 C29.3663066,15.693532 29.1125341,15.3226822 29.0529488,15.1631946 C29.0369884,15.1224818 29.1202483,14.7275139 29.1202483,14.7275139 C29.1202483,14.7275139 28.7308155,14.0171989 28.4613514,13.4902328 C28.1924193,12.9632667 27.7508466,12.1419543 27.1244051,11.1455967 C26.5594109,10.2472622 26.1356607,9.56859106 26.1356607,9.56859106 L26.3298451,9.10853046 L26.5123252,9.24545866 L26.5586103,9.26335269 L26.7166152,9.25012407 C26.7166152,9.25012407 27.0047024,9.58207641 27.3755148,9.96277311 C27.7468565,10.3429589 28.5730739,11.6640074 29.1024259,12.4152946 C29.6309799,13.1665843 30.1401154,14.2793853 30.1401154,14.2793853 C30.1401154,14.2793853 30.4026634,14.3073933 30.5529594,14.3758548 C30.7032475,14.4445835 30.738363,14.6720191 30.738363,14.6720191 C30.738363,14.6720191 30.7479419,14.8592581 30.7801233,15.0996552" id="path2740" fill="#010101"></path>
            <path d="M29.7716944,15.207538 C29.7716944,15.207538 30.3233936,15.1961299 30.3601024,15.1956113 C30.3978753,15.2376259 30.5119919,15.3693649 30.5870056,15.5065498 C30.472357,15.5202971 30.2403997,15.5457092 30.0494074,15.5503798 C29.8328785,15.5558258 29.5445306,15.4829556 29.458874,15.4596104 C29.4091309,15.3916676 29.3210802,15.2643347 29.2641576,15.1587885 C29.3944979,15.1875719 29.5655424,15.2106526 29.7716944,15.207538" id="path2742" fill="#F28F20"></path>
            <path d="M26.6205897,9.87927025 L26.6905493,9.94669701 L26.6559685,9.84348219 C26.6559685,9.83751493 26.6471929,9.79342819 26.633092,9.76282941 C26.6658107,9.7726815 26.767957,9.82532883 26.767957,9.82532883 C26.767957,9.82532883 26.6083534,9.53565567 26.5639304,9.47445033 C26.576164,9.48223034 26.7166152,9.59555657 26.7288541,9.60307985 C26.8815416,9.71018467 27.7178645,10.8725209 28.4762477,12.1419543 C28.8265777,12.7290884 29.6519944,14.1865438 30.1079287,14.8981555 C30.0273262,14.9080076 29.9070942,14.9147529 29.8025564,14.9204582 C29.6320439,14.9300536 29.5402718,14.8921934 29.4586106,14.8592581 L29.3599224,14.8247641 C29.3240089,14.7840487 29.2325029,14.6170378 29.2325029,14.6170378 C29.2295768,14.6126291 28.8539763,13.9160588 28.5874382,13.39402 C28.3270157,12.8841673 27.8003264,11.9329313 27.2858681,11.0810252 C26.9491071,10.5234552 26.5655264,9.98222832 26.3003211,9.6834733 C26.353783,9.72937536 26.588935,9.8489282 26.6205897,9.87927025" id="path2744" fill="#F28F20"></path>
            <path d="M26.603853,9.66843194 C26.5711157,9.66013326 26.5409182,9.65312866 26.5377363,9.65235325 C26.441101,9.58311374 26.3149134,9.56054912 26.2678657,9.54447043 C26.2834381,9.51749972 26.3911988,9.33129812 26.4074133,9.30251208 C26.4322038,9.3180721 26.4792516,9.34763614 26.4938704,9.35671282 C26.4843343,9.37979093 26.47257,9.40857956 26.4592227,9.44410569 C26.5081713,9.51620046 26.5615733,9.62019587 26.603853,9.66843194" id="path2746" fill="#F28F20"></path>
            <path d="M19.2181739,4.6267279 C19.2181739,4.6267279 18.9468451,4.59042118 18.9436557,4.62153863 C18.9404663,4.65291801 18.9276953,4.75328015 18.8782182,4.82408085 C18.8287384,4.89487636 18.7766012,4.93429249 18.7766012,4.93429249 C18.7766012,4.93429249 18.8582678,5.11816009 19.1141682,5.21515349 C19.3705954,5.31266037 19.5089185,5.37671839 19.5299303,5.35000961 C19.5506815,5.32355498 19.5059924,5.1998528 19.5059924,5.1998528 C19.5059924,5.1998528 19.2947863,4.64539733 19.2181739,4.6267279" id="path2748" fill="#010101"></path>
            <path d="M19.3926739,5.23356618 C19.3647406,5.22267157 19.3344159,5.21100415 19.3043599,5.19933413 L19.1500764,5.13968738 C19.0058984,5.08496797 18.929028,5.0006871 18.8923192,4.94985251 C18.9130623,4.929111 18.9364762,4.90265637 18.9601481,4.86868365 C18.9800959,4.84041628 19.031169,4.75379882 19.0423439,4.72293552 C19.1553992,4.87620433 19.3666053,5.1306107 19.3926739,5.23356618" id="path2750" fill="#F28F20"></path>
            <path d="M27.2943856,8.5141376 C27.2943856,8.5141376 27.530599,8.6518438 27.5117125,8.68270711 C27.4930894,8.71434322 27.4345681,8.81729871 27.4244599,8.91532426 C27.414881,9.01283632 27.428716,9.08337509 27.428716,9.08337509 C27.428716,9.08337509 27.2403837,9.20422719 26.9743777,9.13394517 C26.7081057,9.06314706 26.5564822,9.03565769 26.5588789,8.99753304 C26.5604723,8.95941617 26.5950504,8.8556801 26.5950504,8.8556801 C26.5950504,8.8556801 27.2220293,8.48275563 27.2943856,8.5141376" id="path2752" fill="#010101"></path>
            <path d="M26.7450805,9.02112552 C26.7740751,9.03154216 26.8057299,9.04098193 26.8371186,9.05107946 L26.9983182,9.10317891 C27.1472816,9.15299901 27.2645929,9.11555253 27.3278997,9.08429611 C27.3263037,9.04326454 27.3257717,8.99344443 27.3305624,8.93450692 C27.3342838,8.88533806 27.3441261,8.83714607 27.3560963,8.79188141 C27.1637713,8.88305546 26.9193144,8.98757999 26.7450805,9.02112552" id="path2754" fill="#F28F20"></path>
            <path d="M20.3827483,4.80851564 C20.3298131,4.88657768 20.2031942,4.92469714 20.1523897,5.06033126 C20.1289759,5.12153402 20.1140796,5.19855872 20.061679,5.22500817 C20.061679,5.22500817 19.8552584,4.91666039 19.9534172,4.45763972 C20.1640914,4.40732899 20.3771595,4.61816729 20.3771595,4.61816729 C20.3771595,4.61816729 20.4197231,4.75405815 20.3827483,4.80851564" id="path2756" fill="#010101"></path>
            <path d="M20.3324873,4.6643261 L20.3503492,4.67573937 L20.3343095,4.69259607 C20.2752678,4.75742949 20.1899854,4.85856964 20.1181878,4.97837922 L20.0930404,5.01935654 L20.0766399,4.98071582 C20.0387366,4.89098635 19.9982821,4.74835281 20.0208783,4.57693323 L20.0241584,4.55099986 L20.1302148,4.57200848 C20.1943589,4.59093984 20.2625083,4.6220573 20.3324873,4.6643261" id="path2758" fill="#F28F20"></path>
            <polygon id="path2760" fill="#010101" points="16.0058825 1.02069267 16.0058825 1.5432501 15.8489416 1.5432501 15.8489416 1.64957173 16.2692311 1.64957173 16.2692311 1.5432501 16.1122875 1.5432501 16.1122875 1.02069267"></polygon>
            <polygon id="path2762" fill="#010101" points="16.3362646 1.02069267 16.3362646 1.64957173 16.4961342 1.64957173 16.5921624 1.2201177 16.6865945 1.64957173 16.8477942 1.64957173 16.8477942 1.02069267 16.7483053 1.02069267 16.7483053 1.5162768 16.6429696 1.02069267 16.5402912 1.02069267 16.4360169 1.5162768 16.4360169 1.02069267"></polygon>
        </g>
    </g>
</svg>