<?xml version="1.0" encoding="UTF-8"?>
<svg width="30px" height="30px" viewBox="0 0 30 30" version="1.1" xmlns="http://www.w3.org/2000/svg" xmlns:xlink="http://www.w3.org/1999/xlink">
    <!-- Generator: Sketch 50.2 (55047) - http://www.bohemiancoding.com/sketch -->
    <title>stars</title>
    <desc>Created with Sketch.</desc>
    <defs></defs>
    <g id="stars" stroke="none" stroke-width="1" fill="none" fill-rule="evenodd">
        <g id="#0b714cff" transform="translate(2.000000, 3.590552)" fill="#0B714C">
            <path d="M15.0112335,0.00656167977 C15.0579002,0.292723826 15.0729659,0.583260426 15.1067717,0.871609801 C15.3250393,2.99941674 15.5352231,5.12831731 15.7586351,7.25575968 C16.8411549,7.35892389 17.9413123,7.75043745 18.7015747,8.54913968 C21.4820997,8.54695245 24.2629921,8.54950421 27.0438845,8.54768153 C27.3620997,8.52872556 27.6810499,8.53783903 28,8.53966171 L28,8.54986875 C25.0530184,10.1119131 22.1086089,11.6805192 19.1623622,13.243657 C18.5975853,14.4287694 17.7568504,15.4979586 16.6688189,16.2510936 C16.8775327,18.2884952 17.0822047,20.3258968 17.2901838,22.3629338 C15.3555381,20.8245844 13.4286089,19.2763926 11.4958005,17.7354914 C11.2099212,17.7617381 10.9192651,17.7391368 10.635958,17.7755906 C7.46335959,19.4557451 4.29664041,21.148294 1.12257218,22.8258968 C2.14593176,21.1362643 3.17847769,19.4517352 4.20183727,17.7621027 C3.43937008,17.7613735 2.67653544,17.7635608 1.91406824,17.761009 C2.95322835,16.0301837 3.99569554,14.3015456 5.03779528,12.5721784 C3.35926509,11.2314086 1.68146982,9.88918046 0.00293963255,8.5484106 C2.48839895,8.54804606 4.97422571,8.54877514 7.46005251,8.54804606 C7.72866141,8.10513269 7.99469818,7.66112569 8.26146981,7.21748324 C9.04892389,7.21857685 9.83637797,7.21748324 10.623832,7.21784778 C12.0848294,4.81335667 13.551706,2.4121464 15.0112335,0.00656167977 L15.0112335,0.00656167977 L15.0112335,0.00656167977 L15.0112335,0.00656167977 Z M14.6096063,1.59157189 C13.3786352,3.62459901 12.1337008,5.64924176 10.9064042,7.68445611 C10.1156431,7.70559931 9.32304464,7.67898806 8.53191603,7.69757949 C8.28902886,8.1102362 8.03732281,8.51778944 7.79296588,8.92971713 C7.76577429,8.96945171 7.74225723,9.03543306 7.68015747,9.02194519 C5.57501313,9.01975796 3.46986877,9.02486148 1.36472441,9.01939343 C2.78272966,10.160032 4.20698162,11.2930155 5.6279265,12.4300087 C5.68451445,12.4639107 5.6224147,12.5207787 5.60698161,12.5601488 C4.65674541,14.1302129 3.71496063,15.7057451 2.76362205,17.2750802 C3.5264567,17.2860164 4.28965879,17.273622 5.05249346,17.2809129 C4.98488191,17.4208953 4.89154857,17.5462963 4.81511809,17.6811753 C4.09674541,18.8644649 3.37469816,20.0455672 2.65669292,21.2288568 C2.58908137,21.3433217 2.50897638,21.4508604 2.45900263,21.5748031 C5.15648294,20.1490959 7.8455118,18.7069845 10.5444619,17.2849228 C10.8865617,17.2758093 11.2301312,17.2758093 11.5725984,17.2535724 C11.6751181,17.230242 11.7412598,17.3210119 11.8140157,17.3742344 C12.952021,18.2859434 14.0925984,19.1947361 15.2302363,20.106445 C15.7185827,20.4877515 16.1925984,20.888014 16.6871915,21.2609361 C16.6857217,21.2317731 16.6831497,21.1738117 16.6816798,21.1446485 C16.507874,19.4320502 16.3314961,17.7198162 16.1620997,16.0072179 C17.3254593,15.2825168 18.2091863,14.1706766 18.7721261,12.9374453 C18.8059318,12.8710994 18.887874,12.8528726 18.9474016,12.8156897 C21.3031497,11.5649606 23.6581627,10.3127734 26.0135434,9.06167977 C26.0230971,9.05147273 26.0425722,9.03105861 26.0521261,9.02085157 C23.5291863,9.02085157 21.0066142,9.02449694 18.484042,9.01902889 C18.1864042,8.68110236 17.8259318,8.39712745 17.4195276,8.19808981 C16.7706036,7.86854769 16.0401049,7.74059491 15.3184252,7.69757949 C15.1016272,5.62992125 14.8984252,3.5608049 14.6849343,1.49278216 C14.6577428,1.5241324 14.6309187,1.55621172 14.6096063,1.59157189 L14.6096063,1.59157189 L14.6096063,1.59157189 L14.6096063,1.59157189 Z" id="path3091"></path>
        </g>
        <g id="#231f1fff" transform="translate(3.359580, 5.048703)" fill="#231F1F">
            <path d="M13.2500263,0.133420822 C13.2713386,0.0980606593 13.2981627,0.0659813356 13.3253544,0.0346310878 C13.5388451,2.10265383 13.7420472,4.17177019 13.9588451,6.23942843 C14.6805249,6.28244384 15.4110236,6.41039662 16.0599475,6.73993875 C16.4663517,6.93897639 16.8268242,7.2229513 17.1244619,7.56087782 C19.6470341,7.56634588 22.1696063,7.56270051 24.6925459,7.56270051 C24.6829921,7.57290755 24.663517,7.59332167 24.6539633,7.6035287 C22.2985827,8.85462236 19.9435696,10.1068096 17.5878215,11.3575386 C17.528294,11.3947215 17.4463517,11.4129483 17.4125459,11.4792943 C16.8496063,12.7125256 15.9658793,13.8243656 14.8025197,14.5490668 C14.971916,16.2616652 15.148294,17.9738991 15.3220998,19.6864975 C15.3235696,19.7156606 15.3261417,19.773622 15.3276115,19.802785 C14.8330184,19.429863 14.3590027,19.0296005 13.8706561,18.648294 C12.7330184,17.736585 11.592441,16.8277923 10.4544357,15.9160834 C10.3816797,15.8628608 10.3155381,15.772091 10.2130184,15.7954214 C9.87055113,15.8176581 9.52698161,15.8176581 9.18488191,15.8267717 C6.48593176,17.2488334 3.79690288,18.6909449 1.09942257,20.116652 C1.14939632,19.9927093 1.22950131,19.8851706 1.29711286,19.7707057 C2.01511811,18.5874162 2.73716535,17.4063138 3.45553806,16.2230242 C3.53196851,16.0881452 3.62530184,15.9627443 3.69291338,15.8227618 C2.93007874,15.8154709 2.16687665,15.8278653 1.404042,15.8169291 C2.35538058,14.247594 3.29716535,12.6720619 4.24740157,11.1019977 C4.26283464,11.0626276 4.32493439,11.0057596 4.26834646,10.9718577 C2.84740157,9.83486435 1.42314961,8.70188102 0.00514435693,7.56124236 C2.11028871,7.56671042 4.21543307,7.5616069 6.32057743,7.56379412 C6.38267719,7.57728199 6.40619425,7.51130065 6.43338584,7.47156606 C6.67774277,7.05963838 6.92944882,6.65208514 7.17233594,6.23942843 C7.96346455,6.22083699 8.75606298,6.24744824 9.54682419,6.22630505 C10.7741207,4.1910907 12.0190552,2.16644794 13.2500263,0.133420822 L13.2500263,0.133420822 L13.2500263,0.133420822 L13.2500263,0.133420822 Z M12.404147,3.37634879 C11.6288189,4.64785653 10.8575327,5.92155148 10.0796325,7.19160106 C9.29475064,7.18977838 8.50986878,7.19014292 7.72498687,7.19123653 C7.45858269,7.63414991 7.1903412,8.07596968 6.92540683,8.5203412 C5.55884513,8.52544472 4.19191601,8.51414407 2.82535433,8.52580926 C2.8088189,8.52179935 2.77574803,8.51414407 2.7592126,8.5104987 C2.79559055,8.58705162 2.87790026,8.62569264 2.93889764,8.68073782 C3.81490813,9.38174389 4.69349081,10.0798337 5.56729661,10.7837562 C5.0289764,11.6557306 4.50866142,12.5393701 3.97622047,13.4157189 C3.69291338,13.8954506 3.39307087,14.3660689 3.12041994,14.8512686 L3.10020997,14.8622047 C4.33265091,14.8662146 5.56509189,14.8629338 6.79753279,14.8640274 C6.88094489,14.8676728 6.96986878,14.8472587 7.04813648,14.8851706 C6.89674543,14.917979 6.75013122,14.9686498 6.59837271,14.9989064 L6.59139105,15.0072907 C6.08614174,15.1363371 5.58383201,15.2774132 5.07895015,15.4086469 C4.85076116,15.7833917 4.62220473,16.1577719 4.39511811,16.5332458 C4.18015747,16.8948673 3.94461943,17.2459171 3.74619423,17.6166521 C3.78624672,17.5933217 3.82593176,17.5688976 3.86892388,17.5517644 C3.9743832,17.5131234 4.06918635,17.4526101 4.1687664,17.4023039 C5.46845143,16.7104112 6.76923884,16.0210703 8.06892389,15.3291776 C8.36803151,15.1786235 8.65648294,15.0021872 8.96146981,14.8658501 C9.51154857,14.8669437 10.0627296,14.8592884 10.6113385,14.8100758 C11.7566929,15.7327209 12.9075591,16.6484398 14.0565879,17.5663458 L14.0547506,17.5783756 C14.0837795,17.5984252 14.1142782,17.6184748 14.1436745,17.6388889 C14.0385827,16.6524497 13.9456168,15.6641879 13.8291338,14.6792068 C13.4201575,14.7309711 13.0071391,14.7284194 12.5955906,14.7287839 C12.264147,14.7262321 11.9327033,14.7101924 11.6019947,14.6897784 C12.4996851,14.537037 13.3907612,14.276028 14.1760105,13.8086906 C14.8613124,13.4076991 15.4444619,12.8455818 15.8953281,12.1970692 C16.3164305,11.5893846 16.6743308,10.9211869 16.8216798,10.1924759 C16.9058268,9.806795 16.8925984,9.41017787 16.8279265,9.0230388 C16.9352231,9.15682417 17.0285564,9.30118111 17.111601,9.45100611 C17.2644619,9.74373 17.3530184,10.0656168 17.3938057,10.3922426 C18.5049869,9.79877519 19.6139632,9.20093319 20.7244094,8.60637213 C20.7387401,8.59324875 20.7674016,8.56736657 20.7817323,8.55424324 C20.7953281,8.55278505 20.8225197,8.54913968 20.8361155,8.54768153 C20.8302363,8.54111986 20.8188451,8.52872556 20.8133333,8.52252843 C19.4166404,8.52070574 18.01958,8.51888306 16.6225197,8.5232575 L16.6188451,8.51560222 C16.3432546,8.01800815 15.8574803,7.66404199 15.3283464,7.46755616 C14.6154855,7.19415282 13.8390551,7.17811315 13.0850393,7.19415282 C12.9384253,5.82859435 12.8179003,4.45939049 12.6595275,3.09529018 C12.6562205,3.05956547 12.6529134,3.02347623 12.6499737,2.98775153 C12.5570079,3.11023622 12.488294,3.2480315 12.404147,3.37634879 L12.404147,3.37634879 L12.404147,3.37634879 L12.404147,3.37634879 Z" id="path3094"></path>
            <path d="M8.44960629,9.26399824 C9.67506568,9.25306213 10.9008923,9.26254009 12.1267192,9.25925926 C12.5371653,9.27675704 12.9714961,9.30555556 13.3327033,9.51953917 C13.5208398,9.62707787 13.6483464,9.81918926 13.6935434,10.0280694 C13.7622572,10.3871391 13.6428347,10.7527705 13.4730709,11.0673666 C13.0843044,11.7588947 12.4078215,12.2871099 11.6380053,12.4970837 C11.2117586,12.615923 10.7675066,12.6534704 10.3261942,12.6669582 C9.43070865,12.6706036 8.53522311,12.6629483 7.64010497,12.6709681 C7.67097114,12.5904054 7.7224147,12.5204141 7.76797901,12.4478711 C8.27910762,11.6138087 8.7975853,10.7841207 9.3072441,9.94932926 C9.02320211,9.71821231 8.73622045,9.49146981 8.44960629,9.26399824 L8.44960629,9.26399824 L8.44960629,9.26399824 L8.44960629,9.26399824 Z" id="path3096"></path>
        </g>
        <g id="#a7aaacff" transform="translate(6.115486, 8.110820)" fill="#A7AAAC">
            <path d="M9.85695536,0.0641586468 C9.86871396,0.0565033537 9.89186352,0.0411927676 9.90362203,0.0331729367 C10.0619947,1.39727326 10.1825197,2.7664771 10.3291338,4.13203557 C9.84997375,4.14515894 9.37007876,4.13276465 8.89091863,4.13859726 C8.91112861,3.98221056 8.95853019,3.83092738 8.99233594,3.67709244 C9.28115487,2.4730242 9.56556431,1.26713327 9.85695536,0.0641586468 L9.85695536,0.0641586468 L9.85695536,0.0641586468 L9.85695536,0.0641586468 Z" id="path3099"></path>
            <path d="M5.75616799,5.45494315 C5.81643043,5.35287255 5.8744882,5.24897931 5.94614174,5.15456403 C7.36892389,5.16258384 8.79133859,5.15565764 10.2141207,5.15784486 C10.7454594,5.16695829 11.2988451,5.22892972 11.7677165,5.49650042 C12.0392651,5.64887722 12.2527559,5.88983667 12.3865091,6.16834352 C12.8803675,5.93285213 13.3723884,5.69444444 13.8629396,5.453485 L13.8666142,5.46114028 C13.9470866,5.62263051 14.0018373,5.79469231 14.0720209,5.96092157 C14.1366929,6.34806065 14.1499212,6.74467773 14.0657743,7.1303587 C13.9184253,7.85906972 13.5605249,8.52726741 13.1394225,9.1349519 C12.6885564,9.78346454 12.1054069,10.3455818 11.4201049,10.7465733 C10.6348557,11.2139107 9.74377955,11.4749198 8.84608923,11.6276611 C8.51611549,11.6706766 8.18540683,11.7074949 7.85543309,11.7479586 C7.30682414,11.7971712 6.75564307,11.8048265 6.20556431,11.8037329 C5.90057743,11.94007 5.61212601,12.1165062 5.31301839,12.2670604 C4.01333333,12.9589531 2.71254594,13.648294 1.41286089,14.3401866 C1.31328085,14.3904929 1.21847769,14.4510061 1.11301837,14.4896471 C1.10125984,14.4459026 1.12992126,14.4138232 1.16152231,14.3883056 C1.96330709,13.6636045 2.76251969,12.9363517 3.5632021,12.2101924 C3.65653543,12.1245261 3.75721785,12.0454214 3.83548557,11.9451735 L3.8424672,11.9367892 C3.99422572,11.9065325 4.14083989,11.8558618 4.29223097,11.8230533 C4.21396325,11.7851414 4.12503937,11.8055556 4.0416273,11.8019102 C2.80918635,11.8008166 1.57674541,11.8040974 0.344304462,11.8000875 L0.364514436,11.7891513 C1.10750657,11.4264363 1.85490814,11.0695538 2.59459318,10.7010061 C2.96866142,10.1086322 3.31811024,9.5002187 3.68372703,8.90237681 C4.37417323,7.75298921 5.06572178,6.60433069 5.75616799,5.45494315 L5.75616799,5.45494315 L5.75616799,5.45494315 L5.75616799,5.45494315 Z M5.69370079,6.20188102 C5.98031495,6.42935259 6.26729661,6.65609509 6.55133859,6.88721204 C6.04167979,7.72200352 5.52320211,8.55169144 5.0120735,9.3857538 C4.96650919,9.45829685 4.91506563,9.52828815 4.88419946,9.60885093 C4.13973753,9.97557593 3.38682414,10.3258968 2.64677165,10.6999125 C4.12724409,10.6977253 5.60771652,10.699548 7.08818899,10.6988189 C8.04871391,10.7119423 9.02503938,10.5770632 9.91207345,10.1983085 C10.9600525,9.75904056 11.8437795,8.91586468 12.2608398,7.85870514 C12.4706561,7.3348644 12.5728084,6.73483523 12.3780577,6.19094486 C11.8937533,6.41951005 11.4142257,6.65828231 10.9302887,6.88830565 C10.932126,6.90762611 10.9358005,6.94663167 10.9376378,6.96595218 C10.8924409,6.75707204 10.7649343,6.56496065 10.5767978,6.45742199 C10.2155906,6.24343833 9.78125979,6.21463981 9.37081367,6.19714204 C8.14498687,6.20042287 6.91916013,6.19094486 5.69370079,6.20188102 L5.69370079,6.20188102 L5.69370079,6.20188102 L5.69370079,6.20188102 Z" id="path3101"></path>
            <path d="M0.00330708661,5.44838144 C0.0198425197,5.45202685 0.0529133859,5.45968213 0.0694488191,5.46369204 C0.098110236,5.47645088 0.155800525,5.50160398 0.184829396,5.51399824 C1.29784777,5.86176727 2.41417323,6.19896472 3.52608923,6.55001458 C3.28577428,6.93934093 3.06199475,7.33887431 2.81139108,7.72163898 C1.9375853,7.01771653 1.05900263,6.31962671 0.182992126,5.6186206 C0.12199475,5.56357537 0.0396850393,5.5249344 0.00330708661,5.44838144 L0.00330708661,5.44838144 L0.00330708661,5.44838144 L0.00330708661,5.44838144 Z" id="path3103"></path>
            <path d="M17.5415223,5.59674833 C17.7024672,5.56029454 17.8601049,5.50597843 18.0258267,5.49212597 C18.0114961,5.50524935 17.9828346,5.53113153 17.9685039,5.54425491 C16.8580577,6.13881597 15.7490814,6.73665792 14.6379003,7.33012542 C14.5971129,7.00349958 14.5085564,6.68161273 14.3556956,6.38888889 C15.4165354,6.12095361 16.47958,5.86140273 17.5415223,5.59674833 L17.5415223,5.59674833 L17.5415223,5.59674833 L17.5415223,5.59674833 Z" id="path3105"></path>
            <path d="M9.83968505,11.6666667 C10.2512336,11.6663021 10.664252,11.6688539 11.0732284,11.6170895 C11.1897113,12.6020706 11.2826772,13.5903324 11.387769,14.5767717 C11.3583728,14.5563575 11.3278739,14.536308 11.2988451,14.5162583 L11.3006824,14.5042286 C11.3128084,14.4659521 11.308399,14.4302274 11.288189,14.39669 C10.8049868,13.4868037 10.3140682,12.5809273 9.83968505,11.6666667 L9.83968505,11.6666667 L9.83968505,11.6666667 L9.83968505,11.6666667 Z" id="path3107"></path>
        </g>
        <path d="M6.54730994,19.8047726 C6.56629997,19.7738765 6.68735549,19.569702 6.81632219,19.351052 C7.03256068,18.9844407 8.68652759,16.2488217 9.36085047,15.1424667 C9.52012007,14.8811552 9.64484602,14.6621949 9.63801934,14.6558887 C9.63119289,14.6495821 8.88077969,14.4140876 7.97043454,14.1325667 C7.06008944,13.8510462 6.29958094,13.6135711 6.2804157,13.6048446 C6.25856718,13.5948966 6.55750488,13.5876219 7.08186803,13.5853416 C7.54183173,13.583341 8.45440889,13.5769811 9.10981675,13.5712083 L10.3014676,13.5607119 L10.694903,12.9082185 L11.0883385,12.2557248 L12.2650749,12.2557248 L13.4418109,12.2557248 L14.6337261,10.2982445 C16.021126,8.01971954 15.9998691,8.05373907 16.0084729,8.0980587 C16.0119966,8.11621152 16.0035676,8.13935587 15.9897413,8.14949061 C15.9641509,8.16824884 15.0014159,12.1431602 15.0007219,12.2329245 C15.0006043,12.2483661 15.3112931,12.2551112 16.2767893,12.2606291 C17.632049,12.2683748 17.6583561,12.2698041 18.1043618,12.3599231 C18.9079225,12.5222891 19.5554868,12.9220876 19.9082415,13.4736174 C19.9387151,13.5212634 19.962236,13.5613862 19.9605098,13.5627793 C19.9528022,13.5689994 18.5153037,14.2607381 18.5100849,14.2607381 C18.5068651,14.2607381 18.4764176,14.2136586 18.4424234,14.156117 C18.1234397,13.6161736 17.5431924,13.3344273 16.6292574,13.2757114 C16.4843003,13.2663985 15.4100301,13.2587855 14.2130158,13.2585877 L12.0577722,13.2582319 L12.0070489,13.3316913 C11.9791512,13.372094 11.3133476,14.4746353 10.5274857,15.7817828 C9.74162401,17.0889306 9.00944445,18.3039065 8.90042052,18.4817294 L8.70219522,18.8050438 L7.88332001,19.2064338 C7.00197936,19.6384422 6.53956636,19.8609479 6.52310206,19.8609479 C6.51742623,19.8609479 6.52831992,19.8356691 6.54730994,19.8047729 L6.54730994,19.8047726 L6.54730994,19.8047726 L6.54730994,19.8047726 Z" id="path3000" stroke-opacity="0" stroke="#000000" stroke-width="0.5" fill-opacity="0" fill="#FFFFFF"></path>
        <path d="M20.4268279,14.4033361 C20.400522,14.35818 20.3379828,14.2628986 20.2878523,14.1915996 C20.2125972,14.0845667 20.1251143,13.9017222 20.0170125,13.6255292 L20.0017912,13.5866387 L22.0703262,13.5892284 C23.2080204,13.5906516 24.1153401,13.595066 24.0865925,13.5990359 C24.0578447,13.6030056 23.2368793,13.8040697 22.2622251,14.0458456 C21.2875711,14.2876212 20.4866462,14.4854376 20.4823919,14.4854376 C20.478138,14.4854376 20.4531341,14.4484918 20.4268279,14.4033357 L20.4268279,14.4033361 L20.4268279,14.4033361 L20.4268279,14.4033361 Z" id="path3002" stroke-opacity="0" stroke="#000000" stroke-width="0.5" fill-opacity="0" fill="#FFFFFF"></path>
        <path d="M9.17261286,18.6220831 C9.3738469,18.5210374 9.86695322,18.2793996 10.2684047,18.0851104 L10.998316,17.7318572 L12.4375522,17.724227 C14.0998094,17.7154139 14.3532096,17.7016731 14.8263353,17.5946944 C15.8593868,17.3611097 16.7054199,16.6320949 17.0158151,15.7080496 C17.0596911,15.5774306 17.0637774,15.5424364 17.0655028,15.2825606 L17.0673841,14.9993958 L17.7772254,14.6570712 C18.220131,14.4434778 18.4896356,14.3224664 18.4938984,14.3352751 C18.6123106,14.6911045 18.6152453,15.1029514 18.5025224,15.5457408 C18.2319133,16.6087304 17.421218,17.5892273 16.357501,18.1400406 C15.73294,18.4634504 15.0130769,18.666204 14.1354485,18.7658945 C13.9058695,18.7919724 13.5917878,18.7958674 11.3417616,18.8005394 L8.80673355,18.805803 L9.17261403,18.6220831 L9.17261403,18.6220831 L9.17261286,18.6220831 L9.17261286,18.6220831 L9.17261286,18.6220831 Z" id="path3004" stroke-opacity="0" stroke="#000000" stroke-width="0.5" fill-opacity="0" fill="#FFFFFF"></path>
        <path d="M15.6999123,21.228502 C14.7669493,20.4817994 14.0114071,19.8682844 14.02093,19.8651355 C14.0304529,19.8619864 14.2488859,19.8341442 14.5063368,19.803264 C14.9041338,19.7555501 15.0045193,19.7489584 15.1747929,19.7593717 C15.2849923,19.7661109 15.470105,19.7722771 15.5861541,19.7730747 C15.7022035,19.7738708 15.8323366,19.7793086 15.8753391,19.7851561 L15.9535252,19.7957878 L16.2371952,20.333942 C16.3932135,20.6299269 16.7204316,21.2469794 16.9643465,21.7051698 C17.2082616,22.1633603 17.405214,22.5490208 17.4020187,22.5621931 C17.3984764,22.5767959 16.7341915,22.0562934 15.6999123,21.228502 L15.6999123,21.228502 L15.6999123,21.228502 L15.6999123,21.228502 L15.6999123,21.228502 Z" id="path3006" stroke-opacity="0" stroke="#000000" stroke-width="0.5" fill-opacity="0" fill="#FFFFFF"></path>
        <path d="M7.20539371,22.509812 C7.24144334,22.4456428 7.46801785,22.0703509 7.70889251,21.6758301 C7.94976746,21.2813092 8.21229135,20.8496266 8.29227905,20.7165349 C8.37226707,20.5834437 8.439069,20.4726087 8.44072814,20.4702348 C8.44844233,20.459199 9.88424028,20.084751 9.89949729,20.0897962 C9.90904109,20.0929522 9.88268171,20.1258621 9.84092013,20.1629293 C9.15295201,20.773562 7.22796069,22.536539 7.21938578,22.563826 C7.20781893,22.6006323 7.18169204,22.6257228 7.15441579,22.6262182 C7.14640411,22.6263641 7.16934413,22.5739811 7.20539371,22.509812 L7.20539371,22.509812 L7.20539371,22.509812 L7.20539371,22.509812 L7.20539371,22.509812 Z" id="path3008" stroke-opacity="0" stroke="#000000" stroke-width="0.5" fill-opacity="0" fill="#FFFFFF"></path>
        <path d="M16.7977128,22.1138508 C16.4623054,21.8450995 15.6958577,21.231129 15.0944959,20.7494713 C14.4931341,20.2678141 14.0011154,19.8708362 14.0011207,19.8672987 C14.001126,19.863761 14.221497,19.8345673 14.4908341,19.8024238 L14.9805375,19.7439808 L15.2207743,19.7570056 C15.3529045,19.7641692 15.5716305,19.7739689 15.7068322,19.7787826 L15.9526534,19.7875344 L16.2650531,20.380304 C16.4368732,20.7063273 16.7632365,21.3212518 16.9903051,21.7468023 C17.3379958,22.3984116 17.4425935,22.6108144 17.4122366,22.6036037 C17.4096555,22.6029914 17.1331201,22.3826019 16.7977128,22.1138508 L16.7977128,22.1138508 L16.7977128,22.1138508 L16.7977128,22.1138508 Z" id="path3005" stroke-opacity="0" stroke="#000000" stroke-width="0.5" fill="#FFFFFF"></path>
        <path d="M16.0205516,21.4825968 C15.2688214,20.8808058 14.5080756,20.271013 14.3300053,20.1275011 L14.0062412,19.8665703 L14.4582304,19.811411 C14.8586204,19.7625489 14.9694527,19.7582981 15.4290817,19.7741763 L15.9479435,19.7921006 L16.1052547,20.0884169 C17.146676,22.0500689 17.4009016,22.5363816 17.3946628,22.5549494 C17.390632,22.5669461 16.7722817,22.0843873 16.0205516,21.4825968 L16.0205516,21.4825968 L16.0205516,21.4825968 L16.0205516,21.4825968 Z" id="path3775" stroke-opacity="0" stroke="#000000" stroke-width="0.5" fill="#FFFFFF"></path>
        <path d="M7.22491055,22.510096 C7.22491055,22.4997155 7.25416663,22.4407563 7.28992431,22.3790759 C7.35399069,22.2685642 8.43356868,20.4897502 8.44562147,20.4748409 C8.46158632,20.4550922 9.8867775,20.0889324 9.88065628,20.1061518 C9.87681627,20.1169544 9.38580915,20.5679557 8.78952937,21.1083775 C8.1932493,21.6487989 7.59727761,22.1895137 7.46514729,22.309966 C7.33301697,22.4304183 7.22491055,22.5204769 7.22491055,22.510096 L7.22491055,22.510096 L7.22491055,22.510096 L7.22491055,22.510096 Z" id="path3777" stroke-opacity="0" stroke="#000000" stroke-width="0.5" fill="#FFFFFF"></path>
        <path d="M6.53499993,19.843611 C6.53499993,19.8214806 7.22650086,18.6681651 8.28439611,16.9258913 C9.64469025,14.6855894 9.64970967,14.6770789 9.62450967,14.6536556 C9.6124804,14.6424743 8.86529634,14.4053923 7.96410052,14.126807 C7.06290475,13.8482214 6.30893102,13.6108933 6.28860346,13.5994113 C6.26793932,13.5877394 7.14401272,13.5782071 8.27560075,13.5777916 L10.2995572,13.5770479 L10.6913399,12.9231678 L11.0831224,12.2692879 L12.2650437,12.2629456 L13.446965,12.2566035 L14.6907429,10.2149907 C15.3748208,9.09210389 15.9378382,8.18325147 15.9418929,8.19531825 C15.9459472,8.20738532 15.7429489,9.07946551 15.4907848,10.1332745 C15.2386208,11.1870835 15.0234088,12.0960403 15.012536,12.1531783 L14.992767,12.2570657 L16.104531,12.2574506 C17.2871311,12.2578619 17.657242,12.2763144 18.0580841,12.3548464 C18.3277794,12.4076848 18.7388033,12.5409426 18.9397725,12.6406982 C19.2963149,12.8176764 19.707949,13.1641179 19.8765966,13.4291523 C19.9469135,13.5396577 19.9523531,13.5663835 19.9081777,13.584322 C19.891238,13.591201 19.5705817,13.7453745 19.1956081,13.9269298 L18.5138377,14.2570306 L18.4131888,14.1026344 C18.1392623,13.6824291 17.7144387,13.4377341 17.0452354,13.3147038 C16.8482683,13.278492 16.5413853,13.2727259 14.4320124,13.2656023 C12.159204,13.2579263 12.0406351,13.2596717 12.0148554,13.3011785 C11.9999453,13.3251858 11.3163696,14.4613121 10.4957982,15.8259047 C8.4956934,19.1520356 8.73487071,18.7793229 8.53642584,18.8792196 C8.02780738,19.1352579 6.53499993,19.8545691 6.53499993,19.8436093 L6.53499993,19.843611 L6.53499993,19.843611 L6.53499993,19.843611 Z" id="path3779" stroke-opacity="0" stroke="#000000" stroke-width="0.5" fill="#FFFFFF"></path>
        <path d="M6.53499994,19.8440537 C6.53499994,19.8219981 6.85803411,19.2830602 8.26663193,16.955066 C9.03659255,15.6825493 9.63693751,14.6656044 9.62465429,14.6546647 C9.61254536,14.6438808 8.86529634,14.4066772 7.96410052,14.1275451 C7.06290475,13.8484133 6.30893102,13.6106956 6.28860347,13.5992839 C6.26811335,13.5877808 7.15349333,13.5782036 8.27549109,13.5777916 L10.2993382,13.577048 L10.6908834,12.9231678 L11.0824286,12.2692879 L12.2644273,12.2629181 L13.4464259,12.2565487 L14.6904925,10.2150208 C15.3747293,9.09218032 15.9378348,8.18324126 15.9418382,8.19515611 C15.9458417,8.20707067 15.7489466,9.0544775 15.5042936,10.0782821 C15.2596409,11.1020867 15.0443845,12.0111421 15.0259463,12.0984055 L14.9924224,12.2570657 L16.1043584,12.2574506 C17.6124339,12.2579756 17.9899907,12.2939184 18.5618988,12.4914066 C19.0342825,12.6545276 19.367962,12.8612686 19.6597714,13.1716266 C19.84055,13.3638963 19.9622172,13.5376942 19.9349642,13.5647309 C19.9175034,13.5820531 18.5596586,14.2374944 18.5280411,14.2438628 C18.5133062,14.2468304 18.4734798,14.1997595 18.4395379,14.1392603 C18.3416228,13.9647335 18.0298327,13.6733419 17.8322862,13.571737 C17.6064045,13.4555589 17.3407803,13.3684676 17.0540788,13.3165828 C16.8476727,13.2792293 16.5594645,13.2735915 14.4432891,13.2655105 C12.1729288,13.2568406 12.0627543,13.2584407 12.025812,13.3006265 C12.0045235,13.3249374 11.3162435,14.4613121 10.4963009,15.8259047 C9.67635829,17.190497 8.93719679,18.4169806 8.85372007,18.551423 L8.70194359,18.7958642 L8.48702003,18.9036665 C7.92792746,19.1840975 6.53499994,19.8551404 6.53499994,19.844052 L6.53499994,19.8440537 L6.53499994,19.8440537 L6.53499994,19.8440537 Z" id="path3781" stroke-opacity="0" stroke="#000000" stroke-width="0.5" fill="#FFFFFF"></path>
        <path d="M20.3414957,14.267779 C20.2268844,14.0995011 20.0128962,13.6575375 20.0128962,13.5891016 C20.0128962,13.5824722 20.9470477,13.5780818 22.088788,13.5793451 C23.8757415,13.5813224 24.1423877,13.5861275 24.0045218,13.6138697 C23.8695283,13.6410336 20.6457236,14.4355664 20.5275609,14.4707948 C20.4992217,14.4792436 20.4458821,14.4210447 20.3414957,14.267779 L20.3414957,14.267779 L20.3414957,14.267779 L20.3414957,14.267779 L20.3414957,14.267779 Z" id="path3783" stroke-opacity="0" stroke="#000000" stroke-width="0.5" fill="#FFFFFF"></path>
        <path d="M9.89831406,18.2699479 L10.9824594,17.7361231 L12.3525425,17.7343355 C14.0533042,17.7321162 14.4844472,17.7017928 15.0356841,17.5456256 C16.1651774,17.2256373 17.1230948,16.1360462 17.0751668,15.2258001 L17.0635188,15.0045769 L17.765351,14.6680744 C18.1513592,14.4829983 18.4759285,14.3405519 18.4866163,14.351527 C18.4973046,14.3625023 18.5235423,14.4562672 18.5449225,14.5598933 C18.7495419,15.5516437 18.0722319,16.9222591 16.969898,17.7471377 C16.3072625,18.2429893 15.4565057,18.5724139 14.4544008,18.7211728 C13.9818726,18.7913177 13.3402091,18.8073725 11.0810179,18.8055757 L8.81416909,18.8037706 L9.89831406,18.2699461 L9.89831406,18.2699458 L9.89831406,18.2699479 L9.89831406,18.2699479 L9.89831406,18.2699479 Z" id="path3785" stroke-opacity="0" stroke="#000000" stroke-width="0.5" fill="#FFFFFF"></path>
        <path d="M16.1437707,21.5809628 C15.4597881,21.0333413 14.6988948,20.4246642 14.452897,20.2283471 C14.2068991,20.0320298 14.0073177,19.8696254 14.0093831,19.8674477 C14.0114468,19.8652693 14.2127193,19.8393972 14.456652,19.8099523 C14.8452012,19.7630508 14.9650703,19.7585757 15.4238832,19.7738441 L15.9476001,19.7912724 L16.0804531,20.0391146 C16.6848823,21.1667018 17.4007267,22.5369015 17.3947245,22.5547656 C17.3906825,22.5667954 16.8277532,22.1285842 16.1437707,21.5809628 L16.1437707,21.5809628 L16.1437707,21.5809628 L16.1437707,21.5809628 Z" id="path3787" stroke-opacity="0" stroke="#000000" stroke-width="0.5" fill="#FFFFFF"></path>
        <path d="M7.22491055,22.5100526 C7.22491055,22.4996956 7.25421573,22.4407563 7.29003337,22.3790759 C7.36006277,22.2584801 8.43441237,20.4875991 8.44528547,20.4748408 C8.46246085,20.4546874 9.88673634,20.089078 9.88065628,20.1063832 C9.87489402,20.1227845 9.15951329,20.7757122 7.44050761,22.3335052 C7.32192929,22.4409631 7.22491055,22.5204093 7.22491055,22.5100526 L7.22491055,22.5100526 L7.22491055,22.5100526 L7.22491055,22.5100526 Z" id="path3789" stroke-opacity="0" stroke="#000000" stroke-width="0.5" fill="#FFFFFF"></path>
    </g>
</svg>