<?xml version="1.0" encoding="UTF-8" standalone="no"?>
<svg width="30px" height="30px" viewBox="0 0 30 30" version="1.1" xmlns="http://www.w3.org/2000/svg" xmlns:xlink="http://www.w3.org/1999/xlink">
    <!-- Generator: Sketch 41 (35326) - http://www.bohemiancoding.com/sketch -->
    <title>stars</title>
    <desc>Created with Sketch.</desc>
    <defs></defs>
    <g id="Page-1" stroke="none" stroke-width="1" fill="none" fill-rule="evenodd">
        <g id="stars">
            <g transform="translate(2.000000, 3.000000)" id="Page-1">
                <g>
                    <g id="Artboard-Copy">
                        <g id="stars" transform="translate(0.000000, 0.462963)">
                            <g id="Page-1">
                                <g id="Artboard-Copy">
                                    <g id="stars" transform="translate(0.000000, 0.127589)">
                                        <g id="Page-1">
                                            <g id="Artboard">
                                                <g id="stars">
                                                    <g id="#0b714cff" fill="#0B714C">
                                                        <path d="M15.0112335,0.00656167977 C15.0579002,0.292723826 15.0729659,0.583260426 15.1067717,0.871609801 C15.3250393,2.99941674 15.5352231,5.12831731 15.7586351,7.25575968 C16.8411549,7.35892389 17.9413123,7.75043745 18.7015747,8.54913968 C21.4820997,8.54695245 24.2629921,8.54950421 27.0438845,8.54768153 C27.3620997,8.52872556 27.6810499,8.53783903 28,8.53966171 L28,8.54986875 C25.0530184,10.1119131 22.1086089,11.6805192 19.1623622,13.243657 C18.5975853,14.4287694 17.7568504,15.4979586 16.6688189,16.2510936 C16.8775327,18.2884952 17.0822047,20.3258968 17.2901838,22.3629338 C15.3555381,20.8245844 13.4286089,19.2763926 11.4958005,17.7354914 C11.2099212,17.7617381 10.9192651,17.7391368 10.635958,17.7755906 C7.46335959,19.4557451 4.29664041,21.148294 1.12257218,22.8258968 C2.14593176,21.1362643 3.17847769,19.4517352 4.20183727,17.7621027 C3.43937008,17.7613735 2.67653544,17.7635608 1.91406824,17.761009 C2.95322835,16.0301837 3.99569554,14.3015456 5.03779528,12.5721784 C3.35926509,11.2314086 1.68146982,9.88918046 0.00293963255,8.5484106 C2.48839895,8.54804606 4.97422571,8.54877514 7.46005251,8.54804606 C7.72866141,8.10513269 7.99469818,7.66112569 8.26146981,7.21748324 C9.04892389,7.21857685 9.83637797,7.21748324 10.623832,7.21784778 C12.0848294,4.81335667 13.551706,2.4121464 15.0112335,0.00656167977 L15.0112335,0.00656167977 L15.0112335,0.00656167977 L15.0112335,0.00656167977 Z M14.6096063,1.59157189 C13.3786352,3.62459901 12.1337008,5.64924176 10.9064042,7.68445611 C10.1156431,7.70559931 9.32304464,7.67898806 8.53191603,7.69757949 C8.28902886,8.1102362 8.03732281,8.51778944 7.79296588,8.92971713 C7.76577429,8.96945171 7.74225723,9.03543306 7.68015747,9.02194519 C5.57501313,9.01975796 3.46986877,9.02486148 1.36472441,9.01939343 C2.78272966,10.160032 4.20698162,11.2930155 5.6279265,12.4300087 C5.68451445,12.4639107 5.6224147,12.5207787 5.60698161,12.5601488 C4.65674541,14.1302129 3.71496063,15.7057451 2.76362205,17.2750802 C3.5264567,17.2860164 4.28965879,17.273622 5.05249346,17.2809129 C4.98488191,17.4208953 4.89154857,17.5462963 4.81511809,17.6811753 C4.09674541,18.8644649 3.37469816,20.0455672 2.65669292,21.2288568 C2.58908137,21.3433217 2.50897638,21.4508604 2.45900263,21.5748031 C5.15648294,20.1490959 7.8455118,18.7069845 10.5444619,17.2849228 C10.8865617,17.2758093 11.2301312,17.2758093 11.5725984,17.2535724 C11.6751181,17.230242 11.7412598,17.3210119 11.8140157,17.3742344 C12.952021,18.2859434 14.0925984,19.1947361 15.2302363,20.106445 C15.7185827,20.4877515 16.1925984,20.888014 16.6871915,21.2609361 C16.6857217,21.2317731 16.6831497,21.1738117 16.6816798,21.1446485 C16.507874,19.4320502 16.3314961,17.7198162 16.1620997,16.0072179 C17.3254593,15.2825168 18.2091863,14.1706766 18.7721261,12.9374453 C18.8059318,12.8710994 18.887874,12.8528726 18.9474016,12.8156897 C21.3031497,11.5649606 23.6581627,10.3127734 26.0135434,9.06167977 C26.0230971,9.05147273 26.0425722,9.03105861 26.0521261,9.02085157 C23.5291863,9.02085157 21.0066142,9.02449694 18.484042,9.01902889 C18.1864042,8.68110236 17.8259318,8.39712745 17.4195276,8.19808981 C16.7706036,7.86854769 16.0401049,7.74059491 15.3184252,7.69757949 C15.1016272,5.62992125 14.8984252,3.5608049 14.6849343,1.49278216 C14.6577428,1.5241324 14.6309187,1.55621172 14.6096063,1.59157189 L14.6096063,1.59157189 L14.6096063,1.59157189 L14.6096063,1.59157189 Z" id="path3091"></path>
                                                    </g>
                                                    <g id="#231f1fff" transform="translate(1.359580, 1.458151)" fill="#231F1F">
                                                        <path d="M13.2500263,0.133420822 C13.2713386,0.0980606593 13.2981627,0.0659813356 13.3253544,0.0346310878 C13.5388451,2.10265383 13.7420472,4.17177019 13.9588451,6.23942843 C14.6805249,6.28244384 15.4110236,6.41039662 16.0599475,6.73993875 C16.4663517,6.93897639 16.8268242,7.2229513 17.1244619,7.56087782 C19.6470341,7.56634588 22.1696063,7.56270051 24.6925459,7.56270051 C24.6829921,7.57290755 24.663517,7.59332167 24.6539633,7.6035287 C22.2985827,8.85462236 19.9435696,10.1068096 17.5878215,11.3575386 C17.528294,11.3947215 17.4463517,11.4129483 17.4125459,11.4792943 C16.8496063,12.7125256 15.9658793,13.8243656 14.8025197,14.5490668 C14.971916,16.2616652 15.148294,17.9738991 15.3220998,19.6864975 C15.3235696,19.7156606 15.3261417,19.773622 15.3276115,19.802785 C14.8330184,19.429863 14.3590027,19.0296005 13.8706561,18.648294 C12.7330184,17.736585 11.592441,16.8277923 10.4544357,15.9160834 C10.3816797,15.8628608 10.3155381,15.772091 10.2130184,15.7954214 C9.87055113,15.8176581 9.52698161,15.8176581 9.18488191,15.8267717 C6.48593176,17.2488334 3.79690288,18.6909449 1.09942257,20.116652 C1.14939632,19.9927093 1.22950131,19.8851706 1.29711286,19.7707057 C2.01511811,18.5874162 2.73716535,17.4063138 3.45553806,16.2230242 C3.53196851,16.0881452 3.62530184,15.9627443 3.69291338,15.8227618 C2.93007874,15.8154709 2.16687665,15.8278653 1.404042,15.8169291 C2.35538058,14.247594 3.29716535,12.6720619 4.24740157,11.1019977 C4.26283464,11.0626276 4.32493439,11.0057596 4.26834646,10.9718577 C2.84740157,9.83486435 1.42314961,8.70188102 0.00514435693,7.56124236 C2.11028871,7.56671042 4.21543307,7.5616069 6.32057743,7.56379412 C6.38267719,7.57728199 6.40619425,7.51130065 6.43338584,7.47156606 C6.67774277,7.05963838 6.92944882,6.65208514 7.17233594,6.23942843 C7.96346455,6.22083699 8.75606298,6.24744824 9.54682419,6.22630505 C10.7741207,4.1910907 12.0190552,2.16644794 13.2500263,0.133420822 L13.2500263,0.133420822 L13.2500263,0.133420822 L13.2500263,0.133420822 Z M12.404147,3.37634879 C11.6288189,4.64785653 10.8575327,5.92155148 10.0796325,7.19160106 C9.29475064,7.18977838 8.50986878,7.19014292 7.72498687,7.19123653 C7.45858269,7.63414991 7.1903412,8.07596968 6.92540683,8.5203412 C5.55884513,8.52544472 4.19191601,8.51414407 2.82535433,8.52580926 C2.8088189,8.52179935 2.77574803,8.51414407 2.7592126,8.5104987 C2.79559055,8.58705162 2.87790026,8.62569264 2.93889764,8.68073782 C3.81490813,9.38174389 4.69349081,10.0798337 5.56729661,10.7837562 C5.0289764,11.6557306 4.50866142,12.5393701 3.97622047,13.4157189 C3.69291338,13.8954506 3.39307087,14.3660689 3.12041994,14.8512686 L3.10020997,14.8622047 C4.33265091,14.8662146 5.56509189,14.8629338 6.79753279,14.8640274 C6.88094489,14.8676728 6.96986878,14.8472587 7.04813648,14.8851706 C6.89674543,14.917979 6.75013122,14.9686498 6.59837271,14.9989064 L6.59139105,15.0072907 C6.08614174,15.1363371 5.58383201,15.2774132 5.07895015,15.4086469 C4.85076116,15.7833917 4.62220473,16.1577719 4.39511811,16.5332458 C4.18015747,16.8948673 3.94461943,17.2459171 3.74619423,17.6166521 C3.78624672,17.5933217 3.82593176,17.5688976 3.86892388,17.5517644 C3.9743832,17.5131234 4.06918635,17.4526101 4.1687664,17.4023039 C5.46845143,16.7104112 6.76923884,16.0210703 8.06892389,15.3291776 C8.36803151,15.1786235 8.65648294,15.0021872 8.96146981,14.8658501 C9.51154857,14.8669437 10.0627296,14.8592884 10.6113385,14.8100758 C11.7566929,15.7327209 12.9075591,16.6484398 14.0565879,17.5663458 L14.0547506,17.5783756 C14.0837795,17.5984252 14.1142782,17.6184748 14.1436745,17.6388889 C14.0385827,16.6524497 13.9456168,15.6641879 13.8291338,14.6792068 C13.4201575,14.7309711 13.0071391,14.7284194 12.5955906,14.7287839 C12.264147,14.7262321 11.9327033,14.7101924 11.6019947,14.6897784 C12.4996851,14.537037 13.3907612,14.276028 14.1760105,13.8086906 C14.8613124,13.4076991 15.4444619,12.8455818 15.8953281,12.1970692 C16.3164305,11.5893846 16.6743308,10.9211869 16.8216798,10.1924759 C16.9058268,9.806795 16.8925984,9.41017787 16.8279265,9.0230388 C16.9352231,9.15682417 17.0285564,9.30118111 17.111601,9.45100611 C17.2644619,9.74373 17.3530184,10.0656168 17.3938057,10.3922426 C18.5049869,9.79877519 19.6139632,9.20093319 20.7244094,8.60637213 C20.7387401,8.59324875 20.7674016,8.56736657 20.7817323,8.55424324 C20.7953281,8.55278505 20.8225197,8.54913968 20.8361155,8.54768153 C20.8302363,8.54111986 20.8188451,8.52872556 20.8133333,8.52252843 C19.4166404,8.52070574 18.01958,8.51888306 16.6225197,8.5232575 L16.6188451,8.51560222 C16.3432546,8.01800815 15.8574803,7.66404199 15.3283464,7.46755616 C14.6154855,7.19415282 13.8390551,7.17811315 13.0850393,7.19415282 C12.9384253,5.82859435 12.8179003,4.45939049 12.6595275,3.09529018 C12.6562205,3.05956547 12.6529134,3.02347623 12.6499737,2.98775153 C12.5570079,3.11023622 12.488294,3.2480315 12.404147,3.37634879 L12.404147,3.37634879 L12.404147,3.37634879 L12.404147,3.37634879 Z" id="path3094"></path>
                                                        <path d="M8.44960629,9.26399824 C9.67506568,9.25306213 10.9008923,9.26254009 12.1267192,9.25925926 C12.5371653,9.27675704 12.9714961,9.30555556 13.3327033,9.51953917 C13.5208398,9.62707787 13.6483464,9.81918926 13.6935434,10.0280694 C13.7622572,10.3871391 13.6428347,10.7527705 13.4730709,11.0673666 C13.0843044,11.7588947 12.4078215,12.2871099 11.6380053,12.4970837 C11.2117586,12.615923 10.7675066,12.6534704 10.3261942,12.6669582 C9.43070865,12.6706036 8.53522311,12.6629483 7.64010497,12.6709681 C7.67097114,12.5904054 7.7224147,12.5204141 7.76797901,12.4478711 C8.27910762,11.6138087 8.7975853,10.7841207 9.3072441,9.94932926 C9.02320211,9.71821231 8.73622045,9.49146981 8.44960629,9.26399824 L8.44960629,9.26399824 L8.44960629,9.26399824 L8.44960629,9.26399824 Z" id="path3096"></path>
                                                    </g>
                                                    <g id="#a7aaacff" transform="translate(4.115486, 4.520269)" fill="#A7AAAC">
                                                        <path d="M9.85695536,0.0641586468 C9.86871396,0.0565033537 9.89186352,0.0411927676 9.90362203,0.0331729367 C10.0619947,1.39727326 10.1825197,2.7664771 10.3291338,4.13203557 C9.84997375,4.14515894 9.37007876,4.13276465 8.89091863,4.13859726 C8.91112861,3.98221056 8.95853019,3.83092738 8.99233594,3.67709244 C9.28115487,2.4730242 9.56556431,1.26713327 9.85695536,0.0641586468 L9.85695536,0.0641586468 L9.85695536,0.0641586468 L9.85695536,0.0641586468 Z" id="path3099"></path>
                                                        <path d="M5.75616799,5.45494315 C5.81643043,5.35287255 5.8744882,5.24897931 5.94614174,5.15456403 C7.36892389,5.16258384 8.79133859,5.15565764 10.2141207,5.15784486 C10.7454594,5.16695829 11.2988451,5.22892972 11.7677165,5.49650042 C12.0392651,5.64887722 12.2527559,5.88983667 12.3865091,6.16834352 C12.8803675,5.93285213 13.3723884,5.69444444 13.8629396,5.453485 L13.8666142,5.46114028 C13.9470866,5.62263051 14.0018373,5.79469231 14.0720209,5.96092157 C14.1366929,6.34806065 14.1499212,6.74467773 14.0657743,7.1303587 C13.9184253,7.85906972 13.5605249,8.52726741 13.1394225,9.1349519 C12.6885564,9.78346454 12.1054069,10.3455818 11.4201049,10.7465733 C10.6348557,11.2139107 9.74377955,11.4749198 8.84608923,11.6276611 C8.51611549,11.6706766 8.18540683,11.7074949 7.85543309,11.7479586 C7.30682414,11.7971712 6.75564307,11.8048265 6.20556431,11.8037329 C5.90057743,11.94007 5.61212601,12.1165062 5.31301839,12.2670604 C4.01333333,12.9589531 2.71254594,13.648294 1.41286089,14.3401866 C1.31328085,14.3904929 1.21847769,14.4510061 1.11301837,14.4896471 C1.10125984,14.4459026 1.12992126,14.4138232 1.16152231,14.3883056 C1.96330709,13.6636045 2.76251969,12.9363517 3.5632021,12.2101924 C3.65653543,12.1245261 3.75721785,12.0454214 3.83548557,11.9451735 L3.8424672,11.9367892 C3.99422572,11.9065325 4.14083989,11.8558618 4.29223097,11.8230533 C4.21396325,11.7851414 4.12503937,11.8055556 4.0416273,11.8019102 C2.80918635,11.8008166 1.57674541,11.8040974 0.344304462,11.8000875 L0.364514436,11.7891513 C1.10750657,11.4264363 1.85490814,11.0695538 2.59459318,10.7010061 C2.96866142,10.1086322 3.31811024,9.5002187 3.68372703,8.90237681 C4.37417323,7.75298921 5.06572178,6.60433069 5.75616799,5.45494315 L5.75616799,5.45494315 L5.75616799,5.45494315 L5.75616799,5.45494315 Z M5.69370079,6.20188102 C5.98031495,6.42935259 6.26729661,6.65609509 6.55133859,6.88721204 C6.04167979,7.72200352 5.52320211,8.55169144 5.0120735,9.3857538 C4.96650919,9.45829685 4.91506563,9.52828815 4.88419946,9.60885093 C4.13973753,9.97557593 3.38682414,10.3258968 2.64677165,10.6999125 C4.12724409,10.6977253 5.60771652,10.699548 7.08818899,10.6988189 C8.04871391,10.7119423 9.02503938,10.5770632 9.91207345,10.1983085 C10.9600525,9.75904056 11.8437795,8.91586468 12.2608398,7.85870514 C12.4706561,7.3348644 12.5728084,6.73483523 12.3780577,6.19094486 C11.8937533,6.41951005 11.4142257,6.65828231 10.9302887,6.88830565 C10.932126,6.90762611 10.9358005,6.94663167 10.9376378,6.96595218 C10.8924409,6.75707204 10.7649343,6.56496065 10.5767978,6.45742199 C10.2155906,6.24343833 9.78125979,6.21463981 9.37081367,6.19714204 C8.14498687,6.20042287 6.91916013,6.19094486 5.69370079,6.20188102 L5.69370079,6.20188102 L5.69370079,6.20188102 L5.69370079,6.20188102 Z" id="path3101"></path>
                                                        <path d="M0.00330708661,5.44838144 C0.0198425197,5.45202685 0.0529133859,5.45968213 0.0694488191,5.46369204 C0.098110236,5.47645088 0.155800525,5.50160398 0.184829396,5.51399824 C1.29784777,5.86176727 2.41417323,6.19896472 3.52608923,6.55001458 C3.28577428,6.93934093 3.06199475,7.33887431 2.81139108,7.72163898 C1.9375853,7.01771653 1.05900263,6.31962671 0.182992126,5.6186206 C0.12199475,5.56357537 0.0396850393,5.5249344 0.00330708661,5.44838144 L0.00330708661,5.44838144 L0.00330708661,5.44838144 L0.00330708661,5.44838144 Z" id="path3103"></path>
                                                        <path d="M17.5415223,5.59674833 C17.7024672,5.56029454 17.8601049,5.50597843 18.0258267,5.49212597 C18.0114961,5.50524935 17.9828346,5.53113153 17.9685039,5.54425491 C16.8580577,6.13881597 15.7490814,6.73665792 14.6379003,7.33012542 C14.5971129,7.00349958 14.5085564,6.68161273 14.3556956,6.38888889 C15.4165354,6.12095361 16.47958,5.86140273 17.5415223,5.59674833 L17.5415223,5.59674833 L17.5415223,5.59674833 L17.5415223,5.59674833 Z" id="path3105"></path>
                                                        <path d="M9.83968505,11.6666667 C10.2512336,11.6663021 10.664252,11.6688539 11.0732284,11.6170895 C11.1897113,12.6020706 11.2826772,13.5903324 11.387769,14.5767717 C11.3583728,14.5563575 11.3278739,14.536308 11.2988451,14.5162583 L11.3006824,14.5042286 C11.3128084,14.4659521 11.308399,14.4302274 11.288189,14.39669 C10.8049868,13.4868037 10.3140682,12.5809273 9.83968505,11.6666667 L9.83968505,11.6666667 L9.83968505,11.6666667 L9.83968505,11.6666667 Z" id="path3107"></path>
                                                    </g>
                                                    <path d="M4.54730994,16.2142207 C4.56629997,16.1833246 4.68735549,15.9791502 4.81632219,15.7605002 C5.03256068,15.3938889 6.68652759,12.6582698 7.36085047,11.5519148 C7.52012007,11.2906033 7.64484602,11.0716431 7.63801934,11.0653369 C7.63119289,11.0590303 6.88077969,10.8235357 5.97043454,10.5420148 C5.06008944,10.2604944 4.29958094,10.0230193 4.2804157,10.0142928 C4.25856718,10.0043447 4.55750488,9.99707 5.08186803,9.99478972 C5.54183173,9.99278917 6.45440889,9.98642926 7.10981675,9.98065648 L8.30146763,9.97016009 L8.69490305,9.31766667 L9.08833847,8.66517292 L10.2650749,8.66517292 L11.4418109,8.66517292 L12.6337261,6.70769264 C14.021126,4.42916769 13.9998691,4.46318722 14.0084729,4.50750685 C14.0119966,4.52565967 14.0035676,4.54880402 13.9897413,4.55893876 C13.9641509,4.57769699 13.0014159,8.55260833 13.0007219,8.64237269 C13.0006043,8.65781421 13.3112931,8.66455935 14.2767893,8.67007727 C15.632049,8.67782296 15.6583561,8.67925227 16.1043618,8.76937125 C16.9079225,8.93173722 17.5554868,9.33153574 17.9082415,9.88306556 C17.9387151,9.93071157 17.962236,9.97083435 17.9605098,9.97222741 C17.9528022,9.97844759 16.5153037,10.6701863 16.5100849,10.6701863 C16.5068651,10.6701863 16.4764176,10.6231068 16.4424234,10.5655652 C16.1234397,10.0256218 15.5431924,9.74387546 14.6292574,9.68515954 C14.4843003,9.67584667 13.4100301,9.66823361 12.2130158,9.66803583 L10.0577722,9.66768009 L10.0070489,9.74113944 C9.97915119,9.78154213 9.31334763,10.8840834 8.52748568,12.1912309 C7.74162401,13.4983788 7.00944445,14.7133546 6.90042052,14.8911776 L6.70219522,15.2144919 L5.88332001,15.6158819 C5.00197936,16.0478904 4.53956636,16.270396 4.52310206,16.270396 C4.51742623,16.270396 4.52831992,16.2451172 4.54730994,16.214221 L4.54730994,16.2142207 L4.54730994,16.2142207 L4.54730994,16.2142207 Z" id="path3000" stroke-opacity="0" stroke="#000000" stroke-width="0.5" fill-opacity="0" fill="#FFFFFF"></path>
                                                    <path d="M18.4268279,10.8127843 C18.400522,10.7676281 18.3379828,10.6723468 18.2878523,10.6010478 C18.2125972,10.4940148 18.1251143,10.3111704 18.0170125,10.0349773 L18.0017912,9.99608685 L20.0703262,9.99867657 C21.2080204,10.0000997 22.1153401,10.0045142 22.0865925,10.0084841 C22.0578447,10.0124538 21.2368793,10.2135179 20.2622251,10.4552937 C19.2875711,10.6970694 18.4866462,10.8948857 18.4823919,10.8948857 C18.478138,10.8948857 18.4531341,10.8579399 18.4268279,10.8127839 L18.4268279,10.8127843 L18.4268279,10.8127843 L18.4268279,10.8127843 Z" id="path3002" stroke-opacity="0" stroke="#000000" stroke-width="0.5" fill-opacity="0" fill="#FFFFFF"></path>
                                                    <path d="M7.17261286,15.0315313 C7.3738469,14.9304856 7.86695322,14.6888478 8.26840471,14.4945585 L8.99831604,14.1413054 L10.4375522,14.1336752 C12.0998094,14.124862 12.3532096,14.1111213 12.8263353,14.0041426 C13.8593868,13.7705579 14.7054199,13.0415431 15.0158151,12.1174978 C15.0596911,11.9868787 15.0637774,11.9518845 15.0655028,11.6920087 L15.0673841,11.408844 L15.7772254,11.0665194 C16.220131,10.8529259 16.4896356,10.7319145 16.4938984,10.7447232 C16.6123106,11.1005527 16.6152453,11.5123995 16.5025224,11.955189 C16.2319133,13.0181785 15.421218,13.9986755 14.357501,14.5494888 C13.73294,14.8728985 13.0130769,15.0756521 12.1354485,15.1753427 C11.9058695,15.2014206 11.5917878,15.2053156 9.34176161,15.2099875 L6.80673355,15.2152511 L7.17261403,15.0315313 L7.17261403,15.0315313 L7.17261286,15.0315313 L7.17261286,15.0315313 L7.17261286,15.0315313 Z" id="path3004" stroke-opacity="0" stroke="#000000" stroke-width="0.5" fill-opacity="0" fill="#FFFFFF"></path>
                                                    <path d="M13.6999123,17.6379502 C12.7669493,16.8912476 12.0114071,16.2777326 12.02093,16.2745836 C12.0304529,16.2714345 12.2488859,16.2435923 12.5063368,16.2127121 C12.9041338,16.1649982 13.0045193,16.1584066 13.1747929,16.1688198 C13.2849923,16.1755591 13.470105,16.1817253 13.5861541,16.1825229 C13.7022035,16.183319 13.8323366,16.1887568 13.8753391,16.1946043 L13.9535252,16.2052359 L14.2371952,16.7433902 C14.3932135,17.0393751 14.7204316,17.6564276 14.9643465,18.114618 C15.2082616,18.5728084 15.405214,18.958469 15.4020187,18.9716413 C15.3984764,18.9862441 14.7341915,18.4657416 13.6999123,17.6379502 L13.6999123,17.6379502 L13.6999123,17.6379502 L13.6999123,17.6379502 L13.6999123,17.6379502 Z" id="path3006" stroke-opacity="0" stroke="#000000" stroke-width="0.5" fill-opacity="0" fill="#FFFFFF"></path>
                                                    <path d="M5.20539371,18.9192602 C5.24144334,18.8550909 5.46801785,18.4797991 5.70889251,18.0852782 C5.94976746,17.6907573 6.21229135,17.2590747 6.29227905,17.1259831 C6.37226707,16.9928919 6.439069,16.8820569 6.44072814,16.879683 C6.44844233,16.8686471 7.88424028,16.4941992 7.89949729,16.4992444 C7.90904109,16.5024004 7.88268171,16.5353103 7.84092013,16.5723774 C7.15295201,17.1830102 5.22796069,18.9459871 5.21938578,18.9732742 C5.20781893,19.0100805 5.18169204,19.0351709 5.15441579,19.0356664 C5.14640411,19.0358122 5.16934413,18.9834293 5.20539371,18.9192602 L5.20539371,18.9192602 L5.20539371,18.9192602 L5.20539371,18.9192602 L5.20539371,18.9192602 Z" id="path3008" stroke-opacity="0" stroke="#000000" stroke-width="0.5" fill-opacity="0" fill="#FFFFFF"></path>
                                                    <path d="M14.7977128,18.523299 C14.4623054,18.2545477 13.6958577,17.6405771 13.0944959,17.1589194 C12.4931341,16.6772622 12.0011154,16.2802844 12.0011207,16.2767469 C12.001126,16.2732092 12.221497,16.2440155 12.4908341,16.2118719 L12.9805375,16.153429 L13.2207743,16.1664538 C13.3529045,16.1736173 13.5716305,16.183417 13.7068322,16.1882307 L13.9526534,16.1969825 L14.2650531,16.7897521 C14.4368732,17.1157755 14.7632365,17.7306999 14.9903051,18.1562505 C15.3379958,18.8078597 15.4425935,19.0202625 15.4122366,19.0130519 C15.4096555,19.0124395 15.1331201,18.7920501 14.7977128,18.523299 L14.7977128,18.523299 L14.7977128,18.523299 L14.7977128,18.523299 Z" id="path3005" stroke-opacity="0" stroke="#000000" stroke-width="0.5" fill="#FFFFFF"></path>
                                                    <path d="M14.0205516,17.8920449 C13.2688214,17.290254 12.5080756,16.6804611 12.3300053,16.5369493 L12.0062412,16.2760184 L12.4582304,16.2208592 C12.8586204,16.171997 12.9694527,16.1677463 13.4290817,16.1836244 L13.9479435,16.2015488 L14.1052547,16.497865 C15.146676,18.459517 15.4009016,18.9458297 15.3946628,18.9643975 C15.390632,18.9763943 14.7722817,18.4938355 14.0205516,17.8920449 L14.0205516,17.8920449 L14.0205516,17.8920449 L14.0205516,17.8920449 Z" id="path3775" stroke-opacity="0" stroke="#000000" stroke-width="0.5" fill="#FFFFFF"></path>
                                                    <path d="M5.22491055,18.9195442 C5.22491055,18.9091636 5.25416663,18.8502044 5.28992431,18.7885241 C5.35399069,18.6780123 6.43356868,16.8991983 6.44562147,16.8842891 C6.46158632,16.8645404 7.8867775,16.4983806 7.88065628,16.5155999 C7.87681627,16.5264025 7.38580915,16.9774039 6.78952937,17.5178256 C6.1932493,18.058247 5.59727761,18.5989619 5.46514729,18.7194142 C5.33301697,18.8398665 5.22491055,18.9299251 5.22491055,18.9195442 L5.22491055,18.9195442 L5.22491055,18.9195442 L5.22491055,18.9195442 Z" id="path3777" stroke-opacity="0" stroke="#000000" stroke-width="0.5" fill="#FFFFFF"></path>
                                                    <path d="M4.53499993,16.2530592 C4.53499993,16.2309288 5.22650086,15.0776132 6.28439611,13.3353394 C7.64469025,11.0950376 7.64970967,11.086527 7.62450967,11.0631038 C7.6124804,11.0519224 6.86529634,10.8148405 5.96410052,10.5362552 C5.06290475,10.2576695 4.30893102,10.0203415 4.28860346,10.0088594 C4.26793932,9.9971875 5.14401272,9.98765528 6.27560075,9.98723972 L8.29955719,9.98649602 L8.69133991,9.33261593 L9.08312239,8.67873606 L10.2650437,8.6723937 L11.446965,8.66605162 L12.6907429,6.62443889 C13.3748208,5.50155204 13.9378382,4.59269962 13.9418929,4.6047664 C13.9459472,4.61683347 13.7429489,5.48891366 13.4907848,6.54272264 C13.2386208,7.59653162 13.0234088,8.50548847 13.012536,8.56262644 L12.992767,8.66651384 L14.104531,8.6668988 C15.2871311,8.66731 15.657242,8.68576259 16.0580841,8.76429454 C16.3277794,8.81713296 16.7388033,8.95039079 16.9397725,9.05014639 C17.2963149,9.22712454 17.707949,9.57356602 17.8765966,9.83860046 C17.9469135,9.94910583 17.9523531,9.97583167 17.9081777,9.99377019 C17.891238,10.0006492 17.5705817,10.1548227 17.1956081,10.336378 L16.5138377,10.6664788 L16.4131888,10.5120825 C16.1392623,10.0918772 15.7144387,9.84718222 15.0452354,9.72415194 C14.8482683,9.68794019 14.5413853,9.68217407 12.4320124,9.67505046 C10.159204,9.66737444 10.0406351,9.66911981 10.0148554,9.71062667 C9.99994529,9.73463398 9.31636958,10.8707603 8.49579822,12.2353529 C6.4956934,15.5614838 6.73487071,15.188771 6.53642584,15.2886678 C6.02780738,15.544706 4.53499993,16.2640172 4.53499993,16.2530574 L4.53499993,16.2530592 L4.53499993,16.2530592 L4.53499993,16.2530592 Z" id="path3779" stroke-opacity="0" stroke="#000000" stroke-width="0.5" fill="#FFFFFF"></path>
                                                    <path d="M4.53499994,16.2535019 C4.53499994,16.2314462 4.85803411,15.6925083 6.26663193,13.3645142 C7.03659255,12.0919974 7.63693751,11.0750525 7.62465429,11.0641129 C7.61254536,11.053329 6.86529634,10.8161254 5.96410052,10.5369932 C5.06290475,10.2578615 4.30893102,10.0201438 4.28860347,10.008732 C4.26811335,9.99722898 5.15349333,9.98765176 6.27549109,9.98723972 L8.29933818,9.98649611 L8.69088341,9.33261593 L9.08242865,8.67873606 L10.2644273,8.6723663 L11.4464259,8.66599681 L12.6904925,6.62446894 C13.3747293,5.50162847 13.9378348,4.59268941 13.9418382,4.60460426 C13.9458417,4.61651881 13.7489466,5.46392565 13.5042936,6.48773023 C13.2596409,7.51153486 13.0443845,8.42059028 13.0259463,8.50785361 L12.9924224,8.66651384 L14.1043584,8.6668988 C15.6124339,8.66742375 15.9899907,8.70336657 16.5618988,8.90085477 C17.0342825,9.06397579 17.367962,9.27071676 17.6597714,9.58107472 C17.84055,9.77334444 17.9622172,9.94714231 17.9349642,9.97417907 C17.9175034,9.9915013 16.5596586,10.6469426 16.5280411,10.6533109 C16.5133062,10.6562785 16.4734798,10.6092077 16.4395379,10.5487084 C16.3416228,10.3741817 16.0298327,10.0827901 15.8322862,9.98118519 C15.6064045,9.86500704 15.3407803,9.77791574 15.0540788,9.72603093 C14.8476727,9.68867741 14.5594645,9.68303963 12.4432891,9.67495861 C10.1729288,9.6662887 10.0627543,9.66788889 10.025812,9.71007463 C10.0045235,9.73438556 9.31624349,10.8707603 8.49630091,12.2353529 C7.67635829,13.5999452 6.93719679,14.8264287 6.85372007,14.9608711 L6.70194359,15.2053123 L6.48702003,15.3131146 C5.92792746,15.5935456 4.53499994,16.2645885 4.53499994,16.2535002 L4.53499994,16.2535019 L4.53499994,16.2535019 L4.53499994,16.2535019 Z" id="path3781" stroke-opacity="0" stroke="#000000" stroke-width="0.5" fill="#FFFFFF"></path>
                                                    <path d="M18.3414957,10.6772271 C18.2268844,10.5089493 18.0128962,10.0669856 18.0128962,9.99854972 C18.0128962,9.99192037 18.9470477,9.98752991 20.088788,9.98879324 C21.8757415,9.99077056 22.1423877,9.99557565 22.0045218,10.0233179 C21.8695283,10.0504818 18.6457236,10.8450145 18.5275609,10.880243 C18.4992217,10.8886918 18.4458821,10.8304929 18.3414957,10.6772271 L18.3414957,10.6772271 L18.3414957,10.6772271 L18.3414957,10.6772271 L18.3414957,10.6772271 Z" id="path3783" stroke-opacity="0" stroke="#000000" stroke-width="0.5" fill="#FFFFFF"></path>
                                                    <path d="M7.89831406,14.679396 L8.98245936,14.1455713 L10.3525425,14.1437836 C12.0533042,14.1415644 12.4844472,14.1112409 13.0356841,13.9550738 C14.1651774,13.6350855 15.1230948,12.5454944 15.0751668,11.6352482 L15.0635188,11.4140251 L15.765351,11.0775226 C16.1513592,10.8924465 16.4759285,10.75 16.4866163,10.7609752 C16.4973046,10.7719505 16.5235423,10.8657154 16.5449225,10.9693415 C16.7495419,11.9610919 16.0722319,13.3317072 14.969898,14.1565858 C14.3072625,14.6524374 13.4565057,14.981862 12.4544008,15.1306209 C11.9818726,15.2007658 11.3402091,15.2168206 9.08101791,15.2150239 L6.81416909,15.2132187 L7.89831406,14.6793943 L7.89831406,14.679394 L7.89831406,14.679396 L7.89831406,14.679396 L7.89831406,14.679396 Z" id="path3785" stroke-opacity="0" stroke="#000000" stroke-width="0.5" fill="#FFFFFF"></path>
                                                    <path d="M14.1437707,17.9904109 C13.4597881,17.4427894 12.6988948,16.8341123 12.452897,16.6377953 C12.2068991,16.441478 12.0073177,16.2790735 12.0093831,16.2768958 C12.0114468,16.2747174 12.2127193,16.2488454 12.456652,16.2194005 C12.8452012,16.172499 12.9650703,16.1680239 13.4238832,16.1832922 L13.9476001,16.2007206 L14.0804531,16.4485628 C14.6848823,17.5761499 15.4007267,18.9463496 15.3947245,18.9642137 C15.3906825,18.9762435 14.8277532,18.5380323 14.1437707,17.9904109 L14.1437707,17.9904109 L14.1437707,17.9904109 L14.1437707,17.9904109 Z" id="path3787" stroke-opacity="0" stroke="#000000" stroke-width="0.5" fill="#FFFFFF"></path>
                                                    <path d="M5.22491055,18.9195007 C5.22491055,18.9091438 5.25421573,18.8502044 5.29003337,18.7885241 C5.36006277,18.6679282 6.43441237,16.8970472 6.44528547,16.884289 C6.46246085,16.8641356 7.88673634,16.4985261 7.88065628,16.5158314 C7.87489402,16.5322327 7.15951329,17.1851604 5.44050761,18.7429533 C5.32192929,18.8504112 5.22491055,18.9298574 5.22491055,18.9195007 L5.22491055,18.9195007 L5.22491055,18.9195007 L5.22491055,18.9195007 Z" id="path3789" stroke-opacity="0" stroke="#000000" stroke-width="0.5" fill="#FFFFFF"></path>
                                                </g>
                                            </g>
                                        </g>
                                    </g>
                                </g>
                            </g>
                        </g>
                    </g>
                </g>
            </g>
        </g>
    </g>
</svg>