<?xml version="1.0" encoding="UTF-8" standalone="no"?>
<svg width="30px" height="30px" viewBox="0 0 30 30" version="1.1" xmlns="http://www.w3.org/2000/svg" xmlns:xlink="http://www.w3.org/1999/xlink">
    <!-- Generator: Sketch 41 (35326) - http://www.bohemiancoding.com/sketch -->
    <title>wild</title>
    <desc>Created with Sketch.</desc>
    <defs>
        <polygon id="path-1" points="0 20.399196 31.561285 20.399196 31.561285 -1.77635684e-14 0 -1.77635684e-14"></polygon>
    </defs>
    <g id="Page-1" stroke="none" stroke-width="1" fill="none" fill-rule="evenodd">
        <g id="wild">
            <g transform="translate(-1.000000, 3.000000)" id="Page-1">
                <g>
                    <g id="Artboard-Copy">
                        <g id="wild" transform="translate(0.000000, 0.911641)">
                            <g id="Page-1">
                                <g id="Artboard">
                                    <g id="wild" transform="translate(0.000000, 0.228673)">
                                        <g id="g2412" transform="translate(16.551933, 11.280722) scale(1, -1) translate(-16.551933, -11.280722) translate(0.051933, 0.280722)">
                                            <g id="g2414" transform="translate(0.019132, 0.109343)">
                                                <g id="g2416-Clipped">
                                                    <g>
                                                        <mask id="mask-2" fill="white">
                                                            <use xlink:href="#path-1"></use>
                                                        </mask>
                                                        <g id="path-1"></g>
                                                        <g id="g2416" mask="url(#mask-2)">
                                                            <g id="Group" transform="translate(0.000000, 0.135995)">
                                                                <g id="g2422" transform="translate(0.120880, 0.103982)" fill="#EEE3C6">
                                                                    <path d="M17.8389872,1.77635684e-14 L26.3417346,8.28152955 L24.5395852,8.28737735 L31.234557,15.3574666 C31.234557,15.3574666 29.6763901,15.8180804 29.1685279,15.9034851 L30.2387299,16.7454279 C28.4594968,17.200466 24.7749226,17.7804832 20.8650283,17.5245412 C20.8650283,17.5245412 20.029752,19.9192709 16.808717,19.9192709 C13.129769,19.9192709 12.2487974,17.1094857 12.2487974,17.1094857 C12.2487974,17.1094857 7.83241315,16.1992735 3.79188256,13.6027278 L4.66420903,12.9485936 C4.66420903,12.9485936 2.84490679,12.024374 0.0849410233,9.85648349 C0.384087117,8.63008386 1.5879443,7.04465833 1.70993553,6.90227193 C2.18555038,6.58037262 3.82632552,5.7162627 5.09330528,5.28543166 C5.32576103,5.34091746 5.78202741,5.53090198 5.78202741,5.53090198 C5.92830708,5.47174434 6.61414754,5.28842357 6.80365251,5.2642165 C6.66876228,4.45790428 7.26925002,4.00259423 7.26925002,4.00259423 L6.85373885,3.77670714 C6.85373885,3.77670714 7.41909752,2.5139969 10.1883945,1.86271858 C16.4527607,3.24211221 17.8389872,1.77635684e-14 17.8389872,1.77635684e-14" id="path2424"></path>
                                                                </g>
                                                                <g id="g2426" transform="translate(0.847928, 0.911191)" fill="#015836">
                                                                    <path d="M-1.77635684e-15,8.83965158 C0.292696613,8.06597809 0.832120139,7.19574835 1.34876466,6.49619196 C1.50794331,6.35530151 3.11647106,5.52342228 4.38194137,5.048529 C4.51683155,5.06716027 4.93440107,5.25469688 5.00754093,5.30161504 C5.08068077,5.30161504 6.00913142,4.89213517 7.20859749,4.89213517 C7.63330262,4.89213517 7.9604422,4.93483748 7.9604422,5.02309801 C7.9604422,5.09531116 7.78356178,5.18615558 7.70218855,5.22192216 C7.45751995,5.32976592 7.1339482,5.4216983 7.1339482,5.68348796 C7.1339482,5.94514165 7.61614974,6.29342393 9.80279788,6.29342393 C11.1802422,6.29342393 12.0870115,6.21753892 12.0870115,6.21753892 L12.0870115,6.06386497 C11.3820972,6.06386497 10.651522,5.96078104 10.1636943,5.84192172 C9.85384485,5.76644468 9.36944775,5.62514626 9.36944775,5.47228833 C9.36944775,5.19145937 10.6292919,5.18941945 10.6292919,4.63048148 C10.6292919,4.17653137 10.1609499,3.68055892 8.42247195,3.68055892 C7.4826318,3.68055892 6.72502372,3.98341899 6.66052894,3.98341899 C6.59589687,3.98341899 6.58299795,3.96220383 6.58299795,3.94085266 C6.58299795,3.90930191 6.63651489,3.80363408 6.73366877,3.67321522 C6.86979394,3.49043841 7.10554305,3.25911153 7.52352424,3.11114937 L6.96187059,2.79536982 C7.59885963,2.15034724 9.14275536,1.70686872 9.46275933,1.61792823 C9.46275933,1.61792823 14.7616247,2.99242604 17.2195627,0.0161833621 L23.947468,6.93967048 L22.3548582,6.94837411 L28.7425878,14.1462984 C28.7425878,14.1462984 27.5202055,14.5843371 26.2862965,14.8232797 L27.1270617,15.4718382 C27.1270617,15.4718382 22.8798732,16.3504995 19.4277548,16.0732064 C19.4277548,16.0732064 18.7821206,18.4807196 15.7659596,18.4807196 C12.8446197,18.4807196 11.9034072,15.8186245 11.9034072,15.8186245 C11.9034072,15.8186245 8.4339987,15.2583265 4.04629396,12.7471855 L4.981743,12.0362055 C4.981743,12.0362055 2.96511412,11.1054583 -1.77635684e-15,8.83965158" id="path2428"></path>
                                                                </g>
                                                                <g id="g2430" transform="translate(4.076826, 7.202276)" fill="#BF2B37">
                                                                    <path d="M0.137222978,0.6799732 C0.137222978,0.6799732 0.719734522,0.500868258 2.27158918,0.599736359 L4.05150844,1.68402162 L5.41454428,1.24598289 L5.82923212,1.8217842 L5.38161075,1.8217842 L6.28975241,3.27651885 L7.0603967,1.8217842 L6.71171309,1.8217842 L6.94403157,1.31846803 L7.91694249,1.49322114 L8.32161306,2.00537696 L7.9598933,2.00537696 L8.50233572,2.82855251 L8.08051228,2.82855251 L8.93705813,4.27907134 L9.68176724,2.79455385 L9.3417287,2.79455385 L9.866881,1.91562049 L9.45795653,1.91562049 L10.2642788,0.472445378 L11.044803,1.58148166 L10.5111429,1.58148166 L11.3261102,2.80434546 L10.8094657,2.80434546 L11.991916,4.8407292 L13.0191673,2.80434546 L12.5945994,2.80434546 L13.2831843,1.58148166 L12.80112,1.58148166 L13.4783153,0.102675953 L14.6377124,1.95709886 L14.0007232,1.95709886 L14.9361723,3.48703855 L14.3507791,3.48703855 L15.6248945,6.01245899 L16.9392161,3.35049993 L16.4743046,3.35049993 L17.3180888,1.95125109 L16.7383216,1.95125109 L17.4041275,0.586272891 L18.4544323,2.18448189 L17.891818,2.18448189 L19.1258643,3.95336417 L18.4601956,3.95336417 L20.4401859,6.64959388 L21.5020173,4.78388343 L23.700055,7.47698526 C23.700055,7.47698526 19.8663194,9.07261036 14.2072438,9.07261036 C6.69442298,9.07261036 2.43584509,6.45620953 2.43584509,6.45620953 C2.43584509,6.45620953 7.36599225,8.16103833 12.7809482,8.16103833 C16.7325583,8.16103833 19.0798946,7.26945747 19.0798946,7.26945747 C19.0798946,7.26945747 14.0221301,7.29312054 5.89098246,5.11380643 C7.21093028,5.11380643 8.0029813,4.73546935 8.0029813,4.73546935 C8.0029813,4.73546935 4.70290591,4.15246033 0.0827454557,2.19291357 L0.673902043,1.32567575 L0.137222978,0.6799732 L0.137222978,0.6799732 L0.137222978,0.6799732 Z" id="path2432"></path>
                                                                </g>
                                                                <g id="g2434" transform="translate(14.694990, 12.608063)" fill="#EFB410">
                                                                    <path d="M0,0.815967838 C0.503745553,0.38513682 1.16008306,0.124571089 1.87762201,0.124571089 C2.93602284,0.124571089 3.86063127,0.691260752 4.35998569,1.5349715 C3.1441901,1.37993761 1.68056981,1.1518746 0,0.815967838" id="path2436"></path>
                                                                </g>
                                                                <g id="g2438" transform="translate(13.581795, 15.121176)" fill="#EFB410">
                                                                    <path d="M0.137222978,0.815967838 C0.122677342,0.699828413 0.115130079,0.581513078 0.115130079,0.461565807 C0.115130079,0.327611087 0.124598464,0.195968276 0.142711897,0.0671813521 C1.1448513,0.174889107 2.20091935,0.242070459 3.27606138,0.242070459 C4.22934941,0.242070459 5.08891415,0.190120507 5.84501277,0.11137961 C5.85928396,0.226159086 5.86655675,0.34297848 5.86655675,0.461565807 C5.86655675,0.693300673 5.83856327,0.918507797 5.78600689,1.13419529 C5.43279495,1.14684279 5.07148683,1.15364252 4.7022198,1.15364252 C3.01204437,1.15364252 1.48653652,1.02118375 0.137222978,0.815967838" id="path2440"></path>
                                                                </g>
                                                                <g id="g2442" transform="translate(13.602228, 15.871268)" fill="#EFB410">
                                                                    <path d="M5.48891916,1.08795712 C4.9990331,1.96648249 4.05493901,2.56145903 2.97032859,2.56145903 C1.50327772,2.56145903 0.292833836,1.47254996 0.116776754,0.0658214053 C1.39651825,0.535138907 3.52649331,0.936595083 5.48891916,1.08795712" id="path2444"></path>
                                                                </g>
                                                                <g id="g2446" transform="translate(6.415983, 12.084661)" fill="#FFFFFF">
                                                                    <path d="M10.4289463,2.44790351 C9.21068072,2.40928103 6.97243677,2.30184527 3.34508454,1.40863248 C3.3442612,1.40836049 3.34330065,1.40836049 3.34247731,1.40822449 C3.29980096,1.6870135 3.26192741,1.90501291 3.26192741,1.90501291 C3.26192741,1.90501291 3.11509883,1.66702229 2.92971059,1.3345154 C2.0119633,1.00731229 0.873012587,0.5302431 0.118148984,0.129602891 C0.581550983,0.289396593 1.50067049,0.590488727 2.71097716,0.928707391 C2.5858298,0.687724891 2.46150579,0.430559028 2.36517525,0.192976393 L2.99653818,0.756130198 C2.99653818,0.756130198 3.43126058,0.507124011 3.45417681,0.515691673 C3.44347342,0.665285775 3.42083162,0.856222253 3.39475925,1.04838268 C5.34593277,1.56869816 7.85381993,2.14966727 10.4289463,2.44790351" id="path2448"></path>
                                                                </g>
                                                            </g>
                                                        </g>
                                                    </g>
                                                </g>
                                            </g>
                                        </g>
                                    </g>
                                </g>
                            </g>
                        </g>
                    </g>
                </g>
            </g>
        </g>
    </g>
</svg>