<?xml version="1.0" encoding="UTF-8"?>
<svg width="30px" height="30px" viewBox="0 0 30 30" version="1.1" xmlns="http://www.w3.org/2000/svg" xmlns:xlink="http://www.w3.org/1999/xlink">
    <!-- Generator: Sketch 50.2 (55047) - http://www.bohemiancoding.com/sketch -->
    <title>wild</title>
    <desc>Created with Sketch.</desc>
    <defs></defs>
    <g id="wild" stroke="none" stroke-width="1" fill="none" fill-rule="evenodd">
        <g id="Group" transform="translate(15.000000, 15.500000) scale(1, -1) translate(-15.000000, -15.500000) translate(-1.000000, 5.000000)">
            <path d="M17.9598671,0.103981522 L26.4626145,8.38551108 L24.6604651,8.39135887 L31.3554369,15.4614482 C31.3554369,15.4614482 29.79727,15.922062 29.2894078,16.0074666 L30.3596098,16.8494095 C28.5803766,17.3044475 24.8958025,17.8844647 20.9859082,17.6285227 C20.9859082,17.6285227 20.1506318,20.0232524 16.9295969,20.0232524 C13.2506489,20.0232524 12.3696773,17.2134672 12.3696773,17.2134672 C12.3696773,17.2134672 7.95329302,16.303255 3.91276243,13.7067093 L4.7850889,13.0525751 C4.7850889,13.0525751 2.96578666,12.1283555 0.205820894,9.96046501 C0.504966988,8.73406538 1.70882417,7.14863985 1.83081541,7.00625346 C2.30643025,6.68435414 3.94720539,5.82024422 5.21418515,5.38941318 C5.4466409,5.44489898 5.90290728,5.6348835 5.90290728,5.6348835 C6.04918695,5.57572586 6.73502741,5.39240509 6.92453238,5.36819802 C6.78964215,4.5618858 7.39012989,4.10657575 7.39012989,4.10657575 L6.97461872,3.88068866 C6.97461872,3.88068866 7.53997739,2.61797842 10.3092743,1.9667001 C16.5736405,3.34609373 17.9598671,0.103981522 17.9598671,0.103981522" id="path2424" fill="#EEE3C6"></path>
            <path d="M0.847928194,9.75084288 C1.14062481,8.97716939 1.68004833,8.10693965 2.19669285,7.40738326 C2.35587151,7.26649282 3.96439925,6.43461359 5.22986956,5.9597203 C5.36475974,5.97835158 5.78232926,6.16588818 5.85546912,6.21280635 C5.92860897,6.21280635 6.85705961,5.80332648 8.05652568,5.80332648 C8.48123082,5.80332648 8.80837039,5.84602878 8.80837039,5.93428932 C8.80837039,6.00650247 8.63148998,6.09734688 8.55011675,6.13311347 C8.30544814,6.24095723 7.98187639,6.33288961 7.98187639,6.59467926 C7.98187639,6.85633296 8.46407794,7.20461524 10.6507261,7.20461524 C12.0281703,7.20461524 12.9349397,7.12873023 12.9349397,7.12873023 L12.9349397,6.97505627 C12.2300254,6.97505627 11.4994502,6.87197235 11.0116225,6.75311302 C10.701773,6.67763599 10.2173759,6.53633757 10.2173759,6.38347963 C10.2173759,6.10265067 11.4772201,6.10061075 11.4772201,5.54167278 C11.4772201,5.08772267 11.0088781,4.59175023 9.27040014,4.59175023 C8.33055999,4.59175023 7.57295191,4.89461029 7.50845713,4.89461029 C7.44382506,4.89461029 7.43092614,4.87339513 7.43092614,4.85204397 C7.43092614,4.82049322 7.48444309,4.71482538 7.58159697,4.58440652 C7.71772213,4.40162972 7.95347124,4.17030284 8.37145244,4.02234067 L7.80979878,3.70656112 C8.44678783,3.06153854 9.99068355,2.61806002 10.3106875,2.52911953 C10.3106875,2.52911953 15.6095529,3.90361735 18.0674909,0.927374666 L24.7953962,7.85086178 L23.2027864,7.85956541 L29.590516,15.0574897 C29.590516,15.0574897 28.3681337,15.4955284 27.1342247,15.734471 L27.9749899,16.3830295 C27.9749899,16.3830295 23.7278014,17.2616908 20.2756829,16.9843977 C20.2756829,16.9843977 19.6300488,19.3919109 16.6138878,19.3919109 C13.6925479,19.3919109 12.7513354,16.7298158 12.7513354,16.7298158 C12.7513354,16.7298158 9.28192689,16.1695178 4.89422215,13.6583768 L5.82967119,12.9473968 C5.82967119,12.9473968 3.81304231,12.0166496 0.847928194,9.75084288" id="path2428" fill="#015836"></path>
            <path d="M4.21404891,7.88224929 C4.21404891,7.88224929 4.79656046,7.70314434 6.34841511,7.80201245 L8.12833437,8.88629771 L9.49137021,8.44825898 L9.90605806,9.02406028 L9.45843668,9.02406028 L10.3665783,10.4787949 L11.1372226,9.02406028 L10.788539,9.02406028 L11.0208575,8.52074412 L11.9937684,8.69549723 L12.398439,9.20765304 L12.0367192,9.20765304 L12.5791617,10.0308286 L12.1573382,10.0308286 L13.0138841,11.4813474 L13.7585932,9.99682993 L13.4185546,9.99682993 L13.9437069,9.11789658 L13.5347825,9.11789658 L14.3411047,7.67472147 L15.121629,8.78375775 L14.5879689,8.78375775 L15.4029361,10.0066215 L14.8862916,10.0066215 L16.068742,12.0430053 L17.0959932,10.0066215 L16.6714253,10.0066215 L17.3600102,8.78375775 L16.8779459,8.78375775 L17.5551413,7.30495204 L18.7145383,9.15937495 L18.0775492,9.15937495 L19.0129982,10.6893146 L18.4276051,10.6893146 L19.7017204,13.2147351 L21.0160421,10.552776 L20.5511305,10.552776 L21.3949147,9.15352717 L20.8151476,9.15352717 L21.4809534,7.78854898 L22.5312582,9.38675798 L21.968644,9.38675798 L23.2026902,11.1556403 L22.5370215,11.1556403 L24.5170119,13.85187 L25.5788433,11.9861595 L27.776881,14.6792613 C27.776881,14.6792613 23.9431454,16.2748864 18.2840698,16.2748864 C10.7712489,16.2748864 6.51267102,13.6584856 6.51267102,13.6584856 C6.51267102,13.6584856 11.4428182,15.3633144 16.8577742,15.3633144 C20.8093842,15.3633144 23.1567205,14.4717336 23.1567205,14.4717336 C23.1567205,14.4717336 18.098956,14.4953966 9.9678084,12.3160825 C11.2877562,12.3160825 12.0798072,11.9377454 12.0798072,11.9377454 C12.0798072,11.9377454 8.77973184,11.3547364 4.15957139,9.39518965 L4.75072798,8.52795184 L4.21404891,7.88224929 L4.21404891,7.88224929 L4.21404891,7.88224929 Z" id="path2432" fill="#BF2B37"></path>
            <path d="M14.6949897,13.4240309 C15.1987353,12.9931999 15.8550728,12.7326341 16.5726118,12.7326341 C17.6310126,12.7326341 18.555621,13.2993238 19.0549754,14.1430345 C17.8391798,13.9880007 16.3755596,13.7599376 14.6949897,13.4240309" id="path2436" fill="#EFB410"></path>
            <path d="M13.7190176,15.9371439 C13.704472,15.8210045 13.6969247,15.7026892 13.6969247,15.5827419 C13.6969247,15.4487872 13.7063931,15.3171444 13.7245065,15.1883574 C14.7266459,15.2960652 15.782714,15.3632465 16.857856,15.3632465 C17.8111441,15.3632465 18.6707088,15.3112966 19.4268074,15.2325557 C19.4410786,15.3473352 19.4483514,15.4641546 19.4483514,15.5827419 C19.4483514,15.8144768 19.4203579,16.0396839 19.3678015,16.2553714 C19.0145896,16.2680189 18.6532815,16.2748186 18.2840144,16.2748186 C16.593839,16.2748186 15.0683312,16.1423598 13.7190176,15.9371439" id="path2440" fill="#EFB410"></path>
            <path d="M19.0911467,16.9592256 C18.6012606,17.837751 17.6571666,18.4327275 16.5725561,18.4327275 C15.1055053,18.4327275 13.8950614,17.3438184 13.7190043,15.9370899 C14.9987458,16.4064074 17.1287209,16.8078636 19.0911467,16.9592256" id="path2444" fill="#EFB410"></path>
            <path d="M16.8449295,14.5325644 C15.6266639,14.4939419 13.3884199,14.3865061 9.7610677,13.4932933 C9.76024436,13.4930214 9.75928381,13.4930214 9.75846047,13.4928854 C9.71578412,13.7716744 9.67791058,13.9896738 9.67791058,13.9896738 C9.67791058,13.9896738 9.53108199,13.7516832 9.34569375,13.4191763 C8.42794647,13.0919732 7.28899575,12.614904 6.53413215,12.2142638 C6.99753414,12.3740575 7.91665365,12.6751496 9.12696032,13.0133683 C9.00181296,12.7723858 8.87748895,12.5152199 8.78115842,12.2776373 L9.41252134,12.8407911 C9.41252134,12.8407911 9.84724374,12.5917849 9.87015997,12.6003525 C9.85945658,12.7499466 9.83681479,12.9408831 9.81074241,13.1330435 C11.7619159,13.653359 14.2698031,14.2343281 16.8449295,14.5325644" id="path2448" fill="#FFFFFF"></path>
        </g>
    </g>
</svg>